<svg width="80" height="80" xmlns="http://www.w3.org/2000/svg">
    <defs>
        <linearGradient x1="108.633%" y1="30.112%" x2="46.927%" y2="65.817%" id="a">
            <stop stop-color="#0052CC" offset="18%"/>
            <stop stop-color="#2684FF" offset="100%"/>
        </linearGradient>
    </defs>
    <path d="M2.596 4A2.564 2.564 0 0 0 .033 6.974l10.88 66.054a3.486 3.486 0 0 0 3.41 2.91h52.2c1.27.015 2.36-.9 2.563-2.154l10.88-66.797a2.563 2.563 0 0 0-2.562-2.974L2.596 4zm45.818 47.74H31.753l-4.511-23.568H52.45L48.414 51.74z" fill="#2684FF"/>
    <path d="M76.507 28.172H52.45L48.414 51.74H31.753L12.08 75.091c.624.54 1.419.84 2.243.846h52.213c1.27.016 2.36-.9 2.563-2.153l7.408-45.612z" fill="url(#a)"/>
</svg>
