<svg width="80" height="80" xmlns="http://www.w3.org/2000/svg">
    <path d="M40 2.75c20.625 0 37.313 16.688 37.313 37.281 0 20.594-16.688 37.313-37.313 37.313-20.625 0-37.313-16.688-37.313-37.281C2.688 19.468 19.375 2.75 40 2.75z" fill="#E74D89"/>
    <path d="M40 80C17.937 80 0 62.094 0 40.062 0 18 17.938.094 40 .094 62.063.094 80 18 80 40.03 80 62.063 62.062 80 40 80zm33.719-34.5c-1.156-.375-10.563-3.156-21.281-1.469 4.468 12.25 6.28 22.25 6.624 24.313C66.75 63.188 72.22 55 73.72 45.5zm-20.375 26c-.5-3-2.5-13.438-7.282-25.875a.58.58 0 0 1-.218.063C26.562 52.406 19.656 65.75 19.03 67A34.031 34.031 0 0 0 40 74.188 33.4 33.4 0 0 0 53.344 71.5zm-38.719-8.594c.781-1.312 10.156-16.812 27.781-22.531.438-.156.907-.281 1.344-.406a88.911 88.911 0 0 0-2.781-5.782c-17.063 5.094-33.625 4.876-35.125 4.844 0 .344-.032.688-.032 1.032a34.146 34.146 0 0 0 8.813 22.843zM6.562 33.094c1.532.031 15.594.093 31.594-4.157C32.5 18.876 26.375 10.438 25.5 9.22c-9.594 4.5-16.719 13.312-18.938 23.875zM32 6.906c.938 1.25 7.156 9.688 12.75 19.969 12.156-4.563 17.281-11.438 17.906-12.313A34.061 34.061 0 0 0 40 5.97c-2.75 0-5.438.343-8 .937zM66.438 18.5c-.72.969-6.438 8.313-19.063 13.469a141.2 141.2 0 0 1 2.281 4.937c.25.594.5 1.188.75 1.75 11.375-1.437 22.657.875 23.782 1.094a33.986 33.986 0 0 0-7.75-21.25z" fill="#B2215A"/>
</svg>
