<?xml version="1.0" encoding="UTF-8"?>
<svg width="80px" height="80px" viewBox="0 0 80 80" version="1.1" xmlns="http://www.w3.org/2000/svg" xmlns:xlink="http://www.w3.org/1999/xlink">
    <title>dribbble</title>
    <g id="dribbble" stroke="none" stroke-width="1" fill="none" fill-rule="evenodd">
        <path d="M40,2.75 C60.625,2.75 77.3125,19.4375 77.3125,40.03125 C77.3125,60.625 60.625,77.34375 40,77.34375 C19.375,77.34375 2.6875,60.65625 2.6875,40.0625 C2.6875,19.46875 19.375,2.75 40,2.75 L40,2.75 L40,2.75 Z" id="Path" fill="#E74D89" fill-rule="nonzero"></path>
        <path d="M40,80 C17.9375,80 0,62.09375 0,40.0625 C0,18 17.9375,0.09375 40,0.09375 C62.0625,0.09375 80,18 80,40.03125 C80,62.0625 62.0625,80 40,80 L40,80 L40,80 Z M73.71875,45.5 C72.5625,45.125 63.15625,42.34375 52.4375,44.03125 C56.90625,56.28125 58.71875,66.28125 59.0625,68.34375 C66.75,63.1875 72.21875,55 73.71875,45.5 L73.71875,45.5 L73.71875,45.5 Z M53.34375,71.5 C52.84375,68.5 50.84375,58.0625 46.0625,45.625 C46,45.65625 45.90625,45.6875 45.84375,45.6875 C26.5625,52.40625 19.65625,65.75 19.03125,67 C24.8125,71.5 32.09375,74.1875 40,74.1875 C44.71875,74.21875 49.25,73.25 53.34375,71.5 L53.34375,71.5 L53.34375,71.5 Z M14.625,62.90625 C15.40625,61.59375 24.78125,46.09375 42.40625,40.375 C42.84375,40.21875 43.3125,40.09375 43.75,39.96875 C42.90625,38.03125 41.96875,36.09375 40.96875,34.1875 C23.90625,39.28125 7.34375,39.0625 5.84375,39.03125 C5.84375,39.375 5.8125,39.71875 5.8125,40.0625 C5.84375,48.84375 9.15625,56.84375 14.625,62.90625 L14.625,62.90625 L14.625,62.90625 Z M6.5625,33.09375 C8.09375,33.125 22.15625,33.1875 38.15625,28.9375 C32.5,18.875 26.375,10.4375 25.5,9.21875 C15.90625,13.71875 8.78125,22.53125 6.5625,33.09375 L6.5625,33.09375 L6.5625,33.09375 Z M32,6.90625 C32.9375,8.15625 39.15625,16.59375 44.75,26.875 C56.90625,22.3125 62.03125,15.4375 62.65625,14.5625 C56.625,9.21875 48.6875,5.96875 40,5.96875 C37.25,5.96875 34.5625,6.3125 32,6.90625 L32,6.90625 L32,6.90625 Z M66.4375,18.5 C65.71875,19.46875 60,26.8125 47.375,31.96875 C48.15625,33.59375 48.9375,35.25 49.65625,36.90625 C49.90625,37.5 50.15625,38.09375 50.40625,38.65625 C61.78125,37.21875 73.0625,39.53125 74.1875,39.75 C74.09375,31.71875 71.21875,24.3125 66.4375,18.5 L66.4375,18.5 L66.4375,18.5 Z" id="Shape" fill="#B2215A" fill-rule="nonzero"></path>
    </g>
</svg>