<svg width="80" height="80" xmlns="http://www.w3.org/2000/svg" xmlns:xlink="http://www.w3.org/1999/xlink">
    <defs>
        <path d="M3.088 16.576c.5 2.344 1.719 3.72 2.937 4.532H18.87c1.563-1.063 3.156-3.063 3.156-6.813V4.608s.188-2.407 2.407-3.188c0 0 1.28-.906-.094-1.406 0 0-6.094-.5-6.094 4.5v7.375s.25 2.719-1.187 3.844V6.608s.093-2.907 1.593-4c0 0 1-1.782-1.187-1.313 0 0-4.188.594-4.375 5.5l-.094 9.375h-1L11.9 6.795c-.187-4.875-4.375-5.5-4.375-5.5-2.187-.5-1.187 1.313-1.187 1.313 1.5 1.093 1.594 4 1.594 4v9.218c-1.438-1.03-1.188-3.937-1.188-3.937V4.514c0-5-6.094-4.5-6.094-4.5C-.756.514.557 1.42.557 1.42c2.187.813 2.406 3.188 2.406 3.188v6.78l.125 5.188z" id="a"/>
    </defs>
    <path d="M63.79 68.428c0 4.343-10.063 7.843-22.469 7.843s-22.469-3.53-22.469-7.843c0-4.344 10.063-7.844 22.469-7.844s22.469 3.5 22.469 7.844z" fill="#9EDCF2"/>
    <g transform="translate(28.577 65.914)">
        <mask id="b" fill="#fff">
            <use xlink:href="#a"/>
        </mask>
        <path d="M35.213 2.514c0 4.344-10.063 7.844-22.469 7.844S-9.725 6.826-9.725 2.514C-9.725-1.83.338-5.33 12.744-5.33s22.469 3.5 22.469 7.844z" fill="#7DBCE7" mask="url(#b)"/>
    </g>
    <path d="M15.665 45.334l-.657 2.25s-.156.812.594.969c.813-.032.75-.782.688-1l-.625-2.22z" fill="#9EDCF2"/>
    <path d="M80.946 35.865l.062-.281c-6.593-1.313-13.343-1.344-17.437-1.156.656-2.407.875-5.22.875-8.313 0-4.469-1.688-8.031-4.375-10.719.469-1.53 1.094-4.937-.625-9.28 0 0-3.063-.97-10.031 3.687-2.719-.688-5.625-1.032-8.532-1.032-3.187 0-6.406.407-9.437 1.22-7.188-4.907-10.344-3.907-10.344-3.907-2.062 5.156-.781 9-.406 9.937-2.438 2.625-3.906 5.97-3.906 10.063 0 3.094.343 5.875 1.218 8.281-4.125-.156-10.625-.094-17 1.188l.063.28c6.375-1.28 12.937-1.312 17.031-1.155.188.5.406 1 .625 1.468-4.062.125-10.969.657-17.594 2.532l.094.28c6.688-1.874 13.656-2.374 17.688-2.5 2.437 4.5 7.187 7.438 15.687 8.345-1.219.812-2.437 2.187-2.937 4.53-1.657.782-6.844 2.72-9.969-2.655 0 0-1.75-3.188-5.094-3.438 0 0-3.25-.062-.219 2.031 0 0 2.157 1.032 3.657 4.875 0 0 1.968 6.563 11.375 4.438v6.719s-.188 2.406-2.407 3.187c0 0-1.312.906.094 1.406 0 0 6.094.5 6.094-4.5v-7.375s-.25-2.937 1.187-3.937v12.125s-.093 2.906-1.593 4c0 0-1 1.781 1.187 1.312 0 0 4.188-.593 4.375-5.5l.094-12.28h1l.094 12.28c.187 4.875 4.375 5.5 4.375 5.5 2.187.5 1.187-1.312 1.187-1.312-1.5-1.094-1.594-4-1.594-4V50.178c1.438 1.125 1.188 3.843 1.188 3.843v7.375c0 5 6.094 4.5 6.094 4.5 1.406-.5.093-1.406.093-1.406-2.187-.812-2.406-3.187-2.406-3.187v-9.688c0-3.781-1.594-5.781-3.156-6.812 9.062-.907 13.406-3.813 15.406-8.375 3.969.093 11.125.593 17.938 2.53l.093-.28c-6.78-1.907-13.875-2.407-17.906-2.532.188-.468.344-.937.5-1.437 4.188-.156 10.969-.156 17.594 1.156z" fill="#010101"/>
    <path d="M55.571 25.896c1.937 1.782 3.094 3.907 3.094 6.188 0 10.75-8 11.031-17.875 11.031s-17.875-1.5-17.875-11.031c0-2.281 1.125-4.406 3.062-6.156 3.219-2.938 8.656-1.375 14.813-1.375 6.156 0 11.562-1.594 14.781 1.343z" fill="#F5CCB3"/>
    <path d="M34.852 32.646c0 2.97-1.656 5.344-3.719 5.344-2.062 0-3.718-2.406-3.718-5.344 0-2.968 1.656-5.343 3.718-5.343 2.063-.032 3.72 2.375 3.72 5.343z" fill="#FFF"/>
    <path d="M33.665 32.709c0 1.969-1.125 3.562-2.469 3.562-1.375 0-2.469-1.593-2.469-3.562 0-1.969 1.125-3.563 2.469-3.563 1.344 0 2.469 1.594 2.469 3.563z" fill="#AF5C51"/>
    <path d="M54.821 32.646c0 2.97-1.656 5.344-3.719 5.344-2.062 0-3.719-2.406-3.719-5.344 0-2.968 1.657-5.343 3.72-5.343 2.03-.032 3.718 2.375 3.718 5.343z" fill="#FFF"/>
    <path d="M53.602 32.709c0 1.969-1.125 3.562-2.469 3.562-1.375 0-2.468-1.593-2.468-3.562 0-1.969 1.125-3.563 2.468-3.563 1.375 0 2.47 1.594 2.47 3.563zM41.79 37.396a.94.94 0 0 1-.938.938.94.94 0 0 1-.937-.938.92.92 0 0 1 .937-.937c.5 0 .938.406.938.937zm-3.094 2.344c-.063-.156.031-.312.187-.375.157-.062.313.031.375.188a1.68 1.68 0 0 0 1.594 1.125c.719 0 1.344-.47 1.594-1.125.062-.157.219-.25.375-.188.156.063.25.219.187.375a2.293 2.293 0 0 1-2.156 1.531 2.293 2.293 0 0 1-2.156-1.53z" fill="#AF5C51"/>
    <path d="M18.04 43.99c0 .25-.282.438-.657.438-.343 0-.656-.188-.656-.438s.281-.437.656-.437.657.187.657.437zm1.812 1c0 .25-.281.438-.656.438-.344 0-.656-.188-.656-.438s.281-.437.656-.437.656.187.656.437zm1.094 1.313c0 .25-.281.437-.656.437-.344 0-.657-.187-.657-.437s.282-.438.657-.438c.375-.031.656.188.656.438zm1 1.5c0 .25-.281.437-.656.437-.344 0-.657-.187-.657-.437s.282-.438.657-.438c.375-.031.656.188.656.438zm1.094 1.375c0 .25-.282.437-.657.437-.343 0-.656-.187-.656-.437s.281-.438.656-.438.657.188.657.438zm1.5 1.218c0 .25-.282.438-.657.438-.343 0-.656-.188-.656-.438s.281-.437.656-.437c.375-.031.657.187.657.437zm2.093.782c0 .25-.28.437-.656.437-.344 0-.656-.187-.656-.437s.281-.438.656-.438.656.188.656.438zm2.094 0c0 .25-.281.437-.656.437-.344 0-.656-.187-.656-.437s.281-.438.656-.438.656.188.656.438zm2.125-.344c0 .25-.281.437-.656.437-.344 0-.656-.187-.656-.437s.281-.438.656-.438c.344 0 .656.188.656.438z" fill="#C4E5D9"/>
</svg>
