<svg width="80" height="80" xmlns="http://www.w3.org/2000/svg">
    <path d="M79.3 40.9c0-2.633-.233-5.133-.633-7.567H41v15.034h21.567c-.967 4.933-3.8 9.1-8 11.933v10h12.866C74.967 63.333 79.3 53.067 79.3 40.9z" fill="#4285F4"/>
    <path d="M41 80c10.8 0 19.833-3.6 26.433-9.7l-12.866-10c-3.6 2.4-8.167 3.867-13.567 3.867-10.433 0-19.267-7.034-22.433-16.534H5.3v10.3C11.867 71 25.367 80 41 80z" fill="#34A853"/>
    <path d="M18.567 47.633A23.211 23.211 0 0 1 17.3 40c0-2.667.467-5.233 1.267-7.633v-10.3H5.3C2.567 27.467 1 33.533 1 40c0 6.467 1.567 12.533 4.3 17.933l13.267-10.3z" fill="#FBBC05"/>
    <path d="M41 15.833c5.9 0 11.167 2.034 15.333 6l11.4-11.4C60.833 3.967 51.8 0 41 0 25.367 0 11.867 9 5.3 22.067l13.267 10.3c3.166-9.5 12-16.534 22.433-16.534z" fill="#EA4335"/>
</svg>
