<?xml version="1.0" encoding="UTF-8"?>
<svg width="80px" height="80px" viewBox="0 0 80 80" version="1.1" xmlns="http://www.w3.org/2000/svg" xmlns:xlink="http://www.w3.org/1999/xlink">
    <title>google</title>
    <g id="google" stroke="none" stroke-width="1" fill="none" fill-rule="evenodd">
        <path d="M79.3,40.9 C79.3,38.2666667 79.0666667,35.7666667 78.6666667,33.3333333 L41,33.3333333 L41,48.3666667 L62.5666667,48.3666667 C61.6,53.3 58.7666667,57.4666667 54.5666667,60.3 L54.5666667,70.3 L67.4333333,70.3 C74.9666667,63.3333333 79.3,53.0666667 79.3,40.9 Z" id="Path" fill="#4285F4" fill-rule="nonzero"></path>
        <path d="M41,80 C51.8,80 60.8333333,76.4 67.4333333,70.3 L54.5666667,60.3 C50.9666667,62.7 46.4,64.1666667 41,64.1666667 C30.5666667,64.1666667 21.7333333,57.1333333 18.5666667,47.6333333 L5.3,47.6333333 L5.3,57.9333333 C11.8666667,71 25.3666667,80 41,80 Z" id="Path" fill="#34A853" fill-rule="nonzero"></path>
        <path d="M18.5666667,47.6333333 C17.7333333,45.2333333 17.3,42.6666667 17.3,40 C17.3,37.3333333 17.7666667,34.7666667 18.5666667,32.3666667 L18.5666667,22.0666667 L5.3,22.0666667 C2.56666667,27.4666667 1,33.5333333 1,40 C1,46.4666667 2.56666667,52.5333333 5.3,57.9333333 L18.5666667,47.6333333 Z" id="Path" fill="#FBBC05" fill-rule="nonzero"></path>
        <path d="M41,15.8333333 C46.9,15.8333333 52.1666667,17.8666667 56.3333333,21.8333333 L67.7333333,10.4333333 C60.8333333,3.96666667 51.8,0 41,0 C25.3666667,0 11.8666667,9 5.3,22.0666667 L18.5666667,32.3666667 C21.7333333,22.8666667 30.5666667,15.8333333 41,15.8333333 Z" id="Path" fill="#EA4335" fill-rule="nonzero"></path>
    </g>
</svg>