<svg viewBox="0 0 24 24" fill="none" xmlns="http://www.w3.org/2000/svg"><path fill-rule="evenodd" clip-rule="evenodd" d="M9.574 3.38c-1.742.135-3.484.275-5.225.422a1.048 1.048 0 0 0-.721.557l-.12.245.013 5.9.013 5.9.174.368c.107.204.775 1.155 1.51 2.12 1.457 1.931 1.563 2.026 2.11 2.094.16.014 1.378-.04 2.674-.122 1.31-.082 3.42-.218 4.677-.286 5.386-.34 5.105-.312 5.426-.584.388-.326.348.217.374-6.96.014-6.078 0-6.486-.093-6.662-.094-.218-.28-.354-2.74-2.108-1.644-1.182-1.764-1.237-2.5-1.25-.306-.014-2.82.163-5.572.367V3.38z" fill="#fff"/><path fill-rule="evenodd" clip-rule="evenodd" d="M9.574 3.38c-1.742.135-3.484.275-5.225.422a1.048 1.048 0 0 0-.721.557l-.12.245.013 5.9.013 5.9.174.368c.107.204.775 1.155 1.51 2.12 1.457 1.931 1.563 2.026 2.11 2.094.16.014 1.378-.04 2.674-.122 1.31-.082 3.42-.218 4.677-.286 5.386-.34 5.105-.312 5.426-.584.388-.326.348.217.374-6.96.014-6.078 0-6.486-.093-6.662-.094-.218-.28-.354-2.74-2.108-1.644-1.182-1.764-1.237-2.5-1.25-.306-.014-2.82.163-5.572.367V3.38zm6.215.776c.24.108 1.937 1.305 2.178 1.536.067.068.093.136.053.163-.067.068-10.584.707-10.891.653a1.174 1.174 0 0 1-.454-.177c-.482-.34-1.67-1.333-1.67-1.4 0-.19-.041-.19 4.636-.544.896-.055 2.379-.163 3.274-.245 1.938-.15 2.513-.15 2.874.014zm3.34 3.072a.77.77 0 0 1 .174.38c.014.137.027 2.665.014 5.602-.014 5.03-.027 5.356-.12 5.492a.494.494 0 0 1-.255.218c-.227.095-11.238.734-11.466.666a.726.726 0 0 1-.32-.204l-.134-.136-.013-5.438c-.014-3.82 0-5.506.04-5.655a.67.67 0 0 1 .187-.3c.093-.068.748-.122 2.993-.258 1.577-.081 4.023-.231 5.413-.326 3.34-.204 3.327-.204 3.488-.04l-.001-.001z" fill="#000"/><path fill-rule="evenodd" clip-rule="evenodd" d="M16.176 9.09c-.6.041-1.136.096-1.19.137a.58.58 0 0 0-.32.435c-.013.176.04.204.641.285l.254.027v2.407c0 1.427-.013 2.365-.053 2.338-.027-.027-.802-1.25-1.737-2.692-.936-1.468-1.71-2.664-1.724-2.664-.014-.014-.615.013-1.35.068-.895.054-1.39.122-1.483.176-.16.082-.348.381-.348.571 0 .123.214.19.655.19h.24v6.907l-.387.122c-.28.082-.388.136-.44.259-.08.19-.08.353.012.353.027 0 .655-.027 1.377-.082 1.416-.081 1.577-.122 1.724-.42a.553.553 0 0 0 .093-.218c0-.014-.2-.082-.427-.136-.24-.055-.48-.123-.535-.123-.093-.027-.093-.204-.093-2.624V11.81l1.683 2.678c1.764 2.814 1.978 3.14 2.26 3.276.333.177 1.19.055 1.616-.23l.134-.082.013-3.834.013-3.848.294-.054c.348-.068.508-.231.508-.517 0-.176-.013-.19-.174-.176-.093 0-.668.04-1.256.068V9.09z" fill="#000"/></svg>