<svg viewBox="0 0 24 24" fill="none" xmlns="http://www.w3.org/2000/svg"><path d="M12.079 19.048c-3.56 0-7.604-4.295-7.28-7.861.323-3.404 4.853-6.565 8.21-6.079 2.952.405 5.581 4.134 5.419 7.092-.161 3.12-3.236 6.848-6.35 6.848h.001z" fill="#fff"/><path d="M14.627 20.871c-.243-.08-.607-.162-.81-.243-.242-.121-.525-.121-1.415-.08-.849.04-1.294 0-1.9-.082-3.236-.567-5.825-2.917-6.755-6.16-.162-.607-.202-.931-.202-2.39 0-1.58-.04-1.702-.242-2.35C2.13 6.364 4.516 3 7.913 3c.687 0 1.537.203 2.022.446.324.162.526.202 1.78.202 1.132 0 1.577.04 2.143.203 2.548.649 4.61 2.31 5.702 4.62.688 1.418.93 2.877.768 4.538-.08.892-.08.973.122 1.5a4.973 4.973 0 0 1-1.537 5.389c-.486.405-1.456.851-2.063 1.013-.607.122-1.577.122-2.184-.04h-.04.001zm-1.093-3.12c1.335-.283 2.508-1.094 2.953-2.066.566-1.176.404-2.553-.364-3.405-.647-.729-1.618-1.134-3.923-1.701-1.537-.365-1.901-.527-2.225-.892-.283-.324-.323-.567-.08-.932.242-.405.849-.648 1.658-.688 1.173-.081 1.698.202 2.386 1.296.525.811 1.051 1.014 1.74.69.889-.447.808-1.905-.163-2.756-.93-.77-1.941-1.094-3.64-1.094-1.78 0-2.993.364-3.802 1.175-.647.648-.768 1.013-.768 2.026 0 1.053.121 1.377.809 1.985.728.69 1.334.933 3.518 1.46 1.537.364 1.942.566 2.305.972.162.203.243.364.243.73 0 .404-.04.485-.364.81-.485.486-1.213.688-2.143.648-1.092-.081-1.577-.405-2.143-1.54-.405-.77-.728-1.053-1.254-1.053-1.173 0-1.578.972-.97 2.228.525 1.095 1.576 1.824 2.911 2.107.809.163 2.588.163 3.357 0h-.041z" fill="#00AFF0"/></svg>