<?xml version="1.0" encoding="UTF-8"?>
<svg width="80px" height="80px" viewBox="0 0 80 80" version="1.1" xmlns="http://www.w3.org/2000/svg" xmlns:xlink="http://www.w3.org/1999/xlink">
    <title>slack</title>
    <g id="slack" stroke="none" stroke-width="1" fill="none" fill-rule="evenodd">
        <path d="M16.8655529,50.5330151 C16.8655529,55.1789976 13.1105807,58.9339698 8.46459825,58.9339698 C3.81861575,58.9339698 0.0636435959,55.1789976 0.0636435959,50.5330151 C0.0636435959,45.8870326 3.81861575,42.1320605 8.46459825,42.1320605 L16.8655529,42.1320605 L16.8655529,50.5330151 Z M21.0660302,50.5330151 C21.0660302,45.8870326 24.8210024,42.1320605 29.4669849,42.1320605 C34.1129674,42.1320605 37.8679395,45.8870326 37.8679395,50.5330151 L37.8679395,71.5354018 C37.8679395,76.1813842 34.1129674,79.9363564 29.4669849,79.9363564 C24.8210024,79.9363564 21.0660302,76.1813842 21.0660302,71.5354018 L21.0660302,50.5330151 Z" id="Shape" fill="#E01E5A" fill-rule="nonzero"></path>
        <path d="M29.4669849,16.8019093 C24.8210024,16.8019093 21.0660302,13.0469372 21.0660302,8.40095465 C21.0660302,3.75497216 24.8210024,0 29.4669849,0 C34.1129674,0 37.8679395,3.75497216 37.8679395,8.40095465 L37.8679395,16.8019093 L29.4669849,16.8019093 Z M29.4669849,21.0660302 C34.1129674,21.0660302 37.8679395,24.8210024 37.8679395,29.4669849 C37.8679395,34.1129674 34.1129674,37.8679395 29.4669849,37.8679395 L8.40095465,37.8679395 C3.75497216,37.8679395 -3.55271368e-15,34.1129674 -3.55271368e-15,29.4669849 C-3.55271368e-15,24.8210024 3.75497216,21.0660302 8.40095465,21.0660302 L29.4669849,21.0660302 Z" id="Shape" fill="#36C5F0" fill-rule="nonzero"></path>
        <path d="M63.1344471,29.4669849 C63.1344471,24.8210024 66.8894193,21.0660302 71.5354018,21.0660302 C76.1813842,21.0660302 79.9363564,24.8210024 79.9363564,29.4669849 C79.9363564,34.1129674 76.1813842,37.8679395 71.5354018,37.8679395 L63.1344471,37.8679395 L63.1344471,29.4669849 Z M58.9339698,29.4669849 C58.9339698,34.1129674 55.1789976,37.8679395 50.5330151,37.8679395 C45.8870326,37.8679395 42.1320605,34.1129674 42.1320605,29.4669849 L42.1320605,8.40095465 C42.1320605,3.75497216 45.8870326,0 50.5330151,0 C55.1789976,0 58.9339698,3.75497216 58.9339698,8.40095465 L58.9339698,29.4669849 L58.9339698,29.4669849 Z" id="Shape" fill="#2EB67D" fill-rule="nonzero"></path>
        <path d="M50.5330151,63.1344471 C55.1789976,63.1344471 58.9339698,66.8894193 58.9339698,71.5354018 C58.9339698,76.1813842 55.1789976,79.9363564 50.5330151,79.9363564 C45.8870326,79.9363564 42.1320605,76.1813842 42.1320605,71.5354018 L42.1320605,63.1344471 L50.5330151,63.1344471 Z M50.5330151,58.9339698 C45.8870326,58.9339698 42.1320605,55.1789976 42.1320605,50.5330151 C42.1320605,45.8870326 45.8870326,42.1320605 50.5330151,42.1320605 L71.5990453,42.1320605 C76.2450278,42.1320605 80,45.8870326 80,50.5330151 C80,55.1789976 76.2450278,58.9339698 71.5990453,58.9339698 L50.5330151,58.9339698 Z" id="Shape" fill="#ECB22E" fill-rule="nonzero"></path>
    </g>
</svg>