<svg width="80" height="80" xmlns="http://www.w3.org/2000/svg">
    <path d="M16.866 50.533a8.393 8.393 0 0 1-8.401 8.401 8.393 8.393 0 0 1-8.401-8.401 8.393 8.393 0 0 1 8.4-8.4h8.402v8.4zm4.2 0a8.393 8.393 0 0 1 8.401-8.4 8.393 8.393 0 0 1 8.4 8.4v21.002a8.393 8.393 0 0 1-8.4 8.401 8.393 8.393 0 0 1-8.401-8.4V50.532z" fill="#E01E5A"/>
    <path d="M29.467 16.802A8.393 8.393 0 0 1 21.066 8.4 8.393 8.393 0 0 1 29.467 0a8.393 8.393 0 0 1 8.4 8.401v8.4h-8.4zm0 4.264a8.393 8.393 0 0 1 8.4 8.401 8.393 8.393 0 0 1-8.4 8.4H8.401A8.393 8.393 0 0 1 0 29.468a8.393 8.393 0 0 1 8.401-8.401h21.066z" fill="#36C5F0"/>
    <path d="M63.134 29.467a8.393 8.393 0 0 1 8.401-8.401 8.393 8.393 0 0 1 8.401 8.401 8.393 8.393 0 0 1-8.4 8.4h-8.402v-8.4zm-4.2 0a8.393 8.393 0 0 1-8.401 8.4 8.393 8.393 0 0 1-8.4-8.4V8.401A8.393 8.393 0 0 1 50.532 0a8.393 8.393 0 0 1 8.401 8.401v21.066z" fill="#2EB67D"/>
    <path d="M50.533 63.134a8.393 8.393 0 0 1 8.401 8.401 8.393 8.393 0 0 1-8.401 8.401 8.393 8.393 0 0 1-8.4-8.4v-8.402h8.4zm0-4.2a8.393 8.393 0 0 1-8.4-8.401 8.393 8.393 0 0 1 8.4-8.4h21.066a8.393 8.393 0 0 1 8.401 8.4 8.393 8.393 0 0 1-8.401 8.401H50.533z" fill="#ECB22E"/>
</svg>
