<svg viewBox="0 0 24 24" fill="none" xmlns="http://www.w3.org/2000/svg"><path d="M3 15.687c0 .237.081.416.243.538a.634.634 0 0 0 .52.128c.172-.035.294-.1.364-.195s.104-.252.104-.47V13.11a.654.654 0 0 0-.38-.609.58.58 0 0 0-.24-.048.572.572 0 0 0-.43.191.654.654 0 0 0-.18.466v2.577zm1.926 1.102c0 .171.058.3.172.386.129.09.283.136.44.129a.728.728 0 0 0 .448-.129c.115-.086.172-.215.172-.386v-6.005c0-.178-.06-.33-.18-.457a.58.58 0 0 0-.44-.191.572.572 0 0 0-.43.19.643.643 0 0 0-.18.458v6.005h-.002zm1.92.284c0 .172.057.3.174.386a.746.746 0 0 0 .453.13.713.713 0 0 0 .44-.13c.114-.085.171-.214.171-.386v-5.48a.67.67 0 0 0-.378-.615.587.587 0 0 0-.677.144.662.662 0 0 0-.184.47v5.481zm1.925.027c0 .325.207.488.62.488.413 0 .62-.163.62-.488V8.217c0-.498-.143-.779-.427-.844-.185-.047-.366.009-.545.169-.179.16-.268.385-.268.675V17.1zm1.96.257V7.693c0-.308.087-.492.26-.55a4.687 4.687 0 0 1 3.501.497 5.043 5.043 0 0 1 1.788 1.745c.455.737.72 1.55.792 2.438.34-.154.703-.23 1.088-.23.782 0 1.451.293 2.007.879.555.586.833 1.29.833 2.114 0 .829-.278 1.537-.833 2.123-.556.586-1.222.88-1.998.88l-7.287-.01a.199.199 0 0 1-.113-.097.274.274 0 0 1-.038-.125z" fill="url(#paint0_linear_29_279)"/><defs><linearGradient id="paint0_linear_29_279" x1="12.019" y1="7.288" x2="12.019" y2="17.377" gradientUnits="userSpaceOnUse"><stop stop-color="#F80"/><stop offset="1" stop-color="#F30"/></linearGradient></defs></svg>