<svg viewBox="0 0 24 24" fill="none" xmlns="http://www.w3.org/2000/svg"><path d="M12 21a9 9 0 1 0 0-18 9 9 0 0 0 0 18z" fill="url(#paint0_linear_29_296)"/><path d="M9.092 12.658l1.068 2.955s.133.277.276.277c.143 0 2.27-2.212 2.27-2.212l2.364-4.567-5.94 2.784-.038.763z" fill="#C8DAEA"/><path d="M10.508 13.416l-.205 2.178s-.086.668.58 0c.669-.667 1.308-1.182 1.308-1.182" fill="#A9C6D8"/><path d="M9.111 12.763l-2.196-.715s-.263-.107-.178-.348c.017-.05.053-.092.158-.165.486-.34 9.008-3.402 9.008-3.402s.24-.081.382-.027a.207.207 0 0 1 .141.154.696.696 0 0 1 .02.194c0 .056-.008.108-.013.19-.052.838-1.605 7.087-1.605 7.087s-.093.366-.426.378a.608.608 0 0 1-.444-.172c-.654-.561-2.912-2.079-3.41-2.413a.095.095 0 0 1-.042-.067c-.007-.036.031-.079.031-.079s3.932-3.495 4.037-3.862c.008-.028-.022-.042-.064-.03-.26.096-4.788 2.955-5.288 3.27a.238.238 0 0 1-.11.007z" fill="#fff"/><defs><linearGradient id="paint0_linear_29_296" x1="12" y1="21" x2="12" y2="3" gradientUnits="userSpaceOnUse"><stop stop-color="#1D93D2"/><stop offset="1" stop-color="#38B0E3"/></linearGradient></defs></svg>