<svg viewBox="0 0 24 24" fill="none" xmlns="http://www.w3.org/2000/svg"><path d="M3 11.64c0-4.073 0-6.11 1.265-7.375C5.531 3 7.567 3 11.64 3h.72c4.073 0 6.11 0 7.375 1.265C21 5.531 21 7.567 21 11.64v.72c0 4.073 0 6.11-1.265 7.375C18.469 21 16.433 21 12.36 21h-.72c-4.073 0-6.11 0-7.375-1.265C3 18.469 3 16.433 3 12.36v-.72z" fill="#07F"/><path d="M12.578 15.967c-4.103 0-6.443-2.812-6.54-7.492h2.055c.067 3.435 1.582 4.89 2.782 5.19v-5.19h1.935v2.963c1.185-.128 2.43-1.478 2.85-2.963h1.935c-.322 1.83-1.672 3.18-2.632 3.735.96.45 2.497 1.627 3.082 3.757h-2.13c-.457-1.425-1.597-2.527-3.105-2.677v2.678h-.232v-.001z" fill="#fff"/></svg>