<svg viewBox="0 0 24 24" fill="none" xmlns="http://www.w3.org/2000/svg"><path d="M12.399 18.435l-3.693-.068c-1.196-.023-2.394.024-3.567-.22-1.783-.364-1.91-2.15-2.041-3.649a25.596 25.596 0 0 1 .232-6.34c.194-1.172.957-1.871 2.138-1.947 3.987-.276 8-.244 11.978-.115.42.012.843.077 1.257.15 2.045.358 2.095 2.383 2.228 4.087a23.165 23.165 0 0 1-.177 5.161c-.202 1.416-.59 2.603-2.227 2.718-2.05.15-4.054.27-6.11.232 0-.01-.012-.01-.018-.01v.001zm-2.171-3.584c1.545-.888 3.06-1.76 4.598-2.641-1.55-.888-3.062-1.76-4.598-2.641v5.282z" fill="red"/></svg>