---
---
<svg xmlns="http://www.w3.org/2000/svg" width="800" height="600" fill="none" viewBox="0 0 800 600">
    <path d="M623.916 531.347C623.916 534.35 522.081 536.782 396.36 536.782C270.639 536.782 168.803 534.35 168.803 531.347C168.803 528.343 270.639 525.912 396.36 525.912C522.081 525.912 623.916 528.343 623.916 531.347Z" fill="#A7AAB3"/>
    <path d="M149.638 288.057C149.638 327.819 191.688 356.567 210.138 388.606C229.304 421.645 233.881 472.277 266.92 491.299C298.958 509.893 344.584 489.154 384.346 489.154C424.107 489.154 469.733 509.893 501.771 491.299C534.811 472.134 539.387 421.645 558.553 388.606C577.147 356.567 619.054 327.676 619.054 288.057C619.054 248.439 577.004 219.547 558.553 187.509C539.53 154.47 534.811 103.838 501.771 84.8153C469.733 66.2217 424.107 86.9607 384.346 86.9607C344.584 86.9607 298.958 66.2217 266.92 84.8153C233.881 103.981 229.304 154.47 210.138 187.509C191.545 219.547 149.638 248.439 149.638 288.057Z" fill="rgba(0, 20, 80, .04)"/>
    <path d="M510.067 239.857L504.918 266.317H445.132L450.138 240.858L445.132 239.857L388.208 529.201L393.213 530.203L398.505 503.17H458.291L453.142 529.201L458.148 530.203L515.073 240.715L510.067 239.857ZM503.917 271.323L493.476 324.243H433.69L444.131 271.323H503.917ZM422.248 382.169L432.689 329.249H492.475L482.034 382.169H422.248ZM481.175 387.318L470.734 440.238H410.949L421.39 387.318H481.175ZM399.507 498.164L409.948 445.244H469.733L459.292 498.164H399.507Z" fill="#232B41"/>
    <path d="M556.694 450.822L548.112 406.77L515.216 239.714L510.067 240.715L515.073 266.031H455.43L450.281 239.714L445.132 240.715L502.057 530.203L507.206 529.201L502.057 503.313H561.7L566.992 530.203L572.141 529.201L556.694 450.822ZM456.431 271.466H516.074L526.372 324.243H466.729L456.431 271.466ZM467.874 329.392H527.516L537.814 382.169H478.172L467.874 329.392ZM479.316 387.461H538.958L544.393 414.922L549.399 440.095H489.614L479.316 387.461ZM501.056 498.164L490.758 445.387H550.401L550.687 446.818L551.259 449.821L560.699 498.164H501.056Z" fill="#A7AAB3"/>
    <path d="M556.694 450.823L551.116 449.821L550.544 446.818L550.257 445.387H526.658C527.945 443.099 529.948 441.24 532.379 440.095H549.113L544.107 414.923L547.826 406.913L556.694 450.823Z" fill="black" opacity="0.22"/>
    <path d="M263.201 69.7974H529.948C538.529 69.7974 545.394 76.6627 545.394 85.2443V237.855C545.394 246.436 538.529 253.302 529.948 253.302H263.201C254.62 253.302 247.754 246.436 247.754 237.855V85.3874C247.754 76.8057 254.62 69.7974 263.201 69.7974Z" fill="white"/>
    <path d="M529.947 66.2217H263.201C252.617 66.2217 244.036 74.8033 244.036 85.3874V237.998C244.036 248.582 252.617 257.163 263.201 257.163H529.947C540.531 257.163 549.113 248.582 549.113 237.998V85.3874C549.113 74.8033 540.531 66.2217 529.947 66.2217ZM541.819 237.855C541.819 242.431 539.101 246.722 534.953 248.582C533.38 249.297 531.664 249.726 529.947 249.726H263.201C256.622 249.726 251.33 244.434 251.33 237.855V85.3874C251.33 78.8081 256.622 73.5161 263.201 73.5161H529.947C536.527 73.5161 541.819 78.8081 541.819 85.3874V237.855Z" fill="#232B41"/>
    <path d="M507.206 257.163H458.577C455.716 255.018 453.142 252.587 450.71 249.869C450.424 249.583 450.138 249.154 449.852 248.868C444.846 243.29 441.557 236.424 440.269 229.13C440.126 228.558 440.126 227.843 439.983 227.414C440.842 224.124 443.845 221.693 447.135 221.55C449.28 221.693 451.283 222.694 452.57 224.41C454.715 228.701 457.433 232.563 460.722 235.852C465.299 240.429 470.019 243.147 476.455 246.007C486.324 250.584 496.622 254.303 507.206 257.163Z" fill="black" opacity="0.19"/>
    <path d="M306.825 129.726L287.516 106.412H277.361V150.179H289.518V126.865L308.827 150.179H318.982V106.412H306.825V129.726ZM367.182 111.99C364.894 109.988 362.319 108.272 359.459 107.271C353.166 104.982 346.443 104.982 340.15 107.271C334.429 109.273 329.709 113.707 327.278 119.285C325.99 122.145 325.418 125.149 325.418 128.296C325.418 131.442 325.99 134.446 327.278 137.306C328.422 140.024 330.138 142.455 332.427 144.601C334.715 146.746 337.29 148.319 340.15 149.321C346.443 151.609 353.166 151.609 359.459 149.321C362.319 148.319 364.894 146.603 367.182 144.601C369.328 142.598 371.044 140.167 372.331 137.449C373.619 134.589 374.191 131.442 374.191 128.296C374.191 125.149 373.619 122.145 372.331 119.285C371.044 116.424 369.328 113.993 367.182 111.99ZM360.746 133.445C360.174 134.875 359.316 136.305 358.172 137.449C357.17 138.594 355.883 139.452 354.453 140.024C351.449 141.168 348.16 141.168 345.156 140.024C343.726 139.452 342.439 138.594 341.437 137.449C340.293 136.305 339.435 135.018 338.863 133.445C337.719 130.155 337.719 126.436 338.863 123.147C339.435 121.716 340.293 120.286 341.437 119.142C342.439 117.998 343.869 117.139 345.156 116.567C348.16 115.423 351.449 115.423 354.453 116.567C355.883 117.139 357.17 117.998 358.172 119.142C359.316 120.286 360.031 121.573 360.746 123.147C361.89 126.436 361.89 130.155 360.746 133.445ZM375.907 106.412V116.281H389.352V150.179H401.652V116.281H415.096V106.412H375.907Z" fill="#0455A4" style="fill: #0455A4; fill: var(--tblr-primary, var(--tblr-illustrations-primary, #0455A4));"/>
    <path d="M277.361 209.249H289.804V194.231H308.97V184.648H289.804V175.209H311.688V165.483H277.361V209.249ZM356.598 171.061C354.31 168.915 351.735 167.342 348.875 166.341C342.582 164.052 335.716 164.052 329.423 166.341C323.702 168.486 319.125 172.777 316.694 178.355C315.406 181.216 314.834 184.219 314.834 187.366C314.834 190.512 315.406 193.659 316.694 196.52C319.125 202.098 323.845 206.532 329.566 208.534C335.859 210.822 342.725 210.822 348.875 208.534C351.735 207.533 354.31 205.816 356.598 203.814C358.744 201.812 360.46 199.38 361.747 196.52C363.035 193.659 363.607 190.512 363.607 187.366C363.607 181.216 361.032 175.352 356.598 171.061ZM350.019 192.515C349.447 193.945 348.589 195.375 347.445 196.52C346.443 197.664 345.156 198.522 343.726 199.094C340.722 200.238 337.433 200.238 334.429 199.094C332.999 198.522 331.711 197.664 330.71 196.52C329.566 195.375 328.708 194.088 328.279 192.515C327.135 189.225 327.135 185.507 328.279 182.217C328.851 180.787 329.709 179.356 330.71 178.212C331.855 177.068 333.142 176.21 334.429 175.638C337.433 174.493 340.722 174.493 343.726 175.638C345.156 176.21 346.443 177.068 347.445 178.212C348.589 179.356 349.447 180.644 350.019 182.217C351.306 185.507 351.306 189.225 350.019 192.515ZM398.505 189.511C398.505 193.23 397.79 195.948 396.36 197.521C394.787 199.237 392.641 200.095 390.353 199.952C388.064 200.095 385.919 199.237 384.346 197.521C382.915 195.948 382.2 193.23 382.2 189.511V165.626H369.9V189.94C369.9 196.377 371.759 201.383 375.335 204.958C378.911 208.534 383.917 210.25 390.496 210.25C396.932 210.25 401.938 208.534 405.514 204.958C409.089 201.383 410.949 196.377 410.949 189.94V165.626H398.648L398.505 189.511ZM448.565 188.796L429.399 165.483H419.101V209.249H431.259V185.936L441.7 198.522L450.567 209.249H460.722V165.483H448.565V188.796ZM511.497 175.781C509.352 172.491 506.491 169.917 502.915 168.2C498.911 166.341 494.62 165.483 490.186 165.483H469.447V209.249H490.186C494.62 209.392 498.911 208.391 502.915 206.532C506.491 204.815 509.352 202.241 511.497 198.951C513.642 195.518 514.787 191.371 514.644 187.366C514.787 183.218 513.642 179.213 511.497 175.781ZM500.484 193.802C499.483 195.518 498.052 197.092 496.193 197.95C494.191 198.951 491.902 199.38 489.614 199.38H481.89V175.352H489.614C491.902 175.352 494.191 175.781 496.193 176.782C498.052 177.64 499.483 179.07 500.484 180.93C502.629 184.934 502.629 189.797 500.484 193.802Z" fill="#A7AAB3"/>
    <path d="M460.722 198.522V209.392H450.567L441.7 198.665C443.988 196.377 446.992 195.089 450.138 194.803H452.427C455.573 194.946 458.434 196.234 460.722 198.522Z" fill="black" opacity="0.1"/>
    <path d="M179.101 320.095C176.098 322.813 169.089 320.668 168.374 317.521C168.231 316.949 168.088 315.805 169.662 313.802C168.803 313.945 163.94 314.947 160.651 312.229C160.365 312.086 160.222 311.8 160.079 311.657C159.507 311.085 158.791 310.37 158.935 309.654C159.507 306.651 172.665 303.075 178.1 309.225C178.672 309.941 179.101 310.656 179.53 311.514C180.961 314.231 181.247 318.093 179.101 320.095Z" fill="#FFCB9D" style="fill: #FFCB9D; fill: var(--tblr-illustrations-skin, #FFCB9D);"/>
    <path d="M179.101 320.095C176.098 322.813 169.089 320.667 168.374 317.521C168.231 316.949 168.088 315.805 169.662 313.802C168.803 313.945 163.941 314.946 160.651 312.229C164.227 311.085 167.945 310.656 171.807 310.656C174.382 310.656 176.956 310.942 179.53 311.371C180.961 314.231 181.247 318.093 179.101 320.095Z" fill="black" opacity="0.1"/>
    <path d="M287.373 320.095C290.377 322.813 297.385 320.668 298.1 317.521C298.243 316.949 298.386 315.805 296.813 313.802C297.671 313.945 302.534 314.947 305.824 312.229C306.11 312.086 306.253 311.8 306.396 311.657C306.968 311.085 307.683 310.37 307.54 309.654C306.968 306.651 293.809 303.075 288.374 309.225C287.802 309.941 287.373 310.656 286.944 311.514C285.514 314.231 285.228 318.093 287.373 320.095Z" fill="#FFCB9D" style="fill: #FFCB9D; fill: var(--tblr-illustrations-skin, #FFCB9D);"/>
    <path d="M287.373 320.095C290.377 322.813 297.385 320.667 298.1 317.521C298.243 316.949 298.386 315.805 296.813 313.802C297.671 313.945 302.534 314.946 305.824 312.229C302.248 311.085 298.529 310.656 294.667 310.656C292.093 310.656 289.519 310.942 286.944 311.371C285.514 314.231 285.228 318.093 287.373 320.095Z" fill="black" opacity="0.1"/>
    <path d="M267.063 328.82L265.347 348.129C264.489 357.282 263.774 366.436 262.915 375.59L262.057 385.459L261.485 392.753L259.626 414.493H210.281L208.136 392.61C207.85 390.322 207.707 387.89 207.421 385.459C207.135 381.74 206.706 378.164 206.277 374.446L205.704 369.011C204.417 355.566 202.987 342.122 201.7 328.677L267.063 328.82Z" fill="#0455A4" style="fill: #0455A4; fill: var(--tblr-primary, var(--tblr-illustrations-primary, #0455A4));"/>
    <path d="M210.138 414.493L214.429 517.33H222.725L234.31 437.95L242.319 517.33H248.47L259.626 414.493H210.138Z" fill="#DADCE0"/>
    <path d="M242.319 517.33L234.31 437.95L237.885 414.493H259.626L248.47 517.33H242.319Z" fill="black" opacity="0.15"/>
    <path d="M217.004 328.105C217.004 328.105 223.726 328.391 226.443 324.386L243.178 323.242C243.178 323.242 248.184 331.681 253.047 331.967C257.909 332.253 239.602 334.541 239.602 334.541L216.861 331.967L217.004 328.105Z" fill="#0455A4" style="fill: #0455A4; fill: var(--tblr-primary, var(--tblr-illustrations-primary, #0455A4));"/>
    <path d="M209.709 291.776C210.853 294.064 212.57 297.497 214.715 301.502L215.859 303.504C218.434 307.938 221.581 311.943 225.156 315.661C225.871 316.376 226.586 317.092 227.302 317.664C230.019 319.952 242.606 318.665 251.759 313.516C260.913 308.367 260.198 297.497 254.334 295.351C252.188 294.35 250.329 293.063 248.613 291.347C246.324 289.201 244.179 286.913 242.176 284.338C241.032 282.908 240.317 282.05 240.317 282.05L230.019 278.903L211.998 286.77C213.571 289.773 213.571 292.205 212.713 292.777C211.855 293.349 209.995 291.919 209.709 291.776Z" fill="#FFCB9D" style="fill: #FFCB9D; fill: var(--tblr-illustrations-skin, #FFCB9D);"/>
    <path d="M209.709 291.776C210.853 294.064 212.57 297.497 214.715 301.502L215.859 303.504C218.434 307.938 221.581 311.943 225.156 315.661C226.157 314.803 227.016 313.659 227.588 312.515C228.303 311.228 228.589 309.797 228.732 308.367C228.732 306.794 228.589 305.22 228.16 303.79C227.874 302.789 227.731 301.931 227.302 300.93C235.168 300.214 242.606 296.925 248.47 291.49C246.181 289.344 244.036 287.056 242.033 284.624C240.889 283.194 240.174 282.336 240.174 282.336L229.876 279.189L211.855 287.056C213.428 290.06 213.428 292.491 212.57 293.063C211.712 293.635 209.995 291.919 209.709 291.776Z" fill="black" opacity="0.1"/>
    <path d="M248.756 276.329C250.329 274.756 251.33 272.61 251.33 270.036C251.33 265.173 247.468 261.311 242.605 261.311C238.744 261.311 235.454 263.886 234.31 267.318C233.166 263.742 229.876 261.311 226.014 261.311C221.58 261.311 217.862 264.744 217.433 269.035C216.145 268.176 214.572 267.747 212.856 267.747C207.993 267.747 204.131 271.609 204.131 276.472C204.131 278.331 204.703 280.048 205.704 281.478C203.13 282.479 201.127 284.911 201.127 287.914C201.127 291.776 204.274 294.779 207.993 294.779H208.136C208.279 295.352 208.422 295.781 208.708 296.353C210.424 300.071 213.428 302.932 217.29 304.505C218.005 304.648 218.72 304.934 219.435 305.22C221.294 306.222 223.011 307.652 224.155 309.511C224.584 308.081 224.584 306.651 224.155 305.363C223.154 303.361 222.009 301.359 220.722 299.499L220.579 299.213C220.436 298.927 220.293 298.784 220.15 298.355C219.721 297.497 219.292 296.496 218.863 295.495V295.352C224.584 296.067 240.603 297.211 246.467 286.77C247.325 285.197 248.04 283.337 248.47 281.621C248.47 281.478 248.613 281.335 248.613 281.192C248.756 280.763 248.756 280.191 248.756 279.762V279.619C249.185 278.76 249.185 277.473 248.756 276.329Z" fill="#232B41"/>
    <path d="M218.005 380.31C217.29 386.031 213.428 390.751 207.993 392.61C207.707 390.322 207.564 387.89 207.278 385.459C206.992 381.74 206.563 378.165 206.134 374.446L217.862 339.547C218.005 339.69 220.007 366.293 218.005 380.31ZM262.915 375.59L262.057 385.459L261.485 392.753C255.764 391.037 251.616 386.174 250.901 380.167C248.899 366.15 250.901 339.547 250.901 339.547L262.915 375.59Z" fill="black" opacity="0.1"/>
    <path d="M222.296 328.677C217.147 351.132 210.997 378.021 210.997 378.021C210.567 379.023 209.995 380.167 209.28 381.025C207.993 382.598 206.563 384.029 204.989 385.316C203.845 386.46 202.415 387.175 200.842 387.747C196.694 388.748 191.116 383.027 186.11 375.447C183.535 371.442 181.247 367.294 179.388 363.004C175.526 354.279 175.955 351.275 170.091 332.825C167.802 325.673 165.8 319.952 164.37 315.947L190.401 314.946C190.687 316.949 191.116 319.666 191.545 322.813C193.118 334.255 194.262 344.982 194.834 351.847V347.557C194.977 344.41 195.264 341.406 195.836 338.403C196.837 333.397 199.554 320.095 206.849 318.522C212.141 317.664 218.148 322.098 222.296 328.677ZM304.966 316.091C303.535 319.952 301.533 325.816 299.244 332.968C293.38 351.418 293.809 354.422 289.948 363.147C287.802 368.009 285.228 372.586 282.367 376.877C277.647 383.886 272.355 388.891 268.494 387.89C266.777 387.318 265.204 386.317 263.774 385.03C262.486 383.886 261.199 382.598 260.055 381.168C259.483 380.167 258.911 379.166 258.482 378.164L247.182 328.82C248.184 326.675 252.045 318.808 257.767 318.379C265.347 317.95 271.64 330.679 273.357 338.546C273.929 341.549 274.215 344.696 274.358 347.7V351.99C274.93 345.125 276.074 334.398 277.647 322.956C278.076 319.666 278.506 316.949 278.792 315.089L304.966 316.091Z" fill="#0455A4" style="fill: #0455A4; fill: var(--tblr-primary, var(--tblr-illustrations-primary, #0455A4));"/>
    <path d="M549.113 184.648V247.151C548.112 248.009 546.825 248.725 545.538 249.154L545.252 249.297C541.819 250.441 538.243 250.584 534.811 249.44L534.954 248.582C539.101 246.579 541.819 242.431 541.819 237.854V180.5C542.105 180.5 542.391 180.644 542.677 180.644C545.252 181.359 547.397 182.789 549.113 184.648Z" fill="black" opacity="0.15"/>
    <path d="M603.178 356.281L602.319 351.561L599.602 337.545L596.169 338.26L580.722 341.263L577.862 341.836L580.579 355.852L581.438 360.572L581.724 362.431L603.464 358.141L603.178 356.281ZM595.311 341.263L597.314 340.834L599.459 352.133L600.174 355.852L583.869 358.999L583.154 355.28L581.008 343.981H581.151L595.311 341.263Z" fill="#DADCE0"/>
    <path d="M603.178 356.281L602.319 351.561L599.602 337.545L596.169 338.26L580.722 341.263L577.862 341.836L580.579 355.852L581.438 360.572L581.724 362.431L603.464 358.141L603.178 356.281ZM595.311 341.263L597.314 340.834L599.459 352.133L600.174 355.852L583.869 358.999L583.154 355.28L581.008 343.981H581.151L595.311 341.263Z" fill="black" opacity="0.35"/>
    <path d="M627.921 381.74L622.2 352.563L621.342 347.843L612.045 349.559L612.904 354.136L615.478 367.294C615.764 368.582 614.906 369.726 613.762 370.012L610.043 370.727C608.756 371.013 607.611 370.155 607.325 369.011L604.751 355.852L603.893 351.275L600.46 351.848L581.437 355.566L578.291 356.138L579.149 360.715L581.724 373.874C582.01 375.161 581.151 376.305 580.007 376.591L576.289 377.306C575.001 377.592 573.857 376.734 573.571 375.59L570.996 362.432L570.138 357.855L558.982 360L565.561 393.898L570.853 392.896L627.921 381.74Z" fill="#DADCE0"/>
    <path d="M627.921 381.74L622.2 352.563L621.342 347.843L612.045 349.559L612.904 354.136L615.478 367.294C615.764 368.582 614.906 369.726 613.762 370.012L610.043 370.727C608.756 371.013 607.611 370.155 607.325 369.011L604.751 355.852L603.893 351.275L600.46 351.848L581.437 355.566L578.291 356.138L579.149 360.715L581.724 373.874C582.01 375.161 581.151 376.305 580.007 376.591L576.289 377.306C575.001 377.592 573.857 376.734 573.571 375.59L570.996 362.432L570.138 357.855L558.982 360L565.561 393.898L570.853 392.896L627.921 381.74Z" fill="black" opacity="0.1"/>
    <path d="M627.921 381.74L570.853 392.896L565.132 363.719L570.996 362.575L573.571 375.733C573.857 377.02 575.001 377.735 576.288 377.592L580.007 376.877C581.294 376.591 582.01 375.447 581.724 374.16L579.149 361.144L582.582 360.429L601.604 356.71L604.894 356.138L607.468 369.297C607.755 370.584 608.899 371.299 610.186 371.013L613.905 370.298C615.192 370.012 615.907 368.868 615.764 367.723L613.19 354.565L622.343 352.849L626.062 371.585L627.921 381.74Z" fill="#DADCE0"/>
    <path d="M581.723 374.017L579.149 361.001L578.291 356.424C578.005 355.28 576.861 354.422 575.716 354.708L571.998 355.423C570.853 355.709 569.995 356.853 570.281 357.998L571.139 362.574L573.714 375.733C574 377.02 575.144 377.735 576.431 377.592L580.15 376.877C581.151 376.448 581.866 375.304 581.723 374.017ZM615.478 367.437L612.903 354.279L612.045 349.702C611.759 348.558 610.615 347.7 609.471 347.986L605.752 348.701C604.608 348.987 603.75 350.131 604.036 351.418L604.894 355.995L607.468 369.154C607.754 370.441 608.899 371.156 610.186 370.87L613.905 370.155C615.049 369.869 615.764 368.725 615.478 367.437Z" fill="#0455A4" style="fill: #0455A4; fill: var(--tblr-primary, var(--tblr-illustrations-primary, #0455A4));"/>
    <path d="M552.689 194.946C553.261 197.521 553.976 201.24 554.691 205.959C554.834 206.961 554.977 207.962 554.977 208.248C555.693 213.397 555.693 218.689 554.977 223.838C554.834 224.839 554.691 225.84 554.405 226.841C553.833 229.559 547.54 233.85 540.103 236.567C537.528 237.425 534.811 238.141 532.093 238.57C523.654 239.714 517.933 233.993 517.79 228.987C517.79 227.7 518.076 226.555 518.791 225.554C519.936 223.409 520.651 221.12 520.937 218.689C521.509 215.542 521.795 212.253 521.795 209.106C521.938 207.247 521.795 206.102 521.795 206.102L528.231 197.092L547.683 192.372C548.255 195.661 549.685 197.807 550.687 197.664C551.688 197.521 552.546 195.375 552.689 194.946Z" fill="#FFCB9D" style="fill: #FFCB9D; fill: var(--tblr-illustrations-skin, #FFCB9D);"/>
    <path d="M552.689 194.946C553.261 197.521 553.976 201.239 554.691 205.959C554.834 206.961 554.977 207.962 554.977 208.248C555.692 213.397 555.692 218.689 554.977 223.838C553.69 223.695 552.26 223.409 551.116 222.837C549.828 222.122 548.541 221.263 547.54 220.119C546.539 218.975 545.681 217.545 545.108 216.114C544.679 215.256 544.25 214.255 543.964 213.254C540.532 215.399 536.813 216.973 532.808 217.831C528.946 218.689 524.942 218.975 520.937 218.546C521.509 215.399 521.795 212.11 521.795 208.963C521.938 207.104 521.795 205.959 521.795 205.959L528.231 196.949L547.683 192.229C548.255 195.518 549.685 197.664 550.686 197.521C551.688 197.378 552.546 195.375 552.689 194.946Z" fill="black" opacity="0.1"/>
    <path d="M556.122 198.522C556.98 202.527 556.408 206.818 554.262 210.393C553.833 210.965 553.404 211.681 552.975 212.396C552.117 214.398 551.688 216.544 551.688 218.689C550.543 217.831 549.685 216.687 549.113 215.256C548.684 212.968 548.398 210.679 548.398 208.391V208.105C548.398 207.962 548.398 207.676 548.255 207.247C548.112 206.246 547.826 205.101 547.54 204.1V203.957C543.392 208.105 531.092 218.832 519.936 213.969C518.219 213.254 516.503 212.253 515.073 210.965C514.93 210.822 514.787 210.822 514.644 210.679C514.358 210.393 513.928 210.107 513.642 209.678L513.499 209.535C512.641 208.677 512.069 207.533 511.497 206.532L511.354 206.103C510.496 203.671 510.925 200.811 512.498 198.665C514.501 195.805 517.075 193.23 520.222 191.371C527.659 186.079 540.102 182.217 548.97 187.938C551.259 189.511 553.118 191.514 554.405 193.802C555.263 195.375 555.835 196.949 556.122 198.522Z" fill="#232B41"/>
    <path d="M580.579 336.686C580.293 337.688 580.15 338.689 580.293 339.69C580.293 343.409 582.296 346.269 585.299 346.841C589.161 347.557 593.166 344.124 594.453 339.118C594.596 338.546 594.739 337.974 594.739 337.545C595.168 333.254 593.166 329.678 589.876 329.106C585.871 328.391 581.866 331.824 580.579 336.686Z" fill="#FFCB9D" style="fill: #FFCB9D; fill: var(--tblr-illustrations-skin, #FFCB9D);"/>
    <path d="M580.579 336.686C580.293 337.688 580.15 338.689 580.293 339.69L581.437 339.833C586.443 339.976 588.589 338.26 594.024 337.545H594.739C595.168 333.254 593.166 329.678 589.876 329.106C585.871 328.391 581.866 331.824 580.579 336.686Z" fill="black" opacity="0.1"/>
    <path d="M451.712 199.523C451.282 198.522 450.71 197.664 450.138 196.949C447.85 194.088 444.56 192.944 441.843 194.374C438.41 196.234 437.409 201.383 439.411 206.103C439.697 206.532 439.983 207.104 440.269 207.533C442.558 211.109 446.419 212.825 449.423 211.109C452.713 209.392 453.714 204.1 451.712 199.523Z" fill="#FFCB9D" style="fill: #FFCB9D; fill: var(--tblr-illustrations-skin, #FFCB9D);"/>
    <path d="M451.711 199.523C451.282 198.522 450.71 197.664 450.138 196.949C449.852 197.235 449.566 197.378 449.28 197.664C445.275 200.667 444.703 203.385 440.841 207.247C440.698 207.39 440.555 207.533 440.269 207.676C442.558 211.251 446.419 212.968 449.423 211.251C452.713 209.392 453.714 204.1 451.711 199.523Z" fill="black" opacity="0.1"/>
    <path d="M562.272 326.246L560.842 334.541L544.536 427.223C542.677 427.938 540.961 428.653 539.101 429.368C536.956 420.787 535.097 411.919 533.38 402.336C530.091 383.171 528.088 363.862 527.516 344.553C523.082 343.409 518.506 342.265 513.929 341.121L501.485 338.117C501.342 343.266 501.199 348.844 501.485 354.708C501.628 360.143 502.057 365.292 502.629 370.155L495.049 371.013C488.756 351.418 482.32 331.824 476.026 312.086L491.902 313.373C498.625 313.945 505.204 314.517 511.783 315.233L562.272 326.246Z" fill="#0455A4" style="fill: #0455A4; fill: var(--tblr-primary, var(--tblr-illustrations-primary, #0455A4));"/>
    <path d="M604.751 320.81C604.465 327.39 603.321 333.111 602.176 337.974L594.739 336.257L582.01 333.254L581.008 332.968L579.864 332.682L577.862 332.253L575.573 331.68C574.286 331.394 572.856 330.965 571.283 330.679C575.479 323.738 578.16 315.988 579.149 307.938C579.149 307.938 580.865 294.35 576.575 282.765L576.289 281.907C574.715 278.188 572.427 274.612 569.709 271.609L568.994 270.894C568.708 275.9 568.279 280.334 567.993 284.338C567.135 294.064 565.848 302.36 565.132 307.795C563.702 318.379 562.129 327.533 560.842 334.398L511.64 315.089C511.497 313.659 510.353 301.216 510.353 299.785C510.21 297.354 509.638 290.775 508.923 283.766C508.207 276.758 507.635 269.32 507.349 264.887C505.919 264.744 504.632 264.744 503.058 264.458C497.909 263.885 492.904 263.027 487.898 261.883L484.465 261.025C480.603 259.881 476.741 258.45 473.023 256.734C467.588 254.303 462.439 251.156 457.862 247.58C454.572 245.006 451.569 242.145 448.851 238.999C445.837 235.697 442.974 232.261 440.269 228.701C437.838 225.411 435.693 222.121 433.69 218.689C437.552 215.399 440.699 212.682 442.701 210.965C447.135 206.961 449.137 205.101 452.856 202.956C454.858 201.812 456.861 200.81 459.006 200.095C460.15 204.529 461.724 208.963 463.726 213.111C468.017 222.121 475.74 233.421 489.185 239.714C490.329 240.286 491.473 240.715 492.617 241.144C495.049 242.002 497.48 242.717 500.055 243.29C502.486 243.719 504.918 244.148 507.349 244.291C514.501 244.72 520.937 244.863 526.515 244.863C546.682 244.863 557.123 242.717 557.123 242.717C557.123 242.717 565.705 240.858 569.995 244.291L570.424 244.577C574.715 248.009 578.72 251.728 582.582 255.733C583.583 256.877 584.584 258.021 585.585 259.309C589.018 263.599 592.022 268.176 594.596 273.039C597.027 277.759 599.03 282.622 600.603 287.485C600.889 288.343 601.175 289.201 601.461 290.202C603.178 296.067 603.893 300.643 604.036 301.931C604.322 303.933 604.608 306.508 604.751 309.654C604.894 312.944 604.894 316.806 604.751 320.81Z" fill="#DADCE0"/>
    <path d="M544.107 243.004C541.39 245.864 537.957 247.724 534.095 248.439C533.952 248.439 533.666 248.439 533.523 248.582L524.083 244.291L544.107 243.004Z" fill="#FFCB9D" style="fill: #FFCB9D; fill: var(--tblr-illustrations-skin, #FFCB9D);"/>
    <path d="M568.994 271.037C568.708 276.043 568.279 280.477 567.993 284.481C567.135 294.207 565.848 302.503 565.132 307.938C563.702 318.665 562.129 327.676 560.842 334.684L511.64 315.375C558.553 313.659 568.994 271.037 568.994 271.037ZM604.751 320.81C604.465 327.39 603.321 333.111 602.177 337.974L594.739 336.257L582.01 333.254L581.008 332.968L579.864 332.682L577.862 332.253L575.573 331.68C579.006 328.105 582.582 324.1 586.014 319.237C593.595 308.796 598.315 298.641 601.461 290.06C603.178 295.924 603.893 300.501 604.036 301.788C604.322 303.79 604.608 306.365 604.751 309.511C604.894 312.944 604.894 316.806 604.751 320.81Z" fill="black" opacity="0.1"/>
    <path d="M604.036 302.074C600.317 299.213 597.313 295.495 595.454 291.061C591.878 283.337 591.592 275.614 594.596 273.039C596.598 276.758 598.887 281.335 600.746 287.056C602.605 292.777 603.607 297.926 604.036 302.074Z" fill="#232B41"/>
    <path d="M560.842 334.684L544.536 427.366C542.677 428.081 540.961 428.796 539.101 429.511C536.956 420.93 535.097 412.062 533.38 402.479C530.091 383.314 528.088 364.005 527.659 344.553L528.374 321.812L560.842 334.684Z" fill="black" opacity="0.1"/>
    <path d="M205.132 385.459C203.988 386.603 202.558 387.318 200.985 387.89C196.837 388.892 191.259 383.171 186.253 375.59C193.118 372.586 201.128 375.59 204.274 382.455C204.56 383.457 204.989 384.458 205.132 385.459ZM282.224 376.877C277.504 383.886 272.212 388.892 268.35 387.89C266.634 387.318 265.061 386.317 263.631 385.03C265.919 377.879 273.642 374.017 280.794 376.305C281.223 376.591 281.795 376.734 282.224 376.877Z" fill="#232B41"/>
    <path d="M568.851 175.638C565.991 174.493 562.844 175.924 561.843 178.784C560.699 181.645 562.129 184.791 564.989 185.793C567.85 186.937 570.997 185.506 571.998 182.646C573.142 179.785 571.712 176.639 568.851 175.638ZM579.006 132.3L568.422 167.771L574.858 170.203L588.732 137.449L579.006 132.3Z" fill="#0455A4" style="fill: #0455A4; fill: var(--tblr-primary, var(--tblr-illustrations-primary, #0455A4));"/>
    <path d="M627.921 381.74L570.853 392.896C572.141 392.467 609.471 380.739 625.919 371.299L627.921 381.74ZM544.107 243.004C541.39 245.864 537.957 247.724 534.095 248.439C533.952 248.439 533.666 248.439 533.523 248.582L524.083 244.291L544.107 243.004Z" fill="black" opacity="0.1"/>
    <path d="M534.096 248.439L551.974 237.282L556.122 241.001L543.964 256.877L534.096 248.439ZM533.523 248.582L521.795 240L519.078 242.861L527.087 254.875L533.523 248.582Z" fill="#0455A4" style="fill: #0455A4; fill: var(--tblr-primary, var(--tblr-illustrations-primary, #0455A4));"/>
    <path d="M533.523 248.582L521.795 240L519.078 242.861L527.087 254.875L533.523 248.582Z" fill="black" opacity="0.1"/>
    <path d="M517.361 386.603V387.318H493.476V386.603C493.476 385.03 494.048 383.314 495.049 382.026H515.788C516.932 383.457 517.361 385.03 517.361 386.603Z" fill="black" opacity="0.22"/>
    <path d="M550.544 446.818L550.258 445.387C550.401 445.816 550.401 446.245 550.544 446.818ZM528.803 443.385L547.111 441.383C547.111 441.383 547.826 436.663 544.966 434.946C542.105 433.23 531.664 438.951 528.803 443.385ZM488.756 390.465L505.49 382.884C505.49 382.884 504.632 378.164 501.342 377.449C498.053 376.734 490.186 385.316 488.756 390.465ZM232.165 531.49L213.571 529.344C213.571 529.344 212.856 524.481 215.859 522.765C218.863 521.049 229.161 527.056 232.165 531.49ZM259.626 531.49L241.032 529.344C241.032 529.344 240.317 524.481 243.321 522.765C246.324 521.049 256.622 527.056 259.626 531.49Z" fill="#232B41"/>
    <path d="M547.397 203.957C543.249 208.105 530.949 218.832 519.793 213.969C518.076 213.254 516.36 212.253 514.93 210.965C514.787 210.822 514.644 210.822 514.501 210.679C514.071 210.393 513.785 210.107 513.499 209.678L513.356 209.535C512.498 208.677 511.926 207.533 511.354 206.532C514.072 208.105 517.075 209.249 520.222 209.964C535.526 213.111 548.112 201.526 550.114 199.666L550.257 199.523C549.399 201.096 548.541 202.527 547.397 203.957Z" fill="black" opacity="0.5"/>
    <path d="M219.149 295.638C224.87 296.496 240.889 297.497 246.753 287.056C247.612 285.483 248.327 283.623 248.756 281.907C248.756 281.764 248.899 281.621 248.899 281.478C249.042 281.049 249.042 280.477 249.042 280.048V279.905C249.185 278.76 249.042 277.473 248.756 276.329C247.612 279.189 245.895 281.907 243.893 284.195C233.738 295.781 217.147 294.064 214.429 293.921H214.286C215.716 294.493 217.433 295.208 219.149 295.638Z" fill="black" opacity="0.5"/>
    <path d="M484.465 261.025C480.603 260.167 475.311 258.594 469.733 255.733C464.727 253.158 461.008 250.298 458.148 247.866C460.436 247.58 467.015 247.151 473.881 250.727C480.174 254.017 483.321 258.88 484.465 261.025Z" fill="#232B41"/>
</svg>
