<svg data-name="Layer 1" xmlns="http://www.w3.org/2000/svg" width="1050" height="594.02">
    <ellipse cx="525" cy="561.02" rx="525" ry="33" fill="#40c057" opacity=".1"/>
    <path fill="#d0d2d5" d="m497.09 549.99-178.19-2.28.53-4.57 8.61-75.39h156.49l11.51 75.39.88 5.71.17 1.14z"/>
    <path opacity=".1" d="M496.92 548.85H408l-89.1-1.14.53-4.57h176.61l.88 5.71z"/>
    <path fill="#d0d2d5" d="M289.2 544.28h236.45v5.71H289.2z"/>
    <path d="M751.24 14.94A14.87 14.87 0 0 0 736.44.01H76.12a14.87 14.87 0 0 0-14.8 14.94v400.26h689.92z" fill="#3f3d56"/>
    <path d="M61.32 411.21v46.88a14.8 14.8 0 0 0 14.8 14.8h660.32a14.8 14.8 0 0 0 14.8-14.8v-46.88z" fill="#d0d2d5"/>
    <path fill="#fff" d="M89.88 25.13h636.23v359.81H89.88z"/>
    <path d="M409.71 455.1a15.43 15.43 0 0 0 12.13-5.88 16.06 16.06 0 0 0 1.2-1.76l-8.47-1.45 9.15.07a15.44 15.44 0 0 0 .29-12.22l-12.27 6.36 11.32-8.32a15.42 15.42 0 1 0-25.47 17.26 15.43 15.43 0 0 0 12.12 5.94z" fill="#40c057"/>
    <path opacity=".1" d="m425.13 472.89 71.09 71.39-10.91-71.39h-60.18z"/>
    <path d="M634.94 211.11a1.48 1.48 0 0 0 0-.21 55.29 55.29 0 0 0-2.66-14.57c-.09-.27-.17-.54-.27-.8a55.77 55.77 0 0 0-21.32-28 55.47 55.47 0 0 0-72.69 9 78.52 78.52 0 0 0-4.43-15.52 248.45 248.45 0 0 1-44 1.64 177.65 177.65 0 0 0 27.91 10.14l-.34 1.27a178.73 178.73 0 0 1-31.19-11.67l-3-1.46 3.36.22a249.73 249.73 0 0 0 46.82-1.35 79.17 79.17 0 0 0-13.8-21.9c-25.18-2.54-50.17-7.82-73.48-18.3l.54-1.19c22.7 10.2 47 15.45 71.61 18a78.63 78.63 0 0 0-125 13.28 108.05 108.05 0 0 0-26.84-60.68 251.7 251.7 0 0 1-41.45 12.56 250.58 250.58 0 0 1-64.81 5.14 177.9 177.9 0 0 0 27.9 10.14l-.34 1.26a179 179 0 0 1-31.19-11.66l-3-1.47 3.35.22a248.9 248.9 0 0 0 108.62-17.19c-1.29-1.42-2.63-2.81-4-4.17-43.06.87-89.95.45-132.4-15a108.28 108.28 0 0 0-51.4 92.17c0 20.32 5.58 48.27 15.3 76.31A325.56 325.56 0 0 0 208 274.07c3 6 6.12 11.9 9.44 17.52a198.58 198.58 0 0 0 13.16 19.71c.86 1.13 1.73 2.24 2.6 3.32a120.36 120.36 0 0 0 16.42 17q1.82 1.52 3.67 2.9a69.49 69.49 0 0 0 10.53 6.49 48.34 48.34 0 0 0 19.81 5.38h1.64v.23h294v-.23h.22a14.74 14.74 0 0 0 5-.88c10.4-3.69 20-18.5 27.93-37.21 1.76-4.15 3.44-8.49 5-12.95 1.41-3.93 2.75-8 4-12a371.64 371.64 0 0 0 9.25-36.12c2.8-13.88 4.35-26 4.35-33.68-.02-.78-.02-1.61-.08-2.44z" fill="#40c057" opacity=".1"/>
    <path d="M359.91 82.51A107.89 107.89 0 0 0 230.29 67.9c41.54 14.88 87.39 15.43 129.62 14.61zm240.81 241.55-45.37-78.59a1.45 1.45 0 0 0-2.51 0l-45.37 78.59a1.45 1.45 0 0 0 1.25 2.17h13.54a1.46 1.46 0 0 1 1.45 1.44v16.79a1.44 1.44 0 0 0 1.44 1.45h17.66a1.45 1.45 0 0 0 1.45-1.45v-8.1a1.44 1.44 0 0 1 1.44-1.45h16.79a1.45 1.45 0 0 1 1.45 1.45v8.1a1.45 1.45 0 0 0 1.45 1.45H583a1.44 1.44 0 0 0 1.37-1 1.34 1.34 0 0 0 .08-.46v-16.78a1.45 1.45 0 0 1 1.45-1.44h13.53a1.45 1.45 0 0 0 1.29-2.17zm-63.26 8.69a1.4 1.4 0 0 1-1 .43h-6.37a1.45 1.45 0 0 1-1.45-1.45 1.47 1.47 0 0 1 1.45-1.45h6.37a1.45 1.45 0 0 1 1.45 1.45 1.4 1.4 0 0 1-.45 1.02zm41.68 0a1.4 1.4 0 0 1-1 .43h-6.37a1.45 1.45 0 0 1-1-2.47 1.4 1.4 0 0 1 1-.43h6.37a1.45 1.45 0 0 1 1.45 1.45 1.4 1.4 0 0 1-.45 1.02zm-258.86-8-45.37-78.59a1.45 1.45 0 0 0-2.5 0l-39.2 67.85a119.89 119.89 0 0 0 16.42 17H256a1.45 1.45 0 0 1 1.45 1.45 1.47 1.47 0 0 1-1.45 1.45h-2.69a70.22 70.22 0 0 0 10.51 6.53v-3.43a1.44 1.44 0 0 1 1.45-1.44h16.79a1.44 1.44 0 0 1 1.44 1.44v8.1a1.51 1.51 0 0 0 .13.61 1.44 1.44 0 0 0 1.32.84h17.66a1.41 1.41 0 0 0 1.15-.58 1.44 1.44 0 0 0 .29-.87v-16.74a1.45 1.45 0 0 1 1.45-1.45H319a1.44 1.44 0 0 0 1.28-2.17zm-30 6.65a1.43 1.43 0 0 1 1-.43h6.36a1.45 1.45 0 0 1 1.45 1.45 1.45 1.45 0 0 1-1.45 1.45h-6.36a1.45 1.45 0 0 1-1.45-1.45 1.44 1.44 0 0 1 .46-1.02zm-28.5-29.08a1.44 1.44 0 0 1-1.44-1.45v-11a1.44 1.44 0 0 1 1.44-1.45h23.74a1.45 1.45 0 0 1 1.44 1.45v11a1.45 1.45 0 0 1-1.44 1.45zm237.85-118.74h-56.15v-12.15a2.9 2.9 0 0 0-2.9-2.9h-16.49v-12.94a1.82 1.82 0 0 0-1.83-1.82H401a1.83 1.83 0 0 0-1.83 1.82v12.94h-19.36a2.9 2.9 0 0 0-2.9 2.9v12.14h-53.54a.58.58 0 0 0-.59.59v161.2a.58.58 0 0 0 .59.59H359a.58.58 0 0 0 .59-.59v-21.67a.6.6 0 0 1 .59-.6h15a.6.6 0 0 1 .59.6v21.68a.58.58 0 0 0 .59.59h70.32a.59.59 0 0 0 .59-.59v-21.68a.59.59 0 0 1 .58-.6h15a.59.59 0 0 1 .59.6v21.68a.59.59 0 0 0 .59.59h35.59a.59.59 0 0 0 .59-.59v-161.2a.59.59 0 0 0-.58-.59zm-146.46 132a.58.58 0 0 1-.59.59h-22a.58.58 0 0 1-.59-.59v-7.5a.59.59 0 0 1 .59-.6h22a.59.59 0 0 1 .59.6zm0-19.39a.59.59 0 0 1-.59.59h-22a.59.59 0 0 1-.59-.59v-7.51a.59.59 0 0 1 .59-.59h22a.59.59 0 0 1 .59.59zm0-19.4a.58.58 0 0 1-.59.59h-22a.58.58 0 0 1-.59-.59v-7.5a.58.58 0 0 1 .59-.59h22a.58.58 0 0 1 .59.59zm0-19.39a.58.58 0 0 1-.59.59h-22a.58.58 0 0 1-.59-.59v-7.5a.58.58 0 0 1 .59-.59h22a.58.58 0 0 1 .59.59zm0-19.39a.59.59 0 0 1-.59.59h-22a.59.59 0 0 1-.58-.59v-7.51a.59.59 0 0 1 .59-.59h22a.59.59 0 0 1 .59.59zm0-19.4a.58.58 0 0 1-.59.59h-22a.58.58 0 0 1-.59-.59v-7.5a.58.58 0 0 1 .59-.59h22a.58.58 0 0 1 .59.59zm0-19.39a.58.58 0 0 1-.59.59h-22a.58.58 0 0 1-.59-.59v-7.5a.58.58 0 0 1 .59-.59h22a.58.58 0 0 1 .59.59zm52.1 116.36a.58.58 0 0 1-.59.59h-22a.58.58 0 0 1-.59-.59v-7.5a.59.59 0 0 1 .59-.6h22a.59.59 0 0 1 .59.6zm0-19.39a.59.59 0 0 1-.59.59h-22a.59.59 0 0 1-.59-.59v-7.51a.59.59 0 0 1 .59-.59h22a.59.59 0 0 1 .59.59zm0-19.4a.58.58 0 0 1-.59.59h-22a.58.58 0 0 1-.59-.59v-7.5a.58.58 0 0 1 .59-.59h22a.58.58 0 0 1 .59.59zm0-19.39a.58.58 0 0 1-.59.59h-22a.58.58 0 0 1-.59-.59v-7.5a.58.58 0 0 1 .59-.59h22a.58.58 0 0 1 .59.59zm0-19.39a.59.59 0 0 1-.59.59h-22a.59.59 0 0 1-.59-.59v-7.51a.59.59 0 0 1 .59-.59h22a.59.59 0 0 1 .59.59zm0-19.4a.58.58 0 0 1-.59.59h-22a.58.58 0 0 1-.59-.59v-7.5a.58.58 0 0 1 .59-.59h22a.58.58 0 0 1 .59.59zm0-19.39a.58.58 0 0 1-.59.59h-22a.58.58 0 0 1-.59-.59v-7.5a.58.58 0 0 1 .59-.59h22a.58.58 0 0 1 .59.59zm35.61 116.36a.59.59 0 0 1-.59.59h-22a.59.59 0 0 1-.59-.59v-7.5a.6.6 0 0 1 .59-.6h22a.6.6 0 0 1 .59.6zm0-19.39a.6.6 0 0 1-.59.59h-22a.6.6 0 0 1-.59-.59v-7.51a.6.6 0 0 1 .59-.59h22a.6.6 0 0 1 .59.59zm0-19.4a.59.59 0 0 1-.59.59h-22a.59.59 0 0 1-.59-.59v-7.5a.59.59 0 0 1 .59-.59h22a.59.59 0 0 1 .59.59zm0-19.39a.59.59 0 0 1-.59.59h-22a.59.59 0 0 1-.59-.59v-7.5a.59.59 0 0 1 .59-.59h22a.59.59 0 0 1 .59.59zm0-19.39a.6.6 0 0 1-.59.59h-22a.6.6 0 0 1-.59-.59v-7.51a.6.6 0 0 1 .59-.59h22a.6.6 0 0 1 .59.59zm0-19.4a.59.59 0 0 1-.59.59h-22a.59.59 0 0 1-.59-.59v-7.5a.59.59 0 0 1 .59-.59h22a.59.59 0 0 1 .59.59zm0-19.39a.59.59 0 0 1-.59.59h-22a.59.59 0 0 1-.59-.59v-7.5a.59.59 0 0 1 .59-.59h22a.59.59 0 0 1 .59.59zM493 315.56a.59.59 0 0 1-.59.59h-22a.58.58 0 0 1-.59-.59v-7.5a.59.59 0 0 1 .59-.6h22a.6.6 0 0 1 .59.6zm0-19.39a.6.6 0 0 1-.59.59h-22a.59.59 0 0 1-.59-.59v-7.51a.59.59 0 0 1 .59-.59h22a.6.6 0 0 1 .59.59zm0-19.4a.59.59 0 0 1-.59.59h-22a.58.58 0 0 1-.59-.59v-7.5a.58.58 0 0 1 .59-.59h22a.59.59 0 0 1 .59.59zm0-19.39a.59.59 0 0 1-.59.59h-22a.58.58 0 0 1-.59-.59v-7.5a.58.58 0 0 1 .59-.59h22a.59.59 0 0 1 .59.59zm0-19.37a.6.6 0 0 1-.59.59h-22a.59.59 0 0 1-.59-.59v-7.51a.59.59 0 0 1 .59-.59h22a.6.6 0 0 1 .59.59zm0-19.4a.59.59 0 0 1-.59.59h-22a.58.58 0 0 1-.59-.59v-7.5a.58.58 0 0 1 .59-.59h22a.59.59 0 0 1 .59.59zm0-19.39a.59.59 0 0 1-.59.59h-22a.58.58 0 0 1-.59-.59v-7.5a.58.58 0 0 1 .59-.59h22a.59.59 0 0 1 .59.59zm-153.3-59.34a12.6 12.6 0 0 0-7.33.8 10.79 10.79 0 0 1-8.81 0 12.37 12.37 0 0 0-10.36.2 6.33 6.33 0 0 1-3 .75c-4.2 0-7.7-4.23-8.42-9.81a8.11 8.11 0 0 0 2.09-2.27c2.47-4 6.28-6.51 10.56-6.51s8.06 2.51 10.52 6.44a8.1 8.1 0 0 0 7 3.83h.11c3.34-.02 6.24 2.7 7.64 6.57z" fill="#40c057" opacity=".1"/>
    <path d="m352.5 122.36-6.79 4.31 4.12-7.5a6.73 6.73 0 0 0-4.1-1.46h-.11a8.22 8.22 0 0 1-1.41-.1l-2.3 1.45 1-1.79a8.19 8.19 0 0 1-4-3.05l-4.12 2.61 2.6-4.73a12.05 12.05 0 0 0-9.22-4.67c-4.29 0-8.1 2.55-10.57 6.52a7.87 7.87 0 0 1-7 3.76h-.23c-4.72 0-8.56 5.36-8.56 12s3.84 12 8.56 12a6.48 6.48 0 0 0 3-.74 12.3 12.3 0 0 1 10.36-.2 10.9 10.9 0 0 0 8.81 0 12.35 12.35 0 0 1 10.27.19 6.31 6.31 0 0 0 3 .73c4.72 0 8.56-5.36 8.56-12a15.22 15.22 0 0 0-1.87-7.33z" fill="#40c057" opacity=".1"/>
    <rect x="505.46" y="102.97" width="371.54" height="447.42" rx="19.8" fill="#3f3d56"/>
    <path fill="#fff" d="M522 148.11h336v357.15H522z"/>
    <circle cx="691.23" cy="528.8" r="13.08" fill="#fff"/>
    <path d="M691.23 135.18a6 6 0 1 1 6-6 6 6 0 0 1-6 6z" fill="#fff"/>
    <path d="M691.23 123.59a5.55 5.55 0 1 1-5.54 5.55 5.55 5.55 0 0 1 5.54-5.55m0-1a6.55 6.55 0 1 0 6.54 6.55 6.54 6.54 0 0 0-6.54-6.55z" fill="#fff"/>
    <path d="M824.2 333.31v-.12a32.12 32.12 0 0 0-1.55-8.47l-.15-.46a32.51 32.51 0 0 0-12.41-16.25 32.23 32.23 0 0 0-42.25 5.22 47.14 47.14 0 0 0-2.57-9 144.23 144.23 0 0 1-25.59 1 102.72 102.72 0 0 0 16.22 5.78l-.2.74a103.56 103.56 0 0 1-18.13-6.74l-1.76-.85 2 .13a144.61 144.61 0 0 0 27.22-.78 46.08 46.08 0 0 0-8-12.73c-14.64-1.48-29.17-4.55-42.72-10.64l.31-.7c13.2 5.94 27.35 9 41.63 10.49a45.71 45.71 0 0 0-72.66 7.72A62.74 62.74 0 0 0 668 262.32a147.66 147.66 0 0 1-24.1 7.3 145.91 145.91 0 0 1-37.68 3 102.72 102.72 0 0 0 16.22 5.89l-.2.73a102.73 102.73 0 0 1-18.13-6.78l-1.76-.85 2 .13a144.71 144.71 0 0 0 63.16-10c-.75-.83-1.53-1.63-2.33-2.42-25 .5-52.29.26-77-8.73a62.93 62.93 0 0 0-29.89 53.62c0 11.81 3.25 28.06 8.9 44.36a187.93 187.93 0 0 0 8.81 21.35c1.72 3.51 3.55 6.92 5.48 10.18a117 117 0 0 0 7.65 11.46c.5.65 1 1.3 1.52 1.93a69.63 69.63 0 0 0 9.54 9.87c.71.59 1.42 1.15 2.14 1.68a40.31 40.31 0 0 0 6.11 3.81 28 28 0 0 0 11.56 3.16h.95v.13h170.86v-.13h.12a8.76 8.76 0 0 0 2.89-.51c6-2.15 11.61-10.76 16.23-21.64 1-2.41 2-4.93 2.94-7.52.82-2.29 1.59-4.63 2.33-7a215.07 215.07 0 0 0 5.38-21 110.27 110.27 0 0 0 2.53-19.58c0-.48-.01-.96-.03-1.45z" fill="#40c057" opacity=".1"/>
    <path d="M664.31 258.55a62.72 62.72 0 0 0-75.31-8.49c24.11 8.65 50.76 8.95 75.31 8.49zM804.3 399.01l-26.37-45.69a.84.84 0 0 0-1.46 0l-26.38 45.69a.84.84 0 0 0 .73 1.26h7.87a.85.85 0 0 1 .84.84v9.76a.85.85 0 0 0 .84.84h10.27a.85.85 0 0 0 .84-.84v-4.71a.83.83 0 0 1 .84-.84h9.76a.84.84 0 0 1 .84.84v4.71a.85.85 0 0 0 .84.84H794a.84.84 0 0 0 .8-.57.86.86 0 0 0 0-.27v-9.76a.84.84 0 0 1 .84-.84h7.87a.84.84 0 0 0 .79-1.26zm-36.77 5a.86.86 0 0 1-.6.25h-3.7a.85.85 0 0 1-.84-.84.81.81 0 0 1 .25-.6.84.84 0 0 1 .59-.25h3.7a.85.85 0 0 1 .85.85.84.84 0 0 1-.25.59zm24.23 0a.86.86 0 0 1-.6.25h-3.7a.85.85 0 0 1 0-1.69h3.7a.85.85 0 0 1 .85.85.84.84 0 0 1-.25.59zm-150.49-4.63-26.37-45.69a.84.84 0 0 0-1.46 0l-22.78 39.46a69.45 69.45 0 0 0 9.54 9.86h3.7a.84.84 0 0 1 .6 1.43.81.81 0 0 1-.6.25h-1.56a41 41 0 0 0 6.11 3.8v-2a.84.84 0 0 1 .84-.84h9.76a.85.85 0 0 1 .84.84v4.71a.78.78 0 0 0 .08.35.83.83 0 0 0 .76.49H631a.84.84 0 0 0 .67-.34.86.86 0 0 0 .17-.5v-9.76a.84.84 0 0 1 .84-.84h7.87a.84.84 0 0 0 .72-1.22zm-17.43 3.86a.83.83 0 0 1 .59-.24h3.71a.83.83 0 0 1 .59 1.43.8.8 0 0 1-.59.25h-3.71a.85.85 0 0 1-.84-.84.86.86 0 0 1 .25-.6zm-16.57-16.9a.84.84 0 0 1-.84-.85v-6.39a.84.84 0 0 1 .84-.84h13.8a.85.85 0 0 1 .84.84v6.39a.85.85 0 0 1-.84.85zm138.26-69.03h-32.64v-7.05a1.69 1.69 0 0 0-1.69-1.69h-9.58v-7.56a1.06 1.06 0 0 0-1.06-1.06h-12.35a1.05 1.05 0 0 0-1.06 1.06v7.52h-11.27a1.69 1.69 0 0 0-1.69 1.69v7.05h-31.12a.35.35 0 0 0-.35.34v93.72a.35.35 0 0 0 .35.34h20.68a.34.34 0 0 0 .34-.34v-12.57a.35.35 0 0 1 .35-.34h8.73a.35.35 0 0 1 .35.34v12.61a.34.34 0 0 0 .34.34h40.88a.34.34 0 0 0 .34-.34v-12.61a.34.34 0 0 1 .34-.34h8.74a.34.34 0 0 1 .34.34v12.61a.35.35 0 0 0 .35.34h20.68a.34.34 0 0 0 .34-.34v-93.72a.34.34 0 0 0-.34-.34zm-85.14 76.7a.34.34 0 0 1-.34.34h-12.78a.34.34 0 0 1-.34-.34v-4.37a.34.34 0 0 1 .34-.34h12.78a.34.34 0 0 1 .34.34zm0-11.28a.34.34 0 0 1-.34.34h-12.78a.34.34 0 0 1-.34-.34v-4.36a.34.34 0 0 1 .34-.34h12.78a.34.34 0 0 1 .34.34zm0-11.27a.34.34 0 0 1-.34.34h-12.78a.34.34 0 0 1-.34-.34v-4.37a.34.34 0 0 1 .34-.34h12.78a.34.34 0 0 1 .34.34zm0-11.28a.35.35 0 0 1-.34.35h-12.78a.35.35 0 0 1-.34-.35v-4.36a.34.34 0 0 1 .34-.34h12.78a.34.34 0 0 1 .34.34zm0-11.27a.34.34 0 0 1-.34.34h-12.78a.34.34 0 0 1-.34-.34v-4.37a.34.34 0 0 1 .34-.34h12.78a.34.34 0 0 1 .34.34zm0-11.27a.34.34 0 0 1-.34.34h-12.78a.34.34 0 0 1-.34-.34v-4.37a.34.34 0 0 1 .34-.34h12.78a.34.34 0 0 1 .34.34zm0-11.28a.34.34 0 0 1-.34.34h-12.78a.34.34 0 0 1-.34-.34v-4.35a.34.34 0 0 1 .34-.34h12.78a.34.34 0 0 1 .34.34zm30.29 67.65a.34.34 0 0 1-.34.34h-12.78a.34.34 0 0 1-.34-.34v-4.37a.34.34 0 0 1 .34-.34h12.78a.34.34 0 0 1 .34.34zm0-11.28a.34.34 0 0 1-.34.34h-12.78a.34.34 0 0 1-.34-.34v-4.36a.34.34 0 0 1 .34-.34h12.78a.34.34 0 0 1 .34.34zm0-11.27a.34.34 0 0 1-.34.34h-12.78a.34.34 0 0 1-.34-.34v-4.37a.34.34 0 0 1 .34-.34h12.78a.34.34 0 0 1 .34.34zm0-11.28a.35.35 0 0 1-.34.35h-12.78a.35.35 0 0 1-.34-.35v-4.36a.34.34 0 0 1 .34-.34h12.78a.34.34 0 0 1 .34.34zm0-11.27a.34.34 0 0 1-.34.34h-12.78a.34.34 0 0 1-.34-.34v-4.37a.34.34 0 0 1 .34-.34h12.78a.34.34 0 0 1 .34.34zm0-11.27a.34.34 0 0 1-.34.34h-12.78a.34.34 0 0 1-.34-.34v-4.37a.34.34 0 0 1 .34-.34h12.78a.34.34 0 0 1 .34.34zm0-11.28a.34.34 0 0 1-.34.34h-12.78a.34.34 0 0 1-.34-.34v-4.35a.34.34 0 0 1 .34-.34h12.78a.34.34 0 0 1 .34.34zm20.7 67.65a.34.34 0 0 1-.34.34h-12.78a.34.34 0 0 1-.34-.34v-4.37a.34.34 0 0 1 .34-.34H711a.34.34 0 0 1 .34.34zm0-11.28a.34.34 0 0 1-.34.34h-12.78a.34.34 0 0 1-.34-.34v-4.36a.34.34 0 0 1 .34-.34H711a.34.34 0 0 1 .34.34zm0-11.27a.34.34 0 0 1-.34.34h-12.78a.34.34 0 0 1-.34-.34v-4.37a.34.34 0 0 1 .34-.34H711a.34.34 0 0 1 .34.34zm0-11.28a.35.35 0 0 1-.34.35h-12.78a.35.35 0 0 1-.34-.35v-4.36a.34.34 0 0 1 .34-.34H711a.34.34 0 0 1 .34.34zm0-11.27a.34.34 0 0 1-.34.34h-12.78a.34.34 0 0 1-.34-.34v-4.37a.34.34 0 0 1 .34-.34H711a.34.34 0 0 1 .34.34zm0-11.27a.34.34 0 0 1-.34.34h-12.78a.34.34 0 0 1-.34-.34v-4.37a.34.34 0 0 1 .34-.34H711a.34.34 0 0 1 .34.34zm0-11.28a.34.34 0 0 1-.34.34h-12.78a.34.34 0 0 1-.34-.34v-4.35a.34.34 0 0 1 .34-.34H711a.34.34 0 0 1 .34.34zm30.29 67.65a.35.35 0 0 1-.34.34h-12.78a.34.34 0 0 1-.34-.34v-4.37a.34.34 0 0 1 .34-.34h12.78a.34.34 0 0 1 .34.34zm0-11.28a.34.34 0 0 1-.34.34h-12.78a.34.34 0 0 1-.34-.34v-4.36a.34.34 0 0 1 .34-.34h12.78a.34.34 0 0 1 .34.34zm0-11.27a.34.34 0 0 1-.34.34h-12.78a.34.34 0 0 1-.34-.34v-4.37a.34.34 0 0 1 .34-.34h12.78a.35.35 0 0 1 .34.34zm0-11.28a.35.35 0 0 1-.34.35h-12.78a.35.35 0 0 1-.34-.35v-4.36a.34.34 0 0 1 .34-.34h12.78a.34.34 0 0 1 .34.34zm0-11.27a.34.34 0 0 1-.34.34h-12.78a.34.34 0 0 1-.34-.34v-4.37a.34.34 0 0 1 .34-.34h12.78a.35.35 0 0 1 .34.34zm0-11.27a.35.35 0 0 1-.34.34h-12.78a.34.34 0 0 1-.34-.34v-4.37a.34.34 0 0 1 .34-.34h12.78a.34.34 0 0 1 .34.34zm0-11.28a.34.34 0 0 1-.34.34h-12.78a.34.34 0 0 1-.34-.34v-4.35a.34.34 0 0 1 .34-.34h12.78a.34.34 0 0 1 .34.34zm-89.11-34.45a7.39 7.39 0 0 0-4.26.46 6.34 6.34 0 0 1-2.55.54 6.24 6.24 0 0 1-2.57-.55 7.18 7.18 0 0 0-6 .12 3.72 3.72 0 0 1-1.73.43c-2.44 0-4.47-2.46-4.89-5.7a4.82 4.82 0 0 0 1.22-1.32 6.86 6.86 0 0 1 12.25 0 4.68 4.68 0 0 0 4 2.23h.07c1.96-.04 3.64 1.51 4.46 3.79z" fill="#40c057" opacity=".1"/>
    <path d="m660 281.72-4 2.51 2.4-4.36a3.92 3.92 0 0 0-2.39-.85H656a5.55 5.55 0 0 1-.82-.06l-1.34.84.58-1a4.72 4.72 0 0 1-2.34-1.77l-2.4 1.51 1.52-2.75a7 7 0 0 0-5.37-2.71 7.35 7.35 0 0 0-6.14 3.79 4.6 4.6 0 0 1-4.06 2.19h-.13c-2.75 0-5 3.11-5 7s2.23 7 5 7a3.73 3.73 0 0 0 1.73-.44 7.18 7.18 0 0 1 6-.11 6.41 6.41 0 0 0 2.57.55 6.34 6.34 0 0 0 2.55-.54 7.19 7.19 0 0 1 6 .11 3.64 3.64 0 0 0 1.71.43c2.75 0 5-3.12 5-7a8.86 8.86 0 0 0-1.06-4.34z" fill="#40c057" opacity=".1"/>
    <rect x="988.64" y="269.17" width="5.36" height="44.17" rx="2.29" fill="#3f3d56"/>
    <rect x="810.55" y="234.57" width="3.01" height="14.54" rx="1.5" fill="#3f3d56"/>
    <rect x="810.44" y="261.19" width="3.39" height="25.31" rx="1.69" fill="#3f3d56"/>
    <rect x="810.49" y="295.35" width="3.23" height="25.53" rx="1.61" fill="#3f3d56"/>
    <rect x="812.25" y="186.51" width="179.29" height="364.37" rx="18.54" fill="#3f3d56"/>
    <rect x="884.6" y="197.39" width="25.04" height="5.08" rx="2.54" fill="#e6e8ec"/>
    <circle cx="916.3" cy="199.94" r="2.88" fill="#e6e8ec"/>
    <path d="M966.22 196.01H945.7v2.47A11.73 11.73 0 0 1 934 210.2h-65.46a11.73 11.73 0 0 1-11.73-11.73v-2.46h-19.25a14.25 14.25 0 0 0-14.24 14.24v316.9a14.24 14.24 0 0 0 14.24 14.24h128.66a14.23 14.23 0 0 0 14.24-14.24V210.24a14.24 14.24 0 0 0-14.24-14.23z" fill="#fff"/>
    <path d="M962.2 371.69a14.33 14.33 0 0 0-.7-3.83 1.72 1.72 0 0 0-.07-.21 14.56 14.56 0 0 0-24.65-5 20.46 20.46 0 0 0-1.16-4.07 65.66 65.66 0 0 1-11.55.43 47.79 47.79 0 0 0 7.32 2.66l-.09.33a46.82 46.82 0 0 1-8.18-3.06l-.79-.39.88.06a65.38 65.38 0 0 0 12.28-.35 20.79 20.79 0 0 0-3.62-5.75 61.91 61.91 0 0 1-19.27-4.79l.14-.32a60.89 60.89 0 0 0 18.78 4.73 20.63 20.63 0 0 0-32.78 3.49 28.35 28.35 0 0 0-7-15.94 66.32 66.32 0 0 1-27.87 4.64 46.76 46.76 0 0 0 7.32 2.66l-.09.33a46.82 46.82 0 0 1-8.18-3.06l-.79-.38.88.06a65.26 65.26 0 0 0 28.49-4.52c-.34-.37-.69-.73-1.05-1.09-11.29.23-23.59.12-34.72-3.94a28.4 28.4 0 0 0-13.48 24.19c0 5.33 1.46 12.66 4 20a83.69 83.69 0 0 0 4 9.64q1.17 2.38 2.47 4.6a54 54 0 0 0 3.45 5.17l.69.87a32 32 0 0 0 4.3 4.45c.32.27.64.52 1 .76a18.94 18.94 0 0 0 2.75 1.72 12.92 12.92 0 0 0 5.2 1.41h.43v.05h77.09v-.05h.06a3.92 3.92 0 0 0 1.3-.23c2.73-1 5.24-4.85 7.32-9.76.47-1.09.91-2.23 1.33-3.4s.72-2.08 1.05-3.15c1-3.2 1.82-6.49 2.43-9.47a50.32 50.32 0 0 0 1.14-8.83c-.04-.22-.05-.44-.06-.66z" fill="#40c057" opacity=".1"/>
    <path d="M890.07 338.01a28.3 28.3 0 0 0-34-3.83c10.93 3.83 22.93 4 34 3.83zm63.16 63.3-11.9-20.61a.38.38 0 0 0-.66 0l-11.9 20.61a.38.38 0 0 0 .33.57h3.55a.38.38 0 0 1 .38.38v4.4a.38.38 0 0 0 .38.38H938a.38.38 0 0 0 .38-.38v-2.12a.38.38 0 0 1 .38-.38h4.4a.38.38 0 0 1 .38.38v2.12a.38.38 0 0 0 .38.38h4.63a.38.38 0 0 0 .36-.26.37.37 0 0 0 0-.12v-4.4a.38.38 0 0 1 .38-.38h3.55a.38.38 0 0 0 .39-.57zm-16.59 2.28a.39.39 0 0 1-.27.11h-1.67a.38.38 0 0 1-.38-.38.35.35 0 0 1 .11-.26.4.4 0 0 1 .27-.12h1.67a.38.38 0 0 1 .38.38.37.37 0 0 1-.11.27zm10.93 0a.37.37 0 0 1-.27.11h-1.67a.38.38 0 0 1-.38-.38.35.35 0 0 1 .11-.26.4.4 0 0 1 .27-.12h1.67a.38.38 0 0 1 .38.38.37.37 0 0 1-.11.27zm-67.89-2.1-11.9-20.61a.38.38 0 0 0-.66 0l-10.27 17.8a32 32 0 0 0 4.3 4.45h1.67a.38.38 0 1 1 0 .75h-.7a18.94 18.94 0 0 0 2.75 1.72v-.88a.38.38 0 0 1 .38-.38h4.41a.38.38 0 0 1 .37.38v2.12a.39.39 0 0 0 .38.38h4.64a.38.38 0 0 0 .3-.15.35.35 0 0 0 .07-.23v-4.4a.38.38 0 0 1 .38-.38h3.55a.38.38 0 0 0 .33-.57zm-7.86 1.75a.35.35 0 0 1 .26-.11h1.67a.38.38 0 1 1 0 .75h-1.67a.38.38 0 0 1-.38-.38.37.37 0 0 1 .12-.26zm-7.48-7.63a.38.38 0 0 1-.38-.38v-2.88a.38.38 0 0 1 .38-.38h6.23a.38.38 0 0 1 .38.38v2.88a.38.38 0 0 1-.38.38zm62.38-31.14H912v-3.19a.76.76 0 0 0-.76-.76h-4.34v-3.39a.48.48 0 0 0-.47-.48h-5.57a.48.48 0 0 0-.48.48v3.39h-5.09a.76.76 0 0 0-.76.76v3.19h-14a.15.15 0 0 0-.15.15v42.28a.16.16 0 0 0 .15.16h9.33a.16.16 0 0 0 .16-.16v-5.69a.15.15 0 0 1 .15-.15h3.94a.16.16 0 0 1 .16.15v5.69a.16.16 0 0 0 .15.16h18.44a.16.16 0 0 0 .16-.16v-5.69a.15.15 0 0 1 .15-.15h3.94a.16.16 0 0 1 .16.15v5.69a.16.16 0 0 0 .15.16h9.34a.16.16 0 0 0 .15-.16v-42.28a.15.15 0 0 0-.19-.15zm-38.41 34.61a.16.16 0 0 1-.16.16h-5.76a.16.16 0 0 1-.16-.16v-2a.16.16 0 0 1 .16-.15h5.76a.16.16 0 0 1 .16.15zm0-5.08a.16.16 0 0 1-.16.15h-5.76a.16.16 0 0 1-.16-.15v-2a.16.16 0 0 1 .16-.16h5.76a.16.16 0 0 1 .16.16zm0-5.09a.16.16 0 0 1-.16.16h-5.76a.16.16 0 0 1-.16-.16v-2a.16.16 0 0 1 .16-.15h5.76a.16.16 0 0 1 .16.15zm0-5.09a.16.16 0 0 1-.16.16h-5.76a.16.16 0 0 1-.16-.16v-2a.16.16 0 0 1 .16-.16h5.76a.16.16 0 0 1 .16.16zm0-5.08a.16.16 0 0 1-.16.15h-5.76a.16.16 0 0 1-.16-.15v-2a.16.16 0 0 1 .16-.15h5.76a.16.16 0 0 1 .16.15zm0-5.09a.16.16 0 0 1-.16.16h-5.76a.16.16 0 0 1-.16-.16v-2a.16.16 0 0 1 .16-.15h5.76a.16.16 0 0 1 .16.15zm0-5.08a.16.16 0 0 1-.16.15h-5.76a.16.16 0 0 1-.16-.15v-2a.16.16 0 0 1 .16-.16h5.76a.16.16 0 0 1 .16.16zM902 399.08a.16.16 0 0 1-.15.16h-5.77a.16.16 0 0 1-.15-.16v-2a.15.15 0 0 1 .15-.15h5.77a.15.15 0 0 1 .15.15zm0-5.08a.15.15 0 0 1-.15.15h-5.77a.15.15 0 0 1-.15-.15v-2a.16.16 0 0 1 .15-.16h5.77a.16.16 0 0 1 .15.16zm0-5.09a.16.16 0 0 1-.15.16h-5.77a.16.16 0 0 1-.15-.16v-2a.15.15 0 0 1 .15-.15h5.77a.15.15 0 0 1 .15.15zm0-5.09a.16.16 0 0 1-.15.16h-5.77a.16.16 0 0 1-.15-.16v-2a.16.16 0 0 1 .15-.16h5.77a.16.16 0 0 1 .15.16zm0-5.08a.15.15 0 0 1-.15.15h-5.77a.15.15 0 0 1-.15-.15v-2a.15.15 0 0 1 .15-.15h5.77a.15.15 0 0 1 .15.15zm0-5.09a.16.16 0 0 1-.15.16h-5.77a.16.16 0 0 1-.15-.16v-2a.15.15 0 0 1 .15-.15h5.77a.15.15 0 0 1 .15.15zm0-5.08a.15.15 0 0 1-.15.15h-5.77a.15.15 0 0 1-.15-.15v-2a.16.16 0 0 1 .15-.16h5.77a.16.16 0 0 1 .15.16zm9.34 30.51a.16.16 0 0 1-.16.16h-5.76a.16.16 0 0 1-.16-.16v-2a.16.16 0 0 1 .16-.15h5.76a.16.16 0 0 1 .16.15zm0-5.08a.16.16 0 0 1-.16.15h-5.76a.16.16 0 0 1-.16-.15v-2a.16.16 0 0 1 .16-.16h5.76a.16.16 0 0 1 .16.16zm0-5.09a.16.16 0 0 1-.16.16h-5.76a.16.16 0 0 1-.16-.16v-2a.16.16 0 0 1 .16-.15h5.76a.16.16 0 0 1 .16.15zm0-5.09a.16.16 0 0 1-.16.16h-5.76a.16.16 0 0 1-.16-.16v-2a.16.16 0 0 1 .16-.16h5.76a.16.16 0 0 1 .16.16zm0-5.08a.16.16 0 0 1-.16.15h-5.76a.16.16 0 0 1-.16-.15v-2a.16.16 0 0 1 .16-.15h5.76a.16.16 0 0 1 .16.15zm0-5.09a.16.16 0 0 1-.16.16h-5.76a.16.16 0 0 1-.16-.16v-2a.16.16 0 0 1 .16-.15h5.76a.16.16 0 0 1 .16.15zm0-5.08a.16.16 0 0 1-.16.15h-5.76a.16.16 0 0 1-.16-.15v-2a.16.16 0 0 1 .16-.16h5.76a.16.16 0 0 1 .16.16zM925 399.08a.16.16 0 0 1-.15.16h-5.77a.16.16 0 0 1-.15-.16v-2a.15.15 0 0 1 .15-.15h5.77a.15.15 0 0 1 .15.15zm0-5.08a.15.15 0 0 1-.15.15h-5.77a.15.15 0 0 1-.15-.15v-2a.16.16 0 0 1 .15-.16h5.77a.16.16 0 0 1 .15.16zm0-5.09a.16.16 0 0 1-.15.16h-5.77a.16.16 0 0 1-.15-.16v-2a.15.15 0 0 1 .15-.15h5.77a.15.15 0 0 1 .15.15zm0-5.09a.16.16 0 0 1-.15.16h-5.77a.16.16 0 0 1-.15-.16v-2a.16.16 0 0 1 .15-.16h5.77a.16.16 0 0 1 .15.16zm0-5.08a.15.15 0 0 1-.15.15h-5.77a.15.15 0 0 1-.15-.15v-2a.15.15 0 0 1 .15-.15h5.77a.15.15 0 0 1 .15.15zm0-5.09a.16.16 0 0 1-.15.16h-5.77a.16.16 0 0 1-.15-.16v-2a.15.15 0 0 1 .15-.15h5.77a.15.15 0 0 1 .15.15zm0-5.08a.15.15 0 0 1-.15.15h-5.77a.15.15 0 0 1-.15-.15v-2a.16.16 0 0 1 .15-.16h5.77a.16.16 0 0 1 .15.16zm-40.23-15.56a3.33 3.33 0 0 0-1.92.21 2.82 2.82 0 0 1-1.15.24 2.72 2.72 0 0 1-1.16-.25 3.27 3.27 0 0 0-2.72.06 1.73 1.73 0 0 1-.78.19c-1.1 0-2-1.11-2.21-2.57a2.06 2.06 0 0 0 .55-.59 3.1 3.1 0 0 1 5.53 0 2.11 2.11 0 0 0 1.83 1 2.28 2.28 0 0 1 2.03 1.71z" fill="#40c057" opacity=".1"/>
    <path d="m888.13 348.42-1.78 1.12 1.08-2a1.75 1.75 0 0 0-1.08-.39 1.51 1.51 0 0 1-.37 0l-.61.38.26-.47a2.19 2.19 0 0 1-1.05-.8l-1.08.68.68-1.24a3.16 3.16 0 0 0-2.42-1.22 3.3 3.3 0 0 0-2.76 1.73 2.09 2.09 0 0 1-1.83 1h-.06c-1.24 0-2.25 1.41-2.25 3.14s1 3.14 2.25 3.14a1.64 1.64 0 0 0 .78-.19 3.23 3.23 0 0 1 2.72 0 2.9 2.9 0 0 0 2.31 0 3.24 3.24 0 0 1 2.69 0 1.6 1.6 0 0 0 .77.19c1.24 0 2.25-1.4 2.25-3.14a4 4 0 0 0-.5-1.93z" fill="#40c057" opacity=".1"/>
    <path d="M99.65 540.6a37 37 0 0 1-.8 7.76c-.1.48-.21.95-.32 1.41-2.84 11.39-10.85 19.72-20.41 20.25h-1c-10.11 0-18.66-8.72-21.48-20.73-.08-.32-.15-.64-.22-1a37 37 0 0 1-.8-7.76c0-16.27 10.07-29.45 22.5-29.45s22.53 13.25 22.53 29.52z" fill="#3f3d56"/>
    <path d="M99.65 540.6a37 37 0 0 1-.8 7.76c-.1.48-.21.95-.32 1.41h-1a45.76 45.76 0 0 1-7.36-1 44.92 44.92 0 0 1-6.56 1.5 45.87 45.87 0 0 1-5.14.48h-1.74a46.41 46.41 0 0 1-6.16-.41 45.17 45.17 0 0 1-9.67-2.4 45.56 45.56 0 0 1-5.22 1.4c-.08-.32-.15-.64-.22-1a37 37 0 0 1-.8-7.76c0-16.27 10.07-29.45 22.5-29.45s22.49 13.2 22.49 29.47z" opacity=".1"/>
    <path d="M147.65 485.73a45.6 45.6 0 0 0-4.9-20.61l-26.46 8.23 23.23-13.65a45.71 45.71 0 0 0-34.36-19.59 45.65 45.65 0 0 0-3.57-4.72l-38 11.83 31.17-18.33a45.73 45.73 0 0 0-72 24.39l32.55 37.47L20 465.21a45.74 45.74 0 0 0 40.93 80.7 45.92 45.92 0 0 0 29.28.81 45.74 45.74 0 0 0 55.62-44.66c0-1 0-2-.1-3a45.74 45.74 0 0 0 1.92-13.33z" fill="#40c057"/>
    <path d="M146.86 494.21a122.14 122.14 0 0 0-42.34-.54c-15.89 2.63-32.13 8.42-47.67 4.19-9.12-2.48-17-8.22-25.91-11.41a49.18 49.18 0 0 0-26.75-1.6 45.76 45.76 0 0 0 56.69 61.06 45.92 45.92 0 0 0 29.28.81 45.74 45.74 0 0 0 55.62-44.66c0-1 0-2-.1-3a46 46 0 0 0 1.18-4.85z" opacity=".1"/>
    <path d="m493.71 206.14-19-.84c-4.35-.19-9.31-.13-12.21 3.11-3.09 3.45-2.28 8.87-.46 13.14s4.48 8.36 4.62 13c.21 7.3-5.78 13.08-11.21 18s-11.23 11-10.44 18.27c.62 5.67 5.14 10.05 9.6 13.59a128.25 128.25 0 0 0 21.85 14c4.43 2.24 9.15 4.26 14.12 4.31 4.36.05 8.58-1.42 12.68-2.9 7.13-2.56 14.45-5.33 19.86-10.62a39.92 39.92 0 0 0 6.9-9.54c9.35-17 11.84-38.26 4.24-56.13a31.55 31.55 0 0 0-7-10.66c-8.1-7.67-20.46-8-31.62-7.91a12.39 12.39 0 0 0-5.92 1.05c-1.77 1-3 3.23-2.18 5.08" fill="#393859"/>
    <path d="M469.39 441.38a411.28 411.28 0 0 0 2.24 60.27c.26 2.29.53 4.58 1 6.84 1.28 7 3.9 13.71 5.95 20.54s3.57 14 2.56 21.07q6.6-.69 13.22-1.13l.06-3.4c.12-6.52-2.44-12.88-1.79-19.37.62-6.14 2.6-12.14 2.51-18.31-.09-5.83-2-11.45-2.91-17.21a97.73 97.73 0 0 1-.82-11.6 146.49 146.49 0 0 1 .1-16c.84-10.82 4.06-21.6 2.57-32.35-8.16 3.76-16.58 6.93-24.69 10.65z" fill="#a0616a"/>
    <path d="M489.36 573.4a3 3 0 0 0 1.47-.24 3.2 3.2 0 0 0 1.17-2.15 26.23 26.23 0 0 1 3.36-7.55c1.13-1.73 2.51-3.49 2.53-5.55 0-3.33-3.48-5.66-4.21-8.91a14.38 14.38 0 0 0-.62-3.08c-.82-1.75-3-2.35-4.88-2.74-2.56-.54-5.87-.76-7.14 1.52-1.08 1.94.12 4.3.28 6.51.2 3-1.58 5.76-3.5 8.07-2.25 2.72-8.16 9.23-4.56 13 1.35 1.42 4.29.94 6 1z" fill="#3f3d56"/>
    <path d="M528 441.38a409.91 409.91 0 0 1-2.25 60.27c-.25 2.29-.52 4.58-.94 6.84-1.28 7-3.9 13.71-6 20.54s-3.56 14-2.55 21.07q-6.6-.69-13.22-1.13l-.06-3.4c-.12-6.52 2.43-12.88 1.78-19.37-.61-6.14-2.59-12.14-2.5-18.31.09-5.83 2-11.45 2.9-17.21a95.67 95.67 0 0 0 .83-11.6 146.49 146.49 0 0 0-.1-16c-.84-10.82-4.07-21.6-2.57-32.35 8.19 3.76 16.6 6.93 24.68 10.65z" fill="#a0616a"/>
    <path d="M508.06 573.4a3 3 0 0 1-1.46-.24 3.2 3.2 0 0 1-1.21-2.15 26.23 26.23 0 0 0-3.36-7.55c-1.13-1.73-2.52-3.49-2.53-5.55 0-3.33 3.48-5.66 4.2-8.91a14.39 14.39 0 0 1 .63-3.08c.82-1.75 3-2.35 4.88-2.74 2.56-.54 5.86-.76 7.14 1.52 1.08 1.94-.13 4.3-.28 6.51-.21 3 1.58 5.76 3.5 8.07 2.25 2.72 8.16 9.23 4.56 13-1.35 1.42-4.29.94-6 1z" fill="#3f3d56"/>
    <circle cx="492.31" cy="243.59" r="20.49" fill="#a0616a"/>
    <path d="M480.7 262.06a7 7 0 0 1 .3 2.95 5.74 5.74 0 0 1-1.72 2.66 30.58 30.58 0 0 1-10.15 6.77c-.4 1.29.35 2.62 1.08 3.74 2.46 3.79 5.06 7.47 7.67 11.16a74.72 74.72 0 0 0 17.43 18.77l6-7.54a48.75 48.75 0 0 0 3.48-4.73 47.18 47.18 0 0 0 3.12-6.39l7.33-17c-4.41.89-8.89-1.14-12.66-3.61a4.94 4.94 0 0 1-1.84-1.76 5 5 0 0 1-.4-2.18q-.18-5.3-.15-10.59a136.14 136.14 0 0 0-16-1.25c-2.08 0-3.48-.44-4 1.76s.06 5.11.51 7.24z" fill="#a0616a"/>
    <path d="M489.8 300.62a78.77 78.77 0 0 0-12-16 10.8 10.8 0 0 1-2.51-3.29 10 10 0 0 1-.56-3.18l-.36-5.29a1.23 1.23 0 0 0-.27-.82 1.19 1.19 0 0 0-.81-.23 6.77 6.77 0 0 0-3.71.54 10.4 10.4 0 0 0-2 1.84c-2.29 2.35-5.51 3.46-8.53 4.73a68.63 68.63 0 0 0-6.58 3.17c-1.69.93-3.43 2-4.19 3.8a9.39 9.39 0 0 0-.54 3.58l-.74 42.54a2.25 2.25 0 0 1-1.68 2.51 6.1 6.1 0 0 0-2.32 1.77 2.4 2.4 0 0 0-.09 2.75c.3.39.76.63 1.07 1 1 1.19.13 2.91-.54 4.29a9.32 9.32 0 0 0-1 5.81 5 5 0 0 0 3.92 4c.79-2.55-1-5.44 0-7.91a5.67 5.67 0 0 1 3.42-2.85 12.29 12.29 0 0 1 6.24-.68l1.2 4.37c4.31 15.74 1.32 32.65-2.61 48.49-.91 3.7-2.06 7.34-2.74 11.09-1 5.63-1 11.38-1 17.1v15.64c0 1.9.12 4.05 1.57 5.28s4.12 1.14 5.21 2.84c.63 1 .51 2.29 1.08 3.31a4.38 4.38 0 0 0 1.7 1.55 11.44 11.44 0 0 0 14.91-3.66c1.08-1.71 1.73-3.78 3.33-5 1.83-1.43 4.37-1.39 6.68-1.28l13.62.65a28.19 28.19 0 0 1 6.92.91 53.46 53.46 0 0 1 5.88 2.54 30.29 30.29 0 0 0 13.77 2.5 8 8 0 0 0 3.72-.9c1.3-.78 2.2-2.2 3.63-2.73 1.61-.6 3.68 0 4.93-1.17a4.47 4.47 0 0 0 1-3.17l.57-13.37c.6-13.79 1.13-28-3.42-41-1.11-3.17-2.51-6.24-3.36-9.49a93.86 93.86 0 0 1-1.61-10.19c-1.41-9.51-4.62-18.87-4-28.46 0-.73.64-.9 1.36-1 2.54-.25 5.31.22 7.12 2 1.61 1.6 2.18 4 2.36 6.23a7 7 0 0 1-.86 4.68l3.76-2.76c1.2-.88 2.54-2.09 2.3-3.56-.71-4.37-.47-9.26-1-13.65a199.36 199.36 0 0 0-3.59-22.16 58.25 58.25 0 0 1-1.45-6.32c-.36-2.92-.16-5.87-.35-8.81a33.18 33.18 0 0 0-3.14-12 12.26 12.26 0 0 0-2-3.18 13.94 13.94 0 0 0-3.88-2.68 79.93 79.93 0 0 0-19.63-7.13c-1.35-.29-2.9-.51-4 .33-1.4 1.08-1.24 3.25-.62 4.91s1.57 3.33 1.3 5.08-1.76 3.13-3 4.52c-3.17 3.71-4.61 8.71-8 12.25-1.45 1.63-3.55 3.08-3.88 5.32z" fill="#ff6f61"/>
    <path d="M477.07 233.47c1.73 1.44 3.18 3.44 5.38 3.91 5.3 1.12 9.44-7.45 14.54-5.62 1.86.67 3 2.52 4.43 3.82a8.77 8.77 0 0 0 12-.87c2.68-3.13 2.71-7.65 2.61-11.77a8.85 8.85 0 0 0-.89-4.42 7.12 7.12 0 0 0-1.77-1.86c-6.05-4.73-14.22-5.41-21.88-5.9a16 16 0 0 0-5 .21c-2.28.58-4.16 2.12-6 3.62-3.44 2.86-11.81 8.3-12.86 12.91s6.04 3.15 9.44 5.97z" fill="#393859"/>
    <rect x="453.12" y="295.07" width="74.28" height="80.43" rx="2.61" fill="#40c057"/>
    <rect x="459.52" y="302.01" width="61.48" height="48.65" rx="2.61" fill="#fff"/>
    <path d="M513 327.47a5.8 5.8 0 0 0-.27-1.46v-.07a5.53 5.53 0 0 0-9.36-1.9 7.35 7.35 0 0 0-.44-1.54 24.69 24.69 0 0 1-4.38.16 16.21 16.21 0 0 0 2.78 1v.13a18.07 18.07 0 0 1-3.1-1.16l-.3-.15h.33a24.17 24.17 0 0 0 4.66-.13 7.72 7.72 0 0 0-1.37-2.18 23.49 23.49 0 0 1-7.32-1.82l.06-.12a23.14 23.14 0 0 0 7.13 1.79 7.83 7.83 0 0 0-12.45 1.33 10.74 10.74 0 0 0-2.67-6.05 25.14 25.14 0 0 1-10.58 1.76 18.48 18.48 0 0 0 2.78 1v.12a18.07 18.07 0 0 1-3.1-1.16l-.3-.14h.33a24.79 24.79 0 0 0 10.82-1.72c-.13-.14-.26-.28-.4-.41-4.29.09-8.95 0-13.18-1.5a10.8 10.8 0 0 0-5.12 9.19 25.33 25.33 0 0 0 1.52 7.6 32.44 32.44 0 0 0 1.52 3.66c.3.6.61 1.18.94 1.74a20.87 20.87 0 0 0 1.31 2l.26.33a11.48 11.48 0 0 0 1.64 1.69 4.57 4.57 0 0 0 .36.29 7.58 7.58 0 0 0 1.05.66 4.87 4.87 0 0 0 2 .53h29.44a1.62 1.62 0 0 0 .49-.08c1-.37 2-1.85 2.79-3.71.17-.41.34-.84.5-1.29s.27-.79.4-1.19c.38-1.22.69-2.47.92-3.6a18.77 18.77 0 0 0 .43-3.35z" fill="#40c057" opacity=".3"/>
    <path d="M485.65 314.66a10.72 10.72 0 0 0-12.91-1.45c4.14 1.48 8.7 1.53 12.91 1.45zm23.98 24.05-4.52-7.82a.14.14 0 0 0-.25 0l-4.52 7.82a.15.15 0 0 0 .13.22h1.35a.14.14 0 0 1 .14.14v1.68a.14.14 0 0 0 .14.14h1.76a.15.15 0 0 0 .15-.14v-.81a.15.15 0 0 1 .14-.15h1.67a.15.15 0 0 1 .15.15v.81a.14.14 0 0 0 .14.14h1.76a.13.13 0 0 0 .13-.1v-1.68a.15.15 0 0 1 .15-.14h1.34a.15.15 0 0 0 .14-.26zm-6.3.87a.13.13 0 0 1-.1 0h-.64a.14.14 0 0 1-.14-.14.15.15 0 0 1 0-.1.14.14 0 0 1 .1-.05h.64a.15.15 0 0 1 .14.15.13.13 0 0 1 0 .14zm4.15 0a.13.13 0 0 1-.1 0h-.64a.14.14 0 0 1-.14-.14.15.15 0 0 1 0-.1.14.14 0 0 1 .1-.05h.64a.15.15 0 0 1 .14.15.13.13 0 0 1 0 .14zm-25.78-.8-4.51-7.77a.14.14 0 0 0-.25 0l-3.94 6.71a11.91 11.91 0 0 0 1.64 1.68h.63a.15.15 0 0 1 .15.15.14.14 0 0 1-.05.1.15.15 0 0 1-.1 0H475a8.55 8.55 0 0 0 1.05.65v-.29a.15.15 0 0 1 .14-.15h1.68a.15.15 0 0 1 .14.15v.8a.35.35 0 0 0 0 .06.17.17 0 0 0 .13.09h1.76a.14.14 0 0 0 .12-.06.12.12 0 0 0 0-.09v-1.67a.14.14 0 0 1 .14-.14h1.35a.145.145 0 0 0 .19-.22zm-3 .66a.15.15 0 0 1 .1 0h.63a.15.15 0 0 1 .15.15.14.14 0 0 1-.05.1.15.15 0 0 1-.1 0h-.63a.15.15 0 0 1-.15-.14.16.16 0 0 1 .07-.11zm-2.84-2.89a.15.15 0 0 1-.15-.15v-1.09a.15.15 0 0 1 .15-.14h2.36a.15.15 0 0 1 .15.14v1.09a.15.15 0 0 1-.15.15zm23.7-11.83H494v-1.2a.29.29 0 0 0-.29-.29H492v-1.29a.18.18 0 0 0-.18-.18h-2.12a.18.18 0 0 0-.18.18v1.29h-1.93a.29.29 0 0 0-.29.29v1.2H482a.06.06 0 0 0-.06.06v16.06a.06.06 0 0 0 .06.05h3.54s.06 0 .06-.05v-2.16a.06.06 0 0 1 .06-.06h1.5a.06.06 0 0 1 .06.06v2.16s0 .05.06.05h7a.06.06 0 0 0 .06-.05v-2.22h1.5a.06.06 0 0 1 .06.06v2.16a.06.06 0 0 0 .06.05h3.54a.06.06 0 0 0 .06-.05v-16.06a.06.06 0 0 0 0-.06zM485 337.87a.06.06 0 0 1-.06.06h-2.19a.06.06 0 0 1-.06-.06v-.75a.06.06 0 0 1 .06-.06h2.19a.06.06 0 0 1 .06.06zm0-1.93a.06.06 0 0 1-.06.06h-2.19a.06.06 0 0 1-.06-.06v-.75a.06.06 0 0 1 .06-.06h2.19a.06.06 0 0 1 .06.06zm0-1.93a.06.06 0 0 1-.06.05h-2.19a.06.06 0 0 1-.06-.05v-.75a.06.06 0 0 1 .06-.06h2.19a.06.06 0 0 1 .06.06zm0-1.94a.06.06 0 0 1-.06.06h-2.19a.06.06 0 0 1-.06-.06v-.74a.06.06 0 0 1 .06-.06h2.19a.06.06 0 0 1 .06.06zm0-1.93a.06.06 0 0 1-.06.06h-2.19a.06.06 0 0 1-.06-.06v-.74a.06.06 0 0 1 .06-.06h2.19a.06.06 0 0 1 .06.06zm0-1.93a.06.06 0 0 1-.06.06h-2.19a.06.06 0 0 1-.06-.06v-.75a.06.06 0 0 1 .06-.05h2.19a.06.06 0 0 1 .06.05zm0-1.93a.06.06 0 0 1-.06.06h-2.19a.06.06 0 0 1-.06-.06v-.75a.06.06 0 0 1 .06-.06h2.19a.06.06 0 0 1 .06.06zm5.19 11.59a.06.06 0 0 1-.06.06h-2.19a.06.06 0 0 1-.06-.06v-.75a.06.06 0 0 1 .06-.06h2.19a.06.06 0 0 1 .06.06zm0-1.93a.06.06 0 0 1-.06.06h-2.19a.06.06 0 0 1-.06-.06v-.75a.06.06 0 0 1 .06-.06h2.19a.06.06 0 0 1 .06.06zm0-1.93a.06.06 0 0 1-.06.05h-2.19a.06.06 0 0 1-.06-.05v-.75a.06.06 0 0 1 .06-.06h2.19a.06.06 0 0 1 .06.06zm0-1.94a.06.06 0 0 1-.06.06h-2.19a.06.06 0 0 1-.06-.06v-.74a.06.06 0 0 1 .06-.06h2.19a.06.06 0 0 1 .06.06zm0-1.93a.06.06 0 0 1-.06.06h-2.19a.06.06 0 0 1-.06-.06v-.74a.06.06 0 0 1 .06-.06h2.19a.06.06 0 0 1 .06.06zm0-1.93a.06.06 0 0 1-.06.06h-2.19a.06.06 0 0 1-.06-.06v-.75a.06.06 0 0 1 .06-.05h2.19a.06.06 0 0 1 .06.05zm0-1.93a.06.06 0 0 1-.06.06h-2.19a.06.06 0 0 1-.06-.06v-.75a.06.06 0 0 1 .06-.06h2.19a.06.06 0 0 1 .06.06zm3.54 11.59a.06.06 0 0 1-.06.06h-2.19a.06.06 0 0 1-.05-.06v-.75a.06.06 0 0 1 .05-.06h2.19a.06.06 0 0 1 .06.06zm0-1.93a.06.06 0 0 1-.06.06h-2.19a.06.06 0 0 1-.05-.06v-.75a.06.06 0 0 1 .05-.06h2.19a.06.06 0 0 1 .06.06zm0-1.93s0 .05-.06.05h-2.19" fill="#40c057" opacity=".3"/>
    <path d="M483.64 320.37a1.38 1.38 0 0 0-.73.08 1 1 0 0 1-.88 0 1.23 1.23 0 0 0-1 0 .61.61 0 0 1-.3.08c-.42 0-.77-.43-.84-1a.77.77 0 0 0 .21-.23 1.28 1.28 0 0 1 1-.65 1.27 1.27 0 0 1 1 .65.81.81 0 0 0 .69.38.87.87 0 0 1 .85.69z" fill="#40c057" opacity=".1"/>
    <path d="m484.91 318.63-.67.43.41-.75a.7.7 0 0 0-.41-.14h-.15l-.23.14.09-.18a.79.79 0 0 1-.4-.3l-.41.26.26-.47a1.2 1.2 0 0 0-.92-.47 1.28 1.28 0 0 0-1.05.65.79.79 0 0 1-.69.38c-.47 0-.85.53-.85 1.19s.38 1.19.85 1.19a.73.73 0 0 0 .3-.07 1.2 1.2 0 0 1 1 0 1.12 1.12 0 0 0 .44.09 1.08 1.08 0 0 0 .44-.09 1.21 1.21 0 0 1 1 0 .73.73 0 0 0 .3.07c.47 0 .85-.53.85-1.19a1.52 1.52 0 0 0-.16-.74z" fill="#40c057" opacity=".1"/>
    <ellipse cx="450.81" cy="350.66" rx="6.15" ry="10.25" fill="#a0616a"/>
    <ellipse cx="531.76" cy="345.53" rx="6.15" ry="10.25" fill="#a0616a"/>
</svg>
