<svg xmlns="http://www.w3.org/2000/svg" viewBox="0 0 32 32"><path fill="#1C7ED6" d="M30.35,7.67a8.24,8.24,0,0,0-6-6,53.66,53.66,0,0,0-16.67,0,8.24,8.24,0,0,0-6,6,53.66,53.66,0,0,0,0,16.67,8.24,8.24,0,0,0,6,6,53.66,53.66,0,0,0,16.67,0,8.24,8.24,0,0,0,6-6A53.72,53.72,0,0,0,30.35,7.67ZM15.4,16.86A16.56,16.56,0,0,1,10.3,22a2.18,2.18,0,1,1-2.24-3.74,11.25,11.25,0,0,0,2.8-2.5,12.81,12.81,0,0,0-2.8-2.48A2.18,2.18,0,1,1,10.3,9.52a16.55,16.55,0,0,1,5.1,5.1A2.18,2.18,0,0,1,15.4,16.86ZM23.2,22H17.8c-1,0-1.8-.51-1.8-1.5s.81-1.5,1.8-1.5h5.4c1,0,1.8.51,1.8,1.5S24.19,22,23.2,22Z"/></svg>