<svg xmlns="http://www.w3.org/2000/svg" width="21" height="15" fill="none"><mask id="a" width="22" height="15" x="0" y="0" maskUnits="userSpaceOnUse"><path fill="#fff" d="M0 0h21.25v15H0z"/></mask><g fill-rule="evenodd" clip-rule="evenodd" mask="url(#a)"><path fill="#43B764" d="M0 0v7.5h20.25V0H0z"/><path fill="#B4D7F4" d="M0 7.5V15h20.25V7.5H0z"/><path fill="#BE0027" d="m0 0 20.875 7.5L0 15V0z"/><path fill="#F3E294" d="M5.063 11.572a.78.78 0 0 1 .304-.192 16.31 16.31 0 0 0-.022-1.246c-.033-.049-.09-.09-.19-.09-.25 0-.8-.214-.8-.521 0 0 .41.185.525.092.048-.04-.079-.161-.232-.309-.207-.199-.462-.444-.4-.596 0 0 .402.356.487.356.04 0 .013-.115-.014-.231-.032-.138-.064-.277.014-.223.145.098.545.778.545 1.003 0 .122.032.315.062.465v-.005a7.477 7.477 0 0 0-.073-.69c-.18-1.125-.186-2.278.064-2.891-.125-.078-.216-.176-.216-.29 0 0 .41.167.524.084.048-.035-.078-.145-.232-.278-.207-.179-.461-.4-.4-.536 0 0 .402.32.488.32.039 0 .012-.104-.015-.208-.032-.124-.064-.249.015-.2.144.088.544.7.544.902v.005c.156-.193.337-.372.432-.417.102-.048.06.076.019.2-.035.105-.07.208-.02.208.112 0 .634-.32.634-.32.08.137-.25.357-.52.536-.199.133-.364.243-.3.278.148.084.68-.083.68-.083 0 .277-.714.469-1.038.469-.121 0-.194.032-.238.072a5.568 5.568 0 0 0-.03.641c.162-.209.364-.414.467-.463.102-.048.06.077.019.2-.035.105-.07.209-.019.209.112 0 .634-.32.634-.32.08.136-.251.357-.52.536-.2.132-.365.242-.301.278.148.083.68-.084.68-.084 0 .246-.564.425-.917.462.02.202.046.407.078.61a10.47 10.47 0 0 1 .096 1.094c.016-.1.027-.198.027-.271 0-.225.4-.905.545-1.003.079-.054.046.085.014.223-.026.115-.053.23-.014.23.086 0 .487-.355.487-.355.062.152-.193.397-.4.596-.153.147-.28.27-.231.309.114.092.524-.093.524-.093 0 .308-.55.521-.8.521a.234.234 0 0 0-.146.044c.007.264.007.527.003.777a.783.783 0 0 1 .324.207c.16-.01.319-.035.474-.073.3-.165.965-.697 1.133-.906.127-.158.176-.47.222-.765.026-.168.052-.331.09-.457.107-.344.296.42.296.538 0 .119.155-.44.155-.833 0-.197-.039-.323-.078-.45a1.345 1.345 0 0 1-.077-.445c0-.23.134-.189.258-.07a1.631 1.631 0 0 1-.103-.548c0-.254-.032-.33-.046-.35.013.006.046.01.116-.029.12-.065.176.015.223.082.041.059.075.107.139.04.07-.073-.08-.156-.305-.28-.215-.118-.498-.274-.717-.494-.448-.45.14-.604.24-.447.1.157.697.333.35-.189-.211-.317-.471-.313-.708-.31-.153.003-.296.005-.41-.079-.195-.146.078-.296.227-.378.07-.039.114-.062.064-.062a1.01 1.01 0 0 1-.24-.05 1.796 1.796 0 0 0-.49-.084c-.318 0-.945-.284-.728-.284.077 0 .191-.027.317-.058.138-.033.29-.069.42-.076a7.252 7.252 0 0 0-1.307-.445l.083-.332c.486.12.923.266 1.31.44a6.928 6.928 0 0 1-.199-.319c-.208-.362.44.2.697.573l.001.001a3.85 3.85 0 0 1 1.033.849V4.56c.243.083.38.867.453 1.457.053.118.099.24.137.367.094-.251.272-.519.433-.287.19.275-.147 1.838-.27 2.378a5.462 5.462 0 0 1-.02.169c.296-.188.45-.623.528-.846.068-.192.08-.226.08.191 0 .54-.42 1.074-.764 1.421-.05.171-.108.337-.175.5.237-.076.44-.207.597-.309.276-.178.411-.266.342.201-.076.51-.815.697-1.28.766a4.725 4.725 0 0 1-.104.16l-.02.024a5.164 5.164 0 0 1-.218.208l.136-.06c.182-.082.347-.157.556-.157.126 0-.047.066-.29.159-.29.11-.678.258-.792.382a1.482 1.482 0 0 0-.104.126c-.074.1-.097.13-.33.136a3.26 3.26 0 0 1-1.127.361.836.836 0 0 1 .035.098H4.808s.013-.048.044-.117a3.276 3.276 0 0 1-.992-.341h-.026c-.356 0-.373-.022-.46-.137a1.48 1.48 0 0 0-.103-.127c-.114-.123-.503-.271-.791-.381-.244-.093-.417-.16-.29-.16.208 0 .373.076.555.158.057.026.116.053.179.078.059.024.138.053.225.084a5.036 5.036 0 0 1-.334-.31l-.02-.024a4.638 4.638 0 0 1-.091-.14c-.43-.047-1.351-.214-1.436-.786-.07-.467.066-.38.342-.201.166.107.383.248.637.32l.123.033a4.612 4.612 0 0 1-.133-.349c-.35-.314-.97-.961-.97-1.616.001-.417.013-.383.08-.19.082.228.241.68.553.86 0 0-.545-2.228-.314-2.562.232-.334.5.37.5.57 0 .034.004-.004.011-.09.037-.406.172-1.9.512-2.017v.808c0 .037.016.052.046.048.226-.298.512-.565.856-.798.051-.064.096-.123.131-.174.257-.372.905-.935.698-.573-.062.109-.138.224-.206.33l-.057.088a7.345 7.345 0 0 1 1.518-.539l.083.332a7.204 7.204 0 0 0-1.334.458c.1.015.205.04.303.063.126.03.24.058.317.058.217 0-.41.284-.728.284-.187 0-.353.046-.49.084a1.01 1.01 0 0 1-.24.05c-.05 0-.007.023.064.062.149.082.422.232.226.378-.114.084-.257.082-.41.08-.168-.003-.35-.006-.516.109-.112.16-.206.33-.28.511.075.1.371-.016.44-.122.1-.157.687-.003.239.447-.22.22-.502.376-.717.494a4.55 4.55 0 0 0-.185.106 7.126 7.126 0 0 0-.019.183.427.427 0 0 0 .038-.049c.046-.067.102-.147.223-.082.07.038.103.035.116.03-.014.018-.046.095-.046.35 0 .199-.047.391-.104.547.125-.119.26-.16.26.07 0 .195-.04.32-.078.446a1.368 1.368 0 0 0-.078.449c0 .392.155.952.155.833s.189-.882.295-.538c.04.126.065.289.09.457.047.295.096.607.223.765.146.182.665.606.996.823.204.072.412.12.625.144zM2.73 7.22s-.003 0-.006.005c.004-.002.006-.004.006-.005zm5.803.005c-.003-.005-.006-.006-.006-.005 0 0 .001.003.006.005zm.112 2.746a4.22 4.22 0 0 0 .041-.089c-.035.034-.06.07-.04.089zM5.76 6.843a2.02 2.02 0 0 1-.056.282c.015-.104.034-.198.056-.282z"/></g></svg>