<svg xmlns="http://www.w3.org/2000/svg" width="20" height="15" fill="none"><mask id="a" width="20" height="15" x="0" y="0" maskUnits="userSpaceOnUse"><path fill="#fff" d="M0 0h20v15H0z"/></mask><g mask="url(#a)"><path fill="#63B3E1" fill-rule="evenodd" d="M0 0v15h20V0H0z" clip-rule="evenodd"/><mask id="b" width="20" height="15" x="0" y="0" maskUnits="userSpaceOnUse"><path fill="#fff" fill-rule="evenodd" d="M0 0v15h20V0H0z" clip-rule="evenodd"/></mask><g fill="#F7FCFF" fill-rule="evenodd" clip-rule="evenodd" mask="url(#b)"><path d="m10 4.563-1.102.579.21-1.227-.891-.87 1.232-.178L10 1.75l.551 1.117 1.232.179-.891.869.21 1.227L10 4.562zm0 7.5-1.102.579.21-1.227-.891-.87 1.232-.178L10 9.25l.551 1.117 1.232.179-.891.869.21 1.227-1.102-.58zM6.125 8.438l-1.102.579.21-1.227-.891-.87 1.232-.178.551-1.117.551 1.117 1.232.179-.891.869.21 1.227-1.102-.58zm7.625 0-1.102.579.21-1.227-.891-.87 1.232-.178.551-1.117.551 1.117 1.232.179-.891.869.21 1.227-1.102-.58z"/></g></g></svg>