<svg xmlns="http://www.w3.org/2000/svg" width="20" height="15" fill="none"><mask id="a" width="20" height="15" x="0" y="0" maskUnits="userSpaceOnUse"><path fill="#fff" d="M0 0h20v15H0z"/></mask><g mask="url(#a)"><path fill="#2E42A5" fill-rule="evenodd" d="M0 0v15h20V0H0z" clip-rule="evenodd"/><mask id="b" width="20" height="15" x="0" y="0" maskUnits="userSpaceOnUse"><path fill="#fff" fill-rule="evenodd" d="M0 0v15h20V0H0z" clip-rule="evenodd"/></mask><g fill-rule="evenodd" clip-rule="evenodd" mask="url(#b)"><path fill="#FECA00" d="M0 5v2.5h20V5H0z"/><path fill="#F7FCFF" d="m5.519 12.237-.966 1.254-.045-1.582-1.518.446.894-1.305-1.49-.532 1.49-.53-.894-1.306 1.518.446.045-1.582.966 1.254.965-1.254.045 1.582 1.518-.446-.894 1.305 1.49.531-1.49.532.894 1.305-1.518-.446-.045 1.582-.965-1.254z"/></g></g></svg>