<svg xmlns="http://www.w3.org/2000/svg" width="20" height="15" fill="none"><mask id="a" width="20" height="15" x="0" y="0" maskUnits="userSpaceOnUse"><path fill="#fff" d="M0 0h20v15H0z"/></mask><g mask="url(#a)"><path fill="#4857A1" fill-rule="evenodd" d="M0 0v15h20V0H0z" clip-rule="evenodd"/><mask id="b" width="20" height="15" x="0" y="0" maskUnits="userSpaceOnUse"><path fill="#fff" fill-rule="evenodd" d="M0 0v15h20V0H0z" clip-rule="evenodd"/></mask><g fill-rule="evenodd" clip-rule="evenodd" mask="url(#b)"><path fill="#C51918" d="M0 0v5h20V0H0z"/><path fill="#F7FCFF" d="M0 10v5h20v-5H0z"/><path fill="#F6C540" d="m7.16 2.377-.07-.283.194.057v-.004c.824.075 2.1.502 2.337.956.092.175 0 .324-.119.52l-.055.091c-.06.102-.115.2-.166.292-.185.331-.33.59-.55.722l.005.75-3.685-.03-.005-.759c-.188-.141-.323-.382-.491-.683-.052-.092-.106-.19-.166-.292l-.055-.09c-.12-.197-.211-.346-.12-.521.18-.342.988-.673 1.729-.849.146-.051.298-.1.449-.146l.067.049c.059-.008.116-.015.17-.02l.085.19h.3s.181.537.181.836c0 .299-.18.546-.18.546v.206c.03.002.064.006.098.01a.35.35 0 0 1 .005-.057c.018-.098.072-.171.12-.162.05.008.076.095.059.194a.355.355 0 0 1-.012.046c.195.026.413.063.619.1A5.81 5.81 0 0 1 8.17 3.6c.236-.371.444-.697.25-.891a.547.547 0 0 0-.189-.104 6.008 6.008 0 0 0-.891-.152l-.01-.049a31.84 31.84 0 0 0-.17-.027zm1.4 1.8.168.036v.107c.366-.281.624-.905.648-1.109.014-.123-.182-.265-.488-.394.145.275-.049.548-.292.89a5.67 5.67 0 0 0-.28.42l.089.017a.34.34 0 0 1 .011-.092c.026-.097.087-.165.135-.152.048.013.066.102.04.199a.334.334 0 0 1-.031.078zm-1.883-.26v-.23s-.157-.176-.18-.54a2.929 2.929 0 0 1 .068-.723c-.234.03-.481.076-.72.133-.159.044-.285.095-.341.152-.194.194.014.52.25.891.088.14.18.284.258.431.133-.029.267-.055.392-.076a.346.346 0 0 1-.011-.063c-.01-.1.024-.184.074-.188.05-.005.097.072.106.172a.352.352 0 0 1 0 .052l.104-.012zm-1.07.208a5.616 5.616 0 0 0-.279-.418c-.249-.35-.446-.627-.282-.908-.358.139-.6.29-.586.412.022.193.254.76.587 1.06.024-.007.153-.043.334-.09a.334.334 0 0 1-.035-.076c-.031-.095-.018-.185.03-.2.048-.016.111.049.142.144.01.033.016.065.017.094l.073-.018z"/><path fill="#2E42A5" d="M7.283 2.191c0 .22-.183.398-.408.398a.403.403 0 0 1-.408-.398c0-.22.183-.398.408-.398.225 0 .408.179.408.398zm-.408 2.954c.175 0 .317-.081.317-.181 0-.1-.142-.181-.317-.181-.175 0-.317.08-.317.18 0 .1.142.182.317.182zM5.29 5.1a.136.136 0 1 1-.272 0 .136.136 0 0 1 .272 0zm3.623 0a.136.136 0 1 1-.272 0 .136.136 0 0 1 .272 0z"/><path fill="#C5363C" d="M6.196 5.01c0 .074-.102.135-.227.135s-.226-.06-.226-.136c0-.075.101-.136.226-.136s.227.061.227.136zm1.902 0c0 .074-.102.135-.227.135s-.226-.06-.226-.136c0-.075.101-.136.226-.136s.227.061.227.136z"/><path fill="#F7FCFF" d="M7.645 3.877c0 .1-.04.181-.09.181-.05 0-.091-.081-.091-.181 0-.1.04-.181.09-.181.05 0 .09.08.09.18zm-1.363-.028c.03.095.017.185-.03.2-.048.016-.112-.05-.142-.144-.031-.095-.018-.185.03-.2.047-.016.11.049.142.144zm-1.066.491c.048-.016.061-.105.03-.2-.03-.095-.094-.16-.142-.145-.047.016-.06.106-.03.2.031.096.095.16.142.145zM8.8 4.217c-.053.085-.13.132-.172.106-.043-.027-.034-.117.019-.202.053-.085.13-.132.173-.106.042.027.033.117-.02.202z"/><path fill="#fff" d="M6.106 2.37a.153.153 0 1 0-.047-.192.152.152 0 0 0-.219.04.153.153 0 0 0-.25.132.153.153 0 0 0-.27.074.153.153 0 0 0-.27.062.152.152 0 0 0-.235.076.153.153 0 0 0-.22.11.153.153 0 0 0-.183.148.154.154 0 0 0-.181.151c0 .01.001.021.003.031a.153.153 0 0 0-.089.292.154.154 0 0 0 .091.181.154.154 0 0 0 .142.192.153.153 0 1 0 .103-.034.153.153 0 0 0-.04-.26.153.153 0 0 0-.09-.182.153.153 0 0 0 .002-.07.153.153 0 0 0 .184-.148.154.154 0 0 0 .179-.124.154.154 0 0 0 .176-.102.152.152 0 0 0 .158-.013.16.16 0 0 0 .026.056.153.153 0 0 0 .117.244.153.153 0 0 0 .04.26.153.153 0 0 0 .09.181.153.153 0 1 0 .205-.102.153.153 0 0 0-.09-.182A.153.153 0 0 0 5.296 3a.153.153 0 0 0 .027-.21.152.152 0 0 0 0-.18.152.152 0 0 0 .028-.068.153.153 0 0 0 .272-.108.153.153 0 0 0 .248-.013.152.152 0 0 0 .235-.05zm-.996.272a.152.152 0 0 0 .213-.033.153.153 0 0 0-.124-.063.028.028 0 1 0 0-.056.028.028 0 0 0 0 .056.152.152 0 0 0-.09.03.153.153 0 0 0-.06-.09.154.154 0 0 0 .027.123.152.152 0 0 0-.026.125.153.153 0 0 0 .06-.092zm0 0a.154.154 0 0 1-.034-.033.154.154 0 0 1 .033-.034.153.153 0 0 1 .001.067zm.09.21a.153.153 0 0 1-.124-.062.153.153 0 0 1 .247 0 .153.153 0 0 1-.124.062zm0 0a.028.028 0 1 1 0 .057.028.028 0 0 1 0-.057zm0-.125a.028.028 0 1 1 0-.056.028.028 0 0 1 0 .056zm.328.646a.152.152 0 0 0-.205.102.153.153 0 0 0 .205-.102zm-.09-.182a.152.152 0 0 0-.206.103.153.153 0 0 0 .206-.103zM5.296 3H5.29a.152.152 0 0 0-.097.034H5.2A.15.15 0 0 0 5.297 3zm-.815.634h-.006a.152.152 0 0 0-.097.034h.006a.15.15 0 0 0 .097-.034zm-.04-.26a.153.153 0 0 1-.205.102.153.153 0 0 1 .205-.102zm-.09-.182a.153.153 0 0 1-.206.103.153.153 0 0 1 .206-.103zm-.117-.189c.013.06.06.107.119.119a.153.153 0 0 0-.119-.119zm.303-.029a.153.153 0 0 1-.125-.15V2.82a.153.153 0 0 1 .125.15v.002zm.179-.124a.153.153 0 0 1-.12-.176.153.153 0 0 1 .12.176zm.176-.102a.153.153 0 0 1-.077-.185.153.153 0 0 1 .077.185zm.459-.206a.152.152 0 0 1-.031-.117.152.152 0 0 1 .03.117zm.24-.19c.002.03.014.06.032.082a.152.152 0 0 0-.033-.082zm.28.069a.153.153 0 0 1-.03-.201.153.153 0 0 1 .03.201zm.235-.05a.153.153 0 0 1-.047-.192.153.153 0 0 1 .047.192zm-1.54.481a.028.028 0 1 0 0-.056.028.028 0 0 0 0 .056zM4.384 3a.028.028 0 1 0 0-.056.028.028 0 0 0 0 .056zm-.181.181a.028.028 0 1 0 0-.056.028.028 0 0 0 0 .056zm.09.181a.028.028 0 1 0 0-.056.028.028 0 0 0 0 .056zm.091.182a.028.028 0 1 0 0-.057.028.028 0 0 0 0 .057zm.119.243a.028.028 0 1 1-.056 0 .028.028 0 0 1 .056 0zm.243-1.059a.028.028 0 1 0 0-.056.028.028 0 0 0 0 .056zm.214-.089a.028.028 0 1 0 0-.056.028.028 0 0 0 0 .056zm.511-.163a.028.028 0 1 0 0-.056.028.028 0 0 0 0 .056zm.272-.11a.028.028 0 1 0 0-.056.028.028 0 0 0 0 .056zm.226-.035a.028.028 0 1 0 0-.056.028.028 0 0 0 0 .056zm.227-.056a.028.028 0 1 0 0-.056.028.028 0 0 0 0 .056zm-.906.906a.028.028 0 1 0 0-.056.028.028 0 0 0 0 .056zm.09.181a.028.028 0 1 0 0-.056.028.028 0 0 0 0 .056zm.091.182a.028.028 0 1 0 0-.057.028.028 0 0 0 0 .057zm3.986.271a.028.028 0 1 0 0-.056.028.028 0 0 0 0 .056zm-.154-.028a.153.153 0 1 0 .25-.119.153.153 0 0 0 .142-.192.153.153 0 0 0 .09-.18.153.153 0 0 0-.088-.293.154.154 0 0 0-.178-.181.153.153 0 0 0-.183-.148.153.153 0 0 0-.22-.11.153.153 0 0 0-.234-.077.153.153 0 0 0-.27-.062.153.153 0 0 0-.271-.073.154.154 0 0 0-.153-.167.152.152 0 0 0-.097.035.153.153 0 0 0-.218-.041.153.153 0 1 0-.047.192.153.153 0 0 0 .234.05.153.153 0 0 0 .248.013v.014a.153.153 0 0 0 .273.094.152.152 0 0 0 .027.068.152.152 0 0 0 0 .18.152.152 0 0 0 .027.21.153.153 0 0 0-.142.192.153.153 0 0 0-.09.182.153.153 0 1 0 .205.102.153.153 0 0 0 .09-.18.153.153 0 0 0 .04-.262.153.153 0 0 0 .117-.243.152.152 0 0 0 .026-.056.152.152 0 0 0 .158.013.153.153 0 0 0 .176.102.153.153 0 0 0 .18.124.153.153 0 0 0 .183.148.154.154 0 0 0 .002.07.153.153 0 0 0-.09.182.153.153 0 0 0-.04.26.153.153 0 0 0-.147.153zm-.482-1.144a.152.152 0 0 1-.213-.033.153.153 0 0 1 .214-.034.153.153 0 0 0 0 .067zm.034-.033a.152.152 0 0 1 .026.125.153.153 0 0 1-.06-.092.154.154 0 0 0 .034-.033zm0 0a.154.154 0 0 0-.033-.034.153.153 0 0 1 .06-.09.154.154 0 0 1-.027.124zm-.123-.063a.028.028 0 1 1 0-.056.028.028 0 0 1 0 .056zm0 .306a.153.153 0 0 1-.124-.062.153.153 0 0 1 .247 0 .153.153 0 0 1-.123.062zm0 0a.028.028 0 1 1 0 .057.028.028 0 0 1 0-.057zm0-.125a.028.028 0 1 1 0-.056.028.028 0 0 1 0 .056zm-.124.748a.153.153 0 0 0-.205-.102.153.153 0 0 0 .205.102zm.09-.18a.153.153 0 0 0-.205-.104.153.153 0 0 0 .206.103zm.04-.262A.152.152 0 0 0 8.64 3h-.006c.027.022.06.035.097.035h.006zm-.912-.663a.153.153 0 0 0 .046-.192.153.153 0 0 0-.046.192zm.234.05a.153.153 0 0 0 .031-.201.153.153 0 0 0-.031.201zm.28-.07a.152.152 0 0 1-.032.083.152.152 0 0 1 .033-.082zm.24.191a.152.152 0 0 0 .031-.117.152.152 0 0 0-.03.117zm.46.206a.153.153 0 0 0 .076-.185.153.153 0 0 0-.077.185zm.175.102a.153.153 0 0 0 .12-.176.153.153 0 0 0-.12.176zm.363.272a.153.153 0 0 0 .119-.119.153.153 0 0 0-.119.119zm-.059-.3v.002a.153.153 0 0 1-.125.15v-.002c0-.075.054-.137.125-.15zm.061.37a.152.152 0 0 1 .206.103.153.153 0 0 1-.206-.103zm-.09.182a.152.152 0 0 1 .205.102.153.153 0 0 1-.205-.102zm.057.295a.152.152 0 0 1-.096-.035h.006c.036 0 .07.013.096.034h-.006zm0-.125a.028.028 0 1 0 0-.057.028.028 0 0 0 0 .057zm.09-.182a.028.028 0 1 0 0-.056.028.028 0 0 0 0 .056zm.091-.18a.028.028 0 1 0 0-.057.028.028 0 0 0 0 .056zM9.548 3a.028.028 0 1 0 0-.056.028.028 0 0 0 0 .056zm-.182-.148a.028.028 0 1 0 0-.056.028.028 0 0 0 0 .056zm-.181-.124a.028.028 0 1 0 0-.056.028.028 0 0 0 0 .056zm-.214-.089a.028.028 0 1 0 0-.056.028.028 0 0 0 0 .056zm-.51-.163a.028.028 0 1 0 0-.056.028.028 0 0 0 0 .056zm-.273-.11a.028.028 0 1 0 0-.056.028.028 0 0 0 0 .056zm-.225-.035a.028.028 0 1 0 0-.056.028.028 0 0 0 0 .056zm-.227-.056a.028.028 0 1 0 0-.056.028.028 0 0 0 0 .056zm.905.906a.028.028 0 1 0 0-.056.028.028 0 0 0 0 .056zm-.09.181a.028.028 0 1 0 0-.056.028.028 0 0 0 0 .056zm-.09.182a.028.028 0 1 0 0-.057.028.028 0 0 0 0 .057z"/><path fill="#F6C540" d="m6.939 1.346-.135.003v.22h-.247l.003.134h.245v.252l.134-.002v-.25h.244L7.18 1.57h-.241v-.223z"/><path fill="#C51918" d="M3.615 5.459h6.5v5.52s-.196 2.75-3.25 2.75c-3.053 0-3.25-2.75-3.25-2.75V5.46z"/><path fill="#E8AA00" d="M5.577 5.65c-.06 0-.151.043-.273.091-.121.049-.25.153-.124.258.124.105.303.335.303.249 0-.086.213-.17.213-.128 0 .042-.066.128.107.128s.262.051.078.051c-.185 0-.205.085-.325.085-.12 0-.376-.085-.376-.136 0-.05.148.248.303.248s.242.146.32.073c.078-.073.069-.073.194-.073s.08-.293.08-.293-.44-.553-.5-.553zm2.509 0c.06 0 .151.043.273.091.121.049.249.153.124.258-.124.105-.303.335-.303.249 0-.086-.213-.17-.213-.128 0 .042.066.128-.107.128s-.263.051-.078.051.205.085.325.085c.12 0 .376-.085.376-.136 0-.05-.148.248-.303.248s-.243.146-.32.073c-.078-.073-.069-.073-.194-.073s-.08-.293-.08-.293.44-.553.5-.553z"/><path fill="#F7FCFF" d="M8.882 6.25c.125.29-.83 1.37-.83 1.37h-.107c-.045 0-.128-.11-.23-.244a3.695 3.695 0 0 0-.224-.279c-.148-.16-.07-.293.003-.418.023-.039.045-.076.06-.113a.543.543 0 0 0 .041-.15c.005-.035.01-.074.042-.166.046-.134.206-.307.318-.428.043-.046.078-.084.097-.11.06-.08.014-.079-.11-.078h-.055c-.166 0-.482.078-.577.169-.094.09-.193.11-.34.11-.145 0-.055.098.078.164-.143.028-.235.266-.288.477-.03-.211-.095-.45-.237-.477.132-.066.222-.164.076-.164-.145 0-.244-.02-.339-.11-.094-.09-.41-.168-.576-.168h-.056c-.124-.002-.17-.002-.11.077.02.026.055.064.098.11.11.12.271.294.317.428.032.092.037.131.042.167.006.036.01.068.042.149a.867.867 0 0 0 .06.113c.072.125.15.259.003.418a3.713 3.713 0 0 0-.225.28c-.101.133-.185.243-.23.243h-.107s-.955-1.08-.83-1.37c.048-.112.126-.218.19-.306.102-.139.17-.232.033-.232-.223 0-1.114.565-1.114 1.838 0 1.274.083 1.998.274 2.505.13.346.01.683-.078.933a1.015 1.015 0 0 0-.077.287c0 .226.351.028.351-.114 0-.067.048.033.098.138.056.116.114.238.114.148 0-.096.056-.198.105-.288a.465.465 0 0 0 .074-.18c0-.048.049-.046.104-.044.07.002.15.005.15-.091 0-.065.025-.078.056-.095.052-.026.12-.062.12-.353 0-.216.044-.14.093-.052.046.08.097.171.125.052.003-.012.031-.062.067-.124.051-.09.117-.206.138-.264a1.98 1.98 0 0 1-.32.647c-.103.13-.28.415-.28.415s.166.092.28 0c.064-.051.069-.003.073.05.004.042.008.086.042.086.021 0 .041.004.06.007l.035.005c-.039.097-.073.253.042.149a.775.775 0 0 1 .178-.125c.045-.023.063-.033.063-.081 0-.049.018-.032.046-.006.024.022.056.051.091.051.045 0 .054-.062.068-.152.009-.061.02-.135.044-.21l.017-.051c.05-.156.073-.229.13-.032.026.092.073.157.114.214.055.077.1.139.066.231-.013.037-.03.077-.047.121-.06.15-.133.335-.133.48 0 .087-.079.204-.153.315-.086.13-.167.25-.106.298.112.09-.024.39-.137.545-.114.155-.095.344.077.344a.31.31 0 0 1 .192.065c.038.026.073.049.127.049.118 0 .18-.058.18-.058s.073.11.194.11c.12 0 .145-.11.145-.11l.09.11.007-.482v.482l.275-.11s.025.11.146.11c.12 0 .193-.11.193-.11s.063.058.18.058c.054 0 .09-.023.127-.049a.309.309 0 0 1 .192-.065c.172 0 .191-.189.078-.344-.114-.154-.25-.456-.138-.545.06-.049-.02-.168-.106-.298-.074-.11-.152-.228-.152-.315 0-.145-.074-.33-.134-.48a3.835 3.835 0 0 1-.047-.12c-.033-.093.011-.155.067-.232.04-.057.087-.122.114-.214.056-.197.08-.124.13.032l.016.05c.025.076.036.15.045.21.013.091.023.153.067.153.035 0 .067-.03.091-.051.029-.026.047-.043.047.006 0 .049.018.058.062.081.038.02.096.05.178.125.115.104.08-.052.043-.15.01 0 .022-.002.035-.004.018-.003.038-.007.06-.007.033 0 .037-.044.041-.086.005-.053.01-.101.073-.05.115.092.28 0 .28 0s-.177-.284-.28-.415a1.98 1.98 0 0 1-.32-.647c.021.059.087.174.139.264.035.062.064.112.066.124.028.12.08.029.125-.052.05-.088.093-.164.093.052 0 .291.069.327.12.353.032.017.057.03.057.095 0 .096.08.093.15.09.054-.001.104-.003.104.044s.034.11.073.181c.05.09.105.192.105.288 0 .09.058-.032.114-.148.05-.105.098-.205.098-.138 0 .142.351.34.351.114 0-.072-.035-.17-.076-.287-.09-.25-.209-.587-.078-.933.19-.507.273-1.231.273-2.505 0-1.273-.89-1.838-1.114-1.838-.137 0-.069.093.033.232a1.6 1.6 0 0 1 .19.306zm-.83 3.73zm.075 1.18c0-.03.022.005.043.057-.027.001-.043-.01-.043-.056zm-2.726.057c.026.001.042-.01.042-.056 0-.032-.022.004-.042.056zm.11-1.209z"/><path fill="#E8AA00" d="M5.118 12.001c0-.088.225-.291.225-.291v.017c.031.025.232.191.232.272 0 .05-.026.123-.048.185a.46.46 0 0 0-.031.109c0 .014.005.004.017-.015.027-.048.088-.152.172-.083.112.092.11.228.11.315v.014c0 .027 0 .027-.003.014-.008-.027-.032-.113-.107-.113-.11 0-.19.1-.19.1v.17s.014.14.08.07.08.086 0 .086c-.04 0-.082.043-.123.085-.04.04-.078.08-.113.08v-.014c-.034-.002-.062-.037-.09-.073-.032-.038-.063-.078-.104-.078-.08 0-.065-.157 0-.086.066.07.08-.07.08-.07v-.17s-.08-.1-.19-.1c-.075 0-.099.086-.107.113-.003.013-.003.013-.003-.014v-.014c0-.087-.001-.223.11-.315.085-.07.145.035.173.082.01.02.017.03.017.016a.365.365 0 0 0-.042-.108.522.522 0 0 1-.065-.184zm2.989 0c0-.088.225-.291.225-.291v.017c.031.025.232.191.232.272 0 .05-.026.123-.048.185a.46.46 0 0 0-.031.109c0 .014.006.004.017-.015.027-.048.088-.152.172-.083.112.092.111.228.11.315v.014c0 .027 0 .027-.003.014-.008-.027-.032-.113-.107-.113-.11 0-.19.1-.19.1v.17s.015.14.08.07c.066-.07.08.086 0 .086-.04 0-.082.043-.123.085-.04.04-.078.08-.113.08v-.014c-.034-.002-.062-.037-.09-.073-.032-.038-.063-.078-.104-.078-.08 0-.065-.157 0-.086.066.07.08-.07.08-.07v-.17s-.08-.1-.19-.1c-.075 0-.099.086-.107.113-.003.013-.003.013-.003-.014v-.014c0-.087-.001-.223.11-.315.085-.07.145.035.173.082.01.02.017.03.017.016a.365.365 0 0 0-.042-.108.522.522 0 0 1-.065-.184z"/><path fill="#E8AA00" d="M4.894 11.475c.2 0 .24-.381.24-.381s.169-.175.169-.046c0 .068-.048.155-.084.22-.032.058-.055.1-.03.1h.278c.229 0-.04.107-.164.154a1.396 1.396 0 0 1-.134.044c-.046.013-.09.026-.157.055-.122.053-.175.402-.118.515.057.112-.057.065-.104 0-.026-.036-.045.013-.071.082a.631.631 0 0 1-.086.17c-.074.09-.073.01-.072-.16l.001-.092c0-.152.03-.153.075-.155.024-.002.052-.003.082-.027.065-.052.073-.078.092-.146l.026-.083c.047-.136-.204.079-.275.18-.043.062-.073.07-.118.08a.43.43 0 0 0-.113.038c-.079.04-.057-.038-.031-.135a.7.7 0 0 0 .031-.163c0-.082.05-.061.112-.034.037.016.08.034.12.034.1 0 .153-.043.217-.096l.01-.008c.052-.042-.06-.03-.195-.014l-.14.014c-.103.008-.11.002-.135-.021a.408.408 0 0 0-.128-.078c-.194-.084.124-.047.264 0 .077.027.142.01.219-.012a.782.782 0 0 1 .22-.035zm3.884 0c-.2 0-.24-.381-.24-.381s-.168-.175-.168-.046c0 .068.047.155.084.22.032.058.055.1.03.1h-.278c-.229 0 .04.107.164.154.056.022.096.033.134.044.046.013.09.026.156.055.123.053.175.402.118.515-.056.112.057.065.104 0 .026-.036.045.013.072.082a.631.631 0 0 0 .086.17c.074.09.073.01.071-.16v-.092c0-.152-.03-.153-.076-.155-.024-.002-.052-.003-.082-.027-.064-.052-.072-.078-.091-.146a1.67 1.67 0 0 0-.027-.083c-.047-.136.205.079.276.18.043.062.073.07.118.08a.43.43 0 0 1 .112.038c.08.04.058-.038.032-.135a.7.7 0 0 1-.032-.163c0-.082-.049-.061-.112-.034a.318.318 0 0 1-.118.034c-.102 0-.154-.043-.218-.096a1.173 1.173 0 0 0-.01-.008c-.053-.042.06-.03.194-.014l.14.014c.103.008.11.002.136-.021.019-.017.047-.043.128-.078.193-.084-.125-.047-.264 0-.077.027-.142.01-.22-.012a.782.782 0 0 0-.219-.035z"/><path fill="#C51918" d="M5.654 7.713h2.423v2.21s-.26 1.1-1.212 1.1c-.95 0-1.21-1.1-1.21-1.1v-2.21z"/><path fill="#F7FCFF" d="M7.192 7.681h-.634V8.95h-.906v.453h.906v1.63h.634v-1.63h.906V8.95h-.906V7.681z"/><path fill="#F7FCFF" d="M6.063 8.318c.06 0 .09-.051.058-.096a.06.06 0 0 0-.085-.011A.732.732 0 0 1 6 8.2a.062.062 0 0 0-.038 0c-.015.005-.023-.01-.016-.104.007-.026.043-.042.126-.042.153 0 .215.016.215.03v.225l-.074.067c-.035.032-.01.087.04.087h.034v.171c-.046.037-.088.054-.124.054-.137 0-.213-.051-.216-.111l.002-.04.012.004a.062.062 0 0 0 .04 0l.004-.001c.005-.002.008-.003.01-.002.002.002.002.007.001.02v.016c-.001.028.024.052.055.052s.057-.021.058-.05c.002-.099-.053-.156-.146-.136-.054-.016-.092-.015-.122.019-.021.025-.024.045-.027.118.005.125.137.213.329.213a.34.34 0 0 0 .22-.096.049.049 0 0 0 .017-.037v-.245a.05.05 0 0 0-.022-.04l.006-.006A.049.049 0 0 0 6.4 8.33v-.245c0-.105-.108-.133-.328-.133-.13 0-.215.038-.238.129-.012.155.034.247.147.22.035.01.061.016.081.016zm1.59-.096c-.031.045-.002.096.059.096a.3.3 0 0 0 .08-.015c.114.026.16-.066.147-.221-.023-.09-.108-.13-.237-.13-.22 0-.329.029-.329.134v.245c0 .014.006.027.017.036l.005.005a.05.05 0 0 0-.022.04v.246a.05.05 0 0 0 .018.037.34.34 0 0 0 .22.096c.192 0 .324-.088.328-.213-.002-.073-.005-.093-.027-.118-.03-.034-.067-.035-.122-.02-.092-.019-.147.038-.145.137 0 .029.027.05.058.05.031 0 .056-.024.055-.052v-.017c0-.012-.001-.017.001-.019l.01.002.005.002a.062.062 0 0 0 .038 0l.012-.005.002.04c-.002.06-.079.11-.215.11a.208.208 0 0 1-.125-.053v-.171h.034c.05 0 .076-.055.04-.087l-.074-.067v-.224c0-.015.063-.03.216-.03.083 0 .119.015.126.041.007.094-.002.11-.016.104a.062.062 0 0 0-.038 0 .732.732 0 0 1-.035.01.06.06 0 0 0-.085.01zm.192.312h-.003.002zm-.133 1.414c-.061 0-.09-.05-.058-.096a.06.06 0 0 1 .085-.01.71.71 0 0 0 .035-.01.062.062 0 0 1 .038 0c.014.005.023-.01.016-.104-.007-.026-.043-.042-.126-.042-.153 0-.216.016-.216.03v.224l.074.067c.036.032.01.087-.04.087h-.034v.172a.215.215 0 0 0 .125.053c.136 0 .213-.05.215-.11l-.002-.04-.012.004a.062.062 0 0 1-.038 0l-.006-.002c-.005-.001-.007-.002-.009-.001-.002.001-.002.006-.001.019v.017c0 .028-.024.051-.055.052-.031 0-.057-.022-.058-.05-.002-.1.053-.156.145-.137.055-.016.093-.014.122.02.022.024.025.044.027.117-.004.126-.136.213-.328.213a.34.34 0 0 1-.22-.096.049.049 0 0 1-.018-.037v-.245a.05.05 0 0 1 .022-.04l-.005-.005a.049.049 0 0 1-.017-.037v-.245c0-.105.108-.133.329-.133.13 0 .214.039.237.13.013.154-.033.247-.146.22a.312.312 0 0 1-.081.015zm-1.649 0c.06 0 .09-.05.058-.096a.06.06 0 0 0-.085-.01.71.71 0 0 1-.035-.01.062.062 0 0 0-.038 0c-.015.005-.023-.01-.016-.104.007-.026.043-.042.126-.042.153 0 .215.016.215.03v.224l-.074.067c-.035.032-.01.087.04.087h.034v.172a.21.21 0 0 1-.124.053c-.137 0-.213-.05-.216-.11l.002-.04.012.004a.062.062 0 0 0 .04 0l.004-.002c.005-.001.008-.002.01-.001s.002.006.001.019v.017c-.001.028.024.051.055.052.031 0 .057-.022.058-.05.002-.1-.053-.156-.146-.137-.054-.016-.092-.014-.122.02-.021.024-.024.044-.027.117.005.126.137.213.329.213a.34.34 0 0 0 .22-.096.049.049 0 0 0 .017-.037v-.245a.05.05 0 0 0-.022-.04l.006-.005A.049.049 0 0 0 6.4 9.96v-.245c0-.105-.108-.133-.328-.133-.13 0-.215.039-.238.13-.012.154.034.247.147.22.035.01.061.015.081.015z"/></g></g></svg>