<svg xmlns="http://www.w3.org/2000/svg" width="20" height="15" fill="none"><mask id="a" width="20" height="15" x="0" y="0" maskUnits="userSpaceOnUse"><path fill="#fff" d="M0 0h20v15H0z"/></mask><g mask="url(#a)"><path fill="#00B4FF" fill-rule="evenodd" d="M0 0v15h20V0H0z" clip-rule="evenodd"/><mask id="b" width="20" height="15" x="0" y="0" maskUnits="userSpaceOnUse"><path fill="#fff" fill-rule="evenodd" d="M0 0v15h20V0H0z" clip-rule="evenodd"/></mask><g mask="url(#b)"><path fill="#2E42A5" d="M0 0h11v9H0z"/><mask id="c" width="11" height="9" x="0" y="0" maskUnits="userSpaceOnUse"><path fill="#fff" d="M0 0h11v9H0z"/></mask><g mask="url(#c)"><path fill="#F7FCFF" d="M-1.253 8.125 1.223 9.21l10.083-8.03 1.306-1.614-2.647-.363-4.113 3.46-3.31 2.332-3.795 3.129z"/><path fill="#F50100" d="m-.914 8.886 1.261.63L12.143-.583h-1.77L-.915 8.886z"/><path fill="#F7FCFF" d="M12.503 8.125 10.306 9.52-.056 1.18-1.362-.434l2.647-.363 4.113 3.46 3.31 2.332 3.795 3.129z"/><path fill="#F50100" d="m12.418 8.67-1.261.63-5.023-4.323-1.489-.483-6.133-4.921H.283l6.13 4.804 1.628.58 4.377 3.714z"/><mask id="d" width="13" height="11" x="-1" y="-1" fill="#000" maskUnits="userSpaceOnUse"><path fill="#fff" d="M-1-1h13v11H-1z"/><path fill-rule="evenodd" d="M6 0H5v4H0v1h5v4h1V5h5V4H6V0z" clip-rule="evenodd"/></mask><path fill="#F50100" fill-rule="evenodd" d="M6 0H5v4H0v1h5v4h1V5h5V4H6V0z" clip-rule="evenodd"/><path fill="#F7FCFF" d="M5 0v-.938h-.938V0H5zm1 0h.938v-.938H6V0zM5 4v.938h.938V4H5zM0 4v-.938h-.938V4H0zm0 1h-.938v.938H0V5zm5 0h.938v-.938H5V5zm0 4h-.938v.938H5V9zm1 0v.938h.938V9H6zm0-4v-.938h-.938V5H6zm5 0v.938h.938V5H11zm0-1h.938v-.938H11V4zM6 4h-.938v.938H6V4zM5 .937h1V-.938H5V.938zM5.938 4V0H4.063v4h1.875zM0 4.938h5V3.063H0v1.874zM.938 5V4H-.938v1H.938zM5 4.062H0v1.875h5V4.063zM5.938 9V5H4.063v4h1.875zM6 8.062H5v1.876h1V8.062zM5.062 5v4h1.875V5H5.063zM11 4.062H6v1.875h5V4.063zM10.062 4v1h1.876V4h-1.876zM6 4.938h5V3.063H6v1.874zM5.062 0v4h1.875V0H5.063z" mask="url(#d)"/></g><path fill="#FFD018" fill-rule="evenodd" d="m16.785 6.678.38-.703.832-.025-.644-.539.222-.726-.556.334-.702-.426.068.807-.63.378.818.102.212.798zm-2.12.547-.38.703-.212-.798-.818-.102.63-.378-.068-.807.702.426.556-.334-.222.726.645.539-.833.025zm-1.63 1.953.38-.703.833-.025-.645-.539.222-.726-.556.334-.702-.426.068.807-.63.378.818.102.212.798zm-2.5 2.5.38-.703.833-.025-.645-.539.222-.726-.556.334-.702-.426.068.807-.63.378.818.102.212.798zM8.11 13.585l-.688.407.229-.793-.648-.509h.734l.358-.727.382.727h.649l-.565.509.275.793-.726-.407zm2.806-.11-.38.703-.212-.798-.818-.102.63-.378-.068-.807.702.426.556-.334-.222.726.645.539-.833.025zm2.5-1.25-.38.703-.212-.798-.818-.102.63-.378-.068-.807.702.426.556-.334-.222.726.645.539-.833.025zm2.5-1.25-.38.703-.212-.798-.818-.102.63-.378-.068-.807.702.426.556-.334-.222.726.644.539-.832.025zm.87-.547.38-.703.832-.025-.644-.539.222-.726-.556.334-.702-.426.068.807-.63.378.818.102.212.798z" clip-rule="evenodd"/></g></g></svg>