<svg xmlns="http://www.w3.org/2000/svg" viewBox="0 0 24 24">
    <path d="M12 17c-2.8 0-5-2.2-5-5s2.2-5 5-5 5 2.2 5 5-2.2 5-5 5zm0-8c-1.7 0-3 1.3-3 3s1.3 3 3 3 3-1.3 3-3-1.3-3-3-3z"/>
    <path d="M12 23C5.9 23 1 18.1 1 12c0-2.9 1.1-5.7 3.2-7.8C6.3 2.1 9.1 1 12 1c6.1 0 11 4.9 11 11v1c0 2.2-1.8 4-4 4s-4-1.8-4-4V8c0-.6.4-1 1-1s1 .4 1 1v5c0 1.1.9 2 2 2s2-.9 2-2v-1c0-5-4-9-9-9-2.4 0-4.7.9-6.4 2.6C3.9 7.3 3 9.6 3 12c0 5 4 9 9 9 2 0 3.9-.7 5.5-1.9.4-.3 1.1-.3 1.4.2.3.4.3 1.1-.2 1.4-1.9 1.5-4.3 2.3-6.7 2.3z"/>
</svg>
