<svg xmlns="http://www.w3.org/2000/svg" viewBox="0 0 24 24">
    <path d="M20 18.6c-.4 0-.8-.2-.9-.6-.2-.5 0-1.1.5-1.3 1-.4 1.7-1.2 2.1-2.2.4-1 .4-2.1-.1-3.1C21 9.9 19.6 9 18 9h-1.3c-.5 0-.9-.3-1-.8-1-3.7-4.8-6-8.5-5s-6 4.8-5 8.5c.4 1.5 1.2 2.8 2.4 3.7.4.3.5 1 .2 1.4-.3.4-1 .5-1.4.2a9.15 9.15 0 0 1-3.1-4.8C-1 7.4 1.9 2.5 6.7 1.3 11.3.1 15.9 2.7 17.4 7h.6c2.4 0 4.5 1.4 5.5 3.6.6 1.5.7 3.1.1 4.6-.6 1.5-1.7 2.7-3.2 3.3-.1.1-.3.1-.4.1z"/>
    <path d="M8 17c-.3 0-.5-.1-.7-.3-.1-.1-.2-.2-.2-.3-.1-.1-.1-.3-.1-.4s0-.3.1-.4c.1-.1.1-.2.2-.3.1-.1.2-.2.3-.2.2-.1.5-.1.8 0 .1 0 .2.1.3.2.1.1.2.2.2.3.1.1.1.3.1.4s0 .3-.1.4c-.1.1-.1.2-.2.3-.2.2-.4.3-.7.3zm0 4c-.3 0-.5-.1-.7-.3-.2-.2-.3-.4-.3-.7 0-.3.1-.5.3-.7.4-.4 1-.4 1.4 0 .2.2.3.4.3.7 0 .3-.1.5-.3.7-.2.2-.4.3-.7.3zm4-2c-.3 0-.5-.1-.7-.3-.2-.2-.3-.4-.3-.7 0-.3.1-.5.3-.7.4-.4 1-.4 1.4 0 .2.2.3.4.3.7 0 .3-.1.5-.3.7-.2.2-.4.3-.7.3zm0 4c-.3 0-.5-.1-.7-.3-.2-.2-.3-.4-.3-.7 0-.3.1-.5.3-.7.1-.1.2-.2.3-.2.4-.2.8-.1 1.1.2.2.2.3.4.3.7 0 .3-.1.5-.3.7-.2.2-.4.3-.7.3zm4-6c-.3 0-.5-.1-.7-.3-.2-.2-.3-.4-.3-.7 0-.1 0-.3.1-.4 0-.1.1-.2.2-.3.2-.2.6-.3.9-.3h.2c.1 0 .1.1.2.1 0 0 .1.1.2.1.1.1.2.2.2.3 0 .1.1.2.1.4 0 .3-.1.5-.3.7-.3.3-.5.4-.8.4zm0 4c-.3 0-.5-.1-.7-.3-.1-.1-.2-.2-.2-.3 0-.1-.1-.2-.1-.4 0-.3.1-.5.3-.7.4-.4 1-.4 1.4 0 .2.2.3.4.3.7 0 .3-.1.5-.3.7-.2.2-.4.3-.7.3z"/>
</svg>
