<svg xmlns="http://www.w3.org/2000/svg" viewBox="0 0 24 24">
    <path d="M22 11.8V8c0-.5-.1-1-.4-1.5-.3-.5-.6-.8-1.1-1.1l-3.2-1.8c-.2-.2-.4-.3-.6-.4l-3.1-1.8c-.9-.5-2.1-.5-3 0L7.3 3.2c-.2 0-.4.1-.6.3L3.5 5.4c-.5.3-.8.6-1.1 1.1 0 0 0 .1-.1.2-.2.4-.3.8-.3 1.3v8c0 1.1.6 2.1 1.5 2.6l3.2 1.8c.1.2.3.3.6.3l3.2 1.8c.3.2.6.3 1 .4.2.1.3.1.5.1s.3-.1.5-.1c.3-.1.7-.2 1-.4l3.2-1.8c.2-.1.4-.1.5-.3l3.3-1.9c.9-.5 1.5-1.5 1.5-2.6v-4.1zm-10-.9L5 6.8l2.5-1.4 4 2.3c.2.1.3.1.5.1s.3 0 .5-.1l4-2.3L19 6.8l-7 4.1zm-.5-7.8c.2-.1.3-.1.5-.1s.3 0 .5.1l1.9 1.1L12 5.6 9.6 4.2l1.9-1.1zM4 16v-2.2l2.5 1.4V18l-2-1.1c-.3-.2-.5-.5-.5-.9zm4.5 3.2v-4.6c0-.4-.2-.7-.5-.9l-4-2.3V8.5l7 4.1v8l-2.5-1.4zm4.5 1.4v-7.9l7-4.1v2.8l-4 2.3c-.3.2-.5.5-.5.9v4.6L13 20.6zm6.5-3.7l-2 1.1v-2.8l2.5-1.4V16c0 .4-.2.7-.5.9z"/>
</svg>
