<svg xmlns="http://www.w3.org/2000/svg" viewBox="0 0 24 24">
    <path d="M22.8 7.9c-.1-.1-.1-.2-.2-.2l-9.9-6.4c-.1-.2-.4-.3-.7-.3-.4 0-.6.2-.8.4L1.9 7.5c-.3 0-.5.2-.7.4V8c-.1.1-.2.3-.2.5v7c0 .2.1.4.2.5v.1c.1.2.3.2.5.3l9.5 6.2c.2.2.4.4.8.4s.6-.2.8-.4l9.4-6.1c.2 0 .3-.1.4-.3.2-.2.4-.5.4-.7v-7c0-.2-.1-.4-.2-.6zM3 10.4L5.3 12 3 13.6v-3.2zm9 3.9L8.7 12 12 9.7l3.3 2.3-3.3 2.3zM13 8V3.8l7.2 4.7-3.2 2.3L13 8zm-2 0l-4 2.8-3.2-2.3L11 3.8V8zm-4 5.2l4 2.8v4.2l-7.2-4.8L7 13.2zm6 2.8l4-2.8 3.2 2.3-7.2 4.7V16zm5.7-4l2.3-1.6v3.2L18.7 12z"/>
</svg>
