<svg xmlns="http://www.w3.org/2000/svg" viewBox="0 0 24 24">
    <path d="M12 10H8.5C6 10 4 8 4 5.5S6 1 8.5 1H12c.6 0 1 .4 1 1v7c0 .6-.4 1-1 1zM8.5 3C7.1 3 6 4.1 6 5.5S7.1 8 8.5 8H11V3H8.5z"/>
    <path d="M15.5 10H12c-.6 0-1-.4-1-1V2c0-.6.4-1 1-1h3.5C18 1 20 3 20 5.5S18 10 15.5 10zM13 8h2.5C16.9 8 18 6.9 18 5.5S16.9 3 15.5 3H13v5z"/>
    <path d="M15.5 17C13 17 11 15 11 12.5S13 8 15.5 8s4.5 2 4.5 4.5-2 4.5-4.5 4.5zm0-7c-1.4 0-2.5 1.1-2.5 2.5s1.1 2.5 2.5 2.5 2.5-1.1 2.5-2.5-1.1-2.5-2.5-2.5z"/>
    <path d="M8.5 24C6 24 4 22 4 19.5S6 15 8.5 15H12c.6 0 1 .4 1 1v3.5C13 22 11 24 8.5 24zm0-7C7.1 17 6 18.1 6 19.5S7.1 22 8.5 22s2.5-1.1 2.5-2.5V17H8.5z"/>
    <path d="M12 17H8.5C6 17 4 15 4 12.5S6 8 8.5 8H12c.6 0 1 .4 1 1v7c0 .6-.4 1-1 1zm-3.5-7C7.1 10 6 11.1 6 12.5S7.1 15 8.5 15H11v-5H8.5z"/>
</svg>
