<svg xmlns="http://www.w3.org/2000/svg" viewBox="0 0 24 24">
    <path d="M12 23C5.9 23 1 18.1 1 12S5.9 1 12 1s11 4.9 11 11-4.9 11-11 11zm0-20c-5 0-9 4-9 9s4 9 9 9 9-4 9-9-4-9-9-9z"/>
    <path d="M11.9 14c-.4 0-.8-.3-.9-.7-.2-.5.1-1.1.6-1.3.6-.2 2.3-1 2.3-2.1 0-.9-.5-1.6-1.3-1.9-1-.4-2.2.2-2.6 1.2-.2.5-.8.8-1.3.6-.5 0-.7-.6-.6-1.1.7-2.1 3-3.2 5.1-2.4 1.6.6 2.7 2.1 2.7 3.8 0 2.6-3.3 3.8-3.7 3.9h-.3zm.1 4c-.3 0-.5-.1-.7-.3-.2-.2-.3-.4-.3-.7 0-.3.1-.5.3-.7.4-.4 1-.4 1.4 0 .2.2.3.4.3.7 0 .3-.1.5-.3.7-.2.2-.4.3-.7.3z"/>
</svg>
