<svg xmlns="http://www.w3.org/2000/svg" viewBox="0 0 24 24">
    <path d="M14 16c-1.8 0-3.6-.8-4.8-2.4-.3-.4-.2-1.1.2-1.4.4-.3 1.1-.2 1.4.2 1.3 1.8 3.8 2.1 5.6.8.2-.1.3-.2.4-.4l3-3c1.5-1.6 1.5-4.1-.1-5.6s-4-1.5-5.6 0l-1.7 1.7c-.4.4-1 .4-1.4 0-.4-.4-.4-1 0-1.4l1.7-1.7c2.3-2.3 6-2.3 8.3 0 2.4 2.3 2.4 6.1.1 8.5l-3 3c-.2.2-.4.4-.7.6-.9.7-2.1 1.1-3.4 1.1z"/>
    <path d="M7.1 22.9c-1.5 0-3-.6-4.2-1.7-2.4-2.3-2.4-6.1-.1-8.5l3-3c.2-.1.4-.3.6-.5 1.3-1 2.9-1.4 4.4-1.1 1.6.2 3 1.1 3.9 2.3.3.4.2 1.1-.2 1.4-.4.3-1.1.2-1.4-.2-.6-.9-1.6-1.4-2.6-1.6-1.1-.2-2.1.1-3 .8-.2.1-.3.2-.4.4l-3 3c-1.5 1.6-1.5 4.1.1 5.6s4 1.5 5.6 0l1.7-1.7c.4-.4 1-.4 1.4 0s.4 1 0 1.4l-1.7 1.7c-1.1 1.2-2.6 1.7-4.1 1.7z"/>
</svg>
