<svg xmlns="http://www.w3.org/2000/svg" viewBox="0 0 24 24">
    <path d="M20 22.9h-.3c-3.2-.4-6.4-1.5-9.1-3.2-1.3-.8-2.4-1.7-3.5-2.8-.4-.4-.4-1 0-1.4.4-.4 1-.4 1.4 0 1 1 2 1.8 3.2 2.5 2.5 1.6 5.3 2.6 8.2 2.9.4 0 .6-.1.8-.3.2-.2.3-.4.3-.7v-3c0-.5-.4-.9-.9-1-1-.1-2-.4-3-.8-.4-.1-.8-.1-1.1.2l-1.3 1.3c-.3.3-.8.4-1.2.2C12.3 16 11 15.1 10 14c-.4-.4-.4-1 0-1.4.4-.4 1-.4 1.4 0 .8.8 1.6 1.5 2.5 2l.7-.7c.8-.8 2.1-1.1 3.2-.7.8.3 1.7.5 2.6.6 1.5.2 2.6 1.5 2.6 3v3c0 .8-.3 1.6-.9 2.1s-1.3 1-2.1 1zM5.2 13.8c-.3 0-.6-.2-.8-.5-1.8-2.7-2.9-5.8-3.2-9.1-.1-.7.1-1.5.6-2.1.5-.6 1.2-1 2-1.1h3.3c1.5 0 2.8 1.1 3 2.6.1.9.3 1.8.6 2.6.4 1.1.1 2.3-.7 3.2l-1.3 1.3c-.4.4-1 .4-1.4 0s-.4-1 0-1.4L8.6 8c.3-.3.4-.8.3-1.1-.4-1-.6-2-.8-3-.1-.5-.5-1-1-.9h-3c-.3 0-.6.2-.8.4-.1.2-.2.4-.2.7C3.4 7 4.4 9.8 6 12.3c.3.5.2 1.1-.3 1.4-.1.1-.3.1-.5.1z"/>
    <path d="M1 24c-.3 0-.5-.1-.7-.3-.4-.4-.4-1 0-1.4l22-22c.4-.4 1-.4 1.4 0s.4 1 0 1.4l-22 22c-.2.2-.4.3-.7.3z"/>
</svg>
