<svg xmlns="http://www.w3.org/2000/svg" viewBox="0 0 24 24">
    <path d="M23 11h-6c-.6 0-1-.4-1-1s.4-1 1-1h5V4c0-.6.4-1 1-1s1 .4 1 1v6c0 .6-.4 1-1 1zM1 21c-.6 0-1-.4-1-1v-6c0-.6.4-1 1-1h6c.6 0 1 .4 1 1s-.4 1-1 1H2v5c0 .6-.4 1-1 1z"/>
    <path d="M12 22c-2.7 0-5.2-1-7.1-2.9L.3 14.8c-.4-.4-.4-1 0-1.4.4-.4 1-.4 1.4 0l4.6 4.4C7.9 19.2 9.9 20 12 20s4.1-.8 5.7-2.3c.8-.8 1.5-1.9 1.9-3 .2-.5.8-.8 1.3-.6.5.2.8.8.6 1.3-.5 1.4-1.3 2.7-2.4 3.7C17.2 21 14.7 22 12 22zm11-11c-.2 0-.5-.1-.7-.3l-4.6-4.4c-.9-.9-1.9-1.5-3-1.9-4.2-1.4-8.8.8-10.2 4.9-.2.5-.8.8-1.3.6-.5-.1-.8-.7-.6-1.2C4.4 3.5 10.2.8 15.4 2.6c1.4.5 2.7 1.3 3.7 2.4l4.6 4.3c.4.4.4 1 0 1.4-.2.2-.4.3-.7.3z"/>
</svg>
