<svg xmlns="http://www.w3.org/2000/svg" viewBox="0 0 24 24">
    <path d="M14.5 11C13.1 11 12 9.9 12 8.5v-5C12 2.1 13.1 1 14.5 1S17 2.1 17 3.5v5c0 1.4-1.1 2.5-2.5 2.5zm0-8c-.3 0-.5.2-.5.5v5c0 .3.2.5.5.5s.5-.2.5-.5v-5c0-.3-.2-.5-.5-.5zm6 8H19c-.6 0-1-.4-1-1V8.5C18 7.1 19.1 6 20.5 6S23 7.1 23 8.5 21.9 11 20.5 11zM20 9h.5c.3 0 .5-.2.5-.5s-.2-.5-.5-.5-.5.2-.5.5V9zM9.5 23C8.1 23 7 21.9 7 20.5v-5C7 14.1 8.1 13 9.5 13s2.5 1.1 2.5 2.5v5c0 1.4-1.1 2.5-2.5 2.5zm0-8c-.3 0-.5.2-.5.5v5c0 .3.2.5.5.5s.5-.2.5-.5v-5c0-.3-.2-.5-.5-.5zm-6 3C2.1 18 1 16.9 1 15.5S2.1 13 3.5 13H5c.6 0 1 .4 1 1v1.5C6 16.9 4.9 18 3.5 18zm0-3c-.3 0-.5.2-.5.5s.2.5.5.5.5-.2.5-.5V15h-.5zm17 2h-5c-1.4 0-2.5-1.1-2.5-2.5s1.1-2.5 2.5-2.5h5c1.4 0 2.5 1.1 2.5 2.5S21.9 17 20.5 17zm-5-3c-.3 0-.5.2-.5.5s.2.5.5.5h5c.3 0 .5-.2.5-.5s-.2-.5-.5-.5h-5zm0 9c-1.4 0-2.5-1.1-2.5-2.5V19c0-.6.4-1 1-1h1.5c1.4 0 2.5 1.1 2.5 2.5S16.9 23 15.5 23zm-.5-3v.5c0 .3.2.5.5.5s.5-.2.5-.5-.2-.5-.5-.5H15zm-6.5-8h-5C2.1 12 1 10.9 1 9.5S2.1 7 3.5 7h5C9.9 7 11 8.1 11 9.5S9.9 12 8.5 12zm-5-3c-.3 0-.5.2-.5.5s.2.5.5.5h5c.3 0 .5-.2.5-.5S8.8 9 8.5 9h-5zM10 6H8.5C7.1 6 6 4.9 6 3.5S7.1 1 8.5 1 11 2.1 11 3.5V5c0 .6-.4 1-1 1zM8.5 3c-.3 0-.5.2-.5.5s.2.5.5.5H9v-.5c0-.3-.2-.5-.5-.5z"/>
</svg>
