<svg xmlns="http://www.w3.org/2000/svg" viewBox="0 0 24 24">
    <path d="M12 18c-3.3 0-6-2.7-6-6s2.7-6 6-6 6 2.7 6 6-2.7 6-6 6zm0-10c-2.2 0-4 1.8-4 4s1.8 4 4 4 4-1.8 4-4-1.8-4-4-4zm0-4c-.6 0-1-.4-1-1V1c0-.6.4-1 1-1s1 .4 1 1v2c0 .6-.4 1-1 1zm0 20c-.6 0-1-.4-1-1v-2c0-.6.4-1 1-1s1 .4 1 1v2c0 .6-.4 1-1 1zM5.6 6.6c-.3 0-.5-.1-.7-.3L3.5 4.9c-.4-.4-.4-1 0-1.4s1-.4 1.4 0l1.4 1.4c.4.4.4 1 0 1.4-.1.2-.4.3-.7.3zm14.2 14.2c-.3 0-.5-.1-.7-.3l-1.4-1.4c-.4-.4-.4-1 0-1.4s1-.4 1.4 0l1.4 1.4c.4.4.4 1 0 1.4-.2.2-.5.3-.7.3zM3 13H1c-.6 0-1-.4-1-1s.4-1 1-1h2c.6 0 1 .4 1 1s-.4 1-1 1zm20 0h-2c-.6 0-1-.4-1-1s.4-1 1-1h2c.6 0 1 .4 1 1s-.4 1-1 1zM4.2 20.8c-.3 0-.5-.1-.7-.3-.4-.4-.4-1 0-1.4l1.4-1.4c.4-.4 1-.4 1.4 0s.4 1 0 1.4l-1.4 1.4c-.2.2-.4.3-.7.3zM18.4 6.6c-.3 0-.5-.1-.7-.3-.4-.4-.4-1 0-1.4l1.4-1.4c.4-.4 1-.4 1.4 0s.4 1 0 1.4l-1.4 1.4c-.2.2-.5.3-.7.3z"/>
</svg>
