<svg xmlns="http://www.w3.org/2000/svg" viewBox="0 0 24 24">
    <path d="M12 22.2c-.8 0-1.5-.3-2.1-.9l-8.6-8.6c-.2-.2-.3-.4-.3-.7V2c0-.6.4-1 1-1h10c.3 0 .5.1.7.3l8.6 8.6c1.2 1.2 1.2 3.1 0 4.2l-7.2 7.2c-.6.6-1.3.9-2.1.9zM3 11.6l8.3 8.3c.4.4 1 .4 1.4 0l7.2-7.2c.4-.4.4-1 0-1.4L11.6 3H3v8.6zm17.6 1.8z"/>
    <path d="M7 8c-.3 0-.5-.1-.7-.3-.2-.2-.3-.4-.3-.7 0-.1 0-.3.1-.4.1-.1.1-.2.2-.3.4-.4 1-.4 1.4 0 .2.2.3.4.3.7v.2c0 .1 0 .1-.1.2 0 .1-.1.1-.1.2s-.1.1-.1.1c-.1.1-.2.2-.3.2-.1.1-.3.1-.4.1z"/>
</svg>
