<svg xmlns="http://www.w3.org/2000/svg" viewBox="0 0 24 24">
    <path d="M21 7H3c-.6 0-1-.4-1-1s.4-1 1-1h18c.6 0 1 .4 1 1s-.4 1-1 1z"/>
    <path d="M17 23H7c-1.7 0-3-1.3-3-3V6c0-.6.4-1 1-1s1 .4 1 1v14c0 .6.4 1 1 1h10c.6 0 1-.4 1-1V6c0-.6.4-1 1-1s1 .4 1 1v14c0 1.7-1.3 3-3 3zM16 7c-.6 0-1-.4-1-1V4c0-.6-.4-1-1-1h-4c-.6 0-1 .4-1 1v2c0 .6-.4 1-1 1s-1-.4-1-1V4c0-1.7 1.3-3 3-3h4c1.7 0 3 1.3 3 3v2c0 .6-.4 1-1 1z"/>
    <path d="M10 18c-.6 0-1-.4-1-1v-6c0-.6.4-1 1-1s1 .4 1 1v6c0 .6-.4 1-1 1zm4 0c-.6 0-1-.4-1-1v-6c0-.6.4-1 1-1s1 .4 1 1v6c0 .6-.4 1-1 1z"/>
</svg>
