<svg xmlns="http://www.w3.org/2000/svg" viewBox="0 0 24 24">
    <path d="M17 22c-.6 0-1-.4-1-1v-2c0-1.7-1.3-3-3-3H5c-1.7 0-3 1.3-3 3v2c0 .6-.4 1-1 1s-1-.4-1-1v-2c0-2.8 2.2-5 5-5h8c2.8 0 5 2.2 5 5v2c0 .6-.4 1-1 1zM9 12c-2.8 0-5-2.2-5-5s2.2-5 5-5 5 2.2 5 5-2.2 5-5 5zm0-8C7.3 4 6 5.3 6 7s1.3 3 3 3 3-1.3 3-3-1.3-3-3-3zm14 18c-.6 0-1-.4-1-1v-2c0-1.4-.9-2.6-2.2-2.9-.5-.1-.9-.7-.7-1.2.1-.5.7-.9 1.2-.7 2.2.6 3.7 2.6 3.8 4.8v2c-.1.6-.5 1-1.1 1zm-7-10.1c-.4 0-.9-.3-1-.8-.1-.5.2-1.1.7-1.2 1.1-.3 1.9-1.1 2.2-2.2.4-1.6-.6-3.2-2.2-3.7-.5 0-.8-.6-.7-1.1.1-.5.7-.9 1.2-.7 2.7.7 4.3 3.4 3.6 6.1-.5 1.8-1.8 3.2-3.6 3.6H16z"/>
</svg>
