<svg xmlns="http://www.w3.org/2000/svg" viewBox="0 0 24 24">
    <path d="M14 20H3c-1.7 0-3-1.3-3-3V7c0-1.7 1.3-3 3-3h2c.6 0 1 .4 1 1s-.4 1-1 1H3c-.6 0-1 .4-1 1v10c0 .6.4 1 1 1h11c.6 0 1-.4 1-1v-1c0-.6.4-1 1-1s1 .4 1 1v1c0 1.7-1.3 3-3 3zm9-2c-.6 0-1-.4-1-1V9l-4.4 3.2c-.4.3-.9.2-1.3-.1l-1-1c-.2-.2-.3-.4-.3-.7V7c0-.6-.4-1-1-1h-3.3c-.6 0-1-.4-1-1s.4-1 1-1H14c1.7 0 3 1.3 3 3v2.9l.1.1 5.3-3.8c.3-.2.7-.3 1-.1.4.2.6.5.6.9v10c0 .6-.4 1-1 1z"/>
    <path d="M23 24c-.3 0-.5-.1-.7-.3l-22-22C-.1 1.3-.1.7.3.3s1-.4 1.4 0l22 22c.4.4.4 1 0 1.4-.2.2-.4.3-.7.3z"/>
</svg>
