<svg xmlns="http://www.w3.org/2000/svg" viewBox="0 0 24 24">
    <path d="M12 20c-4.4 0-8-3.6-8-8s3.6-8 8-8 8 3.6 8 8-3.6 8-8 8zm0-14c-3.3 0-6 2.7-6 6s2.7 6 6 6 6-2.7 6-6-2.7-6-6-6z"/>
    <path d="M13.5 14.5c-.3 0-.5-.1-.7-.3l-1.5-1.5c-.2-.2-.3-.4-.3-.7V9c0-.6.4-1 1-1s1 .4 1 1v2.6l1.2 1.2c.4.4.4 1 0 1.4-.2.2-.4.3-.7.3zM9.8 24c-1.6 0-2.8-1.2-3-2.7l-.3-3.8c-.1-.5.4-1 .9-1.1.6-.1 1 .4 1.1.9l.3 3.8c0 .5.5.9 1 .9h4.3c.5 0 1-.4 1-.9l.3-3.8c.1-.5.5-1 1.1-.9.5.1 1 .5.9 1.1l-.3 3.8c-.1 1.6-1.4 2.7-3 2.7H9.8zm6.7-16.4c-.5 0-.9-.4-1-.9l-.4-3.8c0-.5-.5-.9-1-.9H9.8c-.5 0-.9.4-1 .9l-.3 3.8c-.1.6-.5 1-1.1.9-.6-.1-1-.5-.9-1.1l.3-3.8C7 1.2 8.3 0 9.8 0h4.4c1.6 0 2.8 1.2 3 2.7l.4 3.8c0 .6-.4 1.1-1.1 1.1.1 0 .1 0 0 0z"/>
</svg>
