<svg xmlns="http://www.w3.org/2000/svg" viewBox="0 0 24 24">
    <path d="M14 21c-.8 0-1.6-.3-2.1-.9-.4-.4-.4-1 0-1.4.4-.4 1-.4 1.4 0 .2.2.4.3.7.3.3 0 .5-.1.7-.3.2-.2.3-.4.3-.7 0-.3-.1-.5-.3-.7-.2-.2-.4-.3-.7-.3H2c-.6 0-1-.4-1-1s.4-1 1-1h12c.8 0 1.6.3 2.1.9.6.6.9 1.3.9 2.1s-.3 1.6-.9 2.1c-.5.6-1.3.9-2.1.9zm5.5-8H2c-.6 0-1-.4-1-1s.4-1 1-1h17.5c.4 0 .8-.2 1.1-.4.6-.6.6-1.5 0-2.1-.6-.6-1.5-.6-2.1 0-.4.4-1 .4-1.4 0-.4-.4-.4-1 0-1.4 1.4-1.4 3.6-1.4 4.9 0 1.4 1.4 1.4 3.6 0 5-.7.5-1.6.9-2.5.9zM11 9H2c-.6 0-1-.4-1-1s.4-1 1-1h9c.3 0 .5-.1.7-.3.4-.4.4-1 0-1.4-.2-.2-.4-.3-.7-.3-.3 0-.5.1-.7.3-.4.4-1 .4-1.4 0-.4-.4-.4-1 0-1.4.5-.6 1.3-.9 2.1-.9s1.6.3 2.1.9c1.2 1.2 1.2 3.1 0 4.2-.5.6-1.3.9-2.1.9z"/>
</svg>
