<svg xmlns="http://www.w3.org/2000/svg" viewBox="0 0 24 24">
    <path d="M16.1 23H7.9c-.3 0-.5-.1-.7-.3l-5.9-5.9c-.2-.1-.3-.4-.3-.7V7.9c0-.3.1-.5.3-.7l5.9-5.9c.1-.2.4-.3.7-.3h8.3c.3 0 .5.1.7.3l5.9 5.9c.1.1.2.4.2.7v8.3c0 .3-.1.5-.3.7l-5.9 5.9c-.1.1-.4.2-.7.2zm-7.8-2h7.5l5.3-5.3V8.3L15.7 3H8.3L3 8.3v7.5L8.3 21z"/>
    <path d="M9 16c-.3 0-.5-.1-.7-.3-.4-.4-.4-1 0-1.4l6-6c.4-.4 1-.4 1.4 0 .4.4.4 1 0 1.4l-6 6c-.2.2-.4.3-.7.3z"/>
    <path d="M15 16c-.3 0-.5-.1-.7-.3l-6-6c-.4-.4-.4-1 0-1.4.4-.4 1-.4 1.4 0l6 6c.4.4.4 1 0 1.4-.2.2-.4.3-.7.3z"/>
</svg>
