<svg xmlns="http://www.w3.org/2000/svg" width="640" height="480"><path d="M0 0h640v240H0z" fill="#0038a8"/><path d="M0 240h640v240H0z" fill="#ce1126"/><path d="M415.7 240L0 480V0" fill="#fff"/><g fill="#fcd116"><g stroke-width="1pt"><path d="M26.689 42.443l14.382 12.428 16.652-9.167-7.376 17.52L64.21 76.23 45.27 74.628l-8.084 17.204-4.33-18.51-18.86-2.371 16.265-9.838zM350.47 214.72l.387 19.005 17.955 6.241-17.955 6.241-.387 19.005-11.484-15.148-18.194 5.505 10.857-15.603-10.857-15.603 18.194 5.504zM37.187 388.1l8.084 17.204 18.94-1.601-13.863 13.005 7.376 17.52-16.652-9.167-14.382 12.428 3.572-18.67-16.265-9.838 18.86-2.372z"/></g><path d="M151.45 139.1l-6.204 6.204 3.077 46.987a47.852 47.852 0 0 0-3.108.302l-5.649-42.877-5.062 5.063 7.622 38.325a47.492 47.492 0 0 0-17.223 7.136l-21.706-32.487h-7.162l26.327 34.315c-.826.635-1.626 1.3-2.409 1.986l-31.056-35.412h-8.775v8.776l35.412 31.056a48.099 48.099 0 0 0-1.986 2.414l-34.315-26.334v7.162l32.493 21.713a47.494 47.494 0 0 0-7.143 17.217l-38.325-7.622-5.063 5.063 42.877 5.648a47.894 47.894 0 0 0-.302 3.109l-46.987-3.077-6.204 6.204 6.204 6.203 46.987-3.076c.068 1.046.169 2.087.302 3.114l-42.877 5.642 5.063 5.063 38.325-7.622a47.485 47.485 0 0 0 7.136 17.223l-32.486 21.706v7.162l34.314-26.327c.636.826 1.3 1.625 1.986 2.408l-35.412 31.056v8.776h8.776l31.056-35.412c.783.688 1.588 1.35 2.415 1.986l-26.334 34.315h7.161l21.714-32.493a47.437 47.437 0 0 0 17.216 7.149l-7.622 38.318 5.063 5.062 5.649-42.877c1.026.134 2.062.235 3.108.303l-3.077 46.987 6.204 6.204 6.203-6.204-3.076-46.987a48.276 48.276 0 0 0 3.108-.303l5.649 42.877 5.062-5.062-7.622-38.325a47.489 47.489 0 0 0 17.223-7.137l21.706 32.487h7.162l-26.327-34.315c.826-.635 1.626-1.299 2.408-1.986l31.056 35.412h8.776v-8.775l-35.412-31.056a48.099 48.099 0 0 0 1.986-2.415l34.315 26.334v-7.162l-32.493-21.713a47.493 47.493 0 0 0 7.143-17.217l38.325 7.622 5.062-5.062-42.877-5.649a47.9 47.9 0 0 0 .303-3.108l46.987 3.077 6.204-6.204-6.204-6.204-46.987 3.077a47.86 47.86 0 0 0-.303-3.108l42.877-5.649-5.062-5.062-38.325 7.622a47.487 47.487 0 0 0-7.137-17.223l32.487-21.706v-7.162l-34.315 26.327a47.979 47.979 0 0 0-1.986-2.408l35.412-31.056v-8.776h-8.775l-31.056 35.412a48.048 48.048 0 0 0-2.415-1.986l26.334-34.315h-7.162l-21.713 32.493a47.495 47.495 0 0 0-17.217-7.143l7.622-38.325-5.062-5.062-5.649 42.877a47.887 47.887 0 0 0-3.108-.303l3.077-46.987z"/></g></svg>