<svg xmlns="http://www.w3.org/2000/svg" width="20" height="15" fill="none"><g fill-rule="evenodd" clip-rule="evenodd" mask="url(#VI_-_Virgin_Islands_(U_S_)__a)"><path fill="#F7FCFF" d="M0 0v15h20V0H0z"/><g mask="url(#VI_-_Virgin_Islands_(U_S_)__b)"><path fill="#E8AA00" d="M11.002 5.134c.15.086.241.307.241.307H8.69l.176-.307s-.176-.08-.088-.08c.089 0 .342-.355.342-.355h-.106s-.054-.088.106-.088.288-.572.288-.572.105-.267-.152-.335c-.257-.067-.566.224-.566.224s.075-.466.176-.567c.047-.046.134-.054.215-.06.092-.009.175-.016.175-.081 0-.123.3-.218.792-.218.492 0 .67.587.67.702 0 .116.168.729.168.729s-.168 0-.168.079.526.42.526.42-.393.116-.241.202zm-9.266-2.09c.196-.085 2.188.509 3.68.954.858.255 1.551.462 1.642.462.25 0 .718.603.483.857-.234.254-.313.402-.156.402.156 0 .947-.205.947-.205V7.87s-.758.18-.947 0c-.092-.087-.232-.092-.352-.097-.128-.004-.234-.008-.234-.11 0-.195-.436-.226-.436-.226s-.404-.134-.404-.259-.265-.48-.265-.48-1.008-.57-1.865-1.197a27.274 27.274 0 0 0-.508-.36c-.647-.45-1.18-.822-1.276-1.253-.448-.443-.618-.713-.31-.846zM8.027 8.02s-.339.234-.714.86c-.185.308-.2.58-.21.776-.012.202-.019.325-.204.325-.215 0-.372.046-.5.084a.845.845 0 0 1-.23.049c-.172 0-.5.646-.336.796.164.15.854.388.854 0s.185-.609.522-.609.939-.223.939-.712c0-.49.656-.455.656-.455L8.027 8.02zm6.699-4.022c1.492-.445 3.484-1.039 3.68-.955.309.133.139.403-.309.846-.096.431-.629.803-1.276 1.253-.164.115-.335.234-.508.36-.857.627-1.865 1.197-1.865 1.197s-.265.355-.265.48-.404.259-.404.259-.437.03-.437.227c0 .1-.105.105-.233.11-.12.004-.26.01-.352.096-.19.18-.947 0-.947 0V5.514s.79.205.947.205c.157 0 .078-.148-.156-.402-.235-.254.234-.857.483-.857.09 0 .784-.207 1.642-.462zM12.114 8.02s.34.234.715.86c.185.308.2.58.21.776.012.202.018.325.203.325.216 0 .373.046.5.084a.82.82 0 0 0 .231.049c.171 0 .5.646.336.796-.165.15-.854.388-.854 0s-.185-.609-.522-.609-.939-.223-.939-.712c0-.49-.656-.455-.656-.455l.777-1.114zm-3.65 1.63c0-.215.38-.378.38-.378l1.147-.484.014.291.015-.29 1.147.483s.38.163.38.378c0 .108.163.3.324.49s.322.38.322.486c0 .188-.435.61-.698.866l-.096.094c-.06.06-.125.134-.193.21-.193.22-.407.462-.586.462-.126 0-.228.088-.326.172-.09.077-.176.151-.274.151a.02.02 0 0 1-.015-.007.02.02 0 0 1-.014.007c-.098 0-.184-.074-.274-.151-.098-.084-.2-.172-.326-.172-.18 0-.393-.243-.586-.462-.068-.076-.133-.15-.193-.21l-.096-.094c-.263-.255-.698-.678-.698-.866 0-.107.16-.296.321-.486.162-.19.324-.382.324-.49z"/><path fill="#46A000" d="M4.381 6.67c.025.29.108.46.108.46s.144.228.226.23c.043.105.088.213.138.322.225.6.532 1.389.846 2.107a.504.504 0 0 0-.09-.05c-.262-.124-.45-.138-.45-.138s-.353.015-.317.115c.036.1.473.317.65.253l.06-.021c.082-.028.157-.054.178-.088l.126.28a1.432 1.432 0 0 0-.45-.137s-.353.015-.317.115c.037.1.473.317.65.252l.06-.02c.05-.018.096-.034.13-.051.317.675.623 1.214.841 1.35h.44s-.38-.538-.86-1.29c.145-.103.346-.33.346-.472v-.063c.004-.167.006-.308-.176-.126-.206.205-.284.377-.284.377s-.01.03-.02.072a35.34 35.34 0 0 1-.116-.188c.144-.101.35-.33.35-.474v-.063c.003-.166.005-.308-.178-.126a1.434 1.434 0 0 0-.283.378s-.01.03-.02.072a30.54 30.54 0 0 1-.167-.278c.142-.074.4-.344.4-.505V8.9c.004-.166.006-.308-.177-.126a1.434 1.434 0 0 0-.283.378s-.023.073-.037.152a25.033 25.033 0 0 1-.217-.379h.007c.106 0 .46-.335.46-.524v-.063c.003-.167.006-.308-.177-.126a1.434 1.434 0 0 0-.283.378s-.052.165-.047.264a19.183 19.183 0 0 1-.285-.53h.003c.106 0 .46-.337.46-.526v-.063c.003-.166.005-.308-.177-.125-.206.205-.283.377-.283.377s-.047.149-.048.249a12.783 12.783 0 0 1-.265-.554 60.68 60.68 0 0 1-.121-.324.04.04 0 0 0 .014-.011c.069-.082.038-.569-.106-.69a3.747 3.747 0 0 1-.048-.041c-.126-.11-.233-.202-.21.055zm.49.74s.013-.188.136-.451c.11-.234.156-.1.21.057l.02.06c.065.177-.152.614-.252.65-.1.037-.115-.315-.115-.315zm.492 1.806c-.263-.123-.452-.137-.452-.137s-.352.015-.316.115c.036.1.473.317.65.253l.06-.021c.158-.055.291-.1.058-.21zm-.699-.7s.189.015.452.138c.233.109.1.155-.058.21l-.06.02c-.177.065-.614-.152-.65-.252-.036-.1.316-.115.316-.115zm.246-.424c-.263-.123-.452-.137-.452-.137s-.352.015-.316.115c.036.1.473.317.65.252l.06-.02c.158-.055.291-.101.058-.21zm-.55-.814s.172.078.377.283c.182.183.04.18-.126.178l-.063-.001c-.189 0-.525-.354-.525-.46 0-.106.336 0 .336 0z"/><path fill="#0093E1" d="M17.932 6.462h-1.335s.283 0 .314.273c0 0 .006 2.309 0 2.49-.007.182-.315.243-.315.243s1.621.005 1.336 0c-.284-.005-.347-.243-.347-.243v-2.49c0-.21.347-.273.347-.273zM2.853 9.283c-.15-.39-1.084-2.78-1.084-2.78h.924c-.16 0-.22.204-.22.204l.647 1.846s.626-1.507.626-1.774c0-.268-.263-.276-.263-.276h1.205l-.291.097s-.964 2.21-.964 2.683c-.046.105.444.175.444.175H2.583l.27-.175zm11.064-.873.716-1.319.02 1.468-.221-.072-.157.98.791-1.518-.263-.1.98-1.06-.334 1.434-.19-.168-1.123 2.096 1.254-1.436-.242-.121 1.238-.81-.539 1.32-.3-.216-1.272 1.6-.528-.202.528-1.876h-.358zm-.414 2.502h-.396v.302h-.311l-.883 1.024h.487l.17.576.226-.203v.203l.442-.203.423.366.316-1.408-.213-.156.11-.095-.11-.405h-.26z"/><path fill="#F7FCFF" d="M7.715 5.008s.581.402 1.163.402c.582 0 1.163-.402 1.163-.402s.582.402 1.163.402c.582 0 1.164-.402 1.164-.402v1.813c0 1.875-2.327 3.328-2.327 3.328s-2.439-1.334-2.326-3.35v-1.79z"/><g mask="url(#VI_-_Virgin_Islands_(U_S_)__c)"><path fill="#2E42A5" d="M7.55 4.888h4.9v1.887h-4.9V4.888z"/><path fill="#AF0100" d="M8.497 6.775h-.412v3.815h.412V6.775zm.7 0h-.412v3.815h.412V6.775zm.288 0h.412v3.815h-.412V6.775zm1.112 0h-.412v3.815h.412V6.775zm.288 0h.412v3.815h-.412V6.775zm1.112 0h-.412v3.815h.412V6.775z"/></g></g></g></svg>