<svg xmlns="http://www.w3.org/2000/svg" width="640" height="480"><g fill-rule="evenodd" stroke-width="1pt"><path fill="#ce1126" d="M0 0h640v480H0z"/><path fill="#002b7f" d="M0 0h320v240H0z"/><path fill="#fff" d="M180.08 229.26l-20.74-13.937-19.911 14.103 6.471-24.888-19.081-15.265 24.556-1.493 8.13-23.561 8.794 23.893 24.06.83-19.082 16.26zm-3.65-165.59l-16.592-10.619-16.094 10.453 4.48-19.911-14.601-12.776 19.413-1.66 7.134-18.582 7.467 18.749 19.08 1.659-14.766 13.274zm-73.006 59.566L87.33 112.119l-16.592 11.117 5.143-19.413-15.099-12.776 19.247-.996 6.969-19.08 6.803 18.914 19.579 1.162-14.933 12.444zm146.51-13.274l-15.431-9.955-14.933 9.955 4.314-18.251-13.937-11.78 18.25-1.493 6.306-17.256 6.968 17.422 17.754.995-13.772 12.278zm-43.14 43.472l-10.287-6.471-10.287 6.637 2.654-12.278-9.125-8.296 11.946-.996 4.646-11.615 4.811 11.615 11.946.996-9.125 8.296z"/></g></svg>