<svg width="100" height="60" xmlns="http://www.w3.org/2000/svg"><g fill="none" fill-rule="evenodd"><rect fill="#FFF" width="100" height="60" rx="4"/><path d="M84.407 34.666h-3.533c-.352 0-.587.013-.784.146-.205.13-.283.325-.283.582a.61.61 0 0 0 .423.602c.205.07.425.092.748.092l1.05.028c1.06.026 1.768.208 2.2.65.078.062.125.132.18.2v-2.3zm0 5.332c-.47.686-1.388 1.034-2.63 1.034h-3.744v-1.734h3.729c.37 0 .628-.049.784-.2a.71.71 0 0 0 .23-.528.663.663 0 0 0-.238-.535c-.14-.123-.345-.18-.683-.18-1.82-.06-4.09.057-4.09-2.502 0-1.173.747-2.408 2.78-2.408h3.862v-1.61H80.82c-1.083 0-1.87.26-2.427.661v-.66h-5.306c-.849 0-1.845.21-2.316.66v-.66h-9.476v.66c-.754-.542-2.027-.66-2.614-.66h-6.25v.66c-.597-.576-1.924-.66-2.733-.66h-6.995l-1.6 1.727-1.5-1.727h-10.45V42.62h10.253l1.65-1.755 1.553 1.755 6.32.005v-2.654h.622c.838.012 1.827-.021 2.7-.397v3.045h5.213v-2.94h.251c.321 0 .353.012.353.332v2.608h15.835c1.006 0 2.057-.256 2.639-.722v.722h5.023c1.045 0 2.066-.146 2.842-.52v-2.102zm-7.732-3.231c.377.39.58.88.58 1.713 0 1.74-1.09 2.552-3.046 2.552h-3.776v-1.734h3.761c.368 0 .628-.049.792-.2a.716.716 0 0 0 .229-.528.693.693 0 0 0-.237-.535c-.148-.123-.352-.18-.69-.18-1.813-.06-4.083.057-4.083-2.502 0-1.173.739-2.408 2.771-2.408h3.887v1.721h-3.556c-.353 0-.582.013-.777.146-.212.131-.291.325-.291.582 0 .305.18.513.424.602.204.071.424.092.754.092l1.044.028c1.052.026 1.775.207 2.214.65zm-17.493-.5c-.259.154-.58.167-.957.167H55.87v-1.817h2.387c.345 0 .69.008.925.146.252.131.402.382.402.728s-.15.625-.402.776zm1.171 1.007c.432.158.784.443.95.679.274.394.313.763.321 1.476v1.603h-1.946V40.02c0-.486.047-1.207-.314-1.583-.283-.29-.715-.359-1.422-.359h-2.071v2.954h-1.948v-8.088h4.475c.982 0 1.696.044 2.333.382.611.369.996.874.996 1.796 0 1.291-.864 1.95-1.374 2.152zm2.45-4.33h6.469v1.673h-4.54v1.47h4.43v1.65h-4.43v1.61l4.54.007v1.678h-6.47v-8.088zm-13.08 3.733h-2.505v-2.06h2.527c.7 0 1.186.285 1.186.992 0 .7-.463 1.068-1.208 1.068zm-4.436 3.62l-2.976-3.295 2.976-3.19v6.485zm-7.686-.95h-4.766v-1.61h4.256v-1.65h-4.256v-1.47h4.86l2.12 2.357-2.214 2.373zm15.411-3.738c0 2.247-1.68 2.71-3.375 2.71h-2.42v2.713H43.45l-2.387-2.677-2.48 2.677h-7.68v-8.088H38.7l2.385 2.652 2.466-2.652h6.194c1.539 0 3.267.425 3.267 2.665zM21.655 23.624l-1.327-3.223-1.32 3.223h2.647zm29.23-1.283c-.267.16-.582.166-.96.166h-2.354v-1.796h2.387c.337 0 .69.015.919.146.251.118.407.369.407.715 0 .353-.148.638-.4.769zm16.8 1.283l-1.342-3.223-1.334 3.223h2.675zm-31.317 3.49h-1.987l-.007-6.333-2.811 6.332H29.86l-2.819-6.338v6.338H23.1l-.745-1.803h-4.037l-.752 1.803h-2.105l3.471-8.085h2.88l3.297 7.655v-7.655h3.164l2.537 5.485 2.33-5.485h3.228v8.085zm7.92 0h-6.475v-8.086h6.476v1.683h-4.537v1.458h4.428v1.657h-4.428v1.615h4.537v1.672zm9.131-5.909c0 1.29-.863 1.955-1.366 2.155.425.161.787.446.96.681.273.402.32.762.32 1.484v1.588h-1.955l-.007-1.02c0-.486.046-1.186-.306-1.575-.284-.284-.715-.346-1.413-.346H47.57v2.941h-1.939v-8.085h4.46c.99 0 1.72.026 2.347.387.613.361.98.888.98 1.79zm3.103 5.908h-1.978v-8.085h1.978v8.085zm22.947 0h-2.747l-3.675-6.069v6.07H69.1l-.755-1.804h-4.027l-.732 1.803h-2.268c-.942 0-2.135-.208-2.811-.894-.681-.687-1.036-1.617-1.036-3.087 0-1.2.212-2.295 1.045-3.162.627-.645 1.608-.942 2.944-.942h1.877v1.732H61.5c-.708 0-1.107.105-1.492.479-.33.34-.557.984-.557 1.832 0 .866.172 1.49.533 1.898.298.32.84.418 1.35.418h.871l2.733-6.36h2.904l3.282 7.649v-7.648h2.952l3.407 5.631v-5.631h1.986v8.085zm-64.03 1.588h3.311l.747-1.796h1.672l.745 1.796h6.517v-1.373l.582 1.38h3.383l.581-1.4V28.7h16.196l-.007-2.948h.313c.22.008.283.028.283.39V28.7h8.377v-.686c.676.361 1.726.686 3.11.686h3.523l.754-1.796h1.672l.738 1.796h6.79v-1.706l1.03 1.706h5.441V17.424h-5.386v1.332l-.754-1.332h-5.526v1.332l-.692-1.332h-7.465c-1.25 0-2.348.174-3.235.659v-.659h-5.151v.659c-.565-.5-1.334-.659-2.19-.659H31.98l-1.263 2.913-1.296-2.913h-5.928v1.332l-.651-1.332h-5.056l-2.347 5.362v5.915z" fill="#0072CE"/></g></svg>