<svg width="100" height="60" xmlns="http://www.w3.org/2000/svg" xmlns:xlink="http://www.w3.org/1999/xlink"><defs><rect id="a" x="18" y="8" width="64" height="44" rx="8"/></defs><g fill="none" fill-rule="evenodd"><rect fill="#FFF" width="100" height="60" rx="4"/><use fill="#FFF" xlink:href="#a"/><rect stroke="#005498" stroke-width="1.5" x="18.75" y="8.75" width="62.5" height="42.5" rx="8"/><path fill="#005498" d="M38.061 32.821h9.302l5.208-5.544h9.335l-7.927 8.792H24.666v-5.872h15.721l-2.326 2.624"/><path fill="#FFD800" d="M61.906 27.277H52.57l-5.208 5.577h-9.367l7.926-8.792H75.27v5.84H59.547l2.359-2.625"/><path d="M71.502 21.897c-.426.262-.983.393-1.507.393-1.506 0-2.85-1.115-2.85-2.657s1.213-2.657 2.752-2.657c.557 0 1.18.098 1.605.36v1.641c-.328-.295-.819-.394-1.376-.394-.524 0-1.146.427-1.146 1.116 0 .59.622.951 1.146.951.59 0 .95-.033 1.376-.36v1.607m3.832-1.247v1.247c-1.343.984-2.882.164-2.882-.984v-2.297h-.655v-1.51h.655v-1.213l1.834-.984v2.198h1.048v1.378h-.95v2.132c0 .394.655.361.95.033m-13.887 0v1.247c-1.376.984-2.882.164-2.882-.984v-2.297h-.655v-1.51h.655v-1.213l1.867-.984v2.198h1.015v1.378h-.983v2.132c0 .394.688.361.983.033m-15.296 1.247c-.425.262-.917.393-1.473.393-1.54 0-2.85-1.115-2.85-2.657s1.212-2.657 2.719-2.657c.557 0 1.179.098 1.604.36v1.641c-.36-.295-.786-.394-1.343-.394-.556 0-1.178.427-1.178 1.116 0 .59.655.951 1.178.951.557 0 .918-.033 1.343-.36v1.607m-4.683-3.019v3.314h-1.834v-2.854c0-1.017-1.474-.984-1.474 0v2.854h-1.834v-5.085h1.867v.426c1.54-1.148 3.275-.098 3.275 1.345m16.18 0v3.314h-1.834v-2.854c0-1.017-1.474-.984-1.474 0v2.854h-1.835v-5.085h1.835v.426c1.572-1.148 3.308-.098 3.308 1.345m6.911-.557c-.557-.033-1.67.033-2.49.426l.295-1.41c1.834-.624 4.455-.263 4.455 1.377v3.478h-1.704l-.065-.164c-.787.492-3.669.722-3.276-1.542.23-1.345 1.77-1.673 2.719-1.673.491 0 .688-.46.066-.492zm.425 1.64c-.36-.065-1.343.131-1.343.787 0 .722 1.343.526 1.343-.164v-.623zm-31.377-1.64c-.556-.033-1.703.033-2.456.426l.262-1.41c1.834-.624 4.454-.263 4.454 1.377v3.478h-1.736l-.032-.164c-.754.492-3.734.722-3.276-1.542.23-1.345 1.736-1.673 2.686-1.673.491 0 .688-.46.098-.492zm.426 1.64c-.393-.065-1.376.131-1.376.787 0 .722 1.376.526 1.376-.164v-.623z" fill="#005498"/><path d="M60.464 20.617v-2.132h.983v-1.378h-1.015v-2.198l-1.867.984v1.214h-.655v1.51h.655v2.296c0 1.148 1.506 1.968 2.882.984V20.65c-.295.328-.983.361-.983-.033m-35.765-6.069h3.406c1.703 0 2.948 2.264 1.376 3.674 1.965 1.214 1.08 3.904-1.114 3.937h-3.668v-7.611zm2.096 4.56v1.542h.851c1.081 0 .983-1.542-.032-1.542h-.82zm.819-3.018c-.23-.066-.82-.033-.82 0v1.443h.852c.59 0 .917-1.017-.032-1.443zm18.537 4.2c-.425.327-.786.36-1.343.36-.523 0-1.178-.36-1.178-.951 0-.69.622-1.116 1.178-1.116.557 0 .983.099 1.343.394v-1.64c-.425-.263-1.047-.361-1.604-.361-1.507 0-2.719 1.115-2.719 2.657s1.31 2.657 2.85 2.657c.556 0 1.048-.13 1.473-.393v-1.608m-7.958-2.756v-.426h-1.867v5.085h1.834v-2.854c0-.984 1.474-1.017 1.474 0v2.854h1.834v-3.314c0-1.443-1.736-2.493-3.275-1.345m16.147 0v-.426h-1.835v5.085h1.835v-2.854c0-.984 1.474-1.017 1.474 0v2.854h1.834v-3.314c0-1.443-1.736-2.493-3.308-1.345m17.162 2.757c-.426.327-.786.36-1.376.36-.524 0-1.146-.36-1.146-.951 0-.69.622-1.116 1.146-1.116.557 0 1.048.099 1.376.394v-1.64c-.426-.263-1.048-.361-1.605-.361-1.54 0-2.751 1.115-2.751 2.657s1.343 2.657 2.85 2.657c.523 0 1.08-.13 1.506-.393v-1.608m2.882.328v-2.132h.95v-1.378h-1.048v-2.198l-1.834.984v1.214h-.655v1.51h.655v2.296c0 1.148 1.54 1.968 2.882.984V20.65c-.295.328-.95.361-.95-.033m-25.088-3.674c1.572 0 2.85 1.18 2.85 2.756 0 1.541-1.278 2.624-2.817 2.624-1.54 0-2.85-1.148-2.85-2.69 0-1.51 1.31-2.69 2.817-2.69zm1.08 2.756c0-.722-.49-1.083-1.047-1.083-.557 0-1.016.361-1.016 1.017 0 .624.459 1.083 1.016 1.083.556 0 1.047-.46 1.047-1.017zm-2.914 23.227h-3.407c0 .689.524.951 1.507.951.491 0 1.179-.196 1.801-.525v1.51s-.753.59-2.227.59c-1.703 0-2.915-1.148-2.915-2.723 0-1.443 1.015-2.723 2.719-2.723 1.8 0 2.522 1.148 2.522 2.92zm-3.472-1.017h1.67c0-.492-.458-.656-.819-.656-.36 0-.753.164-.851.656zm-15.754 1.279l1.507-2.165v4.298h1.965l.032-7.447h-1.997l-1.507 2.23-1.54-2.23H24.7l.032 7.447h1.965v-4.298l1.54 2.165m21.353-.853c.197-.426.623-.787 1.18-.787.294 0 .622.131.851.295v-1.607c-.164-.197-.426-.263-.687-.263-.46 0-1.082.263-1.343.59v-.524h-1.769v5.282h1.769v-2.986m-15.067 2.658c.623.262 1.376.36 1.867.36 1.9 0 2.457-.984 2.457-1.804 0-.951-.983-1.476-1.867-1.607-.131 0-.492-.099-.492-.263 0-.131.099-.295.525-.295.36 0 1.015.131 1.342.295l-.065-1.378c-.491-.163-1.18-.295-1.703-.295-1.08 0-2.031.656-2.031 1.706 0 .82.59 1.247 1.54 1.444.392.032.753.196.753.393 0 .263-.262.328-.524.328-.23 0-.819.066-1.802-.328v1.444" fill="#005498"/><path d="M41.238 43.713v-2.165h1.016v-1.41h-1.081v-2.264l-1.867.984v1.28h-.655v1.509h.655v2.362c0 1.18 1.54 1.968 2.948.984v-1.28c-.295.296-1.016.361-1.016 0m-9.007-3.575h1.966v5.117H32.23zm.983-.165c.59 0 1.081-.492 1.081-1.082 0-.558-.491-1.017-1.08-1.017a1.02 1.02 0 0 0-1.016 1.017c0 .59.458 1.082 1.015 1.082m32.294 5.02c.623.262 1.376.36 1.867.36 1.9 0 2.49-.984 2.49-1.804 0-.951-.983-1.476-1.9-1.607-.131 0-.491-.099-.491-.263 0-.131.098-.295.556-.295.36 0 .983.131 1.343.295l-.098-1.378c-.491-.163-1.18-.295-1.703-.295-1.081 0-2.03.656-2.03 1.706 0 .82.589 1.247 1.538 1.444.394.032.754.196.754.393 0 .263-.262.328-.524.328-.23 0-.82.066-1.802-.328v1.444m-5.764-1.837c-.623.459-1.114.557-1.933.557-1.244 0-2.358-1.017-2.358-2.066 0-1.149.623-2.231 2.358-2.231.786 0 1.441.13 1.933.59v-1.771c-.623-.361-1.474-.46-2.227-.46-2.26 0-3.996 1.608-3.996 3.806 0 2.165 1.9 3.806 4.127 3.806.753 0 1.473-.165 2.096-.525v-1.706m3.144-1.87c-.557-.033-1.703.032-2.522.426l.262-1.41c1.9-.624 4.586-.296 4.586 1.377v3.543h-1.769l-.066-.13c-.786.491-3.733.688-3.308-1.608.197-1.345 1.769-1.673 2.752-1.673.49 0 .687-.493.065-.525zm.426 1.673c-.36-.033-1.376.131-1.376.787 0 .722 1.376.558 1.376-.164v-.623zm8.646-2.428v-2.657h-1.834v7.447h1.835V42.4c0-.984 1.506-1.017 1.506 0v2.92h1.867v-3.38c0-1.508-1.768-2.558-3.373-1.41" fill="#005498"/></g></svg>