<svg width="100" height="60" xmlns="http://www.w3.org/2000/svg"><g fill="none" fill-rule="evenodd"><rect fill="#18347B" width="100" height="60" rx="4"/><path d="M77.966 24.83H75.06l-1.69 7.18h.004l-.233.987a6.505 6.505 0 0 1-.483.12c-.3.06-.612.091-.932.091-.375 0-.669-.054-.882-.162a.928.928 0 0 1-.452-.456 1.44 1.44 0 0 1-.1-.698c.02-.27.07-.56.15-.871l.883-3.726.581-2.47v-.002H68.94l-1.343 5.732c-.16.689-.254 1.344-.28 1.965-.028.62.066 1.17.28 1.65.214.48.574.857 1.082 1.134.508.276 1.223.415 2.145.415.642 0 1.197-.054 1.665-.162l.055-.014-.001.006c-.13.591-.394 1.07-.816 1.445-.423.375-1.05.562-1.883.562a7.03 7.03 0 0 1-.971-.062l-.572 2.43c.387.05.816.076 1.29.076.884 0 1.658-.102 2.321-.306a4.626 4.626 0 0 0 1.707-.926 5.138 5.138 0 0 0 1.19-1.557c.32-.624.576-1.363.771-2.217l2.01-8.535-.007-.003.383-1.626M63.72 27.297c-1.355 0-1.614 0-2.169.29-.394.207-.72.517-1.006.879a4.2 4.2 0 0 0-.674 1.253 4.515 4.515 0 0 0-.244 1.48c0 .632.104 1.132.312 1.5.208.369.593.553 1.153.553.3 0 .57-.06.81-.178.242-.118.5-.315.773-.592.026-.328.068-.674.127-1.036.058-.362.133-.697.198-1l.72-3.149m2.061 3.666a6.612 6.612 0 0 0-.156 2.26c.078.756.365 1.916.644 2.496h-2.81c-.344-.587-.329-.862-.394-1.046a5.2 5.2 0 0 1-1.21.75 3.61 3.61 0 0 1-1.486.296c-.651 0-1.208-.115-1.67-.345-.463-.23-.84-.54-1.134-.928a3.73 3.73 0 0 1-.635-1.362 6.832 6.832 0 0 1-.195-1.667c0-.908.16-1.764.479-2.566a6.537 6.537 0 0 1 1.328-2.102c.567-.599 1.934-1.919 4.178-1.919h4.506l-1.445 6.133m-16.994 2.252c.223.053.498.08.826.08a3.32 3.32 0 0 0 1.397-.289 3.08 3.08 0 0 0 1.072-.805c.295-.344.524-.758.688-1.241a4.96 4.96 0 0 0 .246-1.6c0-.57-.125-1.053-.374-1.45-.249-.398-.686-.609-1.302-.611-.431-.002-1.147-.002-1.147-.002l-1.406 5.918zm7.14-4.073c0 .967-.157 1.851-.472 2.652a6.29 6.29 0 0 1-1.308 2.076 5.845 5.845 0 0 1-2.006 1.362 6.58 6.58 0 0 1-2.548.486c-.446 0-.891-.04-1.337-.119l-.885 3.596H44.46l3.379-14.365h3.879c.734 0 1.367.113 1.898.338a3.53 3.53 0 0 1 1.308.924c.34.39.593.848.757 1.37.164.524.246 1.084.246 1.68zM42.673 33.21c-.374 0-.668-.054-.882-.162a.927.927 0 0 1-.451-.455 1.44 1.44 0 0 1-.1-.7c.02-.269.07-.56.15-.87l.882-3.726h3.308l.601-2.47h-3.328l.762-3.14-3.107.487-1.965 8.383a10.7 10.7 0 0 0-.28 1.965c-.027.62.066 1.171.28 1.65.214.48.575.858 1.083 1.134.508.277 1.223.415 2.145.415.641 0 1.196-.054 1.664-.162.048-.01.122-.029.17-.04l.604-2.556c-.203.07-.407.116-.604.156-.3.06-.611.091-.932.091m-7.408-8.386L32.7 35.72h2.905l2.564-10.897h-2.904m3.205-1.259l.446-1.893H36.01l-.446 1.893h2.905m-12.185 9.725c.456 0 .887-.112 1.29-.336a3.428 3.428 0 0 0 1.048-.9 4.535 4.535 0 0 0 .948-2.756c0-.632-.104-1.126-.313-1.482-.209-.355-.642-.518-1.203-.518a2.87 2.87 0 0 0-.665.084 1.707 1.707 0 0 0-.781.413l-1.275 5.42c.377.067.507.075.599.075h.352zm2.543-8.457c.626 0 1.167.112 1.624.336a3.23 3.23 0 0 1 1.134.908c.3.383.521.83.665 1.344a6.17 6.17 0 0 1 .215 1.66c0 .909-.166 1.768-.498 2.579a6.706 6.706 0 0 1-1.36 2.114 6.382 6.382 0 0 1-2.034 1.422 6.172 6.172 0 0 1-2.543.524c-.118 0-.323-.003-.617-.01a8.932 8.932 0 0 1-1.007-.089 11.71 11.71 0 0 1-1.203-.237A6.057 6.057 0 0 1 22 34.95l3.384-14.366 3.032-.474-1.198 5.091a4.46 4.46 0 0 1 .768-.27c.26-.065.54-.098.84-.098z" fill="#FFFFFE"/></g></svg>