<svg width="100" height="60" xmlns="http://www.w3.org/2000/svg"><g fill="none" fill-rule="evenodd"><rect fill="#E46B2A" width="100" height="60" rx="4"/><path d="M14.412 35.97c1.054 0 1.96-.11 2.72-.33.76-.218 1.387-.567 1.88-1.046.493-.478.855-1.096 1.088-1.853.233-.758.35-1.668.35-2.731s-.117-1.973-.35-2.73c-.233-.758-.595-1.376-1.088-1.854-.493-.479-1.12-.827-1.88-1.047-.76-.219-1.666-.329-2.72-.329h-2.978v11.92h2.978zm.698-13.075c2.231.053 3.912.66 5.042 1.823 1.129 1.163 1.693 2.927 1.693 5.292 0 2.365-.564 4.13-1.693 5.292-1.13 1.163-2.81 1.77-5.042 1.824h-5.072V22.895h5.072zm8.604 0l3.327 12.457h.041l3.573-12.457h1.746l3.594 12.457h.04l3.348-12.457h1.396l-4.045 14.23h-1.479L31.538 24.39h-.04L27.8 37.126h-1.52l-4.066-14.231h1.499m19.131 9.397a6.04 6.04 0 0 0 .985 2.013 4.916 4.916 0 0 0 1.715 1.426c.698.358 1.533.538 2.505.538.973 0 1.804-.18 2.496-.538a4.947 4.947 0 0 0 1.703-1.426 6.042 6.042 0 0 0 .987-2.013 8.353 8.353 0 0 0 0-4.574 6.062 6.062 0 0 0-.987-2.003 4.956 4.956 0 0 0-1.703-1.425c-.692-.36-1.523-.539-2.496-.539-.972 0-1.807.18-2.505.539a4.924 4.924 0 0 0-1.715 1.425 6.06 6.06 0 0 0-.985 2.003 8.296 8.296 0 0 0-.319 2.292c0 .77.106 1.532.319 2.282zM41.56 27.2a6.95 6.95 0 0 1 1.294-2.362 6.219 6.219 0 0 1 2.166-1.635c.87-.405 1.88-.608 3.03-.608s2.155.203 3.018.608a6.23 6.23 0 0 1 2.156 1.635 6.956 6.956 0 0 1 1.294 2.362c.287.89.431 1.827.431 2.81 0 .984-.144 1.92-.43 2.81a6.846 6.846 0 0 1-1.295 2.352 6.284 6.284 0 0 1-2.156 1.625c-.863.405-1.869.608-3.019.608-1.15 0-2.16-.203-3.029-.608a6.259 6.259 0 0 1-2.166-1.625 6.84 6.84 0 0 1-1.294-2.351 9.085 9.085 0 0 1-.43-2.811c0-.983.142-1.92.43-2.81zm16.552-4.305v13.074h8.214v1.157h-9.61V22.895h1.396m11.027 0v13.074h8.214v1.157h-9.61V22.895h1.396" fill="#FFFFFE"/><path d="M86.204 31.545L83.37 24.25l-2.936 7.295h5.77zm-1.991-8.65l5.75 14.23h-1.5l-1.787-4.424h-6.674l-1.766 4.425h-1.478l5.894-14.231h1.56z" fill="#FFFFFE"/></g></svg>