<svg width="100" height="60" xmlns="http://www.w3.org/2000/svg"><g fill="none" fill-rule="evenodd"><rect fill="#FFF" width="100" height="60" rx="4"/><path d="M23.685 17.037h50.63a4.649 4.649 0 0 1 4.645 4.652v16.624c0 2.567-2.08 4.65-4.645 4.65h-50.63a4.65 4.65 0 0 1-4.645-4.65V21.689a4.65 4.65 0 0 1 4.645-4.652z" fill="#000268"/><path d="M20.946 21.848v16.307c0 1.605 1.3 2.907 2.905 2.907h26.525V18.94H23.851a2.906 2.906 0 0 0-2.905 2.907zm31.323 14.027V26.73h2.063v1.176h.025c.449-.914 1.394-1.327 2.412-1.327 1.791 0 2.773 1.715 2.773 3.29 0 1.927-1.032 3.528-2.958 3.528-.783 0-1.63-.287-2.053-1.063h-.025v3.54h-2.237zm4.96-5.955c0-.863-.483-1.614-1.355-1.614-.821 0-1.368.725-1.368 1.701 0 .951.622 1.665 1.368 1.665.845 0 1.356-.714 1.356-1.752zm9.881 3.327h-2.05c-.013-.35-.05-.687-.05-1.026h-.025c-.51.815-1.131 1.176-2.051 1.176-1.281 0-2.424-.637-2.424-2.051 0-1.989 2.151-2.227 3.344-2.227.36 0 .759.038 1.045.088-.014-.888-.673-1.126-1.48-1.126-.721 0-1.444.137-2.063.488l-.038-1.527c.796-.325 1.629-.463 2.586-.463 1.654 0 3.083.714 3.083 2.703v2.427c0 .512.025 1.026.124 1.538zm-4.512-2.064c0 .452.398.714.92.714.846 0 1.38-.776 1.38-1.539-.285-.013-.609-.037-.944-.037-.76 0-1.356.237-1.356.862zm5.52 4.692c.46.1.92.15 1.392.15 2.052 0 2.536-1.588 3.17-3.228l2.376-6.067h-2.24l-1.33 4.253h-.024l-1.393-4.253h-2.411l2.623 6.667c-.162.576-.584.902-1.132.902a2.66 2.66 0 0 1-.883-.138l-.148 1.714z" fill="#FFF"/><path d="M29.247 26.73h2.027v5.755c0 2.677-1.293 3.54-3.904 3.54a7.48 7.48 0 0 1-2.474-.412l.112-1.777c.683.337 1.255.537 2.188.537 1.293 0 1.989-.613 1.989-1.888v-.351h-.025c-.534.762-1.28 1.113-2.177 1.113-1.776 0-2.883-1.35-2.883-3.277 0-1.939.908-3.391 2.922-3.391.956 0 1.727.526 2.201 1.327h.024V26.73zm-2.835 3.203c0 1.013.598 1.588 1.269 1.588.795 0 1.429-.675 1.429-1.677 0-.725-.422-1.538-1.43-1.538-.832 0-1.268.739-1.268 1.627zm8.644-5.918h-2.238v1.652h2.238zm-2.237 9.232h2.237V26.73h-2.237zm8.468-6.593a4.81 4.81 0 0 0-.758-.075c-.97 0-1.529.526-1.915 1.352h-.025V26.73h-2.038v6.517h2.237v-2.751c0-1.277.586-2.04 1.63-2.04.261 0 .509 0 .757.075l.112-1.877zm3.853 6.743c-2.138 0-3.766-1.25-3.766-3.402 0-2.165 1.628-3.416 3.767-3.416 2.138 0 3.767 1.251 3.767 3.416 0 2.152-1.629 3.402-3.767 3.402zm0-1.576c1.034 0 1.456-.863 1.456-1.826 0-.976-.422-1.839-1.455-1.839-1.032 0-1.454.863-1.454 1.84 0 .962.422 1.825 1.454 1.825z" fill="#FF0007"/></g></svg>