<svg width="100" height="60" xmlns="http://www.w3.org/2000/svg"><g fill="none" fill-rule="evenodd"><rect fill="#0074C8" width="100" height="60" rx="4"/><path d="M69.207 30.274c.027 2.476.01 4.95.01 7.421 0 .58-.068.645-.658.645-.682.004-1.367.004-2.05 0-.534 0-.594-.057-.594-.58 0-2.402.007-4.803-.008-7.206a6.65 6.65 0 0 0-.128-1.2c-.104-.572-.49-.897-1.042-.988-1.002-.167-1.903.152-2.743.671-.111.07-.155.32-.155.487-.011 2.021-.007 4.043-.007 6.064 0 .76-.01 1.52.003 2.278.007.348-.146.482-.483.478-.757-.014-1.513-.004-2.27-.006-.438-.003-.558-.126-.558-.575V26.297c0-.402.12-.528.522-.53.682-.007 1.363-.006 2.05-.002.433.002.508.083.518.515.002.166.018.33.028.593.224-.143.355-.222.485-.31 1.333-.907 2.812-1.129 4.365-.852 1.422.25 2.196 1.205 2.484 2.561.145.657.223 1.333.23 2.002zm-20.931-.836c.073 2.8.06 5.606.076 8.41.001.374-.135.496-.517.499-.66.002-1.317.001-1.975 0-.558 0-.628-.07-.656-.622-.002-.06-.014-.12-.03-.237-.374.21-.693.41-1.028.573-1.171.57-2.391.623-3.623.259-1.108-.332-1.787-1.098-2.058-2.223a5.599 5.599 0 0 1-.05-2.438c.254-1.252 1.095-1.948 2.265-2.3 1.132-.345 2.298-.383 3.468-.372.837.01.839.003.836-.85 0-.22.016-.446-.024-.659-.126-.687-.584-1.115-1.339-1.115-1.265 0-2.53.054-3.794.126-.62.038-.701.007-.701-.622 0-.44.007-.883-.003-1.322-.005-.245.09-.414.324-.463 1.962-.42 3.935-.71 5.925-.214 1.795.443 2.856 1.697 2.904 3.57zm-3.214 5.686c-.03-.292-.006-.588-.006-.884 0-.379.014-.76-.01-1.138-.007-.095-.136-.26-.204-.258-.763.027-1.53.048-2.287.141-.465.06-.805.4-.899.866a4.911 4.911 0 0 0-.077 1.342c.041.489.392.774.87.856.77.134 1.495-.016 2.211-.295.309-.119.44-.29.402-.63zm35.794-4.993c.007 2.548.004 5.098.003 7.646 0 .506-.063.563-.574.563-.635.004-1.267.004-1.902 0-.545 0-.58-.032-.608-.565a1.124 1.124 0 0 0-.022-.185c-.002-.024-.025-.038-.062-.094-.08.036-.153.059-.21.1-.85.636-1.828.885-2.866.966-2.055.167-3.625-1.19-3.722-3.258-.025-.51-.037-1.029.038-1.53.187-1.205.927-2.006 2.067-2.329.86-.242 1.763-.344 2.652-.45.518-.063 1.049-.018 1.574-.01.23.008.344-.072.331-.314-.02-.364.014-.738-.047-1.098-.137-.803-.59-1.221-1.4-1.219a75.039 75.039 0 0 0-3.76.135c-.63.034-.72-.016-.72-.667 0-.404.002-.809 0-1.212 0-.314.134-.489.454-.564 1.458-.33 2.93-.509 4.42-.415.623.04 1.257.178 1.85.377 1.417.474 2.2 1.52 2.427 2.987.058.378.076.76.077 1.136zm-3.224 5.11c-.016-.333-.003-.663-.005-.992 0-.352-.007-.71.005-1.064.005-.242-.078-.364-.338-.353-.462.01-.93-.027-1.389.01-1.54.116-1.819.691-1.838 1.963-.01.748.337 1.152.93 1.253.822.135 1.592-.036 2.34-.369.204-.09.304-.214.295-.448zM36.037 21.427h-2.122c-.531.001-.581.054-.581.594v15.803c0 .44.075.514.508.516.694.004 1.389 0 2.085 0 .654 0 .714-.057.714-.705v-15.62c-.001-.5-.093-.588-.604-.59zm20.64 4.189a4.646 4.646 0 0 0-2.583.901c-.105.077-.21.148-.367.261-.013-.176-.027-.28-.027-.386-.01-.527-.103-.625-.616-.625-.662-.002-1.317 0-1.976 0-.603 0-.703.098-.703.701v11.209c0 .543.119.663.632.663.694.004 1.392.004 2.087 0 .56 0 .65-.084.65-.666.001-2.716.004-5.437-.005-8.16 0-.269.078-.422.324-.539.814-.384 1.648-.672 2.563-.635.336.014.498-.113.49-.47a46.96 46.96 0 0 1 0-1.8c0-.327-.145-.467-.469-.454zm-34.543-4.188a108.48 108.48 0 0 0-1.94.001c-.68.01-1.054.4-1.054 1.083v15.256c0 .45.06.51.508.51.658.005 1.317.005 1.975 0 .691-.006 1.038-.352 1.038-1.042V21.98c.001-.446-.092-.548-.527-.552zm7.27 11.533c-1.413-1.484-3.151-2.3-5.047-2.49-.612-.01-.617-.01-.6.453.006.171.04.34.065.51.34 2.256 1.437 4.053 3.265 5.397 1.198.885 2.554 1.344 4.03 1.482.439.043.513.012.47-.42-.189-1.882-.871-3.552-2.183-4.932zm1.723-11.491c-.168.026-.342.016-.508.042-1.923.307-3.555 1.162-4.853 2.626-1.189 1.34-1.85 2.92-2.006 4.705-.04.465-.014.467.474.53.67-.166 1.366-.268 2.006-.512 3.196-1.219 4.944-3.585 5.348-6.979.05-.43-.02-.48-.461-.413z" fill="#FFF"/></g></svg>