<svg width="100" height="60" xmlns="http://www.w3.org/2000/svg"><g fill="none" fill-rule="evenodd"><rect fill="#FFF" width="100" height="60" rx="4"/><path d="M56.129 30.485C56.129 41.264 47.392 50 36.614 50s-19.515-8.736-19.515-19.515c0-10.778 8.737-19.515 19.515-19.515s19.515 8.737 19.515 19.515" fill="#C00"/><path d="M62.814 10.97a19.446 19.446 0 0 0-13.101 5.051c-.705.64-1.363 1.33-1.97 2.066h3.943a20.024 20.024 0 0 1 1.488 2.067h-6.92c-.413.664-.79 1.353-1.124 2.067h9.167c.314.67.59 1.358.827 2.066h-10.82a19.428 19.428 0 0 0-.567 2.066H55.69a19.658 19.658 0 0 1-.566 10.332h-10.82c.237.707.513 1.397.826 2.067h9.167a19.55 19.55 0 0 1-1.125 2.067h-6.917a19.5 19.5 0 0 0 1.488 2.064h3.942a19.503 19.503 0 0 1-1.972 2.067A19.443 19.443 0 0 0 62.814 50c10.778 0 19.515-8.736 19.515-19.515 0-10.777-8.737-19.515-19.515-19.515" fill="#F90"/><path d="M32.057 32.622a3.645 3.645 0 0 0-.473-.033c-1.201 0-1.808.412-1.808 1.226 0 .5.296.82.759.82.863 0 1.485-.822 1.522-2.013zm1.54 3.587h-1.755l.04-.834c-.535.659-1.25.973-2.22.973-1.148 0-1.935-.896-1.935-2.199 0-1.96 1.369-3.103 3.719-3.103.24 0 .549.022.864.062.065-.266.082-.379.082-.522 0-.533-.369-.733-1.358-.733a7.064 7.064 0 0 0-2.243.363l.294-1.81c1.055-.311 1.752-.427 2.535-.427 1.82 0 2.784.817 2.782 2.36.003.415-.066.924-.172 1.596-.184 1.165-.578 3.666-.632 4.274zm-6.757 0h-2.12l1.215-7.609-2.71 7.609H21.78l-.178-7.566-1.276 7.566h-1.983L20 26.31h3.046l.184 5.541 1.86-5.54h3.387l-1.638 9.898m38.593-3.587a3.627 3.627 0 0 0-.472-.033c-1.202 0-1.808.412-1.808 1.226 0 .5.295.82.759.82.862 0 1.485-.822 1.52-2.013zm1.542 3.587h-1.756l.04-.834c-.535.659-1.25.973-2.22.973-1.149 0-1.935-.896-1.935-2.199 0-1.96 1.37-3.103 3.72-3.103.24 0 .547.022.862.062.066-.266.083-.379.083-.522 0-.533-.369-.733-1.359-.733a7.079 7.079 0 0 0-2.243.363c.023-.134.296-1.81.296-1.81 1.054-.311 1.751-.427 2.534-.427 1.82 0 2.783.817 2.781 2.36.004.415-.064.924-.171 1.596-.183 1.165-.58 3.666-.632 4.274zm-23.961-.122c-.58.182-1.032.261-1.522.261-1.083 0-1.674-.622-1.674-1.769-.015-.355.156-1.291.29-2.145.123-.752.92-5.494.92-5.494h2.105l-.246 1.219h1.272l-.287 1.935h-1.276c-.245 1.53-.594 3.437-.598 3.69 0 .415.222.597.726.597.241 0 .428-.025.571-.076l-.28 1.782m6.456-.066c-.724.222-1.42.33-2.16.327-2.358-.003-3.587-1.234-3.587-3.591 0-2.752 1.563-4.778 3.686-4.778 1.736 0 2.845 1.134 2.845 2.913 0 .59-.076 1.167-.26 1.98H45.8c-.141 1.168.606 1.654 1.832 1.654.752 0 1.433-.155 2.189-.506l-.351 2.001zm-1.184-4.772c.012-.168.223-1.437-.98-1.437-.67 0-1.15.511-1.345 1.437h2.325zm-13.418-.545c0 1.017.494 1.72 1.613 2.247.858.404.992.523.992.889 0 .501-.38.729-1.217.729-.633 0-1.22-.1-1.899-.319l-.29 1.86c.48.104.91.201 2.204.238 2.235 0 3.268-.851 3.268-2.69 0-1.107-.432-1.756-1.493-2.244-.888-.408-.991-.499-.991-.875 0-.435.353-.657 1.037-.657.416 0 .984.044 1.522.12l.302-1.867a14.304 14.304 0 0 0-1.865-.156c-2.37 0-3.19 1.238-3.183 2.725m24.906-2.512c.588 0 1.138.152 1.893.534l.347-2.148c-.311-.122-1.403-.838-2.329-.838-1.417 0-2.617.704-3.459 1.864-1.23-.407-1.736.416-2.355 1.236l-.55.128a4.16 4.16 0 0 0 .067-.81H51.44c-.265 2.493-.736 5.016-1.104 7.51l-.097.541h2.12c.353-2.299.547-3.77.665-4.767l.798-.442c.12-.445.492-.594 1.24-.576a9.018 9.018 0 0 0-.15 1.65c0 2.634 1.423 4.274 3.703 4.274.587 0 1.092-.077 1.873-.29l.371-2.255c-.702.345-1.278.507-1.8.507-1.23 0-1.976-.91-1.976-2.412 0-2.18 1.108-3.706 2.69-3.706m17.938-1.882l-.47 2.86c-.58-.762-1.201-1.314-2.023-1.314-1.069 0-2.042.81-2.68 2.004a17.462 17.462 0 0 1-1.803-.497v.008c.07-.668.1-1.073.093-1.212H68.88c-.264 2.492-.736 5.015-1.104 7.508l-.097.542h2.12c.286-1.858.505-3.402.666-4.625.725-.655 1.088-1.225 1.818-1.188a6.9 6.9 0 0 0-.513 2.612c0 2.012 1.017 3.34 2.558 3.34.776 0 1.372-.268 1.953-.888l-.1.748h2.005L79.8 26.31h-2.09zm-2.65 8.04c-.72 0-1.086-.535-1.086-1.588 0-1.582.683-2.704 1.644-2.704.728 0 1.122.554 1.122 1.577 0 1.596-.693 2.714-1.68 2.714z" fill="#006"/><path fill="#FFF" d="M27.45 35.621h-2.12l1.215-7.608-2.71 7.608h-1.444l-.178-7.564-1.276 7.564h-1.983l1.656-9.897h3.047l.085 6.127 2.056-6.127h3.29L27.45 35.62m5.217-3.584a3.522 3.522 0 0 0-.473-.033c-1.201 0-1.809.411-1.809 1.224 0 .5.297.821.76.821.863 0 1.485-.821 1.522-2.012zm1.54 3.585h-1.755l.04-.833c-.535.658-1.25.973-2.22.973-1.148 0-1.935-.897-1.935-2.2 0-1.96 1.369-3.102 3.72-3.102.24 0 .547.022.863.063.065-.267.082-.38.082-.524 0-.532-.368-.73-1.358-.73a7.038 7.038 0 0 0-2.243.36l.294-1.81c1.055-.31 1.752-.426 2.535-.426 1.82 0 2.783.817 2.782 2.36.003.414-.065.926-.172 1.595-.184 1.165-.579 3.667-.633 4.274zm28.417-9.631l-.347 2.148c-.757-.38-1.305-.534-1.893-.534-1.582 0-2.691 1.529-2.691 3.71 0 1.501.746 2.409 1.977 2.409.522 0 1.098-.161 1.8-.508l-.373 2.256c-.78.212-1.285.29-1.872.29-2.281 0-3.702-1.64-3.702-4.273 0-3.539 1.964-6.012 4.772-6.012.925 0 2.018.392 2.329.514m3.417 6.046a3.496 3.496 0 0 0-.471-.033c-1.2 0-1.808.411-1.808 1.224 0 .5.296.821.758.821.863 0 1.486-.821 1.521-2.012zm1.542 3.585h-1.755l.04-.833c-.536.658-1.25.973-2.22.973-1.15 0-1.935-.897-1.935-2.2 0-1.96 1.368-3.102 3.719-3.102.24 0 .547.022.862.063.066-.267.083-.38.083-.524 0-.532-.368-.73-1.358-.73a7.042 7.042 0 0 0-2.242.36l.294-1.81c1.055-.31 1.751-.426 2.535-.426 1.819 0 2.783.817 2.78 2.36.005.414-.064.926-.17 1.595-.184 1.165-.579 3.667-.633 4.274zm-23.96-.121c-.58.182-1.032.261-1.522.261-1.083 0-1.675-.622-1.675-1.768-.014-.357.157-1.291.292-2.146.121-.753.918-5.493.918-5.493h2.106l-.246 1.218h1.08l-.287 1.934h-1.085c-.244 1.532-.593 3.438-.597 3.691 0 .416.222.597.726.597.241 0 .428-.024.571-.077l-.281 1.782m6.457-.063a7.212 7.212 0 0 1-2.161.325c-2.358-.001-3.586-1.233-3.586-3.59 0-2.753 1.563-4.78 3.684-4.78 1.738 0 2.847 1.135 2.847 2.915 0 .59-.077 1.166-.26 1.98H46.41c-.142 1.167.606 1.654 1.83 1.654.754 0 1.434-.156 2.19-.507l-.35 2.003zm-1.183-4.774c.011-.169.223-1.437-.98-1.437-.67 0-1.151.512-1.346 1.437h2.326zm-13.419-.545c0 1.019.494 1.72 1.614 2.248.857.403.99.523.99.888 0 .502-.378.728-1.217.728a5.97 5.97 0 0 1-1.898-.316l-.29 1.857c.48.106.91.202 2.203.24 2.236 0 3.269-.852 3.269-2.691 0-1.107-.432-1.756-1.494-2.243-.888-.409-.99-.499-.99-.875 0-.435.352-.66 1.037-.66.415 0 .984.047 1.522.123l.302-1.867a14.422 14.422 0 0 0-1.865-.157c-2.37 0-3.19 1.237-3.183 2.725m43.319 5.504h-2.004l.099-.749c-.581.621-1.177.89-1.953.89-1.54 0-2.559-1.328-2.559-3.341 0-2.678 1.58-4.935 3.448-4.935.821 0 1.443.336 2.023 1.098l.47-2.86h2.09l-1.614 9.897zm-3.126-1.86c.987 0 1.68-1.117 1.68-2.712 0-1.023-.395-1.579-1.123-1.579-.96 0-1.643 1.122-1.643 2.705 0 1.054.366 1.587 1.086 1.587zm-6.179-6.189c-.265 2.492-.737 5.015-1.105 7.508l-.097.541h2.12c.757-4.922.94-5.883 2.129-5.763.189-1.007.541-1.89.804-2.334-.887-.186-1.383.316-2.032 1.269.051-.412.145-.812.127-1.221h-1.946m-17.44 0c-.266 2.492-.738 5.015-1.106 7.508l-.096.541h2.12c.758-4.922.94-5.883 2.127-5.763.19-1.007.543-1.89.805-2.334-.886-.186-1.383.316-2.031 1.269.051-.412.145-.812.127-1.221h-1.946"/></g></svg>