<svg version="1.1" id="Layer_1" xmlns="http://www.w3.org/2000/svg" x="0" y="0" viewBox="0 0 100 60" xml:space="preserve"><style>.st0{fill-rule:evenodd;clip-rule:evenodd;fill:#4db45e}</style><g id="g5"><path id="path7" class="st0" d="M34.7 20.6s-2.6 0-3.3 2.5c-.6 2.3-2.4 8.5-2.5 8.7h-.5s-1.8-6.4-2.5-8.7c-.7-2.5-3.3-2.5-3.3-2.5h-5.9v18.7h5.9V28.2h.4l3.4 11.1h4.1l3.4-11.1h.5v11.1h5.9V20.6h-5.6z"/></g><g id="g9"><path id="path11" class="st0" d="M56.3 20.6s-1.7.2-2.5 2l-4.2 9.2h-.5V20.6h-5.9v18.7h5.6s1.8-.2 2.6-2l4.1-9.2h.5v11.1h5.9V20.6h-5.6z"/></g><g id="g13"><path id="path15" class="st0" d="M64.4 29.1v10.2h5.9v-6h6.4c2.8 0 5.1-1.8 6-4.3H64.4z"/></g><g id="g17"><linearGradient id="path24_1_" gradientUnits="userSpaceOnUse" x1="63.607" y1="37.52" x2="83.076" y2="37.52" gradientTransform="matrix(1 0 0 -1 0 62)"><stop offset=".3" stop-color="#00b4e6"/><stop offset="1" stop-color="#088ccb"/></linearGradient><path id="path24" d="M76.7 20.6H63.6c.7 3.6 3.3 6.4 6.8 7.4.8.2 1.6.3 2.5.3H83c.1-.4.1-.9.1-1.3 0-3.5-2.9-6.4-6.4-6.4z" fill-rule="evenodd" clip-rule="evenodd" fill="url(#path24_1_)"/></g></svg>