<svg width="100" height="60" viewBox="0 0 100 60" version="1.1" xmlns="http://www.w3.org/2000/svg" xmlns:xlink="http://www.w3.org/1999/xlink"><title>Monero-dark</title><desc>Created with Sketch.</desc><g id="Dark-Payment-badges" stroke="none" stroke-width="1" fill="none" fill-rule="evenodd" transform="translate(-290.000000, -1289.000000)"><g id="Monero-dark" transform="translate(290.000000, 1289.000000)"><rect id="Rectangle" fill="#4C4C4C" x="0" y="0" width="100" height="60" rx="4"/><path d="M24.9943262,21.156 C20.0751773,21.156 16.0964539,25.116 16.0964539,30.012 C16.0964539,30.996 16.2652482,31.932 16.5546099,32.82 L19.2070922,32.82 L19.2070922,25.38 L24.9943262,31.14 L30.7815603,25.38 L30.7815603,32.82 L33.4340426,32.82 C33.7234043,31.932 33.8921986,30.996 33.8921986,30.012 C33.8921986,25.116 29.9134752,21.156 24.9943262,21.156 L24.9943262,21.156 L24.9943262,21.156 Z" id="_149931032_2_" fill="#F60"/><path d="M23.6680851,32.436 L21.1361702,29.916 L21.1361702,34.596 L20.1716312,34.596 L19.2070922,34.596 L17.3985816,34.596 C18.9659574,37.14 21.787234,38.844 24.9943262,38.844 C28.2014184,38.844 31.0468085,37.14 32.5900709,34.596 L30.7815603,34.596 L29.0453901,34.596 L28.8524823,34.596 L28.8524823,29.916 L26.3446809,32.436 L25.0184397,33.756 L23.6680851,32.436 L23.6680851,32.436 Z" id="_149931160_2_" fill="#FFF"/><path d="M82.7460993,27.996 C81.9985816,27.228 81.0822695,26.868 80.0453901,26.868 C79.3460993,26.868 78.6950355,27.036 78.1163121,27.396 C77.5134752,27.732 77.0312057,28.212 76.693617,28.812 C76.3560284,29.412 76.187234,30.06 76.187234,30.756 C76.187234,31.812 76.5489362,32.724 77.2964539,33.492 C78.0439716,34.26 78.9602837,34.644 80.0695035,34.644 C81.1304965,34.644 82.0468085,34.26 82.7943262,33.516 C83.541844,32.772 83.9035461,31.86 83.9035461,30.78 C83.8794326,29.676 83.5177305,28.74 82.7460993,27.996 L82.7460993,27.996 Z M81.7574468,32.532 C81.2751773,33.012 80.7205674,33.252 80.0453901,33.252 C79.4425532,33.252 78.9361702,33.06 78.4780142,32.7 C77.8992908,32.22 77.5858156,31.572 77.5858156,30.756 C77.5858156,30.012 77.8269504,29.412 78.2851064,28.932 C78.7432624,28.452 79.3219858,28.212 80.0212766,28.212 C80.6964539,28.212 81.2751773,28.452 81.7574468,28.932 C82.2397163,29.412 82.4808511,30.012 82.4808511,30.708 C82.4808511,31.452 82.2397163,32.052 81.7574468,32.532 L81.7574468,32.532 Z" id="Shape" fill="#FFF"/><path d="M73.7035461,31.164 C74.1858156,30.996 74.5716312,30.732 74.812766,30.396 C75.0539007,30.06 75.1744681,29.628 75.1744681,29.124 C75.1744681,28.644 75.0539007,28.212 74.8368794,27.852 C74.6198582,27.492 74.3304965,27.252 73.9446809,27.084 C73.5588652,26.916 72.9560284,26.844 72.1120567,26.844 L69.387234,26.844 L69.387234,34.596 L70.8822695,34.596 L70.8822695,31.308 L72.1843972,31.308 L73.9446809,34.596 L75.5602837,34.596 L73.7035461,31.164 L73.7035461,31.164 Z M73.4624113,29.7 C73.293617,29.82 73.1971631,29.892 72.7148936,29.892 L70.858156,29.892 L70.858156,28.308 L72.6666667,28.308 C73.0283688,28.308 73.1007092,28.332 73.2453901,28.38 C73.3900709,28.428 73.5106383,28.524 73.6070922,28.644 C73.7035461,28.764 73.7276596,28.908 73.7276596,29.076 C73.7276596,29.388 73.6553191,29.58 73.4624113,29.7 L73.4624113,29.7 Z" id="Shape" fill="#FFF"/><polygon id="Shape" fill="#FFF" points="62.7319149 26.868 67.7957447 26.868 67.7957447 28.308 64.2028369 28.308 64.2028369 29.892 67.7957447 29.892 67.7957447 31.308 64.2028369 31.308 64.2028369 33.156 67.7957447 33.156 67.7957447 34.62 62.7319149 34.62"/><polygon id="Shape" fill="#FFF" points="54.8950355 26.868 56.3177305 26.868 59.6695035 31.956 59.6695035 26.868 61.1404255 26.868 61.1404255 34.62 59.7177305 34.62 56.3900709 29.532 56.3900709 34.62 54.8950355 34.62"/><path d="M52.6042553,27.996 C51.8567376,27.252 50.9404255,26.868 49.9035461,26.868 C49.2042553,26.868 48.577305,27.036 47.9744681,27.396 C47.3716312,27.732 46.9134752,28.212 46.551773,28.812 C46.2141844,29.412 46.0453901,30.06 46.0453901,30.756 C46.0453901,31.812 46.4070922,32.724 47.1546099,33.492 C47.8780142,34.26 48.8184397,34.644 49.9276596,34.644 C50.9886525,34.644 51.8808511,34.284 52.6283688,33.516 C53.3758865,32.772 53.7375887,31.86 53.7375887,30.78 C53.7134752,29.676 53.351773,28.74 52.6042553,27.996 L52.6042553,27.996 Z M51.6156028,32.508 C51.1574468,32.988 50.5787234,33.228 49.9035461,33.228 C49.3007092,33.228 48.7943262,33.036 48.3361702,32.676 C47.7574468,32.196 47.4439716,31.548 47.4439716,30.732 C47.4439716,30.012 47.6851064,29.388 48.1432624,28.932 C48.6014184,28.452 49.1801418,28.212 49.8794326,28.212 C50.5546099,28.212 51.1333333,28.452 51.6156028,28.932 C52.0978723,29.412 52.3390071,30.012 52.3390071,30.708 C52.3148936,31.452 52.0737589,32.028 51.6156028,32.508 L51.6156028,32.508 Z" id="Shape" fill="#FFF"/><polygon id="_74749088_2_" fill="#FFF" points="37.6297872 26.868 39.0765957 26.868 40.8851064 32.292 42.7177305 26.868 44.1404255 26.868 45.4425532 34.62 44.0198582 34.62 43.1758865 29.724 41.5120567 34.62 40.2099291 34.62 38.5702128 29.724 37.7262411 34.62 36.2794326 34.62"/></g></g></svg>