<svg width="100" height="60" xmlns="http://www.w3.org/2000/svg"><g fill="none" fill-rule="evenodd"><rect fill="#000" width="100" height="60" rx="4"/><path d="M55.715 18.016c.222.05.444.124.666.157.92.148 1.66.643 2.294 1.295.156.156.312.47.246.635-.074.181-.37.354-.592.387-2.072.305-4.086.85-6.018 1.65-1.119.462-2.212 1.022-3.281 1.591-2.327 1.254-4.218 3.06-6.068 4.916-1.957 1.963-3.783 4.041-5.378 6.31a68.89 68.89 0 0 0-2.812 4.354c-.444.742-.732 1.575-1.094 2.367-.057.115-.18.322-.222.305-.156-.05-.386-.14-.427-.264-.099-.305-.198-.66-.14-.965.312-1.658 1.003-3.183 1.768-4.676 1.488-2.887 3.355-5.518 5.534-7.91a83.169 83.169 0 0 1 3.848-3.958c1.99-1.922 4.21-3.547 6.685-4.8 1.143-.577 2.327-1.015 3.585-1.254.213-.041.419-.09.624-.132.272-.008.527-.008.782-.008z" fill="#F78223"/><path d="M16.041 36.44c.115-.618.206-1.187.32-1.756.593-3.126 1.193-6.243 1.785-9.369.041-.198.099-.33.296-.363 1.538-.23 3.084-.396 4.621-.008 1.34.33 2.278 1.278 2.434 2.392.32 2.218-.97 3.991-2.886 4.626-1.011.33-2.04.413-3.084.314-.246-.025-.32.041-.361.28a255.87 255.87 0 0 1-.691 3.62c-.016.1-.107.257-.164.257-.749.016-1.48.008-2.27.008zm3.536-6.127c.501 0 .954.041 1.39-.008.855-.091 1.537-.479 1.923-1.295.436-.924.124-1.905-.698-2.194-.584-.206-1.185-.165-1.785-.082-.074.008-.172.123-.189.197l-.641 3.382zm11.043 4.544c-.412.43-.74.866-1.16 1.188-.863.668-1.85.816-2.845.355-.986-.454-1.39-1.337-1.43-2.376-.09-2.185.674-3.991 2.507-5.245 1.152-.792 2.475-1.031 3.849-.957.698.041 1.39.206 2.088.305.28.042.32.198.271.437-.312 1.633-.641 3.258-.904 4.891-.14.866-.181 1.757-.239 2.631-.016.264-.082.371-.353.363a23.64 23.64 0 0 0-1.53 0c-.263.008-.353-.09-.328-.346.032-.396.049-.809.074-1.246zm.575-5.097c-.797-.222-1.463-.066-2.023.404-1.052.891-1.529 2.046-1.439 3.423.025.42.19.825.634 1.006.444.182.847.05 1.192-.247.205-.182.403-.388.55-.619.782-1.196.798-2.598 1.086-3.967zm15.525 6.879c-2.18 0-3.421-.809-3.874-2.26-.748-2.392.691-6.128 4.21-6.524 1.053-.115 2.04.017 2.903.66.822.61 1.225 1.468 1.283 2.482.065 1.056-.116 2.062-.609 3.003-.929 1.748-2.417 2.597-3.914 2.639zm-1.53-3.596c0 .124-.008.256 0 .38.066.865.682 1.418 1.496 1.344.453-.042.806-.28 1.086-.627.732-.932 1.011-2.004.912-3.167-.082-.949-.797-1.452-1.669-1.254-.427.1-.748.363-1.003.71-.567.783-.797 1.665-.822 2.614zm8.009-5.015h2.088c-.033.446-.066.875-.107 1.312.239-.223.452-.437.674-.627.814-.71 1.744-1.023 2.82-.85.889.149 1.505.8 1.604 1.716.115 1.023-.099 2.012-.288 3.002-.23 1.196-.452 2.392-.69 3.58-.025.107-.148.263-.23.272-.708.016-1.415.008-2.122 0-.033 0-.066-.025-.132-.058a142.787 142.787 0 0 0 .92-5.254 1.78 1.78 0 0 0-.007-.552c-.066-.635-.534-.924-1.143-.734-.592.19-.945.651-1.233 1.162-.428.751-.576 1.584-.724 2.417-.164.915-.32 1.823-.501 2.738-.025.107-.148.272-.23.28-.724.025-1.456.017-2.262.017a928.908 928.908 0 0 0 1.563-8.42zm10.459 5.114c-.058.858.526 1.468 1.397 1.575.847.099 1.661-.033 2.45-.338.083-.033.173-.066.264-.1.016-.007.04 0 .107 0 .049.504.107 1.007.131 1.51.008.1-.107.256-.205.297-1.373.561-2.796.759-4.243.388-1.349-.347-2.089-1.32-2.237-2.68-.213-1.922.346-3.605 1.834-4.875 1.225-1.047 2.664-1.377 4.226-.907 1.045.313 1.628 1.097 1.702 2.177.074 1.064-.386 1.88-1.373 2.375-.773.388-1.603.528-2.45.578-.526.025-1.06 0-1.603 0zm.238-1.79c.633.132 1.932-.025 2.434-.289.345-.181.518-.47.46-.816-.057-.355-.296-.528-.625-.61-.978-.24-2.137.618-2.269 1.715zm7.976 1.823c-.074.808.501 1.427 1.381 1.542.822.099 1.612-.025 2.385-.305.131-.05.255-.1.427-.165.05.536.115 1.04.14 1.542.008.1-.107.256-.197.297-1.398.577-2.837.775-4.309.371-1.324-.363-2.014-1.328-2.179-2.647-.205-1.69.23-3.217 1.406-4.47 1.267-1.345 2.82-1.823 4.613-1.328 1.094.305 1.677 1.097 1.743 2.21.066 1.089-.427 1.905-1.455 2.384-1.036.478-2.138.552-3.256.577-.222-.008-.452-.008-.7-.008zm.238-1.757c.527-.033 1.02-.041 1.505-.107a3.18 3.18 0 0 0 .954-.28c.32-.14.477-.438.427-.8-.049-.347-.28-.512-.6-.594-.97-.264-2.179.626-2.286 1.781zm5.312 5.022c.107-.61.206-1.162.312-1.723.428-2.136.864-4.272 1.045-6.458.008-.09.131-.239.197-.247.625-.017 1.25-.008 1.924-.008-.05.585-.09 1.138-.131 1.682.756-1.113 1.628-2.02 3.19-1.856-.156.784-.288 1.51-.444 2.227-.017.058-.123.132-.19.14-1.62.215-2.302.792-2.704 2.458-.28 1.155-.47 2.342-.708 3.514-.016.099-.106.255-.164.255-.756.025-1.513.017-2.327.017z" fill="#FFF"/><path d="M37.757 25.991a10.222 10.222 0 0 1-.617 3.34 1.086 1.086 0 0 1-.206.314c-.18.24-.378.264-.518 0a4.88 4.88 0 0 1-.419-1.089 98.448 98.448 0 0 1-.732-3.513c-.287-1.501-.542-3.01-.806-4.512-.04-.214-.057-.437-.074-.651-.016-.247.124-.371.338-.289.213.075.427.198.583.355 1.308 1.394 2.13 3.018 2.352 4.932.05.371.066.742.099 1.113z" fill="#F78223"/></g></svg>