<svg width="101" height="61" xmlns="http://www.w3.org/2000/svg"><g transform="matrix(1 0 0 -1 0 61)" fill="none" fill-rule="evenodd"><rect fill="#FFF" x=".188" y=".153" width="100" height="60" rx="4"/><path d="M61.531 33.75c-.268-1.764-1.615-1.764-2.919-1.764h-.741l.52 3.294a.409.409 0 00.404.345h.34c.888 0 1.725 0 2.157-.505.259-.302.337-.75.24-1.37m-.568 4.603H56.05a.683.683 0 01-.675-.577l-1.987-12.6a.41.41 0 01.404-.474h2.522c.235 0 .435.17.472.403l.564 3.573a.682.682 0 00.674.576h1.555c3.237 0 5.106 1.567 5.594 4.672.22 1.357.008 2.424-.627 3.171-.699.821-1.938 1.256-3.582 1.256" fill="#0079C1"/><path d="M26.48 33.75c-.268-1.764-1.615-1.764-2.919-1.764h-.74l.52 3.294a.409.409 0 00.404.345h.34c.887 0 1.724 0 2.157-.505.258-.302.336-.75.238-1.37m-.567 4.603H21a.683.683 0 01-.675-.577l-1.987-12.6a.41.41 0 01.405-.474h2.346c.336 0 .622.244.675.576l.536 3.4a.682.682 0 00.674.576h1.555c3.237 0 5.106 1.567 5.594 4.672.22 1.357.009 2.424-.627 3.171-.699.821-1.937 1.256-3.582 1.256m11.408-9.126c-.227-1.345-1.294-2.248-2.656-2.248-.682 0-1.229.22-1.58.636-.348.412-.48.999-.369 1.652.212 1.333 1.297 2.265 2.637 2.265.669 0 1.211-.222 1.57-.642.36-.422.502-1.013.398-1.663m3.28 4.58h-2.353a.41.41 0 01-.405-.346l-.104-.658-.164.238c-.51.74-1.646.988-2.78.988-2.6 0-4.82-1.97-5.253-4.734-.224-1.379.095-2.696.877-3.615.718-.845 1.742-1.197 2.963-1.197 2.096 0 3.258 1.346 3.258 1.346l-.105-.654a.41.41 0 01.405-.473h2.119c.336 0 .622.244.674.576l1.273 8.056a.41.41 0 01-.405.473" fill="#00457C"/><path d="M72.373 29.227c-.227-1.345-1.294-2.248-2.656-2.248-.682 0-1.23.22-1.58.636-.349.412-.48.999-.369 1.652.212 1.333 1.296 2.265 2.637 2.265.669 0 1.211-.222 1.569-.642.36-.422.502-1.013.4-1.663m3.279 4.58h-2.354a.41.41 0 01-.404-.346l-.104-.658-.164.238c-.51.74-1.646.988-2.78.988-2.6 0-4.82-1.97-5.253-4.734-.225-1.379.095-2.696.877-3.615.718-.845 1.742-1.197 2.963-1.197 2.096 0 3.258 1.346 3.258 1.346l-.105-.654a.41.41 0 01.405-.473h2.118c.337 0 .623.244.675.576l1.273 8.056a.41.41 0 01-.405.473" fill="#0079C1"/><path d="M53.135 33.807H50.77a.681.681 0 01-.565-.3l-3.263-4.805-1.382 4.618a.684.684 0 01-.655.487H42.58a.41.41 0 01-.387-.542l2.604-7.645-2.45-3.456a.41.41 0 01.335-.647h2.362c.224 0 .434.11.562.294l7.865 11.353a.41.41 0 01-.336.643" fill="#00457C"/><path d="M78.426 38.007L76.41 25.175a.41.41 0 01.405-.473h2.028c.336 0 .623.244.675.576l1.989 12.601a.41.41 0 01-.405.474h-2.27a.409.409 0 01-.405-.346" fill="#0079C1"/></g></svg>