<svg width="100" height="60" xmlns="http://www.w3.org/2000/svg"><g fill="none" fill-rule="evenodd"><rect fill="#95BF3E" width="100" height="60" rx="4"/><path d="M72.771 25.831a.733.733 0 01-.732-.733V21.86h-.27c-1.674 0-2.298.276-2.298 1.802v4.378c-.001.027-.003.052-.003.08v4.99c0 .609-.117 1.094-.36 1.471-.456.704-1.36 1.024-2.808 1.026-1.446-.002-2.35-.322-2.807-1.025-.243-.377-.36-.863-.36-1.473V28.12c0-.028-.002-.053-.003-.08v-4.376c0-1.527-.624-1.803-2.3-1.803h-.527c-1.675 0-2.298.276-2.298 1.802v9.446c0 1.52.343 2.807 1.005 3.843 1.279 2.01 3.756 3.08 7.277 3.08h.026c3.522 0 5.999-1.07 7.278-3.08.662-1.036 1.005-2.323 1.005-3.843v-7.276H72.77m7.746-5.22h-2.755a.544.544 0 01-.544-.545v-2.79a.546.546 0 01.545-.544l2.756.001c.3 0 .544.244.544.544l-.001 2.79c0 .3-.244.544-.545.544m-3.671-3.879h-1.872a.37.37 0 01-.37-.37l.001-1.895a.37.37 0 01.37-.37l1.871.001a.37.37 0 01.37.37v1.895a.37.37 0 01-.37.37m-47.38 10.872c0 2.242-.572 3.456-3.592 3.456h-4.647v-5.785c0-.802.298-1.1 1.1-1.1h3.547c2.275 0 3.592.561 3.592 3.43zm-3.592-5.75h-4.007c-2.142 0-3.097.955-3.097 3.096V38.71c0 .827.265 1.093 1.093 1.093h.27c.828 0 1.094-.266 1.094-1.093v-5.352h4.647c4.127 0 6.048-1.827 6.048-5.75s-1.921-5.75-6.048-5.75zM40.566 33.62v1.885c0 1.537-.57 2.427-3.483 2.427-1.925 0-2.86-.696-2.86-2.129 0-1.571.938-2.184 3.347-2.184h2.996zm-3.483-7.82c-1.588 0-2.584.2-2.961.275-.668.145-.948.329-.948 1.089v.217c0 .297.044.504.139.649.11.169.287.255.527.255.117 0 .253-.02.415-.06.381-.096 1.602-.293 2.936-.293 2.398 0 3.375.664 3.375 2.292v1.452h-3.023c-3.886 0-5.696 1.311-5.696 4.126 0 2.73 1.87 4.234 5.263 4.234 4.033 0 5.832-1.373 5.832-4.45v-5.362c0-2.977-1.917-4.424-5.859-4.424zm19.151.642c-.171-.215-.495-.244-.82-.244h-.243c-.809 0-1.126.25-1.305 1.025l-2.247 9.342c-.281 1.148-.675 1.358-1.35 1.358-.825 0-1.156-.197-1.485-1.363l-2.545-9.341c-.211-.783-.522-1.021-1.33-1.021h-.217c-.327 0-.652.03-.82.247-.166.219-.11.544-.024.864l2.573 9.422c.482 1.804 1.056 3.296 3.199 3.296.4 0 .77-.055 1.078-.16-.65 2.045-1.312 2.947-3.262 3.147-.395.033-.652.09-.796.282-.148.199-.115.484-.061.74l.053.24c.117.56.315.906.942.906.066 0 .137-.004.213-.01 2.911-.19 4.472-1.758 5.385-5.41l3.114-12.46c.074-.32.119-.645-.052-.86m20.249-6.265l-3.71-.001a.733.733 0 00-.733.732v.518h.257c1.676 0 2.299.277 2.299 1.803v2.17h1.885a.733.733 0 00.733-.733l.002-3.756a.733.733 0 00-.733-.733" fill="#FFF"/></g></svg>