<svg width="100" height="60" xmlns="http://www.w3.org/2000/svg"><rect fill="#FFF" width="100" height="60" rx="4"/><path fill-rule="evenodd" clip-rule="evenodd" fill="#D13239" d="M29.1 31.8H35l-.2 1.3-5 4.8H34l-.2 1.5h-6.1l.3-1.5 4.8-4.6H29l.1-1.5zm-6.5-2.3c-.1-.1-.3-.2-.5-.3-.2-.1-.5-.1-.7-.2-.3 0-.5-.1-.8-.1h-4.8L14 39.4h1.6l.6-3.9h3.1s1.2 0 2.1-.4 1.1-1.5 1.1-1.5.1-.4.2-.9.2-1.1.2-1.5v-.5c0-.3-.1-.6-.2-.9.1-.1 0-.2-.1-.3zm-1.3 1.9s-.1.9-.3 1.8c-.1.4-.4.6-.7.7-.5.1-1.2.1-1.2.1h-2.6l.6-3.5h3.7c.2 0 .4.1.5.2.1.1.1.2.1.3-.1.2-.1.3-.1.4zm21.8-2.5h1.5l-1.7 10.5h-1.6l1.8-10.5zm8.3 2.9h1.5l.5 5.3 2.3-5.3h1.8l.5 5.3 2.3-5.3H62l-3.3 7.5h-1.8l-.5-5.3-2.4 5.4h-1.8l-.8-7.6z"/><path fill="#D13239" d="M40.2 31.9c-.4-.1-1.2-.2-1.8-.2-.6 0-.9 0-1.1.1 0 0-1.1.2-1.7.9-.6.8-.8 2.5-.8 2.5s-.4 1.9-.3 2.5.3 1.2 1 1.5c.4.2.9.2 1.3.3 0 0 1.3.1 2.2-.1.6-.1 1.1-.5 1.5-.9.2-.2.3-.4.4-.6.1-.2.2-.4.2-.6l.1-.4h-1.6s-.1 1.1-1 1.2-1.4-.1-1.6-.1c-.2 0-1.1 0-1-.8 0-.9.1-1.1.1-1.1h5.1l.2-1.2c.3-1.5.1-2.6-1.2-3zm-.3 2.8h-3.5l.1-.5s.1-.4.4-.6c.2-.2.5-.2.8-.2.3 0 1.1-.1 1.7 0 .2 0 .4.2.5.3.1.3 0 1 0 1zM36 37.2zm9.6 0zm4.2-5.3c-.4-.1-1.2-.2-1.8-.2-.6 0-.9 0-1.1.1 0 0-1.1.2-1.7.9-.6.8-.8 2.5-.8 2.5s-.4 1.9-.3 2.5.3 1.2 1 1.5c.4.2.9.2 1.3.3 0 0 1.3.1 2.2-.1.6-.1 1.1-.5 1.5-.9.2-.2.3-.4.4-.6.1-.2.2-.4.2-.6l.1-.4h-1.6s-.1 1.1-1 1.2c-.5.1-1 .1-1.5.1-.2 0-1.1 0-1-.8 0-.9.1-1.1.1-1.1h5.1l.2-1.2c.2-1.7 0-2.8-1.3-3.2zm-.4 2.8H46l.1-.5s.1-.4.4-.6c.2-.2.5-.2.8-.2.3 0 1.1-.1 1.7 0 .2 0 .4.2.5.3.1.3-.1 1-.1 1z"/><path fill-rule="evenodd" clip-rule="evenodd" fill="#D13239" d="M63.8 31.8l1 5.5 2.8-5.5h1.6l-4.1 7.9s-.7 1.4-1.2 1.8-.7.5-1.1.6-.5.1-.9 0l-.4-.1.2-1.4s.6.1 1 0 .7-.8.7-.8l.2-.3-1.5-7.6c.1-.1 1.6-.1 1.7-.1z"/><path fill-rule="evenodd" clip-rule="evenodd" fill="#B3B2B1" d="M69.7 32.6h1.6l.1-.6s.2-1.1.6-1.4c.1-.1.3-.1.6-.2.4-.1 1-.1 1.4-.1.7 0 .9 0 1.6.1s.5.8.5.8l-.1 1s-.1.5-.2.7c-.1.2-.5.4-.8.5-.5.2-2.4.7-2.4.7l-1.4.4s-.9.3-1.4.8c-.4.4-.7 1-.8 1.5-.1.3-.4 2.6-.4 2.6h7.8l.3-1.6h-6.2l.1-.6s.1-.7.3-.9c.1-.1.1-.2.6-.3.3-.1 1.3-.4 1.3-.4l2.3-.6s1.3-.3 1.8-1 .7-2 .7-2 .1-1.3 0-1.7-.5-.9-.9-1.1c-.5-.2-.9-.3-2.4-.3s-2.1.1-2.8.4-1.1.7-1.4 1.4c-.2.5-.4 1.9-.4 1.9zm14.8 3.7l1.1-6.6h-1.9l-6.1 6.5-.3 1.7h5.3l-.4 2.3h1.6l.4-2.3h1.5l.3-1.6h-1.5zm-1.6 0h-3.4l4.2-4.4-.8 4.4zM26 29.8h5s1.1-.9 1.9-1.5 2.2-1.5 2.2-1.5l-2.8-1.3s-2.4 1.5-3.4 2.2c-.9.6-2.9 2.1-2.9 2.1zm10.7-3.9l-2.3-1.6c1.6-.9 3.2-1.6 4.9-2.3 2.8-1.1 4.3-1.6 4.3-1.6l.5 2.2s-2.7.9-4.2 1.6c-1.7.8-3.2 1.7-3.2 1.7zm9.1-3.7l-.4-2.3s2.9-.8 5.5-1.2S57 18 57 18l-1.2 3.5s-3-.4-5.9 0c-1.4.1-2.8.3-4.1.7zm11.8-.5l1.9-3.9s4.2-.1 7.9.5 7 1.4 6.9 1.5l-9.2 4.8s-2.2-1.4-4.8-2.2c-1.6-.4-2.7-.7-2.7-.7zm9.1 4l2 1.5h16.7s0-.5-.5-1.3c-.3-.5-.8-1-1.3-1.5-.2-.2-1-.8-1.5-1.2-1.5-1-2.3-1.3-3.8-2l-11.6 4.5z"/><path fill="#D13239" d="M27.1 31.8c-.6 0-1.2.2-1.7.5l.1-.5h-1.7l-1.3 7.5h1.7l.7-4.2c.1-.8.8-1.9 2-1.9h.9l.3-1.5c-.1.1-1 .1-1 .1z"/></svg>