<svg width="100" height="60" xmlns="http://www.w3.org/2000/svg"><defs><radialGradient cx="62.682%" cy="42.748%" fx="62.682%" fy="42.748%" r="52.47%" gradientTransform="matrix(1 0 0 .91752 0 .035)" id="a"><stop stop-color="#4492B7" offset="0%"/><stop stop-color="#366CAA" offset="100%"/></radialGradient></defs><g fill="none" fill-rule="evenodd"><rect fill="#FFF" width="100" height="60" rx="4"/><path d="M35.634 35.05v-9.864h2.873v.882c.203-.237.44-.44.71-.61.507-.34 1.115-.475 1.791-.475.17 0 .305 0 .474.034.135.034.304.068.44.102l.202.067V28l-.338-.102c-.17-.034-.372-.101-.54-.135-.17-.034-.339-.034-.508-.034-.473 0-.879.102-1.15.271a2 2 0 0 0-.675.61 1.69 1.69 0 0 0-.305.678c-.067.305-.067.44-.067.509v5.254h-2.907zm7.842 0v-9.864h2.873v9.865h-2.873zm-.068-12.745c0-.373.136-.712.406-.983s.642-.407 1.048-.407c.44 0 .777.136 1.082.407.304.271.44.61.44 1.017 0 .407-.136.746-.44.983a1.533 1.533 0 0 1-1.082.407c-.44 0-.777-.136-1.048-.407-.27-.305-.406-.644-.406-1.017zm4.767 17.187V25.186h2.771v.882a2.74 2.74 0 0 1 1.015-.712 4.723 4.723 0 0 1 1.96-.407c.744 0 1.42.136 2.028.407a4.685 4.685 0 0 1 1.555 1.119c.44.474.744 1.017.98 1.66.203.61.339 1.289.339 2a5.84 5.84 0 0 1-.338 2.034c-.237.61-.575 1.187-.98 1.628a4.236 4.236 0 0 1-1.522 1.118 4.57 4.57 0 0 1-1.927.407c-.473 0-.879-.034-1.217-.136a5.015 5.015 0 0 1-.946-.372 2.707 2.707 0 0 1-.71-.509l-.034-.034v5.254h-2.974v-.033zm5.24-11.899c-.373 0-.745.068-1.015.204a2.654 2.654 0 0 0-.777.542 2.448 2.448 0 0 0-.474.814c-.101.305-.169.61-.169.949 0 .339.068.644.17.949.1.305.27.576.473.813.202.238.473.407.777.543.304.135.642.203 1.014.203s.744-.068 1.014-.203a2.68 2.68 0 0 0 .778-.543c.202-.237.371-.508.473-.813a2.96 2.96 0 0 0 .169-.95 2.93 2.93 0 0 0-.17-.948 2.448 2.448 0 0 0-.472-.814c-.203-.237-.474-.407-.778-.542-.27-.136-.608-.204-1.014-.204zm6.489 11.899V25.186h2.772v.882c.27-.305.609-.543 1.014-.712a4.723 4.723 0 0 1 1.96-.407c.744 0 1.42.136 2.029.407a4.685 4.685 0 0 1 1.555 1.119c.44.474.743 1.017.98 1.66.203.61.338 1.289.338 2a5.84 5.84 0 0 1-.338 2.034c-.237.61-.575 1.187-.98 1.628a4.236 4.236 0 0 1-1.521 1.118 4.573 4.573 0 0 1-1.927.407c-.473 0-.879-.034-1.217-.136a5.015 5.015 0 0 1-.946-.372 2.707 2.707 0 0 1-.71-.509l-.034-.034v5.254h-2.975v-.033zm5.273-11.899c-.371 0-.743.068-1.014.204a2.654 2.654 0 0 0-.777.542 2.448 2.448 0 0 0-.473.814c-.102.305-.17.61-.17.949 0 .339.068.644.17.949.101.305.27.576.473.813.203.238.473.407.777.543.305.135.643.203 1.014.203.372 0 .744-.068 1.015-.203.304-.136.574-.34.777-.543.203-.237.372-.508.473-.813.102-.305.17-.61.17-.95a2.93 2.93 0 0 0-.17-.948 2.448 2.448 0 0 0-.473-.814c-.203-.237-.473-.407-.777-.542a2.464 2.464 0 0 0-1.015-.204zM71.701 20h2.873v15.22h-2.873zm9.364 15.288c-.744 0-1.42-.135-2.062-.373a5.088 5.088 0 0 1-1.69-1.05c-.474-.441-.845-1.018-1.15-1.628-.27-.644-.405-1.356-.405-2.135 0-.78.135-1.492.405-2.136a4.726 4.726 0 0 1 1.15-1.627 5.088 5.088 0 0 1 1.69-1.05 6.007 6.007 0 0 1 2.062-.374 4.96 4.96 0 0 1 1.893.373c.574.237 1.081.61 1.487 1.051.406.44.71 1.017.947 1.661.236.644.338 1.424.338 2.271v.915h-7.031c.101.475.338.848.676 1.153.405.339.912.508 1.52.508.542 0 .981-.101 1.32-.305.37-.237.675-.508.98-.847l.168-.203 2.096 1.593-.169.237c-.575.712-1.217 1.22-1.927 1.525-.81.306-1.555.441-2.298.441zm1.724-6.373c-.068-.474-.237-.847-.541-1.152-.372-.34-.879-.509-1.521-.509-.642 0-1.116.17-1.454.509a2.237 2.237 0 0 0-.608 1.152h4.124z" fill="#111"/><path d="M24.445 37.661c1.048 2 3.516 2.78 5.51 1.729a4.102 4.102 0 0 0 1.724-5.526 4.145 4.145 0 0 0-3.65-2.203c-.406 0-.846-.102-1.184-.407-.642-.508-.811-1.423-.372-2.101.338-.543 1.014-.746 1.589-.712 1.352 0 2.67-.678 3.448-1.899 1.217-1.898.642-4.44-1.25-5.66a4.1 4.1 0 0 0-5.646 1.287c-.845 1.323-.811 2.984-.068 4.272.068.101.102.203.17.305.1.203.135.474.135.712a1.59 1.59 0 0 1-1.657 1.525 1.653 1.653 0 0 1-1.42-.983v-.034a4.138 4.138 0 0 0-3.346-2.034 4.063 4.063 0 0 0-4.259 3.899 4.088 4.088 0 0 0 3.887 4.27c1.59.068 2.975-.779 3.719-2.067a1.57 1.57 0 0 1 1.52-.915c.102 0 .204 0 .271.034.473.101.88.372 1.116.813.304.576.169 1.22-.17 1.729a4.128 4.128 0 0 0-.067 3.966z" fill="url(#a)"/></g></svg>