<svg width="100" height="60" xmlns="http://www.w3.org/2000/svg"><g fill="none" fill-rule="evenodd"><rect fill="#0B4A8E" width="100" height="60" rx="4"/><path d="M13.04 40.58l.738-.074c.045.249.135.431.27.548.136.117.32.175.55.175.244 0 .428-.052.552-.155a.463.463 0 0 0 .185-.364.345.345 0 0 0-.077-.227.625.625 0 0 0-.272-.163 9.679 9.679 0 0 0-.606-.163c-.405-.1-.69-.224-.853-.37a.975.975 0 0 1-.345-.755c0-.19.055-.37.163-.535.108-.167.265-.293.468-.38.205-.087.45-.13.74-.13.47 0 .825.103 1.063.31.238.208.363.484.375.83l-.76.03c-.032-.193-.102-.332-.209-.417-.106-.085-.266-.127-.48-.127-.22 0-.392.045-.517.136a.273.273 0 0 0-.12.233.29.29 0 0 0 .113.228c.095.08.327.164.696.25.368.087.64.177.817.27.177.094.315.222.415.383.1.162.15.362.15.6a1.11 1.11 0 0 1-.687 1.027c-.219.092-.491.138-.818.138-.475 0-.84-.11-1.094-.332-.255-.22-.407-.542-.456-.965m3.842-1.491h.723v2.72h-.723v-2.72zm0-1.036h.723v.663h-.723v-.663zm4.095 3.756h-.722v-1.39c0-.295-.016-.485-.046-.571a.402.402 0 0 0-.15-.202.426.426 0 0 0-.248-.072.573.573 0 0 0-.334.103.516.516 0 0 0-.203.272c-.037.113-.055.322-.055.627v1.234h-.722v-2.72h.67v.4c.237-.312.536-.467.896-.467.159 0 .304.029.435.086a.73.73 0 0 1 .299.22.79.79 0 0 1 .14.302c.027.113.04.275.04.485v1.694m1.462-1.42c0 .29.055.502.166.636a.511.511 0 0 0 .41.202.565.565 0 0 0 .443-.207c.12-.138.18-.342.18-.613 0-.282-.057-.492-.173-.63a.547.547 0 0 0-.437-.205.525.525 0 0 0-.423.202c-.11.135-.166.34-.166.615zm-.648 1.598l.819.09c.014.101.046.17.095.209.069.054.177.082.324.082.189 0 .33-.029.425-.085a.35.35 0 0 0 .144-.182c.022-.06.033-.17.033-.33l.002-.398c-.213.29-.483.435-.811.435-.366 0-.656-.154-.87-.464-.167-.245-.25-.55-.25-.914 0-.457.109-.806.328-1.047.22-.242.493-.362.82-.362.336 0 .614.148.833.444v-.377h.67v2.445c0 .322-.026.563-.08.721a.89.89 0 0 1-.222.375.988.988 0 0 1-.384.213 2.02 2.02 0 0 1-.606.077c-.462 0-.79-.08-.983-.238a.75.75 0 0 1-.29-.606l.003-.088zm3.428-3.935h.723v3.756h-.723zm3.239 2.169c-.005-.212-.06-.373-.163-.483a.496.496 0 0 0-.376-.166.501.501 0 0 0-.392.175c-.103.116-.154.274-.152.474h1.083zm-.038.73l.716.12a1.175 1.175 0 0 1-.439.599c-.2.137-.449.206-.749.206-.474 0-.826-.156-1.053-.466-.18-.248-.27-.562-.27-.941 0-.453.118-.807.354-1.064.237-.256.535-.384.897-.384.406 0 .726.134.96.403.235.27.347.681.337 1.237h-1.81c.005.214.063.38.175.5a.553.553 0 0 0 .42.178c.113 0 .209-.03.286-.092a.565.565 0 0 0 .176-.296zm3.117.857v-3.756h2.78v.633h-2.02v.835h1.878v.634h-1.878v1.02h2.094v.634h-2.854m5.437 0v-.407c-.1.145-.23.26-.392.346a1.083 1.083 0 0 1-1.005.008.713.713 0 0 1-.316-.339c-.065-.145-.098-.346-.098-.603V39.09h.723v1.251c0 .383.013.618.04.704a.383.383 0 0 0 .144.206c.07.05.16.075.267.075a.565.565 0 0 0 .53-.353c.036-.1.055-.344.055-.734v-1.15h.722v2.721h-.67m2.258 0h-.722v-2.72h.67v.387c.115-.183.218-.304.31-.364a.556.556 0 0 1 .31-.09.91.91 0 0 1 .475.136l-.22.63a.637.637 0 0 0-.339-.118.403.403 0 0 0-.257.084c-.07.055-.126.156-.166.301-.04.145-.06.45-.06.913v.841m2.071-1.36c0 .271.064.479.193.623a.612.612 0 0 0 .475.216.608.608 0 0 0 .474-.216c.128-.144.192-.354.192-.628 0-.267-.064-.473-.192-.617a.608.608 0 0 0-.474-.216.612.612 0 0 0-.475.216c-.129.144-.193.351-.193.622zm-.737-.039c0-.24.059-.472.177-.697a1.21 1.21 0 0 1 .5-.514c.216-.118.458-.177.725-.177.411 0 .749.134 1.012.402s.394.608.394 1.017c0 .414-.133.756-.398 1.028-.266.272-.6.408-1.003.408a1.58 1.58 0 0 1-.714-.17 1.161 1.161 0 0 1-.516-.498c-.118-.218-.177-.484-.177-.799zm5.922-1.724v1.074h.413c.298 0 .498-.02.598-.06a.497.497 0 0 0 .322-.48.491.491 0 0 0-.12-.34.522.522 0 0 0-.304-.168 3.606 3.606 0 0 0-.544-.026h-.365zm-.76 3.123v-3.756h1.216c.46 0 .762.019.902.056.215.056.395.18.54.368.145.189.217.433.217.732 0 .23-.041.424-.125.582a1.03 1.03 0 0 1-.318.37c-.13.09-.26.15-.393.178a4.303 4.303 0 0 1-.785.054h-.494v1.416h-.76zm5.146-1.304a4.469 4.469 0 0 1-.438.11c-.199.044-.33.086-.39.127a.302.302 0 0 0-.14.255c0 .1.036.188.111.262a.39.39 0 0 0 .287.11.62.62 0 0 0 .37-.128.454.454 0 0 0 .171-.24c.019-.061.029-.179.029-.352v-.144zm-.969-.589l-.648-.12c.073-.263.2-.458.379-.584.18-.127.446-.19.8-.19.32 0 .56.038.717.114a.719.719 0 0 1 .332.29c.064.117.096.333.096.646l-.007.842c0 .24.011.416.034.53.023.114.067.235.13.365h-.715a2.473 2.473 0 0 1-.07-.209 1.64 1.64 0 0 0-.025-.083c-.123.12-.254.21-.394.27-.14.06-.29.09-.448.09-.28 0-.5-.077-.662-.229a.762.762 0 0 1-.242-.578c0-.154.037-.291.11-.412a.723.723 0 0 1 .31-.277c.132-.064.323-.12.572-.169.336-.063.57-.122.7-.177v-.072c0-.14-.035-.24-.103-.3-.07-.06-.199-.09-.39-.09a.519.519 0 0 0-.3.076.527.527 0 0 0-.176.267zm2.195-.827h.767l.652 1.931.637-1.931h.746l-1.134 3.097a1.95 1.95 0 0 1-.18.364.787.787 0 0 1-.198.204.858.858 0 0 1-.275.122c-.109.03-.231.044-.368.044a1.91 1.91 0 0 1-.408-.043l-.068-.564c.114.022.216.033.307.033.169 0 .293-.05.374-.149.08-.1.142-.226.185-.38l-1.037-2.728m3.365 0h.663v.371c.238-.292.522-.438.85-.438.175 0 .327.035.455.107a.83.83 0 0 1 .316.326c.12-.145.25-.254.388-.326a.95.95 0 0 1 .443-.107c.2 0 .37.04.508.122.139.08.243.2.311.358.05.116.074.304.074.564v1.743h-.722v-1.558c0-.27-.025-.445-.074-.523-.067-.104-.17-.155-.308-.155-.1 0-.195.031-.284.093a.512.512 0 0 0-.192.27c-.039.12-.059.307-.059.564v1.31h-.722v-1.494c0-.266-.013-.437-.039-.514a.326.326 0 0 0-.119-.172.377.377 0 0 0-.219-.057.53.53 0 0 0-.3.09.495.495 0 0 0-.19.26c-.038.112-.057.3-.057.562v1.324h-.723v-2.72m6.498 1.133c-.006-.212-.06-.373-.163-.483a.495.495 0 0 0-.376-.166.5.5 0 0 0-.392.175c-.103.116-.154.274-.152.474h1.083zm-.038.73l.716.12a1.176 1.176 0 0 1-.439.599c-.2.137-.449.206-.749.206-.474 0-.826-.156-1.053-.466-.18-.248-.27-.562-.27-.941 0-.453.118-.807.354-1.064.237-.256.535-.384.897-.384.406 0 .726.134.96.403.235.27.347.681.337 1.237h-1.81c.005.214.063.38.175.5a.552.552 0 0 0 .42.178c.113 0 .209-.03.286-.092a.562.562 0 0 0 .176-.296zm3.969.857h-.723v-1.39c0-.295-.015-.485-.046-.571a.403.403 0 0 0-.15-.202.426.426 0 0 0-.248-.072.572.572 0 0 0-.334.103.517.517 0 0 0-.203.272c-.036.113-.055.322-.055.627v1.234h-.722v-2.72h.67v.4c.238-.312.536-.467.896-.467.16 0 .305.029.436.086a.73.73 0 0 1 .298.22c.068.088.114.19.14.302.028.113.04.275.04.485v1.694m2.133-2.721v.574h-.492v1.1c0 .223.004.353.014.39.009.037.03.067.062.091a.198.198 0 0 0 .12.036c.066 0 .16-.023.285-.069l.063.558a1.417 1.417 0 0 1-.566.108.891.891 0 0 1-.35-.066.51.51 0 0 1-.227-.17.67.67 0 0 1-.1-.28 3.499 3.499 0 0 1-.024-.509v-1.19h-.327v-.573h.327v-.544l.723-.425v.969h.492m.406 1.953l.723-.112c.03.139.093.244.187.317.094.072.225.108.393.108.187 0 .327-.035.42-.103a.231.231 0 0 0 .095-.194.19.19 0 0 0-.052-.136c-.036-.035-.116-.067-.242-.096-.584-.13-.954-.247-1.11-.353a.702.702 0 0 1-.324-.614c0-.236.093-.435.28-.596.187-.16.478-.241.87-.241.375 0 .653.06.835.18a.93.93 0 0 1 .376.535l-.678.127a.42.42 0 0 0-.167-.243.616.616 0 0 0-.351-.085c-.192 0-.33.026-.412.08a.17.17 0 0 0-.083.147c0 .052.024.095.072.132.065.048.29.116.676.203.385.088.653.196.806.323.151.129.227.308.227.538a.83.83 0 0 1-.313.647c-.208.18-.516.27-.925.27-.37 0-.663-.074-.88-.224a1.035 1.035 0 0 1-.423-.61m6.939-.716l-.525-1.394-.508 1.394h1.033zm1.393 1.483h-.818l-.325-.85H74.11l-.31.85h-.804l1.455-3.756h.799l1.516 3.756zm1.241 0h-.723v-2.72h.67v.387c.115-.183.218-.304.31-.364a.555.555 0 0 1 .312-.09.91.91 0 0 1 .474.136l-.22.63a.637.637 0 0 0-.34-.118.403.403 0 0 0-.257.084c-.07.055-.125.156-.166.301-.04.145-.06.45-.06.913v.841m3.13-1.587c-.005-.212-.06-.373-.163-.483a.497.497 0 0 0-.376-.166.5.5 0 0 0-.391.175c-.104.116-.154.274-.153.474h1.083zm-.037.73l.715.12a1.175 1.175 0 0 1-.438.599c-.2.137-.45.206-.75.206-.474 0-.826-.156-1.053-.466-.18-.248-.27-.562-.27-.941 0-.453.118-.807.355-1.064.236-.256.535-.384.896-.384.406 0 .726.134.96.403.235.27.347.681.337 1.237h-1.81c.005.214.063.38.175.5a.553.553 0 0 0 .42.178.45.45 0 0 0 .287-.092.567.567 0 0 0 .176-.296zm2.992-.447a4.45 4.45 0 0 1-.437.11c-.2.044-.33.086-.391.127a.302.302 0 0 0-.14.255c0 .1.037.188.112.262.075.074.17.11.286.11a.62.62 0 0 0 .37-.128.454.454 0 0 0 .172-.24 1.47 1.47 0 0 0 .028-.352v-.144zm-.969-.589l-.648-.12c.074-.263.2-.458.38-.584.179-.127.445-.19.799-.19.321 0 .56.038.718.114a.719.719 0 0 1 .331.29c.065.117.097.333.097.646l-.008.842c0 .24.012.416.035.53.023.114.066.235.129.365h-.715a2.563 2.563 0 0 1-.07-.209 1.417 1.417 0 0 0-.025-.083c-.123.12-.254.21-.394.27-.14.06-.289.09-.448.09-.28 0-.5-.077-.662-.229a.762.762 0 0 1-.241-.578c0-.154.036-.291.11-.412a.72.72 0 0 1 .308-.277c.133-.064.324-.12.573-.169.337-.063.57-.122.7-.177v-.072c0-.14-.034-.24-.103-.3-.069-.06-.198-.09-.39-.09a.519.519 0 0 0-.3.076.528.528 0 0 0-.176.267zM28.999 23.292h-4.92c0-.808-.096-1.35-.284-1.627-.293-.408-1.101-.612-2.424-.612-1.285 0-2.136.117-2.552.353-.415.236-.623.75-.623 1.54 0 .716.184 1.187.553 1.413.264.16.614.255 1.05.283l.992.07c2.126.141 3.454.24 3.984.297 1.682.17 2.901.617 3.658 1.342.595.566.95 1.306 1.063 2.219.066.546.1 1.164.1 1.85 0 1.584-.152 2.743-.454 3.478-.548 1.348-1.778 2.199-3.693 2.556-.803.152-2.03.227-3.68.227-2.756 0-4.677-.164-5.761-.494-1.33-.404-2.208-1.222-2.633-2.455-.236-.686-.353-1.83-.353-3.43h4.92v.41c0 .853.246 1.403.735 1.647.34.169.75.257 1.23.268h1.81c.923 0 1.512-.048 1.766-.142.452-.178.749-.465.89-.861.076-.244.114-.56.114-.947 0-.865-.316-1.392-.947-1.58-.236-.075-1.333-.18-3.291-.311-1.573-.113-2.665-.22-3.277-.325-1.61-.302-2.684-.922-3.22-1.863-.47-.8-.706-2.01-.706-3.629 0-1.232.127-2.22.381-2.964.255-.744.665-1.309 1.231-1.695.83-.593 1.891-.94 3.183-1.045a41.432 41.432 0 0 1 3.58-.141c2.065 0 3.536.118 4.414.354 2.14.575 3.211 2.188 3.211 4.837 0 .217-.016.542-.047.977m26.926 3.752h3.297c1.045-.038 1.681-.118 1.91-.244.313-.172.522-.516.627-1.033.067-.343.1-.854.1-1.533 0-.832-.066-1.448-.2-1.85-.19-.565-.645-.908-1.367-1.033-.143-.019-.484-.029-1.026-.029h-3.341v5.722zm-5.29 9.637V17.02h9.854c1.352 0 2.383.11 3.092.33 1.62.509 2.708 1.549 3.265 3.121.288.825.431 2.067.431 3.726 0 1.995-.16 3.428-.475 4.3-.632 1.726-1.933 2.72-3.897 2.978-.231.038-1.214.073-2.95.1l-.877.03h-3.153v5.076h-5.29zm26.882-7.228l-2.478-8.523-2.405 8.523h4.883zm1.05 3.83h-7.071l-.95 3.398h-5.472l5.904-19.661h7.978l5.977 19.661h-5.357l-1.009-3.398z" fill="#FFF"/><path d="M43.336 19.786a6.951 6.951 0 0 1 5.408 2.58l1.14-2.446a9.992 9.992 0 0 0-6.886-2.725c-4.168 0-7.733 2.518-9.196 6.082h-2.223l-1.313 2.816h2.86a9.601 9.601 0 0 0-.035.79c0 .322.017.641.048.956h-1.437l-1.312 2.817h3.48c1.505 3.474 5.025 5.913 9.128 5.913 2.067 0 3.985-.62 5.573-1.678V31.44a6.949 6.949 0 0 1-5.235 2.378 6.965 6.965 0 0 1-5.831-3.161h7.288l1.312-2.817h-9.673a7.131 7.131 0 0 1-.041-1.746h10.528l1.312-2.816h-10.93a6.969 6.969 0 0 1 6.035-3.491" fill="#F6BC25"/></g></svg>