<svg width="100" height="60" viewBox="0 0 100 60" version="1.1" xmlns="http://www.w3.org/2000/svg" xmlns:xlink="http://www.w3.org/1999/xlink"><title>Skrill-dark</title><desc>Created with Sketch.</desc><g id="Dark-Payment-badges" stroke="none" stroke-width="1" fill="none" fill-rule="evenodd" transform="translate(-450.000000, -589.000000)"><g id="Skrill-dark" transform="translate(450.000000, 589.000000)"><rect id="Rectangle" fill="#862165" x="0" y="0" width="100" height="60" rx="4"/><path d="M62.8081509,35.205358 C64.1386268,35.205358 65.2164154,36.2828028 65.2164154,37.6119035 C65.2164154,38.941348 64.1386268,40.0198242 62.8081509,40.0198242 C61.4800816,40.0198242 60.402293,38.941348 60.402293,37.6119035 C60.402293,36.2828028 61.4800816,35.205358 62.8081509,35.205358 L62.8081509,35.205358 Z M44.3643861,33.9061672 C44.255404,33.6328524 43.4736205,31.4236436 41.5817319,29.1339874 L41.5817319,38.9241584 L36.541738,37.9281923 L36.541738,20.1816381 L41.5817319,20.1816381 L41.5817319,25.6671867 C43.0418174,23.4782616 43.7624059,20.1816381 43.7624059,20.1816381 L49.7993972,20.1816381 C49.2022302,22.6641617 46.5900969,27.241755 46.5900969,27.241755 C48.934416,30.2138388 49.9640737,33.3808527 50.1277188,33.9061672 L44.3643861,33.9061672 L44.3643861,33.9061672 Z M57.6141381,34.0911274 C53.1001463,33.9460471 50.8080836,31.9207671 50.8080836,27.8946165 L50.8080836,20.1816381 L55.7335947,20.1816381 L55.7335947,26.4716605 C55.7335947,28.8819877 56.0491959,29.9157709 58.9095472,30.0140955 L58.9095472,34.0203062 C58.4282381,34.1227563 57.6141381,34.0911274 57.6141381,34.0911274 L57.6141381,34.0911274 Z M28.0892625,31.9517084 C27.4718117,31.9919321 26.0426675,32.0844122 26.0426675,33.3712265 C26.0426675,34.9237921 28.1002639,34.9237921 28.8720774,34.9237921 C30.2290253,34.9237921 31.9864911,34.5232742 33.2416765,34.1475093 C33.2416765,34.1475093 33.9419812,33.9006665 34.5377732,33.6479792 L34.5931237,33.6328524 L34.5931237,33.6892343 L34.5931237,37.8852183 L34.5171456,37.9075648 C33.035745,38.4256596 31.313346,38.9241584 28.1202038,38.9241584 C22.6143715,38.9241584 20.6636945,35.7169208 20.6636945,32.9693334 C20.6636945,31.3854826 21.3423403,27.6573998 27.6481771,27.2273158 C28.1824302,27.1946555 29.6009169,27.112833 29.6009169,25.7833885 C29.6009169,24.6853161 28.4395868,24.0382992 26.4865032,24.0382992 C24.3460529,24.0382992 22.2688603,24.5838974 21.0078305,25.1016485 L21.0078305,20.7224232 C22.8962811,20.2277062 25.0243549,19.9801758 27.5192551,19.9801758 C32.9026974,19.9801758 35.3137122,23.0148297 35.3137122,26.0223241 C35.3137122,29.4323991 32.6156309,31.6484837 28.0892625,31.9517084 L28.0892625,31.9517084 Z M60.3668824,20.1816381 L65.251826,20.1816381 L65.251826,33.8903527 L60.3668824,33.8903527 L60.3668824,20.1816381 L60.3668824,20.1816381 Z M74.4503306,38.0505823 L74.4503306,20.1816381 L79.3363055,20.1816381 L79.3363055,38.9241584 L74.4503306,38.0505823 L74.4503306,38.0505823 Z M67.3214552,38.0505823 L72.2022733,38.9241584 L72.2022733,20.1816381 L67.3214552,20.1816381 L67.3214552,38.0505823 L67.3214552,38.0505823 Z" id="path3005" fill="#FFF" transform="translate(50.000000, 30.000000) scale(1, -1) translate(-50.000000, -30.000000)"/></g></g></svg>