<svg width="100" height="60" xmlns="http://www.w3.org/2000/svg"><g fill="none" fill-rule="evenodd"><rect fill="#2996CC" width="100" height="60" rx="4"/><path d="M34.323 27.272c0 .917.262 1.62.8 2.147.503.493 1.26.845 2.384 1.11 2.76.648 3.328 1.474 3.33 2.514 0 1.387-1.294 2.515-2.885 2.515h-.009c-.826 0-1.616-.318-2.166-.874a2.416 2.416 0 0 1-.721-1.702h-1.14c0 .936.376 1.83 1.056 2.52.763.77 1.844 1.21 2.97 1.21h.01c1.067 0 2.07-.372 2.826-1.05.773-.695 1.198-1.625 1.198-2.62-.005-2.337-2.132-3.15-4.212-3.639-1.946-.457-2.303-1.076-2.303-2.13 0-1.154 1.112-2.13 2.429-2.13 1.346 0 2.438.95 2.438 2.115h1.142c0-.894-.383-1.727-1.077-2.344a3.75 3.75 0 0 0-2.503-.926c-1.966 0-3.567 1.473-3.567 3.284m10.132 4.856c0-2.06 1.478-3.61 3.525-3.61 1.954 0 3.448 1.645 3.448 3.593 0 1.949-1.494 3.562-3.448 3.562-2.015 0-3.525-1.501-3.525-3.545m-1.104-.048c0 2.634 2.048 4.598 4.629 4.598 1.34 0 2.613-.591 3.354-1.74h.032V40h1.1V27.736h-1.1v1.533h-.032c-.74-1.165-2.014-1.756-3.354-1.756-2.532 0-4.629 1.948-4.629 4.567m21.405.048c0-2.06 1.48-3.61 3.526-3.61 1.952 0 3.446 1.645 3.446 3.593 0 1.949-1.494 3.562-3.446 3.562-2.016 0-3.526-1.501-3.526-3.545m-1.103-.048c0 2.634 2.047 4.598 4.629 4.598 1.339 0 2.597-.591 3.352-1.74h.033v1.533h1.101v-8.735h-1.101v1.533h-.033c-.74-1.181-1.998-1.756-3.352-1.756-2.534 0-4.63 1.948-4.63 4.567M76.1 28.998h-.029v-1.262h-1.103v8.735h1.103v-5.11c0-1.565.944-2.54 2.455-2.667v-1.18c-1.12.079-1.953.365-2.426 1.484m7.36-.479c1.73 0 3.083 1.277 3.367 2.986h-6.722c.269-1.709 1.637-2.986 3.354-2.986m-4.487 3.592c0 2.506 1.999 4.567 4.487 4.567 1.905 0 3.604-1.244 4.234-3.066h-1.165c-.472 1.294-1.763 2.06-3.085 2.06-1.685 0-3.26-1.437-3.338-3.162h7.84c0-.111.016-.207.016-.318 0-2.524-1.999-4.679-4.518-4.679-2.472 0-4.471 2.107-4.471 4.598m-18.018-4.404v4.636c0 1.027-.14 1.893-.9 2.632-.539.513-1.108.705-1.835.705-1.977 0-2.626-1.331-2.626-3.144v-4.829h-1.107v4.845c0 .979.143 2.037.759 2.823.712.914 1.85 1.316 2.974 1.316 1.14 0 2.262-.497 2.768-1.573h.031v1.363h1.044v-8.774h-1.108m-41.189-.43a.603.603 0 0 0-.597.606v4.24c0 .333.268.606.597.606h4.182a.604.604 0 0 0 .597-.606v-4.24a.604.604 0 0 0-.597-.606h-4.182zm-4.18 8.027V24.701c0-.583.47-1.06 1.044-1.06h10.454c.575 0 1.045.477 1.045 1.06v10.603c0 .583-.47 1.06-1.045 1.06H16.63a1.056 1.056 0 0 1-1.045-1.06zm-.3-15.299c-1.807 0-3.285 1.5-3.285 3.333v13.33C12 38.5 13.478 40 15.286 40h13.14c1.808 0 3.286-1.5 3.286-3.333v-13.33c0-1.832-1.478-3.332-3.285-3.332H15.286z" fill="#FFF"/></g></svg>