<svg width="100" height="60" xmlns="http://www.w3.org/2000/svg"><g fill="none" fill-rule="evenodd"><rect fill="#FFF" width="100" height="60" rx="4"/><path d="M40.42 27.185c.267 4.57-1.263 8.465-4.374 11.738-1.763 1.854-3.886 3.135-6.375 3.73-.636.153-1.296.201-1.944.296a.33.33 0 0 0-.097.03h-1.04c-.224-.03-.45-.055-.674-.085-1.777-.21-3.392-.844-4.803-1.96-2.337-1.848-3.55-4.341-3.985-7.264-.054-.358-.088-.719-.129-1.078v-1.556c.01-.032.026-.063.03-.098.053-.465.074-.936.156-1.396.673-3.877 2.482-7.094 5.508-9.58 1.715-1.409 3.658-2.348 5.848-2.725.386-.065.777-.109 1.166-.162h1.287c.383.055.768.094 1.146.165 3.132.598 5.432 2.355 6.945 5.176a11.414 11.414 0 0 1 1.333 4.769zm-4.45-3.737a1.361 1.361 0 0 0-.388-.054c-.81.002-1.619.014-2.428.012-.182 0-.257.066-.294.242-.47 2.3-.938 4.602-1.42 6.902-.185.874-.366 1.754-.74 2.572-.288.63-.706 1.138-1.365 1.394a3.397 3.397 0 0 1-1.959.146c-.838-.17-1.468-.765-1.362-1.823.01-.109.009-.225.03-.334.15-.747.297-1.495.457-2.239.422-1.969.852-3.935 1.273-5.904.128-.6-.163-.95-.768-.954-.402-.003-.802 0-1.204-.002-.423 0-.845.005-1.266-.001-.172-.003-.241.065-.276.233-.435 2.046-.882 4.087-1.312 6.132-.266 1.263-.596 2.519-.6 3.828 0 .644.111 1.256.426 1.816.527.942 1.349 1.526 2.332 1.888 1.753.638 3.54.616 5.335.216 1.393-.308 2.5-1.054 3.243-2.311a7.91 7.91 0 0 0 .886-2.256c.332-1.443.634-2.895.94-4.344.31-1.472.611-2.945.91-4.418.068-.37-.094-.635-.45-.74z" fill="#D22328"/><path d="M85.852 29.598c.033.85-.169 1.666-.351 2.485-.324 1.481-.658 2.96-.982 4.443-.141.633-.522.957-1.174.961-.672.005-1.344.002-2.015.002-.329 0-.353-.042-.287-.373.39-1.848.786-3.692 1.164-5.541.07-.34.106-.697.076-1.04-.062-.625-.487-.975-1.111-.993-.963-.028-1.679.392-2.03 1.292-.25.632-.406 1.307-.554 1.973-.27 1.194-.5 2.395-.75 3.595-.156.73-.6 1.09-1.331 1.09h-1.888c-.289 0-.327-.051-.267-.34.534-2.547 1.064-5.089 1.599-7.637.405-1.937.812-3.873 1.206-5.811.047-.226.132-.296.353-.291.683.014 1.372.003 2.055.004.6.002.897.357.774.952-.258 1.246-.522 2.49-.783 3.737-.025.107-.045.216-.066.325a3.728 3.728 0 0 1 1.47-1.072c1.041-.428 2.112-.582 3.195-.197 1.037.365 1.657 1.29 1.697 2.436zm-21.91.212c-.094 1.447-.417 2.852-.745 4.252-.199.852-.424 1.697-.646 2.542-.146.555-.5.87-1.067.882-.676.02-1.357.008-2.032.003-.199 0-.246-.072-.202-.266.05-.21.103-.42.16-.625-.723.878-1.687 1.134-2.745 1.176-.627.026-1.246-.013-1.845-.215-1.004-.338-1.571-1.05-1.719-2.106a3.852 3.852 0 0 1 .11-1.641c.265-.89.889-1.428 1.704-1.772.871-.367 1.795-.495 2.725-.584.656-.062 1.31-.102 1.962-.17.178-.02.361-.09.528-.166.474-.22.7-.71.583-1.22-.082-.36-.324-.567-.658-.659a2.847 2.847 0 0 0-1.656.04c-.447.142-.714.47-.814.926-.038.176-.123.227-.287.224-.873-.004-1.745-.001-2.616-.003-.258 0-.292-.051-.229-.302.373-1.57 1.33-2.574 2.883-2.94 1.583-.373 3.17-.314 4.74.11.199.054.394.138.577.23.92.457 1.358 1.249 1.289 2.285zm-3.749 3.084c-.327.078-.63.163-.938.218-.333.057-.673.073-1.008.115-.477.056-.95.116-1.36.398-.423.292-.546.72-.478 1.21.056.415.32.667.702.767.73.194 1.419.096 2.015-.394.72-.602.928-1.456 1.067-2.314zm-9.718 1.866l-1.524-2.176c.075-.07.133-.13.195-.188 1.743-1.594 3.488-3.194 5.23-4.796.063-.06.088-.17.126-.258-.084-.031-.164-.087-.252-.087-1.14-.006-2.282-.008-3.424.001a.51.51 0 0 0-.32.139c-.925.915-1.842 1.839-2.763 2.76-.167.166-.34.33-.545.53.026-.139.038-.221.055-.302.4-1.916.802-3.833 1.199-5.75.153-.74-.225-1.208-.968-1.216-.63-.006-1.26.003-1.89-.006-.176-.001-.24.07-.273.235-.932 4.513-1.87 9.027-2.806 13.541-.051.249-.01.302.242.302.685.001 1.37.003 2.056 0 .64-.003 1.038-.335 1.17-.97.09-.42.172-.849.258-1.273.082-.398.163-.803.252-1.23.05.07.081.108.112.158.68 1.047 1.36 2.097 2.034 3.144.075.118.16.174.301.172 1.01-.004 2.02 0 3.03-.006.082 0 .216-.032.231-.084.023-.071-.014-.186-.063-.258-.55-.795-1.107-1.585-1.663-2.382zm22.001-7.412c-1.803-.633-3.613-.547-5.364.206-1.206.52-1.857 1.473-1.872 2.837-.019 1.215.456 2.008 1.566 2.46.483.198 1.002.31 1.506.46.528.155 1.07.277 1.59.465.444.162.608.54.494 1.003-.072.308-.287.504-.557.635-.423.202-.873.22-1.32.146-.78-.128-1.089-.456-1.206-1.241-.021-.15-.087-.206-.226-.203-.431.004-.86 0-1.288 0h-1.265c-.251 0-.288.042-.268.3.01.097.023.195.032.293.192 1.417.922 2.385 2.295 2.814.85.265 1.716.29 2.59.249.848-.033 1.682-.148 2.474-.462.976-.389 1.68-1.047 1.953-2.1.08-.31.133-.633.143-.95.036-1.47-.39-2.28-1.742-2.748-.601-.21-1.225-.337-1.834-.516-.41-.12-.828-.229-1.216-.41-.479-.222-.531-.778-.144-1.146.095-.088.21-.158.327-.213.378-.174.778-.208 1.182-.154.594.081.918.408.946.957.01.204.089.264.28.263.823-.006 1.648-.002 2.468-.003.264 0 .289-.025.289-.286-.005-1.265-.632-2.234-1.833-2.656z" fill="#2A4954"/></g></svg>