<svg width="100" height="60" xmlns="http://www.w3.org/2000/svg"><g fill="none" fill-rule="evenodd"><rect fill="#0068A3" width="100" height="60" rx="4"/><path d="M79.876 20.089c1.568 0 3.052.362 4.375 1.006.208.097.415.205.623.324l-.92.816-1.38-1.417-2.332 2.063-1.384-1.5-4.343 3.886L77.3 28.31l-1.094.956 2.742 3.05-1.088.952 3.919 4.328 2.325-2.125 2.011 2.278c-.4.308-.835.599-1.315.867a9.967 9.967 0 0 1-4.923 1.294c-5.5 0-9.986-4.453-9.986-9.91 0-5.46 4.486-9.912 9.986-9.912" fill="#FFF"/><path fill="#FFF" d="M78.056 29.374l2.374-2.123 2.139 2.358-2.375 2.121-2.138-2.356m1.688 4.072l2.375-2.122 2.138 2.357-2.374 2.123-2.139-2.358m-3.387-8.097l2.374-2.122 2.138 2.357-2.375 2.122-2.137-2.357m4.357-1.142l1.781-1.591 1.603 1.767-1.78 1.592-1.604-1.768m3.164 7.29l1.782-1.592 1.603 1.768-1.78 1.591-1.605-1.768m1.567 3.571l1.78-1.592 1.605 1.767-1.781 1.592-1.604-1.767m.718-8.183l1.187-1.061L88.419 27l-1.187 1.061-1.07-1.178m-1.516-3.5l1.187-1.061 1.069 1.178-1.188 1.06-1.068-1.177m3.034 7.002l1.188-1.06 1.069 1.177-1.187 1.061-1.07-1.178m-5.324-2.623l1.78-1.593 1.604 1.768-1.78 1.591-1.604-1.766m-67.633.529h-.08l-1.504 5.644h-1.23l-1.846-8.018h1.276l1.276 5.982h.08l1.481-5.982h1.014l1.584 5.982h.08l1.162-5.982h1.333l-1.846 8.018h-1.23l-1.55-5.644m9.675 4.399v.86a4.037 4.037 0 0 1-2.017.52c-1.914 0-2.7-1.176-2.7-2.963 0-1.718.877-2.962 2.587-2.962 1.423 0 2.3.916 2.3 2.759v.418h-3.713c0 1.357.558 1.957 1.731 1.957.616 0 1.185-.215 1.812-.589zm-3.52-2.125h2.608c-.056-1.188-.638-1.663-1.253-1.663-.695 0-1.23.532-1.355 1.663zm5.912-2.002c.342-.18.923-.418 1.538-.418 1.413 0 2.176.972 2.176 2.782 0 2.114-1.025 3.144-2.677 3.144-.604 0-1.538-.193-2.222-.555v-7.893l1.185-.283v3.223zm-.011 4.535c.364.158.763.18 1.048.18.843 0 1.481-.52 1.481-2.35 0-1.438-.524-1.901-1.287-1.901-.456 0-.786.124-1.242.373v3.698zm8.91-.86h.057l2.438-6.321h1.413v8.018h-1.23v-5.813h-.103l-2.325 5.813h-.729l-2.324-5.677h-.103v5.677h-1.025v-8.018h1.378l2.553 6.321m5.161-1.131c0-1.979 1.094-2.962 2.598-2.962 1.504 0 2.598.983 2.598 2.962 0 1.934-1.037 2.964-2.598 2.964s-2.598-1.03-2.598-2.964zm4 0c0-1.526-.628-2.17-1.402-2.17-.752 0-1.402.644-1.402 2.17 0 1.55.593 2.172 1.402 2.172.809 0 1.401-.622 1.401-2.172zm2.278-2.125c.513-.306 1.595-.837 2.905-.837 1.368 0 1.88.531 1.88 1.696v4.094h-1.185V30.1c0-.893-.444-1.052-1.025-1.052-.456 0-1.037.204-1.39.407v4.479h-1.185V28.98m10.562 3.71v.86a4.035 4.035 0 0 1-2.017.52c-1.914 0-2.7-1.176-2.7-2.963 0-1.718.877-2.962 2.586-2.962 1.425 0 2.302.916 2.302 2.759v.418h-3.714c0 1.357.558 1.957 1.731 1.957.616 0 1.185-.215 1.811-.589zm-3.52-2.125h2.608c-.056-1.188-.638-1.663-1.253-1.663-.695 0-1.23.532-1.356 1.663zm8.123-2.228h1.22L61.45 33.99c-.57 1.56-1.265 2.375-2.575 2.375v-.927c.775 0 1.253-.611 1.527-1.448l-2.188-5.654h1.254l1.458 4.161h.068l1.3-4.161"/></g></svg>