<svg width="100" height="60" xmlns="http://www.w3.org/2000/svg"><g fill="none" fill-rule="evenodd"><rect fill="#000" width="100" height="60" rx="4"/><path d="M35.462 21.005c-2.337 0-3.671.945-3.671 2.607 0 1.03.431 1.776 1.66 2.142l2.244.655c.3.089.539.255.539.554 0 .355-.307.655-.772.655-.3 0-.49-.107-.612-.262-.122-.166-.175-.39-.175-.612h-3.03c0 2.083 1.773 2.68 3.7 2.68 2.26 0 3.846-.821 3.846-2.782 0-.964-.435-1.677-1.442-2.097-.809-.344-1.925-.566-2.535-.743-.333-.1-.524-.222-.524-.51 0-.244.218-.466.728-.466.41 0 .688.17.7.67h2.84c0-1.861-1.502-2.491-3.496-2.491zm43.673.058v17.758h1.005V21.063h-1.005zm10.124.058c-.591 0-1.078.479-1.078 1.064 0 .59.487 1.063 1.078 1.063a1.064 1.064 0 0 0 0-2.127zm-79.581.102l1.733 7.998h3.438l.743-5.186h.015l.743 5.186h3.437l1.734-7.998h-2.84l-.67 5.026h-.03l-.743-5.026H13.96l-.742 5.026h-.015l-.685-5.026h-2.84zm13.78 0v7.998h6.177v-2.083h-3.147v-.904H29.3v-2.083h-2.812v-.845h3.045v-2.083h-6.075zm17.54 0v2.142h1.98v5.856h3.162v-5.856h1.98v-2.142h-7.123zm9.264 0v7.998h6.191v-2.083h-3.146v-.904h2.811v-2.083h-2.811v-.845h3.044v-2.083h-6.089zm8.537 0v7.998H61.9v-2.856h.365c.509 0 .705.155.772.554.11.687.205 1.703.393 2.302h3.103c-.365-1.208-.333-2.344-.51-3.03-.155-.61-.58-.954-1.355-1.02v-.015c1.197-.288 1.588-.988 1.588-1.908 0-1.507-1.007-2.025-2.724-2.025h-4.734zm9.95 0v7.998h2.563v-4.88h.03l1.689 4.88h3.802v-7.998h-2.578v4.837h-.015l-1.69-4.837h-3.802zm17.553 0v17.568h1.005V21.223h-1.005zm2.957.03c.517 0 .889.414.888.932 0 .523-.37.917-.888.917-.52 0-.903-.394-.903-.917 0-.518.383-.933.903-.933zm-.393.334v1.195h.145v-.554h.262l.335.554h.175l-.35-.554c.212-.005.365-.086.365-.32 0-.197-.107-.32-.423-.32h-.51zm.145.102h.335c.147 0 .292.019.292.204 0 .243-.24.219-.408.219h-.219v-.423zm-27.11 1.355h.292c.62 0 1.02.113 1.02.7 0 .598-.44.815-1.05.815h-.262v-1.515zm.321 7.531c-2.758 0-4.137 1.718-4.137 4.21 0 2.493 1.378 4.21 4.137 4.21 2.758 0 4.123-1.717 4.123-4.21 0-2.492-1.365-4.21-4.123-4.21zm-30.693.204v5.317c0 1.928 1.386 2.9 3.802 2.9 2.414 0 3.802-.972 3.802-2.9V30.78h-3.176v5.186c0 .631-.294.874-.626.874s-.627-.243-.627-.874V30.78H31.53zm10.226 0v7.998h2.578V33.91h.015l1.69 4.866h3.802v-7.998h-2.564v4.851h-.03l-1.689-4.85h-3.802zm10.765 0v7.998h3.176v-7.998H52.52zm16.228 0v7.998h2.564V33.91h.03l1.689 4.866h3.802v-7.998h-2.578v4.851h-.015l-1.69-4.85h-3.802zm-6.526 1.88c.51 0 .845.321.845 2.126 0 1.85-.358 2.127-.845 2.127s-.86-.277-.86-2.127c0-1.805.35-2.126.86-2.126z" fill="#FFDE38"/></g></svg>