<svg width="100" height="60" xmlns="http://www.w3.org/2000/svg"><g fill="none" fill-rule="evenodd"><rect fill="#FFF" width="100" height="60" rx="4"/><path d="M32.676 34.57l2.28-7.381c.067-.223.135-.29.423-.342l.608-.099v-.894h-3.194l-.184.894 1.098.134-1.876 6.112-1.637-6.897h-1.776l-1.941 6.914-1.891-6.13 1.08-.133v-.894h-3.395l-.204.894.727.15c.204.05.287.085.355.29l2.382 7.38h1.859l1.856-6.748 1.623 6.748 1.807.001m7.484.183c2.87 0 4.153-1.846 4.153-4.7 0-2.548-1.115-4.39-3.985-4.39s-4.22 1.825-4.22 4.492c0 2.7 1.13 4.598 4.052 4.598zm.05-1.235c-1.66 0-2.517-1.086-2.517-3.346 0-2.244.958-3.228 2.6-3.228 1.627 0 2.434.984 2.434 3.211 0 2.327-.89 3.363-2.517 3.363zm9.28 1.041v-.892l-1.59-.136c-.258-.017-.276-.067-.276-.34v-5.132c.398-.376 1.278-1.075 2.058-1.075.153 0 .188.033.206.17l.207 1.188 1.182.052V25.82c-.301-.096-.816-.164-1.2-.164-1.175 0-2.02.731-2.585 1.36l-.05-.016-.163-1.162h-2.186l-.152.905.963.322c.169.051.22.17.22.358v5.784c0 .255-.034.307-.27.34l-.845.1v.91h4.482m6.01.001v-.892l-1.012-.118c-.252-.035-.27-.067-.27-.341V21.712h-2.582l-.153.904 1.014.324c.17.051.22.17.22.357v9.91c0 .256-.033.323-.27.34l-1.047.102v.91h4.1m9.229.007v-.907l-.861-.119c-.253-.034-.27-.07-.27-.34V21.712h-2.548l-.153.904 1.013.325c.153.05.22.17.22.342v3.189a4.458 4.458 0 0 0-2.583-.815c-2.026 0-3.521 1.376-3.521 4.731 0 3.115 1.26 4.362 3.184 4.362 1.316 0 2.195-.59 2.97-1.333l.066.018.131 1.131h2.353zm-2.632-2.506c-.743.746-1.554 1.409-2.55 1.409-1.182 0-1.974-.765-1.974-3.125 0-2.02.623-3.413 2.211-3.413.894 0 1.805.493 2.313.918v4.21z" fill="#8A8B87"/><path d="M69.722 38.143v-.892l-1.586-.136c-.253-.018-.271-.067-.271-.342v-2.952c.794.698 1.604.934 2.566.934 2.649 0 3.506-2.345 3.506-4.896 0-2.99-1.278-4.19-3.167-4.19-1.148 0-2.094.468-3.022 1.15l-.05-.017-.15-.963h-2.214l-.152.905.962.322c.17.05.222.168.222.354v9.371c0 .257-.052.306-.288.34l-.693.102v.91h4.337zm-1.857-10.138c.49-.39 1.504-1.054 2.584-1.054 1.046 0 1.942.731 1.942 3.045 0 2.142-.61 3.485-2.213 3.485-.895 0-1.738-.544-2.313-1.105v-4.37zm14.94 6.561v-.907l-.862-.119c-.252-.034-.27-.07-.27-.34v-4.505c0-2.358-.8-3.042-3.184-3.042-1.324 0-3.247.239-3.247 2.341l1.454.155c.017-1.283.754-1.315 1.78-1.315 1.46 0 1.697.614 1.697 1.861v.906l-2.268.187c-2.025.17-3.071.965-3.071 2.655 0 .861.27 2.303 2.377 2.303 1.296 0 2.237-.551 3.046-1.305l.05.014.15 1.111h2.348zm-2.632-2.31c-.522.491-1.584 1.3-2.574 1.3-.792 0-1.177-.37-1.177-1.282 0-.877.403-1.3 1.848-1.434l1.903-.17v1.587zm8.521 5.887v-.879l-1.634-.167 4.094-9.978c.083-.188.219-.254.422-.289l.573-.082v-.894h-3.337l-.184.894 1.145.134-2.342 5.731-2.24-5.731 1.11-.134v-.894h-3.486l-.201.894.69.168c.202.05.27.085.353.29l3.033 7.267-.979 2.266c-.1.24-.167.344-.368.358l-1.214.152v.894h4.565M15.018 24.065c.923.2 1.972.596 2.876 1.502.291.289.544.686.652.993.054.126.054.326.145.452.145.219.398.399.578.633.236.253.38.526.508.815.053.09.072.217.126.325.072.144.2.831.2 1.086 0 .525-.182 1.176-.418 1.681 0 .02.02.02.02.073v.452c-.2 2.786-3.548 4.793-5.648 4.793-.253 0-.976-.037-.976-.543 0-.055.037-.217.073-.343-.4.055-1.178.199-1.63.199-.342 0-1.918-.018-1.918-.869 0-.795 1.411-.85 1.684-.85.758 0 1.555.217 2.334.58-.128.035-.362.108-.398.108-.055 0-.128-.056-.2-.073a4.93 4.93 0 0 0-1.61-.288c-.307 0-.362-.02-.724.072-.036 0-.67.162-.67.415 0 .18.507.29.615.307.217.036.67.073.706.073 3.222 0 8.217-2.677 8.217-5.88 0-.595-.271-1.444-.815-1.989-.037.236-.09.489-.181.744-.054.162-.198.451-.198.487 0 0 .903.995.903 1.213 0 .126-.197.685-.197.705a3.716 3.716 0 0 0-.942-1.465c-.073.073-.145.18-.217.272-.091.126-.2.252-.308.38-.236.271-.778.74-.778.793 0 0 .65.653.87 1.412.035.109.089.325.089.361 0 .11-.362.345-.362.363-.019-.615-.272-1.266-.942-1.881a14.906 14.906 0 0 1-2.37 1.428c.47.399.742.978.742 1.392 0 .2-.108.634-.2.688a1.24 1.24 0 0 1-.361.146c.145-.182.272-.598.272-.778 0-.326-.217-.833-.58-1.105-.09-.054-.217-.18-.253-.18-.053 0-.506.2-.759.29-.291.109-.598.199-.905.288-.923.273-1.792.435-2.679.435-.344 0-1.847-.036-1.847-.85 0-1.212 2.789-1.322 3.167-1.322.834 0 1.63.093 2.481.472-.164.053-.472.18-.508.18-.054 0-.995-.271-1.845-.271-.38 0-.85.037-1.212.108-.291.056-.58.129-.833.236-.09.019-.76.307-.76.56 0 .037.107.11.18.146.363.18.689.164 1.05.164 3.42 0 8.668-2.697 8.976-5.5v-.452c-.164-1.827-2.986-3.003-4.361-3.003-.036 0-.27.02-.417.054.091.036.2.036.291.073.072.019.162.056.253.09.145.056.397.182.561.325.126.11.198.272.326.362.09.092.271.072.416.128.47.144 1.05.36 1.539.579.197.107.451.217.67.343.072.054.125.162.18.252.09.145.198.381.234.58-.94-.706-1.881-1.068-2.823-1.374h-.053c.036.488-.163.976-.508 1.465 1.033.271 2.118.667 3.186 1.41-.054.127-.127.27-.216.397-.453-.325-.942-.578-1.395-.795-.108-.053-1.628-.615-1.864-.615-.055 0-.416.362-.615.525-.488.397-.977.705-1.466.994 1.32.182 2.642.47 3.962 1.338-.09.09-.289.272-.342.272-.036 0-.38-.252-.58-.344-.923-.452-2.679-.885-3.746-.885-.09 0-1.139.452-1.394.523-.742.218-1.556.488-2.315.488-.254 0-.761-.017-.761-.433 0-.814 2.878-1.013 3.076-1.013h.633c-.452.18-.994.38-1.428.489-.417.109-.85.18-1.25.306-.072.02-.144.073-.216.11 0 0-.017.018.036.018.036 0 .633-.091.958-.162 1.648-.399 3.42-1.05 5.05-2.55.398-.382.687-.852.779-1.266v-.362c-.056-.399-.634-.814-.996-.923a5.778 5.778 0 0 0-.741-.163c-.091 0-.219.054-.308.199.578.126 1.248 0 1.755.724 0 0 .017.017 0 .053-.146-.053-1.919-.471-2.208-.471-.109 0-.958.598-1.158.724-.543.326-1.104.633-1.648.903l1.865.02a20.98 20.98 0 0 1 2.57.326c-.037.017-.362.362-.435.362-.036 0-.616-.11-.905-.146-.525-.073-1.067-.09-1.61-.126l-2.352.053c-.128-.017-.38-.034-.38-.253 0-.163.197-.27.343-.326.11-.036.235-.107.344-.143 1.158-.488 2.352-1.139 3.53-1.882-.037-.017-.11-.017-.147-.017-.053 0-.198.017-.306.054.017.019.036.019.053.019-.162.09-.434.27-.488.27-.126 0-.307-.163-.307-.27 0-.326.742-.345.795-.345.742-.017.797.019.85.019.036 0 .344-.163.544-.199.29-.073.434-.073.706-.073.308 0 .67.036 1.014.11zm-1.105 12.39c-.053 0-.506 0-.506-.164 0-.09.144-.381.272-.414.27-.11.85-.256.886-.256.053 0 .525.056.579.056.035 0 .38-.019.58-.073a2.88 2.88 0 0 0 .795-.326c.272-.163.669-.507.85-.796.109-.163.164-.38.29-.525.163-.216.47-.398.724-.632.253-.255.508-.524.741-.814-.488 2.28-3.456 3.943-5.21 3.943zm1.285-1.086a15.27 15.27 0 0 0 1.665-.868c-.543.614-1.123.777-1.665.868z" fill="#D9282A"/></g></svg>