<svg width="24" height="24" viewBox="0 0 24 24" fill="none" xmlns="http://www.w3.org/2000/svg">
<path fill-rule="evenodd" clip-rule="evenodd" d="M11.9962 1C9.3848 1.00135 6.85899 1.92628 4.87046 3.60937C2.88192 5.29247 1.56033 7.624 1.14199 10.187C0.723651 12.7501 1.23584 15.3775 2.58699 17.5996C3.93814 19.8216 6.04013 21.4933 8.5171 22.3157C9.06356 22.4172 9.2694 22.0785 9.2694 21.7905C9.2694 21.5025 9.25846 20.6676 9.25482 19.7547C6.19464 20.4158 5.548 18.4634 5.548 18.4634C5.0489 17.1955 4.32757 16.8623 4.32757 16.8623C3.32936 16.1849 4.40226 16.1976 4.40226 16.1976C5.50793 16.2755 6.089 17.3259 6.089 17.3259C7.06899 18.9977 8.66282 18.5141 9.28943 18.2315C9.38779 17.5234 9.67378 17.0416 9.9889 16.7681C7.5444 16.4928 4.97603 15.5546 4.97603 11.3635C4.96088 10.2766 5.36653 9.22549 6.10903 8.42763C5.9961 8.15233 5.61903 7.04027 6.2165 5.52975C6.2165 5.52975 7.14003 5.23634 9.24208 6.65087C11.0451 6.16061 12.9474 6.16061 14.7504 6.65087C16.8506 5.23634 17.7723 5.52975 17.7723 5.52975C18.3716 7.03665 17.9946 8.14871 17.8816 8.42763C18.6265 9.22562 19.033 10.2786 19.0164 11.3672C19.0164 15.5673 16.4426 16.4928 13.9945 16.7627C14.3879 17.1032 14.7395 17.7679 14.7395 18.7894C14.7395 20.2528 14.7267 21.4301 14.7267 21.7905C14.7267 22.0821 14.9253 22.4226 15.4827 22.3157C17.9599 21.4932 20.0621 19.8212 21.4132 17.5988C22.7644 15.3764 23.2763 12.7485 22.8575 10.1853C22.4387 7.62198 21.1164 5.29043 19.1272 3.60762C17.138 1.92481 14.6116 1.0005 11.9999 1H11.9962Z" fill="#707987"/>
<path d="M8.35476 18.8527C8.35476 18.9415 8.25276 19.0176 8.12161 19.0194C7.99045 19.0212 7.88298 18.9487 7.88298 18.86C7.88298 18.7712 7.98498 18.6952 8.11614 18.6934C8.24729 18.6916 8.35476 18.7622 8.35476 18.8527Z" fill="#707987"/>
<path d="M9.19267 18.7133C9.20906 18.802 9.11798 18.8944 8.98683 18.9161C8.85568 18.9379 8.74093 18.8854 8.72453 18.7984C8.70814 18.7115 8.80286 18.6173 8.93037 18.5938C9.05787 18.5702 9.17627 18.6245 9.19267 18.7133Z" fill="#707987"/>
<path d="M7.45488 18.7912C7.42756 18.8763 7.30369 18.9143 7.17983 18.8781C7.05596 18.8419 6.974 18.7405 6.99767 18.6535C7.02136 18.5666 7.14704 18.5267 7.27273 18.5666C7.39841 18.6064 7.47856 18.7024 7.45488 18.7912Z" fill="#707987"/>
<path d="M6.62975 18.4362C6.56964 18.5032 6.4476 18.4851 6.34742 18.3945C6.24723 18.304 6.22355 18.1808 6.28366 18.1156C6.34377 18.0504 6.46581 18.0685 6.56964 18.1573C6.67347 18.246 6.69351 18.371 6.62975 18.4362Z" fill="#707987"/>
<path d="M6.04141 17.8276C5.97402 17.8747 5.85925 17.8276 5.7955 17.7335C5.77787 17.7166 5.76385 17.6963 5.75428 17.6739C5.7447 17.6515 5.73976 17.6274 5.73976 17.603C5.73976 17.5787 5.7447 17.5546 5.75428 17.5322C5.76385 17.5098 5.77787 17.4895 5.7955 17.4726C5.8629 17.4274 5.97766 17.4726 6.04141 17.565C6.10517 17.6574 6.10699 17.7805 6.04141 17.8276Z" fill="#707987"/>
<path d="M5.60786 17.1992C5.57014 17.2181 5.52698 17.2233 5.48578 17.2141C5.44457 17.2048 5.40789 17.1816 5.38199 17.1484C5.31095 17.0724 5.29637 16.9673 5.35102 16.9202C5.40566 16.8731 5.50404 16.8949 5.57508 16.9709C5.64612 17.047 5.66251 17.1521 5.60786 17.1992Z" fill="#707987"/>
<path d="M5.16157 16.7047C5.13789 16.759 5.05046 16.7753 4.97942 16.7373C4.90838 16.6993 4.85556 16.6286 4.88106 16.5725C4.90656 16.5163 4.99217 16.5019 5.06321 16.5399C5.13425 16.5779 5.18889 16.6504 5.16157 16.7047Z" fill="#707987"/>
</svg>
