<svg width="24" height="24" viewBox="0 0 24 24" fill="none" xmlns="http://www.w3.org/2000/svg">
<path d="M23 12.2587C23 15.1731 22.5116 17.5371 21.9089 17.5371C21.3062 17.5371 20.818 15.1737 20.818 12.2587C20.818 9.34371 21.3064 6.98032 21.9089 6.98032C22.5114 6.98032 23 9.3435 23 12.2587Z" fill="#313B49"/>
<path d="M20.2159 12.2587C20.2159 15.5123 18.8269 18.1508 17.1135 18.1508C15.4001 18.1508 14.0111 15.5123 14.0111 12.2587C14.0111 9.00519 15.3999 6.36662 17.1133 6.36662C18.8267 6.36662 20.2159 9.00435 20.2159 12.2587Z" fill="#313B49"/>
<path d="M13.4093 12.2587C13.4093 15.7152 10.6314 18.5173 7.20477 18.5173C3.77817 18.5173 1 15.7146 1 12.2587C1 8.80287 3.77796 6 7.20477 6C10.6316 6 13.4093 8.80224 13.4093 12.2587Z" fill="#313B49"/>
</svg>
