<svg width="24" height="24" viewBox="0 0 24 24" fill="none" xmlns="http://www.w3.org/2000/svg">
<path d="M21.9049 2L13.3206 8.37569L14.908 4.61412L21.9049 2Z" fill="#E2761B" stroke="#E2761B" stroke-width="0.0753295" stroke-linecap="round" stroke-linejoin="round"/>
<path d="M2.08735 2L10.6026 8.43608L9.09284 4.61412L2.08735 2ZM18.816 16.7788L16.5297 20.2816L21.4215 21.6275L22.8277 16.8565L18.816 16.7788ZM1.18147 16.8565L2.57911 21.6275L7.47088 20.2816L5.1846 16.7788L1.18147 16.8565Z" fill="#E4761B" stroke="#E4761B" stroke-width="0.0753295" stroke-linecap="round" stroke-linejoin="round"/>
<path d="M7.19457 10.8605L5.83143 12.9225L10.6887 13.1382L10.5161 7.91855L7.19457 10.8605ZM16.7969 10.8605L13.4322 7.85815L13.3201 13.1382L18.1687 12.9225L16.7969 10.8605ZM7.47064 20.2817L10.3867 18.8582L7.86751 16.8911L7.47064 20.2817ZM13.6048 18.8582L16.5295 20.2817L16.124 16.8911L13.6048 18.8582Z" fill="#E4761B" stroke="#E4761B" stroke-width="0.0753295" stroke-linecap="round" stroke-linejoin="round"/>
<path d="M16.5299 20.2817L13.6052 18.8582L13.8381 20.7648L13.8123 21.5672L16.5299 20.2817ZM7.47108 20.2817L10.1887 21.5672L10.1715 20.7648L10.3872 18.8582L7.47108 20.2817Z" fill="#D7C1B3" stroke="#D7C1B3" stroke-width="0.0753295" stroke-linecap="round" stroke-linejoin="round"/>
<path d="M10.2317 15.6313L7.79879 14.9152L9.51565 14.1301L10.2317 15.6313ZM13.7604 15.6313L14.4764 14.1301L16.2019 14.9152L13.7604 15.6313Z" fill="#233447" stroke="#233447" stroke-width="0.0753295" stroke-linecap="round" stroke-linejoin="round"/>
<path d="M7.47068 20.2817L7.8848 16.779L5.18441 16.8566L7.47068 20.2817ZM16.1154 16.779L16.5295 20.2817L18.8158 16.8566L16.1154 16.779ZM18.1687 12.9225L13.3201 13.1382L13.7687 15.6315L14.4848 14.1303L16.2103 14.9154L18.1687 12.9225ZM7.79853 14.9154L9.52402 14.1303L10.2315 15.6315L10.6887 13.1382L5.83147 12.9225L7.79853 14.9154Z" fill="#CD6116" stroke="#CD6116" stroke-width="0.0753295" stroke-linecap="round" stroke-linejoin="round"/>
<path d="M5.83143 12.9225L7.86751 16.8911L7.79849 14.9154L5.83143 12.9225ZM16.2103 14.9154L16.124 16.8911L18.1687 12.9225L16.2103 14.9154ZM10.6887 13.1382L10.2314 15.6315L10.8008 18.5735L10.9303 14.6997L10.6887 13.1382ZM13.3201 13.1382L13.0871 14.6911L13.1906 18.5735L13.7687 15.6315L13.3201 13.1382Z" fill="#E4751F" stroke="#E4751F" stroke-width="0.0753295" stroke-linecap="round" stroke-linejoin="round"/>
<path d="M13.769 15.6314L13.1909 18.5733L13.6051 18.858L16.1243 16.891L16.2106 14.9153L13.769 15.6314ZM7.79879 14.9153L7.86781 16.891L10.387 18.858L10.8011 18.5733L10.2317 15.6314L7.79879 14.9153Z" fill="#F6851B" stroke="#F6851B" stroke-width="0.0753295" stroke-linecap="round" stroke-linejoin="round"/>
<path d="M13.8123 21.5671L13.8381 20.7648L13.6225 20.575H10.3699L10.1715 20.7648L10.1887 21.5671L7.47108 20.2816L8.4201 21.0581L10.344 22.3953H13.6483L15.5809 21.0581L16.5299 20.2816L13.8123 21.5671Z" fill="#C0AD9E" stroke="#C0AD9E" stroke-width="0.0753295" stroke-linecap="round" stroke-linejoin="round"/>
<path d="M13.6053 18.8581L13.1912 18.5734H10.8014L10.3873 18.8581L10.1716 20.7647L10.37 20.5749H13.6226L13.8383 20.7647L13.6053 18.8581Z" fill="#161616" stroke="#161616" stroke-width="0.0753295" stroke-linecap="round" stroke-linejoin="round"/>
<path d="M22.2667 8.78993L23 5.26993L21.9043 2.00012L13.6047 8.16012L16.7969 10.8605L21.309 12.1805L22.3098 11.0158L21.8784 10.7052L22.5686 10.0754L22.0337 9.6613L22.7239 9.13502L22.2667 8.78993ZM1 5.26993L1.73333 8.78993L1.26745 9.13502L1.95765 9.6613L1.43137 10.0754L2.12157 10.7052L1.6902 11.0158L2.68235 12.1805L7.19451 10.8605L10.3867 8.16012L2.08706 2.00012L1 5.26993Z" fill="#763D16" stroke="#763D16" stroke-width="0.0753295" stroke-linecap="round" stroke-linejoin="round"/>
<path d="M21.3093 12.1804L16.7972 10.8604L18.1689 12.9224L16.1242 16.891L18.816 16.8565H22.8277L21.3093 12.1804ZM7.1948 10.8604L2.68264 12.1804L1.18147 16.8565H5.1846L7.86774 16.891L5.83166 12.9224L7.1948 10.8604ZM13.3203 13.1381L13.605 8.16002L14.9164 4.61414H9.09284L10.387 8.16002L10.6889 13.1381L10.7924 14.7083L10.8011 18.5734H13.1909L13.2081 14.7083L13.3203 13.1381Z" fill="#F6851B" stroke="#F6851B" stroke-width="0.0753295" stroke-linecap="round" stroke-linejoin="round"/>
</svg>
