<svg width="24" height="24" viewBox="0 0 24 24" fill="none" xmlns="http://www.w3.org/2000/svg">
<path d="M12 1C5.92422 1 1 5.92422 1 12C1 16.6621 3.90039 20.641 7.99102 22.2437C7.89648 21.3715 7.80625 20.0395 8.02969 19.0898C8.23164 18.2305 9.31875 13.6242 9.31875 13.6242C9.31875 13.6242 8.98789 12.9668 8.98789 11.9914C8.98789 10.4617 9.87305 9.31875 10.9773 9.31875C11.9141 9.31875 12.3695 10.0234 12.3695 10.8699C12.3695 11.8152 11.768 13.2246 11.4586 14.5309C11.2008 15.6266 12.0086 16.5203 13.0871 16.5203C15.0422 16.5203 16.5461 14.4578 16.5461 11.4844C16.5461 8.85039 14.6555 7.00703 11.9527 7.00703C8.82461 7.00703 6.98555 9.35312 6.98555 11.7809C6.98555 12.7262 7.35078 13.7402 7.80625 14.2902C7.89648 14.3977 7.90937 14.4965 7.88359 14.6039C7.80195 14.952 7.61289 15.6996 7.57852 15.85C7.53125 16.052 7.41953 16.0949 7.20898 15.9961C5.83398 15.3559 4.97461 13.3492 4.97461 11.7336C4.97461 8.26172 7.49688 5.07773 12.2406 5.07773C16.0563 5.07773 19.0211 7.79766 19.0211 11.4328C19.0211 15.2227 16.632 18.2734 13.3148 18.2734C12.202 18.2734 11.1535 17.6934 10.7926 17.0102C10.7926 17.0102 10.2426 19.1113 10.1094 19.627C9.86016 20.5809 9.18984 21.7797 8.74297 22.5102C9.77422 22.8281 10.8656 23 12 23C18.0758 23 23 18.0758 23 12C23 5.92422 18.0758 1 12 1Z" fill="#707987"/>
</svg>
