<svg width="24" height="24" viewBox="0 0 24 24" fill="none" xmlns="http://www.w3.org/2000/svg">
<path d="M9.47837 12C8.84796 12 8.33334 12.5146 8.33334 13.145C8.33334 13.7754 8.84796 14.29 9.47837 14.29C10.1088 14.29 10.6234 13.7754 10.6234 13.145C10.6234 12.5146 10.1088 12 9.47837 12Z" fill="#707987"/>
<path d="M12.0129 17.0047C12.4503 17.0047 13.9427 16.9532 14.7275 16.1684C14.8433 16.0526 14.8433 15.8725 14.7532 15.7438C14.6374 15.628 14.4445 15.628 14.3287 15.7438C13.8269 16.2327 12.7848 16.4128 12.0257 16.4128C11.2667 16.4128 10.2117 16.2327 9.72281 15.7438C9.60702 15.628 9.41404 15.628 9.29825 15.7438C9.18246 15.8596 9.18246 16.0526 9.29825 16.1684C10.0702 16.9403 11.5754 17.0047 12.0129 17.0047Z" fill="#707987"/>
<path d="M13.3766 13.145C13.3766 13.7754 13.8912 14.29 14.5216 14.29C15.1521 14.29 15.6667 13.7754 15.6667 13.145C15.6667 12.5146 15.1521 12 14.5216 12C13.8912 12 13.3766 12.5146 13.3766 13.145Z" fill="#707987"/>
<path fill-rule="evenodd" clip-rule="evenodd" d="M23 12C23 18.0751 18.0751 23 12 23C5.92487 23 1 18.0751 1 12C1 5.92487 5.92487 1 12 1C18.0751 1 23 5.92487 23 12ZM17.7252 10.3918C18.6129 10.3918 19.3333 11.1123 19.3333 12C19.3333 12.6561 18.9345 13.2222 18.407 13.4795C18.4328 13.6339 18.4456 13.7883 18.4456 13.9555C18.4456 16.4257 15.5766 18.4199 12.0257 18.4199C8.47486 18.4199 5.60585 16.4257 5.60585 13.9555C5.60585 13.7883 5.61872 13.621 5.64445 13.4666C5.07837 13.2093 4.6924 12.6561 4.6924 12C4.6924 11.1123 5.41287 10.3918 6.30059 10.3918C6.72515 10.3918 7.12398 10.5719 7.40702 10.8421C8.51346 10.0316 10.0444 9.5298 11.7556 9.47834L12.5661 5.64442C12.5918 5.56723 12.6304 5.5029 12.6947 5.46431C12.7591 5.42571 12.8363 5.41284 12.9135 5.42571L15.5766 5.99179C15.7567 5.60583 16.1427 5.34852 16.593 5.34852C17.2234 5.34852 17.738 5.86314 17.738 6.49355C17.738 7.12396 17.2234 7.63858 16.593 7.63858C15.9754 7.63858 15.4737 7.14969 15.448 6.54501L13.0678 6.04325L12.3345 9.47834C14.007 9.54267 15.5252 10.0573 16.6187 10.8421C16.9018 10.559 17.2877 10.3918 17.7252 10.3918Z" fill="#707987"/>
</svg>
