<svg viewBox="0 0 24 24" fill="none" xmlns="http://www.w3.org/2000/svg"><path d="M3 4.32c0-.709.596-1.284 1.33-1.284h15.34c.734 0 1.33.575 1.33 1.284v15.36c0 .709-.596 1.284-1.33 1.284H4.33c-.734 0-1.33-.575-1.33-1.284V4.32z" fill="#0E76A8"/><path d="M8.47 18.04V9.967H5.777v8.071H8.47v.002zM7.124 8.865c.94 0 1.524-.62 1.524-1.394-.018-.792-.585-1.395-1.506-1.395-.922 0-1.524.603-1.524 1.395 0 .774.584 1.394 1.488 1.394h.018zM9.96 18.04h2.693v-4.507c0-.24.018-.482.09-.654.194-.482.637-.981 1.381-.981.975 0 1.364.74 1.364 1.825v4.317h2.694v-4.628c0-2.479-1.329-3.632-3.1-3.632-1.454 0-2.09.809-2.446 1.36h.018V9.97H9.96c.035.757 0 8.07 0 8.07z" fill="#fff"/></svg>