<svg xmlns:dc="http://purl.org/dc/elements/1.1/" xmlns:cc="http://creativecommons.org/ns#" xmlns:rdf="http://www.w3.org/1999/02/22-rdf-syntax-ns#" xmlns:svg="http://www.w3.org/2000/svg" xmlns="http://www.w3.org/2000/svg" preserveAspectRatio="xMinYMin" viewBox="0 0 222.63928 218.78731" id="svg3769" version="1.1"><metadata id="metadata3774"><rdf:RDF><cc:Work><dc:format>image/svg+xml</dc:format><dc:type rdf:resource="http://purl.org/dc/dcmitype/StillImage"/><dc:title/></cc:Work></rdf:RDF></metadata><g id="layer1" transform="translate(-314.39464,-274.3971)"><path id="svg" d="m 533.03393,388.72895 c 0,-16.968 -4.387,-32.909 -12.08,-46.761 32.791,-74.213 -35.136,-63.343 -38.918,-62.603 -14.391,2.816 -27.705,7.337 -39.986,13.068 -1.811,-0.102 -3.633,-0.158 -5.469,-0.158 -45.833,0 -84.198,31.968 -94.017,74.823 24.157,-27.101 41.063,-38.036 51.187,-42.412 -1.616,1.444 -3.198,2.904 -4.754,4.375 -0.518,0.489 -1.017,0.985 -1.528,1.477 -1.026,0.987 -2.05,1.975 -3.05,2.972 -0.595,0.593 -1.174,1.191 -1.76,1.788 -0.887,0.903 -1.772,1.805 -2.638,2.713 -0.615,0.645 -1.215,1.292 -1.819,1.938 -0.809,0.866 -1.613,1.733 -2.402,2.603 -0.613,0.676 -1.216,1.352 -1.818,2.03 -0.748,0.842 -1.489,1.684 -2.22,2.528 -0.606,0.7 -1.207,1.4 -1.801,2.101 -0.693,0.818 -1.377,1.636 -2.054,2.454 -0.599,0.724 -1.196,1.447 -1.782,2.17 -0.634,0.782 -1.254,1.563 -1.873,2.343 -0.6,0.756 -1.2,1.511 -1.786,2.266 -0.558,0.719 -1.1,1.435 -1.646,2.152 -0.616,0.81 -1.237,1.62 -1.837,2.426 -0.429,0.577 -0.841,1.148 -1.262,1.723 -3.811,5.2 -7.293,10.3 -10.438,15.199 -0.008,0.012 -0.016,0.024 -0.023,0.036 -0.828,1.29 -1.627,2.561 -2.41,3.821 -0.042,0.068 -0.086,0.137 -0.128,0.206 -0.784,1.265 -1.541,2.508 -2.279,3.738 -0.026,0.043 -0.053,0.087 -0.079,0.13 -1.984,3.311 -3.824,6.503 -5.481,9.506 -8.687,15.743 -12.916,26.742 -13.099,27.395 -27.432,98.072 58.184,56.657 70.131,50.475 12.864,6.355 27.346,9.932 42.666,9.932 41.94,0 77.623,-26.771 90.905,-64.156 h -50.68 c -7.499,12.669 -21.936,21.25 -38.522,21.25 -24.301,0 -44,-18.412 -44,-41.125 h 137.956 c 0.523,-4.068 0.794,-8.214 0.794,-12.423 z m -18.018,-94.916 c 8.306,5.606 14.968,14.41 3.527,44.059 -10.973,-17.647 -27.482,-31.49 -47.104,-39.099 8.926,-4.311 31.031,-13.429 43.577,-4.96 z m -176.516,181.241 c -6.765,-6.938 -7.961,-23.836 6.967,-54.628 7.534,21.661 22.568,39.811 42,51.33 -9.664,5.319 -35.32,17.295 -48.967,3.298 z m 55.571,-100.278 c 0.771,-22.075 19.983,-39.75 43.588,-39.75 23.604,0 42.817,17.675 43.588,39.75 h -87.176 z" fill="#1ebbee" fill-opacity="1"/></g></svg>