<svg version="1.1" id="Layer_1" xmlns="http://www.w3.org/2000/svg" xmlns:xlink="http://www.w3.org/1999/xlink" x="0" y="0" preserveAspectRatio="xMinYMin" viewBox="-452 253 55 55" xml:space="preserve" enable-background="new -452 253 55 55"><style type="text/css">.st0{fill:#a2a4a4}.st1,.st2{fill:#7fc0c4;stroke:#80bec2;stroke-width:.5}.st2{fill:#007c85}.st3{fill:#fff}.st4{fill:url(#path3317_1_)}.st5{stroke:#80bec2;stroke-width:.5}.st6{fill:#c3dcda}</style><title>netscape</title><desc>Created with Sketch.</desc><g id="Page-1"><g id="netscape" transform="translate(0.000000, -1.000000)"><path id="path3344" class="st0" d="M-397.2,281.4c0,15.1-12.3,27.4-27.4,27.4 c-15.1,0-27.4-12.3-27.4-27.4c0-15.1,12.3-27.4,27.4-27.4C-409.5,254-397.2,266.3-397.2,281.4L-397.2,281.4z"/><path id="path3342" class="st1" d="M-398.2,281.4c0,14.6-11.8,26.4-26.4,26.4 c-14.6,0-26.4-11.8-26.4-26.4c0-14.6,11.8-26.4,26.4-26.4C-410,254.9-398.2,266.8-398.2,281.4L-398.2,281.4z"/><path id="path3337" class="st2" d="M-400.1,281.4c0,13.6-11,24.5-24.5,24.5c-13.6,0-24.5-11-24.5-24.5 c0-13.6,11-24.5,24.5-24.5C-411.1,256.8-400.1,267.8-400.1,281.4L-400.1,281.4z"/><path id="path2541" class="st2" d="M-400.1,281.4c0,13.6-11,24.5-24.5,24.5c-13.6,0-24.5-11-24.5-24.5 c0-13.6,11-24.5,24.5-24.5C-411.1,256.8-400.1,267.8-400.1,281.4L-400.1,281.4z"/><path id="path3327" class="st3" d="M-441.9,268.2l2.1,0.3l0.8,0.4l18.2,20.5l5.6,0.6l-2.4-3.4 l-17-18.8l-7.4-0.1V268.2L-441.9,268.2z"/><linearGradient id="path3317_1_" gradientUnits="userSpaceOnUse" x1="-886.611" y1="550.215" x2="-886.577" y2="550.242" gradientTransform="matrix(26.7586 0 0 -22.3345 23295.8301 12567.6377)"><stop offset="0" stop-color="#C3DCDA"/><stop offset=".54" stop-color="#C3DCDA" stop-opacity="0"/></linearGradient><path id="path3317" class="st4" d="M-439.8,268.5l0.8,0.4l18.2,20.5l5.6,0.6l-2.4-3.4l-17-18.8 l-7.4-0.1v0.6L-439.8,268.5z"/><path id="path3339" class="st5" d="M-402.7,292.4c-4,8-12.4,13.6-21.9,13.6c-9.4,0-17.6-5.3-21.7-13 C-423.9,286.1-416.3,290.2-402.7,292.4L-402.7,292.4z"/><path id="rect3333" class="st3" d="M-415,271v19.8h-1.8V271h0c0-1.2-1.6-2.9-4.5-2.8v-0.8h10.2v0.8 C-414.1,268.4-415,269.8-415,271L-415,271z"/><path id="path2545" class="st3" d="M-447,291.4c14.9-4,30.9-3.3,44.4,0.9l-0.2,0.5 c-9.7-0.8-26.1-4.3-42.7,1.3C-446.1,293.3-446.6,292.4-447,291.4L-447,291.4z"/><path id="path3352" class="st6" d="M-442.1,293.8c2.9,0.1,4-1.2,4.6-2.8l1.6,0.3 c0.5,1.1,0.9,2.2,3.9,2.5v0.8h-10.2L-442.1,293.8L-442.1,293.8z"/><path id="rect3350" class="st6" d="M-437.6,270.4l1.6,1.8v21.2h-1.6V270.4L-437.6,270.4z"/><path id="path3331" class="st3" d="M-442,293.8c2.9,0.2,4.1-0.8,4.6-2.8l1.6,0.3 c0.5,1.1,0.9,2.2,4,2.5v0.8h-10.4L-442,293.8L-442,293.8z"/><path id="rect3329" class="st3" d="M-437.4,270.7l1.6,1.8v20.9h-1.6V270.7L-437.4,270.7z"/></g></g></svg>