<svg xmlns="http://www.w3.org/2000/svg" width="20" height="15" fill="none"><mask id="a" width="20" height="15" x="0" y="0" mask-type="alpha" maskUnits="userSpaceOnUse"><path fill="#fff" d="M0 0h20v15H0z"/></mask><g mask="url(#a)"><path fill="#19724D" fill-rule="evenodd" d="M0 0v15h20V0H0Z" clip-rule="evenodd"/><mask id="b" width="20" height="15" x="0" y="0" mask-type="alpha" maskUnits="userSpaceOnUse"><path fill="#fff" fill-rule="evenodd" d="M0 0v15h20V0H0Z" clip-rule="evenodd"/></mask><g mask="url(#b)"><path fill="#F7FCFF" d="m9.735 9.386-1.071 2.932.592-3.065-1.794 2.555 1.365-2.807-2.393 2.004 2.045-2.359-2.83 1.316 2.585-1.748-3.075.538 2.95-1.02L5 7.456l3.114-.221-2.932-1.071 3.065.592-2.555-1.794 2.807 1.365-2.003-2.393 2.358 2.045-1.316-2.83 1.748 2.585-.538-3.075 1.02 2.95.276-3.109.221 3.114 1.071-2.932-.592 3.065 1.794-2.555-1.365 2.807 2.393-2.004-2.045 2.359 2.83-1.316-2.585 1.748 3.075-.538-2.95 1.02L15 7.544l-3.114.221 2.932 1.071-3.064-.592 2.554 1.794-2.807-1.365 2.004 2.393-2.359-2.045 1.316 2.83-1.748-2.585.538 3.075-1.02-2.95-.276 3.109-.221-3.114Z"/><mask id="c" width="10" height="11" x="5" y="2" fill="#000" maskUnits="userSpaceOnUse"><path fill="#fff" d="M5 2h10v11H5z"/><path fill-rule="evenodd" d="m10.557 11.882-.25.118-.175-.25v-.128L10 11.326l-.21-.24-.086-.602-.256-.444-.03-.05-.035-.114v-.159l.065-.225.114-.266v-.53l-.114-.36-.308-.297-.149-.229.15-.272.111-.24-.26-.167h-.296l-.3-.288-.412.143-.519.145H6.83l-.282-.288-.15-.34-.285-.353L6 5.972l.113-.252v-.731l.179-.186.256-.482.282-.253.24-.22.1-.224.295-.344.267-.152v.152h.252L9.252 3v.446l.539.298.516.105v-.225l.89.225.634-.105v.448l.322.61.269.535.148.26.233.244.375.31v.147h.368L14 6.15v.352l-.242.63-.472.406-.601.798v.36l.118.53-.118.491-.657.405v.759h-.322v.364l-.718.637h-.43Zm2.53-1.082-.147-.088-.05-.124-.033-.319.251-.278-.052-.308.083-.162.143-.046.321-.094.244-.381.153.062-.02.413-.63 1.237-.263.088Z" clip-rule="evenodd"/></mask><path fill="#19724D" fill-rule="evenodd" d="m10.557 11.882-.25.118-.175-.25v-.128L10 11.326l-.21-.24-.086-.602-.256-.444-.03-.05-.035-.114v-.159l.065-.225.114-.266v-.53l-.114-.36-.308-.297-.149-.229.15-.272.111-.24-.26-.167h-.296l-.3-.288-.412.143-.519.145H6.83l-.282-.288-.15-.34-.285-.353L6 5.972l.113-.252v-.731l.179-.186.256-.482.282-.253.24-.22.1-.224.295-.344.267-.152v.152h.252L9.252 3v.446l.539.298.516.105v-.225l.89.225.634-.105v.448l.322.61.269.535.148.26.233.244.375.31v.147h.368L14 6.15v.352l-.242.63-.472.406-.601.798v.36l.118.53-.118.491-.657.405v.759h-.322v.364l-.718.637h-.43Zm2.53-1.082-.147-.088-.05-.124-.033-.319.251-.278-.052-.308.083-.162.143-.046.321-.094.244-.381.153.062-.02.413-.63 1.237-.263.088Z" clip-rule="evenodd"/><path fill="#F7FCFF" d="m10.307 12-.164.115.097.138.152-.072-.085-.181Zm.25-.118v-.2h-.044l-.04.019.084.181Zm-.425-.131h-.2v.063l.036.052.164-.115Zm0-.129h.2v-.043l-.017-.038-.183.081ZM10 11.326l.183-.082-.013-.027-.02-.023-.15.132Zm-.21-.24-.197.03.008.058.04.045.15-.132Zm-.086-.602.198-.029-.005-.038-.02-.033-.173.1Zm-.256-.444.174-.1-.003-.004-.17.104Zm-.03-.05-.191.06.007.023.014.022.17-.104Zm-.035-.114h-.2v.03l.01.028.19-.058Zm0-.159-.192-.056-.008.028v.028h.2Zm.065-.225-.183-.079-.005.011-.004.012.192.056Zm.114-.266.184.079.016-.038v-.04h-.2Zm0-.53h.2v-.03l-.01-.03-.19.06Zm-.114-.36.191-.06-.015-.049-.037-.035-.139.144ZM9.14 8.04l-.167.109.012.019.016.016.14-.144Zm-.149-.229-.175-.096-.057.105.065.1.167-.109Zm.15-.272.175.096.006-.012-.182-.084Zm.111-.24.181.085.074-.159-.147-.094-.108.168Zm-.26-.167.107-.168-.049-.032h-.059v.2Zm-.296 0-.139.144.058.056h.081v-.2Zm-.3-.288.139-.144-.088-.085-.116.04.065.189Zm-.412.143.054.193.011-.004-.065-.19Zm-.519.145v.2h.028l.026-.007-.054-.193Zm-.635 0-.143.14.059.06h.084v-.2Zm-.282-.288-.183.08.015.034.025.025.143-.14Zm-.15-.34.183-.081-.01-.025-.017-.02-.156.125Zm-.285-.353-.168.107.006.01.007.009.155-.126ZM6 5.972l-.182-.082-.045.098.058.091L6 5.972Zm.113-.252.183.082.017-.04V5.72h-.2Zm0-.731L5.97 4.85l-.056.058v.08h.2Zm.179-.186.144.138.02-.02.012-.024-.176-.094Zm.256-.482-.133-.149-.027.024-.016.03.176.095Zm.282-.253.134.148-.134-.148Zm.24-.22.135.149.03-.029.018-.038-.183-.081Zm.1-.224-.152-.13-.019.022-.012.027.183.081Zm.295-.344-.098-.174-.03.017-.024.027.152.13Zm.267-.152h.2v-.343l-.298.17.098.173Zm0 .152h-.2v.2h.2v-.2Zm.252 0v.2h.021l.022-.005-.043-.195ZM9.252 3h.2v-.249l-.243.054.043.195Zm0 .446h-.2v.118l.103.057.097-.175Zm.539.298-.097.175.027.014.03.006.04-.195Zm.516.105-.04.196.24.049v-.245h-.2Zm0-.225.049-.193-.25-.063v.256h.2Zm.89.225-.05.194.041.01.041-.007-.032-.197Zm.634-.105h.2v-.236l-.233.038.033.198Zm0 .448h-.2v.05l.023.043.177-.093Zm.322.61.18-.09-.003-.003-.177.094Zm.269.535-.18.09.006.01.174-.1Zm.148.26-.173.1.012.021.017.018.144-.138Zm.233.244-.144.138.008.008.009.008.127-.154Zm.375.31h.2v-.095l-.073-.06-.127.154Zm0 .147h-.2v.2h.2v-.2Zm.368 0v.2h.032l.03-.01-.062-.19ZM14 6.15h.2v-.275l-.262.085.062.19Zm0 .352.187.072.013-.035v-.037H14Zm-.242.63.13.15.039-.032.018-.047-.187-.072Zm-.472.406-.13-.152-.016.014-.013.018.16.12Zm-.601.798-.16-.12-.04.053v.067h.2Zm0 .36h-.2v.022l.005.022.195-.044Zm.118.53.195.047.01-.045-.01-.045-.195.043Zm-.118.491.105.17.07-.043.02-.08-.195-.047Zm-.657.405-.105-.17-.095.059v.111h.2Zm0 .76v.2h.2v-.2h-.2Zm-.322 0v-.2h-.2v.2h.2Zm0 .363.133.15.067-.06v-.09h-.2Zm-.718.637v.2h.075l.057-.05-.132-.15Zm1.952-1.17-.186.075.026.063.057.034.103-.172Zm.147.088-.102.172.079.047.087-.03-.064-.189Zm-.198-.212-.199.02.003.028.01.027.186-.075Zm-.032-.319-.148-.134-.06.066.01.088.198-.02Zm.251-.278.149.134.065-.072-.017-.095-.197.033Zm-.052-.308-.178-.091-.03.059.011.065.197-.033Zm.083-.162-.06-.191-.08.025-.038.075.178.09Zm.143-.046-.056-.191h-.004l.06.191Zm.321-.094.057.191.072-.02.04-.063-.169-.108ZM13.847 9l.075-.185-.154-.063-.09.14.17.108Zm.153.062.2.01.007-.142-.132-.054-.075.186Zm-.02.413.177.091.02-.038.002-.043-.2-.01Zm-.63 1.237.063.19.078-.026.037-.073-.178-.091Zm-2.958 1.469.25-.118-.17-.362-.25.118.17.362Zm-.424-.315.175.249.327-.23-.174-.25-.328.23Zm-.036-.244v.129h.4v-.129h-.4Zm-.115-.215.132.296.366-.162-.132-.296-.366.162Zm-.177-.188.21.239.3-.264-.209-.239-.3.264Zm-.134-.707.087.603.396-.056-.087-.604-.396.057Zm-.23-.372.255.444.347-.2-.256-.444-.347.2Zm-.028-.045.03.05.341-.209-.03-.05-.341.209Zm-.056-.16.035.114.383-.116-.035-.115-.383.116Zm-.009-.218v.159h.4v-.159h-.4Zm.073-.28-.065.224.385.111.065-.225-.385-.11Zm.122-.29-.113.266.367.157.114-.265-.368-.157Zm-.016-.156v.235h.4v-.235h-.4Zm0-.295v.295h.4v-.295h-.4Zm-.104-.3.113.36.382-.12-.114-.36-.381.12ZM9 8.183l.309.297.277-.288-.308-.297-.278.288Zm-.177-.263.149.228.335-.219-.149-.228-.335.219Zm.14-.478-.148.272.351.192.149-.272-.351-.192Zm.107-.228-.112.24.363.168.111-.24-.362-.168Zm-.188.086.261.167.216-.337-.26-.167-.217.337Zm-.187.031h.295v-.4h-.295v.4Zm-.438-.344.3.288.277-.288-.3-.288-.277.288Zm-.209.188.413-.143-.131-.378-.413.143.131.378Zm-.53.149.519-.146-.109-.385-.518.146.108.385Zm-.35.007h.296v-.4H7.17v.4Zm-.339 0h.34v-.4h-.34v.4Zm-.425-.349.282.289.286-.28-.282-.288-.286.28Zm-.19-.399.15.34.366-.161-.15-.34-.366.161Zm-.257-.307.285.352.31-.251-.284-.353-.311.252Zm-.127-.197.114.178.337-.214-.113-.179-.338.215Zm.1-.441-.113.252.364.164.114-.252-.365-.164Zm-.018-.3v.382h.4v-.383h-.4Zm0-.35v.35h.4v-.35h-.4Zm.234-.324-.178.186.289.277.178-.186-.289-.277Zm.225-.437-.257.482.353.188.257-.482-.353-.188Zm.324-.308-.281.253.267.298.282-.254-.268-.297Zm.24-.218-.24.219.269.295.24-.218-.27-.296Zm.051-.158-.1.224.366.163.1-.224-.366-.163Zm.326-.393-.295.344.304.26.295-.344-.304-.26Zm.32-.196-.266.152.197.348.267-.152-.197-.348Zm.3.326v-.152h-.4v.152h.4Zm.05-.2h-.25v.4h.25v-.4Zm1.226-.275-1.269.28.087.39 1.268-.28-.086-.39Zm.243.64V3h-.4v.446h.4Zm.436.123-.54-.297-.193.35.54.298.193-.35Zm.459.085-.516-.105-.08.391.516.106.08-.392Zm-.24-.029v.225h.4v-.225h-.4Zm1.139.03-.89-.223-.098.387.89.225.098-.388Zm.552-.108-.634.106.065.394.635-.105-.066-.395Zm.233.646v-.448h-.4v.448h.4Zm.3.517-.323-.61-.354.186.322.61.354-.186Zm.27.539-.269-.535-.357.18.268.534.357-.18Zm.143.25-.149-.26-.347.199.149.26.347-.199Zm.204.204-.233-.243-.289.277.233.243.289-.277Zm.357.294-.374-.31-.255.309.374.31.255-.31Zm.073.302V6.15h-.4v.148h.4Zm.168-.2h-.368v.4h.368v-.4Zm.392-.138-.454.147.124.38.454-.147-.124-.38Zm.262.542V6.15h-.4v.352h.4Zm-.255.7.242-.628-.374-.143-.241.628.373.144Zm-.528.487.472-.406-.261-.303-.472.406.261.303Zm-.572.767.601-.798-.32-.24-.6.798.319.24Zm.04.24v-.36h-.4v.36h.4Zm.114.487-.119-.53-.39.087.118.53.39-.087Zm-.12.58.119-.49-.389-.094-.118.491.388.094Zm-.746.53.657-.406-.21-.34-.657.405.21.34Zm.095.077v-.248h-.4v.248h.4Zm0 .511v-.511h-.4v.511h.4Zm-.522.2h.322v-.4h-.322v.4Zm.2.164v-.364h-.4v.364h.4Zm-.786.787.719-.637-.266-.3-.718.637.265.3Zm-.563.05h.43v-.4h-.43v.4Zm2.28-1.198.148.088.205-.344-.148-.088-.205.344Zm-.133-.22.05.123.371-.15-.05-.124-.371.15Zm-.046-.375.032.319.398-.04-.032-.319-.398.04Zm.302-.432-.251.278.296.268.252-.278-.297-.268Zm-.101-.14.052.307.394-.066-.051-.308-.395.066Zm.102-.287-.083.162.357.182.082-.163-.356-.181Zm.261-.145-.143.045.12.381.143-.045-.12-.381Zm.325-.096-.321.095.113.383.321-.095-.113-.383Zm.132-.297-.244.38.337.217.244-.381-.337-.216Zm.396-.016-.153-.061-.15.37.153.062.15-.37Zm.104.61.02-.414-.399-.02-.02.413.399.02Zm-.65 1.317.628-1.237-.356-.181-.63 1.236.357.182Zm-.378.187.262-.088-.127-.38-.262.088.127.38Z" mask="url(#c)"/><path fill="#FECA00" fill-rule="evenodd" d="m10 1.625-.44.232.083-.491-.356-.348.493-.071L10 .5l.22.447.493.071-.356.348.084.49L10 1.626ZM11.52 1.825l-.485.11.208-.452-.254-.428.494.058.329-.374.097.488.458.197-.435.243-.046.496-.365-.338ZM12.938 2.412l-.498-.02.318-.383-.135-.479.463.184.414-.276-.032.497.39.308-.482.123-.173.467-.265-.42ZM14.154 3.346l-.475-.148.406-.288-.006-.498.4.298.47-.16-.16.472.299.4-.498-.007-.288.406-.148-.475ZM15.088 4.562l-.421-.265.467-.173.123-.483.308.391.497-.032-.276.414.184.463-.48-.135-.382.318-.02-.498ZM15.675 5.98l-.338-.366.496-.046.243-.435.197.458.489.097-.375.329.058.494-.428-.254-.452.208.11-.486ZM15.875 7.5l-.232-.44.491.083.348-.356.071.493.447.22-.447.22-.071.493-.348-.356-.49.084.231-.441ZM15.675 9.02l-.11-.485.452.208.428-.254-.058.494.375.329-.489.097-.197.458-.243-.435-.496-.046.338-.365ZM15.088 10.438l.02-.498.383.318.479-.135-.184.463.276.414-.497-.032-.308.39-.123-.482-.467-.173.42-.265ZM14.154 11.654l.148-.475.288.406.498-.006-.298.4.16.47-.472-.16-.4.299.007-.498-.406-.288.475-.148ZM12.938 12.588l.265-.421.173.467.483.123-.391.308.032.497-.414-.276-.463.184.135-.48-.318-.382.498-.02ZM11.52 13.175l.366-.338.046.496.434.243-.457.197-.097.489-.329-.375-.494.058.254-.428-.208-.452.486.11ZM10 13.375l.44-.232-.083.491.356.348-.493.071-.22.447-.22-.447-.493-.071.356-.348-.084-.49.441.231ZM8.48 13.175l.485-.11-.208.452.254.428-.494-.058-.329.374-.097-.488-.458-.197.435-.243.046-.496.365.338ZM7.063 12.588l.497.02-.318.383.135.479-.463-.184-.414.276.032-.497-.39-.308.482-.123.173-.467.266.42ZM5.846 11.654l.475.148-.406.288.006.498-.4-.298-.47.16.16-.472-.299-.4.498.007.288-.406.148.475ZM4.912 10.438l.421.265-.467.173-.123.483-.308-.391-.497.032.276-.414-.184-.463.48.135.382-.318.02.498ZM4.325 9.02l.338.366-.496.046-.243.435-.197-.458-.488-.097.374-.329-.059-.494.429.254.452-.208-.11.486ZM4.125 7.5l.232.44-.491-.083-.348.356-.071-.493L3 7.5l.447-.22.071-.493.348.356.49-.084-.231.441ZM4.325 5.98l.11.485-.452-.208-.428.254.058-.494-.374-.329.488-.097.197-.458.243.435.496.046-.338.365ZM4.912 4.563l-.02.497-.383-.318-.479.135.184-.463L3.938 4l.497.032.308-.39.123.482.467.173-.42.266ZM5.846 3.346l-.148.475-.288-.406-.498.006.298-.4-.16-.47.472.16.399-.299-.006.498.406.288-.475.148ZM7.062 2.412l-.265.421-.173-.467-.483-.123.391-.308-.032-.497.414.276.463-.184-.135.48.318.382-.498.02ZM8.48 1.825l-.366.338-.046-.496-.435-.243.458-.197.097-.488.329.374.494-.059-.254.429.208.452-.486-.11Z" clip-rule="evenodd"/></g></g></svg>