<svg xmlns="http://www.w3.org/2000/svg" width="20" height="15" fill="none"><mask id="a" width="20" height="15" x="0" y="0" maskUnits="userSpaceOnUse"><path fill="#fff" d="M0 0h20v15H0z"/></mask><g mask="url(#a)"><path fill="#3195F9" fill-rule="evenodd" d="M0 0v15h20V0H0z" clip-rule="evenodd"/><mask id="b" width="20" height="15" x="0" y="0" maskUnits="userSpaceOnUse"><path fill="#fff" fill-rule="evenodd" d="M0 0v15h20V0H0z" clip-rule="evenodd"/></mask><g mask="url(#b)"><path fill="#E31D1C" stroke="#FECA00" stroke-width="1.563" d="m-1.139 15.9.434.65.65-.434L22.608.988l.65-.433-.434-.65-1.388-2.08-.433-.65-.65.434L-2.31 12.737l-.65.433.434.65 1.387 2.08z"/><path fill="#FECA00" fill-rule="evenodd" d="M3.082 5.379.903 6.89 1.6 4.302 0 2.649l2.165-.09L3.082 0l.916 2.56H6.16L4.564 4.301l.8 2.435L3.081 5.38z" clip-rule="evenodd"/></g></g></svg>