<svg xmlns="http://www.w3.org/2000/svg" width="20" height="15" fill="none"><mask id="a" width="20" height="15" x="0" y="0" maskUnits="userSpaceOnUse"><path fill="#fff" d="M0 0h20v15H0z"/></mask><g mask="url(#a)"><path fill="#FECA00" fill-rule="evenodd" d="M0 0v15h20V0H0z" clip-rule="evenodd"/><mask id="b" width="20" height="15" x="0" y="0" maskUnits="userSpaceOnUse"><path fill="#fff" fill-rule="evenodd" d="M0 0v15h20V0H0z" clip-rule="evenodd"/></mask><g mask="url(#b)"><path fill="#5EAA22" fill-rule="evenodd" d="M0 0v5h20V0H0z" clip-rule="evenodd"/><path fill="#E31D1C" fill-rule="evenodd" d="M0 10v5h20v-5H0z" clip-rule="evenodd"/><path fill="#2B77B8" fill-rule="evenodd" d="M10 11.25a3.75 3.75 0 1 0 0-7.5 3.75 3.75 0 0 0 0 7.5z" clip-rule="evenodd"/><path stroke="#FECA00" stroke-width=".938" d="m10 8.75-1.726.58.537-1.444-1.17-1.397h1.624L10 5l.735 1.489h1.66L11.19 7.886l.428 1.443L10 8.75z" clip-rule="evenodd"/><path stroke="#2B77B8" stroke-width=".625" d="m9.81 7.522-1.303 2.725m1.098-3.072h-2.5m2.971.849 2.443 1.127m-1.915-1.73 1.769-1.936"/></g></g></svg>