<svg xmlns="http://www.w3.org/2000/svg" width="20" height="15" fill="none"><mask id="a" width="20" height="15" x="0" y="0" maskUnits="userSpaceOnUse"><path fill="#fff" d="M0 0h20v15H0z"/></mask><g mask="url(#a)"><path fill="#F7FCFF" fill-rule="evenodd" d="M0 0v15h20V0H0z" clip-rule="evenodd"/><mask id="b" width="20" height="15" x="0" y="0" maskUnits="userSpaceOnUse"><path fill="#fff" fill-rule="evenodd" d="M0 0v15h20V0H0z" clip-rule="evenodd"/></mask><g fill-rule="evenodd" clip-rule="evenodd" mask="url(#b)"><path fill="#BF2714" d="M0 0v5h20V0H0z"/><path fill="#272727" d="M0 10v5h20v-5H0z"/><path fill="#009C4E" d="M3.335 8.007c.569.816-.21 1.368-.21 1.368s.68 0 .942-.546H9.64V7.625s-.117-.578-.613-.578-.608.578-.608.578H6.46L8.356 5.95l-.37-.326-2.106 1.86v.394h2.99v-.232s.017-.134.157-.134.106.134.106.134v.496H5.364v-.678l-.408.182v.496s-.5-.136-.816-.136c-.315 0-.334-.36-.334-.36l-.47.36zm7.57.046.305.761H9.994V5.76l.513.164v2.13h.397zm5.664 0 .306.761h-1.216V5.76l.513.164v2.13h.397zm-1.506-2.262-.317.214v2.046h-.322v-1.64l-.532.306V8.05h-.357v-.926l-.404.26v.251s-.778.054-.778 1.153h2.707l.003-2.998zM4.683 9.354c.097 0 .176-.07.176-.157 0-.086-.079-.156-.177-.156-.097 0-.177.07-.177.156 0 .087.08.157.177.157zm9.014-3.328c-.138.181-.555 0-.555 0l1.183-.137c-.122.238-.628.137-.628.137z"/></g></g></svg>