<svg xmlns="http://www.w3.org/2000/svg" width="20" height="15" fill="none"><mask id="a" width="20" height="15" x="0" y="0" maskUnits="userSpaceOnUse"><path fill="#fff" d="M0 0h20v15H0z"/></mask><g mask="url(#a)"><path fill="#F7FCFF" fill-rule="evenodd" d="M0 0v15h20V0H0z" clip-rule="evenodd"/><mask id="b" width="20" height="15" x="0" y="0" maskUnits="userSpaceOnUse"><path fill="#fff" fill-rule="evenodd" d="M0 0v15h20V0H0z" clip-rule="evenodd"/></mask><g fill-rule="evenodd" clip-rule="evenodd" mask="url(#b)"><path fill="#272727" d="M0 0v5h20V0H0z"/><path fill="#093" d="M0 10v5h20v-5H0z"/></g><path fill="#E31D1C" fill-rule="evenodd" d="M0 0v15l12.5-7.5L0 0z" clip-rule="evenodd"/><mask id="c" width="13" height="15" x="0" y="0" maskUnits="userSpaceOnUse"><path fill="#fff" fill-rule="evenodd" d="M0 0v15l12.5-7.5L0 0z" clip-rule="evenodd"/></mask><g mask="url(#c)"><path fill="#F7FCFF" fill-rule="evenodd" d="m5.626 8.67-1.17.705.268-1.377-.974-1.031 1.318-.056.558-1.286.558 1.286H7.5l-.971 1.087.292 1.377-1.195-.706z" clip-rule="evenodd"/></g></g></svg>