<svg xmlns="http://www.w3.org/2000/svg" width="20" height="15" fill="none"><path d="M0,0V15H20V0Z" fill="#f7fcff" fill-rule="evenodd"/><path d="M13.74,7.58a3.66,3.66,0,1,1-3.66-3.7A3.67,3.67,0,0,1,13.74,7.58Z" fill="#e31d1c" fill-rule="evenodd"/><path d="M6.47,6.93c.12.93.29,2,1.72,2.08a1.82,1.82,0,0,0,1.94-1.6,1.81,1.81,0,0,1,2.86-1,1.71,1.71,0,0,1,.74,1.35,3.64,3.64,0,0,1-1.84,3.08,3.73,3.73,0,0,1-4.16-.34A3.84,3.84,0,0,1,6.47,6.93Z" fill="#3d58db" fill-rule="evenodd"/><path d="M4.56,1.28l.57.52L2.48,4.89l-.57-.51Zm.94.84.58.52L3.52,5.69,3,5.17ZM7,3.48,6.44,3,3.88,6l.57.52L7,3.48Zm8.84-2.41-.57.51,1,1.16.57-.51Zm1.77,2.14L17,3.72l1,1.17.57-.52Zm-4.23,0L14,2.74l1,1.17-.57.51Zm2.34,1.62-.57.52,1,1.16.57-.51ZM14.37,2.39l.57-.51,2.77,3.36-.58.52ZM16.28,8.9l-.57-.52-1,1.17.57.52,1-1.17ZM14.6,11,14,10.44l-1,1.17.57.52,1-1.17ZM17.53,10l.58.52-1,1.17-.58-.52Zm-1,2.62-.58-.52-1,1.17.57.52ZM15,11.24l.58.51L14.51,13l-.58-.52Zm2.29-1.57-.58-.51-1,1.24.57.52ZM4,9.31l.58-.52,2.55,2.93-.57.51Zm.6,2.55.57-.51,1.08,1.18-.57.52ZM2.69,10.43,2.12,11l2.57,3,.57-.51Zm.41-.33.57-.52.94,1.1L4,11.19Z" fill="#272727" fill-rule="evenodd"/></svg>
