<svg xmlns="http://www.w3.org/2000/svg" width="20" height="15" fill="none"><mask id="a" width="20" height="15" x="0" y="0" maskUnits="userSpaceOnUse"><path fill="#fff" d="M0 0h20v15H0z"/></mask><g mask="url(#a)"><path fill="#F7FCFF" fill-rule="evenodd" d="M0 0v15h20V0H0z" clip-rule="evenodd"/><mask id="b" width="20" height="15" x="0" y="0" maskUnits="userSpaceOnUse"><path fill="#fff" fill-rule="evenodd" d="M0 0v15h20V0H0z" clip-rule="evenodd"/></mask><g fill-rule="evenodd" clip-rule="evenodd" mask="url(#b)"><path fill="#E31D1C" d="M10 0v7.5h10V0H10zm4.388 11.969-1.439.89.559-1.495-1.223-1.132h1.483l.62-1.616.473 1.617h1.486l-1.07 1.131.524 1.495-1.413-.89z"/><path fill="#2E42A5" d="m5.638 5.228-1.439.89.559-1.494-1.223-1.132h1.483l.62-1.617.473 1.617h1.486l-1.07 1.132.523 1.494-1.412-.89zM0 7.5V15h10V7.5H0z"/></g></g></svg>