<svg xmlns="http://www.w3.org/2000/svg" width="20" height="15" fill="none"><mask id="a" width="20" height="15" x="0" y="0" maskUnits="userSpaceOnUse"><path fill="#fff" d="M0 0h20v15H0z"/></mask><g mask="url(#a)"><path fill="#F7FCFF" fill-rule="evenodd" d="M5 0h10.625v15H5V0z" clip-rule="evenodd"/><path fill="#F50101" fill-rule="evenodd" d="M15 0h5v15h-5V0zM0 0h5v15H0V0z" clip-rule="evenodd"/><path fill="#A2BB6A" d="m9.838 5.466.021.226c-.624.063-.96-.242-.96-.875 0-.628.329-.961.95-.965v.227c-.502.003-.733.237-.733.738 0 .496.224.7.722.649zm.277 0-.021.226c.624.063.96-.242.96-.875 0-.628-.329-.961-.95-.965v.227c.502.003.734.237.734.738 0 .496-.225.7-.723.649z"/><path fill="#E31D1C" fill-rule="evenodd" d="M9.462 10.702c-.18.064-1.396 0-1.396 0v.339h.807c.269 0 .37.048.464.092.08.037.152.072.316.072.319 0 .313-.237.308-.435l-.001-.068a.55.55 0 0 1 .023-.167c.015-.053.024-.084-.023-.176-.079-.153-.83-.133-.83 0 0 .063.114.129.215.187.114.065.212.122.117.156zm1.094 0c.18.064 1.396 0 1.396 0v.339h-.807c-.269 0-.37.048-.464.092-.08.037-.152.072-.316.072-.319 0-.313-.237-.308-.435v-.068a.55.55 0 0 0-.022-.167c-.015-.053-.024-.084.023-.176.079-.153.83-.133.83 0 0 .063-.114.129-.215.187-.114.065-.212.122-.117.156z" clip-rule="evenodd"/><path fill="#00A854" fill-rule="evenodd" d="M10.254 10.734s.95-.094 1.165-.437c.214-.342.572-.926.698-1.068.125-.141.133.202.133.202s.208.295.208-.082c0-.376-.148-.113-.341-.68-.194-.565-.303-1.12-.249-1.205.055-.084.184.084.184 0v-.248l.199.248.207-.078s.17.365.276.479c.105.113.167-.152.136-.4-.03-.25-.412-.25-.412-.25s-.488-.262-.488-.372c0-.11.211-.078.211-.078l-.064-.34s.174.207.257.103c.084-.104-.123-.285-.123-.285h.33v-.16l.153.086-.153-.35s-.448.068-.53 0a8.345 8.345 0 0 1-.337-.33v-.124h-.148l.148-.25v-.4l.537.108v-.295s.755.368.619.665c-.136.296-.136.627-.136.627v.263s.023-.08.136-.08c.113 0 .242.058.242.24 0 .181.231-.074.231-.074v.756s.054.081.173 0c.118-.082.066-.018-.29.46-.356.48-.228.48-.114.363.114-.117.577-.45.404-.284-.173.167-.184.517 0 .4.184-.116.149-.198.149 0 0 .2-.325.875-.439.981-.114.106-.22.171-.356.278-.136.106-.289.232-.289.308 0 .077.289-.082.289-.082l-.136.486h.264s-.21.644-.624.644h-.808c-.083 0-.458.177-.458.177l-.275.078s.438.042.585.174c.148.131 0 .223 0 .223s-.405-.04-.707-.132c-.303-.091-.457.082-.457-.091v-.174z" clip-rule="evenodd"/><path fill="#C51918" fill-rule="evenodd" d="M12.99 5.568a.111.111 0 0 1-.11.114.111.111 0 0 1-.108-.114c0-.063.048-.113.108-.113s.11.05.11.113zm-.544.455a.111.111 0 0 1-.109.113.111.111 0 0 1-.109-.113c0-.063.049-.114.109-.114s.109.051.109.114zm.543-.114c.06 0 .109-.05.109-.114a.111.111 0 0 0-.109-.113c-.06 0-.109.05-.109.113s.05.114.11.114zm-.217 1.705a.111.111 0 0 1-.109.113.111.111 0 0 1-.109-.113c0-.063.049-.114.109-.114s.109.05.109.114zm-.544 1.477c.06 0 .109-.05.109-.114a.111.111 0 0 0-.109-.113c-.06 0-.108.05-.108.113s.048.114.108.114zm.87.227a.111.111 0 0 1-.109.114.111.111 0 0 1-.109-.114c0-.063.05-.113.11-.113s.108.05.108.113zm.108-.113c.06 0 .11-.051.11-.114a.111.111 0 0 0-.11-.114c-.06 0-.108.051-.108.114s.048.114.108.114zm0-1.705a.111.111 0 0 1-.108.114.111.111 0 0 1-.109-.114c0-.063.049-.114.109-.114s.108.051.108.114z" clip-rule="evenodd"/><path fill="#00A854" fill-rule="evenodd" d="M9.803 10.534s-1.727-.341-1.821-1.002c-.095-.66-.093-1.364-.093-1.364l-.16.43s-.009-.586.32-1.003c.328-.417-.41.277-.41.277s.373-.59.53-.647c.155-.056-.627.37-.627.37s.224-.495.398-.635c.174-.14-.398.265-.398.265s.13-.49.285-.608c.154-.117-.507.608-.507.608s.35-1.122.546-1.227c.196-.104-.324.206-.324.206s.319-.48.604-.719c.285-.238-.516.102-.418.102 0 0 .29-.327.456-.42.167-.091-.642.318-.642.318s.58-.64.755-.734c.173-.095-.855.508-.855.508s.06-.279.086-.479c.026-.2-.476.547-.408 1.218.069.671-.273-.513-.273-.513s-.137.257.196.93l-.361-.506s.05.46.165.708c.116.248-.329-.413-.329-.413s-.085.413 0 .413c0 0 .508.679.527.876.019.198-.57-.706-.65-.706-.078 0-.122.29 0 .29.123 0 .355.416.355.416s-.301-.218-.366-.23c-.065-.013.05.129.134.23 0 0-.236.193-.218.339.018.145.643.176.916.868 0 0-.564-.298-.698-.298s.216.311.33.414c.112.103-.175-.103-.252 0-.078.103.429.541.524.541h-.37s.124.175.295.175c.17 0 .782.274.782.363 0 .09-.516-.113-.611-.113-.096 0 .672.725 1.08.752.409.028.666.137.842.137h.3l-.831.424h.276c.361 0 .637.1.779-.107.141-.207.141-.454.141-.454z" clip-rule="evenodd"/><mask id="b" width="6" height="8" x="7.236" y="3.551" fill="#000" maskUnits="userSpaceOnUse"><path fill="#fff" d="M7.236 3.551h6v8h-6z"/><path fill-rule="evenodd" d="m10.054 5.566.026-.015v.03c.12.066.423.221.62.221.25 0 .591-.251.591-.251l.57.804s-.384.804-.09 1.786c.293.983-.016 1.74-1.321 1.824 0 0-.257.05-.37.127v.072c0-.018-.01-.035-.026-.05-.016.015-.026.032-.026.05v-.072c-.112-.078-.37-.127-.37-.127-1.305-.084-1.614-.841-1.32-1.824a2.693 2.693 0 0 0-.09-1.786l.57-.804s.34.251.59.251c.197 0 .5-.155.62-.222v-.03l.026.016z" clip-rule="evenodd"/></mask><path fill="#E8AA00" fill-rule="evenodd" d="m10.054 5.566.026-.015v.03c.12.066.423.221.62.221.25 0 .591-.251.591-.251l.57.804s-.384.804-.09 1.786c.293.983-.016 1.74-1.321 1.824 0 0-.257.05-.37.127v.072c0-.018-.01-.035-.026-.05-.016.015-.026.032-.026.05v-.072c-.112-.078-.37-.127-.37-.127-1.305-.084-1.614-.841-1.32-1.824a2.693 2.693 0 0 0-.09-1.786l.57-.804s.34.251.59.251c.197 0 .5-.155.62-.222v-.03l.026.016z" clip-rule="evenodd"/><path fill="#E8AA00" d="M10.08 5.55h.625v-1.1l-.945.564.32.537zm-.026.016-.308.544.308.174.308-.174-.308-.544zm.026.014h-.625v.37l.323.178.302-.548zm1.211-.03.51-.36-.368-.52-.513.378.371.503zm.57.805.564.27.158-.332-.212-.3-.51.362zm-.09 1.786-.6.18.6-.18zM10.45 9.965l-.04-.623-.039.002-.038.007.117.614zm-.37.127-.355-.514-.27.186v.328h.625zm-.026.021.438-.446-.438-.43-.437.43.437.446zm-.026-.02h.625v-.329l-.27-.186-.355.514zm-.37-.128.117-.614-.038-.007-.038-.002-.04.623zm-1.41-3.61-.51-.361-.212.3.158.33.564-.269zm.57-.804.37-.503-.512-.379-.369.52.51.362zm1.21.03.302.547.323-.179V5.58h-.625zm0-.03.32-.537-.945-.563v1.1h.625zm.052 0-.32-.537a1.019 1.019 0 0 1-.013.008l.616 1.088.026-.015.008-.005.002-.001h.001v-.001h.001l-.32-.537zm.625.03v-.03h-1.25v.03h1.25zm-.927.547c.071.039.2.107.347.167.127.052.348.132.575.132v-1.25c.027 0 .03.004 0-.004a.898.898 0 0 1-.102-.035 2.182 2.182 0 0 1-.216-.105l-.604 1.095zm.922.3c.293 0 .56-.133.687-.201a2.568 2.568 0 0 0 .266-.166l.006-.005.002-.001.001-.001a203.712 203.712 0 0 0-.742-1.006h.001v-.001c.001 0 .001 0 0 0a.295.295 0 0 1-.03.021c-.025.016-.06.038-.098.059a.747.747 0 0 1-.102.046c-.03.011-.025.004.01.004v1.25zm.081-.516.57.804 1.02-.722-.57-.804-1.02.722zm1.08.443a79.579 79.579 0 0 0-.565-.268l-.001.003a.698.698 0 0 1-.003.005l-.006.014a2 2 0 0 0-.071.183 3.33 3.33 0 0 0-.043 2.029l1.198-.358a2.082 2.082 0 0 1 .052-1.332l.005-.012a.132.132 0 0 1-.001.004c-.001.001-.001.001-.565-.268zm-.69 1.965c.124.414.075.634.01.737-.053.085-.222.25-.771.285l.08 1.247c.756-.049 1.395-.305 1.748-.865.343-.543.302-1.192.132-1.761l-1.198.357zm-.721 1.645-.117-.614-.002.001h-.005a1.66 1.66 0 0 0-.055.012l-.132.034a1.429 1.429 0 0 0-.414.18l.71 1.028c-.03.02-.043.024-.023.016a.78.78 0 0 1 .133-.038l.02-.004h.002l-.117-.615zm.255.2v-.073h-1.25v.072h1.25zm-1.088.394a.554.554 0 0 1-.162-.395h1.25a.697.697 0 0 0-.213-.497l-.875.892zm0-.892a.696.696 0 0 0-.214.497h1.25a.554.554 0 0 1-.161.395l-.875-.892zm1.036.497v-.072h-1.25v.072h1.25zm-.995-.199-.116.614H9.54h.003a1.012 1.012 0 0 1 .153.043c.02.008.006.005-.024-.016l.71-1.028a1.428 1.428 0 0 0-.413-.18 2.626 2.626 0 0 0-.188-.045l-.004-.001h-.002l-.118.613zm-1.92-2.002c-.17.569-.21 1.218.132 1.761.354.56.992.816 1.748.865l.08-1.247c-.549-.036-.717-.2-.77-.285-.066-.103-.115-.323.009-.737l-1.198-.357zm.51-1.608c-.564.27-.565.27-.565.269v-.003L7.68 6.62c0-.001 0-.001 0 0l.005.011a2.008 2.008 0 0 1 .102.361 2.07 2.07 0 0 1-.05.97l1.199.358a3.332 3.332 0 0 0-.123-2.23l-.001-.002v-.001h-.001l-.564.268zm.06-1.165-.57.804 1.02.722.57-.804-1.02-.722zm1.1-.013c.034 0 .04.007.01-.004a.743.743 0 0 1-.102-.046 1.343 1.343 0 0 1-.13-.08h.002v.001l-.37.503-.372.503h.002c0 .001 0 .002.002.002l.006.005a1.669 1.669 0 0 0 .075.051c.047.031.113.072.19.115.128.068.395.2.687.2v-1.25zm.318-.144c-.049.027-.131.07-.216.105a.9.9 0 0 1-.101.035c-.03.008-.027.004-.001.004v1.25c.228 0 .449-.08.575-.132.147-.06.276-.128.347-.167l-.604-1.095zm.927.547v-.03h-1.25v.03h1.25zm-.625-.03-.32.538h.002a1.325 1.325 0 0 1 .036.022l.616-1.088-.012-.007a.102.102 0 0 1-.003-.001h.001l-.32.537z" mask="url(#b)"/><mask id="d" width="6" height="7" x="7" y="4" maskUnits="userSpaceOnUse"><mask id="c" width="6" height="8" x="7.236" y="3.551" fill="#000" maskUnits="userSpaceOnUse"><path fill="#fff" d="M7.236 3.551h6v8h-6z"/><path fill-rule="evenodd" d="m10.054 5.566.026-.015v.03c.12.066.423.221.62.221.25 0 .591-.251.591-.251l.57.804s-.384.804-.09 1.786c.293.983-.016 1.74-1.321 1.824 0 0-.257.05-.37.127v.072c0-.018-.01-.035-.026-.05-.016.015-.026.032-.026.05v-.072c-.112-.078-.37-.127-.37-.127-1.305-.084-1.614-.841-1.32-1.824a2.693 2.693 0 0 0-.09-1.786l.57-.804s.34.251.59.251c.197 0 .5-.155.62-.222v-.03l.026.016z" clip-rule="evenodd"/></mask><path fill="#fff" fill-rule="evenodd" d="m10.054 5.566.026-.015v.03c.12.066.423.221.62.221.25 0 .591-.251.591-.251l.57.804s-.384.804-.09 1.786c.293.983-.016 1.74-1.321 1.824 0 0-.257.05-.37.127v.072c0-.018-.01-.035-.026-.05-.016.015-.026.032-.026.05v-.072c-.112-.078-.37-.127-.37-.127-1.305-.084-1.614-.841-1.32-1.824a2.693 2.693 0 0 0-.09-1.786l.57-.804s.34.251.59.251c.197 0 .5-.155.62-.222v-.03l.026.016z" clip-rule="evenodd"/><path fill="#fff" d="M10.08 5.55h.625v-1.1l-.945.564.32.537zm-.026.016-.308.544.308.174.308-.174-.308-.544zm.026.014h-.625v.37l.323.178.302-.548zm1.211-.03.51-.36-.368-.52-.513.378.371.503zm.57.805.564.27.158-.332-.212-.3-.51.362zm-.09 1.786-.6.18.6-.18zM10.45 9.965l-.04-.623-.039.002-.038.007.117.614zm-.37.127-.355-.514-.27.186v.328h.625zm-.026.021.438-.446-.438-.43-.437.43.437.446zm-.026-.02h.625v-.329l-.27-.186-.355.514zm-.37-.128.117-.614-.038-.007-.038-.002-.04.623zm-1.41-3.61-.51-.361-.212.3.158.33.564-.269zm.57-.804.37-.503-.512-.379-.369.52.51.362zm1.21.03.302.547.323-.179V5.58h-.625zm0-.03.32-.537-.945-.563v1.1h.625zm.052 0-.32-.537a1.019 1.019 0 0 1-.013.008l.616 1.088.026-.015.008-.005.002-.001h.001v-.001h.001l-.32-.537zm.625.03v-.03h-1.25v.03h1.25zm-.927.547c.071.039.2.107.347.167.127.052.348.132.575.132v-1.25c.027 0 .03.004 0-.004a.898.898 0 0 1-.102-.035 2.182 2.182 0 0 1-.216-.105l-.604 1.095zm.922.3c.293 0 .56-.133.687-.201a2.568 2.568 0 0 0 .266-.166l.006-.005.002-.001.001-.001a203.712 203.712 0 0 0-.742-1.006h.001v-.001c.001 0 .001 0 0 0a.295.295 0 0 1-.03.021c-.025.016-.06.038-.098.059a.747.747 0 0 1-.102.046c-.03.011-.025.004.01.004v1.25zm.081-.516.57.804 1.02-.722-.57-.804-1.02.722zm1.08.443a79.579 79.579 0 0 0-.565-.268l-.001.003a.698.698 0 0 1-.003.005l-.006.014a2 2 0 0 0-.071.183 3.33 3.33 0 0 0-.043 2.029l1.198-.358a2.082 2.082 0 0 1 .052-1.332l.005-.012a.132.132 0 0 1-.001.004c-.001.001-.001.001-.565-.268zm-.69 1.965c.124.414.075.634.01.737-.053.085-.222.25-.771.285l.08 1.247c.756-.049 1.395-.305 1.748-.865.343-.543.302-1.192.132-1.761l-1.198.357zm-.721 1.645-.117-.614-.002.001h-.005a1.66 1.66 0 0 0-.055.012l-.132.034a1.429 1.429 0 0 0-.414.18l.71 1.028c-.03.02-.043.024-.023.016a.78.78 0 0 1 .133-.038l.02-.004h.002l-.117-.615zm.255.2v-.073h-1.25v.072h1.25zm-1.088.394a.554.554 0 0 1-.162-.395h1.25a.697.697 0 0 0-.213-.497l-.875.892zm0-.892a.696.696 0 0 0-.214.497h1.25a.554.554 0 0 1-.161.395l-.875-.892zm1.036.497v-.072h-1.25v.072h1.25zm-.995-.199-.116.614H9.54h.003a1.012 1.012 0 0 1 .153.043c.02.008.006.005-.024-.016l.71-1.028a1.428 1.428 0 0 0-.413-.18 2.626 2.626 0 0 0-.188-.045l-.004-.001h-.002l-.118.613zm-1.92-2.002c-.17.569-.21 1.218.132 1.761.354.56.992.816 1.748.865l.08-1.247c-.549-.036-.717-.2-.77-.285-.066-.103-.115-.323.009-.737l-1.198-.357zm.51-1.608c-.564.27-.565.27-.565.269v-.003L7.68 6.62c0-.001 0-.001 0 0l.005.011a2.008 2.008 0 0 1 .102.361 2.07 2.07 0 0 1-.05.97l1.199.358a3.332 3.332 0 0 0-.123-2.23l-.001-.002v-.001h-.001l-.564.268zm.06-1.165-.57.804 1.02.722.57-.804-1.02-.722zm1.1-.013c.034 0 .04.007.01-.004a.743.743 0 0 1-.102-.046 1.343 1.343 0 0 1-.13-.08h.002v.001l-.37.503-.372.503h.002c0 .001 0 .002.002.002l.006.005a1.669 1.669 0 0 0 .075.051c.047.031.113.072.19.115.128.068.395.2.687.2v-1.25zm.318-.144c-.049.027-.131.07-.216.105a.9.9 0 0 1-.101.035c-.03.008-.027.004-.001.004v1.25c.228 0 .449-.08.575-.132.147-.06.276-.128.347-.167l-.604-1.095zm.927.547v-.03h-1.25v.03h1.25zm-.625-.03-.32.538h.002a1.325 1.325 0 0 1 .036.022l.616-1.088-.012-.007a.102.102 0 0 1-.003-.001h.001l-.32.537z" mask="url(#c)"/></mask><g mask="url(#d)"><path fill="#67BAFF" d="M8.315 5.455h1.739v2.386H8.315z"/><path fill="#fff" d="M10.054 5.455h1.739v2.386h-1.739z"/><path fill="#C51918" d="M8.098 8.068h4.348v2.727H8.098z"/><path fill="#C9A951" d="M10.897 7.672h-.218V6.038h.218v1.634z"/><path fill="#C9A951" d="m10.809 6.928-.106.19-.376-.21.106-.189.376.21zm0-.454-.106.19-.376-.21.106-.19.376.21z"/><path fill="#C9A951" d="m10.762 6.928.106.19.375-.21-.106-.189-.375.21zm0-.454.106.19.375-.21-.106-.19-.375.21z"/><path fill="#FBCD17" fill-rule="evenodd" d="M11.08 8.566s.152-.173.152-.087c0 .087 0 .232-.076.232-.075 0-.428-.07-.562-.232-.134-.163-.418-.446-.783-.379-.366.067-.8.54-.906.54-.107 0-.34.366-.17.65.17.286.46.197.46.28 0 .083.073.092.344.092.272 0 .371.096.606.096s-.077-.003.301-.096c.379-.092.666-.371.445-.371h-.445c-.153 0-.493.11-.493 0s.076-.346.285-.228c.208.118.788.207.994 0 .206-.208.277-.334.242-.584-.037-.25-.318-.178-.318-.178l-.075.265z" clip-rule="evenodd"/><path fill="#D18219" fill-rule="evenodd" d="M9.61 5.981c-.13.115-.046.534-.261.534-.215 0-.517-.314-.593-.107-.076.207 0 .137 0 .314 0 .176-.182.666-.091.749.09.082.184.3.168.198-.016-.102-.085-.252-.056-.415-.028-.168.153-.33.153-.33s-.02.175-.034.24c0 0-.06.132-.035.219 0 0 .061.246.087.263 0 0 .016-.583.035-.679.018-.096.152.108.196.085 0 0 .015.399-.008.446 0 0-.047.095-.03.125 0 0 .044.109.081.077l.02-.108s-.022-.064.012-.21c0 0 .036-.322.051-.252 0 0-.006.152.01.23 0 0 .028.194.034.215 0 0 .13.187.134.108 0 0-.126-.15-.099-.264 0 0-.072-.323.029-.395 0 0 .267-.123.283-.335 0 0 .038-.24.045-.35 0 0-.058-.033.063-.09 0 0 .194-.074.073-.178" clip-rule="evenodd"/></g></g></svg>