<svg xmlns="http://www.w3.org/2000/svg" width="20" height="15" fill="none"><mask id="a" width="20" height="15" x="0" y="0" maskUnits="userSpaceOnUse"><path fill="#fff" d="M0 0h20v15H0z"/></mask><g fill-rule="evenodd" clip-rule="evenodd" mask="url(#a)"><path fill="#2F8D00" d="M5 0h15v15H5V0z"/><path fill="#F7FCFF" d="M0 0h5v15H0V0z"/><path fill="#F1F9FF" d="M14.018 9.566s-2.79.728-5.006-.756C6.796 7.325 7.91 3.905 7.91 3.905c-1.155.168-2.97 4.384-.045 6.499 2.925 2.114 5.728.082 6.153-.838zm-3.097-4.024-1.482.724 1.564.279.21 1.528.886-1.302 1.743.118-1.365-1.018.727-1.36-1.36.622-1.009-.949.086 1.358z"/></g></svg>