<svg xmlns="http://www.w3.org/2000/svg" width="20" height="15" fill="none"><mask id="a" width="20" height="15" x="0" y="0" maskUnits="userSpaceOnUse"><path fill="#fff" d="M0 0h20v15H0z"/></mask><g fill-rule="evenodd" clip-rule="evenodd" mask="url(#a)"><path fill="#FBCD17" d="M0 0v15h20V0H0z"/><path fill="#73BE4A" d="M0 0v5h20V0H0zm0 10v5h20v-5H0z"/><path fill="#C51918" d="M0 0v15l6.25-7.5L0 0z"/><path fill="#272727" d="m10.626 8.67-1.169.705.267-1.377-.974-1.031 1.318-.056.558-1.286.558 1.286H12.5l-.971 1.087.292 1.377-1.195-.706zm5 0-1.169.705.267-1.377-.974-1.031 1.318-.056.558-1.286.558 1.286H17.5l-.971 1.087.292 1.377-1.195-.706z"/></g></svg>