<svg xmlns="http://www.w3.org/2000/svg" width="20" height="15" fill="none"><mask id="a" width="20" height="15" x="0" y="0" maskUnits="userSpaceOnUse"><path fill="#fff" d="M0 0h20v15H0z"/></mask><g mask="url(#a)"><path fill="#2E42A5" fill-rule="evenodd" d="M0 0v15h20V0H0z" clip-rule="evenodd"/><mask id="b" width="20" height="15" x="0" y="0" maskUnits="userSpaceOnUse"><path fill="#fff" fill-rule="evenodd" d="M0 0v15h20V0H0z" clip-rule="evenodd"/></mask><g fill-rule="evenodd" clip-rule="evenodd" mask="url(#b)"><path fill="#F7FCFF" d="m2.059 6.29-.553.342.214-.575-.47-.435h.57L2.06 5l.182.622h.571l-.411.435.201.575-.543-.342zm2.501-2.5-.554.342.214-.575-.47-.435h.57l.24-.622.182.622h.572l-.412.435.201.575-.543-.342zm2.5 2.5-.554.342.214-.575-.47-.435h.57L7.06 5l.182.622h.572l-.412.435.201.575-.543-.342zm-2.5 2.5-.554.342.214-.575-.47-.435h.57l.24-.622.182.622h.572l-.412.435.201.575-.543-.342z"/><path fill="#FECA00" d="M15.526 3.414c-2.552 1.261-10.938 6.927-10.938 6.927h13.97c-.14-.031-.27-.057-.393-.082-1.025-.204-1.531-.305-2.639-2.51-1.24-2.47 0-4.335 0-4.335zM4.135 11.228l-.191.475.19.522 14.222.275.394-.725-.394-.522-14.221-.025z"/></g></g></svg>