<svg xmlns="http://www.w3.org/2000/svg" width="20" height="15" fill="none"><mask id="a" width="20" height="15" x="0" y="0" maskUnits="userSpaceOnUse"><path fill="#fff" d="M0 0h20v15H0z"/></mask><g mask="url(#a)"><path fill="#F7FCFF" fill-rule="evenodd" d="M0 0h20v15H0V0z" clip-rule="evenodd"/><path fill="#FFDC17" fill-rule="evenodd" d="M0 0h8.75v15H0V0z" clip-rule="evenodd"/><path fill="#AF0100" d="m14.239 7.97-.216.014c.051.74.21 1.313.48 1.717.437.652 1.011 1.155 1.396 1.155.088 0 .108.033.08.113-.042.114-.171.226-.338.269-.277.072-.908.109-1.882.109v.209c.993 0 1.635-.038 1.938-.116.234-.06.42-.221.485-.402.076-.21-.038-.39-.283-.39-.285 0-.816-.465-1.214-1.06-.247-.37-.397-.91-.447-1.619zm-1.022 0 .216.014c-.052.74-.211 1.313-.481 1.717-.436.652-1.011 1.155-1.396 1.155-.087 0-.108.033-.079.113.041.114.17.226.338.269.277.072.908.109 1.881.109v.209c-.993 0-1.635-.038-1.937-.116-.235-.06-.42-.221-.486-.402-.075-.21.038-.39.283-.39.286 0 .816-.465 1.214-1.06.248-.37.398-.91.447-1.619z"/><path fill="#F4B300" fill-rule="evenodd" d="m17.542 4.249-5.714 4.454a2.062 2.062 0 0 0-.646-.101c-.927 0-1.702.592-1.702 1.36 0 .769.775 1.36 1.702 1.36.107 0 .211-.007.313-.022a.598.598 0 0 1-.2-.262c-.041-.117-.024-.226.042-.299a1.56 1.56 0 0 1-.155.008c-.625 0-1.108-.368-1.108-.785 0-.416.483-.785 1.108-.785.626 0 1.108.369 1.108.785a.61.61 0 0 1-.125.36l.045-.042c.198-.184-.247.576-.631.576-.088 0-.108.033-.08.113.04.107.155.212.307.26.627-.196 1.08-.68 1.08-1.267 0-.24-.077-.463-.209-.656l3.07-2.606.206.213.148-.134.513.38-.215.165.438.532.883-.68.015-.008-.002-.002.055-.042-.438-.533-.212.164-.573-.397.067-.06-.185-.191.278-.236.147.152.158-.143.497.393-.209.161.438.533.757-.584.086-.047-.012-.01.12-.092-.438-.532-.248.19-.544-.417.074-.067-.127-.13.566-.48-.448-.55z" clip-rule="evenodd"/><path fill="#BFBFBF" fill-rule="evenodd" d="M9.804 9.203c.164 0 .297-.105.297-.235s-.133-.235-.297-.235c-.164 0-.297.105-.297.235s.133.235.297.235zm.108 2.146c.164 0 .297-.106.297-.236s-.133-.235-.297-.235c-.164 0-.297.105-.297.235s.133.236.297.236zm2.946-.236c0 .13-.133.236-.297.236-.164 0-.297-.106-.297-.236s.133-.235.297-.235c.164 0 .297.105.297.235zm1.757-1.151c0-.345.157-.655.413-.891l-3.28-2.541-.038.029.096.086-.26.268-.135-.124-.502.387.191.148-.437.532-.874-.673-.024-.015.002-.002-.054-.042.437-.533.212.164.573-.397-.067-.06.248-.257-.289-.224-.199.206-.152-.138-.491.398.197.151-.438.533-.733-.565-.11-.066.012-.01-.12-.092.438-.532.248.19.544-.417-.074-.067.15-.155-.589-.456.372-.449 5.676 4.396c.23-.091.488-.142.76-.142.926 0 1.702.592 1.702 1.36 0 .769-.776 1.36-1.702 1.36-.107 0-.211-.007-.312-.022a.6.6 0 0 0 .198-.262c.043-.117.026-.226-.04-.299.05.005.101.008.154.008.625 0 1.108-.368 1.108-.785 0-.416-.483-.785-1.108-.785-.626 0-1.109.369-1.109.785 0 .128.046.25.126.36a2.827 2.827 0 0 1-.045-.042c-.198-.184.247.576.631.576.088 0 .108.033.08.113a.478.478 0 0 1-.307.26c-.627-.196-1.08-.68-1.08-1.267z" clip-rule="evenodd"/><path fill="#F4B300" fill-rule="evenodd" d="M17.696 9.203c-.164 0-.297-.105-.297-.235s.133-.235.297-.235c.164 0 .297.105.297.235s-.133.235-.297.235zm-.108 2.146c-.164 0-.297-.106-.297-.236s.133-.235.297-.235c.164 0 .297.105.297.235s-.133.236-.297.236zm-2.946-.236c0 .13.133.236.297.236.164 0 .297-.106.297-.236s-.133-.235-.297-.235c-.164 0-.297.105-.297.235z" clip-rule="evenodd"/><path fill="#AF0100" fill-rule="evenodd" d="M13.588 7.372a.081.081 0 0 0-.081.081v.338h-.3a.078.078 0 1 0 0 .157h.3v4.47a.08.08 0 0 0 .08.082h.163a.081.081 0 0 0 .081-.081V7.948h.462a.078.078 0 1 0 0-.157h-.462v-.338a.081.081 0 0 0-.081-.08h-.162z" clip-rule="evenodd"/><path fill="#979797" fill-rule="evenodd" d="m10.472 4.746.132.09c.308-.42.586-.505.868-.284.487.382.53 1.312.008 1.624-.621.372-.936 1.097-.66 1.491.254.364.867.226 1.472-.23.107-.082.21-.169.306-.26l-.128-.098c-.088.082-.18.16-.278.233-.54.408-1.058.525-1.238.267-.215-.307.06-.94.611-1.27.625-.373.577-1.434.009-1.879-.366-.287-.746-.171-1.102.316zm2.38 1.907.131.092c.23-.31.387-.646.439-.976l-.16-.024c-.048.305-.195.617-.41.908zm4.191-1.907-.132.09c-.308-.42-.586-.505-.868-.284-.487.382-.53 1.312-.008 1.624.621.372.936 1.097.66 1.491-.254.364-.867.226-1.472-.23a3.642 3.642 0 0 1-.306-.26l.128-.098c.088.082.18.16.278.233.54.408 1.058.525 1.238.267.215-.307-.06-.94-.611-1.27-.625-.373-.577-1.434-.009-1.879.366-.287.746-.171 1.102.316zm-2.38 1.907-.132.092c-.229-.31-.386-.646-.438-.976l.16-.024c.048.305.195.617.41.908z" clip-rule="evenodd"/><path fill="#AF0100" fill-rule="evenodd" d="M13.669 12.51c.179 0 .324-.072.324-.162 0-.09-.145-.162-.324-.162-.18 0-.324.073-.324.162 0 .09.145.162.324.162zm-.054-6.748c.627 0 1.135-.085 1.135-.19 0-.104-.508-.188-1.135-.188s-1.135.084-1.135.189c0 .104.508.19 1.135.19z" clip-rule="evenodd"/><path fill="#F4B300" fill-rule="evenodd" d="M13.679 1.274h-.162v.187h-.154v.157h.154v.458h.162v-.458h.187V1.46h-.187v-.187zm-1.22 2.261-.072-.121c.04-.017.08-.033.121-.048l-.21-.462.148-.064.217.477c.046-.014.093-.026.14-.037a.22.22 0 0 1-.053-.146c0-.116.085-.21.19-.21.104 0 .188.094.188.21a.228.228 0 0 1-.018.09 3.91 3.91 0 0 1 .402-.03v-.178h-.203v-.127h.203v-.15h.214v.15h.248v.127h-.248v.176c.16.003.31.014.448.033a.226.226 0 0 1-.019-.091c0-.116.085-.21.19-.21.104 0 .189.094.189.21a.22.22 0 0 1-.058.15c.06.016.118.034.174.054l.155-.34.149.063-.154.337.036.018-.082.117-.013-.006-.025.055-.148-.064.024-.053a2.724 2.724 0 0 0-.866-.137v.056h-.214V3.33a2.946 2.946 0 0 0-1.053.206zm-.072.14.038.064-.128.054.211.463c-.04.015-.081.03-.121.047l.072.122a2.945 2.945 0 0 1 1.053-.206v.055h.214v-.056c.341.006.63.052.866.137l-.024.053.148.063.025-.054.013.006.082-.118a1.823 1.823 0 0 0-.036-.017l.154-.338-.149-.063-.155.34a2.106 2.106 0 0 0-.174-.053.22.22 0 0 0 .058-.15c0-.116-.085-.21-.19-.21-.104 0-.189.094-.189.21 0 .032.007.063.02.09-.14-.019-.29-.03-.449-.033v-.176h.248V3.78h-.248v-.15h-.214v.15h-.203v.126h.203v.178c-.14.004-.274.014-.402.031a.228.228 0 0 0 .018-.09c0-.116-.084-.21-.189-.21-.104 0-.189.094-.189.21 0 .056.02.108.054.146a2.814 2.814 0 0 0-.141.036l-.19-.415c.328-.134.718-.202 1.173-.202.46 0 .829.07 1.108.206l.082-.118c-.307-.15-.703-.224-1.19-.224-.485 0-.905.074-1.259.222zm0 .89.038.063-.128.055.211.463c-.04.014-.081.03-.121.047l.072.122a2.946 2.946 0 0 1 1.053-.206v.054h.214v-.056c.341.006.63.052.866.137l-.024.053.148.064.025-.055.013.006.082-.117a1.823 1.823 0 0 0-.036-.017l.154-.338-.149-.064-.155.34a2.11 2.11 0 0 0-.174-.052.22.22 0 0 0 .058-.151c0-.116-.085-.21-.19-.21-.104 0-.189.094-.189.21a.21.21 0 0 0 .02.091 3.71 3.71 0 0 0-.449-.033v-.176h.248v-.126h-.248v-.15h-.214v.15h-.203v.126h.203v.177c-.14.004-.274.015-.402.032a.228.228 0 0 0 .018-.091c0-.116-.084-.21-.189-.21-.104 0-.189.094-.189.21 0 .057.02.108.054.146a2.804 2.804 0 0 0-.141.037l-.19-.415c.328-.135.718-.202 1.173-.202.46 0 .829.069 1.108.205l.082-.117c-.307-.15-.703-.225-1.19-.225-.485 0-.905.074-1.259.223zm0 .89.072.121c.33-.138.726-.208 1.187-.208.46 0 .829.07 1.108.206l.082-.118c-.307-.15-.703-.224-1.19-.224-.485 0-.905.074-1.259.222z" clip-rule="evenodd"/></g></svg>