<svg xmlns="http://www.w3.org/2000/svg" width="20" height="15" fill="none"><mask id="a" width="20" height="15" x="0" y="0" maskUnits="userSpaceOnUse"><path fill="#fff" d="M0 0h20v15H0z"/></mask><g mask="url(#a)"><path fill="#C51918" fill-rule="evenodd" d="M0 0v15h20V0H0z" clip-rule="evenodd"/><mask id="b" width="20" height="15" x="0" y="0" maskUnits="userSpaceOnUse"><path fill="#fff" fill-rule="evenodd" d="M0 0v15h20V0H0z" clip-rule="evenodd"/></mask><g fill-rule="evenodd" clip-rule="evenodd" mask="url(#b)"><path fill="#2E42A5" d="M0 0v8.75h10V0H0z"/><path fill="#FEFFFF" d="m2.229 4.857-.663.4.151-.78-.552-.584.747-.032.317-.729.316.73h.745l-.55.615.166.78-.677-.4zm5 0-.663.4.151-.78-.552-.584.747-.032.317-.729.316.73h.745l-.55.615.166.78-.677-.4zM4.666 2.586l-.624.377.143-.735-.52-.55.704-.03.297-.685.297.686h.702l-.518.58.156.734-.637-.377zm.675 2.68-.39.235.09-.46-.325-.343.44-.018.185-.429.186.429h.439l-.324.362.098.459-.399-.235zM4.63 8.018l-.935.564.213-1.102-.778-.824 1.054-.045.446-1.029.447 1.03H6.13l-.778.868.234 1.102-.956-.564z"/></g></g></svg>