<svg width="56" height="56" viewBox="0 0 56 56" fill="none" xmlns="http://www.w3.org/2000/svg">
<mask id="path-1-outside-1_3_1473" maskUnits="userSpaceOnUse" x="2.5" y="2.5" width="51" height="51" fill="black">
<rect fill="white" x="2.5" y="2.5" width="51" height="51"/>
<path d="M52.465 14.5793C52.4852 14.6476 52.4969 14.7181 52.5 14.7893V25.3085C52.5014 25.4446 52.4656 25.5784 52.3965 25.6956C52.3274 25.8128 52.2277 25.9089 52.108 25.9735L43.0203 31.0485V41.125C43.0216 41.2611 42.9859 41.3949 42.9168 41.5121C42.8477 41.6293 42.7479 41.7254 42.6283 41.79L23.653 52.4038C23.6063 52.4241 23.5583 52.4416 23.5095 52.4563C23.492 52.4563 23.4745 52.4738 23.457 52.4738C23.3222 52.5088 23.1806 52.5088 23.0458 52.4738C23.0283 52.4738 23.0108 52.4563 22.9933 52.4563C22.9758 52.4563 22.904 52.4213 22.869 52.4038L3.9095 41.797C3.78687 41.7325 3.68404 41.6359 3.61193 41.5176C3.53982 41.3993 3.50114 41.2636 3.5 41.125V9.57429C3.50308 9.50312 3.51483 9.4326 3.535 9.36429C3.535 9.34679 3.55425 9.32929 3.57175 9.29429C3.58925 9.25929 3.60675 9.20679 3.62425 9.17179C3.64175 9.13679 3.661 9.11929 3.6785 9.10179C3.69207 9.06548 3.7173 9.0347 3.75025 9.01429C3.76775 8.99679 3.80275 8.97929 3.82025 8.96179C3.83775 8.94429 3.8745 8.92679 3.892 8.90929L13.3718 3.60504C13.4909 3.53623 13.6261 3.5 13.7638 3.5C13.9014 3.5 14.0366 3.53623 14.1558 3.60504L23.6338 8.90929C23.6678 8.92653 23.6981 8.95031 23.723 8.97929C23.7423 8.99679 23.7773 9.01429 23.7948 9.03179C23.8237 9.05641 23.848 9.08605 23.8665 9.11929C23.8881 9.13923 23.9059 9.16295 23.919 9.18929C23.941 9.22825 23.9592 9.26928 23.9733 9.31179C23.9733 9.32929 23.9908 9.34679 24.0083 9.38179C24.0273 9.44446 24.0397 9.50899 24.045 9.57429V29.2828L31.9375 24.85V14.7893C31.9387 14.7235 31.9512 14.6584 31.9743 14.5968C31.9743 14.5793 31.9918 14.5618 32.0093 14.5268C32.0268 14.4918 32.0443 14.4393 32.0618 14.4043C32.0793 14.3693 32.0985 14.3518 32.116 14.3343C32.1296 14.298 32.1548 14.2672 32.1878 14.2468C32.2053 14.2293 32.2403 14.2118 32.2578 14.1943C32.2753 14.1768 32.312 14.1418 32.347 14.1243L41.825 8.82179C41.9442 8.75298 42.0794 8.71675 42.217 8.71675C42.3546 8.71675 42.4898 8.75298 42.609 8.82179L52.0888 14.1243C52.1222 14.1424 52.1524 14.1661 52.178 14.1943C52.1955 14.2118 52.2305 14.2293 52.248 14.2468C52.2775 14.2709 52.3019 14.3006 52.3198 14.3343C52.342 14.3541 52.3604 14.3778 52.374 14.4043C52.3947 14.4437 52.4122 14.4846 52.4265 14.5268C52.4458 14.5443 52.465 14.5618 52.465 14.5793ZM50.9145 24.871V16.121L47.6 17.9743L43.0203 20.5485V29.2985L50.9145 24.871ZM41.4348 40.6945V31.9445L36.925 34.4453L24.045 41.587V50.4263C24.045 50.4088 41.4348 40.6945 41.4348 40.6945V40.6945ZM5.0855 10.9043V40.6945L22.477 50.4263V41.587L13.3893 36.5978C13.3543 36.5628 13.3175 36.5453 13.3 36.5103C13.2825 36.4753 13.2458 36.4753 13.2283 36.4578C13.2108 36.4403 13.1933 36.4053 13.1583 36.3703C13.1233 36.3353 13.1215 36.3178 13.104 36.3003C13.0877 36.2732 13.0759 36.2436 13.069 36.2128C13.0498 36.1778 13.0323 36.1603 13.0323 36.1253C13.018 36.0922 13.012 36.0562 13.0148 36.0203C13.0148 35.9853 12.9973 35.9678 12.9973 35.9328V15.3143L8.4 12.7593L5.0855 10.9043ZM13.7813 5.14504L5.8695 9.57429L13.7638 13.9843L21.6563 9.55679L13.7813 5.14504ZM17.8798 32.725L22.4578 30.17V10.9043L19.145 12.7593L14.5653 15.3143V34.5853L17.8798 32.725ZM42.2188 10.3618L34.3263 14.7893L42.2188 19.201L50.113 14.7718C50.1305 14.7893 42.2188 10.3618 42.2188 10.3618ZM41.4348 20.531L36.855 17.9568L33.5423 16.1V24.85L38.1203 27.405L41.4348 29.2618V20.531ZM23.261 40.25L34.8425 33.8258L40.6333 30.6058L32.739 26.194L23.653 31.269L15.3668 35.9065L23.261 40.25Z"/>
</mask>
<path d="M52.465 14.5793C52.4852 14.6476 52.4969 14.7181 52.5 14.7893V25.3085C52.5014 25.4446 52.4656 25.5784 52.3965 25.6956C52.3274 25.8128 52.2277 25.9089 52.108 25.9735L43.0203 31.0485V41.125C43.0216 41.2611 42.9859 41.3949 42.9168 41.5121C42.8477 41.6293 42.7479 41.7254 42.6283 41.79L23.653 52.4038C23.6063 52.4241 23.5583 52.4416 23.5095 52.4563C23.492 52.4563 23.4745 52.4738 23.457 52.4738C23.3222 52.5088 23.1806 52.5088 23.0458 52.4738C23.0283 52.4738 23.0108 52.4563 22.9933 52.4563C22.9758 52.4563 22.904 52.4213 22.869 52.4038L3.9095 41.797C3.78687 41.7325 3.68404 41.6359 3.61193 41.5176C3.53982 41.3993 3.50114 41.2636 3.5 41.125V9.57429C3.50308 9.50312 3.51483 9.4326 3.535 9.36429C3.535 9.34679 3.55425 9.32929 3.57175 9.29429C3.58925 9.25929 3.60675 9.20679 3.62425 9.17179C3.64175 9.13679 3.661 9.11929 3.6785 9.10179C3.69207 9.06548 3.7173 9.0347 3.75025 9.01429C3.76775 8.99679 3.80275 8.97929 3.82025 8.96179C3.83775 8.94429 3.8745 8.92679 3.892 8.90929L13.3718 3.60504C13.4909 3.53623 13.6261 3.5 13.7638 3.5C13.9014 3.5 14.0366 3.53623 14.1558 3.60504L23.6338 8.90929C23.6678 8.92653 23.6981 8.95031 23.723 8.97929C23.7423 8.99679 23.7773 9.01429 23.7948 9.03179C23.8237 9.05641 23.848 9.08605 23.8665 9.11929C23.8881 9.13923 23.9059 9.16295 23.919 9.18929C23.941 9.22825 23.9592 9.26928 23.9733 9.31179C23.9733 9.32929 23.9908 9.34679 24.0083 9.38179C24.0273 9.44446 24.0397 9.50899 24.045 9.57429V29.2828L31.9375 24.85V14.7893C31.9387 14.7235 31.9512 14.6584 31.9743 14.5968C31.9743 14.5793 31.9918 14.5618 32.0093 14.5268C32.0268 14.4918 32.0443 14.4393 32.0618 14.4043C32.0793 14.3693 32.0985 14.3518 32.116 14.3343C32.1296 14.298 32.1548 14.2672 32.1878 14.2468C32.2053 14.2293 32.2403 14.2118 32.2578 14.1943C32.2753 14.1768 32.312 14.1418 32.347 14.1243L41.825 8.82179C41.9442 8.75298 42.0794 8.71675 42.217 8.71675C42.3546 8.71675 42.4898 8.75298 42.609 8.82179L52.0888 14.1243C52.1222 14.1424 52.1524 14.1661 52.178 14.1943C52.1955 14.2118 52.2305 14.2293 52.248 14.2468C52.2775 14.2709 52.3019 14.3006 52.3198 14.3343C52.342 14.3541 52.3604 14.3778 52.374 14.4043C52.3947 14.4437 52.4122 14.4846 52.4265 14.5268C52.4458 14.5443 52.465 14.5618 52.465 14.5793ZM50.9145 24.871V16.121L47.6 17.9743L43.0203 20.5485V29.2985L50.9145 24.871ZM41.4348 40.6945V31.9445L36.925 34.4453L24.045 41.587V50.4263C24.045 50.4088 41.4348 40.6945 41.4348 40.6945V40.6945ZM5.0855 10.9043V40.6945L22.477 50.4263V41.587L13.3893 36.5978C13.3543 36.5628 13.3175 36.5453 13.3 36.5103C13.2825 36.4753 13.2458 36.4753 13.2283 36.4578C13.2108 36.4403 13.1933 36.4053 13.1583 36.3703C13.1233 36.3353 13.1215 36.3178 13.104 36.3003C13.0877 36.2732 13.0759 36.2436 13.069 36.2128C13.0498 36.1778 13.0323 36.1603 13.0323 36.1253C13.018 36.0922 13.012 36.0562 13.0148 36.0203C13.0148 35.9853 12.9973 35.9678 12.9973 35.9328V15.3143L8.4 12.7593L5.0855 10.9043ZM13.7813 5.14504L5.8695 9.57429L13.7638 13.9843L21.6563 9.55679L13.7813 5.14504ZM17.8798 32.725L22.4578 30.17V10.9043L19.145 12.7593L14.5653 15.3143V34.5853L17.8798 32.725ZM42.2188 10.3618L34.3263 14.7893L42.2188 19.201L50.113 14.7718C50.1305 14.7893 42.2188 10.3618 42.2188 10.3618ZM41.4348 20.531L36.855 17.9568L33.5423 16.1V24.85L38.1203 27.405L41.4348 29.2618V20.531ZM23.261 40.25L34.8425 33.8258L40.6333 30.6058L32.739 26.194L23.653 31.269L15.3668 35.9065L23.261 40.25Z" fill="#EF382C"/>
<path d="M52.465 14.5793C52.4852 14.6476 52.4969 14.7181 52.5 14.7893V25.3085C52.5014 25.4446 52.4656 25.5784 52.3965 25.6956C52.3274 25.8128 52.2277 25.9089 52.108 25.9735L43.0203 31.0485V41.125C43.0216 41.2611 42.9859 41.3949 42.9168 41.5121C42.8477 41.6293 42.7479 41.7254 42.6283 41.79L23.653 52.4038C23.6063 52.4241 23.5583 52.4416 23.5095 52.4563C23.492 52.4563 23.4745 52.4738 23.457 52.4738C23.3222 52.5088 23.1806 52.5088 23.0458 52.4738C23.0283 52.4738 23.0108 52.4563 22.9933 52.4563C22.9758 52.4563 22.904 52.4213 22.869 52.4038L3.9095 41.797C3.78687 41.7325 3.68404 41.6359 3.61193 41.5176C3.53982 41.3993 3.50114 41.2636 3.5 41.125V9.57429C3.50308 9.50312 3.51483 9.4326 3.535 9.36429C3.535 9.34679 3.55425 9.32929 3.57175 9.29429C3.58925 9.25929 3.60675 9.20679 3.62425 9.17179C3.64175 9.13679 3.661 9.11929 3.6785 9.10179C3.69207 9.06548 3.7173 9.0347 3.75025 9.01429C3.76775 8.99679 3.80275 8.97929 3.82025 8.96179C3.83775 8.94429 3.8745 8.92679 3.892 8.90929L13.3718 3.60504C13.4909 3.53623 13.6261 3.5 13.7638 3.5C13.9014 3.5 14.0366 3.53623 14.1558 3.60504L23.6338 8.90929C23.6678 8.92653 23.6981 8.95031 23.723 8.97929C23.7423 8.99679 23.7773 9.01429 23.7948 9.03179C23.8237 9.05641 23.848 9.08605 23.8665 9.11929C23.8881 9.13923 23.9059 9.16295 23.919 9.18929C23.941 9.22825 23.9592 9.26928 23.9733 9.31179C23.9733 9.32929 23.9908 9.34679 24.0083 9.38179C24.0273 9.44446 24.0397 9.50899 24.045 9.57429V29.2828L31.9375 24.85V14.7893C31.9387 14.7235 31.9512 14.6584 31.9743 14.5968C31.9743 14.5793 31.9918 14.5618 32.0093 14.5268C32.0268 14.4918 32.0443 14.4393 32.0618 14.4043C32.0793 14.3693 32.0985 14.3518 32.116 14.3343C32.1296 14.298 32.1548 14.2672 32.1878 14.2468C32.2053 14.2293 32.2403 14.2118 32.2578 14.1943C32.2753 14.1768 32.312 14.1418 32.347 14.1243L41.825 8.82179C41.9442 8.75298 42.0794 8.71675 42.217 8.71675C42.3546 8.71675 42.4898 8.75298 42.609 8.82179L52.0888 14.1243C52.1222 14.1424 52.1524 14.1661 52.178 14.1943C52.1955 14.2118 52.2305 14.2293 52.248 14.2468C52.2775 14.2709 52.3019 14.3006 52.3198 14.3343C52.342 14.3541 52.3604 14.3778 52.374 14.4043C52.3947 14.4437 52.4122 14.4846 52.4265 14.5268C52.4458 14.5443 52.465 14.5618 52.465 14.5793ZM50.9145 24.871V16.121L47.6 17.9743L43.0203 20.5485V29.2985L50.9145 24.871ZM41.4348 40.6945V31.9445L36.925 34.4453L24.045 41.587V50.4263C24.045 50.4088 41.4348 40.6945 41.4348 40.6945V40.6945ZM5.0855 10.9043V40.6945L22.477 50.4263V41.587L13.3893 36.5978C13.3543 36.5628 13.3175 36.5453 13.3 36.5103C13.2825 36.4753 13.2458 36.4753 13.2283 36.4578C13.2108 36.4403 13.1933 36.4053 13.1583 36.3703C13.1233 36.3353 13.1215 36.3178 13.104 36.3003C13.0877 36.2732 13.0759 36.2436 13.069 36.2128C13.0498 36.1778 13.0323 36.1603 13.0323 36.1253C13.018 36.0922 13.012 36.0562 13.0148 36.0203C13.0148 35.9853 12.9973 35.9678 12.9973 35.9328V15.3143L8.4 12.7593L5.0855 10.9043ZM13.7813 5.14504L5.8695 9.57429L13.7638 13.9843L21.6563 9.55679L13.7813 5.14504ZM17.8798 32.725L22.4578 30.17V10.9043L19.145 12.7593L14.5653 15.3143V34.5853L17.8798 32.725ZM42.2188 10.3618L34.3263 14.7893L42.2188 19.201L50.113 14.7718C50.1305 14.7893 42.2188 10.3618 42.2188 10.3618ZM41.4348 20.531L36.855 17.9568L33.5423 16.1V24.85L38.1203 27.405L41.4348 29.2618V20.531ZM23.261 40.25L34.8425 33.8258L40.6333 30.6058L32.739 26.194L23.653 31.269L15.3668 35.9065L23.261 40.25Z" stroke="#EF382C" mask="url(#path-1-outside-1_3_1473)"/>
</svg>
