<svg width="56" height="56" viewBox="0 0 56 56" fill="none" xmlns="http://www.w3.org/2000/svg">
<path d="M18.6666 55.9999C23.8186 55.9999 27.9999 51.8186 27.9999 46.6666V37.3333H18.6666C13.5146 37.3333 9.33325 41.5146 9.33325 46.6666C9.33325 51.8186 13.5146 55.9999 18.6666 55.9999Z" fill="#0ACF83"/>
<path d="M9.33325 28.0001C9.33325 22.8481 13.5146 18.6667 18.6666 18.6667H27.9999V37.3334H18.6666C13.5146 37.3334 9.33325 33.1521 9.33325 28.0001Z" fill="#A259FF"/>
<path d="M9.33325 9.33333C9.33325 4.18133 13.5146 0 18.6666 0H27.9999V18.6667H18.6666C13.5146 18.6667 9.33325 14.4853 9.33325 9.33333Z" fill="#F24E1E"/>
<path d="M28 0H37.3333C42.4853 0 46.6667 4.18133 46.6667 9.33333C46.6667 14.4853 42.4853 18.6667 37.3333 18.6667H28V0Z" fill="#FF7262"/>
<path d="M46.6667 28.0001C46.6667 33.1521 42.4853 37.3334 37.3333 37.3334C32.1813 37.3334 28 33.1521 28 28.0001C28 22.8481 32.1813 18.6667 37.3333 18.6667C42.4853 18.6667 46.6667 22.8481 46.6667 28.0001Z" fill="#1ABCFE"/>
</svg>
