<svg width="56" height="56" viewBox="0 0 56 56" fill="none" xmlns="http://www.w3.org/2000/svg">
<path d="M27.9999 0L52.2161 13.9811V41.9432L27.9999 55.9243L3.78369 41.9432V13.9811L27.9999 0Z" fill="#673AB8"/>
<path d="M10.3798 41.7122C13.5992 45.8328 23.8302 42.6931 33.4893 35.1466C43.1484 27.6001 48.67 18.4325 45.4506 14.3119C42.2313 10.1913 32.0002 13.3311 22.3411 20.8776C12.6821 28.4241 7.16046 37.5916 10.3798 41.7122ZM11.7552 40.6377C10.6875 39.2711 11.154 36.5885 13.188 33.2113C15.33 29.6551 18.9661 25.7293 23.4157 22.2529C27.8653 18.7765 32.5541 16.1981 36.5228 14.9802C40.2918 13.8235 43.0076 14.0199 44.0753 15.3864C45.143 16.753 44.6765 19.4357 42.6424 22.8129C40.5005 26.3691 36.8644 30.2948 32.4148 33.7712C27.9652 37.2477 23.2764 39.826 19.3076 41.044C15.5386 42.2006 12.8228 42.0043 11.7552 40.6377Z" fill="white"/>
<path d="M45.4506 41.7122C48.67 37.5916 43.1484 28.4241 33.4893 20.8776C23.8302 13.3311 13.5992 10.1913 10.3798 14.3119C7.16046 18.4325 12.6821 27.6001 22.3411 35.1466C32.0002 42.6931 42.2313 45.8328 45.4506 41.7122ZM44.0753 40.6377C43.0076 42.0043 40.2918 42.2006 36.5228 41.044C32.5541 39.826 27.8653 37.2477 23.4157 33.7712C18.9661 30.2948 15.33 26.3691 13.188 22.8129C11.154 19.4357 10.6875 16.753 11.7552 15.3864C12.8228 14.0199 15.5386 13.8235 19.3076 14.9802C23.2764 16.1981 27.9652 18.7765 32.4148 22.2529C36.8644 25.7293 40.5005 29.6551 42.6424 33.2113C44.6765 36.5885 45.143 39.2711 44.0753 40.6377Z" fill="white"/>
<path d="M27.9151 31.7208C29.9634 31.7208 31.6239 30.0603 31.6239 28.012C31.6239 25.9637 29.9634 24.3032 27.9151 24.3032C25.8668 24.3032 24.2063 25.9637 24.2063 28.012C24.2063 30.0603 25.8668 31.7208 27.9151 31.7208Z" fill="white"/>
</svg>
