<svg id="Layer_1" xmlns="http://www.w3.org/2000/svg" viewBox="0 0 464 500"><style>.st0{fill:#0078d7}</style><path class="st0" d="M145.9 296.4c0 11.9 1.8 22.7 5.4 32.5 3.9 9.6 8.9 18.2 15.3 25.7s13.9 13.9 22.7 19.3c8.5 5.4 17.8 9.9 27.7 13.4 9.8 3.6 20.1 6.2 30.5 7.9 10.6 1.7 20.9 2.5 31.3 2.5 13.1 0 25.3-1 36.9-3.1 11.6-2.2 22.9-5 34-8.7 11.1-3.6 21.9-8 32.6-12.9 10.8-4.9 21.8-10.4 33.1-16.4v104.8c-12.6 6.2-25 11.4-37.3 15.8-12.4 4.3-24.7 8.1-37.3 11.1-12.6 3.1-25.3 5.4-38.4 6.8-13.1 1.4-26.4 2.2-40.3 2.2-18.5 0-36.5-2.2-53.7-6.4-17.2-4.2-33.4-10.4-48.5-18.4-15.1-8-29-17.8-41.6-29.2-12.7-11.4-23.4-24.3-32.5-38.6s-16-30-21-46.8c-4.9-16.8-7.3-34.8-7.3-53.8 0-20.3 2.8-39.6 8.3-58.1 5.6-18.5 13.6-35.4 24.1-50.8 10.4-15.5 23.2-29.2 38.2-41.2 15.1-12 32-21.8 50.8-29.4-10.3 10.3-18.3 22.4-24 36.5-5.8 14.1-9.4 28.2-11 42.3h176c0-17.8-1.8-33.2-5.4-46.5-3.6-13.3-9.4-24.3-17.5-33.1-8-8.8-18.4-15.5-31.1-19.8-12.7-4.4-28.1-6.6-46.1-6.6-21.2 0-42.5 3.1-63.7 9.5-21.2 6.2-41.4 15.1-60.6 26.3-19.2 11.4-36.8 24.7-52.9 40C26.5 188.6 13 205.3 2 223.3c2.3-20.9 7-41 13.4-60s14.9-36.9 25.1-53.3c10.2-16.2 22.2-31.1 35.9-44.4s28.8-24.7 45.6-34 34.5-16.8 53.9-21.8c19.3-4.4 39.9-7 61.5-7 12.7 0 25.3 1.2 37.9 3.4 12.6 2.3 24.9 5.4 36.9 9.4 23.8 8.2 45 19.6 63.7 34.2 18.7 14.7 34.4 31.4 47.1 50.5 12.7 19.1 22.4 40.2 29.1 63.1s10 46.8 10 71.6v61.4H145.9z"/></svg>