<svg width="100" height="60" viewBox="0 0 100 60" version="1.1" xmlns="http://www.w3.org/2000/svg" xmlns:xlink="http://www.w3.org/1999/xlink"><title>DinersClub-dark</title><desc>Created with Sketch.</desc><g id="Dark-Payment-badges" stroke="none" stroke-width="1" fill="none" fill-rule="evenodd" transform="translate(-130.000000, -264.000000)"><g id="DinersClub-dark" transform="translate(130.000000, 264.000000)"><rect id="Rectangle" fill="#0069AA" x="0" y="0" width="100" height="60" rx="4"/><path d="M19.5478648,35.9830417 C19.5478648,34.7762339 18.9173726,34.8555637 18.3142451,34.8428488 L18.3142451,34.4940188 C18.8372136,34.5194486 19.3734498,34.5194486 19.8978004,34.5194486 C20.4611248,34.5194486 21.2259524,34.4940188 22.2196478,34.4940188 C25.6946795,34.4940188 27.5875381,36.8144843 27.5875381,39.1907846 C27.5875381,40.5205951 26.8091663,43.8612913 22.0582241,43.8612913 C21.3743848,43.8612913 20.742787,43.8347559 20.1122948,43.8347559 C19.5088909,43.8347559 18.9173726,43.8471944 18.3142451,43.8612913 L18.3142451,43.512185 C19.1185994,43.4309203 19.5088909,43.4046613 19.5478648,42.4922306 L19.5478648,35.9830417 L19.5478648,35.9830417 Z M20.8630255,42.2769068 C20.8630255,43.3106818 21.6018706,43.4309203 22.2591745,43.4309203 C25.1587198,43.4309203 26.1101244,41.2439611 26.1101244,39.2446846 C26.1101244,36.7351545 24.5000337,34.923837 21.9103446,34.923837 C21.3589058,34.923837 21.105161,34.9630873 20.8630255,34.9774607 L20.8630255,42.2769068 L20.8630255,42.2769068 Z" id="Fill-5" fill="#FFF"/><path d="M28.0577122,43.512185 L28.3120097,43.512185 C28.6876515,43.512185 28.9563224,43.512185 28.9563224,43.0682699 L28.9563224,39.4318145 C28.9563224,38.842231 28.7553721,38.76069 28.2581097,38.4931247 L28.2581097,38.2789066 C28.8888783,38.0892891 29.640991,37.8360971 29.6940618,37.7957412 C29.7885942,37.7418412 29.867924,37.7274679 29.9361973,37.7274679 C30.001983,37.7274679 30.0296241,37.8081797 30.0296241,37.9165326 L30.0296241,43.0682699 C30.0296241,43.512185 30.3253832,43.512185 30.7015778,43.512185 L30.9287871,43.512185 L30.9287871,43.8612913 C30.4724335,43.8612913 30.001983,43.8347559 29.5204761,43.8347559 C29.0373107,43.8347559 28.5538689,43.8471944 28.0577122,43.8612913 L28.0577122,43.512185 L28.0577122,43.512185 Z M29.4933879,35.6615764 C29.1437287,35.6615764 28.8358075,35.3395583 28.8358075,34.9907284 C28.8358075,34.6546133 29.1583784,34.34531 29.4933879,34.34531 C29.841665,34.34531 30.1512446,34.6280779 30.1512446,34.9907284 C30.1512446,35.3536552 29.8552091,35.6615764 29.4933879,35.6615764 L29.4933879,35.6615764 Z" id="Fill-6" fill="#FFF"/><path d="M32.2041448,39.5125263 C32.2041448,39.0169224 32.0559888,38.8828634 31.4263259,38.6274602 L31.4263259,38.3726098 C32.0023652,38.1849271 32.5521455,38.0096829 33.197011,37.7274679 C33.2376433,37.7274679 33.2766172,37.7542797 33.2766172,37.8615269 L33.2766172,38.7341546 C34.0428268,38.1849271 34.7004072,37.7274679 35.6009523,37.7274679 C36.7400397,37.7274679 37.1424932,38.5597396 37.1424932,39.6065058 L37.1424932,43.0682699 C37.1424932,43.512185 37.4385288,43.512185 37.8138941,43.512185 L38.0560296,43.512185 L38.0560296,43.8612913 C37.5847499,43.8612913 37.1156814,43.8347559 36.6330688,43.8347559 C36.149627,43.8347559 35.6661852,43.8471944 35.1830198,43.8612913 L35.1830198,43.512185 L35.4251553,43.512185 C35.8010735,43.512185 36.0683624,43.512185 36.0683624,43.0682699 L36.0683624,39.5940674 C36.0683624,38.8281341 35.6009523,38.4527688 34.8350191,38.4527688 C34.4052009,38.4527688 33.7208087,38.8010459 33.2766172,39.0976343 L33.2766172,43.0682699 C33.2766172,43.512185 33.5732056,43.512185 33.9491237,43.512185 L34.1901536,43.512185 L34.1901536,43.8612913 C33.7208087,43.8612913 33.250911,43.8347559 32.7669164,43.8347559 C32.2848566,43.8347559 31.8011384,43.8471944 31.3185258,43.8612913 L31.3185258,43.512185 L31.5606613,43.512185 C31.9360267,43.512185 32.2041448,43.512185 32.2041448,43.0682699 L32.2041448,39.5125263" id="Fill-7" fill="#FFF"/><path d="M39.0759841,40.1576682 C39.0486194,40.2784596 39.0486194,40.4794099 39.0759841,40.9360399 C39.1550374,42.2105683 39.9754235,43.2567818 41.0478959,43.2567818 C41.7870174,43.2567818 42.3644387,42.8540518 42.8600426,42.3584479 L43.0474489,42.546407 C42.429948,43.3648582 41.6653968,44.0630709 40.5658362,44.0630709 C38.431395,44.0630709 38.0021296,41.9952446 38.0021296,41.1369903 C38.0021296,38.5063924 39.7730911,37.7274679 40.7115045,37.7274679 C41.7997323,37.7274679 42.9681191,38.41186 42.9805576,39.8348208 C42.9805576,39.9163619 42.9805576,39.9959681 42.9681191,40.07668 L42.8467749,40.1576682 L39.0759841,40.1576682 L39.0759841,40.1576682 Z M41.4522844,39.72785 C41.7870174,39.72785 41.8262677,39.5531586 41.8262677,39.3914585 C41.8262677,38.708172 41.4105464,38.1578389 40.6587101,38.1578389 C39.8408117,38.1578389 39.2769344,38.76069 39.1160636,39.72785 L41.4522844,39.72785 L41.4522844,39.72785 Z" id="Fill-8" fill="#FFF"/><path d="M43.2898608,43.512185 L43.6525113,43.512185 C44.026771,43.512185 44.2954419,43.512185 44.2954419,43.0682699 L44.2954419,39.2980318 C44.2954419,38.8828634 43.7992852,38.8010459 43.597782,38.6937987 L43.597782,38.4931247 C44.5773805,38.0768506 45.1144459,37.7274679 45.2371722,37.7274679 C45.3156727,37.7274679 45.3560286,37.7678238 45.3560286,37.9027121 L45.3560286,39.1106256 L45.3842225,39.1106256 C45.7186791,38.5873806 46.2833856,37.7274679 47.1015604,37.7274679 C47.4368462,37.7274679 47.8658352,37.9555064 47.8658352,38.4389483 C47.8658352,38.8010459 47.6120904,39.1247225 47.2364487,39.1247225 C46.819069,39.1247225 46.819069,38.8010459 46.3488949,38.8010459 C46.1211327,38.8010459 45.3695728,39.1106256 45.3695728,39.9163619 L45.3695728,43.0682699 C45.3695728,43.512185 45.6376909,43.512185 46.013609,43.512185 L46.7643397,43.512185 L46.7643397,43.8612913 C46.0263239,43.8471944 45.4646579,43.8347559 44.8869602,43.8347559 C44.336627,43.8347559 43.7727498,43.8471944 43.2898608,43.8612913 L43.2898608,43.512185" id="Fill-9" fill="#FFF"/><path d="M48.4559714,41.9952446 C48.6309392,42.8808636 49.1666226,43.6335292 50.148156,43.6335292 C50.9386898,43.6335292 51.2336197,43.1498109 51.2336197,42.680466 C51.2336197,41.0960816 48.3089211,41.6066116 48.3089211,39.4461878 C48.3089211,38.6937987 48.9131543,37.7277443 50.3894623,37.7277443 C50.8181748,37.7277443 51.3950434,37.8493648 51.9180119,38.1180358 L52.0122678,39.4857145 L51.7037938,39.4857145 C51.5697347,38.6407279 51.1006663,38.1578389 50.2407535,38.1578389 C49.7039644,38.1578389 49.1945401,38.4660365 49.1945401,39.0431814 C49.1945401,40.6142982 52.3071977,40.1303036 52.3071977,42.2373802 C52.3071977,43.1224463 51.596823,44.0630709 49.9991708,44.0630709 C49.4629346,44.0630709 48.8310604,43.8748354 48.3628211,43.6064409 L48.2143887,42.0629652 L48.4559714,41.9952446" id="Fill-10" fill="#FFF"/><path d="M64.4253066,36.9222843 L64.0905736,36.9222843 C63.8351704,35.3536552 62.7212364,34.7220574 61.2192223,34.7220574 C59.6740881,34.7220574 57.4337817,35.7547267 57.4337817,38.9754609 C57.4337817,41.6873234 59.3669961,43.6335292 61.4331639,43.6335292 C62.7604867,43.6335292 63.8633643,42.7205456 64.131206,41.310576 L64.4399564,41.3907351 L64.131206,43.3507613 C63.5676051,43.7001441 62.0506648,44.0630709 61.1639402,44.0630709 C58.0250235,44.0630709 56.0390147,42.0361534 56.0390147,39.0169224 C56.0390147,36.2649804 58.4949212,34.2916864 61.1252427,34.2916864 C62.2118121,34.2916864 63.2583019,34.641622 64.2918004,35.0042725 L64.4253066,36.9222843" id="Fill-11" fill="#FFF"/><path d="M64.9098541,43.512185 L65.1638753,43.512185 C65.5408991,43.512185 65.8087408,43.512185 65.8087408,43.0682699 L65.8087408,35.5952379 C65.8087408,34.7220574 65.6077904,34.695522 65.0972604,34.5476425 L65.0972604,34.3325952 C65.633773,34.1584566 66.1979266,33.9174267 66.4804181,33.7551738 C66.6260864,33.675844 66.7344392,33.6072942 66.7739659,33.6072942 C66.8560598,33.6072942 66.8825952,33.6888353 66.8825952,33.7966354 L66.8825952,43.0682699 C66.8825952,43.512185 67.178078,43.512185 67.5534433,43.512185 L67.7806527,43.512185 L67.7806527,43.8612913 C67.3256811,43.8612913 66.8560598,43.8347559 66.372618,43.8347559 C65.889729,43.8347559 65.4071164,43.8471944 64.9098541,43.8612913 L64.9098541,43.512185" id="Fill-12" fill="#FFF"/><path d="M73.5263959,43.1224463 C73.5263959,43.3648582 73.6731698,43.3775731 73.9006556,43.3775731 C74.0626321,43.3775731 74.2630297,43.3648582 74.4388267,43.3648582 L74.4388267,43.6473497 C73.8614053,43.7004205 72.7604627,43.9823591 72.5050594,44.0630709 L72.4381681,44.0221622 L72.4381681,42.93504 C71.6338138,43.592344 71.0157601,44.0630709 70.0615914,44.0630709 C69.3371197,44.0630709 68.5861126,43.592344 68.5861126,42.4665244 L68.5861126,39.0299137 C68.5861126,38.680531 68.5327654,38.3449687 67.7823111,38.2789066 L67.7823111,38.023227 C68.2657529,38.0099593 69.3371197,37.9298003 69.5120875,37.9298003 C69.6610727,37.9298003 69.6610727,38.023227 69.6610727,38.3189861 L69.6610727,41.7810266 C69.6610727,42.1840329 69.6610727,43.3369408 70.8283539,43.3369408 C71.2838782,43.3369408 71.887835,42.9889401 72.4511594,42.5198716 L72.4511594,38.908846 C72.4511594,38.6407279 71.8073996,38.4931247 71.3250634,38.3596185 L71.3250634,38.1183122 C72.5315948,38.0364947 73.283984,37.9298003 73.418043,37.9298003 C73.5263959,37.9298003 73.5263959,38.023227 73.5263959,38.171383 L73.5263959,43.1224463" id="Fill-13" fill="#FFF"/><path d="M76.1962441,38.6937987 C76.7327567,38.2385507 77.4577812,37.7274679 78.195797,37.7274679 C79.7528169,37.7274679 80.6923359,39.0843666 80.6923359,40.5468541 C80.6923359,42.3042715 79.4034341,44.0630709 77.4834874,44.0630709 C76.4914504,44.0630709 75.9679291,43.7399472 75.6182699,43.592344 L75.216922,43.9010944 L74.9355362,43.7540441 C75.0554983,42.9624047 75.1232189,42.1840329 75.1232189,41.3650289 L75.1232189,35.5952379 C75.1232189,34.7220574 74.9211629,34.695522 74.4111856,34.5476425 L74.4111856,34.3325952 C74.9485275,34.1584566 75.5115755,33.9174267 75.7932377,33.7551738 C75.9413937,33.675844 76.0483645,33.6072942 76.0892733,33.6072942 C76.1691559,33.6072942 76.1962441,33.6891117 76.1962441,33.7966354 L76.1962441,38.6937987 L76.1962441,38.6937987 Z M76.1962441,42.344351 C76.1962441,42.8540518 76.6796859,43.7136882 77.5785726,43.7136882 C79.0142483,43.7136882 79.6179286,42.3042715 79.6179286,41.1093493 C79.6179286,39.6604059 78.5186444,38.4527688 77.4721546,38.4527688 C76.9735102,38.4527688 76.5583417,38.7753397 76.1962441,39.0843666 L76.1962441,42.344351 L76.1962441,42.344351 Z" id="Fill-14" fill="#FFF"/><path d="M18.2993189,51.6643573 L18.4018672,51.6643573 C18.6644571,51.6643573 18.9419731,51.6284239 18.9419731,51.2483596 L18.9419731,47.4228395 C18.9419731,47.0422224 18.6644571,47.0060126 18.4018672,47.0060126 L18.2993189,47.0060126 L18.2993189,46.7865427 C18.5840217,46.7865427 19.0221322,46.8155658 19.3809129,46.8155658 C19.7457746,46.8155658 20.1833323,46.7865427 20.526634,46.7865427 L20.526634,47.0060126 L20.423533,47.0060126 C20.1620487,47.0060126 19.8839798,47.0422224 19.8839798,47.4228395 L19.8839798,51.2483596 C19.8839798,51.6284239 20.1620487,51.6643573 20.423533,51.6643573 L20.526634,51.6643573 L20.526634,51.8838272 C20.1764221,51.8838272 19.7372059,51.8556333 19.3734498,51.8556333 C19.0149455,51.8556333 18.5840217,51.8838272 18.2993189,51.8838272 L18.2993189,51.6643573" id="Fill-15" fill="#FFF"/><path d="M20.526634,51.9150615 C20.1733815,51.9150615 19.7363767,51.885762 19.372897,51.885762 C19.0154983,51.885762 18.5859565,51.9150615 18.2993189,51.9150615 L18.2675317,51.9150615 L18.2675317,51.6328465 L18.4013144,51.6328465 C18.666392,51.6264891 18.9074218,51.6052055 18.9096331,51.2483596 L18.9096331,47.4228395 C18.9074218,47.0654408 18.666392,47.0422224 18.4013144,47.0375234 L18.2675317,47.0375234 L18.2675317,46.7547555 L18.2993189,46.7547555 C18.5859565,46.7547555 19.0237906,46.7832258 19.3809129,46.7832258 C19.7441162,46.7832258 20.1813974,46.7547555 20.526634,46.7547555 L20.5592505,46.7547555 L20.5592505,47.0375234 L20.424915,47.0375234 C20.159561,47.0422224 19.9171491,47.0654408 19.915767,47.4228395 L19.915767,51.2483596 C19.9171491,51.6052055 20.159561,51.6264891 20.424915,51.6328465 L20.5592505,51.6328465 L20.5592505,51.9150615 L20.526634,51.9150615 L20.526634,51.9150615 Z M20.4951233,51.8525928 L20.4953997,51.6972501 L20.424915,51.6972501 C20.1637072,51.6972501 19.8532983,51.651366 19.8516398,51.2483596 L19.8516398,47.4228395 C19.8532983,47.0190039 20.1637072,46.973949 20.424915,46.973949 L20.4951233,46.973949 L20.4951233,46.8180535 C20.158179,46.8183299 19.7349946,46.8476294 19.3809129,46.8476294 C19.0340178,46.8476294 18.6141504,46.8202648 18.3313825,46.8180535 L18.3313825,46.973949 L18.4013144,46.973949 C18.661693,46.973949 18.9726547,47.0190039 18.9726547,47.4228395 L18.9726547,51.2483596 C18.9726547,51.651366 18.661693,51.6972501 18.4013144,51.6972501 L18.3313825,51.6972501 L18.3313825,51.8525928 C18.6141504,51.8501051 19.0265547,51.8232933 19.372897,51.8232933 C19.7286372,51.8232933 20.1507159,51.8506579 20.4951233,51.8525928 L20.4951233,51.8525928 Z" id="Fill-16" fill="#FFF"/><path d="M25.5432066,50.4445581 L25.5578564,50.4301848 L25.5578564,47.6926161 C25.5578564,47.0933583 25.1410295,47.0057362 24.9221124,47.0057362 L24.7612416,47.0057362 L24.7612416,46.7865427 C25.1050961,46.7865427 25.4409348,46.8155658 25.7836837,46.8155658 C26.0830362,46.8155658 26.3837707,46.7865427 26.6820175,46.7865427 L26.6820175,47.0057362 L26.5733882,47.0057362 C26.2657435,47.0057362 25.9224417,47.0640588 25.9224417,47.9330931 L25.9224417,51.2555463 C25.9224417,51.5115023 25.9296284,51.7669056 25.9655617,51.9935621 L25.6880457,51.9935621 L21.9280348,47.8012454 L21.9280348,50.8105255 C21.9280348,51.4462695 22.0515903,51.6643573 22.6138091,51.6643573 L22.7381938,51.6643573 L22.7381938,51.8838272 C22.4241915,51.8838272 22.1104657,51.8553569 21.7964635,51.8553569 C21.4686407,51.8553569 21.1322493,51.8838272 20.8033209,51.8838272 L20.8033209,51.6643573 L20.9058691,51.6643573 C21.4094889,51.6643573 21.5628967,51.3210556 21.5628967,50.7386588 L21.5628967,47.6619345 C21.5628967,47.2533999 21.2259524,47.0057362 20.8986825,47.0057362 L20.8033209,47.0057362 L20.8033209,46.7865427 C21.0802841,46.7865427 21.3655397,46.8155658 21.6425029,46.8155658 C21.8622492,46.8155658 22.0739795,46.7865427 22.2928966,46.7865427 L25.5432066,50.4445581" id="Fill-17" fill="#FFF"/><path d="M25.9655617,52.0242437 L25.6648272,52.0140165 L21.9589928,47.8836157 L21.9589928,50.8105255 C21.9678379,51.4454403 22.0643052,51.6259363 22.6140855,51.6328465 L22.7705338,51.6328465 L22.7705338,51.9150615 L22.7381938,51.9150615 C22.4222567,51.9150615 22.107978,51.885762 21.7964635,51.885762 C21.46947,51.885762 21.1339077,51.9150615 20.8030445,51.9150615 L20.7709809,51.9150615 L20.7709809,51.6328465 L20.9058691,51.6328465 C21.3884817,51.6300824 21.5264105,51.3199499 21.5316623,50.7383824 L21.5316623,47.6630402 C21.5302803,47.2741307 21.2113026,47.0375234 20.8989589,47.0375234 L20.7709809,47.0375234 L20.7709809,46.7547555 L20.8030445,46.7547555 C21.082219,46.7547555 21.3680273,46.7832258 21.6419501,46.7832258 C21.8597615,46.7832258 22.0706626,46.7547555 22.3169443,46.7660884 L25.5260692,50.3784961 L25.5260692,47.6926161 C25.5224759,47.112707 25.1349485,47.0422224 24.9223888,47.0375234 L24.729178,47.0375234 L24.729178,46.7547555 L24.761518,46.7547555 C25.1064782,46.7547555 25.4425932,46.7832258 25.7836837,46.7832258 C26.0808249,46.7832258 26.3801774,46.7547555 26.6820175,46.7547555 L26.7140811,46.7547555 L26.7140811,47.0375234 L26.5733882,47.0375234 C26.2718245,47.0452629 25.9625212,47.0717983 25.9536761,47.9330931 L25.9536761,51.2555463 C25.9536761,51.5112259 25.961692,51.7660763 25.9967961,51.9877575 L26.00343,52.0242437 L25.9655617,52.0242437 L25.9655617,52.0242437 Z M25.6883221,51.9606693 L25.9299048,51.9606693 C25.8972884,51.740923 25.8914838,51.4985111 25.8914838,51.2555463 L25.8914838,47.9330931 C25.8914838,47.0565957 26.2588332,46.973949 26.5733882,46.9733962 L26.6502303,46.9733962 L26.6502303,46.8180535 C26.3624871,46.8202648 26.074191,46.8468002 25.7836837,46.8468002 C25.4492271,46.8468002 25.1241685,46.8202648 24.7941344,46.8180535 L24.7933052,46.9733962 L24.9223888,46.9733962 C25.1468341,46.973949 25.5893672,47.0737332 25.5893672,47.6926161 L25.5796928,50.4531269 L25.5653195,50.4672238 L25.5404425,50.4907187 L22.2928966,46.8180535 C22.0759144,46.8180535 21.8647369,46.8468002 21.6419501,46.8468002 C21.3743848,46.8468002 21.1001857,46.8202648 20.8353845,46.8180535 L20.8340024,46.9733962 L20.8989589,46.9733962 C21.2414314,46.973949 21.5938547,47.2354332 21.5938547,47.6630402 L21.5938547,50.7383824 C21.5938547,51.322714 21.4310489,51.6958681 20.9058691,51.697803 L20.8353845,51.6958681 L20.8353845,51.8525928 C21.151598,51.8501051 21.4774859,51.8232933 21.7964635,51.8232933 C22.1010678,51.8232933 22.4051192,51.8501051 22.7064066,51.8525928 L22.7064066,51.697803 L22.6140855,51.697803 C22.0394282,51.6958681 21.8970769,51.4454403 21.8965241,50.8105255 L21.8965241,47.7194279 L25.6883221,51.9606693 L25.6883221,51.9606693 Z M25.543483,50.4445581 L25.5664251,50.423551 L25.543483,50.4445581 L25.543483,50.4445581 Z M25.5260692,50.4301848 L25.5260692,50.4274207 L25.5202646,50.4227217 L25.5260692,50.4301848 L25.5260692,50.4301848 Z" id="Fill-18" fill="#FFF"/><path d="M27.7763264,47.1516809 C27.2279281,47.1516809 27.2066445,47.2838051 27.097186,47.8161715 L26.8779925,47.8161715 C26.9067392,47.6116278 26.942949,47.4073605 26.9656146,47.1956301 C26.9949141,46.9902572 27.0095639,46.7865427 27.0095639,46.5753652 L27.1845317,46.5753652 C27.2434071,46.7945586 27.425838,46.7865427 27.6240242,46.7865427 L31.3903925,46.7865427 C31.5885788,46.7865427 31.7707332,46.7793561 31.7856594,46.5601626 L31.9600744,46.5900149 C31.9318805,46.7865427 31.9020282,46.9838998 31.8807446,47.1815332 C31.8663713,47.3786138 31.8663713,47.5751416 31.8663713,47.7722223 L31.6469014,47.8534869 C31.6319752,47.5837104 31.5957655,47.1516809 31.106519,47.1516809 L29.9088327,47.1516809 L29.9088327,51.0366292 C29.9088327,51.5999537 30.1647887,51.6643573 30.5147243,51.6643573 L30.6540352,51.6643573 L30.6540352,51.8838272 C30.369056,51.8838272 29.8576968,51.8556333 29.4640883,51.8556333 C29.025425,51.8556333 28.5137893,51.8838272 28.2288102,51.8838272 L28.2288102,51.6643573 L28.3681211,51.6643573 C28.7705746,51.6643573 28.9740127,51.6284239 28.9740127,51.0518318 L28.9740127,47.1516809 L27.7763264,47.1516809" id="Fill-19" fill="#FFF"/><path d="M30.654588,51.9150615 C30.3668448,51.9150615 29.8560383,51.8860384 29.4640883,51.8860384 C29.0259778,51.8860384 28.5151714,51.9150615 28.2288102,51.9150615 L28.1975758,51.9150615 L28.1975758,51.6328465 L28.3681211,51.6328465 C28.7705746,51.6234486 28.9322747,51.6181968 28.9413963,51.0518318 L28.9413963,47.1829153 L27.7763264,47.1829153 L27.7763264,47.1190645 L29.0046942,47.1190645 L29.0046942,51.0518318 C29.0046942,51.6380983 28.7683633,51.6972501 28.3681211,51.697803 L28.2600446,51.697803 L28.2600446,51.85204 C28.5480642,51.8501051 29.0400748,51.8232933 29.4640883,51.8232933 C29.8441527,51.8232933 30.332017,51.8501051 30.6214187,51.85204 L30.6214187,51.697803 L30.5147243,51.697803 C30.1614718,51.6972501 29.8773219,51.6104573 29.8773219,51.0366292 L29.8773219,47.1190645 L31.106519,47.1190645 C31.5963183,47.1209993 31.6612747,47.5372734 31.6764773,47.8089849 L31.8345841,47.7506623 C31.8345841,47.5599391 31.8354133,47.3689395 31.8484046,47.1771106 C31.8699646,46.9883223 31.8965,46.802851 31.9238646,46.6157211 L31.813024,46.5972016 C31.7790256,46.8097612 31.5730998,46.821094 31.3901161,46.8183299 L27.5858796,46.8183299 C27.4139523,46.8186063 27.2268225,46.810314 27.1610368,46.6065996 L27.0405218,46.6065996 C27.0394162,46.8083792 27.0255957,47.0043541 26.9979546,47.1989471 C26.9761182,47.399621 26.9426726,47.5922791 26.9161372,47.7857664 L27.0720326,47.7857664 C27.167947,47.276342 27.2304158,47.1118778 27.7763264,47.1190645 L27.7763264,47.1829153 C27.2353912,47.1936953 27.2472768,47.2840815 27.1281439,47.8236346 L27.1228921,47.8485115 L26.8415063,47.8485115 L26.8453761,47.8106433 C26.8752284,47.6069288 26.9122674,47.4018323 26.933551,47.1898255 C26.9639562,46.9872167 26.9777767,46.7846079 26.9777767,46.5753652 L26.9777767,46.5430252 L27.209685,46.5430252 L27.2152132,46.5659672 C27.2644143,46.7500566 27.399579,46.7514386 27.5858796,46.7547555 L31.3901161,46.7547555 C31.5935542,46.7514386 31.7417102,46.7486745 31.7541486,46.5576749 L31.7566363,46.5231236 L31.7898056,46.5297575 L31.9962841,46.5623739 L31.9910323,46.5947139 C31.9620093,46.7906889 31.933539,46.9872167 31.9114261,47.1829153 C31.897882,47.3786138 31.897882,47.5748652 31.897882,47.7722223 L31.897882,47.7943351 L31.8765984,47.8029038 L31.6181547,47.8974362 L31.6164962,47.8551454 C31.5963183,47.5803934 31.5681244,47.1829153 31.106519,47.1829153 L29.9408963,47.1829153 L29.9408963,51.0366292 C29.948083,51.5872388 30.1664472,51.6259363 30.5147243,51.6328465 L30.685546,51.6328465 L30.685546,51.9150615 L30.654588,51.9150615" id="Fill-20" fill="#FFF"/><path d="M32.1933648,51.6643573 L32.2961894,51.6643573 C32.5582265,51.6643573 32.8365718,51.6284239 32.8365718,51.2483596 L32.8365718,47.4228395 C32.8365718,47.0422224 32.5582265,47.0060126 32.2961894,47.0060126 L32.1933648,47.0060126 L32.1933648,46.7865427 C32.6372799,46.7865427 33.3985142,46.8155658 34.0107632,46.8155658 C34.6252236,46.8155658 35.3836938,46.7865427 35.8801269,46.7865427 C35.867412,47.100545 35.8743222,47.5837104 35.8958823,47.9043464 L35.6758596,47.9623926 C35.6407554,47.4875195 35.5531333,47.1088373 34.7860944,47.1088373 L33.7722211,47.1088373 L33.7722211,49.0207681 L34.6395969,49.0207681 C35.0777074,49.0207681 35.173069,48.7733808 35.2164655,48.3786667 L35.4353825,48.3786667 C35.4207328,48.6639223 35.4129933,48.948625 35.4129933,49.2330513 C35.4129933,49.5111202 35.4207328,49.7883598 35.4353825,50.0653231 L35.2164655,50.1089959 C35.173069,49.6714382 35.1512326,49.3867355 34.6467836,49.3867355 L33.7722211,49.3867355 L33.7722211,51.0872124 C33.7722211,51.5626383 34.1940233,51.5626383 34.6617098,51.5626383 C35.5382072,51.5626383 35.9249053,51.5037628 36.1440988,50.6723203 L36.3478133,50.722627 C36.2530045,51.1104308 36.1659352,51.4962998 36.100426,51.8838272 C35.6324631,51.8838272 34.7927283,51.8556333 34.1368064,51.8556333 C33.4781204,51.8556333 32.6099153,51.8838272 32.1933648,51.8838272 L32.1933648,51.6643573" id="Fill-21" fill="#FFF"/><path d="M36.0998731,51.9150615 C35.6313575,51.9150615 34.7910698,51.8846564 34.1359772,51.8846564 C33.4781204,51.8846564 32.6101917,51.9150615 32.1930884,51.9150615 L32.1624068,51.9150615 L32.1624068,51.6328465 L32.295913,51.6328465 C32.5601614,51.6284239 32.8006384,51.6052055 32.8039554,51.2483596 L32.8039554,47.4228395 C32.8006384,47.0659937 32.5601614,47.0422224 32.295913,47.0375234 L32.1624068,47.0375234 L32.1624068,46.7547555 L32.1930884,46.7547555 C32.6392148,46.7547555 33.3987906,46.7832258 34.0107632,46.7832258 C34.6246708,46.7832258 35.3828645,46.7547555 35.8801269,46.7547555 L35.9124669,46.7547555 L35.9113612,46.7884776 C35.9066623,46.8976597 35.9036217,47.0275726 35.9036217,47.1649486 C35.9036217,47.4173113 35.9113612,47.6939981 35.9257346,47.9018588 L35.9271166,47.9278413 L35.9025161,47.9353044 L35.6457308,48.0024721 L35.6446252,47.9648803 C35.6015052,47.4911129 35.5379308,47.1464291 34.7860944,47.1392424 L33.801797,47.1392424 L33.8012441,48.9887045 L34.6393205,48.9887045 C35.0602936,48.9842819 35.1354772,48.7692346 35.1852311,48.3753498 L35.1868895,48.3460503 L35.4677225,48.3460503 L35.4671697,48.3794959 C35.4530728,48.6647515 35.4445041,48.948625 35.4445041,49.2330513 C35.4445041,49.5091853 35.4530728,49.786425 35.4671697,50.063941 L35.4677225,50.0904764 L35.4411871,50.0965574 L35.1868895,50.1471405 L35.1852311,50.1128656 C35.134648,49.6670157 35.1313311,49.4226688 34.6467836,49.417417 L33.801797,49.417417 L33.801797,51.0872124 C33.8029026,51.5311275 34.1854546,51.5286398 34.6614333,51.5311275 C35.5406949,51.5258757 35.8928417,51.4827557 36.1128644,50.6637516 L36.1203275,50.6341757 L36.1510091,50.6391511 L36.3851287,50.6999614 L36.3784948,50.7300901 C36.2836861,51.1165119 36.1966168,51.5026572 36.1305547,51.889079 L36.1250265,51.9150615 L36.0998731,51.9150615 L36.0998731,51.9150615 Z M36.0727849,51.85204 C36.1366357,51.4827557 36.2198353,51.1140242 36.3093922,50.7463983 L36.1656588,50.7101886 C35.9470182,51.5269813 35.523281,51.5999537 34.6614333,51.5944255 C34.20121,51.5944255 33.7412631,51.5944255 33.7387754,51.0872124 L33.7387754,49.3549483 L34.6467836,49.3549483 C35.1567608,49.3496965 35.2081731,49.6570649 35.2446593,50.0725097 L35.4022133,50.0401697 C35.3881163,49.770946 35.3809297,49.5006166 35.3809297,49.2330513 C35.3809297,48.9588522 35.3881163,48.6852059 35.4022133,48.4096247 L35.2446593,48.4096247 C35.2034742,48.7910711 35.0843413,49.0572543 34.6393205,49.0525553 L33.7387754,49.0525553 L33.7387754,47.0759444 L34.7860944,47.0759444 C35.5453939,47.0698634 35.6711606,47.462919 35.7043298,47.9223131 L35.8616074,47.8794695 C35.8488925,47.6735438 35.8403238,47.4087426 35.8403238,47.1649486 C35.8403238,47.0400111 35.8436407,46.921431 35.8477868,46.8180535 C35.3516302,46.8202648 34.6111267,46.8468002 34.0107632,46.8468002 C33.4106762,46.8468002 32.6721076,46.8202648 32.225152,46.8180535 L32.225152,46.9733962 L32.295913,46.9733962 C32.5557388,46.973949 32.8664241,47.0190039 32.8680826,47.4228395 L32.8680826,51.2483596 C32.8664241,51.651366 32.5557388,51.6958681 32.295913,51.697803 L32.225152,51.697803 L32.225152,51.85204 C32.6502712,51.8506579 33.4944286,51.8232933 34.1359772,51.8232933 C34.7805662,51.8232933 35.602058,51.8506579 36.0727849,51.85204 L36.0727849,51.85204 Z" id="Fill-22" fill="#FFF"/><path d="M37.3340456,47.5599391 C37.3340456,47.0275726 37.0416034,47.0057362 36.8149469,47.0057362 L36.6830991,47.0057362 L36.6830991,46.7865427 C36.9169423,46.7865427 37.3697026,46.8155658 37.8155526,46.8155658 C38.2528338,46.8155658 38.6038751,46.7865427 38.9908497,46.7865427 C39.9096379,46.7865427 40.7291947,47.0344829 40.7291947,48.0721276 C40.7291947,48.7288787 40.2908078,49.1299502 39.7142157,49.3577124 L40.9622087,51.2259704 C41.1673052,51.5349972 41.3121443,51.6215137 41.670925,51.6643573 L41.670925,51.8838272 C41.4293423,51.8838272 41.1957755,51.8556333 40.9555749,51.8556333 C40.7291947,51.8556333 40.4945223,51.8838272 40.2692478,51.8838272 C39.7064762,51.1466406 39.22414,50.3583181 38.7498198,49.5172012 L38.2685892,49.5172012 L38.2685892,51.0808549 C38.2685892,51.6430737 38.5309027,51.6643573 38.8656357,51.6643573 L38.9980363,51.6643573 L38.9980363,51.8838272 C38.580933,51.8838272 38.1591307,51.8556333 37.7420274,51.8556333 C37.391539,51.8556333 37.0482373,51.8838272 36.6830991,51.8838272 L36.6830991,51.6643573 L36.8149469,51.6643573 C37.0861055,51.6643573 37.3340456,51.5408018 37.3340456,51.2710253 L37.3340456,47.5599391 L37.3340456,47.5599391 Z M38.2685892,49.2537821 L38.6254351,49.2537821 C39.3565406,49.2537821 39.7501491,48.9770953 39.7501491,48.1149712 C39.7501491,47.4656831 39.333875,47.049409 38.6832049,47.049409 C38.4640114,47.049409 38.3705847,47.0717983 38.2685892,47.078985 L38.2685892,49.2537821 L38.2685892,49.2537821 Z" id="Fill-23" fill="#FFF"/><path d="M41.670925,51.9150615 C41.4260254,51.9150615 41.1938406,51.885762 40.95364,51.885762 C40.7311296,51.885762 40.4975628,51.9150615 40.2432652,51.9028995 C39.6829813,51.1676478 39.2028564,50.3837479 38.7313003,49.550094 L38.2998236,49.550094 L38.2998236,51.0794729 C38.3078395,51.6292532 38.5281386,51.625107 38.8656357,51.6328465 L39.0295471,51.6328465 L39.0295471,51.9150615 L38.9972071,51.9150615 C38.5798274,51.9150615 38.1555374,51.885762 37.741751,51.885762 C37.3929211,51.885762 37.0498957,51.9150615 36.6830991,51.9150615 L36.6513119,51.9150615 L36.6513119,51.6328465 L36.8149469,51.6328465 C37.0775368,51.6309116 37.2994943,51.5164777 37.3006,51.2710253 L37.3006,47.5599391 C37.2950718,47.0422224 37.0416034,47.0447101 36.8149469,47.0375234 L36.6513119,47.0375234 L36.6513119,46.7547555 L36.6830991,46.7547555 C36.91943,46.7547555 37.3702554,46.7832258 37.8155526,46.7832258 C38.2514518,46.7832258 38.6016638,46.7547555 38.9908497,46.7547555 C39.9115727,46.7566904 40.7587707,47.0101588 40.7609819,48.0710219 C40.7609819,48.7299844 40.3253591,49.1418359 39.7623111,49.3715329 L40.9884677,51.2085565 C41.192735,51.5115023 41.3198838,51.5872388 41.6750712,51.6328465 L41.7016066,51.6369927 L41.7016066,51.9150615 L41.670925,51.9150615 L41.670925,51.9150615 Z M38.2683128,49.4856904 L38.7672336,49.4856904 L38.7763552,49.5019986 C39.2517811,50.3409042 39.7316296,51.1295031 40.2692478,51.8525928 C40.4914818,51.8525928 40.7261542,51.8232933 40.95364,51.8232933 C41.186654,51.8232933 41.4122049,51.848723 41.6388614,51.85204 L41.6388614,51.6917219 C41.2966653,51.649984 41.1357945,51.5466065 40.9365026,51.2439371 L39.6652911,49.3430626 L39.7012244,49.3284129 C40.2731176,49.1031384 40.6968547,48.7131233 40.6971311,48.0710219 C40.6968547,47.0579778 39.9088086,46.8230289 38.9908497,46.8180535 C38.6063628,46.8180535 38.2553215,46.8476294 37.8155526,46.8476294 C37.3865636,46.8476294 36.9531521,46.8202648 36.7143335,46.8180535 L36.7143335,46.9733962 L36.8149469,46.9733962 C37.0416034,46.973949 37.3641744,47.0115408 37.3641744,47.5599391 L37.3641744,51.2710253 C37.3641744,51.5640203 37.0896988,51.6972501 36.8149469,51.697803 L36.7143335,51.697803 L36.7143335,51.85204 C37.0653747,51.8506579 37.3987257,51.8232933 37.741751,51.8232933 C38.1494564,51.8232933 38.5618607,51.8506579 38.9656963,51.85204 L38.9656963,51.697803 L38.8656357,51.697803 C38.533114,51.6972501 38.2359728,51.656065 38.2359728,51.0794729 L38.2359728,49.4856904 L38.2683128,49.4856904 L38.2683128,49.4856904 Z M38.2683128,49.2852929 L38.2359728,49.2852929 L38.2359728,47.049409 L38.2638903,47.0471978 C38.3639508,47.0391819 38.4623529,47.0190039 38.6832049,47.0190039 C39.3482483,47.0190039 39.7813834,47.4510334 39.7819363,48.1169061 C39.7800014,48.9887045 39.3620688,49.2850165 38.6254351,49.2852929 L38.2683128,49.2852929 L38.2683128,49.2852929 Z M38.6254351,49.2231005 C39.3482483,49.2159139 39.7125572,48.9652096 39.7197439,48.1169061 C39.7153213,47.4789508 39.3192252,47.0831311 38.6832049,47.080367 C38.4861242,47.080367 38.3929739,47.0986101 38.2998236,47.1077316 L38.2998236,49.2231005 L38.6254351,49.2231005 L38.6254351,49.2231005 Z" id="Fill-24" fill="#FFF"/><path d="M46.6286222,50.4445581 L46.6413371,50.4301848 L46.6413371,47.6926161 C46.6413371,47.0933583 46.226445,47.0057362 46.0072516,47.0057362 L45.84721,47.0057362 L45.84721,46.7865427 C46.1905117,46.7865427 46.5252447,46.8155658 46.8693757,46.8155658 C47.1695574,46.8155658 47.4666986,46.7865427 47.7682623,46.7865427 L47.7682623,47.0057362 L47.658251,47.0057362 C47.3514354,47.0057362 47.0084101,47.0640588 47.0084101,47.9330931 L47.0084101,51.2555463 C47.0084101,51.5115023 47.0155968,51.7669056 47.0515301,51.9935621 L46.7751197,51.9935621 L43.0148324,47.8012454 L43.0148324,50.8105255 C43.0148324,51.4462695 43.1381115,51.6643573 43.7003303,51.6643573 L43.824715,51.6643573 L43.824715,51.8838272 C43.5109891,51.8838272 43.1964341,51.8553569 42.8827083,51.8553569 C42.5529506,51.8553569 42.2176648,51.8838272 41.8892892,51.8838272 L41.8892892,51.6643573 L41.9907319,51.6643573 C42.4949045,51.6643573 42.6491415,51.3210556 42.6491415,50.7386588 L42.6491415,47.6619345 C42.6491415,47.2533999 42.31275,47.0057362 41.9843744,47.0057362 L41.8892892,47.0057362 L41.8892892,46.7865427 C42.1656997,46.7865427 42.4526137,46.8155658 42.7295769,46.8155658 C42.9465591,46.8155658 43.1593951,46.7865427 43.378865,46.7865427 L46.6286222,50.4445581" id="Fill-25" fill="#FFF"/><path d="M47.0512537,52.0242437 L46.7513484,52.0140165 L43.0449612,47.8841685 L43.0449612,50.8102491 C43.0535299,51.4462695 43.1497207,51.6259363 43.7003303,51.6328465 L43.8551201,51.6328465 L43.8551201,51.9150615 L43.8233329,51.9150615 C43.5076722,51.9150615 43.1942228,51.8846564 42.8813262,51.8846564 C42.5554383,51.8846564 42.2179412,51.9150615 41.8890128,51.9150615 L41.8563964,51.9150615 L41.8563964,51.6328465 L41.9907319,51.6328465 C42.473068,51.6309116 42.6112732,51.3199499 42.6159722,50.736724 L42.6159722,47.6619345 C42.615143,47.2727487 42.2967182,47.0375234 41.9843744,47.0375234 L41.8563964,47.0375234 L41.8563964,46.7547555 L41.8890128,46.7547555 C42.1679109,46.7547555 42.4537193,46.7832258 42.7293005,46.7832258 C42.943795,46.7832258 43.1552489,46.7547555 43.4001486,46.7641535 L46.6103791,50.3784961 L46.6103791,47.6926161 C46.6084442,47.112707 46.2195348,47.0408403 46.0072516,47.0375234 L45.8145935,47.0375234 L45.8145935,46.7547555 L45.8463807,46.7547555 C46.1913409,46.7547555 46.5280088,46.7832258 46.8693757,46.7832258 C47.1667933,46.7832258 47.4658693,46.7547555 47.7668803,46.7547555 L47.7992203,46.7547555 L47.7992203,47.0375234 L47.658251,47.0375234 C47.3569636,47.0447101 47.0465547,47.0717983 47.0393681,47.9330931 L47.0393681,51.2555463 C47.0393681,51.5112259 47.0457255,51.7644179 47.0830409,51.9883103 L47.0866342,52.0242437 L47.0512537,52.0242437 L47.0512537,52.0242437 Z M46.7748433,51.9606693 L47.0142147,51.9606693 C46.9821511,51.742305 46.9757937,51.4985111 46.9757937,51.2555463 L46.9757937,47.9330931 C46.9763465,47.0565957 47.3456308,46.975331 47.658251,46.9733962 L47.7350931,46.9733962 L47.7350931,46.8180535 C47.4476262,46.8202648 47.1590538,46.8468002 46.8693757,46.8468002 C46.5338134,46.8468002 46.2084784,46.8202648 45.8781679,46.8180535 L45.8781679,46.9733962 L46.0072516,46.9733962 C46.2322497,46.975331 46.6745063,47.0737332 46.6745063,47.6926161 L46.6640027,50.4531269 L46.650735,50.4672238 L46.627793,50.4912715 L43.378865,46.8180535 C43.1616064,46.8180535 42.949876,46.8468002 42.7293005,46.8468002 C42.4584183,46.8468002 42.1856012,46.8202648 41.9202472,46.8180535 L41.9202472,46.9733962 L41.9843744,46.9733962 C42.3279526,46.975331 42.6792702,47.2343276 42.6792702,47.6619345 L42.6792702,50.736724 C42.6792702,51.322714 42.5142532,51.6958681 41.9907319,51.697803 L41.9202472,51.6972501 L41.9202472,51.8523164 C42.2356315,51.8501051 42.5609665,51.8232933 42.8813262,51.8232933 C43.187589,51.8232933 43.4910876,51.8501051 43.7929278,51.8523164 L43.7929278,51.697803 L43.7003303,51.697803 C43.125673,51.6972501 42.9824924,51.4462695 42.980834,50.8102491 L42.980834,47.7205335 L46.7748433,51.9606693 L46.7748433,51.9606693 Z M46.627793,50.4445581 L46.6515643,50.423551 L46.627793,50.4445581 L46.627793,50.4445581 Z M46.6103791,50.4301848 L46.6103791,50.4282499 L46.6051273,50.4227217 L46.6103791,50.4301848 L46.6103791,50.4301848 Z" id="Fill-26" fill="#FFF"/><path d="M48.9421773,50.839825 C48.8686522,51.0872124 48.7804773,51.2790412 48.7804773,51.4086777 C48.7804773,51.6284239 49.088122,51.6646337 49.3283227,51.6646337 L49.4098638,51.6646337 L49.4098638,51.8838272 C49.1165923,51.8680718 48.8186219,51.8556333 48.5247976,51.8556333 C48.2619313,51.8556333 48.0004471,51.8680718 47.7367515,51.8838272 L47.7367515,51.6646337 L47.7812536,51.6646337 C48.0654035,51.6646337 48.3072626,51.4962998 48.4156155,51.1894842 L49.5840023,47.8388372 C49.6793639,47.567955 49.8109353,47.2030932 49.8554374,46.932211 C50.0876221,46.8523284 50.3808935,46.7072129 50.5190988,46.6184852 C50.5417644,46.6110221 50.5553085,46.603559 50.5774214,46.603559 C50.5995342,46.603559 50.6130783,46.603559 50.6291101,46.6265011 C50.6506701,46.6842709 50.6719537,46.7500566 50.6946194,46.8083792 L52.0388032,50.6280947 C52.1264253,50.8829451 52.2132182,51.152998 52.3066449,51.3732971 C52.3956491,51.5781172 52.5490568,51.6646337 52.7909159,51.6646337 L52.8345888,51.6646337 L52.8345888,51.8838272 C52.5056604,51.8680718 52.1761792,51.8556333 51.8273492,51.8556333 C51.4693978,51.8556333 51.103154,51.8680718 50.7308291,51.8838272 L50.7308291,51.6646337 L50.8112646,51.6646337 C50.9782165,51.6646337 51.2648541,51.6356106 51.2648541,51.4529033 C51.2648541,51.3586474 51.198792,51.1612903 51.1172509,50.9266179 L50.8328246,50.0799728 L49.1754677,50.0799728 L48.9421773,50.839825 L48.9421773,50.839825 Z M50.0082923,47.6047176 L49.9930897,47.6047176 L49.3145022,49.6714382 L50.678864,49.6714382 L50.0082923,47.6047176 L50.0082923,47.6047176 Z" id="Fill-27" fill="#FFF"/><path d="M52.8323775,51.9150615 C52.5042783,51.9009646 52.1750735,51.8846564 51.8273492,51.8846564 C51.4693978,51.8846564 51.1050888,51.9009646 50.7324876,51.9150615 L50.6987655,51.91672 L50.6987655,51.6314645 L50.8112646,51.6314645 C50.9804277,51.6314645 51.2314084,51.5935962 51.2319612,51.4529033 C51.2336197,51.3697038 51.1681104,51.1695827 51.087675,50.9373979 L50.8096061,50.1112072 L49.1989626,50.1112072 L48.9717533,50.849223 C48.8982281,51.0974395 48.8095004,51.290374 48.8108824,51.4092305 C48.8133701,51.5875152 49.0859108,51.6314645 49.3283227,51.6314645 L49.4405453,51.6314645 L49.4405453,51.91672 L49.4073761,51.9150615 C49.1154867,51.9009646 48.8175163,51.8846564 48.5253504,51.8846564 C48.2646954,51.8846564 48.0007235,51.9009646 47.7392392,51.9150615 L47.7052407,51.91672 L47.7052407,51.6314645 L47.7809772,51.6314645 C48.0524122,51.6309116 48.2790688,51.4758454 48.3846575,51.179257 L49.55415,47.8275044 C49.648406,47.557175 49.781083,47.1939717 49.8441045,46.9020823 C50.0732488,46.824411 50.367073,46.6770842 50.5072131,46.5889093 C50.5276675,46.5817226 50.5478454,46.5723247 50.5771449,46.5723247 C50.5951116,46.571219 50.6343619,46.575918 50.6581332,46.6140626 C50.678864,46.6740437 50.7020824,46.739553 50.7241953,46.7984284 L52.0686555,50.6175911 C52.1546192,50.8732707 52.2419649,51.1430473 52.3376029,51.3594766 C52.4221845,51.5540695 52.5562435,51.6309116 52.7909159,51.6314645 L52.8647175,51.6314645 L52.8647175,51.91672 L52.8323775,51.9150615 L52.8323775,51.9150615 Z M50.7626163,51.8501051 C51.1238847,51.8373902 51.4785193,51.8232933 51.8273492,51.8232933 C52.165952,51.8232933 52.4843768,51.8373902 52.8016959,51.8501051 L52.8016959,51.6972501 L52.7909159,51.6972501 C52.5404881,51.6989086 52.3682844,51.6005065 52.2787274,51.3851828 C52.1836423,51.1646073 52.0949145,50.8934487 52.0086745,50.637769 L50.6642142,46.8183299 C50.6421014,46.7600073 50.6213706,46.6947745 50.6022983,46.6428093 C50.5951116,46.6356227 50.5967701,46.6356227 50.5909655,46.6356227 L50.5771449,46.6356227 C50.5624952,46.6356227 50.5536501,46.6400452 50.5348541,46.6447442 C50.3944377,46.7359596 50.101719,46.8799695 49.8844604,46.93691 C49.8399584,47.2135968 49.708387,47.5784586 49.6135782,47.8490644 L48.4451914,51.1999878 C48.3340744,51.517307 48.0772892,51.697803 47.7809772,51.6972501 L47.7688151,51.6972501 L47.7688151,51.8501051 C48.019243,51.8373902 48.2718821,51.8232933 48.5253504,51.8232933 C48.8078419,51.8232933 49.0958615,51.8373902 49.3753125,51.8501051 L49.3753125,51.6972501 L49.3283227,51.6972501 C49.0897805,51.6939332 48.7575352,51.6679506 48.7492429,51.4092305 C48.7497957,51.2643914 48.8393527,51.077538 48.910943,50.8307035 L48.9419009,50.839825 L48.910943,50.8298743 L49.15142,50.0495677 L50.8541082,50.0495677 L51.1465504,50.9166671 C51.2286443,51.151616 51.2949828,51.3462089 51.2949828,51.4529033 C51.2842028,51.6765194 50.9768344,51.693104 50.8112646,51.6972501 L50.7626163,51.6972501 L50.7626163,51.8501051 L50.7626163,51.8501051 Z M49.2700001,49.702949 L49.969042,47.5723775 L50.0082923,47.5723775 L50.0082923,47.6047176 L50.0005528,47.6069288 L50.0082923,47.6047176 L50.0082923,47.5723775 L50.0301287,47.5723775 L50.7241953,49.702949 L49.2700001,49.702949 L49.2700001,49.702949 Z M49.3573458,49.6390982 L50.635744,49.6390982 L50.0002764,47.6823889 L49.3573458,49.6390982 L49.3573458,49.6390982 Z M49.9765051,47.6141155 L49.9933662,47.6088637 L49.9765051,47.6141155 L49.9765051,47.6141155 Z" id="Fill-28" fill="#FFF"/><path d="M53.1555013,47.1516809 C52.6079322,47.1516809 52.5858194,47.2838051 52.4758081,47.8161715 L52.2563382,47.8161715 C52.2850849,47.6116278 52.3224003,47.4073605 52.3450659,47.1956301 C52.3735362,46.9902572 52.3876331,46.7865427 52.3876331,46.5753652 L52.5642594,46.5753652 C52.6214764,46.7945586 52.8044601,46.7865427 53.0015407,46.7865427 L56.7701203,46.7865427 C56.9663716,46.7865427 57.1488025,46.7793561 57.1631759,46.5601626 L57.3378672,46.5900149 C57.310779,46.7865427 57.2817559,46.9838998 57.2588139,47.1815332 C57.2427821,47.3786138 57.2427821,47.5751416 57.2427821,47.7722223 L57.0246942,47.8534869 C57.011703,47.5837104 56.9749404,47.1516809 56.4845883,47.1516809 L55.2871784,47.1516809 L55.2871784,51.0366292 C55.2871784,51.5999537 55.5431344,51.6643573 55.89307,51.6643573 L56.0326573,51.6643573 L56.0326573,51.8838272 C55.7474017,51.8838272 55.2371481,51.8556333 54.8418812,51.8556333 C54.4045999,51.8556333 53.892135,51.8838272 53.6074323,51.8838272 L53.6074323,51.6643573 L53.7464667,51.6643573 C54.1489203,51.6643573 54.3526348,51.6284239 54.3526348,51.0518318 L54.3526348,47.1516809 L53.1555013,47.1516809" id="Fill-29" fill="#FFF"/><path d="M56.0326573,51.9150615 C55.7457433,51.9150615 55.2338312,51.8860384 54.8413284,51.8860384 C54.4051528,51.8860384 53.8937935,51.9150615 53.6077087,51.9150615 L53.5753687,51.9150615 L53.5753687,51.6328465 L53.7464667,51.6328465 C54.1491967,51.6234486 54.3106204,51.6181968 54.3202948,51.0518318 L54.3197419,47.1829153 L53.1555013,47.1829153 L53.1555013,47.1190645 L54.3841456,47.1190645 L54.3841456,51.0518318 C54.3841456,51.6380983 54.1475383,51.6958681 53.7464667,51.6972501 L53.6389431,51.6972501 L53.6389431,51.8525928 C53.9275156,51.8501051 54.418144,51.8232933 54.8413284,51.8232933 C55.2230512,51.8232933 55.7117448,51.8501051 56.0000408,51.8525928 L56.0000408,51.6972501 L55.8927936,51.6972501 C55.5409231,51.6958681 55.2564968,51.6112865 55.255944,51.0366292 L55.255944,47.1190645 L56.4845883,47.1190645 C56.9752168,47.1209993 57.0390676,47.5372734 57.0531645,47.8089849 L57.2118241,47.7506623 C57.2118241,47.5599391 57.2129297,47.3689395 57.2278559,47.1779399 C57.247481,46.9897044 57.2751221,46.802851 57.3016575,46.6165503 L57.1913697,46.5972016 C57.1579241,46.8097612 56.9517219,46.8216469 56.7701203,46.8183299 L52.9642253,46.8183299 C52.7920216,46.8202648 52.605721,46.810314 52.5393825,46.6060467 L52.4199732,46.6060467 C52.4183147,46.8081027 52.4039414,47.0043541 52.3751947,47.1989471 C52.3552931,47.4004503 52.320189,47.5936611 52.2922716,47.7857664 L52.4492727,47.7857664 C52.5451871,47.276342 52.6084851,47.1110486 53.1555013,47.1190645 L53.1555013,47.1829153 C52.6140133,47.1923132 52.6258989,47.2840815 52.506766,47.8236346 L52.5015142,47.8485115 L52.2195756,47.8485115 L52.2239982,47.8123018 C52.2546797,47.6069288 52.2906131,47.4018323 52.3118967,47.191484 C52.341749,46.9872167 52.3552931,46.7846079 52.3552931,46.5753652 L52.3552931,46.5430252 L52.5872015,46.5430252 L52.5932825,46.5659672 C52.6444184,46.7500566 52.7773718,46.7514386 52.9642253,46.7547555 L56.7701203,46.7547555 C56.9721763,46.7514386 57.119503,46.7486745 57.1324943,46.5582277 L57.1335999,46.5231236 L57.1675984,46.5297575 L57.3749062,46.5623739 L57.3699308,46.5947139 C57.3398021,46.7906889 57.3121611,46.9872167 57.2900482,47.1829153 C57.2751221,47.3786138 57.2751221,47.5751416 57.2751221,47.7722223 L57.2751221,47.7943351 L57.2538385,47.8029038 L56.9953947,47.8974362 L56.9942891,47.8551454 C56.9752168,47.5803934 56.9461937,47.1829153 56.4845883,47.1829153 L55.3186892,47.1829153 L55.3186892,51.0366292 C55.3261523,51.5872388 55.5447929,51.6259363 55.8927936,51.6328465 L56.0630624,51.6328465 L56.0630624,51.9150615 L56.0326573,51.9150615" id="Fill-30" fill="#FFF"/><path d="M57.6081966,51.6643573 L57.7104685,51.6643573 C57.9736112,51.6643573 58.2500216,51.6284239 58.2500216,51.2483596 L58.2500216,47.4228395 C58.2500216,47.0422224 57.9736112,47.0060126 57.7104685,47.0060126 L57.6081966,47.0060126 L57.6081966,46.7865427 C57.8931758,46.7865427 58.330457,46.8155658 58.6878557,46.8155658 C59.0538231,46.8155658 59.49221,46.7865427 59.8360646,46.7865427 L59.8360646,47.0060126 L59.7335163,47.0060126 C59.4695443,47.0060126 59.1920283,47.0422224 59.1920283,47.4228395 L59.1920283,51.2483596 C59.1920283,51.6284239 59.4695443,51.6643573 59.7335163,51.6643573 L59.8360646,51.6643573 L59.8360646,51.8838272 C59.4852997,51.8838272 59.0466364,51.8556333 58.6820511,51.8556333 C58.3235468,51.8556333 57.8931758,51.8838272 57.6081966,51.8838272 L57.6081966,51.6643573" id="Fill-31" fill="#FFF"/><path d="M59.8360646,51.9150615 C59.4830885,51.9150615 59.04636,51.8846564 58.6820511,51.8846564 C58.3246524,51.8846564 57.8934522,51.9150615 57.6081966,51.9150615 L57.5769622,51.9150615 L57.5769622,51.6328465 L57.7107449,51.6328465 C57.9738876,51.6284239 58.2165759,51.6052055 58.2182344,51.2483596 L58.2182344,47.4228395 C58.2165759,47.0659937 57.9738876,47.0422224 57.7107449,47.0375234 L57.5769622,47.0375234 L57.5769622,46.7547555 L57.6081966,46.7547555 C57.8934522,46.7547555 58.3326683,46.7832258 58.6878557,46.7832258 C59.0518882,46.7832258 59.4899987,46.7547555 59.8360646,46.7547555 L59.8664697,46.7547555 L59.8664697,47.0375234 L59.7337927,47.0375234 C59.4665038,47.0422224 59.2263032,47.0659937 59.2238155,47.4228395 L59.2238155,51.2483596 C59.2263032,51.6052055 59.4665038,51.6284239 59.7337927,51.6328465 L59.8664697,51.6328465 L59.8664697,51.9150615 L59.8360646,51.9150615 L59.8360646,51.9150615 Z M59.8028953,51.85204 L59.8028953,51.6972501 L59.7337927,51.6972501 C59.4717556,51.6972501 59.1618996,51.651366 59.1618996,51.2483596 L59.1618996,47.4228395 C59.1618996,47.0190039 59.4717556,46.973949 59.7337927,46.9733962 L59.8028953,46.9733962 L59.8028953,46.8180535 C59.4662274,46.8202648 59.0433195,46.8468002 58.6878557,46.8468002 C58.341237,46.8468002 57.9233045,46.8202648 57.6399838,46.8180535 L57.6399838,46.9733962 L57.7107449,46.9733962 C57.9700179,46.973949 58.281256,47.0190039 58.2820852,47.4228395 L58.2820852,51.2483596 C58.281256,51.651366 57.9700179,51.6972501 57.7107449,51.6972501 L57.6399838,51.6972501 L57.6399838,51.85204 C57.9213696,51.848723 58.3343268,51.8232933 58.6820511,51.8232933 C59.0361328,51.8232933 59.4584879,51.8501051 59.8028953,51.85204 L59.8028953,51.85204 Z" id="Fill-32" fill="#FFF"/><path d="M62.7477718,46.6770842 C64.3045153,46.6770842 65.5453216,47.642033 65.5453216,49.1973944 C65.5453216,50.8771404 64.3401722,51.9935621 62.7853637,51.9935621 C61.2366361,51.9935621 60.0541524,50.9418205 60.0541524,49.3715329 C60.0541524,47.8534869 61.2294494,46.6770842 62.7477718,46.6770842 M62.8580596,51.6720968 C64.2752158,51.6720968 64.5223267,50.4224453 64.5223267,49.3577124 C64.5223267,48.2904918 63.9468402,46.9985495 62.7339513,46.9985495 C61.4563824,46.9985495 61.0763181,48.1379132 61.0763181,49.1155769 C61.0763181,50.4224453 61.6755759,51.6720968 62.8580596,51.6720968" id="Fill-33" fill="#FFF"/><path d="M60.0215359,49.3715329 C60.0245765,47.8357967 61.2134176,46.6477847 62.7474954,46.645297 L62.7474954,46.7091478 C61.2463105,46.7091478 60.0851103,47.8695187 60.0834519,49.3715329 C60.0864924,50.9241302 61.2518387,51.9601164 62.7856401,51.9606693 C64.3246933,51.9601164 65.5124288,50.8597266 65.5143637,49.1962887 C65.5129816,47.6602761 64.2918004,46.7105299 62.7474954,46.7091478 L62.7474954,46.645297 C64.3152953,46.6469555 65.5737919,47.6213022 65.576556,49.1962887 C65.5748976,50.8934487 64.3553748,52.0214796 62.7856401,52.0242437 C61.2236448,52.0214796 60.0245765,50.9592343 60.0215359,49.3715329 M61.0442545,49.1155769 C61.0464658,48.1329379 61.429847,46.9659331 62.7336749,46.9659331 C63.973652,46.9686972 64.5519026,48.2846872 64.5543903,49.3577124 C64.5519026,50.4224453 64.3014748,51.7019491 62.858336,51.7019491 L62.858336,51.6400332 C64.2467455,51.6389275 64.4880518,50.4224453 64.4902631,49.3577124 C64.4902631,48.2998897 63.9205812,47.0322716 62.7336749,47.0303367 C61.4809829,47.0317188 61.1108694,48.1428886 61.1075525,49.1155769 C61.1081053,50.4163643 61.7018348,51.6380983 62.858336,51.6400332 L62.858336,51.7019491 C61.6462764,51.7008435 61.0464658,50.4301848 61.0442545,49.1155769" id="Fill-34" fill="#FFF"/><path d="M70.4659798,50.4445581 L70.4811824,50.4301848 L70.4811824,47.6926161 C70.4811824,47.0933583 70.0635263,47.0057362 69.8446092,47.0057362 L69.6856732,47.0057362 L69.6856732,46.7865427 C70.0278693,46.7865427 70.3645372,46.8155658 70.7067333,46.8155658 C71.006915,46.8155658 71.3062675,46.7865427 71.6058964,46.7865427 L71.6058964,47.0057362 L71.4961614,47.0057362 C71.1901751,47.0057362 70.8454913,47.0640588 70.8454913,47.9330931 L70.8454913,51.2555463 C70.8454913,51.5115023 70.8532308,51.7669056 70.8902698,51.9935621 L70.6124773,51.9935621 L66.8510844,47.8012454 L66.8510844,50.8105255 C66.8510844,51.4462695 66.9757455,51.6643573 67.5368587,51.6643573 L67.6620726,51.6643573 L67.6620726,51.8838272 C67.3477939,51.8838272 67.0343445,51.8553569 66.7203423,51.8553569 C66.3914139,51.8553569 66.0552989,51.8838272 65.7266469,51.8838272 L65.7266469,51.6643573 L65.8291951,51.6643573 C66.3339205,51.6643573 66.4862227,51.3210556 66.4862227,50.7386588 L66.4862227,47.6619345 C66.4862227,47.2533999 66.1514897,47.0057362 65.8211792,47.0057362 L65.7266469,47.0057362 L65.7266469,46.7865427 C66.0041629,46.7865427 66.2885892,46.8155658 66.5666581,46.8155658 C66.7852988,46.8155658 66.9959235,46.7865427 67.2159462,46.7865427 L70.4659798,50.4445581" id="Fill-35" fill="#FFF"/><path d="M70.8905462,52.0242437 L70.5884296,52.0140165 L66.8825952,47.8841685 L66.8825952,50.8105255 C66.8911639,51.4462695 66.9876312,51.625107 67.5360294,51.6314645 L67.693307,51.6314645 L67.693307,51.9150615 L67.662349,51.9150615 C67.3461355,51.9150615 67.0326861,51.885762 66.7203423,51.885762 C66.3930724,51.885762 66.0569573,51.9150615 65.7258176,51.9150615 L65.6959653,51.9150615 L65.6959653,51.6314645 L65.8289187,51.6314645 C66.3101493,51.6300824 66.4489073,51.3199499 66.4547119,50.7383824 L66.4547119,47.6619345 C66.4544355,47.2727487 66.1351815,47.0375234 65.8214556,47.0375234 L65.6959653,47.0375234 L65.6959653,46.7547555 L65.7258176,46.7547555 C66.0058214,46.7547555 66.2905241,46.7832258 66.5663817,46.7832258 C66.7830875,46.7832258 66.992883,46.7547555 67.2405467,46.7660884 L70.4491188,50.3784961 L70.4491188,47.6926161 C70.4466311,47.112707 70.0577216,47.0422224 69.8446092,47.0375234 L69.6522276,47.0375234 L69.6522276,46.7547555 L69.6856732,46.7547555 C70.0286985,46.7547555 70.3656428,46.7832258 70.7059041,46.7832258 C71.0047037,46.7832258 71.3026741,46.7547555 71.6061728,46.7547555 L71.6368543,46.7547555 L71.6368543,47.0375234 L71.495885,47.0375234 C71.1948741,47.0452629 70.8841888,47.0729039 70.8781077,47.9330931 L70.8781077,51.2555463 C70.8781077,51.5112259 70.8839124,51.7660763 70.9192929,51.9883103 L70.9256503,52.0242437 L70.8905462,52.0242437 L70.8905462,52.0242437 Z M70.6124773,51.9606693 L70.8518488,51.9606693 C70.8208908,51.740923 70.8137041,51.4985111 70.8137041,51.2555463 L70.8137041,47.9330931 C70.8137041,47.0552137 71.1824356,46.975331 71.495885,46.9733962 L71.5749384,46.9733962 L71.5749384,46.8180535 C71.2849839,46.8202648 70.9977935,46.8468002 70.7059041,46.8468002 C70.3733823,46.8468002 70.0469416,46.8202648 69.7163548,46.8180535 L69.7163548,46.9733962 L69.8446092,46.9733962 C70.0701601,46.975331 70.5110347,47.0751152 70.5110347,47.6926161 L70.5032952,50.4531269 L70.4891983,50.4672238 L70.4659798,50.4912715 L67.2162226,46.8180535 C67.0000696,46.8180535 66.78751,46.8468002 66.5663817,46.8468002 C66.297158,46.8468002 66.0229588,46.8202648 65.7573284,46.8180535 L65.7573284,46.9733962 L65.8214556,46.9733962 C66.1647574,46.975331 66.5174571,47.2343276 66.5174571,47.6619345 L66.5174571,50.7383824 C66.5174571,51.322714 66.3543749,51.6958681 65.8289187,51.697803 L65.7573284,51.6972501 L65.7573284,51.8523164 C66.0743712,51.8501051 66.3994298,51.8232933 66.7203423,51.8232933 C67.0249466,51.8232933 67.327616,51.8501051 67.6302854,51.8523164 L67.6302854,51.697803 L67.5360294,51.697803 C66.9630306,51.6972501 66.8192972,51.4462695 66.8192972,50.8105255 L66.8192972,47.7194279 L70.6124773,51.9606693 L70.6124773,51.9606693 Z M70.4659798,50.4445581 L70.4891983,50.423551 L70.4659798,50.4445581 L70.4659798,50.4445581 Z M70.4491188,50.4301848 L70.4491188,50.4282499 L70.4433142,50.4227217 L70.4491188,50.4301848 L70.4491188,50.4301848 Z" id="Fill-36" fill="#FFF"/><path d="M72.7789822,50.839825 C72.7073919,51.0872124 72.6192169,51.2790412 72.6192169,51.4086777 C72.6192169,51.6284239 72.9268617,51.6646337 73.1662331,51.6646337 L73.2477742,51.6646337 L73.2477742,51.8838272 C72.955332,51.8680718 72.6557031,51.8556333 72.3632609,51.8556333 C72.1003946,51.8556333 71.8378047,51.8680718 71.576044,51.8838272 L71.576044,51.6646337 L71.6175056,51.6646337 C71.9038668,51.6646337 72.1457259,51.4962998 72.2524203,51.1894842 L73.4232948,47.8388372 C73.5175508,47.567955 73.649675,47.2030932 73.6916893,46.932211 C73.9263618,46.8523284 74.2176984,46.7072129 74.3583913,46.6184852 C74.3788456,46.6110221 74.3934954,46.603559 74.416161,46.603559 C74.4374446,46.603559 74.4512652,46.603559 74.4661913,46.6265011 C74.4883041,46.6842709 74.5101406,46.7500566 74.5322534,46.8083792 L75.8758844,50.6280947 C75.9629537,50.8829451 76.0511286,51.152998 76.1464902,51.3732971 C76.2341123,51.5781172 76.3872437,51.6646337 76.6279972,51.6646337 L76.6730521,51.6646337 L76.6730521,51.8838272 C76.3438473,51.8680718 76.0149189,51.8556333 75.664154,51.8556333 C75.3070318,51.8556333 74.9413408,51.8680718 74.5684632,51.8838272 L74.5684632,51.6646337 L74.6494514,51.6646337 C74.8164033,51.6646337 75.1027645,51.6356106 75.1027645,51.4529033 C75.1027645,51.3586474 75.0372552,51.1612903 74.9557142,50.9266179 L74.6710114,50.0799728 L73.0136546,50.0799728 L72.7789822,50.839825 L72.7789822,50.839825 Z M73.8467556,47.6047176 L73.8321058,47.6047176 L73.151307,49.6714382 L74.5189857,49.6714382 L73.8467556,47.6047176 L73.8467556,47.6047176 Z" id="Fill-37" fill="#FFF"/><path d="M76.6697351,51.9150615 C76.3405303,51.9020703 76.0127076,51.885762 75.6644305,51.885762 C75.3081374,51.885762 74.94217,51.9020703 74.5701216,51.9150615 L74.5377816,51.91672 L74.5377816,51.6328465 L74.6488986,51.6328465 C74.8186146,51.6328465 75.0701481,51.5935962 75.0704245,51.4529033 C75.0723594,51.3697038 75.0062973,51.1704119 74.9242034,50.9373979 L74.6472401,50.1112072 L73.0352146,50.1112072 L72.8096637,50.849223 C72.7361385,51.0993744 72.6498985,51.290374 72.6507277,51.4086777 C72.6507277,51.5875152 72.9246504,51.6328465 73.1659567,51.6328465 L73.2776265,51.6328465 L73.2776265,51.91672 L73.2447337,51.9150615 C72.9531207,51.9020703 72.6540446,51.885762 72.3632609,51.885762 C72.1015002,51.885762 71.8394632,51.9020703 71.576044,51.9150615 L71.5442568,51.91672 L71.5442568,51.6328465 L71.6175056,51.6328465 C71.8897699,51.6314645 72.117532,51.475569 72.2245029,51.179257 L73.3923369,47.8275044 C73.48604,47.557175 73.6178878,47.1939717 73.682015,46.9031879 C73.9114356,46.8235817 74.2047071,46.6770842 74.346782,46.5889093 C74.3655779,46.5817226 74.3860323,46.5728775 74.4158846,46.5728775 C74.4346805,46.571219 74.4731016,46.575918 74.4954908,46.6157211 C74.5176037,46.6732145 74.5391637,46.739553 74.562935,46.7984284 L75.9057367,50.6175911 C75.9936353,50.8732707 76.0807045,51.1430473 76.1755133,51.3608587 C76.2614769,51.5540695 76.3936011,51.6309116 76.6271679,51.6328465 L76.702628,51.6328465 L76.702628,51.91672 L76.6697351,51.9150615 L76.6697351,51.9150615 Z M74.5996975,51.8506579 C74.960966,51.8373902 75.3161533,51.8232933 75.6644305,51.8232933 C76.0038624,51.8232933 76.321458,51.8373902 76.6401592,51.8501051 L76.63933,51.6972501 L76.6271679,51.6972501 C76.3797806,51.697803 76.2075769,51.6005065 76.1163615,51.3851828 C76.0201707,51.1646073 75.9333778,50.8934487 75.8457557,50.6385983 L74.5021247,46.8183299 C74.4805647,46.7600073 74.4573462,46.6947745 74.4402087,46.6441914 C74.4341277,46.6356227 74.4346805,46.6356227 74.430258,46.6356227 L74.4158846,46.6356227 C74.4001292,46.6356227 74.3921133,46.640598 74.3746995,46.6455734 C74.2317953,46.734854 73.9396295,46.8813515 73.7240294,46.93691 C73.678698,47.2135968 73.5460211,47.5779057 73.4520415,47.8490644 L72.2825491,51.1999878 C72.1714321,51.517307 71.9163053,51.697803 71.6175056,51.6972501 L71.6067256,51.6972501 L71.6067256,51.8501051 C71.8582591,51.8373902 72.1092397,51.8232933 72.3632609,51.8232933 C72.6460287,51.8232933 72.9348776,51.8373902 73.2154342,51.8501051 L73.2154342,51.6972501 L73.1659567,51.6972501 C72.9285202,51.6939332 72.595722,51.6687799 72.5863241,51.4086777 C72.588259,51.2643914 72.6780924,51.0780908 72.7496826,50.8307035 L72.7789822,50.839825 L72.7496826,50.8298743 L72.9898833,50.0495677 L74.6920186,50.0495677 L74.9852901,50.9166671 C75.0657255,51.151616 75.1323404,51.3462089 75.1323404,51.4529033 C75.1218368,51.6765194 74.8147448,51.693104 74.6488986,51.6972501 L74.5996975,51.6972501 L74.5996975,51.8506579 L74.5996975,51.8506579 Z M73.1076341,49.7026726 L73.8088874,47.5723775 L73.8467556,47.5723775 L73.8467556,47.6047176 L73.8384633,47.6069288 L73.8467556,47.6047176 L73.8467556,47.5723775 L73.8688684,47.5723775 L74.5593416,49.7026726 L73.1076341,49.7026726 L73.1076341,49.7026726 Z M73.1958091,49.6390982 L74.473378,49.6390982 L73.8381869,47.6834945 L73.1958091,49.6390982 L73.1958091,49.6390982 Z M73.8163504,47.6141155 L73.8307238,47.6088637 L73.8163504,47.6141155 L73.8163504,47.6141155 Z" id="Fill-38" fill="#FFF"/><path d="M78.5122869,51.1676478 C78.5122869,51.4611956 78.7151722,51.5477121 78.9495682,51.5781172 C79.2483679,51.5999537 79.5772963,51.5999537 79.9142406,51.5626383 C80.2205033,51.5258757 80.4833696,51.3517371 80.6143881,51.1676478 C80.7304805,51.0073297 80.7962662,50.802786 80.8410447,50.642468 L81.0522222,50.642468 C80.9717868,51.0587421 80.8697914,51.4681059 80.7821693,51.8838272 C80.1408971,51.8838272 79.496308,51.8556333 78.8547594,51.8556333 C78.2115524,51.8556333 77.569451,51.8838272 76.9270732,51.8838272 L76.9270732,51.6643573 L77.0282394,51.6643573 C77.2916586,51.6643573 77.5774669,51.6284239 77.5774669,51.1756637 L77.5774669,47.4228395 C77.5774669,47.0422224 77.2916586,47.0057362 77.0282394,47.0057362 L76.9270732,47.0057362 L76.9270732,46.7865427 C77.313495,46.7865427 77.6938357,46.8155658 78.0802575,46.8155658 C78.4534115,46.8155658 78.8177205,46.7865427 79.1911509,46.7865427 L79.1911509,47.0057362 L79.0076144,47.0057362 C78.7300984,47.0057362 78.5122869,47.0134757 78.5122869,47.4004503 L78.5122869,51.1676478" id="Fill-39" fill="#FFF"/><path d="M80.7824457,51.9150615 C80.1384094,51.9150615 79.4952024,51.885762 78.8547594,51.885762 C78.2123816,51.885762 77.5697274,51.9150615 76.9256912,51.9150615 L76.8950096,51.9150615 L76.8950096,51.6328465 L77.0282394,51.6328465 C77.2922114,51.6264891 77.5429156,51.6079696 77.5459561,51.1756637 L77.5459561,47.4214575 C77.5429156,47.0659937 77.293317,47.0422224 77.0282394,47.0375234 L76.8950096,47.0375234 L76.8950096,46.7547555 L76.9256912,46.7547555 C77.3146006,46.7547555 77.6946649,46.7832258 78.0797046,46.7832258 C78.4514767,46.7832258 78.8152328,46.7547555 79.1911509,46.7547555 L79.2204504,46.7547555 L79.2204504,47.0375234 L79.0076144,47.0375234 C78.7242937,47.0447101 78.5484967,47.0319952 78.5421393,47.4004503 L78.5421393,51.1676478 C78.5440741,51.4407413 78.7229117,51.5137136 78.9512267,51.5463301 C79.0797575,51.5551752 79.2157514,51.5598742 79.3561679,51.5598742 C79.5347291,51.5598742 79.7202005,51.5515818 79.9089888,51.5316803 C80.2064064,51.4962998 80.4623624,51.3243725 80.588682,51.1502339 C80.7014574,50.994062 80.7650318,50.7939409 80.8092575,50.6350049 L80.8153385,50.6109572 L81.0906433,50.6109572 L81.0842858,50.6493783 C81.0016391,51.066758 80.9010257,51.4741869 80.8125744,51.890461 L80.8067698,51.9150615 L80.7824457,51.9150615 L80.7824457,51.9150615 Z M80.7556339,51.85204 C80.8402154,51.455391 80.935577,51.0675872 81.0146304,50.6737024 L80.8639867,50.6737024 C80.8192083,50.8326384 80.7539754,51.0286133 80.6395415,51.1875493 C80.5029947,51.3766141 80.2326654,51.5551752 79.915899,51.5944255 C79.7248994,51.6137742 79.5350055,51.623725 79.3561679,51.623725 C79.2146458,51.623725 79.0780991,51.6173675 78.9451457,51.6079696 C78.7077091,51.581987 78.4780121,51.4799916 78.4782885,51.1676478 L78.4782885,47.4004503 C78.4782885,46.9944034 78.7350737,46.9733962 79.0076144,46.9733962 L79.1579817,46.9733962 L79.1579817,46.8180535 C78.7983717,46.8202648 78.4431843,46.8476294 78.0797046,46.8476294 C77.7024044,46.8476294 77.3322909,46.8202648 76.958584,46.8180535 L76.958584,46.9733962 L77.0282394,46.9733962 C77.288618,46.9733962 77.6073193,47.0190039 77.6073193,47.4214575 L77.6073193,51.1756637 C77.6073193,51.6483255 77.2900001,51.6972501 77.0282394,51.6972501 L76.958584,51.6972501 L76.958584,51.85204 C77.5893526,51.8506579 78.220674,51.8232933 78.8547594,51.8232933 C79.4896742,51.8232933 80.1234832,51.8506579 80.7556339,51.85204 L80.7556339,51.85204 Z" id="Fill-40" fill="#FFF"/><path d="M80.9632181,46.5795113 C81.4038163,46.5795113 81.7324683,46.9178377 81.7324683,47.3501436 C81.7324683,47.782173 81.4038163,48.1169061 80.9632181,48.1169061 C80.5237255,48.1169061 80.1945207,47.782173 80.1945207,47.3501436 C80.1945207,46.9178377 80.5237255,46.5795113 80.9632181,46.5795113 L80.9632181,46.5795113 Z M80.9632181,47.9740019 C81.3081783,47.9740019 81.5715974,47.6807304 81.5715974,47.3501436 C81.5715974,47.0190039 81.3112188,46.7235212 80.9632181,46.7235212 C80.6171522,46.7235212 80.3540095,47.0190039 80.3540095,47.3501436 C80.3540095,47.6807304 80.6171522,47.9740019 80.9632181,47.9740019 L80.9632181,47.9740019 Z M80.5809425,47.7556376 L80.5809425,47.7183222 C80.674922,47.7047781 80.6926123,47.7072658 80.6926123,47.6497725 L80.6926123,47.0798142 C80.6926123,46.9996552 80.6845964,46.9720141 80.583983,46.9764367 L80.583983,46.9371864 L80.9775914,46.9371864 C81.1127561,46.9371864 81.2374172,47.0018664 81.2374172,47.1417301 C81.2374172,47.2558876 81.1622336,47.3407456 81.0555392,47.3736385 L81.1821351,47.5499883 C81.2410105,47.6295945 81.3081783,47.7047781 81.3512983,47.7313135 L81.3512983,47.7556376 L81.2017603,47.7556376 C81.1298936,47.7556376 81.0663192,47.6047176 80.9253499,47.4021087 L80.8402154,47.4021087 L80.8402154,47.6569591 C80.8402154,47.7072658 80.8579057,47.7047781 80.9524381,47.7183222 L80.9524381,47.7556376 L80.5809425,47.7556376 L80.5809425,47.7556376 Z M80.8402154,47.3501436 L80.9308781,47.3501436 C81.0301094,47.3501436 81.0759935,47.2752363 81.0759935,47.1538922 C81.0759935,47.0317188 81.0052325,46.9883223 80.9259027,46.9883223 L80.8402154,46.9883223 L80.8402154,47.3501436 L80.8402154,47.3501436 Z" id="Fill-41" fill="#FFF"/><path d="M35.3538414,21.0065727 C35.3538414,14.176195 40.8908948,8.63914161 47.7209961,8.63914161 C54.5513739,8.63914161 60.0884273,14.176195 60.0884273,21.0065727 C60.0884273,27.8369504 54.5513739,33.3742803 47.7209961,33.3742803 C40.8908948,33.3742803 35.3538414,27.8369504 35.3538414,21.0065727" id="Fill-42" fill="#0069AA"/><path d="M55.2003855,20.7630552 C55.1954101,17.5959446 53.2157587,14.8948621 50.4262249,13.8251538 L50.4262249,27.7004037 C53.2157587,26.6293134 55.1954101,23.9307185 55.2003855,20.7630552 L55.2003855,20.7630552 Z M45.1047716,27.6976396 L45.1047716,13.8265358 C42.3177254,14.8995611 40.3411145,17.5967739 40.3336514,20.7630552 C40.3411145,23.9285072 42.3177254,26.6254436 45.1047716,27.6976396 L45.1047716,27.6976396 Z M47.7668803,9.03523773 C41.2900315,9.03772542 36.0426562,14.2862063 36.0415505,20.7630552 C36.0426562,27.2390747 41.2900315,32.4867264 47.7668803,32.4878321 C54.2437291,32.4867264 59.49221,27.2390747 59.4938685,20.7630552 C59.49221,14.2862063 54.2437291,9.03772542 47.7668803,9.03523773 L47.7668803,9.03523773 Z M47.7381336,33.5945794 C40.6506942,33.6283014 34.8173288,27.8864279 34.8173288,20.8968378 C34.8173288,13.2579596 40.6506942,7.97437456 47.7381336,7.97575662 L51.0594811,7.97575662 C58.0631682,7.97437456 64.455159,13.2554719 64.455159,20.8968378 C64.455159,27.8839402 58.0631682,33.5945794 51.0594811,33.5945794 L47.7381336,33.5945794 L47.7381336,33.5945794 Z" id="Fill-43" fill="#FFF"/></g></g></svg>