<svg width="100" height="60" viewBox="0 0 100 60" version="1.1" xmlns="http://www.w3.org/2000/svg" xmlns:xlink="http://www.w3.org/1999/xlink"><title>GoogleWallet-light</title><desc>Created with Sketch.</desc><g id="Light-Payment-badges" stroke="none" stroke-width="1" fill="none" fill-rule="evenodd" transform="translate(-290.000000, -689.000000)"><g id="GoogleWallet-light" transform="translate(290.000000, 689.000000)"><rect id="Rectangle" fill="#FFF" x="0" y="0" width="100" height="60" rx="4"/><g id="Google-Wallet" transform="translate(27.526323, 44.532415)" fill="#1476C6"><path d="M25.0767412,6.22549904 C24.9839331,6.28175355 24.891125,6.33800806 24.7797553,6.39426257 C24.4827695,6.52552309 24.1857837,6.5630261 23.9259211,6.5630261 C23.6474969,6.5630261 23.2020181,6.54427459 22.7565394,6.20674754 C22.1254445,5.75671146 21.8470203,4.98789983 21.8470203,4.31284572 C21.8470203,2.92523449 22.9607171,2.25018038 23.8702362,2.25018038 C24.1857837,2.25018038 24.5198927,2.32518639 24.7797553,2.49394992 C25.2252341,2.79397397 25.3366038,3.16900403 25.3922886,3.37527056 L23.3133878,4.2190882 L22.6266081,4.27534271 C22.8493474,5.41918441 23.6103736,6.07548701 24.4456463,6.07548701 C24.891125,6.07548701 25.2252341,5.90672349 25.5222199,5.75671146 L25.0767412,6.22549904 L25.0767412,6.22549904 Z M24.2414685,3.5627856 C24.4085231,3.50653109 24.5013311,3.45027658 24.5013311,3.31901605 C24.5013311,2.96273749 24.1115372,2.55020443 23.6289352,2.55020443 C23.2762646,2.55020443 22.6080465,2.83147697 22.6080465,3.78780363 C22.6080465,3.93781566 22.6266081,4.10657919 22.6266081,4.25659121 L24.2414685,3.5627856 L24.2414685,3.5627856 Z" id="path8"/><path d="M21.6428425,6.41301407 L20.0836669,6.41301407 C20.2878446,6.15049303 20.3249679,6.11299002 20.3249679,5.94422649 L20.3249679,4.48160925 C20.3249679,3.78780363 20.3435295,2.79397397 20.3620911,1.85639881 C20.3620911,1.40636273 20.3992143,0.825066138 20.4177759,0.412533069 L19.7309962,0.412533069 L20.3992143,0.0937575157 L21.6614041,0.0937575157 C21.3829799,0.262521044 21.2901718,0.30002405 21.2716102,0.618799603 C21.1973638,1.31260522 21.1973638,2.4001924 21.1973638,3.67529461 L21.1973638,5.73795996 C21.1973638,6.09423852 21.2530486,6.15049303 21.5500344,6.16924453 C21.6985273,6.18799603 21.8470203,6.20674754 21.9955132,6.20674754 L21.6428425,6.41301407" id="path10"/><path d="M18.728669,2.68146495 C18.9328468,2.85022848 19.3597639,3.20650704 19.3597639,3.90031265 C19.3597639,4.55661526 18.9885316,4.87539081 18.6172993,5.17541486 C18.5059296,5.28792388 18.3759983,5.41918441 18.3759983,5.60669944 C18.3759983,5.79421447 18.5059296,5.90672349 18.5987377,5.9817295 L18.9142852,6.22549904 C19.3040791,6.5630261 19.6567497,6.86305015 19.6567497,7.48184975 C19.6567497,8.32566739 18.8586003,9.16948503 17.3179863,9.16948503 C16.0372349,9.16948503 15.40614,8.55068543 15.40614,7.89438282 C15.40614,7.57560727 15.5731946,7.10681969 16.0929198,6.80679564 C16.6497682,6.46926858 17.3922328,6.41301407 17.7820267,6.39426257 C17.6520954,6.22549904 17.5221641,6.05673551 17.5221641,5.79421447 C17.5221641,5.64420244 17.5592873,5.55044493 17.6149722,5.43793591 C17.5221641,5.43793591 17.4107944,5.45668741 17.3365479,5.45668741 C16.3899056,5.45668741 15.8701804,4.74413029 15.8701804,4.05032468 C15.8701804,3.63779161 16.0557965,3.18775553 16.4455904,2.85022848 C16.946754,2.43769541 17.5592873,2.36268939 18.0233277,2.36268939 L19.8423659,2.36268939 L19.2669558,2.68146495 L18.728669,2.68146495 L18.728669,2.68146495 Z M18.0975741,6.65678361 L17.8933964,6.65678361 C17.8191499,6.65678361 17.3365479,6.67553512 16.9653156,6.80679564 C16.7611379,6.88180165 16.2042895,7.08806818 16.2042895,7.72561929 C16.2042895,8.3631704 16.8168227,8.81320647 17.7634651,8.81320647 C18.6172993,8.81320647 19.0627781,8.4006734 19.0627781,7.83812831 C19.0627781,7.38809223 18.7657923,7.14432269 18.0975741,6.65678361 L18.0975741,6.65678361 Z M18.3574367,4.96914833 C18.5616145,4.7628818 18.5801761,4.48160925 18.5801761,4.31284572 C18.5801761,3.67529461 18.1903822,2.66271344 17.4664792,2.66271344 C17.2437399,2.66271344 16.9838773,2.77522246 16.853946,2.96273749 C16.705453,3.15025253 16.6497682,3.39402207 16.6497682,3.6190401 C16.6497682,4.2190882 17.0024389,5.21291787 17.7634651,5.21291787 C17.9676428,5.21291787 18.2089438,5.10040885 18.3574367,4.96914833 L18.3574367,4.96914833 Z" id="path12"/><path d="M13.2529927,6.54427459 C11.84231,6.54427459 11.0998455,5.43793591 11.0998455,4.42535474 C11.0998455,3.24401004 12.0464878,2.25018038 13.4014857,2.25018038 C14.7007987,2.25018038 15.5175097,3.28151305 15.5175097,4.36910023 C15.4989481,5.41918441 14.6822371,6.54427459 13.2529927,6.54427459 M14.348128,5.81296597 C14.5523058,5.53169342 14.6079906,5.17541486 14.6079906,4.81913631 C14.6079906,4.03157317 14.2367583,2.53145292 13.1416231,2.53145292 C12.8446372,2.53145292 12.566213,2.64396194 12.3434736,2.83147697 C11.990803,3.15025253 11.9351181,3.54403409 11.9351181,3.91906415 C11.9351181,4.8003848 12.3620353,6.26300205 13.4386089,6.26300205 C13.7912796,6.26300205 14.1439502,6.09423852 14.348128,5.81296597" id="path14"/><path d="M8.53834267,6.54427459 C7.12765997,6.54427459 6.38519539,5.43793591 6.38519539,4.42535474 C6.38519539,3.24401004 7.33183772,2.25018038 8.68683558,2.25018038 C9.9861486,2.25018038 10.8028596,3.28151305 10.8028596,4.36910023 C10.784298,5.41918441 9.96758698,6.54427459 8.53834267,6.54427459 M9.63347792,5.81296597 C9.83765568,5.53169342 9.89334052,5.17541486 9.89334052,4.81913631 C9.89334052,4.03157317 9.52210824,2.53145292 8.42697298,2.53145292 C8.12998715,2.53145292 7.83300132,2.64396194 7.62882356,2.83147697 C7.27615288,3.15025253 7.22046804,3.54403409 7.22046804,3.91906415 C7.22046804,4.8003848 7.64738517,6.26300205 8.72395881,6.26300205 C9.07662949,6.26300205 9.42930016,6.09423852 9.63347792,5.81296597" id="path16"/><path d="M5.79122372,6.22549904 L4.60328039,6.50677159 C4.12067842,6.5817776 3.69376128,6.65678361 3.22972092,6.65678361 C0.928080725,6.65678361 0.0556848435,4.95039683 0.0556848435,3.6190401 C0.0556848435,1.98765933 1.29931301,0.487539081 3.41533707,0.487539081 C3.86081581,0.487539081 4.28773295,0.562545094 4.67752685,0.65630261 C5.30862175,0.825066138 5.58704596,1.05008418 5.77266211,1.1813447 L5.08588237,1.83764731 L4.78889654,1.91265332 L4.9930743,1.57512626 C4.71465008,1.29385372 4.19492488,0.787563132 3.21115931,0.787563132 C1.89328468,0.787563132 0.90951911,1.8001443 0.90951911,3.26276155 C0.90951911,4.83788781 2.04177759,6.31925656 3.8422542,6.31925656 C4.38054102,6.31925656 4.64040362,6.20674754 4.90026623,6.11299002 L4.90026623,4.7628818 L3.63807644,4.83788781 L4.30629456,4.48160925 L6.06964794,4.48160925 L5.84690857,4.68787578 C5.79122372,4.74413029 5.77266211,4.7628818 5.77266211,4.81913631 C5.77266211,4.89414232 5.75410049,5.13791186 5.75410049,5.21291787 L5.75410049,6.22549904" id="path18"/><polyline id="path20" points="28.8818722 6.41301407 28.2507773 6.41301407 27.3226965 2.36268939 27.8238601 2.36268939 28.5848863 6.000481 29.3644741 2.36268939 29.995569 2.36268939 30.8122801 6.000481 31.5547446 2.36268939 32.0373466 2.36268939 31.1278275 6.41301407 30.4967326 6.41301407 29.6985832 2.81272547 28.8818722 6.41301407"/><path d="M34.9700817,3.6002886 C34.9700817,2.94398599 34.6730959,2.68146495 34.0234394,2.68146495 C33.5037142,2.68146495 33.2067283,2.96273749 33.1324819,3.43152507 L32.6684415,3.37527056 C32.7612496,2.71896795 33.2809748,2.26893188 34.0234394,2.26893188 C34.9143969,2.26893188 35.4155605,2.66271344 35.4155605,3.54403409 L35.4155605,5.60669944 C35.4155605,5.962978 35.4341221,6.20674754 35.4898069,6.39426257 L35.0257665,6.39426257 C34.9886433,6.28175355 34.9700817,6.07548701 34.9700817,5.962978 C34.7844656,6.24425054 34.3389868,6.48802008 33.9120697,6.48802008 C33.1696051,6.48802008 32.5941951,6.03798401 32.5941951,5.13791186 C32.5941951,4.31284572 33.1881667,3.84405814 34.0234394,3.84405814 C34.4317949,3.84405814 34.7659039,3.91906415 34.9700817,4.01282167 L34.9700817,3.6002886 L34.9700817,3.6002886 Z M34.9700817,4.48160925 C34.7473423,4.36910023 34.4317949,4.27534271 34.0048778,4.27534271 C33.4480293,4.27534271 33.0396738,4.55661526 33.0396738,5.15666336 C33.0396738,5.77546296 33.4109061,6.09423852 33.9306313,6.09423852 C34.3946717,6.09423852 34.8030272,5.75671146 34.9700817,5.4004329 L34.9700817,4.48160925 L34.9700817,4.48160925 Z" id="path22"/><polygon id="path24" points="36.3250796 6.41301407 36.8250796 6.41301407 36.8250796 0.637551107 36.3250796 0.637551107"/><polygon id="path26" points="37.7543239 6.41301407 38.2543239 6.41301407 38.2543239 0.637551107 37.7543239 0.637551107"/><path d="M40.4643196,6.07548701 C40.9469216,6.07548701 41.3181539,5.77546296 41.3924003,5.02540284 L41.8564407,5.10040885 C41.745071,6.07548701 41.1882226,6.52552309 40.4643196,6.52552309 C39.5176773,6.52552309 38.9422672,5.81296597 38.9422672,4.36910023 C38.9422672,3.07524651 39.4248692,2.28768338 40.4086348,2.28768338 C41.4480852,2.28768338 41.8564407,3.15025253 41.8564407,4.33159722 L41.8564407,4.48160925 L39.4063076,4.48160925 C39.4248692,5.58794793 39.8332247,6.07548701 40.4643196,6.07548701 M41.3738387,4.06907618 L41.3738387,4.06907618 C41.3552771,3.30026455 41.0582913,2.71896795 40.4086348,2.71896795 C39.7775399,2.71896795 39.4434308,3.24401004 39.4063076,4.06907618 L41.3738387,4.06907618" id="path28"/><path d="M43.9910263,6.39426257 C43.8982183,6.43176557 43.7126021,6.46926858 43.5084244,6.46926858 C42.9144527,6.46926858 42.7288366,6.16924453 42.7288366,5.58794793 L42.7288366,2.77522246 L42.2091114,2.77522246 L42.2091114,2.36268939 L42.7288366,2.36268939 L42.7288366,1.05008418 L43.1928769,0.862569144 L43.1928769,2.36268939 L43.9910263,2.36268939 L43.9910263,2.77522246 L43.1928769,2.77522246 L43.1928769,5.51294192 C43.1928769,5.90672349 43.2671234,6.000481 43.5826708,6.000481 C43.7497254,6.000481 43.8796567,5.962978 43.9910263,5.90672349 L43.9910263,6.39426257" id="path30"/></g><path d="M44.2503382,21.5805751 C42.282807,18.8428556 39.5542497,16.4426632 36.4544601,14.7737795 C35.9904197,14.5112584 35.4521329,14.3799979 34.9138461,14.3799979 C33.7073411,14.3799979 32.6122059,15.0363005 32.0367958,16.1238877 C31.1829616,17.7177654 31.7954948,19.7241763 33.3732321,20.5679939 C38.143567,23.1557014 41.224795,28.0685952 41.5960273,33.7690521 L41.5960273,33.7503006 C41.5403424,33.1127495 41.6517121,32.4939499 41.9301363,31.9126533 C41.9672596,31.8376473 42.0229444,31.7438898 42.0786293,31.6501323 C43.5635584,29.1749339 44.3617078,26.3247054 44.3617078,23.3994709 C44.3617078,22.7806713 44.306023,22.1806232 44.2503382,21.5805751" id="path34" fill="#1476C6"/><path d="M63.1460617,15.3925791 C62.5706517,12.8423746 61.7168174,10.3671762 60.6031205,8.00448683 C60.0091489,6.74813612 58.7283975,5.92306998 57.354838,5.92306998 C56.8165512,5.92306998 56.296826,6.035579 55.814224,6.27934854 C54.0137474,7.14191768 53.2527212,9.31709204 54.1065554,11.1172363 C55.9255937,15.017549 56.8351128,19.1241282 56.8351128,23.3994709 C56.8351128,27.6748136 55.9255937,31.7813928 54.1436787,35.6066994 C54.1251171,35.6629539 53.8095696,36.3380081 53.8095696,37.1255712 C53.8095696,37.3505892 53.8281312,37.6693648 53.9023777,37.9693888 C54.1436787,39.0007215 54.7933352,39.9382967 55.8699088,40.4445872 C56.3525108,40.6696053 56.872236,40.8008658 57.4105228,40.8008658 C58.7283975,40.8008658 59.9349024,40.0695572 60.5659973,38.906964 C61.2899003,37.5381043 62.0138032,35.7567115 62.6448981,33.4502766 C62.8490759,32.756471 63.0161304,32.1001684 63.1646233,31.4063627 C63.7400334,28.7999038 64.0555808,26.1371904 64.0555808,23.3994709 C64.0370192,20.6992544 63.7214718,17.9802865 63.1460617,15.3925791" id="path36" fill="#47AE33"/><path d="M47.9440994,11.5860239 C47.8884146,11.4735149 47.8141681,11.3797574 47.7399217,11.2859999 C47.4986207,10.9672243 47.2201965,10.7047033 46.8860874,10.4984367 C46.3478006,10.1421582 45.6981441,9.93589165 45.029926,9.93589165 C44.4730775,9.93589165 44.1946533,10.0108977 43.8048594,10.1609097 C43.3965039,10.3296732 42.9695868,10.5546913 42.5797928,10.9672243 C42.1899989,11.3797574 41.9672596,11.7922905 41.800205,12.2423265 C41.466096,13.1236472 41.5217808,14.2674889 42.0786293,15.205064 C43.2665726,17.1364689 43.9719139,19.3491462 44.2317765,21.6180781 C44.306023,22.2181262 44.3431462,22.8369258 44.3431462,23.4369739 C44.3431462,26.3622084 43.5635584,29.2124369 42.0600676,31.6876353 C42.0043828,31.7813928 41.9672596,31.8563988 41.9115747,31.9501563 C41.6145889,32.5314529 41.5217808,33.1877555 41.5774657,33.8065551 C41.6702737,34.8566393 42.2456838,35.850469 43.2108877,36.4505171 C43.4521887,36.6005291 43.7306129,36.7130381 43.9904756,36.8067956 C44.306023,36.9005532 44.6401321,36.9568077 44.9742411,36.9568077 C46.1807461,36.9568077 47.2758813,36.3380081 47.9069762,35.2879239 C49.8002609,32.1564229 50.8953961,28.5936373 51.1366971,24.9370942 C51.1738204,24.4495551 51.192382,23.9432645 51.192382,23.4557254 C51.2109436,19.2178857 50.0786851,15.130058 47.9440994,11.5860239" id="path38" fill="#ED114C"/><path d="M54.1251171,35.6066994 C55.9255937,31.7813928 56.8351128,27.6748136 56.8351128,23.3994709 C56.8351128,21.9368537 56.7423047,20.868018 56.6680583,20.1742124 C54.3107332,16.3676572 50.8953961,12.9548837 46.8860874,10.4796852 C46.8860874,10.4796852 46.9788955,10.5359397 46.9788955,10.5546913 C47.2573197,10.7609578 47.4800591,10.9672243 47.7399217,11.2859999 C47.7956065,11.3610059 47.8884146,11.4735149 47.9440994,11.5860239 C50.0786851,15.1488095 51.192382,19.2178857 51.192382,23.3994709 C51.192382,23.9057615 51.1738204,24.3933006 51.1366971,24.8808396 C52.8443657,28.1623527 53.7724464,31.8939018 53.7724464,35.812966 L53.7724464,36.9943107 C53.791008,36.5817776 53.8838161,36.150493 54.032309,35.775463 C54.0879938,35.7192085 54.1065554,35.6629539 54.1251171,35.6066994" id="path40" fill="#FBBF16"/></g></g></svg>