<svg xmlns="http://www.w3.org/2000/svg" width="100" height="60" fill="none"><path fill="#0ABF53" d="M0 0h100v60H0z"/><path fill="#fff" d="M35.91 33.273h-1.432a.75.75 0 0 1-.75-.75v-9.068h-2.83a2.626 2.626 0 0 0-2.625 2.626v7.84a2.625 2.625 0 0 0 2.626 2.625h10.465V18H35.91zM23.466 23.455H13.187v3.273h6.698a.75.75 0 0 1 .75.75v5.795h-1.431a.75.75 0 0 1-.75-.75v-4.159h-2.83A2.626 2.626 0 0 0 13 30.99v2.93a2.625 2.625 0 0 0 2.626 2.626H26.09V26.081a2.626 2.626 0 0 0-2.626-2.626M49.751 33.273h1.432v-9.818h5.455v15.92A2.626 2.626 0 0 1 54.012 42H43.734v-3.818h7.449v-1.636h-5.01a2.626 2.626 0 0 1-2.627-2.626V23.455h5.455v9.068a.75.75 0 0 0 .75.75M69.285 23.455H58.82V33.92a2.626 2.626 0 0 0 2.625 2.626h10.278v-3.273h-6.699a.75.75 0 0 1-.75-.75v-5.795h1.432a.75.75 0 0 1 .75.75v4.159h2.829a2.626 2.626 0 0 0 2.626-2.626v-2.93a2.626 2.626 0 0 0-2.626-2.626M74.093 23.455h10.465a2.626 2.626 0 0 1 2.626 2.626v10.465h-5.455v-9.068a.75.75 0 0 0-.75-.75h-1.432v9.818h-5.454z"/></svg>