<svg xmlns="http://www.w3.org/2000/svg" width="100" height="60" fill="none"><path fill="#4A4AF4" d="M0 0h100v60H0z"/><path fill="#fff" d="M12.91 33.874c1.273-1.015 3.62-1.976 5.659-1.976 3.015 0 5.33 1.352 5.33 4.68v8.059H20.59v-1.924C19.84 44.013 18.26 45 16.486 45c-2.486 0-4.079-1.351-4.079-3.587 0-2.82 2.87-3.83 6.529-4.305.979-.127 1.497-.451 1.497-1.093 0-.953-.782-1.426-2.198-1.426-1.49 0-3.14.8-4.163 1.733zm4.428 8.542c1.76 0 3.024-1.52 3.024-3.39-2.854.305-4.418.781-4.418 2.179 0 .753.465 1.211 1.394 1.211M51.776 32.262v12.375h3.539v-5.964c0-2.833 1.716-3.665 2.912-3.665.468 0 1.098.136 1.513.448l.645-3.272c-.547-.234-1.118-.286-1.586-.286-1.82 0-2.964.806-3.718 2.444v-2.08zM76.795 31.898c-1.872 0-3.272 1.107-4 2.172-.675-1.377-2.108-2.172-3.824-2.172-1.872 0-3.167 1.04-3.766 2.235v-1.871h-3.41v12.375h3.541v-6.37c0-2.287 1.197-3.384 2.315-3.384 1.012 0 1.942.654 1.942 2.344v7.41h3.537v-6.37c0-2.313 1.17-3.384 2.339-3.384.936 0 1.924.68 1.924 2.318v7.436h3.535v-8.554c0-2.782-1.871-4.185-4.133-4.185M43.16 32.262h-3.207v-1.259c0-1.637.935-2.105 1.741-2.105.89 0 1.584.395 1.584.395l1.092-2.496s-1.106-.722-3.118-.722c-2.262 0-4.836 1.274-4.836 5.277v.91h-5.367v-1.259c0-1.637.934-2.105 1.74-2.105.457 0 1.074.106 1.584.395l1.092-2.496c-.652-.381-1.699-.722-3.118-.722-2.262 0-4.836 1.274-4.836 5.277v.91h-2.053v2.73h2.053v9.645h3.538v-9.645h5.367v9.645h3.537v-9.645h3.207zM45.27 44.636h3.534V32.26h-3.533z"/><path fill="#fff" d="M65.886 15c-9.554 0-18.068 6.631-20.485 15.157h3.462c2.02-6.348 8.871-11.922 17.022-11.922 9.91 0 18.473 7.544 18.473 19.288 0 2.635-.341 5.014-.988 7.113h3.359l.033-.115c.552-2.166.831-4.52.831-6.998C87.593 24.426 78.05 15 65.885 15"/></svg>