<svg xmlns="http://www.w3.org/2000/svg" width="100" height="60" fill="none"><path fill="#1677FF" d="M0 0h100v60H0z"/><path fill="#fff" d="M11.694 19.5h14.152c1.843 0 3.335 1.506 3.335 3.364v10.89c-.007-.001-.696-.06-3.679-1.068a75 75 0 0 1-1.94-.703q-.6-.223-1.256-.463a17 17 0 0 0 1.738-4.427h-4.105v-1.491h5.028v-.832H19.94v-2.486h-2.052c-.36 0-.36.359-.36.359v2.127h-5.085v.832h5.085v1.49H13.33v.833h8.143a14.7 14.7 0 0 1-1.173 2.89c-2.642-.879-5.462-1.591-7.233-1.153-1.133.282-1.863.784-2.291 1.31-1.967 2.414-.556 6.08 3.598 6.08 2.456 0 4.823-1.38 6.657-3.657 2.73 1.324 8.13 3.595 8.15 3.603v.138c0 1.858-1.49 3.364-3.334 3.364H11.694c-1.843 0-3.335-1.506-3.335-3.364V22.864c0-1.858 1.492-3.364 3.335-3.364"/><path fill="#fff" d="M11.389 31.668c-1.601 1.408-.643 3.981 2.596 3.981 1.883 0 3.765-1.214 5.242-3.158-2.102-1.035-3.883-1.775-5.807-1.584-.52.053-1.497.285-2.031.76M53.572 22.574c0 1.087.794 1.818 1.901 1.818 1.108 0 1.902-.731 1.902-1.818 0-1.065-.794-1.818-1.901-1.818-1.108 0-1.902.753-1.902 1.818M48.265 36.468h3.301V21.216h-3.3zM37.672 31.182l1.964-6.79h.084l1.86 6.79zm4.806-9.443h-4.43l-4.952 14.73h3.051l.836-2.884h5.244l.794 2.883h3.907zM53.823 36.468h3.301V25.27h-3.301zM91.62 25.29l.021-.02h-3.113l-1.964 6.81h-.104l-2.257-6.81h-3.698l4.45 11.24-1.859 3.427v.083H86zM63.247 34.546a3.6 3.6 0 0 1-1.129-.167v-6.06c.69-.48 1.254-.71 1.964-.71 1.233 0 2.215.983 2.215 3.072 0 2.674-1.442 3.865-3.05 3.865m2.089-9.506c-1.212 0-2.152.46-3.218 1.337v-1.108h-3.301V40.02h3.301v-3.656a7.1 7.1 0 0 0 1.922.25c2.946 0 5.6-2.172 5.6-6.038 0-3.468-1.922-5.536-4.304-5.536M76.556 33.752c-.877.48-1.379.669-1.963.669-.795 0-1.296-.523-1.296-1.358 0-.314.063-.627.313-.878.397-.397 1.17-.69 2.946-1.107zm3.301-.084v-4.68c0-2.549-1.504-3.948-4.157-3.948-1.693 0-2.863.292-4.994.94l.585 2.57c1.943-.878 2.8-1.254 3.698-1.254 1.087 0 1.567.773 1.567 1.964v.084c-3.782.71-4.951 1.107-5.683 1.838-.543.544-.773 1.317-.773 2.215 0 2.152 1.672 3.301 3.239 3.301 1.17 0 2.11-.439 3.385-1.4l.23 1.17h3.3z"/></svg>