<svg xmlns="http://www.w3.org/2000/svg" width="100" height="60" fill="none"><path fill="#000" d="M0 0h100v60H0z"/><path fill="#F90" d="M59.303 36.692c-4.18 3.08-10.24 4.723-15.458 4.723-7.316 0-13.903-2.704-18.885-7.2-.392-.355-.04-.837.43-.56 5.376 3.125 12.025 5.006 18.893 5.006 4.632 0 9.728-.958 14.413-2.945.708-.3 1.3.463.607.976"/><path fill="#F90" d="M61.042 34.705c-.533-.682-3.533-.322-4.88-.163-.41.05-.473-.306-.103-.563 2.39-1.68 6.31-1.195 6.768-.632.457.566-.12 4.494-2.365 6.368-.344.288-.673.135-.52-.247.505-1.258 1.635-4.077 1.1-4.763"/><path fill="#fff" d="M56.256 22.115v-1.633c0-.248.188-.413.414-.413h7.319c.235 0 .422.169.422.413v1.399c-.003.234-.2.54-.55 1.026l-3.793 5.41c1.409-.034 2.897.176 4.174.896.288.163.367.4.389.635v1.743c0 .238-.263.517-.539.373-2.252-1.18-5.243-1.308-7.732.012-.254.138-.52-.137-.52-.375v-1.656c0-.266.003-.72.269-1.123l4.394-6.297h-3.824c-.235 0-.423-.166-.423-.41M29.557 32.308h-2.226a.42.42 0 0 1-.398-.379V20.51c0-.228.19-.41.429-.41h2.076a.42.42 0 0 1 .404.383v1.492h.041c.542-1.442 1.56-2.115 2.931-2.115 1.394 0 2.265.673 2.891 2.115.539-1.442 1.763-2.115 3.076-2.115.933 0 1.954.385 2.577 1.249.705.96.56 2.356.56 3.58l-.003 7.207a.42.42 0 0 1-.429.413h-2.223a.423.423 0 0 1-.401-.413v-6.053c0-.481.044-1.683-.063-2.14-.166-.767-.664-.983-1.309-.983-.538 0-1.102.36-1.33.936-.23.576-.208 1.54-.208 2.187v6.053a.42.42 0 0 1-.429.413H33.3a.42.42 0 0 1-.401-.413l-.003-6.053c0-1.273.21-3.148-1.372-3.148-1.6 0-1.538 1.828-1.538 3.148v6.053a.42.42 0 0 1-.429.412m41.156-12.449c3.304 0 5.092 2.835 5.092 6.44 0 3.483-1.976 6.247-5.092 6.247-3.245 0-5.011-2.836-5.011-6.369 0-3.555 1.789-6.318 5.011-6.318m.019 2.331c-1.642 0-1.745 2.235-1.745 3.627 0 1.396-.022 4.375 1.726 4.375 1.725 0 1.807-2.403 1.807-3.868 0-.963-.04-2.115-.332-3.029-.25-.795-.749-1.105-1.456-1.105m9.358 10.118h-2.218a.423.423 0 0 1-.4-.413l-.004-11.423a.42.42 0 0 1 .43-.372h2.063c.194.01.354.14.398.319v1.746h.04c.624-1.561 1.498-2.306 3.035-2.306 1 0 1.973.36 2.6 1.346.582.913.582 2.45.582 3.555v7.188c-.025.2-.21.36-.429.36h-2.233a.42.42 0 0 1-.394-.36v-6.203c0-1.248.144-3.076-1.394-3.076-.542 0-1.04.363-1.287.914-.313.698-.354 1.393-.354 2.162v6.15a.43.43 0 0 1-.435.413m-29.668-5.455v-.481c-1.614 0-3.314.344-3.314 2.24 0 .961.501 1.611 1.357 1.611.622 0 1.186-.384 1.54-1.01.438-.77.417-1.493.417-2.36m2.245 5.424a.465.465 0 0 1-.526.053c-.74-.614-.874-.898-1.278-1.484-1.221 1.246-2.089 1.618-3.67 1.618-1.876 0-3.333-1.154-3.333-3.467 0-1.806.977-3.036 2.374-3.636 1.21-.533 2.897-.626 4.188-.773V24.3c0-.53.04-1.155-.273-1.612-.27-.41-.79-.579-1.25-.579-.848 0-1.603.435-1.788 1.336-.037.2-.185.398-.388.407l-2.158-.231c-.182-.041-.385-.188-.332-.467.495-2.616 2.863-3.405 4.98-3.405 1.083 0 2.499.288 3.354 1.108 1.083 1.011.98 2.36.98 3.828v3.467c0 1.042.432 1.499.84 2.062.14.2.172.442-.01.592q-.863.728-1.707 1.477zM21.23 26.853l-.001-.481c-1.61 0-3.31.344-3.31 2.24 0 .961.498 1.611 1.354 1.611.626 0 1.186-.384 1.54-1.01.439-.77.417-1.493.417-2.36m2.245 5.424a.465.465 0 0 1-.526.053c-.74-.614-.87-.898-1.278-1.484-1.221 1.246-2.086 1.618-3.67 1.618-1.873 0-3.333-1.154-3.333-3.467 0-1.806.98-3.036 2.374-3.636 1.21-.533 2.897-.626 4.188-.773V24.3c0-.53.04-1.155-.27-1.612-.272-.41-.792-.579-1.25-.579-.848 0-1.606.435-1.79 1.336-.038.2-.185.398-.386.407l-2.16-.231c-.183-.041-.383-.188-.333-.467.498-2.616 2.863-3.405 4.98-3.405 1.083 0 2.499.288 3.354 1.108 1.084 1.011.98 2.36.98 3.828v3.467c0 1.042.432 1.499.84 2.062.144.2.175.442-.007.592q-.862.728-1.707 1.477z"/></svg>