<svg xmlns="http://www.w3.org/2000/svg" width="100" height="60" fill="none"><path fill="#fff" d="M0 0h100v60H0z"/><path fill="#199BFA" d="M17.954 26.596c0-3.124-2.367-5.655-5.477-5.655S7 23.472 7 26.596v11.31h1.37c0-2.342 1.839-4.241 4.107-4.241s4.107 1.9 4.107 4.241h1.37z"/><path fill="#282828" d="m25.579 20-3.517 17.907h3.123l.68-3.932h3.88l.68 3.932h3.213L30.12 20zm.722 11.52 1.503-8.64 1.504 8.64zM40.592 33.8c0 1.277-.704 1.903-1.65 1.903s-1.358-.55-1.358-1.728v-9.167h-3.008v9.567c0 2.554 1.261 3.757 3.105 3.757 1.503 0 2.425-.777 2.91-1.854v1.628H43.6V24.808h-3.007zM45.385 22.179h3.007v2.63h2.061v2.279h-2.061v7.162c0 .902.363 1.302 1.14 1.302.388 0 .752-.05.921-.125v2.38c-.242.1-.824.2-1.503.2-2.498 0-3.565-1.153-3.565-3.507zM56.148 24.583c2.79 0 4.802 1.653 4.802 4.859v3.781c0 3.231-2.086 4.909-4.826 4.909s-4.73-1.678-4.73-4.858v-3.782c0-3.23 1.99-4.909 4.754-4.909m1.77 8.766v-3.982c0-1.652-.63-2.429-1.77-2.429s-1.746.777-1.746 2.404v4.007c0 1.603.557 2.404 1.746 2.404s1.77-.801 1.77-2.404M65.461 26.412c.51-1.002 1.504-1.829 2.96-1.829 2.158 0 3.589 1.502 3.589 4.633v4.233c0 3.155-1.504 4.683-3.71 4.683-1.408 0-2.403-.726-2.839-1.728V42h-3.008V24.81h3.008zm1.819 9.366c1.116 0 1.698-.726 1.698-2.304v-4.257c0-1.628-.631-2.254-1.698-2.254-1.164 0-1.844.826-1.844 2.454V33.3c0 1.628.607 2.48 1.844 2.48M79.871 26.312c-.46-1.052-1.31-1.729-2.716-1.729-2.135 0-3.735 1.528-3.735 4.709v4.157c0 3.18 1.503 4.684 3.59 4.684 1.454 0 2.376-.827 2.861-1.879v1.653h3.008V24.809h-3.008zm.025 6.962c0 1.628-.68 2.48-1.844 2.48-1.019 0-1.6-.652-1.6-2.255v-4.257c0-1.628.581-2.33 1.673-2.33 1.165 0 1.771.852 1.771 2.53zM88.915 32.773l1.916-7.965h2.947L88.905 42h-3.017l1.5-5.145-3.664-12.047h3.202z"/></svg>