<svg xmlns="http://www.w3.org/2000/svg" width="100" height="60" fill="none"><path fill="#fff" d="M0 0h100v60H0z"/><path fill="#005498" d="M26.75 9.5a7.25 7.25 0 0 0-7.25 7.25v26.5a7.25 7.25 0 0 0 7.25 7.25h46.5a7.25 7.25 0 0 0 7.25-7.25v-26.5a7.25 7.25 0 0 0-7.25-7.25zM18 16.75A8.75 8.75 0 0 1 26.75 8h46.5A8.75 8.75 0 0 1 82 16.75v26.5A8.75 8.75 0 0 1 73.25 52h-46.5A8.75 8.75 0 0 1 18 43.25z"/><path fill="#005498" d="M38.061 32.821h9.302l5.208-5.544h9.335l-7.927 8.792H24.666v-5.872h15.721z"/><path fill="#FFD800" d="M61.906 27.277H52.57l-5.208 5.577h-9.367l7.926-8.792H75.27v5.84H59.547z"/><path fill="#005498" d="M60.464 20.617v-2.132h.983v-1.378h-1.015v-2.198l-1.867.984v1.214h-.655v1.51h.655v2.296c0 1.148 1.506 1.968 2.882.984V20.65c-.295.328-.983.361-.983-.033m-35.765-6.069h3.406c1.703 0 2.948 2.264 1.376 3.674 1.965 1.214 1.08 3.904-1.114 3.937h-3.668zm2.096 4.56v1.542h.851c1.081 0 .983-1.542-.032-1.542zm.819-3.018c-.23-.066-.82-.033-.82 0v1.443h.852c.59 0 .917-1.017-.032-1.443m18.537 4.2c-.425.327-.786.36-1.343.36-.523 0-1.178-.36-1.178-.951 0-.689.622-1.116 1.178-1.116.557 0 .983.099 1.343.394v-1.64c-.425-.263-1.047-.361-1.604-.361-1.507 0-2.719 1.115-2.719 2.657s1.31 2.657 2.85 2.657q.835 0 1.473-.393zm-7.958-2.757v-.426h-1.867v5.085h1.834v-2.854c0-.984 1.474-1.017 1.474 0v2.854h1.834v-3.314c0-1.443-1.735-2.493-3.275-1.345m16.147 0v-.426h-1.835v5.085h1.835v-2.854c0-.984 1.474-1.017 1.474 0v2.854h1.834v-3.314c0-1.443-1.736-2.493-3.308-1.345m17.162 2.757c-.426.327-.786.36-1.376.36-.524 0-1.146-.36-1.146-.951 0-.689.622-1.116 1.146-1.116.557 0 1.048.099 1.376.394v-1.64c-.426-.263-1.048-.361-1.605-.361-1.54 0-2.751 1.115-2.751 2.657s1.342 2.657 2.849 2.657c.523 0 1.081-.13 1.507-.393zm2.882.327v-2.132h.95v-1.378h-1.048v-2.198l-1.834.984v1.214h-.655v1.51h.655v2.296c0 1.148 1.54 1.968 2.882.984V20.65c-.295.328-.95.361-.95-.033m-25.088-3.674c1.572 0 2.85 1.18 2.85 2.756 0 1.541-1.278 2.624-2.817 2.624s-2.85-1.148-2.85-2.69c0-1.51 1.31-2.69 2.817-2.69m1.08 2.756c0-.722-.49-1.083-1.047-1.083s-1.016.361-1.016 1.017c0 .624.459 1.083 1.016 1.083s1.047-.46 1.047-1.017m-2.914 23.227h-3.407c0 .689.524.951 1.507.951.491 0 1.179-.196 1.801-.525v1.51s-.753.59-2.227.59c-1.703 0-2.915-1.148-2.915-2.723 0-1.443 1.015-2.723 2.719-2.723 1.8 0 2.522 1.148 2.522 2.92m-3.472-1.017h1.67c0-.492-.458-.656-.819-.656s-.753.164-.851.656m-15.754 1.279 1.507-2.165v4.298h1.965l.032-7.447h-1.997l-1.507 2.23-1.54-2.23H24.7l.032 7.447h1.965v-4.298zm21.354-.853c.197-.426.623-.787 1.18-.787.294 0 .622.131.851.295v-1.607c-.164-.197-.426-.263-.687-.263-.46 0-1.082.263-1.343.59v-.524h-1.769v5.282h1.769zm-15.066 2.658c.623.262 1.376.36 1.867.36 1.9 0 2.457-.984 2.457-1.804 0-.951-.983-1.476-1.867-1.607-.131 0-.492-.099-.492-.263 0-.131.099-.295.525-.295.36 0 1.015.131 1.342.295l-.065-1.378c-.491-.163-1.18-.295-1.703-.295-1.08 0-2.031.656-2.031 1.706 0 .82.59 1.247 1.54 1.444.392.032.753.196.753.393 0 .263-.262.328-.524.328-.23 0-.819.066-1.802-.328z"/><path fill="#005498" d="M41.238 43.713v-2.165h1.016v-1.41h-1.081v-2.264l-1.867.984v1.28h-.655v1.509h.655v2.362c0 1.18 1.54 1.968 2.948.984v-1.28c-.295.296-1.016.361-1.016 0m-9.007-3.575h1.966v5.117H32.23zm.983-.165c.59 0 1.081-.492 1.081-1.082 0-.558-.491-1.017-1.08-1.017a1.02 1.02 0 0 0-1.016 1.017c0 .59.458 1.082 1.015 1.082m32.294 5.02c.623.262 1.376.36 1.867.36 1.9 0 2.49-.984 2.49-1.804 0-.951-.983-1.476-1.9-1.607-.131 0-.491-.099-.491-.263 0-.131.098-.295.556-.295.36 0 .983.131 1.343.295l-.098-1.378c-.491-.163-1.18-.295-1.703-.295-1.081 0-2.03.656-2.03 1.706 0 .82.589 1.247 1.538 1.444.394.032.754.196.754.393 0 .263-.262.328-.524.328-.23 0-.82.066-1.802-.328zm-5.764-1.837c-.623.459-1.114.557-1.933.557-1.244 0-2.358-1.017-2.358-2.066 0-1.149.623-2.231 2.358-2.231.786 0 1.441.13 1.933.59v-1.771c-.623-.361-1.474-.46-2.227-.46-2.26 0-3.996 1.608-3.996 3.806 0 2.165 1.9 3.806 4.127 3.806.753 0 1.473-.165 2.096-.525zm3.144-1.87c-.557-.033-1.703.032-2.522.426l.262-1.41c1.9-.624 4.586-.296 4.586 1.377v3.543h-1.769l-.066-.13c-.786.491-3.733.688-3.308-1.608.197-1.345 1.769-1.673 2.752-1.673.49 0 .687-.493.065-.525m.426 1.673c-.36-.033-1.376.131-1.376.787 0 .722 1.376.558 1.376-.164zm8.646-2.428v-2.657h-1.834v7.447h1.835V42.4c0-.984 1.506-1.017 1.506 0v2.92h1.867v-3.38c0-1.508-1.768-2.558-3.373-1.41M33.607 18.321c-.556-.033-1.703.033-2.456.426l.262-1.41c1.834-.624 4.454-.263 4.454 1.377v3.478h-1.736l-.032-.164c-.754.492-3.734.722-3.276-1.542.23-1.345 1.736-1.673 2.686-1.673.491 0 .688-.46.098-.492m-.95 2.427c0-.656.983-.852 1.376-.787v.623c0 .69-1.376.886-1.376.164M64.559 18.321c-.557-.033-1.67.033-2.49.426l.295-1.41c1.834-.624 4.455-.263 4.455 1.377v3.478h-1.704l-.065-.164c-.787.492-3.669.722-3.276-1.542.23-1.345 1.77-1.673 2.719-1.673.491 0 .688-.46.066-.492m-.918 2.427c0-.656.983-.852 1.343-.787v.623c0 .69-1.343.886-1.343.164"/></svg>