<svg xmlns="http://www.w3.org/2000/svg" width="100" height="60" fill="none"><path fill="#fff" d="M0 0h100v60H0z"/><path fill="#000008" d="M37.895 36.918V23.112h5.897q1.443 0 2.38.499.938.492 1.395 1.328a3.74 3.74 0 0 1 .459 1.84q0 .89-.317 1.47-.31.58-.823.917a3.7 3.7 0 0 1-1.098.499v.134q.633.041 1.274.445.64.405 1.072 1.16.43.755.431 1.847 0 1.038-.472 1.867-.472.83-1.49 1.315-1.017.485-2.65.485zm1.672-1.483h4.387q1.638 0 2.326-.634.694-.64.694-1.55 0-.701-.357-1.294-.358-.6-1.018-.958-.66-.364-1.564-.364h-4.468zm0-6.256h4.171q.756 0 1.362-.296a2.4 2.4 0 0 0 .97-.836q.365-.54.365-1.268 0-.91-.634-1.544-.633-.64-2.009-.64h-4.225zM59.718 23.112h2.92v8.966q0 1.51-.722 2.643-.714 1.132-2.002 1.766-1.289.627-3 .627-1.719 0-3.007-.627-1.288-.634-2.002-1.766-.715-1.133-.715-2.643v-8.966h2.92v8.717q0 .788.343 1.402.351.613.984.964.634.35 1.477.35.849 0 1.476-.35a2.46 2.46 0 0 0 .978-.964q.35-.615.35-1.402zM72.549 27.083q-.081-.816-.695-1.268-.613-.451-1.665-.452-.714 0-1.206.203-.493.195-.755.546-.257.351-.257.795-.013.37.155.648.176.276.48.478.302.195.7.344.398.141.85.243l1.24.296a8.7 8.7 0 0 1 1.658.54q.756.336 1.308.829.553.491.856 1.16.31.666.317 1.53-.006 1.266-.647 2.197-.633.924-1.834 1.436-1.193.506-2.878.506-1.672 0-2.913-.512-1.233-.513-1.928-1.517-.687-1.012-.72-2.501h2.824q.047.693.398 1.16.357.457.95.694.6.228 1.355.229.742 0 1.288-.216.552-.216.856-.6t.303-.883q0-.465-.276-.782-.27-.316-.796-.54a8 8 0 0 0-1.274-.404l-1.503-.378q-1.746-.424-2.757-1.328-1.013-.903-1.005-2.433-.007-1.255.668-2.191.68-.938 1.867-1.463t2.697-.526q1.536 0 2.683.526 1.152.525 1.793 1.463.64.937.66 2.17zM82.592 36.918h-4.894V23.112h4.935c1.388 0 2.964.276 3.966.83a5.6 5.6 0 0 1 2.312 2.365q.816 1.544.816 3.695 0 2.157-.816 3.707a5.6 5.6 0 0 1-2.325 2.38c-1.007.553-2.592.83-3.994.83m-1.975-2.5h1.854c.863 0 1.969-.154 2.557-.46q.89-.465 1.335-1.435.452-.978.452-2.521 0-1.53-.452-2.501-.445-.971-1.328-1.43c-.589-.305-1.695-.458-2.557-.458h-1.861z"/><path fill="#F0B90B" d="M23.957 21.783 21.24 19l-6.842 6.908 2.717 2.717zM28.082 25.908l-2.717-2.783-10.967 11.033 2.717 2.717zM12.99 27.25l2.717 2.783-2.717 2.717-2.717-2.717zM32.207 30.033 29.49 27.25 18.523 38.283 21.24 41z"/></svg>