<svg xmlns="http://www.w3.org/2000/svg" width="100" height="60" fill="none"><path fill="#fff" d="M0 0h100v60H0z"/><path fill="#F7931A" d="M24.628 32.177a8.998 8.998 0 1 1-17.46-4.353 8.996 8.996 0 1 1 17.46 4.353"/><path fill="#fff" d="M19.865 28.718c.179-1.198-.733-1.841-1.98-2.27l.405-1.623-.988-.246-.394 1.58c-.26-.065-.526-.127-.79-.187l.396-1.59-.987-.246-.405 1.622a33 33 0 0 1-.63-.148v-.005l-1.361-.34-.263 1.054s.733.168.717.178c.4.1.473.365.46.575l-.46 1.848a1 1 0 0 1 .102.033l-.104-.026-.646 2.589c-.048.121-.172.304-.452.234.01.015-.718-.179-.718-.179l-.49 1.13 1.285.32q.358.092.704.182l-.409 1.641.987.246.404-1.623q.404.109.787.204l-.403 1.616.987.246.41-1.638c1.683.319 2.95.19 3.482-1.333.43-1.226-.021-1.933-.907-2.394.645-.15 1.13-.573 1.26-1.45m-2.257 3.164c-.305 1.226-2.37.563-3.039.397l.542-2.174c.67.167 2.816.498 2.497 1.777m.306-3.182c-.279 1.116-1.997.549-2.555.41l.492-1.972c.558.14 2.353.399 2.063 1.562"/><path fill="#4D4D4D" d="M33.272 26.447q1.095 0 1.89.387.798.39 1.324 1.048.523.662.774 1.55.249.889.249 1.912a7.7 7.7 0 0 1-.58 2.973 7.7 7.7 0 0 1-1.583 2.438 7.45 7.45 0 0 1-2.37 1.639 7.2 7.2 0 0 1-2.959.604q-.206 0-.72-.011-.512-.011-1.17-.102a14 14 0 0 1-1.402-.274 7 7 0 0 1-1.402-.501l3.941-16.56 3.53-.546-1.411 5.876q.454-.204.91-.319.456-.113.979-.114m-2.96 9.75q.796 0 1.502-.387.709-.387 1.22-1.036a5.2 5.2 0 0 0 .809-1.47 5 5 0 0 0 .296-1.71q0-1.093-.364-1.708-.365-.614-1.345-.615-.319.001-.83.114-.514.116-.924.48l-1.502 6.24q.135.023.239.045.102.023.214.034.115.013.275.013zM41.17 38.68H37.8l2.847-11.98h3.394zm1.64-13.44q-.706 0-1.275-.421-.572-.42-.57-1.288 0-.477.192-.898a2.4 2.4 0 0 1 1.254-1.22 2.3 2.3 0 0 1 .9-.181q.705 0 1.275.42.57.424.57 1.288 0 .48-.195.9a2.37 2.37 0 0 1-1.251 1.218 2.2 2.2 0 0 1-.9.181M46.994 23.715l3.531-.547-.867 3.531h3.782l-.683 2.778h-3.759l-1.001 4.19q-.138.525-.16.98-.023.456.114.786.135.33.49.511.351.184 1.013.184.546 0 1.06-.103.51-.1 1.035-.284l.252 2.597q-.685.25-1.48.432-.799.183-1.892.182-1.57 0-2.438-.466-.865-.468-1.23-1.277-.363-.807-.319-1.855.046-1.049.319-2.21zM53.291 33.897q0-1.549.501-2.916a7.2 7.2 0 0 1 1.436-2.394 6.7 6.7 0 0 1 2.267-1.616q1.33-.591 2.972-.592 1.026 0 1.833.194.809.195 1.47.512l-1.163 2.644a11 11 0 0 0-.945-.33q-.489-.15-1.195-.15-1.686.001-2.677 1.162-.991 1.16-.992 3.121 0 1.161.503 1.88.501.718 1.844.717.664 0 1.276-.136a6.3 6.3 0 0 0 1.094-.342l.252 2.71a12 12 0 0 1-1.413.446q-.775.19-1.846.192-1.413-.001-2.391-.41-.98-.41-1.616-1.105a4.2 4.2 0 0 1-.924-1.63 6.7 6.7 0 0 1-.286-1.957M68.267 38.998q-1.208-.001-2.096-.365a3.9 3.9 0 0 1-1.469-1.025 4.4 4.4 0 0 1-.876-1.56c-.2-.6-.295-1.264-.295-1.991q0-1.37.443-2.735a7.8 7.8 0 0 1 1.31-2.46 7 7 0 0 1 2.118-1.79q1.251-.693 2.868-.694 1.185 0 2.086.366a3.9 3.9 0 0 1 1.48 1.025q.58.66.876 1.56.296.899.296 1.993-.001 1.365-.431 2.735a7.9 7.9 0 0 1-1.276 2.459 6.7 6.7 0 0 1-2.107 1.787q-1.263.695-2.927.695m1.685-9.749q-.751.002-1.32.432-.57.435-.956 1.094-.389.662-.582 1.447a6.2 6.2 0 0 0-.193 1.491q.001 1.14.364 1.778.365.636 1.322.637.75 0 1.321-.433.567-.432.956-1.093.387-.66.582-1.447a6.3 6.3 0 0 0 .193-1.491q0-1.139-.365-1.777t-1.322-.638M78.683 38.68h-3.374l2.847-11.98h3.396zm1.638-13.44q-.707 0-1.275-.421-.57-.42-.57-1.288 0-.477.194-.898.193-.422.513-.73.318-.306.74-.49.42-.18.898-.181.708 0 1.277.42.57.424.57 1.288c0 .32-.068.619-.195.9a2.36 2.36 0 0 1-1.25 1.218 2.2 2.2 0 0 1-.902.181M83.98 27.245q.386-.114.852-.263.466-.148 1.05-.27.58-.127 1.297-.207.719-.081 1.628-.081 2.667.001 3.68 1.55t.355 4.237l-1.551 6.468h-3.394l1.503-6.332a14 14 0 0 0 .217-1.151q.081-.555-.012-.98a1.17 1.17 0 0 0-.42-.683q-.333-.262-1.015-.262-.659 0-1.343.139l-2.21 9.27h-3.395z"/></svg>