<svg xmlns="http://www.w3.org/2000/svg" width="100" height="60" fill="none"><path fill="#262626" d="M0 0h100v60H0z"/><path fill="#fff" d="M42.84 16h4.916v27.786H42.84zm9.19 9.405h4.917v18.381H52.03zm27.146 18.381-7.481-9.725 6.84-8.656h-5.879l-6.625 8.442V16h-5.023v27.786h5.023v-9.511l6.625 9.511zM30.229 25.191c-1.603 0-3.1.427-4.488 1.069V16h-4.916v18.595A9.35 9.35 0 0 0 30.229 44a9.35 9.35 0 0 0 9.405-9.405c0-5.236-4.275-9.404-9.405-9.404m0 13.893c-2.458 0-4.488-2.03-4.488-4.489s2.03-4.488 4.488-4.488 4.489 2.03 4.489 4.488c-.107 2.458-2.03 4.489-4.489 4.489"/><path fill="#E83E49" d="M37.45 25.188a3.588 3.588 0 1 0 0-7.176 3.588 3.588 0 0 0 0 7.176"/></svg>