<svg xmlns="http://www.w3.org/2000/svg" width="100" height="60" fill="none"><path fill="#000" d="M0 0h100v60H0z"/><path fill="#fff" d="M50.752 37.507c3.226 0 4.84-1.063 4.84-3.115 0-2.016-1.724-3.116-5.096-3.116h-3.922v6.231zM46.574 28.27V22.48h3.628c2.75 0 4.216.99 4.216 2.896 0 1.869-1.43 2.895-4.178 2.895z"/><path fill="#fff" d="M64.228 10.693c-2.179-.684-4.163-.684-8.196-.684h-12.1c-4.01 0-6.018 0-8.16.666a8.48 8.48 0 0 0-5.087 5.088C30 17.928 30 19.93 30 23.94v12.1c0 4.033 0 6.018.666 8.178a8.48 8.48 0 0 0 5.088 5.088c2.165.684 4.167.684 8.178.684H56.05c4.015 0 6.018 0 8.178-.684a8.48 8.48 0 0 0 5.087-5.088C70 42.054 70 40.05 70 36.04V23.959c0-4.015 0-6.018-.685-8.178a8.48 8.48 0 0 0-5.087-5.088M40.746 37.507H43.2V22.48h-2.456v-3.116h9.824c4.508 0 7.258 2.089 7.258 5.718 0 2.383-1.393 3.849-3.152 4.546 2.529.696 4.325 2.492 4.325 4.948 0 3.885-3.006 6.048-7.918 6.048H40.746z"/></svg>