<svg xmlns="http://www.w3.org/2000/svg" width="100" height="60" fill="none"><path fill="#fff" d="M0 0h100v60H0z"/><path fill="#000" d="M38.835 27.744a.373.373 0 0 1-.493-.097 2.86 2.86 0 0 0-2.429-1.224c-1.851 0-2.987 1.465-2.987 3.556s1.157 3.584 3.008 3.584a2.83 2.83 0 0 0 2.434-1.28.367.367 0 0 1 .486-.108l.879.51a.375.375 0 0 1 .137.55 4.57 4.57 0 0 1-3.934 2.034c-2.96 0-4.965-2.148-4.965-5.278s2.006-5.25 4.921-5.25a4.66 4.66 0 0 1 3.915 1.939.377.377 0 0 1-.102.541zM45.304 34.276v.425a.37.37 0 0 0 .387.37h.967a.37.37 0 0 0 .37-.37v-4.835c0-1.752-1.245-2.476-3.008-2.476a6.1 6.1 0 0 0-2.841.713.373.373 0 0 0-.153.49l.317.662a.366.366 0 0 0 .505.16 4.54 4.54 0 0 1 2.02-.512c.613 0 1.337.17 1.337.796 0 .656-.792.768-1.77.906q-.118.015-.236.034c-1.009.14-2.645.455-2.645 2.29 0 1.474 1.067 2.314 2.603 2.314 1.04 0 1.685-.37 2.147-.967m-1.516-2.494c.584-.102 1.114-.195 1.417-.424v.86c0 1.125-.81 1.609-1.678 1.609-.698 0-1.182-.312-1.182-.981 0-.727.555-.905 1.224-1.025zM48.618 33.156a.37.37 0 0 1 .511-.049 3.44 3.44 0 0 0 2.152.694c.798 0 1.388-.256 1.388-.881 0-.57-.541-.683-1.85-.912-1.39-.231-2.717-.694-2.717-2.277 0-1.65 1.423-2.346 3.045-2.346a4.56 4.56 0 0 1 2.82.926.37.37 0 0 1 .05.534l-.462.544a.373.373 0 0 1-.509.058 3.27 3.27 0 0 0-1.966-.63c-.683 0-1.28.2-1.28.739 0 .599.838.712 1.678.856 1.793.312 2.931.823 2.931 2.313 0 1.565-1.252 2.532-3.24 2.532a4.67 4.67 0 0 1-3.007-.981.376.376 0 0 1-.049-.533zm6.89 1.545v-9.417a.37.37 0 0 1 .37-.37h1.067a.37.37 0 0 1 .37.37v3.217a2.78 2.78 0 0 1 2.29-1.111c1.579 0 2.504 1.124 2.504 2.73v4.581a.37.37 0 0 1-.37.37h-1.067a.37.37 0 0 1-.37-.37v-4.164c0-.799-.257-1.523-1.28-1.523-.969 0-1.707.683-1.707 1.821v3.869a.37.37 0 0 1-.37.37h-1.067a.367.367 0 0 1-.37-.373M73.079 32.554l.768 2.268a.37.37 0 0 0 .345.259h1.321a.37.37 0 0 0 .35-.498l-3.483-9.417a.37.37 0 0 0-.35-.242h-1.71a.37.37 0 0 0-.346.23l-3.496 9.42a.37.37 0 0 0 .347.498h1.251a.37.37 0 0 0 .35-.25l.77-2.268zm-3.415-1.58 1.494-4.41 1.437 4.41zm8.88-2.46v-.583a.37.37 0 0 0-.224-.358.4.4 0 0 0-.146-.03h-1.067a.37.37 0 0 0-.37.37v9.255c0 .204.165.37.37.37h1.067a.37.37 0 0 0 .37-.37v-3.07a2.71 2.71 0 0 0 2.314 1.138c2.047 0 3.37-1.714 3.37-3.933 0-2.22-1.323-3.913-3.37-3.913a2.72 2.72 0 0 0-2.314 1.125m3.785 2.788c0 1.294-.6 2.363-1.851 2.363-1.275 0-1.934-1.067-1.934-2.363 0-1.295.694-2.334 1.934-2.334s1.85 1.041 1.85 2.334m4.822-2.788v-.583a.37.37 0 0 0-.37-.388h-1.067a.37.37 0 0 0-.37.37v9.255c0 .204.165.37.37.37h1.067a.37.37 0 0 0 .37-.37v-3.07a2.72 2.72 0 0 0 2.314 1.138c2.05 0 3.373-1.715 3.373-3.934 0-2.218-1.323-3.912-3.373-3.912a2.72 2.72 0 0 0-2.314 1.124m3.787 2.788c0 1.294-.599 2.363-1.85 2.363-1.268 0-1.937-1.067-1.937-2.363 0-1.295.696-2.334 1.937-2.334 1.24 0 1.85 1.041 1.85 2.334"/><path fill="#00D54B" d="M24.284 20.342C23.194 20 22.202 20 20.184 20H14.13c-2.006 0-3.01 0-4.081.333a4.24 4.24 0 0 0-2.545 2.545c-.343 1.083-.343 2.085-.343 4.091v6.053c0 2.017 0 3.01.333 4.09a4.24 4.24 0 0 0 2.545 2.546c1.083.342 2.085.342 4.091.342h6.062c2.008 0 3.01 0 4.09-.342a4.24 4.24 0 0 0 2.546-2.546c.342-1.082.342-2.084.342-4.09v-6.044c0-2.008 0-3.01-.342-4.09a4.24 4.24 0 0 0-2.545-2.546m-3.933 7.199a4.16 4.16 0 0 0-2.684-.986c-.81 0-1.62.268-1.62 1.013 0 .68.721.945 1.61 1.273l.262.097c1.756.592 3.202 1.319 3.202 3.04 0 1.87-1.45 3.147-3.825 3.293l-.215 1.002a.405.405 0 0 1-.398.319h-1.492a.41.41 0 0 1-.394-.495l.232-1.058a5.5 5.5 0 0 1-2.395-1.312.4.4 0 0 1 0-.576l.829-.81a.4.4 0 0 1 .564 0 4 4 0 0 0 2.82 1.104c1.081 0 1.814-.458 1.814-1.184 0-.657-.601-.877-1.742-1.295l-.382-.14c-1.466-.523-2.855-1.27-2.855-3.008 0-2.01 1.68-2.991 3.66-3.089l.209-1.02a.405.405 0 0 1 .396-.317h1.487a.403.403 0 0 1 .396.483l-.231 1.141c.757.248 1.459.64 2.066 1.157a.395.395 0 0 1 .02.58l-.772.776a.41.41 0 0 1-.562.012"/></svg>