<svg xmlns="http://www.w3.org/2000/svg" width="100" height="60" fill="none"><path fill="#fff" d="M0 0h100v60H0z"/><path fill="#1EC677" d="M66.684 24.98c-1.468 0-3.222.522-4.902 2.339-1.68-1.817-3.446-2.34-4.902-2.34 0 0-5.611-.422-5.611 6.134v10.613h4.068V31.711c0-2.936 1.966-2.999 2.352-2.912 0 0 .709.038 1.356.71 0 0-1.294 1.692-1.394 3.82 0 0-.286 5.51 4.131 5.51s4.13-5.51 4.13-5.51c-.099-2.128-1.393-3.82-1.393-3.82.647-.672 1.356-.71 1.356-.71.374-.087 2.352-.024 2.352 2.912v10.015h4.068V31.114c-.012-6.557-5.61-6.134-5.61-6.134M61.77 35.854c-.871 0-1.157-1.095-1.17-2.14-.025-1.817 1.157-3.123 1.17-3.148.025.025 1.194 1.331 1.17 3.148 0 1.045-.3 2.14-1.17 2.14M48.98 25.254H44.91v16.485h4.069zM46.951 18.112c-1.356 0-2.476 1.095-2.476 2.439a2.48 2.48 0 0 0 2.476 2.476c1.344 0 2.439-1.108 2.439-2.476 0-1.32-1.107-2.439-2.439-2.439M32.034 26.36V18h-4.03v23.739h4.03V29.857c6.681-3.247 6.433 1.891 6.433 1.891v9.99h4.043v-9.99c-.012-9.655-8.448-6.47-10.476-5.387M77.882 34.299c2.164.759 4.914.696 4.914.696 6.52-.037 6.333-4.777 6.333-4.777-.162-5.338-6.433-5.238-6.433-5.238-5.188 0-8.82 3.558-8.82 8.647 0 5.088 3.558 8.373 9.057 8.373 2.339 0 4.566-.647 6.121-1.78v-3.918c-1.63 1.406-3.583 2.152-5.648 2.152.012 0-5.636.286-5.524-4.155m.497-3.472c.685-1.729 2.103-2.637 4.118-2.637 1.655 0 2.613.697 2.613 1.804 0 1.555-1.754 1.692-3.396 1.692-1.618 0-2.613-.174-3.061-.286l-.436-.1zM19.655 42c2.861 0 4.89-1.082 6.096-1.99v-3.945c-1.78 1.406-3.87 2.215-5.723 2.215-2.961 0-5.039-2.04-5.039-4.977 0-2.787 1.891-4.727 4.591-4.727.883 0 1.642.223 2.451.447.834.237 1.704.498 2.737.498q.486 0 .97-.075V25.69c-.273.025-.534.05-.808.05-.933 0-1.78-.174-2.663-.361-.933-.2-1.89-.398-3.023-.398-2.252 0-4.342.796-5.872 2.264-1.63 1.555-2.501 3.72-2.501 6.246 0 5.014 3.608 8.51 8.784 8.51"/></svg>