<svg xmlns="http://www.w3.org/2000/svg" width="100" height="60" fill="none"><path fill="#1EC677" d="M0 0h100v60H0z"/><path fill="#fff" d="M66.684 24.98c-1.468 0-3.222.522-4.902 2.339-1.68-1.817-3.446-2.34-4.902-2.34 0 0-5.611-.422-5.611 6.134v10.613h4.068V31.711c0-2.936 1.966-2.999 2.352-2.912 0 0 .709.038 1.356.71 0 0-1.294 1.692-1.394 3.82 0 0-.286 5.51 4.13 5.51 4.418 0 4.131-5.51 4.131-5.51-.099-2.128-1.393-3.82-1.393-3.82.647-.672 1.356-.71 1.356-.71.373-.087 2.352-.024 2.352 2.912v10.015h4.068V31.114c-.012-6.557-5.611-6.134-5.611-6.134m-4.915 10.874c-.87 0-1.157-1.095-1.17-2.14-.024-1.817 1.158-3.123 1.17-3.148.025.025 1.195 1.331 1.17 3.148 0 1.045-.299 2.14-1.17 2.14M48.98 25.254h-4.07v16.485h4.07zM46.951 18.112c-1.356 0-2.476 1.095-2.476 2.439a2.48 2.48 0 0 0 2.476 2.476c1.344 0 2.439-1.108 2.439-2.476 0-1.32-1.108-2.439-2.439-2.439M32.034 26.36V18h-4.031v23.739h4.03V29.857c6.682-3.247 6.433 1.891 6.433 1.891v9.99h4.044v-9.99c-.013-9.655-8.448-6.47-10.476-5.387M77.881 34.299c2.165.759 4.915.696 4.915.696 6.52-.037 6.333-4.777 6.333-4.777-.162-5.338-6.433-5.238-6.433-5.238-5.188 0-8.82 3.558-8.82 8.647 0 5.088 3.557 8.373 9.057 8.373 2.339 0 4.566-.647 6.121-1.78v-3.918c-1.63 1.406-3.583 2.152-5.648 2.152.012 0-5.637.286-5.525-4.155m.498-3.472c.684-1.729 2.103-2.637 4.118-2.637 1.655 0 2.613.697 2.613 1.804 0 1.555-1.754 1.692-3.397 1.692-1.617 0-2.612-.174-3.06-.286l-.436-.1zM19.654 42c2.862 0 4.89-1.082 6.097-1.99v-3.945c-1.78 1.406-3.87 2.215-5.723 2.215-2.961 0-5.04-2.04-5.04-4.977 0-2.787 1.892-4.727 4.592-4.727.883 0 1.642.223 2.45.447.834.237 1.705.498 2.738.498q.485 0 .97-.075V25.69c-.273.025-.535.05-.808.05-.933 0-1.78-.174-2.663-.361-.933-.2-1.891-.398-3.023-.398-2.252 0-4.342.796-5.873 2.264-1.63 1.555-2.5 3.72-2.5 6.246 0 5.014 3.608 8.51 8.783 8.51"/></svg>