<svg xmlns="http://www.w3.org/2000/svg" width="100" height="60" fill="none"><path fill="#fff" d="M0 0h100v60H0z"/><path fill="#E46B2A" d="M14.412 35.97q1.58 0 2.72-.33 1.14-.327 1.88-1.046.739-.717 1.088-1.853t.35-2.731-.35-2.73q-.349-1.137-1.088-1.854t-1.88-1.047-2.72-.329h-2.978v11.92zm.698-13.075q3.347.079 5.042 1.823t1.693 5.292q0 3.548-1.693 5.292t-5.042 1.824h-5.072V22.895zm8.604 0 3.327 12.457h.041l3.573-12.457h1.746l3.594 12.457h.04l3.348-12.457h1.396l-4.045 14.23h-1.479L31.538 24.39h-.04L27.8 37.126h-1.52l-4.066-14.231zm19.13 9.397c.2.727.534 1.41.985 2.013a4.9 4.9 0 0 0 1.715 1.426q1.047.537 2.505.538 1.459 0 2.496-.538a4.95 4.95 0 0 0 1.703-1.426 6 6 0 0 0 .987-2.013 8.35 8.35 0 0 0 0-4.574 6.1 6.1 0 0 0-.987-2.003 4.96 4.96 0 0 0-1.703-1.425q-1.037-.54-2.496-.539-1.458 0-2.505.539a4.9 4.9 0 0 0-1.715 1.425 6.1 6.1 0 0 0-.985 2.003 8.3 8.3 0 0 0-.319 2.292q0 1.156.32 2.282M41.56 27.2a7 7 0 0 1 1.294-2.362 6.2 6.2 0 0 1 2.166-1.635q1.305-.608 3.03-.608t3.018.608c.83.38 1.566.939 2.156 1.635a7 7 0 0 1 1.294 2.362q.43 1.335.431 2.81 0 1.475-.43 2.81a6.85 6.85 0 0 1-1.295 2.352 6.3 6.3 0 0 1-2.156 1.625q-1.294.608-3.019.608t-3.029-.608a6.3 6.3 0 0 1-2.166-1.625 6.8 6.8 0 0 1-1.294-2.351 9.1 9.1 0 0 1-.43-2.811q-.001-1.475.43-2.81m16.552-4.305v13.074h8.214v1.157h-9.61V22.895zm11.027 0v13.074h8.214v1.157h-9.61V22.895z"/><path fill="#E46B2A" d="M86.204 31.545 83.37 24.25l-2.936 7.295zm-1.99-8.65 5.75 14.23h-1.5l-1.788-4.424h-6.674l-1.766 4.425h-1.478l5.894-14.231z"/></svg>