<svg xmlns="http://www.w3.org/2000/svg" width="100" height="60" fill="none"><path fill="#26B15D" d="M0 0h100v60H0z"/><path fill="#fff" d="M38.428 35.223c1.636 2.031 3.195 1.988 4.454 1.437 1.15-.503 1.76-1.866 1.558-3.383-.031.014-.08.019-.087.04-.727 1.8-2.595 2.055-4.062 1.66-1.303-.351-1.969-1.294-2.18-2.576a9 9 0 0 1-.106-1.437c-.012-1.94 0-3.88 0-5.87h2.322c.008.174.025.362.025.55v4.76q0 .508.076 1.01c.193 1.268.97 1.758 2.232 1.425 1.025-.268 1.707-1.202 1.773-2.596.07-1.477.051-2.955.07-4.432v-.72h2.262q.04.124.053.254c0 2.888.07 5.775-.03 8.661-.117 3.407-3.025 5.499-6.376 4.701-1.114-.268-2.133-.713-2.937-1.563-.237-.25-.282-.446-.026-.723.341-.365.635-.77.98-1.198M24.43 25.193v1.477c-.72-1.047-1.758-1.705-2.911-1.705-2.17 0-3.926 2.32-3.926 5.181s1.763 5.18 3.926 5.18c1.154 0 2.192-.659 2.91-1.706v1.707h2.36V25.193zM22.193 33.2c-1.281 0-2.32-1.367-2.32-3.055s1.039-3.056 2.32-3.056c1.282 0 2.321 1.369 2.321 3.056s-1.038 3.055-2.32 3.055M65.618 25.193v1.477c-.719-1.047-1.757-1.705-2.912-1.705-2.168 0-3.926 2.32-3.926 5.181s1.758 5.183 3.926 5.183c1.155 0 2.193-.66 2.912-1.707v1.707h2.358V25.193zM63.383 33.2c-1.282 0-2.321-1.367-2.321-3.055s1.04-3.056 2.32-3.056c1.282 0 2.322 1.369 2.322 3.056s-1.04 3.055-2.321 3.055M90.33 25.193v1.477c-.718-1.047-1.757-1.705-2.912-1.705-2.167 0-3.925 2.32-3.925 5.181s1.758 5.183 3.925 5.183c1.155 0 2.194-.66 2.912-1.707v1.707h2.359V25.193zM88.095 33.2c-1.28 0-2.32-1.367-2.32-3.055s1.04-3.056 2.32-3.056c1.282 0 2.321 1.369 2.321 3.056s-1.04 3.055-2.32 3.055M72.148 24.962h-2.423v10.365h2.423zM70.938 23.99a1.495 1.495 0 1 0 0-2.99 1.495 1.495 0 0 0 0 2.99M53.895 25.129c-1.13 0-2.149.592-2.88 1.541v-1.708h-2.371V39h2.372v-5.202c.73.95 1.745 1.542 2.88 1.542 2.22 0 4.02-2.283 4.02-5.104 0-2.82-1.8-5.106-4.02-5.106m-.671 8.07c-1.001 0-1.857-.77-2.204-1.863v-2.178c.347-1.092 1.208-1.863 2.204-1.863 1.31 0 2.372 1.322 2.372 2.955S54.53 33.2 53.22 33.2zM34.968 28.637l1.689-.884c-.026-.784-.546-1.494-1.21-1.911s-1.455-.584-2.237-.665c-1.26-.134-2.612-.028-3.658.685s-1.65 2.183-1.067 3.308c.479.921 1.558 1.351 2.578 1.549s2.092.248 3.012.729c.227.12.464.297.488.553s-.156.457-.343.613a2.847 2.847 0 0 1-4.601-1.553l-1.867.975c-.393.21 1.064 2.015 1.25 2.173 1.381 1.209 3.467 1.393 5.167.829 1.197-.396 2.33-1.295 2.568-2.532a2.6 2.6 0 0 0-.624-2.212c-.577-.628-1.428-.93-2.265-1.097-.837-.168-1.699-.229-2.511-.488-.352-.113-.751-.349-.734-.718.016-.343.386-.546.712-.652.69-.224 1.44-.318 2.137-.122s1.323.724 1.516 1.42M80.601 28.637l1.688-.884c-.025-.784-.546-1.494-1.209-1.911-.662-.418-1.456-.584-2.237-.665-1.26-.134-2.612-.028-3.659.685s-1.65 2.183-1.066 3.308c.478.921 1.558 1.351 2.576 1.549s2.094.248 3.014.729c.227.12.463.297.487.553.025.257-.155.457-.342.613a2.847 2.847 0 0 1-4.602-1.553l-1.866.975c-.394.21 1.063 2.015 1.25 2.173 1.38 1.209 3.466 1.393 5.167.829 1.197-.396 2.329-1.295 2.568-2.532a2.6 2.6 0 0 0-.625-2.212c-.576-.628-1.427-.93-2.264-1.097-.837-.168-1.7-.229-2.512-.488-.352-.113-.752-.349-.733-.718.016-.343.385-.546.712-.652.689-.224 1.44-.318 2.137-.122s1.325.724 1.516 1.42M15.582 26.728s-1.754-2.686-5.57-1.343c0 0-2.062.568-2.99 3.868 0 0 1.908 3.042 6.548 2.063 0 0 3.97-1.03 2.012-4.588m-2.502 2.686c-.775.367-1.967.269-2.776.058-.058-.015-1.113-.387-1.065-.478.775-1.433 2.803-2.755 4.217-1.284.146.141.252.317.31.512.12.485-.236.983-.686 1.195z"/><path fill="#fff" d="M7.022 30.243s-.464 3.6 2.887 4.787 5.982-.98 6.756-2.321l-1.909-1.134s-1.495 3.09-5.775 1.083c0 0-1.547-.912-1.96-2.415"/></svg>