<svg xmlns="http://www.w3.org/2000/svg" width="100" height="60" fill="none"><path fill="#fff" d="M0 0h100v60H0z"/><path fill="#FFCB03" d="M24.857 22.185a8.2 8.2 0 0 1 2.613-.421 8.24 8.24 0 0 1 8.072 6.592l5.648-1.153C39.893 20.811 34.244 16 27.47 16c-1.553 0-3.044.253-4.44.72z"/><path fill="#00A4E0" d="m18.192 40.49 3.82-4.319a8.22 8.22 0 0 1-2.781-6.17 8.21 8.21 0 0 1 2.778-6.166l-3.82-4.318A13.97 13.97 0 0 0 13.467 30a13.97 13.97 0 0 0 4.725 10.488"/><path fill="#EF4023" d="M35.54 31.653a8.24 8.24 0 0 1-8.071 6.584 8.2 8.2 0 0 1-2.615-.423l-1.83 5.468c1.396.466 2.89.718 4.445.718 6.768 0 12.416-4.803 13.718-11.19z"/><path fill="#231F20" d="m57.414 34.65-.005.004-.16-.108c-.463.75-1.185 1.358-2.095 1.754-1.734.753-3.34.56-4.493-.452l-.105.161q-.002-.003-.004-.003l-1.966 2.942c.488.34 1.012.627 1.562.856 2.173.902 4.396.861 6.586-.092 1.584-.685 2.827-1.732 3.676-3.059zm-6.14-7.26c-1.83.787-2.773 2.503-2.58 4.517l7.753-3.337c-1.333-1.566-3.068-2.086-5.173-1.18m-5.147 8.963a10 10 0 0 1-.587-1.132c-.895-2.076-.938-4.225-.183-6.288.83-2.262 2.417-3.994 4.467-4.876 2.577-1.108 5.427-.89 7.896.576 1.57.9 2.682 2.29 3.526 4.254.108.252.203.52.295.749zM66.93 19.724V36.08l2.543 1.031-1.445 3.372-2.807-1.17a3.2 3.2 0 0 1-1.384-1.16c-.31-.481-.542-1.14-.542-2.028V19.724zM73.517 31.915a4.63 4.63 0 0 1 1.59-3.491l-2.61-2.909a8.52 8.52 0 0 0-2.885 6.395 8.52 8.52 0 0 0 2.877 6.404l2.606-2.911a4.63 4.63 0 0 1-1.578-3.488M78.152 36.556a4.7 4.7 0 0 1-1.47-.24l-1.246 3.705a8.6 8.6 0 0 0 2.712.443c4.131.004 7.58-2.927 8.38-6.824l-3.83-.782a4.64 4.64 0 0 1-4.546 3.698M78.164 23.373a8.5 8.5 0 0 0-2.709.436l1.235 3.708a4.638 4.638 0 0 1 6.013 3.48l3.83-.778c-.788-3.902-4.235-6.844-8.369-6.847"/></svg>