<svg xmlns="http://www.w3.org/2000/svg" width="100" height="60" fill="none"><path fill="#393939" d="M0 0h100v60H0z"/><path fill="#fff" d="m16.54 20 .01.03h.02l.5.8v.01l.18.31 5.37 8.9.04.08v.02c.05.06 0 .07-.03.08l-.02.01-1.06.63-.47.28-4.4 2.6-.08.04-.04.02a.1.1 0 0 1-.1-.04l-.03-.02-6.03-3.55v-.03l.03-.02q.16-.3.33-.57l.15-.24z"/><path fill="#fff" d="m16.54 34.99 6.1-3.6-6.04 8.56c-.02.04-.04.1-.08 0l-6.07-8.54zM47.16 30.37v3.08a.25.25 0 0 1-.33.22.2.2 0 0 1-.14-.22v-3.08c0-1.03-.6-2.06-1.75-2.06-1.48 0-2.12 1.29-2.03 2.62l.01.12v2.39a.3.3 0 0 1-.21.25.24.24 0 0 1-.25-.14.24.24 0 0 1-.02-.1v-10.1a.24.24 0 0 1 .24-.23.25.25 0 0 1 .24.24v5.7a2.3 2.3 0 0 1 2.02-1.24c1.42 0 2.22 1.24 2.22 2.55M39.46 28a.3.3 0 0 0-.17-.08H38v-1.86a.24.24 0 0 0-.26-.24.3.3 0 0 0-.22.25v1.85h-1.24a.24.24 0 0 0-.17.41.2.2 0 0 0 .17.07h1.24v5.07a.25.25 0 0 0 .24.24.24.24 0 0 0 .24-.24V28.4h1.29a.23.23 0 0 0 .224-.147.2.2 0 0 0 .016-.093.3.3 0 0 0-.07-.17M33.36 30.97a.3.3 0 0 0 .08-.18c0-1.55-1.17-2.98-2.8-2.98s-2.78 1.45-2.78 3c0 1.54 1.17 3 2.78 3 .95 0 1.91-.42 2.4-1.26a.2.2 0 0 0 .04-.13.23.23 0 0 0-.24-.24.3.3 0 0 0-.21.13 2.2 2.2 0 0 1-1.99 1.01c-1.26 0-2.15-1.09-2.27-2.28h4.8q.11 0 .2-.07m-2.72-2.69c1.27 0 2.18 1.1 2.28 2.28h-4.55c.12-1.19 1.01-2.28 2.27-2.28M55.73 30.97a.3.3 0 0 0 .08-.18c0-1.55-1.18-2.98-2.8-2.98s-2.78 1.45-2.78 3c0 1.54 1.17 3 2.78 3 .95 0 1.91-.42 2.4-1.26a.2.2 0 0 0 .04-.13.23.23 0 0 0-.24-.24.3.3 0 0 0-.21.13 2.2 2.2 0 0 1-2 1.01c-1.26 0-2.15-1.09-2.27-2.28h4.8q.11 0 .2-.07m-2.72-2.69c1.26 0 2.17 1.1 2.28 2.28h-4.56c.12-1.19 1.01-2.28 2.28-2.28M61.72 28.15a.24.24 0 0 1-.22.26c-1.42.2-2.05 1.36-2.05 2.7v2.3a.26.26 0 0 1-.22.26.24.24 0 0 1-.25-.14.24.24 0 0 1-.02-.1v-5.25a.3.3 0 0 1 .22-.25.24.24 0 0 1 .27.24v1.07c.4-.68 1.19-1.32 2.01-1.32.13 0 .26.09.26.23M69.56 30.97a.3.3 0 0 0 .08-.18c-.01-1.55-1.17-2.98-2.8-2.98s-2.78 1.45-2.78 3c0 1.54 1.16 3 2.78 3 .94 0 1.91-.42 2.4-1.26a.2.2 0 0 0 .03-.13.23.23 0 0 0-.24-.24.3.3 0 0 0-.2.13 2.2 2.2 0 0 1-1.99 1.01c-1.26 0-2.15-1.09-2.28-2.28h4.81a.28.28 0 0 0 .19-.07m-2.72-2.69c1.26 0 2.18 1.1 2.28 2.28h-4.56c.13-1.19 1.02-2.28 2.28-2.28M77.42 28.2v5.27a.25.25 0 0 1-.34.23.2.2 0 0 1-.14-.23v-1c-.4.8-1.1 1.37-2 1.37-1.44 0-2.23-1.24-2.23-2.56V28.2a.24.24 0 0 1 .24-.24.25.25 0 0 1 .24.24v3.08c0 1.04.59 2.07 1.74 2.07 1.62 0 2-1.52 2-3.2V28.2a.24.24 0 0 1 .33-.22.3.3 0 0 1 .16.23M89.6 33.44v-3.09c0-1.3-.8-2.53-2.22-2.53-1 0-1.77.63-2.17 1.53a2.15 2.15 0 0 0-2.05-1.53c-.87 0-1.6.49-2.02 1.23v-.88a.24.24 0 0 0-.27-.24.3.3 0 0 0-.22.25v5.27a.24.24 0 0 0 .27.23.3.3 0 0 0 .22-.25V31c-.05-1.54.55-2.7 2.02-2.7 1.15 0 1.74 1.03 1.74 2.06v3.09a.23.23 0 0 0 .24.24.25.25 0 0 0 .24-.24v-2.38c0-1.2.55-2.76 2-2.76 1.16 0 1.74 1.02 1.74 2.05v3.09a.23.23 0 0 0 .24.24.25.25 0 0 0 .24-.24"/></svg>