<svg width="100" height="60" viewBox="0 0 100 60" fill="none" xmlns="http://www.w3.org/2000/svg">
<rect width="100" height="60" fill="#0D1321"/>
<path d="M59.9901 40.84C59.9901 42.37 58.7301 43.54 57.2001 43.54H7.43C5.99 43.54 5 42.37 5 40.84V18.61C5 17.17 5.99 16 7.43 16H57.2001C58.7301 16 59.9901 17.17 59.9901 18.61V40.84Z" fill="#D02027"/>
<path fill-rule="evenodd" clip-rule="evenodd" d="M72.6799 30.31C72.6799 33.1 71.1499 35.71 68.1799 35.71C66.8599 35.71 65.8399 35.23 65.1199 34.27V38.95H61.6099V24.73H64.9399V25.99C65.6599 24.97 66.6499 24.46 67.9099 24.46C71.2399 24.46 72.6799 27.34 72.6799 30.31ZM69.1699 29.95C69.1699 28.6 68.6299 27.16 67.0999 27.16C66.1999 27.16 64.9399 27.79 64.9399 29.95C64.9399 31.84 65.4799 33.01 67.0999 33.01C68.6299 33.01 69.1699 31.39 69.1699 29.95Z" fill="white"/>
<path fill-rule="evenodd" clip-rule="evenodd" d="M83.5701 32.65C83.5701 33.55 83.5701 34.54 83.9301 35.44H80.4201C80.3301 35.08 80.3301 34.72 80.2401 34.36C79.3401 35.35 77.9901 35.71 76.7301 35.71C74.6601 35.71 73.1301 34.72 73.1301 32.47C73.1301 29.05 76.9101 29.32 79.3401 28.78C79.8801 28.69 80.2401 28.51 80.2401 27.79C80.2401 26.98 79.2501 26.71 78.5301 26.71C77.5101 26.71 76.9401 27.16 76.8201 28.06H73.5801C73.5801 26.62 74.2101 25.72 75.2001 25.18C76.1901 24.64 77.3601 24.46 78.6201 24.46C81.1401 24.46 83.5701 25 83.5701 28.06V32.65ZM80.1501 30.4C79.7001 30.67 78.8001 30.67 77.9901 30.94C77.2701 31.12 76.5501 31.48 76.5501 32.29C76.5501 33.19 77.2701 33.46 78.0801 33.46C79.7001 33.46 80.2401 32.56 80.1501 30.4Z" fill="white"/>
<path d="M91.3999 24.73L89.4199 31.66L87.3499 24.73H83.6599L86.4499 32.2C86.6299 32.74 87.3499 34.36 87.3499 34.99C87.3499 35.71 86.7199 36.16 85.9099 36.16H84.7399V38.95H86.3599C88.6999 38.95 89.9599 38.68 90.7699 36.34L94.9999 24.73H91.3999Z" fill="white"/>
<path fill-rule="evenodd" clip-rule="evenodd" d="M51.71 33.0999H42.8C42.92 33.8199 43.16 34.3899 43.52 34.8099C43.94 35.2299 44.51 35.4399 45.23 35.4399C45.59 35.4399 45.95 35.3799 46.31 35.2599C46.67 35.0799 46.97 34.8399 47.21 34.5399H51.44C51.26 35.1999 50.96 35.7699 50.54 36.2499C50.12 36.7899 49.61 37.2099 49.01 37.5099C48.47 37.8099 47.87 38.0499 47.21 38.2299C46.55 38.3499 45.89 38.4099 45.23 38.4099C44.27 38.4099 43.37 38.2599 42.53 37.9599C41.69 37.7199 40.97 37.3299 40.37 36.7899C39.89 36.3699 39.5 35.8899 39.2 35.3499V38.1399H34.61V31.7499C34.61 31.3899 34.58 31.0599 34.52 30.7599C34.52 30.4599 34.46 30.2199 34.34 30.0399C34.22 29.7999 34.07 29.6199 33.89 29.4999C33.65 29.3799 33.38 29.3199 33.08 29.3199C32.84 29.3199 32.63 29.3499 32.45 29.4099C32.21 29.5299 32 29.6499 31.82 29.7699C31.64 29.9499 31.49 30.1899 31.37 30.4899C31.25 30.7899 31.19 31.1799 31.19 31.6599V38.1399H26.6V35.3499C26.36 35.7699 26.09 36.1599 25.79 36.5199C25.25 37.0599 24.56 37.5099 23.72 37.8699C22.88 38.2299 21.89 38.4099 20.75 38.4099C19.61 38.4099 18.62 38.2299 17.78 37.8699C16.94 37.5099 16.25 37.0599 15.71 36.5199C15.17 35.9199 14.78 35.2299 14.54 34.4499C14.24 33.6699 14.09 32.8599 14.09 32.0199C14.09 31.1799 14.24 30.3699 14.54 29.5899C14.6 29.3499 14.72 29.0799 14.9 28.7799H13.73V38.1399H9.14V28.7799H7.25V25.9899H9.14C9.08 25.3899 9.11 24.7899 9.23 24.1899C9.35 23.5299 9.62 22.9899 10.04 22.5699C10.58 22.0299 11.15 21.6999 11.75 21.5799C12.41 21.4599 13.19 21.3999 14.09 21.3999C14.45 21.3999 14.81 21.3999 15.17 21.3999C15.47 21.4599 15.8 21.4899 16.16 21.4899V24.6399C15.98 24.6399 15.8 24.6099 15.62 24.5499C15.44 24.5499 15.26 24.5499 15.08 24.5499C14.54 24.5499 14.15 24.6399 13.91 24.8199C13.73 24.9999 13.64 25.3899 13.64 25.9899H16.07V27.2499C16.55 26.8299 17.12 26.4699 17.78 26.1699C18.62 25.8099 19.61 25.6299 20.75 25.6299C21.89 25.6299 22.88 25.8099 23.72 26.1699C24.56 26.5299 25.25 27.0099 25.79 27.6099C26.09 27.9699 26.36 28.3299 26.6 28.6899V25.9899H31.01V27.5199H31.1C31.52 26.9199 32.06 26.4699 32.72 26.1699C33.32 25.8099 34.1 25.6299 35.06 25.6299C35.6 25.6299 36.11 25.7199 36.59 25.8999C37.13 26.0799 37.58 26.3499 37.94 26.7099C38.36 27.0099 38.66 27.4299 38.84 27.9699C39.02 28.2699 39.14 28.5999 39.2 28.9599C39.44 28.4199 39.77 27.9399 40.19 27.5199C40.73 26.9799 41.39 26.5299 42.17 26.1699C42.95 25.8099 43.85 25.6299 44.87 25.6299C46.07 25.6299 47.09 25.8099 47.93 26.1699C48.83 26.4699 49.55 26.9499 50.09 27.6099C50.63 28.2099 51.05 28.9899 51.35 29.9499C51.59 30.8499 51.71 31.8999 51.71 33.0999ZM22.73 32.0199C22.73 31.7199 22.7 31.3899 22.64 31.0299C22.64 30.6699 22.55 30.3399 22.37 30.0399C22.25 29.7399 22.07 29.4999 21.83 29.3199C21.53 29.1399 21.17 29.0499 20.75 29.0499C20.33 29.0499 19.97 29.1399 19.67 29.3199C19.43 29.4999 19.22 29.7399 19.04 30.0399C18.92 30.3399 18.83 30.6699 18.77 31.0299C18.77 31.3899 18.77 31.7199 18.77 32.0199C18.77 32.3799 18.77 32.7099 18.77 33.0099C18.83 33.3699 18.92 33.6999 19.04 33.9999C19.22 34.2999 19.43 34.5399 19.67 34.7199C19.97 34.9599 20.33 35.0799 20.75 35.0799C21.17 35.0799 21.53 34.9599 21.83 34.7199C22.07 34.5399 22.25 34.2999 22.37 33.9999C22.55 33.6999 22.64 33.3699 22.64 33.0099C22.7 32.7099 22.73 32.3799 22.73 32.0199ZM47.3 30.6699C47.3 30.1299 47.12 29.6499 46.76 29.2299C46.34 28.8099 45.83 28.5999 45.23 28.5999C44.57 28.5999 44.03 28.7799 43.61 29.1399C43.25 29.4999 43.01 30.0099 42.89 30.6699H47.3Z" fill="white"/>
<path d="M49.55 21.04C49.49 21.58 49.46 22.12 49.46 22.66C52.34 23.14 54.02 24.82 54.5 27.7C55.04 27.7 55.58 27.67 56.12 27.61C55.94 23.65 52.34 21.04 49.55 21.04Z" fill="white"/>
<path d="M49.7301 24.1899C49.7301 24.7299 49.7001 25.2699 49.6401 25.8099C50.6301 25.9899 51.1701 26.6199 51.3501 27.5199C51.8901 27.4599 52.4301 27.4299 52.9701 27.4299C52.9701 25.8099 51.2601 24.0999 49.7301 24.1899Z" fill="white"/>
</svg>
