<svg xmlns="http://www.w3.org/2000/svg" width="100" height="60" fill="none"><path fill="#000" d="M0 0h100v60H0z"/><path fill="#fff" d="M47.626 40.873h-2.62V20.487h6.945c1.76 0 3.261.587 4.49 1.76q1.883 1.761 1.883 4.299c0 1.733-.628 3.165-1.883 4.325-1.215 1.16-2.716 1.733-4.49 1.733h-4.325zm0-17.875v7.11h4.38c1.037 0 1.91-.356 2.593-1.052.695-.695 1.05-1.541 1.05-2.497 0-.941-.355-1.774-1.05-2.47-.683-.723-1.542-1.077-2.593-1.077h-4.38zM65.173 26.464q2.907 0 4.585 1.555 1.678 1.557 1.678 4.258v8.596H68.94v-1.937h-.109c-1.078 1.596-2.524 2.388-4.325 2.388-1.542 0-2.825-.45-3.862-1.365-1.037-.914-1.556-2.047-1.556-3.411q0-2.17 1.638-3.439c1.091-.86 2.551-1.283 4.366-1.283 1.556 0 2.839.287 3.835.86v-.6c0-.914-.355-1.679-1.078-2.32s-1.57-.955-2.538-.955c-1.46 0-2.62.614-3.466 1.856l-2.306-1.447c1.269-1.842 3.152-2.756 5.635-2.756M61.79 36.589c0 .682.287 1.255.874 1.705.573.45 1.255.683 2.033.683q1.657 0 2.947-1.229c.86-.818 1.296-1.773 1.296-2.879-.818-.641-1.951-.968-3.411-.968-1.064 0-1.951.259-2.66.764-.724.532-1.079 1.173-1.079 1.924M85.682 26.914 76.949 47h-2.702l3.248-7.027-5.758-13.059h2.852l4.148 10.016h.054l4.04-10.016z"/><path fill="#4285F4" d="M37.205 30.953c0-.854-.076-1.671-.218-2.457H26.005v4.503h6.325a5.42 5.42 0 0 1-2.347 3.628v2.921h3.764c2.199-2.034 3.458-5.042 3.458-8.595"/><path fill="#34A853" d="M29.984 36.627c-1.048.707-2.398 1.12-3.976 1.12-3.05 0-5.637-2.055-6.564-4.825h-3.883v3.013a11.69 11.69 0 0 0 10.447 6.438c3.157 0 5.81-1.038 7.74-2.826z"/><path fill="#FABB05" d="M19.079 30.687c0-.778.13-1.53.365-2.236v-3.013h-3.883a11.6 11.6 0 0 0-1.243 5.25c0 1.887.449 3.67 1.243 5.248l3.883-3.013a7 7 0 0 1-.365-2.236"/><path fill="#E94235" d="M26.008 23.626c1.723 0 3.266.593 4.485 1.753l3.336-3.333C31.803 20.159 29.161 19 26.008 19c-4.567 0-8.523 2.62-10.447 6.438l3.883 3.013c.927-2.77 3.514-4.825 6.564-4.825"/></svg>