<svg xmlns="http://www.w3.org/2000/svg" width="100" height="60"><g fill="none" fill-rule="evenodd"><rect width="100" height="60" fill="#FFF" rx="4"/><g fill="#1476C6"><path d="M52.603 50.758a4 4 0 0 1-.297.169 2.1 2.1 0 0 1-.854.168c-.278 0-.724-.018-1.17-.356-.63-.45-.909-1.219-.909-1.894 0-1.387 1.114-2.062 2.024-2.062.315 0 .65.075.91.243.445.3.556.675.612.882l-2.08.844-.686.056c.223 1.144.984 1.8 1.819 1.8.445 0 .78-.169 1.077-.319zm-.835-2.663c.167-.056.26-.112.26-.244 0-.356-.39-.768-.873-.768-.352 0-1.02.28-1.02 1.237 0 .15.018.319.018.469z"/><path d="M49.17 50.945h-1.56c.204-.262.241-.3.241-.468v-1.463c0-.694.019-1.688.037-2.625 0-.45.038-1.032.056-1.444h-.687l.669-.319h1.262c-.279.169-.372.206-.39.525-.074.694-.074 1.782-.074 3.057v2.062c0 .357.055.413.352.432.149.018.297.037.446.037l-.353.206m-2.914-3.731c.204.169.631.525.631 1.219 0 .656-.371.975-.742 1.275-.112.112-.242.244-.242.431 0 .188.13.3.223.375l.316.244c.39.337.742.637.742 1.256 0 .844-.798 1.688-2.339 1.688-1.28 0-1.912-.619-1.912-1.275 0-.319.168-.788.687-1.088.557-.337 1.3-.394 1.69-.412-.13-.17-.26-.338-.26-.6 0-.15.037-.244.092-.357-.093 0-.204.02-.278.02-.947 0-1.466-.713-1.466-1.407 0-.413.185-.863.575-1.2.501-.413 1.114-.488 1.578-.488h1.819l-.576.319zm-.631 3.975h-.204c-.075 0-.557.019-.928.15-.205.075-.761.281-.761.919s.612 1.088 1.559 1.088c.854 0 1.3-.413 1.3-.975 0-.45-.298-.694-.966-1.182m.26-1.687c.204-.207.222-.488.222-.657 0-.637-.39-1.65-1.113-1.65-.223 0-.483.113-.613.3a1.06 1.06 0 0 0-.204.656c0 .6.353 1.594 1.114 1.594.204 0 .445-.112.594-.243m-5.104 1.575c-1.411 0-2.154-1.107-2.154-2.12 0-1.18.947-2.174 2.302-2.174 1.3 0 2.116 1.03 2.116 2.119-.019 1.05-.835 2.175-2.265 2.175m1.095-.732c.205-.28.26-.637.26-.993 0-.788-.37-2.288-1.466-2.288a1.24 1.24 0 0 0-.798.3c-.353.319-.409.712-.409 1.087 0 .882.427 2.344 1.504 2.344.353 0 .705-.168.91-.45m-5.81.732c-1.411 0-2.153-1.107-2.153-2.12 0-1.18.946-2.174 2.301-2.174 1.3 0 2.116 1.03 2.116 2.119-.018 1.05-.835 2.175-2.264 2.175m1.095-.732c.204-.28.26-.637.26-.993 0-.788-.372-2.288-1.467-2.288a1.2 1.2 0 0 0-.798.3c-.353.319-.408.712-.408 1.087 0 .882.427 2.344 1.503 2.344.353 0 .706-.168.91-.45m-3.842.413-1.188.281c-.483.075-.91.15-1.374.15-2.302 0-3.174-1.706-3.174-3.038 0-1.63 1.244-3.131 3.36-3.131.445 0 .872.075 1.262.169.63.168.91.393 1.095.525l-.687.656-.297.075.204-.337c-.278-.282-.798-.788-1.782-.788-1.317 0-2.301 1.013-2.301 2.475 0 1.575 1.132 3.057 2.933 3.057.538 0 .798-.113 1.058-.207v-1.35l-1.263.075.669-.356h1.763l-.223.206c-.055.057-.074.075-.074.132 0 .075-.019.318-.019.393v1.013m23.128.187h-.63l-.929-4.05h.501l.761 3.638.78-3.638h.63l.818 3.638.742-3.638h.483l-.91 4.05h-.63l-.8-3.6zm6.088-2.812c0-.657-.297-.92-.946-.92-.52 0-.817.282-.891.75l-.464-.055c.093-.657.612-1.107 1.355-1.107.89 0 1.392.394 1.392 1.275v2.063c0 .356.018.6.074.788h-.464a1.7 1.7 0 0 1-.056-.432c-.185.282-.63.525-1.058.525-.742 0-1.317-.45-1.317-1.35 0-.825.593-1.294 1.429-1.294.408 0 .742.075.946.17zm0 .881c-.222-.112-.538-.206-.965-.206-.557 0-.965.281-.965.881 0 .619.371.938.891.938.464 0 .872-.338 1.04-.694zm1.355 1.931h.5V45.17h-.5zm1.429 0h.5V45.17h-.5zm2.71-.337c.483 0 .854-.3.929-1.05l.464.075c-.112.975-.668 1.425-1.392 1.425-.947 0-1.522-.713-1.522-2.156 0-1.294.482-2.082 1.466-2.082 1.04 0 1.448.863 1.448 2.044v.15h-2.45c.018 1.106.427 1.594 1.058 1.594m.91-2.007c-.02-.768-.316-1.35-.966-1.35-.631 0-.965.525-1.002 1.35zm2.617 2.326a1.4 1.4 0 0 1-.482.075c-.594 0-.78-.3-.78-.882v-2.812h-.52v-.413h.52v-1.313l.464-.187v1.5h.798v.413h-.798v2.737c0 .394.074.488.39.488a.9.9 0 0 0 .408-.094z"/></g><path fill="#1476C6" d="M44.25 21.58c-1.967-2.737-4.696-5.137-7.796-6.806a3.14 3.14 0 0 0-1.54-.394 3.24 3.24 0 0 0-2.877 1.744c-.854 1.594-.242 3.6 1.336 4.444 4.77 2.588 7.852 7.5 8.223 13.201v-.019a3.5 3.5 0 0 1 .334-1.837c.037-.075.093-.17.149-.263a16.04 16.04 0 0 0 2.283-8.25c0-.62-.056-1.22-.112-1.82"/><path fill="#47AE33" d="M63.146 15.393a35.8 35.8 0 0 0-2.543-7.389c-.594-1.256-1.875-2.08-3.248-2.08a3.4 3.4 0 0 0-1.54.355 3.644 3.644 0 0 0-1.708 4.838A28.8 28.8 0 0 1 56.835 23.4c0 4.276-.91 8.382-2.691 12.208-.019.056-.334.731-.334 1.519 0 .225.018.543.092.843.242 1.032.891 1.97 1.968 2.476a3.6 3.6 0 0 0 1.54.356 3.6 3.6 0 0 0 3.156-1.894c.724-1.369 1.448-3.15 2.079-5.457.204-.694.371-1.35.52-2.044.575-2.606.89-5.269.89-8.007a38.4 38.4 0 0 0-.909-8.006"/><path fill="#ED114C" d="M47.944 11.586c-.056-.112-.13-.206-.204-.3a3.1 3.1 0 0 0-.854-.788 3.4 3.4 0 0 0-1.856-.562c-.557 0-.835.075-1.225.225-.408.169-.835.394-1.225.806s-.613.825-.78 1.275c-.334.882-.278 2.025.279 2.963 1.188 1.931 1.893 4.144 2.153 6.413.074.6.111 1.219.111 1.819 0 2.925-.78 5.775-2.283 8.25-.056.094-.093.17-.148.263-.297.581-.39 1.238-.335 1.857a3.47 3.47 0 0 0 1.634 2.644c.241.15.52.262.78.356a3.395 3.395 0 0 0 3.917-1.519c1.892-3.132 2.987-6.694 3.229-10.35.037-.488.055-.995.055-1.482a22.76 22.76 0 0 0-3.248-11.87"/><path fill="#FBBF16" d="M54.125 35.607c1.8-3.826 2.71-7.932 2.71-12.208 0-1.462-.093-2.531-.167-3.225-2.357-3.806-5.773-7.22-9.782-9.694 0 0 .093.056.093.075.278.206.501.412.76.731.057.075.15.188.205.3a22.93 22.93 0 0 1 3.248 11.813c0 .507-.018.994-.055 1.482 1.707 3.281 2.635 7.013 2.635 10.932v1.181c.019-.412.112-.844.26-1.219a.4.4 0 0 0 .093-.168"/></g></svg>