<svg xmlns="http://www.w3.org/2000/svg" width="100" height="60" fill="none"><path fill="#FF7A59" d="M0 0h100v60H0z"/><path fill="#fff" d="M17.888 21.851v6.561H11.86v-6.561H9v15.663h2.86v-6.349h6.027v6.349h2.861V21.85zm12.017 10.6a2.367 2.367 0 0 1-4.734 0v-6.709h-2.714v6.71a5.076 5.076 0 0 0 10.151 0v-6.71h-2.703zm20.106-6.018c0-1.375.91-1.811 1.906-1.811.804 0 1.865.611 2.56 1.353l1.776-2.095c-.887-1.2-2.687-2.029-4.16-2.029-2.944 0-5.073 1.724-5.073 4.582 0 5.304 6.481 3.62 6.481 6.589 0 .915-.888 1.723-1.906 1.723-1.605 0-2.125-.784-2.862-1.614l-1.972 2.05c1.261 1.55 2.818 2.336 4.681 2.336 2.797 0 5.047-1.745 5.047-4.474 0-5.886-6.482-4.057-6.482-6.61m40.103 8.578c-1.603 0-2.06-.693-2.06-1.755v-4.704h2.493V26.17h-2.492v-3.144l-2.752 1.235v9.58c0 2.45 1.69 3.685 4.009 3.685a5.7 5.7 0 0 0 1.085-.086l.671-2.472c-.302.021-.65.042-.954.042M40.234 25.82c-1.344 0-2.282.39-3.19 1.28v-5.155h-2.717V31.5c0 3.577 2.586 6.028 5.492 6.028 3.224 0 6.06-2.494 6.06-5.852 0-3.317-2.61-5.853-5.645-5.853m-.017 8.97a3.084 3.084 0 1 1 0-6.168 3.084 3.084 0 0 1 0 6.168m29.53-3.26c0-3.365-2.83-5.853-6.06-5.853-2.906 0-5.492 2.45-5.492 6.028v9.561h2.717v-5.162c.906.888 1.846 1.28 3.188 1.28 3.035 0 5.646-2.537 5.646-5.854m-2.574-.034a3.084 3.084 0 1 1-6.168 0 3.084 3.084 0 0 1 6.168 0"/><path fill="#fff" d="M78.527 25.549v-2.731a2.1 2.1 0 0 0 1.213-1.895v-.063a2.103 2.103 0 0 0-2.103-2.103h-.063a2.103 2.103 0 0 0-2.102 2.103v.063a2.1 2.1 0 0 0 1.212 1.895v2.73a5.95 5.95 0 0 0-2.831 1.247l-7.49-5.833q.08-.29.085-.59a2.37 2.37 0 1 0-2.372 2.365c.41-.002.812-.112 1.167-.318l7.374 5.738a5.97 5.97 0 0 0 .091 6.728l-2.242 2.244a2 2 0 0 0-.561-.091 1.946 1.946 0 1 0 1.947 1.947 2 2 0 0 0-.091-.56l2.219-2.22a5.984 5.984 0 1 0 4.547-10.656m-.92 8.98a3.068 3.068 0 0 1-2.225-5.269 3.07 3.07 0 0 1 2.225-.868 3.07 3.07 0 0 1 .004 6.136"/></svg>