<svg xmlns="http://www.w3.org/2000/svg" width="100" height="60" fill="none"><path fill="#fff" d="M0 0h100v60H0z"/><g clip-path="url(#a)"><path fill="#000" d="M50.811 51.219H28.79a3.653 3.653 0 0 1-3.648-3.649v-35.9a3.65 3.65 0 0 1 3.648-3.648h22.022c20.984 0 24.116 13.502 24.116 21.549 0 13.96-8.565 21.647-24.116 21.647M28.79 9.419a2.253 2.253 0 0 0-2.25 2.251v35.9a2.253 2.253 0 0 0 2.25 2.25h22.022c14.652 0 22.719-7.186 22.719-20.25 0-17.533-14.233-20.15-22.719-20.15z"/><path fill="#C06" d="M38.75 15.15v31.303h13.63c12.379 0 17.747-6.997 17.747-16.853 0-9.452-5.368-16.8-17.747-16.8H41.11a2.36 2.36 0 0 0-2.362 2.35"/><path fill="#fff" d="M43.929 25.511c.44-.003.877.072 1.291.22.389.146.74.374 1.031.67.304.316.537.692.684 1.105.174.501.258 1.029.248 1.56.004.49-.063.978-.2 1.449-.124.419-.33.808-.608 1.145a2.86 2.86 0 0 1-1.016.758c-.452.195-.94.29-1.433.278h-3.028v-7.187zm-.112 5.847q.341 0 .664-.11c.217-.076.413-.201.573-.366.18-.192.318-.42.401-.67.11-.323.16-.664.152-1.006a4.3 4.3 0 0 0-.104-.99 2 2 0 0 0-.347-.744 1.54 1.54 0 0 0-.64-.476 2.5 2.5 0 0 0-.979-.166h-1.06v4.528zM53.686 25.511v1.329h-3.717v1.544h3.41v1.226H49.95v1.748h3.802v1.325h-5.38v-7.187zM59.014 25.511l2.684 7.187h-1.64l-.543-1.598H56.83l-.563 1.598h-1.59l2.725-7.187zm.09 4.404-.905-2.634h-.02l-.934 2.634zM64.201 25.524v5.85h3.43v1.33h-5.008v-7.188z"/><path fill="#000" d="M32.59 34.535a2.614 2.614 0 0 1 2.615 2.614v9.304a5.227 5.227 0 0 1-5.226-5.227v-4.08a2.615 2.615 0 0 1 2.612-2.611M32.59 32.552a3.45 3.45 0 1 0 0-6.9 3.45 3.45 0 0 0 0 6.9"/></g><defs><clipPath id="a"><path fill="#fff" d="M25 8h50v43.309H25z"/></clipPath></defs></svg>