<svg width="100" height="60" viewBox="0 0 100 60" fill="none" xmlns="http://www.w3.org/2000/svg">
<rect width="100" height="60" fill="#ED1C24"/>
<path d="M83.2958 16.9499C83.3573 16.812 83.4538 16.6926 83.5757 16.6035C83.6977 16.5144 83.8408 16.4588 83.9909 16.4421C87.5305 15.6336 91.0702 14.8235 94.6098 14.0117C94.7001 13.991 94.7946 13.9979 94.8809 14.0314C95.0091 14.0857 95.0338 14.2385 94.9549 14.3815C94.7429 14.7808 94.5309 15.1801 94.3189 15.5745L90.4145 22.8805C90.3447 23.0531 90.2152 23.1949 90.0496 23.28C89.884 23.3651 89.6933 23.3878 89.5123 23.3439C89.3719 23.3066 89.242 23.2374 89.1327 23.1418C88.2059 22.2544 87.284 21.3621 86.3474 20.455C88.9848 18.4979 91.6207 16.544 94.2548 14.5934C94.2496 14.588 94.2462 14.5811 94.245 14.5737C91.3364 16.2647 88.4261 17.9539 85.5142 19.6416C84.829 18.9761 84.1437 18.3204 83.4733 17.6499C83.3935 17.5434 83.3304 17.4254 83.2859 17.2999C83.2732 17.2663 83.2633 17.2317 83.2563 17.1964C83.2711 17.1224 83.2859 17.0386 83.2958 16.9499Z" fill="white"/>
<path d="M85.8247 23.1565C85.7412 23.2039 85.6466 23.2283 85.5505 23.2273C85.4545 23.2264 85.3604 23.2 85.2778 23.151C85.1952 23.1019 85.127 23.0319 85.0802 22.948C85.0334 22.8641 85.0097 22.7694 85.0113 22.6733C84.9719 21.9092 84.9472 21.1451 84.9127 20.381C84.9078 20.3021 84.9078 20.2232 84.9028 20.1147C85.7163 20.8887 86.51 21.6479 87.3185 22.4219C87.2445 22.4613 87.1903 22.5008 87.1361 22.5254" fill="white"/>
<path d="M54.5746 42.1759V27.6279C54.5444 27.1616 54.6127 26.6941 54.7749 26.2559C54.9371 25.8176 55.1897 25.4184 55.5162 25.0841C56.2315 24.4572 57.1646 24.1367 58.1142 24.1918H62.3785C63.1609 24.1413 63.9392 24.3397 64.6019 24.7587C65.0316 25.0654 65.3792 25.4732 65.614 25.9461C65.8487 26.419 65.9633 26.9424 65.9477 27.4702V33.9825C65.9895 34.895 65.6849 35.7895 65.0949 36.4868C64.7795 36.8786 64.3811 37.1954 63.9284 37.4145C63.4757 37.6336 62.98 37.7495 62.4771 37.7538H56.8275V42.171H54.5746V42.1759ZM56.8472 34.16C56.8536 34.5175 56.9924 34.8601 57.2367 35.1213C57.4613 35.343 57.7556 35.4806 58.0698 35.5107H62.418C62.4716 35.5127 62.5252 35.5043 62.5757 35.4861C62.8482 35.4495 63.1017 35.3262 63.2988 35.1344C63.4959 34.9427 63.6261 34.6926 63.6701 34.4212C63.6896 34.3356 63.6979 34.2477 63.6948 34.16V27.4997C63.6929 27.2303 63.6067 26.9683 63.4483 26.7504C63.2378 26.5763 62.9805 26.4682 62.7088 26.4398H58.4396C57.3649 26.4398 56.8275 26.8983 56.8275 27.8152V33.9036C56.8193 33.9895 56.826 34.0763 56.8472 34.16Z" fill="white"/>
<path d="M67.0275 34.1108V32.4839C66.9759 31.4409 67.2573 30.4085 67.8311 29.5359C68.1338 29.1181 68.5367 28.783 69.0027 28.5616C69.4687 28.3402 69.983 28.2396 70.4981 28.2689H76.0984V27.352C76.0992 27.2332 76.0765 27.1155 76.0317 27.0055C75.9868 26.8955 75.9207 26.7955 75.8371 26.7111C75.7629 26.6254 75.6714 26.5565 75.5686 26.5089C75.4657 26.4613 75.3539 26.4361 75.2406 26.435H67.0226V24.187H75.0582C76.833 24.187 77.9093 25.0234 78.2873 26.6963C78.3157 26.9022 78.3322 27.1096 78.3366 27.3175V34.2932C78.34 34.9051 78.169 35.5053 77.8436 36.0236C77.1189 37.1772 76.1806 37.754 75.0286 37.754H70.508C69.7952 37.7404 69.1063 37.4946 68.5459 37.0539C67.9525 36.6446 67.4943 36.068 67.2296 35.3975C67.0889 34.9834 67.0205 34.5481 67.0275 34.1108ZM69.877 35.2989C70.2815 35.4633 70.718 35.5341 71.1538 35.5059H74.2251C75.4723 35.5059 76.0968 35.0573 76.0984 34.1601V31.9614C76.0984 31.0987 75.5693 30.6155 74.511 30.512H70.8925C69.8178 30.6303 69.2804 31.1134 69.2804 31.9614V34.1601C69.2564 34.3876 69.3003 34.6171 69.4064 34.8197C69.5126 35.0224 69.6763 35.1891 69.877 35.2989Z" fill="white"/>
<path d="M79.4358 42.1758V39.9278H87.2891C88.0335 39.8095 88.4032 39.3264 88.4032 38.4784V37.7538H82.729C82.2936 37.7596 81.8615 37.678 81.4584 37.5136C81.0552 37.3493 80.6892 37.1056 80.382 36.7971C80.0748 36.4885 79.8328 36.1214 79.6702 35.7175C79.5077 35.3136 79.428 34.8811 79.4358 34.4458V24.1868H81.6838V33.8247C81.6838 34.9437 82.2228 35.5041 83.3008 35.5057H86.8405C87.8807 35.5057 88.4016 35.0226 88.4032 34.0564V24.1819L90.6611 24.1868L90.6512 38.3453C90.7097 39.3439 90.3972 40.3288 89.7737 41.111C89.4296 41.472 89.0111 41.7539 88.5471 41.9369C88.0831 42.1199 87.5849 42.1998 87.0869 42.1709H79.4358V42.1758Z" fill="white"/>
<path fill-rule="evenodd" clip-rule="evenodd" d="M5 24.2065H12.9617V25.9271H11.6208C11.4131 25.9263 11.2135 26.0078 11.0656 26.1537C10.9178 26.2997 10.8338 26.4983 10.832 26.706V35.2198C10.8338 35.4276 10.9178 35.6261 11.0656 35.7721C11.2135 35.918 11.4131 35.9995 11.6208 35.9987H12.9617V37.7242H5V35.9987H6.53811C6.74531 35.9993 6.94424 35.9175 7.09121 35.7715C7.23818 35.6254 7.32117 35.427 7.32196 35.2198V26.706C7.3204 26.499 7.23716 26.3011 7.09035 26.1552C6.94355 26.0093 6.74507 25.9273 6.53811 25.9271H5V24.2065Z" fill="white"/>
<path fill-rule="evenodd" clip-rule="evenodd" d="M14.3125 24.2065H21.3523L23.1468 28.3525L24.9265 32.4986L26.7061 28.3525L28.4907 24.2065H35.22V25.9271H33.7164C33.5076 25.9272 33.3073 26.0095 33.1587 26.1562C33.0102 26.3029 32.9254 26.5022 32.9227 26.7109V35.2839C32.9233 35.3875 32.9444 35.4899 32.9846 35.5854C33.0248 35.6808 33.0835 35.7674 33.1572 35.8402C33.2309 35.913 33.3182 35.9706 33.4142 36.0096C33.5101 36.0486 33.6128 36.0684 33.7164 36.0678H35.22V37.7242H27.1745L27.1646 36.0431H28.2738C28.2738 36.0431 29.2598 36.1959 29.319 35.2543L29.3584 27.3321L24.8969 37.7143V37.7291H23.2898V37.7143L18.8282 27.3321L18.8677 35.2543C18.9268 36.1959 19.9128 36.0431 19.9128 36.0431H21.022L21.0122 37.7242H14.3125V36.0678H15.8112C16.0195 36.0678 16.2194 35.9853 16.3672 35.8385C16.515 35.6916 16.5986 35.4923 16.5999 35.2839V26.7109C16.5986 26.5026 16.515 26.3032 16.3672 26.1563C16.2194 26.0095 16.0195 25.9271 15.8112 25.9271H14.3125V24.2065Z" fill="white"/>
<path fill-rule="evenodd" clip-rule="evenodd" d="M51.2566 37.7243H36.5903V36.058H38.0742C38.2826 36.058 38.4824 35.9756 38.6302 35.8288C38.778 35.6819 38.8617 35.4825 38.863 35.2742V26.7012C38.8617 26.4929 38.778 26.2935 38.6302 26.1466C38.4824 25.9998 38.2826 25.9173 38.0742 25.9173H36.5903V24.1919H51.2566V29.4915H49.2896C49.2274 28.6134 49.0467 27.7477 48.7523 26.9181C48.3184 25.9173 46.3514 25.9913 46.3514 25.9913H42.4174L42.3928 29.8662C44.9711 29.9253 45.6612 30.0584 45.4838 27.5984L47.4311 27.5886L47.436 33.9826H45.4788C45.4788 33.9826 45.4788 33.6375 45.4443 32.548C45.4098 31.3698 43.5661 31.636 42.4076 31.6655V35.9447L46.6522 35.9594C48.3184 35.8461 48.7966 35.0178 49.0628 34.2093C49.2367 33.4632 49.3113 32.6974 49.2847 31.9318L51.2468 31.9367V37.7243H51.2566Z" fill="white"/>
</svg>
