<svg xmlns="http://www.w3.org/2000/svg" width="100" height="60" fill="none"><path fill="#fff" d="M0 0h100v60H0z"/><path fill="url(#a)" d="M63.498 34.286h3.846c.11 0 .367-.037.477-.037.732-.146 1.355-.806 1.355-1.721 0-.88-.623-1.539-1.356-1.722-.11-.037-.33-.037-.476-.037h-3.846z"/><path fill="url(#b)" d="M66.905 10a6.667 6.667 0 0 0-6.667 6.667v6.923h9.414c.22 0 .476 0 .66.036 2.124.11 3.699 1.21 3.699 3.114 0 1.502-1.062 2.784-3.04 3.04v.073c2.16.147 3.81 1.356 3.81 3.224 0 2.015-1.832 3.333-4.25 3.333h-10.33v13.553h9.78a6.667 6.667 0 0 0 6.667-6.666V10z"/><path fill="url(#c)" d="M68.7 27.18c0-.88-.623-1.466-1.356-1.576-.073 0-.256-.036-.366-.036h-3.48v3.223h3.48c.11 0 .33 0 .366-.036.733-.11 1.356-.696 1.356-1.575"/><path fill="url(#d)" d="M30.055 10a6.667 6.667 0 0 0-6.667 6.667v16.447c1.868.915 3.81 1.501 5.751 1.501 2.308 0 3.553-1.392 3.553-3.296v-7.766h5.715v7.73c0 3.003-1.869 5.457-8.206 5.457-3.846 0-6.85-.843-6.85-.843v14.03h9.78a6.667 6.667 0 0 0 6.667-6.667V10z"/><path fill="url(#e)" d="M48.48 10a6.667 6.667 0 0 0-6.667 6.667v8.718c1.685-1.429 4.615-2.345 9.34-2.125 2.528.11 5.239.806 5.239.806v2.82c-1.356-.695-2.967-1.318-5.055-1.465-3.59-.256-5.751 1.502-5.751 4.579 0 3.114 2.161 4.872 5.75 4.579 2.089-.147 3.7-.806 5.056-1.465v2.82s-2.674.696-5.238.806c-4.726.22-7.656-.696-9.341-2.125V50h9.78a6.667 6.667 0 0 0 6.667-6.667V10z"/><defs><linearGradient id="a" x1="50.74" x2="98.422" y1="30.031" y2="30.031" gradientUnits="userSpaceOnUse"><stop stop-color="#007940"/><stop offset=".229" stop-color="#00873F"/><stop offset=".743" stop-color="#40A737"/><stop offset="1" stop-color="#5CB531"/></linearGradient><linearGradient id="b" x1="60.231" x2="76.693" y1="29.966" y2="29.966" gradientUnits="userSpaceOnUse"><stop stop-color="#007940"/><stop offset=".229" stop-color="#00873F"/><stop offset=".743" stop-color="#40A737"/><stop offset="1" stop-color="#5CB531"/></linearGradient><linearGradient id="c" x1="60.232" x2="76.693" y1="27.175" y2="27.175" gradientUnits="userSpaceOnUse"><stop stop-color="#007940"/><stop offset=".229" stop-color="#00873F"/><stop offset=".743" stop-color="#40A737"/><stop offset="1" stop-color="#5CB531"/></linearGradient><linearGradient id="d" x1="23.38" x2="40.096" y1="29.966" y2="29.966" gradientUnits="userSpaceOnUse"><stop stop-color="#1F286F"/><stop offset=".475" stop-color="#004E94"/><stop offset=".826" stop-color="#0066B1"/><stop offset="1" stop-color="#006FBC"/></linearGradient><linearGradient id="e" x1="41.718" x2="57.953" y1="29.966" y2="29.966" gradientUnits="userSpaceOnUse"><stop stop-color="#6C2C2F"/><stop offset=".173" stop-color="#882730"/><stop offset=".573" stop-color="#BE1833"/><stop offset=".859" stop-color="#DC0436"/><stop offset="1" stop-color="#E60039"/></linearGradient></defs></svg>