<svg width="100" height="60" viewBox="0 0 100 60" fill="none" xmlns="http://www.w3.org/2000/svg">
<rect width="100" height="60" fill="#5D2E8E"/>
<path d="M45.8401 15.6084C45.4751 15.2129 45.0188 15 44.4408 15H12.9248C12.3469 15 11.8601 15.2129 11.5255 15.6084C11.1604 16.0039 11.0083 16.4906 11.0996 17.0686L13.3507 38.6978C13.4724 39.9755 14.5371 41.5573 15.6019 42.2266L26.7359 48.7975C27.253 49.1017 27.9831 49.2842 28.7132 49.2842C29.4737 49.2842 30.1734 49.1017 30.6906 48.7975L41.8246 42.2266C42.9197 41.6182 43.9236 39.9755 44.0757 38.6978L46.3269 17.0686C46.3269 16.5515 46.2052 16.0039 45.8401 15.6084ZM36.7139 39.58C35.8013 40.1884 34.5844 39.945 33.976 39.0628L28.2873 30.6971L24.8498 34.1347V37.9373C24.8498 39.0324 23.9676 39.9146 22.8724 39.9146C21.7773 39.9146 20.8951 39.0324 20.8951 37.9373V21.4492C20.8951 20.3541 21.7773 19.4719 22.8724 19.4719C23.9676 19.4719 24.8498 20.3541 24.8498 21.4492V28.5372L33.3372 20.0498C34.0977 19.2893 35.3754 19.2893 36.1359 20.0498C36.8964 20.8104 36.8964 22.088 36.1359 22.8486L31.1165 27.8376C31.1165 27.868 31.1469 27.868 31.1469 27.8984L37.231 36.8117C37.8395 37.7243 37.5961 38.9411 36.7139 39.58Z" fill="white"/>
<path fill-rule="evenodd" clip-rule="evenodd" d="M95 22.8487V36.6293C95 38.485 93.4789 40.006 91.6233 40.006H45.6575L45.7792 38.5458H91.6233C92.6576 38.5458 93.5398 37.6636 93.5398 36.6293V22.7878C93.5398 21.7535 92.6576 20.8713 91.6233 20.8713H47.6348L47.7565 19.4111H91.6233C93.4789 19.4111 95 20.9322 95 22.8487Z" fill="white"/>
<path fill-rule="evenodd" clip-rule="evenodd" d="M51.4678 25.9819C51.4678 25.7689 51.3461 25.6777 51.1636 25.6777H50.5552V24.4304H51.9545C52.6238 24.4304 52.928 24.6129 52.928 25.3126V30.2104H53.5973C53.871 30.2104 54.2057 30.1191 54.3882 29.9062L56.1526 27.4725H57.7953L55.7571 30.2408C55.3921 30.6667 55.1791 30.8188 55.1791 30.8188V30.8492C55.1791 30.8492 55.4529 30.9405 55.6659 31.4272L56.761 33.4654C56.8827 33.6783 57.0348 33.7696 57.4303 33.7696H57.8562V34.9864H56.7914C56.0918 34.9864 55.8788 34.8647 55.5442 34.2867L54.1752 31.7618C53.9927 31.488 53.6885 31.4576 53.4147 31.4576H52.8367V35.0168H51.3765L51.4678 25.9819Z" fill="white"/>
<path fill-rule="evenodd" clip-rule="evenodd" d="M59.3467 26.0124C59.3467 25.7995 59.225 25.7082 59.0425 25.7082H58.4341V24.4609H59.8334C60.5027 24.4609 60.8069 24.7347 60.8069 25.3736V28.3244C60.8069 28.6894 60.7765 28.9328 60.7765 28.9328H60.8069C61.1111 28.1723 62.0846 27.2596 63.5752 27.2596C65.3396 27.2596 66.1305 28.2331 66.1305 30.18V33.4351C66.1305 33.648 66.2522 33.7393 66.4347 33.7393H67.0432V34.9561H65.6438C64.9745 34.9561 64.6703 34.6823 64.6703 33.9826V30.5147C64.6703 29.4499 64.4574 28.6286 63.271 28.6286C62.115 28.6286 61.2024 29.4195 60.8982 30.4843C60.8069 30.7885 60.7765 31.1535 60.7765 31.4881V35.0169H59.3163L59.3467 26.0124Z" fill="white"/>
<path d="M70.9674 34.013C72.2147 34.013 73.0056 32.7354 73.0056 31.6402V31.3664H72.6406C71.5454 31.3664 69.5985 31.3968 69.5985 32.8266C69.5376 33.4655 70.0244 34.013 70.9674 34.013ZM72.6406 30.3321H72.9448V30.2409C72.9448 28.9328 72.458 28.446 71.2716 28.446C70.9066 28.446 70.0244 28.5373 70.0244 29.024V29.4499H68.6554V28.6894C68.6554 27.4421 70.5415 27.29 71.2412 27.29C73.6749 27.29 74.3137 28.5677 74.3137 30.2409V33.4655C74.3137 33.6784 74.4354 33.8001 74.6179 33.8001H75.2263V35.0169H73.8574C73.1881 35.0169 72.9448 34.7127 72.9448 34.1347C72.9448 33.8609 72.9752 33.7088 72.9752 33.7088H72.9448C72.9448 33.7088 72.3364 35.1994 70.5719 35.1994C69.2943 35.1994 68.0166 34.4085 68.0166 32.9179C68.0774 30.5146 71.3933 30.3321 72.6406 30.3321Z" fill="white"/>
<path fill-rule="evenodd" clip-rule="evenodd" d="M76.5042 25.769H75.835V24.5217H77.2343C77.9036 24.5217 78.2078 24.7955 78.2078 25.4952V33.4654C78.2078 33.6784 78.3295 33.7696 78.512 33.7696H79.1204V34.9865H77.721C77.0518 34.9865 76.7476 34.7127 76.7476 34.013V26.0732C76.778 26.0732 76.8084 25.769 76.5042 25.769Z" fill="white"/>
<path fill-rule="evenodd" clip-rule="evenodd" d="M80.763 28.6286H79.7896V27.4726H80.7934V25.3735H82.1928V27.4726H83.9876V28.6286H82.2232V32.0661C82.2232 33.5567 83.2575 33.8001 83.7747 33.8001C83.9876 33.8001 84.1397 33.8001 84.1397 33.8001V34.9865C84.1397 34.9865 83.9572 35.0169 83.653 35.0169C82.6795 35.0169 80.7934 34.7127 80.7934 32.1878V28.6286H80.763Z" fill="white"/>
<path fill-rule="evenodd" clip-rule="evenodd" d="M86.4823 24.4912H87.395C87.4862 24.4912 87.5775 24.5825 87.5775 24.6737V25.7993C87.5775 25.8906 87.4862 25.9818 87.395 25.9818H86.4823C86.3911 25.9818 86.2998 25.8906 86.2998 25.7993V24.6737C86.2998 24.5521 86.3606 24.4912 86.4823 24.4912Z" fill="white"/>
<path fill-rule="evenodd" clip-rule="evenodd" d="M86.2388 29.0239C86.2388 28.8109 86.1171 28.7197 85.9346 28.7197H85.3262V27.4724H86.7255C87.3948 27.4724 87.699 27.7462 87.699 28.4459V33.4653C87.699 33.6782 87.8207 33.7695 88.0032 33.7695H88.6116V34.9863H87.2123C86.543 34.9863 86.2388 34.7126 86.2388 34.0129V29.0239Z" fill="white"/>
<path fill-rule="evenodd" clip-rule="evenodd" d="M8.75788 20.6538L5.08432 21.4987L7.63665 32.3952L11.0745 31.6362L8.75788 20.6538Z" fill="white"/>
<path d="M9.99193 20.4629L5 20.9875L6.22106 32.6051L11.213 32.0805L9.99193 20.4629Z" fill="white"/>
</svg>
