<svg xmlns="http://www.w3.org/2000/svg" width="100" height="60" fill="none"><path fill="#fff" d="M0 0h100v60H0z"/><path fill="#ED0006" d="M56.587 30c0 9.941-7.967 18-17.794 18S21 39.941 21 30s7.966-18 17.793-18c9.828 0 17.794 8.059 17.794 18"/><path fill="#0099DF" d="M79.67 30c0 9.941-7.966 18-17.793 18s-17.794-8.059-17.794-18 7.967-18 17.794-18S79.67 20.059 79.67 30"/><path fill="#6C6BBD" d="M50.335 43.7A18.05 18.05 0 0 0 56.587 30a18.05 18.05 0 0 0-6.252-13.7A18.05 18.05 0 0 0 44.083 30a18.05 18.05 0 0 0 6.252 13.7"/></svg>