<svg xmlns="http://www.w3.org/2000/svg" width="100" height="60" fill="none"><path fill="#fff" d="M0 0h100v60H0z"/><path fill="#ED0006" d="M50.335 43.7A17.6 17.6 0 0 1 38.793 48C28.966 48 21 39.941 21 30s7.966-18 17.793-18c4.405 0 8.435 1.619 11.542 4.3A17.6 17.6 0 0 1 61.877 12c9.827 0 17.793 8.059 17.793 18s-7.966 18-17.793 18a17.6 17.6 0 0 1-11.542-4.3"/><path fill="#F9A000" d="M50.335 43.7A18.05 18.05 0 0 0 56.587 30a18.05 18.05 0 0 0-6.252-13.7A17.6 17.6 0 0 1 61.877 12c9.827 0 17.793 8.059 17.793 18s-7.966 18-17.793 18a17.6 17.6 0 0 1-11.542-4.3"/><path fill="#FF5E00" d="M50.335 43.7A18.05 18.05 0 0 0 56.587 30a18.05 18.05 0 0 0-6.252-13.7A18.05 18.05 0 0 0 44.084 30a18.05 18.05 0 0 0 6.251 13.7"/></svg>