<svg xmlns="http://www.w3.org/2000/svg" width="100" height="60" fill="none"><path fill="#00BCFF" d="M0 0h100v60H0z"/><path fill="#0A0080" d="M73.12 29.12C73.12 20.79 62.77 14 50 14c-12.768 0-23.118 6.79-23.118 15.12l-.003.886C26.879 38.843 35.926 46 49.998 46c14.159 0 23.123-7.155 23.123-15.993z"/><path fill="#00BCFF" d="M72.237 29.114c0 7.853-9.953 14.22-22.23 14.22s-22.231-6.367-22.231-14.22c0-7.855 9.953-14.221 22.23-14.221s22.23 6.366 22.23 14.22"/><path fill="#fff" d="M42.623 24.627c-.012.022-.233.253-.09.436.351.449 1.435.705 2.53.46.652-.146 1.488-.811 2.3-1.455.876-.698 1.748-1.395 2.623-1.674.927-.295 1.521-.167 1.914-.049.43.128.937.411 1.745 1.018 1.52 1.143 7.637 6.482 8.693 7.405.852-.385 4.634-2.013 9.775-3.146-.447-2.74-2.114-5.248-4.642-7.301-3.524 1.48-7.83 2.253-12.04.196-.022-.009-2.301-1.087-4.548-1.034-3.343.077-4.79 1.523-6.32 3.053z"/><path fill="#fff" d="M62.09 31.35c-.07-.064-7.191-6.295-8.803-7.506-.934-.7-1.453-.88-1.998-.948-.284-.038-.677.015-.95.09-.75.205-1.732.86-2.604 1.552-.901.718-1.752 1.394-2.54 1.571-1.009.227-2.24-.041-2.801-.42-.228-.154-.388-.33-.465-.51-.208-.481.174-.866.238-.93l1.965-2.126q.342-.343.693-.68c-.634.083-1.22.244-1.79.403-.712.2-1.396.39-2.09.39-.288 0-1.838-.254-2.132-.334-1.778-.487-3.34-.96-5.67-2.05-2.793 2.08-4.661 4.68-5.201 7.544.402.107 1.048.3 1.32.359 6.32 1.405 8.29 2.853 8.647 3.156a2.1 2.1 0 0 1 1.568-.702c.698.001 1.33.351 1.712.895.361-.286.861-.53 1.506-.53.293 0 .597.055.904.159a2.08 2.08 0 0 1 1.273 1.149c.24-.108.533-.187.88-.186.34 0 .694.076 1.05.231 1.166.5 1.347 1.645 1.242 2.507q.124-.013.25-.013a2.51 2.51 0 0 1 2.507 2.508c0 .427-.11.83-.3 1.182.375.212 1.334.69 2.176.583.672-.085.927-.315 1.018-.444.063-.088.13-.192.068-.266l-1.784-1.982s-.294-.278-.196-.385c.1-.11.282.048.41.155.908.758 2.016 1.902 2.016 1.902.018.013.093.157.502.232.353.062.978.026 1.41-.33.109-.09.218-.201.31-.317-.007.005-.014.014-.02.017.455-.584-.051-1.175-.051-1.175l-2.083-2.338s-.297-.276-.197-.386c.092-.097.283.05.414.157.659.552 1.59 1.486 2.484 2.36.173.129.959.614 1.997-.069.63-.414.757-.92.739-1.305-.043-.507-.44-.869-.44-.869l-2.844-2.86s-.3-.256-.194-.386c.088-.11.283.048.41.155.906.759 3.36 3.008 3.36 3.008.035.025.881.628 1.929-.04.374-.239.614-.599.635-1.02.035-.726-.48-1.158-.48-1.158"/><path fill="#fff" d="M48.299 34.975c-.442-.006-.924.256-.987.218-.035-.023.026-.2.068-.303s.623-1.849-.792-2.456c-1.084-.465-1.746.058-1.974.295-.06.063-.086.057-.094-.022-.02-.315-.162-1.166-1.097-1.452-1.336-.409-2.196.524-2.414.861a1.546 1.546 0 0 0-3.082.197 1.55 1.55 0 0 0 2.623 1.119q.015.009.007.052c-.065.382-.184 1.777 1.275 2.345.586.227 1.084.058 1.497-.231.122-.087.143-.051.124.065-.052.359.015 1.127 1.092 1.562.818.333 1.304-.008 1.621-.3.138-.126.176-.107.182.088a1.946 1.946 0 0 0 1.948 1.863 1.95 1.95 0 0 0 1.953-1.949 1.957 1.957 0 0 0-1.95-1.952"/><path fill="#0A0080" d="M48.294 38.732a1.8 1.8 0 0 1-1.809-1.727c-.001-.083-.01-.305-.196-.305-.078 0-.145.047-.222.116-.214.2-.487.402-.887.402q-.275 0-.585-.127c-1.033-.418-1.048-1.127-1.006-1.412.012-.077.016-.156-.036-.217l-.064-.056h-.064c-.052 0-.107.02-.18.073-.299.21-.585.31-.876.31q-.24 0-.49-.095c-1.358-.529-1.25-1.811-1.183-2.196q.014-.12-.06-.18l-.097-.08-.09.087a1.4 1.4 0 0 1-.974.395 1.413 1.413 0 0 1-1.411-1.411c0-.78.635-1.41 1.413-1.41.703 0 1.302.529 1.392 1.231l.048.38.208-.321c.023-.038.593-.9 1.642-.899q.3 0 .612.096c.836.255.978 1.012 1 1.329.014.183.145.192.171.192.072 0 .125-.045.163-.086.157-.164.501-.437 1.038-.437.246 0 .509.059.778.175 1.329.57.726 2.257.72 2.275-.115.28-.12.403-.012.474l.052.025h.04c.059 0 .133-.026.255-.067.181-.063.454-.157.71-.157 1 .012 1.813.825 1.813 1.814a1.815 1.815 0 0 1-1.813 1.81M62.365 30.6c-2.193-1.913-7.262-6.32-8.635-7.35-.784-.59-1.319-.902-1.788-1.041a3 3 0 0 0-.88-.137 3.7 3.7 0 0 0-1.115.187c-.887.281-1.77.984-2.627 1.663l-.044.035c-.796.633-1.618 1.288-2.242 1.427a3.8 3.8 0 0 1-.83.092c-.698 0-1.324-.201-1.56-.5-.039-.051-.014-.13.077-.246l.013-.016 1.93-2.079c1.51-1.511 2.937-2.937 6.224-3.013l.164-.002c2.045.001 4.089.917 4.318 1.022 1.917.936 3.898 1.41 5.887 1.412 2.074.001 4.214-.513 6.463-1.548q-.376-.317-.782-.618c-1.976.856-3.858 1.289-5.675 1.289-1.856-.003-3.709-.448-5.51-1.326-.095-.045-2.352-1.11-4.701-1.11l-.185.002c-2.76.064-4.314 1.045-5.36 1.903-1.016.025-1.895.27-2.674.488-.697.193-1.298.36-1.885.36-.242 0-.677-.022-.716-.023-.674-.02-4.073-.854-6.777-1.877q-.411.293-.8.602c2.825 1.158 6.262 2.053 7.347 2.123.302.02.623.055.945.055.718 0 1.433-.2 2.127-.395.408-.115.86-.24 1.336-.331q-.191.187-.381.377l-1.96 2.12c-.154.157-.49.573-.269 1.084.089.207.267.405.517.572.465.315 1.302.527 2.08.529.294 0 .574-.03.83-.088.82-.184 1.684-.871 2.597-1.597.727-.578 1.76-1.311 2.552-1.527a3 3 0 0 1 .71-.098c.066.002.128.003.186.012.523.065 1.027.243 1.93.921 1.61 1.208 8.73 7.437 8.8 7.5.004.003.458.394.427 1.045-.017.363-.219.686-.569.91q-.457.289-.934.29c-.476 0-.804-.224-.826-.238-.026-.022-2.465-2.259-3.363-3.01-.143-.119-.282-.226-.423-.226a.23.23 0 0 0-.186.089c-.14.174.017.415.204.574l2.85 2.863c.004.004.355.333.393.773.023.474-.205.871-.677 1.18-.336.222-.677.335-1.01.335-.437 0-.745-.2-.813-.247l-.408-.403c-.747-.735-1.519-1.495-2.083-1.966-.138-.114-.285-.22-.426-.22a.24.24 0 0 0-.18.076c-.063.071-.108.2.053.413.065.087.143.16.143.16l2.08 2.337c.017.02.428.51.047.996l-.074.092a2 2 0 0 1-.192.188c-.356.291-.83.322-1.017.322-.1 0-.197-.009-.28-.024q-.31-.055-.412-.173l-.024-.026c-.114-.117-1.162-1.188-2.03-1.911-.113-.097-.256-.218-.403-.218a.25.25 0 0 0-.189.085c-.172.187.086.468.195.572l1.775 1.955a.5.5 0 0 1-.068.12c-.064.087-.278.303-.922.384q-.116.014-.236.014c-.663 0-1.371-.322-1.735-.515a2.649 2.649 0 0 0-2.392-3.773q-.049 0-.096.002c.047-.666-.047-1.928-1.343-2.483a2.8 2.8 0 0 0-1.105-.244q-.427 0-.811.146a2.23 2.23 0 0 0-1.296-1.1 2.9 2.9 0 0 0-.95-.167q-.811 0-1.479.474a2.24 2.24 0 0 0-1.74-.84c-.591 0-1.16.236-1.58.654-.553-.422-2.742-1.814-8.605-3.145a33 33 0 0 1-1.333-.367 10 10 0 0 0-.151.962s1.08.259 1.294.307c5.989 1.33 7.966 2.712 8.302 2.974a2.248 2.248 0 0 0 2.481 3.069c.187.91.783 1.6 1.693 1.954.266.102.536.155.8.155.17 0 .343-.02.511-.063.168.426.546.958 1.392 1.302.297.12.593.182.88.182q.356-.001.686-.122a2.645 2.645 0 0 0 4.342.837c.427.238 1.328.668 2.24.669q.174-.002.339-.022c.905-.113 1.325-.468 1.52-.743q.052-.072.093-.152c.213.062.447.112.717.113.494 0 .969-.17 1.448-.519.47-.338.805-.826.853-1.241l.004-.018a2.4 2.4 0 0 0 .484.05c.509 0 1.008-.16 1.487-.473.923-.604 1.083-1.393 1.068-1.911.16.034.326.05.49.05.477 0 .947-.142 1.393-.427.572-.366.916-.925.968-1.577a2.1 2.1 0 0 0-.307-1.272c1.545-.666 5.078-1.954 9.237-2.892a10 10 0 0 0-.129-.959c-5.032 1.118-8.788 2.742-9.729 3.161"/></svg>