<svg xmlns="http://www.w3.org/2000/svg" width="100" height="60" fill="none"><path fill="#00A2E6" d="M0 0h100v60H0z"/><path fill="#fff" d="M34.7 20.6s-2.6 0-3.3 2.5c-.6 2.3-2.4 8.5-2.5 8.7h-.5s-1.8-6.4-2.5-8.7c-.7-2.5-3.3-2.5-3.3-2.5h-5.9v18.7h5.9V28.2h.4l3.4 11.1h4.1l3.4-11.1h.5v11.1h5.9V20.6zm21.6 0s-1.7.2-2.5 2l-4.2 9.2h-.5V20.6h-5.9v18.7h5.6s1.8-.2 2.6-2l4.1-9.2h.5v11.1h5.9V20.6zm8.1 8.5v10.2h5.9v-6h6.4c2.8 0 5.1-1.8 6-4.3H64.4zm12.3-8.5H63.6c.7 3.6 3.3 6.4 6.8 7.4.8.2 1.6.3 2.5.3H83c.1-.4.1-.9.1-1.3 0-3.5-2.9-6.4-6.4-6.4"/></svg>