<svg xmlns="http://www.w3.org/2000/svg" width="100" height="60" fill="none"><path fill="#fff" d="M0 0h100v60H0z"/><path fill="#000" d="M37.895 26.027h-.487c-.476 0-.684.14-.997.661l-2.597 4.208-1.078-4.161c-.128-.499-.267-.696-.812-.696h-.405c-.534 0-.87.313-.974.87l-1.206 6.77c-.092.51.14.776.58.776h.186c.463 0 .672-.232.753-.73l.974-5.472.938 3.663c.081.371.151.615.858.615.592 0 .73-.209.94-.545l2.294-3.768-.973 5.472c-.093.521.139.776.568.776h.197c.464 0 .672-.243.753-.73l1.194-6.816c.105-.545-.162-.893-.706-.893M45.14 30.873c-.059-1.646-1.171-2.852-3.05-2.852-2.144 0-3.454 1.75-3.396 3.663.07 1.75 1.275 2.875 3.05 2.875 2.202-.011 3.453-1.773 3.395-3.686m-3.385 2.48c-1.009 0-1.646-.73-1.681-1.727-.046-1.286.8-2.422 2.005-2.422.928 0 1.658.73 1.693 1.738.035 1.357-.812 2.412-2.017 2.412M49.927 28.021c-.893 0-1.6.44-2.075 1.182.046-.846-.417-1.09-.893-1.09-.22 0-.394.059-.405.082L45.58 33.7c-.093.568.22.73.638.73h.173c.453 0 .638-.185.73-.73l.58-3.304c.418-.73.881-1.078 1.6-1.078s1.148.429 1.16 1.136c.01.186-.035.417-.07.696l-.452 2.55c-.093.568.232.73.637.73h.174c.452 0 .638-.185.73-.73l.5-2.817c.057-.313.092-.591.08-.846-.035-1.183-.823-2.017-2.133-2.017M77.354 28.02c-.73 0-1.275.418-1.646 1.183.058-.846-.406-1.09-.88-1.09-.233 0-.395.059-.407.081l-.985 5.506c-.093.569.278.73.696.73h.174c.394 0 .58-.185.684-.73l.325-1.843c.243-1.437.776-2.434 1.634-2.434.418 0 .684.174.858.37.023.024.672-.231.649-.996-.035-.475-.51-.776-1.102-.776M84.842 28.114c-.602 0-.939.29-1.136 1.055-.382-.719-1.17-1.16-2.086-1.16-1.948 0-3.304 1.74-3.304 3.71 0 1.623.997 2.828 2.574 2.828.962 0 1.704-.394 2.179-1.194-.07.835.093 1.09.696 1.09.533 0 .707-.197.765-.789.07-1.09.44-2.863.87-5.355 0-.046-.245-.185-.558-.185m-3.617 5.24c-.95 0-1.495-.603-1.495-1.67 0-1.252.73-2.504 2.087-2.504 1.1 0 1.565.811 1.565 1.704 0 1.125-.766 2.47-2.157 2.47M94.093 28.02c-1.066 0-1.773.546-2.272 1.346-.243-.847-.974-1.345-1.901-1.345-.812 0-1.519.382-2.006 1.113.024-.777-.429-1.009-.892-1.009-.232 0-.395.058-.406.081l-.974 5.506c-.093.568.22.73.638.73h.174c.394 0 .637-.162.73-.73l.603-3.42c.44-.683.858-.973 1.507-.973s1.032.475 1.032 1.194q0 .174-.035.382l-.487 2.817c-.093.568.232.73.638.73h.162c.394 0 .649-.173.742-.73l.602-3.42c.441-.683.859-.973 1.508-.973.614 0 1.066.37 1.066 1.136 0 .186-.035.417-.081.696l-.452 2.55c-.093.568.22.73.637.73h.174c.452 0 .638-.185.73-.73l.499-2.817c.058-.313.081-.591.081-.846.011-1.24-.823-2.017-2.017-2.017M59.096 30.78c0-.858-.173-1.426-.556-1.924-.417-.533-1.194-.858-2.098-.858-2.736 0-3.721 2.017-3.721 3.767s1.205 2.782 3.06 2.782 2.898-.823 2.898-1.483c0-.44-.313-.592-.672-.626-.487.626-1.16.927-2.075.927-.812 0-1.774-.313-1.844-1.762h4.209c.451.011.8-.243.8-.823m-1.356-.197h-3.512c.336-.893 1.113-1.449 2.098-1.449.499 0 .881.139 1.136.417.22.255.301.603.278 1.032M72.16 29.934h-2.503c-.302 0-.44.07-.533.162-.151.163-.232.534-.232.696.011.255.232.406.637.406h1.774c-.243 1.24-1.032 2.098-2.388 2.098-1.426 0-2.376-.904-2.434-2.446-.07-1.936 1.217-3.536 3.037-3.536 1.067 0 1.901.568 2.237 1.322.047.058 1.032.058.997-.789-.011-.301-.185-.66-.51-.962-.521-.522-1.507-.974-2.816-.974-1.832 0-3.281 1.009-4.034 2.47 0-.012-.012-.012-.012-.012a.79.79 0 0 0-.637-.29c-.406 0-.673.128-1.067.823l-1.947 3.42-.73-3.408c-.14-.638-.372-.835-.777-.835-.476 0-.858.348-.846.429l1.39 5.506-1.437 2.365c-.15.255-.162.591.382.591h.302c.568 0 .753-.347 1.032-.823l3.918-6.63a5.1 5.1 0 0 0-.15 1.472c.069 2.225 1.576 3.57 3.778 3.57 1.044 0 1.878-.394 2.342-.997-.035.649.313.904.776.904.256 0 .441-.08.441-.127l.637-3.57q.157-.835-.626-.835"/><path fill="#DF2127" d="M26.082 31a9.19 9.19 0 0 1-9.192 9.193A9.19 9.19 0 0 1 7.697 31c0-1.402.313-2.724.87-3.906a7.5 7.5 0 0 0-.545 2.747c0 4.161 3.361 4.764 4.788 4.753 2.179-.024 4.717-1.09 6.862-3.06 0 0-.278 1.553-.36 2.028-.08.464.22.87.684.87h.186c.475 0 .823-.395.904-.87l.777-4.335c.093-.487-.22-.87-.707-.87H16.82c-.488 0-.928.256-1.009.742 0 .024-.035.163-.035.198-.07.463.255.81.719.81h2.26q-.052.053-.104.105c-1.565 1.472-3.5 2.284-5.1 2.284s-3.374-1.009-3.374-3.27c0-4.694 4.405-7.418 6.712-7.418 5.065 0 9.192 4.115 9.192 9.192"/></svg>