<svg xmlns="http://www.w3.org/2000/svg" width="100" height="60" fill="none"><path fill="#fff" d="M0 0h100v60H0z"/><path fill="#F60" d="M24.994 21.156c-4.92 0-8.898 3.96-8.898 8.856 0 .984.17 1.92.459 2.808h2.652v-7.44l5.787 5.76 5.788-5.76v7.44h2.652c.3-.906.455-1.854.458-2.808 0-4.896-3.98-8.856-8.898-8.856"/><path fill="#4C4C4C" d="m23.668 32.436-2.532-2.52v4.68H17.4a8.92 8.92 0 0 0 11.948 3.117 8.9 8.9 0 0 0 3.243-3.117h-3.738v-4.68l-2.507 2.52-1.327 1.32zm59.078-4.44c-.747-.768-1.664-1.128-2.7-1.128-.7 0-1.351.168-1.93.528-.597.33-1.09.82-1.422 1.416a3.9 3.9 0 0 0-.507 1.944c0 1.056.362 1.968 1.11 2.736.747.768 1.663 1.152 2.773 1.152a3.74 3.74 0 0 0 2.724-1.128c.748-.744 1.11-1.656 1.11-2.736-.025-1.104-.386-2.04-1.158-2.784m-.99 4.536c-.481.48-1.035.72-1.711.72a2.45 2.45 0 0 1-1.567-.552c-.58-.48-.892-1.128-.892-1.944 0-.744.24-1.344.7-1.824q.686-.72 1.735-.72 1.013 0 1.736.72c.483.48.724 1.08.724 1.776 0 .744-.241 1.344-.724 1.824m-8.052-1.368c.482-.168.868-.432 1.109-.768.24-.336.36-.768.36-1.272 0-.48-.12-.912-.336-1.272s-.507-.6-.892-.768c-.386-.168-.99-.24-1.833-.24h-2.725v7.752h1.495v-3.288h1.302l1.76 3.288h1.616zm-.242-1.464c-.168.12-.265.192-.747.192h-1.857v-1.584h1.809c.36 0 .434.024.578.072.144.051.27.143.362.264.097.12.12.264.12.432 0 .312-.072.504-.265.624m-10.73-2.832h5.064v1.44h-3.593v1.584h3.593v1.416h-3.593v1.848h3.593v1.464h-5.064zm-7.837 0h1.423l3.352 5.088v-5.088h1.47v7.752h-1.422l-3.328-5.088v5.088h-1.495zm-2.291 1.128c-.747-.744-1.664-1.128-2.7-1.128-.7 0-1.327.168-1.93.528-.602.336-1.06.816-1.422 1.416a3.9 3.9 0 0 0-.507 1.944c0 1.056.362 1.968 1.11 2.736.723.768 1.663 1.152 2.773 1.152 1.06 0 1.953-.36 2.7-1.128.748-.744 1.11-1.656 1.11-2.736-.025-1.104-.386-2.04-1.134-2.784m-.988 4.512c-.46.48-1.037.72-1.712.72-.603 0-1.11-.192-1.568-.552-.58-.48-.892-1.128-.892-1.944 0-.72.24-1.344.7-1.8q.686-.72 1.735-.72 1.013 0 1.737.72c.482.48.723 1.08.723 1.776-.024.744-.265 1.32-.723 1.8m-13.986-5.64h1.447l1.808 5.424 1.833-5.424h1.422l1.303 7.752H44.02l-.844-4.896-1.664 4.896H40.21l-1.64-4.896-.844 4.896H36.28z"/></svg>