<svg xmlns="http://www.w3.org/2000/svg" width="100" height="60" fill="none"><path fill="#286AA6" d="M0 0h100v60H0z"/><path fill="#fff" d="M19.02 34.209c2.549 0 4.63-1.808 4.63-4.328 0-1.524-1.112-2.52-2.871-2.52-2.62 0-4.595 2.114-4.595 4.43 0 1.463 1.257 2.418 2.836 2.418m.108 1.484c-3.805 0-6.067-1.524-6.067-4.085 0-3.19 3.339-5.608 7.718-5.608 3.661 0 5.994 1.585 5.994 3.983 0 3.414-3.41 5.71-7.645 5.71m15.729-8.006c-1.65 0-3.194 1.016-3.194 2.113 0 1.077 1.22 1.849 2.907 1.849 2.01 0 3.159-1.118 3.159-2.133 0-1.078-1.22-1.829-2.872-1.829m-1.148 8.656c-2.082.223-4.164.732-4.164 1.341 0 .67 1.65 1.097 4.343 1.097 2.082 0 3.41-.467 3.41-1.138 0-.568-1.686-1.056-3.589-1.3m14.187-8.717h-8.337c.826.67 1.077 1.178 1.077 1.808 0 1.524-1.292 2.723-3.769 3.312-1.902.447-5.492.346-5.492 1.22 0 1.137 8.83.487 8.83 3.515 0 1.504-2.763 2.6-6.568 2.6-4.056 0-7-.995-7-2.356 0-1.077 2.19-1.565 4.63-1.85v-.04c-2.01-.427-2.8-.894-2.8-1.605 0-.752 1.365-1.402 3.196-1.687-1.903-.508-2.908-1.422-2.908-2.621 0-2.093 2.728-3.638 5.995-3.638h13.469z"/><path fill="#fff" d="M48.354 34.209c2.548 0 4.63-1.808 4.63-4.328 0-1.524-1.113-2.52-2.872-2.52-2.62 0-4.594 2.114-4.594 4.43 0 1.463 1.256 2.418 2.836 2.418m.107 1.484c-3.805 0-6.066-1.524-6.066-4.085 0-3.19 3.338-5.608 7.717-5.608 3.662 0 5.995 1.585 5.995 3.983 0 3.414-3.41 5.71-7.646 5.71M62.28 27.89l.072.04c1.76-1.219 3.554-1.788 5.349-1.788 3.41 0 4.271 2.012 3.84 3.516l-1.543 5.75h-3.015l1.472-5.811c.394-1.585-.826-2.032-1.76-2.032-.86 0-2.548.345-4.845 2.032l-1.472 5.811h-3.015l2.261-9.124h3.051zm21.717 1.585c0-1.159-.898-2.052-2.908-2.052-1.794 0-3.015.67-3.84 2.052zm1.723 5.202c-1.616.67-3.446 1.016-5.385 1.016-4.092 0-6.748-1.748-6.748-4.41 0-2.987 3.339-5.283 7.646-5.283 3.59 0 6.282 1.89 5.6 4.674H76.781c-.754 2.438 1.615 3.596 4.128 3.596 1.507 0 3.23-.406 5.24-1.24z"/></svg>