<svg xmlns="http://www.w3.org/2000/svg" width="100" height="60" fill="none"><path fill="#fff" d="M0 0h100v60H0z"/><path fill="#FF4785" d="M69.635 18.982a11.8 11.8 0 0 0-2.254-.716c-3.129-.663-6.337-.08-9.162 1.75l-.703.504-10.54 7.584a12.1 12.1 0 0 0-1.777-4.627c-1.737-2.692-4.429-4.535-7.558-5.211-3.143-.663-6.338-.08-9.03 1.67-5.542 3.594-7.133 11.032-3.54 16.588 1.737 2.692 4.429 4.535 7.558 5.21.212.04.424.08.623.12l.61.08h.013c.425.04.836.066 1.26.066 2.307 0 4.574-.676 6.643-2.015l.013-.014.676-.49 10.555-7.585a11.95 11.95 0 0 0 1.776 4.641C57.092 40.077 60.951 42 64.875 42c2.241 0 4.495-.623 6.51-1.923l-3.593-5.542a5.4 5.4 0 0 1-4.057.756 5.37 5.37 0 0 1-3.394-2.334c-1.51-2.322-.98-5.385 1.126-7.106l.093-.067-.008.003-.005.004q-.004.005-.013.006l.018-.01.358-.266a.01.01 0 0 0-.005.011l.027-.026q.105-.075.217-.136a4 4 0 0 1 .194-.103l.039-.023.02-.01.06-.033.133-.065.032-.014.119-.057.048-.024a1 1 0 0 0 .086-.032l.02-.007q.109-.04.224-.08.116-.04.226-.08c.014 0 .027 0 .04-.013l.12-.03.162-.04q.07-.016.143-.036c.04 0 .066-.013.106-.013q.108-.019.212-.032.104-.011.212-.021h.053c.146-.013.292-.013.438-.013h.04c.105 0 .212.013.318.013q.073 0 .141.003a1 1 0 0 1 .084.01c.186.013.358.053.544.08.172.04.344.08.517.132l.2.068q.137.048.264.105.039.019.073.033l.073.033c.106.053.198.093.305.146q.04.02.08.046.018.013.038.024l.04.023c.094.053.173.106.266.159l.025.018.02.013.034.022q.04.024.08.053.053.043.11.081.073.05.142.105c.053.04.093.079.146.119q.045.039.092.082.074.07.146.143l.12.12c.093.092.172.185.252.291.026.027.053.053.08.093l.116.148q.1.126.188.263a5.3 5.3 0 0 1 .743 4.044 5.37 5.37 0 0 1-2.334 3.394l3.593 5.543a11.96 11.96 0 0 0 5.211-7.558c.093-.437.16-.888.212-1.339.027-.305.053-.623.053-.928v-.093a11.67 11.67 0 0 0-1.909-6.656c-1.313-2.015-3.142-3.567-5.304-4.495M37.203 34.959a5.39 5.39 0 0 1-6.192-1.511c-.132-.173-.265-.345-.398-.53a5 5 0 0 1-.662-1.472 5.1 5.1 0 0 1-.2-1.552 5.45 5.45 0 0 1 2.454-4.428 5.37 5.37 0 0 1 2.917-.862c1.763 0 3.5.862 4.521 2.453a5.3 5.3 0 0 1 .742 4.044 5.33 5.33 0 0 1-1.896 3.076 2.5 2.5 0 0 1-.424.331 5 5 0 0 1-.862.451"/></svg>