<svg xmlns="http://www.w3.org/2000/svg" width="100" height="60" fill="none"><path fill="#fff" d="M0 0h100v60H0z"/><path fill="#000" d="M14.133 34.847v-4.125h1.773c3.31 0 5.302-1.851 5.302-4.612 0-2.604-2.008-4.11-4.91-4.11H12v12.847zm2.07-10.933c1.71 0 2.856.784 2.856 2.447 0 1.537-1.287 2.447-2.965 2.447h-1.96v-4.894zm34.715 6.447c0-2.651-2.008-4.659-4.66-4.659-2.556 0-4.642 2.07-4.642 4.627v.079c0 2.682 1.93 4.627 4.643 4.627a4.593 4.593 0 0 0 4.659-4.533.22.22 0 0 0 0-.141m-7.279 0c0-1.538 1.13-2.761 2.62-2.714 1.647.047 2.666 1.192 2.635 2.714-.031 1.537-1.145 2.714-2.635 2.714s-2.62-1.193-2.62-2.714m27.435.533c.047-.314.063-.627.063-.941 0-2.51-1.913-4.267-4.345-4.267a4.573 4.573 0 0 0-4.627 4.518v.11c0 2.73 1.82 4.706 4.564 4.706 1.851 0 3.404-.879 4.047-2.102l-1.584-.879c-.423.69-1.317 1.161-2.337 1.161-1.412 0-2.416-.863-2.62-2.322zm-6.698-1.553c.267-1.192 1.145-1.914 2.37-1.914 1.238 0 2.18.785 2.29 1.914zM39.372 25.86l-2.478 6.4-2.212-6.4h-2.321l3.325 8.988L34.306 38h2.196l5.067-12.141zM88 25.906a2.8 2.8 0 0 0-.879-.11c-.878 0-1.866.502-2.29 1.365v-1.287h-2.023v8.989h2.023v-4.816c0-1.663 1.114-2.353 2.26-2.353.297 0 .61.032.893.094zm-6.682 4.988a6 6 0 0 0 .062-.941c0-2.51-1.913-4.267-4.345-4.267a4.573 4.573 0 0 0-4.627 4.518v.11c0 2.73 1.82 4.706 4.564 4.706 1.852 0 3.404-.879 4.048-2.102l-1.585-.879c-.423.69-1.317 1.161-2.337 1.161-1.412 0-2.416-.863-2.62-2.322zm-6.714-1.553c.267-1.192 1.145-1.914 2.368-1.914 1.24 0 2.18.785 2.29 1.914zm-45.459 1.004a2.796 2.796 0 0 1-2.714 2.855h-.125c-1.569 0-2.62-1.224-2.62-2.855a2.84 2.84 0 0 1 2.808-2.823c1.584-.016 2.651 1.207 2.651 2.823m31.655-.612c0-2.51-1.224-4.031-3.514-4.031-1.208 0-2.321.518-2.933 1.333v-1.16h-2.04v8.988h2.04v-4.879c0-1.506 1.082-2.462 2.384-2.462s1.992.878 1.992 2.368v4.973H60.8zM29.145 25.86v1.16c-.596-.784-1.553-1.333-2.98-1.333-2.479 0-4.55 2.196-4.55 4.785 0 2.604 1.773 4.549 4.173 4.549 1.553 0 2.714-.55 3.373-1.475v1.302h2.008V25.86z"/></svg>