<svg xmlns="http://www.w3.org/2000/svg" width="100" height="60" fill="none"><path fill="#253B80" d="M0 0h100v60H0z"/><path fill="#fff" d="M63.655 27.468c-.32 2.096-1.931 2.096-3.49 2.096h-.886l.621-3.913a.485.485 0 0 1 .483-.41h.407c1.062 0 2.063 0 2.58.6.309.358.402.89.286 1.627M62.977 22h-5.876a.82.82 0 0 0-.807.685l-2.376 14.968a.484.484 0 0 0 .278.518q.097.045.205.045h3.016a.57.57 0 0 0 .564-.478l.675-4.245a.818.818 0 0 1 .806-.684h1.859c3.87 0 6.106-1.861 6.689-5.55.263-1.612.01-2.88-.75-3.767-.836-.975-2.317-1.492-4.283-1.492M21.742 27.468c-.32 2.096-1.931 2.096-3.49 2.096h-.885l.621-3.913a.485.485 0 0 1 .483-.41h.407c1.06 0 2.062 0 2.58.6.308.358.401.89.284 1.627M21.064 22h-5.875a.82.82 0 0 0-.807.686l-2.376 14.967a.484.484 0 0 0 .28.519q.096.045.204.045h2.806c.401 0 .743-.29.807-.685l.64-4.039a.81.81 0 0 1 .807-.684h1.859c3.87 0 6.106-1.861 6.69-5.55.262-1.612.01-2.88-.75-3.767C24.512 22.517 23.03 22 21.063 22m13.642 10.841c-.27 1.598-1.547 2.67-3.175 2.67-.816 0-1.47-.26-1.89-.755-.416-.49-.574-1.187-.441-1.962.253-1.584 1.55-2.691 3.153-2.691.8 0 1.448.264 1.878.763.43.5.6 1.203.475 1.975m3.923-5.44h-2.814a.49.49 0 0 0-.484.41l-.125.782-.196-.283c-.61-.879-1.968-1.173-3.324-1.173-3.109 0-5.764 2.34-6.281 5.623-.268 1.639.113 3.203 1.048 4.295.859 1.004 2.083 1.422 3.543 1.422 2.507 0 3.896-1.6 3.896-1.6l-.125.778a.484.484 0 0 0 .28.517q.096.045.204.045h2.534c.402 0 .744-.29.806-.685l1.522-9.57a.486.486 0 0 0-.484-.562M76.62 32.841c-.272 1.598-1.548 2.67-3.176 2.67-.816 0-1.471-.26-1.89-.755-.417-.49-.574-1.187-.441-1.962.254-1.584 1.55-2.691 3.153-2.691.8 0 1.448.264 1.876.763.43.5.6 1.203.478 1.975m3.922-5.44h-2.815a.49.49 0 0 0-.483.41l-.125.782-.196-.283c-.61-.879-1.968-1.173-3.324-1.173-3.109 0-5.764 2.34-6.281 5.623-.27 1.639.113 3.203 1.048 4.295.859 1.004 2.083 1.422 3.543 1.422 2.507 0 3.896-1.6 3.896-1.6l-.125.778a.484.484 0 0 0 .28.517q.096.045.204.045h2.533c.403 0 .745-.29.807-.685l1.522-9.57a.48.48 0 0 0-.28-.517.5.5 0 0 0-.204-.045M53.615 27.4h-2.828a.82.82 0 0 0-.675.357l-3.902 5.708-1.653-5.486a.81.81 0 0 0-.783-.579h-2.78a.494.494 0 0 0-.484.417.5.5 0 0 0 .021.227l3.114 9.082-2.93 4.105a.485.485 0 0 0 .4.769h2.825a.82.82 0 0 0 .672-.35l9.405-13.486a.486.486 0 0 0-.402-.764M83.858 22.411l-2.411 15.244a.485.485 0 0 0 .484.561h2.425c.402 0 .745-.29.807-.684l2.379-14.969a.486.486 0 0 0-.485-.563h-2.714a.49.49 0 0 0-.486.411"/></svg>