<svg xmlns="http://www.w3.org/2000/svg" width="100" height="60" fill="none"><path fill="#fff" d="M0 0h100v60H0z"/><path fill="#008ACA" d="M22.02 26.747h-2.945c-.959 0-1.712.753-1.712 1.712V37.5h1.918v-2.945h2.534c1.027 0 1.85-.822 1.85-1.85V28.46c.068-.959-.685-1.712-1.644-1.712m-.205 5.342c0 .274-.205.48-.48.48h-1.438a.47.47 0 0 1-.48-.48v-2.877c0-.274.206-.48.48-.48h1.439c.274 0 .48.206.48.48zm8.22-5.342h-4.658v1.986h3.972c.206 0 .343.137.343.342v.274h-2.808c-.89 0-1.644.754-1.644 1.644v1.987c0 .89.753 1.643 1.644 1.643h3.15c.89 0 1.644-.753 1.644-1.643v-4.59c-.068-.89-.753-1.643-1.644-1.643m-.343 4.863v.616a.44.44 0 0 1-.411.411h-1.644a.44.44 0 0 1-.41-.411v-.616c0-.206.204-.411.41-.411h1.644c.205-.069.41.137.41.41m23.288-4.863h-4.658v1.986h3.973c.205 0 .342.137.342.342v.274h-2.808c-.89 0-1.644.754-1.644 1.644v1.987c0 .89.753 1.643 1.644 1.643h3.15c.89 0 1.644-.753 1.644-1.643v-4.59c0-.89-.753-1.643-1.643-1.643m-.274 4.863v.616a.44.44 0 0 1-.411.411H50.65a.44.44 0 0 1-.411-.411v-.616c0-.206.205-.411.41-.411h1.645c.205-.069.41.137.41.41m-5.822-4.863v1.986h-3.63c-.206 0-.343.137-.343.342v.274c0 .206.137.343.343.343h1.986c.959 0 1.712.753 1.712 1.712v1.302c0 1.027-.822 1.849-1.85 1.849h-4.04v-1.986h3.561c.206 0 .343-.138.343-.343v-.274c0-.205-.137-.342-.343-.342h-1.78a1.84 1.84 0 0 1-1.85-1.85V28.46c0-.959.754-1.712 1.712-1.712zm20.068 3.493v-1.85c0-.89-.753-1.643-1.644-1.643h-3.013c-.96 0-1.713.753-1.713 1.712v4.384c0 .958.754 1.712 1.713 1.712h4.589v-1.986H62.91c-.206 0-.343-.138-.343-.343v-.342zm-4.383-.206v-.959c0-.205.136-.342.342-.342h1.78c.206 0 .343.137.343.342zm-23.083 5.548v-8.835H37.57v5.342a.54.54 0 0 1-.548.548h-1.439a.54.54 0 0 1-.548-.548v-5.342h-1.917v5.89c0 .959.684 1.918 1.917 1.918H37.5v.41c0 .48-.342.549-.685.549h-3.698V37.5h4.315c1.232 0 2.054-.89 2.054-1.918m20-9.863v-1.918h-1.438a1.914 1.914 0 0 0-1.918 1.918v8.904h1.918v-5.959h1.37v-1.917h-1.37v-.48a.54.54 0 0 1 .548-.548zm14.178 1.85v-.822H70.72c-.959 0-1.78.822-1.78 1.78v4.316c0 .958.821 1.78 1.78 1.78h2.945v-.822h-2.876c-.548 0-1.028-.48-1.028-1.027v-4.178c0-.548.48-1.027 1.028-1.027zm12.809-.822h-.754c-.959 0-1.438.616-1.438 1.438v6.37h.822V28.39c0-.479.137-.89.753-.89h.617zm-10.685 0v.822h4.383c.48 0 .822.342.822.821v.96H77.5c-.959 0-1.78.821-1.78 1.78v1.644c0 .959.821 1.78 1.78 1.78h2.534c.96 0 1.781-.821 1.781-1.78V28.39c0-.89-.753-1.643-1.644-1.643zm4.246 6.986h-2.466c-.547 0-1.027-.48-1.027-1.027V31.13c0-.548.48-1.027 1.028-1.027h3.424v2.671a.936.936 0 0 1-.959.959M93.322 23.8v2.946h-3.425c-.959 0-1.78.822-1.78 1.78v4.316c0 .958.821 1.78 1.78 1.78h2.466c.959 0 1.78-.822 1.78-1.78V23.8zm-.959 9.932h-2.329c-.548 0-1.027-.48-1.027-1.027v-4.11c0-.548.48-1.027 1.027-1.027h3.356v5.205c-.068.548-.479.959-1.027.959"/><path fill="#E2001A" d="M12.432 34.555H7.568a1.696 1.696 0 0 1-1.713-1.712v-4.384c0-.959.754-1.712 1.713-1.712h4.863c.958 0 1.712.753 1.712 1.712v4.384c0 .958-.754 1.712-1.713 1.712"/><path fill="#E2001A" d="M7.158 26.267c.205-1.301 1.438-2.329 2.876-2.329 1.439 0 2.672 1.028 2.877 2.33.411.068.822.273 1.164.616v-.411c-.068-2.192-1.849-3.973-4.04-3.973-2.192 0-4.042 1.78-4.042 3.973v.41c.343-.273.685-.547 1.165-.616"/></svg>