<svg xmlns="http://www.w3.org/2000/svg" width="100" height="60" fill="none"><path fill="#fff" d="M0 0h100v60H0z"/><path fill="#419945" d="M19.61 22.842c-1.145.215-2.22 1.007-2.534 2.158-.26.98-.202 2.069.201 3.002.438.98 1.534 1.435 2.55 1.526 1.796.172 3.71-.15 5.211-1.19.837-.578 1.517-1.56 1.344-2.616-.164-1.175-1.172-2.025-2.223-2.453-1.43-.575-3.036-.694-4.548-.427m-2.777-3.078a12.77 12.77 0 0 1 7.725-.31c1.964.561 3.844 1.676 5 3.388.905 1.323 1.234 3.037.785 4.583-.472 1.696-1.746 3.069-3.23 3.971-2.534 1.53-5.68 1.895-8.549 1.253a8 8 0 0 0-.669-.095c-.068 1.337.655 2.652 1.796 3.348.542.385 1.228.466 1.777.833-.607.173-1.24.066-1.85-.026-2.127-.377-4.037-1.638-5.352-3.325-1.98-2.506-2.702-5.911-2.01-9.012.626-2.182 2.48-3.838 4.577-4.608"/><path fill="#2D2E2C" d="M41.072 25.12c0 1.5-.004 3.002.002 4.504.618.036 1.31.079 1.832-.314.588-.43.732-1.209.744-1.89.006-.702-.066-1.512-.636-2.003-.54-.442-1.292-.406-1.942-.296m-3.887-1.488c1.696-.674 3.553-.884 5.37-.779 1.116.083 2.258.345 3.185.995 2.285 1.564 2.263 5.445-.022 7-1.345.924-3.054 1.11-4.648 1.014.003 1.622 0 3.244 0 4.866h-3.888q0-6.55.003-13.096m21.525 2.395h4.124c.446 2.521 1.099 5.012 1.37 7.562.119-1.278.467-2.517.747-3.765q.441-1.9.881-3.798c1.234.002 2.468-.002 3.702.002-1.67 4.99-3.352 9.979-5.024 14.97a963 963 0 0 1-3.986 0q.899-2.138 1.804-4.274c-1.2-3.567-2.413-7.13-3.618-10.696m11.743 0c2.537.004 5.072-.01 7.608.006-.997 2.582-1.965 5.174-2.952 7.76a10 10 0 0 0-.189.499c1.057-.006 2.111-.002 3.169-.003q-.001 1.217 0 2.439h-7.982l3.238-8.263c-.964-.003-1.928 0-2.891 0zm-18.514 6.49c-.27.627-.255 1.475.264 1.973.557.47 1.351.419 2.023.276v-3.341c-.833.121-1.85.273-2.287 1.093m-3.109-5.895c1.752-.64 3.647-1 5.514-.773 1.036.127 2.105.54 2.734 1.406.577.777.738 1.77.736 2.715l-.002 6.197c-1.482.653-3.128.804-4.731.8-1.245-.029-2.564-.169-3.62-.884-1.634-1.095-1.702-3.847-.083-4.99 1.404-1.005 3.19-1.202 4.863-1.388.051-.573-.104-1.279-.755-1.429-1.297-.316-2.649.08-3.857.555-.265-.738-.546-1.467-.799-2.209m34.31 5.705c-.406.613-.41 1.533.083 2.1.546.536 1.39.485 2.087.342q.008-1.672 0-3.346c-.772.12-1.668.239-2.17.904m-3.229-5.702c1.76-.65 3.672-1.006 5.549-.772 1.032.13 2.096.553 2.716 1.42.566.774.718 1.758.723 2.692q.002 3.1 0 6.2c-1.521.67-3.215.818-4.863.8-1.194-.04-2.457-.188-3.472-.868-1.662-1.094-1.726-3.889-.076-5.024 1.404-.986 3.177-1.188 4.841-1.366.042-.562-.099-1.267-.738-1.424-1.303-.33-2.664.075-3.879.548-.266-.736-.543-1.467-.8-2.206"/></svg>