<svg xmlns="http://www.w3.org/2000/svg" width="100" height="60" fill="none"><path fill="#30469D" d="M0 0h100v60H0z"/><path fill="#fff" d="M61.291 41.917h15.005v-6.722h-7.603V19.486h-7.402zM15.28 19.619v22.397l6.686.01V35.19h1.505c2.665 0 5.706-.557 7.086-1.893s1.948-3.335 1.948-5.89a9.8 9.8 0 0 0-.752-4.006 5.4 5.4 0 0 0-2.167-2.53 10.5 10.5 0 0 0-3.116-1.112c-.87-.154-2.434-.148-4.196-.143q-.526.003-1.07.003zm6.945 11.472a3 3 0 0 1-.311-.025l-.008-6.892V23.8c1.329 0 2.533.179 3.034.704.718.761.716 1.554.715 2.508v.138c0 1.222-.015 2.543-.502 3.134-.316.383-.862.884-2.928.808M84.67 27.223h-7.09v14.726h7.09zM77.48 19.585h7.241v6.09H77.48zM51.34 40.373c.956-.336 1.899-1.045 2.711-1.767 2.29-2.042 4.701-5.507 4.513-9.727-.195-4.442-2.63-7.29-5.872-9.064.935.201 1.708.81 2.427 1.382 2.081 1.65 3.66 4.204 3.729 7.795.09 4.777-2.508 8.034-5.083 10.28.807-.393 1.43-1.12 2.031-1.824 1.705-1.998 3.275-4.843 3.275-8.402 0-5.01-2.894-7.893-6.269-9.78a8.1 8.1 0 0 1 2.936 1.659 10.4 10.4 0 0 1 2.85 3.89c.627 1.497.887 3.117.761 4.73a13.6 13.6 0 0 1-4.403 9.228 15.87 15.87 0 0 1-9.485 4.202q-.706.05-1.412 0c-5.892-.479-10.167-4.172-10.614-9.837a11 11 0 0 1 0-1.77c.251-3.573 1.9-6.42 4.065-8.62 2.354-2.393 5.33-4.197 9.483-4.477.103-.444.223-.952.286-1.271 1.366 1.421 3.026 2.97 4.74 4.641-2.065 1.036-4.076 2.126-6.097 3.206.045-.405.14-.867.168-1.161-3.468.601-6.391 3.065-6.998 6.521-.752 4.217 2.136 7.44 6.268 7.462 4.175.022 7.718-3.135 8.355-6.743.501-2.915-.802-4.953-2.485-6.3 1.57 1.016 3.26 2.852 3.05 5.581-.342 4.276-4.449 7.818-8.747 7.85a7.8 7.8 0 0 1-3.271-.703 7.7 7.7 0 0 1-2.656-1.997c1.407 2.002 3.866 3.058 6.662 2.874 2.197-.145 4.054-1.2 5.421-2.487 1.366-1.286 2.482-3.141 2.758-5.029a7.7 7.7 0 0 0 0-2.265c-.343-2.21-1.712-3.238-2.966-4.663 1.785 1.394 3.656 3.252 3.533 6.258-.186 4.394-4.483 8.267-8.98 8.566-2.948.197-4.763-.79-6.323-2.209 1.477 1.831 4.263 2.771 7.171 2.322 4.15-.64 7.848-4.03 8.3-8.234.406-3.797-1.557-5.56-3.433-7.42 2.006 1.472 3.704 3.12 3.826 6.148.108 2.631-1.2 5.206-2.878 6.853-2.683 2.633-7.908 4.361-11.97 1.934 3.46 2.584 8.833 1.104 11.687-1.436 2.07-1.84 3.583-4.295 3.332-7.96-.203-2.945-1.908-4.452-3.839-6.023 1.986.997 3.902 2.99 4.177 5.859.369 3.755-1.399 6.529-3.55 8.394-2.6 2.246-6.269 3.584-10.388 2.543 6.825 2.081 13.206-2.88 14.114-8.62.652-4.126-1.505-6.558-3.556-8.291-.21-.177-.33-.304-.619-.552 2.931 1.492 5.366 4.79 4.403 9.45-1.12 5.423-6.672 9.817-13.833 8.676 1.04.407 2.256.319 3.305.265 3.26-.18 6.208-1.773 7.787-3.488 1.916-2.086 3.433-4.715 3.14-8.502-.266-3.436-2.222-5.069-4.614-6.873a6.8 6.8 0 0 1 2.6 1.817 8.45 8.45 0 0 1 2.347 5.188c.291 3.905-1.542 6.806-3.555 8.836-2.147 2.168-5.055 3.56-8.751 3.591 5.797.172 9.648-3.311 11.516-7.184 1.071-2.209 1.382-5.346.502-7.793-.805-2.253-2.65-3.8-4.463-5.053 3.167 1.656 5.832 4.766 5.253 9.584a11.4 11.4 0 0 1-1.65 4.695c-1.728 2.838-4.553 4.833-7.723 5.918 2.347-.49 4.574-1.873 6.21-3.65 2.007-2.167 3.546-4.909 3.446-8.73-.113-4.114-2.71-6.485-5.363-8.345a.4.4 0 0 1 .1.027c2.896 1.389 5.087 3.8 5.544 7.545.727 5.912-3.25 10.23-6.936 12.48"/></svg>