<svg xmlns="http://www.w3.org/2000/svg" width="100" height="60" fill="none"><path fill="#D13239" d="M0 0h100v60H0z"/><path fill="#fff" d="m63.8 32.006 1 5.5 2.8-5.5h1.6l-4.1 7.9s-.7 1.4-1.2 1.8-.7.5-1.1.6-.5.1-.9 0l-.4-.1.2-1.4s.6.1 1 0 .7-.8.7-.8l.2-.3-1.5-7.6c.1-.1 1.6-.1 1.7-.1M69.7 32.806h1.6l.1-.6s.2-1.1.6-1.4c.062-.062.162-.085.3-.118.085-.02.185-.044.3-.082.4-.1 1-.1 1.4-.1.7 0 .9 0 1.6.1s.5.8.5.8l-.1 1s-.1.5-.2.7-.5.4-.8.5c-.5.2-2.4.7-2.4.7l-1.4.4s-.9.3-1.4.8c-.4.4-.7 1-.8 1.5-.1.3-.4 2.6-.4 2.6h7.8l.3-1.6h-6.2l.1-.6s.1-.7.3-.9q.024-.024.044-.05c.07-.083.14-.166.556-.25.3-.1 1.3-.4 1.3-.4l2.3-.6s1.3-.3 1.8-1 .7-2 .7-2 .1-1.3 0-1.7-.5-.9-.9-1.1c-.5-.2-.9-.3-2.4-.3s-2.1.1-2.8.4-1.1.7-1.4 1.4c-.2.5-.4 1.9-.4 1.9M84.5 36.506H86l-.3 1.6h-1.5l-.4 2.3h-1.6l.4-2.3h-5.3l.3-1.7 6.1-6.5h1.9zm-1.6 0 .8-4.4-4.2 4.4zM26 30.006h5s1.1-.9 1.9-1.5 2.2-1.5 2.2-1.5l-2.8-1.3s-2.4 1.5-3.4 2.2c-.9.6-2.9 2.1-2.9 2.1M36.7 26.106l-2.3-1.6c1.6-.9 3.2-1.6 4.9-2.3 2.8-1.1 4.3-1.6 4.3-1.6l.5 2.2s-2.7.9-4.2 1.6c-1.7.8-3.2 1.7-3.2 1.7M45.8 22.406l-.4-2.3s2.9-.8 5.5-1.2 6.1-.7 6.1-.7l-1.2 3.5s-3-.4-5.9 0c-1.4.1-2.8.3-4.1.7M57.6 21.906l1.9-3.9s4.2-.1 7.9.5 7 1.4 6.9 1.5l-9.2 4.8s-2.2-1.4-4.8-2.2c-1.6-.4-2.7-.7-2.7-.7M66.7 25.906l2 1.5h16.7s0-.5-.5-1.3c-.3-.5-.8-1-1.3-1.5-.133-.133-.533-.444-.933-.755l-.001-.001c-.2-.155-.4-.31-.566-.444-1.24-.826-2.001-1.174-3.075-1.666q-.336-.153-.725-.334zM35 32.006h-5.9l-.1 1.5h3.8l-4.8 4.6-.3 1.5h6.1l.2-1.5h-4.2l5-4.8zM22.1 29.406c.2.1.4.2.5.3s.2.2.1.3c.1.3.2.6.2.9v.5c0 .4-.1 1-.2 1.5s-.2.9-.2.9-.2 1.1-1.1 1.5-2.1.4-2.1.4h-3.1l-.6 3.9H14l1.8-10.5h4.8c.15 0 .275.025.4.05s.25.05.4.05c.1.05.225.075.35.1s.25.05.35.1m-1.1 4c.2-.9.3-1.8.3-1.8 0-.1 0-.2.1-.4 0-.1 0-.2-.1-.3s-.3-.2-.5-.2h-3.7l-.6 3.5h2.6s.7 0 1.2-.1c.3-.1.6-.3.7-.7M44.6 29.106h-1.5l-1.8 10.5h1.6zM52.9 32.006h-1.5l.8 7.6H54l2.4-5.4.5 5.3h1.8l3.3-7.5h-1.7l-2.3 5.3-.5-5.3h-1.8l-2.3 5.3zM38.4 31.906c.6 0 1.4.1 1.8.2 1.3.4 1.5 1.5 1.2 3l-.2 1.2h-5.1s-.1.2-.1 1.1c-.1.8.8.8 1 .8.055 0 .132.015.233.035.27.052.713.138 1.367.065.9-.1 1-1.2 1-1.2h1.6l-.1.4c0 .2-.1.4-.2.6s-.2.4-.4.6c-.4.4-.9.8-1.5.9-.9.2-2.2.1-2.2.1a5 5 0 0 0-.446-.08c-.29-.044-.593-.09-.854-.22-.7-.3-.9-.9-1-1.5s.3-2.5.3-2.5.2-1.7.8-2.5c.6-.7 1.7-.9 1.7-.9.2-.1.5-.1 1.1-.1m-2 3h3.5s.1-.7 0-1c-.1-.1-.3-.3-.5-.3-.439-.073-.984-.04-1.363-.016-.14.009-.256.016-.337.016-.3 0-.6 0-.8.2-.3.2-.4.6-.4.6zM48 31.906c.6 0 1.4.1 1.8.2 1.3.4 1.5 1.5 1.3 3.2l-.2 1.2h-5.1s-.1.2-.1 1.1c-.1.8.8.8 1 .8.5 0 1 0 1.5-.1.9-.1 1-1.2 1-1.2h1.6l-.1.4c0 .2-.1.4-.2.6s-.2.4-.4.6c-.4.4-.9.8-1.5.9-.9.2-2.2.1-2.2.1a5 5 0 0 0-.446-.08c-.29-.044-.593-.09-.854-.22-.7-.3-.9-.9-1-1.5s.3-2.5.3-2.5.2-1.7.8-2.5c.6-.7 1.7-.9 1.7-.9.2-.1.5-.1 1.1-.1m-2 3h3.4s.2-.7.1-1c-.1-.1-.3-.3-.5-.3-.439-.073-.984-.04-1.363-.016-.14.009-.256.016-.337.016-.3 0-.6 0-.8.2-.3.2-.4.6-.4.6zM25.4 32.506c.5-.3 1.1-.5 1.7-.5 0 0 .9 0 1-.1l-.3 1.5h-.9c-1.2 0-1.9 1.1-2 1.9l-.7 4.2h-1.7l1.3-7.5h1.7z"/></svg>