<svg xmlns="http://www.w3.org/2000/svg" width="100" height="60" fill="none"><path fill="#fff" d="M0 0h100v60H0z"/><path fill="#000" d="M20.057 24.375H16v16.404h4.057z"/><path fill="#000" d="M32.779 25.313c0-3.481-2.835-6.313-6.32-6.313H16v3.503h9.962c1.577 0 2.884 1.24 2.912 2.762a2.8 2.8 0 0 1-.805 2.026 2.8 2.8 0 0 1-2.01.844h-3.88a.25.25 0 0 0-.25.25v3.113q0 .081.047.146l6.584 9.135h4.82l-6.6-9.16c3.324-.167 5.999-2.96 5.999-6.306M56.223 25.694c0 4.075-2.862 6.718-7.216 6.718h-5.661v8.367H40.64V19.007h8.367c4.354 0 7.216 2.612 7.216 6.687m-7.465 4.23c2.861 0 4.696-1.649 4.696-4.23s-1.804-4.199-4.665-4.199h-5.443v8.43zM56.907 36.331c0-3.172 2.209-4.945 6.376-4.945h4.666v-1.089c0-2.052-1.462-3.297-3.95-3.297-2.24 0-3.733 1.058-4.044 2.675h-2.55c.373-3.11 2.892-4.945 6.718-4.945 4.044 0 6.376 2.021 6.376 5.723v10.326h-2.208l-.218-2.488c-.995 1.43-2.581 2.675-5.319 2.675-3.483 0-5.847-1.742-5.847-4.635m6.034 2.457c3.172 0 5.008-1.834 5.008-4.478v-.778h-4.914c-2.271 0-3.546.84-3.546 2.644 0 1.555 1.337 2.612 3.452 2.612M74.574 24.916l4.883 12.66 4.728-12.66h2.705l-7.309 18.538C78.586 46.004 77.995 47 75.755 47h-3.047v-2.333h2.27c1.462 0 1.71-.373 2.302-1.866l.777-1.929-6.19-15.956z"/></svg>