<svg xmlns="http://www.w3.org/2000/svg" width="100" height="60" fill="none" viewBox="0 0 100 60">
   <path fill="#fff" d="M0 0h100v60H0z"/>
   <path fill="#000" d="M20.06 24.37H16v16.4h4.06z"/>
   <path fill="#000" d="M32.78 25.31A6.3 6.3 0 0 0 26.46 19H16v3.5h9.96a2.9 2.9 0 0 1 2.91 2.76 2.8 2.8 0 0 1-2.81 2.87h-3.88a.25.25 0 0 0-.25.25v3.12q0 .08.05.14l6.58 9.14h4.82l-6.6-9.16c3.32-.17 6-2.96 6-6.3"/>
   <path fill="#000" d="M56.22 25.7c0 4.07-2.86 6.71-7.21 6.71h-5.66v8.37h-2.71V19h8.37c4.35 0 7.21 2.6 7.21 6.68m-7.46 4.22c2.86 0 4.7-1.64 4.7-4.23 0-2.58-1.81-4.2-4.67-4.2h-5.44v8.43z"/>
   <path fill="#000" d="M56.9 36.33c0-3.17 2.22-4.94 6.38-4.94h4.67v-1.1c0-2.05-1.46-3.29-3.95-3.29-2.24 0-3.73 1.06-4.04 2.68H57.4c.38-3.11 2.9-4.95 6.72-4.95 4.05 0 6.38 2.02 6.38 5.72v10.33h-2.2l-.23-2.49a6 6 0 0 1-5.32 2.68c-3.48 0-5.84-1.75-5.84-4.64m6.04 2.46c3.17 0 5-1.84 5-4.48v-.78h-4.9c-2.28 0-3.55.84-3.55 2.65 0 1.55 1.34 2.6 3.45 2.6"/>
   <path fill="#000" d="m74.57 24.92 4.89 12.66 4.72-12.66h2.71l-7.3 18.53c-1 2.55-1.6 3.55-3.83 3.55H72.7v-2.33h2.27c1.46 0 1.7-.38 2.3-1.87l.78-1.93-6.2-15.95z"/>
</svg>
