<svg xmlns="http://www.w3.org/2000/svg" width="100" height="60" fill="none"><path fill="#008469" d="M0 0h100v60H0z"/><path fill="#fff" d="M46.097 32.27v-1.222h-4.714c-2.313 0-3.39.796-3.39 2.019 0 1.134 1.032 2.121 3.699 2.121 3.285 0 4.405-.296 4.405-2.918M36.02 24.065l-1.665 1.68c-1.547-.928-3.123-1.562-5.245-1.562-2.52 0-3.36.855-3.36 2.018 0 .737.605 1.46 2.58 1.592l3.24.206c2.004.103 3.419.678 4.332 1.562 1.06-.914 2.652-1.489 4.744-1.489h5.45v-1.724c0-1.59-1.192-2.15-4.021-2.15-2.047 0-3.374.604-4.405 1.562zm29.289 4.258h9.105c0-2.917-2.166-4.36-4.568-4.36s-4.537 1.428-4.537 4.36m-13.63 1.281c.045 2.755.089 3.182.796 3.948.56.605 1.768 1.312 3.403 1.312 1.592 0 2.623-.708 3.183-1.312.707-.766.795-1.237.795-3.948 0-2.74-.088-3.211-.795-3.978-.56-.604-1.592-1.311-3.183-1.311-1.635 0-2.843.707-3.403 1.311-.707.766-.825 1.208-.795 3.978m-2.474-6.04c.133-.162.265-.325.428-.502.883-.957 2.62-2.062 5.17-2.062 2.004 0 3.595.663 5.053 1.99v-1.784h3.949v1.842C65.368 21.575 67.46 21 69.419 21c4.317 0 8.03 2.961 8.044 7.912.015.854-.088 2.372-.088 2.372H65.31c0 2.74 1.87 3.771 4.567 3.771 1.502 0 3.403-.677 4.552-1.709l2.652 1.93a10.13 10.13 0 0 1-7.13 2.947c-2.15 0-4.464-.501-6.144-2.034v1.415c0 5.068-4.022 7.396-8.5 7.396-2.505 0-5.054-1.134-6.793-2.814l3.05-2.092c.958.825 2.313 1.517 3.816 1.517 2.637 0 4.478-1.282 4.478-3.639v-1.724c-1.222 1.164-3.05 1.96-5.053 1.96-2.21 0-3.801-.825-4.773-1.665v1.695h-3.934v-1.71h-.074c-.81 1.164-2.165 1.695-4.832 1.695-2.49 0-4.39-.722-5.554-1.886-1.473 1.208-3.816 1.856-6.497 1.856-3.168 0-6.1-.987-8.605-3.005l2.74-2.328c1.695 1.429 3.552 2.166 6.174 2.166 2.24 0 3.86-.737 3.86-2.166 0-1.193-1.046-1.547-2.387-1.65l-3.477-.265c-3.24-.236-5.642-1.886-5.642-4.774 0-3.418 3.167-5.171 7.307-5.171 2.976 0 5.112.678 6.895 1.768 1.444-1.296 3.33-1.753 5.879-1.753 3.403 0 6.055.692 7.322 2.548z"/></svg>