<svg xmlns="http://www.w3.org/2000/svg" width="100" height="60" fill="none"><path fill="#fff" d="M0 0h100v60H0z"/><path fill="#8CB849" d="M17.907 18.812a.67.67 0 0 1 .384.131c-.957.454-1.983 1.602-2.414 3.895l-1.823.571c.507-1.748 1.711-4.597 3.853-4.597m.887.85c.183.465.302 1.133.302 2.036v.131l-2.306.723c.444-1.736 1.276-2.573 2.005-2.89m2.2 1.571-1.116.35v-.244c0-.748-.102-1.349-.266-1.826.66.084 1.1.845 1.382 1.72m5.357 1.33a.225.225 0 0 0-.202-.19l-1.862-.141s-1.234-1.24-1.369-1.379c-.137-.137-.4-.095-.504-.066l-.69.217c-.414-1.202-1.141-2.307-2.421-2.307q-.054 0-.11.004c-.363-.489-.815-.701-1.205-.701-2.982 0-4.407 3.779-4.854 5.698l-2.087.657c-.646.206-.668.226-.753.843-.063.468-1.756 13.732-1.756 13.732l13.19 2.504 7.148-1.566z"/><path fill="#5A873E" d="M26.149 22.373c-.084-.008-1.862-.141-1.862-.141s-1.234-1.241-1.369-1.379a.34.34 0 0 0-.192-.088l-.996 20.668 7.146-1.567-2.525-17.303a.224.224 0 0 0-.202-.19"/><path fill="#fff" d="m19.303 26.374-.882 2.656s-.772-.417-1.72-.417c-1.386 0-1.456.881-1.456 1.104 0 1.213 3.121 1.678 3.121 4.52 0 2.234-1.4 3.674-3.285 3.674-2.265 0-3.424-1.428-3.424-1.428l.607-2.03s1.19 1.037 2.195 1.037c.656 0 .923-.524.923-.907 0-1.581-2.56-1.653-2.56-4.253 0-2.188 1.549-4.306 4.68-4.306 1.204 0 1.8.35 1.8.35"/><path fill="#000" d="M37.208 31.353c-.712-.392-1.08-.723-1.08-1.176 0-.577.51-.949 1.303-.949.926 0 1.753.392 1.753.392l.651-2.023s-.599-.474-2.362-.474c-2.455 0-4.156 1.424-4.156 3.425 0 1.136.794 2.002 1.854 2.621.856.495 1.16.846 1.16 1.363 0 .536-.427.969-1.22.969-1.183 0-2.303-.619-2.303-.619l-.692 2.022s1.033.7 2.77.7c2.525 0 4.338-1.258 4.338-3.527 0-1.218-.917-2.084-2.016-2.724m10.06-4.25c-1.241 0-2.22.599-2.973 1.506l-.04-.021 1.078-5.715h-2.81L39.795 37.42h2.81l.937-4.973c.366-1.878 1.324-3.034 2.22-3.034.63 0 .876.434.876 1.053 0 .392-.042.866-.123 1.26l-1.059 5.694h2.81l1.1-5.882c.122-.611.19-1.233.204-1.856 0-1.61-.835-2.58-2.301-2.58m7.27 8.335c-.956 0-1.363-.824-1.363-1.856 0-1.63.835-4.292 2.363-4.292.996 0 1.323.866 1.323 1.713 0 1.753-.835 4.435-2.322 4.435m1.386-8.334c-3.38 0-5.62 3.094-5.62 6.54 0 2.207 1.343 3.982 3.869 3.982 3.319 0 5.56-3.012 5.56-6.541 0-2.043-1.182-3.981-3.809-3.981m8.31 8.376c-.73 0-1.161-.413-1.161-.413l.468-2.661c.326-1.775 1.243-2.951 2.22-2.951.855 0 1.12.805 1.12 1.568 0 1.836-1.08 4.457-2.647 4.457m2.688-8.377c-1.897 0-2.974 1.692-2.974 1.692h-.04l.163-1.527h-2.485a61 61 0 0 1-.57 3.776l-1.956 10.42h2.811l.774-4.21h.061s.577.373 1.65.373c3.3 0 5.458-3.426 5.458-6.893 0-1.919-.837-3.632-2.892-3.632m6.904-4.086c-.896 0-1.609.723-1.609 1.65 0 .847.53 1.425 1.324 1.425h.04c.877 0 1.63-.598 1.65-1.651 0-.826-.55-1.424-1.405-1.424m-3.93 14.403h2.81l1.914-10.09h-2.83zm11.873-10.11h-1.956l.101-.476c.162-.97.734-1.835 1.67-1.835.5 0 .897.143.897.143l.55-2.228s-.49-.247-1.529-.247c-.997 0-1.995.289-2.748.948-.958.826-1.406 2.023-1.63 3.22l-.081.474h-1.304l-.407 2.146h1.303L75.15 37.42h2.81l1.487-7.965h1.935l.387-2.147m6.763.021s-1.758 4.485-2.547 6.933h-.04c-.055-.787-.693-6.933-.693-6.933h-2.953l1.69 9.266c.041.206.02.328-.06.474-.327.64-.877 1.259-1.528 1.712-.53.392-1.12.64-1.589.805L81.586 42c.57-.124 1.751-.598 2.749-1.548 1.282-1.216 2.464-3.095 3.686-5.653l3.442-7.47z"/></svg>