<svg xmlns="http://www.w3.org/2000/svg" width="100" height="60" fill="none"><path fill="#fff" d="M0 0h100v60H0z"/><path fill="url(#a)" d="m19.352 33.75-2.4 2.573a.56.56 0 0 1-.406.177H5.17a.279.279 0 0 1-.205-.468l2.397-2.573a.56.56 0 0 1 .407-.178h11.375a.277.277 0 0 1 .279.325.3.3 0 0 1-.072.144m-2.4-5.183a.56.56 0 0 0-.406-.177H5.17a.279.279 0 0 0-.205.468l2.397 2.575a.56.56 0 0 0 .407.177h11.375a.28.28 0 0 0 .203-.468zM5.171 26.72h11.375a.56.56 0 0 0 .406-.178l2.4-2.572a.278.278 0 0 0-.207-.469H7.77a.55.55 0 0 0-.407.177L4.966 26.25a.28.28 0 0 0 .205.469"/><path fill="#000008" d="M69.379 24.99H63.42a2 2 0 0 0-2.01 1.989v8.031h2.03v-3.292h5.932v3.292h2.031V26.98a2 2 0 0 0-2.024-1.99m-.015 4.724h-5.931v-2.72h5.93zM41.874 24.99h6.109a2 2 0 0 1 2.011 1.989v6.042a2 2 0 0 1-2.011 1.99h-6.109a2 2 0 0 1-2.016-1.99v-6.042a1.997 1.997 0 0 1 2.016-1.99m.015 8.016h6.08l-.004-6.012H41.89zM30.108 28.998h6.086a2 2 0 0 1 2.01 1.992v2.03a2 2 0 0 1-2.01 1.99h-7.972v-2.004h7.96v-2.004h-6.094a2 2 0 0 1-2.011-1.992v-2.031a2 2 0 0 1 2.01-1.99h7.688v2.005h-7.667zM87.139 24.99h5.958a2 2 0 0 1 2.01 1.989v8.031h-2.03v-3.292h-5.918v3.292h-2.032V26.98a2 2 0 0 1 2.011-1.99m.006 4.724h5.932v-2.72h-5.932zM81.295 33.006h-.812l-2.905-7.177a1.34 1.34 0 0 0-1.24-.84h-1.803a1.333 1.333 0 0 0-1.34 1.327v8.694h2.031v-8.016h.813l2.903 7.177a1.34 1.34 0 0 0 1.246.834h1.802a1.333 1.333 0 0 0 1.34-1.327v-8.689h-2.035zM51.788 24.99h2.032v8.016h6.08v2.004h-6.094a2 2 0 0 1-2.018-1.99z"/><defs><linearGradient id="a" x1="6.119" x2="18.047" y1="36.81" y2="23.363" gradientUnits="userSpaceOnUse"><stop offset=".08" stop-color="#9945FF"/><stop offset=".3" stop-color="#8752F3"/><stop offset=".5" stop-color="#5497D5"/><stop offset=".6" stop-color="#43B4CA"/><stop offset=".72" stop-color="#28E0B9"/><stop offset=".97" stop-color="#19FB9B"/></linearGradient></defs></svg>