<svg width="100" height="60" xmlns="http://www.w3.org/2000/svg"><g fill="none" fill-rule="evenodd"><rect fill="#FFF" width="100" height="60" rx="4"/><path d="M34.476 26.386c0-8.794 7.26-15.924 16.219-15.924 8.956 0 16.218 7.13 16.218 15.924 0 8.795-7.262 15.923-16.218 15.923-8.958 0-16.219-7.128-16.219-15.923zm16.219 14.81c8.33 0 15.081-6.631 15.081-14.81 0-8.18-6.752-14.809-15.081-14.809-8.331 0-15.083 6.63-15.083 14.809 0 8.179 6.752 14.81 15.083 14.81z" fill="#992685"/><path d="M55.166 23.651c2.576 3.831 1.458 8.96-2.495 11.453-3.952 2.495-9.242 1.413-11.816-2.417l2.453-1.599c1.673 2.487 5.108 3.191 7.675 1.571 2.565-1.62 3.292-4.95 1.62-7.437l2.563-1.57" fill="#992685"/><path d="M60.878 20.137c-2.58-3.83-7.872-4.904-11.82-2.406-3.949 2.5-5.06 7.63-2.48 11.458l2.497-1.534c-1.674-2.485-.953-5.815 1.611-7.439 2.564-1.624 6-.923 7.677 1.561l2.515-1.64" fill="#000"/><path d="M56.142 48.022c.202-1.374 1.516-2.49 2.935-2.49 1.42 0 2.406 1.116 2.204 2.49-.203 1.377-1.517 2.493-2.936 2.493s-2.406-1.116-2.203-2.493zm2.332 1.62c.922 0 1.775-.725 1.908-1.62.132-.893-.51-1.619-1.431-1.619-.925 0-1.778.726-1.91 1.619-.131.895.51 1.62 1.433 1.62zm-5.916-3.945h1.038l-.856 3.772h2.79l-.194.85h-3.828l1.05-4.622m-6.656 2.288c.201-1.391 1.516-2.522 2.934-2.522 1.42 0 2.406 1.13 2.204 2.522-.201 1.395-1.517 2.526-2.937 2.526-1.418 0-2.404-1.13-2.2-2.526zm2.33 1.642c.924 0 1.777-.734 1.91-1.642.13-.904-.51-1.64-1.434-1.64-.921 0-1.775.736-1.908 1.64-.13.908.51 1.642 1.433 1.642zm-7.36-.693c.206.387 1.057.862 1.893.835.882-.026 1.198-.27 1.26-.68.021-.162.09-.532-.644-.617l-1.19-.128c-1.266-.162-1.47-.66-1.44-1.27.039-.839 1.121-1.487 2.284-1.501 1.024-.014 1.894.205 2.298.74l-.719.421c-.595-.457-1.131-.492-1.769-.454-.444.028-1.044.2-1.136.618-.064.295-.049.48.588.552l1.508.192c.694.077 1.274.71 1.22 1.252-.082.791-.794 1.726-2.499 1.645-1.304-.06-2.069-.554-2.419-1.172l.765-.433" fill="#992685"/></g></svg>