<svg xmlns="http://www.w3.org/2000/svg" width="100" height="60" fill="none"><path fill="#992685" d="M0 0h100v60H0z"/><path fill="#fff" d="M34.476 26.386c0-8.794 7.26-15.924 16.22-15.924 8.955 0 16.217 7.13 16.217 15.924s-7.262 15.923-16.218 15.923c-8.958 0-16.219-7.128-16.219-15.923m16.22 14.81c8.33 0 15.08-6.631 15.08-14.81s-6.752-14.81-15.08-14.81c-8.332 0-15.084 6.63-15.084 14.81s6.752 14.81 15.083 14.81"/><path fill="#fff" d="M55.166 23.65c2.576 3.832 1.458 8.96-2.495 11.454-3.952 2.495-9.242 1.413-11.816-2.417l2.453-1.6c1.673 2.488 5.108 3.192 7.675 1.572 2.565-1.62 3.292-4.95 1.62-7.437l2.563-1.57"/><path fill="#fff" d="M60.878 20.137c-2.58-3.83-7.872-4.904-11.82-2.406-3.949 2.5-5.06 7.63-2.48 11.458l2.497-1.534c-1.674-2.485-.953-5.815 1.611-7.44 2.564-1.623 6-.922 7.677 1.562zM56.142 48.022c.202-1.374 1.516-2.49 2.935-2.49s2.406 1.116 2.204 2.49c-.203 1.377-1.517 2.493-2.936 2.493s-2.406-1.116-2.203-2.493m2.332 1.62c.922 0 1.775-.725 1.908-1.62.132-.893-.51-1.62-1.43-1.62-.926 0-1.779.727-1.91 1.62-.132.895.51 1.62 1.432 1.62m-5.916-3.945h1.038l-.856 3.772h2.79l-.194.85h-3.828zm-6.656 2.288c.201-1.391 1.516-2.522 2.934-2.522 1.42 0 2.406 1.13 2.204 2.522-.2 1.395-1.517 2.526-2.937 2.526-1.418 0-2.405-1.13-2.2-2.526m2.33 1.642c.924 0 1.777-.734 1.91-1.642.13-.904-.51-1.64-1.434-1.64-.92 0-1.775.736-1.908 1.64-.13.908.51 1.642 1.433 1.642m-7.36-.693c.206.387 1.057.862 1.893.835.882-.026 1.198-.27 1.26-.68.021-.162.09-.532-.644-.617l-1.19-.128c-1.266-.162-1.47-.66-1.44-1.27.04-.84 1.121-1.487 2.284-1.501 1.024-.014 1.894.205 2.298.74l-.719.42c-.595-.456-1.13-.491-1.769-.453-.444.028-1.044.2-1.136.618-.064.295-.049.48.588.552l1.508.192c.694.077 1.274.71 1.22 1.252-.082.79-.794 1.726-2.499 1.645-1.304-.06-2.069-.554-2.419-1.172z"/></svg>