<svg xmlns="http://www.w3.org/2000/svg" width="100" height="60" fill="none"><path fill="#fff" d="M0 0h100v60H0z"/><path fill="#A58EDE" d="M40.005 24.552h-1.593a.724.724 0 0 0-.723.723l-.01 11.078c0 .193.075.374.212.511a.72.72 0 0 0 .51.214h1.595a.724.724 0 0 0 .723-.723l.009-11.078a.727.727 0 0 0-.723-.725M39.202 20.003c-.86.002-1.561.702-1.561 1.563 0 .424.168.822.473 1.119.294.285.678.441 1.088.441h.043a1.58 1.58 0 0 0 1.517-1.517 1.55 1.55 0 0 0-.441-1.133 1.55 1.55 0 0 0-1.12-.473M53.054 25.616c-.98-.862-2.286-1.34-3.68-1.34h-.015c-1.374 0-2.496.137-3.421.767a.7.7 0 0 0-.155-.264q-.21-.222-.584-.223h-1.46a.72.72 0 0 0-.724.722l-.01 11.131c0 .193.075.374.212.51a.72.72 0 0 0 .51.215h1.593a.72.72 0 0 0 .51-.211.71.71 0 0 0 .213-.51l.005-6.324c0-.814.294-1.564.824-2.113a2.7 2.7 0 0 1 1.957-.828h.003c.783 0 1.5.253 2.016.71.542.483.829 1.155.829 1.946l-.005 6.613c0 .397.324.723.723.724h1.594a.723.723 0 0 0 .724-.723l.004-6.944c0-1.564-.574-2.897-1.663-3.858M29.67 24.243h-.004a6.5 6.5 0 0 0-3.545 1.064v-.044a.727.727 0 0 0-.723-.723H23.2l-.005 6.09v.23l-.007 10.417c0 .194.074.375.21.512a.72.72 0 0 0 .512.214h1.613a.723.723 0 0 0 .725-.73l-.02-5.08a6.4 6.4 0 0 0 3.443.993c1.64 0 3.187-.607 4.4-1.737a6.49 6.49 0 0 0 2.065-4.73c0-1.726-.67-3.351-1.894-4.576a6.42 6.42 0 0 0-4.573-1.902zm3.568 6.704a3.576 3.576 0 0 1-3.344 3.34 3.55 3.55 0 0 1-2.68-.965 3.55 3.55 0 0 1-1.126-2.61 3.56 3.56 0 0 1 1.05-2.53 3.55 3.55 0 0 1 2.528-1.045h.005c.997 0 1.924.402 2.606 1.13a3.55 3.55 0 0 1 .961 2.68M68.59 24.596h-1.475a.726.726 0 0 0-.723.72v.039a6.4 6.4 0 0 0-3.553-1.067h-.004c-1.784 0-3.508.75-4.73 2.058a6.42 6.42 0 0 0-1.726 4.871c.221 3.196 2.796 5.774 5.99 6q.237.016.472.016a6.4 6.4 0 0 0 3.492-1.03c-.022 1.059-.381 1.862-1.074 2.383-.78.586-1.814.71-2.546.71h-.005c-1.23 0-2.392-.51-2.834-.73a.724.724 0 0 0-.967.323l-.518 1.035a.725.725 0 0 0 .313.966c.633.327 2.3 1.088 4.146 1.088h.008v.003c1.71 0 3.268-.469 4.389-1.32 1.347-1.023 2.06-2.575 2.06-4.488l.008-10.853c0-.4-.324-.724-.723-.724m-2.181 6.397a3.576 3.576 0 0 1-3.345 3.34 3.56 3.56 0 0 1-2.679-.966 3.55 3.55 0 0 1-1.127-2.61 3.56 3.56 0 0 1 1.05-2.529 3.55 3.55 0 0 1 2.528-1.046h.005c.997 0 1.924.403 2.606 1.13a3.55 3.55 0 0 1 .962 2.68M62.842 37.233h-.003zM87.55 26.165a6.42 6.42 0 0 0-4.573-1.896h-5.5a6.2 6.2 0 0 0-4.522 1.918c-1.163 1.21-1.804 2.827-1.804 4.552 0 3.628 2.779 6.47 6.325 6.47h-.001l5.5.002a6.48 6.48 0 0 0 6.472-6.471c0-1.727-.674-3.351-1.897-4.575m-4.574 8.183h-5.501c-1.94 0-3.462-1.585-3.462-3.608 0-.983.357-1.894 1.006-2.57a3.37 3.37 0 0 1 2.456-1.039h5.5a3.6 3.6 0 0 1 2.55 1.06 3.58 3.58 0 0 1 1.059 2.549 3.614 3.614 0 0 1-3.608 3.608"/><path fill="#A58EDE" d="M82.977 28.578c-.574 0-1.113.223-1.519.628s-.63.943-.63 1.517a2.15 2.15 0 0 0 2.148 2.147l.084-.002a2.154 2.154 0 0 0 2.063-2.06 2.13 2.13 0 0 0-.599-1.572 2.13 2.13 0 0 0-1.547-.659M16.14 28.978l-.011-.003c-2.253-.607-2.614-.87-2.614-1.404 0-.749.801-1.234 2.041-1.234.996 0 1.755.306 2.254.909.386.465 1.124.614 1.716.345l.478-.217c.33-.15.572-.415.664-.726a1.02 1.02 0 0 0-.2-.942c-1.103-1.35-2.848-2.093-4.913-2.093-3.075 0-5.307 1.678-5.307 3.99 0 2.657 2.839 3.408 5.122 4.012l.067.018c2.394.62 2.815.982 2.815 1.517 0 1.187-1.677 1.316-2.399 1.316-1.372 0-2.365-.388-2.871-1.121-.36-.522-1.112-.709-1.748-.436l-.5.216c-.321.138-.565.385-.672.68-.113.31-.068.645.123.924 1.073 1.563 3.138 2.459 5.667 2.459h.001c3.387.002 5.664-1.627 5.664-4.053 0-2.709-2.98-3.512-5.376-4.157"/></svg>