<svg width="100" height="60" xmlns="http://www.w3.org/2000/svg">
<style type="text/css">
	.st0{fill-rule:evenodd;clip-rule:evenodd;fill:#1D1D1B;}
	.st1{fill:#FFFFFF;}
	.st2{fill:#24B8C9;}
</style>
<g>
	<path class="st0" d="M4,0h92c2.2,0,4,1.8,4,4v52c0,2.2-1.8,4-4,4H4c-2.2,0-4-1.8-4-4V4C0,1.8,1.8,0,4,0z"/>
</g>
<path class="st1" d="M68,17.8c1.1,0,2.1,0,3.2,0c0.5,0,1,0,1.5,0c0.4,0,0.9,0,1.3,0c0.2,0,0.5,0,0.7,0c0.2,0,0.4,0,0.6,0
	c0.1,0,0.2,0,0.2,0c0.7,0,1.3,0.1,1.9,0.5c0,0,0.1,0.1,0.1,0.1c0.1,0.1,0.2,0.2,0.3,0.4c0,0,0.1,0.1,0.1,0.1
	c0.2,0.4,0.3,0.8,0.4,1.3c0,0.1,0,0.1,0,0.2c0,0.2,0,0.3,0.1,0.5c0,0.2,0.1,0.3,0.1,0.5c0.1,0.4,0.1,0.7,0.2,1.1
	c0.1,0.3,0.1,0.7,0.2,1c0,0.1,0,0.1,0,0.2c0,0.1,0,0.2,0.1,0.3c0.2,1.3,0.4,2.5,0.6,3.8c0.1,0.8,0.2,1.6,0.4,2.4
	c0,0.1,0,0.2,0.1,0.4c0,0.1,0,0.1,0,0.2c0.1,0.3,0.1,0.7,0.2,1c0,0.2,0.1,0.4,0.1,0.6c0,0.1,0,0.2,0,0.3c0,0.1,0,0.3,0.1,0.4
	c0,0.1,0,0.1,0,0.1c0,0.2,0.1,0.4,0.1,0.6c0.1-0.1,0.1-0.2,0.2-0.3c0-0.1,0-0.1,0.1-0.2c0,0,0-0.1,0-0.1c0.1-0.1,0.1-0.3,0.2-0.4
	c0-0.1,0.1-0.1,0.1-0.2c0.2-0.4,0.3-0.8,0.5-1.2c0-0.1,0.1-0.2,0.1-0.2c0.3-0.6,0.5-1.2,0.8-1.8c0.2-0.6,0.5-1.1,0.7-1.7
	c0.2-0.5,0.5-1.1,0.7-1.6c0.2-0.5,0.5-1,0.7-1.5c0.3-0.6,0.5-1.2,0.8-1.8c0.2-0.5,0.4-1,0.6-1.4c0.1-0.2,0.2-0.4,0.3-0.7
	c0-0.1,0.1-0.2,0.1-0.3c0.2-0.4,0.4-0.8,0.7-1.2c0-0.1,0-0.1,0.1-0.1c0.8-0.8,1.9-1,2.9-1c0.1,0,0.2,0,0.2,0c0.2,0,0.4,0,0.7,0
	c0.2,0,0.5,0,0.7,0c0.4,0,0.9,0,1.3,0c0.5,0,1,0,1.5,0c1,0,2.1,0,3.1,0c0,0.2-0.1,0.3-0.2,0.5c0,0,0,0.1,0,0.1
	c0,0.1-0.1,0.2-0.1,0.3c0,0.1-0.1,0.1-0.1,0.2c-0.2,0.4-0.4,0.8-0.6,1.2c-0.2,0.3-0.3,0.6-0.5,0.9c-0.2,0.4-0.4,0.7-0.6,1.1
	c-0.2,0.4-0.4,0.7-0.6,1.1c-0.2,0.4-0.4,0.8-0.7,1.2c-0.2,0.3-0.3,0.6-0.5,0.9c-0.2,0.4-0.4,0.7-0.6,1.1c-0.2,0.4-0.4,0.7-0.6,1.1
	c-0.2,0.4-0.4,0.8-0.7,1.2c-0.2,0.3-0.3,0.6-0.5,0.9c-0.2,0.4-0.4,0.8-0.6,1.2c-0.2,0.4-0.4,0.7-0.6,1.1c-0.2,0.3-0.3,0.6-0.5,0.9
	c-0.2,0.4-0.4,0.7-0.6,1.1c-0.2,0.4-0.4,0.8-0.7,1.2c-0.2,0.3-0.3,0.6-0.5,0.9c-0.2,0.4-0.4,0.7-0.6,1.1c-0.2,0.4-0.4,0.7-0.6,1.1
	c-0.2,0.4-0.4,0.8-0.7,1.2c-0.2,0.3-0.3,0.6-0.5,0.9c-0.2,0.4-0.4,0.8-0.6,1.2c-0.2,0.4-0.4,0.7-0.6,1.1c-0.2,0.3-0.3,0.6-0.5,0.9
	c-0.2,0.4-0.4,0.7-0.6,1.1c-0.3,0.5-0.5,1-0.8,1.5c-0.1,0.1-0.1,0.2-0.2,0.3c-0.4,0.8-0.9,1.6-1.5,2.3c0,0-0.1,0.1-0.1,0.1
	c-0.2,0.3-0.5,0.6-0.7,0.8c-0.1,0.1-0.2,0.2-0.3,0.4c-0.2,0.3-0.5,0.5-0.8,0.8c0,0-0.1,0-0.1,0.1c-1.9,1.7-4.3,2.8-6.8,3.1
	c0,0,0,0-0.1,0c-0.4,0-0.8,0-1.2,0c-0.1,0-0.2,0-0.3,0c-0.2,0-0.5,0-0.7,0c-0.2,0-0.5,0-0.7,0c-0.5,0-0.9,0-1.4,0c-0.5,0-1,0-1.6,0
	c-1.1,0-2.1,0-3.2,0c0.1-0.4,0.1-0.8,0.2-1.2c0-0.1,0-0.1,0-0.2c0.1-0.5,0.2-0.9,0.2-1.4c0.1-0.3,0.1-0.6,0.2-0.9
	c0-0.3,0.1-0.6,0.1-0.9c0-0.1,0-0.2,0.1-0.3c0.3-1.8,0.3-1.8,0.9-2.4c0,0,0,0,0.1-0.1c0.3-0.3,0.7-0.5,1.1-0.6c0.1,0,0.1,0,0.2,0
	c0,0,0.1,0,0.1,0c0,0,0.1,0,0.1,0c0,0,0.1,0,0.1,0c0.1,0,0.2,0,0.3,0c0.2,0,0.3,0,0.5,0c0.5,0,1,0,1.4,0c0.3,0,0.6,0,0.9,0
	c0.1,0,0.2,0,0.3,0c1.4,0,2.5-0.3,3.6-1.3c0,0,0.1-0.1,0.1-0.1c0.7-0.6,1.1-1.6,1.2-2.5c0-0.8-0.2-1.5-0.5-2.3
	c0-0.1-0.1-0.2-0.1-0.3c-0.1-0.2-0.1-0.5-0.2-0.7c-0.1-0.4-0.2-0.7-0.3-1.1c0-0.1-0.1-0.2-0.1-0.3c0-0.1,0-0.1-0.1-0.2
	c-0.1-0.2-0.1-0.5-0.2-0.7c-0.3-0.9-0.5-1.9-0.8-2.8c0,0,0-0.1,0-0.1c-0.1-0.4-0.2-0.8-0.3-1.2c-0.1-0.4-0.2-0.7-0.3-1.1
	c0-0.1-0.1-0.2-0.1-0.3c0-0.1,0-0.1-0.1-0.2c-0.1-0.2-0.1-0.5-0.2-0.7c-0.3-1.1-0.6-2.2-1-3.4c-0.1-0.2-0.1-0.4-0.2-0.6
	c0,0,0-0.1,0-0.1c-0.2-0.5-0.3-1.1-0.5-1.6c0-0.1,0-0.1,0-0.1c-0.1-0.3-0.2-0.6-0.3-0.9c-0.2-0.7-0.4-1.5-0.6-2.2
	c-0.1-0.4-0.2-0.8-0.3-1.2c-0.1-0.3-0.2-0.5-0.2-0.8c0-0.2-0.1-0.3-0.1-0.5c0-0.1,0-0.1-0.1-0.2c0-0.1-0.1-0.2-0.1-0.3
	c0-0.1,0-0.1,0-0.2C68,17.9,68,17.9,68,17.8z"/>
<path class="st1" d="M10.2,10.9c0.7,0,1.4,0,2.1,0c0.3,0,0.7,0,1,0c0.3,0,0.6,0,0.9,0c0.1,0,0.2,0,0.4,0c0.9,0,1.9,0,2.7,0.6
	c0.5,0.5,0.7,1.1,0.7,1.8c0,0.9-0.2,1.7-0.4,2.6c-0.1,0.6-0.2,1.3-0.4,1.9c1.7,0,3.5,0,5.2,0c-0.1,0.5-0.1,0.5-0.1,0.7
	c0,0.1,0,0.1,0,0.2c0,0.1,0,0.1,0,0.2c0,0.1,0,0.1,0,0.2c0,0.2-0.1,0.3-0.1,0.5c0,0.2-0.1,0.3-0.1,0.5c-0.1,0.3-0.1,0.6-0.2,1
	c-0.1,0.4-0.2,0.9-0.2,1.3c-0.1,0.7-0.2,1.4-0.4,2.1c-1.7,0-3.5,0-5.3,0c0,0.2-0.1,0.4-0.1,0.7c0,0.1,0,0.2-0.1,0.4c0,0,0,0,0,0.1
	c0,0.1,0,0.2-0.1,0.3c0,0.1,0,0.1,0,0.2c0,0.2-0.1,0.3-0.1,0.5c0,0.2-0.1,0.5-0.1,0.7c-0.1,0.7-0.2,1.4-0.4,2.1
	c-0.1,0.4-0.1,0.8-0.2,1.2c0,0.2-0.1,0.4-0.1,0.6c0,0.2-0.1,0.4-0.1,0.6c0,0.1,0,0.1,0,0.2c-0.2,0.9-0.2,1.7,0.3,2.6
	c0.5,0.7,1.4,1,2.2,1.1c0.7,0.1,1.4,0.1,2,0.1c-0.1,0.7-0.2,1.4-0.3,2.1c0,0.2-0.1,0.4-0.1,0.5c-0.1,0.3-0.1,0.6-0.2,0.9
	c-0.1,0.3-0.1,0.7-0.2,1c-0.1,0.4-0.1,0.7-0.2,1.1c0,0.1,0,0.2-0.1,0.3c0,0.2-0.1,0.3-0.1,0.5c0,0.1,0,0.2,0,0.3c0,0.1,0,0.1,0,0.2
	c0,0.1,0,0.1,0,0.1c0,0.1,0,0.2-0.1,0.3c-0.6,0.1-1.2,0.1-1.7,0.1c0,0-0.1,0-0.1,0c-3,0-6.1-0.6-8.4-2.7C6.5,39.2,6,37.4,6,35.6
	c0-1.2,0.3-2.5,0.5-3.7c0-0.2,0.1-0.5,0.1-0.7c0.1-0.5,0.2-0.9,0.2-1.4c0.1-0.5,0.2-1,0.3-1.6c0.1-0.8,0.3-1.6,0.4-2.4
	c0,0,0-0.1,0-0.1c0-0.1,0-0.2,0.1-0.3c0,0,0-0.1,0-0.1c0-0.3,0.1-0.5,0.1-0.8c-1.2,0-2.5,0-3.8,0c0-0.4,0.1-0.8,0.1-1.2
	c0-0.1,0-0.1,0-0.2c0-0.2,0.1-0.3,0.1-0.5c0-0.2,0.1-0.3,0.1-0.5c0-0.3,0.1-0.5,0.1-0.8c0.1-0.3,0.1-0.6,0.2-0.9
	c0.1-0.3,0.1-0.6,0.2-0.9c0-0.1,0-0.3,0.1-0.4C5,18.8,5,18.7,5,18.5c0-0.1,0-0.1,0-0.2c0,0,0-0.1,0-0.1c0,0,0-0.1,0-0.1
	c0-0.1,0-0.1,0.1-0.2c1.2,0,2.5,0,3.8,0c0.1-0.5,0.2-1,0.3-1.5c0.1-0.3,0.1-0.6,0.2-0.9c0.1-0.5,0.2-1,0.3-1.4
	c0.1-0.4,0.1-0.7,0.2-1.1c0-0.2,0.1-0.4,0.1-0.6c0-0.2,0.1-0.4,0.1-0.5c0-0.1,0-0.1,0-0.2c0-0.1,0-0.2,0-0.3c0-0.1,0-0.1,0-0.1
	C10.1,11.1,10.2,11,10.2,10.9z"/>
<path class="st1" d="M42.5,17.6c-0.1,0.5-0.1,1-0.2,1.5c0,0.1,0,0.1,0,0.2c0,0.2-0.1,0.4-0.1,0.6c0,0.2-0.1,0.4-0.1,0.6
	c-0.1,0.3-0.1,0.7-0.2,1c-0.1,0.4-0.1,0.8-0.2,1.2c-0.1,0.4-0.1,0.8-0.2,1.2c0,0.2-0.1,0.3-0.1,0.5c0,0.2-0.1,0.4-0.1,0.6
	c0,0.1,0,0.1,0,0.2c0,0.1,0,0.2-0.1,0.3c0,0.1,0,0.1,0,0.2c0,0.1,0,0.1-0.1,0.3c0,0-0.1,0-0.1,0c-2.2-0.3-4.6,0.1-6.4,1.4
	c-0.3,0.2-0.5,0.4-0.7,0.6c0,0-0.1,0.1-0.1,0.1c-1.5,1.5-2.2,3.6-2.5,5.6c0,0.1,0,0.1,0,0.1c-0.4,1.9-0.7,3.9-1,5.8
	c-0.1,0.4-0.1,0.8-0.2,1.2c0,0.3-0.1,0.5-0.1,0.8c0,0.2-0.1,0.3-0.1,0.5c0,0.1,0,0.1,0,0.2c0,0.1,0,0.2-0.1,0.3c0,0.1,0,0.1,0,0.2
	c0,0.1,0,0.1-0.1,0.2c-0.1,0-0.2,0-0.3,0c-0.1,0-0.1,0-0.1,0c-0.1,0-0.2,0-0.3,0c-0.1,0-0.2,0-0.2,0c-0.2,0-0.5,0-0.7,0
	c-0.2,0-0.5,0-0.7,0c-0.4,0-0.9,0-1.3,0c-0.5,0-1,0-1.5,0c-1,0-2.1,0-3.1,0c0.1-0.5,0.1-0.9,0.2-1.4c0-0.1,0-0.1,0-0.2
	c0-0.1,0-0.2,0.1-0.4c0-0.2,0.1-0.4,0.1-0.6c0.1-0.3,0.1-0.6,0.2-0.9c0.1-0.5,0.2-1,0.3-1.5c0-0.1,0-0.2,0-0.3c0-0.1,0-0.3,0.1-0.4
	c0.1-0.3,0.1-0.6,0.2-0.9c0.3-1.9,0.7-3.8,1-5.8c0-0.1,0-0.2,0-0.2c0.2-0.9,0.3-1.8,0.5-2.7c0.2-1.3,0.4-2.5,0.7-3.8
	c0.1-0.4,0.1-0.8,0.2-1.3c0.3-1.6,0.6-3.2,0.8-4.8c0.6,0,1.2,0,1.8,0c0.4,0,0.8,0,1.1,0c0.3,0,0.6,0,0.9,0c0.1,0,0.2,0,0.3,0
	c2.1,0,2.1,0,2.8,0.7c0.5,0.4,0.6,0.9,0.6,1.6c0,0.7-0.1,1.3-0.2,2c0,0.2-0.1,0.3-0.1,0.5c0,0.1,0,0.2-0.1,0.3c0,0,0,0.1,0,0.1
	c0,0.1,0,0.1,0,0.1c0,0.1,0,0.1,0,0.3c0,0,0,0,0-0.1c0.3-0.6,0.7-1.1,1.1-1.7c0,0,0-0.1,0.1-0.1c0.5-0.7,1.1-1.3,1.8-1.8
	c0,0,0.1,0,0.1-0.1c1.4-1.1,3.1-1.9,4.9-2.1c0.1,0,0.1,0,0.2,0C41.4,17.5,42,17.6,42.5,17.6z M32.5,23.5
	C32.6,23.6,32.6,23.6,32.5,23.5L32.5,23.5z"/>
<path class="st2" d="M58.9,18.1c0.1,0,0.1,0,0.2,0c0,0,0.1,0,0.1,0c1.7,0.4,3.4,1.5,4.7,2.7C64,21,64,21,64.1,21.1
	c0.2,0.2,0.4,0.4,0.6,0.6c0.1,0.1,0.2,0.2,0.3,0.3c1.5,1.6,2.4,3.7,2.9,5.9c0,0.1,0,0.1,0,0.1c0.2,0.8,0.2,1.5,0.2,2.3
	c0,0.1,0,0.1,0,0.1c0,0.7,0,1.3-0.2,2c0,0,0,0.1,0,0.1c-0.2,1-0.5,2-0.9,3c0,0,0,0.1,0,0.1c-0.5,1.1-1.2,2.1-2,3
	c0,0-0.1,0.1-0.1,0.1c-0.5,0.5-0.9,1-1.5,1.4c-0.1,0-0.1,0.1-0.2,0.1c-1.8,1.4-3.9,2.3-6.1,2.6c0,0-0.1,0-0.1,0
	c-0.8,0.1-1.6,0.1-2.3,0.1c-0.1-0.2,0-0.3,0-0.4c0,0,0-0.1,0-0.1c0-0.1,0-0.2,0.1-0.3c0-0.1,0-0.1,0-0.2c0-0.2,0.1-0.4,0.1-0.6
	c0-0.2,0.1-0.4,0.1-0.6c0.1-0.4,0.1-0.7,0.2-1.1c0.1-0.4,0.1-0.8,0.2-1.2c0.1-0.4,0.2-0.9,0.2-1.3c0-0.1,0-0.2,0.1-0.4
	c0-0.2,0.1-0.4,0.1-0.6c0-0.1,0-0.1,0-0.2c0-0.1,0-0.2,0.1-0.3c0-0.1,0-0.1,0-0.2c0-0.1,0-0.1,0.1-0.2c0.1,0,0.1,0,0.2,0
	c0,0,0.1,0,0.1,0c0.1,0,0.1,0,0.1,0c1.3-0.3,2.4-1,3.2-2.1c0.7-1.2,1-2.6,0.7-3.9c-0.2-0.8-0.6-1.6-1.1-2.2c0,0-0.1-0.1-0.1-0.1
	c-0.4-0.5-0.9-0.8-1.5-1.1c0-0.4,0.1-0.8,0.2-1.2c0-0.1,0-0.1,0-0.2c0-0.2,0.1-0.4,0.1-0.6c0-0.2,0.1-0.4,0.1-0.6
	c0.1-0.4,0.1-0.8,0.2-1.1c0.1-0.4,0.2-0.9,0.2-1.3C58.6,19.9,58.8,19,58.9,18.1z"/>
<path class="st2" d="M55.2,17.6c0.1,0,0.2,0,0.3,0c0.2,0,0.4,0,0.6,0c-0.1,0.5-0.1,0.9-0.2,1.4c0,0.1,0,0.1,0,0.2
	c0,0.2-0.1,0.4-0.1,0.5c0,0.1,0,0.2-0.1,0.3c-0.1,0.4-0.1,0.8-0.2,1.2c-0.1,0.4-0.1,0.7-0.2,1.1c-0.1,0.3-0.1,0.6-0.2,1
	c0,0.2-0.1,0.4-0.1,0.6c0,0.2-0.1,0.4-0.1,0.5c0,0.1,0,0.1,0,0.2c0,0.1,0,0.2,0,0.3c0,0.1,0,0.1,0,0.2c0,0.1,0,0.1-0.1,0.2
	c-0.1,0-0.3,0.1-0.4,0.1c-0.9,0.2-1.6,0.6-2.3,1.1c0,0-0.1,0-0.1,0.1c-0.9,0.7-1.5,2-1.7,3.2c-0.1,0.7,0,1.4,0.2,2.1
	c0,0,0,0.1,0,0.1c0.2,0.7,0.6,1.3,1.1,1.9c0,0,0.1,0.1,0.1,0.1c0.4,0.4,0.8,0.7,1.3,1c0,0.4-0.1,0.8-0.2,1.2c0,0.1,0,0.1,0,0.2
	c0,0.2-0.1,0.4-0.1,0.6c0,0.2-0.1,0.4-0.1,0.6c-0.1,0.4-0.1,0.8-0.2,1.1c-0.1,0.4-0.2,0.9-0.2,1.3c-0.2,0.9-0.3,1.8-0.5,2.7
	c-0.1,0-0.2-0.1-0.3-0.1c-0.1,0-0.1,0-0.2,0c-0.2-0.1-0.5-0.2-0.7-0.3c0,0-0.1,0-0.1-0.1c-1-0.4-2-1-2.9-1.7c0,0-0.1-0.1-0.1-0.1
	c-0.7-0.6-1.3-1.2-1.9-1.9c0-0.1-0.1-0.1-0.1-0.2c-0.5-0.6-0.9-1.3-1.3-2c0,0,0-0.1-0.1-0.1c-1.6-3-1.8-6.6-0.8-9.8
	c0.5-1.4,1.2-2.8,2.1-4c0.1-0.1,0.1-0.1,0.2-0.2c0.6-0.7,1.3-1.4,2-2c0.1-0.1,0.2-0.1,0.3-0.2C49.8,18.4,52.5,17.6,55.2,17.6z"/>
<path class="st1" d="M97.1,42.1c0.6,0.6,0.7,1.3,0.7,2.2c0,0.3-0.1,0.6-0.2,0.9c0,0,0,0.1-0.1,0.1c-0.2,0.3-0.4,0.5-0.6,0.8
	c0,0,0,0-0.1,0.1c-0.5,0.5-1.3,0.7-2,0.6c-0.8-0.1-1.4-0.4-2-1c-0.5-0.7-0.7-1.5-0.5-2.3c0.2-0.7,0.6-1.3,1.2-1.7
	C94.7,41,96.1,41.2,97.1,42.1z M93.6,42.3c-0.1,0-0.1,0-0.1,0.1c-0.4,0.4-0.7,0.9-0.7,1.5c0,0.6,0.2,1.1,0.5,1.7
	c0.5,0.5,1,0.8,1.7,0.8c0.7,0,1.2-0.2,1.7-0.7c0.5-0.5,0.6-1.1,0.6-1.8c0-0.6-0.3-1.1-0.7-1.5C95.7,41.6,94.5,41.5,93.6,42.3z"/>
<path class="st1" d="M94.2,42.5c1.5,0,1.5,0,1.8,0.3c0.2,0.3,0.2,0.5,0.2,0.8c0,0.2-0.1,0.3-0.3,0.5c-0.1,0-0.2,0.1-0.2,0.1
	c0.1,0.2,0.1,0.3,0.2,0.5c0,0,0,0.1,0.1,0.1c0,0.1,0.1,0.2,0.1,0.3c0,0,0,0.1,0.1,0.1c0,0,0,0.1,0.1,0.1c0,0.1,0,0.1,0,0.2
	c-0.2,0.1-0.3,0.1-0.5,0c-0.2-0.2-0.3-0.5-0.4-0.7c0-0.1-0.1-0.2-0.2-0.3c-0.1-0.1-0.1-0.1-0.1-0.2c-0.1,0-0.3,0-0.4,0
	c0,0.4,0,0.8,0,1.2c-0.1,0-0.3,0-0.4,0C94.2,44.5,94.2,43.6,94.2,42.5z M94.6,43c0,0.3,0,0.7,0,1c0.5,0,0.5,0,0.9-0.1
	c0.1-0.2,0.1-0.2,0.1-0.4c-0.1-0.2-0.2-0.3-0.4-0.4c-0.1,0-0.2,0-0.4,0C94.9,43,94.7,43,94.6,43z"/>
</svg>
