<svg xmlns="http://www.w3.org/2000/svg" width="100" height="60" fill="none"><path fill="#fff" d="M0 0h100v60H0z"/><path fill="#000008" d="M34.506 26.891v7.994h2.165V26.89h3.523v-1.91h-9.21v1.91zm5.149.495v7.499h2.094V31.46c0-.764.155-1.33.467-1.712.31-.382.764-.58 1.344-.58.34 0 .707.056 1.09.156l.438-1.882c-.453-.128-.863-.198-1.231-.198-.92 0-1.655.297-2.207.863h-.029v-.722zm6.076 4.287c0 1.09.297 1.938.891 2.533q.892.891 2.504.891c1.047 0 1.882-.297 2.533-.92h.028v.708h2.023v-7.499h-2.094v3.976c0 .538-.184.99-.551 1.33q-.552.51-1.401.51c-.594 0-1.061-.157-1.372-.468s-.467-.778-.467-1.372v-3.976H45.73zm9.101-.523c0 .792.156 1.485.495 2.08a3.45 3.45 0 0 0 1.458 1.386c.622.325 1.372.481 2.25.481q1.166 0 2.037-.382a4.6 4.6 0 0 0 1.556-1.132l-1.302-1.301q-.573.594-1.103.848c-.354.184-.75.27-1.203.27-.622 0-1.132-.142-1.5-.425a1.5 1.5 0 0 1-.622-1.175h6.084v-.594c0-.75-.17-1.429-.496-2.051a3.7 3.7 0 0 0-1.429-1.443c-.622-.354-1.33-.538-2.15-.538-.792 0-1.486.17-2.108.51s-1.104.82-1.443 1.414c-.354.609-.524 1.288-.524 2.052m6.112-.82h-4.018a1.5 1.5 0 0 1 .623-1.062c.368-.255.834-.396 1.4-.396.552 0 1.005.141 1.373.396.368.269.566.622.622 1.061m3.35.749c0 1.33.382 2.32 1.16 3 .779.678 1.882 1.018 3.325 1.018q2.145 0 3.311-1.019c.778-.679 1.174-1.67 1.174-3v-6.097H71.1v6.013c0 .764-.198 1.316-.58 1.67-.397.367-.977.537-1.74.537-.779 0-1.359-.17-1.74-.538-.397-.353-.581-.92-.581-1.683V24.98h-2.165zm10.14.538c.184 1.117.694 1.98 1.529 2.574.834.609 1.924.906 3.254.906.834 0 1.57-.113 2.193-.354.622-.24 1.117-.58 1.457-1.032q.51-.68.51-1.571c0-.835-.312-1.514-.935-2.023-.622-.51-1.598-.92-2.928-1.217-.736-.155-1.302-.297-1.684-.424-.382-.113-.637-.24-.778-.368a.6.6 0 0 1-.212-.453c0-.297.155-.538.48-.736.326-.198.75-.297 1.26-.297.608 0 1.118.142 1.514.41.396.284.679.68.849 1.217l2.094-.495c-.227-.905-.75-1.627-1.543-2.165-.806-.537-1.768-.806-2.9-.806-.778 0-1.457.127-2.051.382s-1.062.608-1.387 1.047-.48.92-.48 1.457c0 .75.282 1.358.876 1.825q.89.701 2.929 1.146c.722.17 1.287.326 1.684.467.396.142.664.297.82.467.142.17.227.354.227.58 0 .368-.184.637-.524.835s-.835.283-1.457.283c-.778 0-1.387-.156-1.811-.495-.425-.34-.722-.863-.863-1.585zM84.62 24.98v9.904h4.032c1.557 0 2.773-.41 3.679-1.245.905-.82 1.358-2.066 1.358-3.707 0-1.075-.212-1.98-.622-2.716-.425-.736-1.005-1.302-1.755-1.67s-1.627-.566-2.631-.566zm3.99 8.008h-1.825v-6.112h1.825c.962 0 1.683.255 2.179.75.48.51.735 1.273.735 2.306 0 1.075-.254 1.853-.735 2.334-.496.481-1.217.722-2.18.722"/><path fill="#1B5AFE" d="M16.31 40c5.524 0 10-4.477 10-10s-4.476-10-10-10c-5.522 0-10 4.477-10 10s4.478 10 10 10"/><path fill="#fff" d="M11.232 28.575v-3.407h3.407a3.407 3.407 0 0 1-3.407 3.407M14.639 28.542v6.86l3.372.004v-6.86h3.377v-3.374h-3.464l-.086.004-.085.006h-.007l-.078.008-.085.01-.084.011a3 3 0 0 0-.166.03l-.081.017a3 3 0 0 0-.161.042l-.08.024-.093.031-.062.022-.115.045-.038.016-.075.032-.075.035q-.037.018-.073.037l-.072.038a2 2 0 0 0-.142.082l-.069.043q-.034.022-.068.045l-.132.094-.05.038-.014.012a2 2 0 0 0-.106.086l-.02.017-.06.053-.06.056-.057.056-.057.058-.055.06-.054.06-.039.045-.013.017a2 2 0 0 0-.101.127l-.048.065-.046.067a3 3 0 0 0-.088.137l-.031.051-.011.019-.04.071-.039.072-.036.074-.018.037-.017.037-.032.075-.016.038-.016.038-.03.077a2 2 0 0 0-.052.156l-.024.08-.01.04q-.007.02-.012.04l-.02.08a3 3 0 0 0-.059.331l-.01.085-.008.085-.005.086q-.003.042-.003.086z"/></svg>