<svg xmlns="http://www.w3.org/2000/svg" width="100" height="60" fill="none" viewBox="0 0 100 60">
   <path fill="#1A1A1A" d="M0 0h100v60H0z"/>
   <path fill="#fff" d="M73.17 41.72h-4.7l6.5-23.6h4.71z"/>
   <path fill="#fff" d="M70.7 18.84q-.47-.64-1.5-.65H43.35l-1.27 4.63h23.48l-1.35 4.93H45.44v-.03h-4.7l-3.9 14.12h4.67l2.62-9.5h21.13a3.25 3.25 0 0 0 3.05-2.32l2.58-9.44q.32-1.04-.2-1.74"/>
   <path fill="#fff" d="M34.07 40.25a2.1 2.1 0 0 1-2.05 1.59H7.77q-1 0-1.46-.7c-.35-.46-.39-1-.24-1.66l5.94-21.3h4.7L11.44 37.2h18.78l5.32-19.01h4.67z"/>
   <path fill="#028C45" d="M87.78 18.15 93.76 30 81.22 41.84z"/>
   <path fill="#F47920" d="M83.62 18.15 89.55 30 77.06 41.84z"/>
</svg>
