<svg xmlns="http://www.w3.org/2000/svg" width="100" height="60" fill="none"><path fill="#fff" d="M0 0h100v60H0z"/><path fill="#008CFF" d="M80.086 33.444c-.822 0-1.172-.77-1.172-2.015 0-1.64.374-4.848 2.195-4.848.822 0 1.097.746 1.097 1.84 0 1.64-.4 5.023-2.12 5.023m1.547-10.395c-5.163 0-7.407 3.955-7.407 8.182 0 3.207 1.296 5.769 5.212 5.769 5.287 0 7.507-4.326 7.507-8.504 0-3.159-1.422-5.447-5.312-5.447m-11.802 0c-1.72 0-2.968.523-4.289 1.467-.475-.845-1.422-1.467-2.869-1.466-1.67 0-2.917.672-3.84 1.342l-.124-1.119h-3.967l-2.119 13.404h4.638l1.472-9.4c.4-.199.997-.472 1.596-.472.448 0 .823.149.823.821 0 .173-.05.447-.074.67l-1.322 8.38h4.614l1.47-9.399c.425-.224.999-.472 1.571-.472.45 0 .825.149.825.821 0 .173-.052.447-.076.67l-1.321 8.38h4.614l1.42-8.952c.076-.471.151-1.192.151-1.69 0-1.79-.824-2.985-3.193-2.985m-21.154 0c-1.77 0-3.017.673-3.965 1.294l-.05-1.07h-4.016l-2.12 13.403h4.64l1.471-9.399c.4-.199.998-.472 1.596-.472.45 0 .824.149.824.746 0 .248-.076.696-.1.919l-1.297 8.206h4.613l1.422-8.952c.075-.471.151-1.192.151-1.69 0-1.79-.824-2.985-3.169-2.985m-17.336 5.645c.124-1.492 1.27-2.535 2.144-2.535.499 0 .922.297.922.894 0 1.243-2.195 1.64-3.066 1.64m2.593-5.645c-4.938 0-7.333 4.278-7.333 8.306 0 3.108 1.472 5.595 5.587 5.595 1.621 0 3.292-.349 4.365-.87l.573-3.88c-1.522.771-2.693 1.07-3.915 1.07-1.123 0-1.97-.596-1.97-2.114 2.544-.025 6.932-1.069 6.932-4.476 0-2.113-1.52-3.63-4.239-3.63m-13.049.821c.274.573.45 1.268.45 2.289 0 1.864-1.323 4.6-2.395 6.34l-1.147-9.201-4.738.448 2.17 12.93h5.41c2.37-3.108 5.289-7.534 5.289-10.941 0-1.068-.225-1.914-.724-2.735z"/></svg>