<svg xmlns="http://www.w3.org/2000/svg" width="100" height="60" fill="none"><path fill="#fff" d="M0 0h100v60H0z"/><path fill="#B6004F" d="M37.66 19.24h37.68c3.79 0 6.94 1.22 9.6 3.71a12 12 0 0 1 3.93 8.97c-.04 3.5-1.31 6.4-3.93 8.9a13.5 13.5 0 0 1-9.6 3.74H37.66a.54.54 0 0 0-.54.55c0 .3.24.55.54.55h37.68a14.6 14.6 0 0 0 10.33-4.04 13 13 0 0 0 4.28-9.7 13 13 0 0 0-4.28-9.78q-4.28-4-10.33-4H37.66a.54.54 0 0 0-.54.55c0 .3.24.55.54.55"/><path fill="#B6004F" d="M34.32 18.94a14 14 0 0 1 5.12 5.16 14.8 14.8 0 0 1 0 14.57 14.5 14.5 0 0 1-5.12 5.2 14.07 14.07 0 0 1-19.4-5.2 14 14 0 0 1-1.95-7.28 14.5 14.5 0 0 1 7.04-12.45 14 14 0 0 1 7.14-1.98q3.97.06 7.17 1.98m-7.18-4.91q-4.75.03-8.63 2.36a18 18 0 0 0-6.13 6.23 17.4 17.4 0 0 0-2.34 8.77q.04 4.83 2.34 8.77a18.5 18.5 0 0 0 6.13 6.29 17.5 17.5 0 0 0 8.63 2.37q4.8-.05 8.68-2.37a18 18 0 0 0 6.16-6.3 18 18 0 0 0 2.34-8.76q-.04-4.84-2.34-8.77a18 18 0 0 0-6.16-6.23 17 17 0 0 0-8.68-2.36m21.5 12.34h1.18l1.25 3.5 1.29-3.5h1.15l-1.95 4.98h-.94zm13.61 1.16h1.08v3.79h-1.08zm-.03-1.38h1.1v.96h-1.1zm-3.35 1.38h1.05v.75q.17-.38.45-.6.26-.27.73-.22v1.13h-.03q-.59 0-.84.32-.3.33-.31 1.03v1.38h-1.05zm-2.26 1.6a1.05 1.05 0 0 0-.25-.6.7.7 0 0 0-.52-.22.7.7 0 0 0-.56.21q-.21.25-.27.6zm-.7 2.3a2.3 2.3 0 0 1-.76-.18 1.46 1.46 0 0 1-.63-.4 1.6 1.6 0 0 1-.38-.6 2.1 2.1 0 0 1 .34-2.22q.26-.27.6-.43.35-.14.76-.14.46 0 .8.18.36.15.56.46.2.27.35.63c.07.25.1.54.1.78l-.03.14v.15h-2.58a.8.8 0 0 0 .31.56c.18.1.35.18.6.18q.24 0 .48-.1a1.8 1.8 0 0 0 .42-.3l.6.54q-.25.36-.63.53a2 2 0 0 1-.9.21m10.7-.04a3 3 0 0 1-2.1-.82l.66-.74q.31.27.67.43.35.16.76.17.37.01.53-.14a.4.4 0 0 0 .17-.32v-.21l-.17-.14-.28-.14-.52-.18-.67-.18-.52-.28-.31-.42q-.12-.3-.1-.6v-.04l.1-.6q.13-.28.38-.46.2-.21.52-.32.32-.1.7-.1a3 3 0 0 1 1.81.63l-.56.82-.66-.36a1.45 1.45 0 0 0-.62-.14q-.32 0-.46.14-.16.12-.17.28v.04l.07.21.14.14.34.14.53.14.66.25q.27.12.49.29l.28.39q.1.25.1.56v.04q.01.37-.14.63a1.2 1.2 0 0 1-.35.5 2.37 2.37 0 0 1-1.29.39m3.13-3.86h1.08v3.79h-1.08zm-.04-1.38h1.12v.96H69.7zm7.84 1.38h1.04v.53l.21-.2.25-.22.27-.14.35-.04q.63 0 .94.4.36.34.35 1.02v2.44h-1.08V29.2q.01-.37-.14-.57a.7.7 0 0 0-.48-.18.7.7 0 0 0-.5.18 1 1 0 0 0-.17.57v2.12h-1.04zm-3.35 2.58.39-.07q.16-.05.28-.17.11-.13.17-.29t.07-.35l-.07-.35a1 1 0 0 0-.17-.29l-.28-.17-.39-.07-.34.07-.28.17a.6.6 0 0 0-.21.29l-.07.35q0 .42.28.64a.8.8 0 0 0 .63.24m-.1 2.34-.87-.1a2 2 0 0 1-.8-.3l.38-.8.6.28.66.07q.52.01.8-.25.249-.26.24-.78v-.17q-.22.28-.49.46-.26.15-.73.14-.31 0-.62-.1a1.7 1.7 0 0 1-.53-.36 2 2 0 0 1-.35-.53 2.2 2.2 0 0 1-.14-.78q0-.41.14-.74.14-.37.35-.57.26-.26.56-.35l.6-.1q.46 0 .72.17.27.14.5.39v-.5h1.04v2.94q.01 1-.46 1.48-.27.28-.66.4zm-22.74 5.12a3 3 0 0 1-2.09-.8l.66-.75q.3.27.66.42.37.17.77.18.37.01.52-.14a.4.4 0 0 0 .18-.32v-.21l-.18-.14-.28-.14-.52-.18-.66-.18-.52-.28-.32-.43q-.1-.3-.1-.6v-.03l.1-.6a1.05 1.05 0 0 1 .39-.46q.2-.21.52-.32.31-.1.7-.1a3 3 0 0 1 1.8.63l-.55.81-.66-.35a1.3 1.3 0 0 0-.63-.14q-.3-.01-.45.14-.17.12-.18.28v.04l.07.21.14.14.35.14.52.14.66.25q.27.12.5.28l.27.4q.1.25.1.56v.03q.01.37-.13.64-.1.27-.35.5a2.3 2.3 0 0 1-1.29.38m9.85.04q-.4 0-.76-.18a1.8 1.8 0 0 1-1.01-1.03 2 2 0 0 1-.17-.77q.01-.41.17-.78.13-.37.38-.63a1.9 1.9 0 0 1 .63-.43q.35-.15.8-.14.519 0 .87.18.35.14.6.46l-.63.7a1.2 1.2 0 0 0-.39-.32 1 1 0 0 0-.48-.1l-.35.07-.28.25-.21.32-.07.38v.04q0 .22.07.39.05.2.2.35.12.16.29.22.15.05.41.06a1.1 1.1 0 0 0 .46-.1l.38-.28.63.63q-.28.3-.63.5t-.9.21m-4.18-2.3q-.03-.34-.24-.6a.7.7 0 0 0-.52-.21.7.7 0 0 0-.56.21 1 1 0 0 0-.28.6zm-.69 2.3q-.38 0-.77-.18a1.3 1.3 0 0 1-.62-.39 1.8 1.8 0 0 1-.39-.6 2.1 2.1 0 0 1 .35-2.22 1.9 1.9 0 0 1 .6-.43q.37-.15.76-.14.45 0 .8.18.35.14.56.46.2.26.35.63.1.39.1.78l-.03.14v.14h-2.58a.8.8 0 0 0 .31.57c.18.1.35.18.6.18.17 0 .3-.04.48-.11q.16-.06.42-.28l.6.53q-.25.35-.63.53a2 2 0 0 1-.91.21m8.95-.04q-.57-.01-.94-.38-.31-.36-.31-1.03v-2.44h1.04v2.12q0 .37.18.57.2.18.48.18a.8.8 0 0 0 .49-.18 1 1 0 0 0 .17-.57v-2.12h1.05v3.78h-1.05v-.53l-.2.22-.25.2-.28.15zm14-.91q.22-.01.38-.07l.28-.22q.11-.14.18-.32l.07-.42v-.04l-.07-.42-.18-.32-.28-.21a1 1 0 0 0-.38-.07l-.35.07-.28.21-.2.32q-.08.21-.08.42v.04l.07.42q.08.18.21.32l.28.22zm-.24.92q-.36 0-.67-.15-.3-.12-.52-.35a2 2 0 0 1-.38-.64 1.9 1.9 0 0 1-.14-.81v-.04q-.01-.47.14-.84.13-.36.38-.6a1.15 1.15 0 0 1 .52-.36q.3-.15.67-.14.42 0 .7.18c.17.1.34.2.45.39v-1.88h1.04v5.16H80.2v-.53q-.171.27-.45.43a1.3 1.3 0 0 1-.7.17m-3.97-2.27a1.15 1.15 0 0 0-.25-.6.7.7 0 0 0-.52-.21.7.7 0 0 0-.56.21 1 1 0 0 0-.28.6zm-.7 2.3a1.74 1.74 0 0 1-.77-.18 1.3 1.3 0 0 1-.62-.39 1.8 1.8 0 0 1-.39-.6 2.1 2.1 0 0 1 .35-2.22c.18-.18.35-.32.6-.43q.35-.15.76-.14.45 0 .8.18.36.14.56.46.2.26.35.63.1.39.1.78l-.03.14v.14H73.5a.8.8 0 0 0 .31.57c.18.1.35.18.6.18.17 0 .3-.04.48-.11q.159-.06.42-.28l.6.53a1.5 1.5 0 0 1-.63.53 2 2 0 0 1-.91.21m-5.26-3.89h1.05v.74q.16-.38.45-.6.26-.26.73-.21v1.13h-.03q-.59 0-.84.32-.31.33-.31 1.02v1.38H69.1z"/><path fill="#000" d="M36.03 24.35h1.28v-1.34h-1.29zm0-4.74h1.28v1.31h-1.29zm2.02-4.77h1.32v1.3h-1.32zm3.9-1.42h2.54v-1.41h-2.54v4.14h-2.58v1.34h-2.2v.92h-1.15v1.2h-1.39v2.09h-1.32V23h-.87v1.35h-.98a44 44 0 0 0-4.6 8.77q-3.75-5.35-7-6.4-.88-.29-1.25.5-.38.8.7 1.98 3.3 3.68 6.06 10.32.4 1.05 1.91 1.2 1.42.1 1.85-1.06a44 44 0 0 1 4.74-9.4v-1.52h1.04v-1.31h1.12v-1.6h1.28v-1.48h1.33v-1.34h1.04v-1.63h1.15v-1.1h1.12V17.5h1.28v-1.34h1.5V14.8h-1.5v1.35h-1.28v1.34h-1.3v1.31h-1.28v-1.31h1.29v-4.07z"/><path fill="#B6004F" d="M41.95 13.42h1.28v1.38h-1.28zm-5.92 6.2h1.28v1.3h-1.29zM45.95 12h1.4v1.41h-1.4zm-1.35-1.4H46V12h-1.4zm1.36-1.42h1.4v1.42h-1.4z"/></svg>