<svg xmlns="http://www.w3.org/2000/svg" width="100" height="60" fill="none"><path fill="#1A1919" d="M0 0h100v60H0z"/><path fill="#fff" d="M43.13 25.648h3.081l.495-2.486h-3.082zm-.32 1.599h3.082l-1.958 9.816c-.143.05-.584.224-1.194.224-.822 0-1.576-.319-1.576-1.45q-.001-.319.08-.73c.612-3.064 1.565-7.86 1.565-7.86m30.605-.224c-2.05 0-2.867 1.196-3.25 1.924h-.036l.118-1.698h-3.046c-.02.373-.15 1.55-.347 2.566 0 0-.703 3.563-.836 4.245-.102.521-.287 1.292-.287 1.739 0 .952.485 1.489 1.567 1.489.607 0 1.045-.166 1.204-.225l1.018-5.112c.283-1.412 1.308-2.335 2.527-2.335.984 0 1.454.714 1.454 1.298 0 .508-.128 1.071-.227 1.57l-.438 2.189c-.052.262-.164.767-.164 1.163 0 .968.548 1.452 1.59 1.452.568 0 .928-.142 1.183-.225l.914-4.583c.198-1.035.271-1.58.271-2.24 0-1.898-1.114-3.217-3.215-3.217m-13.69 2.373c-1.724 0-2.678 1.754-2.678 3.317 0 1.319.598 2.202 1.957 2.202 1.537 0 2.74-1.302 2.74-3.525 0-1.017-.544-1.994-2.02-1.994m-.91 7.892c-3.3 0-4.879-1.97-4.879-4.483 0-3.447 2.377-5.782 6.05-5.782 3.187 0 4.88 1.92 4.88 4.388 0 3.698-2.54 5.877-6.05 5.877m-11.542-2.364c-.07.354-.114.601-.114.905 0 1.125.755 1.459 1.555 1.459.64 0 1.037-.175 1.182-.225l1.481-7.44 2.397-.001.473-2.375h-2.396l.116-.585c.217-1.097.736-1.58 1.633-1.58.422 0 .842.05 1.251.15l.451-2.258c-.192-.048-1.077-.264-2.388-.264-2.089 0-3.457 1.263-3.86 3.297l-.249 1.24h-1.56l-.474 2.375h1.562zm-7.095-7.901c-1.547 0-2.398 1.07-2.73 1.923h-.036l.12-1.7h-3.048c-.027.59-.15 1.585-.462 3.15-.314 1.587-.62 3.17-.937 4.71-.054.263-.079.52-.079.739 0 .806.4 1.442 1.584 1.442.585 0 .992-.152 1.188-.224l.906-4.55c.327-1.742.92-2.893 2.641-2.893.783 0 1.527.167 1.682.212l.522-2.618c-.112-.039-.564-.191-1.35-.191m44.706 4.202c.165-.9-.36-1.829-1.55-1.829-1.45 0-2.087.987-2.372 1.83zm1.375 3.653c0 1.365-1.327 2.412-3.678 2.412-3.249 0-4.838-2.015-4.838-4.482 0-2.45 1.633-5.783 5.618-5.783 2.627 0 4.592 1.3 4.592 4.276 0 .732-.164 1.527-.234 1.846h-6.984c-.012.714.592 1.951 3.02 1.951 1.082 0 2.307-.38 2.504-.477zm-57.066-3.653c.164-.9-.36-1.829-1.55-1.829-1.45 0-2.088.987-2.372 1.83zm1.375 3.653c0 1.365-1.328 2.412-3.678 2.412-3.25 0-4.838-2.015-4.838-4.482 0-2.45 1.632-5.783 5.618-5.783 2.627 0 4.592 1.3 4.592 4.276 0 .732-.164 1.527-.235 1.846h-6.983c-.012.714.592 1.951 3.02 1.951 1.082 0 2.307-.38 2.504-.477zm-18.52-10.971h3.1v9.76c0 1.468.734 2.217 1.911 2.217.12 0 .191-.016.214-.021-.516.778-1.185 1.416-2.722 1.416-1.625 0-2.504-1.124-2.504-2.81V23.906z"/><path fill="#00A3DA" d="M16.012 32.659v1.024c0 .99.536 1.344 1.122 1.344.6 0 .92-.404 1.214-.864.493-.77 6.515-10.256 6.515-10.256H21.64z"/></svg>