<svg xmlns="http://www.w3.org/2000/svg" width="100" height="60" fill="none"><path fill="#B6004F" d="M0 0h100v60H0z"/><path fill="#fff" d="M37.663 19.24h37.68c3.786.006 6.934 1.22 9.594 3.71 2.616 2.461 3.896 5.394 3.936 8.973l.54-.005-.54-.006c-.04 3.505-1.317 6.405-3.938 8.905l.002-.002c-2.662 2.491-5.812 3.74-9.594 3.744h-37.68a.544.544 0 0 0-.54.548c0 .302.24.548.54.548h37.68c4.02.005 7.486-1.364 10.327-4.035l.002-.003c2.812-2.66 4.25-5.915 4.28-9.694v-.01c-.03-3.847-1.466-7.138-4.282-9.769-2.843-2.673-6.311-4.004-10.327-4h-37.68a.544.544 0 0 0-.54.548c0 .303.24.548.54.548"/><path fill="#fff" d="M34.32 18.94a14.16 14.16 0 0 1 5.118 5.163c1.255 2.192 1.88 4.632 1.916 7.284-.035 2.687-.661 5.127-1.916 7.284q-1.88 3.236-5.12 5.198c-2.123 1.272-4.491 1.91-7.173 1.945-2.612-.036-5.015-.673-7.14-1.945-2.16-1.309-3.865-3.04-5.084-5.198-1.288-2.157-1.915-4.56-1.95-7.284.035-2.652.662-5.092 1.95-7.284a13.8 13.8 0 0 1 5.085-5.163c2.124-1.272 4.527-1.945 7.14-1.98 2.646.035 5.05.708 7.174 1.98m-7.175-4.914c-3.17.035-6.06.813-8.637 2.368-2.542 1.556-4.562 3.643-6.13 6.223-1.532 2.617-2.298 5.552-2.333 8.77.035 3.218.8 6.152 2.334 8.77 1.567 2.615 3.587 4.702 6.13 6.293 2.576 1.52 5.467 2.298 8.636 2.37 3.204-.036 6.095-.814 8.672-2.37 2.577-1.59 4.632-3.678 6.164-6.294 1.498-2.617 2.298-5.55 2.334-8.77-.036-3.217-.801-6.152-2.334-8.769a17.75 17.75 0 0 0-6.164-6.223c-2.577-1.555-5.468-2.333-8.672-2.368m21.488 12.34h1.184l1.254 3.5 1.289-3.5h1.149l-1.95 4.986h-.94zm13.617 1.166h1.08v3.784h-1.08zm-.035-1.379h1.114v.955h-1.114zm-3.343 1.38h1.045v.743c.104-.248.278-.46.452-.602q.262-.265.732-.212v1.132h-.035q-.575 0-.836.318c-.21.212-.313.566-.313 1.025v1.38h-1.045zm-2.264 1.59a1.15 1.15 0 0 0-.244-.6.7.7 0 0 0-.522-.212c-.244 0-.418.07-.557.212-.14.177-.244.353-.278.6zm-.696 2.3c-.244 0-.523-.07-.767-.177a1.46 1.46 0 0 1-.626-.39 1.8 1.8 0 0 1-.383-.6 2.1 2.1 0 0 1-.175-.814c0-.282.035-.53.14-.778.104-.248.209-.46.383-.636a1.8 1.8 0 0 1 .592-.425c.244-.106.487-.14.766-.14.314 0 .557.07.8.176.245.106.419.248.558.46.14.177.244.388.349.636.07.247.104.53.104.778l-.035.141v.142H55.04a.84.84 0 0 0 .313.566c.174.106.349.177.592.177.175 0 .314-.036.488-.107.105-.035.244-.14.417-.283l.593.53a1.5 1.5 0 0 1-.627.531c-.244.142-.557.213-.905.213m10.69-.036c-.382 0-.73-.07-1.113-.212-.348-.106-.662-.318-.975-.6l.66-.744c.21.177.419.318.663.424.244.107.488.177.766.177.244 0 .418-.035.523-.14a.37.37 0 0 0 .174-.319v-.213l-.174-.14-.28-.142-.521-.178-.662-.176-.522-.283-.314-.425a1.5 1.5 0 0 1-.105-.6v-.036l.105-.6c.105-.177.21-.354.383-.46q.21-.213.523-.319c.209-.07.452-.106.696-.106.348 0 .662.07.975.177.314.106.592.247.836.46l-.557.813-.662-.353a1.34 1.34 0 0 0-.626-.142c-.21 0-.35.035-.453.142-.105.07-.175.176-.175.282v.036l.07.211.14.142.348.142.522.14.662.25c.174.07.348.176.487.281l.279.39c.07.176.104.353.104.565v.035c0 .248-.034.46-.14.637-.07.177-.173.354-.347.495-.382.255-.83.39-1.29.39m3.135-3.855h1.08v3.784h-1.08zm-.034-1.379h1.114v.955h-1.114zm7.835 1.38h1.046v.53l.208-.212.244-.212.279-.142.349-.035c.417 0 .73.141.94.39.243.246.348.564.348 1.024v2.44h-1.08v-2.12c0-.249-.035-.425-.14-.567a.69.69 0 0 0-.487-.177.68.68 0 0 0-.488.177.9.9 0 0 0-.173.566v2.121h-1.046zm-3.343 2.581.383-.07a.6.6 0 0 0 .28-.178.8.8 0 0 0 .173-.282 1 1 0 0 0 .07-.354l-.07-.354a.8.8 0 0 0-.174-.282l-.28-.178-.382-.07-.348.07-.278.178a.55.55 0 0 0-.21.282l-.07.354c0 .283.106.496.28.636a.83.83 0 0 0 .626.248m-.104 2.334-.87-.107a2 2 0 0 1-.802-.282l.383-.813.593.282.66.071c.349 0 .628-.07.802-.247s.244-.424.244-.778v-.177c-.14.177-.314.353-.488.46-.174.106-.418.14-.73.14q-.316 0-.628-.105c-.197-.08-.375-.2-.523-.353a2 2 0 0 1-.348-.53 1.9 1.9 0 0 1-.14-.779c0-.283.036-.53.14-.743.105-.247.21-.424.348-.566.175-.176.349-.282.558-.353l.592-.106c.313 0 .557.07.73.177.175.106.35.212.489.39v-.497h1.045v2.936c0 .671-.14 1.166-.453 1.484a1.6 1.6 0 0 1-.662.39zM51.35 37.574a3.1 3.1 0 0 1-1.115-.21c-.348-.107-.662-.32-.975-.603l.662-.742c.209.177.417.318.66.424.245.107.489.177.767.177.244 0 .418-.035.523-.14a.37.37 0 0 0 .174-.319v-.213l-.174-.14-.28-.142-.521-.178-.662-.176-.522-.283-.314-.424a1.5 1.5 0 0 1-.104-.602v-.035l.104-.6c.105-.178.21-.354.384-.46q.209-.213.52-.319c.21-.07.454-.106.698-.106.348 0 .662.07.975.177.314.106.593.247.836.46l-.557.813-.662-.354a1.34 1.34 0 0 0-.627-.14c-.21 0-.348.034-.452.14-.105.07-.175.177-.175.283v.036l.07.212.14.14.348.142.522.142.662.247c.174.07.348.178.488.283l.278.39c.07.176.104.353.104.565v.035c0 .248-.034.46-.14.637-.07.177-.173.353-.347.495-.381.255-.83.39-1.288.388m9.855.036a1.9 1.9 0 0 1-.766-.176 2 2 0 0 1-.627-.425 1.8 1.8 0 0 1-.383-.6 2.1 2.1 0 0 1-.174-.779c0-.282.07-.53.174-.778.105-.247.21-.46.383-.636q.261-.265.627-.425c.244-.105.488-.14.8-.14.35 0 .628.07.872.176.243.106.417.247.592.46l-.627.707a1.1 1.1 0 0 0-.383-.32c-.105-.07-.28-.104-.488-.104l-.348.07-.28.248-.208.318-.07.388v.036c0 .142.035.283.07.39a.73.73 0 0 0 .21.352.54.54 0 0 0 .278.213c.104.035.244.07.417.07a.96.96 0 0 0 .453-.105l.384-.284.626.637a3 3 0 0 1-.626.495c-.244.141-.523.212-.906.212m-4.18-2.298a1.16 1.16 0 0 0-.243-.6.7.7 0 0 0-.522-.213c-.244 0-.418.07-.557.212-.14.177-.244.353-.28.6zm-.695 2.298c-.244 0-.523-.07-.767-.176a1.45 1.45 0 0 1-.626-.39 1.8 1.8 0 0 1-.384-.6 2.1 2.1 0 0 1-.174-.814c0-.282.035-.53.14-.778.104-.247.209-.46.383-.636.166-.18.367-.324.59-.425.244-.1.505-.148.768-.14.313 0 .557.07.8.176.245.106.419.247.558.46.14.176.244.388.349.636.069.247.104.53.104.778l-.035.141v.141h-2.577a.84.84 0 0 0 .313.567c.174.105.349.176.592.176.175 0 .314-.035.487-.106.105-.035.245-.14.419-.283l.592.53a1.5 1.5 0 0 1-.627.53c-.244.142-.557.213-.905.213m8.95-.036c-.383 0-.697-.14-.94-.388-.21-.248-.314-.566-.314-1.025v-2.44h1.045v2.121c0 .248.07.424.174.566.133.12.308.184.488.177a.83.83 0 0 0 .487-.177.9.9 0 0 0 .175-.566v-2.12h1.044v3.782h-1.044v-.53l-.21.212-.243.212-.28.141zm14-.919c.14 0 .279-.035.384-.07l.278-.213c.07-.106.14-.21.174-.318l.07-.424v-.036l-.07-.424-.174-.318-.278-.212a1.2 1.2 0 0 0-.384-.07l-.35.07-.277.212-.21.318q-.068.207-.07.424v.036l.07.424c.046.12.117.23.21.318l.278.213zm-.244.92c-.244 0-.452-.036-.662-.14a1.5 1.5 0 0 1-.522-.355c-.174-.177-.28-.39-.383-.637-.105-.247-.14-.495-.14-.813v-.036c0-.317.035-.6.14-.848.104-.247.209-.424.383-.6a1.07 1.07 0 0 1 .522-.355c.21-.105.418-.14.662-.14.279 0 .523.07.697.176s.348.212.452.39V32.34h1.045v5.163h-1.045v-.53c-.115.176-.27.32-.452.424-.212.12-.453.181-.697.176zm-3.97-2.263a1.16 1.16 0 0 0-.243-.6.7.7 0 0 0-.523-.213c-.244 0-.418.07-.558.212-.14.177-.243.353-.278.6zm-.696 2.298a2 2 0 0 1-.767-.176 1.45 1.45 0 0 1-.626-.39 1.8 1.8 0 0 1-.384-.6 2.1 2.1 0 0 1-.174-.814c0-.282.035-.53.14-.778.104-.247.208-.46.383-.636.174-.177.348-.318.59-.425.246-.105.489-.14.768-.14.313 0 .557.07.8.176.245.106.419.247.558.46.139.176.244.388.348.636.07.247.105.53.105.778l-.035.141v.141h-2.577a.84.84 0 0 0 .313.567c.174.105.349.176.592.176.174 0 .314-.035.488-.106.104-.035.244-.14.418-.283l.592.53a1.5 1.5 0 0 1-.627.53c-.244.142-.557.213-.905.213m-5.26-3.89h1.046v.743c.104-.247.278-.46.452-.6q.262-.266.73-.213v1.131h-.033q-.575 0-.836.32c-.21.211-.313.565-.313 1.024v1.38H69.11z"/><path fill="#fff" d="M36.026 24.35h1.289v-1.343h-1.29v1.344m0-4.738h1.289v1.308h-1.29zm2.02-4.773h1.324v1.308h-1.324zm3.9-1.415h2.542V12.01h-2.541v4.137H39.37l-.001 1.343h-2.194v.92h-1.15v1.202h-1.392V21.7h-1.324v1.308h-.87v1.344h-.975c-1.95 2.934-3.483 5.834-4.598 8.77-2.507-3.573-4.84-5.694-7-6.4-.592-.178-1.01-.037-1.253.493-.244.53-.035 1.202.696 1.98 2.194 2.44 4.214 5.906 6.06 10.326.278.707.906 1.096 1.915 1.201.94.071 1.567-.282 1.846-1.06 1.358-3.642 2.926-6.754 4.737-9.406v-1.52h1.044v-1.308h1.115v-1.592h1.289v-1.484h1.323v-1.344h1.045V21.38h1.149v-1.096h1.115V17.49h1.288v-1.343h1.497v-1.344h-1.497v1.344h-1.288v1.343h-1.29v1.31H39.37l-.001-1.31h1.29v-4.066h1.289z"/><path fill="#fff" d="M41.946 13.424h1.289v1.38h-1.288zm-5.92 6.188h1.289v1.308h-1.29zm9.925-7.602h1.393v1.414H45.95zm-1.358-1.414h1.393v1.414h-1.393zm1.358-1.415h1.393v1.415H45.95z"/></svg>