<svg xmlns="http://www.w3.org/2000/svg" width="100" height="60" fill="none"><path fill="#26337A" d="M0 0h100v60H0z"/><path fill="#fff" d="M34.667 39.844h-5.423L25.177 24.33c-.193-.714-.603-1.345-1.206-1.642-1.504-.748-3.162-1.342-4.971-1.642v-.598h8.737c1.206 0 2.11.898 2.26 1.94l2.11 11.192 5.421-13.132h5.273zm11.149 0h-5.122l4.217-19.397h5.122zM56.66 25.821c.15-1.045 1.055-1.642 2.11-1.642 1.658-.15 3.464.15 4.971.895l.904-4.177a13 13 0 0 0-4.67-.897c-4.97 0-8.588 2.687-8.588 6.416 0 2.836 2.562 4.326 4.371 5.223 1.957.895 2.71 1.492 2.56 2.387 0 1.342-1.508 1.94-3.012 1.94-1.809 0-3.617-.448-5.273-1.195l-.904 4.179c1.809.744 3.765 1.044 5.574 1.044 5.574.148 9.038-2.537 9.038-6.565 0-5.074-7.081-5.371-7.081-7.608m25.007 14.023L77.6 20.447H73.23c-.904 0-1.808.598-2.11 1.492l-7.53 17.905h5.272l1.052-2.834h6.479l.603 2.834zm-7.682-14.173 1.505 7.31h-4.218z"/></svg>