<svg xmlns="http://www.w3.org/2000/svg" width="100" height="60" fill="none"><path fill="#000" d="M0 0h100v60H0z"/><path fill="#FD0" d="M10 20.662h8.127c2.858 4.933 5.698 9.884 8.557 14.816l-1.01 1.737c-.354.58-.784 1.121-1.326 1.514-.448.317-.971.56-1.532.597-.579.056-1.14-.112-1.644-.41-.616-.374-1.102-.916-1.494-1.514-.3-.467-.56-.953-.841-1.438C15.904 30.882 12.952 25.78 10 20.662M20.817 20.662h8.127c1.943 3.382 3.905 6.763 5.867 10.126.261.486.803.804 1.345.804.56 0 1.084-.318 1.364-.804-1.943-3.381-3.905-6.763-5.848-10.144H39.8l3.139 5.436c-1.887 3.27-3.774 6.52-5.661 9.79-.28.467-.542.934-.822 1.401-.355.58-.803 1.103-1.345 1.495-.467.318-1.01.542-1.588.542a2.7 2.7 0 0 1-1.607-.486c-.598-.392-1.065-.934-1.439-1.532-.28-.448-.541-.916-.803-1.383-2.97-5.063-5.904-10.144-8.856-15.245M46.058 20.662h1.607c.299 1.196.616 2.373.915 3.569.262 1.046.523 2.092.729 3.157.187-1.084.467-2.167.728-3.25.28-1.16.58-2.317.879-3.476h1.625a223 223 0 0 1 1.289 5.063c.13.523.243 1.028.336 1.551.131-.729.3-1.457.486-2.186.355-1.476.747-2.97 1.14-4.446h1.55c-.784 2.895-1.588 5.81-2.372 8.706h-1.7c-.412-1.57-.823-3.158-1.196-4.746-.131-.579-.262-1.158-.374-1.756-.15.878-.373 1.738-.598 2.616-.336 1.289-.691 2.578-1.027 3.886h-1.663c-.785-2.877-1.57-5.792-2.354-8.688M69.99 21.503c.468-.112.954-.243 1.42-.355v1.83h.972c0 .412.019.823.019 1.234h-.99v3.68c0 .169.149.318.317.318.224.019.449-.019.673-.037v1.214c-.393.112-.785.112-1.177.112-.3 0-.617-.093-.841-.317-.28-.262-.392-.636-.392-1.01v-3.979h-.748V22.96h.748zM58.24 23.26c.54-.319 1.195-.45 1.811-.412.617.019 1.233.206 1.72.58.448.317.784.784.99 1.307.26.617.336 1.308.317 1.98h-4.951a1.69 1.69 0 0 0 1.009 1.346c.71.299 1.625.186 2.186-.355.15-.131.261-.318.355-.486.392.205.785.392 1.158.598-.299.635-.86 1.12-1.513 1.401a3.7 3.7 0 0 1-2.055.243 3.13 3.13 0 0 1-1.757-.86 3.25 3.25 0 0 1-.896-1.737c-.131-.766-.038-1.588.317-2.28.337-.56.785-1.027 1.308-1.326m.447 1.25a1.6 1.6 0 0 0-.541.991h3.4a1.43 1.43 0 0 0-.673-1.102c-.635-.43-1.588-.393-2.185.112M65.544 22.886c.729-.113 1.532-.02 2.149.41.523.355.86.953.86 1.589-.45.074-.879.168-1.327.242-.038-.224-.056-.448-.169-.635-.168-.28-.504-.43-.822-.467-.299-.018-.597.019-.859.168a.55.55 0 0 0-.262.505c.02.187.169.336.337.43.28.149.579.224.897.298.56.15 1.14.28 1.644.58.336.205.616.504.747.878.205.635.093 1.382-.374 1.868s-1.158.672-1.812.71c-.822.056-1.681-.13-2.354-.654-.43-.318-.71-.84-.71-1.383.448-.093.916-.168 1.364-.261.019.243.093.486.261.654.28.299.71.392 1.103.392.299 0 .635-.037.878-.243.205-.168.28-.485.13-.71-.13-.187-.373-.28-.579-.373-.597-.206-1.214-.3-1.793-.56-.374-.15-.71-.375-.934-.71-.393-.599-.337-1.458.13-2.019.393-.373.935-.616 1.495-.71M74.362 23.278a3.3 3.3 0 0 1 1.831-.43 3.2 3.2 0 0 1 1.72.56c.466.337.821.804 1.045 1.346.262.616.337 1.289.3 1.961h-4.952c.075.58.449 1.103.972 1.327a2.15 2.15 0 0 0 2.092-.206q.337-.252.505-.616c.392.187.784.392 1.177.598-.28.616-.822 1.083-1.42 1.364-1.158.541-2.616.43-3.643-.355-.56-.43-.934-1.065-1.103-1.757a3.75 3.75 0 0 1 .243-2.428c.28-.58.71-1.047 1.233-1.364m1.028.934c-.56.187-.99.71-1.065 1.29h3.4a1.55 1.55 0 0 0-.336-.804c-.486-.58-1.326-.729-1.999-.486M86.73 22.904c.73-.168 1.514-.093 2.149.318.448.28.785.747.953 1.252.13.373.168.784.168 1.177v3.717h-1.513v-3.493c0-.374-.038-.766-.243-1.084a1.2 1.2 0 0 0-.692-.542c-.597-.168-1.345-.056-1.718.467-.262.337-.355.785-.355 1.196v3.456h-1.514V22.96h1.308v.916c.318-.505.878-.841 1.458-.972M79.911 22.96h1.252v.804c.168-.262.411-.486.691-.617.467-.224.99-.261 1.495-.187 0 .449 0 .897-.019 1.345-.41-.056-.86-.074-1.27.094a1.07 1.07 0 0 0-.58.598c-.13.317-.074.672-.093.99 0 1.12 0 2.26.019 3.381h-1.513c.018-2.13.018-4.26.018-6.408M62.07 30.508c.242-.075.54-.056.746.094.262.168.43.467.411.765a.87.87 0 0 1-.71.804c-.317.056-.672-.075-.859-.318a.85.85 0 0 1-.13-.784.82.82 0 0 1 .541-.56M46.73 35.758v-5.25h1.533v5.194c.018.617.168 1.289.635 1.737.41.393 1.027.505 1.588.449.467-.038.934-.243 1.233-.617.373-.448.486-1.046.486-1.606v-5.157h1.513v4.428c0 .486.019.971-.056 1.457-.112.729-.392 1.457-.916 1.98-.467.486-1.083.767-1.737.879-.785.13-1.626.074-2.354-.243-.542-.243-1.028-.635-1.327-1.159-.41-.597-.56-1.345-.598-2.092M57.398 32.769c.71-.15 1.514-.075 2.13.317.449.28.766.729.934 1.215.131.392.187.822.187 1.233v3.699h-1.513V35.87c0-.374-.019-.785-.187-1.14a1.13 1.13 0 0 0-.598-.579c-.299-.13-.654-.15-.971-.093a1.4 1.4 0 0 0-.878.504c-.262.337-.355.785-.355 1.196v3.475h-1.514v-6.408h1.308v.915c.318-.523.878-.86 1.457-.971M66.796 32.713c.785-.075 1.588.074 2.26.504.561.336.99.86 1.234 1.457.485 1.159.317 2.597-.505 3.55a3.26 3.26 0 0 1-1.887 1.065c-.803.15-1.681.056-2.41-.336a3.07 3.07 0 0 1-1.326-1.345c-.58-1.177-.468-2.69.373-3.7.56-.71 1.401-1.12 2.26-1.195m.13 1.382a1.88 1.88 0 0 0-1.232.691c-.56.71-.542 1.794.018 2.504.355.448.953.71 1.532.673.58 0 1.159-.3 1.514-.785.523-.729.485-1.831-.131-2.485a1.94 1.94 0 0 0-1.7-.598M74.045 32.769c.71-.15 1.495-.094 2.111.299.448.261.766.69.953 1.177.15.392.205.822.205 1.251v3.737h-1.513v-3.55c0-.392-.056-.784-.28-1.12a1.13 1.13 0 0 0-.748-.486 1.83 1.83 0 0 0-.952.037 1.33 1.33 0 0 0-.729.542c-.224.317-.299.728-.299 1.102v3.475H71.28v-6.408h1.308v.915c.317-.523.878-.84 1.457-.971M61.602 32.825h1.513v6.408h-1.513z"/></svg>