<svg xmlns="http://www.w3.org/2000/svg" width="100" height="60" fill="none"><path fill="#6D1ED4" d="M0 0h100v60H0z"/><path fill="#fff" d="M58.038 39.467c-.414-.723-.672-1.538-.791-2.49a.48.48 0 0 0-.57-.414 2.7 2.7 0 0 1-.53.053c-.556 0-.981-.093-.981-1.27v-1.125h-.003V18.41a.44.44 0 0 0-.44-.44h-3.196a.44.44 0 0 0-.44.44v17.316c0 1.298.12 2.278.715 3.153.729 1.002 2.18 1.583 3.514 1.583h.209c.81 0 1.6-.075 2.252-.301a.482.482 0 0 0 .26-.695M66.71 38.91c-.589-.858-.772-1.006-1.17-1.933-.052-.123-.086-.252-.194-.33a.48.48 0 0 0-.375-.084 3 3 0 0 1-.53.052c-.556 0-.981-.093-.981-1.268v-1.126h-.003v-15.81a.44.44 0 0 0-.44-.44H59.82a.44.44 0 0 0-.44.44v17.316c0 1.297.12 2.277.716 3.153.729 1.002 2.18 1.583 3.514 1.583l.206-.001h.003c.81 0 1.6-.074 2.252-.3.135-.047.62-.294.72-.396.312-.322 0-.737-.08-.855M41.34 23.634c-2.425 0-4.486.853-5.958 2.467-1.388 1.522-2.152 3.66-2.152 6.02 0 2.395.757 4.45 2.188 5.945 1.505 1.568 3.663 2.397 6.24 2.397 2.786 0 5.121-.975 6.944-2.898.167-.175.174-.496-.014-.62-.19-.123-1.139-.767-2.092-2.004-.114-.078-.191-.122-.305-.122h-.012a.44.44 0 0 0-.31.14c-1.095 1.18-2.5 1.661-4.122 1.661-2.4 0-3.88-1.134-4.168-3.333h11.14a.44.44 0 0 0 .437-.392c.04-.357.06-.756.06-1.152 0-2.277-.747-4.33-2.105-5.78-1.426-1.524-3.422-2.33-5.771-2.33m-3.684 6.449c.333-1.828 1.746-2.984 3.712-2.984 1.986 0 3.332 1.105 3.68 2.984zM74.54 23.634c-2.425 0-4.486.853-5.958 2.467-1.388 1.522-2.152 3.66-2.152 6.02 0 2.395.756 4.45 2.188 5.945 1.505 1.568 3.663 2.397 6.242 2.397 2.784 0 5.119-.975 6.942-2.898.167-.175.174-.496-.014-.62-.19-.123-1.139-.767-2.092-2.004-.113-.078-.191-.122-.305-.122h-.012a.44.44 0 0 0-.31.14c-1.095 1.18-2.5 1.661-4.122 1.661-2.4 0-3.88-1.134-4.168-3.333h11.14a.44.44 0 0 0 .437-.392c.04-.357.06-.756.06-1.152 0-2.277-.747-4.33-2.105-5.78-1.426-1.524-3.422-2.33-5.772-2.33m-3.684 6.449c.334-1.828 1.747-2.984 3.712-2.984 1.986 0 3.331 1.105 3.68 2.984z"/><path fill="#fff" d="M34.015 39.366q-.022-.023-.047-.047l-.037-.036a9.2 9.2 0 0 1-1.804-2.746.44.44 0 0 0-.404-.266h-8.382l10.252-13.118a.44.44 0 0 0 .092-.27v-2.557a.44.44 0 0 0-.44-.44h-5.529v-3.667a.22.22 0 0 0-.22-.219h-3.4a.22.22 0 0 0-.22.22v3.666H18.46a.44.44 0 0 0-.441.44v2.963c0 .243.197.44.44.44h9.41L17.676 36.73a.44.44 0 0 0-.093.272v2.672c0 .244.196.44.44.44h5.856v3.666c0 .122.1.22.22.22h3.4a.22.22 0 0 0 .22-.22v-3.666h5.983a.44.44 0 0 0 .313-.748"/></svg>