<svg viewBox="0 0 24 24" fill="none" xmlns="http://www.w3.org/2000/svg"><path d="M18.496 17.532C11.21 21 6.687 18.1 3.793 16.337c-.18-.112-.484.025-.22.329.965 1.17 4.125 3.988 8.25 3.988 4.128 0 6.584-2.253 6.892-2.646.305-.39.09-.604-.22-.476h.001zm2.046-1.13c-.196-.255-1.19-.302-1.815-.225-.627.074-1.567.457-1.486.687.042.086.128.048.558.01.432-.044 1.641-.197 1.893.133.253.331-.386 1.911-.502 2.166-.113.255.043.32.255.15.21-.169.587-.608.84-1.23.252-.625.406-1.497.257-1.69v-.001z" fill="#F90"/><path fill-rule="evenodd" clip-rule="evenodd" d="M13.597 10.457c0 .91.023 1.668-.437 2.476-.372.657-.96 1.061-1.617 1.061-.896 0-1.42-.683-1.42-1.691 0-1.991 1.785-2.352 3.474-2.352v.506zm2.355 5.692a.488.488 0 0 1-.552.056c-.775-.644-.913-.943-1.34-1.557-1.281 1.307-2.188 1.698-3.85 1.698-1.964 0-3.495-1.212-3.495-3.64 0-1.895 1.028-3.186 2.49-3.816 1.268-.559 3.038-.657 4.392-.812v-.302c0-.555.042-1.212-.283-1.692-.286-.43-.831-.607-1.31-.607-.89 0-1.686.456-1.88 1.402-.04.21-.193.418-.404.427l-2.266-.243c-.19-.042-.4-.197-.348-.49C7.628 3.829 10.108 3 12.329 3c1.136 0 2.62.302 3.518 1.163 1.136 1.06 1.028 2.477 1.028 4.017v3.64c0 1.094.453 1.573.88 2.164.15.21.184.464-.007.621-.603.51-1.2 1.026-1.79 1.55l-.006-.006" fill="#000"/><path d="M18.496 17.532C11.21 21 6.687 18.1 3.793 16.337c-.18-.112-.484.025-.22.329.965 1.17 4.125 3.988 8.25 3.988 4.128 0 6.584-2.253 6.892-2.646.305-.39.09-.604-.22-.476h.001zm2.046-1.13c-.196-.255-1.19-.302-1.815-.225-.627.074-1.567.457-1.486.687.042.086.128.048.558.01.432-.044 1.641-.197 1.893.133.253.331-.386 1.911-.502 2.166-.113.255.043.32.255.15.21-.169.587-.608.84-1.23.252-.625.406-1.497.257-1.69v-.001z" fill="#F90"/><path fill-rule="evenodd" clip-rule="evenodd" d="M13.597 10.457c0 .91.023 1.668-.437 2.476-.372.657-.96 1.061-1.617 1.061-.896 0-1.42-.683-1.42-1.691 0-1.991 1.785-2.352 3.474-2.352v.506zm2.355 5.692a.488.488 0 0 1-.552.056c-.775-.644-.913-.943-1.34-1.557-1.281 1.307-2.188 1.698-3.85 1.698-1.964 0-3.495-1.212-3.495-3.64 0-1.895 1.028-3.186 2.49-3.816 1.268-.559 3.038-.657 4.392-.812v-.302c0-.555.042-1.212-.283-1.692-.286-.43-.831-.607-1.31-.607-.89 0-1.686.456-1.88 1.402-.04.21-.193.418-.404.427l-2.266-.243c-.19-.042-.4-.197-.348-.49C7.628 3.829 10.108 3 12.329 3c1.136 0 2.62.302 3.518 1.163 1.136 1.06 1.028 2.477 1.028 4.017v3.64c0 1.094.453 1.573.88 2.164.15.21.184.464-.007.621-.603.51-1.2 1.026-1.79 1.55l-.006-.006" fill="#000"/></svg>