<svg viewBox="0 0 24 24" fill="none" xmlns="http://www.w3.org/2000/svg"><path d="M16.142 14.471a.743.743 0 0 1-.75-.74c0-.407.337-.738.75-.738.414 0 .75.331.75.739a.745.745 0 0 1-.75.739zm-8.284 0a.743.743 0 0 1-.75-.74c0-.407.336-.738.75-.738.413 0 .75.331.75.739a.746.746 0 0 1-.75.739zm8.553-4.452l1.498-2.558a.304.304 0 0 0-.114-.42.316.316 0 0 0-.426.113l-1.516 2.59A9.359 9.359 0 0 0 12 8.931a9.36 9.36 0 0 0-3.853.813l-1.516-2.59a.316.316 0 0 0-.518-.034.304.304 0 0 0-.022.342l1.498 2.557A8.715 8.715 0 0 0 3 17h18a8.716 8.716 0 0 0-4.589-6.981" fill="#3DDB85"/></svg>