<svg viewBox="0 0 24 24" fill="none" xmlns="http://www.w3.org/2000/svg"><path d="M14.377 8.37a2.893 2.893 0 0 0-1.08-3.98c-1.41-.803-3.215-.327-4.03 1.067a3.447 3.447 0 0 0-.1.19l-2.753 4.71c-.06.094-.117.19-.169.29l-2.859 4.932 5.11 2.863 2.843-4.891c.062-.093.119-.19.17-.29l2.751-4.709c.04-.059.08-.119.117-.181V8.37z" fill="#FBBC04"/><path d="M8.518 18.427c-.81 1.417-2.636 1.938-4.038 1.12a2.936 2.936 0 0 1-1.09-4.006c.81-1.416 2.62-1.94 4.023-1.122 1.403.818 1.915 2.593 1.105 4.008z" fill="#34A853"/><path d="M19.54 9.303a2.92 2.92 0 0 0-3.983 1.064l-2.916 5.04a2.906 2.906 0 0 0 1.06 3.97c.003 0 .005.002.008.003a2.92 2.92 0 0 0 3.984-1.064l2.916-5.04a2.905 2.905 0 0 0-1.068-3.973z" fill="#4285F4"/></svg>