<svg viewBox="0 0 24 24" fill="none" xmlns="http://www.w3.org/2000/svg"><path d="M12.004 3.004c.049.028.091.07.13.112 1.453 1.463 2.91 2.925 4.359 4.391-.915.902-1.816 1.819-2.723 2.724-.342.345-.69.684-1.028 1.036-.253-.613-.496-1.23-.739-1.846 0-.642.004-1.283 0-1.928a633.967 633.967 0 0 1 0-4.49l.001.001z" fill="#DD4B39" stroke="#DD4B39" stroke-width=".459"/><path d="M7.497 7.493h4.507c.003.645 0 1.286 0 1.928a97.77 97.77 0 0 0-.732 1.829c-.078-.043-.134-.106-.194-.17L7.511 7.507l-.014-.014v0z" fill="#EF851C" stroke="#EF851C" stroke-width=".459"/><path d="M16.493 7.507l.014-.01a967.285 967.285 0 0 0 0 4.507h-1.939c-.605-.254-1.217-.487-1.826-.737.338-.352.686-.69 1.028-1.036.907-.905 1.808-1.822 2.723-2.724z" fill="#7E3794" stroke="#7E3794" stroke-width=".459"/><path d="M6.76 8.25c.255-.242.49-.503.75-.743l3.568 3.573c.06.064.116.127.194.17-.081.06-.183.08-.275.123-.52.211-1.048.409-1.565.634-.644-.007-1.288-.003-1.932-.003C6 12 4.503 12.01 3.004 12c1.249-1.254 2.505-2.502 3.757-3.75z" fill="#FFBB1B" stroke="#FFBB1B" stroke-width=".459"/><path d="M7.5 12.004c.644 0 1.288-.004 1.932.003.608.25 1.217.486 1.826.733-1 1.015-2.01 2.016-3.012 3.027-.253.24-.482.504-.75.73 0-1.498-.003-2.996.004-4.493z" fill="#1A8763" stroke="#1A8763" stroke-width=".459"/><path d="M14.568 12.004h1.939c1.495.003 2.994-.004 4.49.003-.961.976-1.936 1.942-2.9 2.91-.535.533-1.062 1.072-1.597 1.597-1.196-1.212-2.41-2.41-3.61-3.622a.724.724 0 0 0-.162-.134c.102-.064.215-.095.324-.141.507-.205 1.013-.402 1.516-.613z" fill="#427FED" stroke="#427FED" stroke-width=".459"/><path d="M11.258 12.74c.257.613.49 1.233.746 1.847-.004.64 0 1.286-.004 1.927v3.101c-.007.462.01.923-.007 1.382-.074-.036-.12-.103-.18-.16-1.438-1.447-2.874-2.896-4.316-4.34.267-.226.496-.49.75-.73 1.002-1.011 2.011-2.012 3.01-3.027h.001z" fill="#65B045" stroke="#65B045" stroke-width=".459"/><path d="M12.728 12.758c.06.035.113.08.162.134 1.2 1.212 2.414 2.41 3.61 3.622-1.502-.003-3.001.004-4.5 0 .004-.641 0-1.286.004-1.927.235-.61.489-1.216.724-1.83v.001z" fill="#43459D" stroke="#43459D" stroke-width=".459"/></svg>