<svg viewBox="0 0 24 24" fill="none" xmlns="http://www.w3.org/2000/svg"><path d="M14.422 8.992h.549l1.565-1.566.077-.665A7.03 7.03 0 0 0 5.17 10.195a.851.851 0 0 1 .55-.034l3.129-.516s.159-.264.24-.247a3.902 3.902 0 0 1 5.343-.406h-.011z" fill="#EA4335"/><path d="M18.764 10.195a7.053 7.053 0 0 0-2.124-3.428l-2.196 2.197a3.907 3.907 0 0 1 1.433 3.098v.39a1.956 1.956 0 1 1 0 3.912h-3.909l-.39.395v2.346l.39.39h3.91a5.085 5.085 0 0 0 4.835-6.77 5.093 5.093 0 0 0-1.949-2.53z" fill="#4285F4"/><path d="M8.054 19.474h3.909v-3.131h-3.91c-.278 0-.553-.06-.807-.176l-.55.17-1.574 1.566-.138.55a5.057 5.057 0 0 0 3.07 1.02v.001z" fill="#34A853"/><path d="M8.054 9.316a5.083 5.083 0 0 0-4.833 6.566 5.09 5.09 0 0 0 1.765 2.553l2.266-2.269a1.956 1.956 0 0 1 1.61-3.565c.433.197.78.544.976.977l2.267-2.268a5.08 5.08 0 0 0-4.051-1.994z" fill="#FBBC05"/></svg>