<svg viewBox="0 0 24 24" fill="none" xmlns="http://www.w3.org/2000/svg"><path d="M13.182 11.845l1.754 2.006 2.36 1.507.41-3.5-.41-3.423-2.405 1.324-1.71 2.086h.001z" fill="#00832D"/><path d="M3 15.033v2.983c0 .682.552 1.234 1.234 1.234h2.983l.617-2.254-.617-1.963-2.047-.617-2.17.617z" fill="#0066DA"/><path d="M7.217 4.44L3 8.657l2.17.617 2.047-.617.606-1.936-.606-2.28V4.44z" fill="#E94235"/><path d="M7.217 8.657H3v6.376h4.217V8.657z" fill="#2684FC"/><path d="M19.99 6.226l-2.694 2.209v6.923l2.706 2.22A.618.618 0 0 0 21 17.09V6.703a.617.617 0 0 0-1.01-.477zm-6.808 5.62v3.187H7.217v4.217h8.844c.682 0 1.235-.552 1.235-1.234v-2.658l-4.114-3.513v.001z" fill="#00AC47"/><path d="M16.06 4.44H7.218v4.217h5.965v3.188l4.114-3.408V5.675c0-.682-.553-1.235-1.235-1.235z" fill="#FFBA00"/></svg>