<svg viewBox="0 0 24 24" fill="none" xmlns="http://www.w3.org/2000/svg"><path d="M17.865 6.499a.168.168 0 0 0-.159-.145c-.072 0-1.446-.101-1.446-.101s-.954-.954-1.07-1.055c-.1-.102-.318-.073-.39-.044-.014 0-.217.058-.535.16-.318-.926-.882-1.78-1.88-1.78H12.3c-.29-.375-.636-.534-.94-.534-2.328 0-3.44 2.906-3.788 4.38a73.16 73.16 0 0 0-1.62.507c-.505.159-.52.173-.578.65C5.316 8.884 4 19.077 4 19.077L14.265 21l5.566-1.2-1.966-13.301zm-4.178-1.012c-.26.086-.55.173-.868.274v-.188a4.58 4.58 0 0 0-.202-1.402c.52.058.853.636 1.07 1.316zM11.98 4.272c.144.362.231.868.231 1.562v.1c-.564.174-1.185.362-1.793.55.347-1.315.998-1.966 1.562-2.212zm-.694-.65a.51.51 0 0 1 .303.1c-.737.348-1.547 1.23-1.88 2.994-.47.151-.942.296-1.416.433.39-1.344 1.33-3.527 2.993-3.527z" fill="#95BF47"/><path d="M17.706 6.354c-.072 0-1.446-.101-1.446-.101s-.954-.954-1.07-1.055a.275.275 0 0 0-.144-.073L14.266 21l5.565-1.2s-1.95-13.2-1.966-13.287c-.014-.1-.1-.144-.159-.159z" fill="#5E8E3E"/><path d="M12.37 9.434l-.68 2.038s-.606-.318-1.33-.318c-1.083 0-1.126.68-1.126.853 0 .926 2.429 1.287 2.429 3.47 0 1.72-1.085 2.82-2.56 2.82-1.763 0-2.66-1.1-2.66-1.1l.478-1.56s.925.794 1.706.794a.697.697 0 0 0 .722-.694c0-1.214-1.995-1.272-1.995-3.267 0-1.677 1.2-3.31 3.644-3.31.91 0 1.373.274 1.373.274z" fill="#fff"/></svg>