<svg viewBox="0 0 24 24" fill="none" xmlns="http://www.w3.org/2000/svg"><path d="M8.696 10.287c-.027 0-.045 0-.063-.017-.608-.803-.76-2.186-.796-2.712-.009-.103-.125-.156-.215-.107C5.744 8.499 4 10.988 4 13.387c0 4.134 2.876 7.6 7.826 7.6 4.638 0 7.826-3.568 7.826-7.595 0-5.268-3.77-8.755-7.128-10.334-.09-.045-.188.031-.18.125.44 2.84-.16 5.923-3.653 7.113l.005-.009z" fill="url(#paint0_radial_29_303)"/><defs><radialGradient id="paint0_radial_29_303" cx="0" cy="0" r="1" gradientUnits="userSpaceOnUse" gradientTransform="matrix(15.6522 0 0 17.9419 11.826 20.987)"><stop stop-color="#FF7854"/><stop offset="1" stop-color="#FD267D"/></radialGradient></defs></svg>