<svg viewBox="0 0 24 24" fill="none" xmlns="http://www.w3.org/2000/svg"><path d="M8.66 19.634c6.794 0 10.508-5.63 10.508-10.511 0-.16-.003-.32-.01-.478A7.51 7.51 0 0 0 21 6.732a7.36 7.36 0 0 1-2.12.582 3.707 3.707 0 0 0 1.623-2.044 7.405 7.405 0 0 1-2.345.897 3.694 3.694 0 0 0-6.293 3.369 10.485 10.485 0 0 1-7.612-3.86 3.686 3.686 0 0 0-.5 1.857c0 1.282.652 2.413 1.643 3.075a3.666 3.666 0 0 1-1.673-.462v.047a3.695 3.695 0 0 0 2.963 3.622 3.696 3.696 0 0 1-1.668.063 3.697 3.697 0 0 0 3.45 2.566A7.407 7.407 0 0 1 3 17.974a10.45 10.45 0 0 0 5.66 1.66z" fill="#1DA1F2"/></svg>