<svg width="100" height="60" viewBox="0 0 100 60" fill="none" xmlns="http://www.w3.org/2000/svg">
<rect width="100" height="60" fill="#004F5C"/>
<path d="M60.0306 33.2726L56.8356 34.5454V34.9091L61.2481 33.9697H65.2646L64.6561 37.4547H49.8066L50.4454 33.9999L58.144 30.5149L58.1523 30.5112C60.7637 29.332 62.0391 28.7561 62.0391 27.4242C62.0391 26.2123 61.1262 25.5152 59.3918 25.5152C57.353 25.5152 55.8316 26.7574 55.4052 28.7273H51.2365C51.9061 24.7275 54.8883 22 59.5436 22C63.4387 22 66.0253 23.909 66.0253 27.1517C66.0253 30.4544 63.165 32.0305 60.0306 33.2726ZM40.8602 37.7574C36.783 37.7574 33.3749 34.8788 33.3749 30.4847C33.3749 25.8789 37.3914 22 42.0472 22C45.7896 22 49.4414 24.394 49.5325 28.7273H45.4552C45.2727 26.8787 43.7816 25.6971 41.9253 25.6971C39.3691 25.6971 37.3611 27.9093 37.3611 30.3638C37.3611 32.576 38.9432 34.0604 40.982 34.0604C42.6253 34.0604 44.3597 33.0908 45.0294 31.6361H49.1066C48.2852 35.3332 44.603 37.7574 40.8602 37.7574ZM26.2241 33.2726L23.029 34.5454V34.9091L27.441 33.9697H31.458L30.849 37.4547H16L16.6388 33.9999L24.3375 30.5149L24.3457 30.5112C26.9571 29.332 28.2325 28.7561 28.2325 27.4242C28.2325 26.2123 27.3196 25.5152 25.5852 25.5152C23.5464 25.5152 22.025 26.7574 21.5986 28.7273H17.4299C18.0995 24.7275 21.0817 22 25.737 22C29.6321 22 32.2187 23.909 32.2187 27.1517C32.2187 30.4544 29.358 32.0305 26.2241 33.2726Z" fill="white"/>
<path d="M70.7418 35.2123C71.7761 36.8785 73.5717 37.7574 75.6712 37.7574C79.8703 37.7574 83.8261 34.0604 83.8261 28.9696C83.8261 24.6665 81.1181 22.0302 77.8926 22.0302C75.4583 22.0302 73.5413 23.4244 72.2328 25.6668H71.807L72.902 23.0003L73.0239 22.3334H69.1288L65.6297 42H69.5547L70.7418 35.2123ZM76.1886 25.6366C78.2578 25.6366 79.8399 27.1819 79.8399 29.3941C79.8399 31.9695 77.8011 34.0604 75.3971 34.0604C73.2976 34.0604 71.6244 32.576 71.6244 30.3033C71.6244 27.7879 73.6931 25.6366 76.1886 25.6366Z" fill="white"/>
</svg>
