<svg xmlns="http://www.w3.org/2000/svg" width="100" height="60" fill="none"><path fill="#008FBE" d="M0 0h100v60H0z"/><path fill="#fff" d="M68.204 24.433C65.822 16.656 58.582 11 50.018 11 39.515 11 31 19.507 31 30s8.515 19 19.018 19c8.606 0 15.874-5.712 18.218-13.548a6.65 6.65 0 0 1-3.468.944c-3.823 0-6.49-2.896-6.49-6.396v-.035c0-3.5 2.703-6.43 6.526-6.43 1.284 0 2.433.332 3.4.898m-22.572 11.75h-8.998V34.46l4.285-3.642c1.707-1.439 2.33-2.238 2.33-3.358 0-1.225-.872-1.937-2.01-1.937s-1.92.622-2.88 1.867l-1.547-1.21c1.191-1.67 2.364-2.61 4.587-2.61 2.437 0 4.109 1.492 4.109 3.713v.035c0 1.953-1.031 3.02-3.237 4.814l-2.562 2.132h5.923zm12.343-10.941-1.54 1.503c-.887-.732-1.857-1.204-3.094-1.204-2.383 0-4.108 1.954-4.108 4.388v.036c0 2.434 1.725 4.424 4.108 4.424 1.281 0 2.175-.441 3.059-1.169l1.458 1.425c-1.182 1.085-2.532 1.75-4.59 1.75-3.627 0-6.329-2.824-6.329-6.395v-.035c0-3.536 2.65-6.43 6.42-6.43 2.134 0 3.48.695 4.616 1.707M69 30v-.035c0-2.416-1.76-4.424-4.232-4.424-2.47 0-4.196 1.972-4.196 4.388v.036c0 2.416 1.76 4.424 4.232 4.424C67.275 34.389 69 32.417 69 30"/></svg>