<svg width="100" height="60" viewBox="0 0 100 60" fill="none" xmlns="http://www.w3.org/2000/svg">
<path d="M67.204 24.433C64.822 16.656 57.582 11 49.018 11C38.515 11 30 19.507 30 30C30 40.494 38.515 49 49.018 49C57.624 49 64.892 43.288 67.236 35.452C66.1886 36.079 64.9887 36.4056 63.768 36.396C59.945 36.396 57.278 33.5 57.278 30V29.965C57.278 26.465 59.981 23.535 63.804 23.535C65.088 23.535 66.237 23.867 67.204 24.433ZM44.632 36.183H35.634V34.46L39.919 30.818C41.626 29.379 42.249 28.58 42.249 27.46C42.249 26.235 41.377 25.523 40.239 25.523C39.101 25.523 38.319 26.145 37.359 27.39L35.812 26.18C37.003 24.51 38.176 23.57 40.399 23.57C42.836 23.57 44.508 25.062 44.508 27.283V27.318C44.508 29.271 43.477 30.338 41.271 32.132L38.709 34.264H44.632V36.183ZM56.975 25.242L55.435 26.745C54.548 26.013 53.578 25.541 52.341 25.541C49.958 25.541 48.233 27.495 48.233 29.929V29.965C48.233 32.399 49.958 34.389 52.341 34.389C53.622 34.389 54.516 33.948 55.4 33.22L56.858 34.645C55.676 35.73 54.326 36.395 52.268 36.395C48.641 36.395 45.939 33.571 45.939 30V29.965C45.939 26.429 48.589 23.535 52.359 23.535C54.493 23.535 55.839 24.23 56.975 25.242ZM68 30V29.965C68 27.549 66.24 25.541 63.768 25.541C61.298 25.541 59.572 27.513 59.572 29.929V29.965C59.572 32.381 61.332 34.389 63.804 34.389C66.275 34.389 68 32.417 68 30Z" fill="#008FBE"/>
</svg>
