<svg width="100" height="60" viewBox="0 0 100 60" fill="none" xmlns="http://www.w3.org/2000/svg">
<path d="M35.9095 33.2732H34.4778C34.2789 33.2732 34.088 33.1941 33.9473 33.0534C33.8066 32.9127 33.7276 32.7219 33.7276 32.5229V23.4547H30.8989C30.2025 23.4547 29.5346 23.7313 29.0422 24.2237C28.5497 24.7162 28.2731 25.3841 28.2731 26.0805V33.9202C28.2731 34.6166 28.5497 35.2845 29.0422 35.7769C29.5346 36.2693 30.2025 36.546 30.8989 36.546H41.3643V18H35.9096L35.9095 33.2732Z" fill="#0ABF53"/>
<path d="M23.4655 23.4547H13.1876V26.7275L19.8863 26.7275C20.0853 26.7275 20.2761 26.8066 20.4168 26.9473C20.5575 27.088 20.6366 27.2788 20.6366 27.4778V33.2732H19.2049C19.006 33.2732 18.8151 33.1941 18.6744 33.0534C18.5337 32.9127 18.4547 32.7219 18.4547 32.5229V28.364H15.6258C14.9294 28.364 14.2615 28.6406 13.7691 29.133C13.2766 29.6255 13 30.2934 13 30.9898V33.9202C13 34.6166 13.2766 35.2845 13.7691 35.7769C14.2615 36.2693 14.9294 36.546 15.6258 36.546H26.0913V26.0805C26.0913 25.3841 25.8146 24.7162 25.3222 24.2238C24.8298 23.7314 24.1619 23.4547 23.4655 23.4547Z" fill="#0ABF53"/>
<path d="M49.7511 33.2732H51.1827V23.4547H56.6375V39.3742C56.6375 40.0707 56.3609 40.7385 55.8685 41.231C55.376 41.7234 54.7081 42.0001 54.0117 42.0001H43.7338V38.1825H51.1828V36.546H46.1721C45.4757 36.546 44.8078 36.2694 44.3153 35.777C43.8229 35.2845 43.5463 34.6166 43.5463 33.9202V23.4547H49.0009V32.523C49.0009 32.7219 49.0799 32.9128 49.2206 33.0535C49.3613 33.1942 49.5521 33.2732 49.7511 33.2732Z" fill="#0ABF53"/>
<path d="M69.2849 23.4547H58.8195V33.9202C58.8195 34.6166 59.0961 35.2845 59.5885 35.7769C60.081 36.2693 60.7489 36.546 61.4453 36.546H71.7231V33.2732H65.0244C64.8254 33.2732 64.6346 33.1941 64.4939 33.0534C64.3532 32.9127 64.2742 32.7219 64.2742 32.5229V26.7276H65.7058C65.9048 26.7276 66.0956 26.8066 66.2363 26.9473C66.377 27.088 66.456 27.2788 66.456 27.4778V31.6367H69.2849C69.9813 31.6367 70.6492 31.3601 71.1416 30.8677C71.6341 30.3752 71.9107 29.7073 71.9107 29.0109V26.0805C71.9107 25.7357 71.8428 25.3942 71.7109 25.0757C71.5789 24.7571 71.3855 24.4676 71.1416 24.2238C70.8978 23.98 70.6084 23.7866 70.2898 23.6546C69.9712 23.5226 69.6297 23.4547 69.2849 23.4547Z" fill="#0ABF53"/>
<path d="M74.0925 23.4547H84.558C85.2544 23.4547 85.9223 23.7314 86.4147 24.2238C86.9071 24.7162 87.1838 25.3841 87.1838 26.0805V36.546H81.7291V27.4777C81.7285 27.2789 81.6493 27.0885 81.5087 26.9479C81.3681 26.8073 81.1777 26.7281 80.9789 26.7275H79.5472V36.546H74.0925V23.4547Z" fill="#0ABF53"/>
</svg>
