<svg width="100" height="60" viewBox="0 0 100 60" fill="none" xmlns="http://www.w3.org/2000/svg">
<path d="M12.9091 33.8738C14.1829 32.8587 16.5295 31.8977 18.5686 31.8977C21.5841 31.8977 23.8982 33.25 23.8982 36.5773V44.6366H20.5906V42.7128C19.8397 44.0137 18.2603 44.9999 16.4862 44.9999C13.9999 44.9999 12.407 43.6486 12.407 41.4129C12.407 38.593 15.2773 37.5834 18.9355 37.1083C19.9145 36.9812 20.4329 36.6567 20.4329 36.0148C20.4329 35.0619 19.6513 34.5887 18.2351 34.5887C16.7458 34.5887 15.0943 35.3883 14.072 36.3222L12.9091 33.8738ZM17.3381 42.4163C19.0978 42.4163 20.3616 40.8964 20.3616 39.0268C17.5076 39.3306 15.9435 39.8074 15.9435 41.2047C15.9435 41.9584 16.4086 42.4163 17.3381 42.4163Z" fill="#101820"/>
<path d="M51.7756 32.2619V44.6366H55.3148V38.6732C55.3148 35.8399 57.0312 35.0078 58.2266 35.0078C58.6944 35.0078 59.3246 35.1439 59.7402 35.4559L60.3847 32.1844C59.8384 31.95 59.2669 31.8977 58.799 31.8977C56.9789 31.8977 55.8349 32.7036 55.0813 34.3416V32.2619H51.7756Z" fill="#101820"/>
<path d="M76.7948 31.8978C74.9233 31.8978 73.5233 33.0048 72.7958 34.0704C72.1197 32.6929 70.6872 31.8978 68.9708 31.8978C67.0993 31.8978 65.8039 32.9381 65.2053 34.1335V32.262H61.7941V44.6367H65.336V38.2668C65.336 35.9797 66.5332 34.8826 67.651 34.8826C68.6634 34.8826 69.5928 35.5371 69.5928 37.2274V44.6367H73.1303V38.2668C73.1303 35.9536 74.2995 34.8826 75.4687 34.8826C76.4044 34.8826 77.3925 35.5633 77.3925 37.2012V44.6367H80.9281V36.0834C80.9281 33.3014 79.0566 31.8978 76.7948 31.8978Z" fill="#101820"/>
<path d="M43.16 32.2619H39.9534V31.0035C39.9534 29.3664 40.8882 28.8976 41.6942 28.8976C42.5848 28.8976 43.2781 29.2934 43.2781 29.2934L44.3698 26.7972C44.3698 26.7972 43.2636 26.0751 41.2515 26.0751C38.9897 26.0751 36.416 27.3489 36.416 31.3524V32.2619H31.0486V31.0035C31.0486 29.3664 31.9825 28.8976 32.7884 28.8976C33.2464 28.8976 33.863 29.004 34.3732 29.2934L35.4649 26.7972C34.8131 26.4158 33.7665 26.0751 32.3467 26.0751C30.0849 26.0751 27.5111 27.3489 27.5111 31.3524V32.2619H25.4576V34.9916H27.5111V44.6366H31.0486V34.9916H36.416V44.6366H39.9534V34.9916H43.16V32.2619Z" fill="#101820"/>
<path d="M45.2707 44.6359H48.8045V32.2612H45.2707V44.6359Z" fill="#101820"/>
<path d="M65.8854 15C56.3315 15 47.8179 21.6313 45.401 30.1575H48.8627C50.8821 23.8093 57.7342 18.2354 65.8854 18.2354C75.7945 18.2354 84.3577 25.779 84.3577 37.5226C84.3577 40.1585 84.017 42.5366 83.3697 44.6362H86.7286L86.762 44.5208C87.3137 42.3545 87.5931 40.0008 87.5931 37.5226C87.5931 24.4259 78.05 15 65.8854 15Z" fill="#4A4AF4"/>
</svg>
