<svg xmlns="http://www.w3.org/2000/svg" width="100" height="60" fill="none"><path fill="#fff" d="M0 0h100v60H0z"/><path fill="#3E3A39" d="M24.46 20.953v15.044h3.257V20.953zM9.5 35.997h3.008l.825-2.844h5.172l.783 2.844h3.853l-4.389-14.528h-4.368zm4.513-5.214 1.936-6.697h.083l1.834 6.697zm26.521 5.357c2.905 0 5.522-2.142 5.522-5.955 0-3.417-1.895-5.46-4.245-5.46-1.194 0-2.122.453-3.173 1.318v-1.092h-3.255V39.5h3.255v-3.607a7 7 0 0 0 1.896.247m13.25-.143h3.257l-.392-2.762v-4.616c0-2.512-1.484-3.894-4.102-3.894-1.668 0-2.822.288-4.924.926l.577 2.535c1.916-.865 2.762-1.236 3.647-1.236 1.072 0 1.546.763 1.546 1.938v.082c-3.73.703-4.885 1.091-5.605 1.809-.536.535-.763 1.298-.763 2.185 0 2.122 1.648 3.255 3.194 3.255 1.155 0 2.081-.432 3.338-1.38l.228 1.154zM29.943 24.95v11.046h3.256V24.95zm38.308.021.021-.021h-3.07l-1.935 6.718h-.101l-2.23-6.718h-3.647l4.389 11.087-1.834 3.38v.082h2.865zM40.575 27.26c1.216 0 2.184.968 2.184 3.03 0 2.637-1.421 3.811-3.008 3.811a3.6 3.6 0 0 1-1.113-.165V27.96c.68-.474 1.237-.704 1.937-.704zm9.603 5.38c0-.31.062-.62.31-.867.391-.391 1.153-.68 2.905-1.092v2.637c-.866.475-1.36.66-1.937.66-.784 0-1.278-.515-1.278-1.339"/><path fill="#1677FF" d="M29.7 22.293c0 1.071.782 1.793 1.875 1.793s1.875-.722 1.875-1.793c-.005-1.051-.788-1.793-1.88-1.793-1.093 0-1.87.742-1.87 1.793M90.5 32.032h-7.393a3.684 3.684 0 0 1-3.685-3.684h9.298a1.78 1.78 0 0 1 1.78 1.778z"/><path fill="#00B6FF" d="M72.03 28.348h5.6v3.684h-3.818a1.78 1.78 0 0 1-1.78-1.779v-1.91z"/><path fill="#1677FF" d="M83.106 22.733v9.298a3.684 3.684 0 0 1-3.688-3.683v-7.392h1.91a1.78 1.78 0 0 1 1.778 1.777"/><path fill="#00B6FF" d="M83.107 33.839v5.585h-1.91a1.78 1.78 0 0 1-1.779-1.78V33.84z"/></svg>