<svg width="100" height="60" viewBox="0 0 100 60" fill="none" xmlns="http://www.w3.org/2000/svg">
<path d="M79.8531 25.3683C79.9732 25.3683 80.0727 25.4576 80.0916 25.5743L80.095 25.6138V29.4423C80.0967 29.6654 80.1053 29.8852 80.1396 30.0912C80.3112 31.1092 80.893 31.7771 81.8951 31.7771C84.0092 31.7771 83.7501 29.298 83.7501 29.1075V25.6224C83.7501 25.5005 83.8376 25.3992 83.9526 25.3786L83.992 25.3752H85.3562C85.4764 25.3752 85.5759 25.4645 85.5947 25.5812L85.5982 25.6207V33.2089C85.5982 33.7685 85.5381 34.4141 85.3665 34.9377C85.1314 35.6656 84.6853 36.2888 84.0332 36.6682C83.1169 37.1987 81.8985 37.233 80.0916 37.0733C79.9577 37.0613 79.884 36.9824 79.8719 36.8982V35.6089C79.8719 35.3978 80.0024 35.3497 80.1911 35.3703L80.3902 35.3978C80.766 35.4458 81.3837 35.4956 81.8367 35.4682L81.9569 35.4596C82.7136 35.3926 83.7758 35.1059 83.8307 33.8458V33.7411L83.8324 32.5908C83.1786 33.1917 82.5866 33.4269 81.7252 33.4303C80.409 33.4252 79.4189 32.9788 78.7239 31.8629C78.2864 31.1625 78.2109 30.268 78.1988 29.4096L78.1971 25.6155C78.1971 25.4937 78.2847 25.3924 78.3996 25.3718L78.4391 25.3683H79.8565H79.8531ZM64.483 25.3683C65.7923 25.3683 67.0415 25.9383 67.8223 27.0044C68.3628 27.7426 68.6168 28.6731 68.6168 29.5796C68.6168 30.4861 68.3628 31.4166 67.8223 32.1548C67.0415 33.2209 65.7923 33.7857 64.483 33.7909C63.7588 33.7874 62.9815 33.523 62.3483 33.0784L62.2316 32.9926V36.4416C62.2316 36.5823 62.1286 36.6991 61.9931 36.7197L61.9519 36.7231H60.6254C60.4847 36.7231 60.368 36.6201 60.3474 36.4845L60.344 36.4433V29.9041C60.344 28.4019 60.725 27.5074 61.2226 26.8585C61.9141 25.9572 63.0313 25.37 64.483 25.37V25.3683ZM73.5039 25.3683C74.4957 25.3683 75.5494 25.655 76.1036 26.2611C76.6116 26.8173 76.8604 27.6362 76.8827 28.6955V28.8568L76.8878 33.8544C76.8878 33.9763 76.8003 34.0793 76.6853 34.0999L76.6459 34.1033H72.5275C71.6215 34.1033 70.8905 33.899 70.3551 33.4664C69.8077 33.0303 69.5177 32.378 69.4902 31.5711V31.4011C69.4885 28.8637 72.1706 28.5461 73.0457 28.5461H75.0861V28.3624C75.0861 27.995 74.9471 27.4285 74.4254 27.1589C73.6841 26.7778 72.2186 26.922 70.9986 27.698C70.8613 27.7873 70.6845 27.7461 70.6485 27.607L70.6434 27.5692L70.5679 26.316V26.3057C70.5679 26.2405 70.6005 26.1804 70.6554 26.146C71.4996 25.6327 72.5172 25.3718 73.5073 25.3718L73.5039 25.3683ZM73.1539 30.0706C71.7622 30.0706 71.4207 30.8672 71.3812 31.3359L71.3778 31.4217C71.3812 31.7616 71.5082 32.0209 71.7862 32.2406C72.0162 32.4226 72.265 32.5084 72.543 32.541L72.6494 32.5496H75.0861V30.0706H73.1539ZM64.483 26.9787C63.486 26.9838 62.767 27.7066 62.465 28.6113C62.3689 28.8997 62.3037 29.2517 62.3037 29.5779C62.3037 29.9041 62.3689 30.2577 62.465 30.5444C62.767 31.4492 63.486 32.1737 64.483 32.1788C65.4782 32.1737 66.1972 31.4509 66.501 30.5444C66.5971 30.256 66.6623 29.9041 66.6623 29.5779C66.6623 29.2517 66.5971 28.898 66.501 28.6113C66.1972 27.7066 65.4765 26.9821 64.483 26.9787Z" fill="#0075BA"/>
<path d="M36.8762 25.5555C38.1958 25.5606 39.4536 26.1426 40.2412 27.2448C40.7629 27.9761 41.0117 28.8465 41.0392 29.7358L41.0426 29.9023V34.0295C41.0426 34.5926 40.9825 35.2415 40.8109 35.7686C40.5759 36.4999 40.128 37.1283 39.4742 37.5077C38.5561 38.0416 37.3361 38.0759 35.5257 37.9163C35.3919 37.9043 35.3181 37.8236 35.3061 37.7412V36.445C35.3061 36.2321 35.4365 36.1841 35.6252 36.2047L35.8243 36.2321C36.2001 36.2802 36.8196 36.33 37.2726 36.3025L37.3927 36.2939C38.1512 36.227 39.2151 35.9386 39.27 34.6716V34.5668L39.2717 33.5145C38.5767 33.9969 37.7376 34.2492 36.8745 34.2527C35.5549 34.2475 34.2971 33.6655 33.5094 32.5634C32.4318 31.056 32.4335 28.7538 33.5094 27.2465C34.2988 26.146 35.5566 25.5623 36.8745 25.5572L36.8762 25.5555ZM88.6698 30.4449C89.7612 30.4449 90.6449 31.341 90.6449 32.4449C90.6449 33.5488 89.7612 34.445 88.6698 34.445C87.5784 34.445 86.6947 33.5488 86.6947 32.4449C86.6947 31.341 87.5784 30.4449 88.6698 30.4449ZM51.7984 25.5555C53.118 25.5606 54.3792 26.1563 55.1669 27.2825C55.7126 28.062 55.9683 29.044 55.9683 30.0002C55.9683 30.9565 55.7126 31.9402 55.1669 32.7179C54.3792 33.8441 53.118 34.4398 51.7984 34.445C50.4771 34.4398 49.2193 33.8441 48.4282 32.7179C47.8842 31.9402 47.6268 30.9565 47.6268 30.0002C47.6268 29.044 47.8842 28.062 48.4282 27.2825C49.2193 26.158 50.4771 25.5606 51.7984 25.5555ZM22.8188 22C22.9304 22 23.0248 22.091 23.0419 22.2112L23.0453 22.2524V34.1943C23.0453 34.3179 22.963 34.4226 22.8566 34.4432L22.8206 34.4467H21.5164C21.4031 34.4467 21.3105 34.354 21.2933 34.2355L21.2899 34.1943V22.2524C21.2899 22.1288 21.3705 22.024 21.4787 22.0034L21.5147 22H22.8188ZM19.3079 22C19.4178 22 19.5121 22.091 19.5293 22.2112L19.5327 22.2524V34.1943C19.5327 34.3179 19.4504 34.4226 19.344 34.4432L19.3079 34.4467H18.0021C17.8905 34.4467 17.7979 34.354 17.7807 34.2355L17.7773 34.1943V22.2524C17.7773 22.1288 17.8579 22.024 17.966 22.0034L18.0021 22H19.3079ZM45.9932 25.5555H46.091C46.2935 25.564 46.6762 25.5881 46.9096 25.6361L46.9748 25.6516C47.1481 25.7031 47.1824 25.7941 47.1876 26.0138V27.0937C47.191 27.3203 47.0468 27.425 46.8529 27.3838C45.2862 27.0525 44.3116 27.7444 44.2687 29.2002L44.2652 34.1926C44.2652 34.3179 44.176 34.4226 44.0593 34.4415L44.0198 34.445H42.6024C42.4823 34.445 42.3811 34.3522 42.3622 34.2338L42.3588 34.1926V29.171C42.3588 27.8611 42.9353 27.1091 43.4021 26.6302C44.037 25.9812 44.9619 25.5555 45.9932 25.5555ZM28.032 25.5555C31.4657 25.5555 31.905 28.8774 31.8123 30.4586C31.8072 30.5822 31.7282 30.6715 31.6253 30.6904L31.5858 30.6938H26.0054C26.0947 31.8526 27.0264 32.6732 28.1573 32.7642C29.2795 32.8569 30.1615 32.5599 30.8925 32.0775C31.0882 31.9488 31.2186 32.0312 31.234 32.232V32.2767L31.2357 33.4115C31.2357 33.6655 31.2066 33.7617 31.0727 33.8406C30.3949 34.2475 29.4872 34.4879 28.1315 34.4364C26.7999 34.3849 25.5249 33.8355 24.7304 32.711C24.1796 31.9333 23.9222 30.9496 23.9222 29.9951C23.9222 29.5899 23.9685 29.1676 24.0664 28.7761C24.4336 27.2997 25.5198 25.5555 28.032 25.5555ZM13.048 25.5555C14.0484 25.5555 15.1106 25.8473 15.67 26.4636C16.1814 27.0302 16.4319 27.8628 16.456 28.9409V29.104L16.4611 34.1909C16.4611 34.3145 16.3736 34.4209 16.2569 34.4398L16.2174 34.4432H12.0648C11.1501 34.4432 10.414 34.2355 9.87344 33.796C9.32089 33.3514 9.02917 32.6887 9 31.8663V31.693C8.99828 29.1109 11.7027 28.7864 12.5847 28.7864H14.6422V28.5993C14.6422 28.2268 14.5015 27.6482 13.9764 27.3752C13.2282 26.9873 11.7524 27.1332 10.5204 27.9246C10.3814 28.0156 10.2029 27.9744 10.1669 27.8319L10.1617 27.7941L10.0862 26.5186V26.5083C10.0862 26.4413 10.1188 26.3812 10.1737 26.3469C11.0249 25.825 12.051 25.5589 13.048 25.5589V25.5555ZM14.6422 30.3418H12.6962C11.2926 30.3418 10.9476 31.1539 10.9082 31.6294L10.9047 31.717C10.9082 32.0621 11.0369 32.3264 11.3166 32.5496C11.5482 32.7333 11.7988 32.8226 12.0802 32.8552L12.1866 32.8655H14.6422V30.3418ZM51.7984 27.2551C50.7928 27.2602 50.067 28.0242 49.7632 28.9787C49.6672 29.2826 49.6019 29.6534 49.6019 30.0002C49.6019 30.347 49.6672 30.7161 49.7632 31.0217C50.0687 31.9779 50.7946 32.7402 51.7984 32.7453C52.8023 32.7402 53.5281 31.9762 53.8353 31.0217C53.9314 30.7178 53.9966 30.3453 53.9966 30.0002C53.9966 29.6551 53.9314 29.2826 53.8353 28.9787C53.5281 28.0225 52.8023 27.2602 51.7984 27.2551ZM36.8762 27.2173C35.8741 27.2173 35.1465 27.9693 34.8445 28.9032C34.7449 29.2002 34.6814 29.5641 34.6814 29.9023C34.6814 30.2406 34.7467 30.6028 34.8445 30.8998C35.1482 31.8354 35.8741 32.5857 36.8762 32.5857C38.9594 32.5857 39.1756 30.5667 39.1962 30.0054V29.7976C39.1756 29.2345 38.9594 27.2173 36.8762 27.2173ZM28.0337 27.2534C26.582 27.2534 26.0518 28.4173 26.0243 29.0766V29.1281H29.8235C29.8235 27.7392 28.8574 27.2534 28.0337 27.2534Z" fill="#EA690B"/>
</svg>
