<svg xmlns="http://www.w3.org/2000/svg" width="100" height="60" fill="none"><path fill="#fff" d="M0 0h100v60H0z"/><path fill="#F90" d="M70.698 39.658c.927-.687.132-1.714-.816-1.31-6.29 2.668-13.125 3.958-19.343 3.958-9.218 0-18.143-2.53-25.36-6.729-.631-.368-1.1.28-.574.755C31.294 42.372 40.133 46 49.95 46c7.004 0 15.137-2.202 20.748-6.342m2.333-2.666c.719.92-.798 4.706-1.475 6.397-.205.512.235.719.698.33 3.01-2.517 3.788-7.793 3.172-8.555-.612-.756-5.873-1.406-9.085.849-.494.346-.409.826.139.76 1.808-.216 5.834-.7 6.551.22"/><path fill="#232F3E" d="m64.909 30.213 5.84-14.863q.184-.451.185-.637 0-.319-.372-.319h-1.486q-.424.001-.585.134t-.319.585L64.59 25.41l-3.716-10.297q-.159-.451-.318-.585-.16-.133-.585-.134h-1.593q-.372 0-.372.319 0 .186.186.637l5.122 12.634-.503 1.354q-.451 1.275-1.01 1.752-.556.478-1.565.477-.452 0-.716-.053a2.3 2.3 0 0 0-.398-.053q-.398 0-.399.503v.69q0 .372.134.544.132.173.425.252a5.7 5.7 0 0 0 1.512.187q1.515 0 2.455-.797.946-.795 1.66-2.627M43.109 18.047q-.385-1.287-1.102-2.19a4.75 4.75 0 0 0-1.751-1.38Q39.22 14 37.946 14q-1.194 0-2.335.45a7.5 7.5 0 0 0-2.15 1.328l-.133-.85q-.08-.53-.611-.53h-1.168q-.53 0-.53.53V32.79q0 .53.53.53h1.566q.531 0 .53-.53v-6.21q1.725 1.565 4.115 1.565 1.299 0 2.361-.517a5.2 5.2 0 0 0 1.804-1.447q.744-.927 1.155-2.256t.411-2.973q.003-1.618-.382-2.906m-5.958 7.975q-1.808 0-3.504-1.274v-7.404q1.671-1.222 3.557-1.221 3.61 0 3.61 4.963-.002 4.937-3.663 4.936M55.078 15.042q-1.195-1.034-3.716-1.034-1.247 0-2.495.225-1.247.226-2.097.597-.319.133-.425.279-.107.146-.107.517v.716q0 .477.345.478.106 0 .227-.04.12-.04.198-.067 2.045-.61 3.902-.61 1.592 0 2.23.585.637.583.637 2.016v1.751q-1.858-.45-3.345-.45-2.335 0-3.715 1.154t-1.381 3.092q0 1.806 1.115 2.88 1.114 1.075 3.025 1.074 1.141 0 2.297-.45 1.154-.452 2.11-1.275l.133.876q.079.504.585.504h1.14q.53 0 .532-.53v-9.076q-.002-2.177-1.195-3.212m-1.301 9.822a7 7 0 0 1-1.831 1.009 5.4 5.4 0 0 1-1.831.345q-1.034 0-1.593-.544t-.557-1.552q0-2.31 2.999-2.31.69 0 1.419.093.73.094 1.394.252z"/></svg>