<svg width="100" height="60" viewBox="0 0 100 60" fill="none" xmlns="http://www.w3.org/2000/svg">
<path d="M58.6336 36.057C54.495 39.0865 48.494 40.7025 43.3276 40.7025C36.0841 40.7025 29.5633 38.0429 24.6296 33.6196C24.2425 33.2714 24.59 32.7973 25.0554 33.0688C30.3791 36.1435 36.9623 37.9937 43.7623 37.9937C48.3484 37.9937 53.393 37.0514 58.0326 35.097C58.7326 34.8019 59.3197 35.5524 58.6336 36.057Z" fill="#FF9900"/>
<path d="M60.3544 34.1027C59.8277 33.4318 56.8574 33.7859 55.5227 33.9423C55.1168 33.9915 55.0554 33.6414 55.4217 33.3886C57.7881 31.7361 61.6693 32.2132 62.1217 32.7669C62.5752 33.3236 62.0039 37.1873 59.7811 39.0305C59.4396 39.3138 59.1148 39.1633 59.2663 38.7876C59.7653 37.5502 60.8841 34.7764 60.3544 34.1027Z" fill="#FF9900"/>
<path d="M55.6169 21.7191V20.1128C55.6169 19.8689 55.803 19.7066 56.0258 19.7066H63.2733C63.505 19.7066 63.6912 19.8728 63.6912 20.1128V21.4879C63.6882 21.7191 63.4932 22.021 63.1456 22.4981L59.3902 27.8194C60.7862 27.7859 62.2585 27.9925 63.5238 28.7007C63.809 28.861 63.8862 29.0941 63.908 29.3253V31.0397C63.908 31.2738 63.6476 31.5482 63.3753 31.4066C61.1456 30.2459 58.1842 30.12 55.7189 31.4184C55.4674 31.5541 55.204 31.2836 55.204 31.0495V29.4197C55.204 29.1581 55.207 28.7115 55.4714 28.3151L59.8219 22.1214H56.0357C55.8031 22.1214 55.6169 21.9591 55.6169 21.7191ZM29.1823 31.745H26.9773C26.8775 31.7402 26.7827 31.6999 26.7104 31.6315C26.638 31.563 26.5929 31.471 26.5832 31.3722V20.1394C26.5832 19.9151 26.7724 19.7361 27.009 19.7361H29.0644C29.1659 19.7396 29.2626 19.7798 29.3363 19.8492C29.41 19.9186 29.4556 20.0123 29.4644 20.1128V21.5804H29.504C30.0407 20.162 31.0486 19.5 32.407 19.5C33.7872 19.5 34.6486 20.162 35.2684 21.5804C35.803 20.162 37.0149 19.5 38.3139 19.5C39.2377 19.5 40.2486 19.8787 40.8664 20.7286C41.5634 21.6728 41.4209 23.0459 41.4209 24.2499L41.4179 31.3387C41.417 31.3932 41.4053 31.4469 41.3834 31.4968C41.3616 31.5467 41.33 31.5918 41.2905 31.6296C41.2511 31.6673 41.2045 31.6969 41.1534 31.7167C41.1024 31.7365 41.0479 31.7461 40.9932 31.745H38.7922C38.6868 31.7393 38.5874 31.6943 38.514 31.619C38.4406 31.5436 38.3985 31.4436 38.3961 31.3387V25.385C38.3961 24.9109 38.4387 23.7295 38.3337 23.28C38.1694 22.5256 37.6763 22.3132 37.0367 22.3132C36.504 22.3132 35.9456 22.6673 35.7199 23.2338C35.4932 23.8004 35.5149 24.7486 35.5149 25.385V31.3387C35.514 31.3932 35.5023 31.4469 35.4805 31.4968C35.4586 31.5467 35.427 31.5918 35.3876 31.6296C35.3481 31.6673 35.3015 31.6969 35.2505 31.7167C35.1994 31.7365 35.145 31.7461 35.0902 31.745H32.8882C32.7826 31.74 32.6828 31.6952 32.6092 31.6197C32.5357 31.5443 32.4938 31.4438 32.4922 31.3387L32.4882 25.385C32.4882 24.1328 32.6961 22.2886 31.1308 22.2886C29.5466 22.2886 29.608 24.0866 29.608 25.385V31.3387C29.6071 31.3932 29.5954 31.447 29.5734 31.497C29.5515 31.547 29.5198 31.5921 29.4803 31.6299C29.4407 31.6677 29.394 31.6973 29.3428 31.717C29.2917 31.7368 29.2371 31.7463 29.1823 31.745ZM69.9308 19.5C73.2011 19.5 74.9724 22.2886 74.9724 25.8345C74.9724 29.2604 73.0159 31.9791 69.9298 31.9791C66.7179 31.9791 64.9694 29.1895 64.9694 25.7145C64.9694 22.2177 66.7407 19.5 69.9308 19.5ZM69.9496 21.7928C68.3238 21.7928 68.2219 23.9912 68.2219 25.3604C68.2219 26.7335 68.2001 29.6636 69.9298 29.6636C71.6387 29.6636 71.7189 27.3 71.7189 25.8591C71.7189 24.9109 71.6793 23.7787 71.3902 22.8797C71.1427 22.0977 70.6506 21.7928 69.9496 21.7928ZM79.2139 31.745H77.0199C76.9143 31.7395 76.8147 31.6946 76.7411 31.6193C76.6675 31.5439 76.6252 31.4437 76.6229 31.3387L76.6199 20.103C76.632 20.0003 76.6822 19.9059 76.7608 19.8382C76.8394 19.7705 76.9406 19.7344 77.0446 19.7371H79.0882C79.2803 19.7469 79.4387 19.8748 79.4813 20.0509V21.7682H79.5219C80.1387 20.2328 81.004 19.5 82.5268 19.5C83.5159 19.5 84.4803 19.8541 85.1011 20.824C85.6773 21.722 85.6773 23.2338 85.6773 24.3207V31.3909C85.6526 31.5876 85.4694 31.745 85.2516 31.745H83.0417C82.9454 31.7398 82.8538 31.7018 82.7825 31.6373C82.7112 31.5727 82.6646 31.4857 82.6506 31.3909V25.2896C82.6506 24.062 82.7932 22.264 81.2714 22.264C80.7347 22.264 80.2417 22.621 79.9961 23.163C79.6862 23.8496 79.6456 24.5332 79.6456 25.2896V31.3387C79.6418 31.449 79.5944 31.5534 79.5139 31.6293C79.4333 31.7053 79.326 31.7468 79.2149 31.745M49.8397 26.3804V25.9063C48.2427 25.9063 46.5595 26.2446 46.5595 28.1095C46.5595 29.0548 47.0555 29.6941 47.9021 29.6941C48.5189 29.6941 49.0773 29.3164 49.4278 28.7007C49.8615 27.9433 49.8397 27.2322 49.8397 26.3804ZM52.0634 31.7145C51.9922 31.7747 51.9043 31.8119 51.8112 31.8212C51.7182 31.8305 51.6245 31.8115 51.5427 31.7666C50.81 31.1627 50.6773 30.8833 50.2773 30.3069C49.0674 31.5325 48.208 31.8984 46.6436 31.8984C44.7852 31.8984 43.3436 30.7633 43.3436 28.4882C43.3436 26.7118 44.311 25.502 45.6941 24.9109C46.8912 24.3876 48.5625 24.2961 49.8397 24.1505V23.8682C49.8397 23.3469 49.8793 22.7322 49.5704 22.2827C49.3031 21.8794 48.7882 21.7122 48.3328 21.7122C47.4922 21.7122 46.7456 22.141 46.5625 23.0273C46.5248 23.224 46.3793 23.4187 46.1783 23.4276L44.0417 23.1994C43.8615 23.16 43.6595 23.0155 43.713 22.741C44.2031 20.1679 46.5466 19.3918 48.6436 19.3918C49.7159 19.3918 51.1179 19.6751 51.9644 20.4817C53.0367 21.4761 52.9347 22.803 52.9347 24.2469V27.6571C52.9347 28.682 53.3625 29.1315 53.7664 29.6853C53.905 29.882 53.9357 30.12 53.7565 30.2676C53.1873 30.7451 52.6239 31.2294 52.0664 31.7204L52.0634 31.7145ZM20.9367 26.3804V25.9063C19.3427 25.9063 17.6595 26.2446 17.6595 28.1095C17.6595 29.0548 18.1526 29.6941 18.9991 29.6941C19.6189 29.6941 20.1743 29.3164 20.5248 28.7007C20.9585 27.9433 20.9367 27.2322 20.9367 26.3804ZM23.1605 31.7145C23.0893 31.7747 23.0013 31.8119 22.9083 31.8212C22.8152 31.8305 22.7215 31.8115 22.6397 31.7666C21.907 31.1627 21.7783 30.8833 21.3743 30.3069C20.1654 31.5325 19.309 31.8984 17.7407 31.8984C15.8862 31.8984 14.4407 30.7633 14.4407 28.4882C14.4407 26.7118 15.411 25.502 16.7912 24.9109C17.9882 24.3876 19.6595 24.2961 20.9367 24.1505V23.8682C20.9367 23.3469 20.9773 22.7322 20.6704 22.2827C20.4011 21.8794 19.8862 21.7122 19.4328 21.7122C18.5932 21.7122 17.8427 22.141 17.6595 23.0273C17.6219 23.224 17.4763 23.4187 17.2783 23.4276L15.1387 23.1994C14.9585 23.16 14.7605 23.0155 14.81 22.741C15.3031 20.1679 17.6436 19.3918 19.7407 19.3918C20.813 19.3918 22.2149 19.6751 23.0615 20.4817C24.1337 21.4761 24.0318 22.803 24.0318 24.2469V27.6571C24.0318 28.682 24.4595 29.1315 24.8634 29.6853C25.005 29.882 25.0367 30.12 24.8565 30.2676C24.2873 30.7451 23.7239 31.2294 23.1664 31.7204L23.1605 31.7145Z" fill="#221F1F"/>
</svg>
