<svg xmlns="http://www.w3.org/2000/svg" width="100" height="60" fill="none"><path fill="#fff" d="M0 0h100v60H0z"/><path fill="#F90" d="M58.634 36.057c-4.139 3.03-10.14 4.645-15.306 4.645-7.244 0-13.765-2.66-18.698-7.082-.387-.349-.04-.823.425-.551 5.324 3.075 11.907 4.925 18.707 4.925 4.586 0 9.631-.943 14.27-2.897.7-.295 1.288.455.602.96"/><path fill="#F90" d="M60.354 34.103c-.526-.671-3.497-.317-4.831-.16-.406.049-.468-.302-.101-.554 2.366-1.653 6.247-1.176 6.7-.622.453.557-.118 4.42-2.34 6.264-.342.283-.667.132-.516-.243.5-1.238 1.618-4.012 1.088-4.685"/><path fill="#221F1F" d="M55.617 21.72v-1.607c0-.244.186-.406.409-.406h7.247c.232 0 .418.166.418.406v1.375c-.003.231-.198.533-.545 1.01L59.39 27.82c1.396-.033 2.868.174 4.134.882.285.16.362.393.384.624v1.715c0 .234-.26.508-.533.367-2.23-1.161-5.19-1.287-7.656.011-.252.136-.515-.134-.515-.369v-1.63c0-.26.003-.707.267-1.104l4.35-6.194h-3.785c-.233 0-.42-.162-.42-.402M29.182 31.744h-2.205a.42.42 0 0 1-.394-.373V20.14c0-.224.19-.403.426-.403h2.055a.42.42 0 0 1 .4.377v1.467h.04c.537-1.418 1.545-2.08 2.903-2.08 1.38 0 2.242.662 2.861 2.08.535-1.418 1.747-2.08 3.046-2.08.924 0 1.935.379 2.552 1.229.697.944.555 2.317.555 3.52l-.003 7.09a.41.41 0 0 1-.265.378.4.4 0 0 1-.16.028h-2.2a.42.42 0 0 1-.397-.406v-5.954c0-.474.043-1.655-.062-2.105-.165-.754-.658-.967-1.297-.967-.533 0-1.091.354-1.317.92-.227.567-.205 1.516-.205 2.152v5.954a.41.41 0 0 1-.425.406h-2.202a.417.417 0 0 1-.396-.406l-.004-5.954c0-1.252.208-3.096-1.357-3.096-1.584 0-1.523 1.798-1.523 3.096v5.954a.41.41 0 0 1-.265.378.4.4 0 0 1-.16.028M69.931 19.5c3.27 0 5.041 2.789 5.041 6.334 0 3.426-1.956 6.145-5.042 6.145-3.212 0-4.96-2.79-4.96-6.264 0-3.497 1.77-6.215 4.96-6.215m.019 2.293c-1.626 0-1.728 2.198-1.728 3.567 0 1.374-.022 4.304 1.708 4.304 1.709 0 1.789-2.364 1.789-3.805 0-.948-.04-2.08-.329-2.98-.247-.781-.74-1.086-1.44-1.086m9.264 9.952H77.02a.42.42 0 0 1-.397-.406l-.003-11.236a.413.413 0 0 1 .425-.366h2.043a.42.42 0 0 1 .393.314v1.717h.04c.618-1.535 1.483-2.268 3.006-2.268.989 0 1.953.354 2.574 1.324.576.898.576 2.41.576 3.497v7.07a.42.42 0 0 1-.425.354h-2.21a.42.42 0 0 1-.391-.354V25.29c0-1.228.142-3.026-1.38-3.026-.536 0-1.03.357-1.275.899-.31.687-.35 1.37-.35 2.127v6.049a.42.42 0 0 1-.431.406M49.84 26.38v-.474c-1.597 0-3.28.339-3.28 2.204 0 .945.495 1.584 1.342 1.584.617 0 1.175-.378 1.526-.993.434-.758.412-1.469.412-2.32m2.223 5.335a.46.46 0 0 1-.52.052c-.733-.604-.866-.884-1.266-1.46-1.21 1.226-2.069 1.591-3.633 1.591-1.859 0-3.3-1.135-3.3-3.41 0-1.776.967-2.986 2.35-3.577 1.197-.523 2.868-.615 4.146-.76v-.283c0-.521.04-1.136-.27-1.585-.267-.404-.782-.57-1.237-.57-.84 0-1.587.428-1.77 1.314-.038.197-.184.392-.385.4l-2.136-.228c-.18-.039-.383-.184-.329-.458.49-2.573 2.834-3.35 4.93-3.35 1.073 0 2.475.284 3.321 1.09 1.073.995.97 2.322.97 3.766v3.41c0 1.025.428 1.474.832 2.028.139.197.17.435-.01.583q-.853.715-1.69 1.452zM20.937 26.38v-.474c-1.594 0-3.277.339-3.277 2.204 0 .945.493 1.584 1.34 1.584.619 0 1.174-.378 1.525-.993.434-.758.412-1.469.412-2.32m2.223 5.335a.46.46 0 0 1-.52.052c-.733-.604-.862-.884-1.266-1.46-1.209 1.226-2.065 1.591-3.633 1.591-1.855 0-3.3-1.135-3.3-3.41 0-1.776.97-2.986 2.35-3.577 1.197-.523 2.869-.615 4.146-.76v-.283c0-.521.04-1.136-.267-1.585-.269-.404-.784-.57-1.237-.57-.84 0-1.59.428-1.773 1.314-.038.197-.184.392-.382.4l-2.14-.228c-.18-.039-.377-.184-.328-.458.493-2.573 2.834-3.35 4.93-3.35 1.073 0 2.475.284 3.322 1.09 1.072.995.97 2.322.97 3.766v3.41c0 1.025.427 1.474.831 2.028.142.197.174.435-.006.583q-.855.715-1.69 1.452z"/></svg>