<svg width="100" height="60" viewBox="0 0 100 60" fill="none" xmlns="http://www.w3.org/2000/svg">
<rect width="100" height="60" fill="black"/>
<path d="M59.3031 36.6921C55.1231 39.7721 49.0631 41.4151 43.8451 41.4151C36.5291 41.4151 29.9421 38.7111 24.9601 34.2141C24.5681 33.8601 24.9191 33.3781 25.3891 33.6541C30.7661 36.7801 37.4151 38.6611 44.2831 38.6611C48.9151 38.6611 54.0111 37.7031 58.6961 35.7161C59.4041 35.4161 59.9961 36.1791 59.3031 36.6921Z" fill="#FF9900"/>
<path d="M61.042 34.7051C60.509 34.0231 57.509 34.3831 56.162 34.5421C55.752 34.5921 55.689 34.2361 56.059 33.9791C58.449 32.2991 62.369 32.7841 62.827 33.3471C63.284 33.9131 62.707 37.8411 60.462 39.7151C60.118 40.0031 59.789 39.8501 59.942 39.4681C60.447 38.2101 61.577 35.3911 61.042 34.7051Z" fill="#FF9900"/>
<path d="M56.256 22.115V20.482C56.256 20.234 56.444 20.069 56.67 20.069H63.989C64.224 20.069 64.411 20.238 64.411 20.482V21.881C64.408 22.115 64.211 22.421 63.861 22.907L60.068 28.317C61.477 28.283 62.965 28.493 64.242 29.213C64.53 29.376 64.609 29.613 64.631 29.848V31.591C64.631 31.829 64.368 32.108 64.092 31.964C61.84 30.784 58.849 30.656 56.36 31.976C56.106 32.114 55.84 31.839 55.84 31.601V29.945C55.84 29.679 55.843 29.225 56.109 28.822L60.503 22.525H56.679C56.444 22.525 56.256 22.359 56.256 22.115ZM29.557 32.308H27.331C27.2302 32.3032 27.1345 32.2623 27.0614 32.1927C26.9883 32.1231 26.9427 32.0295 26.933 31.929V20.51C26.933 20.282 27.123 20.1 27.362 20.1H29.438C29.5405 20.1035 29.6381 20.1444 29.7125 20.215C29.787 20.2855 29.833 20.3809 29.842 20.483V21.975H29.883C30.425 20.533 31.443 19.86 32.814 19.86C34.208 19.86 35.079 20.533 35.705 21.975C36.244 20.533 37.468 19.86 38.781 19.86C39.714 19.86 40.735 20.245 41.358 21.109C42.063 22.069 41.918 23.465 41.918 24.689L41.915 31.896C41.9141 31.9514 41.9022 32.006 41.8801 32.0567C41.8581 32.1074 41.8262 32.1533 41.7863 32.1917C41.7465 32.2301 41.6994 32.2602 41.6479 32.2803C41.5963 32.3005 41.5413 32.3102 41.486 32.309H39.263C39.1563 32.3035 39.0558 32.2579 38.9814 32.1813C38.907 32.1047 38.8643 32.0028 38.862 31.896V25.843C38.862 25.362 38.906 24.16 38.799 23.703C38.633 22.936 38.135 22.72 37.49 22.72C36.952 22.72 36.388 23.08 36.16 23.656C35.93 24.232 35.952 25.196 35.952 25.843V31.896C35.9511 31.9514 35.9392 32.006 35.9171 32.0567C35.8951 32.1074 35.8632 32.1533 35.8233 32.1917C35.7834 32.2301 35.7364 32.2602 35.6848 32.2803C35.6333 32.3005 35.5783 32.3102 35.523 32.309H33.3C33.1931 32.3042 33.0921 32.2588 33.0176 32.182C32.9431 32.1053 32.9006 32.003 32.899 31.896L32.896 25.843C32.896 24.57 33.106 22.695 31.524 22.695C29.924 22.695 29.986 24.523 29.986 25.843V31.896C29.9851 31.9514 29.9732 32.006 29.9511 32.0567C29.9291 32.1074 29.8972 32.1533 29.8573 32.1917C29.8174 32.2301 29.7704 32.2602 29.7189 32.2803C29.6673 32.3005 29.6123 32.3092 29.557 32.308ZM70.713 19.859C74.017 19.859 75.805 22.694 75.805 26.299C75.805 29.782 73.829 32.546 70.713 32.546C67.468 32.546 65.702 29.71 65.702 26.177C65.702 22.622 67.491 19.859 70.713 19.859ZM70.732 22.19C69.09 22.19 68.987 24.425 68.987 25.817C68.987 27.213 68.965 30.192 70.713 30.192C72.438 30.192 72.52 27.789 72.52 26.324C72.52 25.361 72.48 24.209 72.188 23.295C71.938 22.5 71.439 22.19 70.732 22.19ZM80.09 32.308H77.872C77.7655 32.3023 77.6652 32.2565 77.591 32.1799C77.5169 32.1034 77.4743 32.0016 77.472 31.895L77.468 20.472C77.4802 20.3675 77.5311 20.2713 77.6107 20.2025C77.6903 20.1336 77.7928 20.0971 77.898 20.1H79.961C80.155 20.11 80.315 20.24 80.359 20.419V22.165H80.399C81.023 20.604 81.897 19.859 83.434 19.859C84.434 19.859 85.407 20.219 86.034 21.205C86.616 22.118 86.616 23.655 86.616 24.76V31.948C86.591 32.148 86.406 32.308 86.187 32.308H83.954C83.8569 32.3026 83.7646 32.2638 83.6928 32.1982C83.621 32.1326 83.5741 32.0442 83.56 31.948V25.745C83.56 24.497 83.704 22.669 82.166 22.669C81.624 22.669 81.126 23.032 80.879 23.583C80.566 24.281 80.525 24.976 80.525 25.745V31.895C80.5211 32.0073 80.4731 32.1136 80.3916 32.1908C80.31 32.2681 80.2023 32.3102 80.09 32.308ZM50.422 26.853V26.372C48.808 26.372 47.108 26.716 47.108 28.612C47.108 29.573 47.609 30.223 48.465 30.223C49.087 30.223 49.651 29.839 50.005 29.213C50.443 28.443 50.422 27.72 50.422 26.853ZM52.667 32.277C52.595 32.3382 52.5062 32.3761 52.4122 32.3855C52.3183 32.395 52.2237 32.3756 52.141 32.33C51.401 31.716 51.267 31.432 50.863 30.846C49.642 32.092 48.774 32.464 47.193 32.464C45.317 32.464 43.86 31.31 43.86 28.997C43.86 27.191 44.837 25.961 46.234 25.361C47.444 24.828 49.131 24.735 50.422 24.588V24.3C50.422 23.77 50.462 23.145 50.149 22.688C49.879 22.278 49.359 22.109 48.899 22.109C48.051 22.109 47.296 22.544 47.111 23.445C47.074 23.645 46.926 23.843 46.723 23.852L44.565 23.621C44.383 23.58 44.18 23.433 44.233 23.154C44.728 20.538 47.096 19.749 49.213 19.749C50.296 19.749 51.712 20.037 52.567 20.857C53.65 21.868 53.547 23.217 53.547 24.685V28.152C53.547 29.194 53.979 29.651 54.387 30.214C54.527 30.414 54.559 30.656 54.377 30.806C53.8021 31.2915 53.2331 31.7839 52.67 32.283L52.667 32.277ZM21.23 26.853L21.229 26.372C19.619 26.372 17.919 26.716 17.919 28.612C17.919 29.573 18.417 30.223 19.273 30.223C19.899 30.223 20.459 29.839 20.813 29.213C21.252 28.443 21.23 27.72 21.23 26.853ZM23.475 32.277C23.403 32.3382 23.3142 32.3761 23.2202 32.3855C23.1263 32.395 23.0317 32.3756 22.949 32.33C22.209 31.716 22.079 31.432 21.671 30.846C20.45 32.092 19.585 32.464 18.001 32.464C16.128 32.464 14.668 31.31 14.668 28.997C14.668 27.191 15.648 25.961 17.042 25.361C18.252 24.828 19.939 24.735 21.23 24.588V24.3C21.23 23.77 21.27 23.145 20.96 22.688C20.688 22.278 20.168 22.109 19.71 22.109C18.862 22.109 18.104 22.544 17.92 23.445C17.882 23.645 17.735 23.843 17.534 23.852L15.374 23.621C15.191 23.58 14.991 23.433 15.041 23.154C15.539 20.538 17.904 19.749 20.021 19.749C21.104 19.749 22.52 20.037 23.375 20.857C24.459 21.868 24.355 23.217 24.355 24.685V28.152C24.355 29.194 24.787 29.651 25.195 30.214C25.339 30.414 25.37 30.656 25.188 30.806C24.6131 31.2915 24.0441 31.7839 23.481 32.283L23.475 32.277Z" fill="white"/>
</svg>
