<svg width="100" height="60" viewBox="0 0 100 60" fill="none" xmlns="http://www.w3.org/2000/svg">
<rect width="100" height="60" fill="#006FCF"/>
<path d="M100 10.7612H92.4078L88.4393 22.1497L84.298 10.7612H76.5333V28.4939L68.5959 10.7612H62.2118L54.2744 28.8789H59.7958L61.3487 25.2556H69.6313L71.1843 28.8789H81.5373V16.2826L86.1961 28.8789H90.5097L95.1685 16.2826V28.8789H100V31.6396H93.6155L88.4393 37.3338L83.0902 31.6396H61.1764V49.7573H82.9179L88.2664 43.8907L93.6155 49.7573H100V52H92.4078L88.2664 47.514L84.1251 52H58.4157V31.2944H50.1331L60.4861 8H70.4939L74.1173 15.9375V8H86.5412L88.6116 14.0394L90.6825 8H100V10.7612ZM100 35.6081L95.3413 40.612L100 45.616V49.7573L91.5451 40.612L100 31.6396V35.6081ZM76.5333 49.7573V45.4436H66.1803V42.6829H76.3605V38.5416H66.1803V35.7809H76.5333V31.6396L85.1606 40.612L76.5333 49.7573ZM62.9016 21.2866L65.3177 15.42L67.7332 21.2866H62.9016Z" fill="white"/>
</svg>
