<svg width="100" height="60" viewBox="0 0 100 60" fill="none" xmlns="http://www.w3.org/2000/svg">
<path d="M29.4718 21.6108C30.249 20.6388 30.7763 19.3337 30.6372 18C29.4996 18.0566 28.1114 18.7505 27.3077 19.7233C26.5861 20.5563 25.9474 21.916 26.1139 23.1938C27.3909 23.3045 28.6667 22.5555 29.4718 21.6108Z" fill="black"/>
<path d="M30.6228 23.4433C28.7683 23.3328 27.1915 24.4958 26.3059 24.4958C25.4198 24.4958 24.0636 23.4989 22.5968 23.5258C20.6876 23.5539 18.9162 24.6333 17.9474 26.3501C15.9547 29.7846 17.4215 34.8792 19.3593 37.6764C20.3003 39.0602 21.4344 40.584 22.9287 40.5292C24.3406 40.4738 24.8941 39.615 26.6103 39.615C28.3253 39.615 28.8238 40.5292 30.3183 40.5015C31.8683 40.4738 32.8372 39.117 33.7783 37.7318C34.8578 36.1542 35.2997 34.631 35.3275 34.5474C35.2997 34.5197 32.3388 33.3838 32.3114 29.9779C32.2834 27.126 34.636 25.7695 34.7467 25.6854C33.4182 23.7205 31.3424 23.4989 30.6228 23.4433Z" fill="black"/>
<path d="M46.7702 19.5838C50.8009 19.5838 53.6077 22.3622 53.6077 26.4073C53.6077 30.4669 50.7432 33.2598 46.6691 33.2598H42.2064V40.3569H38.982V19.5838L46.7702 19.5838ZM42.2064 30.5533H45.9061C48.7134 30.5533 50.3111 29.0419 50.3111 26.4218C50.3111 23.8019 48.7134 22.3047 45.9205 22.3047H42.2064V30.5533Z" fill="black"/>
<path d="M54.4501 36.0526C54.4501 33.4036 56.4799 31.777 60.0791 31.5754L64.2247 31.3307V30.1648C64.2247 28.4804 63.0874 27.4727 61.1875 27.4727C59.3877 27.4727 58.2647 28.3363 57.9915 29.6897H55.0548C55.2275 26.9543 57.5594 24.9389 61.3025 24.9389C64.9733 24.9389 67.3197 26.8824 67.3197 29.9199V40.3568H64.3397V37.8664H64.2681C63.3901 39.5507 61.4752 40.6159 59.4887 40.6159C56.5232 40.6159 54.4501 38.7732 54.4501 36.0526ZM64.2247 34.685V33.4902L60.4961 33.7204C58.639 33.8501 57.5883 34.6706 57.5883 35.9662C57.5883 37.2905 58.6824 38.1543 60.3523 38.1543C62.5259 38.1543 64.2247 36.6571 64.2247 34.685Z" fill="black"/>
<path d="M70.1331 45.9281V43.4087C70.363 43.4662 70.8811 43.4662 71.1405 43.4662C72.58 43.4662 73.3574 42.8617 73.8323 41.307C73.8323 41.2781 74.106 40.3857 74.106 40.3713L68.6359 25.2124H72.0041L75.8337 37.5354H75.8909L79.7206 25.2124H83.0027L77.3304 41.1485C76.0353 44.8196 74.5381 46 71.3998 46C71.1405 46 70.363 45.9711 70.1331 45.9281Z" fill="black"/>
</svg>
