<svg width="100" height="60" viewBox="0 0 100 60" fill="none" xmlns="http://www.w3.org/2000/svg">
<path d="M13.5483 35.3053H17.7191V34.8302C16.9126 34.7289 16.6664 34.6673 16.1396 33.2284C15.5615 31.6876 14.8891 29.8685 14.2506 28.0706L13.2472 25.2387L12.4989 25.4448L9.42119 33.2763C8.88954 34.6481 8.69068 34.7202 7.7793 34.8302V35.3053H11.2124V34.8302L10.8357 34.7874C10.1309 34.7085 10.104 34.5466 10.3274 33.7793C10.5257 33.1191 10.7245 32.4508 10.9117 32.0065H13.6106C13.8406 32.5648 14.1308 33.3623 14.3281 33.8676C14.586 34.5232 14.5073 34.6907 13.9469 34.7733L13.5483 34.8302V35.3053ZM12.2095 28.0946H12.2529L13.3533 31.2344H11.1202L12.2095 28.0946Z" fill="#005C76"/>
<path d="M22.0823 30.0093C22.0823 29.4526 22.0083 29.3546 21.6135 29.2882L21.1407 29.2133V28.771C21.904 28.7324 23.2287 28.584 23.9451 28.4868V33.6622C23.9451 34.294 24.0065 34.4638 24.4914 34.4638H24.9652V34.9344C24.0512 35.0652 23.0755 35.2783 22.2032 35.5L22.0823 35.3954V34.4196C21.7947 34.6324 21.5384 34.8262 21.2021 35.0314C20.7309 35.3184 20.3473 35.4776 19.8677 35.4776C18.5961 35.4776 17.8949 34.6324 17.8949 33.4626V30.0093C17.8949 29.4526 17.8214 29.3546 17.4274 29.2882L17.0141 29.2133V28.771C17.715 28.7324 18.9641 28.584 19.759 28.4868V33.0834C19.759 33.9789 20.2148 34.3304 20.7875 34.3304C21.2152 34.3304 21.6399 34.1302 22.0823 33.7468V30.0093Z" fill="#005C76"/>
<path d="M27.7008 33.06C27.7008 34.2279 28.2777 34.4472 28.5537 34.4472C28.7949 34.4472 29.0566 34.3672 29.3471 34.2017L29.5566 34.6577L28.2465 35.3185C28.0054 35.4335 27.7768 35.4776 27.6706 35.4776C26.4941 35.4776 25.8391 34.9666 25.8391 33.6124V29.3814H24.8633L24.7561 29.1872L25.2449 28.6036H25.8391V27.6739L27.4366 26.4712L27.7008 26.5998V28.6036H29.2076C29.4046 28.7711 29.3768 29.2571 29.1025 29.3814H27.7008V33.06Z" fill="#005C76"/>
<path d="M32.6294 29.4001C33.1442 28.8918 33.9137 28.4253 34.71 28.4253C36.095 28.4253 36.8602 29.2932 36.8602 30.729V33.8166C36.8602 34.6703 36.9363 34.7289 37.779 34.8302V35.3052H34.2008V34.8302C34.9376 34.7289 34.9972 34.6703 34.9972 33.8166V30.896C34.9972 29.9544 34.4698 29.5544 33.8352 29.5544C33.415 29.5544 32.9724 29.708 32.6294 30.0549V33.8166C32.6294 34.6703 32.7025 34.7289 33.3377 34.8302V35.3052H29.6697V34.8302C30.6878 34.7289 30.7649 34.6703 30.7649 33.8166V26.4571C30.7649 25.5557 30.736 25.5344 29.7712 25.4757V25.0367C30.4466 24.9322 31.6197 24.7137 32.6294 24.5V29.4001Z" fill="#005C76"/>
<path d="M41.6308 28.4253C39.9191 28.4253 38.0296 29.7081 38.0296 32.123C38.0296 33.7523 39.2042 35.4777 41.5514 35.4777C43.3064 35.4777 45.0613 34.2858 45.0613 31.8008C45.0613 30.0288 43.7498 28.4253 41.6308 28.4253ZM40.1321 31.5112C40.1321 29.8617 40.778 29.054 41.4004 29.054C42.3744 29.054 42.9588 30.2286 42.9588 32.2629C42.9588 34.467 42.275 34.8453 41.7228 34.8453C40.7439 34.8453 40.1321 33.4256 40.1321 31.5112Z" fill="#005C76"/>
<path d="M48.3229 33.8167C48.3229 34.6674 48.3965 34.729 49.5694 34.8303V35.3053H45.4221V34.8303C46.3792 34.729 46.4576 34.6674 46.4576 33.8167V30.4377C46.4576 29.508 46.4291 29.4966 45.4494 29.3853V28.9744C46.3402 28.8485 47.315 28.6457 48.3229 28.4254V29.9394H48.3531C48.5471 29.6309 48.7785 29.2662 49.0651 28.9646C49.3556 28.6558 49.6913 28.4254 50.0725 28.4254C50.6519 28.4254 51.0948 28.8485 51.0948 29.3562C51.0948 29.8617 50.7576 30.3036 50.3736 30.4377C50.1759 30.521 50.0282 30.465 49.9034 30.3757C49.6475 30.1706 49.3849 30.055 49.1426 30.055C48.8853 30.055 48.579 30.1706 48.3229 30.8056V33.8167Z" fill="#005C76"/>
<path d="M54.206 26.0208C54.206 26.6393 53.7181 27.1212 53.1 27.1212C52.5084 27.1212 51.9922 26.6393 51.9922 26.0208C51.9922 25.4001 52.5084 24.9126 53.1 24.9126C53.7181 24.9126 54.206 25.4001 54.206 26.0208ZM52.2958 30.4377C52.2958 29.5079 52.2665 29.4966 51.2913 29.3853V28.9744C52.1871 28.8485 53.1974 28.6457 54.1605 28.4253V33.7974C54.1605 34.6674 54.2362 34.729 55.2055 34.8302V35.3053H51.2466V34.8302C52.222 34.729 52.2958 34.6674 52.2958 33.7974V30.4377Z" fill="#005C76"/>
<path d="M61.2659 28.6008L61.4004 28.8197L57.8963 34.6577H59.1024C60.1509 34.6577 60.5588 34.467 61.07 33.6009L61.2941 33.2227L61.8425 33.4256C61.5696 34.1828 61.3726 34.7473 61.1411 35.3053H55.6416L55.4897 35.0822L59.1024 29.2464H58.0317C57.0244 29.2464 56.7539 29.4775 56.4048 30.2286L56.1879 30.6954L55.6416 30.4908C55.821 29.9142 56.0624 28.9489 56.2035 28.2822H56.541C56.6179 28.5059 56.7827 28.6008 57.3626 28.6008H61.2659Z" fill="#005C76"/>
<path d="M67.3833 33.5406C66.7702 33.9524 66.2974 34.1303 65.7351 34.1303C64.5737 34.1303 63.5363 33.3429 63.5363 31.6351C65.0504 31.5756 67.0798 31.4344 67.2909 31.3902C67.5946 31.3318 67.6393 31.2977 67.6393 30.7265C67.6393 29.5487 66.586 28.4307 65.2637 28.4307C63.4065 28.4307 61.7631 30.0663 61.7631 32.2629C61.7631 33.9706 62.9464 35.4776 65.0033 35.4776C65.5348 35.4776 66.7264 35.1703 67.5946 33.8439L67.3833 33.5406ZM63.6029 30.9489C63.6931 29.9142 64.2579 29.1243 64.82 29.1243C65.3999 29.1243 65.8854 29.9237 65.8854 30.5414C65.8854 30.8378 65.8267 30.9016 65.6002 30.9016L63.6029 30.9489Z" fill="#005C76"/>
<path d="M68.1309 34.2847C68.1309 33.5984 68.6325 33.0927 69.284 33.0927C69.9509 33.0927 70.4532 33.5984 70.4532 34.2847C70.4532 34.9969 69.9509 35.4775 69.284 35.4775C68.6325 35.4775 68.1309 34.9969 68.1309 34.2847Z" fill="#005C76"/>
<path d="M80.2858 35.4151H79.3583L73.3042 27.9823H73.2706V31.1379C73.2706 32.7411 73.363 33.5845 73.4216 34.0592C73.5018 34.5874 73.882 34.7873 74.8934 34.8302V35.3053H71.111V34.8302C71.8747 34.8009 72.2392 34.5874 72.3106 34.0592C72.3793 33.5845 72.4692 32.7411 72.4692 31.1379V28.1138C72.4692 27.1444 72.4692 26.7676 72.1925 26.4066C71.9023 26.0362 71.5206 25.9399 70.898 25.8891V25.4103H73.5483L79.4464 32.2706H79.4779V29.5812C79.4779 27.9823 79.3904 27.1444 79.3266 26.6638C79.2505 26.1269 78.8669 25.9399 77.8576 25.8891V25.4103H81.6398V25.8891C80.874 25.9184 80.5132 26.1269 80.4363 26.6638C80.3743 27.1444 80.2858 27.9823 80.2858 29.5812V35.4151Z" fill="#005C76"/>
<path d="M86.4209 33.5405C85.806 33.9523 85.3357 34.1302 84.7675 34.1302C83.6124 34.1302 82.5776 33.3428 82.5776 31.635C84.085 31.5755 86.1131 31.4343 86.3263 31.3901C86.6305 31.3317 86.6745 31.2976 86.6745 30.7264C86.6745 29.5486 85.6256 28.4306 84.2998 28.4306C82.4407 28.4306 80.794 30.0662 80.794 32.2628C80.794 33.9705 81.9838 35.4775 84.0363 35.4775C84.5725 35.4775 85.7629 35.1702 86.6305 33.8438L86.4209 33.5405ZM82.6403 30.9488C82.7281 29.9141 83.2937 29.1242 83.855 29.1242C84.4329 29.1242 84.9192 29.9236 84.9192 30.5413C84.9192 30.8377 84.8647 30.9015 84.6304 30.9015L82.6403 30.9488Z" fill="#005C76"/>
<path d="M89.6424 33.06C89.6424 34.228 90.2166 34.4472 90.4969 34.4472C90.7351 34.4472 90.9968 34.3673 91.2847 34.2018L91.4988 34.6578L90.1878 35.3185C89.9465 35.4335 89.7224 35.4777 89.6092 35.4777C88.4393 35.4777 87.7733 34.9666 87.7733 33.6125V29.3815H86.8053L86.6987 29.1873L87.1886 28.6037H87.7733V27.6739L89.3801 26.4713L89.6424 26.5998V28.6037H91.1489C91.3481 28.7712 91.3125 29.2572 91.0421 29.3815H89.6424V33.06Z" fill="#005C76"/>
<path d="M91.3104 27.2462H91.4108C91.4787 27.2462 91.5248 27.2277 91.5506 27.1923C91.5764 27.1557 91.5896 27.1162 91.5896 27.0724C91.5896 27.0459 91.5853 27.0221 91.5746 26.9999C91.5644 26.9793 91.5469 26.9609 91.5278 26.9468C91.5069 26.9324 91.4709 26.9251 91.4191 26.9251H91.3104V27.2462ZM91.3104 27.7384H91.1609V26.8122H91.459C91.5306 26.8122 91.5874 26.8224 91.6243 26.8439C91.6603 26.8648 91.6901 26.8951 91.7118 26.9351C91.7319 26.9752 91.7432 27.0186 91.7432 27.0644C91.7432 27.119 91.728 27.17 91.7003 27.2195C91.6692 27.2689 91.6243 27.3063 91.5644 27.3329C91.5946 27.3531 91.63 27.3978 91.6682 27.4668L91.8128 27.7384H91.6451L91.5249 27.511L91.4954 27.4523C91.4601 27.3906 91.4356 27.36 91.4191 27.36H91.3104V27.7384ZM91.4538 27.9311C91.5679 27.9311 91.6749 27.904 91.7738 27.8471C91.8747 27.7918 91.9561 27.7132 92.0149 27.6119C92.0743 27.5111 92.1049 27.401 92.1038 27.2828C92.1038 27.1668 92.0743 27.0587 92.019 26.957C91.9595 26.8559 91.8806 26.7769 91.7797 26.7194C91.6766 26.6612 91.5679 26.633 91.4538 26.633C91.3401 26.633 91.2323 26.6612 91.1329 26.7194C91.0292 26.7769 90.9492 26.8559 90.8923 26.957C90.8357 27.0587 90.8064 27.1668 90.8064 27.2828C90.8064 27.401 90.8357 27.5111 90.8936 27.6119C90.9559 27.7132 91.0349 27.7918 91.1349 27.8471C91.2332 27.904 91.341 27.9311 91.4538 27.9311ZM91.4538 28.0474C91.3201 28.0474 91.1943 28.0146 91.0778 27.9484C90.9596 27.8825 90.8663 27.7901 90.7947 27.6709C90.7238 27.5505 90.6892 27.421 90.6892 27.2824C90.6892 27.1457 90.7238 27.0181 90.7917 26.8984C90.8587 26.7799 90.9533 26.6858 91.0741 26.6183C91.1915 26.55 91.3201 26.5159 91.4538 26.5159C91.5896 26.5159 91.717 26.55 91.8357 26.6183C91.9561 26.6858 92.0491 26.7799 92.1168 26.8984C92.1856 27.0181 92.2209 27.1457 92.2209 27.2824C92.2209 27.421 92.1845 27.5505 92.114 27.6709C92.043 27.7901 91.9493 27.8825 91.832 27.9484C91.715 28.0146 91.5883 28.0474 91.4538 28.0474Z" fill="#005C76"/>
</svg>
