<svg width="100" height="60" viewBox="0 0 100 60" fill="none" xmlns="http://www.w3.org/2000/svg">
<path d="M17.9537 26.5958C17.9537 23.4723 15.5871 20.9406 12.4769 20.9406C9.36661 20.9406 7 23.4723 7 26.5958V37.9062H8.36933C8.36933 35.5637 10.2086 33.6649 12.4769 33.6649C14.7451 33.6649 16.5844 35.5642 16.5844 37.9062H17.9537V26.5958Z" fill="#199BFA"/>
<path d="M25.579 20L22.0622 37.9069H25.185L25.8643 33.9751H29.7448L30.4241 37.9069H33.6379L30.1206 20H25.579ZM26.3007 31.5204L27.8043 22.8798L29.3079 31.5204H26.3007Z" fill="#282828"/>
<path d="M40.5915 33.7994C40.5915 35.0765 39.8879 35.7029 38.9419 35.7029C37.9959 35.7029 37.5838 35.1521 37.5838 33.9746V24.8083H34.5761V34.3751C34.5761 36.9295 35.8373 38.1317 37.6808 38.1317C39.1844 38.1317 40.1061 37.3551 40.5915 36.2782V37.9058H43.5992V24.8083H40.5915V33.7994Z" fill="#282828"/>
<path d="M45.3846 22.1788H48.3918V24.8088H50.4534V27.0879H48.3918V34.25C48.3918 35.1517 48.7555 35.5522 49.5317 35.5522C49.9201 35.5522 50.2837 35.5021 50.4534 35.427V37.8062C50.211 37.9063 49.6292 38.0065 48.9499 38.0065C46.4518 38.0065 45.3846 36.8544 45.3846 34.5003V22.1788Z" fill="#282828"/>
<path d="M56.1481 24.5834C58.9371 24.5834 60.9503 26.2361 60.9503 29.4418V33.2234C60.9503 36.4542 58.8643 38.132 56.1238 38.132C53.3833 38.132 51.3943 36.4542 51.3943 33.2735V29.492C51.3943 26.2611 53.3833 24.5834 56.1481 24.5834ZM57.9188 33.349V29.3672C57.9188 27.7145 57.288 26.938 56.1481 26.938C55.0081 26.938 54.4016 27.7145 54.4016 29.3422V33.349C54.4016 34.9517 54.9591 35.7533 56.1481 35.7533C57.337 35.7533 57.9188 34.9517 57.9188 33.349Z" fill="#282828"/>
<path d="M65.4611 26.4117C65.9707 25.4098 66.9652 24.5833 68.4203 24.5833C70.5788 24.5833 72.01 26.0853 72.01 29.216V33.4486C72.01 36.6043 70.506 38.1318 68.2993 38.1318C66.892 38.1318 65.8975 37.4058 65.4611 36.404V42.0001H62.4535V24.809H65.4611V26.4117ZM67.2799 35.7782C68.3959 35.7782 68.9783 35.0517 68.9783 33.4741V29.2169C68.9783 27.5893 68.347 26.9629 67.2799 26.9629C66.1158 26.9629 65.4364 27.7895 65.4364 29.4172V33.2989C65.4364 34.9266 66.043 35.7782 67.2799 35.7782Z" fill="#282828"/>
<path d="M79.8713 26.3117C79.4105 25.2598 78.5617 24.5834 77.1549 24.5834C75.0203 24.5834 73.4198 26.1109 73.4198 29.2916V33.4492C73.4198 36.6299 74.9231 38.1325 77.0095 38.1325C78.4645 38.1325 79.3861 37.3059 79.8713 36.254V37.9067H82.8792V24.8087H79.8713V26.3117ZM79.8957 33.2739C79.8957 34.9016 79.2162 35.7533 78.052 35.7533C77.0333 35.7533 76.4515 35.1019 76.4515 33.4993V29.2416C76.4515 27.6139 77.0333 26.9125 78.1254 26.9125C79.2895 26.9125 79.8964 27.7641 79.8964 29.4418L79.8957 33.2739Z" fill="#282828"/>
<path d="M88.9151 32.7725L90.831 24.8083H93.7777L88.9054 41.9999H85.8877L87.3874 36.8549L83.7244 24.8083H86.926L88.9151 32.7725Z" fill="#282828"/>
</svg>
