<svg width="100" height="60" viewBox="0 0 100 60" fill="none" xmlns="http://www.w3.org/2000/svg">
<path d="M26.75 9.5C22.7459 9.5 19.5 12.7459 19.5 16.75V43.25C19.5 47.2541 22.7459 50.5 26.75 50.5H73.25C77.2541 50.5 80.5 47.2541 80.5 43.25V16.75C80.5 12.7459 77.2541 9.5 73.25 9.5H26.75ZM18 16.75C18 11.9175 21.9175 8 26.75 8H73.25C78.0825 8 82 11.9175 82 16.75V43.25C82 48.0825 78.0825 52 73.25 52H26.75C21.9175 52 18 48.0825 18 43.25V16.75Z" fill="#005498"/>
<path d="M38.061 32.821H47.363L52.571 27.277H61.906L53.979 36.069H24.666V30.197H40.387L38.061 32.821Z" fill="#005498"/>
<path d="M61.906 27.277L52.57 27.277L47.362 32.854H37.995L45.921 24.062H75.27V29.902H59.547L61.906 27.277Z" fill="#FFD800"/>
<path d="M60.464 20.617V18.485H61.447V17.107H60.432V14.909L58.565 15.893L58.565 17.107H57.91V18.617H58.565L58.565 20.913C58.565 22.061 60.071 22.881 61.447 21.897V20.65C61.152 20.978 60.464 21.011 60.464 20.617ZM24.699 14.548H28.105C29.808 14.548 31.053 16.812 29.481 18.222C31.446 19.436 30.561 22.126 28.367 22.159H24.699V14.548ZM26.795 19.108V20.65H27.646C28.727 20.65 28.629 19.108 27.614 19.108H26.795ZM27.614 16.09C27.384 16.024 26.794 16.057 26.794 16.09V17.533H27.646C28.236 17.533 28.563 16.516 27.614 16.09ZM46.151 20.29C45.726 20.617 45.365 20.65 44.808 20.65C44.285 20.65 43.63 20.29 43.63 19.699C43.63 19.01 44.252 18.583 44.808 18.583C45.365 18.583 45.791 18.682 46.151 18.977L46.151 17.337C45.726 17.074 45.104 16.976 44.547 16.976C43.04 16.976 41.828 18.091 41.828 19.633C41.828 21.175 43.138 22.29 44.678 22.29C45.234 22.29 45.726 22.16 46.151 21.897V20.29ZM38.193 17.533V17.107H36.326V22.192H38.16V19.338C38.16 18.354 39.634 18.321 39.634 19.338V22.192H41.468V18.878C41.468 17.435 39.733 16.385 38.193 17.533ZM54.34 17.533V17.107H52.505V22.192H54.34V19.338C54.34 18.354 55.814 18.321 55.814 19.338V22.192H57.648V18.878C57.648 17.435 55.912 16.385 54.34 17.533ZM71.502 20.29C71.076 20.617 70.716 20.65 70.126 20.65C69.602 20.65 68.98 20.29 68.98 19.699C68.98 19.01 69.602 18.583 70.126 18.583C70.683 18.583 71.174 18.682 71.502 18.977L71.502 17.337C71.076 17.074 70.454 16.976 69.897 16.976C68.357 16.976 67.146 18.091 67.146 19.633C67.146 21.175 68.488 22.29 69.995 22.29C70.518 22.29 71.076 22.16 71.502 21.897V20.29ZM74.384 20.617V18.485H75.334V17.107H74.286V14.909L72.452 15.893L72.452 17.107H71.797V18.617H72.452L72.452 20.913C72.452 22.061 73.992 22.881 75.334 21.897V20.65C75.039 20.978 74.384 21.011 74.384 20.617ZM49.296 16.943C50.868 16.943 52.146 18.123 52.146 19.699C52.146 21.24 50.868 22.323 49.329 22.323C47.789 22.323 46.479 21.175 46.479 19.633C46.479 18.123 47.789 16.943 49.296 16.943ZM50.376 19.699C50.376 18.977 49.886 18.616 49.329 18.616C48.772 18.616 48.313 18.977 48.313 19.633C48.313 20.257 48.772 20.716 49.329 20.716C49.885 20.716 50.376 20.256 50.376 19.699ZM47.462 42.926H44.055C44.055 43.615 44.579 43.877 45.562 43.877C46.053 43.877 46.741 43.681 47.363 43.352V44.862C47.363 44.862 46.61 45.452 45.136 45.452C43.433 45.452 42.221 44.304 42.221 42.729C42.221 41.286 43.236 40.006 44.94 40.006C46.74 40.006 47.462 41.154 47.462 42.926ZM43.99 41.909H45.66C45.66 41.417 45.202 41.253 44.841 41.253C44.481 41.253 44.088 41.417 43.99 41.909ZM28.236 43.188L29.743 41.023V45.321H31.708L31.74 37.874H29.743L28.236 40.104L26.696 37.874H24.7L24.732 45.321H26.697V41.023L28.236 43.188ZM49.59 42.335C49.787 41.909 50.213 41.548 50.77 41.548C51.064 41.548 51.392 41.679 51.621 41.843V40.236C51.457 40.039 51.195 39.973 50.934 39.973C50.474 39.973 49.852 40.236 49.591 40.563V40.039H47.822V45.321H49.591L49.59 42.335ZM34.524 44.993C35.147 45.255 35.9 45.353 36.391 45.353C38.291 45.353 38.848 44.369 38.848 43.549C38.848 42.598 37.865 42.073 36.981 41.942C36.85 41.942 36.489 41.843 36.489 41.679C36.489 41.548 36.588 41.384 37.014 41.384C37.374 41.384 38.029 41.515 38.356 41.679L38.291 40.301C37.8 40.138 37.111 40.006 36.588 40.006C35.508 40.006 34.557 40.662 34.557 41.712C34.557 42.532 35.147 42.959 36.097 43.156C36.489 43.188 36.85 43.352 36.85 43.549C36.85 43.812 36.588 43.877 36.326 43.877C36.096 43.877 35.507 43.943 34.524 43.549V44.993Z" fill="#005498"/>
<path d="M41.238 43.713V41.548H42.254V40.138H41.173V37.874L39.306 38.858V40.138H38.651V41.647H39.306V44.009C39.306 45.189 40.846 45.977 42.254 44.993V43.713C41.959 44.009 41.238 44.074 41.238 43.713ZM32.231 40.138H34.197V45.255H32.23L32.231 40.138ZM33.214 39.973C33.804 39.973 34.295 39.481 34.295 38.891C34.295 38.333 33.804 37.874 33.215 37.874C32.9457 37.875 32.6877 37.9826 32.4974 38.1731C32.307 38.3636 32.1998 38.6217 32.199 38.891C32.199 39.481 32.657 39.973 33.214 39.973ZM65.508 44.993C66.131 45.255 66.884 45.353 67.375 45.353C69.275 45.353 69.865 44.369 69.865 43.549C69.865 42.598 68.882 42.073 67.965 41.942C67.834 41.942 67.474 41.843 67.474 41.679C67.474 41.548 67.572 41.384 68.03 41.384C68.39 41.384 69.013 41.515 69.373 41.679L69.275 40.301C68.784 40.138 68.095 40.006 67.572 40.006C66.491 40.006 65.542 40.662 65.542 41.712C65.542 42.532 66.131 42.959 67.08 43.156C67.474 43.188 67.834 43.352 67.834 43.549C67.834 43.812 67.572 43.877 67.31 43.877C67.08 43.877 66.49 43.943 65.508 43.549V44.993ZM59.744 43.156C59.121 43.615 58.63 43.713 57.811 43.713C56.567 43.713 55.453 42.696 55.453 41.647C55.453 40.498 56.076 39.416 57.811 39.416C58.597 39.416 59.252 39.546 59.744 40.006V38.235C59.121 37.874 58.27 37.775 57.517 37.775C55.257 37.775 53.521 39.383 53.521 41.581C53.521 43.746 55.421 45.387 57.648 45.387C58.401 45.387 59.121 45.222 59.744 44.862V43.156ZM62.888 41.286C62.331 41.253 61.185 41.318 60.366 41.712L60.628 40.302C62.528 39.678 65.214 40.006 65.214 41.679V45.222H63.445L63.379 45.092C62.593 45.583 59.646 45.78 60.071 43.484C60.268 42.139 61.84 41.811 62.823 41.811C63.313 41.811 63.51 41.318 62.888 41.286ZM63.314 42.959C62.954 42.926 61.938 43.09 61.938 43.746C61.938 44.468 63.314 44.304 63.314 43.582V42.959ZM71.96 40.531V37.874H70.126V45.321H71.961V42.4C71.961 41.416 73.467 41.383 73.467 42.4V45.32H75.334V41.94C75.334 40.432 73.566 39.382 71.961 40.53" fill="#005498"/>
<path d="M33.607 18.321C33.051 18.288 31.904 18.354 31.151 18.747L31.413 17.337C33.247 16.713 35.867 17.074 35.867 18.714V22.192H34.131L34.099 22.028C33.345 22.52 30.365 22.75 30.823 20.486C31.053 19.141 32.559 18.813 33.509 18.813C34 18.813 34.197 18.353 33.607 18.321ZM32.657 20.748C32.657 20.092 33.64 19.896 34.033 19.961V20.584C34.033 21.274 32.657 21.47 32.657 20.748Z" fill="#005498"/>
<path d="M64.559 18.321C64.002 18.288 62.889 18.354 62.069 18.747L62.364 17.337C64.198 16.713 66.819 17.074 66.819 18.714V22.192H65.115L65.05 22.028C64.263 22.52 61.381 22.75 61.774 20.486C62.004 19.141 63.544 18.813 64.493 18.813C64.984 18.813 65.181 18.353 64.559 18.321ZM63.641 20.748C63.641 20.092 64.624 19.896 64.984 19.961V20.584C64.984 21.274 63.641 21.47 63.641 20.748Z" fill="#005498"/>
</svg>
