<svg xmlns="http://www.w3.org/2000/svg" width="100" height="60" fill="none"><path fill="#005498" d="M0 0h100v60H0z"/><path fill="#fff" d="M26.75 8A8.75 8.75 0 0 0 18 16.75v26.5A8.75 8.75 0 0 0 26.75 52h46.5A8.75 8.75 0 0 0 82 43.25v-26.5A8.75 8.75 0 0 0 73.25 8zm27.23 28.07H24.67V30.2h15.72l5.53-6.14h29.35v5.84H59.55zM70 22.29a3 3 0 0 1-1.8-.6 2.6 2.6 0 0 1-1.06-2.06 2.6 2.6 0 0 1 1-2.07 2.8 2.8 0 0 1 1.76-.58l.63.04q.55.07.97.32v1.64c-.33-.3-.82-.4-1.37-.4-.53 0-1.15.43-1.15 1.12v.1c.08.53.65.85 1.15.85.59 0 .95-.03 1.37-.36v1.6c-.42.27-.98.4-1.5.4m5.33-1.64v1.25q-.64.45-1.26.44c-.9 0-1.62-.64-1.62-1.43v-2.3h-.65v-1.5h.65v-1.22l1.84-.98v2.2h1.04v1.38h-.95v2.13c0 .4.66.36.95.03m-13.88 0v1.25c-1.38.98-2.89.16-2.89-.99v-2.3h-.65v-1.5h.66v-1.22l1.86-.98v2.2h1.02v1.38h-.99v2.13c0 .4.7.36.99.03m-16.77 1.64c-1.54 0-2.85-1.11-2.85-2.66a2.64 2.64 0 0 1 2.72-2.65l.48.02h.01l.07.01c.38.05.76.15 1.04.33v1.64c-.36-.3-.78-.4-1.34-.4s-1.18.43-1.18 1.12c0 .59.65.95 1.18.95.55 0 .92-.03 1.34-.36v1.6q-.64.4-1.47.4m-3.21-.1h-1.84v-2.85c0-1.02-1.47-.99-1.47 0v2.85h-1.83v-5.08h1.86v.42c1.54-1.14 3.28-.1 3.28 1.35zm16.18 0H55.8v-2.85c0-1.02-1.47-.99-1.47 0v2.85H52.5v-5.08h1.84v.42c1.57-1.14 3.3-.1 3.3 1.35zm4.42-3.44.3-1.41c1.83-.63 4.45-.27 4.45 1.37v3.48h-1.7l-.07-.16c-.79.49-3.67.72-3.28-1.54.23-1.35 1.77-1.68 2.72-1.68.5 0 .7-.46.07-.49a6 6 0 0 0-2.5.43m-30.92 0 .26-1.41c1.84-.63 4.46-.27 4.46 1.37v3.48h-1.74l-.03-.16c-.76.49-3.74.72-3.28-1.54.23-1.35 1.74-1.68 2.69-1.68.49 0 .69-.46.1-.49a5.4 5.4 0 0 0-2.46.43m-3.04-4.2c1.7 0 2.94 2.26 1.37 3.67 1.97 1.22 1.08 3.9-1.11 3.94H24.7v-7.61zm24.04 5.15c0 1.54-1.28 2.62-2.82 2.62s-2.85-1.14-2.85-2.69a2.77 2.77 0 0 1 2.82-2.69 2.77 2.77 0 0 1 2.85 2.76m-8.1 23.23c0 .69.53.95 1.51.95.5 0 1.18-.2 1.8-.53v1.51s-.75.6-2.22.6c-1.7 0-2.92-1.16-2.92-2.73A2.63 2.63 0 0 1 44.94 40c1.8 0 2.52 1.14 2.52 2.92zm-14.3-1.9-1.51 2.16-1.54-2.17v4.3h-1.97l-.03-7.45h2l1.54 2.23 1.5-2.23h2l-.03 7.45h-1.97zm21.02.52c-.56 0-.98.36-1.18.79v2.98h-1.77v-5.28h1.77v.52c.26-.32.88-.59 1.34-.59a.87.87 0 0 1 .7.27v1.6c-.24-.16-.57-.3-.86-.3m-14.38 3.8a5 5 0 0 1-1.87-.36v-1.44c.88.35 1.45.34 1.72.33h.09c.26 0 .52-.07.52-.33 0-.2-.36-.36-.75-.4-.95-.2-1.54-.62-1.54-1.44 0-1.05.95-1.7 2.03-1.7.52 0 1.21.13 1.7.3l.07 1.37a4 4 0 0 0-1.35-.3c-.42 0-.52.17-.52.3 0 .16.36.26.5.26.88.13 1.86.66 1.86 1.6 0 .83-.56 1.81-2.46 1.81m4.85-3.8v2.16c0 .36.72.3 1.01 0V45c-1.4.99-2.94.2-2.94-.98v-2.36h-.66v-1.51h.66v-1.28l1.86-.99v2.27h1.08v1.4zm-7.04-1.41v5.12h-1.97v-5.12zm.1-1.25c0 .6-.5 1.08-1.09 1.08-.55 0-1.01-.49-1.01-1.08a1 1 0 0 1 1.02-1.02c.58 0 1.08.46 1.08 1.02m33.08 6.46c-.5 0-1.25-.1-1.87-.36v-1.44c.87.35 1.44.34 1.71.33h.09c.26 0 .52-.07.52-.33 0-.2-.36-.36-.75-.4-.95-.2-1.54-.62-1.54-1.44 0-1.05.95-1.7 2.03-1.7.53 0 1.21.13 1.7.3l.1 1.37c-.36-.16-.98-.3-1.34-.3-.46 0-.56.17-.56.3 0 .16.36.26.5.26.91.13 1.9.66 1.9 1.6 0 .83-.6 1.81-2.5 1.81m-9.57-1.64c.82 0 1.31-.1 1.93-.55v1.7a4.1 4.1 0 0 1-2.1.53c-2.22 0-4.12-1.64-4.12-3.8 0-2.2 1.74-3.82 4-3.82.75 0 1.6.1 2.22.46V40c-.49-.46-1.14-.6-1.93-.6-1.73 0-2.36 1.09-2.36 2.24 0 1.05 1.12 2.06 2.36 2.06m2.56-2 .26-1.4c1.9-.63 4.58-.3 4.58 1.37v3.54h-1.76l-.07-.13c-.79.5-3.73.69-3.3-1.6.19-1.35 1.76-1.68 2.74-1.68.5 0 .69-.5.07-.52a6 6 0 0 0-2.52.42m9.76-3.84h1.83v2.66c1.6-1.15 3.37-.1 3.37 1.41v3.38h-1.86V42.4c0-1.02-1.5-.98-1.5 0v2.92h-1.84z"/><path fill="#fff" d="M27.61 16.09a2 2 0 0 0-.82 0v1.44h.86c.59 0 .91-1.01-.04-1.44M26.8 19.1v1.55h.85c1.08 0 .98-1.54-.04-1.54zM34.03 19.96c-.39-.06-1.37.13-1.37.79 0 .72 1.37.52 1.37-.17zM64.98 19.96c-.36-.06-1.34.13-1.34.79 0 .72 1.34.52 1.34-.17zM63.31 42.96c-.36-.03-1.37.13-1.37.79 0 .72 1.37.55 1.37-.17zM50.38 19.7c0 .56-.5 1.02-1.05 1.02-.56 0-1.02-.46-1.02-1.09 0-.65.46-1.01 1.02-1.01.55 0 1.05.36 1.05 1.08M58.57 18.62h-.66V17.1v1.5zM43.99 41.9h1.67c0-.48-.46-.65-.82-.65s-.75.17-.85.66"/><path fill="#FFD800" d="M38.06 32.82h9.3l5.04-5.36.17-.18h9.34l-2.36 2.62h15.72v-5.84H45.92l-5.73 6.35z"/></svg>