<svg width="100" height="60" viewBox="0 0 100 60" fill="none" xmlns="http://www.w3.org/2000/svg">
<rect width="100" height="60" fill="#F0B90B"/>
<path d="M37.895 36.9184V23.1119H43.7921C44.7539 23.1119 45.5471 23.2781 46.1718 23.6107C46.7965 23.9388 47.2617 24.3815 47.5673 24.9388C47.8729 25.4916 48.0257 26.1051 48.0257 26.7792C48.0257 27.3725 47.9201 27.8623 47.7089 28.2488C47.5021 28.6354 47.228 28.941 46.8864 29.1657C46.5494 29.3904 46.1831 29.5567 45.7876 29.6646V29.7994C46.21 29.8264 46.6348 29.9747 47.0617 30.2443C47.4887 30.514 47.846 30.9005 48.1336 31.4039C48.4212 31.9072 48.565 32.5229 48.565 33.251C48.565 33.9431 48.4077 34.5656 48.0931 35.1184C47.7785 35.6712 47.2819 36.1094 46.6033 36.433C45.9247 36.7566 45.0415 36.9184 43.9539 36.9184H37.895ZM39.5669 35.4352H43.9539C45.046 35.4352 45.8213 35.224 46.2797 34.8015C46.7426 34.3746 46.9741 33.8577 46.9741 33.251C46.9741 32.7836 46.855 32.3522 46.6168 31.9567C46.3786 31.5567 46.0393 31.2376 45.5988 30.9994C45.1584 30.7567 44.637 30.6353 44.0348 30.6353H39.5669V35.4352ZM39.5669 29.1792H43.7382C44.2415 29.1792 44.6955 29.0803 45.0999 28.8825C45.5089 28.6848 45.8325 28.4062 46.0707 28.0466C46.3134 27.6871 46.4348 27.2646 46.4348 26.7792C46.4348 26.1725 46.2235 25.6579 45.8011 25.2354C45.3786 24.8085 44.7089 24.595 43.7921 24.595H39.5669V29.1792Z" fill="white"/>
<path d="M59.7182 23.1119H62.6372V32.078C62.6372 33.0847 62.3968 33.9656 61.9159 34.7207C61.4395 35.4757 60.7721 36.0644 59.9137 36.4869C59.0553 36.9049 58.0553 37.1139 56.9137 37.1139C55.7677 37.1139 54.7655 36.9049 53.907 36.4869C53.0486 36.0644 52.3812 35.4757 51.9048 34.7207C51.4284 33.9656 51.1902 33.0847 51.1902 32.078V23.1119H54.1093V31.8286C54.1093 32.3544 54.2239 32.8218 54.4531 33.2308C54.6868 33.6398 55.0149 33.9611 55.4374 34.1948C55.8598 34.4285 56.3519 34.5454 56.9137 34.5454C57.48 34.5454 57.9721 34.4285 58.3901 34.1948C58.8126 33.9611 59.1384 33.6398 59.3676 33.2308C59.6013 32.8218 59.7182 32.3544 59.7182 31.8286V23.1119Z" fill="white"/>
<path d="M72.5488 27.0826C72.4949 26.5388 72.2634 26.1163 71.8545 25.8152C71.4455 25.5141 70.8904 25.3635 70.1893 25.3635C69.7129 25.3635 69.3107 25.4309 68.9826 25.5657C68.6545 25.6961 68.4028 25.8781 68.2276 26.1118C68.0568 26.3455 67.9714 26.6107 67.9714 26.9073C67.9624 27.1545 68.0141 27.3702 68.1265 27.5545C68.2433 27.7387 68.4028 27.8983 68.6051 28.0331C68.8073 28.1635 69.041 28.2781 69.3062 28.3769C69.5714 28.4713 69.8545 28.5522 70.1556 28.6196L71.3961 28.9163C71.9983 29.0511 72.5511 29.2309 73.0544 29.4556C73.5578 29.6803 73.9938 29.9567 74.3623 30.2848C74.7308 30.6129 75.0162 30.9994 75.2184 31.4443C75.4252 31.8892 75.5308 32.3993 75.5353 32.9746C75.5308 33.8195 75.3151 34.5521 74.8881 35.1723C74.4657 35.788 73.8544 36.2667 73.0544 36.6083C72.259 36.9453 71.2994 37.1139 70.1758 37.1139C69.0613 37.1139 68.0905 36.9431 67.2635 36.6015C66.4411 36.26 65.7984 35.7543 65.3355 35.0847C64.8771 34.4105 64.6366 33.5769 64.6142 32.5836H67.4388C67.4703 33.0465 67.6029 33.433 67.8366 33.7431C68.0748 34.0488 68.3916 34.2802 68.7871 34.4375C69.1871 34.5903 69.6388 34.6667 70.1421 34.6667C70.6365 34.6667 71.0657 34.5948 71.4298 34.451C71.7983 34.3072 72.0837 34.1072 72.2859 33.851C72.4882 33.5948 72.5893 33.3005 72.5893 32.9679C72.5893 32.6578 72.4972 32.3971 72.3129 32.1859C72.1331 31.9746 71.868 31.7949 71.5174 31.6465C71.1713 31.4982 70.7466 31.3634 70.2433 31.2421L68.7399 30.8645C67.5759 30.5814 66.6568 30.1387 65.9827 29.5365C65.3085 28.9342 64.9737 28.123 64.9782 27.1028C64.9737 26.2669 65.1962 25.5365 65.6456 24.9118C66.0995 24.2871 66.722 23.7995 67.513 23.4489C68.304 23.0984 69.2028 22.9231 70.2096 22.9231C71.2343 22.9231 72.1286 23.0984 72.8927 23.4489C73.6612 23.7995 74.2589 24.2871 74.6859 24.9118C75.1128 25.5365 75.3331 26.2601 75.3465 27.0826H72.5488Z" fill="white"/>
<path d="M82.5921 36.9184H77.6978V23.1119H82.6326C84.0213 23.1119 85.5969 23.3883 86.5991 23.9411C87.6013 24.4894 88.3721 25.2781 88.9114 26.3073C89.4552 27.3365 89.7271 28.5679 89.7271 30.0016C89.7271 31.4398 89.4552 32.6757 88.9114 33.7094C88.3721 34.7431 87.5968 35.5364 86.5856 36.0892C85.5789 36.642 83.9944 36.9184 82.5921 36.9184ZM80.6169 34.4173H82.4708C83.3337 34.4173 84.4396 34.2645 85.0283 33.9589C85.6216 33.6488 86.0665 33.1701 86.3631 32.5229C86.6643 31.8713 86.8148 31.0308 86.8148 30.0016C86.8148 28.9814 86.6643 28.1477 86.3631 27.5005C86.0665 26.8534 85.6238 26.377 85.0351 26.0714C84.4463 25.7657 83.3404 25.6129 82.4775 25.6129H80.6169V34.4173Z" fill="white"/>
<path d="M23.9572 21.7827L21.2399 19L14.3977 25.9077L17.1149 28.625L23.9572 21.7827Z" fill="white"/>
<path d="M28.0822 25.9077L25.3649 23.125L14.3977 34.1577L17.1149 36.875L28.0822 25.9077Z" fill="white"/>
<path d="M12.99 27.25L15.7072 30.0327L12.99 32.75L10.2727 30.0327L12.99 27.25Z" fill="white"/>
<path d="M32.2072 30.0327L29.4899 27.25L18.5227 38.2827L21.2399 41L32.2072 30.0327Z" fill="white"/>
</svg>
