<svg xmlns="http://www.w3.org/2000/svg" width="100" height="60" fill="none"><path fill="#F7931A" d="M0 0h100v60H0z"/><path fill="#fff" d="M24.628 32.177a8.998 8.998 0 1 1-17.46-4.353 8.996 8.996 0 1 1 17.46 4.353m-6.743-5.73.405-1.622-.988-.246-.394 1.58c-.26-.066-.526-.127-.79-.187l.396-1.59-.987-.246-.405 1.622a34 34 0 0 1-.63-.148v-.005l-1.361-.34-.263 1.054s.733.168.717.178c.4.1.473.365.46.575l-.46 1.848a1 1 0 0 1 .103.033l-.032-.008-.073-.018-.646 2.589c-.048.121-.172.304-.452.234.01.015-.718-.179-.718-.179l-.49 1.13 1.285.32q.214.054.424.11l.28.072-.409 1.641.987.246.404-1.623q.404.109.787.204l-.403 1.616.987.246.409-1.638c1.684.319 2.95.19 3.483-1.333.43-1.226-.021-1.933-.907-2.394.645-.15 1.13-.573 1.26-1.45.18-1.198-.732-1.841-1.979-2.271m-3.123 5.882c.806.212 2.566.678 2.846-.447.287-1.15-1.42-1.534-2.254-1.72q-.14-.032-.242-.057l-.543 2.174q.083.02.193.05m.76-3.177-.162-.042.491-1.972q.085.021.204.047c.695.154 2.12.47 1.859 1.515-.255 1.023-1.72.632-2.393.452M37.799 38.68h3.371l2.87-11.98h-3.394zM41.535 24.819q.569.42 1.276.42.477.002.899-.18.421-.183.74-.49.32-.307.511-.729a2.1 2.1 0 0 0 .194-.9q0-.864-.569-1.287-.57-.421-1.274-.421-.48 0-.902.181-.42.184-.74.49a2.4 2.4 0 0 0-.513.73 2.1 2.1 0 0 0-.193.899q0 .868.57 1.287M50.525 23.168l-3.53.547-2.234 9.43q-.273 1.16-.319 2.209-.044 1.048.319 1.855.365.81 1.23 1.278.867.465 2.438.465 1.093 0 1.891-.182.798-.18 1.48-.432l-.25-2.597a7.5 7.5 0 0 1-1.036.284 5.4 5.4 0 0 1-1.06.103q-.662 0-1.014-.184a1 1 0 0 1-.49-.51 1.8 1.8 0 0 1-.112-.787q.021-.455.159-.979l1.001-4.19h3.759l.683-2.779h-3.782zM53.792 30.981a8.4 8.4 0 0 0-.5 2.916q0 1.024.285 1.958.284.933.923 1.63.637.693 1.617 1.105.979.407 2.391.409 1.072-.002 1.846-.192.773-.196 1.412-.446l-.251-2.71q-.479.204-1.094.342-.613.136-1.276.136-1.343 0-1.845-.717-.502-.719-.502-1.88.001-1.96.992-3.121.991-1.16 2.677-1.161.706-.001 1.195.149.49.146.945.33l1.163-2.644a7.4 7.4 0 0 0-1.47-.512 8 8 0 0 0-1.833-.194q-1.642 0-2.972.592a6.7 6.7 0 0 0-2.267 1.616 7.2 7.2 0 0 0-1.436 2.394M75.309 38.68h3.374l2.869-11.98h-3.396zM79.046 24.819q.568.42 1.275.42.479.002.901-.18.42-.183.74-.49t.511-.729a2.2 2.2 0 0 0 .195-.9q0-.864-.57-1.287-.57-.421-1.277-.421-.477 0-.898.181-.422.184-.74.49a2.4 2.4 0 0 0-.513.73q-.194.422-.194.899 0 .868.57 1.287M84.831 26.983q-.466.148-.851.262L81.222 38.68h3.395l2.21-9.27a7 7 0 0 1 1.343-.138q.682 0 1.015.262.33.265.42.684.094.424.012.979-.08.559-.217 1.15l-1.503 6.333h3.394l1.55-6.468q.66-2.687-.354-4.237-1.014-1.549-3.68-1.55-.91 0-1.628.08a12.5 12.5 0 0 0-2.347.478M33.272 26.447q1.095 0 1.89.387.797.39 1.324 1.048.523.662.774 1.55.249.888.249 1.913a7.7 7.7 0 0 1-.58 2.972 7.7 7.7 0 0 1-1.584 2.438 7.5 7.5 0 0 1-2.369 1.639 7.2 7.2 0 0 1-2.959.604q-.207 0-.72-.011-.511-.011-1.17-.102a14 14 0 0 1-1.402-.274 7 7 0 0 1-1.402-.501l3.941-16.559 3.53-.547-1.411 5.876q.454-.204.91-.318t.979-.115m-1.458 9.363q.709-.387 1.22-1.036a5.2 5.2 0 0 0 .809-1.47 5 5 0 0 0 .296-1.71q0-1.092-.364-1.708-.365-.614-1.345-.615c-.213 0-.489.041-.83.114q-.514.116-.924.48l-1.502 6.24q.135.023.239.045.102.024.214.034.115.013.275.013h.41000000000000003q.796 0 1.502-.387M68.267 38.998q-1.208 0-2.096-.365a3.9 3.9 0 0 1-1.469-1.025 4.4 4.4 0 0 1-.877-1.56q-.296-.9-.294-1.991 0-1.37.443-2.735a7.7 7.7 0 0 1 1.31-2.46 7 7 0 0 1 2.118-1.79q1.251-.693 2.868-.694 1.185 0 2.086.366.898.364 1.48 1.025.58.66.876 1.56t.296 1.993q0 1.365-.432 2.735a7.9 7.9 0 0 1-1.275 2.459 6.7 6.7 0 0 1-2.107 1.787q-1.263.695-2.927.695m.365-9.317q-.57.435-.956 1.094-.388.662-.582 1.447a6.2 6.2 0 0 0-.193 1.491q.001 1.14.364 1.779.365.636 1.321.637.752 0 1.322-.434.567-.432.956-1.093.387-.66.582-1.446a6.3 6.3 0 0 0 .193-1.492q0-1.138-.366-1.777-.365-.637-1.321-.637-.751.001-1.32.431"/></svg>