<svg width="100" height="60" viewBox="0 0 100 60" fill="none" xmlns="http://www.w3.org/2000/svg">
<path d="M24.6275 32.1772C23.4254 36.9986 18.5421 39.9329 13.7202 38.7305C8.90013 37.5285 5.96588 32.6449 7.16849 27.8238C8.36998 23.0018 13.2533 20.0673 18.0739 21.2693C22.8956 22.4714 25.8295 27.3555 24.6275 32.1772Z" fill="#F7931A"/>
<path d="M19.8646 28.7179C20.0437 27.5203 19.1319 26.8765 17.8851 26.4471L18.2896 24.8248L17.3021 24.5788L16.9084 26.1582C16.6488 26.0936 16.3822 26.0325 16.1172 25.9721L16.5138 24.3822L15.5269 24.1361L15.1222 25.7577C14.9073 25.7088 14.6964 25.6604 14.4916 25.6095L14.4927 25.6045L13.1309 25.2644L12.8683 26.3191C12.8683 26.3191 13.6009 26.487 13.5854 26.4974C13.9854 26.5973 14.0576 26.8619 14.0456 27.0717L13.5849 28.9198C13.6124 28.9268 13.6482 28.937 13.6875 28.9527C13.6546 28.9446 13.6195 28.9356 13.5832 28.9268L12.9374 31.5157C12.8885 31.6372 12.7645 31.8195 12.4849 31.7503C12.4948 31.7646 11.7672 31.5711 11.7672 31.5711L11.277 32.7015L12.562 33.0218C12.801 33.0817 13.0353 33.1444 13.2659 33.2035L12.8573 34.8443L13.8436 35.0904L14.2483 33.467C14.5178 33.5401 14.7793 33.6076 15.0353 33.6712L14.632 35.287L15.6194 35.533L16.0281 33.8953C17.7119 34.214 18.9781 34.0855 19.511 32.5625C19.9405 31.3363 19.4897 30.6289 18.6037 30.1677C19.2489 30.0189 19.7349 29.5945 19.8646 28.7179ZM17.6084 31.8816C17.3032 33.1079 15.2386 32.445 14.5692 32.2787L15.1115 30.105C15.7809 30.272 17.9273 30.6028 17.6084 31.8816ZM17.9138 28.7001C17.6354 29.8156 15.917 29.2489 15.3595 29.1099L15.8512 27.1384C16.4086 27.2773 18.2038 27.5366 17.9138 28.7001Z" fill="white"/>
<path d="M33.2719 26.4465C34.0017 26.4465 34.6323 26.5773 35.1622 26.8341C35.6946 27.0934 36.1339 27.4427 36.4863 27.882C36.8339 28.3236 37.0927 28.8396 37.2597 29.4311C37.4257 30.0243 37.5089 30.6618 37.5089 31.3444C37.5089 32.3929 37.3168 33.3835 36.929 34.3172C36.5411 35.2524 36.0149 36.0635 35.3456 36.7553C34.6767 37.4464 33.887 37.9911 32.9763 38.3936C32.067 38.7964 31.0785 38.9977 30.017 38.9977C29.8798 38.9977 29.6385 38.9938 29.2976 38.9868C28.9567 38.9797 28.565 38.9446 28.1262 38.8852C27.6846 38.8236 27.2178 38.7325 26.7248 38.6105C26.232 38.4906 25.764 38.3227 25.3233 38.1096L29.2641 21.5508L32.7938 21.0038L31.3828 26.8799C31.6848 26.7438 31.9891 26.6383 32.2929 26.5615C32.5969 26.4859 32.9232 26.4465 33.2719 26.4465ZM30.3112 36.1976C30.8428 36.1976 31.3437 36.0669 31.8142 35.8101C32.2861 35.553 32.6934 35.206 33.0345 34.7737C33.3757 34.3394 33.6457 33.8503 33.8426 33.3039C34.0394 32.7574 34.139 32.1873 34.139 31.5942C34.139 30.8655 34.0172 30.2971 33.7745 29.8862C33.5318 29.477 33.0826 29.2711 32.4304 29.2711C32.2167 29.2711 31.9413 29.3119 31.5999 29.3847C31.2573 29.462 30.9508 29.6226 30.676 29.8642L29.1736 36.1045C29.2641 36.1206 29.3443 36.1358 29.4126 36.1501C29.4796 36.1656 29.5535 36.1765 29.6272 36.1841C29.7051 36.1929 29.7943 36.1974 29.902 36.1974C30.0097 36.1974 30.1444 36.1976 30.3112 36.1976Z" fill="#4D4D4D"/>
<path d="M41.1702 38.6794H37.7989L40.6459 26.6991H44.0403L41.1702 38.6794ZM42.8107 25.2394C42.3402 25.2394 41.9135 25.0993 41.535 24.8187C41.1533 24.5397 40.9643 24.1102 40.9643 23.5314C40.9643 23.213 41.029 22.9143 41.1572 22.6325C41.2875 22.3513 41.4576 22.1091 41.6708 21.9033C41.8837 21.6991 42.1304 21.5359 42.4105 21.413C42.6923 21.2921 42.9921 21.2316 43.3116 21.2316C43.7819 21.2316 44.2062 21.3717 44.5862 21.6524C44.9648 21.9345 45.1552 22.3639 45.1552 22.9396C45.1552 23.2591 45.0908 23.559 44.9614 23.8402C44.8329 24.1214 44.6627 24.3636 44.4495 24.5695C44.2383 24.7739 43.9894 24.9365 43.7098 25.0583C43.4278 25.1812 43.1291 25.2394 42.8107 25.2394Z" fill="#4D4D4D"/>
<path d="M46.9943 23.7148L50.5253 23.1677L49.6582 26.6991H53.4399L52.757 29.4772H48.9982L47.9969 33.6678C47.9047 34.0171 47.8523 34.3434 47.8377 34.6466C47.8211 34.9511 47.8597 35.2127 47.9508 35.4329C48.0413 35.6537 48.2042 35.8239 48.4404 35.9442C48.6756 36.0666 49.0122 36.1282 49.4538 36.1282C49.8174 36.1282 50.1718 36.0936 50.5144 36.0249C50.8549 35.9575 51.2 35.8635 51.5493 35.7406L51.8008 38.3382C51.3452 38.5053 50.8519 38.649 50.3203 38.7699C49.7879 38.8925 49.1576 38.9516 48.4292 38.9516C47.3818 38.9516 46.5699 38.7961 45.9913 38.4864C45.4136 38.1745 45.0053 37.7484 44.7609 37.209C44.5198 36.6715 44.4121 36.0519 44.4422 35.3539C44.4734 34.6542 44.5789 33.9187 44.7609 33.1441L46.9943 23.7148Z" fill="#4D4D4D"/>
<path d="M53.2911 33.8968C53.2911 32.8649 53.4582 31.8917 53.792 30.9808C54.1253 30.069 54.6054 29.2716 55.2283 28.5874C55.849 27.9065 56.6053 27.367 57.4955 26.971C58.3814 26.5773 59.3734 26.3787 60.4666 26.3787C61.1508 26.3787 61.762 26.4434 62.2997 26.5731C62.8397 26.7039 63.3283 26.8729 63.7701 27.0849L62.6074 29.7287C62.3037 29.6055 61.9884 29.4969 61.6624 29.3985C61.3362 29.2981 60.9379 29.2497 60.4669 29.2497C59.3416 29.2497 58.452 29.6375 57.7899 30.4107C57.1304 31.1844 56.7983 32.2259 56.7983 33.5323C56.7983 34.3065 56.9653 34.9326 57.3006 35.4115C57.6341 35.8905 58.2503 36.1287 59.145 36.1287C59.5866 36.1287 60.0126 36.0826 60.4207 35.9926C60.8319 35.9015 61.195 35.7867 61.5148 35.6512L61.7665 38.3613C61.3401 38.5266 60.8699 38.676 60.3541 38.8068C59.8371 38.933 59.2218 38.9986 58.5082 38.9986C57.5663 38.9986 56.769 38.8608 56.1168 38.5894C55.4643 38.3137 54.9252 37.9478 54.5005 37.4843C54.0735 37.0197 53.767 36.4772 53.5774 35.8545C53.3878 35.2324 53.2911 34.5788 53.2911 33.8968Z" fill="#4D4D4D"/>
<path d="M68.267 38.998C67.4623 38.998 66.7634 38.8754 66.1706 38.6327C65.5794 38.39 65.0897 38.0494 64.7024 37.6078C64.3146 37.1685 64.0244 36.6479 63.8255 36.048C63.6267 35.4484 63.531 34.7844 63.531 34.0568C63.531 33.1441 63.6776 32.2318 63.9737 31.3219C64.2685 30.4101 64.7058 29.5909 65.2846 28.8627C65.8589 28.1334 66.5674 27.5372 67.4016 27.0723C68.2349 26.6105 69.1934 26.3782 70.27 26.3782C71.06 26.3782 71.7553 26.5011 72.3563 26.7438C72.9545 26.9859 73.4473 27.3294 73.8368 27.7687C74.2221 28.2102 74.5149 28.7286 74.7118 29.3293C74.91 29.9278 75.0079 30.5935 75.0079 31.3217C75.0079 32.2315 74.8634 33.1439 74.5765 34.0565C74.2893 34.9646 73.8632 35.7859 73.3007 36.5157C72.7394 37.2439 72.0374 37.8398 71.1942 38.3028C70.3521 38.7657 69.3757 38.998 68.267 38.998ZM69.9519 29.2494C69.4521 29.2494 69.0103 29.3945 68.632 29.6811C68.2524 29.9711 67.9334 30.3356 67.6764 30.7752C67.4165 31.2167 67.2238 31.6982 67.0936 32.2216C66.9645 32.7462 66.9012 33.242 66.9012 33.7131C66.9012 34.4733 67.0239 35.0653 67.2649 35.4914C67.5093 35.9153 67.9483 36.1284 68.5865 36.1284C69.0879 36.1284 69.5275 35.9845 69.908 35.6948C70.2855 35.4071 70.6047 35.0423 70.8637 34.6018C71.1219 34.1625 71.3163 33.6796 71.4465 33.1554C71.5739 32.6325 71.6388 32.1339 71.6388 31.6637C71.6388 30.9054 71.5168 30.312 71.2735 29.8865C71.0305 29.4626 70.5895 29.2494 69.9519 29.2494Z" fill="#4D4D4D"/>
<path d="M78.6827 38.6794H75.3086L78.1556 26.6991H81.5517L78.6827 38.6794ZM80.3207 25.2394C79.8504 25.2394 79.4241 25.0993 79.0461 24.8187C78.6664 24.5397 78.4757 24.1102 78.4757 23.5314C78.4757 23.213 78.5412 22.9143 78.6698 22.6325C78.7983 22.3513 78.9696 22.1091 79.1828 21.9033C79.3945 21.6991 79.6434 21.5359 79.923 21.413C80.2031 21.2921 80.5029 21.2316 80.8213 21.2316C81.2927 21.2316 81.7185 21.3717 82.0976 21.6524C82.477 21.9345 82.6685 22.3639 82.6685 22.9396C82.6685 23.2591 82.6005 23.559 82.4731 23.8402C82.3457 24.1214 82.1744 24.3636 81.962 24.5695C81.7483 24.7739 81.5025 24.9365 81.2224 25.0583C80.94 25.1812 80.6407 25.2394 80.3207 25.2394Z" fill="#4D4D4D"/>
<path d="M83.98 27.245C84.2359 27.1702 84.5217 27.0802 84.8325 26.9823C85.1444 26.8844 85.4928 26.7933 85.8821 26.7112C86.2671 26.6265 86.7016 26.5579 87.1795 26.5047C87.6573 26.4505 88.2018 26.424 88.8068 26.424C90.5848 26.424 91.8105 26.9418 92.4872 27.9743C93.1633 29.0067 93.2803 30.4197 92.8415 32.2107L91.2907 38.6794H87.8972L89.4002 32.3468C89.4919 31.9514 89.5639 31.5692 89.617 31.1957C89.6707 30.8255 89.6677 30.4993 89.6049 30.2169C89.545 29.9379 89.4039 29.7095 89.1848 29.5326C88.9623 29.3585 88.6262 29.2711 88.1703 29.2711C87.7307 29.2711 87.2835 29.3183 86.8271 29.4095L84.6173 38.6791H81.2224L83.98 27.245Z" fill="#4D4D4D"/>
</svg>
