<svg width="100" height="60" viewBox="0 0 100 60" fill="none" xmlns="http://www.w3.org/2000/svg">
<rect width="100" height="60" fill="#F7931A"/>
<path d="M24.6275 32.1772C23.4254 36.9987 18.5421 39.9329 13.7202 38.7306C8.90013 37.5285 5.96588 32.6449 7.16849 27.8237C8.36998 23.0018 13.2533 20.0673 18.0739 21.2693C22.8956 22.4714 25.8295 27.3555 24.6275 32.1772ZM17.8851 26.447L18.2896 24.8248L17.3021 24.5787L16.9084 26.1582C16.6488 26.0935 16.3822 26.0325 16.1172 25.972L16.5138 24.3822L15.5269 24.1361L15.1222 25.7578C14.9073 25.7088 14.6964 25.6604 14.4916 25.6095L14.4928 25.6045L13.1309 25.2644L12.8682 26.3191C12.8682 26.3191 13.6009 26.487 13.5854 26.4974C13.9853 26.5972 14.0577 26.8619 14.0456 27.0717L13.5849 28.9199C13.6125 28.9269 13.6482 28.937 13.6876 28.9527C13.6774 28.9502 13.667 28.9476 13.6564 28.945C13.6328 28.939 13.6083 28.9329 13.5832 28.9269L12.9374 31.5158C12.8885 31.6373 12.7645 31.8195 12.4849 31.7503C12.4948 31.7647 11.7672 31.5712 11.7672 31.5712L11.277 32.7015L12.562 33.0218C12.7048 33.0575 12.8459 33.0944 12.9855 33.1308C13.0796 33.1554 13.1731 33.1798 13.2659 33.2035L12.8573 34.8443L13.8436 35.0903L14.2483 33.467C14.5178 33.5402 14.7793 33.6077 15.0353 33.6712L14.632 35.2869L15.6194 35.5331L16.028 33.8954C17.7119 34.214 18.9781 34.0855 19.511 32.5625C19.9405 31.3363 19.4897 30.629 18.6038 30.1677C19.2489 30.0189 19.7349 29.5945 19.8646 28.7178C20.0437 27.5203 19.1319 26.8765 17.8851 26.447ZM14.7617 32.3287C15.5675 32.5415 17.3284 33.0066 17.6084 31.8816C17.8952 30.7313 16.1875 30.3481 15.3541 30.1611C15.261 30.1402 15.1787 30.1218 15.1115 30.105L14.5692 32.2787C14.6245 32.2924 14.6892 32.3095 14.7617 32.3287ZM15.5215 29.1524C15.4605 29.1361 15.406 29.1215 15.3596 29.11L15.8512 27.1384C15.9075 27.1525 15.9766 27.1678 16.0548 27.1851C16.7503 27.3391 18.1745 27.6543 17.9138 28.7002C17.6586 29.7227 16.1933 29.3317 15.5215 29.1524Z" fill="white"/>
<path d="M37.7988 38.6794H41.1701L44.0402 26.6992H40.6459L37.7988 38.6794Z" fill="white"/>
<path d="M41.5349 24.8187C41.9135 25.0994 42.3401 25.2395 42.8107 25.2395C43.129 25.2395 43.4277 25.1813 43.7098 25.0584C43.9893 24.9366 44.2382 24.7741 44.4495 24.5696C44.6626 24.3637 44.8328 24.1216 44.9614 23.8404C45.0907 23.5591 45.1551 23.2592 45.1551 22.9397C45.1551 22.364 44.9647 21.9346 44.5861 21.6526C44.2062 21.3719 43.7818 21.2318 43.3115 21.2318C42.992 21.2318 42.6922 21.2923 42.4104 21.4132C42.1303 21.5361 41.8836 21.6991 41.6707 21.9033C41.4575 22.1092 41.2874 22.3514 41.1572 22.6327C41.0289 22.9145 40.9642 23.2131 40.9642 23.5315C40.9642 24.1103 41.1533 24.5397 41.5349 24.8187Z" fill="white"/>
<path d="M50.5253 23.1678L46.9942 23.7149L44.7608 33.1443C44.5788 33.9188 44.4734 34.6543 44.4422 35.354C44.4121 36.0521 44.5198 36.6716 44.7608 37.2091C45.0052 37.7485 45.4136 38.1747 45.9913 38.4866C46.5698 38.7962 47.3818 38.9517 48.4291 38.9517C49.1576 38.9517 49.7878 38.8927 50.3203 38.7701C50.8518 38.6492 51.3451 38.5054 51.8007 38.3383L51.5493 35.7407C51.2 35.8636 50.8549 35.9575 50.5143 36.025C50.1718 36.0936 49.8174 36.1283 49.4537 36.1283C49.0121 36.1283 48.6755 36.0668 48.4404 35.9444C48.2041 35.824 48.0413 35.6539 47.9507 35.4331C47.8596 35.2129 47.8211 34.9513 47.8376 34.6467C47.8523 34.3435 47.9046 34.0173 47.9968 33.668L48.9981 29.4774L52.757 29.4774L53.4399 26.6992L49.6582 26.6992L50.5253 23.1678Z" fill="white"/>
<path d="M53.792 30.981C53.4581 31.8919 53.2911 32.865 53.2911 33.8969C53.2911 34.579 53.3878 35.2325 53.5773 35.8546C53.7669 36.4773 54.0735 37.0199 54.5004 37.4845C54.9251 37.948 55.4643 38.3139 56.1168 38.5895C56.769 38.8609 57.5663 38.9987 58.5082 38.9987C59.2217 38.9987 59.8371 38.9332 60.354 38.8069C60.8698 38.6762 61.34 38.5267 61.7664 38.3613L61.5147 35.6512C61.1949 35.7868 60.8319 35.9016 60.4207 35.9927C60.0126 36.0827 59.5865 36.1288 59.1449 36.1288C58.2503 36.1288 57.634 35.8906 57.3005 35.4116C56.9652 34.9327 56.7982 34.3066 56.7982 33.5323C56.7982 32.2259 57.1303 31.1846 57.7899 30.4109C58.4519 29.6377 59.3415 29.2499 60.4668 29.2499C60.9379 29.2499 61.3362 29.2982 61.6624 29.3986C61.9884 29.497 62.3036 29.6056 62.6074 29.7288L63.77 27.0851C63.3282 26.8731 62.8397 26.704 62.2997 26.5732C61.7619 26.4436 61.1508 26.3789 60.4665 26.3789C59.3733 26.3789 58.3813 26.5774 57.4954 26.9712C56.6053 27.3672 55.849 27.9066 55.2283 28.5875C54.6053 29.2718 54.1253 30.0692 53.792 30.981Z" fill="white"/>
<path d="M75.3085 38.6794H78.6827L81.5516 26.6992H78.1556L75.3085 38.6794Z" fill="white"/>
<path d="M79.046 24.8187C79.424 25.0994 79.8504 25.2395 80.3206 25.2395C80.6407 25.2395 80.9399 25.1813 81.2223 25.0584C81.5024 24.9366 81.7482 24.7741 81.962 24.5696C82.1743 24.3637 82.3456 24.1216 82.473 23.8404C82.6004 23.5591 82.6685 23.2592 82.6685 22.9397C82.6685 22.364 82.4769 21.9346 82.0975 21.6526C81.7184 21.3719 81.2926 21.2318 80.8212 21.2318C80.5028 21.2318 80.203 21.2923 79.9229 21.4132C79.6434 21.5361 79.3945 21.6991 79.1827 21.9033C78.9695 22.1092 78.7982 22.3514 78.6697 22.6327C78.5412 22.9145 78.4756 23.2131 78.4756 23.5315C78.4756 24.1103 78.6663 24.5397 79.046 24.8187Z" fill="white"/>
<path d="M84.8314 26.9827C84.521 27.0805 84.2356 27.1704 83.9799 27.2451L81.2223 38.6792L84.6172 38.6792L86.827 29.4096C87.2834 29.3185 87.7306 29.2712 88.1702 29.2712C88.6261 29.2712 88.9622 29.3586 89.1847 29.5327C89.4038 29.7096 89.545 29.938 89.6049 30.217C89.6676 30.4994 89.6707 30.8257 89.617 31.1958C89.5638 31.5693 89.4918 31.9515 89.4001 32.3469L87.8972 38.6794L91.2907 38.6795L92.8415 32.2108C93.2802 30.4198 93.1632 29.0069 92.4871 27.9744C91.8104 26.942 90.5847 26.4242 88.8067 26.4242C88.2017 26.4242 87.6573 26.4506 87.1794 26.5049C86.7016 26.558 86.267 26.6266 85.882 26.7113C85.4928 26.7934 85.1443 26.8845 84.8324 26.9824L84.8314 26.9827Z" fill="white"/>
<path d="M33.2719 26.4467C34.0017 26.4467 34.6322 26.5774 35.1621 26.8342C35.6945 27.0935 36.1338 27.4428 36.4862 27.8822C36.8338 28.3237 37.0926 28.8397 37.2596 29.4312C37.4256 30.0243 37.5088 30.662 37.5088 31.3446C37.5088 32.3931 37.3167 33.3836 36.9289 34.3174C36.5411 35.2525 36.0149 36.0636 35.3455 36.7555C34.6767 37.4465 33.8869 37.9913 32.9763 38.3938C32.067 38.7965 31.0784 38.9978 30.017 38.9978C29.8797 38.9978 29.6384 38.994 29.2975 38.9869C28.9567 38.9799 28.5649 38.9447 28.1262 38.8854C27.6846 38.8238 27.2177 38.7327 26.7247 38.6106C26.2319 38.4908 25.764 38.3228 25.3232 38.1096L29.2641 21.551L32.7938 21.0039L31.3827 26.88C31.6848 26.7439 31.9891 26.6384 32.2928 26.5616C32.5968 26.486 32.9231 26.4467 33.2719 26.4467ZM31.8142 35.8102C32.2861 35.5531 32.6933 35.2061 33.0345 34.7738C33.3756 34.3396 33.6456 33.8504 33.8425 33.304C34.0394 32.7575 34.139 32.1875 34.139 31.5944C34.139 30.8656 34.0172 30.2973 33.7745 29.8864C33.5318 29.4771 33.0826 29.2712 32.4304 29.2712C32.2166 29.2712 31.9413 29.312 31.5999 29.3849C31.2573 29.4622 30.9507 29.6228 30.676 29.8644L29.1735 36.1047C29.2641 36.1207 29.3442 36.1358 29.4126 36.1502C29.4795 36.1656 29.5535 36.1767 29.6272 36.1843C29.7051 36.193 29.7942 36.1974 29.9019 36.1974C29.9499 36.1974 30.0033 36.1975 30.0624 36.1976C30.1361 36.1976 30.2187 36.1977 30.3112 36.1977C30.8427 36.1977 31.3436 36.067 31.8142 35.8102Z" fill="white"/>
<path d="M68.2669 38.9982C67.4622 38.9982 66.7633 38.8755 66.1705 38.6328C65.5793 38.3901 65.0897 38.0495 64.7024 37.6079C64.3146 37.1686 64.0243 36.648 63.8254 36.0481C63.6266 35.4485 63.5309 34.7845 63.5309 34.0569C63.5309 33.1442 63.6775 32.2319 63.9736 31.322C64.2684 30.4102 64.7058 29.5909 65.2846 28.8628C65.8589 28.1335 66.5674 27.5373 67.4016 27.0724C68.2349 26.6106 69.1934 26.3783 70.27 26.3783C71.06 26.3783 71.7552 26.5012 72.3563 26.7439C72.9545 26.9861 73.4472 27.3295 73.8367 27.7688C74.2221 28.2103 74.5148 28.7287 74.7117 29.3294C74.91 29.9279 75.0079 30.5937 75.0079 31.3218C75.0079 32.2317 74.8633 33.144 74.5764 34.0566C74.2893 34.9648 73.8632 35.786 73.3007 36.5159C72.7394 37.244 72.0373 37.84 71.1942 38.3029C70.3521 38.7658 69.3756 38.9982 68.2669 38.9982ZM68.632 29.6812C68.2523 29.9712 67.9334 30.3357 67.6763 30.7753C67.4165 31.2169 67.2238 31.6983 67.0936 32.2217C66.9645 32.7462 66.9012 33.2422 66.9012 33.7133C66.9012 34.4735 67.0238 35.0655 67.2648 35.4916C67.5092 35.9154 67.9483 36.1286 68.5864 36.1286C69.0879 36.1286 69.5274 35.9846 69.9079 35.6949C70.2854 35.4072 70.6047 35.0424 70.8637 34.6019C71.1219 34.1626 71.3162 33.6798 71.4464 33.1555C71.5739 32.6327 71.6388 32.1341 71.6388 31.6638C71.6388 30.9056 71.5167 30.3121 71.2734 29.8866C71.0304 29.4628 70.5894 29.2495 69.9518 29.2495C69.4521 29.2495 69.0102 29.3946 68.632 29.6812Z" fill="white"/>
</svg>
