<svg width="100" height="60" viewBox="0 0 100 60" fill="none" xmlns="http://www.w3.org/2000/svg">
<path d="M83.5306 23.6953H80.0241L77.9849 32.359H77.9897L77.7086 33.5499C77.5162 33.6056 77.3218 33.6539 77.1258 33.6947C76.7638 33.7671 76.3873 33.8045 76.0012 33.8045C75.5487 33.8045 75.194 33.7394 74.937 33.6091C74.6955 33.4964 74.5021 33.3013 74.3916 33.0588C74.2822 32.7924 74.2407 32.503 74.2709 32.2166C74.295 31.8908 74.3554 31.5409 74.4519 31.1656L75.5173 26.6697L76.2184 23.6893V23.6869H72.6395L71.019 30.6033C70.8259 31.4347 70.7125 32.225 70.6811 32.9744C70.6474 33.7225 70.7608 34.3861 71.019 34.9653C71.2772 35.5445 71.7116 35.9994 72.3246 36.3336C72.9376 36.6667 73.8003 36.8344 74.9128 36.8344C75.6875 36.8344 76.3572 36.7692 76.9219 36.6389L76.9882 36.622L76.987 36.6293C76.8302 37.3424 76.5116 37.9204 76.0024 38.3729C75.492 38.8253 74.7354 39.051 73.7303 39.051C73.3385 39.0531 72.947 39.0281 72.5587 38.9762L71.8685 41.9083C72.3354 41.9686 72.8531 42 73.425 42C74.4917 42 75.4256 41.8769 76.2256 41.6308C76.9835 41.4083 77.6856 41.0274 78.2854 40.5134C78.8801 39.9851 79.3676 39.3473 79.7213 38.6347C80.1074 37.8817 80.4163 36.99 80.6516 35.9596L83.0769 25.6609L83.0685 25.6573L83.5306 23.6953ZM66.3409 26.6721C64.7059 26.6721 64.3934 26.6721 63.7237 27.022C63.2483 27.2718 62.8549 27.6459 62.5098 28.0827C62.1547 28.5367 61.8797 29.048 61.6965 29.5946C61.4995 30.1693 61.4 30.7729 61.4021 31.3804C61.4021 32.143 61.5276 32.7463 61.7786 33.1903C62.0296 33.6356 62.4941 33.8576 63.1698 33.8576C63.5318 33.8576 63.8576 33.7852 64.1472 33.6428C64.4392 33.5005 64.7505 33.2627 65.0799 32.9285C65.1113 32.5327 65.162 32.1152 65.2332 31.6784C65.3032 31.2416 65.3937 30.8374 65.4721 30.4718L66.3409 26.6721ZM68.8278 31.0956C68.6086 31.987 68.5449 32.9096 68.6395 33.8226C68.7336 34.7348 69.0799 36.1345 69.4166 36.8344H66.0259C65.6109 36.1261 65.629 35.7943 65.5505 35.5722C65.1076 35.9394 64.6164 36.2439 64.0905 36.4772C63.5248 36.7218 62.9137 36.8435 62.2974 36.8344C61.5119 36.8344 60.8398 36.6956 60.2824 36.4181C59.7237 36.1406 59.2688 35.7665 58.914 35.2983C58.5498 34.8082 58.2891 34.249 58.1478 33.6549C57.987 32.9966 57.908 32.321 57.9125 31.6434C57.9125 30.5478 58.1056 29.5149 58.4905 28.5472C58.8575 27.607 59.4014 26.746 60.0929 26.0109C60.7771 25.2881 62.4266 23.6953 65.1342 23.6953H70.5713L68.8278 31.0956ZM48.3222 33.813C48.5913 33.8769 48.9231 33.9095 49.3189 33.9095C49.8994 33.9168 50.4745 33.7978 51.0045 33.5608C51.5018 33.3359 51.9434 33.0043 52.298 32.5894C52.654 32.1744 52.9303 31.6748 53.1282 31.092C53.3322 30.4691 53.4325 29.8168 53.425 29.1614C53.425 28.4736 53.2742 27.8908 52.9738 27.4118C52.6733 26.9315 52.146 26.6769 51.4027 26.6745C50.8827 26.6721 50.0187 26.6721 50.0187 26.6721L48.3222 33.813ZM56.9376 28.8983C56.9376 30.0652 56.7481 31.1318 56.368 32.0983C56.0115 33.0288 55.4752 33.88 54.7897 34.6033C54.1067 35.3143 53.2821 35.8742 52.3692 36.2468C51.3935 36.6443 50.3483 36.8436 49.2947 36.8332C48.7566 36.8332 48.2196 36.7849 47.6814 36.6896L46.6136 41.0287H43.1011L47.1783 23.6953H51.8588C52.7445 23.6953 53.5083 23.8317 54.149 24.1032C54.7536 24.349 55.2936 24.7304 55.7273 25.2181C56.1376 25.6887 56.4428 26.2413 56.6407 26.8712C56.8386 27.5035 56.9376 28.1792 56.9376 28.8983ZM40.9448 33.8069C40.4935 33.8069 40.1388 33.7418 39.8805 33.6115C39.6397 33.4989 39.4467 33.3043 39.3364 33.0624C39.2266 32.7953 39.1851 32.505 39.2157 32.2178C39.2398 31.8932 39.3001 31.5421 39.3967 31.168L40.4609 26.6721H44.4525L45.1777 23.6917H41.162L42.0815 19.9029L38.3324 20.4905L35.9614 30.6057C35.7755 31.3839 35.6624 32.1777 35.6235 32.9768C35.591 33.7249 35.7032 34.3897 35.9614 34.9677C36.2196 35.5469 36.6552 36.003 37.2682 36.336C37.8811 36.6703 38.7439 36.8368 39.8564 36.8368C40.6299 36.8368 41.2995 36.7716 41.8643 36.6413C41.9222 36.6293 42.0115 36.6063 42.0694 36.5931L42.7982 33.5089C42.5532 33.5934 42.3071 33.6489 42.0694 33.6971C41.7074 33.7695 41.3321 33.8069 40.9448 33.8069ZM32.006 23.6881L28.911 36.8356H32.4163L35.5101 23.6869L32.006 23.6881ZM35.8733 22.1677L36.4115 19.8836H32.905L32.3668 22.1677H35.8733ZM21.1692 33.9023C21.7195 33.9023 22.2395 33.7671 22.7258 33.4968C23.2166 33.2244 23.6469 32.8549 23.9903 32.4109C24.7272 31.4584 25.1292 30.2895 25.1342 29.0854C25.1342 28.3228 25.0087 27.7267 24.7566 27.2971C24.5044 26.8688 23.9819 26.6721 23.305 26.6721C23.0345 26.6744 22.7652 26.7084 22.5026 26.7735C22.1501 26.854 21.8251 27.0259 21.5602 27.2718L20.0217 33.8118C20.4766 33.8926 20.6335 33.9023 20.7445 33.9023H21.1692ZM24.2377 23.6977C24.9931 23.6977 25.6459 23.8329 26.1973 24.1032C26.7307 24.3597 27.1986 24.7344 27.5656 25.1988C27.9276 25.6609 28.1943 26.2003 28.368 26.8205C28.5451 27.4733 28.6324 28.1472 28.6275 28.8235C28.6275 29.9204 28.4271 30.9569 28.0265 31.9354C27.6452 32.8816 27.0884 33.747 26.3855 34.4863C25.6876 35.2133 24.8537 35.7963 23.9312 36.2021C22.9648 36.6281 21.9188 36.8436 20.8627 36.8344C20.7204 36.8344 20.473 36.8308 20.1183 36.8223C19.7115 36.8095 19.3058 36.7736 18.9032 36.7149C18.4146 36.645 17.9301 36.5496 17.4516 36.429C16.9506 36.3065 16.4641 36.1314 16 35.9065L20.0833 18.5719L23.7418 18L22.2962 24.143C22.5946 24.0064 22.9047 23.8973 23.2229 23.8172C23.5367 23.7388 23.8745 23.6989 24.2365 23.6989L24.2377 23.6977Z" fill="#002855"/>
</svg>
