<svg xmlns="http://www.w3.org/2000/svg" width="100" height="60" fill="none"><path fill="#fff" d="M0 0h100v60H0z"/><path fill="#002855" d="M83.53 23.695h-3.506l-2.04 8.664h.006l-.281 1.19a8 8 0 0 1-.583.146q-.544.109-1.125.11-.678 0-1.064-.196a1.12 1.12 0 0 1-.545-.55 1.74 1.74 0 0 1-.121-.842q.036-.489.18-1.051l1.066-4.496.701-2.98v-.003H72.64l-1.62 6.916a13 13 0 0 0-.338 2.371q-.05 1.123.338 1.991.387.868 1.306 1.369.919.5 2.588.5 1.162 0 2.009-.195l.066-.017-.001.007c-.157.713-.475 1.291-.985 1.744q-.765.678-2.272.678a8.5 8.5 0 0 1-1.171-.075l-.69 2.932q.698.091 1.556.092 1.6 0 2.8-.37a5.6 5.6 0 0 0 2.06-1.117 6.2 6.2 0 0 0 1.436-1.878q.578-1.13.93-2.675l2.426-10.3-.008-.003zm-17.19 2.977c-1.634 0-1.947 0-2.616.35-.476.25-.87.624-1.214 1.06-.355.455-.63.966-.813 1.513a5.5 5.5 0 0 0-.295 1.785q0 1.144.377 1.81.376.668 1.39.668.544-.001.978-.215.438-.213.933-.715.046-.594.153-1.25c.07-.436.16-.84.24-1.206zm2.488 4.424a8 8 0 0 0-.189 2.727c.095.912.44 2.312.778 3.011h-3.391c-.415-.708-.397-1.04-.475-1.262a6.3 6.3 0 0 1-1.46.905 4.4 4.4 0 0 1-1.794.357q-1.178 0-2.015-.416a3.8 3.8 0 0 1-1.368-1.12 4.5 4.5 0 0 1-.766-1.643 8.3 8.3 0 0 1-.236-2.012q.001-1.643.578-3.096c.367-.94.911-1.801 1.603-2.536.684-.723 2.334-2.316 5.041-2.316h5.437zm-20.506 2.717q.404.096.997.096a4 4 0 0 0 1.685-.348 3.7 3.7 0 0 0 1.294-.972q.534-.622.83-1.497a6 6 0 0 0 .297-1.93q0-1.032-.451-1.75c-.3-.48-.828-.735-1.571-.738-.52-.002-1.384-.002-1.384-.002zm8.616-4.915q0 1.75-.57 3.2a7.6 7.6 0 0 1-1.578 2.505 7.05 7.05 0 0 1-2.42 1.644 7.9 7.9 0 0 1-3.075.586 9 9 0 0 1-1.614-.143l-1.067 4.339H43.1l4.077-17.334h4.68q1.33 0 2.291.408a4.26 4.26 0 0 1 1.578 1.115q.616.706.914 1.653a6.8 6.8 0 0 1 .297 2.027m-15.993 4.909q-.677 0-1.065-.196a1.12 1.12 0 0 1-.544-.549 1.74 1.74 0 0 1-.12-.844q.036-.488.18-1.05l1.065-4.496h3.992l.725-2.98h-4.016l.92-3.79-3.75.588-2.37 10.116a13 13 0 0 0-.339 2.37q-.048 1.124.338 1.992.388.868 1.307 1.368.92.5 2.588.5 1.161 0 2.008-.195c.058-.012.148-.035.205-.048l.73-3.084c-.246.084-.492.14-.73.188q-.543.109-1.124.11m-8.939-10.119-3.095 13.148h3.505l3.094-13.15zm3.867-1.52.538-2.284h-3.506l-.538 2.284zM21.17 33.902q.826 0 1.557-.405c.49-.273.92-.642 1.264-1.086a5.47 5.47 0 0 0 1.144-3.326q0-1.143-.377-1.788c-.253-.428-.775-.625-1.452-.625-.27.002-.54.036-.802.101-.353.081-.678.253-.943.499l-1.538 6.54c.455.08.612.09.723.09zm3.069-10.204q1.132 0 1.96.405a3.9 3.9 0 0 1 1.368 1.096 4.6 4.6 0 0 1 .802 1.621c.177.653.264 1.327.26 2.003a8.1 8.1 0 0 1-.602 3.112 8.1 8.1 0 0 1-1.64 2.551 7.7 7.7 0 0 1-2.455 1.716 7.45 7.45 0 0 1-3.068.632q-.214 0-.745-.012a11 11 0 0 1-1.215-.107q-.733-.105-1.451-.286A7.3 7.3 0 0 1 16 35.906l4.083-17.334L23.742 18l-1.446 6.143q.45-.206.927-.326a4.2 4.2 0 0 1 1.014-.118z"/></svg>