<svg width="100" height="60" viewBox="0 0 100 60" fill="none" xmlns="http://www.w3.org/2000/svg">
<path d="M78.0827 29.4172C75.504 26.261 72.977 23.1666 70.455 20.0722C70.4654 20.0464 70.4808 20.0258 70.4911 20C73.8021 20.3816 77.108 20.7581 80.4654 21.1449C79.6712 23.9041 78.8872 26.622 78.0827 29.4172Z" fill="#D41D55"/>
<path d="M78.4798 29.4894C79.2792 26.7147 80.0683 23.9814 80.8831 21.1655C83.3432 24.4404 85.7517 27.6534 88.1653 30.8664C88.155 30.8922 88.1395 30.9128 88.1292 30.9386C84.9265 30.4589 81.7289 29.9793 78.4798 29.4894Z" fill="#E1136E"/>
<path d="M78.5056 29.8917C81.6258 30.3661 84.6789 30.8355 87.7372 31.2996C87.7423 31.3306 87.7475 31.3563 87.7526 31.3873C85.1121 32.6508 82.4664 33.9144 79.7794 35.2037C79.3514 33.4347 78.9388 31.7019 78.5056 29.8917Z" fill="#D41D55"/>
<path d="M75.0502 39.9639C76.0404 36.6271 77.0357 33.2852 78.0466 29.8762C78.1033 29.9948 78.1394 30.0464 78.1497 30.1083C78.6242 32.1454 79.0935 34.1877 79.5731 36.2248C79.6195 36.426 79.5731 36.5498 79.4029 36.6787C78.0363 37.7359 76.6747 38.7983 75.308 39.8608C75.2461 39.9123 75.1739 39.9536 75.1069 40C75.0966 39.9845 75.076 39.9742 75.0502 39.9639Z" fill="#9E1C3B"/>
<path d="M85.6897 26.9933C87.2988 26.7148 88.846 26.4518 90.4757 26.1681C89.862 27.7669 89.2689 29.3038 88.65 30.918C87.6495 29.5977 86.6954 28.329 85.6897 26.9933Z" fill="#D41D55"/>
<path d="M81.0482 35.0078C83.4309 33.8474 85.8136 32.687 88.1962 31.5266C88.2169 31.5421 88.2323 31.5575 88.253 31.573C88.1653 31.8309 88.0828 32.0939 87.9796 32.3518C87.959 32.4085 87.8765 32.4549 87.8094 32.4755C85.5866 33.3316 83.3638 34.1878 81.1359 35.0387C81.1204 35.0439 81.0998 35.0439 81.0792 35.049C81.0688 35.0387 81.0585 35.0232 81.0482 35.0078Z" fill="#E1136E"/>
<path d="M92.7449 28.1588C91.8785 28.1588 91.0069 28.1588 90.0889 28.1588C90.3416 27.5039 90.5789 26.8798 90.8006 26.3074C91.4608 26.9005 92.1158 27.4884 92.7707 28.0763C92.7656 28.1021 92.7553 28.1331 92.7449 28.1588Z" fill="#E1136E"/>
<path d="M74.2199 25.3842C72.8636 24.1619 71.5072 22.9345 70.156 21.7122C70.1663 21.6864 70.1766 21.6658 70.1869 21.64C70.5324 21.64 70.8728 21.6348 71.2184 21.6451C71.2699 21.6451 71.3318 21.707 71.3731 21.7534C72.3272 22.919 73.2813 24.0897 74.2302 25.2553C74.2509 25.281 74.2612 25.3171 74.2715 25.3481C74.2509 25.3584 74.2354 25.3687 74.2199 25.3842Z" fill="#9E1C3B"/>
<path d="M8 38.3703C8.05157 37.5245 8.10315 36.2661 8.10315 35.1624V20.1598H10.3363V27.9577H10.3878C11.1821 26.5703 12.621 25.673 14.6168 25.673C17.6957 25.673 19.8721 28.2362 19.8463 32.0062C19.8463 36.4414 17.0511 38.6488 14.2816 38.6488C12.4869 38.6488 11.048 37.9577 10.1248 36.3177H10.0526L9.94946 38.3703H8ZM10.3311 33.3935C10.3311 33.6771 10.3827 33.9556 10.4343 34.2135C10.8726 35.7761 12.1774 36.854 13.8174 36.854C16.1743 36.854 17.5874 34.9303 17.5874 32.0835C17.5874 29.5977 16.3033 27.4677 13.8948 27.4677C12.3579 27.4677 10.919 28.5198 10.46 30.2372C10.4085 30.4951 10.3311 30.7993 10.3311 31.1604V33.3935Z" fill="#EB008B"/>
<path d="M22.7705 21.0831H25.0036V29.4173H25.081C25.5451 28.752 26.0041 28.1331 26.4425 27.571L31.7184 21.0831H34.4879L28.2321 28.4168L34.9779 38.3704H32.3373L26.6437 29.8814L25.0036 31.7793V38.3704H22.7705V21.0831Z" fill="#231F20"/>
<path d="M43.8742 38.3702L43.6937 36.8076H43.6164C42.9253 37.7823 41.5895 38.6539 39.8206 38.6539C37.309 38.6539 36.0248 36.8849 36.0248 35.0902C36.0248 32.0886 38.6911 30.4486 43.4874 30.4744V30.2165C43.4874 29.1902 43.2038 27.3439 40.6664 27.3439C39.5111 27.3439 38.3095 27.7049 37.4327 28.2671L36.9222 26.7818C37.9485 26.1165 39.4338 25.6781 41.0016 25.6781C44.7974 25.6781 45.7205 28.2671 45.7205 30.7581V35.3996C45.7205 36.4775 45.7721 37.5296 45.9268 38.3754H43.8742V38.3702ZM43.5442 32.0319C41.0841 31.9803 38.2889 32.4187 38.2889 34.8272C38.2889 36.2867 39.2636 36.9829 40.4188 36.9829C42.0331 36.9829 43.0594 35.9566 43.4204 34.9045C43.4977 34.6725 43.5493 34.4197 43.5493 34.1877V32.0319H43.5442Z" fill="#231F20"/>
<path d="M49.0574 36.0598C49.7226 36.4982 50.9037 36.9572 52.0331 36.9572C53.6731 36.9572 54.4416 36.1372 54.4416 35.1109C54.4416 34.033 53.8021 33.4451 52.1311 32.8262C49.898 32.032 48.8511 30.7994 48.8511 29.3141C48.8511 27.313 50.4653 25.673 53.1316 25.673C54.39 25.673 55.4885 26.034 56.1848 26.4415L55.6226 28.0815C55.1378 27.772 54.2353 27.3646 53.0852 27.3646C51.7495 27.3646 51.0068 28.1331 51.0068 29.0562C51.0068 30.0825 51.7495 30.5415 53.3637 31.1604C55.5195 31.9804 56.6231 33.0583 56.6231 34.9046C56.6231 37.0861 54.9315 38.623 51.9815 38.623C50.62 38.623 49.3668 38.2878 48.4952 37.7772L49.0574 36.0598Z" fill="#231F20"/>
<path d="M61.7753 20.1598V27.9061H61.8269C62.1879 27.2666 62.75 26.6993 63.4411 26.3176C64.1064 25.9308 64.9006 25.6781 65.7516 25.6781C67.4174 25.6781 70.0837 26.7044 70.0837 30.985V38.3703H67.8248V31.2377C67.8248 29.2367 67.0822 27.5451 64.9522 27.5451C63.4927 27.5451 62.3374 28.5714 61.9249 29.804C61.7959 30.1134 61.7701 30.4435 61.7701 30.8819V38.3703H59.5112V20.1598H61.7753Z" fill="#231F20"/>
</svg>
