<svg width="100" height="60" viewBox="0 0 100 60" fill="none" xmlns="http://www.w3.org/2000/svg">
<path d="M42.8397 16H47.7558V43.7863H42.8397V16ZM52.0306 25.4046H56.9466V43.7863H52.0306V25.4046ZM79.1756 43.7863L71.6947 34.0611L78.5344 25.4046H72.6565L66.0306 33.8473V16H61.0077V43.7863H66.0306V34.2748L72.6565 43.7863H79.1756ZM30.229 25.1908C28.626 25.1908 27.1298 25.6183 25.7405 26.2595V16H20.8245V34.5954C20.8245 39.8321 24.9924 44 30.229 44C35.4657 44 39.6336 39.8321 39.6336 34.5954C39.6336 29.3588 35.3588 25.1908 30.229 25.1908ZM30.229 39.084C27.771 39.084 25.7405 37.0534 25.7405 34.5954C25.7405 32.1374 27.771 30.1069 30.229 30.1069C32.6871 30.1069 34.7176 32.1374 34.7176 34.5954C34.6107 37.0534 32.6871 39.084 30.229 39.084Z" fill="#333333"/>
<path d="M37.4496 25.1875C39.4309 25.1875 41.0371 23.5813 41.0371 21.6C41.0371 19.6186 39.4309 18.0125 37.4496 18.0125C35.4682 18.0125 33.8621 19.6186 33.8621 21.6C33.8621 23.5813 35.4682 25.1875 37.4496 25.1875Z" fill="url(#paint0_radial_200_12010)"/>
<defs>
<radialGradient id="paint0_radial_200_12010" cx="0" cy="0" r="1" gradientUnits="userSpaceOnUse" gradientTransform="translate(34.4964 17.778) scale(11.8729)">
<stop stop-color="#FF0000"/>
<stop offset="0.495" stop-color="#E83E49"/>
<stop offset="1" stop-color="#FF00FF"/>
</radialGradient>
</defs>
</svg>
