<svg width="100" height="60" viewBox="0 0 100 60" fill="none" xmlns="http://www.w3.org/2000/svg">
<rect width="100" height="60" fill="black"/>
<path d="M50.752 37.5074C53.9781 37.5074 55.5911 36.4443 55.5911 34.3915C55.5911 32.376 53.868 31.2762 50.4957 31.2762H46.5736V37.5074H50.752Z" fill="white"/>
<path d="M46.5736 28.2704V22.479H50.2021C52.9517 22.479 54.4179 23.4687 54.4179 25.3747C54.4179 27.244 52.9884 28.2704 50.2395 28.2704H46.5736Z" fill="white"/>
<path d="M64.2276 10.6934C62.049 10.0088 60.0648 10.0088 56.0315 10.0088H43.9315C39.9214 10.0088 37.914 10.0088 35.7724 10.6749C34.6033 11.0982 33.5415 11.7734 32.6623 12.6527C31.7831 13.5319 31.1079 14.5937 30.6846 15.7629C30 17.9276 30 19.9304 30 23.9407V36.0409C30 40.0742 30 42.0586 30.666 44.2187C31.0894 45.3878 31.7646 46.4496 32.6438 47.3288C33.523 48.2081 34.5848 48.8833 35.7539 49.3067C37.9186 49.9912 39.9214 49.9912 43.9315 49.9912H56.05C60.0648 49.9912 62.0675 49.9912 64.2276 49.3067C65.3967 48.8833 66.4585 48.2081 67.3377 47.3288C68.2169 46.4496 68.8921 45.3878 69.3154 44.2187C70 42.0539 70 40.0511 70 36.0409V23.9592C70 19.9443 70 17.9414 69.3154 15.7814C68.8921 14.6122 68.2169 13.5504 67.3377 12.6712C66.4585 11.7919 65.3967 11.1167 64.2276 10.6934ZM40.7455 37.5074H43.2014V22.479H40.7455V19.363H50.5685C55.0772 19.363 57.8268 21.4519 57.8268 25.081C57.8268 27.4642 56.434 28.9297 54.6748 29.6265C57.2035 30.3232 59 32.1191 59 34.575C59 38.4604 55.9942 40.6233 51.0824 40.6233H40.7455V37.5074Z" fill="white"/>
</svg>
