<svg width="100" height="60" viewBox="0 0 100 60" fill="none" xmlns="http://www.w3.org/2000/svg">
<path d="M38.8352 27.7443C38.7558 27.7925 38.6612 27.8092 38.57 27.7913C38.4788 27.7733 38.3976 27.7219 38.3424 27.6471C38.0709 27.2574 37.7067 26.9415 37.2826 26.7278C36.8584 26.5141 36.3877 26.4094 35.913 26.4232C34.062 26.4232 32.9259 27.8877 32.9259 29.9794C32.9259 32.071 34.0829 33.5634 35.9338 33.5634C36.4149 33.5749 36.8909 33.4634 37.3169 33.2395C37.7428 33.0156 38.1046 32.6867 38.3679 32.2839C38.4205 32.2081 38.4996 32.1549 38.5896 32.1348C38.6796 32.1147 38.7739 32.1291 38.8538 32.1751L39.733 32.6842C39.781 32.7085 39.8232 32.7429 39.8568 32.785C39.8903 32.8272 39.9144 32.876 39.9273 32.9283C39.9402 32.9805 39.9418 33.035 39.9318 33.0879C39.9218 33.1408 39.9006 33.1909 39.8695 33.2348C39.4397 33.8791 38.8533 34.4037 38.1653 34.7594C37.4774 35.1151 36.7103 35.2903 35.9362 35.2686C32.9768 35.2686 30.9708 33.1215 30.9708 29.991C30.9708 26.8605 32.9768 24.7411 35.8922 24.7411C36.6534 24.7199 37.4083 24.8856 38.0908 25.2236C38.7732 25.5616 39.3625 26.0616 39.807 26.68C39.8376 26.7216 39.8593 26.7691 39.8708 26.8195C39.8823 26.8698 39.8833 26.922 39.8737 26.9728C39.8642 27.0236 39.8443 27.0718 39.8153 27.1146C39.7863 27.1573 39.7488 27.1937 39.7052 27.2214L38.8352 27.7443Z" fill="black"/>
<path d="M45.3044 34.2757V34.7014C45.3044 34.7514 45.3144 34.8009 45.3341 34.8469C45.3537 34.8929 45.3824 34.9344 45.4185 34.969C45.4546 35.0036 45.4974 35.0306 45.5441 35.0482C45.5909 35.0658 45.6408 35.0738 45.6908 35.0716H46.6579C46.7065 35.0716 46.7547 35.0621 46.7996 35.0435C46.8445 35.0249 46.8853 34.9976 46.9197 34.9632C46.9541 34.9288 46.9813 34.888 47 34.8431C47.0186 34.7982 47.0281 34.75 47.0281 34.7014V29.8657C47.0281 28.1142 45.7834 27.39 44.0203 27.39C43.0292 27.3923 42.0538 27.637 41.179 28.1026C41.0954 28.1492 41.033 28.2261 41.0046 28.3174C40.9761 28.4087 40.9839 28.5074 41.0263 28.5931L41.3432 29.2549C41.365 29.2993 41.3955 29.3388 41.433 29.3711C41.4705 29.4034 41.5141 29.4277 41.5613 29.4427C41.6084 29.4576 41.6581 29.4628 41.7073 29.458C41.7566 29.4531 41.8043 29.4384 41.8476 29.4146C42.4723 29.09 43.1637 28.9149 43.8675 28.9032C44.4807 28.9032 45.2049 29.0722 45.2049 29.6992C45.2049 30.355 44.4127 30.4669 43.4352 30.6048C43.3564 30.6159 43.2776 30.6271 43.1989 30.6385C42.1901 30.7797 40.5543 31.0943 40.5543 32.9291C40.5543 34.403 41.6209 35.2429 43.1573 35.2429C44.1961 35.2429 44.8417 34.8727 45.3044 34.2757ZM43.7881 31.7822C44.3723 31.6796 44.9022 31.5867 45.2049 31.3581V32.2189C45.2049 33.3433 44.3951 33.8269 43.5274 33.8269C42.8287 33.8269 42.3451 33.5145 42.3451 32.8458C42.3451 32.1193 42.9004 31.9411 43.5691 31.8209C43.6427 31.8076 43.7158 31.7948 43.7881 31.7822Z" fill="black"/>
<path d="M48.6177 33.1558C48.6801 33.0831 48.7682 33.0375 48.8636 33.0284C48.9589 33.0194 49.0541 33.0476 49.129 33.1072C49.7476 33.5744 50.5059 33.819 51.2808 33.8013C52.079 33.8013 52.669 33.5446 52.669 32.9198C52.669 32.3506 52.1276 32.2373 50.8181 32.0082C49.4298 31.7768 48.1017 31.314 48.1017 29.7315C48.1017 28.0817 49.5247 27.3854 51.1466 27.3854C52.1637 27.3704 53.1566 27.6961 53.967 28.3108C54.0066 28.3418 54.0394 28.3805 54.0635 28.4245C54.0876 28.4686 54.1025 28.5171 54.1073 28.5671C54.1121 28.6171 54.1066 28.6676 54.0912 28.7154C54.0759 28.7632 54.0509 28.8074 54.0179 28.8453L53.5552 29.389C53.4938 29.462 53.4069 29.5086 53.3122 29.5194C53.2175 29.5301 53.1223 29.5042 53.0462 29.4469C52.476 29.0298 51.7859 28.809 51.0795 28.8175C50.397 28.8175 49.8 29.0166 49.8 29.5556C49.8 30.1549 50.6376 30.2683 51.4775 30.4117C53.2706 30.7241 54.409 31.2354 54.409 32.7255C54.409 34.2896 53.1572 35.2567 51.1698 35.2567C50.0835 35.2899 49.0197 34.9429 48.1619 34.2757C48.1234 34.2441 48.0916 34.2053 48.0683 34.1614C48.045 34.1174 48.0306 34.0693 48.0261 34.0198C48.0216 33.9702 48.0269 33.9203 48.0419 33.8729C48.0569 33.8255 48.0811 33.7815 48.1133 33.7435L48.6177 33.1558ZM55.508 34.7013V25.2844C55.508 25.2358 55.5176 25.1876 55.5362 25.1427C55.5548 25.0978 55.582 25.057 55.6164 25.0226C55.6508 24.9882 55.6916 24.961 55.7365 24.9424C55.7814 24.9238 55.8295 24.9142 55.8782 24.9142H56.9448C57.1493 24.9142 57.315 25.0799 57.315 25.2844V28.5005C57.5806 28.1461 57.9271 27.8604 58.3256 27.6672C58.724 27.474 59.1629 27.3789 59.6057 27.3899C61.1836 27.3899 62.1091 28.5144 62.1091 30.1201V34.7013C62.1091 34.75 62.0995 34.7981 62.0809 34.843C62.0623 34.8879 62.0351 34.9287 62.0007 34.9631C61.9663 34.9975 61.9255 35.0248 61.8806 35.0434C61.8357 35.062 61.7875 35.0716 61.7389 35.0716H60.6723C60.5741 35.0716 60.4799 35.0326 60.4105 34.9631C60.341 34.8937 60.302 34.7995 60.302 34.7013V30.5366C60.302 29.7384 60.0452 29.0142 59.0226 29.0142C58.0531 29.0142 57.315 29.6968 57.315 30.835V34.7036C57.315 34.8018 57.276 34.896 57.2066 34.9654C57.1372 35.0348 57.043 35.0738 56.9448 35.0738H55.8782C55.8293 35.0741 55.7808 35.0647 55.7356 35.046C55.6904 35.0274 55.6494 34.9999 55.6149 34.9653C55.5805 34.9306 55.5533 34.8894 55.5349 34.8441C55.5165 34.7987 55.5074 34.7502 55.508 34.7013Z" fill="black"/>
<path d="M73.0788 32.5542L73.8469 34.8217C73.8701 34.8955 73.9158 34.9602 73.9776 35.0066C74.0394 35.0531 74.1142 35.0791 74.1915 35.0809H75.513C75.5726 35.0811 75.6314 35.0669 75.6844 35.0395C75.7374 35.0121 75.7829 34.9722 75.8171 34.9234C75.8515 34.8746 75.8736 34.8181 75.8814 34.7589C75.8893 34.6997 75.8827 34.6395 75.8621 34.5834L72.3799 25.1664C72.3532 25.0953 72.3055 25.034 72.2431 24.9907C72.1808 24.9473 72.1067 24.9238 72.0307 24.9235H70.3209C70.2465 24.9226 70.1735 24.9442 70.1116 24.9855C70.0496 25.0268 70.0016 25.0858 69.9738 25.1549L66.4775 34.5741C66.457 34.63 66.4504 34.69 66.458 34.749C66.4657 34.8081 66.4875 34.8644 66.5216 34.9132C66.5556 34.962 66.6009 35.0019 66.6537 35.0294C66.7064 35.057 66.765 35.0715 66.8245 35.0716H68.076C68.1532 35.0718 68.2284 35.0479 68.2912 35.003C68.3539 34.9582 68.401 34.8948 68.4258 34.8217L69.1959 32.5542H73.0788ZM69.6638 30.974L71.1582 26.564L72.5952 30.974H69.6638ZM78.5436 28.5145V27.9314C78.5463 27.8812 78.5386 27.831 78.5211 27.7839C78.5036 27.7369 78.4766 27.6939 78.4418 27.6576C78.4073 27.6213 78.3656 27.5923 78.3195 27.5726C78.2734 27.5528 78.2238 27.5427 78.1736 27.5427H77.1066C76.9024 27.5427 76.7366 27.7085 76.7366 27.9129V37.1679C76.7366 37.3723 76.9024 37.5381 77.1066 37.5381H78.1736C78.3779 37.5381 78.5436 37.3723 78.5436 37.1679V34.0975C78.8047 34.4643 79.1529 34.7604 79.5569 34.9591C79.9608 35.1578 80.4079 35.2529 80.8577 35.2359C82.9049 35.2359 84.2284 33.5215 84.2284 31.3025C84.2284 29.0837 82.9049 27.39 80.8577 27.39C80.4092 27.3718 79.9631 27.465 79.5593 27.6612C79.1555 27.8574 78.8066 28.1506 78.5436 28.5145ZM82.3287 31.3025C82.3287 32.596 81.7296 33.6649 80.4779 33.6649C79.2034 33.6649 78.5436 32.5982 78.5436 31.3025C78.5436 30.0068 79.238 28.9679 80.4779 28.9679C81.7179 28.9679 82.3287 30.0092 82.3287 31.3025ZM87.1507 28.5144V27.9313C87.1536 27.8811 87.1462 27.8308 87.1289 27.7836C87.1116 27.7364 87.0848 27.6932 87.0502 27.6567C87.0154 27.6203 86.9736 27.5914 86.9273 27.5718C86.8809 27.5522 86.831 27.5422 86.7807 27.5426H85.7137C85.6155 27.5426 85.5214 27.5817 85.452 27.6511C85.3827 27.7205 85.3437 27.8146 85.3437 27.9128V37.1679C85.3437 37.3723 85.5094 37.5379 85.7137 37.5379H86.7807C86.9849 37.5379 87.1507 37.3723 87.1507 37.1678V34.0974C87.4121 34.4638 87.7604 34.7596 88.1642 34.9583C88.5681 35.157 89.015 35.2523 89.4648 35.2358C91.5146 35.2358 92.8381 33.5213 92.8381 31.3024C92.8381 29.0836 91.5146 27.3899 89.4648 27.3899C89.0163 27.3721 88.5703 27.4655 88.1666 27.6617C87.7629 27.8579 87.4139 28.1508 87.1507 28.5144ZM90.9384 31.3024C90.9384 32.5958 90.3393 33.6648 89.0876 33.6648C87.8196 33.6648 87.1507 32.5981 87.1507 31.3024C87.1507 30.0067 87.847 28.9679 89.0876 28.9679C90.3275 28.9679 90.9384 30.009 90.9384 31.3024Z" fill="black"/>
<path d="M24.2838 20.3424C23.1941 20 22.2015 20 20.1838 20H14.1312C12.1251 20 11.1209 20 10.0496 20.3331C9.46481 20.5449 8.93368 20.8827 8.49387 21.3225C8.05405 21.7623 7.7163 22.2934 7.50453 22.8783C7.16211 23.9612 7.16211 24.963 7.16211 26.9691V33.0217C7.16211 35.0393 7.16211 36.0319 7.49526 37.1125C7.70704 37.6973 8.04479 38.2284 8.48461 38.6682C8.92443 39.108 9.45555 39.4458 10.0404 39.6576C11.1233 40 12.1251 40 14.1311 40H20.1931C22.2015 40 23.2033 40 24.2838 39.6576C24.8687 39.4458 25.3998 39.108 25.8396 38.6682C26.2794 38.2284 26.6172 37.6973 26.829 37.1125C27.1714 36.0296 27.1714 35.0278 27.1714 33.0217V26.9783C27.1714 24.97 27.1714 23.9681 26.829 22.8875C26.6172 22.3027 26.2794 21.7716 25.8396 21.3318C25.3998 20.892 24.8687 20.5542 24.2838 20.3424ZM20.3505 27.5405C19.6002 26.9055 18.6495 26.5564 17.6666 26.5549C16.8567 26.5549 16.0469 26.8233 16.0469 27.5683C16.0469 28.2475 16.768 28.5133 17.6562 28.8406C17.7423 28.8724 17.83 28.9047 17.9187 28.938C19.6749 29.5304 21.1209 30.2569 21.1209 31.9783C21.1209 33.8478 19.6702 35.125 17.2963 35.2708L17.0812 36.2726C17.0615 36.3634 17.0113 36.4447 16.9388 36.5028C16.8663 36.561 16.7761 36.5924 16.6832 36.5919H15.1908C15.1305 36.5905 15.0713 36.5758 15.0172 36.5489C14.9632 36.522 14.9158 36.4836 14.8783 36.4364C14.8408 36.3891 14.8141 36.3342 14.8001 36.2755C14.7862 36.2169 14.7853 36.1558 14.7975 36.0967L15.0288 35.0393C14.1328 34.8109 13.309 34.3596 12.6341 33.7274C12.5954 33.6901 12.5647 33.6454 12.5436 33.5959C12.5226 33.5464 12.5118 33.4932 12.5118 33.4394C12.5118 33.3856 12.5226 33.3324 12.5436 33.2829C12.5647 33.2334 12.5954 33.1887 12.6341 33.1513L13.4625 32.3417C13.5378 32.2676 13.6392 32.2261 13.7448 32.2261C13.8504 32.2261 13.9517 32.2676 14.027 32.3417C14.7858 33.0656 15.7989 33.462 16.8475 33.4452C17.928 33.4452 18.6614 32.9871 18.6614 32.2606C18.6614 31.6038 18.0599 31.3837 16.9186 30.9663C16.7976 30.922 16.6705 30.8755 16.5374 30.8261C15.0705 30.3031 13.6823 29.5558 13.6823 27.8182C13.6823 25.8075 15.3621 24.8266 17.3426 24.7293L17.5509 23.709C17.5709 23.619 17.621 23.5385 17.6929 23.4809C17.7649 23.4233 17.8543 23.3919 17.9465 23.392H19.4342C19.4941 23.3918 19.5532 23.405 19.6073 23.4305C19.6614 23.4561 19.7092 23.4934 19.747 23.5397C19.7849 23.586 19.812 23.6402 19.8264 23.6983C19.8407 23.7564 19.8419 23.8169 19.8299 23.8755L19.5985 25.0163C20.3559 25.2638 21.0577 25.6568 21.6647 26.1731C21.7061 26.2086 21.7397 26.2524 21.7634 26.3016C21.7871 26.3508 21.8003 26.4044 21.8022 26.4589C21.8042 26.5135 21.7948 26.5678 21.7747 26.6186C21.7546 26.6694 21.7243 26.7154 21.6855 26.7539L20.9127 27.529C20.8382 27.6023 20.7384 27.6443 20.6339 27.6465C20.5294 27.6486 20.428 27.6107 20.3505 27.5405Z" fill="#00D54B"/>
</svg>
