<svg width="100" height="60" viewBox="0 0 100 60" fill="none" xmlns="http://www.w3.org/2000/svg">
<path d="M66.6841 24.9798C65.216 24.9798 63.4617 25.5024 61.7821 27.3189C60.1025 25.5024 58.3358 24.9798 56.8801 24.9798C56.8801 24.9798 51.269 24.5568 51.269 31.1135V41.7262H55.3374V31.7107C55.3374 28.7745 57.3031 28.7123 57.6888 28.7994C57.6888 28.7994 58.398 28.8367 59.045 29.5086C59.045 29.5086 57.751 31.2006 57.6515 33.3282C57.6515 33.3282 57.3654 38.8398 61.7821 38.8398C66.1989 38.8398 65.9127 33.3282 65.9127 33.3282C65.8132 31.2006 64.5193 29.5086 64.5193 29.5086C65.1662 28.8367 65.8754 28.7994 65.8754 28.7994C66.2487 28.7123 68.2269 28.7745 68.2269 31.7107V41.7262H72.2953V31.1135C72.2829 24.5568 66.6841 24.9798 66.6841 24.9798ZM61.7697 35.8538C60.8988 35.8538 60.6126 34.7589 60.6002 33.7138C60.5753 31.8974 61.7572 30.591 61.7697 30.5661C61.7946 30.591 62.9641 31.8974 62.9392 33.7138C62.9392 34.7589 62.6406 35.8538 61.7697 35.8538Z" fill="#1EC677"/>
<path d="M48.9796 25.2535H44.9112V41.7386H48.9796V25.2535Z" fill="#1EC677"/>
<path d="M46.9514 18.112C45.5952 18.112 44.4755 19.2069 44.4755 20.5506C44.4755 21.9067 45.5828 23.0265 46.9514 23.0265C48.2951 23.0265 49.3899 21.9192 49.3899 20.5506C49.3899 19.2318 48.2826 18.112 46.9514 18.112Z" fill="#1EC677"/>
<path d="M32.0341 26.3608V18H28.0031V41.7386H32.0341V29.8569C38.7153 26.6096 38.4665 31.748 38.4665 31.748V41.7386H42.51V31.748C42.4976 22.0933 34.0621 25.2783 32.0341 26.3608Z" fill="#1EC677"/>
<path d="M77.8816 34.2986C80.0465 35.0576 82.7961 34.9953 82.7961 34.9953C89.3155 34.958 89.1288 30.2178 89.1288 30.2178C88.9671 24.8803 82.6965 24.9798 82.6965 24.9798C77.5084 24.9798 73.8754 28.5381 73.8754 33.6268C73.8754 38.7154 77.4337 42 82.9329 42C85.2719 42 87.499 41.353 89.0542 40.2208V36.3017C87.4243 37.7076 85.471 38.4541 83.4057 38.4541C83.4181 38.4541 77.7696 38.7403 77.8816 34.2986ZM78.3793 30.8274C79.0636 29.098 80.4819 28.1898 82.4975 28.1898C84.1522 28.1898 85.1102 28.8865 85.1102 29.9938C85.1102 31.549 83.3559 31.6859 81.7136 31.6859C80.0962 31.6859 79.1009 31.5117 78.653 31.3997L78.2175 31.3002L78.3793 30.8274Z" fill="#1EC677"/>
<path d="M19.6546 42C22.5162 42 24.5442 40.9176 25.751 40.0093V36.0653C23.9719 37.4713 21.8817 38.28 20.0279 38.28C17.0668 38.28 14.989 36.2395 14.989 33.3033C14.989 30.5164 16.8802 28.5755 19.58 28.5755C20.4633 28.5755 21.2223 28.7995 22.031 29.0234C22.8646 29.2598 23.7355 29.5211 24.7681 29.5211C25.0916 29.5211 25.4151 29.4962 25.7386 29.4464V25.689C25.4649 25.7139 25.2036 25.7388 24.9299 25.7388C23.9968 25.7388 23.1507 25.5646 22.2674 25.378C21.3343 25.1789 20.3762 24.9799 19.2441 24.9799C16.9921 24.9799 14.9019 25.7761 13.3716 27.2443C11.7418 28.7995 10.8708 30.9643 10.8708 33.4899C10.8708 38.5039 14.4789 42 19.6546 42Z" fill="#1EC677"/>
</svg>
