<svg width="100" height="60" viewBox="0 0 100 60" fill="none" xmlns="http://www.w3.org/2000/svg">
<rect width="100" height="60" fill="#1EC677"/>
<path d="M66.6839 24.9798C65.2158 24.9798 63.4615 25.5024 61.7819 27.3189C60.1023 25.5024 58.3356 24.9798 56.8799 24.9798C56.8799 24.9798 51.2687 24.5568 51.2687 31.1135V41.7262H55.3371V31.7107C55.3371 28.7745 57.3029 28.7123 57.6886 28.7994C57.6886 28.7994 58.3978 28.8367 59.0447 29.5086C59.0447 29.5086 57.7508 31.2006 57.6513 33.3282C57.6513 33.3282 57.3651 38.8398 61.7819 38.8398C66.1987 38.8398 65.9125 33.3282 65.9125 33.3282C65.813 31.2006 64.519 29.5086 64.519 29.5086C65.166 28.8367 65.8752 28.7994 65.8752 28.7994C66.2484 28.7123 68.2266 28.7745 68.2266 31.7107V41.7262H72.2951V31.1135C72.2826 24.5568 66.6839 24.9798 66.6839 24.9798ZM61.7694 35.8538C60.8985 35.8538 60.6124 34.7589 60.5999 33.7138C60.575 31.8974 61.757 30.591 61.7694 30.5661C61.7943 30.591 62.9638 31.8974 62.939 33.7138C62.939 34.7589 62.6404 35.8538 61.7694 35.8538Z" fill="white"/>
<path d="M48.9793 25.2535H44.9109V41.7386H48.9793V25.2535Z" fill="white"/>
<path d="M46.9511 18.112C45.595 18.112 44.4752 19.2069 44.4752 20.5506C44.4752 21.9067 45.5825 23.0265 46.9511 23.0265C48.2948 23.0265 49.3897 21.9192 49.3897 20.5506C49.3897 19.2318 48.2824 18.112 46.9511 18.112Z" fill="white"/>
<path d="M32.0339 26.3608V18H28.0028V41.7386H32.0339V29.8569C38.7151 26.6096 38.4662 31.748 38.4662 31.748V41.7386H42.5097V31.748C42.4973 22.0933 34.0619 25.2783 32.0339 26.3608Z" fill="white"/>
<path d="M77.8814 34.2986C80.0462 35.0576 82.7958 34.9953 82.7958 34.9953C89.3152 34.958 89.1286 30.2178 89.1286 30.2178C88.9669 24.8803 82.6963 24.9798 82.6963 24.9798C77.5081 24.9798 73.8752 28.5381 73.8752 33.6268C73.8752 38.7154 77.4335 42 82.9327 42C85.2717 42 87.4988 41.353 89.054 40.2208V36.3017C87.4241 37.7076 85.4708 38.4541 83.4055 38.4541C83.4179 38.4541 77.7694 38.7403 77.8814 34.2986ZM78.379 30.8274C79.0633 29.098 80.4817 28.1898 82.4972 28.1898C84.152 28.1898 85.11 28.8865 85.11 29.9938C85.11 31.549 83.3557 31.6859 81.7134 31.6859C80.096 31.6859 79.1006 31.5117 78.6527 31.3997L78.2173 31.3002L78.379 30.8274Z" fill="white"/>
<path d="M19.6544 42C22.516 42 24.5439 40.9176 25.7508 40.0093V36.0653C23.9716 37.4713 21.8814 38.28 20.0276 38.28C17.0665 38.28 14.9888 36.2395 14.9888 33.3033C14.9888 30.5164 16.8799 28.5755 19.5797 28.5755C20.4631 28.5755 21.222 28.7995 22.0307 29.0234C22.8643 29.2598 23.7352 29.5211 24.7679 29.5211C25.0914 29.5211 25.4149 29.4962 25.7383 29.4464V25.689C25.4646 25.7139 25.2034 25.7388 24.9296 25.7388C23.9965 25.7388 23.1505 25.5646 22.2671 25.378C21.334 25.1789 20.376 24.9799 19.2438 24.9799C16.9919 24.9799 14.9017 25.7761 13.3714 27.2443C11.7415 28.7995 10.8706 30.9643 10.8706 33.4899C10.8706 38.5039 14.4787 42 19.6544 42Z" fill="white"/>
</svg>
