<svg width="100" height="60" viewBox="0 0 100 60" fill="none" xmlns="http://www.w3.org/2000/svg">
<rect width="100" height="60" fill="#111111"/>
<path d="M56.4748 47.9795C56.4826 48.2773 56.4252 48.5732 56.3067 48.8465C56.2051 49.0745 56.054 49.2769 55.8644 49.4392C55.6801 49.5934 55.4664 49.7085 55.2363 49.7776C54.7635 49.9222 54.2582 49.9222 53.7854 49.7776C53.5547 49.7082 53.3404 49.5932 53.1551 49.4392C52.9646 49.2778 52.8134 49.0751 52.7128 48.8465C52.5958 48.5728 52.5392 48.2771 52.5469 47.9795V45.5376H53.4758V47.8955C53.4715 48.0721 53.4984 48.2481 53.5554 48.4153C53.6008 48.5463 53.6757 48.665 53.7744 48.7624C53.8678 48.8512 53.9806 48.917 54.1039 48.9548C54.3694 49.0344 54.6524 49.0344 54.9178 48.9548C55.0411 48.9171 55.1539 48.8512 55.2473 48.7624C55.346 48.6651 55.4209 48.5463 55.4663 48.4153C55.5233 48.2481 55.5503 48.0721 55.5459 47.8955V45.5376H56.4748V47.9795ZM47.9109 45.4314C47.6862 45.4248 47.4638 45.4789 47.2673 45.5881C47.0708 45.6973 46.9074 45.8575 46.7943 46.0518V45.5378H45.8814V49.774H46.8031V47.3989C46.8031 46.6988 47.1044 46.3088 47.7071 46.3088C47.9042 46.3061 48.1 46.3422 48.2831 46.4152L48.5667 45.5467C48.3562 45.4713 48.1345 45.4324 47.9109 45.4314ZM51.1932 45.4314C50.9684 45.4248 50.7461 45.4789 50.5496 45.5881C50.3531 45.6973 50.1896 45.8575 50.0765 46.0518V45.5378H49.1637V49.774H50.0854V47.3989C50.0854 46.6988 50.3867 46.3088 50.9894 46.3088C51.1865 46.3061 51.3823 46.3422 51.5654 46.4152L51.849 45.5467C51.6385 45.4713 51.4167 45.4324 51.1932 45.4314ZM38.9687 47.6559C38.9565 47.9543 39.0069 48.252 39.1166 48.5298C39.2263 48.8076 39.393 49.0594 39.6058 49.2689C39.8187 49.4784 40.0731 49.6411 40.3526 49.7464C40.6321 49.8517 40.9305 49.8974 41.2287 49.8804C41.7821 49.9082 42.3258 49.7279 42.753 49.3751L42.3099 48.6307C41.9912 48.8736 41.6027 49.0073 41.2021 49.0118C40.8567 48.9908 40.5323 48.8389 40.2952 48.5869C40.058 48.3349 39.9259 48.0019 39.9259 47.6559C39.9259 47.3099 40.058 46.9769 40.2952 46.7249C40.5323 46.473 40.8567 46.321 41.2021 46.3C41.6027 46.3046 41.9912 46.4382 42.3099 46.6811L42.753 45.9367C42.3258 45.5839 41.7821 45.4037 41.2287 45.4314C40.9305 45.4145 40.6321 45.4601 40.3526 45.5654C40.0731 45.6707 39.8187 45.8334 39.6059 46.0429C39.393 46.2524 39.2263 46.5042 39.1166 46.782C39.0069 47.0598 38.9565 47.3574 38.9687 47.6559ZM60.8992 45.8746C60.3775 45.5644 59.7777 45.4105 59.1711 45.4314C58.0987 45.4314 57.4075 45.9455 57.4075 46.7874C57.4075 47.4786 57.9215 47.9041 58.8697 48.037L59.304 48.0991C59.8091 48.1699 60.0484 48.3029 60.0484 48.5422C60.0484 48.87 59.7117 49.0562 59.0824 49.0562C58.5763 49.0707 58.08 48.9147 57.6733 48.6131L57.2391 49.3308C57.7759 49.7058 58.419 49.8985 59.0736 49.8804C60.2966 49.8804 61.0055 49.3042 61.0055 48.4978C61.0055 47.7534 60.4472 47.3634 59.5255 47.2305L59.0913 47.1685C58.6925 47.1153 58.3735 47.0356 58.3735 46.752C58.3735 46.4418 58.6747 46.2557 59.18 46.2557C59.6438 46.2626 60.0983 46.3877 60.5004 46.6191L60.8992 45.8746ZM62.4482 49.1599C62.5053 49.1595 62.5618 49.1707 62.6145 49.1929C62.6651 49.214 62.7112 49.2445 62.7504 49.2829C62.7892 49.3212 62.8203 49.3667 62.8419 49.4167C62.864 49.4682 62.8754 49.5237 62.8754 49.5797C62.8754 49.6357 62.864 49.6911 62.8419 49.7426C62.8202 49.7925 62.7891 49.8377 62.7504 49.8759C62.7111 49.9143 62.665 49.945 62.6145 49.9664C62.5619 49.989 62.5053 50.0004 62.4482 50C62.364 50.0008 62.2815 49.9768 62.211 49.9311C62.1404 49.8853 62.0849 49.8197 62.0513 49.7426C62.0293 49.6911 62.0179 49.6357 62.0179 49.5797C62.0179 49.5237 62.0293 49.4682 62.0513 49.4167C62.0729 49.3667 62.1038 49.3213 62.1425 49.2829C62.1816 49.2443 62.2279 49.2137 62.2789 49.1929C62.3325 49.1707 62.3901 49.1595 62.4482 49.1599ZM62.4482 49.9073C62.4917 49.9076 62.5349 49.8989 62.5748 49.8815C62.6132 49.8649 62.6482 49.8411 62.6777 49.8115C62.7156 49.7737 62.7437 49.7271 62.7594 49.6759C62.7751 49.6247 62.778 49.5704 62.7679 49.5178C62.7577 49.4653 62.7348 49.4159 62.7012 49.3743C62.6675 49.3326 62.6241 49.2998 62.5748 49.2789C62.5348 49.2618 62.4917 49.2532 62.4482 49.2536C62.4038 49.2532 62.3599 49.2618 62.319 49.2789C62.2799 49.2949 62.2444 49.3185 62.2145 49.3483C62.1686 49.3942 62.1374 49.4527 62.1249 49.5164C62.1123 49.5801 62.119 49.6461 62.144 49.706C62.1691 49.766 62.2114 49.8171 62.2655 49.8529C62.3197 49.8887 62.3832 49.9076 62.4482 49.9073ZM62.4729 49.3833C62.5142 49.3806 62.5552 49.3924 62.5887 49.4167C62.6021 49.4277 62.6127 49.4417 62.6198 49.4575C62.6268 49.4733 62.6301 49.4905 62.6294 49.5078C62.6298 49.5227 62.6272 49.5374 62.6216 49.5511C62.616 49.5649 62.6076 49.5773 62.597 49.5876C62.5714 49.6103 62.5389 49.6239 62.5048 49.6262L62.6325 49.7734H62.5326L62.4142 49.6272H62.3761V49.7734H62.2928V49.3833H62.4729ZM62.3761 49.4564V49.5604H62.4719C62.4903 49.5613 62.5085 49.5568 62.5244 49.5475C62.5309 49.5431 62.5361 49.5372 62.5395 49.5303C62.5429 49.5233 62.5444 49.5156 62.5439 49.5078C62.5443 49.5003 62.5428 49.4927 62.5393 49.4859C62.5359 49.4791 62.5308 49.4734 62.5244 49.4692C62.5085 49.46 62.4903 49.4555 62.4719 49.4564H62.3761ZM44.796 44.074C44.7968 44.1598 44.7803 44.2448 44.7476 44.3241C44.7149 44.4033 44.6665 44.4752 44.6055 44.5355C44.5444 44.5957 44.4719 44.643 44.3922 44.6747C44.3125 44.7064 44.2273 44.7217 44.1415 44.7198C44.0562 44.7215 43.9715 44.706 43.8924 44.6742C43.8132 44.6423 43.7413 44.5948 43.681 44.5345C43.6207 44.4742 43.5732 44.4023 43.5414 44.3232C43.5096 44.244 43.4941 44.1593 43.4959 44.074C43.4939 43.9883 43.5093 43.9031 43.5409 43.8234C43.5726 43.7437 43.6199 43.6712 43.6801 43.6101C43.7404 43.5491 43.8122 43.5008 43.8915 43.468C43.9708 43.4353 44.0558 43.4188 44.1415 43.4196C44.2277 43.4187 44.3133 43.4349 44.3931 43.4675C44.4729 43.5 44.5454 43.5482 44.6064 43.6092C44.6674 43.6701 44.7155 43.7426 44.7481 43.8225C44.7807 43.9023 44.797 43.9878 44.796 44.074ZM44.6103 49.7744H43.6816V45.5377H44.6103V49.7744Z" fill="white"/>
<path d="M56.9632 13.4026H43.0375V38.4274H56.9632V13.4026Z" fill="#007AD0"/>
<path d="M43.9217 25.915C43.9195 23.505 44.4657 21.126 45.5188 18.9582C46.5719 16.7904 48.1045 14.8906 50.0003 13.4026C47.6526 11.5572 44.8329 10.4096 41.8637 10.0909C38.8945 9.77221 35.8955 10.2953 33.2096 11.6005C30.5236 12.9056 28.2591 14.9401 26.6748 17.4715C25.0904 20.0028 24.2502 22.9288 24.2502 25.915C24.2502 28.9013 25.0904 31.8273 26.6748 34.3586C28.2591 36.8899 30.5236 38.9244 33.2096 40.2296C35.8955 41.5347 38.8945 42.0579 41.8637 41.7392C44.8329 41.4205 47.6526 40.2728 50.0003 38.4274C48.1045 36.9395 46.5719 35.0397 45.5188 32.8719C44.4657 30.7041 43.9195 28.3251 43.9217 25.915Z" fill="#0066BA"/>
<path d="M74.2313 35.777V35.2646H74.4378V35.1603H73.9117V35.2646H74.1184V35.777H74.2313ZM75.2527 35.777V35.1592H75.0914L74.9059 35.5841L74.7204 35.1592H74.559V35.777H74.6729V35.311L74.8469 35.7127H74.9649L75.1389 35.31V35.777H75.2527Z" fill="#00A2E5"/>
<path d="M75.7497 25.915C75.7498 28.9012 74.9097 31.8272 73.3255 34.3586C71.7412 36.8899 69.4767 38.9244 66.7908 40.2295C64.105 41.5347 61.106 42.0578 58.1369 41.7392C55.1677 41.4205 52.3481 40.2728 50.0003 38.4274C51.8946 36.938 53.4259 35.0379 54.4789 32.8704C55.5319 30.7029 56.079 28.3247 56.079 25.915C56.079 23.5053 55.5319 21.1271 54.4789 18.9597C53.4259 16.7922 51.8946 14.8921 50.0003 13.4026C52.3481 11.5572 55.1677 10.4096 58.1369 10.0909C61.106 9.77221 64.105 10.2953 66.7908 11.6005C69.4767 12.9057 71.7412 14.9402 73.3255 17.4715C74.9097 20.0028 75.7498 22.9288 75.7497 25.915Z" fill="#00A2E5"/>
</svg>
