<svg width="100" height="60" viewBox="0 0 100 60" fill="none" xmlns="http://www.w3.org/2000/svg">
<rect width="100" height="60" fill="#FF8000"/>
<path d="M65.49 18.6341L56.878 10.0671C56.878 10.0671 55.762 8.95508 54.186 8.95508C54.186 8.95508 52.61 8.95508 51.494 10.0671C51.494 10.0671 50.379 11.1771 50.379 12.7471C50.379 12.7471 50.379 14.3171 51.494 15.4271L53.589 17.5041H45.553C45.553 17.5041 43.958 17.5041 42.842 18.6241C42.842 18.6241 41.716 19.7351 41.716 21.3141C41.716 21.3141 41.716 22.8941 42.842 24.0141C42.842 24.0141 43.958 25.1261 45.553 25.1261H53.589L51.494 27.2111C51.494 27.2111 50.379 28.3221 50.379 29.8911C50.379 29.8911 50.379 31.4611 51.494 32.5721C51.494 32.5721 52.61 33.6741 54.186 33.6741C54.186 33.6741 55.762 33.6741 56.878 32.5721L65.481 23.9951C65.481 23.9951 66.597 22.8841 66.597 21.3151C66.597 21.3151 66.597 19.7451 65.491 18.6351M34.493 16.0321C34.493 16.0321 36.597 16.0321 38.085 17.5131C38.085 17.5131 39.573 18.9951 39.573 21.0901C39.573 21.0901 39.573 23.1861 38.085 24.6681C38.085 24.6681 36.597 26.1491 34.493 26.1491C34.493 26.1491 32.388 26.1491 30.9 24.6681C30.9 24.6681 29.413 23.1861 29.413 21.0901C29.413 21.0901 29.413 18.9951 30.9 17.5131C30.9 17.5131 32.388 16.0321 34.493 16.0321ZM20.847 48.1521C20.847 48.1521 20.14 48.2901 19.51 48.2901C17.65 48.2901 16.606 47.2801 16.606 45.3831V43.2401C16.606 41.3431 17.636 40.3331 19.51 40.3331C20.201 40.3331 20.847 40.4711 20.847 40.4711C21.047 40.5011 21.139 40.6091 21.139 40.7771V41.7101C21.139 41.8791 21.031 41.9701 20.847 41.9551C20.847 41.9551 20.186 41.8631 19.617 41.8631C18.619 41.8631 18.297 42.4451 18.297 43.2711V45.3371C18.297 46.1941 18.65 46.7601 19.633 46.7601C20.233 46.7601 20.863 46.6681 20.863 46.6681C21.031 46.6531 21.139 46.7301 21.139 46.8981V47.8311C21.139 47.9991 21.062 48.1071 20.847 48.1521ZM23.613 48.1371H22.507C22.4684 48.1385 22.43 48.1319 22.3941 48.1179C22.3581 48.1038 22.3255 48.0825 22.2981 48.0554C22.2708 48.0282 22.2492 47.9957 22.2349 47.9598C22.2206 47.924 22.2138 47.8856 22.215 47.8471V37.5631C22.2134 37.5244 22.2199 37.4857 22.234 37.4497C22.2482 37.4136 22.2696 37.3808 22.2971 37.3535C22.3245 37.3261 22.3574 37.3048 22.3935 37.2908C22.4296 37.2767 22.4682 37.2704 22.507 37.2721H23.613C23.783 37.2721 23.905 37.3941 23.905 37.5621V47.8451C23.9062 47.8837 23.8995 47.9222 23.8853 47.9581C23.871 47.9941 23.8496 48.0267 23.8222 48.054C23.7948 48.0813 23.7621 48.1027 23.7261 48.1168C23.6901 48.1309 23.6516 48.1385 23.613 48.1371ZM26.61 48.1371H25.503C25.4644 48.1385 25.426 48.1319 25.3901 48.1179C25.3541 48.1038 25.3215 48.0825 25.2941 48.0554C25.2667 48.0282 25.2452 47.9957 25.2309 47.9598C25.2166 47.924 25.2098 47.8856 25.211 47.8471V40.7771C25.211 40.6091 25.334 40.4861 25.503 40.4861H26.609C26.779 40.4861 26.902 40.6091 26.902 40.7761V47.8461C26.9032 47.8848 26.8965 47.9234 26.8822 47.9594C26.8679 47.9954 26.8463 48.0281 26.8188 48.0554C26.7913 48.0827 26.7585 48.104 26.7224 48.1181C26.6863 48.1321 26.6477 48.1386 26.609 48.1371M26.609 38.9571H25.503C25.4643 38.9585 25.4258 38.9519 25.3898 38.9378C25.3538 38.9237 25.3211 38.9023 25.2937 38.875C25.2664 38.8477 25.2449 38.8151 25.2306 38.7791C25.2164 38.7432 25.2097 38.7047 25.211 38.6661V37.5641C25.211 37.3941 25.334 37.2731 25.503 37.2731H26.609C26.779 37.2731 26.902 37.3951 26.902 37.5631V38.6661C26.902 38.8341 26.779 38.9571 26.609 38.9571ZM32.449 48.1521C32.449 48.1521 31.742 48.2901 31.112 48.2901C29.252 48.2901 28.208 47.2801 28.208 45.3831V43.2401C28.208 41.3431 29.238 40.3331 31.112 40.3331C31.803 40.3331 32.449 40.4711 32.449 40.4711C32.649 40.5011 32.741 40.6091 32.741 40.7771V41.7101C32.741 41.8791 32.633 41.9701 32.449 41.9551C32.449 41.9551 31.788 41.8631 31.219 41.8631C30.221 41.8631 29.898 42.4451 29.898 43.2711V45.3371C29.898 46.1941 30.251 46.7601 31.235 46.7601C31.834 46.7601 32.464 46.6681 32.464 46.6681C32.633 46.6531 32.74 46.7301 32.74 46.8981V47.8311C32.74 47.9991 32.664 48.1071 32.449 48.1521ZM39.318 48.1371H38.073C37.903 48.1371 37.766 47.9991 37.689 47.8471L35.599 43.8531L37.504 40.7771C37.596 40.6391 37.734 40.4861 37.904 40.4861H39.149C39.318 40.4861 39.409 40.6391 39.318 40.7761L37.412 43.8221L39.517 47.8461C39.594 47.9841 39.488 48.1371 39.318 48.1371ZM35.215 48.1371H34.108C34.0694 48.1385 34.031 48.1319 33.9951 48.1179C33.9591 48.1038 33.9265 48.0825 33.8991 48.0554C33.8717 48.0282 33.8502 47.9957 33.8359 47.9598C33.8216 47.924 33.8148 47.8856 33.816 47.8471V37.5631C33.816 37.3931 33.94 37.2721 34.108 37.2721H35.215C35.384 37.2721 35.507 37.3941 35.507 37.5621V47.8451C35.5082 47.8837 35.5015 47.9222 35.4873 47.9581C35.473 47.9941 35.4515 48.0267 35.4242 48.054C35.3968 48.0813 35.3641 48.1027 35.3281 48.1168C35.2921 48.1309 35.2536 48.1385 35.215 48.1371ZM43.882 44.9391H42.59C41.76 44.9391 41.422 45.2911 41.422 45.9491C41.422 46.5301 41.76 46.8671 42.436 46.8671C42.913 46.8671 43.436 46.6831 43.881 46.4541L43.882 44.9391ZM45.28 48.1371H44.25C44.2115 48.1383 44.1732 48.1317 44.1374 48.1176C44.1016 48.1034 44.069 48.0821 44.0418 48.055C44.0145 48.0278 43.9931 47.9953 43.9789 47.9596C43.9646 47.9238 43.9578 47.8855 43.959 47.8471V47.7091C43.467 48.0151 42.821 48.2901 42.099 48.2901C40.609 48.2901 39.733 47.5401 39.733 45.9951C39.733 44.4191 40.701 43.6381 42.406 43.6381C42.929 43.6381 43.682 43.6991 43.881 43.7301V43.1181C43.881 42.3221 43.528 41.8941 42.621 41.8941C41.715 41.8941 40.562 42.1541 40.562 42.1541C40.378 42.2001 40.27 42.0781 40.27 41.9091V40.9761C40.27 40.8071 40.378 40.7011 40.562 40.6551C40.562 40.6551 41.562 40.3331 42.852 40.3331C44.896 40.3331 45.572 41.2831 45.572 43.1181V47.8471C45.572 48.0151 45.449 48.1371 45.28 48.1371ZM52.426 48.1371H51.319C51.2804 48.1385 51.242 48.1319 51.2061 48.1179C51.1701 48.1038 51.1375 48.0825 51.1101 48.0554C51.0828 48.0282 51.0612 47.9957 51.0469 47.9598C51.0326 47.924 51.0258 47.8856 51.027 47.8471V43.0871C51.027 42.3691 50.812 41.9091 49.997 41.9091C49.522 41.9091 48.999 42.1231 48.569 42.3531V47.8461C48.5702 47.8847 48.5635 47.9232 48.5493 47.9591C48.535 47.9951 48.5135 48.0277 48.4862 48.055C48.4588 48.0823 48.4261 48.1037 48.3901 48.1178C48.3541 48.1319 48.3156 48.1385 48.277 48.1371H47.17C47.1314 48.1385 47.093 48.1319 47.0571 48.1179C47.0211 48.1038 46.9885 48.0825 46.9611 48.0554C46.9337 48.0282 46.9122 47.9957 46.8979 47.9598C46.8836 47.924 46.8768 47.8856 46.878 47.8471V40.7771C46.878 40.6091 47.001 40.4861 47.17 40.4861H48.2C48.369 40.4861 48.492 40.6091 48.492 40.7761V41.0061C49.0601 40.5689 49.7571 40.3323 50.474 40.3331C52.149 40.3331 52.717 41.3431 52.717 42.9351V47.8461C52.7184 47.8847 52.7118 47.9231 52.6977 47.9591C52.6835 47.995 52.6621 48.0277 52.6348 48.055C52.6075 48.0823 52.5749 48.1037 52.5389 48.1178C52.503 48.1319 52.4645 48.1385 52.426 48.1371ZM57.866 42.1081C57.451 41.9401 56.99 41.8181 56.575 41.8181C55.73 41.8181 55.407 42.3531 55.407 43.1181V45.4901C55.407 46.2551 55.73 46.7901 56.575 46.7901C56.99 46.7901 57.451 46.6381 57.865 46.4391V42.1091L57.866 42.1081ZM59.264 48.1381H58.234C58.1952 48.1395 58.1566 48.1329 58.1206 48.1187C58.0845 48.1045 58.0518 48.0831 58.0244 48.0557C57.997 48.0283 57.9755 47.9955 57.9613 47.9595C57.9472 47.9234 57.9406 47.8848 57.942 47.8461V47.7551C57.466 48.0451 56.882 48.2901 56.222 48.2901C54.516 48.2901 53.717 47.2501 53.717 45.6121V43.0111C53.717 41.3731 54.516 40.3331 56.221 40.3331C56.851 40.3331 57.405 40.5171 57.866 40.7461V37.5641C57.866 37.3941 57.989 37.2731 58.158 37.2731H59.264C59.434 37.2731 59.556 37.3951 59.556 37.5631V47.8461C59.5572 47.8847 59.5505 47.9232 59.5363 47.9591C59.522 47.9951 59.5006 48.0277 59.4732 48.055C59.4458 48.0823 59.4131 48.1037 59.3771 48.1178C59.3411 48.1319 59.3026 48.1395 59.264 48.1381ZM65.011 43.1181C65.011 42.3531 64.704 41.8181 63.858 41.8181C63.444 41.8181 62.968 41.9711 62.552 42.1691V46.6831H63.735C64.658 46.6831 65.011 46.1791 65.011 45.4131V43.1181ZM63.889 48.1381H61.154C61.1152 48.1395 61.0766 48.1329 61.0406 48.1187C61.0045 48.1045 60.9718 48.0831 60.9444 48.0557C60.917 48.0283 60.8955 47.9955 60.8813 47.9595C60.8672 47.9234 60.8606 47.8848 60.862 47.8461V37.5641C60.862 37.3941 60.985 37.2731 61.154 37.2731H62.261C62.2995 37.2715 62.3379 37.278 62.3739 37.292C62.4098 37.306 62.4425 37.3273 62.4698 37.3545C62.4971 37.3818 62.5185 37.4143 62.5327 37.4502C62.5468 37.4861 62.5534 37.5245 62.552 37.5631V40.8071C63.0523 40.5021 63.626 40.3383 64.212 40.3331C65.918 40.3331 66.702 41.3731 66.702 43.0111V45.4591C66.702 47.1271 65.795 48.1381 63.889 48.1381ZM73.555 48.1371H72.525C72.4865 48.1383 72.4482 48.1317 72.4124 48.1176C72.3766 48.1034 72.344 48.0821 72.3168 48.055C72.2895 48.0278 72.2681 47.9953 72.2539 47.9596C72.2396 47.9238 72.2328 47.8855 72.234 47.8471V47.6171C71.6655 48.0545 70.9682 48.2911 70.251 48.2901C68.576 48.2901 68.008 47.2801 68.008 45.6891V40.7771C68.008 40.6091 68.131 40.4861 68.3 40.4861H69.407C69.575 40.4861 69.699 40.6091 69.699 40.7761V45.5361C69.699 46.2561 69.913 46.7141 70.728 46.7141C71.204 46.7141 71.727 46.5001 72.157 46.2701V40.7771C72.157 40.6091 72.28 40.4861 72.449 40.4861H73.555C73.725 40.4861 73.847 40.6091 73.847 40.7761V47.8461C73.8482 47.8847 73.8415 47.9232 73.8273 47.9591C73.813 47.9951 73.7916 48.0277 73.7642 48.055C73.7368 48.0823 73.7041 48.1037 73.6681 48.1178C73.6321 48.1319 73.5936 48.1385 73.555 48.1371ZM77.966 50.7701C77.904 50.9221 77.812 51.0451 77.643 51.0451H76.398C76.229 51.0451 76.106 50.9071 76.168 50.7551L77.043 48.1981L74.6 40.7781C74.554 40.6241 74.647 40.4861 74.83 40.4861H76.045C76.214 40.4861 76.337 40.5941 76.383 40.7621L77.95 45.6121L79.595 40.7621C79.656 40.6091 79.764 40.4861 79.933 40.4861H81.147C81.331 40.4861 81.438 40.6391 81.377 40.7931L77.966 50.7701Z" fill="white"/>
</svg>
