<svg width="100" height="60" viewBox="0 0 100 60" fill="none" xmlns="http://www.w3.org/2000/svg">
<path d="M66.49 18.6341L57.878 10.0671C57.878 10.0671 56.762 8.95508 55.186 8.95508C55.186 8.95508 53.61 8.95508 52.494 10.0671C52.494 10.0671 51.379 11.1771 51.379 12.7471C51.379 12.7471 51.379 14.3171 52.494 15.4271L54.589 17.5041H46.553C46.553 17.5041 44.958 17.5041 43.842 18.6241C43.842 18.6241 42.716 19.7351 42.716 21.3141C42.716 21.3141 42.716 22.8941 43.842 24.0141C43.842 24.0141 44.958 25.1261 46.553 25.1261H54.589L52.494 27.2111C52.494 27.2111 51.379 28.3221 51.379 29.8911C51.379 29.8911 51.379 31.4611 52.494 32.5721C52.494 32.5721 53.61 33.6741 55.186 33.6741C55.186 33.6741 56.762 33.6741 57.878 32.5721L66.481 23.9951C66.481 23.9951 67.597 22.8841 67.597 21.3151C67.597 21.3151 67.597 19.7451 66.491 18.6351M35.493 16.0321C35.493 16.0321 37.597 16.0321 39.085 17.5131C39.085 17.5131 40.573 18.9951 40.573 21.0901C40.573 21.0901 40.573 23.1861 39.085 24.6681C39.085 24.6681 37.597 26.1491 35.493 26.1491C35.493 26.1491 33.388 26.1491 31.9 24.6681C31.9 24.6681 30.413 23.1861 30.413 21.0901C30.413 21.0901 30.413 18.9951 31.9 17.5131C31.9 17.5131 33.388 16.0321 35.493 16.0321ZM21.847 48.1521C21.847 48.1521 21.14 48.2901 20.51 48.2901C18.65 48.2901 17.606 47.2801 17.606 45.3831V43.2401C17.606 41.3431 18.636 40.3331 20.51 40.3331C21.201 40.3331 21.847 40.4711 21.847 40.4711C22.047 40.5011 22.139 40.6091 22.139 40.7771V41.7101C22.139 41.8791 22.031 41.9701 21.847 41.9551C21.847 41.9551 21.186 41.8631 20.617 41.8631C19.619 41.8631 19.297 42.4451 19.297 43.2711V45.3371C19.297 46.1941 19.65 46.7601 20.633 46.7601C21.233 46.7601 21.863 46.6681 21.863 46.6681C22.031 46.6531 22.139 46.7301 22.139 46.8981V47.8311C22.139 47.9991 22.062 48.1071 21.847 48.1521ZM24.613 48.1371H23.507C23.4684 48.1385 23.43 48.1319 23.3941 48.1179C23.3581 48.1038 23.3255 48.0825 23.2981 48.0554C23.2708 48.0282 23.2492 47.9957 23.2349 47.9598C23.2206 47.924 23.2138 47.8856 23.215 47.8471V37.5631C23.2134 37.5244 23.2199 37.4857 23.234 37.4497C23.2482 37.4136 23.2696 37.3808 23.2971 37.3535C23.3245 37.3261 23.3574 37.3048 23.3935 37.2908C23.4296 37.2767 23.4682 37.2704 23.507 37.2721H24.613C24.783 37.2721 24.905 37.3941 24.905 37.5621V47.8451C24.9062 47.8837 24.8995 47.9222 24.8853 47.9581C24.871 47.9941 24.8496 48.0267 24.8222 48.054C24.7948 48.0813 24.7621 48.1027 24.7261 48.1168C24.6901 48.1309 24.6516 48.1385 24.613 48.1371ZM27.61 48.1371H26.503C26.4644 48.1385 26.426 48.1319 26.3901 48.1179C26.3541 48.1038 26.3215 48.0825 26.2941 48.0554C26.2667 48.0282 26.2452 47.9957 26.2309 47.9598C26.2166 47.924 26.2098 47.8856 26.211 47.8471V40.7771C26.211 40.6091 26.334 40.4861 26.503 40.4861H27.609C27.779 40.4861 27.902 40.6091 27.902 40.7761V47.8461C27.9032 47.8848 27.8965 47.9234 27.8822 47.9594C27.8679 47.9954 27.8463 48.0281 27.8188 48.0554C27.7913 48.0827 27.7585 48.104 27.7224 48.1181C27.6863 48.1321 27.6477 48.1386 27.609 48.1371M27.609 38.9571H26.503C26.4643 38.9585 26.4258 38.9519 26.3898 38.9378C26.3538 38.9237 26.3211 38.9023 26.2937 38.875C26.2664 38.8477 26.2449 38.8151 26.2306 38.7791C26.2164 38.7432 26.2097 38.7047 26.211 38.6661V37.5641C26.211 37.3941 26.334 37.2731 26.503 37.2731H27.609C27.779 37.2731 27.902 37.3951 27.902 37.5631V38.6661C27.902 38.8341 27.779 38.9571 27.609 38.9571ZM33.449 48.1521C33.449 48.1521 32.742 48.2901 32.112 48.2901C30.252 48.2901 29.208 47.2801 29.208 45.3831V43.2401C29.208 41.3431 30.238 40.3331 32.112 40.3331C32.803 40.3331 33.449 40.4711 33.449 40.4711C33.649 40.5011 33.741 40.6091 33.741 40.7771V41.7101C33.741 41.8791 33.633 41.9701 33.449 41.9551C33.449 41.9551 32.788 41.8631 32.219 41.8631C31.221 41.8631 30.898 42.4451 30.898 43.2711V45.3371C30.898 46.1941 31.251 46.7601 32.235 46.7601C32.834 46.7601 33.464 46.6681 33.464 46.6681C33.633 46.6531 33.74 46.7301 33.74 46.8981V47.8311C33.74 47.9991 33.664 48.1071 33.449 48.1521ZM40.318 48.1371H39.073C38.903 48.1371 38.766 47.9991 38.689 47.8471L36.599 43.8531L38.504 40.7771C38.596 40.6391 38.734 40.4861 38.904 40.4861H40.149C40.318 40.4861 40.409 40.6391 40.318 40.7761L38.412 43.8221L40.517 47.8461C40.594 47.9841 40.488 48.1371 40.318 48.1371ZM36.215 48.1371H35.108C35.0694 48.1385 35.031 48.1319 34.9951 48.1179C34.9591 48.1038 34.9265 48.0825 34.8991 48.0554C34.8717 48.0282 34.8502 47.9957 34.8359 47.9598C34.8216 47.924 34.8148 47.8856 34.816 47.8471V37.5631C34.816 37.3931 34.94 37.2721 35.108 37.2721H36.215C36.384 37.2721 36.507 37.3941 36.507 37.5621V47.8451C36.5082 47.8837 36.5015 47.9222 36.4873 47.9581C36.473 47.9941 36.4515 48.0267 36.4242 48.054C36.3968 48.0813 36.3641 48.1027 36.3281 48.1168C36.2921 48.1309 36.2536 48.1385 36.215 48.1371Z" fill="#FF8000"/>
<path d="M44.8819 44.9392H43.5899C42.7599 44.9392 42.4219 45.2912 42.4219 45.9492C42.4219 46.5302 42.7599 46.8672 43.4359 46.8672C43.9129 46.8672 44.4359 46.6832 44.8809 46.4542L44.8819 44.9392ZM46.2799 48.1372H45.2499C45.2114 48.1384 45.1731 48.1318 45.1373 48.1177C45.1015 48.1036 45.069 48.0823 45.0417 48.0551C45.0145 48.0279 44.9931 47.9955 44.9788 47.9597C44.9646 47.924 44.9578 47.8857 44.9589 47.8472V47.7092C44.4669 48.0152 43.8209 48.2902 43.0989 48.2902C41.6089 48.2902 40.7329 47.5402 40.7329 45.9952C40.7329 44.4192 41.7009 43.6382 43.4059 43.6382C43.9289 43.6382 44.6819 43.6992 44.8809 43.7302V43.1182C44.8809 42.3222 44.5279 41.8942 43.6209 41.8942C42.7149 41.8942 41.5619 42.1542 41.5619 42.1542C41.3779 42.2002 41.2699 42.0782 41.2699 41.9092V40.9762C41.2699 40.8072 41.3779 40.7012 41.5619 40.6552C41.5619 40.6552 42.5619 40.3332 43.8519 40.3332C45.8959 40.3332 46.5719 41.2832 46.5719 43.1182V47.8472C46.5719 48.0152 46.4489 48.1372 46.2799 48.1372ZM53.4259 48.1372H52.3189C52.2804 48.1386 52.2419 48.132 52.206 48.118C52.1701 48.1039 52.1374 48.0826 52.1101 48.0555C52.0827 48.0283 52.0612 47.9958 52.0469 47.96C52.0326 47.9241 52.0258 47.8858 52.0269 47.8472V43.0872C52.0269 42.3692 51.8119 41.9092 50.9969 41.9092C50.5219 41.9092 49.9989 42.1232 49.5689 42.3532V47.8462C49.5702 47.8848 49.5635 47.9233 49.5492 47.9593C49.535 47.9952 49.5135 48.0278 49.4861 48.0551C49.4587 48.0824 49.426 48.1038 49.39 48.1179C49.3541 48.132 49.3155 48.1386 49.2769 48.1372H48.1699C48.1314 48.1386 48.0929 48.132 48.057 48.118C48.0211 48.1039 47.9884 48.0826 47.9611 48.0555C47.9337 48.0283 47.9122 47.9958 47.8979 47.96C47.8836 47.9241 47.8768 47.8858 47.8779 47.8472V40.7772C47.8779 40.6092 48.0009 40.4862 48.1699 40.4862H49.1999C49.3689 40.4862 49.4919 40.6092 49.4919 40.7762V41.0062C50.0601 40.569 50.757 40.3324 51.4739 40.3332C53.1489 40.3332 53.7169 41.3432 53.7169 42.9352V47.8462C53.7183 47.8848 53.7117 47.9233 53.6976 47.9592C53.6835 47.9951 53.6621 48.0278 53.6348 48.0551C53.6075 48.0824 53.5748 48.1038 53.5389 48.1179C53.503 48.132 53.4645 48.1386 53.4259 48.1372ZM58.8659 42.1082C58.4509 41.9402 57.9899 41.8182 57.5749 41.8182C56.7299 41.8182 56.4069 42.3532 56.4069 43.1182V45.4902C56.4069 46.2552 56.7299 46.7902 57.5749 46.7902C57.9899 46.7902 58.4509 46.6382 58.8649 46.4392V42.1092L58.8659 42.1082ZM60.2639 48.1382H59.2339C59.1952 48.1396 59.1566 48.133 59.1205 48.1188C59.0845 48.1046 59.0517 48.0832 59.0243 48.0558C58.9969 48.0284 58.9755 47.9956 58.9613 47.9596C58.9471 47.9235 58.9405 47.8849 58.9419 47.8462V47.7552C58.4659 48.0452 57.8819 48.2902 57.2219 48.2902C55.5159 48.2902 54.7169 47.2502 54.7169 45.6122V43.0112C54.7169 41.3732 55.5159 40.3332 57.2209 40.3332C57.8509 40.3332 58.4049 40.5172 58.8659 40.7462V37.5642C58.8659 37.3942 58.9889 37.2732 59.1579 37.2732H60.2639C60.4339 37.2732 60.5559 37.3952 60.5559 37.5632V47.8462C60.5572 47.8848 60.5505 47.9233 60.5362 47.9593C60.522 47.9952 60.5005 48.0278 60.4731 48.0551C60.4457 48.0824 60.413 48.1038 60.377 48.1179C60.3411 48.132 60.3025 48.1396 60.2639 48.1382Z" fill="#808080"/>
<path d="M66.011 43.1182C66.011 42.3532 65.704 41.8182 64.858 41.8182C64.444 41.8182 63.968 41.9712 63.552 42.1692V46.6832H64.735C65.658 46.6832 66.011 46.1792 66.011 45.4132V43.1182ZM64.889 48.1382H62.154C62.1153 48.1396 62.0767 48.133 62.0406 48.1188C62.0046 48.1046 61.9718 48.0832 61.9444 48.0558C61.917 48.0284 61.8956 47.9956 61.8814 47.9596C61.8672 47.9235 61.8606 47.8849 61.862 47.8462V37.5642C61.862 37.3942 61.985 37.2732 62.154 37.2732H63.261C63.2995 37.2716 63.338 37.2781 63.3739 37.2921C63.4099 37.3061 63.4425 37.3274 63.4698 37.3546C63.4972 37.3818 63.5186 37.4144 63.5327 37.4503C63.5468 37.4862 63.5534 37.5246 63.552 37.5632V40.8072C64.0524 40.5022 64.626 40.3384 65.212 40.3332C66.918 40.3332 67.702 41.3732 67.702 43.0112V45.4592C67.702 47.1272 66.795 48.1382 64.889 48.1382ZM74.555 48.1372H73.525C73.4865 48.1384 73.4482 48.1318 73.4124 48.1177C73.3766 48.1035 73.3441 48.0822 73.3168 48.0551C73.2896 48.0279 73.2682 47.9954 73.2539 47.9597C73.2397 47.9239 73.2329 47.8856 73.234 47.8472V47.6172C72.6656 48.0546 71.9682 48.2912 71.251 48.2902C69.576 48.2902 69.008 47.2802 69.008 45.6892V40.7772C69.008 40.6092 69.131 40.4862 69.3 40.4862H70.407C70.575 40.4862 70.699 40.6092 70.699 40.7762V45.5362C70.699 46.2562 70.913 46.7142 71.728 46.7142C72.204 46.7142 72.727 46.5002 73.157 46.2702V40.7772C73.157 40.6092 73.28 40.4862 73.449 40.4862H74.555C74.725 40.4862 74.847 40.6092 74.847 40.7762V47.8462C74.8483 47.8848 74.8416 47.9233 74.8273 47.9592C74.8131 47.9952 74.7916 48.0278 74.7642 48.0551C74.7368 48.0824 74.7041 48.1038 74.6681 48.1179C74.6321 48.132 74.5936 48.1386 74.555 48.1372ZM78.966 50.7702C78.904 50.9222 78.812 51.0452 78.643 51.0452H77.398C77.229 51.0452 77.106 50.9072 77.168 50.7552L78.043 48.1982L75.6 40.7782C75.554 40.6242 75.647 40.4862 75.83 40.4862H77.045C77.214 40.4862 77.337 40.5942 77.383 40.7622L78.95 45.6122L80.595 40.7622C80.656 40.6092 80.764 40.4862 80.933 40.4862H82.147C82.331 40.4862 82.438 40.6392 82.377 40.7932L78.966 50.7702Z" fill="#FF8000"/>
</svg>
