<svg xmlns="http://www.w3.org/2000/svg" width="100" height="60" fill="none"><path fill="#fff" d="M0 0h100v60H0z"/><path fill="#F27100" d="M30.8 46.645c0-2.156 1.603-3.612 3.683-3.612 1.511 0 2.39.828 2.877 1.707l-1.262.628c-.29-.565-.91-1.015-1.614-1.015-1.263 0-2.174.974-2.174 2.293s.911 2.292 2.174 2.292c.703 0 1.324-.45 1.614-1.015l1.262.618c-.486.869-1.366 1.717-2.877 1.717-2.08 0-3.684-1.466-3.684-3.613m7.088.953c0-1.434.993-2.649 2.64-2.649 1.655 0 2.65 1.215 2.65 2.65s-.995 2.659-2.65 2.659c-1.647 0-2.64-1.225-2.64-2.66m3.922 0c0-.785-.455-1.466-1.283-1.466-.818 0-1.273.68-1.273 1.466 0 .796.455 1.476 1.273 1.476.827 0 1.283-.68 1.283-1.476m2.224-3.863a.782.782 0 0 1 1.563 0 .79.79 0 0 1-.786.795.79.79 0 0 1-.777-.795m.124 6.397v-5.057h1.314v5.057zm5.992 0v-3.057c0-.702-.362-.942-.92-.942-.518 0-.912.293-1.14.586v3.413h-1.314v-5.057h1.315v.649a2.33 2.33 0 0 1 1.75-.775c1.106 0 1.634.628 1.634 1.613v3.57zm5.857 0-1.325-1.948-.6.65v1.298h-1.314v-6.984h1.314v4.178l1.894-2.251h1.614l-1.977 2.292 2.04 2.764zm2.183-6.397a.782.782 0 0 1 1.563 0 .79.79 0 0 1-.787.795.79.79 0 0 1-.776-.795m.124 6.397v-5.057h1.315v5.057zm2.886-1.267v-2.628h-.827v-1.162h.828v-1.382h1.315v1.382h1.013v1.162h-1.013v2.272c0 .325.165.565.455.565.197 0 .383-.073.455-.156l.28 1.015c-.197.178-.549.325-1.097.325-.922 0-1.409-.482-1.409-1.393m2.91-1.267c0-1.466 1.075-2.649 2.586-2.649 1.5 0 2.505 1.131 2.505 2.775v.314h-3.716c.094.618.59 1.13 1.44 1.13.423 0 1.003-.177 1.323-.491l.59.88c-.496.46-1.283.7-2.059.7-1.52 0-2.67-1.036-2.67-2.659m2.586-1.56c-.818 0-1.17.576-1.22 1.079h2.462c-.04-.482-.372-1.079-1.242-1.079M67.046 39.803h-33.71c-1.179 0-2.137-.97-2.137-2.16V11.852c0-1.19.958-2.16 2.137-2.16h33.71c1.18 0 2.138.97 2.138 2.16v25.79a2.15 2.15 0 0 1-2.138 2.16m-33.597-2.274h33.485V11.966H33.45z"/><path fill="#F27100" d="M54.237 29.15v3.493c0 .647-.62 1.172-1.384 1.172h-.24v2.097h12.502v-6.764H54.237zm0-7.56h10.88v6.26h-10.88zm-1.623-7.998v2.087h.24c.762 0 1.385.526 1.385 1.172v3.504h10.878v-6.763zM47.53 33.816c-.764 0-1.385-.525-1.385-1.172V29.15h-10.94v6.763H47.71v-2.096l-.18-.002M35.206 21.59h10.94v6.26h-10.94zm10.94-4.737c0-.647.62-1.173 1.384-1.173h.18v-2.088H35.206v6.764h10.94zm6.841 14.977c0 .374-.3.677-.67.677h-4.25a.676.676 0 0 1-.67-.678V17.743c0-.375.3-.678.67-.678h4.25c.37 0 .67.303.67.678z"/></svg>