<svg xmlns="http://www.w3.org/2000/svg" width="100" height="60" fill="none"><path fill="#fff" d="M0 0h100v60H0z"/><path fill="#0079BE" d="M53.38 48c9.75.047 18.65-8.025 18.65-17.844 0-10.737-8.9-18.16-18.65-18.156h-8.392C35.122 11.996 27 19.42 27 30.156c0 9.821 8.122 17.89 17.988 17.844z"/><path fill="#fff" d="M45.029 13.488c-9.017.003-16.323 7.377-16.326 16.48.003 9.1 7.309 16.475 16.326 16.478 9.017-.003 16.326-7.378 16.327-16.479-.001-9.102-7.309-16.476-16.327-16.48M34.68 29.968a10.46 10.46 0 0 1 6.643-9.748v19.493a10.455 10.455 0 0 1-6.643-9.746m14.05 9.75V20.218a10.45 10.45 0 0 1 6.648 9.75 10.46 10.46 0 0 1-6.647 9.748"/><path fill="#0079BE" d="M53.38 48c9.75.047 18.65-8.025 18.65-17.844 0-10.737-8.9-18.16-18.65-18.156h-8.392C35.122 11.996 27 19.42 27 30.156c0 9.821 8.122 17.89 17.988 17.844z"/><path fill="#fff" d="M45.029 13.488c-9.017.003-16.323 7.377-16.326 16.48.003 9.1 7.309 16.475 16.326 16.478 9.017-.003 16.326-7.378 16.327-16.479-.001-9.102-7.309-16.476-16.327-16.48M34.68 29.968a10.46 10.46 0 0 1 6.643-9.748v19.493a10.455 10.455 0 0 1-6.643-9.746m14.05 9.75V20.218a10.45 10.45 0 0 1 6.648 9.75 10.46 10.46 0 0 1-6.647 9.748"/></svg>