<svg width="100" height="60" viewBox="0 0 100 60" fill="none" xmlns="http://www.w3.org/2000/svg">
<path d="M53.3799 47.9998C63.1301 48.0469 72.0296 39.975 72.0296 30.1557C72.0296 19.4186 63.1301 11.996 53.3799 12H44.9884C35.122 11.996 27 19.4206 27 30.1557C27 39.977 35.122 48.0469 44.9884 47.9998H53.3799Z" fill="#0079BE"/>
<path d="M45.0285 13.4878C36.0117 13.4908 28.7064 20.8653 28.7034 29.9672C28.7064 39.0681 36.0117 46.4426 45.0285 46.4456C54.0462 46.4426 61.3546 39.0681 61.3556 29.9672C61.3546 20.8653 54.0472 13.4908 45.0285 13.4878ZM34.6811 29.9672C34.6792 27.8628 35.3122 25.8067 36.4974 24.0677C37.6826 22.3288 39.3648 20.9878 41.3242 20.22V39.7134C39.3646 38.9462 37.6822 37.6054 36.497 35.8666C35.3118 34.1277 34.6789 32.0716 34.6811 29.9672V29.9672ZM48.7318 39.7174V20.219C50.6926 20.9857 52.3763 22.3266 53.5623 24.0661C54.7484 25.8057 55.3815 27.8628 55.3788 29.9682C55.3811 32.0735 54.7478 34.1305 53.5618 35.8699C52.3758 37.6094 50.6924 38.9504 48.7318 39.7174V39.7174Z" fill="white"/>
<path d="M53.3799 47.9998C63.1301 48.0469 72.0296 39.975 72.0296 30.1557C72.0296 19.4186 63.1301 11.996 53.3799 12H44.9884C35.122 11.996 27 19.4206 27 30.1557C27 39.977 35.122 48.0469 44.9884 47.9998H53.3799Z" fill="#0079BE"/>
<path d="M45.0285 13.4878C36.0117 13.4908 28.7064 20.8653 28.7034 29.9672C28.7064 39.0681 36.0117 46.4426 45.0285 46.4456C54.0462 46.4426 61.3546 39.0681 61.3556 29.9672C61.3546 20.8653 54.0472 13.4908 45.0285 13.4878ZM34.6811 29.9672C34.6792 27.8628 35.3122 25.8067 36.4974 24.0677C37.6826 22.3288 39.3648 20.9878 41.3242 20.22V39.7134C39.3646 38.9462 37.6822 37.6054 36.497 35.8666C35.3118 34.1277 34.6789 32.0716 34.6811 29.9672V29.9672ZM48.7318 39.7174V20.219C50.6926 20.9857 52.3763 22.3266 53.5623 24.0661C54.7484 25.8057 55.3815 27.8628 55.3788 29.9682C55.3811 32.0735 54.7478 34.1305 53.5618 35.8699C52.3758 37.6094 50.6924 38.9504 48.7318 39.7174V39.7174Z" fill="white"/>
</svg>
