<svg width="100" height="60" viewBox="0 0 100 60" fill="none" xmlns="http://www.w3.org/2000/svg">
<rect width="100" height="60" fill="#141413"/>
<path d="M47.791 22.9631H51.666C51.666 22.9631 55.502 22.8861 55.464 26.3841C55.424 28.9891 51.744 29.3781 51.744 29.3781H47.79L47.791 22.9631ZM59.383 35.5211C59.492 36.0311 59.858 36.5911 61.082 36.6481C62.709 36.6871 63.64 36.0641 63.64 36.0641V37.2701C63.64 37.2701 61.857 37.6971 61.004 37.6971C60.114 37.6971 57.478 37.5031 57.478 35.0541C57.478 33.0711 59.648 32.4491 60.888 32.4491C63.058 32.5271 64.104 33.3041 64.065 35.5201C64.065 35.5531 60.495 35.5291 59.383 35.5211ZM59.388 34.5481H62.36C62.36 34.5481 62.36 33.4211 60.927 33.4211C59.848 33.4211 59.496 34.0041 59.388 34.5481ZM68.793 33.3311C69.223 32.8631 69.945 32.4881 71.157 32.4881C73.559 32.4881 73.947 34.5091 73.907 35.0541C73.869 35.5981 73.675 37.6591 70.885 37.6591C69.832 37.6591 69.187 37.2981 68.793 36.8491V37.5031H66.894V30.5051H68.793V33.3311ZM70.42 36.5711C71.544 36.5311 72.048 35.5591 72.048 35.0931C72.048 34.6261 71.776 33.6541 70.343 33.6541C69.23 33.6541 68.892 34.4971 68.793 34.9101V35.4171C68.89 35.8371 69.231 36.5711 70.42 36.5711ZM86.811 36.3761L86.85 37.4641C86.85 37.4641 85.958 37.6591 85.377 37.6591C84.797 37.6591 83.285 37.3091 83.285 35.8321V33.5761H81.696V32.5661H83.285V31.3601H85.222V32.5651H86.811V33.5751H85.222V35.5191C85.222 35.5191 85.222 36.4911 85.997 36.4911C86.772 36.4911 86.811 36.3761 86.811 36.3761ZM80.921 24.0131H83.168V29.4171H85.068V24.0131H87.353V22.8861H80.921V24.0131ZM80.146 24.2851L80.379 23.1581C80.379 23.1581 79.409 22.7301 77.705 22.7301C76.039 22.7301 73.365 23.6631 73.365 26.1901C73.365 28.6781 76.194 29.5331 77.937 29.5331C79.681 29.5331 80.262 29.2611 80.262 29.2611L80.069 28.0171C80.069 28.0171 79.293 28.2501 77.976 28.2501C76.697 28.2121 75.38 27.2001 75.38 26.0731C75.419 25.0631 76.581 23.9351 78.093 23.9351C79.255 23.9351 80.146 24.2851 80.146 24.2851ZM63.019 22.9251C63.019 22.9251 66.197 22.7691 66.197 24.6351C66.197 26.2291 64.376 26.3451 64.376 26.3451C64.376 26.3451 64.879 26.4231 65.112 26.7731C65.305 27.0841 66.584 29.4171 66.584 29.4171H64.647C64.647 29.4171 64.337 29.0271 64.182 28.7561C64.065 28.4841 63.717 27.9011 63.717 27.9011C63.717 27.9011 63.446 26.9291 62.516 26.9291L61.818 26.9031V29.4171H59.958V22.9241L63.019 22.9251ZM61.818 25.8401H62.825C62.825 25.8401 64.221 25.7621 64.298 24.9071C64.337 24.0901 62.942 23.9741 62.942 23.9741H61.818V25.8401ZM69.607 26.8501H72.707V25.6461H69.607V24.1681H72.977V22.9241H67.707V29.4171H73.017V28.2501H69.607V26.8501ZM77.163 31.8271H79.061V30.5051H77.163V31.8271ZM77.163 37.5031H79.061V32.5661H77.163V37.5031ZM56.47 29.4171H58.33V22.9241H56.47V29.4171ZM47.79 31.0491H51.665C51.665 31.0491 55.501 30.9721 55.463 34.4711C55.423 37.0751 51.743 37.4641 51.743 37.4641H47.79V31.0491ZM49.689 36.2591H50.929C50.929 36.2591 53.486 36.1041 53.486 34.1211C53.486 32.1381 50.774 31.9441 50.774 31.9441H49.69L49.689 36.2591ZM49.689 28.1731H50.929C50.929 28.1731 53.486 27.9781 53.486 26.0341C53.486 24.0131 50.774 23.8581 50.774 23.8581H49.69L49.689 28.1731ZM30.393 26.8281V39.8361C30.393 39.8361 22.876 38.4751 22.876 33.3041C22.876 29.1811 28.441 27.3641 30.393 26.8281ZM30.393 26.5851C25.875 26.2571 15.63 28.3821 15.63 33.0321C15.63 36.0641 21.055 40.4961 29.89 40.6131C30.238 40.6131 40.274 40.2241 40.119 29.4171C39.989 20.3391 33.217 18.7501 31.052 18.4731V17.9201C39.685 18.4701 46.474 23.6781 46.474 30.0001C46.474 36.6871 38.879 42.1301 29.541 42.1301C20.202 42.1301 12.647 36.6871 12.647 30.0001C12.647 23.3131 20.202 17.8701 29.541 17.8701C29.827 17.8701 30.111 17.8751 30.393 17.8861V26.5861V26.5851Z" fill="white"/>
</svg>
