<svg width="100" height="60" viewBox="0 0 100 60" fill="none" xmlns="http://www.w3.org/2000/svg">
<path d="M24.115 60C49.41 60 74.705 60 100 60V33.698C100 33.698 73.2 51.868 24.115 60Z" fill="#FD6020"/>
<path d="M18.2891 32.961C17.5381 33.603 16.5821 33.884 15.0541 33.884H14.4201V26.224H15.0541C16.5821 26.224 17.5011 26.485 18.2891 27.159C19.1011 27.856 19.5891 28.929 19.5891 30.041C19.5891 31.157 19.1011 32.27 18.2891 32.961ZM15.5271 24.261H12.0571V35.847H15.5071C17.3411 35.847 18.6671 35.429 19.8271 34.507C21.2071 33.414 22.0251 31.765 22.0251 30.057C22.0251 26.637 19.3551 24.261 15.5271 24.261ZM23.1141 24.261H25.4671V35.847H23.1141V24.261ZM31.2441 28.702C29.8241 28.203 29.4091 27.872 29.4091 27.245C29.4091 26.517 30.1511 25.965 31.1711 25.965C31.8781 25.965 32.4611 26.236 33.0811 26.898L34.3091 25.356C33.318 24.5139 32.0567 24.057 30.7561 24.069C28.6131 24.069 26.9801 25.495 26.9801 27.381C26.9801 28.982 27.7391 29.795 29.9541 30.566C30.8811 30.874 31.3511 31.085 31.5891 31.227C32.0611 31.519 32.2961 31.937 32.2961 32.421C32.2961 33.364 31.5161 34.056 30.4611 34.056C29.3381 34.056 28.4301 33.518 27.8861 32.508L26.3641 33.918C27.4521 35.444 28.7561 36.126 30.5541 36.126C33.0041 36.126 34.7311 34.556 34.7311 32.32C34.7311 30.477 33.9311 29.641 31.2441 28.702ZM35.4731 30.057C35.4731 33.464 38.2681 36.104 41.8651 36.104C42.8801 36.104 43.7491 35.912 44.8201 35.429V32.766C43.8741 33.676 43.0431 34.036 41.9691 34.036C39.5921 34.036 37.9081 32.389 37.9081 30.041C37.9081 27.821 39.6461 26.064 41.8651 26.064C42.9851 26.064 43.8411 26.444 44.8201 27.367V24.707C43.7861 24.207 42.9371 24 41.9141 24C38.3371 24 35.4731 26.691 35.4731 30.057ZM63.9491 32.039L60.7201 24.261H58.1461L63.2781 36.139H64.5441L69.7761 24.261H67.2221L63.9491 32.039ZM70.8471 35.847H77.5431V33.884H73.2101V30.756H77.3781V28.794H73.2101V26.224H77.5431V24.261H70.8471V35.847ZM82.1541 29.589H81.4691V26.085H82.1931C83.6681 26.085 84.4581 26.677 84.4581 27.805C84.4581 28.965 83.6681 29.589 82.1541 29.589ZM86.8891 27.679C86.8891 25.51 85.3341 24.261 82.6091 24.261H79.1021V35.847H81.4691V31.189H81.7761L85.0381 35.847H87.9421L84.1331 30.964C85.9131 30.616 86.8891 29.451 86.8891 27.679Z" fill="#1A1919"/>
<path d="M58.4792 30.0839C58.4792 33.4189 55.6552 36.1229 52.1682 36.1229C48.6812 36.1229 45.8572 33.4189 45.8572 30.0839C45.8572 26.7479 48.6812 24.0439 52.1672 24.0439C55.6552 24.0439 58.4792 26.7479 58.4792 30.0839Z" fill="#FD6020"/>
</svg>
