<svg width="100" height="60" viewBox="0 0 100 60" fill="none" xmlns="http://www.w3.org/2000/svg">
<rect width="100" height="60" fill="#9F221F"/>
<path d="M39.2 25.9H41.8V21H44.5V25.9H48.1V28.2H44.6V35.3C44.6 35.3 44.5 36.3 45.2 36.3H48.1V38.7H43.5C43.4 38.7 42.6 38.6 42.1 37.9C41.7 37.3 41.7 36.7 41.8 36.5V28.2H39.2V25.9ZM75 26V35.2C75 35.2 75 38.7 78.2 38.7H83.5V39.7C83.5 39.7 83.6 40.8 82.3 40.8H75V43.2H83.2C83.2 43.2 86.4 42.8 86.4 38.8V26H83.5V36.3H79.3C79.3 36.3 77.9 36.2 77.9 34.3C77.9 31.8 77.8 26 77.8 26H75ZM57 26H49.1L49 43.1H51.9V38.7H57.2C57.2 38.7 61.2 38.2 61.2 32C61.1 25.9 57 26 57 26ZM56 36.4H51.9V28.2H56C56 28.2 58.8 28.3 58.8 32.2C58.8 36.1 56 36.4 56 36.4ZM70.7 26H62.4V28.1H68.9C71.1 28.1 71.3 29.5 71.3 29.5V31H65.5C65.5 31 61.6 30.9 61.6 34.5C61.6 38.4 64.9 38.7 64.9 38.7H74V29.3C74 25.9 70.7 26 70.7 26ZM71.1 36.4H66C66 36.4 64.8 36.4 64.8 34.7C64.8 33 66 33.2 66 33.2H71.1V36.4ZM33.3 26C29.8 26 27 28.8 27 32.3C27 35.8 29.8 38.6 33.3 38.6C36.8 38.6 39.6 35.8 39.6 32.3C39.6 28.8 36.8 26 33.3 26ZM35.5 36H30.9C30.9 36 30.2 36 30.2 35.3V32.3C30.2 32.3 30.2 31.6 30.9 31.6V29.4C30.9 29.4 30.9 28.6 31.7 28.6H34.7C34.7 28.6 35.5 28.6 35.5 29.3V31.6C35.5 31.6 36.2 31.6 36.2 32.3V35.3C36.2 35.3 36.3 36 35.5 36Z" fill="white"/>
<path d="M34.0001 29.4999H32.2001C31.8001 29.4999 31.5001 29.7999 31.5001 30.1999V30.9999C31.5001 31.3999 31.8001 31.6999 32.2001 31.6999H34.0001C34.4001 31.6999 34.7001 31.3999 34.7001 30.9999V30.1999C34.8001 29.7999 34.5001 29.4999 34.0001 29.4999ZM23.1001 20.8999V25.9999H19.0001C19.0001 25.9999 13.6001 26.1999 13.6001 32.4999C13.6001 38.7999 19.0001 38.6999 19.0001 38.6999H26.0001V20.8999H23.1001ZM23.1001 36.3999H19.0001C19.0001 36.3999 16.2001 36.2999 16.2001 32.3999C16.2001 28.4999 19.0001 28.1999 19.0001 28.1999H23.1001V36.3999Z" fill="white"/>
</svg>
