<svg width="100" height="60" viewBox="0 0 100 60" fill="none" xmlns="http://www.w3.org/2000/svg">
<path d="M38.4282 35.2233C40.064 37.254 41.6234 37.211 42.8818 36.6604C44.0315 36.1567 44.6426 34.7935 44.4398 33.2771C44.4089 33.2906 44.3606 33.2959 44.3525 33.3161C43.6259 35.1171 41.7577 35.3723 40.291 34.9761C38.9882 34.6256 38.3221 33.6827 38.1112 32.4014C38.0382 31.9259 38.0028 31.4454 38.0051 30.9643C37.993 29.0236 38.0051 27.0842 38.0051 25.0937H40.3273C40.3353 25.2683 40.3515 25.4563 40.3515 25.6444C40.3515 27.2319 40.3515 28.8181 40.3515 30.4043C40.3521 30.7424 40.3777 31.0799 40.428 31.4143C40.6214 32.6821 41.3977 33.1724 42.6602 32.8393C43.685 32.5707 44.3673 31.6372 44.4331 30.2431C44.5029 28.7657 44.4841 27.2883 44.5029 25.8109C44.5029 25.5839 44.5029 25.357 44.5029 25.091H46.7647C46.7916 25.1735 46.8097 25.2586 46.8184 25.3449C46.8184 28.2325 46.8882 31.1201 46.7889 34.0064C46.6707 37.4125 43.7629 39.505 40.4119 38.7072C39.2985 38.4386 38.2791 37.994 37.4746 37.1439C37.2382 36.894 37.1925 36.698 37.4491 36.4213C37.7902 36.056 38.0843 35.6517 38.4282 35.2233Z" fill="black"/>
<path d="M24.4292 25.1931V26.6705C23.7107 25.6229 22.6725 24.9648 21.5187 24.9648C19.3497 24.9648 17.5929 27.2843 17.5929 30.1464C17.5929 33.0085 19.3564 35.3267 21.5187 35.3267C22.6725 35.3267 23.7107 34.6672 24.4292 33.6196V35.3267H26.789V25.1931H24.4292ZM22.1943 33.1992C20.913 33.1992 19.8748 31.832 19.8748 30.1437C19.8748 28.4555 20.913 27.0882 22.1943 27.0882C23.4756 27.0882 24.5152 28.4568 24.5152 30.1437C24.5152 31.8306 23.477 33.1992 22.1943 33.1992Z" fill="black"/>
<path d="M65.6175 25.1931V26.6705C64.899 25.6229 63.8608 24.9648 62.7057 24.9648C60.538 24.9648 58.7799 27.2843 58.7799 30.1464C58.7799 33.0085 60.538 35.3294 62.7057 35.3294C63.8608 35.3294 64.899 34.6699 65.6175 33.6223V35.3294H67.976V25.1931H65.6175ZM63.3826 33.1992C62.1013 33.1992 61.0618 31.832 61.0618 30.1437C61.0618 28.4555 62.1013 27.0882 63.3826 27.0882C64.6639 27.0882 65.7035 28.4568 65.7035 30.1437C65.7035 31.8306 64.6639 33.1992 63.3826 33.1992Z" fill="black"/>
<path d="M90.3303 25.1931V26.6705C89.6117 25.6229 88.5735 24.9648 87.4185 24.9648C85.2507 24.9648 83.4926 27.2843 83.4926 30.1464C83.4926 33.0085 85.2507 35.3294 87.4185 35.3294C88.5735 35.3294 89.6117 34.6699 90.3303 33.6223V35.3294H92.6887V25.1931H90.3303ZM88.0954 33.1992C86.8141 33.1992 85.7745 31.832 85.7745 30.1437C85.7745 28.4555 86.8141 27.0882 88.0954 27.0882C89.3767 27.0882 90.4162 28.4568 90.4162 30.1437C90.4162 31.8306 89.3767 33.1992 88.0954 33.1992Z" fill="black"/>
<path d="M72.1476 24.9621H69.7247V35.3267H72.1476V24.9621Z" fill="black"/>
<path d="M70.9375 23.9897C71.7631 23.9897 72.4323 23.3204 72.4323 22.4949C72.4323 21.6693 71.7631 21 70.9375 21C70.1119 21 69.4426 21.6693 69.4426 22.4949C69.4426 23.3204 70.1119 23.9897 70.9375 23.9897Z" fill="#26B15D"/>
<path d="M53.8951 25.1286C52.7656 25.1286 51.7462 25.7209 51.0155 26.6705V24.9621H48.6437V38.9987H51.0155V33.7969C51.7462 34.7478 52.7615 35.3388 53.8951 35.3388C56.1152 35.3388 57.9163 33.0555 57.9163 30.235C57.9163 27.4146 56.1152 25.1286 53.8951 25.1286ZM53.2236 33.1992C52.223 33.1992 51.3674 32.4283 51.0196 31.3364V29.1579C51.3674 28.066 52.2283 27.295 53.2236 27.295C54.5344 27.295 55.5955 28.6166 55.5955 30.2498C55.5955 31.883 54.5304 33.1992 53.2195 33.1992H53.2236Z" fill="black"/>
<path d="M34.9684 28.6368L36.6566 27.753C36.6311 26.9687 36.1113 26.2595 35.4479 25.8418C34.7844 25.4241 33.992 25.2576 33.2103 25.177C31.9505 25.0427 30.598 25.1488 29.5517 25.862C28.5055 26.5751 27.9011 28.0445 28.4853 29.17C28.9635 30.0913 30.0433 30.5211 31.0627 30.7186C32.0821 30.916 33.1552 30.967 34.0752 31.4478C34.3022 31.5674 34.5386 31.7447 34.5628 32.0012C34.5869 32.2577 34.407 32.4578 34.2203 32.6136C33.8463 32.926 33.3983 33.1372 32.9194 33.2269C32.4404 33.3167 31.9464 33.282 31.4847 33.1262C31.023 32.9704 30.609 32.6987 30.2823 32.3371C29.9556 31.9755 29.7272 31.5362 29.6189 31.061L27.752 32.0361C27.3585 32.2456 28.8157 34.0507 29.0024 34.2092C30.3831 35.418 32.4689 35.602 34.1692 35.0379C35.3659 34.6417 36.4982 33.7432 36.7372 32.5062C36.8098 32.1143 36.7912 31.7109 36.6829 31.3273C36.5746 30.9437 36.3795 30.5902 36.1127 30.2941C35.5365 29.6656 34.685 29.3647 33.8482 29.1968C33.0115 29.029 32.1492 28.9685 31.3367 28.7093C30.9848 28.5965 30.5859 28.3601 30.6034 27.9908C30.6195 27.6483 30.9888 27.4455 31.3152 27.3394C32.0042 27.1151 32.755 27.021 33.452 27.2171C34.1491 27.4132 34.775 27.9411 34.9684 28.6368Z" fill="black"/>
<path d="M80.601 28.6368L82.2892 27.753C82.2637 26.9687 81.7426 26.2595 81.0805 25.8418C80.4183 25.4241 79.6245 25.2576 78.8429 25.177C77.5831 25.0427 76.2306 25.1488 75.1843 25.862C74.138 26.5751 73.5337 28.0445 74.1179 29.17C74.596 30.0913 75.6759 30.5211 76.6939 30.7186C77.712 30.916 78.7878 30.967 79.7078 31.4478C79.9348 31.5674 80.1712 31.7447 80.1954 32.0012C80.2195 32.2577 80.0396 32.4578 79.8529 32.6136C79.4789 32.926 79.0309 33.1372 78.552 33.2269C78.073 33.3167 77.579 33.282 77.1173 33.1262C76.6556 32.9704 76.2415 32.6987 75.9149 32.3371C75.5882 31.9755 75.3598 31.5362 75.2515 31.061L73.3846 32.0361C72.9911 32.2456 74.4483 34.0507 74.635 34.2092C76.0157 35.418 78.1015 35.602 79.8018 35.0379C80.9985 34.6417 82.1307 33.7432 82.3698 32.5062C82.442 32.1143 82.4232 31.711 82.3149 31.3275C82.2067 30.944 82.0118 30.5904 81.7453 30.2941C81.1691 29.6656 80.3176 29.3647 79.4808 29.1968C78.6441 29.029 77.7818 28.9685 76.9693 28.7093C76.6174 28.5965 76.2171 28.3601 76.2359 27.9908C76.2521 27.6483 76.6214 27.4455 76.9478 27.3394C77.6368 27.1151 78.3876 27.021 79.0846 27.2171C79.7817 27.4132 80.4102 27.9411 80.601 28.6368Z" fill="black"/>
<path d="M15.5823 26.7283C15.5823 26.7283 13.8282 24.0421 10.0125 25.3852C10.0125 25.3852 7.94957 25.9533 7.0215 29.2532C7.0215 29.2532 8.93002 32.2953 13.5704 31.3162C13.5704 31.3162 17.5405 30.2861 15.5823 26.7283ZM13.0802 29.4144C12.3052 29.7811 11.1125 29.683 10.304 29.4722C10.2462 29.4574 9.19058 29.0854 9.23893 28.994C10.0139 27.561 12.0419 26.2394 13.4562 27.71C13.6017 27.851 13.7081 28.0273 13.7651 28.2218C13.886 28.7066 13.5301 29.2049 13.0802 29.4171V29.4144Z" fill="black"/>
<path d="M7.0215 30.2431C7.0215 30.2431 6.55814 33.8439 9.90913 35.0298C13.2601 36.2158 15.8912 34.0494 16.6648 32.709L14.7563 31.5754C14.7563 31.5754 13.2615 34.6645 8.98106 32.658C8.98106 32.658 7.43383 31.746 7.0215 30.2431Z" fill="#26B15D"/>
</svg>
