<svg xmlns="http://www.w3.org/2000/svg" width="100" height="60" fill="none"><path fill="#000" d="M0 0h100v60H0z"/><path fill="#fff" d="M26.292 22.653c-4.512 0-8.27 1.928-8.27 7.743 0 4.608 2.527 7.51 8.386 7.51 6.896 0 7.338-4.577 7.338-4.577h-3.341s-.717 2.464-4.2 2.464c-2.839 0-4.88-1.93-4.88-4.637h12.77v-1.698c0-2.678-1.687-6.805-7.803-6.805m-.117 2.17c2.701 0 4.543 1.667 4.543 4.166h-9.319c0-2.653 2.404-4.166 4.776-4.166"/><path fill="#fff" d="M34.093 17.022v17.962c0 1.02-.072 2.452-.072 2.452h3.187s.115-1.028.115-1.968c0 0 1.574 2.481 5.856 2.481 4.509 0 7.571-3.153 7.571-7.67 0-4.202-2.813-7.582-7.564-7.582-4.449 0-5.831 2.42-5.831 2.42v-8.095zm8.27 7.897c3.062 0 5.01 2.289 5.01 5.36 0 3.294-2.25 5.448-4.988 5.448-3.267 0-5.03-2.57-5.03-5.419 0-2.654 1.582-5.39 5.009-5.39z"/><path fill="#fff" d="M58.67 22.653c-6.786 0-7.221 3.743-7.221 4.34h3.378s.177-2.184 3.61-2.184c2.232 0 3.96 1.029 3.96 3.006v.704h-3.96c-5.257 0-8.036 1.55-8.036 4.693 0 3.094 2.568 4.777 6.039 4.777 4.73 0 6.253-2.632 6.253-2.632 0 1.047.08 2.079.08 2.079h3.003s-.116-1.28-.116-2.097v-7.073c0-4.637-3.714-5.613-6.99-5.613m3.728 7.978v.939c0 1.224-.75 4.267-5.165 4.267-2.418 0-3.454-1.215-3.454-2.625 0-2.564 3.489-2.581 8.619-2.581"/><path fill="#fff" d="M63.84 23.24h3.801l5.454 11.006 5.441-11.006h3.443l-9.912 19.593h-3.61l2.86-5.462z"/></svg>