<svg width="100" height="60" viewBox="0 0 100 60" fill="none" xmlns="http://www.w3.org/2000/svg">
<rect width="100" height="60" fill="#006B93"/>
<path d="M24.8572 22.1853C25.6782 21.9112 26.5558 21.7637 27.4697 21.7637C31.4539 21.7637 34.7797 24.5934 35.5425 28.3555L41.1902 27.2031C39.8932 20.811 34.2444 16 27.4697 16C25.917 16 24.4259 16.2529 23.0307 16.7191L24.8572 22.1853Z" fill="#FFCB03"/>
<path d="M18.1921 40.4893L22.0112 36.1713C20.3067 34.6607 19.2309 32.4567 19.2309 30.0007C19.2309 27.5469 20.3052 25.3434 22.0087 23.8349L18.1888 19.5165C15.2938 22.0813 13.4668 25.8285 13.4668 30.0007C13.4668 34.1759 15.2946 37.924 18.1921 40.4893Z" fill="#00A4E0"/>
<path d="M35.5399 31.6527C34.7742 35.4123 31.4509 38.2369 27.4686 38.2369C26.5545 38.2369 25.6744 38.0897 24.8542 37.8138L23.0247 43.2818C24.42 43.7479 25.9145 44 27.4686 44C34.2368 44 39.8854 39.1969 41.1868 32.8108L35.5399 31.6527Z" fill="#EF4023"/>
<path d="M57.4135 34.6498C57.4118 34.651 57.4102 34.6525 57.4091 34.6544L57.2486 34.546C56.7863 35.2964 56.064 35.9045 55.1536 36.2995C53.4205 37.053 51.8147 36.8591 50.6612 35.8478L50.5556 36.0092C50.5543 36.0073 50.5539 36.006 50.5522 36.006L48.5857 38.9478C49.0735 39.2871 49.5983 39.5745 50.1484 39.8043C52.321 40.7065 54.5444 40.6652 56.7337 39.7125C58.3175 39.0266 59.5606 37.9796 60.41 36.653L57.4135 34.6498ZM51.2742 27.3906C49.4443 28.1771 48.5006 29.8934 48.6948 31.9065L56.4468 28.5703C55.1139 27.0038 53.3791 26.4843 51.2742 27.3906ZM46.1275 36.353C45.9426 36.0533 45.6905 35.5741 45.5397 35.2212C44.6452 33.145 44.6022 30.996 45.3574 28.9333C46.1878 26.6713 47.7744 24.9395 49.8239 24.0574C52.4006 22.9486 55.2508 23.1673 57.7204 24.6326C59.2899 25.5325 60.4018 26.9223 61.246 28.8873C61.354 29.1392 61.4488 29.4077 61.541 29.636L46.1275 36.353Z" fill="white"/>
<path d="M66.9294 19.7238V36.0812L69.4732 37.1122L68.0281 40.4841L65.2213 39.3148C64.5911 39.0419 64.1619 38.6247 63.8374 38.1533C63.5265 37.6729 63.2946 37.0135 63.2946 36.1262V19.7238H66.9294Z" fill="white"/>
<path d="M73.5167 31.9149C73.518 30.5219 74.1331 29.2734 75.1065 28.4239L72.4975 25.515C70.7285 27.0788 69.6136 29.3646 69.6115 31.9104C69.6084 34.4582 70.7217 36.7465 72.4893 38.3142L75.0952 35.4027C74.1268 34.5498 73.5163 33.3043 73.5167 31.9149Z" fill="white"/>
<path d="M78.1521 36.5564C77.6385 36.5551 77.144 36.47 76.682 36.3163L75.4363 40.0213C76.2877 40.3072 77.2003 40.4629 78.1479 40.4643C82.2791 40.4683 85.7289 37.537 86.5282 33.6404L82.6987 32.8583C82.2623 34.971 80.3923 36.5581 78.1521 36.5564Z" fill="white"/>
<path d="M78.1641 23.3725C77.2171 23.3714 76.3054 23.5256 75.4552 23.8088L76.6898 27.5168C77.1528 27.3636 77.6475 27.2794 78.1603 27.2794C80.406 27.2815 82.2777 28.8784 82.7027 30.9964L86.5333 30.2193C85.7451 26.3175 82.2983 23.375 78.1641 23.3725Z" fill="white"/>
</svg>
