<svg width="100" height="60" viewBox="0 0 100 60" fill="none" xmlns="http://www.w3.org/2000/svg">
<rect width="100" height="60" fill="#150647"/>
<path d="M50.3329 41.6304C50.3989 40.9849 50.4935 40.3344 50.647 39.6976C50.6813 39.5557 50.9271 39.3589 51.0708 39.3628C52.3661 39.3972 53.1207 38.6367 53.8971 37.7506C54.6309 36.9135 54.3387 36.0922 54.1712 35.2351C53.8391 33.5366 53.4842 31.8425 53.1441 30.1457C52.88 28.8272 52.6226 27.5073 52.365 26.1873C52.3269 25.992 52.3049 25.7937 52.2636 25.5177C53.2053 25.6478 54.0887 25.6373 54.9162 26.0442C55.5468 26.3542 55.4726 26.9364 55.571 27.4409C55.8672 28.961 56.1256 30.4881 56.396 32.0129C56.4654 32.4045 56.5246 32.7978 56.6128 33.339C57.296 32.2031 57.9064 31.2079 58.4972 30.2015C59.2297 28.9536 59.9209 27.6819 60.6798 26.45C61.0229 25.8931 61.6857 25.7547 62.2869 25.6601C62.9892 25.5495 63.7101 25.5534 64.5727 25.4979C64.3546 25.9155 64.2098 26.2375 64.0266 26.5375C62.1314 29.642 60.2408 32.7492 58.3253 35.8419C57.5445 37.1026 56.7613 38.368 55.8786 39.5596C55.1373 40.5606 54.1683 41.3373 52.839 41.5921C52.0107 41.6304 51.1969 41.6304 50.3329 41.6304ZM13.8401 30.986C14.1938 30.1374 14.4359 29.2643 14.9233 28.5525C16.046 26.9133 17.6423 25.9397 19.67 25.6314C21.3694 25.3729 22.8562 25.821 24.1239 26.8703C25.5101 28.0179 25.6969 30.5743 23.9311 31.7152C22.8458 32.4163 21.6866 32.7966 20.4095 32.7968C19.1491 32.797 17.8885 32.7201 16.5974 32.6762C16.5838 33.1008 16.9381 33.4629 17.3818 33.623C18.143 33.8979 18.9401 34.1003 19.7388 34.2444C20.3515 34.3549 20.991 34.3689 21.6163 34.351C22.1458 34.3358 22.6721 34.2133 23.1977 34.1385C23.4157 35.2662 22.7624 36.3239 21.4034 36.6201C19.5822 37.0171 17.7721 37.0566 16.066 36.1286C14.8222 35.4521 14.1191 34.4161 13.8806 33.028C13.8407 32.3539 13.8401 31.6943 13.8401 30.986ZM20.3769 27.9319C20.2451 27.9647 20.1148 28.0056 19.9812 28.029C18.5779 28.2763 17.5862 29.0456 16.9388 30.2837C17.0689 30.338 17.1628 30.4109 17.257 30.4118C18.3308 30.4198 19.4118 30.4886 20.4757 30.3875C21.0573 30.3321 21.6346 30.0298 22.1682 29.7539C22.628 29.5161 22.6358 28.9607 22.3031 28.5822C21.81 28.0217 21.0984 28.0941 20.3769 27.9319ZM85.2438 30.9923C84.8895 31.9498 84.627 32.9067 84.1619 33.7577C83.2106 35.498 81.691 36.4894 79.6669 36.7628C78.5124 36.9188 77.3866 36.9082 76.2865 36.5375C74.8466 36.0523 73.5838 34.5696 73.5729 32.8915C73.5615 31.1532 73.8659 29.5425 74.9288 28.1112C75.8776 26.8336 77.1283 26.0639 78.7118 25.7324C79.9439 25.4743 81.1488 25.4627 82.3307 25.8591C83.9217 26.3927 85.0304 27.629 85.2034 29.2609C85.2437 29.8321 85.2438 30.3878 85.2438 30.9923ZM79.436 28.0627C78.9902 28.2927 78.4978 28.4647 78.1076 28.7643C77.0766 29.5553 76.6301 30.6809 76.4613 31.9118C76.3498 32.7247 76.7049 33.9161 77.5924 34.1918C78.5418 34.4869 79.4682 34.4979 80.3095 33.9425C81.8078 32.9531 82.3899 31.5081 82.2639 29.7865C82.2206 29.1971 81.952 28.6791 81.3833 28.3379C80.7936 27.9839 80.1612 28.034 79.436 28.0627ZM28.99 33.031C28.778 33.9589 28.566 34.8867 28.3545 35.8147C28.1966 36.5075 27.7652 36.8527 27.0486 36.8544C26.3637 36.8561 25.6786 36.8548 24.9487 36.8548C25.2213 35.5511 25.4843 34.2916 25.7477 33.0321C26.1222 31.2428 26.4995 29.454 26.8706 27.664C27.2009 26.0703 27.5217 24.4746 27.8532 22.881C27.92 22.5604 28.0985 22.3713 28.4666 22.3112C29.4112 22.1572 30.3483 21.9587 31.3045 21.7375C32.3825 21.6972 33.4441 21.6972 34.57 21.7362C35.1541 21.9625 35.6738 22.15 36.1945 22.3792C35.8064 23.4658 35.4174 24.5106 34.9917 25.5364C34.8618 24.6292 34.0222 23.8695 33.1274 23.975C32.5571 24.0423 31.9758 24.0231 31.4064 24.0954C31.0562 24.1399 30.7408 24.1948 30.6613 24.7164C30.4642 26.0096 30.1437 27.2844 29.8803 28.5681C29.6546 29.668 29.4395 30.7697 29.203 31.9069C29.121 32.3056 29.0554 32.6685 28.99 33.031ZM49.1476 35.6483C49.0804 35.9887 49.0666 36.2986 48.9789 36.587C48.9441 36.701 48.7467 36.8404 48.6204 36.8432C47.6693 36.8646 46.7172 36.8548 45.7467 36.8548C45.7353 36.6786 45.7257 36.5317 45.7157 36.3764C44.065 37.4169 41.163 37.0799 39.7512 35.8096C39.0332 35.1636 38.6875 34.2841 38.5355 33.3624C38.2423 31.5873 38.6739 29.9476 39.6932 28.4698C40.8101 26.8509 42.3467 25.8882 44.3578 25.6311C46.0075 25.42 47.5985 25.7316 49.1991 25.9978C49.7189 26.0841 50.2324 26.2264 50.7335 26.3886C50.8599 26.4294 51.0297 26.6651 51.0069 26.7775C50.6138 28.7021 50.1877 30.62 49.7816 32.5418C49.5658 33.5619 49.3738 34.5865 49.1476 35.6483ZM45.7222 34.1116C45.9623 33.8028 46.3312 33.5256 46.4195 33.1797C46.7351 31.9456 46.964 30.6895 47.2069 29.4383C47.2846 29.038 47.4898 28.4676 47.3045 28.2605C47.0686 27.9968 46.4952 28.0227 46.0672 27.9243C46.0505 27.9203 46.0319 27.9234 46.0153 27.919C44.9776 27.63 44.0493 27.9878 43.265 28.5591C41.8174 29.6135 41.5661 31.1796 41.7258 32.81C41.816 33.7279 42.4321 34.3535 43.3552 34.5375C44.144 34.6946 44.9395 34.585 45.7222 34.1116ZM63.4904 30.2922C64.1335 28.0599 65.4466 26.4921 67.7322 25.8281C68.9319 25.4796 70.1601 25.4616 71.3892 25.6556C71.8951 25.7356 72.3926 25.8664 72.895 25.9703C73.3472 26.064 73.4629 26.3264 73.3529 26.7508C73.2224 27.255 73.1281 27.7681 72.9997 28.3621C72.4698 28.2369 71.9176 28.1062 71.3651 27.9759C68.8344 27.379 66.5773 28.654 66.1608 31.2766C65.8705 33.1044 66.8277 34.2169 67.9174 34.4264C68.8789 34.6112 69.8493 34.4509 70.7665 34.0765C71.1256 33.93 71.4856 33.7859 71.8754 33.6284C71.7308 34.3934 71.6256 35.1381 71.4321 35.8601C71.3729 36.0804 71.1017 36.3395 70.874 36.407C69.8987 36.6956 68.9082 36.8985 67.8687 36.8642C65.7008 36.7926 63.8714 35.4643 63.4571 33.3693C63.2638 32.3917 63.448 31.3426 63.4904 30.2922ZM29.6724 32.6928C30.2441 32.3172 30.8676 31.9605 31.4742 31.5784C33.7624 30.137 35.4995 28.1919 36.8479 25.8959C37.1393 25.3999 37.4217 24.8986 37.746 24.3899C38.5517 26.4764 38.1815 28.4357 36.9451 30.2376C35.8091 31.8935 34.2196 32.8753 32.1359 32.8974C31.3301 32.906 30.5225 32.7703 29.6724 32.6928Z" fill="white"/>
<path d="M29.0238 33.0152C29.0555 32.6687 29.121 32.3061 29.2403 31.9066C30.1293 31.2466 31.0264 30.6878 31.7862 29.9864C33.1536 28.7242 34.1835 27.1988 35.0284 25.556C35.4174 24.5112 35.8064 23.4664 36.2325 22.3717C36.6329 22.1138 36.9961 21.9058 37.3594 21.6978C37.4388 21.6978 37.5182 21.6978 37.6375 21.6978C37.7829 21.8682 37.8602 22.0654 37.9989 22.204C38.4702 22.675 38.3805 23.1626 38.1023 23.6781C37.9924 23.882 37.9103 24.1002 37.7618 24.3558C37.4212 24.8983 37.1396 25.3997 36.8479 25.8959C35.4995 28.1919 33.7624 30.137 31.4742 31.5784C30.8676 31.9604 30.2439 32.3168 29.6283 32.6851C29.438 32.79 29.2475 32.8946 29.0238 33.0152Z" fill="#FE6720"/>
</svg>
