<svg width="100" height="60" viewBox="0 0 100 60" fill="none" xmlns="http://www.w3.org/2000/svg">
<rect width="100" height="60" fill="white"/>
<path d="M44.1316 36.9333C43.2316 39.0085 41.6696 40.1653 39.4284 40.4203C39.1737 40.4544 38.919 40.4544 38.6643 40.4714C38.6304 40.4714 38.5964 40.4714 38.5625 40.4714C37.8494 40.4714 37.1363 40.3863 36.4572 40.1823C35.5912 39.9441 34.8272 39.5358 34.114 38.9915C33.9273 38.8554 33.7405 38.7193 33.5368 38.6173C33.333 38.4982 33.2142 38.5493 33.0954 38.7363C33.0104 38.8724 32.9256 39.0085 32.8406 39.1276C32.7727 39.2126 32.6879 39.3317 32.603 39.3658C32.4841 39.4168 32.3144 39.4338 32.2294 39.3828C32.1446 39.3317 32.0767 39.1446 32.0767 39.0425C32.2294 37.2394 32.4162 35.4534 32.5859 33.6502C32.62 33.361 32.62 33.361 32.9086 33.378C33.401 33.395 33.401 33.395 33.418 33.8714C33.4859 35.4363 34.0461 36.7971 35.1327 37.9199C36.5081 39.3317 38.7832 39.7229 40.566 38.8724C41.7545 38.3111 42.4336 37.3585 42.5695 36.0317C42.7053 34.7559 42.4676 33.5481 41.6017 32.5445C41.1093 31.9662 40.4641 31.575 39.802 31.2347C39.2417 30.9455 38.6474 30.7244 38.0362 30.4863C36.6949 29.993 35.3874 29.4486 34.2669 28.5301C33.1463 27.6455 32.603 26.4718 32.3823 25.111C32.2464 24.1924 32.1785 23.2738 32.518 22.3893C33.2821 20.331 34.6405 18.9362 36.8985 18.5619C38.3757 18.3238 39.802 18.4939 41.2112 18.9702C41.4149 19.0382 41.6017 19.1233 41.7885 19.2254C42.0432 19.3444 42.145 19.3274 42.3488 19.1403C42.5185 18.9872 42.7053 18.8171 42.9091 18.698C43.1128 18.562 43.2486 18.63 43.2826 18.8681C43.3336 19.1573 43.3166 19.4635 43.3505 19.7527C43.4524 20.8413 43.5542 21.93 43.6731 23.0187C43.7071 23.2909 43.724 23.563 43.741 23.8352C43.758 24.0223 43.6901 24.1244 43.5033 24.1584C43.0789 24.2434 43.1298 24.2945 42.9939 23.8522C42.6035 22.5764 41.9413 21.4537 40.9565 20.5352C40.1924 19.8377 39.2756 19.5486 38.2569 19.5315C37.5438 19.5145 36.8476 19.5826 36.2025 19.9228C35.2177 20.4331 34.6914 21.3006 34.5215 22.3553C34.3348 23.512 34.4876 24.6007 35.3026 25.5022C35.761 26.0125 36.3552 26.3357 36.9496 26.6419C37.9003 27.1352 38.9531 27.4074 39.9547 27.7646C40.6678 28.0198 41.381 28.2919 42.0432 28.6661C43.741 29.6187 44.607 31.1326 44.7597 33.0549C44.8106 34.3817 44.6579 35.6914 44.1316 36.9333Z" fill="black"/>
<path d="M79.4131 27.7817V28.207C79.4131 28.5131 79.3792 28.5472 79.0736 28.5472C78.9037 28.5472 78.751 28.5472 78.5812 28.5472C78.0379 28.5472 77.6303 28.7683 77.4096 29.2786C76.9513 30.3843 76.4758 31.473 76.0344 32.5956C75.0326 35.0621 74.0478 37.5457 73.063 40.0122C72.9952 40.1483 72.8933 40.3184 72.7574 40.3864C72.4858 40.5225 72.2481 40.4544 72.0952 40.1823C71.9595 39.9101 71.8576 39.6039 71.7557 39.3148C70.8728 36.7292 69.9899 34.1265 69.107 31.524C69.0901 31.473 69.0222 31.4219 68.9881 31.3709C68.9372 31.4219 68.8863 31.473 68.8524 31.524C67.6978 34.2456 66.5433 36.9674 65.4056 39.689C65.3547 39.8081 65.3038 39.9442 65.2359 40.0633C65.117 40.3014 64.9302 40.4544 64.6587 40.4374C64.4039 40.4204 64.302 40.1994 64.2342 39.9952C64.0304 39.4679 63.8436 38.9235 63.6398 38.3962C62.5193 35.3514 61.3987 32.3065 60.2781 29.2616C60.0914 28.7853 59.7517 28.5472 59.1745 28.5302C58.9368 28.5302 58.6821 28.5302 58.4444 28.5302C58.2747 28.5302 58.1897 28.4621 58.2067 28.275C58.2236 28.0709 58.2236 27.8838 58.2067 27.6796C58.1897 27.4925 58.2745 27.4245 58.4613 27.4415C59.0725 27.4755 59.6838 27.5265 60.295 27.5095C61.3307 27.5095 62.3835 27.4585 63.4192 27.4415C63.7418 27.4415 63.7927 27.4755 63.7927 27.7817C63.7927 27.9518 63.7927 28.1219 63.7927 28.292C63.7927 28.4451 63.7248 28.4961 63.5889 28.5131C63.5041 28.5131 63.4192 28.5131 63.3173 28.5131C63.0117 28.5131 62.8418 28.7002 62.8759 29.0064C62.8759 29.1085 62.9098 29.2106 62.9438 29.3126C63.7078 31.8982 64.4549 34.4668 65.2189 37.0354C65.2359 37.1035 65.2868 37.1545 65.3208 37.2054C65.3547 37.1545 65.4226 37.1035 65.4397 37.0354C66.4074 34.705 67.3582 32.3916 68.326 30.0611C68.5637 29.4657 68.1053 28.7173 67.477 28.7003C67.2903 28.6832 67.1035 28.6832 66.8998 28.7003C66.747 28.7003 66.6621 28.6322 66.6621 28.4621C66.6621 28.292 66.6621 28.1389 66.6621 27.9688C66.6621 27.6456 66.7301 27.5776 67.0696 27.5946C67.545 27.6116 68.0204 27.6626 68.4959 27.6626C69.5655 27.6456 70.6351 27.6286 71.7048 27.5946C72.0443 27.5946 72.1123 27.6286 72.1123 27.9858C72.1123 28.1389 72.1123 28.292 72.1123 28.4621C72.1123 28.6152 72.0273 28.7003 71.8746 28.7003C71.7048 28.7003 71.5519 28.7173 71.3822 28.7003C70.9916 28.6662 70.7879 29.0405 70.8559 29.3296C70.9577 29.7209 71.0766 30.1122 71.1954 30.5033C71.8066 32.5106 72.4349 34.5008 73.0461 36.508C73.063 36.576 73.097 36.6611 73.131 36.7292C73.148 36.7292 73.1819 36.7292 73.1989 36.7292C73.2329 36.6781 73.2498 36.6101 73.2838 36.559C74.0478 34.4498 74.8288 32.3235 75.5929 30.2141C75.7118 29.891 75.7797 29.5338 75.7967 29.1765C75.8136 28.7513 75.5589 28.5302 75.1344 28.5302C74.5063 28.5302 74.5911 28.5472 74.5911 27.9858C74.5911 27.4245 74.5911 27.4245 75.1344 27.4585C76.4589 27.5606 77.7832 27.5436 79.1075 27.4585C79.3622 27.4585 79.4131 27.5095 79.4131 27.7817Z" fill="black"/>
<path d="M90.7539 38.0908C90.72 38.0908 90.6859 38.1248 90.652 38.1418C90.6011 38.1929 90.5501 38.2609 90.4992 38.312C90.1767 38.6182 89.7691 38.7883 89.3446 38.6692C88.9542 38.5671 88.8183 38.1929 88.7674 37.8357C88.6995 37.3934 88.6486 36.9341 88.6486 36.4749C88.6315 34.2975 88.6486 32.1202 88.6315 29.9428C88.6315 29.5686 88.5975 29.1604 88.4787 28.8031C88.1731 27.9016 87.443 27.4423 86.5431 27.2892C85.1849 27.0511 83.8775 27.2892 82.655 27.9016C81.891 28.2758 81.1948 28.7351 80.6515 29.4155C80.2611 29.9258 79.9555 30.4701 79.9723 31.1335C79.9894 31.8311 80.21 32.0351 80.9062 32.0011C80.9401 32.0011 80.9571 32.0011 80.9912 32.0011C81.6872 31.95 82.0608 31.6099 82.1966 30.9295C82.2814 30.4871 82.2305 30.0619 82.1626 29.6367C82.1287 29.3475 82.2135 29.1093 82.4173 28.9222C82.5362 28.8201 82.672 28.7351 82.8079 28.6671C83.436 28.3949 84.0813 28.2418 84.7604 28.3439C85.6942 28.4799 86.2545 28.8712 86.3904 29.8918C86.5092 30.7083 86.4752 31.5248 86.4922 32.3583C86.4922 32.5115 86.4583 32.5965 86.3224 32.6644C85.6433 33.0217 84.9641 33.413 84.2849 33.7532C83.538 34.1275 82.7738 34.4676 82.0267 34.8759C81.5175 35.148 81.076 35.5223 80.7533 36.0155C80.0743 37.0362 80.0573 38.1418 80.4477 39.2476C80.6685 39.8599 81.1439 40.2512 81.7722 40.3363C82.4682 40.4212 83.1814 40.4042 83.8605 40.1491C84.9132 39.7578 85.915 39.2646 86.679 38.363C86.696 38.397 86.713 38.397 86.713 38.414C86.7299 38.4651 86.7469 38.5331 86.7639 38.5842C86.9337 39.1285 87.1714 39.6387 87.6468 39.996C88.7165 40.7785 90.635 40.3703 91.2124 38.6522C91.2972 38.4821 90.9577 38.0739 90.7539 38.0908ZM86.0507 37.9208C85.5924 38.397 85.0661 38.7203 84.4378 38.8903C83.436 39.1455 82.6041 38.5501 82.5532 37.5295C82.5022 36.6279 82.7738 35.8454 83.487 35.2501C84.0133 34.8079 84.5906 34.4336 85.2188 34.1445C85.6433 33.9573 86.0507 33.7191 86.4922 33.481V33.7021C86.4922 34.7398 86.4752 35.7603 86.4922 36.798C86.5092 37.2574 86.3563 37.6145 86.0507 37.9208Z" fill="black"/>
<path d="M57.6312 36.5236C57.3935 36.4045 57.3085 36.4215 57.1897 36.6427C56.3069 38.1736 54.4391 38.9561 52.7073 38.4969C51.3999 38.1566 50.585 37.2721 50.0247 36.0984C49.4644 34.8906 49.3964 33.5978 49.5153 32.2881C49.5323 32.1179 49.5832 32.0669 49.77 32.0669C50.9584 32.0669 52.147 32.0669 53.3355 32.0669C54.49 32.0669 55.6616 32.0669 56.8161 32.0669C56.969 32.0669 57.1218 32.0499 57.2576 32.0329C57.5803 31.9818 57.6821 31.8457 57.6821 31.5226C57.6651 30.8931 57.4783 30.3148 57.2237 29.7535C56.6973 28.5798 55.8824 27.6952 54.592 27.372C53.3016 27.0488 52.0112 27.1339 50.8057 27.6442C49.3116 28.2566 48.3268 29.4303 47.7495 30.9101C47.0534 32.6963 47.0873 34.5164 47.5968 36.3365C47.9363 37.5613 48.5984 38.6499 49.6682 39.3813C51.0434 40.3339 52.6054 40.5721 54.2184 40.2489C55.9842 39.9087 57.1048 38.7179 57.8689 37.17C58.0386 36.7788 58.0047 36.7278 57.6312 36.5236ZM51.0774 28.6988C51.8414 28.1205 52.6903 27.9163 53.6072 28.2736C54.3034 28.5287 54.6768 29.1071 54.8806 29.7875C54.9655 30.0766 54.9824 30.3828 55.0165 30.6891C55.0504 30.8931 54.9485 31.0292 54.7617 31.0803C54.609 31.1143 54.4561 31.1653 54.3034 31.1653C52.8092 31.1653 51.3151 31.1653 49.8209 31.1653C49.77 31.1653 49.7361 31.1653 49.6512 31.1483C49.9398 30.1957 50.2624 29.3112 51.0774 28.6988Z" fill="black"/>
<path d="M95.0001 29.2089H94.7285C94.6945 28.6646 94.6776 28.1373 94.6436 27.5929C94.6267 27.5929 94.6267 27.5929 94.6097 27.5929C94.4399 28.0692 94.27 28.5455 94.1003 29.0218C94.0664 29.0898 93.9984 29.1919 93.9305 29.2089C93.7778 29.2429 93.7947 29.1069 93.7607 29.0218C93.6079 28.5795 93.4721 28.1373 93.3193 27.695C93.3023 27.661 93.2854 27.644 93.2684 27.5759C93.2343 28.1543 93.2004 28.6816 93.1834 29.2259H92.9287C92.9798 28.5455 93.0137 27.8651 93.0646 27.1847C93.4042 27.1166 93.4042 27.1166 93.506 27.4058C93.6589 27.8481 93.8117 28.3074 93.9644 28.7666C94.1343 28.3074 94.287 27.8481 94.4399 27.4058C94.5418 27.1166 94.5418 27.1166 94.8813 27.1507C94.9153 27.8481 94.9662 28.5285 95.0001 29.2089Z" fill="#6D6E71"/>
<path d="M92.7591 27.388H92.1479V29.2082H91.8761V27.388H91.2649V27.1499H92.7591C92.7421 27.235 92.7591 27.303 92.7591 27.388Z" fill="#6D6E71"/>
<path d="M28.5251 31.2159C27.1669 31.2159 25.8086 31.2159 24.4502 31.2159C24.2975 31.2159 24.2466 31.1818 24.2635 31.0287C24.2805 30.7056 24.2635 30.3823 24.2635 30.0761C24.2805 29.7019 24.2296 29.3107 24.2805 28.9365C24.3484 28.8854 24.4163 28.9194 24.5013 28.9194C25.8425 28.9194 27.2008 28.9194 28.5421 28.9194C28.6271 28.9194 28.695 28.9195 28.7798 28.9024C28.7289 28.4942 28.678 28.0859 28.6101 27.6777C28.3724 26.487 27.9649 25.3473 27.3876 24.2756C26.6405 22.9148 25.6897 21.724 24.5013 20.7374C23.0071 19.5127 21.3262 18.6792 19.4246 18.2709C17.9305 17.9477 16.4193 17.9137 14.9252 18.1689C12.1577 18.6622 9.81462 19.955 7.98091 22.0983C5.38317 25.1431 4.48329 28.6813 5.2813 32.6107C5.94346 35.8427 7.70926 38.3603 10.4598 40.1803C11.9539 41.184 13.6179 41.7793 15.4006 42.0175C15.4516 42.0175 15.5195 42.0175 15.5704 42.0345C15.5874 42.0345 15.5874 42.0515 15.6044 42.0515C15.6553 42.0515 15.7062 42.0515 15.7742 42.0515C15.8421 42.0515 15.927 42.0515 15.9949 42.0685C16.0119 42.0685 16.0119 42.0685 16.0288 42.0855C16.1477 42.0855 16.2665 42.1025 16.3854 42.1025C16.7589 42.1025 17.1494 42.1025 17.5229 42.1025C17.6249 42.1025 17.7437 42.1025 17.8456 42.0855C17.8626 42.0855 17.8626 42.0685 17.8795 42.0685C17.8795 42.0685 17.8795 42.0685 17.8965 42.0685C17.9644 42.0515 18.0323 42.0515 18.1003 42.0515C18.4398 42.0005 18.7963 41.9664 19.136 41.8984C20.4603 41.6433 21.6998 41.184 22.8712 40.5036C23.6523 40.0443 24.3824 39.5169 25.0446 38.8876C25.7916 38.1901 26.4368 37.4077 26.9972 36.5401C27.6253 35.5535 28.1007 34.4819 28.4233 33.3591C28.5931 32.7298 28.7289 32.1004 28.7968 31.4711C28.7798 31.2159 28.7968 31.2159 28.5251 31.2159ZM21.9205 33.019C21.6318 34.0055 21.1734 34.8901 20.4773 35.6556C19.4925 36.7443 18.27 37.2716 16.8268 37.3906C15.8421 37.4757 14.8573 37.4077 13.9235 37.0504C12.8368 36.6422 12.0558 35.8597 11.3767 34.9581C10.6805 34.0225 10.3579 32.951 10.1033 31.8452C9.79764 30.4844 9.76368 29.1406 10.1372 27.7968C10.5617 26.2658 11.4106 24.99 12.7689 24.1225C13.6179 23.5782 15.129 23.1869 16.2496 23.1869C17.9474 23.1699 19.1529 23.9864 20.0358 25.3813C20.3585 25.8746 20.613 26.4019 20.7489 26.9973C20.8508 27.4736 20.7659 27.6437 20.2905 27.7627C19.6963 27.9158 19.4246 27.9839 18.8304 28.0689C16.7759 28.4091 14.3989 28.7323 12.3444 29.0555C12.2426 29.0725 12.1747 29.1066 12.1916 29.2256C12.2935 31.1648 12.7519 32.951 14.2461 34.3288C15.9949 35.9618 18.4228 35.6045 19.8829 34.3798C20.4603 33.9036 20.8848 33.3251 21.1395 32.6107C21.2074 32.4235 21.3262 32.3725 21.5299 32.4406C21.5639 32.4576 21.6148 32.4746 21.6487 32.4746C21.9884 32.6107 22.0223 32.6447 21.9205 33.019Z" fill="#60BB46"/>
<path d="M21.6314 32.4745C21.5974 32.4575 21.5635 32.4405 21.5126 32.4405C21.3088 32.3725 21.19 32.4235 21.122 32.6105C20.8673 33.3251 20.4429 33.9034 19.8656 34.3796C18.4055 35.6045 15.9945 35.9616 14.2287 34.3286C12.7345 32.9508 12.2761 31.1476 12.1743 29.2255C12.1743 29.1064 12.2252 29.0724 12.3271 29.0554C14.3815 28.7322 16.7585 28.409 18.8129 28.0688C19.4071 27.9667 19.6789 27.9157 20.2731 27.7626C20.7485 27.6435 20.8334 27.4564 20.7316 26.9971C20.5957 26.4188 20.341 25.8914 20.0184 25.3811C19.1356 23.9863 17.9301 23.1698 16.2322 23.1868C15.1116 23.1868 13.6174 23.578 12.7515 24.1224C11.3932 24.9899 10.5443 26.2487 10.1198 27.7966C9.76327 29.1404 9.78025 30.4842 10.0859 31.845C10.3405 32.9678 10.6631 34.0395 11.3593 34.958C12.0384 35.8595 12.8194 36.642 13.9061 37.0503C14.8399 37.4075 15.8247 37.4585 16.8095 37.3905C18.2526 37.2884 19.4751 36.7441 20.4599 35.6554C21.1561 34.8899 21.6144 34.0055 21.903 33.0188C22.0219 32.6445 21.988 32.6105 21.6314 32.4745ZM12.5138 27.8987C12.6157 27.2183 12.7346 26.5548 13.0741 25.9425C13.5325 25.0919 14.2117 24.4966 15.1795 24.3095C16.368 24.0713 17.2848 24.5476 17.8451 25.7213C17.998 26.0445 18.1169 26.4017 18.1678 26.742C18.1678 26.9461 18.0658 27.0311 17.9301 27.1162C17.7093 27.2523 17.4546 27.2863 17.2169 27.3203C15.7058 27.5585 14.2117 27.7966 12.7006 28.0518C12.5308 28.0858 12.4969 28.0688 12.5138 27.8987Z" fill="white"/>
<path d="M18.1692 26.7601C18.1692 26.9642 18.0673 27.0493 17.9315 27.1343C17.7108 27.2704 17.4561 27.3044 17.2184 27.3384C15.7073 27.5766 14.2132 27.8147 12.7021 28.0699C12.5492 28.0869 12.4983 28.0699 12.5323 27.8998C12.6341 27.2194 12.753 26.556 13.0926 25.9436C13.551 25.0931 14.2301 24.4977 15.1979 24.3106C16.3864 24.0725 17.3033 24.5487 17.8635 25.7225C17.9994 26.0797 18.1012 26.4199 18.1692 26.7601Z" fill="#60BB46"/>
</svg>
