<svg width="74" height="26" viewBox="0 0 74 26" fill="none" xmlns="http://www.w3.org/2000/svg">
<path d="M31.9794 15.6485C31.2494 17.3318 29.9824 18.2701 28.1645 18.477C27.9579 18.5046 27.7513 18.5046 27.5447 18.5184C27.5172 18.5184 27.4896 18.5184 27.4621 18.5184C26.8837 18.5184 26.3053 18.4494 25.7544 18.2839C25.052 18.0907 24.4323 17.7595 23.8538 17.318C23.7023 17.2076 23.5508 17.0972 23.3856 17.0145C23.2203 16.9179 23.1239 16.9593 23.0275 17.111C22.9586 17.2214 22.8898 17.3318 22.8209 17.4284C22.7658 17.4974 22.697 17.594 22.6281 17.6216C22.5317 17.663 22.394 17.6768 22.3251 17.6354C22.2563 17.594 22.2012 17.4422 22.2012 17.3594C22.3251 15.8968 22.4766 14.4481 22.6143 12.9855C22.6419 12.7509 22.6419 12.7509 22.876 12.7647C23.2754 12.7785 23.2754 12.7785 23.2892 13.1649C23.3443 14.4343 23.7987 15.5381 24.6801 16.4488C25.7957 17.594 27.6411 17.9113 29.0872 17.2214C30.0513 16.7661 30.6021 15.9934 30.7123 14.9172C30.8225 13.8824 30.6297 12.9027 29.9273 12.0886C29.5279 11.6195 29.0046 11.3022 28.4675 11.0262C28.013 10.7916 27.531 10.6123 27.0352 10.4191C25.9472 10.019 24.8867 9.57744 23.9778 8.83236C23.0688 8.11487 22.6281 7.16282 22.4491 6.059C22.3389 5.31392 22.2838 4.56884 22.5592 3.85135C23.179 2.18182 24.2808 1.0504 26.1124 0.746843C27.3106 0.553674 28.4675 0.691651 29.6106 1.07799C29.7758 1.13318 29.9273 1.20217 30.0788 1.28496C30.2854 1.38154 30.368 1.36774 30.5333 1.21597C30.671 1.09179 30.8225 0.953813 30.9878 0.857228C31.153 0.746846 31.2632 0.802037 31.2908 0.995206C31.3321 1.22977 31.3183 1.47813 31.3458 1.71269C31.4285 2.59575 31.5111 3.47881 31.6075 4.36187C31.6351 4.58264 31.6488 4.8034 31.6626 5.02416C31.6764 5.17594 31.6213 5.25873 31.4698 5.28632C31.1255 5.35531 31.1668 5.39671 31.0566 5.03796C30.7399 4.00313 30.2028 3.09247 29.404 2.34739C28.7842 1.78168 28.0405 1.54712 27.2142 1.53332C26.6358 1.51952 26.0711 1.57471 25.5478 1.85067C24.749 2.2646 24.3221 2.96829 24.1843 3.82376C24.0329 4.76201 24.1568 5.64507 24.8179 6.37635C25.1897 6.79029 25.6717 7.05244 26.1538 7.3008C26.925 7.70094 27.7789 7.92171 28.5914 8.21146C29.1698 8.41843 29.7483 8.63919 30.2854 8.94274C31.6626 9.71542 32.365 10.9434 32.4889 12.5026C32.5302 13.5788 32.4063 14.6412 31.9794 15.6485Z" fill="black"/>
<path d="M60.5976 8.22526V8.57021C60.5976 8.81857 60.5701 8.84617 60.3222 8.84617C60.1844 8.84617 60.0605 8.84617 59.9228 8.84617C59.4821 8.84617 59.1515 9.02554 58.9725 9.43947C58.6007 10.3363 58.215 11.2194 57.857 12.13C57.0444 14.1307 56.2456 16.1452 55.4468 18.1459C55.3918 18.2563 55.3091 18.3943 55.1989 18.4494C54.9786 18.5598 54.7858 18.5046 54.6618 18.2839C54.5517 18.0631 54.469 17.8147 54.3864 17.5802C53.6702 15.4829 52.9541 13.3718 52.2379 11.2608C52.2242 11.2194 52.1691 11.178 52.1415 11.1366C52.1002 11.178 52.0589 11.2194 52.0314 11.2608C51.0949 13.4684 50.1584 15.6761 49.2356 17.8837C49.1943 17.9803 49.153 18.0907 49.0979 18.1873C49.0015 18.3805 48.85 18.5046 48.6297 18.4908C48.4231 18.477 48.3404 18.2977 48.2854 18.1321C48.1201 17.7044 47.9686 17.2628 47.8033 16.8351C46.8944 14.3653 45.9854 11.8955 45.0765 9.42567C44.925 9.03933 44.6495 8.84617 44.1813 8.83237C43.9885 8.83237 43.7819 8.83237 43.5891 8.83237C43.4514 8.83237 43.3825 8.77718 43.3963 8.6254C43.41 8.45983 43.41 8.30805 43.3963 8.14248C43.3825 7.9907 43.4513 7.93551 43.6028 7.94931C44.0986 7.9769 44.5944 8.0183 45.0902 8.0045C45.9303 8.0045 46.7842 7.96311 47.6243 7.94931C47.886 7.94931 47.9273 7.9769 47.9273 8.22526C47.9273 8.36324 47.9273 8.50122 47.9273 8.6392C47.9273 8.76338 47.8722 8.80477 47.762 8.81857C47.6932 8.81857 47.6243 8.81857 47.5417 8.81857C47.2938 8.81857 47.156 8.97034 47.1836 9.2187C47.1836 9.30149 47.2111 9.38428 47.2387 9.46707C47.8584 11.5643 48.4644 13.6478 49.0841 15.7313C49.0979 15.7865 49.1392 15.8279 49.1668 15.8692C49.1943 15.8279 49.2494 15.7865 49.2632 15.7313C50.0482 13.841 50.8194 11.9645 51.6044 10.0742C51.7972 9.59125 51.4254 8.98414 50.9158 8.97035C50.7643 8.95655 50.6128 8.95655 50.4476 8.97035C50.3236 8.97035 50.2548 8.91516 50.2548 8.77718C50.2548 8.6392 50.2548 8.51502 50.2548 8.37704C50.2548 8.11488 50.3099 8.05969 50.5853 8.07349C50.9709 8.08729 51.3565 8.12868 51.7422 8.12868C52.6098 8.11488 53.4774 8.10108 54.3451 8.07349C54.6205 8.07349 54.6756 8.10108 54.6756 8.39084C54.6756 8.51502 54.6756 8.6392 54.6756 8.77718C54.6756 8.90136 54.6067 8.97035 54.4828 8.97035C54.3451 8.97035 54.2211 8.98414 54.0834 8.97035C53.7666 8.94275 53.6014 9.2463 53.6565 9.48087C53.7391 9.79822 53.8355 10.1156 53.9319 10.4329C54.4277 12.0611 54.9373 13.6754 55.4331 15.3035C55.4468 15.3587 55.4744 15.4277 55.5019 15.4829C55.5157 15.4829 55.5432 15.4829 55.557 15.4829C55.5846 15.4415 55.5983 15.3863 55.6259 15.3449C56.2456 13.634 56.8791 11.9093 57.4989 10.1983C57.5953 9.93619 57.6504 9.64644 57.6642 9.35668C57.6779 9.01174 57.4713 8.83237 57.127 8.83237C56.6175 8.83237 56.6863 8.84616 56.6863 8.39084C56.6863 7.93551 56.6863 7.93551 57.127 7.96311C58.2013 8.04589 59.2755 8.0321 60.3497 7.96311C60.5563 7.96311 60.5976 8.0045 60.5976 8.22526Z" fill="black"/>
<path d="M69.7966 16.5873C69.7691 16.5873 69.7415 16.6149 69.714 16.6287C69.6727 16.6701 69.6313 16.7253 69.59 16.7667C69.3284 17.0151 68.9978 17.1531 68.6535 17.0565C68.3368 16.9737 68.2266 16.6701 68.1853 16.3804C68.1302 16.0216 68.0889 15.6491 68.0889 15.2766C68.0751 13.5104 68.0889 11.7443 68.0751 9.9782C68.0751 9.67464 68.0475 9.3435 67.9511 9.05374C67.7032 8.32246 67.111 7.94992 66.3811 7.82574C65.2794 7.63257 64.2189 7.82574 63.2273 8.32246C62.6076 8.62601 62.0429 8.99855 61.6022 9.55047C61.2855 9.9644 61.0376 10.4059 61.0513 10.944C61.0651 11.5098 61.2441 11.6753 61.8088 11.6477C61.8363 11.6477 61.8501 11.6477 61.8777 11.6477C62.4423 11.6063 62.7453 11.3304 62.8555 10.7785C62.9243 10.4197 62.883 10.0748 62.8279 9.72984C62.8004 9.49527 62.8692 9.3021 63.0345 9.15033C63.1309 9.06754 63.2411 8.99855 63.3513 8.94336C63.8608 8.72259 64.3842 8.59842 64.9351 8.6812C65.6925 8.79158 66.147 9.10894 66.2572 9.9368C66.3536 10.5991 66.326 11.2614 66.3398 11.9375C66.3398 12.0617 66.3123 12.1307 66.2021 12.1858C65.6512 12.4756 65.1003 12.793 64.5494 13.0689C63.9435 13.3725 63.3237 13.6484 62.7177 13.9796C62.3046 14.2003 61.9465 14.5039 61.6848 14.904C61.134 15.7319 61.1202 16.6287 61.4369 17.5256C61.616 18.0223 62.0016 18.3397 62.5112 18.4087C63.0758 18.4776 63.6543 18.4638 64.2051 18.2569C65.059 17.9395 65.8716 17.5394 66.4913 16.8081C66.5051 16.8357 66.5189 16.8357 66.5189 16.8495C66.5326 16.8909 66.5464 16.9461 66.5602 16.9875C66.6979 17.429 66.8907 17.8429 67.2763 18.1327C68.144 18.7674 69.7002 18.4363 70.1685 17.0427C70.2373 16.9047 69.9619 16.5736 69.7966 16.5873ZM65.9817 16.4494C65.6099 16.8357 65.183 17.0979 64.6734 17.2358C63.8608 17.4428 63.186 16.9599 63.1447 16.132C63.1034 15.4007 63.3237 14.766 63.9022 14.2831C64.3291 13.9244 64.7973 13.6208 65.3069 13.3863C65.6512 13.2345 65.9817 13.0413 66.3398 12.8481V13.0275C66.3398 13.8692 66.326 14.697 66.3398 15.5387C66.3536 15.9113 66.2296 16.201 65.9817 16.4494Z" fill="black"/>
<path d="M42.9293 15.3163C42.7365 15.2197 42.6676 15.2335 42.5712 15.4129C41.8551 16.6547 40.3401 17.2894 38.9354 16.9169C37.8749 16.6409 37.2139 15.9234 36.7594 14.9714C36.3049 13.9917 36.2498 12.9431 36.3462 11.8807C36.36 11.7427 36.4013 11.7013 36.5528 11.7013C37.5168 11.7013 38.4809 11.7013 39.4449 11.7013C40.3814 11.7013 41.3317 11.7013 42.2682 11.7013C42.3922 11.7013 42.5161 11.6875 42.6263 11.6737C42.888 11.6323 42.9706 11.5219 42.9706 11.2598C42.9568 10.7492 42.8053 10.2801 42.5988 9.82479C42.1718 8.87274 41.5108 8.15525 40.4641 7.89309C39.4174 7.63094 38.3707 7.69992 37.3929 8.11386C36.181 8.61058 35.3822 9.56263 34.9139 10.763C34.3493 12.2118 34.3768 13.6882 34.79 15.1645C35.0654 16.158 35.6025 17.041 36.4702 17.6343C37.5857 18.407 38.8527 18.6002 40.1611 18.338C41.5934 18.0621 42.5023 17.0962 43.1221 15.8406C43.2598 15.5233 43.2323 15.4819 42.9293 15.3163ZM37.6133 8.96932C38.233 8.5002 38.9216 8.33462 39.6653 8.62438C40.23 8.83134 40.5329 9.30047 40.6982 9.85238C40.7671 10.0869 40.7808 10.3353 40.8084 10.5837C40.8359 10.7492 40.7533 10.8596 40.6018 10.901C40.4779 10.9286 40.3539 10.97 40.23 10.97C39.018 10.97 37.8061 10.97 36.5941 10.97C36.5528 10.97 36.5253 10.97 36.4564 10.9562C36.6905 10.1835 36.9522 9.46604 37.6133 8.96932Z" fill="black"/>
<path d="M73.2407 9.383H73.0204C72.9928 8.94147 72.9791 8.51374 72.9515 8.07221C72.9378 8.07221 72.9378 8.07221 72.924 8.07221C72.7863 8.45855 72.6485 8.84489 72.5108 9.23123C72.4833 9.28642 72.4282 9.36921 72.3731 9.383C72.2492 9.4106 72.2629 9.30022 72.2354 9.23123C72.1114 8.87248 72.0013 8.51374 71.8773 8.155C71.8635 8.1274 71.8498 8.1136 71.836 8.05841C71.8084 8.52754 71.7809 8.95527 71.7671 9.3968H71.5605C71.6019 8.84489 71.6294 8.29298 71.6707 7.74106C71.9462 7.68587 71.9462 7.68587 72.0288 7.92043C72.1528 8.27918 72.2767 8.65172 72.4006 9.02426C72.5384 8.65172 72.6623 8.27918 72.7863 7.92043C72.8689 7.68587 72.8689 7.68587 73.1443 7.71347C73.1719 8.27918 73.2132 8.83109 73.2407 9.383Z" fill="#6D6E71"/>
<path d="M71.4229 7.90606H70.9271V9.38243H70.7067V7.90606H70.2109V7.71289H71.4229C71.4091 7.78188 71.4229 7.83707 71.4229 7.90606Z" fill="#6D6E71"/>
<path d="M61.6989 24.3975C61.6989 24.5079 61.6576 24.5493 61.5612 24.5355C61.5198 24.5355 61.4785 24.5355 61.451 24.5355C61.327 24.5493 61.2857 24.5079 61.2857 24.3837C61.2857 24.0112 61.2995 23.6387 61.2857 23.2799C61.2857 23.1005 61.2719 22.9074 61.2444 22.728C61.2169 22.5348 61.0929 22.4107 60.9001 22.3693C60.6935 22.3279 60.4732 22.3555 60.363 22.5486C60.2804 22.6866 60.2115 22.866 60.1977 23.0316C60.1702 23.4869 60.1839 23.9284 60.1977 24.3837C60.1977 24.5631 60.1013 24.5493 59.9911 24.5355C59.881 24.5355 59.7708 24.5631 59.7846 24.3837C59.7983 23.9698 59.7983 23.5697 59.7846 23.1557C59.7846 22.9902 59.7708 22.8108 59.7157 22.6452C59.6331 22.3969 59.4127 22.3003 59.096 22.3417C58.8481 22.3831 58.6828 22.5762 58.6828 22.8246C58.6828 23.3351 58.669 23.8318 58.6828 24.3423C58.6828 24.5493 58.5726 24.5079 58.4349 24.5217C58.2834 24.5355 58.2559 24.4803 58.2559 24.3286C58.2696 23.6387 58.2559 22.935 58.2559 22.2451C58.2559 22.0105 58.2559 22.0105 58.49 22.0243C58.5313 22.0243 58.5588 22.0243 58.6139 22.0381C58.6415 22.1347 58.6552 22.2175 58.6828 22.3417C58.8894 22.0933 59.1373 21.9691 59.4403 21.9829C59.757 21.9829 59.9774 22.1209 60.1151 22.4383C60.1702 22.3693 60.1977 22.3279 60.239 22.2865C60.5282 21.9277 61.0791 21.8725 61.4097 22.1623C61.63 22.3555 61.6851 22.6314 61.6989 22.9074C61.7127 23.4179 61.6989 23.9146 61.6989 24.3975Z" fill="#6D6E71"/>
<path d="M24.942 22.0527C24.8318 22.4391 24.7354 22.8116 24.6253 23.1704C24.5151 23.5705 24.3911 23.9844 24.281 24.3846C24.2534 24.4812 24.2259 24.5501 24.1019 24.5501C23.9917 24.5363 23.8816 24.5639 23.8403 24.3984C23.675 23.8327 23.5097 23.2669 23.3445 22.715C23.3307 22.6874 23.3169 22.6598 23.2894 22.6046C23.2618 22.6598 23.2481 22.7012 23.2343 22.7288C23.069 23.2945 22.9038 23.8465 22.7385 24.4122C22.6972 24.5501 22.6145 24.5501 22.5044 24.5639C22.3942 24.5639 22.3253 24.5363 22.2978 24.4122C22.0912 23.6809 21.8708 22.9496 21.6643 22.2045C21.6505 22.1631 21.6505 22.1217 21.6367 22.0803C21.6643 22.0803 21.678 22.0665 21.6918 22.0665C22.0361 22.0389 22.0361 22.0389 22.1187 22.3839C22.2427 22.8944 22.3666 23.3911 22.4906 23.9016C22.4906 23.9016 22.5044 23.9154 22.5181 23.9292C22.5319 23.9016 22.5457 23.8878 22.5595 23.8602C22.7247 23.3083 22.89 22.7564 23.0552 22.2045C23.0966 22.0665 23.1792 22.0665 23.2894 22.0665C23.4133 22.0665 23.4684 22.0941 23.496 22.2183C23.6612 22.784 23.8265 23.3635 23.9918 23.9292C23.9918 23.943 24.0055 23.9706 24.0331 24.0258C24.0606 23.9154 24.0744 23.8465 24.1019 23.7637C24.2259 23.2669 24.3498 22.7564 24.46 22.2597C24.4875 22.0941 24.5564 22.0527 24.7217 22.0665C24.7905 22.0527 24.8456 22.0527 24.942 22.0527Z" fill="#6D6E71"/>
<path d="M32.8602 22.0531C32.7638 22.3843 32.6812 22.7016 32.5847 23.0052C32.447 23.4743 32.3093 23.9296 32.1854 24.3987C32.1578 24.5091 32.1165 24.5643 31.9926 24.5505C31.8824 24.5367 31.786 24.5643 31.7447 24.4125C31.5794 23.8468 31.4141 23.2811 31.2351 22.7154C31.2213 22.6878 31.2075 22.6464 31.18 22.5912C31.0836 22.8948 31.0147 23.1845 30.9183 23.4605C30.8219 23.7778 30.7117 24.0814 30.6291 24.3987C30.5878 24.5505 30.5052 24.5367 30.395 24.5367C30.2848 24.5367 30.2297 24.5229 30.1884 24.3987C29.9818 23.6537 29.7615 22.9224 29.5549 22.1773C29.5411 22.1359 29.5411 22.1083 29.5273 22.0393C29.6513 22.0393 29.7615 22.0255 29.8716 22.0393C29.913 22.0393 29.9543 22.1221 29.9681 22.1635C30.1058 22.7154 30.2435 23.2673 30.3812 23.8192C30.3812 23.833 30.395 23.8606 30.395 23.8744C30.4088 23.8744 30.4225 23.8744 30.4363 23.8744C30.4914 23.6813 30.5465 23.5019 30.6016 23.3087C30.7118 22.9362 30.8357 22.5498 30.9459 22.1773C30.9872 22.0393 31.0423 22.0117 31.18 22.0117C31.3177 22.0117 31.3728 22.0669 31.4004 22.1911C31.5656 22.7706 31.7447 23.3501 31.9375 23.9296C31.9512 23.902 31.9788 23.8606 31.9926 23.833C32.1165 23.2949 32.2542 22.7706 32.3644 22.2325C32.4057 22.0669 32.4746 21.9841 32.6398 22.0255C32.7225 22.0531 32.7776 22.0531 32.8602 22.0531Z" fill="#6D6E71"/>
<path d="M46.7976 22.0522C46.7287 22.3005 46.6599 22.5213 46.6048 22.7421C46.4533 23.294 46.288 23.8459 46.1365 24.384C46.109 24.4944 46.0539 24.5496 45.9299 24.5358C45.8198 24.5358 45.7234 24.5358 45.682 24.384C45.5306 23.8183 45.3515 23.2664 45.1862 22.7145C45.1725 22.6731 45.1587 22.6455 45.1312 22.5765C45.1036 22.6455 45.0898 22.6731 45.0761 22.7145C44.9108 23.2802 44.7455 23.8459 44.5803 24.4116C44.5527 24.522 44.4839 24.5496 44.3875 24.5358C44.3048 24.522 44.2084 24.5772 44.1671 24.4392C43.9468 23.6527 43.7126 22.8663 43.4785 22.0522C43.6162 22.0522 43.7402 22.0384 43.8504 22.0522C43.8917 22.0522 43.9192 22.135 43.933 22.1902C44.0845 22.7559 44.2222 23.3354 44.3737 23.9149C44.3875 23.8873 44.415 23.8597 44.4288 23.8321C44.594 23.2802 44.7593 22.7283 44.9246 22.1764C44.9659 22.0522 45.0348 22.0246 45.1449 22.0384C45.2551 22.0384 45.324 22.0384 45.3653 22.1764C45.5306 22.7421 45.6958 23.294 45.8611 23.8459C45.8749 23.8735 45.8886 23.9149 45.9162 23.9977C45.9713 23.7631 46.0126 23.5837 46.0539 23.4044C46.1503 23.018 46.2467 22.6317 46.3293 22.2316C46.3569 22.0798 46.4257 22.0246 46.5772 22.0522C46.6461 22.0522 46.7012 22.0522 46.7976 22.0522Z" fill="#6D6E71"/>
<path d="M28.9089 22.0523C28.8125 22.3834 28.7299 22.7008 28.6335 23.0043C28.4958 23.4735 28.358 23.9288 28.2341 24.3979C28.2065 24.5083 28.1652 24.5497 28.0413 24.5497C27.9311 24.5359 27.8347 24.5635 27.7934 24.4117C27.6281 23.846 27.4629 23.2803 27.2976 22.7284C27.2838 22.7008 27.27 22.6594 27.2287 22.6042C27.1599 22.8388 27.1048 23.0595 27.0497 23.2665C26.9395 23.6528 26.8018 24.0254 26.7054 24.4117C26.6641 24.5497 26.5952 24.5635 26.4713 24.5635C26.3611 24.5635 26.2922 24.5497 26.2509 24.4255C26.0443 23.6804 25.824 22.9491 25.6174 22.2041C25.6036 22.1627 25.6036 22.1351 25.5898 22.0661C25.7138 22.0661 25.824 22.0523 25.9204 22.0661C25.9617 22.0661 26.0168 22.1351 26.0306 22.1765C26.1683 22.7284 26.306 23.2803 26.4437 23.846C26.4437 23.8736 26.4575 23.8874 26.4713 23.9564C26.4988 23.9012 26.5126 23.8598 26.5263 23.8322C26.6916 23.2803 26.8569 22.7284 27.0221 22.1765C27.0497 22.0523 27.1323 22.0661 27.2287 22.0661C27.3251 22.0661 27.4078 22.0385 27.4491 22.1765C27.6143 22.756 27.7934 23.3355 27.9724 23.915C27.9724 23.9288 27.9862 23.9564 28 24.0116C28.0275 23.9288 28.0413 23.8874 28.0551 23.846C28.1928 23.2941 28.3167 22.7284 28.4544 22.1765C28.4682 22.1351 28.5371 22.0799 28.5922 22.0661C28.6886 22.0385 28.785 22.0523 28.9089 22.0523Z" fill="#6D6E71"/>
<path d="M69.331 22.3826C69.0556 21.9135 68.3946 21.8583 67.9952 22.2308C67.9676 22.2584 67.9263 22.2998 67.8712 22.3412C67.8437 22.2722 67.8299 22.2308 67.8161 22.1894C67.8023 21.9963 67.6646 22.0515 67.5545 22.0515C67.4167 22.0515 67.4718 22.1618 67.4718 22.2308C67.4718 23.2243 67.4718 24.2315 67.4718 25.225C67.4718 25.5285 67.4718 25.5147 67.7748 25.5147C67.885 25.5147 67.9263 25.4871 67.9125 25.3767C67.9125 25.1974 67.9125 25.018 67.9125 24.8248V24.3005C67.9676 24.3419 67.9952 24.3557 68.0227 24.3833C68.491 24.7696 69.1658 24.6455 69.4275 24.1073C69.6891 23.5278 69.6616 22.9345 69.331 22.3826ZM69.0694 23.859C68.9317 24.2039 68.6011 24.3557 68.2431 24.2315C68.0227 24.1625 67.9125 23.997 67.9125 23.7624V23.2933C67.9125 23.1415 67.8988 22.9759 67.9125 22.8103C67.9263 22.7 67.9676 22.5758 68.0365 22.5068C68.3257 22.217 68.7939 22.286 68.9867 22.6448C69.1933 23.0449 69.2209 23.445 69.0694 23.859Z" fill="#6D6E71"/>
<path d="M49.5792 22.7424C49.5654 22.5078 49.4828 22.3147 49.29 22.1767C48.9181 21.9007 48.2295 21.9559 47.899 22.2871C47.7888 22.3975 47.7062 22.5216 47.7337 22.7148C47.8577 22.7148 47.9816 22.7286 48.0918 22.701C48.1331 22.6872 48.1469 22.5768 48.202 22.5354C48.2709 22.4664 48.3397 22.3975 48.4224 22.3699C48.7529 22.2457 49.1936 22.3837 49.1798 22.908C49.1798 23.0459 49.1385 23.1149 48.987 23.1011C48.808 23.1011 48.6152 23.0735 48.4499 23.1149C48.2433 23.1563 48.023 23.2253 47.8439 23.3357C47.6098 23.4875 47.5685 23.7496 47.6098 24.0118C47.6511 24.2878 47.8026 24.4809 48.078 24.5499C48.4361 24.6465 48.7391 24.5775 49.0145 24.3291C49.0559 24.2878 49.111 24.2464 49.166 24.205C49.2487 24.5775 49.2762 24.5913 49.6068 24.5361V23.5565C49.5792 23.2805 49.5792 23.0184 49.5792 22.7424ZM48.3948 24.2326C48.2433 24.2188 48.1194 24.1774 48.0505 24.0394C47.9816 23.9014 47.9954 23.7496 48.0918 23.6255C48.202 23.4737 48.3535 23.3909 48.5463 23.3909C48.6703 23.3909 48.7942 23.3909 48.9319 23.3909C49.166 23.3909 49.166 23.3909 49.166 23.6393C49.2211 23.9842 48.7391 24.274 48.3948 24.2326Z" fill="#6D6E71"/>
<path d="M35.6022 23.3776C36.0291 23.3914 36.4698 23.3776 36.9105 23.3776C37.0207 23.3776 37.062 23.35 37.0482 23.2396C37.0345 23.1016 37.0345 22.9774 37.0207 22.8395C36.9656 22.4255 36.7728 22.122 36.3459 22.0254C35.9189 21.915 35.5195 22.053 35.2441 22.4117C35.0237 22.7015 34.9824 23.0326 34.9824 23.3914C34.9962 24.4538 35.9052 24.8263 36.7315 24.4538C36.9931 24.3434 37.0069 24.2744 36.8141 24.0399C36.8141 24.0399 36.8003 24.0399 36.7866 24.0261C36.7315 24.0537 36.6764 24.0951 36.6213 24.1226C36.0429 24.44 35.4782 24.164 35.4094 23.5569C35.4094 23.419 35.4507 23.3776 35.6022 23.3776ZM35.4644 22.8946C35.5471 22.6325 35.671 22.4117 35.9602 22.3427C36.3183 22.2599 36.6902 22.6187 36.6213 22.9774C36.6075 23.005 36.5524 23.0602 36.5111 23.0602C36.3459 23.074 36.1944 23.0602 36.0291 23.0602C35.8776 23.0602 35.7399 23.0602 35.5884 23.0602C35.4507 23.0602 35.4231 23.0188 35.4644 22.8946Z" fill="#6D6E71"/>
<path d="M41.3299 23.3769C41.6604 23.3769 41.991 23.3769 42.3215 23.3769C42.8035 23.3769 42.8173 23.3769 42.7622 22.894C42.7346 22.549 42.5832 22.2317 42.2389 22.0937C41.8808 21.9419 41.5227 21.9557 41.1922 22.1903C40.8892 22.4248 40.7515 22.7422 40.7101 23.1147C40.6551 23.7908 40.9167 24.5359 41.7568 24.5911C42.1011 24.6187 42.4179 24.5497 42.7071 24.2876C42.6382 24.191 42.5969 24.1082 42.5418 24.0392C42.4317 24.0944 42.349 24.1496 42.2664 24.191C41.7017 24.4255 41.2748 24.1772 41.1646 23.5839C41.1371 23.4321 41.1784 23.3769 41.3299 23.3769ZM41.9496 22.3559C42.1838 22.4248 42.3903 22.7284 42.349 22.963C42.349 22.9906 42.3077 23.0458 42.2802 23.0458C41.9221 23.0458 41.564 23.0458 41.1922 23.0458C41.1784 22.5766 41.5502 22.2455 41.9496 22.3559Z" fill="#6D6E71"/>
<path d="M57.2378 22.8383C57.1138 22.3278 56.742 22.0242 56.2324 21.9966C55.7091 21.9828 55.3235 22.245 55.1582 22.7555C55.0618 23.059 55.0618 23.3902 55.1307 23.6937C55.2408 24.2319 55.654 24.5768 56.1911 24.5768C56.6869 24.5906 57.1001 24.2733 57.2378 23.7627C57.2791 23.611 57.2791 23.4454 57.3067 23.2936C57.2791 23.1556 57.2653 22.9901 57.2378 22.8383ZM56.7282 23.9283C56.6318 24.1629 56.439 24.2732 56.1911 24.2595C55.9432 24.2595 55.7504 24.1491 55.6402 23.9283C55.4474 23.5144 55.4474 23.0866 55.6402 22.6727C55.7504 22.4519 55.9294 22.3278 56.1773 22.3278C56.4252 22.3278 56.6181 22.4381 56.7145 22.6727C56.7971 22.8659 56.8384 23.0866 56.8935 23.3074C56.8384 23.5144 56.8109 23.7351 56.7282 23.9283Z" fill="#6D6E71"/>
<path d="M66.3955 24.4115C66.3955 24.5081 66.3542 24.5495 66.2578 24.5357C66.2165 24.5357 66.1751 24.5357 66.12 24.5357C66.0099 24.5495 65.9686 24.4943 65.9686 24.3839C65.9686 23.901 65.9686 23.4181 65.9686 22.9489C65.9686 22.6178 65.8584 22.4384 65.638 22.3694C65.3626 22.2866 65.0458 22.3832 64.8806 22.6316C64.8392 22.6868 64.8255 22.7696 64.8255 22.8524C64.8255 23.3629 64.8255 23.8596 64.8255 24.3701C64.8255 24.5081 64.7842 24.5633 64.6464 24.5495C64.6189 24.5495 64.5776 24.5495 64.55 24.5495C64.4261 24.5633 64.3848 24.5219 64.3848 24.3839C64.3848 23.6664 64.3848 22.9351 64.3848 22.2177C64.3848 22.1073 64.3985 22.0383 64.5363 22.0521C64.6602 22.0659 64.8117 22.0107 64.7979 22.2177C64.7979 22.2728 64.8117 22.3142 64.8117 22.3694C64.8255 22.3832 64.853 22.397 64.8668 22.4108C64.8806 22.3832 64.8943 22.3418 64.9081 22.3142C65.1698 22.0245 65.5554 21.9279 65.9135 22.0659C66.2165 22.1901 66.3542 22.4246 66.3679 22.7282C66.4093 23.2801 66.3955 23.8458 66.3955 24.4115Z" fill="#6D6E71"/>
<path d="M39.541 24.4255C39.0865 24.7015 38.3841 24.6325 38.0674 24.2599C37.9572 24.1357 37.8746 23.9978 37.9296 23.7908C38.026 23.7908 38.1225 23.777 38.2051 23.7908C38.2464 23.7908 38.3153 23.846 38.3153 23.8874C38.4392 24.3151 39.0865 24.3427 39.3206 24.122C39.4997 23.9564 39.4721 23.6942 39.2518 23.5838C39.0865 23.5011 38.9075 23.4735 38.7422 23.4045C38.5769 23.3493 38.4117 23.2941 38.2602 23.2113C37.9434 23.0319 37.8883 22.6042 38.1225 22.3282C38.4668 21.8867 39.3069 21.8729 39.6649 22.3006C39.6925 22.342 39.7338 22.3834 39.7476 22.4248C39.7751 22.5214 39.7889 22.6318 39.8027 22.7284C39.6925 22.7422 39.5823 22.756 39.4584 22.756C39.4308 22.756 39.4033 22.7008 39.3895 22.6594C39.2518 22.3558 38.8524 22.2179 38.5907 22.411C38.4943 22.48 38.4254 22.618 38.4117 22.7284C38.3979 22.8526 38.4943 22.9629 38.6182 23.0181C38.7835 23.0733 38.9488 23.1147 39.1003 23.1561C39.238 23.1975 39.3757 23.2527 39.4997 23.3079C39.9817 23.5286 39.9128 24.1909 39.541 24.4255Z" fill="#6D6E71"/>
<path d="M54.2627 23.7913C54.2627 23.9706 54.1938 24.1362 54.0699 24.2604C53.7393 24.6053 53.3262 24.6743 52.8855 24.5226C52.4585 24.3846 52.2795 24.0396 52.2106 23.6257C52.1556 23.2808 52.1831 22.9496 52.3071 22.6185C52.6238 21.8182 53.698 21.8596 54.0561 22.3011C54.1938 22.4667 54.2627 22.6461 54.2627 22.8668C54.1938 22.8668 54.1525 22.8668 54.1112 22.8806C53.9735 22.8944 53.8908 22.8668 53.8495 22.7012C53.7807 22.4529 53.5879 22.3425 53.34 22.3287C53.1058 22.3149 52.8855 22.3977 52.7753 22.6185C52.555 23.06 52.555 23.5291 52.7753 23.9706C52.8717 24.1776 53.0645 24.2604 53.2986 24.2604C53.5328 24.2604 53.7118 24.1638 53.8358 23.9706C53.9597 23.7499 53.9735 23.7361 54.2627 23.7913Z" fill="#6D6E71"/>
<path d="M33.9192 24.3283C33.9192 24.5353 33.9192 24.5353 33.6989 24.5353C33.4785 24.5353 33.4785 24.5353 33.4785 24.3145C33.4785 24.0938 33.4785 24.0938 33.6989 24.0938C33.9192 24.0938 33.9192 24.0937 33.9192 24.3283Z" fill="#6D6E71"/>
<path d="M51.1223 24.3284C51.1223 24.5354 51.1223 24.5354 50.902 24.5354C50.6816 24.5354 50.6816 24.5354 50.6816 24.287C50.6816 24.0801 50.6816 24.0801 50.9158 24.0801C51.1223 24.0939 51.1223 24.0939 51.1223 24.3284Z" fill="#6D6E71"/>
<path d="M63.2297 24.3272C63.2297 24.548 63.2297 24.548 63.0093 24.548C62.8027 24.548 62.8027 24.548 62.8027 24.3272C62.8027 24.1064 62.8027 24.1064 63.0093 24.1064C63.2297 24.0926 63.2297 24.0926 63.2297 24.3272Z" fill="#6D6E71"/>
<path d="M19.3204 11.0109C18.2187 11.0109 17.1169 11.0109 16.0151 11.0109C15.8912 11.0109 15.8499 10.9833 15.8636 10.8591C15.8774 10.597 15.8636 10.3348 15.8636 10.0864C15.8774 9.78289 15.8361 9.46554 15.8774 9.16199C15.9325 9.1206 15.9876 9.14819 16.0565 9.14819C17.1444 9.14819 18.2462 9.14819 19.3342 9.14819C19.4031 9.14819 19.4582 9.1482 19.527 9.1344C19.4857 8.80325 19.4444 8.4721 19.3893 8.14095C19.1965 7.17511 18.866 6.25065 18.3977 5.38139C17.7917 4.27757 17.0205 3.31172 16.0565 2.51145C14.8445 1.51801 13.4811 0.841914 11.9386 0.510767C10.7267 0.248608 9.50094 0.221012 8.289 0.427979C6.04415 0.828115 4.1436 1.87675 2.65621 3.61527C0.549082 6.08508 -0.180838 8.95502 0.46645 12.1423C1.00356 14.7639 2.43586 16.806 4.66694 18.2823C5.87888 19.0964 7.22855 19.5793 8.67462 19.7725C8.71593 19.7725 8.77102 19.7725 8.81234 19.7863C8.82611 19.7863 8.82611 19.8001 8.83988 19.8001C8.8812 19.8001 8.92251 19.8001 8.9776 19.8001C9.03269 19.8001 9.10155 19.8001 9.15664 19.8139C9.17041 19.8139 9.17041 19.8139 9.18418 19.8277C9.28059 19.8277 9.37699 19.8415 9.4734 19.8415C9.77638 19.8415 10.0931 19.8415 10.3961 19.8415C10.4788 19.8415 10.5752 19.8415 10.6578 19.8277C10.6716 19.8277 10.6716 19.8139 10.6853 19.8139C10.6853 19.8139 10.6853 19.8139 10.6991 19.8139C10.7542 19.8001 10.8093 19.8001 10.8644 19.8001C11.1398 19.7587 11.429 19.7311 11.7045 19.6759C12.7787 19.469 13.7841 19.0964 14.7343 18.5445C15.3679 18.172 15.9601 17.7442 16.4972 17.2337C17.1031 16.668 17.6265 16.0333 18.081 15.3296C18.5905 14.5293 18.9761 13.6601 19.2378 12.7494C19.3755 12.2389 19.4857 11.7284 19.5408 11.2179C19.527 11.0109 19.5408 11.0109 19.3204 11.0109ZM13.9631 12.4735C13.729 13.2737 13.3571 13.9912 12.7925 14.6121C11.9937 15.4952 11.0021 15.9229 9.83147 16.0195C9.03269 16.0885 8.23391 16.0333 7.47644 15.7435C6.59503 15.4124 5.96151 14.7777 5.41063 14.0464C4.84597 13.2875 4.5843 12.4183 4.37772 11.5214C4.12983 10.4176 4.10228 9.32757 4.40527 8.23754C4.74957 6.99574 5.43818 5.9609 6.53994 5.25721C7.22855 4.81568 8.45426 4.49833 9.36322 4.49833C10.7404 4.48453 11.7182 5.14683 12.4344 6.27825C12.6961 6.67839 12.9026 7.10612 13.0128 7.58904C13.0955 7.97538 13.0266 8.11336 12.641 8.20994C12.159 8.33412 11.9386 8.38931 11.4566 8.4583C9.79015 8.73426 7.86206 8.99642 6.19564 9.25858C6.11301 9.27237 6.05792 9.29997 6.07169 9.39655C6.15432 10.9695 6.52617 12.4183 7.73811 13.5359C9.15664 14.8605 11.126 14.5707 12.3104 13.5773C12.7787 13.191 13.123 12.7218 13.3296 12.1423C13.3847 11.9905 13.4811 11.9491 13.6463 12.0043C13.6739 12.0181 13.7152 12.0319 13.7427 12.0319C14.0182 12.1423 14.0457 12.1699 13.9631 12.4735Z" fill="#60BB46"/>
<path d="M13.7285 12.0319C13.7009 12.0181 13.6734 12.0043 13.6321 12.0043C13.4668 11.9491 13.3704 11.9905 13.3153 12.1422C13.1087 12.7218 12.7644 13.1909 12.2962 13.5772C11.1118 14.5707 9.15614 14.8604 7.72385 13.5358C6.5119 12.4182 6.14006 10.9556 6.05743 9.39648C6.05743 9.2999 6.09874 9.2723 6.18138 9.2585C7.8478 8.99634 9.77589 8.73418 11.4423 8.45823C11.9243 8.37544 12.1447 8.33405 12.6267 8.20987C13.0123 8.11328 13.0812 7.96151 12.9986 7.58897C12.8884 7.11984 12.6818 6.69211 12.4201 6.27817C11.704 5.14675 10.7262 4.48446 9.34896 4.49826C8.44 4.49826 7.22805 4.81561 6.52568 5.25714C5.42391 5.96083 4.73531 6.98186 4.391 8.23746C4.10179 9.32749 4.11556 10.4175 4.36346 11.5213C4.57004 12.432 4.83171 13.3013 5.39637 14.0463C5.94725 14.7776 6.58076 15.4123 7.46218 15.7435C8.21964 16.0332 9.01843 16.0746 9.81721 16.0194C10.9878 15.9366 11.9794 15.4951 12.7782 14.612C13.3429 13.9911 13.7147 13.2737 13.9488 12.4734C14.0452 12.1698 14.0177 12.1422 13.7285 12.0319ZM6.33287 8.32025C6.4155 7.76834 6.51191 7.23022 6.78735 6.7335C7.15919 6.04361 7.71008 5.56069 8.49509 5.40891C9.45913 5.21575 10.2028 5.60208 10.6573 6.55413C10.7813 6.81629 10.8777 7.10604 10.919 7.382C10.919 7.54757 10.8363 7.61656 10.7262 7.68555C10.5471 7.79593 10.3405 7.82353 10.1477 7.85112C8.92202 8.04429 7.71008 8.23746 6.48436 8.44443C6.34664 8.47203 6.3191 8.45823 6.33287 8.32025Z" fill="white"/>
<path d="M10.9203 7.39657C10.9203 7.56214 10.8377 7.63113 10.7275 7.70012C10.5485 7.8105 10.3419 7.8381 10.1491 7.86569C8.92338 8.05886 7.71144 8.25203 6.48572 8.459C6.36177 8.47279 6.32046 8.459 6.348 8.32102C6.43063 7.76911 6.52704 7.23099 6.80248 6.73427C7.17433 6.04438 7.72521 5.56146 8.51022 5.40968C9.47427 5.21652 10.218 5.60285 10.6724 6.5549C10.7826 6.84466 10.8652 7.12061 10.9203 7.39657Z" fill="#60BB46"/>
</svg>
