<svg width="100" height="60" viewBox="0 0 100 60" fill="none" xmlns="http://www.w3.org/2000/svg">
<path d="M16.5599 33.7999C16.4999 33.8299 16.4599 33.7799 16.4299 33.7499L10.3999 30.1999V30.1699L10.4299 30.1499L10.5799 30.0999L15.2799 27.9699C15.6932 27.7699 16.1099 27.5799 16.5299 27.3999H16.5599V33.8099" fill="#343535"/>
<path d="M16.56 27.4H16.53L16.54 27.22V20.2L16.55 20.02H16.57C16.8034 20.3867 17.03 20.76 17.25 21.14L22.62 30.04L22.66 30.14L22.52 30.1L21.53 29.65C21.0234 29.41 20.5134 29.1767 20 28.95L17.55 27.83L16.56 27.4Z" fill="#2F3030"/>
<path d="M16.5499 20.03V27.21L16.5399 27.4L15.2799 27.96L10.5799 30.1L10.4399 30.15C10.5799 29.87 10.7366 29.6033 10.9099 29.35L16.5399 20L16.5499 20.03Z" fill="#828384"/>
<path d="M16.56 27.3999L17.56 27.8399L20 28.9499L21.5201 29.6499L22.51 30.0999L22.66 30.1499C22.72 30.2199 22.63 30.2199 22.6 30.2499L21.07 31.1499L16.67 33.7499L16.55 33.8099V27.3999" fill="#131313"/>
<path d="M16.54 34.9899L20.38 32.7199L22.58 31.4199L22.65 31.3899C22.6433 31.4432 22.6233 31.4866 22.59 31.5199L17.57 38.5899L16.61 39.9299C16.6 39.9499 16.57 40.0599 16.51 39.9499C16.56 39.9099 16.54 39.8699 16.54 39.8299V34.9899Z" fill="#2F3030"/>
<path d="M16.54 34.99V39.83C16.5533 39.87 16.5466 39.9066 16.52 39.94C16.43 39.89 16.4 39.8 16.34 39.73L10.52 31.53L10.45 31.41C10.5 31.38 10.52 31.42 10.55 31.44L16.44 34.92L16.54 34.99Z" fill="#828384"/>
<path d="M16.56 20.0301L16.54 20.0101C16.56 19.9968 16.57 20.0034 16.57 20.0301H16.56Z" fill="#393939"/>
<path d="M47.16 30.3701V33.4501C47.1574 33.4884 47.1461 33.5255 47.1269 33.5587C47.1077 33.5919 47.0811 33.6202 47.0492 33.6415C47.0173 33.6627 46.9809 33.6764 46.9429 33.6813C46.9049 33.6863 46.8662 33.6825 46.83 33.6701C46.7842 33.6563 46.7449 33.6264 46.7192 33.5861C46.6935 33.5457 46.6831 33.4975 46.6899 33.4501V30.3701C46.6899 29.3401 46.0899 28.3101 44.9399 28.3101C43.4599 28.3101 42.82 29.6001 42.91 30.9301L42.9199 31.0501V33.4401C42.9128 33.4976 42.8892 33.5518 42.8519 33.5962C42.8147 33.6405 42.7654 33.6732 42.7099 33.6901C42.676 33.6944 42.6415 33.6914 42.6089 33.6812C42.5762 33.6711 42.5461 33.6541 42.5205 33.6314C42.4949 33.6086 42.4745 33.5807 42.4606 33.5495C42.4467 33.5182 42.4397 33.4843 42.4399 33.4501V23.3501C42.4425 23.2882 42.469 23.2297 42.5137 23.1868C42.5584 23.144 42.618 23.1201 42.68 23.1201C42.7428 23.1226 42.8024 23.1487 42.8469 23.1931C42.8914 23.2376 42.9175 23.2973 42.9199 23.3601V29.0601C43.1124 28.6895 43.4021 28.3783 43.7579 28.1599C44.1138 27.9414 44.5224 27.824 44.9399 27.8201C46.3599 27.8201 47.16 29.0601 47.16 30.3701Z" fill="#393939"/>
<path d="M39.4599 27.9999C39.4133 27.9557 39.3537 27.9277 39.2899 27.9199H37.9999V26.0599C38 26.0267 37.9932 25.9937 37.9799 25.9632C37.9666 25.9327 37.9471 25.9053 37.9227 25.8827C37.8982 25.8602 37.8694 25.8429 37.8379 25.8321C37.8064 25.8213 37.7731 25.8172 37.7399 25.8199C37.6826 25.8352 37.6312 25.8671 37.592 25.9116C37.5529 25.9561 37.5278 26.0112 37.5199 26.0699V27.9199H36.2799C36.2323 27.9198 36.1858 27.9338 36.1463 27.9602C36.1067 27.9865 36.0758 28.0241 36.0576 28.068C36.0394 28.1119 36.0346 28.1603 36.044 28.2069C36.0533 28.2535 36.0762 28.2964 36.1099 28.3299C36.1306 28.3543 36.1568 28.3734 36.1864 28.3856C36.216 28.3978 36.248 28.4027 36.2799 28.3999H37.5199V33.4699C37.5224 33.5328 37.5484 33.5924 37.5929 33.6369C37.6374 33.6814 37.697 33.7075 37.7599 33.7099C37.8235 33.7099 37.8846 33.6846 37.9296 33.6396C37.9746 33.5946 37.9999 33.5336 37.9999 33.4699V28.3999H39.2899C39.3218 28.4013 39.3536 28.3961 39.3834 28.3846C39.4132 28.373 39.4402 28.3554 39.4628 28.3328C39.4853 28.3102 39.503 28.2832 39.5145 28.2534C39.5261 28.2237 39.5313 28.1918 39.5299 28.1599C39.5249 28.0973 39.5004 28.0379 39.4599 27.9899" fill="#393939"/>
<path d="M33.3601 30.9701C33.4063 30.9208 33.4345 30.8574 33.4401 30.7901C33.4401 29.2401 32.2701 27.8101 30.6401 27.8101C29.0101 27.8101 27.8601 29.2601 27.8601 30.8101C27.8601 32.3501 29.0301 33.8101 30.6401 33.8101C31.5901 33.8101 32.5501 33.3901 33.0401 32.5501C33.0682 32.5127 33.0824 32.4667 33.0801 32.4201C33.0815 32.3882 33.0763 32.3563 33.0647 32.3266C33.0532 32.2968 33.0355 32.2698 33.013 32.2472C32.9904 32.2246 32.9634 32.207 32.9336 32.1954C32.9038 32.1839 32.872 32.1786 32.8401 32.1801C32.7979 32.1856 32.7573 32.2 32.7211 32.2224C32.6849 32.2449 32.6539 32.2747 32.6301 32.3101C32.4186 32.6406 32.1226 32.9085 31.7727 33.0861C31.4228 33.2637 31.0317 33.3445 30.6401 33.3201C29.3801 33.3201 28.4901 32.2301 28.3701 31.0401H33.1701C33.2434 31.0401 33.3101 31.0167 33.3701 30.9701M30.6501 28.2801C31.9201 28.2801 32.8301 29.3801 32.9301 30.5601H28.3801C28.5001 29.3701 29.3901 28.2801 30.6501 28.2801Z" fill="#393939"/>
<path d="M55.73 30.9701C55.7761 30.9208 55.8043 30.8574 55.81 30.7901C55.81 29.2401 54.63 27.8101 53.01 27.8101C51.39 27.8101 50.23 29.2601 50.23 30.8101C50.23 32.3501 51.4 33.8101 53.01 33.8101C53.96 33.8101 54.92 33.3901 55.41 32.5501C55.4381 32.5127 55.4522 32.4667 55.45 32.4201C55.4514 32.3882 55.4462 32.3563 55.4346 32.3266C55.423 32.2968 55.4054 32.2698 55.3828 32.2472C55.3603 32.2246 55.3332 32.207 55.3035 32.1954C55.2737 32.1839 55.2419 32.1786 55.21 32.1801C55.1678 32.1856 55.1272 32.2 55.091 32.2224C55.0548 32.2449 55.0238 32.2747 55 32.3101C54.7877 32.6421 54.49 32.9111 54.1382 33.0887C53.7864 33.2664 53.3933 33.3463 53 33.3201C51.74 33.3201 50.85 32.2301 50.73 31.0401H55.53C55.6033 31.0401 55.67 31.0167 55.73 30.9701ZM53.01 28.2801C54.27 28.2801 55.18 29.3801 55.29 30.5601H50.73C50.85 29.3701 51.74 28.2801 53.01 28.2801Z" fill="#393939"/>
<path d="M61.72 28.1499C61.7227 28.1815 61.7192 28.2132 61.7096 28.2434C61.7 28.2736 61.6845 28.3015 61.6641 28.3257C61.6436 28.3499 61.6186 28.3698 61.5904 28.3842C61.5623 28.3987 61.5315 28.4074 61.5 28.4099C60.08 28.6099 59.45 29.7699 59.45 31.1099V33.4099C59.4507 33.4725 59.4289 33.5332 59.3885 33.581C59.3481 33.6287 59.2918 33.6603 59.23 33.6699C59.196 33.6742 59.1616 33.6712 59.1289 33.661C59.0962 33.6509 59.0661 33.6339 59.0405 33.6112C59.0149 33.5885 58.9945 33.5605 58.9806 33.5293C58.9667 33.498 58.9597 33.4641 58.96 33.4299V28.1799C58.9678 28.1212 58.9929 28.0661 59.0321 28.0216C59.0713 27.9771 59.1227 27.9452 59.18 27.9299C59.2139 27.9256 59.2484 27.9287 59.281 27.9388C59.3137 27.9489 59.3439 27.9659 59.3694 27.9887C59.395 28.0114 59.4154 28.0393 59.4293 28.0706C59.4432 28.1018 59.4502 28.1357 59.45 28.1699V29.2399C59.85 28.5599 60.64 27.9199 61.46 27.9199C61.59 27.9199 61.72 28.0099 61.72 28.1499Z" fill="#393939"/>
<path d="M69.5601 30.9701C69.6062 30.9208 69.6344 30.8574 69.6401 30.7901C69.6301 29.2401 68.4701 27.8101 66.8401 27.8101C65.2101 27.8101 64.0601 29.2601 64.0601 30.8101C64.0601 32.3501 65.2201 33.8101 66.8401 33.8101C67.7801 33.8101 68.7501 33.3901 69.2401 32.5501C69.2646 32.5114 69.2752 32.4655 69.2701 32.4201C69.2715 32.3882 69.2662 32.3563 69.2547 32.3266C69.2431 32.2968 69.2255 32.2698 69.2029 32.2472C69.1804 32.2246 69.1533 32.207 69.1236 32.1954C69.0938 32.1839 69.062 32.1786 69.0301 32.1801C68.9896 32.1869 68.951 32.202 68.9166 32.2243C68.8822 32.2467 68.8527 32.2759 68.8301 32.3101C68.6186 32.6406 68.3225 32.9085 67.9726 33.0861C67.6227 33.2637 67.2317 33.3445 66.8401 33.3201C65.5801 33.3201 64.6901 32.2301 64.5601 31.0401H69.3701C69.4434 31.0401 69.5067 31.0167 69.5601 30.9701ZM66.8401 28.2801C68.1001 28.2801 69.0201 29.3801 69.1201 30.5601H64.5601C64.6901 29.3701 65.5801 28.2801 66.8401 28.2801Z" fill="#393939"/>
<path d="M77.42 28.2V33.47C77.4194 33.5103 77.4092 33.5499 77.39 33.5854C77.3709 33.6209 77.3435 33.6512 77.3101 33.6738C77.2767 33.6964 77.2383 33.7106 77.1982 33.7151C77.1582 33.7197 77.1176 33.7145 77.08 33.7C77.0322 33.6859 76.9914 33.6546 76.9655 33.612C76.9396 33.5695 76.9305 33.5188 76.94 33.47V32.47C76.54 33.27 75.84 33.84 74.94 33.84C73.5 33.84 72.71 32.6 72.71 31.28V28.2C72.71 28.1363 72.7352 28.0753 72.7803 28.0303C72.8253 27.9852 72.8863 27.96 72.95 27.96C73.0128 27.9624 73.0724 27.9885 73.1169 28.033C73.1614 28.0775 73.1875 28.1371 73.19 28.2V31.28C73.19 32.32 73.78 33.35 74.93 33.35C76.55 33.35 76.93 31.83 76.93 30.15V28.2C76.9304 28.1609 76.9403 28.1225 76.9589 28.0881C76.9776 28.0537 77.0043 28.0244 77.0368 28.0028C77.0693 27.9811 77.1067 27.9677 77.1456 27.9637C77.1845 27.9597 77.2237 27.9653 77.26 27.98C77.3033 28.0024 77.3406 28.0351 77.3685 28.0751C77.3963 28.1152 77.414 28.1615 77.42 28.21" fill="#393939"/>
<path d="M89.5999 33.4401V30.3501C89.5999 29.0501 88.7999 27.8201 87.3799 27.8201C86.3799 27.8201 85.6099 28.4501 85.2099 29.3501C85.0771 28.9091 84.8062 28.5225 84.4372 28.247C84.0681 27.9716 83.6204 27.8219 83.1599 27.8201C82.2899 27.8201 81.5599 28.3101 81.1399 29.0501V28.1701C81.1402 28.1359 81.1331 28.102 81.1192 28.0707C81.1053 28.0395 81.0849 28.0115 81.0594 27.9888C81.0338 27.9661 81.0037 27.9491 80.971 27.9389C80.9383 27.9288 80.9038 27.9258 80.8699 27.9301C80.8126 27.9453 80.7612 27.9772 80.722 28.0217C80.6829 28.0662 80.6578 28.1213 80.6499 28.1801V33.4501C80.651 33.4834 80.6591 33.5162 80.6736 33.5462C80.6881 33.5763 80.7087 33.603 80.7341 33.6247C80.7595 33.6463 80.7892 33.6624 80.8212 33.672C80.8532 33.6815 80.8868 33.6843 80.9199 33.6801C80.9772 33.6648 81.0286 33.6329 81.0678 33.5884C81.1069 33.5439 81.132 33.4888 81.1399 33.4301V31.0001C81.0899 29.4601 81.6899 28.3001 83.1599 28.3001C84.3099 28.3001 84.8999 29.3301 84.8999 30.3601V33.4501C84.8985 33.482 84.9037 33.5138 84.9153 33.5436C84.9268 33.5733 84.9445 33.6004 84.967 33.6229C84.9896 33.6455 85.0166 33.6631 85.0464 33.6747C85.0762 33.6863 85.108 33.6915 85.1399 33.6901C85.2028 33.6876 85.2624 33.6615 85.3069 33.617C85.3514 33.5726 85.3774 33.5129 85.3799 33.4501V31.0701C85.3799 29.8701 85.9299 28.3101 87.3799 28.3101C88.5399 28.3101 89.1199 29.3301 89.1199 30.3601V33.4501C89.1185 33.482 89.1237 33.5138 89.1353 33.5436C89.1468 33.5733 89.1645 33.6004 89.187 33.6229C89.2096 33.6455 89.2366 33.6631 89.2664 33.6747C89.2962 33.6863 89.328 33.6915 89.3599 33.6901C89.4228 33.6876 89.4824 33.6615 89.5269 33.617C89.5714 33.5726 89.5974 33.5129 89.5999 33.4501" fill="#393939"/>
</svg>
