<svg width="100" height="60" viewBox="0 0 100 60" fill="none" xmlns="http://www.w3.org/2000/svg">
<path d="M30.9869 14.05C31.3519 14.167 31.7419 14.172 32.1169 14.238C34.2839 14.643 36.2169 15.549 37.8939 16.982C39.9639 18.749 41.3569 20.957 41.9339 23.62C42.8249 27.722 41.8989 31.397 39.1439 34.572C37.3219 36.673 35.0129 37.995 32.2779 38.516C28.8199 39.175 25.6199 38.496 22.7439 36.461C20.1919 34.653 18.5419 32.203 17.8539 29.149C17.0939 25.792 17.6559 22.633 19.4989 19.722C20.6989 17.828 22.3239 16.385 24.3189 15.362C25.6725 14.6687 27.1451 14.2378 28.6589 14.092C28.7139 14.086 28.7789 14.112 28.8099 14.041C29.5339 14.051 30.2629 14.05 30.9869 14.05ZM29.9039 16.375C24.5669 16.319 19.9489 20.663 19.8579 26.223C19.7619 31.913 24.3799 36.42 29.8529 36.441C35.3219 36.461 39.8989 32.056 39.9389 26.496C39.9523 25.1704 39.7025 23.8554 39.204 22.627C38.7055 21.3987 37.9682 20.2815 37.0348 19.3401C36.1014 18.3987 34.9906 17.6519 33.7665 17.143C32.5425 16.634 31.2296 16.373 29.9039 16.375ZM47.4939 45.95C46.9519 45.878 46.3999 45.914 45.8579 45.894C44.1567 45.8315 42.4568 45.7385 40.7589 45.615C39.4069 45.5145 38.0567 45.3912 36.7089 45.245C35.1845 45.0779 33.6635 44.8805 32.1469 44.653C30.3234 44.3807 28.5083 44.0549 26.7039 43.676C21.8379 42.648 17.0839 41.271 12.5419 39.206C12.5059 39.19 12.4709 39.165 12.4199 39.139C12.5519 39.084 12.6579 39.124 12.7699 39.154C16.1059 40.046 19.4779 40.79 22.8809 41.387C25.4379 41.838 28.0049 42.217 30.5819 42.522C32.3899 42.734 34.1969 42.922 36.0149 43.078C38.1319 43.261 40.2479 43.398 42.3699 43.494C44.1369 43.574 45.9089 43.615 47.6759 43.651C49.0529 43.676 50.4259 43.681 51.8029 43.666C56.2033 43.6232 60.6002 43.4037 64.9829 43.008C67.1699 42.805 69.3569 42.562 71.5389 42.268C75.38 41.758 79.1964 41.0773 82.9769 40.228C84.53 39.879 86.0747 39.4939 87.6099 39.073C87.6399 39.063 87.6759 39.068 87.7819 39.058C87.6559 39.129 87.5949 39.17 87.5239 39.2C84.7489 40.476 81.8739 41.478 78.9369 42.314C76.5609 42.9831 74.1569 43.5489 71.7319 44.01C69.787 44.3806 67.8315 44.6931 65.8679 44.947C63.6299 45.246 61.3819 45.468 59.1289 45.635C57.6506 45.7438 56.1703 45.8248 54.6889 45.878C54.3339 45.894 53.9749 45.843 53.6249 45.954C51.5799 45.949 49.5349 45.95 47.4939 45.95Z" fill="#FCB922"/>
<path d="M49.635 22.299C49.251 23.544 48.871 24.785 48.486 26.03C47.934 27.833 47.377 29.635 46.836 31.438C46.77 31.656 46.638 31.61 46.496 31.62C46.339 31.635 46.263 31.595 46.213 31.423C45.478 28.765 44.734 26.111 43.995 23.453C43.823 22.825 43.645 22.203 43.463 21.58C43.413 21.413 43.453 21.377 43.62 21.377C44.122 21.372 44.116 21.367 44.253 21.878C44.987 24.678 45.722 27.478 46.456 30.284L46.526 30.511C46.658 30.071 46.775 29.696 46.886 29.321C47.666 26.759 48.441 24.197 49.21 21.635C49.27 21.438 49.347 21.372 49.55 21.377C50.025 21.392 50.03 21.382 50.167 21.838L52.709 30.243C52.729 30.313 52.754 30.38 52.8 30.511L53.256 28.8C53.889 26.39 54.522 23.98 55.149 21.57C55.189 21.413 55.256 21.367 55.408 21.377C55.565 21.387 55.727 21.382 55.908 21.382C55.676 22.228 55.448 23.043 55.22 23.863C54.522 26.375 53.818 28.886 53.114 31.397C53.078 31.534 53.048 31.651 52.861 31.62C52.704 31.6 52.557 31.66 52.486 31.413C51.59 28.461 50.678 25.513 49.772 22.562C49.747 22.476 49.712 22.39 49.686 22.304C49.666 22.304 49.651 22.299 49.636 22.299H49.635ZM58.243 22.248C58.218 21.57 58.132 21.706 58.699 21.57C60.116 21.24 61.549 21.119 62.977 21.494C64.087 21.782 64.678 22.506 64.81 23.646C64.846 23.954 64.86 24.268 64.86 24.577C64.86 26.805 64.86 29.033 64.856 31.256C64.856 31.342 64.952 31.484 64.765 31.514C64.582 31.549 64.511 31.458 64.461 31.301C64.411 31.124 64.38 30.871 64.258 30.805C64.127 30.729 63.949 30.942 63.778 31.013C62.365 31.59 60.906 31.828 59.408 31.428C58.137 31.088 57.382 30.111 57.316 28.795C57.276 27.949 57.392 27.145 58 26.491C58.527 25.929 59.21 25.676 59.94 25.549C61.018 25.362 62.106 25.377 63.19 25.291C63.473 25.266 63.762 25.256 64.046 25.241C64.122 25.235 64.203 25.241 64.203 25.129C64.203 24.441 64.248 23.742 63.995 23.079C63.727 22.369 63.145 22.061 62.441 21.949C61.073 21.727 59.721 21.849 58.39 22.213C58.34 22.228 58.294 22.238 58.243 22.248ZM64.203 27.98C64.203 27.306 64.197 26.633 64.203 25.954C64.203 25.818 64.183 25.767 64.025 25.782C63.413 25.832 62.8 25.853 62.187 25.904C61.443 25.964 60.689 25.959 59.949 26.101C59.139 26.258 58.471 26.623 58.142 27.428C57.959 27.873 57.939 28.344 57.97 28.82C58.03 29.904 58.608 30.658 59.66 30.911C61.235 31.291 62.714 30.962 64.111 30.192C64.218 30.132 64.203 30.046 64.203 29.954V27.98ZM68.187 36.582C68.713 35.3378 69.2364 34.0924 69.757 32.846C69.934 32.426 70.101 32.006 70.284 31.59C70.3111 31.534 70.3257 31.4727 70.3265 31.4105C70.3274 31.3483 70.3146 31.2867 70.289 31.23C69.392 28.937 68.501 26.638 67.61 24.34C67.235 23.367 66.86 22.395 66.466 21.382C66.704 21.382 66.916 21.377 67.129 21.382C67.256 21.387 67.251 21.504 67.281 21.585C67.747 22.815 68.203 24.045 68.658 25.275C69.301 27.013 69.944 28.745 70.588 30.481C70.603 30.521 70.628 30.551 70.658 30.608C71.104 29.418 71.544 28.243 71.98 27.073C72.658 25.256 73.342 23.433 74.01 21.61C74.081 21.423 74.162 21.372 74.35 21.377C74.825 21.387 74.825 21.382 74.653 21.827C72.977 26.127 71.301 30.43 69.62 34.729C69.408 35.276 69.185 35.823 68.982 36.375C68.922 36.532 68.856 36.608 68.678 36.587C68.527 36.567 68.375 36.582 68.188 36.582H68.187ZM77.818 24.496C77.666 24.486 77.514 24.496 77.362 24.471C76.334 24.309 76.025 23.621 76.071 22.557C76.076 22.415 76.106 22.273 76.137 22.137C76.258 21.565 76.623 21.225 77.18 21.104C77.643 20.9992 78.1248 21.0112 78.582 21.139C79.058 21.276 79.362 21.589 79.489 22.066C79.61 22.526 79.61 22.997 79.494 23.463C79.342 24.061 78.861 24.43 78.172 24.486C78.056 24.496 77.934 24.486 77.818 24.486V24.496ZM77.818 24.167C77.929 24.167 78.035 24.177 78.147 24.167C78.719 24.117 79.023 23.884 79.154 23.377C79.266 22.957 79.261 22.527 79.139 22.107C79.023 21.711 78.754 21.484 78.359 21.407C78.1188 21.3616 77.8739 21.3465 77.63 21.362C76.8 21.412 76.44 21.787 76.41 22.622V22.775C76.41 23.787 76.8 24.177 77.818 24.167ZM34.684 29.716C34.684 30.536 34.678 31.362 34.689 32.187C34.689 32.334 34.592 32.344 34.501 32.38C33.281 32.906 32 33.154 30.673 33.2C29.691 33.235 28.719 33.2 27.777 32.916C26.005 32.385 24.952 31.154 24.461 29.413C24.021 27.858 23.995 26.268 24.131 24.673C24.208 23.773 24.39 22.891 24.754 22.056C25.428 20.511 26.608 19.595 28.248 19.251C29.3796 19.0019 30.5508 18.9931 31.686 19.225C33.408 19.58 34.486 20.643 34.987 22.309C35.291 23.327 35.387 24.375 35.407 25.428C35.417 26.02 35.407 26.608 35.423 27.2C35.428 27.382 35.383 27.443 35.185 27.443C32.516 27.438 29.848 27.443 27.175 27.438C26.962 27.438 26.911 27.494 26.952 27.691C27.018 28.011 27.078 28.334 27.185 28.648C27.62 29.944 28.547 30.623 29.904 30.648C31.494 30.678 33.023 30.41 34.481 29.762C34.537 29.737 34.592 29.692 34.684 29.716ZM29.696 25.038C30.582 25.038 31.468 25.033 32.354 25.043C32.506 25.043 32.557 25.008 32.552 24.851C32.532 24.309 32.496 23.772 32.349 23.251C32.177 22.653 31.873 22.162 31.286 21.884C30.704 21.605 30.091 21.605 29.478 21.676C28.698 21.767 28.041 22.086 27.59 22.754C27.18 23.367 27.033 24.061 26.927 24.774C26.891 25.018 26.952 25.048 27.17 25.048C28.01 25.033 28.85 25.038 29.696 25.038Z" fill="#424143"/>
<path d="M78.6839 23.706C78.4049 23.797 78.254 23.691 78.167 23.443C78.137 23.357 78.0709 23.281 78.0459 23.195C77.9699 22.901 77.742 22.972 77.539 22.967C77.453 22.967 77.453 23.027 77.453 23.089C77.453 23.23 77.448 23.372 77.453 23.519C77.458 23.651 77.453 23.737 77.276 23.737C77.109 23.732 77.109 23.656 77.109 23.534C77.114 23.023 77.119 22.506 77.109 21.994C77.104 21.833 77.1589 21.792 77.3109 21.797C77.5699 21.813 77.833 21.803 78.091 21.823C78.299 21.838 78.466 21.949 78.511 22.162C78.562 22.395 78.6029 22.653 78.3949 22.82C78.2529 22.937 78.294 23.008 78.359 23.124C78.476 23.316 78.5819 23.514 78.6839 23.706ZM77.818 22.116C77.468 22.116 77.372 22.263 77.458 22.567C77.478 22.633 77.508 22.643 77.565 22.643C77.716 22.638 77.863 22.638 78.015 22.628C78.152 22.618 78.2229 22.537 78.2279 22.4C78.2329 22.253 78.1679 22.157 78.0199 22.137C77.9339 22.122 77.853 22.122 77.818 22.117V22.116Z" fill="#424143"/>
</svg>
