<svg version="1.2" xmlns="http://www.w3.org/2000/svg" viewBox="0 0 100 60" width="100" height="60">
	<title>New Project</title>
	<style>
		.s0 { fill: #d02027 } 
		.s1 { fill: #090b0f } 
		.s2 { fill: #fefefe } 
	</style>
	<path id="&lt;Path&gt;" class="s0" d="m61.1 42.6c0 1.7-1.4 3-3.1 3h-55.3c-1.6 0-2.7-1.3-2.7-3v-24.7c0-1.6 1.1-2.9 2.7-2.9h55.3c1.7 0 3.1 1.3 3.1 2.9z"/>
	<path id="&lt;Compound Path&gt;" fill-rule="evenodd" class="s1" d="m75.2 30.9c0 3.1-1.7 6-5 6q-2.2 0-3.4-1.6v5.2h-3.9v-15.8h3.7v1.4q1.2-1.7 3.3-1.7c3.7 0 5.3 3.2 5.3 6.5zm-3.9-0.4c0-1.5-0.6-3.1-2.3-3.1-1 0-2.4 0.7-2.4 3.1 0 2.1 0.6 3.4 2.4 3.4 1.7 0 2.3-1.8 2.3-3.4z"/>
	<path id="&lt;Compound Path&gt;" fill-rule="evenodd" class="s1" d="m87.3 33.5c0 1 0 2.1 0.4 3.1h-3.9c-0.1-0.4-0.1-0.8-0.2-1.2-1 1.1-2.5 1.5-3.9 1.5-2.3 0-4-1.1-4-3.6 0-3.8 4.2-3.5 6.9-4.1 0.6-0.1 1-0.3 1-1.1 0-0.9-1.1-1.2-1.9-1.2q-1.7 0-1.9 1.5h-3.6c0-1.6 0.7-2.6 1.8-3.2 1.1-0.6 2.4-0.8 3.8-0.8 2.8 0 5.5 0.6 5.5 4zm-3.8-2.5c-0.5 0.3-1.5 0.3-2.4 0.6-0.8 0.2-1.6 0.6-1.6 1.5 0 1 0.8 1.3 1.7 1.3 1.8 0 2.4-1 2.3-3.4z"/>
	<path id="&lt;Path&gt;" class="s1" d="m96 24.7l-2.2 7.7-2.3-7.7h-4.1l3.1 8.3c0.2 0.6 1 2.4 1 3.1 0 0.8-0.7 1.3-1.6 1.3h-1.3v3.1h1.8c2.6 0 4-0.3 4.9-2.9l4.7-12.9z"/>
	<path id="&lt;Compound Path&gt;" fill-rule="evenodd" class="s2" d="m51.9 34h-9.9q0.2 1.2 0.8 1.9 0.7 0.7 1.9 0.7 0.6 0 1.2-0.2 0.6-0.3 1-0.8h4.7q-0.3 1.1-1 1.9-0.7 0.9-1.7 1.4-0.9 0.5-2 0.8-1.1 0.2-2.2 0.2-1.6 0-3-0.5-1.4-0.4-2.4-1.3-0.8-0.7-1.3-1.6v3.1h-5.1v-7.1q0-0.6-0.1-1.1 0-0.5-0.2-0.8-0.2-0.4-0.5-0.6-0.4-0.2-0.9-0.2-0.4 0-0.7 0.1-0.4 0.2-0.7 0.4-0.3 0.3-0.5 0.8-0.2 0.5-0.2 1.3v7.2h-5.1v-3.1q-0.4 0.7-0.9 1.3-0.9 0.9-2.3 1.5-1.4 0.6-3.3 0.6-1.9 0-3.3-0.6-1.4-0.6-2.3-1.5-0.9-1-1.3-2.3-0.5-1.3-0.5-2.7 0-1.4 0.5-2.7 0.1-0.4 0.4-0.9h-1.3v10.4h-5.1v-10.4h-2.1v-3.1h2.1q-0.1-1 0.1-2 0.2-1.1 0.9-1.8 0.9-0.9 1.9-1.1 1.1-0.2 2.6-0.2 0.6 0 1.2 0 0.5 0.1 1.1 0.1v3.5q-0.3 0-0.6-0.1-0.3 0-0.6 0-0.9 0-1.3 0.3-0.3 0.3-0.3 1.3h2.7v1.4q0.8-0.7 1.9-1.2 1.4-0.6 3.3-0.6 1.9 0 3.3 0.6 1.4 0.6 2.3 1.6 0.5 0.6 0.9 1.2v-3h4.9v1.7h0.1q0.7-1 1.8-1.5 1-0.6 2.6-0.6 0.9 0 1.7 0.3 0.9 0.3 1.5 0.9 0.7 0.5 1 1.4 0.3 0.5 0.4 1.1 0.4-0.9 1.1-1.6 0.9-0.9 2.2-1.5 1.3-0.6 3-0.6 2 0 3.4 0.6 1.5 0.5 2.4 1.6 0.9 1 1.4 2.6 0.4 1.5 0.4 3.5zm-32.2-1.2q0-0.5-0.1-1.1 0-0.6-0.3-1.1-0.2-0.5-0.6-0.8-0.5-0.3-1.2-0.3-0.7 0-1.2 0.3-0.4 0.3-0.7 0.8-0.2 0.5-0.3 1.1 0 0.6 0 1.1 0 0.6 0 1.1 0.1 0.6 0.3 1.1 0.3 0.5 0.7 0.8 0.5 0.4 1.2 0.4 0.7 0 1.2-0.4 0.4-0.3 0.6-0.8 0.3-0.5 0.3-1.1 0.1-0.5 0.1-1.1zm27.3-1.5q0-0.9-0.6-1.6-0.7-0.7-1.7-0.7-1.1 0-1.8 0.6-0.6 0.6-0.8 1.7z"/>
	<path id="&lt;Path&gt;" class="s2" d="m49.5 20.6q-0.1 0.9-0.1 1.8 4.8 0.8 5.6 5.6 0.9 0 1.8-0.1c-0.2-4.4-4.2-7.3-7.3-7.3z"/>
	<path id="&lt;Path&gt;" class="s2" d="m49.7 24.1q0 0.9-0.1 1.8c1.1 0.2 1.7 0.9 1.9 1.9q0.9-0.1 1.8-0.1c0-1.8-1.9-3.7-3.6-3.6z"/>
</svg>