<svg xmlns="http://www.w3.org/2000/svg" width="100" height="60" fill="none"><path fill="#fff" d="M0 0h100v60H0z"/><path fill="url(#a)" d="M27.522 23.5H25.3v12.633h2.221zm-7.22 6.4a5.1 5.1 0 0 1-.73 2.712 3.287 3.287 0 0 1-5.2.834 5.1 5.1 0 0 1-1.15-3.647 4.72 4.72 0 0 1 1.468-3.805 2.86 2.86 0 0 1 1.98-.807 3.47 3.47 0 0 1 2.095.776c1.61 1.345 1.537 3.814 1.537 3.937m1.133 9.77c.94-1.243 1.015-2.533 1.083-5.18L22.49 23.5h-2.116v1.95a5.2 5.2 0 0 0-1.02-1.19 4.5 4.5 0 0 0-3.02-1.008 5.13 5.13 0 0 0-4.246 2.258 7.4 7.4 0 0 0-1.253 4.39 8.7 8.7 0 0 0 .375 2.664 5.9 5.9 0 0 0 1.77 2.782 4.74 4.74 0 0 0 3.353 1.05 5.26 5.26 0 0 0 3.02-1.096c.327-.277.613-.598.852-.953l-.018 1.734a6 6 0 0 1-.294 1.682c-.121.355-.314.681-.566.958a3.53 3.53 0 0 1-2.873 1.12 10.1 10.1 0 0 1-3.215-.536 7.4 7.4 0 0 1-1.248-.608l-.235 2.2c.355.143.617.24.996.37 1.153.353 2.353.533 3.559.534a7.3 7.3 0 0 0 3.611-.809 4.5 4.5 0 0 0 1.513-1.322m3.716-19.176h2.433V18H25.15zm10.622 4.881a4.3 4.3 0 0 1 1.531.302v-2.22c-.112 0-.793-.105-1.36-.105a3.68 3.68 0 0 0-2.976 1.296 9 9 0 0 0-.617.957l-.114-2.106h-2.125c.068 1.585.126 2.688.126 4.248 0 1.83-.035 3.122-.035 4.934v3.45h2.294v-6.183c.069-1.198.138-2.784 1.366-3.861a2.77 2.77 0 0 1 1.91-.712m11.614 4.32c0 1.38-.43 3.402-2.125 4.36a3.64 3.64 0 0 1-3.282.1 4.4 4.4 0 0 1-.62-.4 4.1 4.1 0 0 1-1.199-1.66 5.8 5.8 0 0 1-.42-2.443 4.86 4.86 0 0 1 1.532-3.636 3.76 3.76 0 0 1 2.481-.903 3.46 3.46 0 0 1 3.252 2.393c.25.702.38 1.443.38 2.189m.494 5.047a7.04 7.04 0 0 0 1.858-5.09 6.4 6.4 0 0 0-3.232-5.766 6.6 6.6 0 0 0-8.278 2.373 7.54 7.54 0 0 0-.879 3.595 6.5 6.5 0 0 0 1.96 5.08q.379.328.805.589a5.9 5.9 0 0 0 3.394.85 6.3 6.3 0 0 0 2.67-.493 5.6 5.6 0 0 0 1.702-1.139"/><path fill="url(#b)" d="M51.698 26.185c.068 2.443.068 4.179.068 6.633 0 3.061-.051 6.125-.068 9.182h2.256v-7.576q.324.431.713.804a4.62 4.62 0 0 0 3.113 1.146 5.4 5.4 0 0 0 3.99-1.731 7.4 7.4 0 0 0 1.73-5.176 8.3 8.3 0 0 0-.506-2.77 5.16 5.16 0 0 0-5.023-3.491 4.85 4.85 0 0 0-3.372 1.301 4.7 4.7 0 0 0-.781.922l-.098-1.93h-2.126c.059 1.008.068 1.688.104 2.686m2.216 3.523c.002-.596.09-1.19.26-1.76a3.64 3.64 0 0 1 3.417-2.761 3.37 3.37 0 0 1 3.072 2.08c.363.812.523 1.7.466 2.587a5.9 5.9 0 0 1-.328 1.948 3.49 3.49 0 0 1-3.306 2.576 3.56 3.56 0 0 1-3.321-2.709 6.5 6.5 0 0 1-.26-1.961"/><path fill="url(#c)" d="m86.776 23.498-2.818 6.838-1.274 3.312-.087.178c-.32-.948-.762-2.13-1.164-3.255l-2.612-7.073h-2.424l5.074 12.631L78.998 42h2.262l7.909-18.5z"/><path fill="url(#d)" d="M74.737 25.136c-.659-1.103-2.358-1.88-4.341-1.88a6.83 6.83 0 0 0-3.962 1.068v1.985a7.3 7.3 0 0 1 3.536-1.197 3.3 3.3 0 0 1 3.053 1.708c.166.54.243 1.102.228 1.666a37 37 0 0 0-1.815-.053 10.3 10.3 0 0 0-4.243.664 3.59 3.59 0 0 0-2.294 3.385 3.84 3.84 0 0 0 1.275 2.933 4.4 4.4 0 0 0 2.624.892 5.8 5.8 0 0 0 3.303-.84 8.7 8.7 0 0 0 1.338-1.34v2.004h1.93v-8.155a5.64 5.64 0 0 0-.632-2.84m-1.43 5.305a5.7 5.7 0 0 1-.192 1.707c-.12.392-.312.758-.566 1.08a3.58 3.58 0 0 1-2.86 1.338c-1.04 0-2.421-.541-2.421-2.025 0-1.472 1.718-2.25 2.671-2.408a10 10 0 0 1 1.67-.103c.566 0 1.132.017 1.697.065z"/><defs><linearGradient id="a" x1="10.831" x2="24.285" y1="42.011" y2="-1.887" gradientUnits="userSpaceOnUse"><stop stop-color="#142942"/><stop offset="1" stop-color="#004891"/></linearGradient><linearGradient id="b" x1="10.831" x2="24.285" y1="42.011" y2="-1.887" gradientUnits="userSpaceOnUse"><stop stop-color="#142942"/><stop offset="1" stop-color="#004891"/></linearGradient><linearGradient id="c" x1="10.831" x2="24.285" y1="42.011" y2="-1.887" gradientUnits="userSpaceOnUse"><stop stop-color="#142942"/><stop offset="1" stop-color="#004891"/></linearGradient><linearGradient id="d" x1="10.831" x2="24.285" y1="42.011" y2="-1.887" gradientUnits="userSpaceOnUse"><stop stop-color="#142942"/><stop offset="1" stop-color="#004891"/></linearGradient></defs></svg>