<svg width="100" height="60" viewBox="0 0 100 60" fill="none" xmlns="http://www.w3.org/2000/svg">
<rect width="100" height="60" fill="url(#paint0_linear_200_12040)"/>
<path d="M27.5215 23.4997H25.2997V36.1335H27.5215V23.4997ZM20.3016 29.8998C20.3172 30.8545 20.0641 31.7943 19.5713 32.612C19.3339 33.0645 18.9942 33.4555 18.5792 33.7538C18.1643 34.0521 17.6855 34.2495 17.1809 34.3304C16.6763 34.4114 16.1597 34.3736 15.6723 34.22C15.1849 34.0664 14.74 33.8013 14.3729 33.4457C13.5313 32.4252 13.119 31.1176 13.2229 29.7989C13.1676 29.0954 13.2707 28.3885 13.5246 27.73C13.7785 27.0716 14.1768 26.4785 14.69 25.9942C15.2207 25.4796 15.9299 25.1903 16.6691 25.1867C17.4341 25.2073 18.1709 25.4802 18.7648 25.9631C20.3741 27.308 20.3016 29.7775 20.3016 29.8998ZM21.4346 39.6697C22.3758 38.4269 22.4501 37.1366 22.5178 34.4891L22.4896 23.4992H20.3741V25.4509C20.0958 25.0051 19.7519 24.6038 19.354 24.2605C18.5041 23.5665 17.4296 23.2076 16.3332 23.2517C15.4949 23.2526 14.6697 23.459 13.9297 23.8526C13.1896 24.2463 12.5573 24.8152 12.088 25.5098C11.2189 26.8049 10.7806 28.3411 10.8354 29.8998C10.822 30.8019 10.9484 31.7006 11.21 32.564C11.5237 33.6404 12.1373 34.6053 12.9791 35.3458C13.921 36.1132 15.1218 36.4892 16.3331 36.396C17.4297 36.3544 18.4859 35.9711 19.3539 35.2997C19.6797 35.0226 19.966 34.7022 20.2047 34.3473L20.1868 36.0808C20.1698 36.6528 20.0709 37.2194 19.8931 37.7634C19.772 38.1182 19.5792 38.4443 19.3266 38.7214C18.9634 39.113 18.5162 39.4172 18.0186 39.6111C17.521 39.8051 16.9859 39.8838 16.4536 39.8413C15.3601 39.8373 14.2744 39.6561 13.2388 39.305C12.8049 39.1417 12.3871 38.9381 11.9911 38.697L11.7558 40.8972C12.1115 41.0403 12.3731 41.1372 12.7524 41.2671C13.9055 41.6198 15.1046 41.7996 16.3106 41.8007C17.564 41.8459 18.8079 41.5675 19.9224 40.9921C20.5194 40.6705 21.0362 40.2184 21.4346 39.6697ZM25.151 20.4938H27.5836V18H25.151V20.4938ZM35.7729 25.3751C36.2975 25.381 36.8165 25.4834 37.304 25.6772V23.4579C37.192 23.4579 36.5107 23.3525 35.9441 23.3525C35.3821 23.3268 34.8216 23.4303 34.3058 23.6549C33.79 23.8796 33.3325 24.2194 32.9685 24.6483C32.7419 24.9535 32.5357 25.2732 32.3511 25.6054L32.2373 23.4993H30.1123C30.18 25.0835 30.2375 26.187 30.2375 27.7473C30.2375 29.5776 30.2027 30.8688 30.2027 32.6812V36.1312H32.497V29.9479C32.5657 28.7499 32.6353 27.1641 33.8634 26.0865C34.3866 25.6158 35.0692 25.3614 35.7729 25.3751ZM47.3866 29.6946C47.3866 31.0751 46.9576 33.0975 45.2616 34.0546C44.7607 34.327 44.2027 34.4779 43.6328 34.4952C43.0628 34.5125 42.4967 34.3958 41.9801 34.1543C41.763 34.0387 41.5559 33.9053 41.3609 33.7553C40.8264 33.313 40.4134 32.7416 40.161 32.0953C39.8472 31.3205 39.704 30.4873 39.7413 29.6522C39.7278 28.9727 39.8571 28.2979 40.1208 27.6715C40.3846 27.0451 40.7769 26.4811 41.2725 26.016C41.9631 25.4245 42.8448 25.1035 43.7541 25.1125C44.4784 25.1205 45.182 25.3558 45.7654 25.7852C46.3488 26.2146 46.7826 26.8164 47.0055 27.5056C47.2567 28.2082 47.3855 28.9486 47.3866 29.6946ZM47.8807 34.7415C48.5112 34.058 49.0001 33.2563 49.3191 32.3828C49.6381 31.5093 49.7809 30.5812 49.7393 29.6522C49.7762 28.488 49.4946 27.3357 48.925 26.3196C48.3553 25.3036 47.5192 24.4622 46.5067 23.8863C45.0714 23.2254 43.4466 23.1013 41.9276 23.5366C40.4086 23.972 39.0963 24.9379 38.229 26.2588C37.6419 27.3654 37.3398 28.6009 37.3501 29.8536C37.2901 30.7919 37.4343 31.732 37.7727 32.6092C38.1111 33.4864 38.6357 34.2798 39.3103 34.9347C39.5624 35.1518 39.8315 35.3485 40.1149 35.5228C41.1349 36.1418 42.3181 36.438 43.5094 36.3726C44.4246 36.4048 45.3359 36.2365 46.1792 35.8795C46.8116 35.6083 47.3885 35.2224 47.8807 34.7415Z" fill="white"/>
<path d="M51.6979 26.1854C51.7656 28.6276 51.7656 30.3637 51.7656 32.8179C51.7656 35.879 51.7148 38.9425 51.6979 42H53.9536V34.4244C54.1693 34.7112 54.4078 34.9799 54.667 35.2281C55.5272 35.982 56.6362 36.3904 57.78 36.3743C58.5286 36.3779 59.2698 36.2259 59.9566 35.9278C60.6433 35.6297 61.2606 35.1921 61.7692 34.6428C62.9852 33.2014 63.6043 31.3498 63.4999 29.4669C63.4906 28.5216 63.3193 27.5848 62.9936 26.6973C62.6381 25.6559 61.959 24.7553 61.0554 24.1272C60.1519 23.4991 59.0711 23.1763 57.971 23.206C56.7213 23.1887 55.5133 23.655 54.5992 24.5074C54.3003 24.7796 54.0377 25.0893 53.818 25.4287L53.7203 23.4996H51.5943C51.6527 24.5074 51.6621 25.1869 51.6979 26.1854ZM53.9141 29.7078C53.916 29.1115 54.0035 28.5185 54.1738 27.9471C54.3655 27.1779 54.8029 26.4922 55.4196 25.9941C56.0362 25.496 56.7985 25.2126 57.5909 25.1869C58.2504 25.1949 58.8932 25.3963 59.4394 25.7661C59.9855 26.136 60.4112 26.658 60.6634 27.2675C61.0264 28.0789 61.1863 28.9666 61.1293 29.8536C61.1306 30.5168 61.0195 31.1755 60.8009 31.8016C60.6032 32.5312 60.174 33.1769 59.5778 33.6415C58.9816 34.1062 58.2507 34.3648 57.4949 34.3783C56.7223 34.3481 55.9806 34.0675 55.3815 33.5787C54.7824 33.09 54.3585 32.4197 54.1738 31.669C53.988 31.0322 53.9004 30.3709 53.9141 29.7078Z" fill="white"/>
<path d="M86.7757 23.4983L83.9583 30.3362L82.6844 33.6475L82.5967 33.826C82.2765 32.8781 81.8354 31.6953 81.4326 30.5713L78.8208 23.498H76.3965L81.4707 36.1293L78.9981 41.9996H81.2603L89.169 23.4983H86.7757Z" fill="white"/>
<path d="M74.7368 25.1359C74.0782 24.0331 72.3793 23.2566 70.3956 23.2566C68.9967 23.1978 67.6137 23.5704 66.4337 24.324V26.3095C67.4888 25.6105 68.7076 25.198 69.9703 25.1125C70.5881 25.082 71.2019 25.2259 71.7418 25.5278C72.2816 25.8297 72.7256 26.2773 73.0231 26.8196C73.1885 27.3592 73.2655 27.922 73.251 28.4862C72.6665 28.4572 72.0434 28.4334 71.4364 28.4334C69.991 28.3541 68.5451 28.5801 67.193 29.0969C66.5112 29.3603 65.9262 29.8256 65.5162 30.4305C65.1062 31.0355 64.8907 31.7513 64.8987 32.482C64.8879 33.0338 64.9962 33.5815 65.2163 34.0876C65.4363 34.5938 65.7629 35.0465 66.1738 35.415C66.93 35.987 67.8504 36.2999 68.7985 36.3074C69.9586 36.3656 71.1094 36.0731 72.1009 35.4679C72.5944 35.0705 73.0431 34.6206 73.4392 34.1262V36.1311H75.3693V27.9761C75.4104 26.9903 75.1924 26.0111 74.7368 25.1359ZM73.3064 30.4411C73.3287 31.0165 73.264 31.592 73.1146 32.1481C72.995 32.54 72.8031 32.9061 72.549 33.2275C72.2065 33.6546 71.7705 33.9974 71.2747 34.2294C70.7788 34.4614 70.2362 34.5764 69.6889 34.5656C68.6499 34.5656 67.2675 34.0247 67.2675 32.5415C67.2675 31.0688 68.9863 30.2918 69.9391 30.1331C70.4917 30.0512 71.0503 30.0166 71.6088 30.0298C72.1745 30.0298 72.7411 30.0468 73.3064 30.0946V30.4411Z" fill="white"/>
<defs>
<linearGradient id="paint0_linear_200_12040" x1="1.91951e-06" y1="60.0264" x2="52.9754" y2="-28.2272" gradientUnits="userSpaceOnUse">
<stop stop-color="#142942"/>
<stop offset="1" stop-color="#004891"/>
</linearGradient>
</defs>
</svg>
