<svg xmlns="http://www.w3.org/2000/svg" width="100" height="60"><g fill="none" fill-rule="evenodd"><rect width="100" height="60" fill="#000" rx="4"/><g fill="#FFF"><path d="M52.586 51.099c-.092.055-.184.111-.295.167a2.1 2.1 0 0 1-.848.168c-.277 0-.72-.019-1.162-.354-.627-.447-.904-1.211-.904-1.882 0-1.378 1.107-2.049 2.01-2.049.314 0 .646.074.904.242.443.298.553.67.609.876l-2.066.838-.682.056c.221 1.136.977 1.788 1.807 1.788.443 0 .775-.167 1.07-.316zm-.83-2.646c.166-.056.259-.112.259-.242 0-.354-.388-.764-.867-.764-.35 0-1.015.28-1.015 1.23 0 .149.019.316.019.465z"/><path d="M49.175 51.285h-1.55c.203-.261.24-.298.24-.466v-1.453c0-.69.019-1.677.037-2.608 0-.447.037-1.025.055-1.435h-.682l.664-.316h1.254c-.277.167-.369.204-.387.521-.074.69-.074 1.77-.074 3.037v2.05c0 .353.055.409.35.428.148.018.295.037.443.037zm-2.895-3.708c.202.168.626.522.626 1.211 0 .652-.369.97-.737 1.267-.111.112-.24.242-.24.429 0 .186.129.298.221.372l.314.243c.387.335.737.633.737 1.248 0 .838-.793 1.676-2.323 1.676-1.273 0-1.9-.614-1.9-1.266 0-.317.166-.783.683-1.08.553-.336 1.29-.392 1.678-.41-.13-.168-.258-.336-.258-.597a.7.7 0 0 1 .092-.354c-.092 0-.203.019-.277.019-.94 0-1.457-.708-1.457-1.398 0-.41.185-.857.572-1.192.498-.41 1.106-.484 1.567-.484h1.808l-.572.316h-.535zm-.628 3.95h-.203c-.073 0-.553.019-.922.15-.203.074-.756.279-.756.912s.609 1.08 1.55 1.08c.848 0 1.29-.41 1.29-.968 0-.447-.295-.69-.959-1.174m.258-1.677c.203-.205.222-.484.222-.652 0-.633-.388-1.64-1.107-1.64-.221 0-.48.113-.608.299a1.05 1.05 0 0 0-.203.652c0 .596.35 1.584 1.106 1.584.203 0 .443-.112.59-.243m-5.071 1.565c-1.402 0-2.14-1.099-2.14-2.105 0-1.174.941-2.161 2.288-2.161 1.29 0 2.102 1.025 2.102 2.105-.019 1.043-.83 2.161-2.25 2.161m1.088-.726c.203-.28.258-.634.258-.988 0-.782-.369-2.273-1.457-2.273-.295 0-.571.112-.793.298-.35.317-.405.708-.405 1.081 0 .876.424 2.329 1.493 2.329.35 0 .701-.168.904-.447m-5.772.726c-1.402 0-2.14-1.099-2.14-2.105 0-1.174.941-2.161 2.287-2.161 1.291 0 2.103 1.025 2.103 2.105-.019 1.043-.83 2.161-2.25 2.161m1.088-.726c.203-.28.258-.634.258-.988 0-.782-.369-2.273-1.457-2.273-.295 0-.59.112-.793.298-.35.317-.405.708-.405 1.081 0 .876.424 2.329 1.493 2.329.35 0 .701-.168.904-.447m-3.817.41-1.18.279c-.48.075-.904.149-1.365.149-2.287 0-3.154-1.695-3.154-3.018 0-1.62 1.236-3.111 3.338-3.111.443 0 .867.074 1.254.167.627.168.904.392 1.088.522l-.682.652-.295.075.203-.336c-.277-.28-.793-.782-1.77-.782-1.31 0-2.287 1.006-2.287 2.459 0 1.565 1.124 3.037 2.913 3.037.535 0 .793-.112 1.051-.205v-1.342l-1.254.075.664-.354h1.752l-.221.205c-.055.056-.074.074-.074.13 0 .075-.018.317-.018.392v1.006m22.978.186h-.627l-.922-4.024h.498l.756 3.614.774-3.614h.627l.812 3.614.737-3.614h.48l-.904 4.024h-.627l-.793-3.577zm6.048-2.795c0-.652-.295-.913-.94-.913-.516 0-.811.28-.885.746l-.461-.056c.092-.652.608-1.1 1.346-1.1.885 0 1.383.392 1.383 1.267v2.05c0 .354.019.596.074.782h-.461a1.7 1.7 0 0 1-.056-.428c-.184.28-.627.521-1.05.521-.738 0-1.31-.447-1.31-1.341 0-.82.59-1.285 1.42-1.285.406 0 .738.074.94.167zm0 .876c-.22-.112-.534-.205-.958-.205-.554 0-.96.28-.96.876 0 .614.37.931.886.931.46 0 .866-.335 1.032-.69zm1.347 1.919h.5v-5.738h-.5zm1.42 0h.5v-5.738h-.5zm2.692-.335c.48 0 .848-.299.922-1.044l.461.075c-.11.968-.664 1.416-1.383 1.416-.94 0-1.512-.708-1.512-2.143 0-1.285.48-2.068 1.457-2.068 1.033 0 1.438.857 1.438 2.03v.15h-2.434c.018 1.1.424 1.583 1.051 1.583m.904-1.993c-.019-.764-.314-1.341-.96-1.341-.626 0-.958.521-.995 1.341zm2.6 2.31a1.4 1.4 0 0 1-.48.075c-.59 0-.774-.298-.774-.876v-2.794h-.516v-.41h.516v-1.304l.461-.187v1.49h.793v.41h-.793v2.72c0 .392.074.485.387.485a.9.9 0 0 0 .406-.093z"/></g><path fill="#FFF" d="M41.747 15.501c1.197 1.927 1.902 4.112 2.16 6.363.07.6.113 1.203.113 1.81 0 2.898-.79 5.73-2.282 8.19a3.4 3.4 0 0 0-.48 2.1 3.43 3.43 0 0 0 3.414 3.121c1.21 0 2.311-.618 2.94-1.653a22.63 22.63 0 0 0 3.278-11.759c0-4.145-1.129-8.203-3.263-11.734a3.6 3.6 0 0 0-1.058-1.09 3.43 3.43 0 0 0-1.862-.565c-.552 0-.833.068-1.23.227-.406.163-.838.383-1.229.795-.387.41-.619.827-.781 1.26-.33.87-.291 2.019.28 2.935"/><path fill="#FFF" d="M32.532 20.708c4.785 2.561 7.87 7.446 8.236 13.092v-.005a3.4 3.4 0 0 1 .48-2.09 15.76 15.76 0 0 0 2.282-8.19c0-.607-.042-1.21-.111-1.81-1.967-2.713-4.705-5.09-7.806-6.752a3.3 3.3 0 0 0-1.536-.386c-1.21 0-2.311.659-2.88 1.724a3.267 3.267 0 0 0 1.335 4.417m21.945 15.09a28.14 28.14 0 0 0 2.707-12.123c0-1.458-.1-2.522-.174-3.194-2.35-3.766-5.76-7.13-9.747-9.602l-.051-.035q.027.016.05.035l.05.033c.277.2.51.41.755.726.06.078.143.187.212.301a22.67 22.67 0 0 1 3.217 13.214c1.713 3.262 2.647 6.97 2.647 10.86 0 .31.007.806 0 1.168a3.9 3.9 0 0 1 .265-1.209 1 1 0 0 1 .07-.174z"/><path fill="#FFF" d="M64.061 31.632c.586-2.581.896-5.24.896-7.957 0-2.687-.31-5.384-.893-7.959a35.6 35.6 0 0 0-2.544-7.335 3.63 3.63 0 0 0-3.263-2.06 3.6 3.6 0 0 0-1.546.35 3.62 3.62 0 0 0-1.709 4.811 28.2 28.2 0 0 1 2.738 12.193c0 4.24-.91 8.321-2.708 12.123-.028.058-.343.73-.343 1.508 0 .218.025.545.093.836a3.595 3.595 0 0 0 3.506 2.81 3.62 3.62 0 0 0 3.166-1.872c.718-1.35 1.445-3.126 2.076-5.414.208-.69.374-1.335.531-2.034"/></g></svg>