<svg width="100" height="60" viewBox="0 0 100 60" fill="none" xmlns="http://www.w3.org/2000/svg">
<rect width="100" height="60" fill="#FF7A59"/>
<path d="M17.8877 21.851V28.4122H11.8599V21.851H9V37.5137H11.8606V31.1653H17.887V37.5137H20.7484V21.851H17.8877ZM29.9048 32.4512C29.9048 33.079 29.6554 33.6811 29.2115 34.125C28.7676 34.5689 28.1655 34.8183 27.5377 34.8183C26.9099 34.8183 26.3078 34.5689 25.8639 34.125C25.42 33.6811 25.1706 33.079 25.1706 32.4512V25.742H22.457V32.4512C22.457 33.7973 22.9918 35.0884 23.9436 36.0402C24.8955 36.9921 26.1865 37.5268 27.5326 37.5268C28.8788 37.5268 30.1698 36.9921 31.1216 36.0402C32.0735 35.0884 32.6083 33.7973 32.6083 32.4512V25.742H29.9048V32.4512ZM50.0114 26.4334C50.0114 25.0577 50.921 24.6218 51.9174 24.6218C52.721 24.6218 53.7817 25.2334 54.4761 25.9751L56.2529 23.8801C55.3657 22.6801 53.5665 21.851 52.0932 21.851C49.1489 21.851 47.0199 23.5751 47.0199 26.4334C47.0199 31.7366 53.5014 30.0535 53.5014 33.0218C53.5014 33.9369 52.6126 34.7451 51.5954 34.7451C49.9905 34.7451 49.4702 33.9609 48.7332 33.131L46.7605 35.1818C48.0225 36.7302 49.5786 37.5168 51.4421 37.5168C54.2392 37.5168 56.489 35.7717 56.489 33.0435C56.489 27.1565 50.0067 28.9859 50.0067 26.4334M90.1099 35.0115C88.5066 35.0115 88.0506 34.3178 88.0506 33.2556V28.5524H90.5435V26.1694H88.0506V23.0254L85.2991 24.2602V33.8401C85.2991 36.2904 86.9899 37.5253 89.3079 37.5253C89.6717 37.5315 90.0356 37.502 90.3933 37.4386L91.0645 34.9673C90.7618 34.9882 90.4142 35.0091 90.1099 35.0091M40.2341 25.8202C38.8901 25.8202 37.9517 26.2104 37.0444 27.1V21.9446H34.327V31.5005C34.327 35.0773 36.9128 37.5284 39.8191 37.5284C43.0428 37.5284 45.8787 35.0339 45.8787 31.6755C45.8787 28.3588 43.2689 25.8226 40.2341 25.8226M40.217 34.7931C39.812 34.7931 39.411 34.7134 39.0368 34.5584C38.6627 34.4034 38.3227 34.1762 38.0363 33.8899C37.7499 33.6035 37.5228 33.2635 37.3678 32.8893C37.2128 32.5152 37.133 32.1141 37.133 31.7091C37.133 31.3041 37.2128 30.9031 37.3678 30.529C37.5228 30.1548 37.7499 29.8148 38.0363 29.5284C38.3227 29.2421 38.6627 29.0149 39.0368 28.8599C39.411 28.7049 39.812 28.6251 40.217 28.6251C41.035 28.6251 41.8194 28.9501 42.3978 29.5284C42.9761 30.1068 43.301 30.8912 43.301 31.7091C43.301 32.5271 42.9761 33.3115 42.3978 33.8899C41.8194 34.4682 41.035 34.7931 40.217 34.7931ZM69.7463 31.533C69.7463 28.1684 66.9166 25.6801 63.6867 25.6801C60.7812 25.6801 58.1946 28.1304 58.1946 31.708V41.2693H60.912V36.107C61.8178 36.995 62.7577 37.3867 64.1001 37.3867C67.135 37.3867 69.7463 34.8504 69.7463 31.533ZM67.1729 31.499C67.1729 32.3169 66.848 33.1013 66.2696 33.6797C65.6913 34.258 64.9068 34.583 64.0889 34.583C63.271 34.583 62.4865 34.258 61.9082 33.6797C61.3298 33.1013 61.0049 32.3169 61.0049 31.499C61.0049 30.681 61.3298 29.8966 61.9082 29.3182C62.4865 28.7399 63.271 28.415 64.0889 28.415C64.9068 28.415 65.6913 28.7399 66.2696 29.3182C66.848 29.8966 67.1729 30.681 67.1729 31.499Z" fill="white"/>
<path d="M78.5272 25.5485V22.8179C78.8881 22.6492 79.1936 22.3816 79.4082 22.0461C79.6229 21.7105 79.7378 21.321 79.7396 20.9227V20.86C79.7396 19.6987 78.7982 18.7572 77.6369 18.7572H77.5742C77.0165 18.7572 76.4817 18.9788 76.0874 19.3731C75.693 19.7674 75.4715 20.3023 75.4715 20.86V20.9227C75.4733 21.321 75.5883 21.7105 75.8029 22.0461C76.0175 22.3816 76.323 22.6492 76.6839 22.8179V25.5485C75.6468 25.7073 74.6701 26.1373 73.8527 26.7949L66.3639 20.9621C66.4173 20.7694 66.4452 20.5712 66.4483 20.3722C66.4492 19.9036 66.3111 19.4452 66.0515 19.0551C65.7919 18.665 65.4224 18.3606 64.9898 18.1805C64.5571 18.0004 64.0808 17.9526 63.6211 18.0433C63.1613 18.1339 62.7387 18.3589 62.4068 18.6897C62.0749 19.0205 61.8486 19.4423 61.7564 19.9018C61.6643 20.3613 61.7105 20.8377 61.8892 21.2709C62.0679 21.7041 62.3711 22.0746 62.7603 22.3355C63.1496 22.5964 63.6075 22.736 64.0761 22.7366C64.4861 22.7347 64.8884 22.6252 65.2429 22.4192L72.617 28.1575C71.9546 29.1583 71.609 30.3354 71.6253 31.5355C71.6416 32.7355 72.019 33.9028 72.7084 34.8852L70.4656 37.1289C70.2843 37.0709 70.0954 37.0401 69.905 37.0375C69.5204 37.0378 69.1444 37.1521 68.8247 37.366C68.505 37.5799 68.2559 37.8838 68.1088 38.2392C67.9618 38.5947 67.9234 38.9857 67.9985 39.363C68.0736 39.7402 68.2589 40.0868 68.5309 40.3588C68.8029 40.6308 69.1494 40.816 69.5266 40.8911C69.9039 40.9663 70.295 40.9279 70.6504 40.7808C71.0058 40.6337 71.3097 40.3846 71.5236 40.0649C71.7375 39.7452 71.8518 39.3693 71.8521 38.9846C71.8496 38.7943 71.8189 38.6054 71.7608 38.4241L73.9796 36.2045C74.7032 36.7615 75.5446 37.1455 76.4395 37.3271C77.3344 37.5087 78.259 37.4831 79.1424 37.2522C80.0259 37.0213 80.8448 36.5912 81.5363 35.9949C82.2279 35.3986 82.7738 34.6519 83.1322 33.8121C83.4906 32.9722 83.6521 32.0615 83.6041 31.1496C83.5562 30.2378 83.3002 29.3489 82.8557 28.5513C82.4112 27.7537 81.79 27.0683 81.0397 26.5478C80.2895 26.0274 79.43 25.6855 78.5272 25.5485ZM77.6075 34.5291C77.1974 34.5404 76.7893 34.4694 76.4071 34.3202C76.025 34.1711 75.6766 33.9469 75.3825 33.6608C75.0885 33.3748 74.8548 33.0327 74.6952 32.6548C74.5356 32.2769 74.4534 31.8708 74.4534 31.4606C74.4534 31.0504 74.5356 30.6443 74.6952 30.2664C74.8548 29.8885 75.0885 29.5464 75.3825 29.2604C75.6766 28.9743 76.025 28.7501 76.4071 28.601C76.7893 28.4518 77.1974 28.3808 77.6075 28.3921C78.4023 28.4199 79.1552 28.7551 79.7078 29.3271C80.2603 29.899 80.5693 30.6631 80.5697 31.4583C80.5701 32.2536 80.2619 33.018 79.7099 33.5905C79.158 34.163 78.4053 34.4989 77.6106 34.5276" fill="white"/>
</svg>
