<svg width="100" height="60" viewBox="0 0 100 60" fill="none" xmlns="http://www.w3.org/2000/svg">
<path d="M24.7968 51.5627C25.8551 52.621 27.2898 53.2164 28.7864 53.2185H50.8112C58.8904 53.2185 65.4647 51.2221 70.0369 47.118C74.6434 42.9831 76.9273 36.9709 76.9273 29.5706C76.9273 25.3429 76.1139 19.435 72.3171 14.5512C68.446 9.57169 61.7649 6.02197 50.8112 6.02197H28.7878C27.2905 6.02299 25.8548 6.61823 24.7961 7.67697C23.7374 8.73571 23.1421 10.1714 23.1411 11.6686L23.1411 47.5704L23.1411 47.5731C23.1431 49.0697 23.7386 50.5045 24.7968 51.5627Z" fill="white"/>
<path d="M50.8111 51.2185H28.789C27.8219 51.2172 26.8948 50.8324 26.2109 50.1485C25.5271 49.4647 25.1423 48.5376 25.141 47.5704V11.67C25.1417 10.7027 25.5262 9.77521 26.2102 9.09121C26.8942 8.40721 27.8217 8.02266 28.789 8.022H50.8111C71.7947 8.022 74.9272 21.5237 74.9272 29.5707C74.9272 43.5308 66.3623 51.2185 50.8111 51.2185ZM28.789 9.41975C28.1924 9.42041 27.6204 9.6577 27.1986 10.0796C26.7767 10.5014 26.5394 11.0734 26.5388 11.67V47.5704C26.5394 48.1671 26.7767 48.739 27.1986 49.1609C27.6204 49.5828 28.1924 49.8201 28.789 49.8207H50.8111C65.4627 49.8207 73.5295 42.6337 73.5295 29.5707C73.5295 12.0368 59.2967 9.41975 50.8111 9.41975H28.789Z" fill="black"/>
<path d="M38.7493 15.1495V46.4528H52.3798C64.7588 46.4528 70.1268 39.4566 70.1268 29.6004C70.1268 20.1482 64.7588 12.8001 52.3798 12.8001H41.1111C40.4868 12.8001 39.888 13.0473 39.4454 13.4875C39.0028 13.9278 38.7525 14.5253 38.7493 15.1495Z" fill="#CC0066"/>
<path d="M43.9289 25.5113C44.3689 25.5078 44.8061 25.5824 45.2201 25.7318C45.6086 25.8766 45.9606 26.105 46.251 26.401C46.5549 26.7166 46.7881 27.0934 46.935 27.5063C47.1088 28.0072 47.1927 28.535 47.1829 29.0651C47.1874 29.5556 47.1198 30.0441 46.9821 30.5149C46.8594 30.9337 46.6528 31.3233 46.3749 31.6599C46.0973 31.9856 45.7501 32.2447 45.3588 32.4182C44.907 32.6129 44.4183 32.7076 43.9264 32.6958H40.8979V25.5088L43.9289 25.5113ZM43.8174 31.3575C44.0432 31.3574 44.2675 31.3206 44.4815 31.2485C44.6981 31.1721 44.8941 31.0465 45.054 30.8817C45.2349 30.6905 45.3719 30.4621 45.4555 30.2126C45.5644 29.8886 45.6156 29.548 45.6067 29.2064C45.6109 28.873 45.576 28.5403 45.5026 28.2151C45.44 27.9458 45.3219 27.6925 45.1556 27.4716C44.9879 27.2597 44.7674 27.0956 44.5162 26.9957C44.2041 26.8763 43.8714 26.8199 43.5373 26.8297H42.4766V31.3575H43.8174Z" fill="white"/>
<path d="M53.6859 25.5112V26.8396H49.9685V28.3836H53.3786V29.6103H49.9511V31.3575H53.7528V32.6834H48.3724V25.4964L53.6859 25.5112Z" fill="white"/>
<path d="M59.0142 25.5113L61.6982 32.6983H60.0575L59.5148 31.0998H56.8308L56.2682 32.6983H54.6772L57.4033 25.5113H59.0142ZM59.1034 29.9152L58.1988 27.2807H58.179L57.2447 29.9152H59.1034Z" fill="white"/>
<path d="M64.2012 25.5236V31.3749H67.6312V32.7032H62.6226V25.5162L64.2012 25.5236Z" fill="white"/>
<path d="M32.5907 34.5347C33.2842 34.5347 33.9492 34.8101 34.4395 35.3005C34.9299 35.7908 35.2053 36.4558 35.2053 37.1493V46.4527C33.8191 46.4527 32.4897 45.9021 31.5095 44.9219C30.5293 43.9417 29.9786 42.6123 29.9786 41.226V37.1468C29.9793 36.4542 30.2547 35.7902 30.7444 35.3005C31.2341 34.8108 31.8982 34.5353 32.5907 34.5347Z" fill="black"/>
<path d="M32.5907 32.5521C34.496 32.5521 36.0405 31.0075 36.0405 29.1023C36.0405 27.197 34.496 25.6525 32.5907 25.6525C30.6855 25.6525 29.141 27.197 29.141 29.1023C29.141 31.0075 30.6855 32.5521 32.5907 32.5521Z" fill="black"/>
</svg>
