<svg width="100" height="60" viewBox="0 0 100 60" fill="none" xmlns="http://www.w3.org/2000/svg">
<g clip-path="url(#clip0_517_11488)">
<path d="M50.8112 51.2185H28.7891C27.822 51.2171 26.8949 50.8324 26.211 50.1485C25.5272 49.4647 25.1424 48.5375 25.1411 47.5704V11.67C25.1418 10.7027 25.5263 9.77518 26.2103 9.09118C26.8943 8.40719 27.8218 8.02263 28.7891 8.02197H50.8112C71.7948 8.02197 74.9273 21.5237 74.9273 29.5706C74.9273 43.5308 66.3624 51.2185 50.8112 51.2185ZM28.7891 9.41973C28.1925 9.42038 27.6205 9.65767 27.1987 10.0795C26.7768 10.5014 26.5395 11.0734 26.5389 11.67V47.5704C26.5395 48.167 26.7768 48.739 27.1987 49.1609C27.6205 49.5828 28.1925 49.82 28.7891 49.8207H50.8112C65.4628 49.8207 73.5296 42.6337 73.5296 29.5706C73.5296 12.0368 59.2968 9.41973 50.8112 9.41973H28.7891Z" fill="black"/>
<path d="M38.7493 15.1495V46.4527H52.3798C64.7589 46.4527 70.1268 39.4565 70.1268 29.6003C70.1268 20.1482 64.7589 12.8 52.3798 12.8H41.1111C40.4868 12.8 39.888 13.0472 39.4454 13.4874C39.0028 13.9277 38.7525 14.5252 38.7493 15.1495Z" fill="#CC0066"/>
<path d="M43.9289 25.5113C44.369 25.5078 44.8061 25.5825 45.2201 25.7318C45.6086 25.8766 45.9606 26.105 46.251 26.401C46.5549 26.7167 46.7881 27.0935 46.935 27.5063C47.1088 28.0073 47.1927 28.535 47.1829 29.0651C47.1874 29.5556 47.1198 30.0441 46.9821 30.5149C46.8594 30.9338 46.6528 31.3233 46.375 31.6599C46.0973 31.9856 45.7501 32.2447 45.3589 32.4182C44.907 32.613 44.4183 32.7076 43.9264 32.6958H40.8979V25.5088L43.9289 25.5113ZM43.8174 31.3575C44.0432 31.3574 44.2675 31.3206 44.4815 31.2485C44.6981 31.1721 44.8941 31.0465 45.054 30.8817C45.2349 30.6905 45.3719 30.4621 45.4555 30.2126C45.5645 29.8886 45.6156 29.5481 45.6067 29.2064C45.6109 28.873 45.576 28.5403 45.5026 28.2151C45.4401 27.9458 45.3219 27.6925 45.1556 27.4716C44.9879 27.2597 44.7674 27.0956 44.5162 26.9958C44.2041 26.8764 43.8714 26.8199 43.5373 26.8297H42.4766V31.3575H43.8174Z" fill="white"/>
<path d="M53.686 25.5112V26.8396H49.9686V28.3835H53.3787V29.6103H49.9512V31.3575H53.7529V32.6834H48.3726V25.4963L53.686 25.5112Z" fill="white"/>
<path d="M59.0142 25.5112L61.6982 32.6983H60.0576L59.5149 31.0998H56.8309L56.2683 32.6983H54.6772L57.4034 25.5112H59.0142ZM59.1035 29.9151L58.1989 27.2807H58.1791L57.2447 29.9151H59.1035Z" fill="white"/>
<path d="M64.2012 25.5236V31.3748H67.6312V32.7031H62.6226V25.5161L64.2012 25.5236Z" fill="white"/>
<path d="M32.5906 34.5347C33.2841 34.5347 33.9491 34.8101 34.4394 35.3005C34.9298 35.7908 35.2052 36.4558 35.2052 37.1493V46.4527C33.819 46.4527 32.4896 45.9021 31.5094 44.9219C30.5292 43.9417 29.9785 42.6122 29.9785 41.226V37.1468C29.9792 36.4542 30.2546 35.7902 30.7443 35.3005C31.234 34.8107 31.8981 34.5353 32.5906 34.5347Z" fill="black"/>
<path d="M32.5906 32.5521C34.4959 32.5521 36.0404 31.0076 36.0404 29.1024C36.0404 27.1971 34.4959 25.6526 32.5906 25.6526C30.6854 25.6526 29.1409 27.1971 29.1409 29.1024C29.1409 31.0076 30.6854 32.5521 32.5906 32.5521Z" fill="black"/>
</g>
<defs>
<clipPath id="clip0_517_11488">
<rect width="50" height="43.3086" fill="white" transform="translate(25 8)"/>
</clipPath>
</defs>
</svg>
