<svg xmlns="http://www.w3.org/2000/svg" width="182.561" height="59.153" viewBox="0 0 182.561 59.153"><defs><style>.a,.b{fill:#ed1c24;}.b{fill-rule:evenodd;}</style></defs><g transform="translate(-53.97 -160.057)"><path class="a" d="M212.79,166.04a1.756,1.756,0,0,1,1.41-1.03q10.77-2.46,21.54-4.93a.939.939,0,0,1,.55.04c.26.11.31.42.15.71-.43.81-.86,1.62-1.29,2.42l-7.92,14.82a1.574,1.574,0,0,1-1.83.94,1.917,1.917,0,0,1-.77-.41c-1.88-1.8-3.75-3.61-5.65-5.45q8.025-5.955,16.04-11.89a.076.076,0,0,1-.02-.04q-8.85,5.145-17.71,10.28c-1.39-1.35-2.78-2.68-4.14-4.04a2.676,2.676,0,0,1-.38-.71,1.288,1.288,0,0,1-.06-.21C212.74,166.39,212.77,166.22,212.79,166.04Z"/><path class="a" d="M217.92,178.63a1.105,1.105,0,0,1-1.65-.98c-.08-1.55-.13-3.1-.2-4.65-.01-.16-.01-.32-.02-.54,1.65,1.57,3.26,3.11,4.9,4.68-.15.08-.26.16-.37.21"/><path class="a" d="M154.53,217.21V187.7a6.761,6.761,0,0,1,1.91-5.16,7.349,7.349,0,0,1,5.27-1.81h8.65a7.531,7.531,0,0,1,4.51,1.15,6.52,6.52,0,0,1,2.73,5.5v13.21a7.345,7.345,0,0,1-1.73,5.08,6.893,6.893,0,0,1-5.31,2.57H159.1v8.96h-4.57Zm4.61-16.26a2.931,2.931,0,0,0,.79,1.95,2.784,2.784,0,0,0,1.69.79h8.82a.853.853,0,0,0,.32-.05,2.6,2.6,0,0,0,2.22-2.16,2.067,2.067,0,0,0,.05-.53V187.44a2.615,2.615,0,0,0-.5-1.52,2.812,2.812,0,0,0-1.5-.63h-8.66q-3.27,0-3.27,2.79v12.35a1.523,1.523,0,0,0,.04.52"/><path class="a" d="M179.79,200.85v-3.3a9.987,9.987,0,0,1,1.63-5.98,6.242,6.242,0,0,1,5.41-2.57h11.36v-1.86a1.83,1.83,0,0,0-.53-1.3,1.622,1.622,0,0,0-1.21-.56H179.78v-4.56h16.3q5.4,0,6.55,5.09a10.87,10.87,0,0,1,.1,1.26v14.15a6.531,6.531,0,0,1-1,3.51q-2.205,3.51-5.71,3.51h-9.17a6.642,6.642,0,0,1-3.98-1.42,7.37,7.37,0,0,1-2.67-3.36,7.729,7.729,0,0,1-.41-2.61m5.78,2.41a5.872,5.872,0,0,0,2.59.42h6.23q3.795,0,3.8-2.73v-4.46q0-2.625-3.22-2.94h-7.34q-3.27.36-3.27,2.94v4.46a2.352,2.352,0,0,0,1.21,2.31"/><path class="a" d="M204.96,217.21v-4.56h15.93c1.51-.24,2.26-1.22,2.26-2.94v-1.47H211.64a6.592,6.592,0,0,1-6.68-6.71V180.72h4.56v19.55q0,3.405,3.28,3.41h7.18q3.165,0,3.17-2.94V180.71l4.58.01-.02,28.72a8.228,8.228,0,0,1-1.78,5.61,6.971,6.971,0,0,1-5.45,2.15H204.96Z"/><path class="b" d="M53.97,180.76H70.12v3.49H67.4a1.594,1.594,0,0,0-1.6,1.58V203.1a1.594,1.594,0,0,0,1.6,1.58h2.72v3.5H53.97v-3.5h3.12a1.586,1.586,0,0,0,1.59-1.58V185.83a1.592,1.592,0,0,0-1.59-1.58H53.97v-3.49Z"/><path class="b" d="M72.86,180.76H87.14l3.64,8.41,3.61,8.41L98,189.17l3.62-8.41h13.65v3.49h-3.05a1.611,1.611,0,0,0-1.61,1.59v17.39a1.6,1.6,0,0,0,1.61,1.59h3.05v3.36H98.95l-.02-3.41h2.25s2,.31,2.12-1.6l.08-16.07-9.05,21.06v.03H91.07v-.03L82.02,187.1l.08,16.07c.12,1.91,2.12,1.6,2.12,1.6h2.25l-.02,3.41H72.86v-3.36H75.9a1.6,1.6,0,0,0,1.6-1.59V185.84a1.6,1.6,0,0,0-1.6-1.59H72.86v-3.49Z"/><path class="b" d="M147.8,208.18H118.05V204.8h3.01a1.6,1.6,0,0,0,1.6-1.59V185.82a1.6,1.6,0,0,0-1.6-1.59h-3.01v-3.5H147.8v10.75h-3.99a19.792,19.792,0,0,0-1.09-5.22c-.88-2.03-4.87-1.88-4.87-1.88h-7.98l-.05,7.86c5.23.12,6.63.39,6.27-4.6l3.95-.02.01,12.97h-3.97s0-.7-.07-2.91c-.07-2.39-3.81-1.85-6.16-1.79v8.68l8.61.03c3.38-.23,4.35-1.91,4.89-3.55a17.654,17.654,0,0,0,.45-4.62l3.98.01v11.74Z"/></g></svg>