<svg width="100" height="60" viewBox="0 0 100 60" fill="none" xmlns="http://www.w3.org/2000/svg">
<path d="M11.55 24.9719H14.01V36.0259H11.55V24.9719ZM17.107 19.9619H60.915V21.7089H17.107V19.9619ZM35.535 27.1209C35.123 27.0809 34.646 27.0009 33.931 27.0009C31.863 27.0009 31.045 28.5179 31.045 30.5789C31.045 33.2149 32.087 34.1269 33.707 34.1269C34.445 34.1269 35.059 33.8219 35.535 33.5829V27.1209ZM33.217 40.5899C31.66 40.5899 30.231 40.2599 29.351 39.9969L29.727 37.8969C30.667 38.1109 32.037 38.3199 32.803 38.3199C34.445 38.3199 35.549 38.0329 35.549 36.0929C35.587 36.0529 35.549 35.5399 35.549 35.4829C35.047 35.8919 34.332 36.2129 33.579 36.2129C31.223 36.2129 28.6 35.5649 28.6 30.5639C28.6 26.7939 31.021 24.7879 33.955 24.7879C35.123 24.7879 36.39 24.9579 37.995 25.2219V36.3699C37.995 39.4679 35.401 40.5899 33.217 40.5899ZM45.059 26.7389C44.005 26.7389 42.914 27.5039 42.801 29.3639H46.901C46.915 27.6629 46.111 26.7389 45.059 26.7389ZM42.749 31.2499C42.763 33.6629 44.155 34.0069 46 34.0069C46.714 34.0069 47.969 33.9019 48.782 33.7169L49.159 35.7879C48.346 36.0669 46.789 36.2119 45.547 36.2119C42.335 36.2119 40.289 35.0219 40.289 30.6819C40.289 26.1859 42.387 24.7089 45.285 24.7089C48.255 24.7089 49.459 26.8179 49.459 30.2739V31.2499H42.749ZM64.011 24.9719H66.483V36.0259H64.011V24.9719ZM76.517 27.3599C75.842 27.0809 75.201 26.8819 74.171 26.8819C72.592 26.8819 71.39 27.8469 71.39 30.4459C71.39 32.9379 72.003 34.0459 74.713 34.0459C75.553 34.0459 76.118 33.8879 76.797 33.7819L77.134 35.8519C76.33 36.0259 75.655 36.2119 74.54 36.2119C70.411 36.2119 68.853 34.5339 68.853 30.4039C68.853 26.8969 70.914 24.6919 74.171 24.6919C75.629 24.6919 76.557 24.9969 77.234 25.3949L76.517 27.3599ZM83.57 26.8179C81.55 26.8179 81.01 28.5999 81.01 30.5249C81.01 32.5849 81.625 34.1269 83.605 34.1269C85.612 34.1269 86.101 32.5029 86.101 30.4979C86.101 28.6139 85.612 26.8179 83.57 26.8179ZM83.456 36.2739C80.294 36.2739 78.527 34.1499 78.527 30.6039C78.527 26.8819 80.573 24.6919 83.62 24.6919C87.045 24.6919 88.637 26.8179 88.637 30.4979C88.637 34.3109 86.417 36.2739 83.456 36.2739ZM14.197 20.8369C14.1954 21.2111 14.0462 21.5695 13.7818 21.8343C13.5174 22.0991 13.1592 22.2488 12.785 22.2509C12.4084 22.2509 12.0472 22.1013 11.7809 21.835C11.5146 21.5687 11.365 21.2075 11.365 20.8309C11.365 20.4543 11.5146 20.0931 11.7809 19.8268C12.0472 19.5605 12.4084 19.4109 12.785 19.4109C13.559 19.4109 14.197 20.0499 14.197 20.8369ZM66.669 20.8369C66.6674 21.2128 66.5168 21.5727 66.2503 21.8378C65.9837 22.1029 65.6229 22.2514 65.247 22.2509C64.463 22.2509 63.837 21.6129 63.837 20.8369C63.837 20.4613 63.9862 20.1012 64.2517 19.8356C64.5173 19.5701 64.8774 19.4209 65.253 19.4209C65.6285 19.4209 65.9887 19.5701 66.2543 19.8356C66.5198 20.1012 66.669 20.4613 66.669 20.8369ZM23.03 24.6689C21.475 24.6689 20.295 25.6039 19.594 26.1309V26.1049C19.576 26.1349 19.546 26.1549 19.519 26.1839C19.281 25.2979 18.643 25.0389 18.068 24.9719H17.11V36.0259H19.594V27.9259C20.083 27.6479 21.212 26.9759 22.242 26.9759C23.632 26.9759 23.919 27.7029 23.919 29.3099V36.0259H26.379V29.0059C26.379 26.7389 26.179 24.6689 23.03 24.6689ZM57.581 24.6689C56.027 24.6689 54.837 25.6039 54.146 26.1309V26.1049C54.116 26.1349 54.09 26.1549 54.069 26.1839C53.821 25.2979 53.194 25.0389 52.608 24.9719H51.662V36.0259H54.146V27.9259C54.634 27.6479 55.762 26.9759 56.793 26.9759C58.185 26.9759 58.463 27.7029 58.463 29.3099V36.0259H60.931V29.0059C60.931 26.7389 60.72 24.6689 57.581 24.6689Z" fill="#263779"/>
</svg>
