<svg width="100" height="60" viewBox="0 0 100 60" fill="none" xmlns="http://www.w3.org/2000/svg">
<rect width="100" height="60" fill="#12438C"/>
<path d="M63.4982 34.2857H67.3443C67.4542 34.2857 67.7106 34.2491 67.8205 34.2491C68.5531 34.1026 69.1758 33.4432 69.1758 32.5275C69.1758 31.6484 68.5531 30.989 67.8205 30.8059C67.7106 30.7692 67.4908 30.7692 67.3443 30.7692H63.4982V34.2857Z" fill="white"/>
<path d="M66.9047 10C63.2417 10 60.238 12.967 60.238 16.6667V23.5897H69.652C69.8717 23.5897 70.1282 23.5897 70.3113 23.6264C72.4359 23.7363 74.0109 24.8352 74.0109 26.7399C74.0109 28.2418 72.9487 29.5238 70.9706 29.7802V29.8535C73.1318 30 74.7802 31.2088 74.7802 33.0769C74.7802 35.0916 72.9487 36.4103 70.5311 36.4103H60.2014V49.9634H69.9816C73.6446 49.9634 76.6483 46.9963 76.6483 43.2967V10H66.9047Z" fill="white"/>
<path d="M68.6996 27.1795C68.6996 26.3004 68.0769 25.7143 67.3443 25.6044C67.2711 25.6044 67.0879 25.5678 66.978 25.5678H63.4982V28.7912H66.978C67.0879 28.7912 67.3077 28.7912 67.3443 28.7546C68.0769 28.6447 68.6996 28.0586 68.6996 27.1795Z" fill="white"/>
<path d="M30.0549 10C26.3919 10 23.3882 12.967 23.3882 16.6667V33.1136C25.2563 34.0293 27.1977 34.6154 29.1391 34.6154C31.4468 34.6154 32.6922 33.2234 32.6922 31.3187V23.5531H38.4065V31.2821C38.4065 34.2857 36.5384 36.7399 30.2014 36.7399C26.3552 36.7399 23.3516 35.8974 23.3516 35.8974V49.9267H33.1318C36.7948 49.9267 39.7985 46.9597 39.7985 43.2601V10H30.0549Z" fill="white"/>
<path d="M48.4797 10C44.8167 10 41.813 12.967 41.813 16.6667V25.3846C43.498 23.956 46.4284 23.0403 51.1537 23.2601C53.6811 23.37 56.3917 24.0659 56.3917 24.0659V26.8864C55.0364 26.1905 53.4247 25.5678 51.3368 25.4212C47.7471 25.1648 45.5859 26.9231 45.5859 30C45.5859 33.1136 47.7471 34.8718 51.3368 34.5788C53.4247 34.4322 55.0364 33.7729 56.3917 33.1136V35.9341C56.3917 35.9341 53.7178 36.63 51.1537 36.7399C46.4284 36.9597 43.498 36.044 41.813 34.6154V50H51.5932C55.2562 50 58.2599 47.033 58.2599 43.3333V10H48.4797Z" fill="white"/>
</svg>
