<?xml version="1.0" encoding="UTF-8"?>
<svg width="296px" height="113px" viewBox="0 0 296 113" version="1.1" xmlns="http://www.w3.org/2000/svg" xmlns:xlink="http://www.w3.org/1999/xlink">
    <!-- Generator: Sketch 52.2 (67145) - http://www.bohemiancoding.com/sketch -->
    <title>khalti logo-01</title>
    <desc>Created with Sketch.</desc>
    <g id="Page-1" stroke="none" stroke-width="1" fill="none" fill-rule="evenodd">
        <g id="khalti-logo-01" transform="translate(2.000000, 0.000000)">
            <g id="XMLID_486_" transform="translate(18.000000, 0.000000)" fill="#5D2E8E" fill-rule="nonzero">
                <g id="XMLID_487_">
                    <path d="M114.4,2.2 C113.2,0.9 111.7,0.2 109.8,0.2 L6.2,0.2 C4.3,0.2 2.7,0.9 1.6,2.2 C0.4,3.5 -0.1,5.1 0.2,7 L7.6,78.1 C8,82.3 11.5,87.5 15,89.7 L51.6,111.3 C53.3,112.3 55.7,112.9 58.1,112.9 C60.6,112.9 62.9,112.3 64.6,111.3 L101.2,89.7 C104.8,87.7 108.1,82.3 108.6,78.1 L116,7 C116,5.3 115.6,3.5 114.4,2.2 Z M84.4,81 C81.4,83 77.4,82.2 75.4,79.3 L56.7,51.8 L45.4,63.1 L45.4,75.6 C45.4,79.2 42.5,82.1 38.9,82.1 C35.3,82.1 32.4,79.2 32.4,75.6 L32.4,21.4 C32.4,17.8 35.3,14.9 38.9,14.9 C42.5,14.9 45.4,17.8 45.4,21.4 L45.4,44.7 L73.3,16.8 C75.8,14.3 80,14.3 82.5,16.8 C85,19.3 85,23.5 82.5,26 L66,42.4 C66,42.5 66.1,42.5 66.1,42.6 L86.1,71.9 C88.1,74.9 87.3,78.9 84.4,81 Z" id="XMLID_488_"></path>
                </g>
            </g>
            <g id="XMLID_483_" transform="translate(131.000000, 14.000000)" fill="#5D2E8E">
                <g id="XMLID_484_">
                    <path d="M163,12 L163,57.3 C163,63.4 158,68.4 151.9,68.4 L0.8,68.4 L1.2,63.6 L151.9,63.6 C155.3,63.6 158.2,60.7 158.2,57.3 L158.2,11.8 C158.2,8.4 155.3,5.5 151.9,5.5 L7.3,5.5 L7.7,0.7 L151.9,0.7 C158,0.7 163,5.7 163,12 Z" id="XMLID_485_"></path>
                </g>
            </g>
            <g id="XMLID_479_" transform="translate(147.000000, 31.000000)" fill="#5D2E8E">
                <g id="XMLID_482_-link">
                    <path d="M3.9,5.3 C3.9,4.6 3.5,4.3 2.9,4.3 L0.9,4.3 L0.9,0.2 L5.5,0.2 C7.7,0.2 8.7,0.8 8.7,3.1 L8.7,19.2 L10.9,19.2 C11.8,19.2 12.9,18.9 13.5,18.2 L19.3,10.2 L24.7,10.2 L18,19.3 C16.8,20.7 16.1,21.2 16.1,21.2 L16.1,21.3 C16.1,21.3 17,21.6 17.7,23.2 L21.3,29.9 C21.7,30.6 22.2,30.9 23.5,30.9 L24.9,30.9 L24.9,34.9 L21.4,34.9 C19.1,34.9 18.4,34.5 17.3,32.6 L12.8,24.3 C12.2,23.4 11.2,23.3 10.3,23.3 L8.4,23.3 L8.4,35 L3.6,35 L3.9,5.3 Z" id="XMLID_482_"></path>
                </g>
            </g>
            <g id="XMLID_476_" transform="translate(173.000000, 31.000000)" fill="#5D2E8E">
                <g id="XMLID_477_">
                    <path d="M3.8,5.4 C3.8,4.7 3.4,4.4 2.8,4.4 L0.8,4.4 L0.8,0.3 L5.4,0.3 C7.6,0.3 8.6,1.2 8.6,3.3 L8.6,13 C8.6,14.2 8.5,15 8.5,15 L8.6,15 C9.6,12.5 12.8,9.5 17.7,9.5 C23.5,9.5 26.1,12.7 26.1,19.1 L26.1,29.8 C26.1,30.5 26.5,30.8 27.1,30.8 L29.1,30.8 L29.1,34.8 L24.5,34.8 C22.3,34.8 21.3,33.9 21.3,31.6 L21.3,20.2 C21.3,16.7 20.6,14 16.7,14 C12.9,14 9.9,16.6 8.9,20.1 C8.6,21.1 8.5,22.3 8.5,23.4 L8.5,35 L3.7,35 L3.8,5.4 Z" id="XMLID_478_"></path>
                </g>
            </g>
            <g id="XMLID_470_" transform="translate(205.000000, 40.000000)" fill="#5D2E8E" fill-rule="nonzero">
                <g id="XMLID_473_-link">
                    <path d="M10,22.7 C14.1,22.7 16.7,18.5 16.7,14.9 L16.7,14 L15.5,14 C11.9,14 5.5,14.1 5.5,18.8 C5.3,20.9 6.9,22.7 10,22.7 Z M15.5,10.6 L16.5,10.6 L16.5,10.3 C16.5,6 14.9,4.4 11,4.4 C9.8,4.4 6.9,4.7 6.9,6.3 L6.9,7.7 L2.4,7.7 L2.4,5.2 C2.4,1.1 8.6,0.6 10.9,0.6 C18.9,0.6 21,4.8 21,10.3 L21,20.9 C21,21.6 21.4,22 22,22 L24,22 L24,26 L19.5,26 C17.3,26 16.5,25 16.5,23.1 C16.5,22.2 16.6,21.7 16.6,21.7 L16.5,21.7 C16.5,21.7 14.5,26.6 8.7,26.6 C4.5,26.6 0.3,24 0.3,19.1 C0.5,11.2 11.4,10.6 15.5,10.6 Z" id="XMLID_473_"></path>
                </g>
            </g>
            <g id="XMLID_466_" transform="translate(231.000000, 31.000000)" fill="#5D2E8E">
                <g id="XMLID_469_-link">
                    <path d="M2.2,4.6 L0,4.6 L0,0.5 L4.6,0.5 C6.8,0.5 7.8,1.4 7.8,3.7 L7.8,29.9 C7.8,30.6 8.2,30.9 8.8,30.9 L10.8,30.9 L10.8,34.9 L6.2,34.9 C4,34.9 3,34 3,31.7 L3,5.6 C3.1,5.6 3.2,4.6 2.2,4.6 Z" id="XMLID_469_"></path>
                </g>
            </g>
            <g id="XMLID_463_" transform="translate(244.000000, 34.000000)" fill="#5D2E8E">
                <g id="XMLID_464_">
                    <path d="M3.2,11 L0,11 L0,7.2 L3.3,7.2 L3.3,0.3 L7.9,0.3 L7.9,7.2 L13.8,7.2 L13.8,11 L8,11 L8,22.3 C8,27.2 11.4,28 13.1,28 C13.8,28 14.3,28 14.3,28 L14.3,31.9 C14.3,31.9 13.7,32 12.7,32 C9.5,32 3.3,31 3.3,22.7 L3.3,11 L3.2,11 Z" id="XMLID_465_"></path>
                </g>
            </g>
            <g id="XMLID_460_" transform="translate(265.000000, 31.000000)" fill="#5D2E8E">
                <g id="XMLID_461_">
                    <path d="M1,0.4 L4,0.4 C4.3,0.4 4.6,0.7 4.6,1 L4.6,4.7 C4.6,5 4.3,5.3 4,5.3 L1,5.3 C0.7,5.3 0.4,5 0.4,4.7 L0.4,1 C0.4,0.6 0.6,0.4 1,0.4 Z" id="XMLID_462_"></path>
                </g>
            </g>
            <g id="XMLID_457_" transform="translate(262.000000, 41.000000)" fill="#5D2E8E">
                <g id="XMLID_458_">
                    <path d="M3.2,5.3 C3.2,4.6 2.8,4.3 2.2,4.3 L0.2,4.3 L0.2,0.2 L4.8,0.2 C7,0.2 8,1.1 8,3.4 L8,19.9 C8,20.6 8.4,20.9 9,20.9 L11,20.9 L11,24.9 L6.4,24.9 C4.2,24.9 3.2,24 3.2,21.7 L3.2,5.3 Z" id="XMLID_459_"></path>
                </g>
            </g>
            <g id="XMLID_432_" transform="translate(8.500000, 38.000000) rotate(-6.000000) translate(-8.500000, -38.000000) translate(0.000000, 18.000000)" fill="#F9A61C">
                <g id="XMLID_453_-link" transform="translate(0.000000, 1.000000)">
                    <polygon id="XMLID_453_" points="12.5 0.1 0.2 1.6 4.8 38.1 16.3 36.8"></polygon>
                </g>
                <g id="XMLID_454_">
                    <g id="XMLID_455_">
                        <rect id="XMLID_456_" x="0.1" y="0.9" width="16.5" height="38.4"></rect>
                    </g>
                </g>
            </g>
        </g>
    </g>
</svg>