<svg width="100" height="60" viewBox="0 0 100 60" fill="none" xmlns="http://www.w3.org/2000/svg">
<path d="M16.7247 38.6852H13V22H16.7247V38.6852Z" fill="#17120F"/>
<path d="M26.0238 22H22.3799C22.3799 25.0705 21.0067 27.8887 18.6126 29.7325L17.1689 30.844L22.7627 38.6858H27.3618L22.2148 31.4702C24.6546 28.9725 26.0238 25.6122 26.0238 22Z" fill="#17120F"/>
<path d="M31.9648 38.6807H28.4472V22.0032H31.9648V38.6807Z" fill="#17120F"/>
<path d="M42.5927 27.1442V27.8822C41.6435 27.2165 40.4979 26.8253 39.2623 26.8253C35.9921 26.8253 33.3412 29.5507 33.3412 32.9127C33.3412 36.2747 35.9921 39 39.2623 39C40.4979 39 41.6435 38.6088 42.5927 37.9434V38.6807H45.9525V27.1442H42.5927ZM42.5824 32.9127C42.5824 34.552 41.2194 35.881 39.538 35.881C37.8568 35.881 36.4938 34.552 36.4938 32.9127C36.4938 31.2734 37.8568 29.9448 39.538 29.9448C41.2194 29.9448 42.5824 31.2734 42.5824 32.9127Z" fill="#17120F"/>
<path d="M78.037 27.8822V27.1442H81.3967V38.6807H78.037V37.9434C77.0879 38.6088 75.9423 39 74.7065 39C71.4364 39 68.7854 36.2747 68.7854 32.9127C68.7854 29.5507 71.4364 26.8253 74.7065 26.8253C75.9423 26.8253 77.0879 27.2165 78.037 27.8822ZM74.9824 35.881C76.6637 35.881 78.0266 34.552 78.0266 32.9127C78.0266 31.2734 76.6637 29.9448 74.9824 29.9448C73.301 29.9448 71.9381 31.2734 71.9381 32.9127C71.9381 34.552 73.301 35.881 74.9824 35.881Z" fill="#17120F"/>
<path d="M62.8152 26.8338C61.4731 26.8338 60.203 27.2622 59.3538 28.444V27.1448H56.0086V38.6806H59.3949V32.6181C59.3949 30.8638 60.5392 30.0047 61.917 30.0047C63.3935 30.0047 64.2424 30.9116 64.2424 32.5942V38.6806H67.5981V31.3443C67.5981 28.6596 65.5218 26.8338 62.8152 26.8338Z" fill="#17120F"/>
<path d="M51.1497 27.1443V28.6468C51.8232 27.7455 53.0781 27.145 54.4424 27.145V30.5019C54.4361 30.5018 54.4299 30.5015 54.4237 30.5011C54.4167 30.5007 54.4097 30.5004 54.4025 30.5004C53.0732 30.5004 51.1574 31.4772 51.1574 33.2944V38.6806H47.7099V27.1443H51.1497Z" fill="#17120F"/>
<path d="M82.8548 36.7563C82.8548 35.5591 83.7986 34.5887 84.963 34.5887C86.1273 34.5887 87.0714 35.5591 87.0714 36.7563C87.0714 37.9532 86.1273 38.9237 84.963 38.9237C83.7986 38.9237 82.8548 37.9532 82.8548 36.7563Z" fill="#17120F"/>
</svg>
