<svg width="100" height="60" viewBox="0 0 100 60" fill="none" xmlns="http://www.w3.org/2000/svg">
<path d="M50.103 49.0812C49.823 48.9512 49.541 48.8262 49.264 48.6932C49.1236 48.6308 48.9896 48.5548 48.864 48.4662C48.687 48.3342 48.639 48.1492 48.693 47.9362C48.745 47.7332 48.885 47.6262 49.086 47.6012C49.253 47.5812 49.426 47.5722 49.594 47.5882C49.885 47.6182 50.175 47.6702 50.481 47.7142L50.692 46.8582C50.362 46.8042 50.048 46.7352 49.733 46.7032C49.245 46.6532 48.764 46.6832 48.298 46.8662C47.131 47.3212 47.072 48.8362 47.819 49.3952C48.027 49.5492 48.264 49.6652 48.496 49.7882C48.728 49.9102 48.977 50.0002 49.203 50.1322C49.474 50.2872 49.546 50.4822 49.477 50.7622C49.423 50.9782 49.247 51.1232 48.951 51.1292C48.6573 51.1349 48.3637 51.1165 48.073 51.0742C47.831 51.0392 47.596 50.9572 47.349 50.8942L47.101 51.7462C47.648 51.9508 48.228 52.0525 48.812 52.0462C49.29 52.0362 49.74 51.9382 50.16 51.7002C50.988 51.2262 51.275 49.6242 50.103 49.0812ZM34.926 46.8122H33.605V51.9372H36.769C36.811 51.6522 36.953 51.3792 36.998 51.0682H34.926V46.8122ZM44.768 51.8732C44.779 51.9032 44.785 51.9392 44.794 51.9772L43.382 51.9792L43.341 51.8672C43.248 51.5462 43.15 51.2272 43.052 50.9072C43.035 50.8482 43.012 50.7952 42.989 50.7322C42.445 50.7322 41.856 50.7302 41.318 50.7382C41.277 50.7382 41.268 50.7962 41.252 50.8402C41.1271 51.1826 41.0078 51.527 40.894 51.8732L40.833 51.9752L39.667 51.9522C39.76 51.6882 39.849 51.4022 39.94 51.1532C40.443 49.7582 40.917 48.5162 41.415 47.1182C41.462 46.9842 41.09 46.7912 41.233 46.7942C41.642 46.8042 42.517 46.7992 42.925 46.7962C43.011 46.7962 43.064 46.8112 43.095 46.9042C43.651 48.5372 44.21 50.2392 44.768 51.8732ZM42.165 48.0562L41.553 49.9082H42.737L42.165 48.0562ZM55.626 49.7232H57.429V48.8722H55.628V47.6572H57.529C57.572 47.3672 57.615 47.0912 57.658 46.8122H54.292V51.9362H57.702C57.747 51.6462 57.79 51.3712 57.835 51.0722H55.626V49.7232ZM64.126 49.3702C64.15 49.3622 64.175 49.3532 64.197 49.3472C64.607 49.1952 64.923 48.9432 65.034 48.5142C65.195 47.8872 65.056 47.2452 64.355 46.9802C64.2041 46.9166 64.0469 46.869 63.886 46.8382C63.779 46.8202 63.616 46.8082 63.509 46.7952L61.148 46.8012V51.9512H62.482L62.48 47.6472C62.779 47.6152 63.07 47.6062 63.353 47.7082C63.544 47.7762 63.673 47.9132 63.71 48.1122C63.8 48.5832 63.663 49.0022 63.034 49.0602C62.919 49.0702 62.647 49.0692 62.528 49.0662L64.223 51.9902L65.608 51.9922L64.053 49.3922C64.077 49.3822 64.101 49.3792 64.126 49.3702Z" fill="#26347D"/>
<path d="M57.384 27.7221H69.378V28.2211H57.086L56.606 29.0311L48.648 28.2211H30.001V27.7211H48.007L57.868 26.9111L57.384 27.7221ZM56.472 29.4051L48.435 30.2171H30.001V30.7171H48.892L55.213 31.5271L55.693 30.7171H69.379V30.2171H55.99L56.472 29.4051ZM55.081 31.9001L48.863 32.7101H30.001V33.2101H49.137L53.819 34.0201L54.301 33.2101H69.379V32.7101H54.597L55.081 31.9001ZM53.685 34.3951L49.289 35.2061H30.001V35.7061H49.382L52.424 36.5161L52.906 35.7061H69.379V35.2061H53.204L53.685 34.3951ZM52.294 36.8891L49.022 37.7011H30.002V38.2021H49.002L51.033 39.0121L51.515 38.2021H69.379V37.7011H51.81L52.294 36.8891ZM62.047 19.5311L48.69 20.2381H30.001V20.7381H46.263L60.788 21.6531L61.331 20.7381H69.38V20.2381H61.628L62.047 19.5311ZM59.259 24.4171L47.579 25.2271H30.001V25.7271H48.403L58.001 26.5371L58.482 25.7271H69.378V25.2271H58.777L59.259 24.4171ZM60.654 21.9221L47.153 22.7331H30.001V23.2331H48.158L59.393 24.0431L59.875 23.2331H69.379V22.7331H60.17L60.654 21.9221ZM67.954 9.0741L69.215 6.9541L44.629 7.7641H30.001V8.2641H46.742L67.954 9.0741ZM50.898 39.4701L48.972 40.1991H30.001V40.6981H48.517L49.638 41.5901L50.17 40.6981H69.379V40.1981H50.466L50.898 39.4701ZM63.64 16.9331L46.336 17.7431H30.001V18.2431H47.723L62.379 19.0541L62.861 18.2431H69.379V17.7431H63.156L63.64 16.9331ZM49.505 41.8781L47.786 42.6881H30.001V43.1881H47.613L48.245 43.9981L48.727 43.1881H69.379V42.6881H49.023L49.505 41.8781ZM65.034 14.4381L45.91 15.2481H30V15.7481H47.477L63.771 16.5591L64.253 15.7491H69.378V15.2491H64.55L65.034 14.4391V14.4381ZM67.82 9.4481L45.056 10.2591H30.001V10.7591H46.987L66.561 11.5691L67.041 10.7591H69.379V10.2591H67.338L67.82 9.4481ZM66.425 11.9441L45.483 12.7541H30.001V13.2541H47.232L65.167 14.0641L65.648 13.2541H69.378V12.7541H65.943L66.425 11.9441Z" fill="#DB428A"/>
</svg>
