<svg width="100" height="60" viewBox="0 0 100 60" fill="none" xmlns="http://www.w3.org/2000/svg">
<rect width="100" height="60" fill="#26347D"/>
<path d="M50.103 49.0811C49.823 48.9511 49.541 48.8261 49.264 48.6931C49.1236 48.6307 48.9896 48.5546 48.864 48.4661C48.687 48.3341 48.639 48.1491 48.693 47.9361C48.745 47.7331 48.885 47.6261 49.086 47.6011C49.253 47.5811 49.426 47.5721 49.594 47.5881C49.885 47.6181 50.175 47.6701 50.481 47.7141L50.692 46.8581C50.362 46.8041 50.048 46.7351 49.733 46.7031C49.245 46.6531 48.764 46.6831 48.298 46.8661C47.131 47.3211 47.072 48.8361 47.819 49.3951C48.027 49.5491 48.264 49.6651 48.496 49.7881C48.728 49.9101 48.977 50.0001 49.203 50.1321C49.474 50.2871 49.546 50.4821 49.477 50.7621C49.423 50.9781 49.247 51.1231 48.951 51.1291C48.6573 51.1348 48.3637 51.1164 48.073 51.0741C47.831 51.0391 47.596 50.9571 47.349 50.8941L47.101 51.7461C47.648 51.9507 48.2281 52.0524 48.812 52.0461C49.29 52.0361 49.74 51.9381 50.16 51.7001C50.988 51.2261 51.275 49.6241 50.103 49.0811ZM34.926 46.8121H33.605V51.9371H36.769C36.811 51.6521 36.953 51.3791 36.998 51.0681H34.926V46.8121ZM44.768 51.8731C44.779 51.9031 44.785 51.9391 44.794 51.9771L43.382 51.9791L43.341 51.8671C43.248 51.5461 43.15 51.2271 43.052 50.9071C43.035 50.8481 43.012 50.7951 42.989 50.7321C42.445 50.7321 41.856 50.7301 41.318 50.7381C41.277 50.7381 41.268 50.7961 41.252 50.8401C41.1272 51.1825 41.0078 51.5269 40.894 51.8731L40.833 51.9751L39.667 51.9521C39.76 51.6881 39.849 51.4021 39.94 51.1531C40.443 49.7581 40.917 48.5161 41.415 47.1181C41.462 46.9841 41.09 46.7911 41.233 46.7941C41.642 46.8041 42.517 46.7991 42.925 46.7961C43.011 46.7961 43.064 46.8111 43.095 46.9041C43.651 48.5371 44.21 50.2391 44.768 51.8731ZM42.165 48.0561L41.553 49.9081H42.737L42.165 48.0561ZM55.626 49.7231H57.429V48.8721H55.628V47.6571H57.529C57.572 47.3671 57.615 47.0911 57.658 46.8121H54.292V51.9361H57.702C57.747 51.6461 57.79 51.3711 57.835 51.0721H55.626V49.7231ZM64.126 49.3701C64.15 49.3621 64.175 49.3531 64.197 49.3471C64.607 49.1951 64.923 48.9431 65.034 48.5141C65.195 47.8871 65.056 47.2451 64.355 46.9801C64.2041 46.9164 64.0469 46.8688 63.886 46.8381C63.779 46.8201 63.616 46.8081 63.509 46.7951L61.148 46.8011V51.9511H62.482L62.48 47.6471C62.779 47.6151 63.07 47.6061 63.353 47.7081C63.544 47.7761 63.673 47.9131 63.71 48.1121C63.8 48.5831 63.663 49.0021 63.034 49.0601C62.919 49.0701 62.647 49.0691 62.528 49.0661L64.223 51.9901L65.608 51.9921L64.053 49.3921C64.077 49.3821 64.101 49.3791 64.126 49.3701Z" fill="white"/>
<path d="M57.384 27.7221H69.378V28.2211H57.086L56.606 29.0311L48.648 28.2211H30.001V27.7211H48.007L57.868 26.9111L57.384 27.7221ZM56.472 29.4051L48.435 30.2171H30.001V30.7171H48.892L55.213 31.5271L55.693 30.7171H69.379V30.2171H55.99L56.472 29.4051ZM55.081 31.9001L48.863 32.7101H30.001V33.2101H49.137L53.819 34.0201L54.301 33.2101H69.379V32.7101H54.597L55.081 31.9001ZM53.685 34.3951L49.289 35.2061H30.001V35.7061H49.382L52.424 36.5161L52.906 35.7061H69.379V35.2061H53.204L53.685 34.3951ZM52.294 36.8891L49.022 37.7011H30.002V38.2021H49.002L51.033 39.0121L51.515 38.2021H69.379V37.7011H51.81L52.294 36.8891ZM62.047 19.5311L48.69 20.2381H30.001V20.7381H46.263L60.788 21.6531L61.331 20.7381H69.38V20.2381H61.628L62.047 19.5311ZM59.259 24.4171L47.579 25.2271H30.001V25.7271H48.403L58.001 26.5371L58.482 25.7271H69.378V25.2271H58.777L59.259 24.4171ZM60.654 21.9221L47.153 22.7331H30.001V23.2331H48.158L59.393 24.0431L59.875 23.2331H69.379V22.7331H60.17L60.654 21.9221ZM67.954 9.0741L69.215 6.9541L44.629 7.7641H30.001V8.2641H46.742L67.954 9.0741ZM50.898 39.4701L48.972 40.1991H30.001V40.6981H48.517L49.638 41.5901L50.17 40.6981H69.379V40.1981H50.466L50.898 39.4701ZM63.64 16.9331L46.336 17.7431H30.001V18.2431H47.723L62.379 19.0541L62.861 18.2431H69.379V17.7431H63.156L63.64 16.9331ZM49.505 41.8781L47.786 42.6881H30.001V43.1881H47.613L48.245 43.9981L48.727 43.1881H69.379V42.6881H49.023L49.505 41.8781ZM65.034 14.4381L45.91 15.2481H30V15.7481H47.477L63.771 16.5591L64.253 15.7491H69.378V15.2491H64.55L65.034 14.4391V14.4381ZM67.82 9.4481L45.056 10.2591H30.001V10.7591H46.987L66.561 11.5691L67.041 10.7591H69.379V10.2591H67.338L67.82 9.4481ZM66.425 11.9441L45.483 12.7541H30.001V13.2541H47.232L65.167 14.0641L65.648 13.2541H69.378V12.7541H65.943L66.425 11.9441Z" fill="#DB428A"/>
</svg>
