<svg xmlns="http://www.w3.org/2000/svg" width="100" height="60" fill="none"><path fill="#345D9D" d="M0 0h100v60H0z"/><path fill="#fff" d="M21.961 19c-6.074 0-11 4.925-11 11s4.926 11 11 11c6.075 0 11-4.925 11-11-.012-6.075-4.925-11-11-11m.164 11.354-1.136 3.864H27.1c.215 0 .354.202.303.404l-.53 1.831a.42.42 0 0 1-.404.304h-9.346l1.579-5.342-1.743.543.379-1.263 1.755-.543 2.223-7.502a.42.42 0 0 1 .404-.303h2.362c.215 0 .354.202.303.404l-1.882 6.34 1.743-.543-.379 1.275zM39.314 22.334h-.682c-.127 0-.215.076-.24.202l-1.768 14.006c-.013.139.025.202.164.202h.682c.139 0 .215-.063.24-.202l1.78-14.006c.038-.139-.037-.202-.176-.202M42.206 26.375h.682c.139 0 .19.076.177.215l-1.25 9.964c-.026.14-.114.203-.24.203h-.683c-.126 0-.202-.063-.19-.203l1.264-9.977c.025-.138.114-.202.24-.202M72.768 26.211c-.947 0-1.768.266-2.462.809s-1.15 1.25-1.377 2.134c-.19.72-.353 1.73-.43 2.412l-.017.164v.003c-.094.847-.172 1.557-.172 2.245.013.897.303 1.604.846 2.147.556.53 1.314.808 2.274.808.934 0 1.755-.265 2.45-.808.694-.53 1.15-1.25 1.376-2.147.152-.593.303-1.389.43-2.412q.19-1.591.19-2.425 0-1.326-.834-2.121c-.569-.543-1.326-.809-2.274-.809m1.92 4.383c-.063.505-.1.833-.114.972-.126 1.036-.24 1.768-.34 2.21a2.82 2.82 0 0 1-.973 1.591c-.493.405-1.073.594-1.718.594-.656 0-1.174-.202-1.566-.594-.391-.391-.58-.909-.58-1.553 0-.341.037-.77.1-1.276.064-.505.102-.833.114-.972.126-.985.24-1.717.341-2.21.152-.657.48-1.187.973-1.591.492-.405 1.073-.594 1.717-.594.657 0 1.175.202 1.566.581.392.392.581.91.581 1.553 0 .367-.038.783-.1 1.289M79.096 26.375h.669c.139 0 .19.076.177.215l-1.25 9.964c-.026.14-.114.203-.24.203h-.682c-.127 0-.202-.063-.19-.203l1.276-9.977c.025-.126.113-.202.24-.202M88.378 26.969c-.467-.492-1.124-.733-1.983-.733-.555 0-1.06.101-1.528.316s-.859.53-1.187.96c-.063.05-.088.038-.088-.038l.1-.884c.013-.126-.037-.202-.163-.202h-.682c-.127 0-.215.076-.24.202l-1.25 9.964c-.013.127.025.203.163.203h.682c.127 0 .215-.076.228-.203l.91-7.148c.15-.669.466-1.212.934-1.604.467-.391 1.023-.593 1.68-.593q.908 0 1.44.568c.353.38.53.884.53 1.528 0 .19-.013.341-.026.455l-.871 6.794c0 .064 0 .102.025.14a.22.22 0 0 0 .164.063h.682c.127 0 .215-.063.228-.203l.87-6.958a7 7 0 0 0 .039-.619c.038-.859-.19-1.528-.657-2.008M42.206 22.7a.82.82 0 0 1 1.124-.353c.416.214.568.72.354 1.136a.837.837 0 0 1-1.124.354.85.85 0 0 1-.354-1.137M80.258 22.347a.82.82 0 0 0-1.124.353.85.85 0 0 0 .353 1.137.85.85 0 0 0 1.137-.354.864.864 0 0 0-.366-1.136M61.415 27.02c.694-.53 1.515-.809 2.462-.809.96 0 1.705.266 2.274.783q.834.796.833 2.122v.24a.127.127 0 0 1-.126.126h-.796a.167.167 0 0 1-.164-.164v-.013c0-.644-.19-1.162-.58-1.553-.392-.392-.923-.58-1.567-.58s-1.225.188-1.717.593c-.493.404-.821.934-.973 1.59a32 32 0 0 0-.34 2.211c-.01.092-.034.3-.065.555l-.05.417a11 11 0 0 0-.1 1.276c0 .644.189 1.162.58 1.553.392.392.91.594 1.567.594.644 0 1.224-.19 1.717-.594s.821-.934.973-1.59c0 0 .012-.026.012-.039.013-.075.076-.1.126-.1h.847c.05 0 .1.05.088.113l-.017.08-.008.033-.009.036-.017.078c-.227.897-.681 1.617-1.376 2.147-.695.543-1.516.808-2.45.808-.96 0-1.718-.277-2.273-.808-.543-.543-.834-1.25-.847-2.147 0-.686.09-1.495.173-2.259v-.003l.017-.15c.063-.556.24-1.692.43-2.412.227-.884.681-1.591 1.376-2.134M57.02 27.02c-.556-.53-1.314-.809-2.26-.809-.948 0-1.769.266-2.463.809s-1.15 1.25-1.377 2.134c-.18.683-.269 1.298-.407 2.256l-.022.156c-.14 1.036-.19 1.68-.19 2.412.013.897.303 1.604.846 2.147.556.53 1.314.808 2.274.808.934 0 1.755-.265 2.45-.808.694-.53 1.149-1.25 1.376-2.147a2 2 0 0 1 .026-.114l.025-.113c.012-.063-.026-.114-.089-.114h-.846c-.05 0-.114.026-.126.101 0 .013-.013.038-.013.038a2.82 2.82 0 0 1-.972 1.591c-.493.405-1.074.594-1.718.594-.657 0-1.174-.202-1.566-.594-.391-.391-.58-.909-.58-1.553 0-.303.025-.682.075-1.111l6.138-1.907c.126-.038.177-.101.202-.253.038-.316.063-.859.063-1.414-.013-.796-.29-1.58-.846-2.11m-.24 2.866a.123.123 0 0 1-.101.127l-5.09 1.578v-.025c.127-.985.24-1.717.341-2.21a2.82 2.82 0 0 1 .973-1.591c.492-.405 1.073-.594 1.717-.594.657 0 1.175.202 1.566.581.62.644.632 1.3.594 2.134M48.205 35.822c.025-.139-.114-.227-.24-.164-.43.202-1.263.404-1.693.05-.311-.3-.247-.839-.175-1.444l.011-.096.745-6h2.122c.05 0 .126-.012.164-.05a.3.3 0 0 0 .063-.164l.064-.48c0-.126-.051-.202-.177-.202h-2.135l.392-3.309c.025-.113-.013-.202-.164-.202h-.657c-.139 0-.227.063-.24.202l-.303 2.324-.126 1.048-.897 7.313c-.114.96.088 1.73.871 2.083.682.303 1.529.202 2.135-.025a.28.28 0 0 0 .151-.202z"/></svg>