<svg xmlns="http://www.w3.org/2000/svg" width="100" height="60" fill="none"><path fill="#fff" d="M0 0h100v60H0z"/><path fill="#345D9D" d="M10.961 30c0-6.075 4.926-11 11-11 6.075 0 10.988 4.925 11 11 0 6.075-4.925 11-11 11-6.074 0-11-4.925-11-11m10.028 4.218 1.136-3.864 1.743-.53.379-1.276-1.743.543 1.882-6.34c.05-.202-.088-.404-.303-.404H21.72a.42.42 0 0 0-.404.303l-2.223 7.502-1.755.543-.379 1.262 1.743-.543-1.579 5.343h9.346a.42.42 0 0 0 .404-.303l.53-1.832c.05-.202-.088-.404-.303-.404zM39.314 22.334h-.682c-.127 0-.215.076-.24.202l-1.768 14.006c-.013.139.025.202.164.202h.682c.139 0 .215-.063.24-.202l1.78-14.006c.038-.139-.037-.202-.176-.202M42.206 26.375h.682c.139 0 .19.076.177.215l-1.25 9.964c-.026.14-.114.203-.24.203h-.683c-.126 0-.202-.064-.19-.203l1.264-9.977c.025-.139.114-.202.24-.202M79.096 26.375h.669c.139 0 .19.076.177.215l-1.25 9.964c-.026.14-.114.203-.24.203h-.682c-.127 0-.202-.064-.19-.203l1.276-9.977c.025-.126.113-.202.24-.202M88.378 26.969c-.467-.493-1.124-.733-1.983-.733-.555 0-1.06.101-1.528.316s-.859.53-1.187.96c-.063.05-.088.038-.088-.038l.1-.884c.013-.126-.037-.202-.163-.202h-.682c-.127 0-.215.076-.24.202l-1.25 9.964c-.013.127.025.203.163.203h.682c.127 0 .215-.076.228-.203l.909-7.148c.151-.67.467-1.212.935-1.604.467-.391 1.022-.593 1.68-.593q.908 0 1.44.568c.353.379.53.884.53 1.528 0 .19-.013.341-.026.455l-.871 6.794c0 .063 0 .102.025.14a.22.22 0 0 0 .164.063h.682c.127 0 .215-.064.228-.203l.87-6.958c.026-.278.039-.48.039-.62.038-.858-.19-1.527-.657-2.007M42.206 22.7a.82.82 0 0 1 1.124-.353c.416.214.568.72.354 1.136a.837.837 0 0 1-1.125.354.85.85 0 0 1-.353-1.137M80.258 22.347a.82.82 0 0 0-1.124.353.85.85 0 0 0 .353 1.137.85.85 0 0 0 1.137-.354.864.864 0 0 0-.367-1.136M61.415 27.02c.694-.531 1.515-.809 2.462-.809.96 0 1.705.265 2.274.783q.834.795.833 2.122v.24a.126.126 0 0 1-.126.126h-.796a.167.167 0 0 1-.164-.164v-.013c0-.644-.19-1.162-.58-1.553-.392-.392-.923-.581-1.567-.581s-1.225.19-1.717.594c-.493.404-.821.934-.973 1.59a32 32 0 0 0-.34 2.21c-.01.093-.034.301-.065.556l-.05.417c-.062.506-.1.935-.1 1.276 0 .644.189 1.162.58 1.553.392.392.91.594 1.566.594.645 0 1.225-.19 1.718-.594s.821-.934.972-1.591c0 0 .013-.025.013-.038.013-.076.076-.1.126-.1h.847c.05 0 .1.05.088.113l-.007.038-.01.041-.008.034-.009.036-.017.078c-.227.897-.682 1.617-1.376 2.147-.695.543-1.516.808-2.45.808-.96 0-1.718-.278-2.273-.808-.544-.543-.834-1.25-.847-2.147 0-.686.09-1.494.173-2.257v-.005l.017-.15c.063-.556.24-1.692.43-2.412.227-.884.681-1.591 1.376-2.135M48.205 35.822c.025-.139-.114-.227-.24-.164-.43.202-1.263.404-1.693.05-.311-.3-.247-.84-.175-1.445l.011-.096.745-5.998h2.122c.05 0 .126-.013.164-.05a.3.3 0 0 0 .063-.165l.064-.48c0-.126-.051-.202-.177-.202h-2.135l.392-3.309c.025-.114-.013-.202-.164-.202h-.657c-.139 0-.227.063-.24.202l-.303 2.324-.127 1.048-.896 7.312c-.114.96.088 1.73.871 2.084.682.303 1.529.202 2.135-.025a.28.28 0 0 0 .151-.202zM70.306 27.02c.694-.544 1.515-.809 2.462-.809s1.705.265 2.274.808q.833.795.833 2.122 0 .834-.19 2.425a20 20 0 0 1-.429 2.412c-.227.897-.682 1.617-1.376 2.147-.695.543-1.516.808-2.45.808-.96 0-1.718-.278-2.274-.808-.543-.543-.833-1.25-.846-2.147 0-.688.078-1.398.171-2.245v-.003l.019-.164c.075-.682.24-1.692.43-2.412.226-.884.681-1.591 1.376-2.135m4.382 3.573c.063-.505.101-.921.101-1.288 0-.644-.19-1.162-.58-1.553-.392-.379-.91-.581-1.567-.581-.644 0-1.225.19-1.717.594a2.82 2.82 0 0 0-.973 1.59 32 32 0 0 0-.34 2.21c-.013.14-.051.468-.115.973-.063.506-.1.935-.1 1.276 0 .644.189 1.162.58 1.553.392.392.91.594 1.566.594.644 0 1.225-.19 1.718-.594s.82-.934.973-1.591c.1-.442.214-1.175.34-2.21.013-.139.05-.467.114-.973M54.76 26.211c.946 0 1.704.278 2.26.808s.833 1.314.846 2.11c0 .555-.025 1.098-.063 1.414-.025.152-.076.215-.202.253l-6.138 1.907c-.05.429-.076.808-.076 1.11 0 .645.19 1.163.581 1.554.392.392.91.594 1.566.594.644 0 1.225-.19 1.718-.594s.82-.934.972-1.591c0 0 .013-.025.013-.038.012-.076.075-.1.126-.1h.846c.063 0 .101.05.089.113l-.01.049-.016.064q-.015.057-.025.114c-.227.897-.682 1.617-1.376 2.147-.695.543-1.516.808-2.45.808-.96 0-1.718-.278-2.274-.808-.543-.543-.833-1.25-.846-2.147 0-.732.05-1.376.19-2.412l.022-.156c.138-.958.227-1.573.407-2.256.227-.884.682-1.591 1.377-2.135.694-.543 1.515-.808 2.462-.808m2.02 3.675c.038-.833.025-1.49-.594-2.134-.391-.379-.909-.581-1.566-.581-.644 0-1.225.19-1.717.594-.493.404-.821.934-.973 1.59a32 32 0 0 0-.34 2.21v.026l5.089-1.579a.123.123 0 0 0 .1-.126"/></svg>