<svg width="100" height="60" viewBox="0 0 100 60" fill="none" xmlns="http://www.w3.org/2000/svg">
<path d="M10.9612 30C10.9612 23.9254 15.8866 19 21.9612 19C28.0359 19 32.9486 23.9254 32.9613 30C32.9613 36.0746 28.0359 41 21.9612 41C15.8866 41 10.9612 36.0746 10.9612 30ZM20.9886 34.2182L22.1253 30.3536L23.8682 29.8232L24.247 28.5476L22.5042 29.0907L24.3859 22.7508C24.4365 22.5487 24.2975 22.3467 24.0829 22.3467H21.7212C21.5317 22.3467 21.3676 22.473 21.317 22.6498L19.0943 30.1516L17.3388 30.6946L16.96 31.9575L18.7027 31.4144L17.124 36.7566L26.4697 36.7566C26.6592 36.7566 26.8233 36.6303 26.8739 36.4535L27.4043 34.6223C27.4548 34.4202 27.3158 34.2181 27.1011 34.2181L20.9886 34.2182Z" fill="#345D9D"/>
<path d="M39.3137 22.334H38.6317C38.5054 22.334 38.417 22.4098 38.3917 22.5361L36.6236 36.5417C36.611 36.6807 36.6488 36.7438 36.7878 36.7438L37.4697 36.7439C37.6087 36.7439 37.6845 36.6807 37.7098 36.5417L39.4905 22.536C39.5283 22.3971 39.4526 22.334 39.3137 22.334Z" fill="#345D9D"/>
<path d="M42.2058 26.3754H42.8877C43.0267 26.3754 43.0772 26.4511 43.0646 26.5901L41.8143 36.5544C41.789 36.6933 41.7007 36.7565 41.5744 36.7565L40.8923 36.7565C40.766 36.7565 40.6903 36.6934 40.7028 36.5544L41.9659 26.5774C41.9912 26.4385 42.0795 26.3754 42.2058 26.3754Z" fill="#345D9D"/>
<path d="M79.0956 26.3754H79.765C79.904 26.3754 79.9544 26.4511 79.9418 26.5901L78.6915 36.5544C78.6662 36.6933 78.5779 36.7565 78.4516 36.7565L77.7696 36.7565C77.6433 36.7565 77.5676 36.6934 77.5802 36.5544L78.8556 26.5774C78.8809 26.4511 78.9694 26.3754 79.0956 26.3754Z" fill="#345D9D"/>
<path d="M88.3781 26.9688C87.9108 26.4763 87.2541 26.2363 86.3953 26.2363C85.8396 26.2363 85.3344 26.3374 84.8673 26.5521C84.4 26.7668 84.0083 27.0825 83.68 27.5119C83.6169 27.5625 83.5916 27.5498 83.5916 27.474L83.6926 26.59C83.7053 26.4637 83.6548 26.3879 83.5285 26.3879H82.8465C82.7202 26.3879 82.6318 26.4637 82.6065 26.59L81.3561 36.5544C81.3436 36.6807 81.3815 36.7565 81.5205 36.7565L82.2024 36.7565C82.3286 36.7565 82.4171 36.6807 82.4296 36.5544L83.339 29.4062C83.4905 28.7369 83.8064 28.1939 84.2737 27.8024C84.741 27.4109 85.2965 27.2089 85.9533 27.2089C86.5595 27.2089 87.0394 27.3983 87.3931 27.7772C87.7467 28.156 87.9233 28.6611 87.9233 29.3052C87.9233 29.4947 87.9108 29.6463 87.8983 29.7599L87.0268 36.5544C87.0268 36.6175 87.0268 36.6555 87.0521 36.6934C87.0899 36.7313 87.1405 36.7565 87.2162 36.7565L87.8983 36.7565C88.0246 36.7565 88.1129 36.6934 88.1256 36.5544L88.9969 29.5957C89.0222 29.3179 89.0349 29.1159 89.0349 28.9769C89.0727 28.1181 88.8454 27.4487 88.3781 26.9688Z" fill="#345D9D"/>
<path d="M42.2058 22.7002C42.4078 22.2835 42.9255 22.1319 43.3297 22.3466C43.7464 22.5613 43.8981 23.0664 43.6835 23.4832C43.4688 23.8873 42.9636 24.0516 42.5594 23.8369C42.1552 23.6222 41.991 23.1044 42.2058 22.7002Z" fill="#345D9D"/>
<path d="M80.2575 22.3466C79.8535 22.1319 79.3356 22.2835 79.1336 22.7002C78.9189 23.1044 79.083 23.6221 79.4872 23.8368C79.8913 24.0515 80.4092 23.8874 80.6239 23.4833C80.8259 23.0665 80.6617 22.5613 80.2575 22.3466Z" fill="#345D9D"/>
<path d="M61.4147 27.0194C62.1093 26.489 62.9302 26.2112 63.8774 26.2112C64.8373 26.2112 65.5825 26.4764 66.1508 26.9942C66.7065 27.5246 66.9843 28.2318 66.9843 29.1158L66.9843 29.3558C66.9843 29.4316 66.9212 29.4821 66.8581 29.4821L66.0623 29.4821C65.974 29.4821 65.8981 29.4063 65.8981 29.3179V29.3053C65.8981 28.6612 65.7087 28.1433 65.3172 27.7518C64.9256 27.3603 64.3953 27.1709 63.7512 27.1709C63.1071 27.1709 62.5261 27.3603 62.0336 27.7645C61.541 28.1686 61.2128 28.6991 61.0612 29.3558C60.9602 29.8483 60.8465 30.5809 60.7202 31.5659C60.7118 31.6579 60.6869 31.866 60.6563 32.1207C60.6408 32.2509 60.6237 32.3932 60.6066 32.5384C60.5435 33.0436 60.5054 33.4729 60.5054 33.8139C60.5054 34.458 60.6949 34.9757 61.0865 35.3672C61.4779 35.7587 61.9958 35.9609 62.6524 35.9609C63.2966 35.9609 63.8775 35.7714 64.3701 35.3673C64.8625 34.9632 65.191 34.4327 65.3425 33.776C65.3425 33.776 65.3551 33.7508 65.3551 33.7382C65.3676 33.6624 65.4309 33.6371 65.4815 33.6371H66.3276C66.378 33.6371 66.4286 33.6876 66.416 33.7507C66.4138 33.7637 66.4114 33.7766 66.4086 33.7895C66.4057 33.8032 66.4024 33.8168 66.3991 33.8305L66.3907 33.8638L66.382 33.8996C66.3756 33.9258 66.3697 33.9518 66.3654 33.978C66.1381 34.8747 65.6834 35.5946 64.9888 36.125C64.2942 36.668 63.4733 36.9333 62.5388 36.9333C61.5789 36.9333 60.8212 36.6554 60.2656 36.125C59.7225 35.5819 59.432 34.8747 59.4194 33.978C59.4194 33.2921 59.5082 32.4844 59.5921 31.7207L59.5923 31.7189L59.5924 31.7163L59.6089 31.5659C59.672 31.0102 59.8488 29.8735 60.0383 29.1537C60.2656 28.2696 60.7201 27.5625 61.4147 27.0194Z" fill="#345D9D"/>
<path d="M48.2045 35.8219C48.2298 35.683 48.091 35.5946 47.9647 35.6577C47.5352 35.8598 46.7017 36.0618 46.2723 35.7082C45.9605 35.4083 46.0246 34.8687 46.0966 34.2634L46.1082 34.1675L46.8534 28.1687H48.975C49.0255 28.1687 49.1013 28.1561 49.1392 28.1182C49.1771 28.0676 49.1898 28.0298 49.2024 27.954L49.2655 27.474C49.2655 27.3477 49.2149 27.272 49.0886 27.272H46.9543L47.3457 23.9631C47.371 23.8495 47.3332 23.7611 47.1816 23.7611H46.5248C46.386 23.7611 46.2976 23.8243 46.285 23.9632L45.9819 26.2869L45.8555 27.3351L44.9589 34.6474C44.8452 35.6072 45.0473 36.3777 45.8303 36.7313C46.5123 37.0344 47.3585 36.9333 47.9647 36.7059C48.0404 36.668 48.1035 36.5923 48.1162 36.5039L48.2045 35.8219Z" fill="#345D9D"/>
<path d="M70.3056 27.0194C71.0002 26.4764 71.8211 26.2112 72.7683 26.2112C73.7155 26.2112 74.4733 26.4764 75.0416 27.0194C75.5973 27.5498 75.8752 28.2571 75.8752 29.1411C75.8752 29.6968 75.812 30.5051 75.6857 31.5659C75.5594 32.5889 75.4079 33.3845 75.2563 33.978C75.029 34.8747 74.5744 35.5946 73.8797 36.125C73.1851 36.6681 72.3642 36.9333 71.4297 36.9333C70.4698 36.9333 69.712 36.6554 69.1564 36.125C68.6134 35.5819 68.3228 34.8747 68.3102 33.9781C68.3102 33.2903 68.3883 32.5803 68.4814 31.7329L68.4818 31.7301L68.4997 31.5659C68.5754 30.8839 68.7397 29.8736 68.9291 29.1537C69.1564 28.2697 69.611 27.5625 70.3056 27.0194ZM74.688 30.5935C74.7511 30.0883 74.789 29.6715 74.789 29.3052C74.789 28.6611 74.5996 28.1433 74.2081 27.7518C73.8165 27.373 73.2988 27.1709 72.642 27.1709C71.998 27.1709 71.417 27.3604 70.9246 27.7645C70.432 28.1687 70.1036 28.6991 69.952 29.3558C69.851 29.8484 69.7374 30.5808 69.6111 31.5659C69.5985 31.7048 69.5606 32.0332 69.4974 32.5383C69.4343 33.0435 69.3963 33.4729 69.3963 33.8138C69.3963 34.4579 69.5858 34.9758 69.9774 35.3673C70.3688 35.7588 70.8867 35.9609 71.5433 35.9609C72.1874 35.9609 72.7683 35.7714 73.2609 35.3673C73.7534 34.9631 74.0819 34.4327 74.2335 33.776C74.3345 33.334 74.448 32.6015 74.5743 31.5659C74.587 31.427 74.6249 31.0987 74.688 30.5935Z" fill="#345D9D"/>
<path d="M54.7592 26.2112C55.7064 26.2112 56.4642 26.489 57.0199 27.0194C57.5755 27.5499 57.8534 28.3328 57.8661 29.1284C57.8661 29.6841 57.8408 30.2272 57.8029 30.543C57.7776 30.6945 57.727 30.7576 57.6007 30.7955L51.463 32.7025C51.4124 33.1319 51.3872 33.5107 51.3872 33.8138C51.3872 34.4579 51.5766 34.9758 51.9682 35.3673C52.3597 35.7588 52.8775 35.9609 53.5341 35.9609C54.1783 35.9609 54.7592 35.7714 55.2518 35.3673C55.7442 34.9631 56.0726 34.4328 56.2242 33.776C56.2242 33.776 56.2368 33.7507 56.2368 33.7381C56.2493 33.6623 56.3125 33.6371 56.3631 33.6371H57.2093C57.2724 33.6371 57.3102 33.6876 57.2977 33.7507C57.2949 33.767 57.2916 33.7834 57.2881 33.7997C57.2833 33.8211 57.2778 33.8425 57.2724 33.8639C57.2629 33.902 57.2535 33.94 57.2472 33.978C57.0199 34.8747 56.5651 35.5946 55.8705 36.125C55.1759 36.6681 54.355 36.9333 53.4205 36.9333C52.4606 36.9333 51.7029 36.6554 51.1473 36.125C50.6042 35.5819 50.3137 34.8748 50.3011 33.9781C50.3011 33.2456 50.3517 32.6015 50.4905 31.5659L50.5131 31.4097C50.6513 30.4522 50.7402 29.8372 50.92 29.1537C51.1473 28.2697 51.6018 27.5625 52.2965 27.0194C52.9911 26.4764 53.812 26.2112 54.7592 26.2112ZM56.7798 29.8862C56.8177 29.0527 56.8051 28.3959 56.1863 27.7518C55.7948 27.373 55.277 27.1709 54.6203 27.1709C53.9761 27.1709 53.3952 27.3604 52.9026 27.7645C52.4101 28.1687 52.0818 28.6991 51.9303 29.3558C51.8292 29.8484 51.7156 30.5808 51.5893 31.5659V31.5911L56.6788 30.0125C56.7419 29.9999 56.7798 29.9494 56.7798 29.8862Z" fill="#345D9D"/>
</svg>
