<svg width="100" height="60" viewBox="0 0 100 60" fill="none" xmlns="http://www.w3.org/2000/svg">
<rect width="100" height="60" fill="#345D9D"/>
<path d="M21.9612 19C15.8866 19 10.9612 23.9254 10.9612 30C10.9612 36.0746 15.8866 41 21.9612 41C28.0359 41 32.9613 36.0746 32.9613 30C32.9486 23.9254 28.0359 19 21.9612 19ZM22.1254 30.3536L20.9888 34.2181H27.1013C27.316 34.2181 27.4549 34.4202 27.4044 34.6223L26.874 36.4535C26.8234 36.6303 26.6593 36.7566 26.4698 36.7566H17.1242L18.7029 31.4145L16.9601 31.9575L17.3389 30.6946L19.0944 30.1516L21.3171 22.6498C21.3677 22.473 21.5318 22.3467 21.7213 22.3467H24.083C24.2976 22.3467 24.4366 22.5488 24.386 22.7509L22.5043 29.0907L24.2471 28.5476L23.8682 29.8232L22.1254 30.3536Z" fill="white"/>
<path d="M39.3137 22.3341H38.6317C38.5054 22.3341 38.417 22.4099 38.3917 22.5362L36.6236 36.5419C36.611 36.6808 36.6489 36.744 36.7879 36.744H37.4698C37.6088 36.744 37.6845 36.6808 37.7098 36.5419L39.4905 22.5362C39.5283 22.3972 39.4526 22.3341 39.3137 22.3341Z" fill="white"/>
<path d="M42.2059 26.3754H42.8878C43.0268 26.3754 43.0772 26.4512 43.0646 26.5901L41.8143 36.5545C41.789 36.6935 41.7007 36.7566 41.5744 36.7566H40.8924C40.7661 36.7566 40.6904 36.6935 40.7029 36.5545L41.9659 26.5775C41.9911 26.4386 42.0796 26.3754 42.2059 26.3754Z" fill="white"/>
<path d="M72.7684 26.2113C71.8212 26.2113 71.0003 26.4765 70.3057 27.0195C69.6111 27.5626 69.1565 28.2698 68.9292 29.1538C68.7398 29.8737 68.5755 30.884 68.4998 31.566L68.4818 31.7302L68.4814 31.733C68.3883 32.5804 68.3103 33.2904 68.3103 33.9782C68.3229 34.8749 68.6135 35.5821 69.1565 36.1251C69.7121 36.6556 70.4699 36.9334 71.4298 36.9334C72.3643 36.9334 73.1851 36.6682 73.8798 36.1251C74.5744 35.5947 75.0291 34.8749 75.2564 33.9782C75.408 33.3846 75.5595 32.589 75.6858 31.566C75.8121 30.5052 75.8753 29.6969 75.8753 29.1412C75.8753 28.2572 75.5974 27.5499 75.0417 27.0195C74.4734 26.4765 73.7156 26.2113 72.7684 26.2113ZM74.6881 30.5936C74.6249 31.0987 74.5871 31.4271 74.5744 31.566C74.4481 32.6016 74.3345 33.3341 74.2335 33.7761C74.0819 34.4328 73.7535 34.9633 73.261 35.3674C72.7684 35.7715 72.1875 35.961 71.5434 35.961C70.8867 35.961 70.3689 35.7589 69.9774 35.3674C69.5858 34.9759 69.3964 34.4581 69.3964 33.814C69.3964 33.473 69.4344 33.0436 69.4975 32.5385C69.5607 32.0333 69.5985 31.7049 69.6111 31.566C69.7374 30.5809 69.8511 29.8485 69.9521 29.3559C70.1037 28.6992 70.432 28.1688 70.9246 27.7646C71.4171 27.3605 71.9981 27.1711 72.6421 27.1711C73.2989 27.1711 73.8166 27.3731 74.2082 27.752C74.5996 28.1435 74.7891 28.6613 74.7891 29.3054C74.7891 29.6716 74.7512 30.0884 74.6881 30.5936Z" fill="white"/>
<path d="M79.0957 26.3754H79.765C79.904 26.3754 79.9545 26.4512 79.9419 26.5901L78.6916 36.5545C78.6663 36.6935 78.578 36.7566 78.4517 36.7566H77.7696C77.6434 36.7566 77.5676 36.6935 77.5802 36.5545L78.8557 26.5775C78.881 26.4512 78.9694 26.3754 79.0957 26.3754Z" fill="white"/>
<path d="M88.3782 26.969C87.9109 26.4765 87.2541 26.2365 86.3954 26.2365C85.8396 26.2365 85.3345 26.3375 84.8673 26.5522C84.4 26.7669 84.0084 27.0827 83.6801 27.5121C83.6169 27.5626 83.5917 27.5499 83.5917 27.4742L83.6927 26.5901C83.7054 26.4638 83.6548 26.3881 83.5285 26.3881H82.8466C82.7203 26.3881 82.6319 26.4638 82.6066 26.5901L81.3563 36.5545C81.3437 36.6808 81.3815 36.7566 81.5205 36.7566H82.2024C82.3287 36.7566 82.4172 36.6808 82.4297 36.5545L83.3391 29.4064C83.4906 28.7371 83.8064 28.194 84.2737 27.8025C84.741 27.411 85.2966 27.209 85.9533 27.209C86.5595 27.209 87.0394 27.3984 87.3931 27.7773C87.7467 28.1561 87.9234 28.6613 87.9234 29.3054C87.9234 29.4948 87.9109 29.6464 87.8983 29.76L87.0268 36.5545C87.0268 36.6177 87.0268 36.6556 87.0521 36.6935C87.09 36.7313 87.1405 36.7566 87.2163 36.7566H87.8983C88.0246 36.7566 88.1129 36.6935 88.1256 36.5545L88.9969 29.5959C89.0222 29.318 89.0349 29.116 89.0349 28.977C89.0728 28.1183 88.8455 27.4489 88.3782 26.969Z" fill="white"/>
<path d="M42.2059 22.7003C42.4079 22.2836 42.9256 22.132 43.3298 22.3467C43.7465 22.5614 43.8981 23.0666 43.6835 23.4834C43.4688 23.8875 42.9636 24.0517 42.5595 23.837C42.1553 23.6223 41.9911 23.1045 42.2059 22.7003Z" fill="white"/>
<path d="M80.2576 22.3467C79.8536 22.132 79.3357 22.2836 79.1337 22.7003C78.919 23.1045 79.0831 23.6223 79.4873 23.837C79.8914 24.0517 80.4092 23.8875 80.6239 23.4834C80.8259 23.0666 80.6618 22.5614 80.2576 22.3467Z" fill="white"/>
<path d="M61.4148 27.0195C62.1094 26.4891 62.9303 26.2113 63.8775 26.2113C64.8374 26.2113 65.5825 26.4765 66.1508 26.9943C66.7065 27.5247 66.9844 28.2319 66.9844 29.116V29.3559C66.9844 29.4317 66.9212 29.4822 66.8581 29.4822H66.0624C65.974 29.4822 65.8982 29.4064 65.8982 29.318V29.3054C65.8982 28.6613 65.7088 28.1435 65.3173 27.752C64.9257 27.3605 64.3954 27.1711 63.7512 27.1711C63.1072 27.1711 62.5262 27.3605 62.0337 27.7646C61.5411 28.1688 61.2128 28.6992 61.0612 29.3559C60.9602 29.8485 60.8465 30.5809 60.7202 31.566C60.7118 31.658 60.6869 31.8661 60.6563 32.1208C60.6408 32.2509 60.6237 32.3933 60.6066 32.5385C60.5435 33.0436 60.5055 33.473 60.5055 33.814C60.5055 34.4581 60.6949 34.9759 61.0865 35.3674C61.478 35.7589 61.9958 35.961 62.6525 35.961C63.2966 35.961 63.8775 35.7715 64.3701 35.3674C64.8626 34.9633 65.191 34.4328 65.3426 33.7761C65.3426 33.7761 65.3552 33.7509 65.3552 33.7382C65.3677 33.6625 65.4309 33.6372 65.4815 33.6372H66.3276C66.3781 33.6372 66.4286 33.6877 66.4161 33.7509C66.4138 33.7638 66.4114 33.7767 66.4087 33.7897C66.4057 33.8033 66.4025 33.817 66.3992 33.8306L66.3908 33.864L66.382 33.8997C66.3756 33.9259 66.3698 33.952 66.3655 33.9782C66.1382 34.8749 65.6835 35.5947 64.9889 36.1251C64.2943 36.6682 63.4734 36.9334 62.5389 36.9334C61.579 36.9334 60.8212 36.6556 60.2656 36.1251C59.7226 35.5821 59.432 34.8749 59.4194 33.9782C59.4194 33.2917 59.5084 32.4832 59.5924 31.719V31.7164L59.6089 31.566C59.672 31.0103 59.8489 29.8737 60.0383 29.1538C60.2656 28.2698 60.7202 27.5626 61.4148 27.0195Z" fill="white"/>
<path d="M57.0199 27.0195C56.4642 26.4891 55.7064 26.2113 54.7592 26.2113C53.812 26.2113 52.9911 26.4765 52.2965 27.0195C51.6019 27.5626 51.1473 28.2698 50.92 29.1538C50.7402 29.8373 50.6513 30.4524 50.5131 31.4099L50.4906 31.566C50.3517 32.6016 50.3011 33.2457 50.3011 33.9782C50.3137 34.8749 50.6043 35.5821 51.1473 36.1251C51.7029 36.6556 52.4607 36.9334 53.4206 36.9334C54.3551 36.9334 55.176 36.6682 55.8706 36.1251C56.5652 35.5947 57.0199 34.8749 57.2472 33.9782C57.2535 33.9401 57.263 33.902 57.2725 33.864C57.2779 33.8426 57.2833 33.8212 57.2881 33.7998C57.2917 33.7835 57.2951 33.7672 57.2978 33.7509C57.3103 33.6877 57.2725 33.6372 57.2093 33.6372H56.3632C56.3126 33.6372 56.2494 33.6625 56.2369 33.7382C56.2369 33.7509 56.2243 33.7761 56.2243 33.7761C56.0727 34.4328 55.7443 34.9633 55.2518 35.3674C54.7592 35.7715 54.1783 35.961 53.5342 35.961C52.8775 35.961 52.3597 35.7589 51.9682 35.3674C51.5766 34.9759 51.3872 34.4581 51.3872 33.814C51.3872 33.5109 51.4125 33.132 51.463 32.7026L57.6008 30.7956C57.7271 30.7578 57.7776 30.6946 57.8029 30.5431C57.8408 30.2273 57.8661 29.6843 57.8661 29.1286C57.8534 28.333 57.5755 27.5499 57.0199 27.0195ZM56.7799 29.8863C56.7799 29.9495 56.742 30 56.6789 30.0126L51.5893 31.5913V31.566C51.7156 30.5809 51.8292 29.8485 51.9304 29.3559C52.0818 28.6992 52.4102 28.1688 52.9027 27.7646C53.3953 27.3605 53.9762 27.1711 54.6203 27.1711C55.2771 27.1711 55.7948 27.3731 56.1863 27.752C56.8052 28.3961 56.8178 29.0528 56.7799 29.8863Z" fill="white"/>
<path d="M48.2046 35.822C48.2299 35.6831 48.091 35.5947 47.9647 35.6579C47.5353 35.8599 46.7018 36.062 46.2724 35.7084C45.9605 35.4084 46.0247 34.869 46.0967 34.2635L46.1082 34.1676L46.8534 28.1688H48.9751C49.0255 28.1688 49.1014 28.1561 49.1392 28.1183C49.1771 28.0677 49.1898 28.0299 49.2024 27.9541L49.2655 27.4742C49.2655 27.3479 49.215 27.2721 49.0887 27.2721H46.9544L47.3459 23.9633C47.3711 23.8496 47.3333 23.7612 47.1817 23.7612H46.525C46.3861 23.7612 46.2977 23.8243 46.2851 23.9633L45.9819 26.287L45.8556 27.3352L44.959 34.6475C44.8453 35.6073 45.0473 36.3777 45.8303 36.7313C46.5124 37.0344 47.3586 36.9334 47.9647 36.7061C48.0405 36.6682 48.1036 36.5924 48.1163 36.504L48.2046 35.822Z" fill="white"/>
</svg>
