<svg width="100" height="60" viewBox="0 0 100 60" fill="none" xmlns="http://www.w3.org/2000/svg">
<rect width="100" height="60" fill="#000066"/>
<path d="M56.5869 30C56.5869 39.9411 48.6205 48 38.7934 48C28.9664 48 21 39.9411 21 30C21 20.0589 28.9664 12 38.7934 12C48.6205 12 56.5869 20.0589 56.5869 30Z" fill="#ED0006"/>
<path d="M79.6702 30C79.6702 39.9411 71.7038 48 61.8768 48C52.0498 48 44.0834 39.9411 44.0834 30C44.0834 20.0589 52.0498 12 61.8768 12C71.7038 12 79.6702 20.0589 79.6702 30Z" fill="#0099DF"/>
<path d="M50.3352 43.7001C54.161 40.3985 56.5869 35.4858 56.5869 30C56.5869 24.5142 54.161 19.6016 50.3352 16.3001C46.5094 19.6016 44.0834 24.5142 44.0834 30C44.0834 35.4858 46.5094 40.3985 50.3352 43.7001Z" fill="#6C6BBD"/>
</svg>
