<svg width="100" height="60" viewBox="0 0 100 60" fill="none" xmlns="http://www.w3.org/2000/svg">
<path d="M50.3351 43.7C47.228 46.3814 43.1976 48 38.7934 48C28.9664 48 21 39.9411 21 30C21 20.0589 28.9664 12 38.7934 12C43.1976 12 47.228 13.6186 50.3351 16.3C53.4422 13.6186 57.4727 12 61.8768 12C71.7039 12 79.6703 20.0589 79.6703 30C79.6703 39.9411 71.7039 48 61.8768 48C57.4727 48 53.4422 46.3814 50.3351 43.7Z" fill="#ED0006"/>
<path d="M50.3351 43.7C54.161 40.3985 56.5869 35.4858 56.5869 30C56.5869 24.5142 54.161 19.6015 50.3351 16.3C53.4422 13.6186 57.4727 12 61.8768 12C71.7039 12 79.6703 20.0589 79.6703 30C79.6703 39.9411 71.7039 48 61.8768 48C57.4727 48 53.4422 46.3814 50.3351 43.7Z" fill="#F9A000"/>
<path d="M50.3351 43.7C54.161 40.3985 56.5869 35.4858 56.5869 30C56.5869 24.5142 54.161 19.6015 50.3351 16.3C46.5094 19.6015 44.0835 24.5142 44.0835 30C44.0835 35.4858 46.5094 40.3985 50.3351 43.7Z" fill="#FF5E00"/>
</svg>
