<svg width="100" height="60" viewBox="0 0 100 60" fill="none" xmlns="http://www.w3.org/2000/svg">
<path d="M84.4968 30.2745C84.0312 29.9676 83.5128 29.7454 83.026 29.4703C82.7086 29.2904 82.37 29.137 82.1002 28.9095C81.6346 28.5233 81.7298 27.772 82.2166 27.444C82.9202 26.9784 84.0789 27.2377 84.2005 28.19C84.2005 28.2111 84.2217 28.2217 84.2429 28.2217H85.301C85.3274 28.2217 85.3486 28.2005 85.3433 28.1741C85.2904 27.5181 85.0312 26.9678 84.5656 26.6187C84.1159 26.2853 83.608 26.1055 83.0683 26.1055C80.2696 26.1055 80.0157 29.0576 81.5235 29.9941C81.6928 30.1052 83.1741 30.8458 83.6979 31.1686C84.2217 31.4913 84.3857 32.0786 84.1582 32.5441C83.9519 32.9674 83.4175 33.2637 82.8779 33.2319C82.2959 33.2002 81.8409 32.8827 81.6822 32.3907C81.6557 32.3008 81.6399 32.1315 81.6399 32.0574C81.6399 32.0362 81.6187 32.0151 81.5975 32.0151H80.4495C80.4495 32.0151 80.4072 32.0362 80.4072 32.0574C80.4072 32.888 80.6135 33.3483 81.1796 33.7663C81.7087 34.1631 82.2853 34.3271 82.8832 34.3271C84.4492 34.3271 85.2586 33.4435 85.4279 32.523C85.5708 31.6236 85.3063 30.8141 84.5021 30.2798L84.4968 30.2745Z" fill="#161616"/>
<path d="M33.5958 26.2588C33.5958 26.2588 33.5587 26.2747 33.5535 26.2852L32.6117 29.3855C32.5959 29.4279 32.5429 29.4279 32.5271 29.3855L31.5853 26.2852C31.5853 26.2852 31.5642 26.2588 31.543 26.2588H29.7918C29.7918 26.2588 29.7495 26.28 29.7495 26.3011V34.2106C29.7495 34.2106 29.7707 34.2529 29.7918 34.2529H30.9399C30.9399 34.2529 30.9822 34.2317 30.9822 34.2106V28.2004C30.9822 28.1528 31.051 28.1475 31.0669 28.1846L32.0139 31.306L32.0827 31.5229C32.0827 31.5229 32.1038 31.5494 32.125 31.5494H33.0032C33.0032 31.5494 33.035 31.5335 33.0456 31.5229L33.1143 31.306L34.0613 28.1846C34.0772 28.137 34.146 28.1528 34.146 28.2004V34.2106C34.146 34.2106 34.1672 34.2529 34.1883 34.2529H35.3364C35.3364 34.2529 35.3787 34.2317 35.3787 34.2106V26.3011C35.3787 26.3011 35.3575 26.2588 35.3364 26.2588H33.5958Z" fill="#161616"/>
<path d="M66.9214 26.2588C66.9214 26.2588 66.8844 26.2747 66.8791 26.2852L65.9374 29.3855C65.9215 29.4279 65.8686 29.4279 65.8527 29.3855L64.911 26.2852C64.911 26.2852 64.8898 26.2588 64.8687 26.2588H63.1228C63.1228 26.2588 63.0804 26.28 63.0804 26.3011V34.2106C63.0804 34.2106 63.1016 34.2529 63.1228 34.2529H64.2708C64.2708 34.2529 64.3132 34.2317 64.3132 34.2106V28.2004C64.3132 28.1528 64.3819 28.1475 64.3978 28.1846L65.3448 31.306L65.4136 31.5229C65.4136 31.5229 65.4348 31.5494 65.4559 31.5494H66.3342C66.3342 31.5494 66.3712 31.5335 66.3765 31.5229L66.4453 31.306L67.3923 28.1846C67.4082 28.137 67.4769 28.1528 67.4769 28.2004V34.2106C67.4769 34.2106 67.4981 34.2529 67.5193 34.2529H68.6673C68.6673 34.2529 68.7096 34.2317 68.7096 34.2106V26.3011C68.7096 26.3011 68.6885 26.2588 68.6673 26.2588H66.9214Z" fill="#161616"/>
<path d="M52.1182 26.2588H46.6953C46.6953 26.2588 46.653 26.28 46.653 26.3011V27.2905C46.653 27.2905 46.6742 27.3328 46.6953 27.3328H48.7904V34.2159C48.7904 34.2159 48.8116 34.2582 48.8327 34.2582H49.9808C49.9808 34.2582 50.0231 34.237 50.0231 34.2159V27.3328H52.1182C52.1182 27.3328 52.1605 27.3116 52.1605 27.2905V26.3011C52.1605 26.3011 52.1447 26.2588 52.1182 26.2588Z" fill="#161616"/>
<path d="M58.8901 34.2532H59.9323C59.9588 34.2532 59.98 34.2268 59.9747 34.2003L57.8161 26.2591C57.8161 26.2591 57.7949 26.2327 57.7738 26.2327H56.2765C56.2765 26.2327 56.2395 26.2485 56.2342 26.2591L54.0756 34.2003C54.0704 34.2268 54.0915 34.2532 54.118 34.2532H55.1602C55.1602 34.2532 55.192 34.2373 55.2025 34.2268L55.8268 31.9148C55.8268 31.9148 55.848 31.8883 55.8692 31.8883H58.1812C58.1812 31.8883 58.2182 31.9042 58.2235 31.9148L58.8478 34.2268C58.8478 34.2268 58.8742 34.2532 58.8901 34.2532ZM56.1496 30.7561L56.9855 27.6664C57.0013 27.6241 57.0543 27.6241 57.0701 27.6664L57.906 30.7561C57.9113 30.7826 57.8902 30.809 57.8637 30.809H56.1866C56.1601 30.809 56.139 30.7826 56.1443 30.7561H56.1496Z" fill="#161616"/>
<path d="M76.7036 34.2532H77.7459C77.7723 34.2532 77.7935 34.2268 77.7882 34.2003L75.6296 26.2591C75.6296 26.2591 75.6085 26.2327 75.5873 26.2327H74.0901C74.0901 26.2327 74.053 26.2485 74.0477 26.2591L71.8892 34.2003C71.8839 34.2268 71.9051 34.2532 71.9315 34.2532H72.9738C72.9738 34.2532 73.0108 34.2373 73.0161 34.2268L73.6404 31.9148C73.6404 31.9148 73.6615 31.8883 73.6827 31.8883H75.9947C75.9947 31.8883 76.0317 31.9042 76.037 31.9148L76.6613 34.2268C76.6613 34.2268 76.6825 34.2532 76.7036 34.2532ZM73.9631 30.7561L74.8043 27.6664C74.8202 27.6241 74.8731 27.6241 74.889 27.6664L75.7302 30.7561C75.7354 30.7826 75.7143 30.809 75.6878 30.809H74.0107C73.9843 30.809 73.9631 30.7826 73.9684 30.7561H73.9631Z" fill="#161616"/>
<path d="M40.0345 33.0783V30.6235C40.0345 30.6235 40.0556 30.5811 40.0768 30.5811H43.1348C43.1348 30.5811 43.1771 30.56 43.1771 30.5388V29.5495C43.1771 29.5495 43.1559 29.5071 43.1348 29.5071H40.0768C40.0768 29.5071 40.0345 29.486 40.0345 29.4648V27.3697C40.0345 27.3697 40.0556 27.3274 40.0768 27.3274H43.5527C43.5527 27.3274 43.595 27.3062 43.595 27.2851V26.2957C43.595 26.2957 43.5739 26.2534 43.5527 26.2534H38.8441C38.8441 26.2534 38.8018 26.2746 38.8018 26.2957V34.1999C38.8018 34.1999 38.8229 34.2422 38.8441 34.2422H43.6956C43.6956 34.2422 43.7379 34.2211 43.7379 34.1999V33.1577C43.7379 33.1577 43.7167 33.1153 43.6956 33.1153H40.0662C40.0662 33.1153 40.0345 33.0942 40.0345 33.0677V33.0783Z" fill="#161616"/>
<path d="M94.988 34.1843L91.0147 30.0894C91.0147 30.0894 90.9988 30.0471 91.0147 30.0365L94.5912 26.3331C94.6176 26.3066 94.5964 26.2643 94.5647 26.2643H93.0992C93.0992 26.2643 93.078 26.2696 93.0728 26.2802L90.0412 29.4175C90.0148 29.4439 89.9725 29.4228 89.9725 29.391V26.3066C89.9725 26.3066 89.9513 26.2643 89.9301 26.2643H88.7821C88.7821 26.2643 88.7397 26.2854 88.7397 26.3066V34.2161C88.7397 34.2161 88.7609 34.2584 88.7821 34.2584H89.9301C89.9301 34.2584 89.9725 34.2372 89.9725 34.2161V30.7348C89.9725 30.7031 90.0201 30.6819 90.0412 30.7084L93.4748 34.2478C93.4748 34.2478 93.496 34.2637 93.5013 34.2637H94.9668C94.9932 34.2584 95.0144 34.2108 94.988 34.1896V34.1843Z" fill="#161616"/>
<path d="M21.9086 22L14.962 27.1425L16.2529 24.111L21.9086 22Z" fill="#E17726"/>
<path d="M5.88354 22L12.7719 27.1901L11.5392 24.1109L5.88354 22Z" fill="#E27625"/>
<path d="M19.4064 33.925L17.5599 36.7502L21.5173 37.8401L22.6495 33.9885L19.4064 33.925Z" fill="#E27625"/>
<path d="M5.14819 33.9885L6.27509 37.8401L10.2272 36.7502L8.38604 33.925L5.14819 33.9885Z" fill="#E27625"/>
<path d="M10.0155 29.1529L8.91504 30.8142L12.8301 30.9941L12.6978 26.7775L10.0102 29.1582L10.0155 29.1529Z" fill="#E27625"/>
<path d="M17.7819 29.1528L15.052 26.7244L15 31L18.8771 30.8087L17.7766 29.1475L17.7819 29.1528Z" fill="#E27625"/>
<path d="M10.2272 36.7502L12.5973 35.6074L10.5551 34.0149L10.2272 36.7502Z" fill="#E27625"/>
<path d="M15.1949 35.6022L17.5598 36.745L17.2371 34.0098L15.1949 35.6022Z" fill="#E27625"/>
<path d="M17.5599 36.7502L15.1949 35.6074L15.3854 37.1417L15.3642 37.7924L17.5546 36.7502L17.5599 36.7502Z" fill="#D5BFB2"/>
<path d="M10.2272 36.7502L12.428 37.7924L12.4121 37.1417L12.5973 35.6074L10.2272 36.7502Z" fill="#D5BFB2"/>
<path d="M12.4651 32.9991L10.4969 32.4224L11.8831 31.7822L12.4598 32.9938L12.4651 32.9991Z" fill="#233447"/>
<path d="M15.3273 32.9994L15.904 31.7878L17.3007 32.428L15.3273 33.0047V32.9994Z" fill="#233447"/>
<path d="M10.2272 36.7502L10.571 33.925L8.38599 33.9885L10.2272 36.7502Z" fill="#CC6228"/>
<path d="M17.2213 33.925L17.5599 36.7502L19.4063 33.9885L17.2213 33.925Z" fill="#CC6228"/>
<path d="M15 31L15.3273 33.0047L15.9038 31.7929L17.3005 32.4331L18.8867 30.8086L15 31Z" fill="#CC6228"/>
<path d="M10.5022 32.4224L11.8884 31.7822L12.465 32.9938L12.8301 30.9833L8.91504 30.8035L10.5022 32.4171V32.4224Z" fill="#CC6228"/>
<path d="M8.89062 30.7734L10.5551 34.0149L10.5022 32.4224L8.89062 30.7734Z" fill="#E27525"/>
<path d="M17.3006 32.4226L17.2371 34.015L18.8772 30.8142L17.2953 32.4278L17.3006 32.4226Z" fill="#E27525"/>
<path d="M12.8302 30.9888L12.4651 32.9991L12.9254 35.3694L13.026 32.2426L12.8249 30.9888H12.8302Z" fill="#E27525"/>
<path d="M15 31L14.7717 32.2374L14.8669 35.3694L15.3273 32.9994L15 31Z" fill="#E27525"/>
<path d="M15.3273 32.9994L14.8669 35.3694L15.1949 35.6022L17.2371 34.0098L17.3007 32.4172L15.3273 32.9939L15.3273 32.9994Z" fill="#F5841F"/>
<path d="M10.5022 32.4224L10.5551 34.0149L12.5973 35.6074L12.9253 35.3745L12.4651 33.0043L10.4969 32.4277L10.5022 32.4224Z" fill="#F5841F"/>
<path d="M15.3695 37.7924L15.3907 37.1416L15.2108 36.9882H12.5867L12.4174 37.1416L12.4333 37.7924L10.2324 36.7501L11.0048 37.3797L12.5655 38.4537H15.2373L16.8033 37.3797L17.5651 36.7501L15.3748 37.7924H15.3695Z" fill="#C0AC9D"/>
<path d="M15.1949 35.6022L14.8669 35.3694L12.9307 35.3691L12.6027 35.6019L12.4175 37.1362L12.5868 36.9828H15.211L15.3909 37.1362L15.2004 35.6019L15.1949 35.6022Z" fill="#161616"/>
<path d="M22.205 27.481L22.787 24.6453L21.9087 22.0052L15.1949 26.9731L17.7768 29.1529L21.4273 30.2163L22.2314 29.2745L21.8823 29.0206L22.4378 28.5127L22.0092 28.1847L22.5648 27.7614L22.1997 27.481H22.205Z" fill="#763E1A"/>
<path d="M5 24.64L5.59255 27.4758L5.21691 27.7562L5.78301 28.1794L5.35447 28.5074L5.90998 29.0153L5.5608 29.2693L6.36498 30.211L10.0155 29.1476L12.5973 26.9679L5.88354 22L5 24.64Z" fill="#763E1A"/>
<path d="M21.4273 30.2163L17.7768 29.1529L18.8772 30.8142L17.2371 34.015L19.4116 33.9884H22.6547L21.4326 30.2162L21.4273 30.2163Z" fill="#F5841F"/>
<path d="M10.0155 29.1529L6.36503 30.2162L5.14819 33.9885H8.38599L10.5605 34.0149L8.92039 30.8141L10.0208 29.1528L10.0155 29.1529Z" fill="#F5841F"/>
<path d="M15 30.9889L15.1949 26.9731L16.2532 24.1165H11.5393L12.5974 26.9734L12.8302 30.9888L12.9202 32.2481V35.3696L14.8669 35.3694L14.8671 32.2481L15 30.9889Z" fill="#F5841F"/>
</svg>
