<svg width="100" height="60" viewBox="0 0 100 60" fill="none" xmlns="http://www.w3.org/2000/svg">
<path d="M34.7 20.6001C34.7 20.6001 32.1 20.6001 31.4 23.1001C30.8 25.4001 29 31.6001 28.9 31.8001H28.4C28.4 31.8001 26.6 25.4001 25.9 23.1001C25.2 20.6001 22.6 20.6001 22.6 20.6001H16.7V39.3001H22.6V28.2001H23L26.4 39.3001H30.5L33.9 28.2001H34.4V39.3001H40.2999V20.6001H34.7ZM56.2999 20.6001C56.2999 20.6001 54.5999 20.8001 53.7999 22.6001L49.5999 31.8001H49.0999V20.6001H43.2V39.3001H48.7999C48.7999 39.3001 50.6 39.1001 51.4 37.3001L55.5 28.1001H56V39.2001H61.9V20.6001H56.2999ZM64.4 29.1001V39.3001H70.3V33.3001H76.6999C79.4999 33.3001 81.8 31.5001 82.7 29.0001H64.4V29.1001Z" fill="#4DB45E"/>
<path d="M76.7001 20.6001H63.6001C64.3001 24.2001 66.9001 27.0001 70.4001 28.0001C71.2001 28.2001 72.0001 28.3001 72.9001 28.3001H83.0001C83.1001 27.9001 83.1001 27.4001 83.1001 27.0001C83.1001 23.5001 80.2001 20.6001 76.7001 20.6001Z" fill="url(#paint0_linear_200_11966)"/>
<defs>
<linearGradient id="paint0_linear_200_11966" x1="63.6001" y1="24.4501" x2="83.0691" y2="24.4501" gradientUnits="userSpaceOnUse">
<stop offset="0.3" stop-color="#00B4E6"/>
<stop offset="1" stop-color="#088CCB"/>
</linearGradient>
</defs>
</svg>
