<svg width="100" height="60" viewBox="0 0 100 60" fill="none" xmlns="http://www.w3.org/2000/svg">
<rect width="100" height="60" fill="#4C4C4C"/>
<path d="M24.9939 21.156C20.0749 21.156 16.0959 25.116 16.0959 30.012C16.0959 30.996 16.2659 31.932 16.5549 32.82H19.2069V25.38L24.9939 31.14L30.7819 25.38V32.82H33.4339C33.7345 31.9142 33.8891 30.9664 33.8919 30.012C33.8919 25.116 29.9129 21.156 24.9939 21.156Z" fill="#FF6600"/>
<path d="M23.6679 32.436L21.1359 29.916V34.596H17.3999C18.1979 35.8935 19.3149 36.9652 20.6444 37.7088C21.9739 38.4524 23.4716 38.8432 24.9949 38.844C26.5189 38.8462 28.018 38.4567 29.3481 37.7128C30.6783 36.969 31.7949 35.8957 32.5909 34.596H28.8529V29.916L26.3459 32.436L25.0189 33.756L23.6689 32.436H23.6679ZM82.7459 27.996C81.9989 27.228 81.0819 26.868 80.0459 26.868C79.3459 26.868 78.6949 27.036 78.1159 27.396C77.5192 27.7262 77.0267 28.2167 76.6939 28.812C76.358 29.4046 76.1832 30.0748 76.1869 30.756C76.1869 31.812 76.5489 32.724 77.2969 33.492C78.0439 34.26 78.9599 34.644 80.0699 34.644C80.5767 34.6502 81.0794 34.5535 81.5477 34.3596C82.0159 34.1657 82.4399 33.8787 82.7939 33.516C83.5419 32.772 83.9039 31.86 83.9039 30.78C83.8789 29.676 83.5179 28.74 82.7459 27.996ZM81.7569 32.532C81.2749 33.012 80.7209 33.252 80.0449 33.252C79.4742 33.2563 78.9199 33.061 78.4779 32.7C77.8989 32.22 77.5859 31.572 77.5859 30.756C77.5859 30.012 77.8269 29.412 78.2859 28.932C78.7429 28.452 79.3219 28.212 80.0209 28.212C80.6959 28.212 81.2749 28.452 81.7569 28.932C82.2399 29.412 82.4809 30.012 82.4809 30.708C82.4809 31.452 82.2399 32.052 81.7569 32.532ZM73.7039 31.164C74.1859 30.996 74.5719 30.732 74.8129 30.396C75.0529 30.06 75.1739 29.628 75.1739 29.124C75.1739 28.644 75.0539 28.212 74.8369 27.852C74.6199 27.492 74.3299 27.252 73.9449 27.084C73.5589 26.916 72.9559 26.844 72.1119 26.844H69.3869V34.596H70.8819V31.308H72.1839L73.9439 34.596H75.5599L73.7039 31.164ZM73.4619 29.7C73.2939 29.82 73.1969 29.892 72.7149 29.892H70.8579V28.308H72.6669C73.0279 28.308 73.1009 28.332 73.2449 28.38C73.3886 28.4311 73.5143 28.5228 73.6069 28.644C73.7039 28.764 73.7269 28.908 73.7269 29.076C73.7269 29.388 73.6549 29.58 73.4619 29.7ZM62.7319 26.868H67.7959V28.308H64.2029V29.892H67.7959V31.308H64.2029V33.156H67.7959V34.62H62.7319V26.868ZM54.8949 26.868H56.3179L59.6699 31.956V26.868H61.1399V34.62H59.7179L56.3899 29.532V34.62H54.8949V26.868ZM52.6039 27.996C51.8569 27.252 50.9399 26.868 49.9039 26.868C49.2039 26.868 48.5769 27.036 47.9739 27.396C47.3719 27.732 46.9139 28.212 46.5519 28.812C46.216 29.4046 46.0412 30.0748 46.0449 30.756C46.0449 31.812 46.4069 32.724 47.1549 33.492C47.8779 34.26 48.8179 34.644 49.9279 34.644C50.9879 34.644 51.8809 34.284 52.6279 33.516C53.3759 32.772 53.7379 31.86 53.7379 30.78C53.7129 29.676 53.3519 28.74 52.6039 27.996ZM51.6159 32.508C51.1569 32.988 50.5789 33.228 49.9039 33.228C49.3009 33.228 48.7939 33.036 48.3359 32.676C47.7569 32.196 47.4439 31.548 47.4439 30.732C47.4439 30.012 47.6849 29.388 48.1439 28.932C48.6009 28.452 49.1799 28.212 49.8789 28.212C50.5549 28.212 51.1329 28.452 51.6159 28.932C52.0979 29.412 52.3389 30.012 52.3389 30.708C52.3149 31.452 52.0739 32.028 51.6159 32.508ZM37.6299 26.868H39.0769L40.8849 32.292L42.7179 26.868H44.1399L45.4429 34.62H44.0199L43.1759 29.724L41.5119 34.62H40.2099L38.5699 29.724L37.7259 34.62H36.2799L37.6299 26.868Z" fill="white"/>
</svg>
