<svg width="100" height="60" viewBox="0 0 100 60" fill="none" xmlns="http://www.w3.org/2000/svg">
<rect width="100" height="60" fill="#8DC640"/>
<path d="M84.6539 29.1381C84.2009 29.4481 83.5439 29.6031 82.6439 29.6031H81.7519L82.4359 25.9661H83.0929C83.8389 25.9661 84.3839 26.0841 84.7599 26.3241C85.0539 26.5121 85.4019 26.8851 85.4019 27.5931C85.4019 28.4451 84.9969 28.9031 84.6539 29.1381ZM31.4369 33.7021H24.5339L24.9799 31.3251H29.3099L29.8019 28.6481H25.5129L25.9279 26.2951H32.8199L31.4369 33.7021ZM88.3729 24.2551C87.3579 23.5701 85.8219 23.2251 83.8079 23.2251H78.5339L76.5739 33.7031H69.6639L70.1069 31.3261H74.2699L74.7649 28.6561L70.6049 28.6631L71.0499 26.2961H75.3369L75.9069 23.2251H67.1989L65.3389 33.1651H62.1459L64.0199 23.2251H59.4679L57.6069 33.1651H54.4939L56.3699 23.2251H51.8219L49.8569 33.7031H42.8989L43.3369 31.3261H47.5179L48.0109 28.6711L43.8359 28.6671L44.2789 26.2961H48.6139L49.1809 23.2251H22.0529L20.5089 31.5291L17.4329 23.2251H12.7099L10.1699 36.7751H14.6779L16.2159 28.2441L19.2009 36.7751H35.3619L37.3259 26.2951H39.8559L37.8899 36.7751H80.4129L81.6449 30.1591L83.6409 36.7751H88.1529L86.0859 31.3701L86.5579 31.2701C87.5979 31.0501 88.4109 30.5781 88.9759 29.8701C89.5419 29.1571 89.8289 28.2401 89.8289 27.1391C89.8289 25.8571 89.3539 24.9141 88.3729 24.2551Z" fill="white"/>
</svg>
