<svg width="100" height="60" viewBox="0 0 100 60" fill="none" xmlns="http://www.w3.org/2000/svg">
<rect width="100" height="60" fill="#286AA6"/>
<path d="M19.02 34.209C21.569 34.209 23.65 32.401 23.65 29.881C23.65 28.357 22.538 27.361 20.779 27.361C18.159 27.361 16.184 29.475 16.184 31.791C16.184 33.254 17.441 34.209 19.02 34.209ZM19.128 35.693C15.323 35.693 13.061 34.169 13.061 31.608C13.061 28.418 16.4 26 20.779 26C24.44 26 26.773 27.585 26.773 29.983C26.773 33.397 23.363 35.693 19.128 35.693ZM34.857 27.687C33.207 27.687 31.663 28.703 31.663 29.8C31.663 30.877 32.883 31.649 34.57 31.649C36.58 31.649 37.729 30.531 37.729 29.516C37.729 28.438 36.509 27.687 34.857 27.687ZM33.709 36.343C31.627 36.566 29.545 37.075 29.545 37.684C29.545 38.354 31.195 38.781 33.888 38.781C35.97 38.781 37.298 38.314 37.298 37.643C37.298 37.075 35.612 36.587 33.709 36.343ZM47.896 27.626H39.559C40.385 28.296 40.636 28.804 40.636 29.434C40.636 30.958 39.344 32.157 36.867 32.746C34.965 33.193 31.375 33.092 31.375 33.966C31.375 35.103 40.205 34.453 40.205 37.481C40.205 38.985 37.442 40.081 33.637 40.081C29.581 40.081 26.637 39.086 26.637 37.725C26.637 36.648 28.827 36.16 31.267 35.875V35.835C29.257 35.408 28.467 34.941 28.467 34.23C28.467 33.478 29.832 32.828 31.663 32.543C29.76 32.035 28.755 31.121 28.755 29.922C28.755 27.829 31.483 26.284 34.75 26.284H48.219L47.896 27.626Z" fill="white"/>
<path d="M48.354 34.209C50.902 34.209 52.984 32.401 52.984 29.881C52.984 28.357 51.871 27.361 50.112 27.361C47.492 27.361 45.518 29.475 45.518 31.791C45.518 33.254 46.774 34.209 48.354 34.209ZM48.461 35.693C44.656 35.693 42.395 34.169 42.395 31.608C42.395 28.418 45.733 26 50.112 26C53.774 26 56.107 27.585 56.107 29.983C56.107 33.397 52.697 35.693 48.461 35.693ZM62.28 27.89L62.352 27.93C64.112 26.711 65.906 26.142 67.701 26.142C71.111 26.142 71.972 28.154 71.541 29.658L69.998 35.408H66.983L68.455 29.597C68.849 28.012 67.629 27.565 66.695 27.565C65.835 27.565 64.147 27.91 61.85 29.597L60.378 35.408H57.363L59.624 26.284H62.675L62.28 27.89ZM83.997 29.475C83.997 28.316 83.099 27.423 81.089 27.423C79.295 27.423 78.074 28.093 77.249 29.475H83.997ZM85.72 34.677C84.104 35.347 82.274 35.693 80.335 35.693C76.243 35.693 73.587 33.945 73.587 31.283C73.587 28.296 76.926 26 81.233 26C84.823 26 87.515 27.89 86.833 30.674H76.781C76.027 33.112 78.396 34.27 80.909 34.27C82.416 34.27 84.139 33.864 86.149 33.03L85.72 34.677Z" fill="white"/>
</svg>
