<svg width="100" height="60" viewBox="0 0 100 60" fill="none" xmlns="http://www.w3.org/2000/svg">
<rect width="100" height="60" fill="#D2642C"/>
<path d="M85.1169 22.4049H83.9879C83.2659 22.4049 82.7289 22.8899 82.3139 23.4819L81.1969 25.0739L81.1949 25.0759L78.775 28.5219L76.678 25.5359C76.668 25.5209 76.663 25.5079 76.652 25.4919L75.2389 23.4859C74.8229 22.8949 74.2809 22.4109 73.5589 22.4109H72.512C71.789 22.4109 71.3209 22.8939 71.7389 23.4839L73.161 25.4939L73.1709 25.5059L77.217 31.2189V37.6849C77.217 38.4099 77.8079 39.0009 78.5309 38.9999L79.021 38.9989C79.743 38.9989 80.3349 38.4039 80.3349 37.6799V31.2119L84.6449 25.1289C84.6579 25.1109 84.675 25.0939 84.688 25.0759L85.8149 23.4799C86.2329 22.8889 85.8399 22.4049 85.1169 22.4049ZM37.9539 30.1799L42.014 26.2729L44.8839 23.5109C45.3969 23.0169 44.8439 22.4049 44.1409 22.4049H42.5979C41.8949 22.4049 41.54 22.8109 41.028 23.3079L38.0219 26.2209L38.0149 26.2289L36.081 28.1039V25.9779H36.073C36.075 25.9499 36.081 25.9219 36.081 25.8939V23.7229C36.081 22.9989 35.507 22.4049 34.804 22.4049H34.2299C33.5269 22.4049 32.952 22.9989 32.952 23.7229V25.8929C32.952 25.9219 32.9579 25.9499 32.9599 25.9779H32.952V37.6829C32.952 38.4069 33.5269 38.9999 34.2299 38.9999H34.804C35.507 38.9999 36.081 38.4069 36.081 37.6829V32.4419L38.837 35.2769H38.84L41.5519 38.0699C42.0489 38.5809 42.392 38.9999 43.095 38.9999H44.6409C45.3439 38.9999 45.643 38.1429 45.146 37.6319L37.9539 30.1799ZM68.5189 31.8049H65.494C65.13 31.8049 64.946 31.5309 65.082 31.1949L66.7519 27.0999C66.8889 26.7649 67.1139 26.7649 67.2519 27.0999L68.93 31.1959C69.067 31.5309 68.8819 31.8049 68.5189 31.8049ZM74.595 37.3569H74.6029L69.329 24.2439H69.3259L69.079 23.6289C68.809 22.9559 67.9939 22.4049 67.2669 22.4049H66.7429C66.0169 22.4049 65.2019 22.9559 64.9339 23.6299L64.69 24.2439H64.68L59.4269 37.2879H59.429L59.2309 37.7779C58.9589 38.4499 59.3319 38.9999 60.0589 38.9999H61.234C61.961 38.9999 62.302 38.4439 62.554 37.7649L62.7319 37.2879H62.7389L63.8009 34.4639H70.2229L70.3099 34.6909L70.375 34.8249L71.3219 37.3569H71.3249L71.4769 37.7649C71.7299 38.4449 72.174 38.9999 72.901 38.9999H73.941C74.668 38.9999 75.0389 38.4499 74.7659 37.7799L74.595 37.3569ZM58.249 28.6299C58.1347 28.927 57.9509 29.1924 57.713 29.4039C57.238 29.8239 56.529 30.0529 55.575 30.0529H53.852C53.6757 30.0537 53.5064 29.9847 53.3808 29.8611C53.2553 29.7374 53.1838 29.5691 53.1819 29.3929V25.6999C53.1819 25.3389 53.483 25.0419 53.852 25.0419H55.575C56.529 25.0419 57.238 25.2699 57.713 25.6919C57.951 25.9019 58.127 26.1549 58.249 26.4629C58.369 26.7709 58.431 27.1289 58.431 27.5419C58.431 27.9589 58.369 28.3199 58.249 28.6299ZM61.359 29.7579C61.629 29.1109 61.761 28.3699 61.761 27.5419C61.761 26.7199 61.628 25.9839 61.36 25.3399C61.0988 24.7042 60.6841 24.1431 60.153 23.7069C59.091 22.8329 57.543 22.4049 55.575 22.4049H51.316C50.579 22.4049 49.976 22.9989 49.976 23.7229V37.6829C49.976 38.4069 50.579 38.9999 51.316 38.9999H51.84C52.578 38.9999 53.181 38.4069 53.181 37.6829V32.6889H55.575C57.543 32.6889 59.091 32.2649 60.153 31.3919C60.6851 30.9562 61.0989 30.3946 61.359 29.7579ZM26.9999 34.6599C26.5599 35.2099 26.0569 35.6129 25.4749 35.8799C24.8949 36.1469 24.2299 36.2829 23.4699 36.2829C22.7079 36.2829 22.0429 36.1469 21.4599 35.8799C20.8739 35.6129 20.3689 35.2069 19.9249 34.6549C19.4049 34.0119 19.0369 33.2069 18.8149 32.2569L18.6089 30.8749C18.572 30.4178 18.567 29.9587 18.5939 29.5009L18.7539 28.1179C18.9599 27.0369 19.3519 26.1309 19.9249 25.4179L19.9229 25.4229H19.9249C20.3689 24.8669 20.8749 24.4639 21.4599 24.1979C22.0429 23.9309 22.7079 23.7949 23.4699 23.7949C24.2299 23.7949 24.8939 23.9309 25.4749 24.1979C26.0569 24.4639 26.5599 24.8669 26.9999 25.4179C27.8799 26.5209 28.3359 28.0699 28.3359 30.0429C28.3359 32.0129 27.8799 33.5569 26.9999 34.6599ZM29.4229 23.5409C27.9379 21.9049 25.9169 21.0729 23.4699 21.0779C21.0109 21.0729 18.9859 21.9049 17.499 23.5409C16.4039 24.7409 15.7109 26.2579 15.4259 28.0519V28.0569L15.2929 29.4699V29.4789C15.2839 29.6589 15.2729 29.8419 15.2729 30.0429C15.2729 30.3409 15.2869 30.6289 15.3039 30.9089V30.9189L15.4839 32.3319V32.3359C15.7979 33.9939 16.464 35.4119 17.499 36.5459C18.9859 38.1729 21.0109 39.0049 23.4689 38.9999C25.9169 39.0049 27.9379 38.1729 29.4229 36.5369C30.8989 34.9129 31.6429 32.7169 31.6429 30.0429C31.6429 27.3659 30.9019 25.1639 29.4229 23.5409Z" fill="white"/>
<path d="M23.427 29.043H12.655L13.668 27.052H24.44L23.427 29.043ZM21.408 33.026H12L13.067 31.035H22.476L21.408 33.026Z" fill="white"/>
</svg>
