<svg width="100" height="60" viewBox="0 0 100 60" fill="none" xmlns="http://www.w3.org/2000/svg">
<path d="M86.1169 22.4049H84.9879C84.2659 22.4049 83.7289 22.8899 83.3139 23.4819L82.1969 25.0739L82.1949 25.0759L79.7749 28.5219L77.6779 25.5359C77.6679 25.5209 77.6629 25.5079 77.6519 25.4919L76.2389 23.4859C75.8229 22.8949 75.2809 22.4109 74.5589 22.4109H73.5119C72.7889 22.4109 72.3209 22.8939 72.7389 23.4839L74.1609 25.4939L74.1709 25.5059L78.2169 31.2189V37.6849C78.2169 38.4099 78.8079 39.0009 79.5309 38.9999L80.021 38.9989C80.743 38.9989 81.3349 38.4039 81.3349 37.6799V31.2119L85.6449 25.1289C85.6579 25.1109 85.675 25.0939 85.688 25.0759L86.8149 23.4799C87.2329 22.8889 86.8399 22.4049 86.1169 22.4049ZM38.9539 30.1799L43.0139 26.2729L45.8839 23.5109C46.3969 23.0169 45.8439 22.4049 45.1409 22.4049H43.5979C42.8949 22.4049 42.5399 22.8109 42.0279 23.3079L39.0219 26.2209L39.0149 26.2289L37.0809 28.1039V25.9779H37.073C37.075 25.9499 37.0809 25.9219 37.0809 25.8939V23.7229C37.0809 22.9989 36.5069 22.4049 35.8039 22.4049H35.2299C34.5269 22.4049 33.9519 22.9989 33.9519 23.7229V25.8929C33.9519 25.9219 33.9579 25.9499 33.9599 25.9779H33.9519V37.6829C33.9519 38.4069 34.5269 38.9999 35.2299 38.9999H35.8039C36.5069 38.9999 37.0809 38.4069 37.0809 37.6829V32.4419L39.837 35.2769H39.8399L42.5519 38.0699C43.0489 38.5809 43.3919 38.9999 44.0949 38.9999H45.6409C46.3439 38.9999 46.6429 38.1429 46.1459 37.6319L38.9539 30.1799ZM69.5189 31.8049H66.4939C66.1299 31.8049 65.9459 31.5309 66.0819 31.1949L67.7519 27.0999C67.8889 26.7649 68.1139 26.7649 68.2519 27.0999L69.9299 31.1959C70.0669 31.5309 69.8819 31.8049 69.5189 31.8049ZM75.5949 37.3569H75.6029L70.3289 24.2439H70.3259L70.0789 23.6289C69.8089 22.9559 68.9939 22.4049 68.2669 22.4049H67.7429C67.0169 22.4049 66.2019 22.9559 65.9339 23.6299L65.6899 24.2439H65.6799L60.4269 37.2879H60.4289L60.2309 37.7779C59.9589 38.4499 60.3319 38.9999 61.0589 38.9999H62.2339C62.9609 38.9999 63.3019 38.4439 63.5539 37.7649L63.7319 37.2879H63.7389L64.8009 34.4639H71.2229L71.3099 34.6909L71.3749 34.8249L72.3219 37.3569H72.3249L72.4769 37.7649C72.7299 38.4449 73.1739 38.9999 73.9009 38.9999H74.9409C75.6679 38.9999 76.0389 38.4499 75.7659 37.7799L75.5949 37.3569ZM59.2489 28.6299C59.1347 28.927 58.9509 29.1924 58.713 29.4039C58.238 29.8239 57.529 30.0529 56.575 30.0529H54.852C54.6757 30.0537 54.5064 29.9847 54.3808 29.8611C54.2553 29.7374 54.1838 29.5691 54.1819 29.3929V25.6999C54.1819 25.3389 54.483 25.0419 54.852 25.0419H56.575C57.529 25.0419 58.238 25.2699 58.713 25.6919C58.951 25.9019 59.1269 26.1549 59.2489 26.4629C59.3689 26.7709 59.4309 27.1289 59.4309 27.5419C59.4309 27.9589 59.3689 28.3199 59.2489 28.6299ZM62.3589 29.7579C62.6289 29.1109 62.7609 28.3699 62.7609 27.5419C62.7609 26.7199 62.6279 25.9839 62.3599 25.3399C62.0988 24.7042 61.6841 24.1431 61.1529 23.7069C60.0909 22.8329 58.543 22.4049 56.575 22.4049H52.3159C51.5789 22.4049 50.976 22.9989 50.976 23.7229V37.6829C50.976 38.4069 51.5789 38.9999 52.3159 38.9999H52.84C53.578 38.9999 54.1809 38.4069 54.1809 37.6829V32.6889H56.575C58.543 32.6889 60.0909 32.2649 61.1529 31.3919C61.685 30.9562 62.0989 30.3946 62.3589 29.7579ZM27.9999 34.6599C27.5599 35.2099 27.0569 35.6129 26.4749 35.8799C25.8949 36.1469 25.2299 36.2829 24.4699 36.2829C23.7079 36.2829 23.0429 36.1469 22.4599 35.8799C21.8739 35.6129 21.3689 35.2069 20.9249 34.6549C20.4049 34.0119 20.0369 33.2069 19.8149 32.2569L19.6089 30.8749C19.572 30.4178 19.567 29.9587 19.5939 29.5009L19.7539 28.1179C19.9599 27.0369 20.3519 26.1309 20.9249 25.4179L20.9229 25.4229H20.9249C21.3689 24.8669 21.8749 24.4639 22.4599 24.1979C23.0429 23.9309 23.7079 23.7949 24.4699 23.7949C25.2299 23.7949 25.8939 23.9309 26.4749 24.1979C27.0569 24.4639 27.5599 24.8669 27.9999 25.4179C28.8799 26.5209 29.3359 28.0699 29.3359 30.0429C29.3359 32.0129 28.8799 33.5569 27.9999 34.6599ZM30.4229 23.5409C28.9379 21.9049 26.9169 21.0729 24.4699 21.0779C22.0109 21.0729 19.9859 21.9049 18.4989 23.5409C17.4039 24.7409 16.7109 26.2579 16.4259 28.0519V28.0569L16.2929 29.4699V29.4789C16.2839 29.6589 16.2729 29.8419 16.2729 30.0429C16.2729 30.3409 16.2869 30.6289 16.3039 30.9089V30.9189L16.4839 32.3319V32.3359C16.7979 33.9939 17.4639 35.4119 18.4989 36.5459C19.9859 38.1729 22.0109 39.0049 24.4689 38.9999C26.9169 39.0049 28.9379 38.1729 30.4229 36.5369C31.8989 34.9129 32.643 32.7169 32.643 30.0429C32.643 27.3659 31.9019 25.1639 30.4229 23.5409Z" fill="#D2642C"/>
<path d="M24.427 29.043H13.655L14.668 27.052H25.44L24.427 29.043ZM22.408 33.026H13L14.067 31.035H23.476L22.408 33.026Z" fill="#D2642C"/>
</svg>
