<svg xmlns="http://www.w3.org/2000/svg" width="100" height="60" fill="none"><path fill="#fff" d="M0 0h100v60H0z"/><path fill="#D2642C" d="M86.117 22.405h-1.13c-.721 0-1.258.485-1.673 1.077l-1.117 1.592-.002.002-2.42 3.446-2.097-2.986c-.01-.015-.015-.028-.026-.044l-1.413-2.006c-.416-.591-.958-1.075-1.68-1.075h-1.047c-.723 0-1.191.483-.773 1.073l1.422 2.01.01.012 4.046 5.713v6.466c0 .725.59 1.316 1.314 1.315l.49-.001c.722 0 1.314-.595 1.314-1.32v-6.467l4.31-6.083c.013-.018.03-.035.043-.053l1.127-1.596c.418-.591.025-1.075-.698-1.075M38.954 30.18l4.06-3.907 2.87-2.762c.513-.494-.04-1.106-.743-1.106h-1.543c-.703 0-1.058.406-1.57.903l-3.006 2.913-.007.008-1.934 1.875v-2.126h-.008c.002-.028.008-.056.008-.084v-2.171c0-.724-.574-1.318-1.277-1.318h-.574c-.703 0-1.278.594-1.278 1.318v2.17c0 .029.006.057.008.085h-.008v11.705c0 .724.575 1.317 1.278 1.317h.574c.703 0 1.277-.593 1.277-1.317v-5.241l2.756 2.835h.003l2.712 2.793c.497.51.84.93 1.543.93h1.546c.703 0 1.002-.857.505-1.368zm30.565 1.625h-3.025c-.364 0-.548-.274-.412-.61l1.67-4.095c.137-.335.362-.335.5 0l1.678 4.096c.137.335-.048.609-.411.609m6.076 5.552h.008l-5.274-13.113h-.003l-.247-.615c-.27-.673-1.085-1.224-1.812-1.224h-.524c-.726 0-1.541.55-1.81 1.225l-.243.614h-.01l-5.253 13.044h.002l-.198.49c-.272.672.1 1.222.828 1.222h1.175c.727 0 1.068-.556 1.32-1.235l.178-.477h.007l1.062-2.824h6.422l.087.227.065.134.947 2.532h.003l.152.408c.253.68.697 1.235 1.424 1.235h1.04c.727 0 1.098-.55.825-1.22zM59.249 28.63a2 2 0 0 1-.536.774c-.475.42-1.184.649-2.138.649h-1.723a.667.667 0 0 1-.67-.66V25.7c0-.361.301-.658.67-.658h1.723c.954 0 1.663.228 2.138.65.238.21.414.463.536.77q.181.462.182 1.08-.001.624-.182 1.088m3.11 1.128q.404-.972.402-2.216 0-1.235-.401-2.202a4.16 4.16 0 0 0-1.207-1.633c-1.062-.874-2.61-1.302-4.578-1.302h-4.26c-.736 0-1.339.594-1.339 1.318v13.96c0 .724.603 1.317 1.34 1.317h.524c.738 0 1.34-.593 1.34-1.317v-4.994h2.395c1.968 0 3.516-.424 4.578-1.297a4.1 4.1 0 0 0 1.206-1.634m-34.36 4.902c-.44.55-.942.953-1.524 1.22-.58.267-1.245.403-2.005.403-.762 0-1.427-.136-2.01-.403-.586-.267-1.091-.673-1.535-1.225-.52-.643-.888-1.448-1.11-2.398l-.206-1.382a10 10 0 0 1-.015-1.374l.16-1.383c.206-1.081.598-1.987 1.17-2.7l-.001.005h.002c.444-.556.95-.96 1.535-1.225.583-.267 1.248-.403 2.01-.403.76 0 1.424.136 2.005.403.582.266 1.085.669 1.525 1.22.88 1.103 1.336 2.652 1.336 4.625 0 1.97-.456 3.514-1.336 4.617m2.424-11.12c-1.485-1.635-3.506-2.467-5.953-2.462-2.46-.005-4.484.827-5.971 2.463-1.095 1.2-1.788 2.717-2.073 4.51v.006l-.133 1.413v.009c-.01.18-.02.363-.02.564 0 .298.014.586.03.866v.01l.18 1.413v.004c.315 1.658.98 3.076 2.016 4.21 1.487 1.627 3.512 2.459 5.97 2.454 2.448.005 4.469-.827 5.954-2.463 1.476-1.624 2.22-3.82 2.22-6.494 0-2.677-.741-4.88-2.22-6.502"/><path fill="#D2642C" d="M24.427 29.043H13.655l1.013-1.991H25.44zm-2.019 3.983H13l1.067-1.991h9.409z"/></svg>