<svg width="100" height="60" viewBox="0 0 100 60" fill="none" xmlns="http://www.w3.org/2000/svg">
<path d="M35.7802 33.7C34.8802 33.7 34.0402 33.4999 33.2802 33.0999C32.5402 32.6999 31.9402 32.1399 31.4802 31.4C31.0402 30.66 30.8202 29.84 30.8202 28.94C30.8202 28.04 31.0402 27.22 31.4802 26.5C31.9202 25.78 32.5202 25.22 33.2802 24.8C34.0402 24.4 34.8602 24.2 35.7802 24.2C36.7002 24.2 37.5202 24.4 38.2602 24.8C39.0202 25.2 39.6202 25.76 40.0402 26.5C40.4802 27.22 40.7002 28.04 40.7002 28.94C40.7002 29.84 40.4802 30.66 40.0402 31.4C39.6002 32.1199 39.0002 32.6799 38.2602 33.0999C37.5202 33.4999 36.6802 33.7 35.7802 33.7ZM35.7802 31.64C36.5402 31.64 37.1602 31.3999 37.6202 30.9C38.0802 30.4 38.3202 29.76 38.3202 28.94C38.3202 28.12 38.0802 27.46 37.6202 26.98C37.1602 26.48 36.5602 26.24 35.7802 26.24C35.0002 26.24 34.3802 26.48 33.9202 26.96C33.4602 27.44 33.2402 28.1 33.2402 28.92C33.2402 29.74 33.4602 30.4 33.9202 30.88C34.3802 31.4 35.0002 31.64 35.7802 31.64Z" fill="#04111D"/>
<path d="M44.3401 27.2798C44.5601 26.9398 44.8801 26.6598 45.2801 26.4398C45.6801 26.2198 46.1601 26.1198 46.7001 26.1198C47.3401 26.1198 47.9001 26.2798 48.4201 26.5798C48.9401 26.8798 49.3401 27.3198 49.6201 27.8998C49.9201 28.4798 50.0801 29.1398 50.0801 29.8998C50.0801 30.6598 49.9201 31.3198 49.6201 31.8998C49.3201 32.4798 48.9201 32.9198 48.4201 33.2398C47.9001 33.5398 47.3401 33.6998 46.7001 33.6998C46.1801 33.6998 45.7001 33.5998 45.2801 33.3798C44.8801 33.1598 44.5601 32.8998 44.3401 32.5598V35.7798H42.0001V26.2198H44.3401V27.2798ZM47.6801 29.8998C47.6801 29.3398 47.5201 28.8998 47.1801 28.5798C46.8601 28.2598 46.4601 28.0998 45.9801 28.0998C45.5001 28.0998 45.1201 28.2598 44.7801 28.5798C44.4601 28.8998 44.3001 29.3598 44.3001 29.9198C44.3001 30.4798 44.4601 30.9198 44.7801 31.2598C45.1001 31.5798 45.5001 31.7398 45.9801 31.7398C46.4601 31.7398 46.8401 31.5798 47.1801 31.2598C47.5201 30.9198 47.6801 30.4798 47.6801 29.8998Z" fill="#04111D"/>
<path d="M58.5001 29.8002C58.5001 30.0202 58.4801 30.2402 58.4601 30.4602H53.1601C53.2001 30.9202 53.3401 31.2802 53.6201 31.5202C53.9001 31.7602 54.2201 31.8802 54.6201 31.8802C55.2001 31.8802 55.6201 31.6402 55.8401 31.1602H58.3401C58.2201 31.6402 57.9801 32.0802 57.6401 32.4602C57.3201 32.8402 56.9001 33.1602 56.4001 33.3802C55.9001 33.6002 55.3401 33.7202 54.7201 33.7202C53.9801 33.7202 53.3001 33.5602 52.7201 33.2602C52.1401 32.9602 51.6801 32.5202 51.3601 31.9402C51.0401 31.3602 50.8601 30.7002 50.8601 29.9402C50.8601 29.1802 51.0201 28.5002 51.3401 27.9402C51.6601 27.3602 52.1201 26.9202 52.7001 26.6202C53.2801 26.3202 53.9601 26.1602 54.7201 26.1602C55.4801 26.1602 56.1201 26.3002 56.7001 26.6002C57.2801 26.9002 57.7201 27.3202 58.0401 27.8802C58.3401 28.4202 58.5001 29.0602 58.5001 29.8002ZM56.1001 29.2002C56.1001 28.8202 55.9601 28.5002 55.6801 28.2802C55.4001 28.0602 55.0601 27.9402 54.6601 27.9402C54.2601 27.9402 53.9401 28.0602 53.6601 28.2802C53.4001 28.5002 53.2401 28.8202 53.1601 29.2202H56.1001V29.2002Z" fill="#04111D"/>
<path d="M64.4 26.1602C65.3 26.1602 66 26.4402 66.54 27.0002C67.08 27.5602 67.34 28.3202 67.34 29.3002V33.6002H65.02V29.6002C65.02 29.1002 64.88 28.7202 64.62 28.4602C64.36 28.1802 64 28.0602 63.56 28.0602C63.12 28.0602 62.76 28.2002 62.5 28.4602C62.24 28.7402 62.1 29.1202 62.1 29.6002V33.6002H59.74V26.2202H62.08V27.2002C62.32 26.8802 62.64 26.6202 63.04 26.4402C63.44 26.2602 63.9 26.1602 64.4 26.1602Z" fill="#04111D"/>
<path d="M72.44 33.7C71.74 33.7 71.1001 33.58 70.5401 33.36C69.9801 33.14 69.5401 32.82 69.2001 32.38C68.8801 31.94 68.7001 31.42 68.6801 30.82H71.1801C71.2201 31.16 71.3401 31.42 71.5601 31.62C71.7601 31.8 72.0401 31.88 72.3801 31.88C72.7201 31.88 73.0001 31.8 73.2001 31.66C73.4001 31.5 73.5 31.2799 73.5 31.0199C73.5 30.7999 73.4201 30.6 73.2601 30.46C73.1001 30.32 72.9001 30.18 72.6801 30.1C72.4601 30 72.1201 29.9 71.7001 29.76C71.0801 29.58 70.5801 29.4 70.1801 29.2C69.7801 29.02 69.4401 28.74 69.1601 28.38C68.8801 28.02 68.7401 27.54 68.7401 26.96C68.7401 26.1 69.0601 25.42 69.7201 24.94C70.3601 24.44 71.2201 24.2 72.2601 24.2C73.3001 24.2 74.1801 24.44 74.8201 24.94C75.4601 25.42 75.8201 26.1 75.8601 26.98H73.3201C73.3001 26.68 73.1801 26.44 72.9801 26.28C72.7801 26.1 72.5001 26.02 72.1801 26.02C71.9001 26.02 71.66 26.1 71.5 26.24C71.32 26.38 71.2401 26.58 71.2401 26.86C71.2401 27.16 71.3801 27.4 71.6801 27.56C71.9801 27.72 72.4201 27.9 73.0401 28.1C73.6601 28.3 74.1601 28.5 74.5401 28.68C74.9401 28.86 75.2801 29.14 75.5601 29.48C75.8401 29.84 75.9801 30.28 75.9801 30.84C75.9801 31.36 75.8401 31.84 75.5601 32.28C75.2801 32.72 74.8801 33.06 74.3601 33.32C73.8001 33.58 73.18 33.7 72.44 33.7Z" fill="#04111D"/>
<path d="M84.6001 29.8002C84.6001 30.0202 84.5801 30.2402 84.5601 30.4602H79.2601C79.3001 30.9202 79.4401 31.2802 79.7201 31.5202C80.0001 31.7602 80.3201 31.8802 80.7201 31.8802C81.3001 31.8802 81.7201 31.6402 81.9401 31.1602H84.4401C84.3201 31.6402 84.0801 32.0802 83.7401 32.4602C83.4201 32.8402 83.0001 33.1602 82.5001 33.3802C82.0001 33.6002 81.4401 33.7202 80.8201 33.7202C80.0801 33.7202 79.4001 33.5602 78.8201 33.2602C78.2401 32.9602 77.7801 32.5202 77.4601 31.9402C77.1401 31.3602 76.9601 30.7002 76.9601 29.9402C76.9601 29.1802 77.1201 28.5002 77.4401 27.9402C77.7601 27.3602 78.2201 26.9202 78.8001 26.6202C79.3801 26.3202 80.0601 26.1602 80.8201 26.1602C81.5801 26.1602 82.2201 26.3002 82.8001 26.6002C83.3801 26.9002 83.8201 27.3202 84.1401 27.8802C84.4401 28.4202 84.6001 29.0602 84.6001 29.8002ZM82.2001 29.2002C82.2001 28.8202 82.0601 28.5002 81.7801 28.2802C81.5001 28.0602 81.1601 27.9402 80.7601 27.9402C80.3601 27.9402 80.0401 28.0602 79.7601 28.2802C79.5001 28.5002 79.3401 28.8202 79.2601 29.2202H82.2001V29.2002Z" fill="#04111D"/>
<path d="M85.3801 29.8998C85.3801 29.1398 85.5201 28.4798 85.8201 27.8998C86.1201 27.3198 86.5201 26.8798 87.0401 26.5798C87.5601 26.2798 88.1201 26.1198 88.7601 26.1198C89.3001 26.1198 89.7601 26.2198 90.1801 26.4398C90.6001 26.6598 90.9001 26.9198 91.1201 27.2798V26.2398H93.4601V33.6198H91.1201V32.5798C90.9001 32.9198 90.5801 33.1998 90.1601 33.4198C89.7601 33.6398 89.2801 33.7397 88.7401 33.7397C88.1201 33.7397 87.5601 33.5798 87.0401 33.2798C86.5201 32.9598 86.1201 32.5198 85.8201 31.9398C85.5201 31.3398 85.3801 30.6598 85.3801 29.8998ZM91.1001 29.9198C91.1001 29.3598 90.9401 28.9198 90.6001 28.5798C90.2801 28.2598 89.8801 28.0998 89.4201 28.0998C88.9601 28.0998 88.5601 28.2598 88.2201 28.5798C87.9001 28.8998 87.7401 29.3398 87.7401 29.8998C87.7401 30.4598 87.9001 30.9198 88.2201 31.2398C88.5401 31.5598 88.9401 31.7198 89.4201 31.7198C89.9001 31.7198 90.2801 31.5598 90.6001 31.2398C90.9401 30.9398 91.1001 30.4798 91.1001 29.9198Z" fill="#04111D"/>
<path d="M26.54 30C26.54 35.52 22.06 40 16.54 40C11.02 40 6.54004 35.52 6.54004 30C6.54004 24.48 11.02 20 16.54 20C22.06 20 26.54 24.48 26.54 30ZM11.48 30.3399L11.52 30.2799L14.12 26.2199C14.16 26.1599 14.24 26.1599 14.28 26.2399C14.72 27.2199 15.08 28.4199 14.92 29.1799C14.84 29.4999 14.64 29.9199 14.4 30.2999C14.38 30.3599 14.34 30.4199 14.3 30.4599C14.28 30.4799 14.26 30.4999 14.22 30.4999H11.54C11.48 30.4799 11.44 30.3999 11.48 30.3399ZM23.0601 31.7401V31.1001C23.0601 31.0401 23.0201 31.0001 22.9001 31.0601L19.8601 31.9401C19.8468 31.9401 19.8334 31.9468 19.8201 31.9601C19.5632 32.2321 19.3406 32.4356 19.2212 32.5447C19.1826 32.58 19.1548 32.6054 19.1401 32.6201C18.9601 32.7801 18.7201 32.8601 18.4801 32.8601H17.3801V31.7401H18.2601C18.2801 31.7401 18.3001 31.7401 18.3201 31.7201L18.4401 31.6201C18.5001 31.5801 18.5601 31.5201 18.6201 31.4601C18.6611 31.4328 18.6928 31.3961 18.7215 31.3629C18.7348 31.3475 18.7474 31.3328 18.7601 31.3201C18.8011 31.2928 18.8328 31.2561 18.8615 31.2229C18.8748 31.2075 18.8874 31.1928 18.9001 31.1801C18.9301 31.1401 18.9651 31.1001 19.0001 31.0601C19.0351 31.0201 19.0701 30.9801 19.1001 30.9401C19.1601 30.8801 19.2001 30.8201 19.2401 30.7601C19.2601 30.7301 19.2851 30.7001 19.3101 30.6701C19.3351 30.6401 19.3601 30.6101 19.3801 30.5801C19.3941 30.538 19.418 30.5058 19.4448 30.4696C19.4562 30.4542 19.4682 30.438 19.4801 30.4201C19.5201 30.3601 19.5601 30.3001 19.5801 30.2601C19.6601 30.1201 19.7401 29.9801 19.8001 29.8401C19.8306 29.779 19.8495 29.7179 19.8657 29.6657C19.8706 29.6496 19.8754 29.6343 19.8801 29.6201C19.8901 29.5801 19.9001 29.5451 19.9101 29.5101C19.9201 29.4751 19.9301 29.4401 19.9401 29.4001C19.9411 29.3911 19.9421 29.3821 19.9431 29.3731C19.962 29.204 19.9791 29.0511 19.9601 28.8801C19.9601 28.8201 19.9601 28.7601 19.9401 28.7201C19.9401 28.7001 19.9401 28.6601 19.9201 28.6201C19.9001 28.4401 19.8401 28.2801 19.7601 28.1201C19.7501 28.0901 19.7351 28.0601 19.7201 28.0301C19.7051 28.0001 19.6901 27.9701 19.6801 27.9401C19.6401 27.8801 19.6051 27.8201 19.5701 27.7601C19.5351 27.7001 19.5001 27.6401 19.4601 27.5801C19.4475 27.5425 19.4271 27.5127 19.4087 27.4858C19.3978 27.4699 19.3875 27.455 19.3801 27.4401C19.3501 27.4001 19.3151 27.3551 19.2801 27.3101C19.2451 27.2651 19.2101 27.2201 19.1801 27.1801C19.1501 27.1501 19.1251 27.1151 19.1001 27.0801C19.0751 27.0451 19.0501 27.0101 19.0201 26.9801C18.9901 26.9501 18.9651 26.9201 18.9401 26.8901C18.9151 26.8601 18.8901 26.8301 18.8601 26.8001C18.6601 26.5801 18.4601 26.3801 18.2801 26.2201C18.2672 26.1943 18.2459 26.1768 18.2217 26.1569C18.2084 26.146 18.1943 26.1343 18.1801 26.1201C18.0401 26.0001 17.9001 25.8801 17.8001 25.8001C17.7401 25.7601 17.7001 25.7201 17.6601 25.6801C17.6001 25.6401 17.5601 25.6001 17.5401 25.5801C17.5401 25.5601 17.5201 25.5601 17.5201 25.5601L17.4001 25.5201V24.5601C17.4001 24.4001 17.3401 24.2601 17.2401 24.1601C17.1401 24.0601 17.0001 24.0001 16.8401 24.0001C16.5401 24.0001 16.2801 24.2601 16.2801 24.5801V25.2401L16.2201 25.2201L16.0601 25.1801L15.9201 25.1401L14.8201 24.8401C14.7801 24.8201 14.7401 24.8801 14.7601 24.9201L14.9401 25.2401L15.0001 25.3601C15.0101 25.3901 15.0251 25.4201 15.0401 25.4501C15.0551 25.4801 15.0701 25.5101 15.0801 25.5401C15.0901 25.5701 15.1051 25.5951 15.1201 25.6201C15.1351 25.6451 15.1501 25.6701 15.1601 25.7001C15.2201 25.8201 15.2801 25.9601 15.3401 26.1001L15.4601 26.4001C15.5601 26.6401 15.6601 26.9201 15.7401 27.2001C15.7736 27.2671 15.7931 27.3482 15.8103 27.4198C15.8136 27.4336 15.8168 27.4471 15.8201 27.4601L15.8401 27.5001C15.8801 27.6401 15.9001 27.7601 15.9201 27.9001C15.9401 27.9801 15.9601 28.0801 15.9601 28.1601C15.9601 28.2101 15.9651 28.2601 15.9701 28.3101C15.9751 28.3601 15.9801 28.4101 15.9801 28.4601C16.0001 28.5601 16.0001 28.6601 16.0001 28.7401C16.0001 28.9801 15.9801 29.2001 15.9401 29.4001L15.8801 29.5801C15.8726 29.6025 15.8624 29.6276 15.8515 29.6544C15.8331 29.6997 15.8126 29.7499 15.8001 29.8001C15.7801 29.8601 15.7601 29.9001 15.7401 29.9401C15.6401 30.1801 15.5201 30.4401 15.3801 30.6601C15.1801 31.0001 15.0001 31.2801 14.8601 31.4801C14.8401 31.5201 14.8201 31.5401 14.8001 31.5601C14.7601 31.6201 14.8001 31.7001 14.8801 31.7001H16.3001V32.8201H14.8601C14.4801 32.8201 14.1201 32.6201 13.9401 32.2601C13.8601 32.0801 13.8201 31.8801 13.8401 31.7001C13.8401 31.6601 13.8001 31.6001 13.7401 31.6001H10.8001C10.7601 31.6001 10.7201 31.6401 10.7201 31.6801V31.7401C10.7201 33.6001 12.2201 35.1001 14.0601 35.1001H19.2801C20.2445 35.1001 20.7976 34.2169 21.344 33.3445C21.5001 33.0952 21.6556 32.8468 21.8201 32.6201C22.1001 32.2201 22.8001 31.9001 23.0001 31.8201C23.0401 31.8001 23.0601 31.7801 23.0601 31.7401Z" fill="#2081E2"/>
</svg>
