<svg xmlns="http://www.w3.org/2000/svg" width="100" height="60" fill="none"><path fill="#fff" d="M0 0h100v60H0z"/><path fill="#04111D" d="M35.78 33.7c-.9 0-1.74-.2-2.5-.6-.74-.4-1.34-.96-1.8-1.7q-.66-1.11-.66-2.46c0-.9.22-1.72.66-2.44s1.04-1.28 1.8-1.7c.76-.4 1.58-.6 2.5-.6s1.74.2 2.48.6c.76.4 1.36.96 1.78 1.7.44.72.66 1.54.66 2.44q0 1.35-.66 2.46a4.84 4.84 0 0 1-1.78 1.7c-.74.4-1.58.6-2.48.6m0-2.06c.76 0 1.38-.24 1.84-.74s.7-1.14.7-1.96-.24-1.48-.7-1.96c-.46-.5-1.06-.74-1.84-.74q-1.17 0-1.86.72c-.46.48-.68 1.14-.68 1.96s.22 1.48.68 1.96c.46.52 1.08.76 1.86.76M44.34 27.28c.22-.34.54-.62.94-.84s.88-.32 1.42-.32c.64 0 1.2.16 1.72.46q.78.45 1.2 1.32c.3.58.46 1.24.46 2s-.16 1.42-.46 2-.7 1.02-1.2 1.34c-.52.3-1.08.46-1.72.46-.52 0-1-.1-1.42-.32-.4-.22-.72-.48-.94-.82v3.22H42v-9.56h2.34zm3.34 2.62c0-.56-.16-1-.5-1.32q-.48-.48-1.2-.48c-.48 0-.86.16-1.2.48-.32.32-.48.78-.48 1.34s.16 1 .48 1.34q.48.48 1.2.48c.48 0 .86-.16 1.2-.48.34-.34.5-.78.5-1.36M58.5 29.8c0 .22-.02.44-.04.66h-5.3c.04.46.18.82.46 1.06s.6.36 1 .36c.58 0 1-.24 1.22-.72h2.5c-.12.48-.36.92-.7 1.3-.32.38-.74.7-1.24.92s-1.06.34-1.68.34c-.74 0-1.42-.16-2-.46s-1.04-.74-1.36-1.32-.5-1.24-.5-2 .16-1.44.48-2c.32-.58.78-1.02 1.36-1.32s1.26-.46 2.02-.46 1.4.14 1.98.44 1.02.72 1.34 1.28c.3.54.46 1.18.46 1.92m-2.4-.6c0-.38-.14-.7-.42-.92s-.62-.34-1.02-.34-.72.12-1 .34c-.26.22-.42.54-.5.94h2.94zM64.4 26.16c.9 0 1.6.28 2.14.84s.8 1.32.8 2.3v4.3h-2.32v-4c0-.5-.14-.88-.4-1.14-.26-.28-.62-.4-1.06-.4s-.8.14-1.06.4c-.26.28-.4.66-.4 1.14v4h-2.36v-7.38h2.34v.98c.24-.32.56-.58.96-.76s.86-.28 1.36-.28M72.44 33.7c-.7 0-1.34-.12-1.9-.34s-1-.54-1.34-.98c-.32-.44-.5-.96-.52-1.56h2.5c.04.34.16.6.38.8.2.18.48.26.82.26s.62-.08.82-.22c.2-.16.3-.38.3-.64 0-.22-.08-.42-.24-.56s-.36-.28-.58-.36c-.22-.1-.56-.2-.98-.34-.62-.18-1.12-.36-1.52-.56-.4-.18-.74-.46-1.02-.82s-.42-.84-.42-1.42c0-.86.32-1.54.98-2.02.64-.5 1.5-.74 2.54-.74s1.92.24 2.56.74c.64.48 1 1.16 1.04 2.04h-2.54c-.02-.3-.14-.54-.34-.7-.2-.18-.48-.26-.8-.26-.28 0-.52.08-.68.22-.18.14-.26.34-.26.62 0 .3.14.54.44.7s.74.34 1.36.54 1.12.4 1.5.58c.4.18.74.46 1.02.8.28.36.42.8.42 1.36q0 .78-.42 1.44c-.28.44-.68.78-1.2 1.04-.56.26-1.18.38-1.92.38M84.6 29.8c0 .22-.02.44-.04.66h-5.3c.04.46.18.82.46 1.06s.6.36 1 .36c.58 0 1-.24 1.22-.72h2.5c-.12.48-.36.92-.7 1.3-.32.38-.74.7-1.24.92s-1.06.34-1.68.34c-.74 0-1.42-.16-2-.46s-1.04-.74-1.36-1.32-.5-1.24-.5-2 .16-1.44.48-2c.32-.58.78-1.02 1.36-1.32s1.26-.46 2.02-.46 1.4.14 1.98.44 1.02.72 1.34 1.28c.3.54.46 1.18.46 1.92m-2.4-.6c0-.38-.14-.7-.42-.92s-.62-.34-1.02-.34-.72.12-1 .34c-.26.22-.42.54-.5.94h2.94zM85.38 29.9c0-.76.14-1.42.44-2s.7-1.02 1.22-1.32 1.08-.46 1.72-.46c.54 0 1 .1 1.42.32s.72.48.94.84v-1.04h2.34v7.38h-2.34v-1.04q-.33.51-.96.84c-.4.22-.88.32-1.42.32-.62 0-1.18-.16-1.7-.46-.52-.32-.92-.76-1.22-1.34-.3-.6-.44-1.28-.44-2.04m5.72.02c0-.56-.16-1-.5-1.34-.32-.32-.72-.48-1.18-.48q-.69 0-1.2.48-.48.48-.48 1.32c0 .56.16 1.02.48 1.34q.48.48 1.2.48c.48 0 .86-.16 1.18-.48.34-.3.5-.76.5-1.32"/><path fill="#2081E2" d="M26.54 30c0 5.52-4.48 10-10 10s-10-4.48-10-10 4.48-10 10-10 10 4.48 10 10m-15.06.34.04-.06 2.6-4.06c.04-.06.12-.06.16.02.44.98.8 2.18.64 2.94-.08.32-.28.74-.52 1.12-.02.06-.06.12-.1.16-.02.02-.04.04-.08.04h-2.68c-.06-.02-.1-.1-.06-.16m11.58 1.4v-.64c0-.06-.04-.1-.16-.04l-3.04.88q-.02 0-.04.02c-.257.272-.48.476-.599.585q-.058.052-.08.075c-.18.16-.42.24-.66.24h-1.1v-1.12h.88c.02 0 .04 0 .06-.02l.12-.1c.06-.04.12-.1.18-.16.04-.027.072-.064.1-.097q.02-.023.04-.043c.04-.027.072-.064.1-.097q.02-.023.04-.043.046-.06.1-.12c.034-.04.07-.08.1-.12.06-.06.1-.12.14-.18q.03-.045.07-.09.038-.045.07-.09c.013-.042.037-.074.064-.11l.035-.05c.04-.06.08-.12.1-.16.08-.14.16-.28.22-.42.03-.061.05-.122.066-.174l.014-.046.03-.11.03-.11.003-.027c.019-.169.036-.322.017-.493 0-.06 0-.12-.02-.16 0-.02 0-.06-.02-.1-.02-.18-.08-.34-.16-.5a1 1 0 0 0-.04-.09q-.024-.045-.04-.09-.059-.09-.11-.18t-.11-.18c-.012-.037-.033-.067-.051-.094q-.017-.024-.029-.046l-.1-.13-.1-.13a1 1 0 0 1-.08-.1q-.036-.054-.08-.1-.044-.045-.08-.09t-.08-.09c-.2-.22-.4-.42-.58-.58-.013-.026-.034-.043-.058-.063l-.042-.037c-.14-.12-.28-.24-.38-.32a1 1 0 0 1-.14-.12 1 1 0 0 1-.12-.1c0-.02-.02-.02-.02-.02l-.12-.04v-.96c0-.16-.06-.3-.16-.4S17 24 16.84 24c-.3 0-.56.26-.56.58v.66l-.06-.02-.16-.04-.14-.04-1.1-.3c-.04-.02-.08.04-.06.08l.18.32.06.12q.016.045.04.09t.04.09q.016.044.04.08t.04.08c.06.12.12.26.18.4l.12.3c.1.24.2.52.28.8.034.067.053.148.07.22l.01.04.02.04c.04.14.06.26.08.4.02.08.04.18.04.26q.001.075.01.15t.01.15c.02.1.02.2.02.28q0 .36-.06.66l-.06.18-.029.074c-.018.046-.038.096-.05.146-.02.06-.04.1-.06.14-.1.24-.22.5-.36.72-.2.34-.38.62-.52.82-.02.04-.04.06-.06.08-.04.06 0 .14.08.14h1.42v1.12h-1.44c-.38 0-.74-.2-.92-.56-.08-.18-.12-.38-.1-.56 0-.04-.04-.1-.1-.1H10.8c-.04 0-.08.04-.08.08v.06c0 1.86 1.5 3.36 3.34 3.36h5.22c.963 0 1.517-.883 2.063-1.756.156-.249.312-.497.476-.724.28-.4.98-.72 1.18-.8.04-.02.06-.04.06-.08"/></svg>