<svg width="100" height="60" xmlns="http://www.w3.org/2000/svg"><g fill="none" fill-rule="evenodd"><rect fill="#005992" width="100" height="60" rx="4"/><path d="M17.134 19.56H15.74v7.164h1.394c2.489 0 4.32-.951 4.32-3.698 0-2.659-2.004-3.466-4.32-3.466m.145 9.074H15.74v7.6h-2.114V17.65h3.399c3.627 0 6.508 1.271 6.508 5.376 0 3.844-2.682 5.608-6.254 5.608m14.187 2.593c-.6-.867-2.027-1.446-2.885-1.446-1.62 0-2.905.72-2.905 2.543 0 1.532 1.25 2.372 2.682 2.372 1.08 0 3.108-.985 3.108-2.227v-1.242zm.687 4.824c-.23 0-.26-.288-.26-.288l-.283-.81c-.941.957-2.056 1.475-3.396 1.475-2.396 0-4.68-1.387-4.68-4.046 0-2.832 2.084-4.306 4.766-4.306 1.168 0 2.25.375 3.166 1.1v-1.477c0-1.876-1.317-2.657-3.03-2.657-2.024 0-3.245.81-3.245.81l-.373-1.099c1.083-.866 2.478-1.419 3.852-1.419 2.68 0 4.875 1.302 4.875 4.251v8.466h-1.392zm4.368-12.418l2.763 7.626c.316.852.632 1.866.842 2.638h.053c.238-.772.5-1.76.817-2.692l2.526-7.572h2.448l-3.475 9.198c-1.658 4.426-2.79 6.693-4.368 8.105-1.159.987-2.264 1.386-2.843 1.492l-.579-1.971c.579-.161 1.342-.533 2.027-1.147.631-.507 1.395-1.413 1.947-2.614.106-.24.184-.4.184-.559 0-.134-.053-.32-.184-.587l-4.685-11.917h2.527m12.777 7.319c0 .362.03.673.119.985.469 1.683 1.69 2.72 3.42 2.72 2.76 0 4.198-2.1 4.198-4.664 0-2.746-1.585-4.819-4.256-4.819-1.936 0-2.982 1.193-3.362 2.617a3.72 3.72 0 00-.119.985v2.176zm0-13.136v7.462h.06c.616-.985 1.719-1.892 3.92-1.892 3.435 0 6.033 2.54 6.005 6.736 0 3.81-2.307 6.374-5.74 6.374-2.319 0-3.657-1.062-4.45-2.461h-.058l-.117 2.176H47.03c.09-.855.118-2.112.118-3.225v-15.17h2.15zm17.394 17.372c2.583 0 4.043-2.409 4.043-5.311 0-2.54-1.31-5.196-4.025-5.196-2.715 0-4.062 2.56-4.062 5.329 0 2.693 1.46 5.178 4.024 5.178h.02zm-.075 1.346c-3.352 0-6.039-2.618-6.039-6.486 0-4.058 2.836-6.714 6.207-6.714 3.463 0 6.056 2.674 6.056 6.467 0 4.381-3.004 6.733-6.206 6.733h-.018zm9.349-12.901l1.768 2.699c.46.7.845 1.349 1.255 2.05h.076c.411-.753.82-1.401 1.23-2.076l1.742-2.673h2.433l-4.227 6.072 4.355 6.486h-2.561l-1.819-2.827a38.396 38.396 0 01-1.332-2.18h-.05c-.41.753-.846 1.427-1.308 2.18l-1.792 2.827H73.25l4.406-6.408-4.201-6.15h2.51" fill="#FFF"/></g></svg>