<svg width="100" height="60" viewBox="0 0 100 60" fill="none" xmlns="http://www.w3.org/2000/svg">
<path d="M18.0801 20.907H16.6881V28.057H18.0801C20.5641 28.057 22.3911 27.109 22.3911 24.367C22.3911 21.713 20.3911 20.907 18.0801 20.907ZM18.2241 29.965H16.6881V37.551H14.5781V19H17.9701C21.5901 19 24.4671 20.27 24.4671 24.366C24.4671 28.204 21.7901 29.965 18.2241 29.965ZM32.3861 32.552C31.7861 31.687 30.3621 31.11 29.5061 31.11C27.8881 31.11 26.6061 31.828 26.6061 33.648C26.6061 35.178 27.8551 36.015 29.2841 36.015C30.3621 36.015 32.3861 35.032 32.3861 33.793V32.552ZM33.0711 37.368C32.8411 37.368 32.8121 37.081 32.8121 37.081L32.5291 36.272C31.5891 37.227 30.4771 37.744 29.1391 37.744C26.7481 37.744 24.4671 36.36 24.4671 33.706C24.4671 30.879 26.5481 29.407 29.2251 29.407C30.3911 29.407 31.4721 29.781 32.3851 30.505V29.031C32.3851 27.159 31.0711 26.379 29.3621 26.379C27.3411 26.379 26.1221 27.189 26.1221 27.189L25.7491 26.091C26.8301 25.226 28.2231 24.674 29.5951 24.674C32.2701 24.674 34.4611 25.974 34.4611 28.917V37.368H33.0711ZM37.4321 24.973L40.1901 32.585C40.5051 33.435 40.8201 34.447 41.0301 35.218H41.0831C41.3201 34.447 41.5821 33.462 41.8991 32.531L44.4201 24.973H46.8631L43.3951 34.154C41.7401 38.572 40.6101 40.834 39.0351 42.244C37.8781 43.229 36.7751 43.628 36.1961 43.734L35.6191 41.766C36.1961 41.606 36.9591 41.234 37.6421 40.621C38.2721 40.115 39.0351 39.211 39.5861 38.011C39.6911 37.773 39.7701 37.612 39.7701 37.454C39.7701 37.32 39.7161 37.134 39.5861 36.868L34.9101 24.973H37.4321ZM50.1861 32.279C50.1861 32.639 50.2161 32.95 50.3041 33.261C50.7721 34.941 51.9901 35.977 53.7191 35.977C56.4731 35.977 57.9091 33.881 57.9091 31.32C57.9091 28.58 56.3271 26.511 53.6611 26.511C51.7271 26.511 50.6841 27.701 50.3041 29.123C50.2215 29.444 50.1818 29.7746 50.1861 30.106V32.279ZM50.1861 19.166V26.614H50.2451C50.8611 25.632 51.9611 24.726 54.1581 24.726C57.5881 24.726 60.1801 27.261 60.1521 31.45C60.1521 35.252 57.8501 37.812 54.4221 37.812C52.1081 37.812 50.7721 36.752 49.9811 35.356H49.9231L49.8061 37.528H47.9231C48.0121 36.674 48.0411 35.419 48.0411 34.308V19.167L50.1861 19.166ZM67.5481 36.507C70.1261 36.507 71.5841 34.102 71.5841 31.205C71.5841 28.669 70.2751 26.018 67.5661 26.018C64.8561 26.018 63.5111 28.574 63.5111 31.338C63.5111 34.026 64.9681 36.508 67.5281 36.508L67.5481 36.507ZM67.4731 37.85C64.1271 37.85 61.4451 35.237 61.4451 31.376C61.4451 27.325 64.2761 24.674 67.6411 24.674C71.0981 24.674 73.6861 27.344 73.6861 31.129C73.6861 35.503 70.6871 37.85 67.4921 37.85H67.4731ZM76.8061 24.973L78.5701 27.666C79.0301 28.366 79.4141 29.013 79.8231 29.712H79.8991C80.3091 28.962 80.7181 28.314 81.1261 27.64L82.8661 24.973H85.2941L81.0751 31.033L85.4221 37.508H82.8651L81.0501 34.687C80.5828 33.9763 80.1392 33.2502 79.7201 32.51H79.6701C79.2601 33.262 78.8261 33.935 78.3651 34.687L76.5751 37.509H74.0951L78.4941 31.112L74.3001 24.974L76.8061 24.973Z" fill="#005992"/>
</svg>
