<svg width="100" height="60" viewBox="0 0 100 60" fill="none" xmlns="http://www.w3.org/2000/svg">
<rect width="100" height="60" fill="#FF4785"/>
<path d="M69.6354 18.982C71.7967 19.9101 73.6264 21.4615 74.9391 23.4769C76.2517 25.4923 76.9015 27.7994 76.8484 30.133V30.2258C76.8484 30.5308 76.8218 30.849 76.7954 31.154C76.7423 31.6048 76.676 32.0556 76.5832 32.4931C75.907 35.6223 74.0639 38.3007 71.3723 40.0509L67.7791 34.5085C68.9857 33.7263 69.8078 32.5197 70.1127 31.1142C70.4177 29.7087 70.1525 28.2767 69.3703 27.0701C69.3117 26.9783 69.248 26.8917 69.1824 26.8071C69.1438 26.7573 69.1045 26.7082 69.0653 26.6591C69.0388 26.6193 69.0122 26.5928 68.9857 26.5663C68.9062 26.4602 68.8265 26.3674 68.7338 26.2746L68.6144 26.1552C68.5658 26.1065 68.5169 26.0578 68.4683 26.0121C68.4374 25.9832 68.4066 25.9555 68.3758 25.9298C68.3227 25.89 68.283 25.8503 68.2299 25.8105C68.1849 25.773 68.1357 25.7397 68.0871 25.706C68.0496 25.68 68.0126 25.6537 67.978 25.6249C67.9515 25.605 67.9249 25.5884 67.8984 25.5718L67.8636 25.5498L67.8438 25.5365C67.8355 25.5308 67.8272 25.525 67.8189 25.5188C67.7261 25.4658 67.6466 25.4127 67.5537 25.3597C67.5402 25.353 67.5268 25.3454 67.5134 25.3374C67.5004 25.3296 67.4873 25.3214 67.4742 25.3133C67.4477 25.2967 67.4211 25.2801 67.3946 25.2669C67.2885 25.2138 67.1957 25.1741 67.0896 25.121C67.0632 25.1078 67.04 25.0979 67.017 25.088C66.9937 25.078 66.9704 25.068 66.9438 25.0547C66.8594 25.0164 66.7706 24.9825 66.6799 24.9504C66.6139 24.9271 66.5468 24.9047 66.4798 24.8823C66.3073 24.8293 66.1349 24.7895 65.9626 24.7497C65.7769 24.7232 65.6046 24.6834 65.419 24.6702C65.393 24.665 65.3649 24.6618 65.3355 24.6599C65.2902 24.6569 65.2419 24.6569 65.1936 24.6569C65.0875 24.6569 64.9814 24.6437 64.8753 24.6437H64.8356C64.6898 24.6437 64.5438 24.6437 64.398 24.6569H64.3449C64.2722 24.6636 64.2026 24.6702 64.1331 24.6784C64.0634 24.6867 63.9938 24.6967 63.9206 24.71C63.8809 24.71 63.8543 24.7232 63.8146 24.7232C63.766 24.7365 63.719 24.7483 63.6724 24.7596C63.6183 24.7726 63.5648 24.7851 63.5105 24.7984C63.4711 24.808 63.4312 24.8181 63.3903 24.8293C63.377 24.8426 63.3638 24.8426 63.3505 24.8426C63.2773 24.8692 63.2008 24.8958 63.1243 24.9224C63.0483 24.9489 62.9724 24.9753 62.8998 25.0017L62.8798 25.0087C62.8682 25.013 62.8574 25.0173 62.8467 25.0217C62.8301 25.0283 62.8135 25.0349 62.7936 25.0415L62.7459 25.0649C62.707 25.0838 62.6667 25.1027 62.6266 25.1217L62.5955 25.1363C62.55 25.1577 62.505 25.1791 62.4621 25.2006C62.4515 25.2076 62.441 25.2137 62.4305 25.2193C62.4212 25.2244 62.4119 25.2291 62.4025 25.2337L62.382 25.2441C62.3689 25.2509 62.3558 25.2582 62.3428 25.2669C62.2802 25.2982 62.2145 25.3325 62.1488 25.3697C62.0753 25.4113 62.0017 25.4566 61.9317 25.5055L61.9053 25.5321C61.9053 25.5271 61.9071 25.524 61.9101 25.5214L61.552 25.7865L61.534 25.7972C61.5407 25.7972 61.5441 25.7939 61.5474 25.7906C61.5488 25.7891 61.5503 25.7877 61.552 25.7865C61.5542 25.785 61.5569 25.784 61.5605 25.784L61.467 25.8511C59.3613 27.5721 58.8317 30.6348 60.3406 32.9572C61.123 34.1638 62.3295 34.9859 63.7351 35.2908C65.1538 35.5825 66.5858 35.3174 67.7924 34.5351L71.3857 40.0774C69.3702 41.3768 67.1162 42 64.8753 42C60.9506 42 57.0921 40.0774 54.7983 36.5372C53.8569 35.0787 53.2735 33.5008 53.0216 31.8965L42.4672 39.4807L41.791 39.9713L41.7777 39.9846C39.7093 41.3238 37.442 42 35.1349 42C34.7105 42 34.2995 41.9735 33.8752 41.9337H33.862C33.6631 41.9072 33.4509 41.8807 33.252 41.8541C33.0531 41.8144 32.841 41.7746 32.6288 41.7348C29.4997 41.0586 26.8081 39.2156 25.071 36.5239C21.4778 30.9683 23.0689 23.5299 28.6113 19.9367C31.3029 18.1864 34.4984 17.603 37.6409 18.266C40.77 18.9422 43.4616 20.7852 45.1987 23.4769C46.1135 24.8956 46.7101 26.4734 46.9753 28.1043L57.5164 20.5201L58.2192 20.0162C61.0435 18.1864 64.2521 17.603 67.3814 18.266C68.1636 18.4251 68.9194 18.677 69.6354 18.982ZM37.2032 34.9593C37.495 34.84 37.7867 34.6942 38.0651 34.5085C38.211 34.4157 38.3568 34.3097 38.4894 34.1771C39.4573 33.408 40.1203 32.334 40.3855 31.1009C40.6905 29.6954 40.4253 28.2634 39.643 27.0569C38.622 25.4658 36.8851 24.6039 35.1216 24.6039C34.1272 24.6039 33.1062 24.8823 32.2046 25.4658C30.6533 26.4867 29.7914 28.1706 29.7517 29.8943C29.7383 30.4115 29.8046 30.9418 29.9505 31.4456C30.0831 31.9495 30.3084 32.4534 30.6135 32.9174C30.7461 33.103 30.8787 33.2754 31.0113 33.4478C32.5228 35.2511 35.0553 35.861 37.2032 34.9593Z" fill="white"/>
</svg>
