<svg width="100" height="60" viewBox="0 0 100 60" fill="none" xmlns="http://www.w3.org/2000/svg">
<path d="M69.6354 18.982C68.9194 18.677 68.1636 18.4251 67.3814 18.266C64.2521 17.603 61.0435 18.1864 58.2192 20.0162L57.5164 20.5201L46.9753 28.1043C46.7101 26.4734 46.1135 24.8956 45.1987 23.4769C43.4616 20.7852 40.77 18.9422 37.6409 18.266C34.4984 17.603 31.3029 18.1864 28.6113 19.9367C23.0689 23.5299 21.4778 30.9683 25.071 36.5239C26.8081 39.2156 29.4997 41.0586 32.6288 41.7348C32.841 41.7746 33.0531 41.8144 33.252 41.8541C33.4509 41.8807 33.6631 41.9072 33.862 41.9337H33.8752C34.2995 41.9735 34.7105 42 35.1349 42C37.442 42 39.7093 41.3238 41.7777 39.9846L41.791 39.9713L42.4672 39.4807L53.0216 31.8965C53.2735 33.5008 53.8569 35.0787 54.7983 36.5372C57.0921 40.0774 60.9506 42 64.8753 42C67.1162 42 69.3702 41.3768 71.3857 40.0774L67.7924 34.5351C66.5858 35.3174 65.1538 35.5825 63.7351 35.2908C62.3295 34.9859 61.123 34.1638 60.3406 32.9572C58.8317 30.6348 59.3613 27.5721 61.467 25.8511L61.5605 25.784C61.5569 25.784 61.5542 25.785 61.552 25.7865C61.5503 25.7877 61.5488 25.7891 61.5474 25.7906C61.5441 25.7939 61.5407 25.7972 61.534 25.7972L61.552 25.7865L61.9101 25.5214C61.9071 25.524 61.9053 25.5271 61.9053 25.5321L61.9317 25.5055C62.0017 25.4566 62.0753 25.4113 62.1488 25.3697C62.2145 25.3325 62.2802 25.2982 62.3428 25.2669C62.3558 25.2582 62.3689 25.2509 62.382 25.2441L62.4025 25.2337C62.4119 25.2291 62.4212 25.2244 62.4305 25.2193C62.441 25.2137 62.4515 25.2076 62.4621 25.2006C62.505 25.1791 62.55 25.1577 62.5955 25.1363L62.6266 25.1217C62.6667 25.1027 62.707 25.0838 62.7459 25.0649L62.7936 25.0415C62.8135 25.0349 62.8301 25.0283 62.8467 25.0217C62.8574 25.0173 62.8682 25.013 62.8798 25.0087L62.8998 25.0017C62.9724 24.9753 63.0483 24.9489 63.1243 24.9224C63.2008 24.8958 63.2773 24.8692 63.3505 24.8426C63.3638 24.8426 63.377 24.8426 63.3903 24.8293C63.4312 24.8181 63.4711 24.808 63.5105 24.7984C63.5648 24.7851 63.6183 24.7726 63.6724 24.7596C63.719 24.7483 63.766 24.7365 63.8146 24.7232C63.8543 24.7232 63.8809 24.71 63.9206 24.71C63.9938 24.6967 64.0634 24.6867 64.1331 24.6784C64.2026 24.6702 64.2722 24.6636 64.3449 24.6569H64.398C64.5438 24.6437 64.6898 24.6437 64.8356 24.6437H64.8753C64.9814 24.6437 65.0875 24.6569 65.1936 24.6569C65.2419 24.6569 65.2902 24.6569 65.3355 24.6599C65.3649 24.6618 65.393 24.665 65.419 24.6702C65.6046 24.6834 65.7769 24.7232 65.9626 24.7497C66.1349 24.7895 66.3073 24.8293 66.4798 24.8823C66.5468 24.9047 66.6139 24.9271 66.6799 24.9504C66.7706 24.9825 66.8594 25.0164 66.9438 25.0547C66.9704 25.068 66.9937 25.078 67.017 25.088C67.04 25.0979 67.0632 25.1078 67.0896 25.121C67.1957 25.1741 67.2885 25.2138 67.3946 25.2669C67.4211 25.2801 67.4477 25.2967 67.4742 25.3133C67.4873 25.3214 67.5004 25.3296 67.5134 25.3374C67.5268 25.3454 67.5402 25.353 67.5537 25.3597C67.6466 25.4127 67.7261 25.4658 67.8189 25.5188C67.8272 25.525 67.8355 25.5308 67.8438 25.5365L67.8636 25.5498L67.8984 25.5718C67.9249 25.5884 67.9515 25.605 67.978 25.6249C68.0126 25.6537 68.0496 25.68 68.0871 25.706C68.1357 25.7397 68.1849 25.773 68.2299 25.8105C68.283 25.8503 68.3227 25.89 68.3758 25.9298C68.4066 25.9555 68.4374 25.9832 68.4683 26.0121C68.5169 26.0578 68.5658 26.1065 68.6144 26.1552L68.7338 26.2746C68.8265 26.3674 68.9062 26.4602 68.9857 26.5663C69.0122 26.5928 69.0388 26.6193 69.0653 26.6591C69.1045 26.7082 69.1438 26.7573 69.1824 26.8071C69.248 26.8917 69.3117 26.9783 69.3703 27.0701C70.1525 28.2767 70.4177 29.7087 70.1127 31.1142C69.8078 32.5197 68.9857 33.7263 67.7791 34.5085L71.3723 40.0509C74.0639 38.3007 75.907 35.6223 76.5832 32.4931C76.676 32.0556 76.7423 31.6048 76.7954 31.154C76.8218 30.849 76.8484 30.5308 76.8484 30.2258V30.133C76.9015 27.7994 76.2517 25.4923 74.9391 23.4769C73.6264 21.4615 71.7967 19.9101 69.6354 18.982ZM37.2032 34.9593C35.0553 35.861 32.5228 35.2511 31.0113 33.4478C30.8787 33.2754 30.7461 33.103 30.6135 32.9174C30.3084 32.4534 30.0831 31.9495 29.9505 31.4456C29.8046 30.9418 29.7383 30.4115 29.7517 29.8943C29.7914 28.1706 30.6533 26.4867 32.2046 25.4658C33.1062 24.8823 34.1272 24.6039 35.1216 24.6039C36.8851 24.6039 38.622 25.4658 39.643 27.0569C40.4253 28.2634 40.6905 29.6954 40.3855 31.1009C40.1203 32.334 39.4573 33.408 38.4894 34.1771C38.3568 34.3097 38.211 34.4157 38.0651 34.5085C37.7867 34.6942 37.495 34.84 37.2032 34.9593Z" fill="#FF4785"/>
</svg>
