<svg width="100" height="60" viewBox="0 0 100 60" fill="none" xmlns="http://www.w3.org/2000/svg">
<path d="M50.4907 24.8209V38.5112C50.4907 40.8876 48.8186 42.0644 46.0696 42.0644L43.925 42.0735C43.0072 42.0735 42.5164 42.6823 42.471 43.4639V43.9955H39.1904C39.1904 43.9455 39.1904 43.8955 39.1904 43.8455C39.245 41.2238 40.5808 39.6971 43.6206 39.6971H45.7561C46.674 39.6971 47.1647 39.2927 47.2101 38.5112V37.7615H43.616C39.9765 37.7615 39.195 35.2897 39.195 32.877V24.8209H42.4983V32.6589C42.4983 33.6403 42.5664 34.5581 43.9068 34.5581H47.2101V24.8209H50.4907Z" fill="#19297C"/>
<path d="M33.2245 24.8209H27.4585L27.4404 27.6562H33.2245C33.738 27.6562 34.0061 27.9243 34.0061 28.4378V29.8872H29.6077C26.9042 29.8872 25.5411 31.0958 25.5411 33.4586V33.9266C25.5411 36.4711 26.8997 37.766 29.6077 37.766H37.2866V28.883C37.2866 26.1795 35.9462 24.8164 33.22 24.8164L33.2245 24.8209ZM34.0061 34.9353H29.6077C29.0943 34.9353 28.8262 34.7581 28.8262 34.381V32.9951C28.8262 32.4817 29.0943 32.2363 29.6077 32.2363H34.0061V34.9398V34.9353Z" fill="#19297C"/>
<path d="M71.6963 24.8209H65.7622L64.0174 27.6562H71.7008C72.2143 27.6562 72.4824 27.9243 72.4824 28.4378V29.8872H68.084C65.3805 29.8872 64.0174 31.0958 64.0174 33.4586V33.9266C64.0174 36.4711 65.3805 37.766 68.084 37.766H75.7675V28.883C75.7675 26.1795 74.4271 24.8164 71.7008 24.8164L71.6963 24.8209ZM72.4778 34.9353H68.0795C67.566 34.9353 67.298 34.7581 67.298 34.381V32.9951C67.298 32.4817 67.566 32.2363 68.0795 32.2363H72.4778V34.9398V34.9353Z" fill="#19297C"/>
<path d="M62.886 37.7751L59.61 37.7705L57.3654 33.3177L55.7024 35.9894V37.7705H52.3991V20H55.7024V31.3184L59.1647 24.8164H62.6452L59.0693 30.6051L62.886 37.7751Z" fill="#19297C"/>
<path d="M25.5411 24.7846V27.738C25.5411 30.5505 23.6282 32.4407 21.0292 32.4407L18.8436 32.4498C17.9122 32.4498 17.4078 32.8588 17.3624 33.6585V37.7751H14.0136C14.0136 37.7206 14.0136 33.5676 14.0136 33.5176C14.0273 32.936 14.1045 32.418 14.2544 31.9637C14.7906 30.3234 16.2128 29.5009 18.521 29.5009L20.7066 29.4919C21.638 29.4919 22.1424 29.0829 22.1878 28.2832L22.1969 25.0799C22.1969 23.9167 21.6971 23.3487 20.8338 23.3487H16.9807C16.9807 23.3487 16.9761 24.5574 16.9671 25.7024C16.9671 26.6066 16.958 27.5062 16.958 27.7107C15.5994 27.8016 14.627 28.2378 14 28.9739V20H21.1609C22.5559 20 23.6373 20.3862 24.3779 21.1632C25.1412 21.9629 25.5411 23.167 25.5411 24.7846Z" fill="#19297C"/>
<path d="M85.5684 30.3279C86.3262 30.3279 86.9406 29.7136 86.9406 28.9557C86.9406 28.1979 86.3262 27.5835 85.5684 27.5835C84.8105 27.5835 84.1962 28.1979 84.1962 28.9557C84.1962 29.7136 84.8105 30.3279 85.5684 30.3279Z" fill="#BA91B1"/>
<path d="M85.5684 35.008C86.3262 35.008 86.9406 34.3936 86.9406 33.6358C86.9406 32.8779 86.3262 32.2635 85.5684 32.2635C84.8105 32.2635 84.1962 32.8779 84.1962 33.6358C84.1962 34.3936 84.8105 35.008 85.5684 35.008Z" fill="#BA91B1"/>
<path d="M80.9337 35.008C81.6916 35.008 82.3059 34.3936 82.3059 33.6358C82.3059 32.8779 81.6916 32.2635 80.9337 32.2635C80.1759 32.2635 79.5615 32.8779 79.5615 33.6358C79.5615 34.3936 80.1759 35.008 80.9337 35.008Z" fill="#BA91B1"/>
<path d="M80.9337 30.3279C81.6916 30.3279 82.3059 29.7136 82.3059 28.9557C82.3059 28.1979 81.6916 27.5835 80.9337 27.5835C80.1759 27.5835 79.5615 28.1979 79.5615 28.9557C79.5615 29.7136 80.1759 30.3279 80.9337 30.3279Z" fill="#BA91B1"/>
</svg>
