<svg width="100" height="60" viewBox="0 0 100 60" fill="none" xmlns="http://www.w3.org/2000/svg">
<rect width="100" height="60" fill="#7FA9B3"/>
<path d="M83.7495 23.6725L88.8941 30.28C88.9642 30.3548 88.9408 30.4296 88.8714 30.5044L83.7495 37.0371C83.7495 35.9171 83.7495 23.6725 83.7495 23.6725Z" fill="#183B56"/>
<path d="M13.415 24.1145H11.0637C11.0637 29.7276 11.0637 35.3638 11.1098 41H13.5534V35.0878C13.6232 35.1714 13.7016 35.2382 13.7781 35.3034C13.8278 35.3458 13.8768 35.3875 13.9222 35.4328C14.268 35.7549 14.6829 36.0079 15.1209 36.169C15.7433 36.399 16.3657 36.399 17.0112 36.353C17.4261 36.33 17.841 36.261 18.256 36.146C18.694 36.031 19.0859 35.8469 19.4086 35.5478C19.9388 35.0647 20.2846 34.4666 20.5151 33.7995C20.7225 33.1784 20.8609 32.5572 20.907 31.8901C20.9531 31.43 20.9992 30.9699 20.9992 30.5098C20.9992 30.0037 20.9761 29.4746 20.9531 28.9685C20.93 28.6465 20.884 28.3244 20.8378 28.0023C20.7687 27.5883 20.6765 27.1741 20.5612 26.76C20.3998 26.2079 20.1463 25.7248 19.7774 25.2877C19.4777 24.9196 19.1319 24.6436 18.717 24.4596C18.3943 24.2985 18.0485 24.2065 17.7027 24.1145C17.1264 23.9764 16.5501 23.9304 15.9738 23.9995C15.5358 24.0455 15.0978 24.1835 14.706 24.3675C14.3141 24.5746 13.9452 24.8276 13.6225 25.1497C13.5534 25.1957 13.4842 25.2647 13.415 25.3337V24.1145ZM18.3482 28.5544C18.4635 29.0605 18.5095 29.6126 18.4635 30.1417C18.4635 30.2215 18.4649 30.3028 18.4663 30.3847C18.4706 30.6334 18.4751 30.8887 18.4404 31.1309C18.3712 31.8211 18.279 32.5342 17.9333 33.1553C17.6336 33.7075 17.1956 34.0525 16.5732 34.1446C16.2735 34.1906 15.9738 34.2135 15.6741 34.1906C15.1209 34.1446 14.6368 33.9145 14.291 33.4544C13.9452 33.0173 13.7608 32.5112 13.6456 31.9821C13.5995 31.6831 13.5534 31.361 13.5303 31.0619C13.5245 30.9469 13.5173 30.8319 13.5101 30.7169C13.4885 30.3718 13.4669 30.0267 13.4842 29.6816C13.5072 28.8765 13.6225 28.0713 14.0374 27.3351C14.3832 26.714 14.8904 26.3229 15.605 26.2079C15.9738 26.1619 16.3427 26.1389 16.7115 26.2769C17.1956 26.4379 17.5644 26.76 17.841 27.1971C18.0946 27.6112 18.256 28.0713 18.3482 28.5544Z" fill="#183B56"/>
<path d="M29.9296 35.572V36.6464C30.7456 36.6464 31.5384 36.6464 32.3543 36.6703V27.8597C32.3543 27.406 32.2844 26.9524 32.1212 26.4987C31.8181 25.663 31.2586 25.0422 30.4892 24.6124C30.0229 24.3498 29.5334 24.2065 28.9971 24.111C28.4609 24.0394 27.9247 23.9677 27.3884 23.9677C27.1553 23.9677 26.9222 23.9677 26.689 23.9916C26.4792 23.9916 26.2927 23.9916 26.0829 24.0394C25.5699 24.1349 25.057 24.2543 24.5907 24.4692C23.9379 24.7557 23.3785 25.1377 22.9587 25.7108C22.9121 25.7824 22.9354 25.8063 22.9821 25.854C23.0753 25.9257 23.1686 26.0212 23.2619 26.1167C23.4018 26.2599 23.5474 26.3972 23.6932 26.5345C23.8389 26.6718 23.9846 26.8091 24.1245 26.9524C24.1828 27.0001 24.2352 27.0539 24.2877 27.1076C24.3401 27.1613 24.3926 27.215 24.4509 27.2628C24.4975 27.3105 24.5441 27.3344 24.6141 27.2628C24.6918 27.1672 24.7695 27.093 24.8472 27.0187C24.8861 26.9815 24.9249 26.9444 24.9638 26.9046C25.2436 26.642 25.5699 26.4509 25.9197 26.3316C26.4092 26.1405 26.9222 26.069 27.4583 26.1405C27.8547 26.1883 28.251 26.2361 28.6241 26.3793C29.1836 26.5942 29.58 26.9524 29.7432 27.5493C29.8099 27.7773 29.8342 28.0269 29.8565 28.2569C29.8576 28.2678 29.8587 28.2786 29.8597 28.2895C29.8751 28.5106 29.8702 28.7318 29.865 28.9598C29.8624 29.0765 29.8597 29.195 29.8597 29.3162H29.7898C28.6474 29.3162 27.4817 29.3162 26.316 29.3401C26.0829 29.3401 25.8497 29.3639 25.6166 29.3878C25.0104 29.4594 24.4509 29.6743 23.9379 30.0086C23.3085 30.4145 22.8422 30.9637 22.6091 31.7039C22.4459 32.2053 22.3759 32.7306 22.4459 33.2559C22.4692 33.3872 22.4866 33.5245 22.5042 33.6618C22.5216 33.7991 22.5391 33.9363 22.5625 34.0677C22.679 34.593 22.8888 35.0705 23.2385 35.4764C23.5649 35.8824 23.9846 36.1689 24.4509 36.3838C25.0104 36.6225 25.5699 36.7419 26.1528 36.7419C26.5724 36.7419 26.9921 36.718 27.4117 36.6703C27.7149 36.6464 28.0179 36.5987 28.321 36.527C28.7173 36.4316 29.067 36.1928 29.4168 35.954C29.58 35.8347 29.7432 35.7152 29.9296 35.572ZM29.883 31.1069V32.3486C29.8597 32.659 29.8364 32.9694 29.7665 33.2798C29.6965 33.5902 29.4867 33.829 29.2535 34.0438C28.9038 34.3542 28.5075 34.5213 28.0645 34.593C27.7615 34.6408 27.4583 34.6885 27.1553 34.6408C27.0387 34.6288 26.9222 34.6228 26.8056 34.6169C26.689 34.6109 26.5724 34.6049 26.4559 34.593C26.0362 34.5453 25.6165 34.4258 25.2902 34.1154C25.1037 33.9245 24.9638 33.6857 24.9171 33.3991C24.8472 33.041 24.8239 32.6828 24.9404 32.3247C25.0804 31.9187 25.3368 31.6561 25.6865 31.4412C26.0829 31.2024 26.5258 31.1069 26.9921 31.1069H29.883Z" fill="#183B56"/>
<path d="M71.8004 32.2576C71.7057 31.9006 71.6583 31.5436 71.611 31.1627C74.3329 31.1627 77.0075 31.1627 79.7531 31.1389C79.755 31.1186 79.7568 31.0985 79.7586 31.0786C79.7803 30.8401 79.8005 30.6188 79.8005 30.3772C79.8005 30.2907 79.7941 30.2106 79.7879 30.1336C79.7823 30.0623 79.7768 29.9936 79.7768 29.9249C79.7768 29.6631 79.7531 29.4013 79.7295 29.1395C79.6821 28.7824 79.6348 28.4492 79.5638 28.0921C79.3981 27.3067 79.114 26.5688 78.6407 25.9022C78.3567 25.4738 78.0016 25.1168 77.5993 24.8311C76.7945 24.2837 75.8951 24.0218 74.9246 23.9742C74.6052 23.9564 74.2856 23.9787 73.9661 24.001C73.8596 24.0085 73.7531 24.0159 73.6465 24.0218C73.2205 24.0456 72.8181 24.1647 72.4157 24.3075C71.7057 24.5693 71.114 24.9978 70.6169 25.569C70.3329 25.8784 70.0962 26.2355 69.9305 26.6163C69.7412 27.021 69.5991 27.4257 69.4808 27.8303C69.2914 28.4254 69.2205 29.0205 69.1731 29.6393C69.1494 29.9964 69.1494 30.3296 69.1731 30.6867C69.1731 30.9406 69.1941 31.1945 69.2152 31.4484C69.2257 31.5753 69.2362 31.7023 69.2441 31.8292C69.2678 32.2815 69.3861 32.7337 69.5281 33.1622C69.7412 33.9 70.0725 34.5427 70.5695 35.114C70.9956 35.6138 71.5163 35.9947 72.1317 36.2803C72.7944 36.566 73.5045 36.7088 74.2146 36.7326C74.7116 36.7564 75.185 36.7326 75.6821 36.685C75.9898 36.6612 76.2974 36.6135 76.5815 36.5422C77.1495 36.3993 77.6939 36.2089 78.191 35.8995C78.6171 35.6376 79.0194 35.3044 79.3508 34.8997C79.3981 34.8522 79.3981 34.8045 79.3508 34.7569C79.2324 34.6379 79.114 34.5248 78.9957 34.4118C78.8774 34.2987 78.759 34.1857 78.6407 34.0666L77.8596 33.2812C77.7531 33.3645 77.6525 33.4478 77.5519 33.5311C77.4513 33.6144 77.3507 33.6977 77.2443 33.781C76.5815 34.3047 75.8004 34.5665 74.9484 34.5903C74.5933 34.6142 74.2146 34.5427 73.8596 34.4713C73.4572 34.3761 73.0785 34.2095 72.7708 33.9476C72.2501 33.4954 71.9661 32.9003 71.8004 32.2576ZM77.1969 29.2823H71.6583C71.682 29.068 71.682 28.8538 71.682 28.6396C71.6937 28.5924 71.7055 28.5446 71.7173 28.4964C71.7771 28.2524 71.8397 27.9974 71.9187 27.7589C72.2028 26.9972 72.6998 26.4259 73.4808 26.1879C74.262 25.9499 75.043 25.9975 75.7767 26.4021C76.2974 26.6878 76.6288 27.14 76.8419 27.6637C76.9602 27.9731 77.0549 28.3064 77.1259 28.6396C77.1574 28.7824 77.1679 28.9252 77.1785 29.068C77.1838 29.1395 77.189 29.2109 77.1969 29.2823Z" fill="#183B56"/>
<path d="M41.6455 23.9678C42.5539 23.9678 43.4862 23.9678 44.4185 23.9678C44.4185 24.0143 44.4185 24.0375 44.3946 24.084C44.1555 24.7119 43.9165 25.363 43.6774 25.9909C43.4862 26.4559 43.3189 26.9443 43.1276 27.4093C42.8408 28.1767 42.53 28.9441 42.2432 29.7347C42.028 30.2928 41.8129 30.8509 41.5977 31.409C41.3108 32.1764 41.0001 32.967 40.7133 33.7344C40.4981 34.3158 40.283 34.8971 40.0439 35.4785C39.781 36.1761 39.518 36.8737 39.2312 37.5713C38.9921 38.1759 38.7769 38.7805 38.4901 39.3619C38.1076 40.1525 37.4383 40.6873 36.5538 40.8967C36.3147 40.9431 36.0757 40.9664 35.8366 40.9897C35.502 41.0129 35.1673 40.9897 34.8326 40.9897C34.4502 40.9897 34.0916 40.9897 33.6852 40.9897C33.6852 40.2688 33.6852 39.5246 33.6852 38.7573C33.8047 38.7573 33.9004 38.7573 34.0199 38.7573C34.4262 38.7573 34.8088 38.7573 35.2151 38.7573C35.8606 38.734 36.4343 38.3852 36.6494 37.7806C36.9124 37.1063 37.1514 36.4086 37.3905 35.711C37.4383 35.5715 37.3427 35.4785 37.3188 35.3622C37.1275 34.8273 36.9363 34.3158 36.745 33.8041C36.4821 33.0833 36.1952 32.3625 35.9323 31.6415C35.5976 30.7811 35.2868 29.9207 34.9522 29.0604C34.6414 28.2232 34.3067 27.3861 33.996 26.549C33.7091 25.7583 33.3984 24.9677 33.1115 24.177C33.0876 24.1538 33.0876 24.1073 33.0637 24.0608C33.9242 24.0608 34.8088 24.0608 35.6693 24.0608C35.741 24.0608 35.7649 24.1073 35.7649 24.1538C35.9083 24.5724 36.0518 24.9909 36.1952 25.4095C36.506 26.2699 36.7928 27.1303 37.1036 27.9907C37.3905 28.8046 37.6773 29.6184 37.9642 30.4556C38.2032 31.13 38.4423 31.8043 38.6813 32.4787C38.6813 32.502 38.7052 32.5252 38.7292 32.5484C39.7332 29.6417 40.6893 26.8047 41.6455 23.9678Z" fill="#183B56"/>
<path d="M65.2053 36.0323C65.2053 35.9867 65.2053 35.9185 65.2053 35.873C65.2053 33.4163 65.2053 30.9822 65.2053 28.5255C65.2053 27.9113 65.0196 27.3426 64.6017 26.8422C64.2535 26.41 63.7661 26.1825 63.2322 26.137C62.9768 26.1143 62.7214 26.0915 62.4661 26.1143C61.7929 26.1825 61.2126 26.4327 60.8179 27.0014C60.5394 27.3881 60.4001 27.8203 60.3304 28.298C60.3072 28.4573 60.3072 28.6165 60.3072 28.7757C60.3072 31.1415 60.3072 33.4845 60.3072 35.8503C60.3072 35.8958 60.3072 35.9412 60.3072 36.0095C59.4715 36.0095 58.6358 36.0095 57.8001 36.0095C57.8001 32.0287 57.8001 28.0478 57.8001 24.0669C58.5894 24.0669 59.3787 24.0669 60.1911 24.0669C60.1911 24.4537 60.1911 24.8404 60.1911 25.2726C60.3536 25.1361 60.4929 24.9996 60.6554 24.8859C61.2126 24.4764 61.8161 24.2034 62.5125 24.0669C62.9768 23.976 63.4411 23.9532 63.9054 23.976C64.4393 23.9987 64.9732 24.1124 65.4606 24.3399C65.9481 24.5674 66.366 24.8859 66.7374 25.2726C67.1088 25.7048 67.3874 26.2052 67.5267 26.7739C67.6427 27.2289 67.6891 27.6838 67.6891 28.1388C67.6891 28.9349 67.7124 29.7311 67.7124 30.5273C67.7124 31.9832 67.7356 33.439 67.7356 34.8949C67.7356 35.2588 67.7356 35.6455 67.7356 36.0323C66.8535 36.0323 66.041 36.0323 65.2053 36.0323Z" fill="#183B56"/>
<path d="M45.7354 19C46.6024 19 47.446 19 48.313 19C48.313 19.0463 48.313 19.0926 48.313 19.139C48.313 23.655 48.313 28.1478 48.313 32.6407C48.313 33.0112 48.4068 33.3818 48.6879 33.6597C48.852 33.8218 49.0628 33.9145 49.2972 33.9145C49.6721 33.9145 50.0236 33.9376 50.3985 33.9376C50.4923 33.9376 50.6094 33.9376 50.7031 33.9145C50.7031 34.6092 50.7031 35.304 50.7031 36.0219C50.6329 36.0219 50.6094 36.0219 50.5625 36.0219C49.9533 36.0219 49.3675 36.0451 48.7582 36.0219C48.0787 35.9988 47.4694 35.7903 46.9539 35.3735C46.3212 34.8872 45.9697 34.2155 45.8291 33.4512C45.7589 33.0808 45.7354 32.687 45.7354 32.3165C45.7354 27.9163 45.7354 23.5392 45.7354 19.139C45.7354 19.1158 45.7354 19.0695 45.7354 19Z" fill="#183B56"/>
<path d="M52.8326 23.9677C53.6658 23.9677 54.4526 23.9677 55.2626 23.9677C55.2626 27.9893 55.2626 32.0107 55.2626 36.0323C54.4526 36.0323 53.6426 36.0323 52.8326 36.0323C52.8326 32.0107 52.8326 27.9893 52.8326 23.9677Z" fill="#183B56"/>
<path d="M55.2626 21.8387C54.4526 21.8387 53.6426 21.8387 52.8326 21.8387C52.8326 20.9012 52.8326 19.9636 52.8326 19C53.6426 19 54.4526 19 55.2626 19C55.2626 19.9376 55.2626 20.8751 55.2626 21.8387Z" fill="#183B56"/>
</svg>
