<svg xmlns="http://www.w3.org/2000/svg" width="100" height="60" fill="none"><path fill="#F05000" d="M0 0h100v60H0z"/><path fill="#fff" d="M31.918 31.422h-1.231v4.475H28.67V24.024h3.48c2.498 0 4.39 1.176 4.39 3.6-.001 2.48-1.75 3.798-4.622 3.798m.07-5.812h-1.301v4.225h1.249c1.802 0 2.57-.73 2.57-2.157-.001-1.283-.715-2.068-2.517-2.068m6.072 10.287h-2.016l4.532-11.873h1.944l4.622 11.873h-2.195l-.928-2.55h-5.031l-.93 2.55zm4.12-7.577a54 54 0 0 1-.677-2.05h-.036s-.303 1.07-.678 2.05c0 0-1.213 3.387-1.23 3.387h3.853zm8.818 3.084v4.493h-2.016v-4.493l-3.961-7.38h2.248l2.8 5.508h.019l2.8-5.508h1.964zm9.748 4.513-2.41-6.88a85 85 0 0 1-.534-1.676h-.036s-.072.927-.16 1.73l-.84 6.826H54.93l1.624-11.872h1.945l2.64 7.666c.339.944.66 2.103.66 2.103h.036s.339-1.16.678-2.103l2.676-7.666h1.945l1.624 11.872h-2.052l-.874-6.863c-.108-.82-.197-1.693-.197-1.693H65.6s-.25.873-.518 1.675l-2.373 6.881zm9.853 0V24.045h2.016v11.873zm4.185 0V24.045H76.8v10.233h4.532v1.64zm8.664 0V24.045h2.016v10.233h4.532v1.64zM18.532 26.72a.465.465 0 0 0-.465-.465h-2.37a.9.9 0 0 0-.805.465L10.11 36.753a.466.466 0 0 0 .425.65l2.37.001c.407 0 .747-.347.88-.626l4.708-9.873a.5.5 0 0 0 .04-.186z"/><path fill="#fff" d="M24.206 28.112a.5.5 0 0 0-.037-.183l-2.21-4.765c-.155-.348-.472-.627-.88-.627h-2.37a.465.465 0 0 0-.424.651l2.228 4.701s.057.144.057.224q0 .117-.057.22v.003l-2.228 4.7a.464.464 0 0 0 .425.65l2.37.002c.407 0 .706-.278.879-.626l2.21-4.766a.5.5 0 0 0 .037-.184"/></svg>