<svg width="100" height="60" viewBox="0 0 100 60" fill="none" xmlns="http://www.w3.org/2000/svg">
<rect width="100" height="60" fill="#00324F"/>
<path d="M14.8951 33.58C14.8951 33.931 15.1981 34.218 15.5681 34.218H18.3351C18.7051 34.218 19.0071 33.931 19.0071 33.58V30.958C19.0071 30.608 18.7051 30.32 18.3351 30.32H15.5681C15.1981 30.32 14.8951 30.607 14.8951 30.958V33.58ZM10.1101 33.591C10.1101 33.942 10.4121 34.229 10.7831 34.229H13.5491C13.9191 34.229 14.2211 33.942 14.2211 33.591V30.97C14.2211 30.62 13.9191 30.332 13.5491 30.332H10.7831C10.4131 30.332 10.1101 30.619 10.1101 30.97V33.591Z" fill="white"/>
<path d="M14.8951 29.044C14.8951 29.395 15.1981 29.682 15.5681 29.682H18.3351C18.7051 29.682 19.0071 29.395 19.0071 29.044V26.422C19.0071 26.072 18.7051 25.785 18.3351 25.785H15.5681C15.1981 25.785 14.8951 26.071 14.8951 26.422V29.044Z" fill="#2CADD8"/>
<path d="M10.1101 29.044C10.1101 29.395 10.4121 29.682 10.7831 29.682H13.5491C13.9191 29.682 14.2211 29.395 14.2211 29.044V26.422C14.2211 26.072 13.9191 25.785 13.5491 25.785H10.7831C10.4131 25.785 10.1101 26.071 10.1101 26.422V29.044ZM25.5551 27.171H27.9241C29.6401 27.171 29.7811 27.645 29.7811 28.172C29.7811 28.749 29.5711 29.339 28.0161 29.339H25.5551V27.171ZM27.9471 25.783H23.8351V34.217H25.5551V30.727H28.3191C30.3861 30.727 31.5711 29.796 31.5711 28.172C31.5711 26.498 30.4871 25.783 27.9471 25.783ZM39.6711 30.76H36.3041L37.9921 27.54L39.6711 30.76ZM37.1281 25.783L32.5571 34.217H34.4821L35.5621 32.147H40.3901L41.4701 34.217H43.4301L38.8581 25.783H37.1281ZM52.1721 25.783L49.2661 29.319L46.3591 25.783H44.1391L48.4051 30.747V34.217H50.1251V30.747L54.3931 25.783H52.1721Z" fill="white"/>
<path d="M60.9471 33.038C59.0441 33.038 57.7651 31.818 57.7651 30C57.7651 28.183 59.0441 26.962 60.9471 26.962C62.8511 26.962 64.1291 28.182 64.1291 30C64.1291 31.817 62.8511 33.038 60.9471 33.038ZM60.9471 25.574C57.2781 25.574 55.9761 27.958 55.9761 30C55.9761 32.042 57.2781 34.426 60.9471 34.426C64.6171 34.426 65.9201 32.042 65.9201 30C65.9201 27.958 64.6171 25.574 60.9471 25.574ZM76.8311 32.084L72.0611 25.784H70.0241V34.217H71.7441V27.917L76.5141 34.217H78.5511V25.783H76.8311V32.084ZM89.8901 27.171V25.783H83.0281V34.217H89.8801V32.829H84.7491V30.584H89.4881V29.196H84.7481V27.171H89.8901Z" fill="#2CADD8"/>
</svg>
