<svg width="100" height="60" viewBox="0 0 100 60" fill="none" xmlns="http://www.w3.org/2000/svg">
<path d="M13.8951 33.58C13.8951 33.931 14.1981 34.218 14.5681 34.218H17.3351C17.7051 34.218 18.0071 33.931 18.0071 33.58V30.958C18.0071 30.608 17.7051 30.32 17.3351 30.32H14.5681C14.1981 30.32 13.8951 30.607 13.8951 30.958V33.58ZM9.11011 33.591C9.11011 33.942 9.41211 34.229 9.78311 34.229H12.5491C12.9191 34.229 13.2211 33.942 13.2211 33.591V30.97C13.2211 30.62 12.9191 30.332 12.5491 30.332H9.78311C9.41311 30.332 9.11011 30.619 9.11011 30.97V33.591Z" fill="#00324F"/>
<path d="M13.8951 29.044C13.8951 29.395 14.1981 29.682 14.5681 29.682H17.3351C17.7051 29.682 18.0071 29.395 18.0071 29.044V26.422C18.0071 26.072 17.7051 25.785 17.3351 25.785H14.5681C14.1981 25.785 13.8951 26.071 13.8951 26.422V29.044Z" fill="#2CADD8"/>
<path d="M9.11011 29.044C9.11011 29.395 9.41211 29.682 9.78311 29.682H12.5491C12.9191 29.682 13.2211 29.395 13.2211 29.044V26.422C13.2211 26.072 12.9191 25.785 12.5491 25.785H9.78311C9.41311 25.785 9.11011 26.071 9.11011 26.422V29.044ZM24.5551 27.171H26.9241C28.6401 27.171 28.7811 27.645 28.7811 28.172C28.7811 28.749 28.5711 29.339 27.0161 29.339H24.5551V27.171ZM26.9471 25.783H22.8351V34.217H24.5551V30.727H27.3191C29.3861 30.727 30.5711 29.796 30.5711 28.172C30.5711 26.498 29.4871 25.783 26.9471 25.783ZM38.6711 30.76H35.3041L36.9921 27.54L38.6711 30.76ZM36.1281 25.783L31.5571 34.217H33.4821L34.5621 32.147H39.3901L40.4701 34.217H42.4301L37.8581 25.783H36.1281ZM51.1721 25.783L48.2661 29.319L45.3591 25.783H43.1391L47.4051 30.747V34.217H49.1251V30.747L53.3931 25.783H51.1721Z" fill="#00324F"/>
<path d="M59.9471 33.038C58.0441 33.038 56.7651 31.818 56.7651 30C56.7651 28.183 58.0441 26.962 59.9471 26.962C61.8511 26.962 63.1291 28.182 63.1291 30C63.1291 31.817 61.8511 33.038 59.9471 33.038ZM59.9471 25.574C56.2781 25.574 54.9761 27.958 54.9761 30C54.9761 32.042 56.2781 34.426 59.9471 34.426C63.6171 34.426 64.9201 32.042 64.9201 30C64.9201 27.958 63.6171 25.574 59.9471 25.574ZM75.8311 32.084L71.0611 25.784H69.0241V34.217H70.7441V27.917L75.5141 34.217H77.5511V25.783H75.8311V32.084ZM88.8901 27.171V25.783H82.0281V34.217H88.8801V32.829H83.7491V30.584H88.4881V29.196H83.7481V27.171H88.8901Z" fill="#2CADD8"/>
</svg>
