<svg width="100" height="60" viewBox="0 0 100 60" fill="none" xmlns="http://www.w3.org/2000/svg">
<path d="M14.1333 34.8471V30.7216H15.9059C19.2157 30.7216 21.2078 28.8706 21.2078 26.1098C21.2078 23.5059 19.2 22 16.298 22H12V34.8471H14.1333ZM16.2039 23.9137C17.9137 23.9137 19.0588 24.698 19.0588 26.3608C19.0588 27.898 17.7725 28.8078 16.0941 28.8078H14.1333V23.9137H16.2039ZM50.9176 30.3608C50.9176 27.7098 48.9098 25.702 46.2588 25.702C43.7019 25.702 41.6157 27.7725 41.6157 30.3294C41.6157 30.3608 41.6157 30.3765 41.6157 30.4078C41.6157 33.0902 43.5451 35.0353 46.2588 35.0353C48.8 35.0667 50.8863 33.0431 50.9176 30.502C50.9333 30.4549 50.9333 30.4078 50.9176 30.3608ZM43.6392 30.3608C43.6392 28.8235 44.7686 27.6 46.2588 27.6471C47.9059 27.6941 48.9255 28.8392 48.8941 30.3608C48.8627 31.898 47.749 33.0745 46.2588 33.0745C44.7686 33.0745 43.6392 31.8824 43.6392 30.3608ZM71.0745 30.8941C71.1215 30.5804 71.1372 30.2667 71.1372 29.9529C71.1372 27.4431 69.2235 25.6863 66.7921 25.6863C64.2666 25.6549 62.1961 27.6784 62.1647 30.2039C62.1647 30.2353 62.1647 30.2824 62.1647 30.3137C62.1647 33.0431 63.9843 35.0196 66.7294 35.0196C68.5804 35.0196 70.1333 34.1412 70.7764 32.9176L69.1921 32.0392C68.7686 32.7294 67.8745 33.2 66.8549 33.2C65.4431 33.2 64.4392 32.3373 64.2353 30.8784L71.0745 30.8941ZM64.3764 29.3412C64.6431 28.149 65.5215 27.4275 66.7451 27.4275C67.9843 27.4275 68.9255 28.2118 69.0353 29.3412H64.3764ZM39.3725 25.8588L36.8941 32.2588L34.6823 25.8588H32.3608L35.6863 34.8471L34.3059 38H36.5019L41.5686 25.8588H39.3725ZM88 25.9059C87.7176 25.8275 87.4196 25.7804 87.1215 25.7961C86.2431 25.7961 85.2549 26.298 84.8313 27.1608V25.8745H82.8078V34.8627H84.8313V30.0471C84.8313 28.3843 85.9451 27.6941 87.0902 27.6941C87.3882 27.6941 87.7019 27.7255 87.9843 27.7882C87.9843 27.8039 88 25.9059 88 25.9059ZM81.3176 30.8941C81.3647 30.5804 81.3804 30.2667 81.3804 29.9529C81.3804 27.4431 79.4666 25.6863 77.0353 25.6863C74.5098 25.6549 72.4392 27.6784 72.4078 30.2039C72.4078 30.2353 72.4078 30.2824 72.4078 30.3137C72.4078 33.0431 74.2274 35.0196 76.9725 35.0196C78.8235 35.0196 80.3764 34.1412 81.0196 32.9176L79.4353 32.0392C79.0117 32.7294 78.1176 33.2 77.098 33.2C75.6862 33.2 74.6823 32.3373 74.4784 30.8784L81.3176 30.8941ZM74.6039 29.3412C74.8706 28.149 75.749 27.4275 76.9725 27.4275C78.2117 27.4275 79.1529 28.2118 79.2627 29.3412H74.6039ZM29.1451 30.3451C29.1765 31.8824 27.9686 33.1529 26.4314 33.2C26.3843 33.2 26.3529 33.2 26.3059 33.2C24.7373 33.2 23.6863 31.9765 23.6863 30.3451C23.702 28.7922 24.9412 27.5373 26.4941 27.5216C28.0784 27.5059 29.1451 28.7294 29.1451 30.3451ZM60.8 29.7333C60.8 27.2235 59.5764 25.702 57.2863 25.702C56.0784 25.702 54.9647 26.2196 54.3529 27.0353V25.8745H52.3137V34.8627H54.3529V29.9843C54.3529 28.4784 55.4353 27.5216 56.7372 27.5216C58.0392 27.5216 58.7294 28.4 58.7294 29.8902V34.8627H60.8V29.7333ZM29.1451 25.8588V27.0196C28.549 26.2353 27.5921 25.6863 26.1647 25.6863C23.6863 25.6863 21.6157 27.8824 21.6157 30.4706C21.6157 33.0745 23.3882 35.0196 25.7882 35.0196C27.3412 35.0196 28.502 34.4706 29.1608 33.5451V34.8471H31.1686V25.8588H29.1451Z" fill="black"/>
</svg>
