<svg width="100" height="60" viewBox="0 0 100 60" fill="none" xmlns="http://www.w3.org/2000/svg">
<rect width="100" height="60" fill="black"/>
<path d="M17.9829 32.5886H12.8583V37.6705H17.9829V32.5886Z" fill="#A70584"/>
<path d="M17.9573 25.696H12.8328V30.8206H17.9573V25.696Z" fill="#36B587"/>
<path d="M11.1246 32.5288H6V37.6534H11.1246V32.5288Z" fill="#FAD05B"/>
<path d="M33.2541 25.3715C33.2541 28.9075 30.41 31.7431 26.7459 31.7431H23.953V37.5851H19.6996V19H26.7374C30.4185 19 33.2541 21.8441 33.2541 25.3715ZM29.0093 25.3715C29.0093 24.0135 28.0527 22.9801 26.7545 22.9801H23.9616V27.763H26.7545C28.0527 27.763 29.0093 26.7295 29.0093 25.3715Z" fill="white"/>
<path d="M48.0812 23.9537V37.585H43.99V36.3039C43.0932 37.3373 41.7523 37.9693 39.9246 37.9693C36.3545 37.9693 33.4078 34.8348 33.4078 30.7693C33.4078 26.7039 36.3545 23.5693 39.9246 23.5693C41.7523 23.5693 43.0847 24.1928 43.99 25.2348V23.9537H48.0812ZM43.99 30.7693C43.99 28.7281 42.6235 27.4469 40.7445 27.4469C38.8655 27.4469 37.4989 28.7281 37.4989 30.7693C37.4989 32.8106 38.8655 34.1003 40.7445 34.1003C42.6235 34.1003 43.99 32.8106 43.99 30.7693Z" fill="white"/>
<path d="M63.6171 23.9537L58.9879 37.0897C57.4676 41.3943 55.0591 43.1025 51.2669 42.9146V39.1224C53.163 39.1224 54.0598 38.5246 54.6491 36.8762L49.2683 23.9537H53.7352L56.7416 32.2384L59.2954 23.9537H63.6171Z" fill="white"/>
<path d="M78.7601 25.3715C78.7601 28.9075 75.916 31.7431 72.252 31.7431H69.4591V37.5851H65.2057V19H72.2434C75.916 19 78.7601 21.8441 78.7601 25.3715ZM74.5153 25.3715C74.5153 24.0135 73.5587 22.9801 72.2605 22.9801H69.4676V27.763H72.2605C73.5587 27.763 74.5153 26.7295 74.5153 25.3715Z" fill="white"/>
<path d="M79.2982 30.9573C79.2982 27.0028 82.4327 23.9452 86.3359 23.9452C90.2391 23.9452 93.3737 26.9943 93.3737 30.9573C93.3737 34.9203 90.2391 37.9694 86.3359 37.9694C82.4327 37.9694 79.2982 34.9117 79.2982 30.9573ZM89.385 30.9573C89.385 29.0697 88.0612 27.8228 86.3274 27.8228C84.6021 27.8228 83.2697 29.0697 83.2697 30.9573C83.2697 32.8448 84.5936 34.0918 86.3274 34.0918C88.0612 34.0918 89.385 32.8363 89.385 30.9573Z" fill="white"/>
</svg>
