<svg width="100" height="60" viewBox="0 0 100 60" fill="none" xmlns="http://www.w3.org/2000/svg">
<rect width="100" height="60" fill="#253B80"/>
<path d="M63.655 27.468C63.3345 29.5636 61.7238 29.5636 60.1645 29.5636H59.2785L59.9003 25.6505C59.9185 25.5363 59.9772 25.4322 60.0657 25.3571C60.1543 25.2819 60.2669 25.2407 60.3834 25.2407H60.7899C61.8518 25.2407 62.8526 25.2407 63.3692 25.8406C63.6789 26.1993 63.7722 26.7315 63.6562 27.468M62.977 22H57.101C56.9063 21.9999 56.718 22.0689 56.57 22.1946C56.422 22.3203 56.3241 22.4944 56.2938 22.6854L53.9178 37.6534C53.9068 37.7228 53.911 37.7938 53.9302 37.8614C53.9494 37.9291 53.9831 37.9918 54.029 38.0453C54.0749 38.0988 54.1319 38.1418 54.1961 38.1714C54.2603 38.2009 54.3302 38.2163 54.4009 38.2164H57.4167C57.6977 38.2164 57.9368 38.0145 57.9811 37.7377L58.6555 33.4932C58.6857 33.3025 58.7835 33.1287 58.9313 33.0033C59.079 32.8778 59.2671 32.8089 59.4614 32.809H61.3209C65.1916 32.809 67.4265 30.9475 68.01 27.259C68.2731 25.647 68.0196 24.3794 67.2603 23.492C66.4244 22.5168 64.9429 22 62.977 22Z" fill="white"/>
<path d="M21.742 27.4681C21.4215 29.5636 19.8108 29.5636 18.2515 29.5636H17.3667L17.9885 25.6506C18.0067 25.5363 18.0653 25.4323 18.1539 25.3571C18.2425 25.282 18.3551 25.2407 18.4715 25.2407H18.8781C19.9388 25.2407 20.9396 25.2407 21.4574 25.8406C21.7659 26.1994 21.8592 26.7316 21.742 27.4681ZM21.064 22.0001H15.1892C14.9945 22 14.8061 22.069 14.6581 22.1947C14.5102 22.3204 14.4122 22.4944 14.382 22.6855L12.006 37.6534C11.9949 37.7229 11.9992 37.794 12.0184 37.8618C12.0377 37.9295 12.0715 37.9923 12.1175 38.0458C12.1636 38.0994 12.2207 38.1423 12.2851 38.1718C12.3494 38.2012 12.4194 38.2165 12.4903 38.2165H15.2956C15.6974 38.2165 16.0393 37.9266 16.1027 37.5323L16.7437 33.4933C16.7739 33.3025 16.8717 33.1288 17.0194 33.0033C17.1672 32.8779 17.3552 32.809 17.5496 32.809H19.409C23.2797 32.809 25.5146 30.9476 26.0982 27.259C26.3612 25.647 26.1089 24.3795 25.3484 23.4921C24.5126 22.5168 23.031 22.0001 21.064 22.0001ZM34.7065 32.8411C34.4351 34.4389 33.1592 35.5116 31.5306 35.5116C30.7151 35.5116 30.061 35.2502 29.6413 34.7561C29.2251 34.2666 29.0673 33.5693 29.2 32.7936C29.4535 31.2101 30.7509 30.1029 32.3533 30.1029C33.1532 30.1029 33.8013 30.3667 34.2306 30.8656C34.6611 31.3669 34.8309 32.069 34.7065 32.8411ZM38.6287 27.4004H35.815C35.6983 27.4004 35.5853 27.4418 35.4965 27.5171C35.4078 27.5925 35.349 27.6968 35.3307 27.8114L35.2064 28.5931L35.0103 28.3103C34.4004 27.4313 33.042 27.1367 31.686 27.1367C28.577 27.1367 25.9224 29.4769 25.4046 32.7603C25.1368 34.3985 25.5182 35.963 26.4533 37.0547C27.3119 38.0585 28.5364 38.4767 29.9964 38.4767C32.5027 38.4767 33.8922 36.8777 33.8922 36.8777L33.7667 37.6546C33.7558 37.724 33.7602 37.795 33.7795 37.8626C33.7989 37.9302 33.8327 37.9928 33.8787 38.0462C33.9247 38.0996 33.9818 38.1425 34.0461 38.1719C34.1103 38.2012 34.1802 38.2165 34.251 38.2165H36.7848C37.1866 38.2165 37.5286 37.9266 37.5907 37.5323L39.113 27.9623C39.1238 27.8928 39.1194 27.8219 39.1001 27.7543C39.0808 27.6867 39.0469 27.624 39.0009 27.5707C38.9549 27.5173 38.8978 27.4744 38.8336 27.445C38.7693 27.4156 38.6994 27.4004 38.6287 27.4004Z" fill="white"/>
<path d="M76.6196 32.8411C76.3481 34.4389 75.0722 35.5116 73.4436 35.5116C72.6281 35.5116 71.9728 35.2502 71.5543 34.7561C71.137 34.2666 70.9803 33.5693 71.113 32.7936C71.3665 31.2101 72.6628 30.1029 74.2663 30.1029C75.0663 30.1029 75.7144 30.3667 76.1424 30.8656C76.5729 31.3669 76.7415 32.069 76.6196 32.8411ZM80.5417 27.4004H77.7269C77.6103 27.4007 77.4976 27.4422 77.4091 27.5175C77.3206 27.5928 77.2619 27.697 77.2438 27.8114L77.1194 28.5931L76.9233 28.3103C76.3135 27.4313 74.9551 27.1367 73.599 27.1367C70.49 27.1367 67.8354 29.4769 67.3177 32.7603C67.0486 34.3985 67.4313 35.963 68.3664 37.0547C69.2249 38.0585 70.4494 38.4767 71.9094 38.4767C74.4158 38.4767 75.8052 36.8777 75.8052 36.8777L75.6797 37.6546C75.6688 37.724 75.6732 37.795 75.6925 37.8626C75.7119 37.9302 75.7457 37.9928 75.7917 38.0462C75.8377 38.0996 75.8948 38.1425 75.9591 38.1719C76.0233 38.2012 76.0932 38.2165 76.164 38.2165H78.6966C79.0996 38.2165 79.4416 37.9266 79.5038 37.5323L81.026 27.9623C81.0369 27.8928 81.0325 27.8219 81.0131 27.7543C80.9938 27.6867 80.9599 27.624 80.9139 27.5707C80.8679 27.5173 80.8108 27.4744 80.7466 27.445C80.6823 27.4156 80.6124 27.4004 80.5417 27.4004Z" fill="white"/>
<path d="M53.6153 27.4003H50.7873C50.6539 27.4002 50.5225 27.4327 50.4047 27.4948C50.2869 27.557 50.1863 27.6469 50.1117 27.7567L46.2099 33.4647L44.5573 27.9789C44.5067 27.8116 44.4032 27.665 44.2621 27.5608C44.121 27.4566 43.9499 27.4004 43.7741 27.4003H40.9939C40.9161 27.4006 40.8395 27.4192 40.7703 27.4547C40.7012 27.4901 40.6415 27.5415 40.5963 27.6044C40.5511 27.6673 40.5216 27.74 40.5103 27.8165C40.4989 27.893 40.5061 27.971 40.5312 28.0442L43.6449 37.1259L40.7153 41.2314C40.6633 41.3044 40.6325 41.3901 40.6263 41.4792C40.62 41.5684 40.6386 41.6575 40.68 41.7369C40.7214 41.8163 40.7839 41.8828 40.8608 41.9292C40.9377 41.9756 41.0259 42.0001 41.1159 42H43.9403C44.2081 42 44.4593 41.8693 44.6123 41.6508L54.0171 28.1642C54.0678 28.0912 54.0975 28.0058 54.103 27.9173C54.1085 27.8288 54.0895 27.7404 54.0482 27.6618C54.0068 27.5832 53.9447 27.5173 53.8684 27.4712C53.7921 27.4252 53.7046 27.4006 53.6153 27.4003Z" fill="white"/>
<path d="M83.8575 22.411L81.4468 37.6546C81.436 37.724 81.4404 37.7949 81.4597 37.8625C81.479 37.9301 81.5129 37.9928 81.5589 38.0462C81.6049 38.0995 81.662 38.1424 81.7262 38.1718C81.7905 38.2012 81.8604 38.2164 81.9311 38.2164H84.3561C84.7579 38.2164 85.1011 37.9266 85.1633 37.5322L87.5417 22.5631C87.5527 22.4935 87.5485 22.4225 87.5293 22.3547C87.51 22.287 87.4762 22.2242 87.4302 22.1707C87.3841 22.1171 87.327 22.0742 87.2626 22.0447C87.1983 22.0153 87.1283 22 87.0574 22H84.343C84.2262 21.9998 84.1131 22.0411 84.0243 22.1165C83.9354 22.1918 83.8755 22.2963 83.8575 22.411Z" fill="white"/>
</svg>
