<svg xmlns="http://www.w3.org/2000/svg" width="100" height="60" fill="none"><path fill="#fff" d="M0 0h100v60H0z"/><path fill="#7887E6" d="M86.965 25.782h4.784v4.764h-4.784z"/><path fill="#2D2341" d="M13.925 29.214h-1.906v-4.53h1.906c1.356 0 2.114.938 2.114 2.288 0 1.442-.85 2.242-2.114 2.242m.414-7.276H8.251v15.788h3.768V31.96h2.32c3.055 0 5.353-1.899 5.353-5.126 0-2.79-1.724-4.896-5.353-4.896m25.165 4.119-2.527 6.973-2.903-6.973h-3.763l4.956 11.12L33.721 41h3.498l5.938-14.943zm27.153-.48v.48h-1.953v2.494h1.953v9.175h3.653v-9.175h2.527v-2.494h-2.528v-.618c0-1.03.414-1.762 1.54-1.762.344 0 .781.069 1.08.16V21.23A6.6 6.6 0 0 0 71.183 21c-2.964 0-4.526 1.808-4.526 4.576m-6.682 9.587a2.53 2.53 0 0 1-1.447.457c-.92 0-1.54-.526-1.54-1.373 0-.96.76-1.9 2.987-1.533zm-.712-9.382c-2.274 0-4.066.71-5.17 1.396l1.012 2.082c.666-.297 2.067-.823 3.262-.823.85 0 1.608.297 1.608 1.19v.777c-5.067-.359-6.523 1.861-6.523 3.912 0 2.003 1.703 3.685 3.945 3.685.884 0 1.844-.333 2.578-.792v.517h3.676v-8.123c0-2.63-1.677-3.82-4.388-3.82m-32.716 9.382a2.53 2.53 0 0 1-1.447.457c-.92 0-1.54-.526-1.54-1.373 0-.96.76-1.9 2.987-1.533zm-.85-9.382c-2.274 0-4.066.71-5.168 1.396l1.01 2.082c.667-.297 2.068-.823 3.263-.823.85 0 1.608.297 1.608 1.19v.777c-5.067-.359-6.523 1.861-6.523 3.912 0 2.003 1.703 3.685 3.945 3.685.884 0 1.844-.333 2.578-.792v.517h3.676v-8.123c0-2.63-1.677-3.82-4.388-3.82m21.241 3.57c0-.55.552-.893 1.47-.893.966 0 1.977.344 2.712.664l1.034-2.402c-.965-.481-2.436-.939-3.93-.939-2.733 0-4.938 1.236-4.938 3.707 0 3.89 5.513 3.18 5.513 4.897 0 .64-.643.96-1.723.96-1.103 0-2.16-.365-2.986-.777l-1.172 2.356c1.378.733 2.986 1.076 4.48 1.076 2.665 0 4.962-1.373 4.962-3.89 0-3.844-5.422-3.203-5.422-4.76m31.975-1.007c-1.01 0-1.814.8-1.952 2.357h3.905c-.138-1.556-.942-2.357-1.953-2.357m5.666 4.279H76.96c.057.6.21 1.088.443 1.476.502.85 1.514 1.253 2.475 1.224.998 0 2.112-.28 3.21-.9l1.026 2.267c-1.622 1.119-3.725 1.31-4.788 1.31-3.814 0-6.203-2.357-6.203-6.04 0-3.593 2.527-6.179 5.79-6.179s5.665 2.508 5.665 5.93z"/><path fill="#FF5073" d="M91.749 33.237h-4.784V38h4.784z"/></svg>