<svg xmlns="http://www.w3.org/2000/svg" width="100" height="60" fill="none"><path fill="#fff" d="M0 0h100v60H0z"/><path fill="#95BF3E" d="M73.597 26.077a.754.754 0 0 1-.754-.754v-3.334h-.277c-1.725 0-2.367.284-2.367 1.856v4.506q-.002.04-.003.082v5.137c0 .627-.121 1.127-.37 1.515-.47.724-1.402 1.054-2.891 1.056-1.49-.002-2.42-.332-2.89-1.055-.25-.388-.372-.888-.372-1.516v-5.137l-.002-.082v-4.506c0-1.57-.642-1.856-2.368-1.856h-.543c-1.724 0-2.365.284-2.365 1.856v9.725c0 1.564.352 2.889 1.034 3.956 1.316 2.07 3.866 3.172 7.493 3.172h.026c3.626 0 6.176-1.102 7.493-3.172.681-1.067 1.033-2.391 1.033-3.956v-7.492h-1.878m7.974-5.373h-2.836a.56.56 0 0 1-.56-.561v-2.87c0-.31.251-.561.561-.561h2.837c.309 0 .56.252.56.561v2.873a.56.56 0 0 1-.561.56m-3.781-3.995h-1.927a.38.38 0 0 1-.38-.381v-1.95a.38.38 0 0 1 .38-.381h1.928a.38.38 0 0 1 .38.38v1.95a.38.38 0 0 1-.381.382M29.012 27.906c0 2.308-.59 3.558-3.698 3.558h-4.785v-5.955c0-.827.308-1.134 1.133-1.134h3.652c2.342 0 3.698.578 3.698 3.531m-3.698-5.92h-4.126c-2.205 0-3.188.983-3.188 3.188v14.162c0 .852.273 1.125 1.125 1.125h.28c.85 0 1.124-.273 1.124-1.125v-5.51h4.785c4.248 0 6.227-1.881 6.227-5.92 0-4.04-1.979-5.92-6.227-5.92m15.126 12.11v1.941c0 1.583-.586 2.5-3.586 2.5-1.98 0-2.944-.718-2.944-2.193 0-1.618.967-2.248 3.446-2.248zm-3.586-8.05c-1.635 0-2.659.206-3.048.284-.688.15-.975.338-.975 1.12v.223c0 .308.044.52.142.67q.17.261.544.261.179 0 .425-.061c.394-.099 1.65-.301 3.024-.301 2.469 0 3.474.683 3.474 2.36v1.494H37.33c-4.001 0-5.865 1.35-5.865 4.248 0 2.811 1.924 4.359 5.42 4.359 4.15 0 6.002-1.413 6.002-4.582v-5.52c0-3.064-1.972-4.555-6.032-4.555m19.717.661c-.176-.221-.51-.252-.844-.252h-.25c-.833 0-1.16.257-1.345 1.056l-2.312 9.617c-.29 1.181-.695 1.398-1.39 1.398-.85 0-1.19-.203-1.53-1.403l-2.62-9.617c-.216-.806-.536-1.051-1.369-1.051h-.224c-.336 0-.67.03-.842.256-.172.223-.114.559-.026.888l2.648 9.7c.498 1.857 1.088 3.394 3.295 3.394.411 0 .792-.058 1.108-.165-.668 2.105-1.35 3.033-3.356 3.24-.407.033-.672.092-.82.29-.153.205-.118.499-.064.762l.056.248c.12.575.323.932.97.932q.102 0 .218-.01c2.997-.197 4.605-1.81 5.544-5.571l3.207-12.827c.076-.328.121-.664-.054-.885m20.847-6.45-3.82-.001a.754.754 0 0 0-.754.753v.534h.265c1.724 0 2.365.284 2.365 1.855v2.234h1.942a.754.754 0 0 0 .755-.754l.002-3.867a.754.754 0 0 0-.755-.754"/></svg>