<svg width="100" height="60" viewBox="0 0 100 60" fill="none" xmlns="http://www.w3.org/2000/svg">
<rect width="100" height="60" fill="#95BF3E"/>
<path d="M73.5952 26.0781C73.3952 26.0778 73.2035 25.9982 73.0622 25.8567C72.9209 25.7152 72.8416 25.5234 72.8416 25.3235V21.99H72.5636C70.8402 21.99 70.1978 22.2741 70.1978 23.8451V28.3523C70.1968 28.3801 70.1947 28.4058 70.1947 28.4346V33.5719C70.1947 34.1988 70.0743 34.6981 69.8241 35.0863C69.3546 35.811 68.424 36.1405 66.9333 36.1425C65.4446 36.1405 64.5139 35.811 64.0434 35.0873C63.7933 34.6992 63.6728 34.1988 63.6728 33.5708V28.4346C63.6728 28.4058 63.6708 28.3801 63.6697 28.3523V23.8472C63.6697 22.2751 63.0273 21.991 61.3019 21.991H60.7593C59.0349 21.991 58.3935 22.2751 58.3935 23.8462V33.5708C58.3935 35.1357 58.7466 36.4606 59.4282 37.5272C60.7449 39.5965 63.295 40.6981 66.9199 40.6981H66.9466C70.5725 40.6981 73.1226 39.5965 74.4393 37.5272C75.1209 36.4606 75.474 35.1357 75.474 33.5708V26.0802H73.5941M81.5686 20.7062H78.7324C78.6587 20.7062 78.5858 20.6917 78.5178 20.6634C78.4498 20.6352 78.388 20.5939 78.336 20.5418C78.284 20.4897 78.2427 20.4278 78.2147 20.3597C78.1866 20.2917 78.1722 20.2187 78.1723 20.1451V17.2728C78.1729 17.1242 78.2322 16.982 78.3373 16.877C78.4425 16.7721 78.5848 16.713 78.7334 16.7127L81.5707 16.7138C81.8795 16.7138 82.1307 16.965 82.1307 17.2738L82.1297 20.1461C82.1297 20.455 81.8785 20.7062 81.5686 20.7062ZM77.7893 16.7127H75.8621C75.8121 16.7127 75.7626 16.7029 75.7163 16.6837C75.6701 16.6646 75.6281 16.6365 75.5928 16.6012C75.5574 16.5658 75.5293 16.5238 75.5102 16.4776C75.4911 16.4314 75.4812 16.3818 75.4812 16.3318L75.4822 14.3809C75.4822 14.3309 75.4921 14.2814 75.5112 14.2351C75.5304 14.1889 75.5584 14.1469 75.5938 14.1116C75.6292 14.0762 75.6712 14.0481 75.7174 14.029C75.7636 14.0099 75.8131 14 75.8631 14L77.7893 14.001C77.8394 14.001 77.8889 14.0109 77.9351 14.03C77.9813 14.0492 78.0233 14.0772 78.0587 14.1126C78.0941 14.148 78.1221 14.19 78.1413 14.2362C78.1604 14.2824 78.1703 14.3319 78.1703 14.3819V16.3329C78.1703 16.3829 78.1604 16.4324 78.1413 16.4786C78.1221 16.5248 78.0941 16.5668 78.0587 16.6022C78.0233 16.6376 77.9813 16.6656 77.9351 16.6848C77.8889 16.7039 77.8394 16.7138 77.7893 16.7138M29.0116 27.9065C29.0116 30.2147 28.4227 31.4645 25.3136 31.4645H20.5295V25.5088C20.5295 24.6831 20.8363 24.3763 21.6619 24.3763H25.3136C27.6557 24.3763 29.0116 24.9529 29.0116 27.9065ZM25.3136 21.9869H21.1884C18.9832 21.9869 18 22.97 18 25.1742V39.3371C18 40.1885 18.2728 40.4623 19.1252 40.4623H19.4032C20.2556 40.4623 20.5295 40.1885 20.5295 39.3371V33.8272H25.3136C29.5623 33.8272 31.54 31.9463 31.54 27.9075C31.54 23.8688 29.5623 21.9869 25.3136 21.9869ZM40.4401 34.0969V36.0375C40.4401 37.6199 39.8532 38.5361 36.8543 38.5361C34.8725 38.5361 33.9099 37.8196 33.9099 36.3443C33.9099 34.727 34.8756 34.0959 37.3557 34.0959L40.4401 34.0969ZM36.8543 26.0462C35.2194 26.0462 34.1941 26.2521 33.8059 26.3293C33.1182 26.4786 32.83 26.668 32.83 27.4504V27.6738C32.83 27.9796 32.8753 28.1927 32.9731 28.342C33.0863 28.516 33.2685 28.6045 33.5156 28.6045C33.6361 28.6045 33.7761 28.5839 33.9429 28.5427C34.3351 28.4439 35.5921 28.2411 36.9655 28.2411C39.4342 28.2411 40.4401 28.9247 40.4401 30.6007V32.0956H37.3279C33.3272 32.0956 31.4638 33.4452 31.4638 36.3433C31.4638 39.1538 33.389 40.7022 36.8821 40.7022C41.0341 40.7022 42.8861 39.2887 42.8861 36.1209V30.6007C42.8861 27.5359 40.9126 26.0462 36.8543 26.0462ZM56.5703 26.7071C56.3942 26.4858 56.0607 26.4559 55.7261 26.4559H55.4759C54.6431 26.4559 54.3167 26.7133 54.1324 27.5112L51.8191 37.1288C51.5298 38.3107 51.1242 38.5268 50.4293 38.5268C49.58 38.5268 49.2392 38.324 48.9005 37.1236L46.2804 27.5071C46.0632 26.701 45.743 26.4559 44.9112 26.4559H44.6878C44.3511 26.4559 44.0165 26.4868 43.8436 26.7102C43.6727 26.9357 43.7303 27.2703 43.8189 27.5997L46.4678 37.2997C46.964 39.1569 47.5549 40.6929 49.7612 40.6929C50.173 40.6929 50.5539 40.6363 50.871 40.5282C50.2018 42.6335 49.5203 43.5621 47.5127 43.768C47.1061 43.802 46.8415 43.8607 46.6932 44.0584C46.5409 44.2632 46.5748 44.5566 46.6304 44.8202L46.685 45.0673C46.8055 45.6438 47.0093 46 47.6548 46C47.7227 46 47.7958 45.9959 47.8741 45.9897C50.871 45.7941 52.478 44.1798 53.4179 40.4201L56.6238 27.5925C56.7 27.2631 56.7463 26.9285 56.5703 26.7071ZM77.4167 20.2573L73.5972 20.2563C73.3973 20.2563 73.2055 20.3356 73.064 20.4769C72.9225 20.6182 72.8429 20.8099 72.8426 21.0099V21.5432H73.1072C74.8326 21.5432 75.474 21.8283 75.474 23.3994V25.6334H77.4146C77.5137 25.6334 77.6118 25.6139 77.7034 25.5759C77.7949 25.538 77.8781 25.4824 77.9482 25.4123C78.0183 25.3423 78.0739 25.2591 78.1118 25.1675C78.1497 25.076 78.1692 24.9778 78.1692 24.8787L78.1713 21.0119C78.1713 20.9128 78.1518 20.8147 78.1138 20.7232C78.0759 20.6316 78.0203 20.5484 77.9503 20.4783C77.8802 20.4083 77.797 20.3527 77.7054 20.3148C77.6139 20.2768 77.5158 20.2573 77.4167 20.2573Z" fill="white"/>
</svg>
