<svg xmlns="http://www.w3.org/2000/svg" width="100" height="60" fill="none"><path fill="#95BF3E" d="M0 0h100v60H0z"/><path fill="#fff" d="M73.595 26.078a.755.755 0 0 1-.753-.755V21.99h-.278c-1.724 0-2.366.284-2.366 1.855v4.507q-.002.04-.003.083v5.137c0 .627-.12 1.126-.37 1.514-.47.725-1.401 1.055-2.892 1.056-1.488-.002-2.42-.331-2.89-1.055-.25-.388-.37-.888-.37-1.516v-5.136c0-.03-.002-.055-.003-.083v-4.505c0-1.572-.643-1.856-2.368-1.856h-.543c-1.724 0-2.365.284-2.365 1.855v9.725c0 1.565.353 2.89 1.034 3.956 1.317 2.07 3.867 3.171 7.492 3.171h.027c3.626 0 6.176-1.102 7.492-3.17.682-1.067 1.035-2.392 1.035-3.957v-7.49h-1.88m7.975-5.375h-2.837a.56.56 0 0 1-.56-.56v-2.873a.563.563 0 0 1 .561-.56h2.838a.56.56 0 0 1 .56.56l-.001 2.873a.56.56 0 0 1-.561.56m-3.78-3.993h-1.927a.38.38 0 0 1-.38-.381V14.38a.38.38 0 0 1 .381-.381l1.926.001a.38.38 0 0 1 .381.38v1.952a.38.38 0 0 1-.38.38M29.011 27.908c0 2.308-.59 3.558-3.698 3.558h-4.785v-5.956c0-.826.307-1.133 1.133-1.133h3.652c2.342 0 3.698.577 3.698 3.53m-3.698-5.92h-4.126c-2.205 0-3.188.983-3.188 3.187v14.163c0 .851.273 1.125 1.125 1.125h.278c.853 0 1.127-.274 1.127-1.125v-5.51h4.784c4.248 0 6.226-1.88 6.226-5.92 0-4.038-1.978-5.92-6.226-5.92m15.126 12.11v1.94c0 1.583-.587 2.5-3.586 2.5-1.981 0-2.944-.717-2.944-2.193 0-1.617.966-2.248 3.446-2.248zm-3.586-8.05c-1.635 0-2.66.205-3.048.282-.688.15-.976.339-.976 1.121v.224c0 .306.045.519.143.668q.171.262.543.263.178 0 .427-.062c.392-.1 1.65-.302 3.023-.302 2.468 0 3.474.684 3.474 2.36v1.495h-3.112c-4 0-5.864 1.35-5.864 4.247 0 2.81 1.925 4.36 5.418 4.36 4.152 0 6.004-1.414 6.004-4.582V30.6c0-3.065-1.973-4.555-6.032-4.555m19.716.66c-.176-.221-.51-.251-.844-.251h-.25c-.833 0-1.16.257-1.344 1.055L51.82 37.13c-.29 1.182-.695 1.398-1.39 1.398-.849 0-1.19-.203-1.529-1.403l-2.62-9.617c-.217-.806-.537-1.051-1.369-1.051h-.223c-.337 0-.672.03-.844.254-.171.226-.114.56-.025.89l2.649 9.7c.496 1.857 1.087 3.393 3.293 3.393.412 0 .793-.057 1.11-.165-.67 2.105-1.35 3.034-3.358 3.24-.407.034-.671.093-.82.29-.152.205-.118.499-.063.762l.055.247c.12.577.324.933.97.933q.101 0 .22-.01c2.996-.196 4.603-1.81 5.543-5.57l3.206-12.827c.076-.33.122-.665-.054-.886m20.847-6.45h-3.82a.755.755 0 0 0-.754.753v.533h.264c1.726 0 2.367.285 2.367 1.856v2.234h1.94a.753.753 0 0 0 .755-.754l.002-3.867a.753.753 0 0 0-.754-.755"/></svg>