<svg width="100" height="60" viewBox="0 0 100 60" fill="none" xmlns="http://www.w3.org/2000/svg">
<path d="M73.5972 26.0772C73.3971 26.0772 73.2052 25.9978 73.0637 25.8563C72.9222 25.7148 72.8428 25.5229 72.8428 25.3229V21.9892H72.5657C70.8414 21.9892 70.1989 22.2735 70.1989 23.8449V28.3506C70.1978 28.3783 70.1958 28.404 70.1958 28.4327V33.5697C70.1958 34.1968 70.0747 34.6966 69.8263 35.0846C69.3552 35.8092 68.4243 36.1387 66.935 36.1407C65.4458 36.1387 64.5148 35.8092 64.0448 35.0856C63.7943 34.6977 63.6732 34.1978 63.6732 33.5697V28.4327L63.6712 28.3506V27.5449L63.6701 27.5213V23.8449C63.6701 22.2746 63.0287 21.9892 61.3033 21.9892H60.7604C59.0361 21.9892 58.3946 22.2735 58.3946 23.8449V33.5697C58.3946 35.1339 58.7467 36.4589 59.4292 37.5263C60.745 39.5955 63.2955 40.6978 66.9217 40.6978H66.9484C70.5735 40.6978 73.124 39.5955 74.4408 37.5263C75.1223 36.4589 75.4744 35.1349 75.4744 33.5697V26.0783H73.5961M81.57 20.7052H78.7341C78.6604 20.7052 78.5875 20.6907 78.5194 20.6625C78.4514 20.6343 78.3895 20.5929 78.3375 20.5407C78.2854 20.4886 78.2442 20.4267 78.2161 20.3586C78.188 20.2905 78.1736 20.2175 78.1737 20.1438V17.2731C78.1737 16.9631 78.4252 16.7127 78.7351 16.7127L81.572 16.7137C81.8809 16.7137 82.1324 16.9652 82.1324 17.2741L82.1314 20.1469C82.1311 20.2953 82.0719 20.4376 81.9669 20.5425C81.8618 20.6474 81.7194 20.7063 81.571 20.7063M77.7898 16.7117H75.8634C75.8134 16.7117 75.7639 16.7018 75.7178 16.6827C75.6717 16.6635 75.6297 16.6354 75.5945 16.6001C75.5592 16.5647 75.5312 16.5227 75.5122 16.4765C75.4932 16.4303 75.4835 16.3808 75.4836 16.3309V14.3808C75.4835 14.3308 75.4932 14.2813 75.5122 14.2351C75.5312 14.1889 75.5592 14.147 75.5945 14.1116C75.6297 14.0762 75.6717 14.0482 75.7178 14.029C75.7639 14.0099 75.8134 14 75.8634 14H77.7909C77.8408 14 77.8903 14.0099 77.9364 14.029C77.9826 14.0482 78.0245 14.0762 78.0598 14.1116C78.095 14.147 78.123 14.1889 78.142 14.2351C78.161 14.2813 78.1708 14.3308 78.1706 14.3808V16.3309C78.1708 16.3808 78.161 16.4303 78.142 16.4765C78.123 16.5227 78.095 16.5647 78.0598 16.6001C78.0245 16.6354 77.9826 16.6635 77.9364 16.6827C77.8903 16.7018 77.8398 16.7117 77.7898 16.7117ZM29.0119 27.9062C29.0119 30.2135 28.4217 31.4636 25.3139 31.4636H20.529V25.5086C20.529 24.6824 20.8369 24.3755 21.6621 24.3755H25.3139C27.656 24.3755 29.0119 24.9534 29.0119 27.9062ZM25.3139 21.9861H21.1879C18.9833 21.9861 18 22.9694 18 25.174V39.3358C18 40.1877 18.273 40.4607 19.1249 40.4607H19.4041C20.2559 40.4607 20.529 40.1877 20.529 39.3358V33.8263H25.3139C29.562 33.8263 31.5408 31.945 31.5408 27.9062C31.5408 23.8664 29.562 21.9861 25.3139 21.9861ZM40.4404 34.0952V36.0371C40.4404 37.6197 39.8544 38.5363 36.8543 38.5363C34.8734 38.5363 33.9097 37.8188 33.9097 36.344C33.9097 34.7264 34.8765 34.0962 37.3562 34.0962L40.4404 34.0952ZM36.8543 26.0464C35.2193 26.0464 34.195 26.2517 33.806 26.3297C33.1184 26.4796 32.831 26.6684 32.831 27.4505V27.6732C32.831 27.9811 32.8751 28.1926 32.9726 28.3424C33.0855 28.5169 33.2692 28.6041 33.5166 28.6041C33.6367 28.6041 33.7763 28.5836 33.9425 28.5426C34.3356 28.444 35.5919 28.2418 36.9662 28.2418C39.4346 28.2418 40.4404 28.9254 40.4404 30.6014V32.0958H37.3285C33.3277 32.0958 31.4639 33.4455 31.4639 36.344C31.4639 39.1552 33.3883 40.7029 36.8831 40.7029C41.0347 40.7029 42.8863 39.2896 42.8863 36.1212V30.6014C42.8863 27.5367 40.9136 26.0464 36.8543 26.0464ZM56.5708 26.7074C56.3953 26.4857 56.0617 26.4549 55.7271 26.4549H55.4767C54.6443 26.4549 54.3169 26.7115 54.1321 27.5111L51.8197 37.1281C51.5303 38.3094 51.1249 38.526 50.43 38.526C49.5802 38.526 49.2395 38.3228 48.9008 37.123L46.2805 27.5059C46.0639 26.7002 45.7437 26.4549 44.9113 26.4549H44.6875C44.3509 26.4549 44.0163 26.4857 43.8449 26.7105C43.6725 26.9342 43.731 27.2699 43.8192 27.5993L46.4673 37.2995C46.965 39.1562 47.5552 40.6927 49.7619 40.6927C50.1735 40.6927 50.5542 40.6352 50.8704 40.5284C50.2022 42.6325 49.5207 43.5614 47.5141 43.7677C47.1067 43.8015 46.8419 43.86 46.6931 44.0581C46.5412 44.2634 46.576 44.5569 46.6304 44.8197L46.6859 45.0681C46.806 45.6428 47.0092 46 47.6558 46C47.7235 46 47.7964 45.9959 47.8744 45.9897C50.8714 45.7927 52.4787 44.1792 53.4178 40.4186L56.6252 27.5921C56.7011 27.2637 56.7463 26.9281 56.5708 26.7074ZM77.4183 20.2567L73.5982 20.2557C73.3983 20.2557 73.2066 20.335 73.0651 20.4763C72.9237 20.6175 72.8441 20.8091 72.8438 21.009V21.5428H73.1086C74.8329 21.5428 75.4744 21.8271 75.4744 23.3984V25.6318H77.4163C77.6162 25.6318 77.8079 25.5525 77.9493 25.4112C78.0908 25.27 78.1704 25.0783 78.1706 24.8784L78.1727 21.0111C78.1727 20.811 78.0932 20.6191 77.9517 20.4777C77.8103 20.3362 77.6184 20.2567 77.4183 20.2567Z" fill="#95BF3E"/>
</svg>
