<svg width="100" height="60" viewBox="0 0 100 60" fill="none" xmlns="http://www.w3.org/2000/svg">
<rect width="100" height="60" fill="#30469D"/>
<path d="M61.2914 41.9173H76.2955V35.1946H68.6932V19.4864H61.2914V41.9173Z" fill="white"/>
<path d="M15.2791 19.6189V42.0155L21.9662 42.0253V35.1898H23.4707C26.136 35.1898 29.1775 34.6326 30.5565 33.2974C31.9356 31.9622 32.5048 29.9619 32.5048 27.4068C32.537 26.0353 32.2809 24.6719 31.7526 23.4012C31.3201 22.3558 30.5621 21.4703 29.5862 20.8707C28.615 20.3388 27.5626 19.9634 26.4695 19.7588C25.5993 19.6053 24.0362 19.6106 22.2739 19.6165C21.9239 19.6177 21.5659 19.6189 21.204 19.6189H15.2791ZM22.2245 31.0909C22.1204 31.0893 22.0166 31.0811 21.9136 31.0664L21.9061 24.1743V23.7988C23.235 23.7988 24.4385 23.978 24.94 24.5032C25.6577 25.2644 25.6564 26.0568 25.6548 27.0106V27.0111C25.6547 27.0567 25.6546 27.1027 25.6546 27.1491C25.6546 28.3714 25.6396 29.6919 25.1531 30.2834C24.8372 30.6663 24.2906 31.167 22.2245 31.0909Z" fill="white"/>
<path d="M84.6706 27.2226H77.5797V41.9491H84.6706V27.2226Z" fill="white"/>
<path d="M77.4796 19.5847H84.721V25.6748H77.4796V19.5847Z" fill="white"/>
<path d="M51.3405 40.3734C52.2958 40.0372 53.2386 39.3279 54.051 38.6063C56.3402 36.5642 58.7523 33.0985 58.5642 28.8794C58.3687 24.4369 55.934 21.5898 52.692 19.8152C53.6272 20.0165 54.3995 20.6252 55.1191 21.1971C57.2002 22.8464 58.7799 25.4015 58.8476 28.9923C58.9378 33.7686 56.3402 37.0256 53.7651 39.2714C54.5725 38.8787 55.1943 38.1522 55.7961 37.4478C57.5011 35.4499 59.0707 32.6052 59.0707 29.0463C59.0707 24.0368 56.1772 21.1529 52.8023 19.2654C53.8897 19.6094 54.8903 20.1749 55.7384 20.9246C56.9851 21.9864 57.9608 23.3189 58.5878 24.8155C59.2147 26.3122 59.4754 27.9317 59.349 29.5445C59.1444 33.0596 57.5682 36.3633 54.9461 38.7732C52.364 41.1882 49.0184 42.6703 45.4607 42.9751C44.9907 43.0083 44.519 43.0083 44.049 42.9751C38.1567 42.4965 33.8816 38.8026 33.4353 33.1378C33.3889 32.5488 33.3889 31.9572 33.4353 31.3682C33.686 27.7945 35.3359 24.9474 37.4997 22.7483C39.8542 20.3552 42.8304 18.5512 46.9826 18.2714C47.0855 17.8271 47.2058 17.3191 47.2685 17C48.635 18.4211 50.2949 19.9698 52.0099 21.6413C49.9439 22.6771 47.9329 23.7668 45.912 24.8468C45.9571 24.4418 46.0524 23.9804 46.08 23.6858C42.6123 24.2872 39.6887 26.7514 39.0819 30.2072C38.3297 34.4239 41.2182 37.6466 45.3503 37.6687C49.5251 37.6908 53.0681 34.5344 53.7049 30.9264C54.2064 28.0105 52.9026 25.9734 51.2201 24.6259C52.7897 25.642 54.4797 27.4779 54.2691 30.2072C53.9281 34.4828 49.821 38.0246 45.5234 38.0565C44.3933 38.0609 43.2762 37.8212 42.2516 37.3545C41.227 36.8878 40.3203 36.2057 39.5959 35.3566C41.0025 37.3594 43.4623 38.4148 46.258 38.2307C48.4545 38.0859 50.3125 37.0305 51.679 35.7444C53.0455 34.4583 54.1613 32.6027 54.4371 30.7153C54.5487 29.9641 54.5487 29.2011 54.4371 28.4499C54.0936 26.2409 52.7246 25.2125 51.4709 23.7865C53.2561 25.1806 55.1266 27.0386 55.0038 30.0452C54.8182 34.4386 50.5206 38.3117 46.0248 38.6112C43.0762 38.8075 41.2608 37.8208 39.7012 36.4022C41.1781 38.2332 43.9638 39.1732 46.8723 38.7241C51.022 38.0835 54.7204 34.6939 55.1718 30.4895C55.578 26.6925 53.6147 24.9302 51.7392 23.0698C53.7451 24.5424 55.4426 26.1893 55.5654 29.2181C55.6732 31.8492 54.3644 34.4239 52.6869 36.0708C50.004 38.7044 44.7787 40.4323 40.7167 38.0049C44.1769 40.5894 49.5502 39.1094 52.4036 36.5691C54.4747 34.7283 55.9867 32.2739 55.7359 28.6094C55.5328 25.6641 53.8278 24.1571 51.8971 22.5863C53.883 23.5828 55.7986 25.5757 56.0744 28.445C56.443 32.2002 54.6753 34.9737 52.524 36.8391C49.9238 39.0849 46.2555 40.4225 42.1359 39.3819C48.961 41.4632 55.3423 36.5028 56.2499 30.7619C56.9018 26.6361 54.7455 24.2037 52.6945 22.4709C52.4838 22.2942 52.3635 22.1666 52.0751 21.9187C55.0063 23.4109 57.4409 26.7097 56.4781 31.3682C55.3573 36.7924 49.806 41.1859 42.6449 40.0445C43.6854 40.452 44.9015 40.3636 45.9496 40.3096C49.2092 40.1304 52.1579 38.5375 53.7375 36.8219C55.6532 34.7356 57.1701 32.107 56.8768 28.3198C56.611 24.8836 54.6552 23.2514 52.2632 21.4474C53.2655 21.8411 54.157 22.4639 54.8633 23.2637C56.2275 24.6804 57.0557 26.5113 57.2103 28.4523C57.5011 32.3573 55.6682 35.2584 53.6548 37.2882C51.5085 39.4555 48.5999 40.8471 44.904 40.879C50.7011 41.0509 54.5524 37.568 56.4204 33.695C57.4911 31.486 57.802 28.3492 56.9219 25.9022C56.117 23.649 54.2716 22.1027 52.4588 20.8485C55.6256 22.5053 58.2909 25.615 57.7117 30.433C57.5165 32.0968 56.9535 33.699 56.0619 35.1283C54.3343 37.9657 51.5085 39.9611 48.3391 41.0459C50.686 40.5551 52.9126 39.1732 54.5499 37.3962C56.5558 35.229 58.0954 32.4874 57.9951 28.6659C57.8822 24.5522 55.2846 22.1813 52.6318 20.3208C52.6663 20.3255 52.7 20.3346 52.7321 20.3478C55.6281 21.737 57.8195 24.1473 58.2759 27.8927C59.003 33.8054 55.0263 38.1227 51.3405 40.3734Z" fill="white"/>
</svg>
