<svg width="100" height="60" viewBox="0 0 100 60" fill="none" xmlns="http://www.w3.org/2000/svg">
<path d="M29.1 31.8H35L34.8 33.1L29.8 37.9H34L33.8 39.4H27.7L28 37.9L32.8 33.3H29L29.1 31.8ZM22.6 29.5C22.5 29.4 22.3 29.3 22.1 29.2C21.9 29.1 21.6 29.1 21.4 29C21.1 29 20.9 28.9 20.6 28.9H15.8L14 39.4H15.6L16.2 35.5H19.3C19.3 35.5 20.5 35.5 21.4 35.1C22.3 34.7 22.5 33.6 22.5 33.6C22.5 33.6 22.6 33.2 22.7 32.7C22.8 32.2 22.9 31.6 22.9 31.2V30.7C22.9 30.4 22.8 30.1 22.7 29.8C22.8 29.7 22.7 29.6 22.6 29.5ZM21.3 31.4C21.3 31.4 21.2 32.3 21 33.2C20.9 33.6 20.6 33.8 20.3 33.9C19.8 34 19.1 34 19.1 34H16.5L17.1 30.5H20.8C21 30.5 21.2 30.6 21.3 30.7C21.4 30.8 21.4 30.9 21.4 31C21.3 31.2 21.3 31.3 21.3 31.4ZM43.1 28.9H44.6L42.9 39.4H41.3L43.1 28.9ZM51.4 31.8H52.9L53.4 37.1L55.7 31.8H57.5L58 37.1L60.3 31.8H62L58.7 39.3H56.9L56.4 34L54 39.4H52.2L51.4 31.8Z" fill="#D13239"/>
<path d="M40.2 31.9C39.8 31.8 39 31.7 38.4 31.7C37.8 31.7 37.5 31.7 37.3 31.8C37.3 31.8 36.2 32 35.6 32.7C35 33.5 34.8 35.2 34.8 35.2C34.8 35.2 34.4 37.1 34.5 37.7C34.6 38.3 34.8 38.9 35.5 39.2C35.9 39.4 36.4 39.4 36.8 39.5C36.8 39.5 38.1 39.6 39 39.4C39.6 39.3 40.1 38.9 40.5 38.5C40.7 38.3 40.8 38.1 40.9 37.9C41 37.7 41.1 37.5 41.1 37.3L41.2 36.9H39.6C39.6 36.9 39.5 38 38.6 38.1C37.7 38.2 37.2 38 37 38C36.8 38 35.9 38 36 37.2C36 36.3 36.1 36.1 36.1 36.1H41.2L41.4 34.9C41.7 33.4 41.5 32.3 40.2 31.9ZM39.9 34.7H36.4L36.5 34.2C36.5 34.2 36.6 33.8 36.9 33.6C37.1 33.4 37.4 33.4 37.7 33.4C38 33.4 38.8 33.3 39.4 33.4C39.6 33.4 39.8 33.6 39.9 33.7C40 34 39.9 34.7 39.9 34.7ZM49.8 31.9C49.4 31.8 48.6 31.7 48 31.7C47.4 31.7 47.1 31.7 46.9 31.8C46.9 31.8 45.8 32 45.2 32.7C44.6 33.5 44.4 35.2 44.4 35.2C44.4 35.2 44 37.1 44.1 37.7C44.2 38.3 44.4 38.9 45.1 39.2C45.5 39.4 46 39.4 46.4 39.5C46.4 39.5 47.7 39.6 48.6 39.4C49.2 39.3 49.7 38.9 50.1 38.5C50.3 38.3 50.4 38.1 50.5 37.9C50.6 37.7 50.7 37.5 50.7 37.3L50.8 36.9H49.2C49.2 36.9 49.1 38 48.2 38.1C47.7 38.2 47.2 38.2 46.7 38.2C46.5 38.2 45.6 38.2 45.7 37.4C45.7 36.5 45.8 36.3 45.8 36.3H50.9L51.1 35.1C51.3 33.4 51.1 32.3 49.8 31.9ZM49.4 34.7H46L46.1 34.2C46.1 34.2 46.2 33.8 46.5 33.6C46.7 33.4 47 33.4 47.3 33.4C47.6 33.4 48.4 33.3 49 33.4C49.2 33.4 49.4 33.6 49.5 33.7C49.6 34 49.4 34.7 49.4 34.7Z" fill="#D13239"/>
<path d="M63.8 31.8L64.8 37.3L67.6 31.8H69.2L65.1 39.7C65.1 39.7 64.4 41.1 63.9 41.5C63.4 41.9 63.2 42 62.8 42.1C62.4 42.2 62.3 42.2 61.9 42.1L61.5 42L61.7 40.6C61.7 40.6 62.3 40.7 62.7 40.6C63.1 40.5 63.4 39.8 63.4 39.8L63.6 39.5L62.1 31.9C62.2 31.8 63.7 31.8 63.8 31.8Z" fill="#D13239"/>
<path d="M69.7 32.6H71.3L71.4 32C71.4 32 71.6 30.9 72 30.6C72.1 30.5 72.3 30.5 72.6 30.4C73 30.3 73.6 30.3 74 30.3C74.7 30.3 74.9 30.3 75.6 30.4C76.3 30.5 76.1 31.2 76.1 31.2L76 32.2C76 32.2 75.9 32.7 75.8 32.9C75.7 33.1 75.3 33.3 75 33.4C74.5 33.6 72.6 34.1 72.6 34.1L71.2 34.5C71.2 34.5 70.3 34.8 69.8 35.3C69.4 35.7 69.1 36.3 69 36.8C68.9 37.1 68.6 39.4 68.6 39.4H76.4L76.7 37.8H70.5L70.6 37.2C70.6 37.2 70.7 36.5 70.9 36.3C71 36.2 71 36.1 71.5 36C71.8 35.9 72.8 35.6 72.8 35.6L75.1 35C75.1 35 76.4 34.7 76.9 34C77.4 33.3 77.6 32 77.6 32C77.6 32 77.7 30.7 77.6 30.3C77.5 29.9 77.1 29.4 76.7 29.2C76.2 29 75.8 28.9 74.3 28.9C72.8 28.9 72.2 29 71.5 29.3C70.8 29.6 70.4 30 70.1 30.7C69.9 31.2 69.7 32.6 69.7 32.6ZM84.5 36.3L85.6 29.7H83.7L77.6 36.2L77.3 37.9H82.6L82.2 40.2H83.8L84.2 37.9H85.7L86 36.3H84.5ZM82.9 36.3H79.5L83.7 31.9L82.9 36.3ZM26 29.8H31C31 29.8 32.1 28.9 32.9 28.3C33.7 27.7 35.1 26.8 35.1 26.8L32.3 25.5C32.3 25.5 29.9 27 28.9 27.7C28 28.3 26 29.8 26 29.8ZM36.7 25.9L34.4 24.3C36 23.4 37.6 22.7 39.3 22C42.1 20.9 43.6 20.4 43.6 20.4L44.1 22.6C44.1 22.6 41.4 23.5 39.9 24.2C38.2 25 36.7 25.9 36.7 25.9ZM45.8 22.2L45.4 19.9C45.4 19.9 48.3 19.1 50.9 18.7C53.5 18.3 57 18 57 18L55.8 21.5C55.8 21.5 52.8 21.1 49.9 21.5C48.5 21.6 47.1 21.8 45.8 22.2ZM57.6 21.7L59.5 17.8C59.5 17.8 63.7 17.7 67.4 18.3C71.1 18.9 74.4 19.7 74.3 19.8L65.1 24.6C65.1 24.6 62.9 23.2 60.3 22.4C58.7 22 57.6 21.7 57.6 21.7ZM66.7 25.7L68.7 27.2H85.4C85.4 27.2 85.4 26.7 84.9 25.9C84.6 25.4 84.1 24.9 83.6 24.4C83.4 24.2 82.6 23.6 82.1 23.2C80.6 22.2 79.8 21.9 78.3 21.2L66.7 25.7Z" fill="#B3B2B1"/>
<path d="M27.1 31.8C26.5 31.8 25.9 32 25.4 32.3L25.5 31.8H23.8L22.5 39.3H24.2L24.9 35.1C25 34.3 25.7 33.2 26.9 33.2H27.8L28.1 31.7C28 31.8 27.1 31.8 27.1 31.8Z" fill="#D13239"/>
</svg>
