<svg width="100" height="60" viewBox="0 0 100 60" fill="none" xmlns="http://www.w3.org/2000/svg">
<rect width="100" height="60" fill="#D13239"/>
<path d="M63.8 32.0063L64.8 37.5062L67.6 32.0063H69.2L65.1 39.9062C65.1 39.9062 64.4 41.3063 63.9 41.7063C63.4 42.1063 63.2 42.2062 62.8 42.3063C62.4 42.4062 62.3 42.4062 61.9 42.3063L61.5 42.2063L61.7 40.8063C61.7 40.8063 62.3 40.9062 62.7 40.8063C63.1 40.7062 63.4 40.0062 63.4 40.0062L63.6 39.7063L62.1 32.1063C62.2 32.0063 63.7 32.0063 63.8 32.0063Z" fill="white"/>
<path d="M69.7 32.8063H71.3L71.4 32.2063C71.4 32.2063 71.6 31.1063 72 30.8063C72.0618 30.7444 72.1618 30.7208 72.3 30.6882C72.3854 30.6681 72.4854 30.6444 72.6 30.6063C73 30.5063 73.6 30.5063 74 30.5063C74.7 30.5063 74.9 30.5063 75.6 30.6063C76.3 30.7063 76.1 31.4063 76.1 31.4063L76 32.4062C76 32.4062 75.9 32.9063 75.8 33.1063C75.7 33.3063 75.3 33.5063 75 33.6063C74.5 33.8063 72.6 34.3063 72.6 34.3063L71.2 34.7063C71.2 34.7063 70.3 35.0062 69.8 35.5062C69.4 35.9062 69.1 36.5062 69 37.0062C68.9 37.3063 68.6 39.6063 68.6 39.6063H76.4L76.7 38.0062H70.5L70.6 37.4062C70.6 37.4062 70.7 36.7062 70.9 36.5062C70.9167 36.4896 70.9305 36.4729 70.9444 36.4562C71.0139 36.3729 71.0833 36.2896 71.5 36.2063C71.8 36.1063 72.8 35.8063 72.8 35.8063L75.1 35.2063C75.1 35.2063 76.4 34.9062 76.9 34.2063C77.4 33.5063 77.6 32.2063 77.6 32.2063C77.6 32.2063 77.7 30.9062 77.6 30.5063C77.5 30.1063 77.1 29.6063 76.7 29.4063C76.2 29.2063 75.8 29.1063 74.3 29.1063C72.8 29.1063 72.2 29.2063 71.5 29.5063C70.8 29.8062 70.4 30.2063 70.1 30.9063C69.9 31.4063 69.7 32.8063 69.7 32.8063Z" fill="white"/>
<path d="M84.5 36.5062H86L85.7 38.1063H84.2L83.8 40.4062H82.2L82.6 38.1063H77.3L77.6 36.4062L83.7 29.9063H85.6L84.5 36.5062ZM82.9 36.5062L83.7 32.1063L79.5 36.5062H82.9Z" fill="white"/>
<path d="M26 30.0063H31C31 30.0063 32.1 29.1063 32.9 28.5063C33.7 27.9062 35.1 27.0063 35.1 27.0063L32.3 25.7063C32.3 25.7063 29.9 27.2063 28.9 27.9063C28 28.5063 26 30.0063 26 30.0063Z" fill="white"/>
<path d="M36.7 26.1063L34.4 24.5062C36 23.6063 37.6 22.9062 39.3 22.2063C42.1 21.1063 43.6 20.6063 43.6 20.6063L44.1 22.8063C44.1 22.8063 41.4 23.7063 39.9 24.4063C38.2 25.2063 36.7 26.1063 36.7 26.1063Z" fill="white"/>
<path d="M45.8 22.4063L45.4 20.1063C45.4 20.1063 48.3 19.3063 50.9 18.9063C53.5 18.5063 57 18.2063 57 18.2063L55.8 21.7063C55.8 21.7063 52.8 21.3063 49.9 21.7063C48.5 21.8063 47.1 22.0063 45.8 22.4063Z" fill="white"/>
<path d="M57.6 21.9063L59.5 18.0063C59.5 18.0063 63.7 17.9062 67.4 18.5063C71.1 19.1063 74.4 19.9062 74.3 20.0063L65.1 24.8063C65.1 24.8063 62.9 23.4062 60.3 22.6063C58.7 22.2063 57.6 21.9063 57.6 21.9063Z" fill="white"/>
<path d="M66.7 25.9063L68.7 27.4063H85.4C85.4 27.4063 85.4 26.9062 84.9 26.1063C84.6 25.6063 84.1 25.1063 83.6 24.6063C83.4667 24.4729 83.0667 24.1618 82.6667 23.8507L82.6657 23.85C82.466 23.6946 82.2664 23.5394 82.1 23.4063C80.8604 22.5799 80.0989 22.2315 79.0253 21.7404C78.8 21.6374 78.5601 21.5276 78.3 21.4063L66.7 25.9063Z" fill="white"/>
<path d="M35 32.0063H29.1L29 33.5063H32.8L28 38.1063L27.7 39.6063H33.8L34 38.1063H29.8L34.8 33.3063L35 32.0063Z" fill="white"/>
<path d="M22.1 29.4063C22.3 29.5063 22.5 29.6063 22.6 29.7063C22.7 29.8063 22.8 29.9063 22.7 30.0063C22.8 30.3063 22.9 30.6063 22.9 30.9063V31.4063C22.9 31.8063 22.8 32.4063 22.7 32.9063C22.6 33.4063 22.5 33.8063 22.5 33.8063C22.5 33.8063 22.3 34.9063 21.4 35.3063C20.5 35.7063 19.3 35.7063 19.3 35.7063H16.2L15.6 39.6063H14L15.8 29.1063H20.6C20.75 29.1063 20.875 29.1313 21 29.1563C21.125 29.1813 21.25 29.2063 21.4 29.2063C21.5 29.2563 21.625 29.2813 21.75 29.3063C21.875 29.3313 22 29.3563 22.1 29.4063ZM21 33.4063C21.2 32.5063 21.3 31.6063 21.3 31.6063C21.3 31.5063 21.3 31.4063 21.4 31.2063C21.4 31.1063 21.4 31.0063 21.3 30.9063C21.2 30.8063 21 30.7063 20.8 30.7063H17.1L16.5 34.2063H19.1C19.1 34.2063 19.8 34.2063 20.3 34.1063C20.6 34.0063 20.9 33.8063 21 33.4063Z" fill="white"/>
<path d="M44.6 29.1063H43.1L41.3 39.6063H42.9L44.6 29.1063Z" fill="white"/>
<path d="M52.9 32.0063H51.4L52.2 39.6063H54L56.4 34.2063L56.9 39.5063H58.7L62 32.0063H60.3L58 37.3063L57.5 32.0063H55.7L53.4 37.3063L52.9 32.0063Z" fill="white"/>
<path d="M38.4 31.9062C39 31.9062 39.8 32.0062 40.2 32.1062C41.5 32.5062 41.7 33.6063 41.4 35.1063L41.2 36.3062H36.1C36.1 36.3062 36 36.5062 36 37.4062C35.9 38.2062 36.8 38.2062 37 38.2062C37.0546 38.2062 37.1316 38.2212 37.233 38.2408C37.5029 38.2931 37.9458 38.3789 38.6 38.3062C39.5 38.2062 39.6 37.1063 39.6 37.1063H41.2L41.1 37.5062C41.1 37.7062 41 37.9062 40.9 38.1063C40.8 38.3063 40.7 38.5062 40.5 38.7062C40.1 39.1063 39.6 39.5063 39 39.6063C38.1 39.8063 36.8 39.7062 36.8 39.7062C36.6606 39.6714 36.5091 39.6487 36.354 39.6255C36.0638 39.582 35.7606 39.5366 35.5 39.4062C34.8 39.1063 34.6 38.5062 34.5 37.9062C34.4 37.3063 34.8 35.4062 34.8 35.4062C34.8 35.4062 35 33.7062 35.6 32.9062C36.2 32.2062 37.3 32.0062 37.3 32.0062C37.5 31.9062 37.8 31.9062 38.4 31.9062ZM36.4 34.9062H39.9C39.9 34.9062 40 34.2062 39.9 33.9062C39.8 33.8063 39.6 33.6063 39.4 33.6063C38.9614 33.5332 38.4159 33.5669 38.037 33.5904C37.8976 33.599 37.7807 33.6063 37.7 33.6063C37.4 33.6063 37.1 33.6062 36.9 33.8062C36.6 34.0062 36.5 34.4062 36.5 34.4062L36.4 34.9062Z" fill="white"/>
<path d="M48 31.9062C48.6 31.9062 49.4 32.0062 49.8 32.1062C51.1 32.5062 51.3 33.6062 51.1 35.3062L50.9 36.5062H45.8C45.8 36.5062 45.7 36.7062 45.7 37.6063C45.6 38.4062 46.5 38.4062 46.7 38.4062C47.2 38.4062 47.7 38.4062 48.2 38.3062C49.1 38.2062 49.2 37.1063 49.2 37.1063H50.8L50.7 37.5062C50.7 37.7062 50.6 37.9062 50.5 38.1063C50.4 38.3063 50.3 38.5062 50.1 38.7062C49.7 39.1063 49.2 39.5063 48.6 39.6063C47.7 39.8063 46.4 39.7062 46.4 39.7062C46.2607 39.6714 46.1092 39.6487 45.954 39.6255C45.6638 39.582 45.3606 39.5366 45.1 39.4062C44.4 39.1063 44.2 38.5062 44.1 37.9062C44 37.3063 44.4 35.4062 44.4 35.4062C44.4 35.4062 44.6 33.7062 45.2 32.9062C45.8 32.2062 46.9 32.0062 46.9 32.0062C47.1 31.9062 47.4 31.9062 48 31.9062ZM46 34.9062H49.4C49.4 34.9062 49.6 34.2062 49.5 33.9062C49.4 33.8063 49.2 33.6063 49 33.6063C48.5614 33.5332 48.0159 33.5669 47.637 33.5904C47.4976 33.599 47.3807 33.6063 47.3 33.6063C47 33.6063 46.7 33.6062 46.5 33.8062C46.2 34.0062 46.1 34.4062 46.1 34.4062L46 34.9062Z" fill="white"/>
<path d="M25.4 32.5062C25.9 32.2062 26.5 32.0062 27.1 32.0062C27.1 32.0062 28 32.0063 28.1 31.9062L27.8 33.4062H26.9C25.7 33.4062 25 34.5062 24.9 35.3062L24.2 39.5062H22.5L23.8 32.0062H25.5L25.4 32.5062Z" fill="white"/>
</svg>
