<svg width="100" height="60" viewBox="0 0 100 60" fill="none" xmlns="http://www.w3.org/2000/svg">
<path d="M20.0568 24.3749H16V40.7792H20.0568V24.3749Z" fill="black"/>
<path d="M32.7787 25.3129C32.7787 21.832 29.9442 19 26.4598 19H16V22.5033H25.9625C27.5393 22.5033 28.8455 23.7421 28.8744 25.2646C28.8888 26.027 28.6027 26.7465 28.0687 27.2905C27.5346 27.8348 26.8209 28.1347 26.0592 28.1347H22.1783C22.0405 28.1347 21.9283 28.2467 21.9283 28.3845V31.498C21.9283 31.551 21.9447 31.6016 21.9755 31.6442L28.56 40.7791H33.38L26.7802 31.6192C30.1039 31.4524 32.7787 28.6598 32.7787 25.3129Z" fill="black"/>
<path d="M56.2226 25.694C56.2226 29.7685 53.361 32.4124 49.0067 32.4124H43.3457V40.7792H40.6398V19.0068H49.0067C53.361 19.0068 56.2226 21.6195 56.2226 25.694ZM48.7575 29.9243C51.6194 29.9243 53.4542 28.2754 53.4542 25.694C53.4542 23.1126 51.6504 21.495 48.7888 21.495H43.3457V29.9243H48.7575Z" fill="black"/>
<path d="M56.9069 36.3311C56.9069 33.1588 59.1155 31.386 63.283 31.386H67.9489V30.2972C67.9489 28.2446 66.4871 27.0005 63.9984 27.0005C61.7593 27.0005 60.2663 28.0576 59.9552 29.6752H57.4044C57.7779 26.565 60.2974 24.7296 64.123 24.7296C68.1668 24.7296 70.4992 26.7515 70.4992 30.4529V40.7791H68.2908L68.073 38.2909C67.0779 39.7215 65.4917 40.9656 62.7544 40.9656C59.2706 40.9656 56.9069 39.224 56.9069 36.3311ZM62.9409 38.7885C66.1135 38.7885 67.9489 36.9536 67.9489 34.3097V33.5319H63.0347C60.7639 33.5319 59.4885 34.3718 59.4885 36.1758C59.4885 37.7309 60.8263 38.7885 62.9409 38.7885Z" fill="black"/>
<path d="M74.5738 24.9161L79.4567 37.5756L84.1845 24.9161H86.8904L79.5813 43.4538C78.5859 46.0044 77.9948 47 75.7554 47H72.7076V44.6671H74.9781C76.44 44.6671 76.6889 44.2936 77.2797 42.801L78.057 40.8724L71.8679 24.9162L74.5738 24.9161Z" fill="black"/>
</svg>
