<svg width="100" height="60" viewBox="0 0 100 60" fill="none" xmlns="http://www.w3.org/2000/svg">
<path d="M25.6088 32.2218C24.979 31.8568 24.2685 31.7515 23.5647 31.7285C22.9743 31.7088 22.0946 31.3305 22.0946 30.2485C22.0979 29.8587 22.2536 29.4857 22.5283 29.2092C22.803 28.9326 23.175 28.7745 23.5647 28.7685C24.2685 28.7438 24.979 28.6385 25.6088 28.2751C26.1743 27.9477 26.6437 27.4772 26.9699 26.9109C27.2961 26.3446 27.4675 25.7025 27.467 25.049C27.4665 24.3955 27.2941 23.7537 26.9671 23.1879C26.6401 22.6221 26.17 22.1523 25.604 21.8257C25.038 21.4991 24.396 21.3271 23.7425 21.3271C23.089 21.3271 22.447 21.499 21.881 21.8255C21.3149 22.1521 20.8448 22.6218 20.5177 23.1876C20.1906 23.7533 20.0181 24.3952 20.0176 25.0487C20.0176 25.7706 20.2741 26.435 20.603 27.0516C20.8777 27.5696 21.0174 28.5317 20.0719 29.076C19.7301 29.2661 19.3274 29.3148 18.9502 29.2115C18.573 29.1082 18.2513 28.8612 18.0541 28.5234C17.6841 27.9314 17.2319 27.3723 16.6119 27.0155C16.0457 26.6888 15.4034 26.517 14.7497 26.5172C14.096 26.5174 13.4539 26.6896 12.8878 27.0166C12.3218 27.3435 11.8517 27.8137 11.525 28.3799C11.1982 28.946 11.0261 29.5882 11.0261 30.2419C11.0261 30.8956 11.1982 31.5378 11.525 32.1039C11.8517 32.6701 12.3218 33.1403 12.8878 33.4672C13.4539 33.7942 14.096 33.9664 14.7497 33.9666C15.4034 33.9668 16.0457 33.795 16.6119 33.4683C17.2368 33.1066 17.6841 32.5524 18.0541 31.9604C18.3583 31.467 19.1164 30.8553 20.0719 31.4078C20.4075 31.6089 20.6509 31.9334 20.7499 32.3119C20.8489 32.6904 20.7956 33.0926 20.6014 33.4322C20.2725 34.0488 20.0176 34.7132 20.0176 35.4351C20.0176 36.4233 20.4101 37.371 21.1089 38.0698C21.8076 38.7685 22.7553 39.1611 23.7435 39.1612C24.3975 39.1614 25.0401 38.9894 25.6066 38.6625C26.173 38.3356 26.6435 37.8653 26.9706 37.299C27.4648 36.4433 27.599 35.4265 27.3437 34.4719C27.0883 33.5174 26.4644 32.7033 25.6089 32.2087L25.6088 32.2218Z" fill="#008CFF"/>
<path d="M32.595 24.5864H35.1883V25.8099C35.5341 25.3892 35.9686 25.05 36.4607 24.8166C36.9527 24.5833 37.4903 24.4614 38.0349 24.4598C38.4043 24.446 38.7736 24.4887 39.1301 24.5864V27.5465C39.1301 27.5465 38.7716 27.4198 37.9082 27.4198C36.4282 27.4198 35.4415 28.4065 35.4415 29.8865V35.9299H32.595V24.5864ZM46.5318 24.5864H49.1251V25.6833C50.0106 24.9016 51.1491 24.4669 52.3302 24.4598C55.1768 24.4598 57.6435 26.9265 57.6435 30.2582C57.6435 33.5899 55.1768 36.0566 52.3302 36.0566C51.2426 36.0593 50.1919 35.6619 49.3784 34.94V40H46.5318V24.5864ZM54.7969 30.2582C54.7969 28.4032 53.5734 27.1797 51.9717 27.1797C50.37 27.1797 49.1251 28.3983 49.1251 30.2582C49.1251 32.1181 50.3684 33.3317 51.9734 33.3317C53.5784 33.3317 54.7969 32.1148 54.7969 30.2582ZM59.7303 24.5864H62.3236V25.6833C63.2093 24.902 64.3477 24.4674 65.5287 24.4598C68.3753 24.4598 70.842 26.9265 70.842 30.2582C70.842 33.5899 68.3753 36.0566 65.5287 36.0566C64.4412 36.0584 63.3909 35.6611 62.5769 34.94V40H59.7303V24.5864ZM67.997 30.2582C67.997 28.4032 66.7736 27.1797 65.1702 27.1797C63.5668 27.1797 62.3236 28.3983 62.3236 30.2582C62.3236 32.1181 63.5685 33.3317 65.1702 33.3317C66.7719 33.3317 67.997 32.1148 67.997 30.2582ZM72.9304 20.3914H75.777V35.9299H72.9304V20.3914ZM77.8638 30.2582C77.8638 27.0548 80.4572 24.4598 83.5356 24.4598C86.5071 24.4598 88.9738 26.8015 88.9738 30.2582C88.962 30.6337 88.9196 31.0077 88.8472 31.3764H80.9423C81.1955 32.4733 82.0671 33.3317 83.5356 33.3317C84.8643 33.3317 85.3922 32.7216 85.3922 32.7216H88.4706C87.9 34.2016 86.1289 36.0516 83.5372 36.0516C80.4572 36.0566 77.8638 33.4632 77.8638 30.2582ZM86.2506 29.3948C86.1212 28.7691 85.78 28.2071 85.2845 27.8036C84.7891 27.4002 84.1696 27.1798 83.5307 27.1798C82.8917 27.1798 82.2722 27.4002 81.7768 27.8036C81.2813 28.2071 80.9401 28.7691 80.8107 29.3948H86.2506ZM40.791 21.6132C40.7911 21.1854 40.9611 20.7752 41.2636 20.4726C41.5661 20.1701 41.9764 20.0001 42.4042 20C42.7233 20 43.0352 20.0946 43.3005 20.2719C43.5658 20.4491 43.7725 20.7011 43.8946 20.9959C44.0167 21.2906 44.0487 21.615 43.9864 21.9279C43.9242 22.2409 43.7705 22.5283 43.5449 22.7539C43.3193 22.9796 43.0319 23.1332 42.7189 23.1954C42.406 23.2577 42.0816 23.2257 41.7869 23.1036C41.4921 22.9815 41.2401 22.7748 41.0629 22.5095C40.8856 22.2442 40.791 21.9323 40.791 21.6132ZM40.9817 24.5864H43.8332V35.9332H40.9867L40.9817 24.5864Z" fill="#000008"/>
</svg>
