<svg xmlns="http://www.w3.org/2000/svg" width="100" height="60" fill="none"><path fill="#008CFF" d="M0 0h100v60H0z"/><path fill="#fff" d="M25.609 32.222c-.63-.365-1.34-.47-2.044-.494-.59-.02-1.47-.398-1.47-1.48a1.493 1.493 0 0 1 1.47-1.48c.703-.024 1.414-.13 2.044-.493a3.724 3.724 0 1 0-5.591-3.226c0 .722.256 1.386.585 2.003.275.518.414 1.48-.531 2.024a1.495 1.495 0 0 1-2.018-.553c-.37-.592-.822-1.15-1.442-1.508a3.724 3.724 0 1 0 0 6.453c.625-.361 1.072-.916 1.442-1.508.304-.493 1.062-1.105 2.018-.552a1.495 1.495 0 0 1 .53 2.024c-.33.617-.584 1.281-.584 2.003a3.726 3.726 0 1 0 5.59-3.226zM32.595 24.586h2.593v1.224a3.7 3.7 0 0 1 2.847-1.35 3.6 3.6 0 0 1 1.095.126v2.96s-.358-.126-1.222-.126c-1.48 0-2.467.986-2.467 2.467v6.043h-2.846zm13.937 0h2.593v1.097a4.9 4.9 0 0 1 3.205-1.223c2.847 0 5.314 2.467 5.314 5.798s-2.467 5.799-5.314 5.799a4.43 4.43 0 0 1-2.952-1.117V40h-2.846zm8.265 5.672c0-1.855-1.224-3.078-2.825-3.078s-2.847 1.218-2.847 3.078 1.243 3.074 2.848 3.074 2.824-1.217 2.824-3.074m4.933-5.672h2.594v1.097a4.9 4.9 0 0 1 3.205-1.223c2.846 0 5.313 2.467 5.313 5.798s-2.467 5.799-5.313 5.799a4.44 4.44 0 0 1-2.952-1.117V40H59.73zm8.267 5.672c0-1.855-1.223-3.078-2.827-3.078s-2.846 1.218-2.846 3.078 1.245 3.074 2.846 3.074c1.602 0 2.827-1.217 2.827-3.074m4.933-9.867h2.847V35.93H72.93zm4.934 9.867c0-3.203 2.593-5.798 5.672-5.798 2.971 0 5.438 2.342 5.438 5.798q-.018.565-.127 1.118h-7.905c.254 1.097 1.125 1.956 2.594 1.956 1.328 0 1.856-.61 1.856-.61h3.079c-.571 1.48-2.342 3.33-4.934 3.33-3.08.005-5.673-2.589-5.673-5.794m8.387-.863a2.777 2.777 0 0 0-5.44 0zm-45.46-7.782a1.614 1.614 0 1 1 3.228.001 1.614 1.614 0 0 1-3.228 0m.19 2.973h2.852v11.347h-2.846z"/></svg>