<svg width="100" height="60" viewBox="0 0 100 60" fill="none" xmlns="http://www.w3.org/2000/svg">
<path d="M47.0969 32.27V31.048H42.3829C40.0699 31.048 38.9939 31.844 38.9939 33.067C38.9939 34.201 40.0249 35.188 42.6919 35.188C45.9769 35.188 47.0969 34.892 47.0969 32.27ZM37.0199 24.065L35.3549 25.745C33.8079 24.817 32.2319 24.183 30.1099 24.183C27.5899 24.183 26.7509 25.038 26.7509 26.201C26.7509 26.938 27.3549 27.661 29.3299 27.793L32.5699 27.999C34.5739 28.102 35.9889 28.677 36.9019 29.561C37.9619 28.647 39.5539 28.072 41.6459 28.072H47.0969V26.348C47.0969 24.758 45.9039 24.198 43.0749 24.198C41.0279 24.198 39.7009 24.802 38.6699 25.76L37.0199 24.065ZM66.3089 28.323H75.4139C75.4139 25.406 73.2479 23.963 70.8459 23.963C68.4449 23.963 66.3089 25.391 66.3089 28.323ZM52.6799 29.604C52.7239 32.359 52.7679 32.786 53.4749 33.552C54.0349 34.157 55.2429 34.864 56.8779 34.864C58.4699 34.864 59.5009 34.156 60.0609 33.552C60.7679 32.786 60.8559 32.315 60.8559 29.604C60.8559 26.864 60.7679 26.393 60.0609 25.626C59.5009 25.022 58.4689 24.315 56.8779 24.315C55.2429 24.315 54.0349 25.022 53.4749 25.626C52.7679 26.392 52.6499 26.834 52.6799 29.604ZM50.2049 23.564C50.3379 23.402 50.4699 23.239 50.6329 23.062C51.5159 22.105 53.2539 21 55.8029 21C57.8069 21 59.3979 21.663 60.8559 22.99V21.206H64.8049V23.048C66.3679 21.575 68.4599 21 70.4189 21C74.7359 21 78.4489 23.961 78.4629 28.912C78.4779 29.766 78.3749 31.284 78.3749 31.284H66.3099C66.3099 34.024 68.1799 35.055 70.8769 35.055C72.3789 35.055 74.2799 34.378 75.4289 33.346L78.0809 35.276C76.1858 37.1601 73.6232 38.2193 70.9509 38.223C68.8009 38.223 66.4869 37.722 64.8069 36.189V37.604C64.8069 42.672 60.7849 45 56.3069 45C53.8019 45 51.2529 43.866 49.5139 42.186L52.5639 40.094C53.5219 40.919 54.8769 41.611 56.3799 41.611C59.0169 41.611 60.8579 40.329 60.8579 37.972V36.248C59.6359 37.412 57.8089 38.208 55.8049 38.208C53.5949 38.208 52.0039 37.383 51.0319 36.543V38.238H47.0979V36.528H47.0239C46.2139 37.692 44.8589 38.223 42.1919 38.223C39.7019 38.223 37.8019 37.501 36.6379 36.337C35.1649 37.545 32.8219 38.193 30.1409 38.193C26.9729 38.193 24.0409 37.206 21.5359 35.188L24.2759 32.86C25.9709 34.289 27.8279 35.026 30.4499 35.026C32.6899 35.026 34.3099 34.289 34.3099 32.86C34.3099 31.667 33.2639 31.313 31.9229 31.21L28.4459 30.945C25.2059 30.709 22.8039 29.059 22.8039 26.171C22.8039 22.753 25.9709 21 30.1109 21C33.0869 21 35.2229 21.678 37.0059 22.768C38.4499 21.472 40.3359 21.015 42.8849 21.015C46.2879 21.015 48.9399 21.707 50.2069 23.563L50.2049 23.564Z" fill="#008469"/>
</svg>
