<svg width="100" height="60" viewBox="0 0 100 60" fill="none" xmlns="http://www.w3.org/2000/svg">
<rect width="100" height="60" fill="#1E4BC6"/>
<path d="M75.8963 29.8859V27.5499H76.8076C76.9773 27.5499 77.1484 27.5784 77.291 27.6354C77.4336 27.6925 77.5477 27.7781 77.6618 27.8921C77.7474 28.0062 77.833 28.1203 77.89 28.2629C77.9471 28.4041 77.9756 28.5482 77.9756 28.7179C77.9756 28.8876 77.9471 29.0302 77.89 29.1728C77.833 29.3154 77.7759 29.4295 77.6618 29.5436C77.5477 29.6577 77.4322 29.7432 77.291 29.8003C77.1498 29.8573 76.9787 29.8859 76.8076 29.8859H75.8963Z" fill="white"/>
<path d="M82.6732 31.6229C82.5021 31.7084 82.3038 31.737 82.0757 31.737V31.7384C81.8489 31.7384 81.6493 31.6813 81.4781 31.6243L81.473 31.6217C81.305 31.537 81.1359 31.4517 80.9947 31.3106C80.8806 31.1679 80.7665 30.9968 80.6809 30.8257C80.5954 30.6545 80.5668 30.4549 80.5668 30.2567C80.5668 30.0584 80.5954 29.8588 80.6809 29.6876C80.738 29.5179 80.8535 29.3753 80.9947 29.2327C81.1359 29.0901 81.2785 29.0045 81.4781 28.919C81.6764 28.8334 81.8774 28.8049 82.0757 28.8049C82.2739 28.8049 82.4736 28.8334 82.6732 28.9475C82.8714 29.033 83.0141 29.1186 83.1567 29.2612C83.2993 29.3739 83.3848 29.545 83.4704 29.7162C83.556 29.8859 83.5845 30.0869 83.5845 30.2852C83.5845 30.4834 83.556 30.6831 83.4704 30.8542C83.3848 31.0239 83.2978 31.1665 83.1567 31.3091C83.0155 31.4517 82.8444 31.5373 82.6732 31.6229Z" fill="white"/>
<path d="M91.6421 20.6889C93.0368 22.1692 93.8341 24.1914 94.1193 26.4119C94.4045 28.5482 94.2904 30 94.2904 30C94.2904 30 94.376 31.4532 94.0908 33.5881C93.8055 35.8086 93.0083 37.8308 91.6136 39.3111C90.1333 40.7059 88.111 41.5031 85.8906 41.7883C83.7542 42.045 82.3024 41.988 82.3024 41.988C82.3024 41.988 80.8492 42.0735 78.7143 41.7883C76.4939 41.5031 74.4716 40.7059 72.9913 39.3111C71.5966 37.8308 70.7994 35.8086 70.5141 33.5881C70.2574 31.4518 70.3145 30 70.3145 30C70.3145 30 70.2574 28.5468 70.5427 26.4119C70.8279 24.1914 71.6251 22.1692 73.0198 20.6889C74.5001 19.2941 76.5224 18.4969 78.7429 18.2117C80.8792 17.955 82.331 18.012 82.331 18.012C82.331 18.012 83.7842 17.9265 85.9191 18.2117C88.1396 18.4969 90.1618 19.2941 91.6421 20.6889ZM74.7554 26.4974H74.7283L74.7269 26.496H74.7554V26.4974ZM74.7554 26.4974V32.7894H75.9234V30.9954H76.8917C77.234 30.9954 77.5463 30.9383 77.803 30.8242C78.0597 30.7116 78.3164 30.539 78.5146 30.3408C78.7129 30.1426 78.884 29.9144 78.9981 29.6292C79.1122 29.3439 79.1692 29.0601 79.1692 28.7464C79.1692 28.4326 79.1122 28.1488 78.9981 27.8636C78.8854 27.5784 78.7143 27.3502 78.5146 27.152C78.315 26.9538 78.0882 26.7826 77.803 26.6685C77.5178 26.5544 77.234 26.4974 76.8917 26.4974H74.7554ZM80.9647 32.6197C81.2785 32.7338 81.5623 32.7909 81.876 32.7909C82.2183 32.7909 82.5021 32.7338 82.7873 32.6197C83.0725 32.4785 83.3278 32.3074 83.4989 32.0792V32.7909H84.6669V27.7224H83.4989V28.377C83.2993 28.1788 83.0725 28.0077 82.7873 27.8936C82.5306 27.7795 82.2183 27.7224 81.876 27.7224C81.5337 27.7224 81.2499 27.7795 80.9362 27.8936C80.651 28.0062 80.3658 28.1488 80.139 28.377C79.9122 28.6052 79.7126 28.8605 79.57 29.1742C79.4274 29.488 79.3703 29.8573 79.3703 30.2567C79.3703 30.656 79.4559 31.0268 79.5985 31.3391C79.7411 31.6514 79.9393 31.9081 80.1675 32.1363C80.3957 32.3345 80.6795 32.5056 80.9647 32.6197ZM87.7131 31.1979L86.2899 27.7524H85.0648L87.1156 32.5641L86.0617 35.0983H87.2582L90.2473 27.7524H89.0223L87.7131 31.1979Z" fill="white"/>
<path d="M57.5664 25.7001V34.214H54.4917L52.3853 27.2089H52.3282L52.4423 34.214H50.3345V25.7001H53.5233L55.5171 32.4485H55.5456L55.4315 25.7001H57.5664Z" fill="white"/>
<path d="M13.3182 34.2996L14.9126 25.7001H18.7289L20.3233 34.2996H18.0159L16.8493 26.4688H16.8208L15.6243 34.2996H13.3182Z" fill="white"/>
<path d="M31.427 25.7001L31.6267 34.2996H29.4633L29.4062 26.5543H29.3492L27.9259 34.2996H25.7325L24.3093 26.5543H24.2522L24.1952 34.2996H22.0317L22.23 25.7001H25.761L26.8149 32.2773H26.8435L27.9259 25.7001H31.427Z" fill="white"/>
<path d="M44.8967 32.9907C45.4942 32.9907 45.6939 32.5914 45.7224 32.3646C45.7509 32.2791 45.7509 32.1364 45.7509 32.0238V25.7018H47.9429V31.8812C47.9429 32.0523 47.9143 32.3646 47.9143 32.4502C47.7717 34.0446 46.4911 34.5851 44.8952 34.5851C43.2994 34.5851 42.0473 34.0717 41.9061 32.4502C41.9061 32.3646 41.8776 32.0509 41.8776 31.8812V25.7018H44.0695V32.0794C44.0695 32.1935 44.0695 32.3076 44.098 32.4217C44.1266 32.5928 44.2977 32.9907 44.8952 32.9907" fill="white"/>
<path d="M9.67302 31.8512C9.75859 32.0509 9.73006 32.3347 9.70154 32.4773C9.61597 32.7625 9.44484 33.0463 8.84729 33.0463C8.30679 33.0463 7.99305 32.7326 7.99305 32.2776V31.4519H5.68701V32.1065C5.68701 34.0432 7.19585 34.6122 8.81877 34.6122C10.4417 34.6122 11.6667 34.0717 11.865 32.647C11.9791 31.9069 11.8935 31.4234 11.865 31.2237C11.4942 29.4297 8.2198 28.8892 7.99305 27.8638C7.96453 27.6927 7.96453 27.5215 7.99305 27.4089C8.05009 27.1237 8.24975 26.8399 8.79025 26.8399C9.30223 26.8399 9.58745 27.1536 9.58745 27.6085V28.149H11.7224V27.5515C11.7224 25.6719 10.0424 25.3881 8.81735 25.3881C7.27999 25.3881 6.02643 25.9 5.79968 27.2962C5.74263 27.667 5.74263 28.0078 5.8282 28.4642C6.17047 30.2568 9.24518 30.7417 9.67159 31.8527" fill="white"/>
<path d="M37.6635 31.8512C37.749 32.0508 37.7205 32.3061 37.692 32.4772C37.6349 32.7625 37.4353 33.0463 36.8663 33.0463C36.2972 33.0463 36.012 32.7325 36.012 32.2776V31.4518H33.7345V32.1064C33.7345 34.0146 35.2433 34.5836 36.8377 34.5836C38.4321 34.5836 39.6572 34.0702 39.8554 32.6469C39.9695 31.9068 39.8839 31.4233 39.8554 31.2522C39.4846 29.4581 36.2673 28.9462 36.0405 27.9493C35.9835 27.7782 36.012 27.607 36.0405 27.4944C36.0976 27.2091 36.2972 26.9253 36.8092 26.9253C37.3212 26.9253 37.6064 27.2391 37.6064 27.694V28.2345H39.7413V27.637C39.7413 25.7859 38.0613 25.5021 36.8648 25.5021C35.356 25.5021 34.1024 25.9855 33.8757 27.3817C33.8186 27.7525 33.7901 28.0933 33.9042 28.5212C34.2165 30.2582 37.2356 30.7416 37.662 31.8526" fill="white"/>
<path d="M62.8631 32.9036C63.4891 32.9036 63.6888 32.5043 63.7458 32.2776C63.7743 32.192 63.7743 32.0494 63.7743 31.9638V30.7117H62.8916V29.4581H65.9378V31.7642C65.9378 31.9353 65.9378 32.0494 65.9092 32.3332C65.7666 33.8991 64.4004 34.4681 62.8631 34.4681C61.3257 34.4681 59.9866 33.8991 59.844 32.3332C59.8154 32.048 59.8154 31.9339 59.8154 31.7642V28.1475C59.8154 28.0049 59.844 27.7211 59.844 27.5785C60.0436 25.9556 61.3243 25.4436 62.8631 25.4436C64.4018 25.4436 65.7395 25.9556 65.8807 27.5785C65.9092 27.8352 65.9092 28.1475 65.9092 28.1475V28.4328H63.7458V27.9493C63.7458 27.9493 63.7458 27.7496 63.7173 27.607C63.6888 27.4074 63.5176 26.981 62.8631 26.981C62.2085 26.981 62.0658 27.4074 62.0088 27.607C61.9803 27.7211 61.9803 27.8637 61.9803 28.0063V31.9353C61.9803 32.0494 61.9803 32.1635 62.0088 32.2491C62.0088 32.5343 62.237 32.9036 62.8631 32.9036Z" fill="white"/>
</svg>
