<svg xmlns="http://www.w3.org/2000/svg" width="100" height="60" fill="none"><path fill="#1E4BC6" d="M0 0h100v60H0z"/><path fill="#fff" d="M75.896 29.886V27.55h.912c.17 0 .34.028.483.085s.257.143.37.257c.086.114.172.228.229.37s.086.286.086.456-.029.312-.086.455a1 1 0 0 1-.228.37 1.1 1.1 0 0 1-.371.257 1.3 1.3 0 0 1-.483.086zM82.673 31.623c-.17.085-.37.114-.597.114v.001c-.227 0-.427-.057-.598-.114l-.005-.002c-.168-.085-.337-.17-.478-.311a3 3 0 0 1-.314-.485 1.3 1.3 0 0 1-.114-.57c0-.198.028-.397.114-.568.057-.17.172-.313.314-.455.14-.143.283-.229.483-.314.198-.086.4-.114.598-.114s.398.028.597.143c.198.085.341.17.484.313.142.113.228.284.313.455.086.17.115.37.115.57 0 .197-.029.397-.115.568-.085.17-.172.313-.313.455s-.313.228-.484.314"/><path fill="#fff" d="M91.642 20.689c1.395 1.48 2.192 3.502 2.477 5.723.285 2.136.171 3.588.171 3.588s.086 1.453-.2 3.588c-.285 2.22-1.082 4.243-2.476 5.723-1.48 1.395-3.503 2.192-5.723 2.477-2.137.257-3.589.2-3.589.2s-1.453.086-3.588-.2c-2.22-.285-4.242-1.082-5.723-2.477-1.394-1.48-2.192-3.502-2.477-5.723-.257-2.136-.2-3.588-.2-3.588s-.057-1.453.229-3.588c.285-2.22 1.082-4.243 2.477-5.723 1.48-1.395 3.502-2.192 5.723-2.477 2.136-.257 3.588-.2 3.588-.2s1.453-.085 3.588.2c2.22.285 4.243 1.082 5.723 2.477m-16.887 5.808h-.027l-.001-.001h.028zm0 0v6.292h1.168v-1.794h.969c.342 0 .654-.057.911-.17s.513-.286.712-.484.369-.427.483-.712.171-.569.171-.883c0-.313-.057-.597-.17-.882a2.1 2.1 0 0 0-.484-.712c-.2-.198-.427-.37-.712-.483a2.4 2.4 0 0 0-.911-.172zm6.21 6.123c.313.114.597.17.911.17.342 0 .626-.056.911-.17.285-.142.54-.313.712-.54v.71h1.168v-5.068h-1.168v.655c-.2-.198-.426-.37-.712-.483a2.3 2.3 0 0 0-.911-.172c-.342 0-.626.057-.94.172-.285.112-.57.255-.797.483a2.7 2.7 0 0 0-.569.797c-.143.314-.2.683-.2 1.083s.086.77.228 1.082.341.57.57.797c.228.198.511.37.797.484m6.748-1.422-1.423-3.446h-1.225l2.05 4.812-1.053 2.534h1.196l2.99-7.346h-1.226zM57.566 25.7v8.514h-3.074l-2.107-7.005h-.057l.114 7.005h-2.108V25.7h3.19l1.993 6.749h.029l-.114-6.749zM13.318 34.3l1.595-8.6h3.816l1.594 8.6h-2.307l-1.167-7.831h-.028l-1.197 7.83zM31.427 25.7l.2 8.6h-2.164l-.057-7.746h-.057L27.926 34.3h-2.193l-1.424-7.746h-.057l-.057 7.746h-2.163l.198-8.6h3.531l1.054 6.577h.028l1.083-6.577zM44.897 32.99c.597 0 .797-.399.825-.625.029-.086.029-.229.029-.341v-6.322h2.192v6.18c0 .17-.029.483-.029.568-.142 1.595-1.423 2.135-3.019 2.135s-2.848-.513-2.989-2.135c0-.085-.028-.4-.028-.569v-6.18h2.191v6.378c0 .114 0 .229.029.343.029.17.2.569.797.569M9.673 31.851c.086.2.057.484.029.626-.086.286-.257.57-.855.57-.54 0-.854-.314-.854-.77v-.825H5.687v.654c0 1.937 1.509 2.506 3.132 2.506s2.848-.54 3.046-1.965c.114-.74.028-1.224 0-1.423-.37-1.794-3.645-2.335-3.872-3.36a1.2 1.2 0 0 1 0-.455c.057-.285.257-.57.797-.57.512 0 .797.315.797.77v.54h2.135v-.598c0-1.88-1.68-2.163-2.905-2.163-1.537 0-2.79.512-3.017 1.908-.057.371-.057.712.028 1.168.342 1.793 3.417 2.278 3.844 3.389M37.664 31.851c.085.2.056.455.028.626-.057.286-.257.57-.826.57s-.854-.314-.854-.77v-.825h-2.278v.654c0 1.909 1.51 2.478 3.104 2.478s2.82-.514 3.017-1.937c.114-.74.029-1.224 0-1.395-.37-1.794-3.588-2.306-3.814-3.303a.8.8 0 0 1 0-.455c.057-.285.256-.569.768-.569s.797.314.797.769v.54h2.135v-.597c0-1.851-1.68-2.135-2.876-2.135-1.509 0-2.763.483-2.99 1.88-.056.37-.085.711.03 1.14.312 1.736 3.33 2.22 3.757 3.33M62.863 32.904c.626 0 .826-.4.883-.626.028-.086.028-.229.028-.314v-1.252h-.882v-1.254h3.046v2.306c0 .171 0 .285-.029.57-.142 1.565-1.509 2.134-3.046 2.134s-2.876-.569-3.019-2.135c-.029-.285-.029-.4-.029-.569v-3.616c0-.143.029-.427.029-.57.2-1.622 1.48-2.134 3.02-2.134 1.538 0 2.876.512 3.017 2.134.028.257.028.57.028.57v.285h-2.163v-.484s0-.2-.029-.342c-.028-.2-.2-.626-.854-.626s-.797.426-.854.626c-.029.114-.029.257-.029.4v3.928c0 .114 0 .229.029.314 0 .285.228.655.854.655"/></svg>