<svg width="100" height="60" viewBox="0 0 100 60" fill="none" xmlns="http://www.w3.org/2000/svg">
<rect width="100" height="60" fill="#0B4A8E"/>
<path d="M13.04 40.58L13.778 40.506C13.823 40.755 13.913 40.937 14.048 41.054C14.184 41.171 14.368 41.229 14.598 41.229C14.842 41.229 15.026 41.177 15.15 41.074C15.2066 41.0315 15.2527 40.9766 15.2848 40.9135C15.3168 40.8504 15.334 40.7808 15.335 40.71C15.3373 40.6276 15.3099 40.5471 15.258 40.483C15.1828 40.4062 15.0891 40.3501 14.986 40.32C14.7858 40.2591 14.5837 40.2048 14.38 40.157C13.975 40.057 13.69 39.933 13.527 39.787C13.4175 39.6943 13.3297 39.5786 13.2701 39.4481C13.2105 39.3176 13.1804 39.1755 13.182 39.032C13.182 38.842 13.237 38.662 13.345 38.497C13.453 38.33 13.61 38.204 13.813 38.117C14.018 38.03 14.263 37.987 14.553 37.987C15.023 37.987 15.378 38.09 15.616 38.297C15.854 38.505 15.979 38.781 15.991 39.127L15.231 39.157C15.199 38.964 15.129 38.825 15.022 38.74C14.916 38.655 14.756 38.613 14.542 38.613C14.322 38.613 14.15 38.658 14.025 38.749C13.987 38.7747 13.9562 38.8095 13.9352 38.8502C13.9142 38.8909 13.9038 38.9362 13.905 38.982C13.9052 39.0261 13.9155 39.0696 13.9351 39.1091C13.9547 39.1486 13.983 39.1831 14.018 39.21C14.113 39.29 14.345 39.374 14.714 39.46C15.082 39.547 15.354 39.637 15.531 39.73C15.708 39.824 15.846 39.952 15.946 40.113C16.046 40.275 16.096 40.475 16.096 40.713C16.0961 40.933 16.0309 41.1481 15.9086 41.3309C15.7863 41.5138 15.6124 41.6562 15.409 41.74C15.19 41.832 14.918 41.878 14.591 41.878C14.116 41.878 13.751 41.768 13.497 41.546C13.242 41.326 13.09 41.004 13.041 40.581M16.883 39.09H17.606V41.81H16.883V39.09ZM16.883 38.054H17.606V38.717H16.883V38.054ZM20.978 41.81H20.256V40.42C20.256 40.125 20.24 39.935 20.21 39.849C20.1829 39.7674 20.1303 39.6966 20.06 39.647C19.9867 39.5979 19.9001 39.5728 19.812 39.575C19.6926 39.5737 19.5759 39.6097 19.478 39.678C19.3816 39.7432 19.31 39.8391 19.275 39.95C19.238 40.063 19.22 40.272 19.22 40.577V41.811H18.498V39.091H19.168V39.491C19.405 39.179 19.704 39.024 20.064 39.024C20.223 39.024 20.368 39.053 20.499 39.11C20.6159 39.1564 20.7189 39.2321 20.798 39.33C20.8656 39.4196 20.9133 39.5226 20.938 39.632C20.965 39.745 20.978 39.907 20.978 40.117V41.81ZM22.44 40.391C22.44 40.681 22.495 40.893 22.606 41.027C22.6539 41.0902 22.716 41.1414 22.7871 41.1764C22.8583 41.2115 22.9366 41.2295 23.016 41.229C23.1006 41.2299 23.1843 41.2118 23.261 41.1759C23.3377 41.1401 23.4053 41.0875 23.459 41.022C23.579 40.884 23.639 40.68 23.639 40.409C23.639 40.127 23.582 39.917 23.466 39.779C23.4137 39.7137 23.3471 39.6612 23.2713 39.6257C23.1955 39.5902 23.1126 39.5725 23.029 39.574C22.9476 39.5726 22.8671 39.5901 22.7937 39.6252C22.7203 39.6602 22.656 39.7119 22.606 39.776C22.496 39.911 22.44 40.116 22.44 40.391ZM21.792 41.989L22.611 42.079C22.625 42.18 22.657 42.249 22.706 42.288C22.775 42.342 22.883 42.37 23.03 42.37C23.219 42.37 23.36 42.341 23.455 42.285C23.5223 42.2425 23.5731 42.1783 23.599 42.103C23.621 42.043 23.632 41.933 23.632 41.773L23.634 41.375C23.421 41.665 23.151 41.81 22.823 41.81C22.457 41.81 22.167 41.656 21.953 41.346C21.786 41.101 21.703 40.796 21.703 40.432C21.703 39.975 21.812 39.626 22.031 39.385C22.251 39.143 22.524 39.023 22.851 39.023C23.187 39.023 23.465 39.171 23.684 39.467V39.09H24.354V41.535C24.354 41.857 24.328 42.098 24.274 42.256C24.2322 42.3975 24.1559 42.5263 24.052 42.631C23.9416 42.7299 23.8103 42.8027 23.668 42.844C23.471 42.9003 23.2667 42.9262 23.062 42.921C22.6 42.921 22.272 42.841 22.079 42.683C21.9868 42.6115 21.9127 42.5195 21.8623 42.4143C21.812 42.3091 21.7869 42.1936 21.789 42.077L21.792 41.989ZM25.22 38.054H25.943V41.81H25.22V38.054ZM28.459 40.223C28.454 40.011 28.399 39.85 28.296 39.74C28.2488 39.6871 28.1908 39.6449 28.126 39.6162C28.0611 39.5876 27.9909 39.5732 27.92 39.574C27.8457 39.5723 27.7721 39.5871 27.7043 39.6174C27.6365 39.6477 27.5763 39.6926 27.528 39.749C27.425 39.865 27.374 40.023 27.376 40.223H28.459ZM28.421 40.953L29.137 41.073C29.0592 41.3149 28.9052 41.5251 28.698 41.672C28.498 41.809 28.249 41.878 27.949 41.878C27.475 41.878 27.123 41.722 26.896 41.412C26.716 41.164 26.626 40.85 26.626 40.471C26.626 40.018 26.744 39.664 26.98 39.407C27.217 39.151 27.515 39.023 27.877 39.023C28.283 39.023 28.603 39.157 28.837 39.426C29.072 39.696 29.184 40.107 29.174 40.663H27.364C27.369 40.877 27.427 41.043 27.539 41.163C27.5923 41.2209 27.6573 41.2666 27.7298 41.2973C27.8022 41.328 27.8803 41.3429 27.959 41.341C28.072 41.341 28.168 41.311 28.245 41.249C28.333 41.1711 28.3945 41.0676 28.421 40.953ZM31.538 41.81V38.054H34.318V38.687H32.298V39.522H34.176V40.156H32.298V41.176H34.392V41.81H31.538ZM36.975 41.81V41.403C36.875 41.548 36.745 41.663 36.583 41.749C36.4286 41.8315 36.2565 41.8753 36.0815 41.8767C35.9064 41.8781 35.7337 41.837 35.578 41.757C35.4378 41.6824 35.3266 41.5631 35.262 41.418C35.197 41.273 35.164 41.072 35.164 40.815V39.09H35.887V40.341C35.887 40.724 35.9 40.959 35.927 41.045C35.9504 41.1279 36.0012 41.2005 36.071 41.251C36.141 41.301 36.231 41.326 36.338 41.326C36.4516 41.3273 36.5629 41.2943 36.6574 41.2313C36.752 41.1683 36.8254 41.0783 36.868 40.973C36.904 40.873 36.923 40.629 36.923 40.239V39.089H37.645V41.81H36.975ZM39.233 41.81H38.511V39.09H39.181V39.477C39.296 39.294 39.399 39.173 39.491 39.113C39.5831 39.053 39.691 39.0217 39.801 39.023C39.9688 39.0237 40.1332 39.0707 40.276 39.159L40.056 39.789C39.9566 39.718 39.8389 39.677 39.717 39.671C39.6242 39.6686 39.5334 39.6983 39.46 39.755C39.39 39.81 39.334 39.911 39.294 40.056C39.254 40.201 39.234 40.506 39.234 40.969L39.233 41.81ZM41.305 40.45C41.305 40.721 41.369 40.929 41.498 41.073C41.5563 41.1418 41.6292 41.1968 41.7113 41.2342C41.7934 41.2715 41.8828 41.2902 41.973 41.289C42.063 41.2904 42.1523 41.2717 42.2343 41.2344C42.3163 41.197 42.3889 41.1419 42.447 41.073C42.575 40.929 42.639 40.719 42.639 40.445C42.639 40.178 42.575 39.972 42.447 39.828C42.3889 39.7591 42.3163 39.704 42.2343 39.6667C42.1523 39.6293 42.063 39.6107 41.973 39.612C41.8828 39.6108 41.7934 39.6295 41.7113 39.6669C41.6292 39.7042 41.5563 39.7592 41.498 39.828C41.369 39.972 41.305 40.179 41.305 40.45ZM40.568 40.411C40.568 40.171 40.627 39.939 40.745 39.714C40.8559 39.4961 41.0302 39.3169 41.245 39.2C41.461 39.082 41.703 39.023 41.97 39.023C42.381 39.023 42.719 39.157 42.982 39.425C43.245 39.693 43.376 40.033 43.376 40.442C43.376 40.856 43.243 41.198 42.978 41.47C42.712 41.742 42.378 41.878 41.975 41.878C41.7269 41.8782 41.4823 41.8199 41.261 41.708C41.0407 41.6006 40.8601 41.4263 40.745 41.21C40.627 40.992 40.568 40.726 40.568 40.411ZM46.49 38.687V39.761H46.903C47.201 39.761 47.401 39.741 47.501 39.701C47.598 39.6646 47.6812 39.5987 47.7389 39.5126C47.7967 39.4266 47.8261 39.3246 47.823 39.221C47.8275 39.0966 47.7846 38.975 47.703 38.881C47.6238 38.792 47.5165 38.7327 47.399 38.713C47.2186 38.6907 47.0367 38.682 46.855 38.687H46.49ZM45.73 41.81V38.054H46.946C47.406 38.054 47.708 38.073 47.848 38.11C48.063 38.166 48.243 38.29 48.388 38.478C48.533 38.667 48.605 38.911 48.605 39.21C48.605 39.44 48.564 39.634 48.48 39.792C48.4051 39.939 48.2961 40.0659 48.162 40.162C48.032 40.252 47.902 40.312 47.769 40.34C47.5095 40.382 47.2467 40.4 46.984 40.394H46.49V41.81H45.73ZM50.876 40.506C50.7319 40.55 50.5857 40.5868 50.438 40.616C50.239 40.66 50.108 40.702 50.048 40.743C50.0051 40.7703 49.9697 40.808 49.9452 40.8526C49.9208 40.8971 49.908 40.9472 49.908 40.998C49.908 41.098 49.944 41.186 50.019 41.26C50.0569 41.2968 50.1018 41.3256 50.1512 41.3445C50.2005 41.3634 50.2532 41.3721 50.306 41.37C50.4399 41.3684 50.5697 41.3235 50.676 41.242C50.7581 41.1833 50.8182 41.0988 50.847 41.002C50.866 40.941 50.876 40.823 50.876 40.65V40.506ZM49.907 39.917L49.259 39.797C49.332 39.534 49.459 39.339 49.638 39.213C49.818 39.086 50.084 39.023 50.438 39.023C50.758 39.023 50.998 39.061 51.155 39.137C51.2933 39.1965 51.4094 39.298 51.487 39.427C51.551 39.544 51.583 39.76 51.583 40.073L51.576 40.915C51.576 41.155 51.587 41.331 51.61 41.445C51.633 41.559 51.677 41.68 51.74 41.81H51.025C50.9985 41.7414 50.9752 41.6717 50.955 41.601C50.9474 41.5731 50.939 41.5455 50.93 41.518C50.807 41.638 50.676 41.728 50.536 41.788C50.396 41.848 50.246 41.878 50.088 41.878C49.808 41.878 49.588 41.801 49.426 41.649C49.347 41.5753 49.2845 41.4857 49.2428 41.386C49.2011 41.2864 49.181 41.179 49.184 41.071C49.184 40.917 49.221 40.78 49.294 40.659C49.368 40.5383 49.4758 40.442 49.604 40.382C49.736 40.318 49.927 40.262 50.176 40.213C50.512 40.15 50.746 40.091 50.876 40.036V39.964C50.876 39.824 50.841 39.724 50.773 39.664C50.703 39.604 50.574 39.574 50.383 39.574C50.2776 39.5683 50.1729 39.5948 50.083 39.65C49.9981 39.7186 49.9366 39.8119 49.907 39.917ZM52.102 39.09H52.869L53.521 41.021L54.158 39.09H54.904L53.77 42.187C53.7228 42.3143 53.6625 42.4363 53.59 42.551C53.5369 42.6305 53.4698 42.6996 53.392 42.755C53.3082 42.8116 53.2151 42.8529 53.117 42.877C53.008 42.907 52.886 42.921 52.749 42.921C52.6118 42.9214 52.475 42.907 52.341 42.878L52.273 42.314C52.387 42.336 52.489 42.347 52.58 42.347C52.749 42.347 52.873 42.297 52.954 42.198C53.034 42.098 53.096 41.972 53.139 41.818L52.102 39.09ZM55.467 39.09H56.13V39.461C56.368 39.169 56.652 39.023 56.98 39.023C57.155 39.023 57.307 39.058 57.435 39.13C57.5686 39.2072 57.678 39.3201 57.751 39.456C57.871 39.311 58.001 39.202 58.139 39.13C58.2758 39.0589 58.4278 39.0222 58.582 39.023C58.782 39.023 58.952 39.063 59.09 39.145C59.229 39.225 59.333 39.345 59.401 39.503C59.451 39.619 59.475 39.807 59.475 40.067V41.81H58.753V40.252C58.753 39.982 58.728 39.807 58.679 39.729C58.612 39.625 58.509 39.574 58.371 39.574C58.271 39.574 58.176 39.605 58.087 39.667C57.9948 39.7333 57.9273 39.8282 57.895 39.937C57.856 40.057 57.836 40.244 57.836 40.501V41.811H57.114V40.317C57.114 40.051 57.101 39.88 57.075 39.803C57.0553 39.7342 57.0135 39.6737 56.956 39.631C56.8905 39.59 56.8141 39.5701 56.737 39.574C56.6302 39.5731 56.5256 39.6045 56.437 39.664C56.3464 39.7271 56.2796 39.8186 56.247 39.924C56.209 40.036 56.19 40.224 56.19 40.486V41.81H55.467V39.09ZM61.965 40.223C61.959 40.011 61.905 39.85 61.802 39.74C61.7548 39.687 61.6969 39.6448 61.632 39.6161C61.5671 39.5875 61.4969 39.5731 61.426 39.574C61.3517 39.5723 61.278 39.587 61.2102 39.6173C61.1424 39.6476 61.0822 39.6926 61.034 39.749C60.931 39.865 60.88 40.023 60.882 40.223H61.965ZM61.927 40.953L62.643 41.073C62.5652 41.3149 62.4112 41.525 62.204 41.672C62.004 41.809 61.755 41.878 61.455 41.878C60.981 41.878 60.629 41.722 60.402 41.412C60.222 41.164 60.132 40.85 60.132 40.471C60.132 40.018 60.25 39.664 60.486 39.407C60.723 39.151 61.021 39.023 61.383 39.023C61.789 39.023 62.109 39.157 62.343 39.426C62.578 39.696 62.69 40.107 62.68 40.663H60.87C60.875 40.877 60.933 41.043 61.045 41.163C61.0983 41.2209 61.1633 41.2667 61.2357 41.2974C61.3082 41.3281 61.3863 41.343 61.465 41.341C61.578 41.341 61.674 41.311 61.751 41.249C61.8392 41.1712 61.9007 41.0677 61.927 40.953ZM65.896 41.81H65.173V40.42C65.173 40.125 65.158 39.935 65.127 39.849C65.0998 39.7674 65.0472 39.6966 64.977 39.647C64.9037 39.5979 64.8171 39.5728 64.729 39.575C64.6096 39.5737 64.4928 39.6097 64.395 39.678C64.2986 39.7433 64.2271 39.8391 64.192 39.95C64.156 40.063 64.137 40.272 64.137 40.577V41.811H63.415V39.091H64.085V39.491C64.323 39.179 64.621 39.024 64.981 39.024C65.141 39.024 65.286 39.053 65.417 39.11C65.5336 39.1565 65.6362 39.2323 65.715 39.33C65.783 39.418 65.829 39.52 65.855 39.632C65.883 39.745 65.895 39.907 65.895 40.117V41.811M68.028 39.09V39.664H67.536V40.764C67.536 40.987 67.54 41.117 67.55 41.154C67.559 41.191 67.58 41.221 67.612 41.245C67.647 41.2697 67.6891 41.2823 67.732 41.281C67.798 41.281 67.892 41.258 68.017 41.212L68.08 41.77C67.9007 41.8444 67.708 41.8812 67.514 41.878C67.3941 41.8798 67.275 41.8574 67.164 41.812C67.0738 41.778 66.995 41.719 66.937 41.642C66.8831 41.5574 66.8489 41.4617 66.837 41.362C66.8166 41.1932 66.8086 41.023 66.813 40.853V39.663H66.486V39.09H66.813V38.546L67.536 38.121V39.09H68.028ZM68.434 41.043L69.157 40.931C69.187 41.07 69.25 41.175 69.344 41.248C69.438 41.32 69.569 41.356 69.737 41.356C69.924 41.356 70.064 41.321 70.157 41.253C70.1874 41.2309 70.212 41.2016 70.2285 41.1678C70.2451 41.134 70.2531 41.0966 70.252 41.059C70.2527 41.034 70.2484 41.0092 70.2395 40.9858C70.2306 40.9625 70.2172 40.9412 70.2 40.923C70.164 40.888 70.084 40.856 69.958 40.827C69.374 40.697 69.004 40.58 68.848 40.474C68.7454 40.4085 68.6616 40.3175 68.6048 40.2099C68.548 40.1022 68.5201 39.9817 68.524 39.86C68.524 39.624 68.617 39.425 68.804 39.264C68.991 39.104 69.282 39.023 69.674 39.023C70.049 39.023 70.327 39.083 70.509 39.203C70.6949 39.33 70.8285 39.52 70.885 39.738L70.207 39.865C70.1825 39.7665 70.1232 39.6802 70.04 39.622C69.9341 39.5593 69.8118 39.5296 69.689 39.537C69.497 39.537 69.359 39.563 69.277 39.617C69.2515 39.6322 69.2305 39.6537 69.2159 39.6795C69.2014 39.7053 69.1938 39.7344 69.194 39.764C69.194 39.816 69.218 39.859 69.266 39.896C69.331 39.944 69.556 40.012 69.942 40.099C70.327 40.187 70.595 40.295 70.748 40.422C70.899 40.551 70.975 40.73 70.975 40.96C70.9746 41.0844 70.9463 41.2072 70.8921 41.3192C70.838 41.4311 70.7593 41.5295 70.662 41.607C70.454 41.787 70.146 41.877 69.737 41.877C69.367 41.877 69.074 41.803 68.857 41.653C68.6454 41.509 68.4947 41.2917 68.434 41.043ZM75.373 40.327L74.848 38.933L74.34 40.327H75.373ZM76.766 41.81H75.948L75.623 40.96H74.11L73.8 41.81H72.996L74.451 38.054H75.25L76.766 41.81ZM78.007 41.81H77.284V39.09H77.954V39.477C78.069 39.294 78.172 39.173 78.264 39.113C78.3567 39.0526 78.4653 39.0212 78.576 39.023C78.7435 39.0239 78.9075 39.0709 79.05 39.159L78.83 39.789C78.7303 39.7178 78.6123 39.6769 78.49 39.671C78.3972 39.6686 78.3064 39.6983 78.233 39.755C78.163 39.81 78.108 39.911 78.067 40.056C78.027 40.201 78.007 40.506 78.007 40.969V41.81ZM81.137 40.223C81.132 40.011 81.077 39.85 80.974 39.74C80.9268 39.6871 80.8688 39.645 80.8039 39.6163C80.7391 39.5877 80.6689 39.5733 80.598 39.574C80.5239 39.5724 80.4504 39.5873 80.3828 39.6175C80.3152 39.6478 80.2551 39.6927 80.207 39.749C80.103 39.865 80.053 40.023 80.054 40.223H81.137ZM81.1 40.953L81.815 41.073C81.7375 41.3148 81.5838 41.5249 81.377 41.672C81.177 41.809 80.927 41.878 80.627 41.878C80.153 41.878 79.801 41.722 79.574 41.412C79.394 41.164 79.304 40.85 79.304 40.471C79.304 40.018 79.422 39.664 79.659 39.407C79.895 39.151 80.194 39.023 80.555 39.023C80.961 39.023 81.281 39.157 81.515 39.426C81.75 39.696 81.862 40.107 81.852 40.663H80.042C80.047 40.877 80.105 41.043 80.217 41.163C80.2703 41.2209 80.3353 41.2666 80.4078 41.2973C80.4802 41.328 80.5583 41.3429 80.637 41.341C80.7404 41.3443 80.8417 41.3118 80.924 41.249C81.0119 41.171 81.0734 41.0675 81.1 40.953ZM84.092 40.506C83.9483 40.55 83.8024 40.5868 83.655 40.616C83.455 40.66 83.325 40.702 83.264 40.743C83.2211 40.7703 83.1857 40.808 83.1612 40.8526C83.1368 40.8971 83.1239 40.9472 83.124 40.998C83.124 41.098 83.161 41.186 83.236 41.26C83.311 41.334 83.406 41.37 83.522 41.37C83.6559 41.3684 83.7857 41.3235 83.892 41.242C83.9744 41.1834 84.035 41.0989 84.064 41.002C84.0874 40.8862 84.0968 40.7681 84.092 40.65V40.506ZM83.123 39.917L82.475 39.797C82.549 39.534 82.675 39.339 82.855 39.213C83.034 39.086 83.3 39.023 83.654 39.023C83.975 39.023 84.214 39.061 84.372 39.137C84.5099 39.1967 84.6257 39.2981 84.703 39.427C84.768 39.544 84.8 39.76 84.8 40.073L84.792 40.915C84.792 41.155 84.804 41.331 84.827 41.445C84.85 41.559 84.893 41.68 84.956 41.81H84.241C84.2146 41.7414 84.1913 41.6717 84.171 41.601C84.1635 41.5731 84.1552 41.5454 84.146 41.518C84.023 41.638 83.892 41.728 83.752 41.788C83.612 41.848 83.463 41.878 83.304 41.878C83.024 41.878 82.804 41.801 82.642 41.649C82.5631 41.5752 82.5009 41.4856 82.4594 41.3859C82.4178 41.2863 82.3979 41.1789 82.401 41.071C82.401 40.917 82.437 40.78 82.511 40.659C82.5843 40.5385 82.6914 40.4422 82.819 40.382C82.952 40.318 83.143 40.262 83.392 40.213C83.729 40.15 83.962 40.091 84.092 40.036V39.964C84.092 39.824 84.058 39.724 83.989 39.664C83.92 39.604 83.791 39.574 83.599 39.574C83.4936 39.5683 83.3889 39.5948 83.299 39.65C83.2141 39.7187 83.1526 39.812 83.123 39.917ZM28.999 23.292H24.079C24.079 22.484 23.983 21.942 23.795 21.665C23.502 21.257 22.694 21.053 21.371 21.053C20.086 21.053 19.235 21.17 18.819 21.406C18.404 21.642 18.196 22.156 18.196 22.946C18.196 23.662 18.38 24.133 18.749 24.359C19.013 24.519 19.363 24.614 19.799 24.642L20.791 24.712C22.917 24.853 24.245 24.952 24.775 25.009C26.457 25.179 27.676 25.626 28.433 26.351C29.028 26.917 29.383 27.657 29.496 28.57C29.562 29.116 29.596 29.734 29.596 30.42C29.596 32.004 29.444 33.163 29.142 33.898C28.594 35.246 27.364 36.097 25.449 36.454C24.646 36.606 23.419 36.681 21.769 36.681C19.013 36.681 17.092 36.517 16.008 36.187C14.678 35.783 13.8 34.965 13.375 33.732C13.139 33.046 13.022 31.902 13.022 30.302H17.942V30.712C17.942 31.565 18.188 32.115 18.677 32.359C19.017 32.528 19.427 32.616 19.907 32.627H21.717C22.64 32.627 23.229 32.579 23.483 32.485C23.935 32.307 24.232 32.02 24.373 31.624C24.449 31.38 24.487 31.064 24.487 30.677C24.487 29.812 24.171 29.285 23.54 29.097C23.304 29.022 22.207 28.917 20.249 28.786C18.676 28.673 17.584 28.566 16.972 28.461C15.362 28.159 14.288 27.539 13.752 26.598C13.282 25.798 13.046 24.588 13.046 22.969C13.046 21.737 13.173 20.749 13.427 20.005C13.682 19.261 14.092 18.696 14.658 18.31C15.488 17.717 16.549 17.37 17.841 17.265C19.0317 17.1664 20.2262 17.1194 21.421 17.124C23.486 17.124 24.957 17.242 25.835 17.478C27.975 18.053 29.046 19.666 29.046 22.315C29.046 22.532 29.03 22.857 28.999 23.292ZM55.925 27.044H59.222C60.267 27.006 60.903 26.926 61.132 26.8C61.445 26.628 61.654 26.284 61.759 25.767C61.826 25.424 61.859 24.913 61.859 24.234C61.859 23.402 61.793 22.786 61.659 22.384C61.469 21.819 61.014 21.476 60.292 21.351C60.149 21.332 59.808 21.322 59.266 21.322H55.925V27.044ZM50.635 36.681V17.02H60.489C61.841 17.02 62.872 17.13 63.581 17.35C65.201 17.859 66.289 18.899 66.846 20.471C67.134 21.296 67.277 22.538 67.277 24.197C67.277 26.192 67.117 27.625 66.802 28.497C66.17 30.223 64.869 31.217 62.905 31.475C62.674 31.513 61.691 31.548 59.955 31.575L59.078 31.605H55.925V36.681H50.635ZM77.517 29.453L75.039 20.93L72.634 29.453H77.517ZM78.567 33.283H71.496L70.546 36.681H65.074L70.978 17.02H78.956L84.933 36.681H79.576L78.567 33.283Z" fill="white"/>
<path d="M43.336 19.786C44.3727 19.7855 45.3965 20.017 46.3322 20.4634C47.268 20.9098 48.092 21.5599 48.744 22.366L49.884 19.92C48.0224 18.1632 45.5576 17.1878 42.998 17.195C38.83 17.195 35.265 19.713 33.802 23.277H31.579L30.266 26.093H33.126C33.1035 26.3558 33.0918 26.6193 33.091 26.883C33.091 27.205 33.108 27.524 33.139 27.839H31.702L30.39 30.656H33.87C35.375 34.13 38.895 36.569 42.998 36.569C45.065 36.569 46.983 35.949 48.571 34.891V31.44C47.9186 32.187 47.1139 32.7857 46.211 33.1959C45.308 33.606 44.3277 33.8182 43.336 33.818C42.1779 33.8174 41.0382 33.5281 40.02 32.9762C39.0019 32.4242 38.1375 31.6271 37.505 30.657H44.793L46.105 27.84H36.432C36.3468 27.2619 36.333 26.6755 36.391 26.094H46.919L48.231 23.278H37.301C37.9118 22.2174 38.7911 21.3364 39.8505 20.7236C40.91 20.1108 42.1121 19.7877 43.336 19.787" fill="#F6BC25"/>
</svg>
