<svg width="100" height="60" viewBox="0 0 100 60" fill="none" xmlns="http://www.w3.org/2000/svg">
<path d="M17.9074 18.8116C18.0457 18.8146 18.1796 18.8606 18.2907 18.943C17.3335 19.3975 16.3083 20.5453 15.8768 22.8377L14.0543 23.4094C14.5614 21.6614 15.7651 18.8116 17.9074 18.8116ZM18.7945 19.6615C18.9774 20.127 19.0957 20.7951 19.0957 21.6975V21.829L16.7902 22.5518C17.2338 20.8159 18.0662 19.9791 18.7945 19.6615ZM20.9938 21.2332L19.8777 21.5836V21.3394C19.8777 20.5913 19.7759 19.9901 19.6116 19.5125C20.272 19.5969 20.7112 20.3581 20.9938 21.2321V21.2332ZM26.3506 22.5628C26.343 22.5132 26.319 22.4677 26.2825 22.4333C26.2459 22.399 26.199 22.3778 26.1491 22.3733C26.0647 22.3656 24.2872 22.232 24.2872 22.232C24.2872 22.232 23.0528 20.9911 22.9181 20.8531C22.7812 20.7162 22.5172 20.7578 22.4143 20.7874L21.7232 21.0042C21.3103 19.8017 20.5831 18.6966 19.3027 18.6966C19.2666 18.6966 19.2304 18.6988 19.1932 18.701C18.8296 18.2125 18.3783 18 17.9884 18C15.0061 18 13.5812 21.7786 13.1343 23.6985L11.0468 24.3546C10.4006 24.5605 10.3787 24.5813 10.2944 25.1979C10.2308 25.6656 8.5376 38.93 8.5376 38.93L21.7287 41.4338L28.8762 39.8676L26.3506 22.5628Z" fill="#8CB849"/>
<path d="M26.149 22.3732C26.0647 22.3655 24.2871 22.2319 24.2871 22.2319C24.2871 22.2319 23.0528 20.991 22.9181 20.853C22.8653 20.8039 22.7981 20.7732 22.7264 20.7654L21.7297 41.4326L28.8762 39.8664L26.3506 22.5627C26.3429 22.5131 26.319 22.4675 26.2824 22.4332C26.2459 22.3989 26.199 22.3777 26.149 22.3732Z" fill="#5A873E"/>
<path d="M19.3029 26.3742L18.4212 29.0301C18.4212 29.0301 17.649 28.6128 16.7017 28.6128C15.3151 28.6128 15.245 29.4945 15.245 29.7168C15.245 30.9304 18.3664 31.3947 18.3664 34.2369C18.3664 36.4712 16.9667 37.9114 15.0807 37.9114C12.8157 37.9114 11.657 36.4832 11.657 36.4832L12.2637 34.4537C12.2637 34.4537 13.4543 35.4898 14.4586 35.4898C15.1147 35.4898 15.3819 34.9663 15.3819 34.583C15.3819 33.0015 12.8212 32.9303 12.8212 30.3302C12.8212 28.1419 14.371 26.0237 17.5012 26.0237C18.7059 26.0237 19.3029 26.3742 19.3029 26.3742Z" fill="white"/>
<path d="M37.2077 31.3531C36.4958 30.961 36.1278 30.6302 36.1278 30.1768C36.1278 29.5996 36.6371 29.2283 37.4312 29.2283C38.3566 29.2283 39.1836 29.6204 39.1836 29.6204L39.8352 27.5975C39.8352 27.5975 39.2361 27.1233 37.4728 27.1233C35.0184 27.1233 33.3174 28.5471 33.3174 30.5481C33.3174 31.6839 34.1115 32.5502 35.1706 33.169C36.0271 33.6641 36.3315 34.0145 36.3315 34.5315C36.3315 35.0682 35.9044 35.5008 35.1104 35.5008C33.9275 35.5008 32.8082 34.882 32.8082 34.882L32.116 36.9038C32.116 36.9038 33.1488 37.6047 34.8869 37.6047C37.4115 37.6047 39.2241 36.3463 39.2241 34.077C39.2241 32.8591 38.3074 31.9927 37.2077 31.3531ZM47.2686 27.1025C46.0266 27.1025 45.0486 27.7016 44.295 28.6095L44.2545 28.5876L45.3333 22.8727H42.5229L39.7947 37.4196H42.6051L43.5415 32.4472C43.9084 30.5689 44.8657 29.4134 45.7616 29.4134C46.3924 29.4134 46.6378 29.8471 46.6378 30.466C46.6378 30.858 46.5961 31.3323 46.5151 31.7255L45.456 37.4196H48.2664L49.366 31.5382C49.4876 30.9265 49.5557 30.3053 49.5697 29.6818C49.5697 28.0718 48.7351 27.1025 47.2686 27.1025ZM54.5388 35.4383C53.5816 35.4383 53.1752 34.6136 53.1752 33.5819C53.1752 31.9511 54.0098 29.2897 55.5377 29.2897C56.5343 29.2897 56.8607 30.156 56.8607 31.0026C56.8607 32.7561 56.0262 35.4383 54.5388 35.4383ZM55.9243 27.1036C52.5433 27.1036 50.3035 30.1976 50.3035 33.6432C50.3035 35.8512 51.6474 37.6255 54.173 37.6255C57.4916 37.6255 59.7324 34.6136 59.7324 31.0848C59.7324 29.0421 58.5507 27.1036 55.9243 27.1036ZM64.2339 35.48C63.5034 35.48 63.0729 35.0671 63.0729 35.0671L63.5406 32.4056C63.867 30.6313 64.7837 29.455 65.7607 29.455C66.616 29.455 66.8811 30.26 66.8811 31.0234C66.8811 32.8591 65.8012 35.48 64.2339 35.48ZM66.9216 27.1025C65.0246 27.1025 63.948 28.7946 63.948 28.7946H63.9075L64.0707 27.2679H61.5856C61.435 28.5322 61.245 29.7917 61.0161 31.0442L59.06 41.4644H61.8715L62.6447 37.2543H62.706C62.706 37.2543 63.2832 37.6266 64.3555 37.6266C67.6554 37.6266 69.8141 34.2007 69.8141 30.7343C69.8141 28.8154 68.9774 27.1025 66.9216 27.1025ZM73.826 23.0172C72.9301 23.0172 72.2171 23.7401 72.2171 24.6678C72.2171 25.5144 72.7472 26.0916 73.5412 26.0916H73.5818C74.4579 26.0916 75.2104 25.4936 75.2312 24.441C75.2312 23.6152 74.6814 23.0172 73.826 23.0172ZM69.8952 37.4196H72.7056L74.62 27.3292H71.7899L69.8952 37.4196ZM81.7687 27.3095H79.8126L79.9144 26.8341C80.0765 25.8648 80.6482 24.9985 81.5847 24.9985C82.0841 24.9985 82.4806 25.142 82.4806 25.142L83.0304 22.9143C83.0304 22.9143 82.5408 22.6667 81.5025 22.6667C80.5048 22.6667 79.507 22.9559 78.7535 23.6152C77.7962 24.441 77.3483 25.6381 77.1238 26.8352L77.0427 27.3095H75.7394L75.332 29.455H76.6353L75.149 37.4196H77.9594L79.4457 29.455H81.381L81.7676 27.3084M88.5307 27.3292C88.5307 27.3292 86.7728 31.8142 85.9843 34.2621H85.9437C85.889 33.4746 85.2515 27.3292 85.2515 27.3292H82.2977L83.9887 36.5949C84.0293 36.8008 84.0084 36.9235 83.9274 37.0692C83.601 37.7088 83.0512 38.3276 82.3995 38.781C81.8705 39.1731 81.2802 39.4206 80.8114 39.586L81.5858 41.9999C82.1553 41.8762 83.3371 41.4019 84.3348 40.4524C85.6174 39.2355 86.7991 37.3572 88.0214 34.7987L91.4627 27.3292H88.5307Z" fill="black"/>
</svg>
