<svg width="100" height="60" viewBox="0 0 100 60" fill="none" xmlns="http://www.w3.org/2000/svg">
<path d="M55.9512 27.2657C55.9512 31.4255 53.0363 34.3941 48.9618 34.3941H45.1244C45.0821 34.394 45.0401 34.4023 45.001 34.4185C44.9619 34.4348 44.9264 34.4586 44.8966 34.4887C44.8361 34.5491 44.8021 34.6311 44.802 34.7165V40.1834C44.8018 40.2689 44.7677 40.3508 44.7073 40.4112C44.6469 40.4716 44.565 40.5057 44.4796 40.5059H41.793C41.7075 40.5058 41.6256 40.4718 41.5652 40.4113C41.5049 40.3508 41.471 40.2689 41.471 40.1834V20.4602C41.471 20.3747 41.5049 20.2928 41.5652 20.2323C41.6256 20.1719 41.7075 20.1379 41.793 20.1378H48.9795C53.0363 20.1333 55.9512 23.1019 55.9512 27.2657ZM52.6019 27.2657C52.6019 24.8749 50.972 23.1286 48.7601 23.1286H45.1244C45.0821 23.1285 45.0401 23.1367 45.0009 23.1529C44.9618 23.1691 44.9262 23.1928 44.8962 23.2228C44.8662 23.2527 44.8425 23.2883 44.8263 23.3275C44.8102 23.3667 44.8019 23.4087 44.802 23.451V31.0627C44.8019 31.105 44.8102 31.147 44.8263 31.1862C44.8425 31.2253 44.8662 31.2609 44.8962 31.2909C44.9262 31.3209 44.9618 31.3446 45.0009 31.3608C45.0401 31.3769 45.0821 31.3852 45.1244 31.3851H48.7601C50.972 31.3988 52.6019 29.6525 52.6019 27.2657ZM56.748 36.7227C56.7204 36.0847 56.8526 35.45 57.1325 34.8761C57.4124 34.3021 57.8312 33.8072 58.3508 33.4361C59.399 32.6482 61.0374 32.2405 63.442 32.1552L66.0033 32.0659V31.3091C66.0033 29.7955 64.9867 29.1555 63.3567 29.1555C61.7272 29.1555 60.6928 29.7333 60.4556 30.678C60.436 30.7442 60.395 30.802 60.3391 30.8425C60.2832 30.883 60.2155 30.9039 60.1465 30.9018H57.6167C57.5701 30.9029 57.5238 30.8938 57.4811 30.875C57.4384 30.8563 57.4003 30.8284 57.3696 30.7933C57.3388 30.7583 57.3161 30.7169 57.3031 30.6721C57.2901 30.6273 57.2871 30.5802 57.2942 30.5341C57.6704 28.2957 59.5331 26.5946 63.4735 26.5946C67.6644 26.5946 69.1776 28.5462 69.1776 32.2716V40.1834C69.1766 40.2694 69.1417 40.3516 69.0805 40.4119C69.0193 40.4723 68.9367 40.5061 68.8507 40.5059H66.2987C66.2563 40.506 66.2144 40.4978 66.1753 40.4816C66.1362 40.4655 66.1006 40.4417 66.0708 40.4117C66.0408 40.3818 66.017 40.3462 66.0008 40.307C65.9845 40.2678 65.9762 40.2258 65.9762 40.1834V39.5927C65.9771 39.544 65.9633 39.4962 65.9365 39.4556C65.9097 39.4149 65.8713 39.3833 65.8262 39.3649C65.7812 39.3465 65.7316 39.3421 65.684 39.3524C65.6364 39.3627 65.5931 39.3872 65.5596 39.4226C64.7943 40.255 63.5583 40.8554 61.5793 40.8554C58.6688 40.8554 56.748 39.3418 56.748 36.7227ZM66.0033 35.0075V34.3941L62.6852 34.5687C60.9388 34.6584 59.9226 35.3836 59.9226 36.6059C59.9226 37.7118 60.854 38.3256 62.484 38.3256C64.6958 38.3256 66.0033 37.1296 66.0033 35.0075ZM71.7389 46.4835V44.1909C71.7388 44.1427 71.7494 44.0951 71.77 44.0516C71.7906 44.0081 71.8207 43.9697 71.858 43.9392C71.8953 43.9088 71.9389 43.887 71.9857 43.8755C72.0325 43.8641 72.0812 43.8632 72.1284 43.8729C72.5197 43.9465 72.9169 43.984 73.3151 43.9848C73.9996 44.0184 74.6757 43.8215 75.235 43.4254C75.7943 43.0293 76.2046 42.457 76.4001 41.8001L76.5657 41.2716C76.59 41.2004 76.59 41.1233 76.5657 41.0522L71.2508 27.4047C71.231 27.3551 71.2238 27.3014 71.2298 27.2484C71.2383 27.1681 71.2763 27.0939 71.3365 27.0401C71.3967 26.9864 71.4747 26.9569 71.5554 26.9574H74.1297C74.1957 26.9576 74.2602 26.9778 74.3146 27.0153C74.3689 27.0528 74.4107 27.1059 74.4343 27.1675L78.0434 36.7942C78.0653 36.8586 78.1069 36.9144 78.1623 36.9539C78.2177 36.9933 78.2841 37.0143 78.3521 37.014C78.42 37.0139 78.4863 36.9928 78.5417 36.9534C78.597 36.914 78.6388 36.8584 78.6612 36.7942L81.7955 27.1942C81.8173 27.1286 81.8594 27.0716 81.9156 27.0314C81.9719 26.9912 82.0395 26.9698 82.1086 26.9704H84.773C84.8264 26.9705 84.879 26.9836 84.9263 27.0086C84.9736 27.0335 85.0141 27.0695 85.0445 27.1134C85.0749 27.1574 85.0941 27.2081 85.1007 27.2611C85.1072 27.3142 85.1008 27.368 85.0821 27.4181L79.3954 42.5742C78.0878 46.0984 75.8449 46.9983 73.3733 46.9983C72.9049 47.0108 72.4372 46.955 71.9849 46.8326C71.9093 46.8129 71.8431 46.767 71.7983 46.7029C71.753 46.6392 71.732 46.5614 71.7389 46.4835ZM24.21 19.0003C20.825 18.9763 17.5594 20.2502 15.0848 22.5601C14.9786 22.6571 14.9124 22.7903 14.8992 22.9335C14.886 23.0768 14.9266 23.2198 15.0133 23.3347L16.5447 25.4257C16.5944 25.4953 16.6587 25.5532 16.7332 25.5954C16.8076 25.6375 16.8904 25.6629 16.9757 25.6697C17.061 25.6765 17.1468 25.6646 17.227 25.6348C17.3072 25.605 17.3799 25.558 17.4401 25.4972C18.3298 24.6075 19.3879 23.9042 20.5526 23.4282C21.7173 22.9523 22.9652 22.7134 24.2234 22.7253C29.4757 22.7253 32.2201 26.6794 32.2201 30.5838C32.2201 34.8285 29.3367 37.8149 25.1951 37.873C21.9938 37.873 19.5803 35.7509 19.5803 32.9476C19.5835 32.2394 19.7438 31.5408 20.0496 30.9021C20.3555 30.2634 20.7992 29.7006 21.3489 29.2541C21.4654 29.1572 21.5391 29.0184 21.5542 28.8676C21.5694 28.7168 21.5246 28.5661 21.4297 28.448L19.8175 26.4152C19.7688 26.3536 19.7083 26.3025 19.6395 26.2648C19.5706 26.2271 19.4949 26.2036 19.4169 26.1957C19.3388 26.1878 19.2599 26.1956 19.1849 26.2187C19.11 26.2419 19.0404 26.2798 18.9803 26.3303C17.9915 27.1269 17.1936 28.1347 16.645 29.2798C16.0965 30.4249 15.8112 31.6783 15.8101 32.948C15.8101 37.7745 19.9113 41.5584 25.164 41.5896H25.2351C31.4726 41.5087 35.9814 36.8879 35.9814 30.575C35.9814 24.9691 31.8532 19.0003 24.21 19.0003Z" fill="#5A31F4"/>
</svg>
