<svg xmlns="http://www.w3.org/2000/svg" width="100" height="60" fill="none"><path fill="#fff" d="M0 0h100v60H0z"/><path fill="#5A31F4" d="M55.951 27.266c0 4.16-2.915 7.128-6.99 7.128h-3.837a.32.32 0 0 0-.322.323v5.466a.323.323 0 0 1-.322.323h-2.687a.32.32 0 0 1-.322-.323V20.46a.323.323 0 0 1 .322-.322h7.187c4.056-.005 6.971 2.964 6.971 7.128m-3.35 0c0-2.391-1.629-4.137-3.84-4.137h-3.637a.32.32 0 0 0-.322.322v7.612a.323.323 0 0 0 .322.322h3.636c2.212.014 3.842-1.733 3.842-4.12m4.147 9.457a3.83 3.83 0 0 1 1.603-3.287c1.048-.788 2.686-1.196 5.091-1.28l2.561-.09v-.757c0-1.514-1.016-2.154-2.646-2.154s-2.664.578-2.901 1.523a.31.31 0 0 1-.31.224h-2.53a.318.318 0 0 1-.322-.368c.376-2.238 2.24-3.94 6.18-3.94 4.19 0 5.704 1.952 5.704 5.678v7.911a.326.326 0 0 1-.327.323h-2.552a.32.32 0 0 1-.323-.323v-.59a.24.24 0 0 0-.416-.17c-.766.832-2.002 1.432-3.98 1.432-2.911 0-4.832-1.513-4.832-4.132m9.255-1.715v-.614l-3.318.175c-1.746.09-2.762.815-2.762 2.037 0 1.106.931 1.72 2.561 1.72 2.212 0 3.52-1.196 3.52-3.318m5.736 11.475v-2.292a.324.324 0 0 1 .39-.318 6.5 6.5 0 0 0 1.186.112A3.06 3.06 0 0 0 76.4 41.8l.166-.528a.34.34 0 0 0 0-.22L71.25 27.405a.325.325 0 0 1 .305-.447h2.574a.33.33 0 0 1 .304.21l3.61 9.626a.324.324 0 0 0 .498.16.33.33 0 0 0 .12-.16l3.133-9.6a.33.33 0 0 1 .314-.224h2.664a.33.33 0 0 1 .328.291.33.33 0 0 1-.019.157l-5.687 15.156c-1.307 3.524-3.55 4.424-6.022 4.424a4.8 4.8 0 0 1-1.388-.165.33.33 0 0 1-.246-.35M24.21 19a13.24 13.24 0 0 0-9.125 3.56.58.58 0 0 0-.072.775l1.532 2.09a.587.587 0 0 0 .895.072 9.47 9.47 0 0 1 6.783-2.772c5.253 0 7.997 3.954 7.997 7.859 0 4.244-2.883 7.23-7.025 7.289-3.201 0-5.615-2.122-5.615-4.925a4.79 4.79 0 0 1 1.769-3.694.577.577 0 0 0 .08-.806l-1.611-2.033a.585.585 0 0 0-.838-.085 8.5 8.5 0 0 0-3.17 6.618c0 4.827 4.101 8.61 9.354 8.642h.071c6.238-.081 10.746-4.702 10.746-11.015C35.981 24.969 31.853 19 24.21 19"/></svg>