<svg xmlns="http://www.w3.org/2000/svg" width="100" height="60" fill="none"><path fill="url(#a)" d="M0 0h100v60H0z"/><path fill="#fff" d="m69.007 21.158 5.361-.954v20.569h-5.36zm7.826 0v19.603h5.36V20.205zM61.386 40.761h5.361V25.725h-5.36zM25.961 27.848c-.681-.046-2.249-.148-2.249-1.556 0-1.704 2.26-1.704 3.101-1.704 1.488 0 3.419.443 4.793.852 0 0 .772.272 1.42.545l.057.011V21.34l-.08-.023c-1.624-.568-3.51-1.113-7.019-1.113-6.042 0-8.178 3.52-8.178 6.53 0 1.738.75 5.827 7.667 6.304.59.034 2.146.125 2.146 1.59 0 1.204-1.272 1.92-3.418 1.92-2.351 0-4.623-.602-6.008-1.17v4.804c2.067.545 4.406.818 7.144.818 5.906 0 8.552-3.328 8.552-6.633 0-3.748-2.953-6.179-7.928-6.52m32.404-2.34c-4.952.159-7.462 2.385-7.462 6.803v8.462h5.406v-6.906c0-2.646.341-3.782 3.487-3.884v-4.407c-.545-.102-1.431-.068-1.431-.068m-14.538.204c-.113.296-.977 2.726-3.055 5.236V20.204l-5.531 1.09v19.467h5.53v-6.02c1.602 2.409 2.397 6.02 2.397 6.02h6.622c-.659-2.725-3.521-7.745-3.521-7.745 2.567-3.26 3.703-6.736 3.884-7.315h-6.326zm20.228-1.43a2.647 2.647 0 0 0 2.647-2.636A2.65 2.65 0 0 0 64.055 19a2.64 2.64 0 0 0-2.635 2.646 2.637 2.637 0 0 0 2.635 2.635"/><defs><linearGradient id="a" x1="0" x2="100" y1="60" y2="60" gradientUnits="userSpaceOnUse"><stop stop-color="#872166"/><stop offset="1" stop-color="#4F2455"/></linearGradient></defs></svg>