<svg width="100" height="60" viewBox="0 0 100 60" fill="none" xmlns="http://www.w3.org/2000/svg">
<path d="M69.0072 21.158L74.3681 20.2039V40.7728H69.0072V21.158ZM76.8327 21.158V40.7615H82.1936V20.2039L76.8327 21.158ZM61.3862 40.7615H66.747V25.7238H61.3862V40.7615ZM25.9613 27.8477C25.2798 27.8023 23.7124 27.7001 23.7124 26.2917C23.7124 24.588 25.9726 24.588 26.8131 24.588C28.301 24.588 30.2318 25.031 31.6061 25.4399C31.6061 25.4399 32.3784 25.7124 33.0258 25.985L33.0826 25.9964V21.3397L33.0031 21.317C31.3789 20.7491 29.4935 20.2039 25.984 20.2039C19.9417 20.2039 17.8064 23.7248 17.8064 26.7346C17.8064 28.4724 18.556 32.5612 25.4729 33.0382C26.0635 33.0723 27.6195 33.1631 27.6195 34.6283C27.6195 35.8322 26.3474 36.5478 24.2008 36.5478C21.8498 36.5478 19.5782 35.9458 18.1926 35.3779V40.1822C20.2597 40.7274 22.5994 41 25.3366 41C31.2426 41 33.889 37.6722 33.889 34.3671C33.889 30.619 30.936 28.1884 25.9613 27.8477ZM58.365 25.508C53.413 25.667 50.9029 27.8931 50.9029 32.3113V40.7728H56.3092V33.8673C56.3092 31.221 56.65 30.0852 59.7961 29.983V25.5761C59.2509 25.4739 58.365 25.508 58.365 25.508ZM43.8271 25.7124C43.7135 26.0077 42.8503 28.4383 40.7718 30.9484V20.2039L35.2406 21.2943V40.7615H40.7718V34.7419C42.3733 37.1497 43.1683 40.7615 43.1683 40.7615H49.7899C49.1311 38.0356 46.269 33.0155 46.269 33.0155C48.8358 29.7558 49.9716 26.2803 50.1533 25.7011H43.8271V25.7124ZM64.0552 24.2814C65.509 24.2814 66.7016 23.1002 66.7016 21.6464C66.7016 20.1926 65.5204 19 64.0552 19C62.6014 19 61.4202 20.1812 61.4202 21.6464C61.4202 23.1002 62.6014 24.2814 64.0552 24.2814Z" fill="url(#paint0_linear_200_11946)"/>
<defs>
<linearGradient id="paint0_linear_200_11946" x1="17.7042" y1="40.7405" x2="82.1814" y2="40.7405" gradientUnits="userSpaceOnUse">
<stop stop-color="#872166"/>
<stop offset="1" stop-color="#4F2455"/>
</linearGradient>
</defs>
</svg>
