<svg width="100" height="60" viewBox="0 0 100 60" fill="none" xmlns="http://www.w3.org/2000/svg">
<rect width="100" height="60" fill="url(#paint0_linear_200_12028)"/>
<path d="M19.3516 33.7497L16.9521 36.3226C16.9002 36.3785 16.8373 36.4231 16.7674 36.4536C16.6975 36.4841 16.6221 36.4999 16.5458 36.5H5.17089C5.11664 36.5 5.06357 36.4841 5.01819 36.4544C4.97281 36.4247 4.93708 36.3824 4.91538 36.3326C4.89368 36.2829 4.88695 36.2279 4.89601 36.1744C4.90508 36.121 4.92954 36.0713 4.96641 36.0315L7.36327 33.4586C7.41518 33.4027 7.47802 33.3581 7.54793 33.3276C7.61781 33.297 7.69325 33.2812 7.76952 33.2812H19.1445C19.1992 33.28 19.2531 33.2951 19.2992 33.3245C19.3454 33.3539 19.382 33.3964 19.404 33.4464C19.4263 33.4965 19.433 33.552 19.4237 33.606C19.4143 33.66 19.3893 33.71 19.3516 33.7497ZM16.9521 28.5673C16.9 28.5117 16.8371 28.4673 16.7672 28.4368C16.6974 28.4063 16.622 28.3903 16.5458 28.3899H5.17089C5.11664 28.39 5.06357 28.4058 5.01819 28.4356C4.97281 28.4653 4.93708 28.5076 4.91538 28.5573C4.89368 28.607 4.88695 28.662 4.89601 28.7155C4.90508 28.769 4.92954 28.8187 4.96641 28.8585L7.36327 31.4327C7.41537 31.4884 7.47827 31.5328 7.54812 31.5633C7.61796 31.5938 7.69331 31.6097 7.76952 31.6101H19.1445C19.1986 31.6098 19.2514 31.5938 19.2967 31.564C19.3419 31.5341 19.3774 31.4918 19.3989 31.4421C19.4204 31.3925 19.4271 31.3376 19.4179 31.2842C19.4088 31.2309 19.3844 31.1813 19.3476 31.1416L16.9521 28.5673ZM5.17089 26.7189H16.5458C16.6221 26.7188 16.6975 26.703 16.7674 26.6725C16.8373 26.642 16.9002 26.5974 16.9521 26.5415L19.3516 23.9686C19.3893 23.9289 19.4143 23.8789 19.4237 23.8249C19.433 23.7709 19.4263 23.7154 19.404 23.6653C19.382 23.6152 19.3454 23.5728 19.2992 23.5434C19.2531 23.514 19.1992 23.4989 19.1445 23.5001H7.76952C7.69325 23.5001 7.61781 23.5159 7.54793 23.5465C7.47802 23.577 7.41518 23.6216 7.36327 23.6775L4.96641 26.2504C4.92954 26.2902 4.90508 26.3399 4.89601 26.3933C4.88695 26.4468 4.89368 26.5018 4.91538 26.5515C4.93708 26.6012 4.97281 26.6436 5.01819 26.6733C5.06357 26.703 5.11664 26.7189 5.17089 26.7189Z" fill="white"/>
<path d="M69.3787 24.9894H63.4204C63.1577 24.988 62.8974 25.0383 62.6542 25.1375C62.411 25.2367 62.1896 25.3828 62.003 25.5676C61.8163 25.7523 61.6677 25.972 61.5659 26.2141C61.464 26.4562 61.4108 26.716 61.4095 26.9787V35.0102H63.4407V31.7182H69.3719V35.0102H71.4032V26.9787C71.4018 26.7149 71.3482 26.4539 71.2455 26.2109C71.1428 25.9679 70.9931 25.7476 70.8049 25.5627C70.6168 25.3778 70.3939 25.232 70.1491 25.1336C69.9042 25.0352 69.6425 24.9862 69.3787 24.9894ZM69.3638 29.7141H63.4326V26.9936H69.3638V29.7141Z" fill="white"/>
<path d="M41.8744 24.9894H47.983C48.2457 24.988 48.506 25.0383 48.7492 25.1375C48.9924 25.2367 49.2138 25.3828 49.4004 25.5675C49.5871 25.7523 49.7357 25.972 49.8375 26.2141C49.9393 26.4562 49.9926 26.716 49.9939 26.9787V33.0209C49.9926 33.2836 49.9393 33.5434 49.8375 33.7855C49.7357 34.0276 49.5871 34.2473 49.4004 34.432C49.2138 34.6168 48.9924 34.7629 48.7492 34.8621C48.506 34.9613 48.2457 35.0116 47.983 35.0102H41.8744C41.6113 35.0123 41.3503 34.9625 41.1064 34.8636C40.8627 34.7648 40.6407 34.6188 40.4535 34.434C40.266 34.2492 40.1171 34.0292 40.015 33.7868C39.9127 33.5443 39.8594 33.284 39.858 33.0209V26.9787C39.8594 26.7155 39.9127 26.4553 40.015 26.2128C40.1171 25.9703 40.266 25.7504 40.4535 25.5656C40.6407 25.3808 40.8627 25.2348 41.1064 25.1359C41.3503 25.037 41.6113 24.9872 41.8744 24.9894ZM41.8893 33.006H47.9681L47.9654 26.9935H41.8893V33.006Z" fill="white"/>
<path d="M30.1081 28.9977H36.1937C36.4565 28.9962 36.7172 29.0467 36.9605 29.146C37.2039 29.2454 37.4253 29.3918 37.6122 29.5768C37.7989 29.7618 37.9473 29.9818 38.049 30.2242C38.1507 30.4667 38.2035 30.7268 38.2046 30.9896V33.0209C38.2032 33.2835 38.15 33.5433 38.0482 33.7855C37.9464 34.0276 37.7978 34.2473 37.6111 34.432C37.4245 34.6167 37.2031 34.7628 36.9599 34.8621C36.7167 34.9612 36.4564 35.0116 36.1937 35.0101H28.2217V33.006H36.1815V31.0018H30.0878C29.8249 31.0033 29.5643 30.9528 29.3209 30.8535C29.0776 30.7541 28.8562 30.6077 28.6693 30.4227C28.4826 30.2377 28.3341 30.0177 28.2324 29.7753C28.1307 29.5328 28.0779 29.2727 28.0768 29.0099V26.9786C28.0782 26.716 28.1314 26.4562 28.2332 26.214C28.3351 25.9719 28.4836 25.7522 28.6704 25.5675C28.857 25.3828 29.0784 25.2366 29.3216 25.1374C29.5648 25.0382 29.8251 24.9879 30.0878 24.9894H37.7753V26.9935H30.1081V28.9977Z" fill="white"/>
<path d="M87.1384 24.9894H93.0967C93.3594 24.9879 93.6197 25.0382 93.8629 25.1374C94.1061 25.2366 94.3274 25.3828 94.5141 25.5675C94.7008 25.7522 94.8494 25.9719 94.9512 26.214C95.0531 26.4562 95.1063 26.716 95.1076 26.9786V35.0101H93.0764V31.7182H87.1587V35.0101H85.1275V26.9786C85.1288 26.716 85.1821 26.4562 85.2839 26.214C85.3857 25.9719 85.5343 25.7522 85.721 25.5675C85.9077 25.3828 86.129 25.2366 86.3722 25.1374C86.6154 25.0382 86.8757 24.9879 87.1384 24.9894ZM87.1452 29.714H93.0764V26.9935H87.1452V29.714Z" fill="white"/>
<path d="M81.2953 33.006H80.4828L77.5781 25.8289C77.4786 25.5813 77.3073 25.3691 77.0863 25.2195C76.8653 25.0699 76.6046 24.9898 76.3377 24.9893H74.5353C74.3601 24.9884 74.1865 25.0221 74.0244 25.0883C73.8622 25.1545 73.7147 25.252 73.5901 25.3752C73.4657 25.4985 73.3667 25.645 73.2989 25.8065C73.231 25.968 73.1957 26.1413 73.1947 26.3164V35.0101H75.226V26.9935H76.0385L78.9418 34.1706C79.0429 34.4177 79.2156 34.629 79.4375 34.7776C79.6593 34.9262 79.9206 35.0053 80.1876 35.0047H81.99C82.1652 35.0056 82.3388 34.972 82.5009 34.9058C82.6631 34.8396 82.8106 34.7421 82.9352 34.6188C83.0596 34.4956 83.1586 34.3491 83.2265 34.1876C83.2943 34.0261 83.3297 33.8528 83.3306 33.6776V24.9893H81.2953V33.006Z" fill="white"/>
<path d="M51.7883 24.9894H53.8195V33.006H59.8997V35.0102H53.806C53.5427 35.0125 53.2816 34.9628 53.0376 34.864C52.7937 34.7652 52.5715 34.6193 52.3841 34.4344C52.1967 34.2496 52.0476 34.0296 51.9453 33.7871C51.8431 33.5445 51.7896 33.2841 51.7883 33.0209V24.9894Z" fill="white"/>
<defs>
<linearGradient id="paint0_linear_200_12028" x1="8.44116" y1="61.43" x2="57.1783" y2="-20.4656" gradientUnits="userSpaceOnUse">
<stop offset="0.08" stop-color="#9945FF"/>
<stop offset="0.3" stop-color="#8752F3"/>
<stop offset="0.5" stop-color="#5497D5"/>
<stop offset="0.6" stop-color="#43B4CA"/>
<stop offset="0.72" stop-color="#28E0B9"/>
<stop offset="0.97" stop-color="#19FB9B"/>
</linearGradient>
</defs>
</svg>
