<svg width="100" height="60" viewBox="0 0 100 60" fill="none" xmlns="http://www.w3.org/2000/svg">
<rect width="100" height="60" fill="#992685"/>
<path d="M34.4761 26.3859C34.4761 17.5919 41.7361 10.4619 50.6951 10.4619C59.6511 10.4619 66.9131 17.5919 66.9131 26.3859C66.9131 35.1809 59.6511 42.3089 50.6951 42.3089C41.7371 42.3089 34.4761 35.1809 34.4761 26.3859ZM50.6951 41.1959C59.0251 41.1959 65.7761 34.5649 65.7761 26.3859C65.7761 18.2059 59.0241 11.5769 50.6951 11.5769C42.3641 11.5769 35.6121 18.2069 35.6121 26.3859C35.6121 34.5649 42.3641 41.1959 50.6951 41.1959Z" fill="white"/>
<path d="M55.1661 23.6509C57.7421 27.4819 56.6241 32.6109 52.6711 35.1039C48.7191 37.5989 43.4291 36.5169 40.8551 32.6869L43.3081 31.0879C44.9811 33.5749 48.4161 34.2789 50.9831 32.6589C53.5481 31.0389 54.2751 27.7089 52.6031 25.2219L55.1661 23.6519" fill="white"/>
<path d="M60.8781 20.1369C58.2981 16.3069 53.0061 15.2329 49.0581 17.7309C45.1091 20.2309 43.9981 25.3609 46.5781 29.1889L49.0751 27.6549C47.4011 25.1699 48.1221 21.8399 50.6861 20.2159C53.2501 18.5919 56.6861 19.2929 58.3631 21.7769L60.8781 20.1369Z" fill="white"/>
<path d="M56.1421 48.0219C56.3441 46.6479 57.6581 45.5319 59.0771 45.5319C60.4971 45.5319 61.4831 46.6479 61.2811 48.0219C61.0781 49.3989 59.7641 50.5149 58.3451 50.5149C56.9261 50.5149 55.9391 49.3989 56.1421 48.0219ZM58.4741 49.6419C59.3961 49.6419 60.2491 48.9169 60.3821 48.0219C60.5141 47.1289 59.8721 46.4029 58.9511 46.4029C58.0261 46.4029 57.1731 47.1289 57.0411 48.0219C56.9101 48.9169 57.5511 49.6419 58.4741 49.6419ZM52.5581 45.6969H53.5961L52.7401 49.4689H55.5301L55.3361 50.3189H51.5081L52.5581 45.6969ZM45.9021 47.9849C46.1031 46.5939 47.4181 45.4629 48.8361 45.4629C50.2561 45.4629 51.2421 46.5929 51.0401 47.9849C50.8391 49.3799 49.5231 50.5109 48.1031 50.5109C46.6851 50.5109 45.6981 49.3809 45.9021 47.9849ZM48.2321 49.6269C49.1561 49.6269 50.0091 48.8929 50.1421 47.9849C50.2721 47.0809 49.6321 46.3449 48.7081 46.3449C47.7871 46.3449 46.9331 47.0809 46.8001 47.9849C46.6701 48.8929 47.3101 49.6269 48.2331 49.6269H48.2321ZM40.8721 48.9339C41.0781 49.3209 41.9291 49.7959 42.7651 49.7689C43.6471 49.7429 43.9631 49.4989 44.0251 49.0889C44.0461 48.9269 44.1151 48.5569 43.3811 48.4719L42.1911 48.3439C40.9251 48.1819 40.7211 47.6839 40.7511 47.0739C40.7901 46.2349 41.8721 45.5869 43.0351 45.5729C44.0591 45.5589 44.9291 45.7779 45.3331 46.3129L44.6141 46.7339C44.0191 46.2769 43.4831 46.2419 42.8451 46.2799C42.4011 46.3079 41.8011 46.4799 41.7091 46.8979C41.6451 47.1929 41.6601 47.3779 42.2971 47.4499L43.8051 47.6419C44.4991 47.7189 45.0791 48.3519 45.0251 48.8939C44.9431 49.6849 44.2311 50.6199 42.5261 50.5389C41.2221 50.4789 40.4571 49.9849 40.1071 49.3669L40.8721 48.9339Z" fill="white"/>
</svg>
