<svg width="100" height="60" viewBox="0 0 100 60" fill="none" xmlns="http://www.w3.org/2000/svg">
<path d="M40.0046 24.5518H38.4121C38.0143 24.5518 37.6889 24.8757 37.6889 25.275L37.6798 36.3533C37.6798 36.5462 37.7537 36.727 37.8908 36.8641C38.0264 37.0012 38.2087 37.078 38.4015 37.078H39.9956C40.3933 37.078 40.7187 36.7541 40.7187 36.3549L40.7278 25.2765C40.7278 24.8788 40.4039 24.5533 40.0046 24.5518Z" fill="#A58EDE"/>
<path d="M39.2015 20.0032C38.3413 20.0047 37.6407 20.7053 37.6407 21.5656C37.6407 21.9904 37.8094 22.3882 38.1137 22.685C38.4075 22.9698 38.7917 23.1264 39.2015 23.1264H39.2452C40.0588 23.1038 40.7398 22.4228 40.7624 21.6093C40.7745 21.1829 40.6178 20.7806 40.321 20.4763C40.0242 20.1704 39.6264 20.0032 39.2015 20.0032Z" fill="#A58EDE"/>
<path d="M53.0537 25.6155C52.0743 24.7537 50.7681 24.2761 49.3744 24.2761H49.3594C47.9853 24.2761 46.8629 24.4132 45.9378 25.0429C45.9076 24.9541 45.8609 24.8621 45.7826 24.7793C45.644 24.6316 45.4481 24.5563 45.1995 24.5563H43.7381C43.5452 24.5563 43.3644 24.6316 43.2273 24.7672C43.0902 24.9028 43.0149 25.0851 43.0149 25.278L43.0059 36.4091C43.0059 36.6019 43.0797 36.7827 43.2168 36.9198C43.3524 37.0569 43.5347 37.1338 43.7275 37.1338H45.3201C45.5129 37.1338 45.6937 37.0599 45.8308 36.9228C45.9679 36.7872 46.0432 36.6049 46.0432 36.4121L46.0478 30.0887C46.0478 29.2751 46.3416 28.5248 46.8719 27.9764C47.3902 27.4415 48.0847 27.1477 48.829 27.1477H48.832C49.6155 27.1477 50.3311 27.4008 50.8479 27.8589C51.3903 28.341 51.6766 29.0129 51.6766 29.8039L51.6721 36.4166C51.6721 36.8143 51.996 37.1398 52.3953 37.1413H53.9893C54.1821 37.1398 54.3629 37.066 54.5 36.9289C54.6371 36.7933 54.7125 36.611 54.7125 36.4181L54.717 29.474C54.717 27.9101 54.143 26.5767 53.0537 25.6155Z" fill="#A58EDE"/>
<path d="M29.6705 24.2428H29.666C28.4019 24.2428 27.168 24.621 26.1209 25.3065V25.2628C26.1194 24.8651 25.7955 24.5411 25.3977 24.5396H23.201L23.1965 30.6295C23.1965 30.7063 23.195 30.7832 23.1965 30.86L23.189 41.2769C23.189 41.4713 23.2628 41.6521 23.3999 41.7892C23.5355 41.9263 23.7178 42.0031 23.9106 42.0031H25.5243C25.7186 42.0031 25.9009 41.9263 26.038 41.7892C26.1751 41.6506 26.249 41.4683 26.249 41.2739L26.2294 36.1935C27.1032 36.7449 28.1157 37.093 29.2005 37.1698C29.3587 37.1804 29.5154 37.1864 29.672 37.1864C31.3128 37.1864 32.8586 36.5792 34.0714 35.4492C35.3837 34.2289 36.1371 32.5037 36.1371 30.7184C36.1371 28.9933 35.4666 27.3676 34.2432 26.1427C33.0213 24.9178 31.3972 24.2413 29.6705 24.2413V24.2428ZM33.2383 30.9474C33.1253 32.7418 31.6879 34.1776 29.8935 34.2876C28.8916 34.3494 27.9409 34.0059 27.2147 33.3219C26.487 32.6363 26.0877 31.7097 26.0877 30.7123C26.0892 29.7556 26.4614 28.8577 27.1379 28.1827C27.8144 27.5077 28.7108 27.1371 29.666 27.1371H29.6705C30.6679 27.1371 31.5945 27.5394 32.277 28.2671C32.9595 28.9948 33.3015 29.947 33.2383 30.9474Z" fill="#A58EDE"/>
<path d="M68.5902 24.5955H67.1152C66.7189 24.5955 66.3935 24.9194 66.392 25.3157V25.3549C65.3464 24.6618 64.1215 24.2882 62.8393 24.2882H62.8348C61.0509 24.2882 59.3273 25.0385 58.1055 26.3462C56.867 27.6721 56.2538 29.4032 56.3788 31.2172C56.6003 34.4128 59.1752 36.9907 62.3693 37.2167C62.5275 37.2272 62.6841 37.2332 62.8408 37.2332C64.0959 37.2332 65.2952 36.8762 66.3332 36.2027C66.3106 37.2619 65.9521 38.0649 65.259 38.5862C64.4786 39.1723 63.445 39.2958 62.7128 39.2958H62.7082C61.4773 39.2958 60.3157 38.7851 59.8743 38.5651C59.5187 38.3888 59.0848 38.5335 58.907 38.889L58.3887 39.9241C58.2124 40.2751 58.3525 40.7091 58.7021 40.8899C59.3349 41.2168 61.0027 41.9776 62.8484 41.9776H62.8559V41.9807C64.5659 41.9807 66.1238 41.5121 67.2448 40.6608C68.5917 39.6378 69.3058 38.086 69.3058 36.1726L69.3134 25.3202C69.3134 24.9209 68.9894 24.5955 68.5902 24.5955ZM66.4086 30.9927C66.2956 32.7871 64.8582 34.223 63.0638 34.3329C62.0634 34.3917 61.1112 34.0512 60.385 33.3672C59.6573 32.6817 59.258 31.7551 59.258 30.7577C59.2595 29.801 59.6317 28.903 60.3082 28.228C60.9846 27.553 61.8811 27.1824 62.8363 27.1824H62.8408C63.8382 27.1824 64.7648 27.5847 65.4473 28.3124C66.1298 29.0401 66.4718 29.9923 66.4086 30.9927Z" fill="#A58EDE"/>
<path d="M62.8423 37.2332L62.8408 37.2332L62.8393 37.2332H62.8423Z" fill="#A58EDE"/>
<path d="M87.5497 26.1654C86.3278 24.942 84.7037 24.2685 82.9771 24.2685H77.4763C75.7482 24.2685 74.1421 24.9495 72.9549 26.1865C71.7917 27.3978 71.1514 29.0144 71.1514 30.7395C71.1514 34.3675 73.9297 37.2091 77.4763 37.2091H77.4748L82.9756 37.2106C86.5448 37.2106 89.4466 34.3073 89.4466 30.7395C89.4466 29.0129 88.7731 27.3888 87.5497 26.1654ZM82.9756 34.348H77.4748C75.5343 34.348 74.0125 32.763 74.0125 30.7395C74.0125 29.7572 74.3696 28.8457 75.019 28.1692C75.6608 27.5003 76.5332 27.1311 77.4748 27.1311H82.9756C83.9368 27.1326 84.8423 27.5078 85.5248 28.1903C86.2073 28.8728 86.584 29.7783 86.584 30.7395C86.584 32.7283 84.9643 34.348 82.9756 34.348Z" fill="#A58EDE"/>
<path d="M82.9771 28.5775C82.4031 28.5775 81.8637 28.8005 81.4584 29.2057C81.0516 29.611 80.8286 30.1489 80.8286 30.7229C80.8286 31.297 81.0621 31.8604 81.487 32.2688C81.8908 32.659 82.4166 32.8699 82.9756 32.8699C83.0027 32.8699 83.0313 32.8684 83.0599 32.8684C84.1749 32.8262 85.0803 31.9207 85.1225 30.8073C85.1451 30.2182 84.9327 29.6592 84.5244 29.2359C84.1161 28.811 83.5662 28.5775 82.9771 28.5775Z" fill="#A58EDE"/>
<path d="M16.1409 28.9783L16.1288 28.9753C13.8764 28.3681 13.5148 28.1044 13.5148 27.5711C13.5148 26.8223 14.3163 26.3372 15.5563 26.3372C16.5522 26.3372 17.3115 26.643 17.8102 27.2457C18.1959 27.7112 18.9342 27.8604 19.5263 27.5907L20.0039 27.3737C20.3339 27.2231 20.5764 26.9594 20.6684 26.6475C20.7648 26.3221 20.691 25.9786 20.468 25.7059C19.3651 24.3559 17.6204 23.6131 15.5548 23.6131C12.4797 23.6131 10.2484 25.2915 10.2484 27.6027C10.2484 30.2605 13.0869 31.0108 15.3695 31.6149L15.4373 31.633C17.8313 32.2522 18.2517 32.6153 18.2517 33.1502C18.2517 34.3374 16.5748 34.4655 15.8531 34.4655C14.4806 34.4655 13.4877 34.0783 12.9815 33.3446C12.6214 32.8233 11.8696 32.6364 11.2338 32.9091L10.7335 33.1246C10.4126 33.2632 10.1686 33.5103 10.0616 33.8041C9.94859 34.1144 9.99378 34.4504 10.1851 34.7292C11.2579 36.2915 13.3235 37.188 15.8516 37.188H15.8531C19.2401 37.1895 21.5166 35.5608 21.5166 33.1351C21.5166 30.4262 18.5364 29.6231 16.1409 28.9783Z" fill="#A58EDE"/>
</svg>
