<svg width="100" height="60" viewBox="0 0 100 60" fill="none" xmlns="http://www.w3.org/2000/svg">
<path d="M27.0041 20.061H13.7523C11.9168 20.061 10.429 21.5489 10.429 23.3844V36.6362C10.429 38.4717 11.9168 39.9595 13.7523 39.9595H27.0041C28.8396 39.9595 30.3274 38.4717 30.3274 36.6362V23.3844C30.3274 21.5489 28.8396 20.061 27.0041 20.061ZM26.7121 35.2943C26.7121 35.8714 26.2393 36.3441 25.6622 36.3441H15.0942C14.5171 36.3441 14.0443 35.8714 14.0443 35.2943V24.7263C14.0443 24.1492 14.5171 23.6764 15.0942 23.6764H25.6622C26.2393 23.6764 26.7121 24.1492 26.7121 24.7263V35.2943Z" fill="black"/>
<path d="M18.2647 32.7149C17.9309 32.7149 17.6598 32.4438 17.6598 32.1101V27.8898C17.6598 27.5561 17.9309 27.2849 18.2647 27.2849H22.4919C22.8256 27.2849 23.0968 27.5561 23.0968 27.8898V32.1101C23.0968 32.4438 22.8256 32.7149 22.4919 32.7149H18.2647Z" fill="black"/>
<path d="M40.4575 29.1273C39.8387 28.9605 39.2546 28.8006 38.8027 28.5989C37.9614 28.2235 37.5721 27.7021 37.5721 26.9651C37.5721 25.5676 38.9279 24.9418 40.2697 24.9418C41.549 24.9418 42.6684 25.4703 43.4193 26.4297L43.4679 26.4923L44.5526 25.6441L44.5039 25.5815C43.5097 24.3161 42.0288 23.6139 40.3462 23.6139C39.2199 23.6139 38.1909 23.9198 37.447 24.4691C36.6126 25.0879 36.1677 25.9708 36.1677 27.0346C36.1677 29.5028 38.4898 30.1007 40.3601 30.5874C42.2512 31.088 43.4054 31.4634 43.4054 32.9096C43.4054 34.3279 42.2582 35.2457 40.4853 35.2457C39.6092 35.2457 37.9823 35.0162 36.9603 33.4519L36.9116 33.3754L35.7714 34.2028L35.8131 34.2723C36.7795 35.7324 38.4481 36.5736 40.3879 36.5736C43.0299 36.5736 44.8098 35.0788 44.8098 32.8609C44.8098 30.3162 42.3972 29.6627 40.4505 29.1343L40.4575 29.1273Z" fill="black"/>
<path d="M53.4311 28.6128C52.6941 27.6186 51.6095 27.0693 50.3372 27.0693C47.9176 27.0693 46.2281 29.023 46.2281 31.818C46.2281 34.606 47.9176 36.5458 50.3372 36.5458C51.6165 36.5458 52.708 36.0035 53.4311 35.0023V39.9596H54.7034V27.271H53.4311V28.6128ZM50.4415 35.3082C49.0509 35.3082 47.57 34.3835 47.57 31.7971C47.57 30.1076 48.3209 28.3069 50.4415 28.3069C52.2561 28.3069 53.4311 29.6766 53.4311 31.7971C53.4311 33.9316 52.2561 35.3082 50.4415 35.3082Z" fill="black"/>
<path d="M63.1162 32.2839C63.1162 34.0359 61.9134 35.3083 60.2656 35.3083C58.889 35.3083 58.2216 34.4948 58.2216 32.8192V27.2779H56.9492V33.0765C56.9492 35.2457 58.1312 36.5458 60.1057 36.5458C61.3363 36.5458 62.4001 36.0244 63.1162 35.0649V36.3373H64.3886V27.271H63.1162V32.2839Z" fill="black"/>
<path d="M70.2705 27.0693C68.9912 27.0693 67.7189 27.4934 66.7803 28.2304L66.7177 28.2791L67.3852 29.2872L67.4547 29.2247C68.2473 28.5363 69.4084 28.293 70.2357 28.293C70.7016 28.293 72.2242 28.3834 72.2242 29.5584C72.2242 30.5943 70.9588 30.789 69.7351 30.9767C69.5822 30.9976 69.4362 31.0254 69.2902 31.0463C68.3933 31.1923 66.3005 31.5468 66.3005 33.7717C66.3005 35.482 67.5103 36.5528 69.457 36.5528C70.6529 36.5528 71.5846 36.1425 72.2242 35.343V36.3511H73.4965V29.7739C73.4965 28.0914 72.2868 27.0832 70.2705 27.0832V27.0693ZM69.5822 35.3082C68.9912 35.3082 67.6285 35.1483 67.6285 33.6952C67.6285 32.6871 68.2681 32.3812 69.5266 32.1517C69.6517 32.1309 69.7838 32.1031 69.9229 32.0822C70.7155 31.9431 71.6054 31.7902 72.2242 31.4008V32.7149C72.2242 34.6269 70.8545 35.3082 69.5752 35.3082H69.5822Z" fill="black"/>
<path d="M80.8593 27.4518C80.5604 27.2362 80.0806 27.1041 79.587 27.1041C78.5858 27.1041 77.5638 27.6395 77.0076 28.4321V27.2779H75.7352V36.3442H77.0076V31.4912C77.0076 29.3429 78.2173 28.3765 79.4132 28.3765C79.7817 28.3765 80.1849 28.4599 80.4283 28.592L80.5117 28.6407L80.908 27.4865L80.8593 27.4518Z" fill="black"/>
<path d="M85.4828 27.0693C82.9799 27.0693 81.2347 29.03 81.2347 31.8319C81.2347 34.6547 82.9799 36.5458 85.5871 36.5458C87.4296 36.5458 88.5489 35.6559 89.1608 34.9119L89.2094 34.8494L88.2847 34.0289L88.2291 34.0985C87.6242 34.8772 86.7065 35.3082 85.6497 35.3082C83.8072 35.3082 82.6044 34.022 82.5766 32.0196H89.5293L89.5362 31.9431C89.5432 31.8667 89.571 31.5955 89.571 31.2965C89.571 28.8075 87.8884 27.0693 85.4828 27.0693ZM82.6183 30.9072C82.7921 29.315 83.8907 28.293 85.4481 28.293C87.3322 28.293 88.1179 29.6279 88.2222 30.9072H82.6183Z" fill="black"/>
</svg>
