<svg xmlns="http://www.w3.org/2000/svg" width="100" height="60" fill="none"><path fill="#B93BE4" d="M0 0h100v60H0z"/><path fill="#fff" d="M75.497 20.828v.704l1.971.986-1.972.986v.704l3.392-1.69zm0 4.085v.704l4.107-2.042 4.108 2.042v-.704l-4.108-2.043zm4.107-4.87L75.496 18v.704l4.108 2.042 4.108-2.042V18zm4.108 2.757v-.704l-1.972-.986 1.972-.986v-.704l-3.392 1.69zm-8.216-2.676 8.204 4.084v-.704l-8.204-4.084z"/><path fill="#fff" d="M37.59 33.984v-3.58h4.787v-4.787H37.59v-4.789h-4.788v13.145c0 4.412 3.603 8.015 8.027 8.015h1.561v-4.776h-1.56a3.23 3.23 0 0 1-3.24-3.228m-15.234-1.866 2.417 4.401a.463.463 0 0 1-.41.693h-8.075V42h9.424c3.345 0 5.47-3.58 3.861-6.502l-2.417-4.4a.463.463 0 0 1 .41-.693h4.19v-4.777H26.23c-3.357 0-5.481 3.568-3.873 6.49m52.002-1.713h1.15v-4.788h-1.02a9.18 9.18 0 0 0-7.183 3.462 9.16 9.16 0 0 0-7.183-3.462h-1.02v4.788h1.15c2.1 0 3.86 1.455 4.342 3.403a4.48 4.48 0 0 1-4.343 3.404h-1.15v-3.556c0-4.6-3.743-8.345-8.356-8.345-4.6 0-8.356 3.744-8.356 8.345 0 4.6 3.756 8.344 8.356 8.344h2.524v-4.788h-2.524a3.564 3.564 0 0 1-3.567-3.556 3.564 3.564 0 0 1 3.567-3.556 3.564 3.564 0 0 1 3.568 3.556V42h5.81a9.18 9.18 0 0 0 7.182-3.462A9.16 9.16 0 0 0 74.487 42h1.021v-4.788h-1.15a4.48 4.48 0 0 1-4.342-3.404 4.45 4.45 0 0 1 4.342-3.403"/></svg>