<svg width="100" height="60" viewBox="0 0 100 60" fill="none" xmlns="http://www.w3.org/2000/svg">
<rect width="100" height="60" fill="#B93BE4"/>
<path d="M75.4965 20.8284V21.5325L77.4682 22.5184L75.4965 23.5042V24.2083L78.8882 22.5184L75.4965 20.8284ZM75.4965 24.9125V25.6167L79.6041 23.5746L83.7117 25.6167V24.9125L79.6041 22.8704L75.4965 24.9125ZM79.6041 20.0421L75.4965 18V18.7042L79.6041 20.7462L83.7117 18.7042V18L79.6041 20.0421ZM83.7117 22.8V22.0959L81.7401 21.11L83.7117 20.1242V19.4201L80.32 21.11L83.7117 22.8ZM75.4965 20.1242L83.7 24.2083V23.5042L75.4965 19.4201V20.1242Z" fill="white"/>
<path d="M37.5892 33.9843V30.4048H42.3774V25.6166H37.5892V20.8283H32.8009V33.9726C32.8009 38.3853 36.4038 41.9883 40.8283 41.9883H42.3892V37.2117H40.8283C39.0327 37.2117 37.5892 35.7682 37.5892 33.9843ZM22.3558 32.1183L24.7735 36.5193C24.9495 36.8362 24.7265 37.2117 24.3627 37.2117H16.2883V42H25.7123C29.0571 42 31.1813 38.4205 29.5735 35.4983L27.1559 31.0973C26.9798 30.7804 27.2028 30.4048 27.5666 30.4048H31.7564V25.6283H26.2287C22.8722 25.6283 20.748 29.196 22.3558 32.1183ZM74.358 30.4048H75.5082V25.6166H74.4871C71.6587 25.6166 69.0182 26.9193 67.3047 29.0787C65.5795 26.9075 62.9506 25.6166 60.1223 25.6166H59.1012V30.4048H60.2514C62.3521 30.4048 64.1125 31.8601 64.5937 33.8083C64.1125 35.7565 62.3521 37.2117 60.2514 37.2117H59.1012V33.6557C59.1012 29.0552 55.3575 25.3114 50.7452 25.3114C46.1447 25.3114 42.3892 29.0552 42.3892 33.6557C42.3892 38.2562 46.1447 42 50.7452 42H53.2685V37.2117H50.7452C48.7736 37.2117 47.1775 35.6156 47.1775 33.6557C47.1775 31.6958 48.7736 30.0997 50.7452 30.0997C52.7169 30.0997 54.313 31.6958 54.313 33.6557V42H60.1223C62.9506 42 65.5912 40.6973 67.3047 38.5379C69.0299 40.709 71.6587 42 74.4871 42H75.5082V37.2117H74.358C72.2573 37.2117 70.4969 35.7565 70.0157 33.8083C70.4852 31.8484 72.2456 30.4048 74.358 30.4048Z" fill="white"/>
</svg>
