<svg xmlns="http://www.w3.org/2000/svg" width="100" height="60" fill="none"><path fill="#129566" d="M0 0h100v60H0z"/><path fill="#fff" d="M33.476 26.04c0-8.88 7.33-16.078 16.375-16.078s16.375 7.199 16.375 16.077c0 8.88-7.33 16.078-16.375 16.078S33.476 34.92 33.476 26.04m16.375 14.953c8.41 0 15.228-6.696 15.228-14.954 0-8.257-6.817-14.951-15.228-14.951s-15.228 6.694-15.228 14.95c0 8.259 6.817 14.955 15.228 14.955"/><path fill="#fff" d="M54.366 22.66c2.6 3.868 1.472 9.046-2.519 11.563-3.99 2.52-9.33 1.427-11.93-2.44l2.476-1.614c1.69 2.51 5.158 3.222 7.75 1.586 2.59-1.636 3.323-5 1.635-7.51z"/><path fill="#fff" d="M60.133 19.112c-2.604-3.866-7.948-4.952-11.934-2.43-3.987 2.525-5.108 7.705-2.504 11.57l2.52-1.55c-1.689-2.51-.96-5.87 1.628-7.51 2.59-1.64 6.057-.932 7.75 1.576zM59.07 45.472h.811l-.339 1.959h2.205l.34-1.96h.811l-.815 4.713h-.812l.343-1.986H59.41l-.343 1.986h-.812zm-5.51 2.45.002-.013c.231-1.34 1.405-2.437 2.804-2.437.852 0 1.314.303 1.682.734l-.627.612c-.31-.35-.665-.585-1.193-.585-.878 0-1.653.74-1.812 1.663l-.003.013c-.159.922.352 1.67 1.237 1.67.568 0 .97-.23 1.432-.606l.428.538c-.57.512-1.155.835-2.02.835-1.346 0-2.165-1.07-1.93-2.424m-2.126-1.682H49.97l.133-.768h3.75l-.133.767h-1.466l-.682 3.945h-.819l.682-3.945m-3.019-.767h.812l-.815 4.712h-.812zm-7.916.013h.878l.498 3.494 1.742-3.507h.686l.53 3.507 1.706-3.494h.852l-2.425 4.746h-.706l-.55-3.386-1.72 3.386h-.7zm-4.735 4.08.59-.592c.376.39.786.612 1.354.612.502 0 .86-.242.92-.592l.003-.014c.058-.336-.095-.518-.918-.72-.942-.242-1.445-.538-1.295-1.407l.002-.013c.14-.808.897-1.367 1.814-1.367.674 0 1.172.209 1.575.593l-.544.626c-.362-.317-.748-.485-1.17-.485-.476 0-.797.249-.85.559l-.002.013c-.063.364.12.525.974.74.935.243 1.375.6 1.24 1.38l-.002.014c-.153.882-.923 1.407-1.894 1.407-.706 0-1.33-.25-1.797-.754"/></svg>