<svg width="100" height="60" viewBox="0 0 100 60" fill="none" xmlns="http://www.w3.org/2000/svg">
<rect width="100" height="60" fill="#129566"/>
<path d="M33.4761 26.0399C33.4761 17.1599 40.8061 9.96191 49.8511 9.96191C58.8951 9.96191 66.2261 17.1609 66.2261 26.0389C66.2261 34.9199 58.8951 42.1169 49.8511 42.1169C40.8071 42.1169 33.4761 34.9199 33.4761 26.0399ZM49.8511 40.9929C58.2611 40.9929 65.0791 34.2969 65.0791 26.0389C65.0791 17.7819 58.2621 11.0879 49.8511 11.0879C41.4401 11.0879 34.6231 17.7819 34.6231 26.0389C34.6231 34.2969 41.4401 40.9929 49.8511 40.9929Z" fill="white"/>
<path d="M54.3661 22.6599C56.9661 26.5279 55.8381 31.7059 51.8471 34.2229C47.8571 36.7429 42.5161 35.6499 39.9171 31.7829L42.3931 30.1689C44.0831 32.6789 47.5511 33.3909 50.1421 31.7549C52.7321 30.1189 53.4661 26.7559 51.7781 24.2449L54.3661 22.6599Z" fill="white"/>
<path d="M60.1331 19.1119C57.5291 15.2459 52.1851 14.1599 48.1991 16.6819C44.2121 19.2069 43.0911 24.3869 45.6951 28.2519L48.2151 26.7019C46.5261 24.1929 47.2551 20.8319 49.8431 19.1919C52.4321 17.5519 55.9001 18.2599 57.5931 20.7679L60.1331 19.1119Z" fill="white"/>
<path d="M59.0691 45.4719H59.8811L59.5421 47.4309H61.7471L62.0861 45.4719H62.8981L62.0831 50.1839H61.2711L61.6141 48.1979H59.4101L59.0671 50.1839H58.2551L59.0691 45.4719ZM53.5601 47.9219L53.5621 47.9089C53.7931 46.5689 54.9671 45.4719 56.3661 45.4719C57.2181 45.4719 57.6801 45.7749 58.0481 46.2059L57.4211 46.8179C57.1111 46.4679 56.7561 46.2329 56.2281 46.2329C55.3501 46.2329 54.5751 46.9729 54.4161 47.8959L54.4131 47.9089C54.2541 48.8309 54.7651 49.5789 55.6501 49.5789C56.2181 49.5789 56.6201 49.3489 57.0821 48.9729L57.5101 49.5109C56.9401 50.0229 56.3551 50.3459 55.4901 50.3459C54.1441 50.3459 53.3251 49.2759 53.5601 47.9219ZM51.4341 46.2399H49.9701L50.1031 45.4719H53.8531L53.7201 46.2389H52.2541L51.5721 50.1839H50.7531L51.4351 46.2389M48.4161 45.4719H49.2281L48.4131 50.1839H47.6011L48.4161 45.4719ZM40.5001 45.4849H41.3781L41.8761 48.9789L43.6181 45.4719H44.3041L44.8341 48.9789L46.5401 45.4849H47.3921L44.9671 50.2309H44.2611L43.7111 46.8449L41.9901 50.2309H41.2901L40.5001 45.4849ZM35.7651 49.5649L36.3551 48.9729C36.7311 49.3629 37.1411 49.5849 37.7091 49.5849C38.2111 49.5849 38.5691 49.3429 38.6291 48.9929L38.6321 48.9789C38.6901 48.6429 38.5371 48.4609 37.7141 48.2589C36.7721 48.0169 36.2691 47.7209 36.4191 46.8519L36.4211 46.8389C36.5611 46.0309 37.3181 45.4719 38.2351 45.4719C38.9091 45.4719 39.4071 45.6809 39.8101 46.0649L39.2661 46.6909C38.9041 46.3739 38.5181 46.2059 38.0961 46.2059C37.6201 46.2059 37.2991 46.4549 37.2461 46.7649L37.2441 46.7779C37.1811 47.1419 37.3641 47.3029 38.2181 47.5179C39.1531 47.7609 39.5931 48.1179 39.4581 48.8979L39.4561 48.9119C39.3031 49.7939 38.5331 50.3189 37.5621 50.3189C36.8561 50.3189 36.2321 50.0689 35.7651 49.5649Z" fill="white"/>
</svg>
