<svg xmlns="http://www.w3.org/2000/svg" width="100" height="60" fill="none"><path fill="#009393" d="M0 0h100v60H0z"/><path fill="#fff" d="M20.831 29.947c2.566 0 4.71-.433 5.235-1.013-.445-.492-2.055-.878-4.098-.985v1.225a22 22 0 0 1-2.273 0V27.95c-2.044.106-3.654.492-4.098.984.524.58 2.669 1.013 5.234 1.013"/><path fill="#fff" d="M14.926 21.5h12.016c.287 0 .552.151.695.397l3.5 6.01a.784.784 0 0 1-.13.959l-9.637 9.406a.81.81 0 0 1-1.126 0l-9.623-9.394a.785.785 0 0 1-.12-.977l3.742-6.023a.8.8 0 0 1 .683-.378m10.465 2.684h-9.12v1.686h3.424v1.17c-2.404.124-4.208.638-4.221 1.253v1.282c.013.615 1.817 1.128 4.22 1.253v2.87h2.274v-2.87c2.404-.125 4.207-.638 4.22-1.253v-1.282c-.013-.615-1.816-1.129-4.22-1.254V25.87h3.423zM35.829 24.762l2.777-.309v2.662h2.411v2.315h-2.43v3.588q0 1.273 1.08 1.273.695 0 1.157-.231l.637 2.314a6.5 6.5 0 0 1-2.006.425q-1.678.077-2.662-.791-.965-.888-.965-2.99V29.43h-1.697v-2.315h1.697zM44.411 32.728h7.002q.444-2.836-.906-4.378-1.33-1.544-3.858-1.544-2.315 0-3.684 1.37-1.37 1.35-1.37 3.55 0 2.334 1.389 3.703 1.408 1.37 3.954 1.37 2.662 0 4.09-1.408l-1.563-1.737q-.869.753-2.469.753-1.119 0-1.794-.463-.676-.483-.79-1.216m4.514-2.025h-4.514q.213-.714.81-1.119.6-.405 1.428-.405.925 0 1.582.405.655.385.694 1.12M53.73 24.762l2.777-.309v2.662h2.411v2.315h-2.43v3.588q0 1.273 1.08 1.273.695 0 1.157-.231l.637 2.314a6.5 6.5 0 0 1-2.006.425q-1.679.077-2.662-.791-.965-.888-.965-2.99V29.43h-1.697v-2.315h1.697zM63.2 23.084h-2.797v13.502h2.778v-4.822q0-1.1.598-1.717.618-.617 1.524-.617.83 0 1.312.54.501.54.501 1.524v5.092h2.778v-5.111q0-4.572-3.8-4.572-1.87 0-2.894 1.33zM80.788 32.728h-7.002q.115.734.79 1.216.676.462 1.795.463 1.6 0 2.469-.753l1.563 1.736q-1.428 1.41-4.09 1.409-2.547 0-3.954-1.37-1.39-1.37-1.39-3.704 0-2.199 1.37-3.549 1.37-1.37 3.685-1.37 2.526 0 3.858 1.544 1.35 1.543.906 4.378m-7.002-2.025H78.3q-.039-.733-.695-1.119-.655-.405-1.581-.405-.83 0-1.428.405-.599.405-.81 1.12M84.525 27.077H81.94v9.51h2.778v-4.958q0-1.022.636-1.601.637-.598 1.582-.598.849 0 1.524.482l1.158-2.199q-.984-.868-2.335-.868-1.639 0-2.546 1.273z"/></svg>