<svg width="100" height="60" viewBox="0 0 100 60" fill="none" xmlns="http://www.w3.org/2000/svg">
<path d="M20.8312 29.9474C23.3968 29.9474 25.5412 29.5135 26.066 28.9339C25.621 28.4425 24.0112 28.0557 21.9677 27.9495V29.1738C21.6014 29.1928 21.2212 29.2029 20.8312 29.2029C20.4413 29.2029 20.0611 29.1928 19.6948 29.1738V27.9495C17.6512 28.0557 16.0415 28.4425 15.5965 28.9339C16.1213 29.5135 18.2657 29.9474 20.8312 29.9474Z" fill="#009393"/>
<path d="M14.9258 21.5H26.9422C27.2289 21.5 27.4938 21.6513 27.6367 21.8968L31.1376 27.9076C31.3192 28.2193 31.2652 28.6127 31.0063 28.8655L21.3701 38.2715C21.0579 38.5762 20.5558 38.5762 20.2436 38.2715L10.6205 28.8782C10.3555 28.6195 10.3059 28.2146 10.5007 27.901L14.2429 21.8776C14.3886 21.643 14.6472 21.5 14.9258 21.5ZM25.3906 24.1836V25.8701H21.9677V27.0394C24.3718 27.1644 26.1754 27.6776 26.1888 28.2927L26.1887 29.5751C26.1753 30.1903 24.3718 30.7035 21.9677 30.8285V33.6981H19.6948V30.8285C17.2907 30.7035 15.487 30.1903 15.4736 29.5751L15.4737 28.2927C15.4871 27.6776 17.2907 27.1644 19.6948 27.0394V25.8701H16.2718V24.1836H25.3906Z" fill="#009393"/>
<path d="M35.8285 24.7618L38.6062 24.4531V27.1151H41.0174V29.4299H38.5869V33.0179C38.5869 33.8666 38.947 34.291 39.6672 34.291C40.1301 34.291 40.5158 34.2138 40.8245 34.0595L41.4611 36.3743C40.831 36.6186 40.1622 36.7601 39.455 36.7987C38.3361 36.8501 37.4488 36.5865 36.793 36.0078C36.15 35.4162 35.8285 34.4196 35.8285 33.0179V29.4299H34.131V27.1151H35.8285V24.7618Z" fill="#009393"/>
<path d="M44.4113 32.7285H51.4135C51.7093 30.8381 51.4071 29.3785 50.5068 28.3496C49.6195 27.3209 48.3335 26.8065 46.6489 26.8065C45.1057 26.8065 43.8776 27.263 42.9646 28.176C42.0515 29.0763 41.595 30.2594 41.595 31.7254C41.595 33.2815 42.0579 34.516 42.9839 35.4291C43.9226 36.3421 45.2408 36.7986 46.9383 36.7986C48.7129 36.7986 50.0761 36.3293 51.0277 35.3905L49.4652 33.6544C48.8865 34.1559 48.0635 34.4067 46.9961 34.4067C46.2503 34.4067 45.6523 34.2524 45.2022 33.9437C44.7521 33.6222 44.4884 33.2171 44.4113 32.7285ZM48.9251 30.7031H44.4113C44.5528 30.2272 44.8228 29.8543 45.2215 29.5842C45.6202 29.3141 46.0959 29.1791 46.6489 29.1791C47.2662 29.1791 47.7934 29.3141 48.2307 29.5842C48.6679 29.8414 48.8994 30.2144 48.9251 30.7031Z" fill="#009393"/>
<path d="M53.7292 24.7618L56.507 24.4531V27.1151H58.9182V29.4299H56.4877V33.0179C56.4877 33.8666 56.8478 34.291 57.5679 34.291C58.0309 34.291 58.4167 34.2138 58.7253 34.0595L59.3619 36.3743C58.7318 36.6186 58.063 36.7601 57.3558 36.7987C56.2369 36.8501 55.3496 36.5865 54.6938 36.0078C54.0508 35.4162 53.7292 34.4196 53.7292 33.0179V29.4299H52.0318V27.1151H53.7292V24.7618Z" fill="#009393"/>
<path d="M63.2004 23.0835H60.4034V36.5864H63.1811V31.764C63.1811 31.031 63.3805 30.4587 63.7791 30.0472C64.1906 29.6357 64.6986 29.4299 65.3031 29.4299C65.856 29.4299 66.2933 29.6099 66.6147 29.97C66.9491 30.3301 67.1163 30.8381 67.1163 31.4939V36.5864H69.894V31.4746C69.894 28.4268 68.6273 26.9029 66.0939 26.9029C64.8465 26.9029 63.882 27.3466 63.2004 28.2339V23.0835Z" fill="#009393"/>
<path d="M80.7879 32.7285H73.7859C73.8631 33.2171 74.1268 33.6222 74.5765 33.9437C75.0268 34.2524 75.625 34.4067 76.3711 34.4067C77.4381 34.4067 78.2614 34.1559 78.8397 33.6544L80.4026 35.3905C79.4507 36.3293 78.0878 36.7986 76.3132 36.7986C74.6151 36.7986 73.2973 36.3421 72.3585 35.4291C71.4326 34.516 70.9696 33.2815 70.9696 31.7254C70.9696 30.2594 71.4262 29.0763 72.3393 28.176C73.2523 27.263 74.4801 26.8065 76.0237 26.8065C77.7083 26.8065 78.994 27.3209 79.8816 28.3496C80.7815 29.3785 81.0838 30.8381 80.7879 32.7285ZM73.7859 30.7031H78.3C78.2743 30.2144 78.0427 29.8414 77.6054 29.5842C77.168 29.3141 76.6406 29.1791 76.0237 29.1791C75.4706 29.1791 74.9946 29.3141 74.5958 29.5842C74.1974 29.8543 73.9274 30.2272 73.7859 30.7031Z" fill="#009393"/>
<path d="M84.5247 27.0765H81.9397V36.5864H84.7177V31.6289C84.7177 30.9473 84.93 30.4137 85.3545 30.0279C85.779 29.6292 86.3058 29.4299 86.9361 29.4299C87.5021 29.4299 88.0096 29.5906 88.4598 29.9121L89.6176 27.7131C88.9615 27.1344 88.1832 26.845 87.2834 26.845C86.19 26.845 85.3416 27.2694 84.737 28.1182L84.5247 27.0765Z" fill="#009393"/>
</svg>
