<svg width="100" height="60" viewBox="0 0 100 60" fill="none" xmlns="http://www.w3.org/2000/svg">
<rect width="100" height="60" fill="#1B5AFE"/>
<path d="M34.5061 26.8911V34.8848H36.6708V26.8911H40.1937V24.9811H30.9833V26.8911H34.5061ZM39.6549 27.3863V34.8848H41.7488V31.4609C41.7488 30.6969 41.9044 30.131 42.2157 29.749C42.5269 29.367 42.9797 29.1689 43.5598 29.1689C43.8993 29.1689 44.2672 29.2255 44.6492 29.3246L45.0877 27.4429C44.635 27.3155 44.2247 27.2448 43.8569 27.2448C42.9372 27.2448 42.2015 27.5419 41.6498 28.1078H41.6215V27.3863H39.6549ZM45.7308 31.6731C45.7308 32.7626 46.0279 33.6114 46.6221 34.2057C47.2163 34.7999 48.0511 35.097 49.1263 35.097C50.1733 35.097 51.008 34.7999 51.6588 34.1774H51.6871V34.8848H53.7103V27.3863H51.6164V31.3619C51.6164 31.8995 51.4325 32.3523 51.0646 32.6918C50.6968 33.0314 50.2299 33.2011 49.664 33.2011C49.0697 33.2011 48.6029 33.0455 48.2916 32.7343C47.9803 32.423 47.8247 31.9561 47.8247 31.3619V27.3863H45.7308V31.6731ZM54.8323 31.1497C54.8323 31.942 54.9879 32.6352 55.3274 33.2294C55.667 33.8237 56.148 34.2906 56.7847 34.616C57.4072 34.9414 58.1571 35.097 59.0343 35.097C59.8124 35.097 60.4915 34.9697 61.0716 34.715C61.6517 34.4603 62.1751 34.0783 62.6279 33.5831L61.3262 32.2815C60.9442 32.6777 60.5764 32.9606 60.2227 33.1304C59.869 33.3143 59.4728 33.3992 59.0201 33.3992C58.3976 33.3992 57.8883 33.2577 57.5204 32.9748C57.1384 32.6918 56.9262 32.2957 56.8979 31.8005H62.9816V31.2063C62.9816 30.4564 62.8118 29.7773 62.4864 29.1548C62.1468 28.5464 61.68 28.0654 61.0574 27.7117C60.4349 27.358 59.7275 27.174 58.9069 27.174C58.1146 27.174 57.4214 27.3438 56.7989 27.6834C56.1763 28.0229 55.6953 28.504 55.3557 29.0982C55.002 29.7066 54.8323 30.3857 54.8323 31.1497ZM60.9443 30.3291H56.9262C56.9828 29.8905 57.1809 29.5368 57.5487 29.268C57.9166 29.0133 58.3834 28.8718 58.9494 28.8718C59.5011 28.8718 59.9539 29.0133 60.3217 29.268C60.6896 29.5368 60.8877 29.8905 60.9443 30.3291ZM64.2944 31.0789C64.2944 32.4089 64.6764 33.3992 65.4545 34.0783C66.2327 34.7574 67.3362 35.097 68.7793 35.097C70.2083 35.097 71.3118 34.7574 72.09 34.0783C72.8681 33.3992 73.2643 32.4089 73.2643 31.0789V24.9811H71.0996V30.994C71.0996 31.758 70.9015 32.3098 70.5195 32.6635C70.1234 33.0314 69.5433 33.2011 68.7793 33.2011C68.0012 33.2011 67.4211 33.0314 67.0391 32.6635C66.643 32.3098 66.459 31.7439 66.459 30.9799V24.9811H64.2944V31.0789ZM74.4346 31.6166C74.6185 32.7343 75.1278 33.5973 75.9626 34.1915C76.7973 34.7999 77.8867 35.097 79.2166 35.097C80.0514 35.097 80.7871 34.9838 81.4096 34.7433C82.0321 34.5028 82.5273 34.1632 82.8668 33.7105C83.2064 33.2577 83.3762 32.7343 83.3762 32.14C83.3762 31.3053 83.0649 30.6262 82.4424 30.1169C81.8199 29.6075 80.8437 29.1972 79.5137 28.9001C78.778 28.7445 78.2121 28.603 77.8301 28.4757C77.4481 28.3625 77.1934 28.2351 77.052 28.1078C76.9105 27.9805 76.8397 27.8249 76.8397 27.6551C76.8397 27.358 76.9954 27.1174 77.3208 26.9194C77.6462 26.7213 78.0706 26.6223 78.58 26.6223C79.1883 26.6223 79.6977 26.7637 80.0938 27.0326C80.49 27.3155 80.7729 27.7117 80.9427 28.2493L83.0366 27.7541C82.8102 26.8486 82.2868 26.1271 81.4945 25.5894C80.688 25.0518 79.726 24.783 78.5941 24.783C77.816 24.783 77.1368 24.9103 76.5426 25.165C75.9484 25.4197 75.4815 25.7734 75.1561 26.212C74.8307 26.6506 74.6751 27.1316 74.6751 27.6692C74.6751 28.4191 74.958 29.0274 75.5523 29.4943C76.1465 29.9612 77.1227 30.3432 78.4809 30.6403C79.2025 30.8101 79.7684 30.9657 80.1646 31.1072C80.5607 31.2487 80.8295 31.4043 80.9851 31.5741C81.1266 31.7439 81.2115 31.9278 81.2115 32.1542C81.2115 32.522 81.0276 32.7909 80.688 32.9889C80.3485 33.187 79.8533 33.2719 79.2308 33.2719C78.4526 33.2719 77.8443 33.1163 77.4198 32.7767C76.9954 32.4371 76.6983 31.9137 76.5568 31.1921L74.4346 31.6166ZM84.6201 24.9811V34.8848H88.6523C90.2086 34.8848 91.4253 34.4745 92.3308 33.6397C93.2363 32.8191 93.689 31.5741 93.689 29.9329C93.689 28.8577 93.4768 27.9522 93.0665 27.2165C92.6421 26.4808 92.062 25.9149 91.3122 25.547C90.5623 25.1791 89.6851 24.9811 88.6806 24.9811H84.6201ZM88.6099 32.9889H86.7848V26.8769H88.6099C89.5719 26.8769 90.2935 27.1316 90.7887 27.6268C91.2697 28.1361 91.5244 28.9001 91.5244 29.9329C91.5244 31.0082 91.2697 31.7863 90.7887 32.2674C90.2935 32.7484 89.5719 32.9889 88.6099 32.9889Z" fill="white"/>
<path d="M16.3108 40C21.8336 40 26.3107 35.5228 26.3107 30C26.3107 24.4772 21.8336 20 16.3108 20C10.7879 20 6.31079 24.4772 6.31079 30C6.31079 35.5228 10.7879 40 16.3108 40ZM14.6389 35.4016V28.5424C14.6389 28.5136 14.6389 28.4848 14.6397 28.456C14.6405 28.4272 14.6413 28.3984 14.6429 28.3696C14.6445 28.3408 14.6461 28.312 14.6485 28.284C14.6509 28.2552 14.6533 28.2272 14.6565 28.1992L14.6661 28.1144C14.6693 28.0864 14.6733 28.0584 14.6781 28.0304C14.6821 28.0024 14.6869 27.9744 14.6917 27.9472C14.6965 27.9192 14.7021 27.892 14.7077 27.8648C14.7133 27.8376 14.7189 27.8104 14.7253 27.7832C14.7317 27.756 14.7381 27.7288 14.7453 27.7024L14.7561 27.6624L14.7669 27.6224C14.7741 27.596 14.7821 27.5696 14.7909 27.5432C14.7989 27.5168 14.8077 27.4904 14.8165 27.4648C14.8253 27.4384 14.8341 27.4128 14.8437 27.3872C14.8533 27.3616 14.8629 27.336 14.8733 27.3104L14.8889 27.2724L14.9045 27.2344C14.9149 27.2088 14.9261 27.184 14.9373 27.1592C14.9429 27.1468 14.9487 27.1344 14.9545 27.122C14.9603 27.1096 14.9661 27.0972 14.9717 27.0848C14.9837 27.06 14.9957 27.036 15.0085 27.0112L15.0469 26.9392C15.0597 26.9152 15.0733 26.8912 15.0869 26.868L15.0979 26.8491C15.1079 26.832 15.118 26.8145 15.1285 26.7976C15.1429 26.7744 15.1573 26.7512 15.1717 26.7288C15.1861 26.7064 15.2013 26.6832 15.2165 26.6608C15.2317 26.6384 15.2469 26.616 15.2629 26.5944C15.2789 26.572 15.2949 26.5504 15.3109 26.5288C15.3269 26.5072 15.3437 26.4856 15.3605 26.4648C15.3773 26.4432 15.3941 26.4224 15.4117 26.4016L15.4253 26.3853C15.4382 26.37 15.4509 26.3548 15.4645 26.34L15.5181 26.2792C15.5365 26.2592 15.5549 26.2392 15.5733 26.22C15.5917 26.2008 15.6109 26.1808 15.6301 26.1624C15.6493 26.1432 15.6685 26.124 15.6877 26.1056C15.7069 26.0872 15.7269 26.0688 15.7469 26.0504C15.7669 26.032 15.7869 26.0144 15.8077 25.9968L15.8272 25.9802C15.8412 25.9682 15.8551 25.9563 15.8693 25.9448C15.8901 25.9272 15.9109 25.9104 15.9325 25.8936L15.9475 25.8818C15.9639 25.869 15.9802 25.8562 15.9973 25.844C16.0189 25.828 16.0405 25.812 16.0629 25.796C16.0853 25.78 16.1069 25.7648 16.1293 25.7496C16.1517 25.7344 16.1741 25.7192 16.1973 25.7048C16.2197 25.6904 16.2429 25.676 16.2661 25.6616C16.2893 25.6472 16.3125 25.6336 16.3365 25.62C16.3597 25.6064 16.3837 25.5928 16.4077 25.58L16.4797 25.5416C16.5037 25.5288 16.5285 25.5168 16.5533 25.5048C16.5781 25.4928 16.6029 25.4816 16.6277 25.4704C16.6525 25.4592 16.6773 25.448 16.7029 25.4376L16.7409 25.422L16.7789 25.4064C16.8045 25.396 16.8301 25.3864 16.8557 25.3768C16.8761 25.3691 16.897 25.362 16.9176 25.355L16.9333 25.3496C16.9589 25.3408 16.9853 25.332 17.0117 25.324L17.0909 25.3C17.1173 25.292 17.1445 25.2848 17.1709 25.2784C17.1981 25.2712 17.2245 25.2648 17.2517 25.2584C17.2789 25.252 17.3061 25.2464 17.3333 25.2408C17.3605 25.2352 17.3885 25.2296 17.4157 25.2248C17.4429 25.22 17.4709 25.2152 17.4989 25.2112L17.5829 25.1992C17.6109 25.1952 17.6389 25.192 17.6677 25.1896C17.6936 25.1866 17.7203 25.1844 17.7463 25.1821L17.7525 25.1816C17.7813 25.1792 17.8093 25.1776 17.8381 25.176C17.8669 25.1744 17.8957 25.1736 17.9245 25.1728C17.9533 25.172 17.9821 25.172 18.0109 25.172H21.3877V28.5464H18.0109V35.4056L14.6389 35.4016ZM11.232 28.5752V25.168L14.6392 25.1688C14.6392 27.0496 13.1136 28.5752 11.232 28.5752Z" fill="white"/>
</svg>
