<svg width="100" height="60" viewBox="0 0 100 60" fill="none" xmlns="http://www.w3.org/2000/svg">
<rect width="100" height="60" fill="black"/>
<path d="M40.42 27.1849C40.687 31.755 39.157 35.65 36.046 38.923C34.283 40.777 32.16 42.058 29.671 42.653C29.035 42.806 28.375 42.854 27.727 42.949C27.6933 42.9539 27.6606 42.964 27.63 42.979H26.59C26.366 42.949 26.14 42.924 25.916 42.894C24.139 42.684 22.524 42.0499 21.113 40.9339C18.776 39.0859 17.563 36.5929 17.128 33.6699C17.074 33.3119 17.04 32.9509 16.999 32.5919V31.0359C17.009 31.0039 17.025 30.973 17.029 30.938C17.082 30.473 17.103 30.002 17.185 29.542C17.858 25.665 19.667 22.448 22.693 19.962C24.408 18.553 26.351 17.6139 28.541 17.2369C28.927 17.1719 29.318 17.128 29.707 17.075H30.994C31.377 17.13 31.762 17.169 32.14 17.24C35.272 17.838 37.572 19.595 39.085 22.416C39.873 23.8889 40.328 25.5169 40.418 27.1849H40.42ZM35.97 23.448C35.844 23.4113 35.7133 23.3931 35.582 23.3939C34.772 23.3959 33.963 23.408 33.154 23.406C32.972 23.406 32.897 23.472 32.86 23.648C32.39 25.948 31.922 28.2499 31.44 30.5499C31.255 31.4239 31.074 32.304 30.7 33.122C30.412 33.752 29.994 34.2599 29.335 34.5159C28.7107 34.7565 28.0292 34.8073 27.376 34.6619C26.538 34.4919 25.908 33.897 26.014 32.839C26.024 32.73 26.023 32.614 26.044 32.505C26.194 31.758 26.341 31.01 26.501 30.266C26.923 28.297 27.353 26.3309 27.774 24.3619C27.902 23.7619 27.611 23.412 27.006 23.408C26.604 23.405 26.204 23.408 25.802 23.406C25.379 23.406 24.957 23.411 24.536 23.405C24.364 23.402 24.295 23.47 24.26 23.638C23.825 25.684 23.378 27.725 22.948 29.77C22.682 31.033 22.352 32.2889 22.348 33.5979C22.348 34.2419 22.459 34.854 22.774 35.414C23.301 36.356 24.123 36.9399 25.106 37.3019C26.859 37.9399 28.646 37.918 30.441 37.518C31.834 37.21 32.941 36.464 33.684 35.207C34.0935 34.5049 34.3923 33.744 34.57 32.951C34.902 31.508 35.204 30.056 35.51 28.607C35.82 27.135 36.121 25.6619 36.42 24.1889C36.488 23.8189 36.326 23.553 35.97 23.448Z" fill="#D22328"/>
<path d="M85.852 29.5979C85.885 30.4479 85.683 31.2639 85.501 32.0829C85.177 33.5639 84.843 35.0429 84.519 36.5259C84.378 37.1589 83.997 37.4829 83.345 37.4869C82.673 37.4919 82.001 37.4889 81.33 37.4889C81.001 37.4889 80.977 37.4469 81.043 37.1159C81.433 35.2679 81.829 33.4239 82.207 31.5749C82.277 31.2349 82.313 30.8779 82.283 30.5349C82.221 29.9099 81.796 29.5599 81.172 29.5419C80.209 29.5139 79.493 29.9339 79.142 30.8339C78.892 31.4659 78.736 32.1409 78.588 32.8069C78.318 34.0009 78.088 35.2019 77.838 36.4019C77.682 37.1319 77.238 37.4919 76.507 37.4919H74.619C74.33 37.4919 74.292 37.4409 74.352 37.1519C74.886 34.6049 75.416 32.0629 75.951 29.5149C76.356 27.5779 76.763 25.6419 77.157 23.7039C77.204 23.4779 77.289 23.4079 77.51 23.4129C78.193 23.4269 78.882 23.4159 79.565 23.4169C80.165 23.4189 80.462 23.7739 80.339 24.3689C80.081 25.6149 79.817 26.8589 79.556 28.1059C79.531 28.2129 79.511 28.3219 79.49 28.4309C79.884 27.9576 80.389 27.5893 80.96 27.3589C82.001 26.9309 83.072 26.7769 84.155 27.1619C85.192 27.5269 85.812 28.4519 85.852 29.5979ZM63.942 29.8099C63.848 31.2569 63.525 32.6619 63.197 34.0619C62.998 34.9139 62.773 35.7589 62.551 36.6039C62.405 37.1589 62.051 37.4739 61.484 37.4859C60.808 37.5059 60.127 37.4939 59.452 37.4889C59.253 37.4889 59.206 37.4169 59.25 37.2229C59.3 37.0129 59.353 36.8029 59.41 36.5979C58.687 37.4759 57.723 37.7319 56.665 37.7739C56.038 37.7999 55.419 37.7609 54.82 37.5589C53.816 37.2209 53.249 36.5089 53.101 35.4529C53.0191 34.9044 53.0566 34.3446 53.211 33.8119C53.476 32.9219 54.1 32.3839 54.915 32.0399C55.786 31.6729 56.71 31.5449 57.64 31.4559C58.296 31.3939 58.95 31.3539 59.602 31.2859C59.78 31.2659 59.963 31.1959 60.13 31.1199C60.604 30.8999 60.83 30.4099 60.713 29.8999C60.631 29.5399 60.389 29.3329 60.055 29.2409C59.5113 29.0898 58.9349 29.1037 58.399 29.2809C57.952 29.4229 57.685 29.7509 57.585 30.2069C57.547 30.3829 57.462 30.4339 57.298 30.4309C56.425 30.4269 55.553 30.4299 54.682 30.4279C54.424 30.4279 54.39 30.3769 54.453 30.1259C54.826 28.5559 55.783 27.5519 57.336 27.1859C58.919 26.8129 60.506 26.8719 62.076 27.2959C62.275 27.3499 62.47 27.4339 62.653 27.5259C63.573 27.9829 64.011 28.7749 63.942 29.8109V29.8099ZM60.193 32.8939C59.866 32.9719 59.563 33.0569 59.255 33.1119C58.922 33.1689 58.582 33.1849 58.247 33.2269C57.77 33.2829 57.297 33.3429 56.887 33.6249C56.464 33.9169 56.341 34.3449 56.409 34.8349C56.465 35.2499 56.729 35.5019 57.111 35.6019C57.841 35.7959 58.53 35.6979 59.126 35.2079C59.846 34.6059 60.054 33.7519 60.193 32.8939ZM50.475 34.7599L48.951 32.5839C49.026 32.5139 49.084 32.4539 49.146 32.3959C50.889 30.8019 52.634 29.2019 54.376 27.5999C54.439 27.5399 54.464 27.4299 54.502 27.3419C54.418 27.3109 54.338 27.2549 54.25 27.2549C53.11 27.2489 51.968 27.2469 50.826 27.2559C50.7063 27.2632 50.593 27.3124 50.506 27.3949C49.581 28.3099 48.664 29.2339 47.743 30.1549C47.576 30.3209 47.403 30.4849 47.198 30.6849C47.224 30.5459 47.236 30.4639 47.253 30.3829C47.653 28.4669 48.055 26.5499 48.452 24.6329C48.605 23.8929 48.227 23.4249 47.484 23.4169C46.854 23.4109 46.224 23.4199 45.594 23.4109C45.418 23.4099 45.354 23.4809 45.321 23.6459C44.389 28.1589 43.451 32.6729 42.515 37.1869C42.464 37.4359 42.505 37.4889 42.757 37.4889C43.442 37.4899 44.127 37.4919 44.813 37.4889C45.453 37.4859 45.851 37.1539 45.983 36.5189C46.073 36.0989 46.155 35.6699 46.241 35.2459C46.323 34.8479 46.404 34.4429 46.493 34.0159C46.543 34.0859 46.574 34.1239 46.605 34.1739C47.285 35.2209 47.965 36.2709 48.639 37.3179C48.714 37.4359 48.799 37.4919 48.94 37.4899C49.95 37.4859 50.96 37.4899 51.97 37.4839C52.052 37.4839 52.186 37.4519 52.201 37.3999C52.224 37.3289 52.187 37.2139 52.138 37.1419C51.588 36.3469 51.031 35.5569 50.475 34.7599ZM72.476 27.3479C70.673 26.7149 68.863 26.8009 67.112 27.5539C65.906 28.0739 65.255 29.0269 65.24 30.3909C65.221 31.6059 65.696 32.3989 66.806 32.8509C67.289 33.0489 67.808 33.1609 68.312 33.3109C68.84 33.4659 69.382 33.5879 69.902 33.7759C70.346 33.9379 70.51 34.3159 70.396 34.7789C70.324 35.0869 70.109 35.2829 69.839 35.4139C69.416 35.6159 68.966 35.6339 68.519 35.5599C67.739 35.4319 67.43 35.1039 67.313 34.3189C67.292 34.1689 67.226 34.1129 67.087 34.1159C66.656 34.1199 66.227 34.1159 65.799 34.1159H64.534C64.283 34.1159 64.246 34.1579 64.266 34.4159C64.276 34.5129 64.289 34.6109 64.298 34.7089C64.49 36.1259 65.22 37.0939 66.593 37.5229C67.443 37.7879 68.309 37.8129 69.183 37.7719C70.031 37.7389 70.865 37.6239 71.657 37.3099C72.633 36.9209 73.337 36.2629 73.61 35.2099C73.69 34.8999 73.743 34.5769 73.753 34.2599C73.789 32.7899 73.363 31.9799 72.011 31.5119C71.41 31.3019 70.786 31.1749 70.177 30.9959C69.767 30.8759 69.349 30.7669 68.961 30.5859C68.482 30.3639 68.43 29.8079 68.817 29.4399C68.912 29.3519 69.027 29.2819 69.144 29.2269C69.522 29.0529 69.922 29.0189 70.326 29.0729C70.92 29.1539 71.244 29.4809 71.272 30.0299C71.282 30.2339 71.361 30.2939 71.552 30.2929C72.375 30.2869 73.2 30.2909 74.02 30.2899C74.284 30.2899 74.309 30.2649 74.309 30.0039C74.304 28.7389 73.677 27.7699 72.476 27.3479Z" fill="white"/>
</svg>
