<svg width="100" height="60" viewBox="0 0 100 60" fill="none" xmlns="http://www.w3.org/2000/svg">
<path d="M80.6121 8.10996L63.8961 8.10596H63.8911C63.8791 8.10596 63.8661 8.10896 63.8531 8.10896C61.5571 8.17896 58.6971 10.036 58.1761 12.326L50.2711 47.586C49.7501 49.897 51.1671 51.777 53.4471 51.812H71.0071C73.2531 51.7 75.4341 49.865 75.9471 47.602L83.8521 12.34C84.3821 10.006 82.9301 8.10996 80.6121 8.10996Z" fill="#01798A"/>
<path d="M50.27 47.5858L58.176 12.3258C58.696 10.0358 61.556 8.17881 63.853 8.10881L57.207 8.10381L45.232 8.10181C42.929 8.14881 40.032 10.0188 39.512 12.3258L31.604 47.5858C31.081 49.8968 32.5 51.7768 34.778 51.8118H53.447C51.167 51.7768 49.749 49.8968 50.27 47.5858Z" fill="#024381"/>
<path d="M31.6041 47.5859L39.5111 12.3259C40.0321 10.0189 42.9291 8.1489 45.2321 8.1019L29.8921 8.0979C27.5761 8.0979 24.6071 9.9889 24.0781 12.3259L16.1701 47.5859C16.1249 47.7945 16.0949 48.006 16.0801 48.2189V48.8729C16.2341 50.5569 17.5101 51.7839 19.3451 51.8129H34.7781C32.5001 51.7769 31.0811 49.8969 31.6041 47.5859Z" fill="#DD0228"/>
<path d="M45.556 33.795H45.846C46.113 33.795 46.292 33.705 46.376 33.526L47.131 32.388H49.151L48.73 33.137H51.152L50.845 34.284H47.962C47.63 34.787 47.222 35.024 46.73 34.996H45.23L45.556 33.796V33.795ZM45.224 35.439H50.531L50.192 36.685H48.058L47.733 37.887H49.809L49.471 39.133H47.394L46.912 40.91C46.792 41.207 46.949 41.34 47.381 41.31H49.073L48.759 42.468H45.509C44.894 42.468 44.683 42.113 44.876 41.401L45.493 39.133H44.165L44.502 37.887H45.83L46.155 36.685H44.887L45.224 35.439ZM53.694 32.379L53.61 33.109C53.61 33.109 54.612 32.351 55.52 32.351H58.88L57.595 37.04C57.489 37.575 57.032 37.842 56.225 37.842H52.417L51.525 41.134C51.474 41.31 51.547 41.401 51.739 41.401H52.488L52.213 42.423H50.308C49.577 42.423 49.273 42.201 49.393 41.756L51.913 32.38L53.694 32.379ZM56.539 33.705H53.54L53.182 34.97C53.182 34.97 53.682 34.606 54.516 34.593C55.348 34.58 56.298 34.593 56.298 34.593L56.539 33.705ZM55.453 36.639C55.674 36.669 55.798 36.581 55.813 36.373L55.997 35.706H52.994L52.742 36.639H55.453ZM53.427 38.154H55.158L55.126 38.909H55.586C55.82 38.909 55.936 38.834 55.936 38.686L56.071 38.197H57.511L57.318 38.909C57.156 39.503 56.725 39.813 56.025 39.843H55.103L55.098 41.134C55.081 41.341 55.267 41.446 55.648 41.446H56.515L56.235 42.468H54.157C53.574 42.496 53.289 42.216 53.295 41.622L53.427 38.154ZM32.451 26.134C32.216 27.294 31.672 28.184 30.828 28.817C29.991 29.438 28.912 29.75 27.591 29.75C26.348 29.75 25.437 29.432 24.855 28.793C24.452 28.339 24.251 27.763 24.251 27.065C24.251 26.777 24.285 26.467 24.353 26.134L25.761 19.292H27.887L26.498 26.056C26.456 26.243 26.438 26.418 26.441 26.575C26.439 26.921 26.524 27.205 26.697 27.427C26.949 27.756 27.357 27.919 27.927 27.919C28.58 27.919 29.119 27.759 29.537 27.433C29.956 27.11 30.229 26.653 30.352 26.056L31.745 19.292H33.86L32.451 26.134ZM41.379 23.442H43.044L41.739 29.548H40.078L41.378 23.442M41.903 21.218H43.583L43.269 22.7H41.589L41.903 21.218ZM44.517 29.083C44.082 28.663 43.862 28.098 43.86 27.379C43.8625 27.0902 43.8923 26.8022 43.949 26.519C44.146 25.527 44.566 24.739 45.214 24.159C45.861 23.576 46.641 23.283 47.554 23.283C48.303 23.283 48.896 23.493 49.33 23.916C49.765 24.339 49.982 24.912 49.982 25.639C49.979 25.9347 49.9472 26.2295 49.887 26.519C49.694 27.496 49.275 28.274 48.627 28.845C47.979 29.419 47.201 29.705 46.294 29.705C45.543 29.705 44.952 29.499 44.517 29.083ZM47.69 27.874C47.984 27.554 48.194 27.067 48.322 26.42C48.3627 26.2226 48.3835 26.0216 48.384 25.82C48.384 25.443 48.289 25.15 48.098 24.944C47.908 24.735 47.638 24.632 47.288 24.632C46.828 24.632 46.452 24.795 46.158 25.122C45.861 25.45 45.651 25.944 45.518 26.602C45.5004 26.7023 45.4847 26.803 45.471 26.904C45.461 27.005 45.458 27.1 45.46 27.186C45.46 27.56 45.555 27.849 45.746 28.053C45.936 28.257 46.204 28.358 46.558 28.358C47.021 28.358 47.397 28.197 47.69 27.874ZM60.784 33.847L61.186 32.423H63.216L63.128 32.945C63.128 32.945 64.165 32.423 64.912 32.423H67.422L67.022 33.847H66.628L64.735 40.564H65.129L64.754 41.898H64.359L64.195 42.477H62.229L62.393 41.897H58.515L58.893 40.564H59.282L61.177 33.847H60.784ZM62.974 33.847L62.457 35.665C62.457 35.665 63.341 35.323 64.103 35.226C64.271 34.591 64.491 33.846 64.491 33.846L62.974 33.847ZM62.218 36.517L61.7 38.42C61.7 38.42 62.68 37.934 63.352 37.893C63.546 37.157 63.74 36.516 63.74 36.516L62.218 36.517ZM62.598 40.564L62.987 39.183H61.472L61.081 40.563L62.598 40.564ZM67.508 32.334H69.415L69.496 33.044C69.484 33.224 69.59 33.311 69.816 33.311H70.154L69.812 34.514H68.41C67.874 34.542 67.599 34.335 67.573 33.89L67.508 32.334ZM66.948 34.914H73.128L72.766 36.205H70.798L70.461 37.405H72.427L72.062 38.695H69.872L69.377 39.45H70.449L70.696 40.962C70.726 41.112 70.858 41.186 71.084 41.186H71.417L71.067 42.431H69.89C69.28 42.461 68.964 42.255 68.938 41.81L68.654 40.428L67.679 41.898C67.449 42.313 67.094 42.507 66.616 42.477H64.816L65.166 41.231H65.728C65.958 41.231 66.151 41.127 66.324 40.919L67.85 38.694H65.88L66.245 37.405H68.379L68.719 36.205H66.582L66.948 34.914ZM34.41 23.44H35.91L35.739 24.322L35.954 24.07C36.441 23.546 37.032 23.285 37.73 23.285C38.362 23.285 38.818 23.47 39.104 23.842C39.385 24.215 39.462 24.729 39.329 25.389L38.502 29.55H36.959L37.706 25.779C37.783 25.389 37.761 25.099 37.643 24.912C37.525 24.724 37.301 24.632 36.978 24.632C36.581 24.632 36.247 24.757 35.975 25.004C35.701 25.254 35.521 25.6 35.433 26.041L34.744 29.551H33.198L34.41 23.44ZM51.628 23.44H53.13L52.96 24.322L53.173 24.07C53.66 23.546 54.253 23.285 54.949 23.285C55.581 23.285 56.037 23.47 56.321 23.842C56.601 24.215 56.682 24.729 56.545 25.389L55.721 29.55H54.176L54.923 25.779C55 25.389 54.979 25.099 54.861 24.912C54.74 24.724 54.52 24.632 54.198 24.632C53.801 24.632 53.468 24.757 53.192 25.004C52.919 25.254 52.738 25.6 52.652 26.041L51.961 29.551H50.417L51.628 23.44ZM59.055 19.653H63.418C64.257 19.653 64.905 19.845 65.351 20.221C65.795 20.602 66.018 21.149 66.018 21.861V21.882C66.018 22.018 66.008 22.171 65.996 22.336C65.9739 22.5043 65.9456 22.6718 65.911 22.838C65.719 23.78 65.272 24.538 64.583 25.112C63.891 25.684 63.073 25.972 62.129 25.972H59.789L59.066 29.55H57.04L59.055 19.653ZM60.145 24.251H62.086C62.592 24.251 62.993 24.133 63.286 23.898C63.576 23.662 63.768 23.3 63.875 22.81C63.891 22.72 63.902 22.638 63.915 22.562C63.922 22.492 63.93 22.42 63.93 22.352C63.93 22.001 63.806 21.747 63.559 21.588C63.311 21.426 62.923 21.348 62.385 21.348H60.737L60.145 24.251ZM75.084 30.732C74.444 32.104 73.834 32.904 73.474 33.277C73.116 33.645 72.406 34.501 70.694 34.437L70.841 33.389C72.281 32.941 73.061 30.925 73.505 30.032L72.975 23.457L74.089 23.442H75.024L75.124 27.567L76.877 23.442H78.65L75.084 30.732ZM70.124 23.94L69.419 24.428C68.683 23.847 68.011 23.488 66.713 24.094C64.946 24.92 63.469 31.256 68.335 29.169L68.613 29.501L70.527 29.551L71.784 23.793L70.124 23.939M69.035 27.087C68.728 28.001 68.041 28.606 67.503 28.434C66.965 28.266 66.773 27.384 67.085 26.467C67.392 25.551 68.083 24.948 68.617 25.12C69.155 25.288 69.349 26.17 69.035 27.087Z" fill="white"/>
</svg>
