<svg width="100" height="60" viewBox="0 0 100 60" fill="none" xmlns="http://www.w3.org/2000/svg">
<path d="M80.0856 33.4441C79.2638 33.4441 78.9139 32.6738 78.9139 31.429C78.9144 29.7881 79.2881 26.5807 81.109 26.5807C81.9313 26.5807 82.2057 27.3267 82.2057 28.4208C82.2057 30.0615 81.8067 33.4441 80.0856 33.4441ZM81.6326 23.0491C76.4697 23.0491 74.2256 27.0041 74.2256 31.2309C74.2256 34.4385 75.5223 37 79.438 37C84.7254 37 86.9453 32.6736 86.9453 28.4959C86.9453 25.3374 85.5234 23.0491 81.6326 23.0491ZM69.8312 23.0491C68.1111 23.0491 66.8634 23.5724 65.5421 24.5164C65.0673 23.6708 64.1201 23.0491 62.6734 23.0497C61.0026 23.0497 59.7562 23.7219 58.8335 24.3924L58.7088 23.2735H54.7425L52.6231 36.6767H57.261L58.7332 27.2776C59.1321 27.0782 59.7299 26.8049 60.3288 26.8049C60.7771 26.8049 61.1516 26.954 61.1516 27.6261C61.1516 27.7994 61.1021 28.0726 61.0777 28.2966L59.7561 36.6765H64.3697L65.8406 27.2775C66.2654 27.0534 66.8386 26.8048 67.4113 26.8048C67.8615 26.8048 68.2357 26.9538 68.2357 27.626C68.2357 27.7993 68.1845 28.0725 68.1602 28.2965L66.8386 36.6764H71.4531L72.8734 27.7241C72.9488 27.2528 73.0243 26.5315 73.0243 26.0343C73.0243 24.2431 72.2004 23.0491 69.8312 23.0491ZM48.6771 23.0494C46.9072 23.0494 45.6599 23.7216 44.7125 24.3432L44.6617 23.2733H40.6463L38.5266 36.6765H43.1661L44.6371 27.2775C45.0361 27.078 45.6351 26.8048 46.2327 26.8048C46.6827 26.8048 47.0569 26.9537 47.0569 27.5507C47.0569 27.7993 46.9814 28.2474 46.9568 28.47L45.6599 36.6764H50.2733L51.6951 27.7241C51.7704 27.2528 51.8461 26.5315 51.8461 26.0343C51.8461 24.2431 51.0219 23.0491 48.6771 23.0494ZM31.3405 28.6938C31.4654 27.2021 32.6113 26.1586 33.4846 26.1586C33.9837 26.1586 34.4073 26.4563 34.4073 27.0533C34.4073 28.2964 32.2124 28.6938 31.3405 28.6938ZM33.9342 23.0491C28.9962 23.0491 26.601 27.3267 26.601 31.3552C26.6009 34.4633 28.0734 36.9496 32.1876 36.9496C33.8095 36.9496 35.4804 36.6014 36.5526 36.0793L37.1258 32.2009C35.6041 32.9715 34.4333 33.2693 33.2105 33.2693C32.0875 33.2693 31.2405 32.6737 31.2405 31.1558C33.7849 31.1312 38.1733 30.0874 38.1731 26.6803C38.1731 24.5669 36.6529 23.0491 33.9342 23.0491ZM20.8853 23.8703C21.1595 24.4427 21.335 25.1379 21.335 26.1586C21.335 28.0232 20.012 30.7582 18.9399 32.4986L17.7926 23.2977L13.0547 23.746L15.2247 36.6765H20.6357C23.0047 33.5684 25.9237 29.1422 25.9237 25.735C25.9237 24.6667 25.6988 23.821 25.1999 23L20.8853 23.8703Z" fill="#008CFF"/>
</svg>
