<svg width="100" height="60" viewBox="0 0 100 60" fill="none" xmlns="http://www.w3.org/2000/svg">
<rect width="100" height="60" fill="#B6004F"/>
<path d="M37.6629 19.2402H75.3429C79.1289 19.2462 82.2769 20.4602 84.9369 22.9502C87.5529 25.4112 88.8329 28.3442 88.8729 31.9232L89.4129 31.9182L88.8729 31.9122C88.8329 35.4172 87.5559 38.3172 84.9349 40.8172L84.9369 40.8152C82.2749 43.3062 79.1249 44.5552 75.3429 44.5592H37.6629C37.5915 44.5597 37.5208 44.5743 37.455 44.6021C37.3892 44.6299 37.3296 44.6704 37.2794 44.7213C37.2293 44.7722 37.1897 44.8325 37.1628 44.8987C37.1359 44.9649 37.1224 45.0357 37.1229 45.1072C37.1229 45.4092 37.3639 45.6552 37.6629 45.6552H75.3429C79.3629 45.6602 82.8289 44.2912 85.6699 41.6202L85.6719 41.6172C88.4839 38.9562 89.9229 35.7022 89.9519 31.9232V31.9132C89.9229 28.0662 88.4859 24.7752 85.6699 22.1442C82.8269 19.4712 79.3589 18.1402 75.3429 18.1442H37.6629C37.5915 18.1447 37.5208 18.1593 37.455 18.1871C37.3892 18.2149 37.3296 18.2554 37.2794 18.3063C37.2293 18.3572 37.1897 18.4175 37.1628 18.4837C37.1359 18.5499 37.1224 18.6207 37.1229 18.6922C37.1229 18.9952 37.3639 19.2402 37.6629 19.2402Z" fill="white"/>
<path d="M34.3199 18.9402C36.4463 20.1863 38.2105 21.966 39.4379 24.1032C40.6929 26.2952 41.3189 28.7352 41.3539 31.3872C41.3189 34.0742 40.6929 36.5142 39.4379 38.6712C38.1849 40.8282 36.4779 42.5612 34.3189 43.8692C32.1949 45.1412 29.8269 45.7792 27.1449 45.8142C24.5329 45.7782 22.1299 45.1412 20.0049 43.8692C17.8459 42.5602 16.1399 40.8282 14.9209 38.6712C13.6329 36.5142 13.0059 34.1102 12.9709 31.3872C13.0059 28.7352 13.6329 26.2952 14.9209 24.1032C16.126 21.9601 17.8815 20.1777 20.0059 18.9402C22.1299 17.6682 24.5329 16.9952 27.1459 16.9602C29.7919 16.9952 32.1959 17.6682 34.3199 18.9402ZM27.1449 14.0262C23.9749 14.0612 21.0849 14.8392 18.5079 16.3942C15.9659 17.9502 13.9459 20.0372 12.3779 22.6172C10.8459 25.2342 10.0799 28.1692 10.0449 31.3872C10.0799 34.6052 10.8459 37.5392 12.3789 40.1562C13.9459 42.7722 15.9659 44.8592 18.5089 46.4502C21.0849 47.9702 23.9759 48.7482 27.1449 48.8192C30.3489 48.7842 33.2399 48.0062 35.8169 46.4502C38.3939 44.8592 40.4489 42.7722 41.9809 40.1562C43.4789 37.5392 44.2789 34.6052 44.3149 31.3862C44.2789 28.1692 43.5139 25.2342 41.9809 22.6172C40.4784 20.0605 38.3592 17.921 35.8169 16.3942C33.2399 14.8392 30.3489 14.0612 27.1449 14.0262ZM48.6329 26.3662H49.8169L51.0709 29.8662L52.3599 26.3662H53.5089L51.5589 31.3522H50.6189L48.6329 26.3662ZM62.2499 27.5322H63.3299V31.3162H62.2499V27.5322ZM62.2149 26.1532H63.3289V27.1082H62.2149V26.1532ZM58.8719 27.5332H59.9169V28.2762C60.0209 28.0282 60.1949 27.8162 60.3689 27.6742C60.5439 27.4972 60.7869 27.4272 61.1009 27.4622V28.5942H61.0659C60.6829 28.5942 60.4039 28.7002 60.2299 28.9122C60.0209 29.1242 59.9169 29.4782 59.9169 29.9372V31.3172H58.8719V27.5322V27.5332ZM56.6079 29.1232C56.5855 28.904 56.5009 28.6958 56.3639 28.5232C56.2963 28.4536 56.2151 28.3988 56.1252 28.3623C56.0353 28.3258 55.9389 28.3084 55.8419 28.3112C55.5979 28.3112 55.4239 28.3812 55.2849 28.5232C55.1449 28.7002 55.0409 28.8762 55.0069 29.1232H56.6079ZM55.9119 31.4232C55.6679 31.4232 55.3889 31.3522 55.1449 31.2462C54.9062 31.1721 54.6906 31.0378 54.5189 30.8562C54.3518 30.6843 54.2215 30.4801 54.1359 30.2562C54.0242 29.9991 53.9647 29.7224 53.9609 29.4422C53.9609 29.1602 53.9959 28.9122 54.1009 28.6642C54.2049 28.4162 54.3099 28.2042 54.4839 28.0282C54.6508 27.8482 54.8521 27.7037 55.0759 27.6032C55.3199 27.4972 55.5629 27.4622 55.8419 27.4622C56.1559 27.4622 56.3989 27.5322 56.6419 27.6392C56.8869 27.7452 57.0609 27.8872 57.1999 28.0992C57.3399 28.2762 57.4439 28.4872 57.5489 28.7352C57.6189 28.9822 57.6529 29.2652 57.6529 29.5132L57.6179 29.6542V29.7962H55.0409C55.0531 29.9065 55.087 30.0133 55.1408 30.1105C55.1945 30.2076 55.2669 30.2932 55.3539 30.3622C55.5279 30.4682 55.7029 30.5392 55.9459 30.5392C56.1209 30.5392 56.2599 30.5032 56.4339 30.4322C56.5389 30.3972 56.6779 30.2912 56.8509 30.1492L57.4439 30.6792C57.2888 30.9114 57.0716 31.0954 56.8169 31.2102C56.5729 31.3522 56.2599 31.4232 55.9119 31.4232ZM66.6029 31.3872C66.2199 31.3872 65.8719 31.3172 65.4889 31.1752C65.1409 31.0692 64.8269 30.8572 64.5139 30.5742L65.1749 29.8312C65.3849 30.0082 65.5929 30.1492 65.8369 30.2552C66.0809 30.3622 66.3249 30.4322 66.6029 30.4322C66.8469 30.4322 67.0209 30.3972 67.1259 30.2912C67.1796 30.2573 67.2237 30.2104 67.2542 30.1547C67.2846 30.0991 67.3004 30.0366 67.2999 29.9732V29.7602L67.1259 29.6192L66.8469 29.4782L66.3249 29.3002L65.6629 29.1242L65.1409 28.8412L64.8269 28.4162C64.7522 28.2252 64.7165 28.0212 64.7219 27.8162V27.7802L64.8269 27.1792C64.9319 27.0032 65.0369 26.8262 65.2099 26.7192C65.3499 26.5782 65.5239 26.4722 65.7329 26.4012C65.9419 26.3312 66.1849 26.2952 66.4289 26.2952C66.7769 26.2952 67.0909 26.3652 67.4039 26.4722C67.7179 26.5782 67.9959 26.7192 68.2399 26.9322L67.6829 27.7452L67.0209 27.3922C66.8268 27.2948 66.612 27.2461 66.3949 27.2502C66.1849 27.2502 66.0449 27.2852 65.9419 27.3922C65.8369 27.4622 65.7669 27.5682 65.7669 27.6742V27.7102L65.8369 27.9212L65.9769 28.0632L66.3249 28.2052L66.8469 28.3452L67.5089 28.5942C67.6829 28.6642 67.8569 28.7712 67.9959 28.8762L68.2749 29.2662C68.3449 29.4422 68.3789 29.6192 68.3789 29.8312V29.8662C68.3789 30.1142 68.3449 30.3262 68.2399 30.5032C68.1699 30.6802 68.0659 30.8572 67.8919 30.9982C67.5103 31.2528 67.0617 31.3882 66.6029 31.3872ZM69.7369 27.5322H70.8169V31.3162H69.7369V27.5322ZM69.7029 26.1532H70.8169V27.1082H69.7029V26.1532ZM77.5379 27.5322H78.5839V28.0632L78.7919 27.8512L79.0359 27.6392L79.3149 27.4972L79.6639 27.4622C80.0809 27.4622 80.3939 27.6032 80.6039 27.8512C80.8469 28.0982 80.9519 28.4162 80.9519 28.8762V31.3162H79.8719V29.1952C79.8719 28.9472 79.8369 28.7712 79.7329 28.6292C79.5997 28.5085 79.4245 28.445 79.2449 28.4522C79.0653 28.4448 78.8901 28.5084 78.7569 28.6292C78.6378 28.7933 78.5769 28.9925 78.5839 29.1952V31.3162H77.5379V27.5322ZM74.1949 30.1142L74.5779 30.0442C74.6859 30.0119 74.7829 29.9503 74.8579 29.8662C74.9353 29.7858 74.9944 29.6896 75.0309 29.5842C75.0743 29.471 75.098 29.3513 75.1009 29.2302L75.0309 28.8762C74.9939 28.7707 74.9346 28.6745 74.8569 28.5942L74.5779 28.4162L74.1949 28.3462L73.8469 28.4162L73.5689 28.5942C73.4702 28.6626 73.3967 28.7617 73.3599 28.8762L73.2899 29.2302C73.2899 29.5132 73.3949 29.7262 73.5689 29.8662C73.6502 29.9489 73.7478 30.0138 73.8556 30.0565C73.9635 30.0992 74.079 30.1188 74.1949 30.1142ZM74.0909 32.4482L73.2209 32.3412C72.9363 32.3065 72.6626 32.2103 72.4189 32.0592L72.8019 31.2462L73.3949 31.5282L74.0549 31.5992C74.4039 31.5992 74.6829 31.5282 74.8569 31.3522C75.0309 31.1752 75.1009 30.9282 75.1009 30.5742V30.3972C74.9609 30.5742 74.7869 30.7502 74.6129 30.8572C74.4389 30.9632 74.1949 30.9972 73.8829 30.9972C73.6729 30.9972 73.4639 30.9632 73.2549 30.8922C73.058 30.812 72.8799 30.6918 72.7319 30.5392C72.5884 30.3818 72.471 30.2025 72.3839 30.0082C72.2841 29.7613 72.2364 29.4964 72.2439 29.2302C72.2439 28.9472 72.2799 28.7002 72.3839 28.4872C72.4889 28.2402 72.5939 28.0632 72.7319 27.9212C72.9069 27.7452 73.0809 27.6392 73.2899 27.5682L73.8819 27.4622C74.1949 27.4622 74.4389 27.5322 74.6129 27.6392C74.7869 27.7452 74.9619 27.8512 75.1009 28.0282V27.5322H76.1459V30.4682C76.1459 31.1392 76.0059 31.6342 75.6929 31.9522C75.508 32.135 75.2805 32.269 75.0309 32.3422L74.0909 32.4482ZM51.3499 37.5742C50.9685 37.5726 50.5906 37.5011 50.2349 37.3632C49.8869 37.2572 49.5729 37.0442 49.2599 36.7612L49.9219 36.0192C50.1309 36.1962 50.3389 36.3372 50.5829 36.4432C50.8269 36.5502 51.0709 36.6202 51.3489 36.6202C51.5929 36.6202 51.7669 36.5852 51.8719 36.4792C51.9256 36.4453 51.9697 36.3984 52.0002 36.3427C52.0306 36.2871 52.0463 36.2246 52.0459 36.1612V35.9482L51.8719 35.8072L51.5929 35.6662L51.0709 35.4882L50.4089 35.3122L49.8869 35.0292L49.5729 34.6052C49.4984 34.4134 49.4631 34.2087 49.4689 34.0032V33.9682L49.5729 33.3672C49.6779 33.1902 49.7829 33.0142 49.9569 32.9072C50.0959 32.7662 50.2699 32.6602 50.4779 32.5892C50.6879 32.5192 50.9309 32.4832 51.1749 32.4832C51.5229 32.4832 51.8369 32.5532 52.1499 32.6602C52.4639 32.7662 52.7429 32.9072 52.9859 33.1202L52.4289 33.9332L51.7669 33.5792C51.5724 33.4821 51.3573 33.4337 51.1399 33.4382C50.9309 33.4382 50.7919 33.4732 50.6879 33.5792C50.5829 33.6492 50.5129 33.7562 50.5129 33.8622V33.8982L50.5829 34.1102L50.7229 34.2502L51.0709 34.3922L51.5929 34.5342L52.2549 34.7812C52.4289 34.8512 52.6029 34.9592 52.7429 35.0642L53.0209 35.4542C53.0909 35.6302 53.1249 35.8072 53.1249 36.0192V36.0542C53.1249 36.3022 53.0909 36.5142 52.9859 36.6912C52.9159 36.8682 52.8119 37.0442 52.6379 37.1862C52.2566 37.4411 51.8087 37.5763 51.3499 37.5742ZM61.2049 37.6102C60.94 37.6061 60.679 37.5461 60.4389 37.4342C60.2047 37.3339 59.9918 37.1896 59.8119 37.0092C59.6447 36.8369 59.5144 36.6324 59.4289 36.4082C59.3217 36.1623 59.2626 35.8982 59.2549 35.6302C59.2549 35.3482 59.3249 35.1002 59.4289 34.8522C59.5339 34.6052 59.6389 34.3922 59.8119 34.2162C59.9859 34.0392 60.1949 33.8982 60.4389 33.7912C60.6829 33.6862 60.9269 33.6502 61.2389 33.6502C61.5889 33.6502 61.8669 33.7202 62.1109 33.8272C62.3539 33.9332 62.5279 34.0742 62.7029 34.2862L62.0759 34.9942C61.9748 34.8592 61.8437 34.7497 61.6929 34.6742C61.5879 34.6042 61.4139 34.5702 61.2049 34.5702L60.8569 34.6402L60.5779 34.8882L60.3689 35.2062L60.2989 35.5942V35.6302C60.2989 35.7722 60.3339 35.9132 60.3689 36.0192C60.4038 36.1544 60.4767 36.2769 60.5789 36.3722C60.6453 36.4721 60.7432 36.547 60.8569 36.5852C60.9609 36.6202 61.1009 36.6552 61.2739 36.6552C61.4313 36.6579 61.5869 36.6219 61.7269 36.5502L62.1109 36.2662L62.7369 36.9032C62.5513 37.0954 62.3408 37.2618 62.1109 37.3982C61.8669 37.5392 61.5879 37.6102 61.2049 37.6102ZM57.0249 35.3122C57.0029 35.0927 56.9186 34.8842 56.7819 34.7112C56.7142 34.6418 56.6328 34.5872 56.543 34.5507C56.4532 34.5143 56.3568 34.4967 56.2599 34.4992C56.0159 34.4992 55.8419 34.5692 55.7029 34.7112C55.5629 34.8882 55.4589 35.0642 55.4239 35.3112H57.0259L57.0249 35.3122ZM56.3299 37.6102C56.0859 37.6102 55.8069 37.5402 55.5629 37.4342C55.3242 37.3602 55.1086 37.2258 54.9369 37.0442C54.7694 36.8723 54.6388 36.6682 54.5529 36.4442C54.442 36.1869 54.3829 35.9103 54.3789 35.6302C54.3789 35.3482 54.4139 35.1002 54.5189 34.8522C54.6229 34.6052 54.7279 34.3922 54.9019 34.2162C55.0685 34.0363 55.2694 33.8918 55.4929 33.7912C55.7358 33.6908 55.9972 33.6427 56.2599 33.6502C56.5729 33.6502 56.8169 33.7202 57.0599 33.8272C57.3049 33.9332 57.4789 34.0742 57.6179 34.2862C57.7579 34.4632 57.8619 34.6752 57.9669 34.9232C58.0359 35.1702 58.0709 35.4532 58.0709 35.7012L58.0359 35.8422V35.9832H55.4589C55.471 36.0937 55.5048 36.2007 55.5586 36.298C55.6123 36.3954 55.6848 36.4811 55.7719 36.5502C55.9459 36.6552 56.1209 36.7262 56.3639 36.7262C56.5389 36.7262 56.6779 36.6912 56.8509 36.6202C56.9559 36.5852 57.0959 36.4792 57.2699 36.3372L57.8619 36.8672C57.7066 37.099 57.4894 37.2826 57.2349 37.3972C56.9909 37.5392 56.6779 37.6102 56.3299 37.6102ZM65.2799 37.5742C64.8969 37.5742 64.5829 37.4342 64.3399 37.1862C64.1299 36.9382 64.0259 36.6202 64.0259 36.1612V33.7212H65.0709V35.8422C65.0709 36.0902 65.1409 36.2662 65.2449 36.4082C65.3781 36.5289 65.5533 36.5925 65.7329 36.5852C65.91 36.5798 66.0807 36.5178 66.2199 36.4082C66.3398 36.2443 66.4014 36.0451 66.3949 35.8422V33.7212H67.4389V37.5042H66.3949V36.9742L66.1849 37.1862L65.9419 37.3982L65.6619 37.5392L65.2799 37.5742ZM79.2799 36.6552C79.4199 36.6552 79.5589 36.6202 79.6639 36.5852L79.9419 36.3722C80.0119 36.2662 80.0819 36.1612 80.1159 36.0542L80.1859 35.6302V35.5942L80.1159 35.1702L79.9419 34.8522L79.6639 34.6402C79.5404 34.5966 79.4108 34.573 79.2799 34.5702L78.9309 34.6402L78.6529 34.8522L78.4429 35.1702C78.3978 35.307 78.3745 35.4501 78.3739 35.5942V35.6302L78.4439 36.0542C78.4885 36.1747 78.56 36.2834 78.6529 36.3722L78.9309 36.5852L79.2799 36.6552ZM79.0359 37.5752C78.7919 37.5752 78.5839 37.5392 78.3739 37.4342C78.1772 37.3537 77.9994 37.2331 77.8519 37.0802C77.6779 36.9032 77.5729 36.6902 77.4689 36.4432C77.3639 36.1962 77.3289 35.9482 77.3289 35.6302V35.5942C77.3289 35.2772 77.3639 34.9942 77.4689 34.7462C77.5729 34.4992 77.6779 34.3222 77.8519 34.1462C77.9863 33.978 78.1682 33.8543 78.3739 33.7912C78.5839 33.6862 78.7919 33.6502 79.0359 33.6502C79.3149 33.6502 79.5589 33.7202 79.7329 33.8272C79.9069 33.9332 80.0809 34.0392 80.1849 34.2162V32.3402H81.2299V37.5032H80.1849V36.9732C80.0703 37.1486 79.9153 37.2939 79.7329 37.3972C79.5206 37.5174 79.2799 37.5782 79.0359 37.5732V37.5752ZM75.0659 35.3122C75.0437 35.0928 74.9594 34.8843 74.8229 34.7112C74.755 34.6417 74.6736 34.587 74.5836 34.5505C74.4936 34.5141 74.397 34.4966 74.2999 34.4992C74.0559 34.4992 73.8819 34.5692 73.7419 34.7112C73.6029 34.8882 73.4989 35.0642 73.4639 35.3112L75.0659 35.3122ZM74.3699 37.6102C74.1052 37.6023 73.8446 37.5425 73.6029 37.4342C73.3641 37.3603 73.1485 37.2259 72.9769 37.0442C72.8094 36.8723 72.6788 36.6682 72.5929 36.4442C72.482 36.1869 72.4229 35.9103 72.4189 35.6302C72.4189 35.3482 72.4539 35.1002 72.5589 34.8522C72.6629 34.6052 72.7669 34.3922 72.9419 34.2162C73.1159 34.0392 73.2899 33.8982 73.5329 33.7912C73.7779 33.6862 74.0209 33.6502 74.2999 33.6502C74.6129 33.6502 74.8569 33.7202 75.1009 33.8272C75.3449 33.9332 75.5189 34.0742 75.6579 34.2862C75.7969 34.4632 75.9019 34.6752 76.0059 34.9232C76.0759 35.1702 76.1109 35.4532 76.1109 35.7012L76.0759 35.8422V35.9832H73.4989C73.511 36.0937 73.5449 36.2007 73.5986 36.298C73.6523 36.3954 73.7248 36.4811 73.8119 36.5502C73.9859 36.6552 74.1609 36.7262 74.4039 36.7262C74.5779 36.7262 74.7179 36.6912 74.8919 36.6202C74.9959 36.5852 75.1359 36.4792 75.3099 36.3372L75.9019 36.8672C75.7466 37.0989 75.5293 37.2825 75.2749 37.3972C75.0309 37.5392 74.7179 37.6102 74.3699 37.6102ZM69.1099 33.7202H70.1559V34.4632C70.2599 34.2162 70.4339 34.0032 70.6079 33.8622C70.7819 33.6862 71.0259 33.6142 71.3389 33.6502V34.7812H71.3049C70.9219 34.7812 70.6429 34.8882 70.4689 35.1002C70.2599 35.3122 70.1559 35.6662 70.1559 36.1252V37.5042H69.1099V33.7202Z" fill="white"/>
<path d="M36.0259 24.3502H37.3149V23.0072H36.0249V24.3512L36.0259 24.3502ZM36.0259 19.6122H37.3149V20.9202H36.0249L36.0259 19.6122ZM38.0459 14.8392H39.3699V16.1472H38.0459V14.8392ZM41.9459 13.4242H44.4879V12.0102H41.9469V16.1472H39.3699L39.3689 17.4902H37.1749V18.4102H36.0249L36.0259 19.6122H34.6329V21.7002H33.3089V23.0082H32.4389V24.3522H31.4639C29.5139 27.2862 27.9809 30.1862 26.8659 33.1212C24.3589 29.5492 22.0259 27.4282 19.8659 26.7212C19.2739 26.5442 18.8559 26.6852 18.6129 27.2152C18.3689 27.7452 18.5779 28.4172 19.3089 29.1952C21.5029 31.6352 23.5229 35.1012 25.3689 39.5212C25.6469 40.2282 26.2749 40.6172 27.2839 40.7222C28.2239 40.7932 28.8509 40.4402 29.1299 39.6622C30.4879 36.0202 32.0559 32.9082 33.8669 30.2562V28.7362H34.9109V27.4282H36.0259V25.8362H37.3149V24.3522H38.6379V23.0082H39.6829V21.3802H40.8319V20.2842H41.9469V17.4902H43.2349V16.1472H44.7319V14.8032H43.2349V16.1472H41.9469V17.4902H40.6569V18.8002H39.3699L39.3689 17.4902H40.6589V13.4242H41.9479H41.9459Z" fill="white"/>
<path d="M41.9459 13.4242H43.2349V14.8032L41.9469 14.8042L41.9459 13.4242ZM36.0259 19.6122H37.3149V20.9202H36.0249L36.0259 19.6122ZM45.9509 12.0102H47.3439V13.4242H45.9509V12.0102ZM44.5929 10.5962H45.9859V12.0102H44.5929V10.5962ZM45.9509 9.18115H47.3439V10.5962H45.9509V9.18115Z" fill="white"/>
</svg>
