<svg width="100" height="60" viewBox="0 0 100 60" fill="none" xmlns="http://www.w3.org/2000/svg">
<path d="M43.1291 25.648H46.2111L46.7061 23.162H43.6241L43.1291 25.648ZM42.8091 27.247H45.8921L43.9341 37.063C43.7911 37.113 43.3501 37.287 42.7401 37.287C41.9181 37.287 41.1641 36.968 41.1641 35.837C41.1641 35.624 41.1891 35.382 41.2441 35.107C41.8561 32.043 42.8091 27.247 42.8091 27.247ZM73.4151 27.023C71.3641 27.023 70.5481 28.219 70.1651 28.947H70.1291L70.2471 27.249H67.2011C67.1811 27.622 67.0501 28.799 66.8541 29.815C66.8541 29.815 66.1511 33.378 66.0181 34.06C65.9161 34.581 65.7311 35.352 65.7311 35.799C65.7311 36.751 66.2161 37.288 67.2981 37.288C67.9051 37.288 68.3431 37.122 68.5021 37.063L69.5201 31.951C69.8031 30.539 70.8281 29.616 72.0471 29.616C73.0311 29.616 73.5011 30.33 73.5011 30.914C73.5011 31.422 73.3731 31.985 73.2741 32.484L72.8361 34.673C72.7841 34.935 72.6721 35.44 72.6721 35.836C72.6721 36.804 73.2201 37.288 74.2621 37.288C74.8301 37.288 75.1901 37.146 75.4451 37.063L76.3591 32.48C76.5571 31.445 76.6301 30.9 76.6301 30.24C76.6301 28.342 75.5161 27.023 73.4151 27.023ZM59.7241 29.396C58.0011 29.396 57.0471 31.15 57.0471 32.713C57.0471 34.032 57.6451 34.915 59.0041 34.915C60.5411 34.915 61.7441 33.613 61.7441 31.39C61.7441 30.373 61.2001 29.396 59.7241 29.396ZM58.8151 37.288C55.5151 37.288 53.9361 35.318 53.9361 32.805C53.9361 29.358 56.3131 27.023 59.9861 27.023C63.1731 27.023 64.8651 28.943 64.8651 31.411C64.8651 35.109 62.3261 37.288 58.8151 37.288ZM47.2731 34.924C47.2031 35.278 47.1591 35.525 47.1591 35.829C47.1591 36.954 47.9141 37.288 48.7141 37.288C49.3541 37.288 49.7511 37.113 49.8961 37.063L51.3771 29.623L53.7741 29.622L54.2471 27.247H51.8511L51.9671 26.662C52.1841 25.565 52.7031 25.082 53.6001 25.082C54.0216 25.0818 54.4416 25.1321 54.8511 25.232L55.3021 22.974C55.1101 22.926 54.2251 22.71 52.9141 22.71C50.8251 22.71 49.4571 23.973 49.0531 26.007L48.8051 27.247H47.2451L46.7711 29.622H48.3331L47.2731 34.924ZM40.1781 27.023C38.6311 27.023 37.7801 28.093 37.4481 28.946H37.4121L37.5311 27.246H34.4841C34.4571 27.836 34.3331 28.831 34.0221 30.396C33.7081 31.983 33.4021 33.566 33.0851 35.106C33.0311 35.369 33.0061 35.626 33.0061 35.845C33.0061 36.651 33.4061 37.287 34.5901 37.287C35.1751 37.287 35.5821 37.135 35.7781 37.063L36.6841 32.513C37.0111 30.771 37.6041 29.62 39.3251 29.62C40.1081 29.62 40.8521 29.787 41.0071 29.832L41.5291 27.214C41.4171 27.175 40.9651 27.023 40.1781 27.023ZM84.8841 31.225C85.0491 30.325 84.5241 29.396 83.3341 29.396C81.8841 29.396 81.2471 30.383 80.9621 31.226L84.8841 31.225ZM86.2591 34.878C86.2591 36.243 84.9321 37.29 82.5811 37.29C79.3321 37.29 77.7431 35.275 77.7431 32.808C77.7431 30.358 79.3761 27.025 83.3611 27.025C85.9881 27.025 87.9531 28.325 87.9531 31.301C87.9531 32.033 87.7891 32.828 87.7191 33.147H80.7351C80.7231 33.861 81.3271 35.098 83.7551 35.098C84.8371 35.098 86.0621 34.718 86.2591 34.621V34.878ZM29.1931 31.225C29.3571 30.325 28.8321 29.396 27.6431 29.396C26.1931 29.396 25.5551 30.383 25.2711 31.226L29.1931 31.225ZM30.5681 34.878C30.5681 36.243 29.2401 37.29 26.8901 37.29C23.6401 37.29 22.0521 35.275 22.0521 32.808C22.0521 30.358 23.6841 27.025 27.6701 27.025C30.2971 27.025 32.2621 28.325 32.2621 31.301C32.2621 32.033 32.0981 32.828 32.0271 33.147H25.0441C25.0321 33.861 25.6361 35.098 28.0641 35.098C29.1461 35.098 30.3711 34.718 30.5681 34.621V34.878ZM12.0481 23.907H15.1481V33.667C15.1481 35.135 15.8821 35.884 17.0591 35.884C17.1791 35.884 17.2501 35.868 17.2731 35.863C16.7571 36.641 16.0881 37.279 14.5511 37.279C12.9261 37.279 12.0471 36.155 12.0471 34.469V23.906L12.0481 23.907Z" fill="#1A1919"/>
<path d="M16.0121 32.659V33.683C16.0121 34.673 16.5481 35.027 17.1341 35.027C17.7341 35.027 18.0541 34.623 18.3481 34.163C18.8411 33.393 24.8631 23.907 24.8631 23.907H21.6401L16.0121 32.659Z" fill="#00A3DA"/>
</svg>
