<svg width="100" height="60" viewBox="0 0 100 60" fill="none" xmlns="http://www.w3.org/2000/svg">
<path d="M37.66 19.2399H75.34C79.13 19.2399 82.28 20.4599 84.94 22.9499C86.1889 24.0847 87.1845 25.4701 87.8616 27.0157C88.5388 28.5614 88.8824 30.2325 88.87 31.9199C88.83 35.4199 87.56 38.3199 84.94 40.8199C82.3602 43.2866 78.9086 44.6313 75.34 44.5599H37.66C37.5882 44.5599 37.5172 44.5742 37.451 44.6019C37.3848 44.6297 37.3248 44.6704 37.2745 44.7216C37.2243 44.7728 37.1847 44.8335 37.1582 44.9002C37.1316 44.9668 37.1186 45.0381 37.12 45.1099C37.12 45.4099 37.36 45.6599 37.66 45.6599H75.34C79.1807 45.7246 82.8922 44.273 85.67 41.6199C87.0249 40.3945 88.1063 38.8974 88.8438 37.226C89.5812 35.5547 89.9581 33.7467 89.95 31.9199C89.9695 30.0797 89.598 28.2563 88.8602 26.5703C88.1224 24.8843 87.035 23.3742 85.67 22.1399C82.8166 19.4732 79.3733 18.1399 75.34 18.1399H37.66C37.5882 18.1399 37.5172 18.1542 37.451 18.1819C37.3848 18.2097 37.3248 18.2504 37.2745 18.3016C37.2243 18.3528 37.1847 18.4135 37.1582 18.4802C37.1316 18.5468 37.1186 18.6181 37.12 18.6899C37.12 18.9899 37.36 19.2399 37.66 19.2399Z" fill="#B6004F"/>
<path d="M34.3199 18.9401C36.4511 20.1793 38.2173 21.9593 39.4399 24.1001C40.6966 26.3224 41.357 28.832 41.357 31.3851C41.357 33.9381 40.6966 36.4477 39.4399 38.6701C38.2044 40.8115 36.4419 42.6016 34.3199 43.8701C32.7092 44.8202 30.9253 45.4397 29.0724 45.6924C27.2195 45.945 25.3348 45.8258 23.5285 45.3417C21.7223 44.8575 20.0306 44.0181 18.5525 42.8726C17.0744 41.7271 15.8394 40.2984 14.9199 38.6701C13.6166 36.4673 12.9422 33.9494 12.9699 31.3901C12.9671 28.8833 13.6142 26.4187 14.848 24.2367C16.0819 22.0546 17.8604 20.2297 20.0099 18.9401C22.1689 17.6508 24.6352 16.9669 27.1499 16.9601C29.7965 17.0001 32.1865 17.6601 34.3199 18.9401ZM27.1399 14.0301C23.9732 14.0501 21.0965 14.8367 18.5099 16.3901C15.9857 17.9316 13.8804 20.0713 12.3799 22.6201C10.8377 25.2849 10.0302 28.3112 10.0399 31.3901C10.0665 34.6101 10.8465 37.5334 12.3799 40.1601C13.8887 42.7184 15.9913 44.8759 18.5099 46.4501C21.1325 47.9747 24.1064 48.7914 27.1399 48.8201C30.3399 48.7867 33.2332 47.9967 35.8199 46.4501C38.3634 44.8928 40.4802 42.728 41.9799 40.1501C43.4946 37.4776 44.3002 34.4619 44.3199 31.3901C44.2932 28.1634 43.5132 25.2401 41.9799 22.6201C40.471 20.0678 38.355 17.9277 35.8199 16.3901C33.1909 14.8383 30.1926 14.0231 27.1399 14.0301ZM48.6399 26.3701H49.8199L51.0699 29.8701L52.3599 26.3701H53.5099L51.5599 31.3501H50.6199L48.6399 26.3701ZM62.2499 27.5301H63.3299V31.3201H62.2499V27.5301ZM62.2199 26.1501H63.3199V27.1101H62.2199V26.1501ZM58.8699 27.5301H59.9199V28.2801C60.0332 28.0267 60.1832 27.8267 60.3699 27.6801C60.5432 27.5001 60.7865 27.4267 61.0999 27.4601V28.5901H61.0699C60.6765 28.5901 60.3965 28.6967 60.2299 28.9101C60.0299 29.1301 59.9265 29.4734 59.9199 29.9401V31.3201H58.8699V27.5301ZM56.6099 29.1301C56.5899 28.9034 56.5065 28.7034 56.3599 28.5301C56.2932 28.4593 56.2126 28.4032 56.123 28.3653C56.0335 28.3274 55.9371 28.3086 55.8399 28.3101C55.7368 28.3015 55.6332 28.3159 55.5363 28.3523C55.4395 28.3886 55.3519 28.4459 55.2799 28.5201C55.1399 28.6867 55.0499 28.8867 55.0099 29.1201L56.6099 29.1301ZM55.9099 31.4301C55.6565 31.4167 55.4032 31.3567 55.1499 31.2501C54.9032 31.1701 54.6932 31.0367 54.5199 30.8501C54.3465 30.6767 54.2199 30.4767 54.1399 30.2501C53.9806 29.8858 53.928 29.4838 53.9882 29.0908C54.0484 28.6978 54.2189 28.33 54.4799 28.0301C54.6532 27.8501 54.8532 27.7067 55.0799 27.6001C55.3132 27.5067 55.5665 27.4601 55.8399 27.4601C56.1465 27.4601 56.4132 27.5201 56.6399 27.6401C56.8799 27.7401 57.0665 27.8934 57.1999 28.1001C57.3332 28.2801 57.4499 28.4901 57.5499 28.7301C57.6199 28.9801 57.6499 29.2701 57.6499 29.5101L57.6199 29.6501V29.8001H55.0399C55.0502 29.9097 55.0831 30.0161 55.1364 30.1124C55.1898 30.2088 55.2624 30.2931 55.3499 30.3601C55.5299 30.4601 55.6999 30.5401 55.9499 30.5401C56.1099 30.5401 56.2699 30.5067 56.4299 30.4401C56.5365 30.3934 56.6765 30.2934 56.8499 30.1401L57.4499 30.6801C57.2832 30.9201 57.0732 31.0967 56.8199 31.2101C56.5404 31.3494 56.2322 31.4213 55.9199 31.4201M66.6199 31.3801C65.8399 31.3902 65.0867 31.096 64.5199 30.5601L65.1799 29.8201C65.3865 30.0001 65.6099 30.1434 65.8499 30.2501C66.0832 30.3567 66.3365 30.4134 66.6099 30.4201C66.8565 30.4267 67.0332 30.3801 67.1399 30.2801C67.1914 30.2439 67.2337 30.196 67.2632 30.1404C67.2927 30.0848 67.3087 30.023 67.3099 29.9601V29.7501L67.1399 29.6101L66.8599 29.4701L66.3399 29.2901L65.6699 29.1101L65.1499 28.8301L64.8399 28.4101C64.7599 28.2101 64.7265 28.0101 64.7399 27.8101V27.7701L64.8399 27.1701C64.9265 26.9834 65.0532 26.8301 65.2199 26.7101C65.3532 26.5701 65.5265 26.4634 65.7399 26.3901C65.9532 26.3234 66.1866 26.2901 66.4399 26.2901C67.0959 26.2965 67.7317 26.5178 68.2499 26.9201L67.6899 27.7401L67.0299 27.3801C66.8299 27.2867 66.6232 27.2401 66.4099 27.2401C66.1966 27.2401 66.0432 27.2867 65.9499 27.3801C65.8432 27.4601 65.7865 27.5534 65.7799 27.6601V27.7001L65.8499 27.9101L65.9899 28.0501L66.3299 28.1901L66.8599 28.3301L67.5199 28.5801C67.6999 28.6601 67.8632 28.7567 68.0099 28.8701L68.2899 29.2601C68.3565 29.4267 68.3899 29.6134 68.3899 29.8201V29.8601C68.3965 30.1067 68.3499 30.3167 68.2499 30.4901C68.1832 30.6767 68.0665 30.8434 67.8999 30.9901C67.5132 31.2434 67.0832 31.3734 66.6099 31.3801M69.7399 27.5201H70.8199V31.3101H69.7399V27.5201ZM69.6999 26.1401H70.8199V27.1001H69.6999V26.1401ZM77.5399 27.5201H78.5799V28.0501L78.7899 27.8501L79.0399 27.6301L79.3099 27.4901L79.6599 27.4501C80.0799 27.4501 80.3932 27.5834 80.5999 27.8501C80.8399 28.0767 80.9565 28.4167 80.9499 28.8701V31.3101H79.8699V29.2001C79.8765 28.9534 79.8299 28.7634 79.7299 28.6301C79.5984 28.5115 79.4269 28.4472 79.2499 28.4501C79.066 28.442 78.8864 28.5067 78.7499 28.6301C78.6367 28.7984 78.5774 28.9972 78.5799 29.2001V31.3201H77.5399V27.5201ZM74.1899 30.1001L74.5799 30.0301C74.6865 29.9967 74.7799 29.9401 74.8599 29.8601C74.9325 29.7737 74.99 29.6756 75.0299 29.5701C75.0699 29.4634 75.0932 29.3467 75.0999 29.2201L75.0299 28.8701C74.99 28.7645 74.9325 28.6665 74.8599 28.5801L74.5799 28.4101L74.1899 28.3401L73.8499 28.4101L73.5699 28.5801C73.472 28.6531 73.3987 28.7543 73.3599 28.8701L73.2899 29.2201C73.2899 29.5001 73.3832 29.7134 73.5699 29.8601C73.6511 29.9435 73.7495 30.0082 73.8584 30.0497C73.9672 30.0911 74.0837 30.1083 74.1999 30.1001M74.0999 32.4401L73.2299 32.3401C72.9447 32.2989 72.6718 32.1965 72.4299 32.0401L72.8099 31.2401L73.4099 31.5201L74.0699 31.5901C74.4165 31.5967 74.6832 31.5134 74.8699 31.3401C75.0365 31.1667 75.1165 30.9067 75.1099 30.5601V30.3901C74.9632 30.5767 74.7999 30.7301 74.6199 30.8501C74.4465 30.9501 74.2032 30.9967 73.8899 30.9901C73.6832 30.9901 73.4765 30.9567 73.2699 30.8901C73.0699 30.8034 72.8932 30.6834 72.7399 30.5301C72.5957 30.3732 72.4776 30.1943 72.3899 30.0001C72.2965 29.7534 72.2499 29.4934 72.2499 29.2201C72.2499 28.9467 72.2965 28.7001 72.3899 28.4801C72.4832 28.2334 72.5999 28.0434 72.7399 27.9101C72.9132 27.7367 73.0999 27.6201 73.2999 27.5601L73.8999 27.4601C74.2065 27.4601 74.4465 27.5167 74.6199 27.6301C74.7999 27.7234 74.9665 27.8534 75.1199 28.0201V27.5201H76.1599V30.4601C76.1665 31.1267 76.0132 31.6201 75.6999 31.9401C75.5199 32.1267 75.2999 32.2601 75.0399 32.3401L74.0999 32.4401ZM51.3599 37.5601C50.5861 37.573 49.8373 37.2863 49.2699 36.7601L49.9299 36.0101C50.1299 36.1901 50.3499 36.3301 50.5899 36.4301C50.8365 36.5434 51.0932 36.6034 51.3599 36.6101C51.6065 36.6167 51.7799 36.5701 51.8799 36.4701C51.9333 36.435 51.9775 36.3876 52.0088 36.3319C52.0401 36.2763 52.0576 36.2139 52.0599 36.1501V35.9401L51.8799 35.8001L51.5999 35.6601L51.0799 35.4801L50.4199 35.3001L49.8999 35.0201L49.5799 34.5901C49.5132 34.3901 49.4799 34.1901 49.4799 33.9901V33.9601L49.5799 33.3601C49.6666 33.1667 49.7965 33.0134 49.9699 32.9001C50.1032 32.7601 50.2766 32.6534 50.4899 32.5801C50.6966 32.5134 50.9299 32.4801 51.1899 32.4801C51.8424 32.4887 52.4744 32.7099 52.9899 33.1101L52.4399 33.9201L51.7799 33.5701C51.5799 33.4701 51.3699 33.4234 51.1499 33.4301C50.9499 33.4234 50.7999 33.4701 50.6999 33.5701C50.5865 33.6501 50.5265 33.7434 50.5199 33.8501V33.8901L50.5899 34.1001L50.7299 34.2401L51.0799 34.3801L51.5999 34.5201L52.2599 34.7701C52.4399 34.8501 52.6065 34.9434 52.7599 35.0501L53.0299 35.4501C53.0965 35.6167 53.1299 35.8034 53.1299 36.0101V36.0401C53.1365 36.2867 53.0932 36.5001 52.9999 36.6801C52.9332 36.8601 52.8165 37.0267 52.6499 37.1801C52.2673 37.4324 51.8181 37.5648 51.3599 37.5601ZM61.2099 37.6001C60.9432 37.6001 60.6899 37.5401 60.4499 37.4201C60.2196 37.3273 60.011 37.1879 59.8372 37.0107C59.6634 36.8334 59.5281 36.6221 59.4399 36.3901C59.3327 36.1472 59.2749 35.8855 59.2699 35.6201C59.2765 35.3467 59.3332 35.0867 59.4399 34.8401C59.5265 34.5934 59.6532 34.3834 59.8199 34.2101C59.9932 34.0301 60.2032 33.8867 60.4499 33.7801C60.6832 33.6801 60.9499 33.6334 61.2499 33.6401C61.5965 33.6401 61.8865 33.7001 62.1199 33.8201C62.3532 33.9134 62.5532 34.0667 62.7199 34.2801L62.0899 34.9801C61.9832 34.8467 61.8532 34.7401 61.6999 34.6601C61.5507 34.5874 61.3857 34.5531 61.2199 34.5601L60.8699 34.6301L60.5899 34.8801L60.3799 35.2001L60.3099 35.5801V35.6201C60.3099 35.7667 60.3332 35.8967 60.3799 36.0101C60.4132 36.1434 60.4799 36.2601 60.5799 36.3601C60.6599 36.4667 60.7565 36.5401 60.8699 36.5801C60.9699 36.6134 61.1065 36.6334 61.2799 36.6401C61.4399 36.6401 61.5932 36.6067 61.7399 36.5401L62.1199 36.2601L62.7499 36.8901C62.5632 37.0901 62.3532 37.2567 62.1199 37.3901C61.8865 37.5234 61.5865 37.5934 61.2199 37.6001M57.0399 35.3001C57.0199 35.0734 56.9399 34.8734 56.7999 34.7001C56.7324 34.6311 56.6513 34.5769 56.5618 34.5407C56.4723 34.5046 56.3764 34.4873 56.2799 34.4901C56.1768 34.4815 56.0732 34.4959 55.9763 34.5323C55.8795 34.5686 55.7919 34.6259 55.7199 34.7001C55.5611 34.8625 55.4624 35.0741 55.4399 35.3001H57.0399ZM56.3499 37.6001C56.0965 37.6001 55.8399 37.5401 55.5799 37.4201C55.3399 37.3534 55.1332 37.2234 54.9599 37.0301C54.7932 36.8634 54.6632 36.6634 54.5699 36.4301C54.4119 36.0649 54.361 35.6623 54.4229 35.2693C54.4849 34.8763 54.6572 34.5089 54.9199 34.2101C55.0865 34.0301 55.2865 33.8867 55.5199 33.7801C55.7665 33.6801 56.0199 33.6334 56.2799 33.6401C56.5799 33.6401 56.8466 33.7001 57.0799 33.8201C57.3132 33.9134 57.4999 34.0667 57.6399 34.2801C57.7732 34.4534 57.8899 34.6634 57.9899 34.9101C58.0566 35.1701 58.0899 35.4301 58.0899 35.6901L58.0599 35.8301V35.9701H55.4799C55.4889 36.0815 55.5211 36.1897 55.5745 36.2879C55.6279 36.3861 55.7013 36.472 55.7899 36.5401C55.9699 36.6401 56.1399 36.7201 56.3899 36.7201C56.5599 36.7201 56.6899 36.6801 56.8699 36.6101C56.9765 36.5701 57.1165 36.4767 57.2899 36.3301L57.8899 36.8601C57.7232 37.0934 57.5132 37.2701 57.2599 37.3901C56.9774 37.5309 56.6655 37.6029 56.3499 37.6001ZM65.2999 37.5601C64.9199 37.5534 64.6065 37.4267 64.3599 37.1801C64.1532 36.9401 64.0499 36.5967 64.0499 36.1501V33.7101H65.0899V35.8301C65.0899 36.0767 65.1499 36.2667 65.2699 36.4001C65.4032 36.5201 65.5632 36.5801 65.7499 36.5801C65.9365 36.5734 66.0999 36.5134 66.2399 36.4001C66.353 36.2317 66.4123 36.0329 66.4099 35.8301V33.7101H67.4599V37.4901H66.4099V36.9601L66.2099 37.1801L65.9599 37.3801L65.6799 37.5301L65.2999 37.5601ZM79.2999 36.6501C79.4465 36.6434 79.5732 36.6201 79.6799 36.5801L79.9599 36.3601C80.0332 36.2667 80.0932 36.1601 80.1399 36.0401L80.2099 35.6201V35.5801L80.1399 35.1601L79.9599 34.8401L79.6799 34.6301C79.559 34.5823 79.4299 34.5585 79.2999 34.5601L78.9499 34.6301L78.6699 34.8401L78.4699 35.1601C78.4165 35.3001 78.3899 35.4401 78.3899 35.5801V35.6201L78.4599 36.0401C78.5132 36.1601 78.5832 36.2667 78.6699 36.3601L78.9499 36.5801L79.2999 36.6501ZM79.0599 37.5701C78.8199 37.5701 78.5965 37.5201 78.3899 37.4201C78.1899 37.3401 78.0165 37.2234 77.8699 37.0701C77.7043 36.8824 77.5754 36.6653 77.4899 36.4301C77.3899 36.1967 77.3432 35.9267 77.3499 35.6201V35.5801C77.3432 35.2667 77.3899 34.9867 77.4899 34.7401C77.5765 34.5001 77.7032 34.3001 77.8699 34.1401C78.0165 33.9667 78.1899 33.8467 78.3899 33.7801C78.5899 33.6801 78.8132 33.6334 79.0599 33.6401C79.3399 33.6401 79.5732 33.7001 79.7599 33.8201C79.9299 33.9201 80.0999 34.0201 80.2099 34.2101V32.3301H81.2499V37.4901H80.1999V36.9601C80.0865 37.1401 79.9365 37.2834 79.7499 37.3901C79.5432 37.5101 79.3099 37.5667 79.0499 37.5601M75.0799 35.2901C75.0532 35.0634 74.9699 34.8634 74.8299 34.6901C74.7624 34.6211 74.6813 34.5669 74.5918 34.5307C74.5023 34.4946 74.4063 34.4773 74.3099 34.4801C74.2068 34.4715 74.1032 34.4859 74.0063 34.5223C73.9095 34.5586 73.8219 34.6159 73.7499 34.6901C73.5911 34.8525 73.4924 35.0641 73.4699 35.2901H75.0799ZM74.3799 37.5901C74.1132 37.5901 73.8565 37.5301 73.6099 37.4101C73.3699 37.3434 73.1632 37.2134 72.9899 37.0201C72.8232 36.8534 72.6932 36.6534 72.5999 36.4201C72.4419 36.0549 72.391 35.6523 72.4529 35.2593C72.5149 34.8663 72.6872 34.4989 72.9499 34.2001C73.1299 34.0201 73.2999 33.8801 73.5499 33.7701C73.7832 33.6701 74.0365 33.6234 74.3099 33.6301C74.6099 33.6301 74.8765 33.6901 75.1099 33.8101C75.3499 33.9034 75.5365 34.0567 75.6699 34.2701C75.8032 34.4434 75.9199 34.6534 76.0199 34.9001C76.0865 35.1601 76.1199 35.4201 76.1199 35.6801L76.0899 35.8201V35.9601H73.4999C73.5089 36.0715 73.5411 36.1797 73.5945 36.2779C73.6479 36.3761 73.7213 36.462 73.8099 36.5301C73.9899 36.6301 74.1599 36.7101 74.4099 36.7101C74.5799 36.7101 74.7099 36.6701 74.8899 36.6001C74.9965 36.5601 75.1365 36.4667 75.3099 36.3201L75.9099 36.8501C75.7534 37.082 75.5352 37.2656 75.2799 37.3801C74.9974 37.5209 74.6855 37.5929 74.3699 37.5901M69.1099 33.7001H70.1599V34.4401C70.2666 34.1867 70.4165 33.9867 70.6099 33.8401C70.7832 33.6667 71.0265 33.5967 71.3399 33.6301V34.7601H71.3099C70.9165 34.7601 70.6365 34.8667 70.4699 35.0801C70.2632 35.3001 70.1599 35.6401 70.1599 36.1001V37.4801H69.0999L69.1099 33.7001Z" fill="#B6004F"/>
<path d="M36.0299 24.35H37.3099V23.01H36.0199L36.0299 24.35ZM36.0299 19.61H37.3099V20.92H36.0199L36.0299 19.61ZM38.0499 14.84H39.3699V16.14H38.0499V14.84ZM41.9499 13.42H44.4899V12.01H41.9499V16.15H39.3699V17.49H37.1699V18.41H36.0199V19.61H34.6299V21.7H33.3099V23H32.4399V24.35H31.4599C29.6014 27.0909 28.0583 30.0329 26.8599 33.12C24.3599 29.5533 22.0266 27.42 19.8599 26.72C19.2732 26.5267 18.8566 26.6933 18.6099 27.22C18.3566 27.7533 18.5899 28.4133 19.3099 29.2C21.5099 31.6533 23.5299 35.0933 25.3699 39.52C25.6366 40.22 26.2732 40.62 27.2799 40.72C28.2266 40.7867 28.8432 40.4333 29.1299 39.66C30.328 36.3483 31.9194 33.1924 33.8699 30.26V28.74H34.9099V27.43H36.0299V25.83H37.3099V24.35H38.6399V23.01H39.6799V21.38H40.8299V20.28H41.9499V17.5H43.2299V16.16H44.7299V14.8H43.2299V16.15H41.9499V17.49H40.6499V18.8H39.3699V17.49H40.6599V13.42H41.9499Z" fill="black"/>
<path d="M41.95 13.4199H43.23V14.7999H41.95V13.4199ZM36.03 19.6199H37.31V20.9199H36.02L36.03 19.6199ZM45.95 11.9999H47.35V13.4099H45.95V11.9999ZM44.6 10.5999H46V11.9999H44.6V10.5999ZM45.96 9.17993H47.36V10.5999H45.96V9.17993Z" fill="#B6004F"/>
</svg>
