<svg width="100" height="60" viewBox="0 0 100 60" fill="none" xmlns="http://www.w3.org/2000/svg">
<rect width="100" height="60" fill="#1AAD1A"/>
<path d="M44.7472 34.5073C44.5734 34.5951 44.3774 34.6455 44.1691 34.6455C43.6875 34.6455 43.269 34.3803 43.0486 33.9883L42.9651 33.804L39.457 26.1073C39.4187 26.0226 39.3957 25.9287 39.3957 25.8366C39.3957 25.4814 39.683 25.1941 40.0381 25.1941C40.182 25.1941 40.315 25.2419 40.4223 25.3215L44.5608 28.2685C44.8637 28.4663 45.2249 28.5828 45.614 28.5828C45.8452 28.5828 46.066 28.5393 46.2725 28.4645L65.7389 19.8003C62.2499 15.688 56.5032 13 50.0002 13C39.3587 13 30.7319 20.1889 30.7319 29.057C30.7319 33.8953 33.3273 38.2506 37.3893 41.1937C37.7157 41.4267 37.9287 41.8083 37.9287 42.2404C37.9287 42.3825 37.8982 42.5138 37.8613 42.6499C37.5366 43.86 37.0172 45.7982 36.9928 45.8886C36.9528 46.0407 36.8894 46.1989 36.8894 46.3584C36.8894 46.7127 37.1771 47 37.5323 47C37.6713 47 37.7848 46.9487 37.903 46.8809L42.121 44.4455C42.4383 44.2625 42.7739 44.149 43.1438 44.149C43.3411 44.149 43.5315 44.179 43.7106 44.2338C45.6787 44.7997 47.8016 45.1144 50.0002 45.1144C60.6412 45.1144 69.268 37.9255 69.268 29.057C69.268 26.3708 68.4725 23.8414 67.0734 21.6164L44.8876 34.426L44.7472 34.5073Z" fill="white"/>
</svg>
