<svg width="100" height="60" viewBox="0 0 100 60" fill="none" xmlns="http://www.w3.org/2000/svg">
<path d="M78.876 20.0889C80.444 20.0889 81.928 20.4509 83.251 21.0949C83.459 21.1919 83.666 21.2999 83.874 21.4189L82.954 22.2349L81.574 20.8179L79.242 22.8809L77.858 21.3809L73.515 25.2669L76.3 28.3099L75.206 29.2659L77.948 32.3159L76.86 33.2679L80.779 37.5959L83.104 35.4709L85.115 37.7489C84.715 38.0569 84.28 38.3479 83.8 38.6159C82.2986 39.4661 80.6023 39.9119 78.877 39.9099C73.377 39.9099 68.891 35.4569 68.891 29.9999C68.891 24.5399 73.377 20.0879 78.877 20.0879" fill="#0068A3"/>
<path d="M77.056 29.3739L79.43 27.2509L81.569 29.6089L79.194 31.7299L77.056 29.3739ZM78.744 33.4459L81.119 31.3239L83.257 33.6809L80.883 35.8039L78.744 33.4459ZM75.357 25.3489L77.731 23.2269L79.869 25.5839L77.494 27.7059L75.357 25.3489ZM79.714 24.2069L81.495 22.6159L83.098 24.3829L81.318 25.9749L79.714 24.2069ZM82.878 31.4969L84.66 29.9049L86.263 31.6729L84.483 33.2639L82.878 31.4969ZM84.445 35.0669L86.225 33.4749L87.83 35.2419L86.049 36.8339L84.445 35.0669ZM85.163 26.8839L86.35 25.8229L87.419 26.9999L86.232 28.0609L85.162 26.8829M83.646 23.3829L84.833 22.3219L85.902 23.4999L84.714 24.5599L83.646 23.3829ZM86.68 30.3849L87.868 29.3249L88.937 30.5019L87.75 31.5629L86.68 30.3849ZM81.356 27.7619L83.136 26.1689L84.74 27.9369L82.96 29.5279L81.356 27.7619ZM13.723 28.2909H13.643L12.139 33.9349H10.909L9.06299 25.9169H10.339L11.615 31.8989H11.695L13.176 25.9169H14.19L15.774 31.8989H15.854L17.016 25.9169H18.349L16.503 33.9349H15.273L13.723 28.2909ZM23.398 32.6899V33.5499C22.7827 33.8967 22.0872 34.076 21.381 34.0699C19.467 34.0699 18.681 32.8939 18.681 31.1069C18.681 29.3889 19.558 28.1449 21.268 28.1449C22.691 28.1449 23.568 29.0609 23.568 30.9039V31.3219H19.855C19.855 32.6789 20.413 33.2789 21.586 33.2789C22.202 33.2789 22.771 33.0639 23.398 32.6899ZM19.878 30.5649H22.486C22.43 29.3769 21.848 28.9019 21.233 28.9019C20.538 28.9019 20.003 29.4339 19.878 30.5649ZM25.79 28.5629C26.132 28.3829 26.713 28.1449 27.328 28.1449C28.741 28.1449 29.504 29.1169 29.504 30.9269C29.504 33.0409 28.479 34.0709 26.827 34.0709C26.223 34.0709 25.289 33.8779 24.605 33.5159V25.6229L25.79 25.3399V28.5629ZM25.779 33.0979C26.143 33.2559 26.542 33.2779 26.827 33.2779C27.67 33.2779 28.308 32.7579 28.308 30.9279C28.308 29.4899 27.784 29.0269 27.021 29.0269C26.565 29.0269 26.235 29.1509 25.779 29.3999V33.0979ZM34.689 32.2379H34.746L37.184 25.9169H38.597V33.9349H37.367V28.1219H37.264L34.939 33.9349H34.21L31.886 28.2579H31.783V33.9349H30.758V25.9169H32.136L34.689 32.2379ZM39.85 31.1069C39.85 29.1279 40.944 28.1449 42.448 28.1449C43.952 28.1449 45.046 29.1279 45.046 31.1069C45.046 33.0409 44.009 34.0709 42.448 34.0709C40.887 34.0709 39.85 33.0409 39.85 31.1069ZM43.85 31.1069C43.85 29.5809 43.222 28.9369 42.448 28.9369C41.696 28.9369 41.046 29.5809 41.046 31.1069C41.046 32.6569 41.639 33.2789 42.448 33.2789C43.257 33.2789 43.85 32.6569 43.85 31.1069ZM46.128 28.9819C46.641 28.6759 47.723 28.1449 49.033 28.1449C50.401 28.1449 50.913 28.6759 50.913 29.8409V33.9349H49.728V30.0999C49.728 29.2069 49.284 29.0479 48.703 29.0479C48.247 29.0479 47.666 29.2519 47.313 29.4549V33.9339H46.128V28.9799M56.69 32.6899V33.5499C56.0748 33.8968 55.3792 34.0761 54.673 34.0699C52.759 34.0699 51.973 32.8939 51.973 31.1069C51.973 29.3889 52.85 28.1449 54.559 28.1449C55.984 28.1449 56.861 29.0609 56.861 30.9039V31.3219H53.147C53.147 32.6789 53.705 33.2789 54.878 33.2789C55.494 33.2789 56.064 33.0639 56.69 32.6899ZM53.17 30.5649H55.778C55.722 29.3769 55.14 28.9019 54.525 28.9019C53.83 28.9019 53.296 29.4339 53.17 30.5649ZM61.293 28.3369H62.513L60.45 33.9899C59.88 35.5499 59.185 36.3649 57.875 36.3649V35.4379C58.65 35.4379 59.128 34.8269 59.402 33.9899L57.214 28.3359H58.468L59.926 32.4969H59.994L61.294 28.3359" fill="#0068A3"/>
</svg>
