<svg width="100" height="60" viewBox="0 0 100 60" fill="none" xmlns="http://www.w3.org/2000/svg">
<rect width="100" height="60" fill="#0068A3"/>
<path d="M79.876 20.0889C81.444 20.0889 82.928 20.4509 84.251 21.0949C84.459 21.1919 84.666 21.2999 84.874 21.4189L83.954 22.2349L82.574 20.8179L80.242 22.8809L78.858 21.3809L74.515 25.2669L77.3 28.3099L76.206 29.2659L78.948 32.3159L77.86 33.2679L81.779 37.5959L84.104 35.4709L86.115 37.7489C85.715 38.0569 85.28 38.3479 84.8 38.6159C83.2986 39.4661 81.6023 39.9119 79.877 39.9099C74.377 39.9099 69.891 35.4569 69.891 29.9999C69.891 24.5399 74.377 20.0879 79.877 20.0879" fill="white"/>
<path d="M78.056 29.3739L80.43 27.2509L82.569 29.6089L80.194 31.7299L78.056 29.3739ZM79.744 33.4459L82.119 31.3239L84.257 33.6809L81.883 35.8039L79.744 33.4459ZM76.357 25.3489L78.731 23.2269L80.869 25.5839L78.494 27.7059L76.357 25.3489ZM80.714 24.2069L82.495 22.6159L84.098 24.3829L82.318 25.9749L80.714 24.2069ZM83.878 31.4969L85.66 29.9049L87.263 31.6729L85.483 33.2639L83.878 31.4969ZM85.445 35.0669L87.225 33.4749L88.83 35.2419L87.049 36.8339L85.445 35.0669ZM86.163 26.8839L87.35 25.8229L88.419 26.9999L87.232 28.0609L86.162 26.8829M84.646 23.3829L85.833 22.3219L86.902 23.4999L85.714 24.5599L84.646 23.3829ZM87.68 30.3849L88.868 29.3249L89.937 30.5019L88.75 31.5629L87.68 30.3849ZM82.356 27.7619L84.136 26.1689L85.74 27.9369L83.96 29.5279L82.356 27.7619ZM14.723 28.2909H14.643L13.139 33.9349H11.909L10.063 25.9169H11.339L12.615 31.8989H12.695L14.176 25.9169H15.19L16.774 31.8989H16.854L18.016 25.9169H19.349L17.503 33.9349H16.273L14.723 28.2909ZM24.398 32.6899V33.5499C23.7827 33.8967 23.0872 34.076 22.381 34.0699C20.467 34.0699 19.681 32.8939 19.681 31.1069C19.681 29.3889 20.558 28.1449 22.268 28.1449C23.691 28.1449 24.568 29.0609 24.568 30.9039V31.3219H20.855C20.855 32.6789 21.413 33.2789 22.586 33.2789C23.202 33.2789 23.771 33.0639 24.398 32.6899ZM20.878 30.5649H23.486C23.43 29.3769 22.848 28.9019 22.233 28.9019C21.538 28.9019 21.003 29.4339 20.878 30.5649ZM26.79 28.5629C27.132 28.3829 27.713 28.1449 28.328 28.1449C29.741 28.1449 30.504 29.1169 30.504 30.9269C30.504 33.0409 29.479 34.0709 27.827 34.0709C27.223 34.0709 26.289 33.8779 25.605 33.5159V25.6229L26.79 25.3399V28.5629ZM26.779 33.0979C27.143 33.2559 27.542 33.2779 27.827 33.2779C28.67 33.2779 29.308 32.7579 29.308 30.9279C29.308 29.4899 28.784 29.0269 28.021 29.0269C27.565 29.0269 27.235 29.1509 26.779 29.3999V33.0979ZM35.689 32.2379H35.746L38.184 25.9169H39.597V33.9349H38.367V28.1219H38.264L35.939 33.9349H35.21L32.886 28.2579H32.783V33.9349H31.758V25.9169H33.136L35.689 32.2379ZM40.85 31.1069C40.85 29.1279 41.944 28.1449 43.448 28.1449C44.952 28.1449 46.046 29.1279 46.046 31.1069C46.046 33.0409 45.009 34.0709 43.448 34.0709C41.887 34.0709 40.85 33.0409 40.85 31.1069ZM44.85 31.1069C44.85 29.5809 44.222 28.9369 43.448 28.9369C42.696 28.9369 42.046 29.5809 42.046 31.1069C42.046 32.6569 42.639 33.2789 43.448 33.2789C44.257 33.2789 44.85 32.6569 44.85 31.1069ZM47.128 28.9819C47.641 28.6759 48.723 28.1449 50.033 28.1449C51.401 28.1449 51.913 28.6759 51.913 29.8409V33.9349H50.728V30.0999C50.728 29.2069 50.284 29.0479 49.703 29.0479C49.247 29.0479 48.666 29.2519 48.313 29.4549V33.9339H47.128V28.9799M57.69 32.6899V33.5499C57.0748 33.8968 56.3792 34.0761 55.673 34.0699C53.759 34.0699 52.973 32.8939 52.973 31.1069C52.973 29.3889 53.85 28.1449 55.559 28.1449C56.984 28.1449 57.861 29.0609 57.861 30.9039V31.3219H54.147C54.147 32.6789 54.705 33.2789 55.878 33.2789C56.494 33.2789 57.064 33.0639 57.69 32.6899ZM54.17 30.5649H56.778C56.722 29.3769 56.14 28.9019 55.525 28.9019C54.83 28.9019 54.296 29.4339 54.17 30.5649ZM62.293 28.3369H63.513L61.45 33.9899C60.88 35.5499 60.185 36.3649 58.875 36.3649V35.4379C59.65 35.4379 60.128 34.8269 60.402 33.9899L58.214 28.3359H59.468L60.926 32.4969H60.994L62.294 28.3359" fill="white"/>
</svg>
