<svg width="100" height="60" viewBox="0 0 100 60" fill="none" xmlns="http://www.w3.org/2000/svg">
<path d="M10 20.6622C12.709 20.6622 15.418 20.6622 18.127 20.6622C20.9855 25.5945 23.8253 30.5455 26.6838 35.4777C26.3475 36.0569 26.0112 36.6361 25.6749 37.2152C25.3199 37.7944 24.8902 38.3362 24.3484 38.7286C23.9 39.0462 23.3769 39.289 22.8164 39.3264C22.2373 39.3825 21.6768 39.2143 21.1723 38.9154C20.5558 38.5417 20.0701 37.9999 19.6777 37.4021C19.3788 36.935 19.1172 36.4492 18.837 35.9635C15.9038 30.8818 12.9519 25.7813 10 20.6622Z" fill="#FFDD00"/>
<path d="M20.8174 20.6622C23.5264 20.6622 26.2354 20.6622 28.9444 20.6622C30.8874 24.0438 32.8491 27.4254 34.8108 30.7883C35.0724 31.2741 35.6142 31.5917 36.156 31.5917C36.7165 31.5917 37.2396 31.2741 37.5198 30.7883C35.5768 27.4067 33.6151 24.0252 31.6721 20.6436C34.3811 20.6436 37.0901 20.6436 39.7992 20.6436C40.8454 22.4558 41.8916 24.268 42.9379 26.0803C41.0509 29.3498 39.1639 32.6006 37.277 35.8701C36.9967 36.3371 36.7352 36.8042 36.4549 37.2713C36.1 37.8505 35.6516 38.3736 35.1098 38.7659C34.6427 39.0835 34.1009 39.3077 33.5217 39.3077C32.9425 39.3264 32.3821 39.1396 31.915 38.822C31.3171 38.4296 30.8501 37.8878 30.4764 37.29C30.1962 36.8416 29.9346 36.3745 29.673 35.9074C26.7025 30.8444 23.7693 25.7627 20.8174 20.6622Z" fill="#FFDD00"/>
<path d="M46.0579 20.6622C46.5997 20.6622 47.1228 20.6622 47.6646 20.6622C47.9636 21.8579 48.2812 23.035 48.5801 24.2307C48.8417 25.2769 49.1032 26.3231 49.3087 27.3881C49.4956 26.3045 49.7758 25.2209 50.0374 24.1372C50.3176 22.9789 50.6165 21.8206 50.9155 20.6622C51.4573 20.6622 51.9991 20.6622 52.5409 20.6622C52.9893 22.3437 53.419 24.0252 53.83 25.7253C53.9608 26.2484 54.0729 26.7528 54.1663 27.276C54.2971 26.5473 54.4652 25.8187 54.652 25.0901C55.007 23.6141 55.3993 22.1195 55.7917 20.6436C56.3148 20.6436 56.8192 20.6436 57.3424 20.6436C56.5577 23.5394 55.7543 26.4539 54.9696 29.3498C54.4092 29.3498 53.83 29.3498 53.2695 29.3498C52.8585 27.7804 52.4475 26.1924 52.0738 24.6043C51.943 24.0252 51.8122 23.446 51.7001 22.8481C51.5507 23.7262 51.3265 24.5856 51.1023 25.4637C50.766 26.7528 50.411 28.042 50.0747 29.3498C49.5142 29.3498 48.9724 29.3498 48.412 29.3498C47.6273 26.4726 46.8426 23.5581 46.0579 20.6622Z" fill="black"/>
<path d="M69.9907 21.503C70.4577 21.3909 70.9435 21.2601 71.4106 21.148C71.4106 21.7645 71.4106 22.3624 71.4106 22.9789C71.7282 22.9789 72.0645 22.9789 72.3821 22.9789C72.3821 23.3899 72.4007 23.801 72.4007 24.212C72.0645 24.212 71.7468 24.212 71.4106 24.212C71.4106 25.445 71.4106 26.6594 71.4106 27.8925C71.4106 28.0606 71.56 28.2101 71.7282 28.2101C71.9524 28.2288 72.1766 28.1914 72.4007 28.1727C72.4007 28.5838 72.4007 28.9761 72.4007 29.3871C72.0084 29.4992 71.6161 29.4992 71.2237 29.4992C70.9248 29.4992 70.6072 29.4058 70.383 29.1816C70.1028 28.9201 69.9907 28.5464 69.9907 28.1727C69.9907 26.8463 69.9907 25.5198 69.9907 24.1933C69.7478 24.1933 69.4862 24.1933 69.2433 24.1933C69.2433 23.7823 69.2433 23.3713 69.2433 22.9602C69.4862 22.9602 69.7478 22.9602 69.9907 22.9602C69.9907 22.4745 69.9907 21.9887 69.9907 21.503Z" fill="black"/>
<path d="M58.2391 23.2592C58.7809 22.9415 59.4348 22.8108 60.0514 22.8481C60.6679 22.8668 61.2844 23.0536 61.7702 23.4273C62.2186 23.7449 62.5549 24.212 62.7604 24.7351C63.022 25.3516 63.0967 26.0429 63.078 26.7155C61.4339 26.7155 59.7711 26.7155 58.127 26.7155C58.2018 27.3133 58.5941 27.8365 59.1359 28.0606C59.8459 28.3596 60.7613 28.2475 61.3218 27.7057C61.4713 27.5749 61.5834 27.3881 61.6768 27.2199C62.0691 27.4254 62.4615 27.6123 62.8351 27.8178C62.5362 28.453 61.9757 28.9387 61.3218 29.219C60.6866 29.4992 59.958 29.574 59.2667 29.4619C58.6128 29.3684 57.9776 29.0695 57.5105 28.6024C57.0434 28.1354 56.7258 27.5188 56.6137 26.8649C56.483 26.0989 56.5764 25.2769 56.9313 24.5856C57.2676 24.0252 57.716 23.5581 58.2391 23.2592ZM58.6875 24.5109C58.3886 24.7538 58.2018 25.1274 58.1457 25.5011C59.2854 25.5011 60.4064 25.5011 61.546 25.5011C61.5086 25.0527 61.2658 24.6417 60.8734 24.3988C60.2382 23.9691 59.2854 24.0065 58.6875 24.5109Z" fill="black"/>
<path d="M65.5441 22.8855C66.2728 22.7734 67.0761 22.8668 67.6927 23.2965C68.2158 23.6515 68.5521 24.2493 68.5521 24.8846C68.1037 24.9593 67.674 25.0527 67.2256 25.1274C67.1882 24.9032 67.1695 24.6791 67.0574 24.4922C66.8893 24.212 66.553 24.0625 66.2354 24.0252C65.9365 24.0065 65.6375 24.0438 65.376 24.1933C65.2078 24.3054 65.0957 24.4922 65.1144 24.6977C65.1331 24.8846 65.2826 25.034 65.4507 25.1274C65.731 25.2769 66.0299 25.3516 66.3475 25.4264C66.908 25.5758 67.4872 25.7066 67.9916 26.0055C68.3279 26.211 68.6081 26.51 68.7389 26.8836C68.9444 27.5188 68.8323 28.2662 68.3652 28.7519C67.8982 29.2377 67.2069 29.4245 66.553 29.4619C65.731 29.5179 64.8716 29.3311 64.199 28.808C63.7693 28.4904 63.489 27.9672 63.489 27.4254C63.9374 27.332 64.4045 27.2573 64.8529 27.1639C64.8716 27.4067 64.9463 27.6496 65.1144 27.8178C65.3947 28.1167 65.8244 28.2101 66.2167 28.2101C66.5156 28.2101 66.8519 28.1727 67.0948 27.9672C67.3003 27.7991 67.3751 27.4815 67.2256 27.2573C67.0948 27.0705 66.8519 26.977 66.6464 26.8836C66.0486 26.6781 65.432 26.5847 64.8529 26.3231C64.4792 26.1737 64.1429 25.9495 63.9187 25.6132C63.5264 25.0153 63.5824 24.1559 64.0495 23.5954C64.4419 23.2218 64.9837 22.9789 65.5441 22.8855Z" fill="black"/>
<path d="M74.3624 23.2778C74.9042 22.9602 75.5581 22.8108 76.1934 22.8481C76.7912 22.8668 77.4077 23.0536 77.9122 23.4086C78.3793 23.7449 78.7342 24.212 78.9584 24.7538C79.22 25.3703 79.2947 26.0429 79.2574 26.7155C77.6133 26.7155 75.9505 26.7155 74.3064 26.7155C74.3811 27.2946 74.7548 27.8178 75.2779 28.042C75.9505 28.3409 76.7725 28.2662 77.3704 27.8365C77.5946 27.6683 77.7627 27.4628 77.8748 27.2199C78.2672 27.4067 78.6595 27.6123 79.0518 27.8178C78.7716 28.4343 78.2298 28.9014 77.6319 29.1816C76.4736 29.7234 75.0163 29.6113 73.9888 28.8266C73.4283 28.3969 73.0546 27.7617 72.8865 27.0705C72.6997 26.2671 72.7744 25.389 73.1294 24.6417C73.4096 24.0625 73.8393 23.5954 74.3624 23.2778ZM75.39 24.212C74.8295 24.3988 74.3998 24.9219 74.3251 25.5011C75.4647 25.5011 76.5857 25.5011 77.7254 25.5011C77.688 25.2022 77.5759 24.9219 77.3891 24.6977C76.9033 24.1186 76.0626 23.9691 75.39 24.212Z" fill="black"/>
<path d="M86.7305 22.9042C87.4591 22.736 88.2438 22.8108 88.879 23.2218C89.3274 23.502 89.6637 23.9691 89.8319 24.4735C89.9626 24.8472 90 25.2582 90 25.6506C90 26.8836 90 28.1354 90 29.3684C89.4956 29.3684 88.9911 29.3684 88.4867 29.3684C88.4867 28.2101 88.4867 27.0331 88.4867 25.8748C88.4867 25.5011 88.4493 25.1088 88.2438 24.7912C88.0943 24.5296 87.8515 24.3428 87.5525 24.2493C86.9547 24.0812 86.2074 24.1933 85.8337 24.7164C85.5722 25.0527 85.4787 25.5011 85.4787 25.9121C85.4787 27.0705 85.4787 28.2101 85.4787 29.3684C84.9743 29.3684 84.4699 29.3684 83.9654 29.3684C83.9654 27.2386 83.9654 25.0901 83.9654 22.9602C84.3951 22.9602 84.8435 22.9602 85.2732 22.9602C85.2732 23.2592 85.2732 23.5581 85.2732 23.8757C85.5908 23.3713 86.1513 23.035 86.7305 22.9042Z" fill="black"/>
<path d="M79.9113 22.9602C80.3223 22.9602 80.752 22.9602 81.163 22.9602C81.163 23.2218 81.163 23.502 81.163 23.7636C81.3311 23.502 81.574 23.2778 81.8543 23.1471C82.3213 22.9229 82.8445 22.8855 83.3489 22.9602C83.3489 23.4086 83.3489 23.857 83.3302 24.3054C82.9192 24.2493 82.4708 24.2307 82.0598 24.3988C81.7982 24.5109 81.574 24.7351 81.4806 24.9967C81.3498 25.3143 81.4059 25.6692 81.3872 25.9869C81.3872 27.1078 81.3872 28.2475 81.4059 29.3684C80.9014 29.3684 80.397 29.3684 79.8926 29.3684C79.9113 27.2386 79.9113 25.1088 79.9113 22.9602Z" fill="black"/>
<path d="M62.0691 30.5081C62.312 30.4334 62.6109 30.4521 62.8164 30.6015C63.078 30.7697 63.2461 31.0686 63.2275 31.3675C63.2088 31.7599 62.9099 32.0961 62.5175 32.1709C62.1999 32.2269 61.8449 32.0961 61.6581 31.8533C61.49 31.6291 61.4339 31.3301 61.5273 31.0686C61.6021 30.807 61.8076 30.5828 62.0691 30.5081Z" fill="black"/>
<path d="M46.7305 35.758C46.7305 34.0018 46.7305 32.2643 46.7305 30.5081C47.2349 30.5081 47.7581 30.5081 48.2625 30.5081C48.2625 32.2456 48.2625 33.9831 48.2625 35.7019C48.2812 36.3185 48.4306 36.991 48.8977 37.4394C49.3087 37.8318 49.9253 37.9439 50.4858 37.8878C50.9528 37.8505 51.4199 37.6449 51.7188 37.2713C52.0925 36.8229 52.2046 36.2251 52.2046 35.6646C52.2046 33.9457 52.2046 32.2269 52.2046 30.5081C52.709 30.5081 53.2135 30.5081 53.7179 30.5081C53.7179 31.984 53.7179 33.46 53.7179 34.9359C53.7179 35.4217 53.7366 35.9074 53.6618 36.3932C53.5497 37.1218 53.2695 37.8505 52.7464 38.3736C52.2793 38.8593 51.6628 39.1396 51.0089 39.2517C50.2242 39.3825 49.3835 39.3264 48.6548 39.0088C48.113 38.7659 47.6273 38.3736 47.3284 37.8505C46.9173 37.2526 46.7679 36.5053 46.7305 35.758Z" fill="black"/>
<path d="M57.3984 32.7687C58.1084 32.6193 58.9117 32.694 59.5283 33.0863C59.9766 33.3666 60.2943 33.815 60.4624 34.3007C60.5932 34.6931 60.6492 35.1228 60.6492 35.5338C60.6492 36.7669 60.6492 37.9999 60.6492 39.233C60.1448 39.233 59.6404 39.233 59.1359 39.233C59.1359 38.112 59.1359 36.991 59.1359 35.8701C59.1359 35.4964 59.1172 35.0854 58.9491 34.7304C58.837 34.4689 58.6128 34.2634 58.3512 34.1513C58.0523 34.0205 57.6973 34.0018 57.3797 34.0578C57.0434 34.1139 56.7258 34.282 56.5016 34.5623C56.2401 34.8986 56.1467 35.347 56.1467 35.758C56.1467 36.9163 56.1467 38.0747 56.1467 39.233C55.6422 39.233 55.1378 39.233 54.6333 39.233C54.6333 37.1031 54.6333 34.9546 54.6333 32.8248C55.0631 32.8248 55.5114 32.8248 55.9411 32.8248C55.9411 33.1237 55.9411 33.4226 55.9411 33.7402C56.2588 33.2171 56.8192 32.8808 57.3984 32.7687Z" fill="black"/>
<path d="M66.7959 32.7127C67.5806 32.6379 68.3839 32.7874 69.0565 33.2171C69.617 33.5534 70.0467 34.0765 70.2896 34.6744C70.7753 35.8327 70.6072 37.2713 69.7851 38.2241C69.2994 38.7846 68.6268 39.1583 67.8982 39.289C67.0948 39.4385 66.2167 39.3451 65.4881 38.9527C64.9089 38.6538 64.4418 38.1681 64.1616 37.6076C63.5824 36.4306 63.6945 34.9173 64.5353 33.9084C65.0957 33.1984 65.9365 32.7874 66.7959 32.7127ZM66.9267 34.0952C66.4409 34.1513 65.9925 34.4128 65.6936 34.7865C65.1331 35.4964 65.1518 36.58 65.7123 37.29C66.0673 37.7384 66.6651 37.9999 67.2443 37.9626C67.8234 37.9626 68.4026 37.6636 68.7576 37.1779C69.2807 36.4492 69.2434 35.347 68.6268 34.6931C68.1971 34.226 67.5432 34.0018 66.9267 34.0952Z" fill="black"/>
<path d="M74.0448 32.7687C74.7548 32.6193 75.5395 32.6753 76.156 33.0676C76.6044 33.3292 76.922 33.7589 77.1088 34.2447C77.2583 34.637 77.3143 35.0667 77.3143 35.4964C77.3143 36.7482 77.3143 37.9999 77.3143 39.233C76.8099 39.233 76.3055 39.233 75.801 39.233C75.801 38.056 75.801 36.8603 75.801 35.6832C75.801 35.2909 75.745 34.8986 75.5208 34.5623C75.3526 34.3007 75.0724 34.1326 74.7735 34.0765C74.4559 34.0018 74.1196 34.0205 73.8206 34.1139C73.5217 34.2073 73.2602 34.3941 73.092 34.6557C72.8678 34.9733 72.7931 35.3843 72.7931 35.758C72.7931 36.9163 72.7931 38.0747 72.7931 39.233C72.2886 39.233 71.7842 39.233 71.2798 39.233C71.2798 37.1031 71.2798 34.9546 71.2798 32.8248C71.7095 32.8248 72.1579 32.8248 72.5876 32.8248C72.5876 33.1237 72.5876 33.4226 72.5876 33.7402C72.9052 33.2171 73.4657 32.8995 74.0448 32.7687Z" fill="black"/>
<path d="M61.6021 32.8248C62.1065 32.8248 62.6109 32.8248 63.1154 32.8248C63.1154 34.9546 63.1154 37.1031 63.1154 39.233C62.6109 39.233 62.1065 39.233 61.6021 39.233C61.6021 37.0845 61.6021 34.9546 61.6021 32.8248Z" fill="black"/>
</svg>
