<svg xmlns="http://www.w3.org/2000/svg" width="100" height="60" fill="none"><path fill="#163300" d="M0 0h100v60H0z"/><path fill="#fff" d="M55.006 20.299h5.415l-2.724 19.435h-5.415zm-6.827 0-3.655 11.196-1.595-11.196h-3.787l-4.784 11.163-.598-11.163h-5.25l1.828 19.435h4.352l5.382-12.292 1.894 12.292h4.286L53.328 20.3zm45.465 11.296H80.787c.066 2.525 1.578 4.186 3.804 4.186 1.678 0 3.007-.897 4.037-2.608l4.34 1.973C91.476 38.085 88.333 40 84.458 40c-5.282 0-8.787-3.555-8.787-9.269 0-6.28 4.12-10.731 9.933-10.731 5.116 0 8.34 3.455 8.34 8.837 0 .897-.1 1.794-.3 2.758m-4.817-3.721c0-2.26-1.263-3.688-3.29-3.688-2.026 0-3.82 1.495-4.285 3.688zm-77.242-1.718-5.528 6.46h9.87l1.11-3.046h-4.229l2.585-2.989.008-.08-1.681-2.891h7.56l-5.86 16.124h4.01L26.505 20.3H8.223l3.36 5.857zm57.64-1.97c1.91 0 3.585 1.027 5.047 2.787l.767-5.478C73.677 20.573 71.833 20 69.391 20c-4.85 0-7.574 2.84-7.574 6.445 0 2.5 1.395 4.028 3.687 5.017l1.097.498c2.043.872 2.591 1.304 2.591 2.226s-.922 1.562-2.325 1.562c-2.318.008-4.195-1.18-5.607-3.206l-.782 5.583C62.086 39.35 64.148 40 66.867 40c4.61 0 7.441-2.658 7.441-6.346 0-2.508-1.113-4.119-3.92-5.382l-1.196-.564c-1.661-.74-2.226-1.146-2.226-1.96 0-.88.773-1.562 2.26-1.562"/></svg>