<svg width="100" height="60" viewBox="0 0 100 60" fill="none" xmlns="http://www.w3.org/2000/svg">
<path d="M32.676 34.5699L34.956 27.1889C35.023 26.9659 35.091 26.8989 35.379 26.8469L35.987 26.7479V25.8539H32.793L32.609 26.7479L33.707 26.8819L31.831 32.9939L30.194 26.0969H28.418L26.477 33.0109L24.586 26.8809L25.666 26.7479V25.8539H22.271L22.067 26.7479L22.794 26.8979C22.998 26.9479 23.081 26.9829 23.149 27.1879L25.531 34.5679H27.39L29.246 27.8199L30.869 34.5679L32.676 34.5699ZM40.16 34.7519C43.03 34.7519 44.313 32.9059 44.313 30.0519C44.313 27.5039 43.198 25.6619 40.328 25.6619C37.458 25.6619 36.108 27.4869 36.108 30.1539C36.108 32.8539 37.238 34.7519 40.16 34.7519ZM40.21 33.5169C38.55 33.5169 37.693 32.4309 37.693 30.1709C37.693 27.9269 38.651 26.9429 40.293 26.9429C41.92 26.9429 42.727 27.9269 42.727 30.1539C42.727 32.4809 41.837 33.5169 40.21 33.5169ZM49.49 34.5579V33.6659L47.9 33.5299C47.642 33.5129 47.624 33.4629 47.624 33.1899V28.0579C48.022 27.6819 48.902 26.9829 49.682 26.9829C49.835 26.9829 49.87 27.0159 49.888 27.1529L50.095 28.3409L51.277 28.3929V25.8199C50.976 25.7239 50.461 25.6559 50.077 25.6559C48.902 25.6559 48.057 26.3869 47.492 27.0159L47.442 26.9999L47.279 25.8379H45.093L44.941 26.7429L45.904 27.0649C46.073 27.1159 46.124 27.2349 46.124 27.4229V33.2069C46.124 33.4619 46.09 33.5139 45.854 33.5469L45.009 33.6469V34.5569H49.491M55.501 34.5579L51.401 34.5589V33.6489L52.448 33.5469C52.685 33.5299 52.718 33.4629 52.718 33.2069V23.2969C52.718 23.1099 52.668 22.9909 52.498 22.9399L51.484 22.6159L51.637 21.7119H54.219V33.2069C54.219 33.4809 54.237 33.5129 54.489 33.5479L55.501 33.6659V34.5579ZM64.73 34.5659V33.6589L63.869 33.5399C63.616 33.5059 63.599 33.4699 63.599 33.1999V21.7119H61.051L60.898 22.6159L61.911 22.9409C62.064 22.9909 62.131 23.1109 62.131 23.2829V26.4719C61.3754 25.9389 60.4727 25.6541 59.548 25.6569C57.522 25.6569 56.027 27.0329 56.027 30.3879C56.027 33.5029 57.287 34.7499 59.211 34.7499C60.527 34.7499 61.406 34.1599 62.181 33.4169L62.247 33.4349L62.378 34.5659H64.73ZM62.098 32.0599C61.355 32.8059 60.544 33.4689 59.548 33.4689C58.366 33.4689 57.574 32.7039 57.574 30.3439C57.574 28.3239 58.197 26.9309 59.785 26.9309C60.679 26.9309 61.59 27.4239 62.098 27.8489V32.0599Z" fill="#8A8B87"/>
<path d="M69.722 38.1429V37.2509L68.136 37.1149C67.883 37.0969 67.865 37.0479 67.865 36.7729V33.8209C68.659 34.5189 69.469 34.7549 70.431 34.7549C73.08 34.7549 73.937 32.4099 73.937 29.8589C73.937 26.8689 72.659 25.6689 70.77 25.6689C69.622 25.6689 68.676 26.1369 67.748 26.8189L67.698 26.8019L67.548 25.8389H65.334L65.182 26.7439L66.144 27.0659C66.314 27.1159 66.366 27.2339 66.366 27.4199V36.7909C66.366 37.0479 66.314 37.0969 66.078 37.1309L65.385 37.2329V38.1429H69.722ZM67.865 28.0049C68.355 27.6149 69.369 26.9509 70.449 26.9509C71.495 26.9509 72.391 27.6819 72.391 29.9959C72.391 32.1379 71.781 33.4809 70.178 33.4809C69.283 33.4809 68.44 32.9369 67.865 32.3759V28.0049ZM82.805 34.5659V33.6589L81.943 33.5399C81.691 33.5059 81.673 33.4699 81.673 33.1999V28.6949C81.673 26.3369 80.873 25.6529 78.489 25.6529C77.165 25.6529 75.242 25.8919 75.242 27.9939L76.696 28.1489C76.713 26.8659 77.45 26.8339 78.476 26.8339C79.936 26.8339 80.173 27.4479 80.173 28.6949V29.6009L77.905 29.7879C75.88 29.9579 74.834 30.7529 74.834 32.4429C74.834 33.3039 75.104 34.7459 77.211 34.7459C78.507 34.7459 79.448 34.1949 80.257 33.4409L80.307 33.4549L80.457 34.5659H82.805ZM80.173 32.2559C79.651 32.7469 78.589 33.5559 77.599 33.5559C76.807 33.5559 76.422 33.1859 76.422 32.2739C76.422 31.3969 76.825 30.9739 78.27 30.8399L80.173 30.6699V32.2559ZM88.694 38.1429V37.2639L87.06 37.0969L91.154 27.1189C91.237 26.9309 91.373 26.8649 91.576 26.8299L92.149 26.7479V25.8539H88.812L88.628 26.7479L89.773 26.8819L87.431 32.6129L85.191 26.8819L86.301 26.7479V25.8539H82.815L82.614 26.7479L83.304 26.9159C83.506 26.9659 83.574 27.0009 83.657 27.2059L86.69 34.4729L85.711 36.7389C85.611 36.9789 85.544 37.0829 85.343 37.0969L84.129 37.2489V38.1429H88.694ZM15.018 24.0649C15.941 24.2649 16.99 24.6609 17.894 25.5669C18.185 25.8559 18.438 26.2529 18.546 26.5599C18.6 26.6859 18.6 26.8859 18.691 27.0119C18.836 27.2309 19.089 27.4109 19.269 27.6449C19.505 27.8979 19.649 28.1709 19.777 28.4599C19.83 28.5499 19.849 28.6769 19.903 28.7849C19.975 28.9289 20.103 29.6159 20.103 29.8709C20.103 30.3959 19.921 31.0469 19.685 31.5519C19.685 31.5719 19.705 31.5719 19.705 31.6249V32.0769C19.505 34.8629 16.157 36.8699 14.057 36.8699C13.804 36.8699 13.081 36.8329 13.081 36.3269C13.081 36.2719 13.118 36.1099 13.154 35.9839C12.754 36.0389 11.976 36.1829 11.524 36.1829C11.182 36.1829 9.606 36.1649 9.606 35.3139C9.606 34.5189 11.017 34.4639 11.29 34.4639C12.048 34.4639 12.845 34.6809 13.624 35.0439C13.496 35.0789 13.262 35.1519 13.226 35.1519C13.171 35.1519 13.098 35.0959 13.026 35.0789C12.5091 34.8939 11.965 34.7966 11.416 34.7909C11.109 34.7909 11.054 34.7709 10.692 34.8629C10.656 34.8629 10.022 35.0249 10.022 35.2779C10.022 35.4579 10.529 35.5679 10.637 35.5849C10.854 35.6209 11.307 35.6579 11.343 35.6579C14.565 35.6579 19.56 32.9809 19.56 29.7779C19.56 29.1829 19.289 28.3339 18.745 27.7889C18.708 28.0249 18.655 28.2779 18.564 28.5329C18.51 28.6949 18.366 28.9839 18.366 29.0199C18.366 29.0199 19.269 30.0149 19.269 30.2329C19.269 30.3589 19.072 30.9179 19.072 30.9379C18.8785 30.3819 18.5556 29.8797 18.13 29.4729C18.057 29.5459 17.985 29.6529 17.913 29.7449C17.822 29.8709 17.713 29.9969 17.605 30.1249C17.369 30.3959 16.827 30.8649 16.827 30.9179C16.827 30.9179 17.477 31.5709 17.697 32.3299C17.732 32.4389 17.786 32.6549 17.786 32.6909C17.786 32.8009 17.424 33.0359 17.424 33.0539C17.405 32.4389 17.152 31.7879 16.482 31.1729C15.738 31.7214 14.9446 32.1994 14.112 32.6009C14.582 32.9999 14.854 33.5789 14.854 33.9929C14.854 34.1929 14.746 34.6269 14.654 34.6809C14.5421 34.7483 14.4203 34.7976 14.293 34.8269C14.438 34.6449 14.565 34.2289 14.565 34.0489C14.565 33.7229 14.348 33.2159 13.985 32.9439C13.895 32.8899 13.768 32.7639 13.732 32.7639C13.679 32.7639 13.226 32.9639 12.973 33.0539C12.682 33.1629 12.375 33.2529 12.068 33.3419C11.145 33.6149 10.276 33.7769 9.389 33.7769C9.045 33.7769 7.542 33.7409 7.542 32.9269C7.542 31.7149 10.331 31.6049 10.709 31.6049C11.543 31.6049 12.339 31.6979 13.19 32.0769C13.026 32.1299 12.718 32.2569 12.682 32.2569C12.628 32.2569 11.687 31.9859 10.837 31.9859C10.457 31.9859 9.987 32.0229 9.625 32.0939C9.334 32.1499 9.045 32.2229 8.792 32.3299C8.702 32.3489 8.032 32.6369 8.032 32.8899C8.032 32.9269 8.139 32.9999 8.212 33.0359C8.575 33.2159 8.901 33.1999 9.262 33.1999C12.682 33.1999 17.93 30.5029 18.238 27.6999V27.2479C18.074 25.4209 15.252 24.2449 13.877 24.2449C13.841 24.2449 13.607 24.2649 13.46 24.2989C13.551 24.3349 13.66 24.3349 13.751 24.3719C13.823 24.3909 13.913 24.4279 14.004 24.4619C14.149 24.5179 14.401 24.6439 14.565 24.7869C14.691 24.8969 14.763 25.0589 14.891 25.1489C14.981 25.2409 15.162 25.2209 15.307 25.2769C15.777 25.4209 16.357 25.6369 16.846 25.8559C17.043 25.9629 17.297 26.0729 17.516 26.1989C17.588 26.2529 17.641 26.3609 17.696 26.4509C17.786 26.5959 17.894 26.8319 17.93 27.0309C16.99 26.3249 16.049 25.9629 15.107 25.6569H15.054C15.09 26.1449 14.891 26.6329 14.546 27.1219C15.579 27.3929 16.664 27.7889 17.732 28.5319C17.678 28.6589 17.605 28.8019 17.516 28.9289C17.063 28.6039 16.574 28.3509 16.121 28.1339C16.013 28.0809 14.493 27.5189 14.257 27.5189C14.202 27.5189 13.841 27.8809 13.642 28.0439C13.154 28.4409 12.665 28.7489 12.176 29.0379C13.496 29.2199 14.818 29.5079 16.138 30.3759C16.048 30.4659 15.849 30.6479 15.796 30.6479C15.76 30.6479 15.416 30.3959 15.216 30.3039C14.293 29.8519 12.537 29.4189 11.47 29.4189C11.38 29.4189 10.331 29.8709 10.076 29.9419C9.334 30.1599 8.52 30.4299 7.761 30.4299C7.507 30.4299 7 30.4129 7 29.9969C7 29.1829 9.878 28.9839 10.076 28.9839H10.709C10.257 29.1639 9.715 29.3639 9.281 29.4729C8.864 29.5819 8.431 29.6529 8.031 29.7789C7.959 29.7989 7.887 29.8519 7.815 29.8889C7.815 29.8889 7.798 29.9069 7.851 29.9069C7.887 29.9069 8.484 29.8159 8.809 29.7449C10.457 29.3459 12.229 28.6949 13.859 27.1949C14.257 26.8129 14.546 26.3429 14.638 25.9289V25.5669C14.582 25.1679 14.004 24.7529 13.642 24.6439C13.3988 24.5734 13.1513 24.519 12.901 24.4809C12.81 24.4809 12.682 24.5349 12.593 24.6799C13.171 24.8059 13.841 24.6799 14.348 25.4039C14.348 25.4039 14.365 25.4209 14.348 25.4569C14.202 25.4039 12.429 24.9859 12.14 24.9859C12.031 24.9859 11.182 25.5839 10.982 25.7099C10.439 26.0359 9.878 26.3429 9.334 26.6129L11.199 26.6329C12.0616 26.6885 12.9199 26.7974 13.769 26.9589C13.732 26.9759 13.407 27.3209 13.334 27.3209C13.298 27.3209 12.718 27.2109 12.429 27.1749C11.904 27.1019 11.362 27.0849 10.819 27.0489L8.467 27.1019C8.339 27.0849 8.087 27.0679 8.087 26.8489C8.087 26.6859 8.284 26.5789 8.43 26.5229C8.54 26.4869 8.665 26.4159 8.774 26.3799C9.932 25.8919 11.126 25.2409 12.304 24.4979C12.267 24.4809 12.194 24.4809 12.157 24.4809C12.104 24.4809 11.959 24.4979 11.851 24.5349C11.868 24.5539 11.887 24.5539 11.904 24.5539C11.742 24.6439 11.47 24.8239 11.416 24.8239C11.29 24.8239 11.109 24.6609 11.109 24.5539C11.109 24.2279 11.851 24.2089 11.904 24.2089C12.646 24.1919 12.701 24.2279 12.754 24.2279C12.79 24.2279 13.098 24.0649 13.298 24.0289C13.588 23.9559 13.732 23.9559 14.004 23.9559C14.312 23.9559 14.674 23.9909 15.018 24.0649ZM13.913 36.4549C13.86 36.4549 13.407 36.4549 13.407 36.2909C13.407 36.2009 13.551 35.9099 13.679 35.8769C13.949 35.7669 14.529 35.6209 14.565 35.6209C14.618 35.6209 15.09 35.6769 15.144 35.6769C15.179 35.6769 15.524 35.6579 15.724 35.6039C16.0038 35.5356 16.2718 35.4257 16.519 35.2779C16.791 35.1149 17.188 34.7709 17.369 34.4819C17.478 34.3189 17.533 34.1019 17.659 33.9569C17.822 33.7409 18.129 33.5589 18.383 33.3249C18.636 33.0699 18.891 32.8009 19.124 32.5109C18.636 34.7909 15.668 36.4539 13.914 36.4539L13.913 36.4549ZM15.198 35.3689C15.7703 35.114 16.3263 34.8241 16.863 34.5009C16.32 35.1149 15.74 35.2779 15.198 35.3689Z" fill="#D9282A"/>
</svg>
