<svg width="100" height="60" viewBox="0 0 100 60" fill="none" xmlns="http://www.w3.org/2000/svg">
<path d="M58.0375 39.4671C57.6241 38.7438 57.3655 37.929 57.247 36.977C57.2302 36.8445 57.1602 36.725 57.0519 36.6466C56.9689 36.5859 56.8699 36.5542 56.7691 36.5542C56.7383 36.5542 56.7075 36.557 56.6767 36.5626C56.4985 36.5981 56.3202 36.6158 56.1475 36.6158C55.5913 36.6158 55.1657 36.5225 55.1657 35.3465V34.2209H55.1629V18.4102C55.1629 18.1676 54.9659 17.9706 54.7223 17.9706H51.5266C51.2839 17.9706 51.0869 18.1676 51.0869 18.4102V35.7273C51.0869 37.0246 51.2064 38.0046 51.8019 38.8801C52.5308 39.8816 53.9822 40.463 55.3159 40.463C55.3859 40.463 55.4559 40.4621 55.5231 40.4621H55.525C56.3351 40.4621 57.1257 40.3884 57.7771 40.1616C57.9125 40.1149 58.0198 40.0094 58.0702 39.875C58.1206 39.7406 58.1085 39.5913 58.0375 39.4671Z" fill="#6D1ED4"/>
<path d="M66.7104 38.9105C66.1214 38.0519 65.9376 37.9035 65.5409 36.9767C65.4877 36.8544 65.4541 36.7247 65.3458 36.6463C65.2628 36.5856 65.1638 36.5548 65.0621 36.5548C65.0322 36.5548 65.0014 36.5576 64.9706 36.5632C64.7924 36.5977 64.6141 36.6155 64.4414 36.6155C63.8852 36.6155 63.4596 36.5221 63.4596 35.3471V34.2205L63.4568 34.2215V18.4108C63.4568 18.1672 63.2598 17.9712 63.0171 17.9712H59.8205C59.5778 17.9712 59.3808 18.1672 59.3808 18.4108V35.7269C59.3808 37.0243 59.5003 38.0043 60.0958 38.8797C60.8247 39.8821 62.2761 40.4627 63.6098 40.4627C63.6798 40.4627 63.7489 40.4627 63.8161 40.4617H63.8189C64.629 40.4617 65.4196 40.388 66.071 40.1612C66.2064 40.1145 66.6908 39.8681 66.7907 39.7664C67.1033 39.4444 66.7916 39.0291 66.7104 38.9105Z" fill="#6D1ED4"/>
<path d="M41.3395 23.6336C38.9147 23.6336 36.8539 24.4867 35.382 26.1014C33.9941 27.6227 33.2297 29.761 33.2297 32.1204C33.2297 34.5163 33.9867 36.5715 35.4184 38.0658C36.923 39.6338 39.0808 40.4626 41.6587 40.4626C44.4438 40.4626 46.7791 39.4882 48.6019 37.5655C48.7689 37.39 48.7764 37.069 48.5879 36.9458C48.3984 36.8216 47.4492 36.1776 46.4963 34.941C46.3824 34.8626 46.3049 34.8187 46.191 34.8187H46.1789C46.0604 34.8224 45.9493 34.8728 45.869 34.9587C44.7742 36.1384 43.3686 36.62 41.7474 36.62C39.3469 36.62 37.8675 35.486 37.5791 33.2871H48.7185C48.9425 33.2871 49.132 33.1182 49.1563 32.8951C49.1964 32.5376 49.2169 32.1391 49.2169 31.7434C49.2169 29.466 48.4693 27.4127 47.1113 25.9623C45.6852 24.4391 43.6888 23.6336 41.3395 23.6336ZM37.6556 30.083C37.9888 28.2546 39.4019 27.0991 41.3685 27.0991C43.3537 27.0991 44.6996 28.2042 45.0477 30.083H37.6556Z" fill="#6D1ED4"/>
<path d="M74.5394 23.6336C72.1145 23.6336 70.0537 24.4867 68.5818 26.1014C67.194 27.6227 66.4295 29.761 66.4295 32.1204C66.4295 34.5163 67.1865 36.5715 68.6182 38.0658C70.1228 39.6338 72.2807 40.4626 74.8595 40.4626C77.6437 40.4626 79.9789 39.4882 81.8017 37.5655C81.9688 37.39 81.9762 37.069 81.7877 36.9458C81.5982 36.8216 80.649 36.1776 79.6961 34.941C79.5831 34.8626 79.5047 34.8187 79.3909 34.8187H79.3787C79.2611 34.8224 79.1491 34.8728 79.0689 34.9587C77.9741 36.1384 76.5684 36.62 74.9472 36.62C72.5467 36.62 71.0673 35.486 70.7789 33.2871H81.9184C82.1433 33.2871 82.3318 33.1182 82.3561 32.8951C82.3962 32.5376 82.4168 32.1391 82.4168 31.7434C82.4168 29.466 81.6692 27.4127 80.3111 25.9623C78.885 24.4391 76.8886 23.6336 74.5394 23.6336ZM70.8555 30.083C71.1896 28.2546 72.6027 27.0991 74.5683 27.0991C76.5535 27.0991 77.8994 28.2042 78.2485 30.083H70.8555Z" fill="#6D1ED4"/>
<path d="M34.0154 39.366C34.0005 39.3501 33.9837 39.3352 33.9678 39.3193C33.9557 39.3072 33.9426 39.296 33.9314 39.2829C33.182 38.5017 32.5753 37.5777 32.1273 36.5371C32.0573 36.3756 31.8986 36.2711 31.7231 36.2711H23.3408L33.5926 23.1531C33.6524 23.0756 33.685 22.9804 33.685 22.8824V20.326C33.685 20.0824 33.489 19.8855 33.2454 19.8855H27.7163V16.2193C27.7163 16.0989 27.6174 16 27.496 16H24.0968C23.9755 16 23.8765 16.0989 23.8765 16.2193V19.8855H18.4585C18.2149 19.8855 18.0179 20.0824 18.0179 20.326V23.2893C18.0179 23.532 18.2149 23.7289 18.4585 23.7289H27.8675L17.6763 36.7303C17.6157 36.8077 17.583 36.9029 17.583 37.0019V39.674C17.583 39.9176 17.779 40.1145 18.0226 40.1145H23.8793V43.7797C23.8793 43.902 23.9783 44 24.0996 44H27.4988C27.6202 44 27.7191 43.902 27.7191 43.7797V40.1145H33.7018C33.8792 40.1145 34.0388 40.0081 34.1078 39.8448C34.176 39.6805 34.1396 39.492 34.0154 39.366Z" fill="#6D1ED4"/>
</svg>
