<svg xmlns="http://www.w3.org/2000/svg" viewBox="0 0 24 24">
    <path d="M21.1 18.3c1.2-1.8 1.9-3.9 1.9-6.3 0-1.5-.3-2.9-.8-4.2 0-.2-.1-.3-.2-.4C20.2 3.6 16.4 1 12 1 5.9 1 1 5.9 1 12c0 1.5.3 2.9.8 4.2 0 .2.1.3.2.4C3.8 20.4 7.6 23 12 23c3.6 0 6.7-1.7 8.7-4.3.2-.1.3-.3.4-.4zM13.7 15h-3.4l-1.7-3 1.7-3h3.5l1.7 2.9-1.8 3.1zM3 12c0-1.4.3-2.8.9-4l4 7H3.5c-.3-.9-.5-1.9-.5-3zm13.2-3h4.3c.3.9.5 1.9.5 3 0 1.4-.3 2.7-.9 3.9L16.2 9zm3.3-2h-8l2.2-3.8c2.4.4 4.5 1.8 5.8 3.8zm-8.1-4l-4 6.9-2.2-3.8C6.7 4.3 8.9 3.2 11.4 3zM4.5 17h8l-2.2 3.8C7.9 20.4 5.8 19 4.5 17zm8.1 4l4-7 2.2 3.9a9.07 9.07 0 0 1-6.2 3.1z"/>
</svg>
