<svg xmlns="http://www.w3.org/2000/svg" viewBox="0 0 24 24">
    <path d="M17 19h-3.2c-.6 0-1-.4-1-1s.4-1 1-1H17c.6 0 1-.4 1-1V8c0-.6-.4-1-1-1h-2c-.6 0-1-.4-1-1s.4-1 1-1h2c1.7 0 3 1.3 3 3v8c0 1.7-1.3 3-3 3zM5 19H3c-1.7 0-3-1.3-3-3V8c0-1.7 1.3-3 3-3h3.2c.6 0 1 .4 1 1s-.4 1-1 1H3c-.6 0-1 .4-1 1v8c0 .6.4 1 1 1h2c.6 0 1 .4 1 1s-.4 1-1 1zm18-5c-.6 0-1-.4-1-1v-2c0-.6.4-1 1-1s1 .4 1 1v2c0 .6-.4 1-1 1z"/>
    <path d="M9 19c-.2 0-.4-.1-.6-.2-.5-.3-.6-.9-.3-1.4l3-4.4H7c-.4 0-.7-.2-.9-.5-.2-.3-.2-.7 0-1l4-6c.3-.5.9-.6 1.4-.3.5.3.6.9.3 1.4l-3 4.4H13c.4 0 .7.2.9.5s.2.7 0 1l-4 6c-.3.3-.6.5-.9.5z"/>
</svg>
