<svg xmlns="http://www.w3.org/2000/svg" viewBox="0 0 24 24">
    <path d="M12 23c-.5 0-1-.1-1.5-.4-.5-.3-.8-.6-1.1-1.1-.3-.5-.1-1.1.4-1.4.5-.3 1.1-.1 1.4.4.1.1.2.3.4.4.5.3 1.1.1 1.4-.4.3-.5.9-.6 1.4-.4.5.3.6.9.4 1.4C14 22.5 13 23 12 23zm6.6-9c-.4 0-.8-.3-1-.7-.4-1.8-.6-3.5-.6-5.3 0-.5.5-1 1-1 .6 0 1 .5 1 1 0 1.6.2 3.2.6 4.7.1.5-.2 1.1-.7 1.2-.1.1-.2.1-.3.1zM17 18H3c-.4 0-.8-.3-1-.7-.1-.4 0-.9.4-1.1 0 0 2.6-1.9 2.6-8.2 0-.7.1-1.4.3-2 .2-.6.7-.9 1.3-.7.5.2.8.7.6 1.3C7.1 7 7 7.5 7 8c0 4-1 6.5-1.9 8H17c.6 0 1 .4 1 1s-.4 1-1 1z"/>
    <path d="M18 9c-.6 0-1-.4-1-1 0-1.3-.5-2.6-1.5-3.5-.9-1-2.2-1.5-3.5-1.5-1 0-2 .3-2.8.8-.4.3-1.1.2-1.4-.2-.3-.5-.1-1.1.3-1.4C9.3 1.4 10.6 1 12 1c3.9 0 7 3.2 7 7 0 .6-.4 1-1 1zm5 15c-.3 0-.5-.1-.7-.3l-22-22C-.1 1.3-.1.7.3.3s1-.4 1.4 0l22 22c.4.4.4 1 0 1.4-.2.2-.4.3-.7.3z"/>
</svg>
