<svg xmlns="http://www.w3.org/2000/svg" viewBox="0 0 24 24">
    <path d="M22.2 7.8c0-.2-.1-.3-.2-.4C20.2 3.6 16.4 1 12 1 8.4 1 5.1 2.8 3.1 5.5 1.8 7.3 1 9.6 1 12c0 6.1 4.9 11 11 11s11-4.9 11-11c0-1.5-.3-2.9-.8-4.2zM12 3c3.1 0 5.9 1.6 7.5 4H12c-2.1 0-3.9 1.2-4.6 3L5.1 6.2C6.8 4.2 9.2 3 12 3zm3 9c0 .6-.1 1.1-.4 1.5l-.1.3c-.6.7-1.5 1.2-2.5 1.2-1.1 0-2.1-.6-2.6-1.5v-.1C9.1 13 9 12.5 9 12c0-1.7 1.3-3 3-3s3 1.3 3 3zM3 12c0-1.4.3-2.8.9-4l3.7 6.5.2.2c.9 1.4 2.4 2.3 4.2 2.3.2 0 .4 0 .6-.1l-2.3 3.9C6.1 20.1 3 16.4 3 12zm9.6 9l3.8-6.5c0-.1 0-.2.1-.3.3-.7.5-1.4.5-2.2 0-1.1-.4-2.2-1-3h4.5c.3.9.5 1.9.5 3 0 4.8-3.7 8.6-8.4 9z"/>
</svg>
