<svg xmlns="http://www.w3.org/2000/svg" viewBox="0 0 24 24">
    <path d="M19 17h-1c-.6 0-1-.4-1-1s.4-1 1-1h1c1.7 0 3-1.3 3-3s-1.3-3-3-3h-1c-.6 0-1-.4-1-1s.4-1 1-1h1c2.8 0 5 2.2 5 5s-2.2 5-5 5z"/>
    <path d="M14 22H6c-2.8 0-5-2.2-5-5V8c0-.6.4-1 1-1h16c.6 0 1 .4 1 1v9c0 2.8-2.2 5-5 5zM3 9v8c0 1.7 1.3 3 3 3h8c1.7 0 3-1.3 3-3V9H3zm3-4c-.6 0-1-.4-1-1V1c0-.6.4-1 1-1s1 .4 1 1v3c0 .6-.4 1-1 1zm4 0c-.6 0-1-.4-1-1V1c0-.6.4-1 1-1s1 .4 1 1v3c0 .6-.4 1-1 1zm4 0c-.6 0-1-.4-1-1V1c0-.6.4-1 1-1s1 .4 1 1v3c0 .6-.4 1-1 1z"/>
</svg>
