<svg xmlns="http://www.w3.org/2000/svg" viewBox="0 0 24 24">
    <path d="M22 6h-2.4c.3-.5.4-1 .4-1.5C20 2.6 18.4 1 16.5 1c-2.3 0-3.7 1.6-4.5 3.1C11.2 2.6 9.8 1 7.5 1 5.6 1 4 2.6 4 4.5c0 .5.1 1 .4 1.5H2c-.6 0-1 .4-1 1v5c0 .6.4 1 1 1h1v9c0 .6.4 1 1 1h16c.6 0 1-.4 1-1v-9h1c.6 0 1-.4 1-1V7c0-.6-.4-1-1-1zm-5.5-3c.8 0 1.5.7 1.5 1.5S17.3 6 16.5 6h-3.2c.5-1.2 1.5-3 3.2-3zM6 4.5C6 3.7 6.7 3 7.5 3c1.7 0 2.7 1.8 3.2 3H7.5C6.7 6 6 5.3 6 4.5zM3 8h8v3H3V8zm2 5h6v8H5v-8zm14 8h-6v-8h6v8zm2-10h-8V8h8v3z"/>
</svg>
