<svg xmlns="http://www.w3.org/2000/svg" viewBox="0 0 24 24">
    <path d="M21 19c-.6 0-1-.4-1-1v-6c0-4.4-3.6-8-8-8s-8 3.6-8 8v6c0 .6-.4 1-1 1s-1-.4-1-1v-6C2 6.5 6.5 2 12 2s10 4.5 10 10v6c0 .6-.4 1-1 1z"/>
    <path d="M19 22h-1c-1.7 0-3-1.3-3-3v-3c0-1.7 1.3-3 3-3h3c.6 0 1 .4 1 1v5c0 1.7-1.3 3-3 3zm-1-7c-.6 0-1 .4-1 1v3c0 .6.4 1 1 1h1c.6 0 1-.4 1-1v-4h-2zM6 22H5c-1.7 0-3-1.3-3-3v-5c0-.6.4-1 1-1h3c1.7 0 3 1.3 3 3v3c0 1.7-1.3 3-3 3zm-2-7v4c0 .6.4 1 1 1h1c.6 0 1-.4 1-1v-3c0-.6-.4-1-1-1H4z"/>
</svg>
