<svg xmlns="http://www.w3.org/2000/svg" viewBox="0 0 24 24">
    <path d="M12 13c-.2 0-.3 0-.4-.1l-10-5C1.2 7.7 1 7.4 1 7s.2-.7.6-.9l10-5c.3-.1.6-.1.9 0l10 5c.3.2.5.5.5.9s-.2.7-.6.9l-10 5c-.1.1-.2.1-.4.1zM4.2 7l7.8 3.9L19.8 7 12 3.1 4.2 7zM12 23c-.2 0-.3 0-.4-.1l-10-5c-.5-.2-.7-.8-.4-1.3.2-.5.8-.7 1.3-.4l9.6 4.8 9.6-4.8c.5-.2 1.1 0 1.3.4.2.5 0 1.1-.4 1.3l-10 5c-.3.1-.4.1-.6.1z"/>
    <path d="M12 18c-.2 0-.3 0-.4-.1l-10-5c-.5-.2-.7-.8-.4-1.3.2-.5.8-.7 1.3-.4l9.6 4.8 9.6-4.8c.5-.2 1.1 0 1.3.4.2.5 0 1.1-.4 1.3l-10 5c-.3.1-.4.1-.6.1z"/>
</svg>
