<svg xmlns="http://www.w3.org/2000/svg" viewBox="0 0 24 24">
    <path d="M19.9 19.7c1.9-2 3.1-4.7 3.1-7.7 0-6.1-4.9-11-11-11-3 0-5.7 1.2-7.7 3.1 0 0-.1 0-.1.1s0 .1-.1.1C2.2 6.3 1 9 1 12s1.2 5.7 3.1 7.7c0 0 0 .1.1.1l.1.1C6.3 21.8 9 23 12 23s5.7-1.2 7.7-3.1c0 0 .1 0 .1-.1 0 0 0-.1.1-.1zm-.9-2.1l-2.9-2.9c.6-.7.9-1.7.9-2.7s-.3-2-.8-2.8L19 6.4c1.2 1.5 2 3.5 2 5.6s-.7 4.1-2 5.6zM9 12c0-1.7 1.3-3 3-3 .8 0 1.5.3 2 .7 0 .1.1.1.1.2.1.1.1.1.2.1.5.5.7 1.2.7 2 0 1.7-1.3 3-3 3s-3-1.3-3-3zm8.6-7l-2.9 2.9C14 7.3 13 7 12 7s-2 .3-2.8.8L6.4 5C7.9 3.7 9.9 3 12 3s4.1.7 5.6 2zM5 6.4l2.9 2.9C7.3 10 7 11 7 12s.3 2 .8 2.8L5 17.6c-1.2-1.5-2-3.5-2-5.6s.7-4.1 2-5.6zM6.4 19l2.9-2.9c.7.6 1.7.9 2.7.9s2-.3 2.8-.8l2.9 2.9c-1.5 1.2-3.5 2-5.6 2s-4.2-.8-5.7-2.1z"/>
</svg>
