<svg xmlns="http://www.w3.org/2000/svg" viewBox="0 0 24 24">
    <path d="M21 7H8c-.6 0-1-.4-1-1s.4-1 1-1h13c.6 0 1 .4 1 1s-.4 1-1 1zm0 6H8c-.6 0-1-.4-1-1s.4-1 1-1h13c.6 0 1 .4 1 1s-.4 1-1 1zm0 6H8c-.6 0-1-.4-1-1s.4-1 1-1h13c.6 0 1 .4 1 1s-.4 1-1 1zM3 7c-.3 0-.5-.1-.7-.3-.2-.2-.3-.4-.3-.7v-.2c0-.1 0-.1.1-.2 0-.1.1-.1.1-.2l.1-.1c.1-.1.2-.2.3-.2.4-.2.8-.1 1.1.2l.1.1c0 .1.1.1.1.2s0 .1.1.2V6c0 .1 0 .3-.1.4 0 .1-.1.2-.2.3-.2.2-.4.3-.7.3zm0 6c-.3 0-.5-.1-.7-.3l-.1-.1c0-.1-.1-.1-.1-.2s0-.1-.1-.2V12c0-.3.1-.5.3-.7.2-.2.6-.3.9-.3h.2c.1 0 .1.1.2.1l.1.1c.1.1.2.2.2.3.1.2.1.4.1.5v.2c0 .1 0 .1-.1.2 0 .1-.1.1-.1.2s-.1.1-.1.1c-.1 0-.1.1-.1.1-.1 0-.1.1-.2.1s-.1 0-.2.1H3zm0 6c-.3 0-.5-.1-.7-.3-.2-.2-.3-.4-.3-.7 0-.3.1-.5.3-.7.4-.4 1-.4 1.4 0 .2.2.3.4.3.7 0 .3-.1.5-.3.7-.2.2-.4.3-.7.3z"/>
</svg>
