<svg xmlns="http://www.w3.org/2000/svg" viewBox="0 0 24 24">
    <path d="M23 24c-.3 0-.5-.1-.7-.3l-22-22C-.1 1.3-.1.7.3.3s1-.4 1.4 0l22 22c.4.4.4 1 0 1.4-.2.2-.4.3-.7.3z"/>
    <path d="M12 16c-1.1 0-2.1-.4-2.8-1.2C8.4 14.1 8 13.1 8 12V9c0-.6.4-1 1-1s1 .4 1 1v3c0 .5.2 1 .6 1.4.4.4.9.6 1.4.6.5 0 1-.2 1.4-.6.4-.4 1-.4 1.4 0s.4 1 0 1.4c-.7.8-1.7 1.2-2.8 1.2zm3-5.7c-.6 0-1-.4-1-1V4c0-.5-.2-1-.6-1.4-.4-.4-.9-.6-1.4-.6-.9 0-1.8.7-2 1.6-.1.5-.6.9-1.1.8-.6-.1-.9-.7-.8-1.2.4-1.9 2-3.2 3.9-3.2 1.1 0 2.1.4 2.8 1.2.8.7 1.2 1.7 1.2 2.8v5.3c0 .6-.4 1-1 1z"/>
    <path d="M12 20c-2 0-4-.8-5.6-2.3C4.9 16.3 4 14.2 4 12v-2c0-.6.4-1 1-1s1 .4 1 1v2c0 1.6.6 3.2 1.8 4.3 2.4 2.3 6.2 2.3 8.5-.1.4-.4 1-.4 1.4 0 .4.4.4 1 0 1.4-1.5 1.6-3.6 2.4-5.7 2.4zm6.9-5.8h-.2c-.5-.1-.9-.6-.8-1.2.1-.3.1-.6.1-1v-2c0-.6.4-1 1-1s1 .4 1 1v2c0 .5 0 .9-.1 1.4-.1.5-.5.8-1 .8z"/>
    <path d="M12 24c-.6 0-1-.4-1-1v-4c0-.6.4-1 1-1s1 .4 1 1v4c0 .6-.4 1-1 1z"/>
    <path d="M16 24H8c-.6 0-1-.4-1-1s.4-1 1-1h8c.6 0 1 .4 1 1s-.4 1-1 1z"/>
</svg>
