<svg xmlns="http://www.w3.org/2000/svg" viewBox="0 0 24 24">
    <path d="M8 23c-1.9 0-3.6-.7-5-2.1C.3 18.2.3 13.7 3 11l9.2-9.2C13.1.9 14.4.3 15.7.3c1.3 0 2.6.5 3.5 1.5 2 2 2 5.1 0 7.1L10 18.1c-1.2 1.2-3.1 1.2-4.2 0-.5-.5-.8-1.3-.8-2.1s.3-1.6.9-2.1l8.5-8.5c.4-.4 1-.4 1.4 0 .4.4.4 1 0 1.4l-8.5 8.5c-.2.2-.3.4-.3.7s.1.5.3.7c.4.4 1 .4 1.4 0l9.2-9.2c1.2-1.2 1.2-3.1 0-4.2-1.1-1.1-3.1-1.1-4.2 0l-9.2 9.2c-2 2-2 5.1 0 7.1.9.9 2.2 1.4 3.5 1.4s2.6-.5 3.5-1.5l9.2-9.2c.4-.4 1-.4 1.4 0s.4 1 0 1.4L13 20.9C11.6 22.3 9.9 23 8 23z"/>
</svg>
