<svg xmlns="http://www.w3.org/2000/svg" viewBox="0 0 24 24">
    <path d="M18 10c-.6 0-1-.4-1-1V3H7v6c0 .6-.4 1-1 1s-1-.4-1-1V2c0-.6.4-1 1-1h12c.6 0 1 .4 1 1v7c0 .6-.4 1-1 1z"/>
    <path d="M20 19h-2c-.6 0-1-.4-1-1s.4-1 1-1h2c.6 0 1-.4 1-1v-5c0-.6-.4-1-1-1H4c-.6 0-1 .4-1 1v5c0 .6.4 1 1 1h2c.6 0 1 .4 1 1s-.4 1-1 1H4c-1.7 0-3-1.3-3-3v-5c0-1.7 1.3-3 3-3h16c1.7 0 3 1.3 3 3v5c0 1.7-1.3 3-3 3z"/>
    <path d="M18 23H6c-.6 0-1-.4-1-1v-8c0-.6.4-1 1-1h12c.6 0 1 .4 1 1v8c0 .6-.4 1-1 1zM7 21h10v-6H7v6z"/>
</svg>
