<svg xmlns="http://www.w3.org/2000/svg" viewBox="0 0 24 24">
    <path d="M7 11H1c-.6 0-1-.4-1-1V4c0-.6.4-1 1-1s1 .4 1 1v5h5c.6 0 1 .4 1 1s-.4 1-1 1z"/>
    <path d="M12 22c-4.1 0-8-2.6-9.4-6.7-.2-.5.1-1.1.6-1.3.5-.2 1.1.1 1.3.6 1.5 4.2 6 6.4 10.2 4.9 2-.7 3.6-2.2 4.6-4.1.9-1.9 1-4.1.3-6.1s-2.2-3.6-4.1-4.6c-1.9-.9-4.1-1-6.1-.3-1.1.4-2.2 1-3 1.9l-4.7 4.4c-.4.4-1 .4-1.4 0-.4-.4-.4-1 0-1.4L5 4.9c1-1 2.3-1.8 3.7-2.3 2.5-.9 5.2-.7 7.6.4 2.4 1.2 4.2 3.2 5.1 5.7 1.8 5.2-.9 10.9-6.1 12.8-1.1.3-2.2.5-3.3.5z"/>
</svg>
