<svg xmlns="http://www.w3.org/2000/svg" viewBox="0 0 24 24">
    <path d="M19.7 15h-.3c-.5-.2-.8-.7-.7-1.2.2-.6.3-1.1.3-1.7V5.7l-7-2.6-2.8 1c-.5.2-1.1-.1-1.3-.6-.2-.5.1-1.1.6-1.3L11.7 1c.2-.1.5-.1.7 0l8 3c.3.2.6.6.6 1v7c0 .8-.1 1.6-.4 2.3-.1.4-.5.7-.9.7zM12 23c-.2 0-.3 0-.4-.1C11.2 22.7 3 18.5 3 12V5c0-.4.3-.8.7-.9l.7-.3c.5-.2 1.1.1 1.3.6.2.5-.1 1.1-.6 1.3H5V12c0 4.5 5.4 7.9 7 8.9 1.8-1 3.5-2.3 4.9-3.9.4-.4 1-.4 1.4-.1s.4 1 .1 1.4c-1.7 1.9-3.7 3.4-5.9 4.6-.2.1-.3.1-.5.1z"/>
    <path d="M23 24c-.3 0-.5-.1-.7-.3l-22-22C-.1 1.3-.1.7.3.3s1-.4 1.4 0l22 22c.4.4.4 1 0 1.4-.2.2-.4.3-.7.3z"/>
</svg>
