<svg xmlns="http://www.w3.org/2000/svg" viewBox="0 0 24 24">
    <path d="M21 9c-.6 0-1-.4-1-1V4h-4c-.6 0-1-.4-1-1s.4-1 1-1h5c.6 0 1 .4 1 1v5c0 .6-.4 1-1 1z"/>
    <path d="M4 21c-.3 0-.5-.1-.7-.3-.4-.4-.4-1 0-1.4l17-17c.4-.4 1-.4 1.4 0s.4 1 0 1.4l-17 17c-.2.2-.4.3-.7.3zm17 1h-5c-.6 0-1-.4-1-1s.4-1 1-1h4v-4c0-.6.4-1 1-1s1 .4 1 1v5c0 .6-.4 1-1 1z"/>
    <path d="M21 22c-.3 0-.5-.1-.7-.3l-6-6c-.4-.4-.4-1 0-1.4s1-.4 1.4 0l6 6c.4.4.4 1 0 1.4-.2.2-.4.3-.7.3zM9 10c-.3 0-.5-.1-.7-.3l-5-5c-.4-.4-.4-1 0-1.4s1-.4 1.4 0l5 5c.4.4.4 1 0 1.4-.2.2-.4.3-.7.3z"/>
</svg>
