<svg xmlns="http://www.w3.org/2000/svg" viewBox="0 0 24 24">
    <path d="M4 22c-.6 0-1-.4-1-1v-7c0-.6.4-1 1-1s1 .4 1 1v7c0 .6-.4 1-1 1zm0-11c-.6 0-1-.4-1-1V3c0-.6.4-1 1-1s1 .4 1 1v7c0 .6-.4 1-1 1zm8 11c-.6 0-1-.4-1-1v-9c0-.6.4-1 1-1s1 .4 1 1v9c0 .6-.4 1-1 1zm0-13c-.6 0-1-.4-1-1V3c0-.6.4-1 1-1s1 .4 1 1v5c0 .6-.4 1-1 1zm8 13c-.6 0-1-.4-1-1v-5c0-.6.4-1 1-1s1 .4 1 1v5c0 .6-.4 1-1 1zm0-9c-.6 0-1-.4-1-1V3c0-.6.4-1 1-1s1 .4 1 1v9c0 .6-.4 1-1 1z"/>
    <path d="M7 15H1c-.6 0-1-.4-1-1s.4-1 1-1h6c.6 0 1 .4 1 1s-.4 1-1 1zm8-6H9c-.6 0-1-.4-1-1s.4-1 1-1h6c.6 0 1 .4 1 1s-.4 1-1 1zm8 8h-6c-.6 0-1-.4-1-1s.4-1 1-1h6c.6 0 1 .4 1 1s-.4 1-1 1z"/>
</svg>
