<svg xmlns="http://www.w3.org/2000/svg" viewBox="0 0 24 24">
    <path d="M8.3 21.9c-2.6 0-5.3-.7-7.7-2.1-.4-.2-.6-.7-.5-1.1.1-.4.5-.7.9-.7 1.7.1 3.4-.3 4.9-1C-1.7 12.4 2 3.7 2.1 3.6c.1-.3.4-.6.8-.6s.7.1.9.4C5.5 5.8 8.1 7.3 11 7.5c0-1.6.7-3.1 1.9-4.2 1.1-1 2.5-1.4 4-1.3 1.2.1 2.4.6 3.3 1.4.8-.3 1.6-.7 2.3-1.2.3-.2.8-.2 1.1 0 .3.2.5.7.4 1.1-.3 1.4-1 2.7-2 3.8v.5c0 5.5-2.4 10.1-6.7 12.5-2.1 1.2-4.5 1.8-7 1.8zM5 19.5c3.2.8 6.6.4 9.4-1.2 3.6-2.1 5.7-6.1 5.7-10.8 0-.2 0-.4-.1-.6-.1-.3 0-.7.3-.9.2-.2.4-.5.6-.7-.2.1-.5.2-.7.2-.4.1-.8 0-1-.3-.6-.7-1.5-1.1-2.4-1.2-.9-.1-1.8.2-2.5.8-.9.7-1.3 1.7-1.3 2.7v1c0 .5-.4 1-1 1-3.3.1-6.4-1.2-8.6-3.5-.6 2.6-.8 7.5 5 10 .3.2.6.5.6.9s-.1.7-.4.9c-1.2.8-2.4 1.4-3.6 1.7z"/>
</svg>
