<svg xmlns="http://www.w3.org/2000/svg" viewBox="0 0 24 24">
    <path d="M16 17c-.3 0-.5-.1-.7-.3L12 13.4l-3.3 3.3c-.4.4-1 .4-1.4 0s-.4-1 0-1.4l4-4c.4-.4 1-.4 1.4 0l4 4c.4.4.4 1 0 1.4-.2.2-.4.3-.7.3z"/>
    <path d="M12 22c-.6 0-1-.4-1-1v-9c0-.6.4-1 1-1s1 .4 1 1v9c0 .6-.4 1-1 1z"/>
    <path d="M20.4 19.4c-.4 0-.7-.2-.9-.5-.3-.5-.1-1.1.4-1.4.9-.5 1.6-1.4 1.9-2.4.3-1 .2-2.1-.3-3-.7-1.3-2-2.1-3.5-2.1h-1.3c-.5 0-.9-.3-1-.7-1-3.7-4.8-6-8.5-5-1.8.4-3.3 1.5-4.2 3.1-1 1.7-1.3 3.5-.8 5.4.3 1.1.8 2.1 1.5 2.9.4.4.3 1-.1 1.4-.4.4-1 .3-1.4-.1-.9-1.1-1.6-2.3-2-3.7-.6-2.3-.3-4.7 1-6.8S4.4 3 6.7 2.4c4.6-1.2 9.2 1.4 10.7 5.7h.6c2.2 0 4.2 1.2 5.3 3.1.8 1.4.9 3 .5 4.6-.5 1.5-1.5 2.8-2.9 3.6h-.5z"/>
    <path d="M16 17c-.3 0-.5-.1-.7-.3L12 13.4l-3.3 3.3c-.4.4-1 .4-1.4 0s-.4-1 0-1.4l4-4c.4-.4 1-.4 1.4 0l4 4c.4.4.4 1 0 1.4-.2.2-.4.3-.7.3z"/>
</svg>
