<svg xmlns="http://www.w3.org/2000/svg" viewBox="0 0 24 24">
    <path d="M12 20.5c-.7 0-7.1 0-8.9-.5-1.3-.3-2.3-1.3-2.6-2.6-.4-2-.5-3.8-.5-5.7C0 9.9.2 8 .5 6.2c.3-1.4 1.4-2.4 2.7-2.8C4.9 3 11.3 3 12 3c.7 0 7.1 0 8.8.4 1.3.4 2.3 1.4 2.7 2.7v.1c.3 1.8.5 3.7.5 5.5 0 1.8-.2 3.6-.5 5.4-.3 1.4-1.4 2.4-2.7 2.8-1.7.5-8.1.6-8.8.6zM12 5c-2.7 0-7.2.1-8.3.4-.6.2-1.1.7-1.3 1.3-.3 1.6-.4 3.3-.4 5 0 1.7.1 3.5.4 5.2.1.5.6 1 1.2 1.1 1.2.3 5.6.4 8.3.4s7.2-.1 8.3-.4c.6-.2 1.1-.7 1.2-1.3.3-1.6.4-3.3.4-5 0-1.7-.1-3.4-.4-5.1-.2-.6-.6-1.1-1.2-1.3C19 5.1 13.9 5 12 5z"/>
    <path d="M9.8 16c-.2 0-.3 0-.5-.1-.3-.2-.5-.5-.5-.9V8.5c0-.4.2-.7.5-.9.3-.2.7-.2 1 0l5.8 3.3c.3.2.5.5.5.9s-.2.7-.5.9L10.4 16h-.6zm1-5.8v3.1l2.7-1.6-2.7-1.5z"/>
</svg>
