<svg xmlns="http://www.w3.org/2000/svg" viewBox="0 0 24 24">
    <path d="M15.8 11H19l-1.1 1.3c-.4.4-.3 1 .1 1.4.1.1.4.2.6.2.3 0 .5-.1.8-.3l2.4-2.9c.2-.3.3-.7.1-1.1-.2-.4-.5-.6-.9-.6h-5.2c-.6 0-1 .4-1 1s.4 1 1 1zm-4.4-5.5l.2-.3-.2 1.4c0 .5.4 1 .9 1.1h.1c.5 0 .9-.3 1-.8l.6-4.8c0-.4-.2-.8-.6-1-.4-.2-.9-.1-1.2.3L9.8 4.3c-.4.4-.3 1 .1 1.4.5.3 1.1.3 1.5-.2zm12.3 16.8L1.7.3C1.3-.1.7-.1.3.3c-.4.4-.4 1 0 1.4L6.6 8l-4.4 5.3c-.2.3-.3.7-.1 1.1.2.4.5.6.9.6h7.9l-.9 6.9c0 .4.2.8.6 1 .1.1.3.1.4.1.3 0 .6-.1.6-.4l4.4-5.2 6.3 6.3c.2.2.4.3.7.3s.5-.1.7-.3c.4-.4.4-1 0-1.4zM5.1 13L8 9.4l3.6 3.6H5.1zm7.2 5.7l.6-4.4 1.7 1.7-2.3 2.7z"/>
</svg>
