<svg viewBox="0 0 24 24" fill="none" xmlns="http://www.w3.org/2000/svg"><path d="M19 3H5a2 2 0 0 0-2 2v14a2 2 0 0 0 2 2h14a2 2 0 0 0 2-2V5a2 2 0 0 0-2-2z" fill="#1769FF"/><path d="M9.358 7.922c.388 0 .743.034 1.063.103.32.068.594.18.822.337.229.156.406.363.532.623.126.259.188.579.188.96 0 .41-.093.753-.28 1.027-.186.275-.463.5-.828.675.503.144.878.398 1.126.76.247.36.371.797.371 1.307 0 .411-.08.768-.24 1.069-.16.3-.375.546-.646.736-.27.191-.578.332-.925.423a4.18 4.18 0 0 1-1.067.137H5.52V7.922h3.838zm-.228 3.301c.32 0 .583-.076.788-.228.206-.153.31-.4.309-.742a.948.948 0 0 0-.103-.468.759.759 0 0 0-.275-.286 1.16 1.16 0 0 0-.393-.143 2.622 2.622 0 0 0-.463-.04H7.314v1.909l1.816-.002zm.103 3.461c.17 0 .338-.016.503-.051.16-.034.3-.091.422-.171a.87.87 0 0 0 .292-.326c.072-.137.109-.312.109-.525 0-.419-.118-.718-.355-.897-.236-.18-.548-.268-.936-.268H7.314v2.239h1.919v-.001zm5.376-.171c.243.236.594.354 1.05.354.328 0 .61-.082.846-.246.236-.163.38-.337.434-.52h1.428c-.228.71-.579 1.215-1.051 1.52-.473.304-1.043.457-1.714.457-.464 0-.883-.074-1.256-.222a2.613 2.613 0 0 1-.948-.635 2.843 2.843 0 0 1-.6-.982c-.14-.38-.211-.8-.211-1.256 0-.442.072-.853.216-1.234.145-.38.351-.71.618-.987.266-.278.584-.497.954-.657.369-.16.779-.24 1.228-.24.502 0 .94.097 1.314.292.373.194.68.455.92.782.24.328.413.701.52 1.12.106.42.144.857.114 1.314H14.21c.022.524.155.904.399 1.14zm1.833-3.107c-.194-.213-.49-.32-.885-.32-.26 0-.475.044-.645.131a1.189 1.189 0 0 0-.628.737 1.856 1.856 0 0 0-.074.388h2.639c-.078-.41-.213-.723-.407-.936zm-2.51-3.07h3.297v.914h-3.297v-.914z" fill="#fff"/></svg>