<svg viewBox="0 0 24 24" fill="none" xmlns="http://www.w3.org/2000/svg"><path d="M21 12a9 9 0 1 0-10.406 8.891v-6.289H8.308V12h2.286v-1.983c0-2.256 1.344-3.502 3.4-3.502.984 0 2.014.176 2.014.176v2.215h-1.135c-1.118 0-1.467.693-1.467 1.406V12h2.496l-.399 2.602h-2.097v6.29A9 9 0 0 0 21 12z" fill="#1977F3"/><path d="M15.503 14.602l.4-2.602h-2.497v-1.688c0-.711.348-1.406 1.467-1.406h1.135V6.69s-1.03-.176-2.014-.176c-2.056 0-3.4 1.245-3.4 3.502V12H8.308v2.602h2.286v6.29a9.02 9.02 0 0 0 2.812 0v-6.29h2.097z" fill="#FEFEFE"/></svg>