<svg viewBox="0 0 24 24" fill="none" xmlns="http://www.w3.org/2000/svg"><path d="M3.414 15.71l5.98-10.24c.76.448 4.591 2.568 5.21 2.971l-5.98 10.24c-.655.863-6.038-1.66-5.21-2.972v.001z" fill="#FBBC04"/><path d="M20.597 15.709l-5.98-10.238A3.05 3.05 0 0 0 10.5 4.396c-1.479.822-1.93 2.592-1.093 4.045l5.98 10.24a3.05 3.05 0 0 0 4.116 1.074c1.415-.822 1.93-2.655 1.093-4.045v-.001h.001z" fill="#4285F4"/><path d="M6.002 20.151c1.658 0 3.002-1.31 3.002-2.928 0-1.616-1.344-2.927-3.002-2.927-1.658 0-3.002 1.31-3.002 2.927s1.344 2.928 3.002 2.928z" fill="#34A853"/></svg>