<svg viewBox="0 0 24 24" fill="none" xmlns="http://www.w3.org/2000/svg"><path d="M5.24 17.292a2.248 2.248 0 0 1-1.96-1.137c-.394-.7-.37-1.56.062-2.237l4.034-6.335a2.25 2.25 0 0 1 1.991-1.082c.81.02 1.546.473 1.927 1.188a2.171 2.171 0 0 1-.12 2.234l-4.032 6.335a2.25 2.25 0 0 1-1.903 1.034h.001z" fill="#F62B54"/><path d="M12.159 17.292a2.24 2.24 0 0 1-1.956-1.134 2.166 2.166 0 0 1 .062-2.232l4.026-6.32a2.247 2.247 0 0 1 1.993-1.105c.82.018 1.564.477 1.94 1.195a2.166 2.166 0 0 1-.145 2.244l-4.026 6.32a2.245 2.245 0 0 1-1.894 1.032z" fill="#FC0"/><path d="M18.923 17.345c1.147 0 2.077-.91 2.077-2.033 0-1.123-.93-2.033-2.077-2.033-1.147 0-2.076.91-2.076 2.033 0 1.123.93 2.033 2.076 2.033z" fill="#00CA72"/></svg>