<svg viewBox="0 0 24 24" fill="none" xmlns="http://www.w3.org/2000/svg"><g filter="url(#filter0_d_29_332)"><path d="M18.377 5.617A8.93 8.93 0 0 0 12.037 3c-4.942 0-8.963 4.002-8.965 8.923a8.9 8.9 0 0 0 1.103 4.297l-1.16 4.216a.445.445 0 0 0 .55.549l4.343-1.134a9.015 9.015 0 0 0 4.125 1.002c4.945 0 8.966-4.003 8.968-8.923 0-2.385-.93-4.627-2.623-6.313z" fill="#fff"/></g><g filter="url(#filter1_i_29_332)"><path d="M17.041 6.944a7.044 7.044 0 0 0-5.004-2.066c-3.903 0-7.078 3.16-7.08 7.045a7.01 7.01 0 0 0 1.082 3.75l.169.266-.716 2.6 2.68-.7.258.153a7.087 7.087 0 0 0 3.602.982h.003c3.901 0 7.076-3.16 7.078-7.046a6.987 6.987 0 0 0-2.072-4.984z" fill="url(#paint0_linear_29_332)"/></g><path fill-rule="evenodd" clip-rule="evenodd" d="M9.94 8.284c-.159-.353-.327-.36-.479-.367-.124-.005-.266-.004-.408-.004a.784.784 0 0 0-.567.265c-.195.212-.745.724-.745 1.767 0 1.042.763 2.05.87 2.19.105.142 1.471 2.35 3.634 3.199 1.797.706 2.163.565 2.553.53.39-.035 1.26-.512 1.436-1.007.177-.495.177-.919.124-1.007-.053-.089-.195-.141-.407-.248-.213-.106-1.26-.618-1.455-.689-.195-.07-.336-.106-.479.107-.14.211-.549.689-.673.83-.124.141-.249.16-.46.053-.214-.106-.899-.33-1.712-1.051-.633-.562-1.06-1.255-1.184-1.468-.124-.211-.013-.326.093-.432.096-.095.213-.247.32-.37.106-.125.142-.213.212-.354.071-.142.036-.265-.018-.371-.052-.107-.466-1.154-.655-1.573z" fill="#fff"/><defs><filter id="filter0_d_29_332" x="1.599" y="2.6" width="20.802" height="20.8" filterUnits="userSpaceOnUse" color-interpolation-filters="sRGB"><feFlood flood-opacity="0" result="BackgroundImageFix"/><feColorMatrix in="SourceAlpha" values="0 0 0 0 0 0 0 0 0 0 0 0 0 0 0 0 0 0 127 0" result="hardAlpha"/><feOffset dy="1"/><feGaussianBlur stdDeviation=".7"/><feColorMatrix values="0 0 0 0 0.562353 0 0 0 0 0.609412 0 0 0 0 0.717647 0 0 0 0.24 0"/><feBlend in2="BackgroundImageFix" result="effect1_dropShadow_29_332"/><feBlend in="SourceGraphic" in2="effect1_dropShadow_29_332" result="shape"/></filter><filter id="filter1_i_29_332" x="4.957" y="4.878" width="14.156" height="14.296" filterUnits="userSpaceOnUse" color-interpolation-filters="sRGB"><feFlood flood-opacity="0" result="BackgroundImageFix"/><feBlend in="SourceGraphic" in2="BackgroundImageFix" result="shape"/><feColorMatrix in="SourceAlpha" values="0 0 0 0 0 0 0 0 0 0 0 0 0 0 0 0 0 0 127 0" result="hardAlpha"/><feOffset dy=".2"/><feGaussianBlur stdDeviation=".1"/><feComposite in2="hardAlpha" operator="arithmetic" k2="-1" k3="1"/><feColorMatrix values="0 0 0 0 0.263875 0 0 0 0 0.604167 0 0 0 0 0.206424 0 0 0 0.3 0"/><feBlend in2="shape" result="effect1_innerShadow_29_332"/></filter><linearGradient id="paint0_linear_29_332" x1="12.035" y1="4.878" x2="12.035" y2="18.974" gradientUnits="userSpaceOnUse"><stop stop-color="#7FCE76"/><stop offset="1" stop-color="#58B04E"/></linearGradient></defs></svg>