<svg xmlns="http://www.w3.org/2000/svg" xmlns:xlink="http://www.w3.org/1999/xlink" viewBox="0 0 700 500">
    <path fill="#e41e20" d="M0 0h700v500H0z"/>
    <path id="a" d="M300.094 97.204c-4.862-.082-12.93 1.55-12.75 5.282-13.542-2.321-14.952 3.272-14.156 8.25 1.288-1.976 2.857-3.048 4.062-3.25 1.806-.3 3.696.283 5.625 1.468 1.93 1.186 4.056 3.098 5 4.281-4.78 1.143-8.471.405-12.218-.25-1.848-.323-4.433-1.362-5.97-2.437-1.536-1.076-2.02-2.088-4.437-4.563-2.85-2.918-5.882-2.096-4.937 2.438 2.185 4.21 5.836 6.088 10.437 6.844 2.214.363 5.512 1.152 9.25 1.156 3.738.004 7.936-.54 10.22-.063-1.373.862-2.925 2.347-6 2.938-3.129.601-7.884-1.86-10.782-2.531.368 2.438 3.444 4.718 9.5 5.906 9.951 2.167 18.22 3.814 23.687 6.781 5.467 2.968 8.914 6.683 11.375 9.594 4.899 5.793 5.157 10.24 5.47 11.218 1.007 9.256-2.22 14.463-8.22 16.063-3 .8-8.327-.707-10.28-3-1.954-2.293-3.855-6.234-3.313-12.406.526-2.421 3.295-8.728.937-10.031-10.861-6.004-24.051-12.075-33.594-15.688-2.608-.987-4.756 2.558-5.593 3.938-16.211-1.974-30.827-12.944-37.407-24.625-4.48-7.956-11.866.016-10.625 7.531 2.005 8.388 8.395 14.452 16.063 18.75 7.87 4.333 17.706 8.597 27.656 8.375 5.36 1.014 5.308 7.95-1.125 9.25-12.58.08-22.617-.234-32.094-9.375-7.187-6.563-11.234 1.257-9.156 5.688 3.521 13.658 23.006 17.483 42.719 13.062 7.633-1.264 3.062 6.915.906 7-8.237 5.906-22.983 11.684-35.969-.062-5.942-4.55-9.96-.726-7.75 5.843 5.762 17.128 27.804 13.53 42.938 5.094 3.895-2.171 7.43 2.88 2.687 6.719-18.82 13.15-28.23 13.3-36.718 8.25-10.628-4.191-11.563 7.596-5.25 11.469 7.015 4.304 24.87 1.077 37.968-7.157 5.616-4.174 5.87 2.353 2.313 4.938-15.544 13.433-21.671 16.97-37.875 14.781-8.035-.626-7.915 9.28-1.594 13.156 8.63 5.293 25.483-3.492 38.563-14.344 5.505-2.941 6.409 1.883 3.687 7.594-7.992 10.083-15.493 16.028-22.719 18.781-7.225 2.754-14.175 2.315-19.093.625-6-2.061-6.753 4.174-3.438 9.844 1.998 3.417 10.28 4.513 19.219 1.344 8.939-3.17 18.536-10.603 25.125-19.313 5.733-5.019 5.02 1.724 2.406 6.469-13.194 20.858-25.262 28.596-41.156 27.281-7.048-1.197-8.648 4.284-4.156 9.344 7.887 6.54 17.749 6.336 26.375-.125 7.668-7.394 22.338-23.314 30.03-31.844 5.422-4.322 7.154-.061 5.563 8.719-1.446 5.028-5.068 10.323-14.937 14.187-6.742 3.848-1.68 9.152 3.375 9.25 2.781.054 8.43-3.197 12.75-8.062 5.684-6.4 6.022-10.698 9.156-20.657 2.961-4.854 8.25-2.588 8.25 2.5-2.536 9.976-4.716 11.764-9.844 15.844-4.904 4.605 3.416 6.14 6.22 4.25 8.11-5.467 11.07-12.538 13.78-18.969 1.956-4.641 7.63-2.391 5 5.188-6.286 18.113-16.615 25.245-34.687 28.906-1.832.326-2.949 1.407-2.313 3.531 2.426 2.518 4.856 4.803 7.282 7.313-11.175 3.254-20.254 5.082-31.438 8.344-5.487-3.597-9.92-6.649-15.406-10.25-1.447-3.382-2.122-8.545-10.219-4.906-5.487-2.534-8.018-1.605-11.063.937 4.396.164 6.308 1.341 8.032 3.344 2.25 5.926 7.438 6.499 12.75 4.813 3.455 2.91 5.295 5.143 8.75 8.062-6.45-.22-10.942-.335-17.375-.53-6.141-6.594-11.042-6.233-15.438-1.063-3.35.514-4.77.586-7.062 4.656 3.605-1.48 5.873-1.923 7.437-.312 6.529 3.785 10.794 2.94 14.032 0 6.298.385 11.974.71 18.28 1.125-2.316 1.969-5.495 3.013-7.812 5-9.46-2.707-14.398.936-16.062 8.656-1.268 3.116-1.862 6.323-1.313 9.656.916-3.048 2.388-5.67 5.094-7.312 8.432 2.141 11.603-1.3 12.062-6.344 4.065-3.316 10.194-4.048 14.25-7.406 4.743 1.518 7.036 2.459 11.813 3.968 1.698 5.161 5.541 7.205 11.781 5.875 7.428.233 6.117 3.281 6.719 5.72 1.974-3.502 1.919-6.907-2.656-10-1.665-4.523-5.353-6.58-10.188-3.97-4.55-1.292-5.747-3.149-10.281-4.437 11.468-3.655 19.603-4.478 31.062-8.125 2.869 2.706 5.142 4.648 8.032 7.062 1.523.91 2.98 1.138 3.875 0 7.18-10.393 10.388-19.552 17.062-26.406 2.55-2.835 5.772-6.661 9.344-7.594 1.786-.466 3.976-.181 5.375 1.344 1.399 1.526 2.497 4.337 2.031 8.531-.668 6.021-2.123 7.922-3.812 11.532-1.69 3.61-3.754 5.83-5.875 8.593-4.244 5.528-9.843 8.746-13.156 10.907-6.628 4.321-9.431 2.43-14.563 2.156-6.633.744-8.397 3.974-2.969 8.437 5.075 2.64 9.637 2.967 13.344 2.282 3.183-.589 6.908-4.698 9.563-6.907 2.987-3.451 7.94.642 4.562 4.657-6.14 7.294-12.274 12.104-19.844 12-7.954 1.07-6.466 5.54-1.187 7.718 9.501 3.922 18.08-3.423 22.437-8.25 3.363-3.678 5.75-3.822 5.157 1.875-3.338 10.314-7.9 14.298-15.344 14.813-6.039-.56-6.104 4.1-1.688 7.25 10.06 6.963 17.346-4.895 20.75-12.063 2.426-6.465 6.146-3.39 6.532 1.938.05 7.12-3.167 12.932-11.782 20.219 6.592 10.501 14.276 21.182 20.875 31.718l20.005-222.806-20-35.202c-2.083-1.923-9.127-10.223-10.968-11.375-.672-.717-1.08-1.224-.094-1.593.954-.358 3.186-.758 4.688-1.032-4.242-4.249-7.877-5.611-15.907-7.937 1.957-.833 3.86-.348 9.625-.625-2.289-3.248-7.4-8.224-14-10.625 4.359-3.098 5.208-3.306 9.531-6.937-7.486-.531-13.88-1.958-20.312-3.907-4.067-1.901-9.716-3.516-12.469-3.562zm.72 8.72c3.955-.001 6.405 1.355 6.405 2.999 0 1.672-2.45 3.031-6.406 3.031-3.94 0-6.437-1.483-6.437-3.156 0-1.644 2.497-2.875 6.437-2.875z" fill="#000"/>
    <use xlink:href="#a" transform="matrix(-1 0 0 1 700 0)"/>
</svg>
