<svg xmlns="http://www.w3.org/2000/svg" viewBox="0 0 1000 500">
    <path fill="#006" d="M0 0h1000v500H0z"/>
    <path d="M0 250 1000 0v500z" fill="#bd1021"/>
    <path d="M107.14 250 1000 26.79v446.42" fill="#fff"/>
    <g stroke="#000" stroke-width="1.72">
        <path d="M832.04 306.06s-6.243-5.108 1.135-13.337c-3.973-3.405-.283-9.931-.283-9.931s-6.812-2.555.283-13.054c-5.108-3.405-2.838-11.068-2.838-11.068s-16.742-6.243-.85-12.201c-13.054 5.675-25.257-7.663-25.257-7.663l-19.012.568c-3.216-15.797-28.283-2.081-9.648-47.39-4.825-.851-10.216-2.27-15.607 1.703-5.392 3.973-20.715 12.486-29.796 3.973-9.081-8.513 5.959-20.715 6.243-21 .283-.283 20.148-10.5 22.986-17.31-.284-5.107-6.527-9.08-.852-20.147 6.527-10.5 46.538-20.432 64.701-23.837 8.796-3.973 12.77-11.635 12.77-11.635l1.986 7.378s40.296-11.918 42.282-17.594c1.986-5.676.851 5.108.851 5.108 15.891-1.42 36.038-15.04 38.876-8.797 13.337-2.554 38.877-13.905 38.877-13.905s8.796-.284 2.554 9.364c3.973 6.243-1.135 11.635-1.419 11.635-.285 0 1.702 6.243-3.406 9.649 1.704 5.391-3.122 9.648-3.122 9.648s2.272 6.526-6.81 9.932c.852 5.675-5.107 6.81-5.107 6.81s.851 5.96-3.122 8.513c0 4.54-4.54 6.811-4.54 6.811s2.837 1.703-1.136 4.54c-3.971 2.838-45.119 28.093-45.119 27.81 0-.283 30.08 5.392 32.066 6.527 1.987 1.135 24.688 16.175 24.688 16.175l-22.987 28.377s-25.539-2.836-26.673-1.418c-1.135 1.418 5.392 1.986 6.81 4.256 1.42 2.27 3.69 7.663 8.23 7.095 4.54-.568-8.514 8.23-17.027 9.08 0 3.122 10.783 3.406 13.621.852 2.838-2.554-6.81 7.378-7.946 8.797s12.771-1.987 12.771-1.987-2.271 9.364-14.472 12.202c4.823 7.946 2.837 13.054 2.553 13.054-.283 0-7.946-7.946-15.324-6.528 1.987 7.663 7.947 14.756 9.65 15.892 1.701 1.135-13.337.85-15.324-3.406s-3.69 10.216 1.701 14.757c-6.241.284-11.634-3.406-11.634-3.406s-3.688 8.513-1.135 12.77c2.555 4.257-8.796-8.513-8.796-8.513l-21.567 9.08-4.824-8.229z" fill="#9c3900" stroke-linejoin="round"/>
        <path d="M665.36 289.17c.505 0 31.331-.506 45.48-8.591 7.075 11.117 16.676 18.697 16.676 18.697l4.548-16.17s11.117.505 12.128 3.032c-1.516 3.03-2.021 7.074-2.021 7.074s7.58.506 8.085 1.516c.505 1.01-2.021 9.6-2.021 9.6l32.342 7.58s2.526-12.632 5.053-11.116 13.644 17.18 29.31 18.192c15.665 1.01 16.676-13.14 16.676-13.14l3.537 2.023s6.569-14.149 7.58-14.149 2.527 2.02 11.117 2.02c2.527 3.033 3.538 10.107 3.538 10.107s-9.602 9.602-6.57 17.183c3.032 7.58 3.538 5.558 3.538 5.558l69.736 16.676s3.539 5.559-2.526 8.591c0 .505-70.242-16.171-70.242-16.171s-6.57 7.58-11.623 6.064c-5.053-1.516-1.516 3.032-1.516 3.032l75.8 6.064s5.56 7.075 1.516 9.096c-5.053.505-81.864-5.053-81.864-5.053s-4.548 9.601-9.6 1.516c-3.538 5.558-7.58-1.516-7.58-1.516s-6.57 5.053-7.58-.506c-5.56 4.043-9.097-2.526-9.097-2.526l-32.34-2.022-2.022 3.032s5.558 1.516-3.032 5.054c-8.59 3.537 51.544 2.021 53.06 2.526 1.516.506-4.042 5.054-4.042 5.054s30.825 2.021 36.383-4.548c5.56-6.57-2.02 8.59-2.02 8.59s24.255-1.01 24.255-2.02-.506 7.58-17.18 6.568c10.105 6.57 22.738 10.612 22.738 10.612s-12.633 3.032-27.287-.505c2.526 6.57 13.644 12.633 13.644 12.633s-8.086 7.076-26.279-10.107c5.054 9.097 1.011 12.634.506 11.623-.506-1.01-9.096-13.644-29.309-18.192 12.633 8.085 7.074 11.623 7.074 11.623s-6.569-11.623-17.18 0c-4.044-10.612-19.709-16.676-38.912-17.687-6.064-7.073-9.601-5.052-23.75-9.096-8.086-9.094-19.709-19.202-19.709-19.202s.506-13.644 14.15-12.128c1.515 4.548 1.515 3.032 1.515 3.032s15.16-5.559 19.708 2.021c6.57-11.623 15.665-1.737 17.181 2.305 4.354.638 26.278 1.232 26.278 1.232s-2.527-4.548-1.01-4.042c1.515.505 13.643-4.548 13.138-6.064-.506-1.516-1.011-6.569 1.01-6.064 2.022.505-17.181-2.527-27.793 5.56-3.537-3.539-1.01-13.14-1.01-13.14l-31.332-6.569-1.516 8.085s-9.096 1.516-8.59-.505c.505-2.022-2.022 7.074-2.022 7.074s-12.128-3.032-12.128-3.537c0-.504 3.538-18.192 3.538-17.687 0 .507-10.107 1.012-24.256 11.623-4.043-12.633-35.88-29.309-35.88-29.814zm39.42-41.44s-21.224 18.191 0 28.803c1.01-7.075 2.527-8.085 2.527-8.085s17.687 6.569 28.299-9.096c-4.548-6.57-12.633-4.042-12.633-4.042s-16.676 0-18.192-7.58z" fill="#ffc221"/>
        <path d="m722.47 255.82-14.655 12.633" fill="none"/>
        <g fill="#fff">
            <path d="M705.48 247.88s2.838-2.838 3.69-6.243c.85-3.405-1.136-7.094 2.27-10.216 3.404-3.121 48.24-22.134 51.93-25.823 3.688-3.689 10.498-11.634 11.35-13.337.852-1.703 3.406 8.513-4.256 13.054 8.229-2.27 13.62-4.824 17.026-3.69-3.406 4.825-12.486 12.77-16.743 12.77 9.932-3.689 19.012-6.81 21.567-4.824 2.553 1.987-12.202 11.92-18.162 12.486 9.932-2.553 23.27-6.526 24.97-2.27-5.39 1.703-3.689 3.12-14.755 9.365-1.42 1.136-8.513 1.418-8.513 1.418 8.513-.851 20.147-4.256 21.282 1.987-6.81 2.553-9.364 5.96-15.04 7.378-5.675 1.42-18.728 3.973-26.674 7.094-7.946 3.122-19.58 12.202-19.58 12.202s-25.256.852-25.256.567c0-.284-4.824-11.634-5.108-11.918z" stroke-linejoin="round"/>
            <path d="m921.99 230.57 49.092 9.364s5.393-6.243 2.555-9.647c7.378-1.702 5.391-11.351 5.391-11.351s8.513-3.689 1.418-12.202c4.826-4.824-1.135-8.513-1.135-8.513s1.987-8.513-4.256-9.365c1.703-6.81-10.783-9.08-10.783-9.08s-25.823 7.094-43.985 7.661c5.96 5.96-2.27 9.649-2.27 9.649s4.825 3.405 3.405 6.243c-1.418 2.838.852 5.96-5.391 7.946 8.229 3.69-.852 9.931-.852 9.931s9.081 6.243 6.811 9.364z"/>
        </g>
        <g fill="none">
            <path d="m742.17 293.72-6.57 29.309m12.64-18.199-2.021 9.601m34.361-2.021-3.032 9.096m59.122 52.554c-.505 0-16.17 2.02-18.192 1.516-2.02-.505 24.761 8.085 24.761 11.622M808.37 377.6s-15.666-10.106-18.192-9.096c-2.527 1.011 15.665-.505 17.181-2.021m-31.329-.503s-16.171.505-17.687-1.011 15.665 11.117 18.697 10.107M744.7 358.9c-.505 0-11.117-4.042-15.665-5.054 4.043 4.043 7.075 9.602 17.181 11.623m2.524-13.129c-.505-1.011-20.213-7.075-20.213-10.107 4.548 1.516 11.117 3.537 17.181 2.02M853.35 329.09l-2.02 9.095m-83.73 5.375s3.378 3.724.346 8.272m70.744-4.552-5.558.506m-39.922-3.536 10.106 1.516M820.4 318.26s.283 10.216-8.23 9.933c-8.512-.285-5.676.283-5.676.283"/>
            <path d="M826.93 316.55s3.405 1.135 2.555 3.69c-.852 2.553.85 9.93-9.081 17.026-10.501 2.27-9.365-8.797-9.365-8.797"/>
            <path d="M830.62 319.68s6.243-3.688 7.095 2.271c.85 5.958-5.108 17.026-9.365 18.73-4.258 1.701-9.08-.285-8.514-3.122m18.444-15.329s5.676-4.541 7.378 1.418c1.703 5.96-4.54 19.297-7.095 19.58m7.667-19.578s2.838-1.418 4.823.283M837.15 344.08c-1.135.283-5.96.567-7.661-3.122m-17.879-6.808c-.283 0-5.958.285-5.958.285m27.808 22.135-.567-9.364-2.27-3.122-3.973 3.973s-.568 9.364-2.27 10.216m2.27-10.503c-.283-.567-3.122-5.958-3.122-5.958l-4.824 5.958s-.567 8.514-2.27 9.366m2.266-9.646c0-.283-1.986-5.675-1.986-5.675s-5.675 3.122-6.243 5.392c-.567 2.27-.852 8.512-2.27 9.08m2.269-10.217s.568-5.108-1.135-5.108c-1.702 0-9.364 7.095-9.648 13.337M717.39 245.9s.284-5.675 2.838-7.661c2.554-1.987 15.324-6.811 18.16-11.068 2.838-4.257-4.256 7.378-3.12 10.499m-12.768-.29s6.243 2.271 4.824 7.095"/>
            <path d="M729.88 240.65a4.682 4.682 0 1 1-9.364 0 4.682 4.682 0 1 1 9.364 0z" stroke-width="1.593"/>
            <path d="M917.17 220.07s43.417 5.108 45.404 5.108c1.986 0 9.648 2.555 11.068 5.108M919.44 217.52l60.443 1.418M919.72 216.1s57.321-3.405 61.294-9.364m-59.584-3.126s57.606-6.243 58.174-5.392m-60.164-1.698s55.903-8.797 56.47-7.378M759.96 160.48s17.594 19.296 15.891 32.35"/>
            <path d="M774.72 182.61s5.675 8.23 7.946 9.08c2.27.852 22.134 1.987 23.269 10.5 1.135 5.392-4.257 3.69-3.405 7.662 1.418 5.108 14.756 11.634 29.228 3.973M818.42 217.8s11.918 17.594 29.512-1.418m-9.082 7.668s14.472 7.661 26.39-12.202m-15.32 13.902s7.095 5.96 21.852-1.985m20.428-7.945s21.85 4.54 23.27 5.96m-15.04-10.79c.283 0 15.324.568 15.324.568m-24.694-9.078s26.107-1.703 29.513 3.69m-40.863-11.92s36.607 1.419 38.309 3.405M887.94 231.71s6.243-1.702 7.095-.85m-21.285 16.17s8.23 7.095 18.73 3.973m-14.19 7.947s9.364 4.256 20.432 1.702m-17.312 5.388s9.364 6.243 15.607 5.107m-19.857-1.417s6.526 4.825 6.81 7.378m-15.89-1.698s1.986 10.215 9.081 13.904m-13.911-9.364s-3.122 13.337 4.825 21.567M855.02 290.45c0 .283-.567 6.243-.283 6.811M803.94 238.8l15.324-.852s5.675-2.27 1.702-5.958m1.994 3.41c.285 0 14.472 1.135 18.162 5.391 3.688 4.257 8.23 12.77 10.783 14.19 2.555 1.418 3.122-.569 3.122-.569m-6.247-2.272s-7.661 13.054-1.702 17.027m-2.558-2.557s-6.81 9.081-1.418 13.621m-1.412-1.131s-5.391 8.798 1.136 14.756M839.3 255.76c-.366.366-6.591 4.76-8.788 3.662m2.198 10.258s2.563 2.563 4.76 2.197m-4.46 11.103 4.09 2.805m-3.54 7.385 3.538 2.135M769.47 154.01s7.46 3.88 13.428 0c5.969-3.88 34.615-18.501 42.075-20.888 7.46-2.387 11.637-16.114 13.13-22.082m-5.663 16.11 41.777-12.235s6.863-5.67 7.162-16.114m-2.989 11.339s41.776-4.178 41.776-19.695M913.6 101.19s43.866-11.936 48.044-16.412"/>
            <path d="M791.26 163.55s26.558-13.727 30.736-15.219c4.177-1.492 13.725-13.428-.597-13.428"/>
            <path d="M804.09 168.93c.299 0 21.783-14.025 28.945-15.815 3.88-5.371 1.791-11.041-4.774-9.847"/>
            <path d="M834.82 149.53c.597-.298 11.638-.597 7.759 8.057-5.668 4.178-30.139 16.412-30.139 16.412m16.71-33.719 46.551-15.517s3.88-8.057-1.79-9.25m38.799-14.023c0 .298 5.97 3.58 2.388 8.952-6.565 3.88-37.599 11.34-37.599 11.34m82.351-25.07-43.86 12.238m40.58-2.39-38.195 11.638m34.915-2.088-33.72 10.14m27.45-.59c-.896 0-25.065 7.46-25.065 7.46m19.695 0-15.518 6.266m11.638 2.084c-.597 0-13.428 5.67-13.428 5.67m9.548 1.2-11.936 5.67m-8.654 7.16s1.493.597 1.194 2.387M883.16 177.58s5.074 1.79.299 6.565c-2.387 3.282-9.25 2.387-13.428 8.355m45.659-81.76s6.268 1.492 1.493 9.549c-12.534 4.774-37.898 12.533-37.898 12.533s-1.193 2.089-4.476 3.88c-3.282 1.79-39.389 11.935-39.389 11.935m82.36-28.647s6.863 2.984 0 8.057c-7.759 4.476-34.914 12.83-34.914 12.83s-.299 2.388-1.491 3.283c-1.194.895-37.002 12.831-37.002 12.831"/>
            <path d="M919.57 128.04s7.162 2.089.896 8.057c-7.46 4.476-31.333 12.533-31.333 12.533s-2.387 2.984-6.267 4.177c-3.88 1.194-28.646 11.34-28.646 11.34m67.14-28.047c2.09.895 7.759 1.79.896 7.162-8.057 3.58-27.751 11.339-27.751 11.339l-1.792 3.282-31.332 13.428m61.769-27.151s2.984 3.581-3.581 7.759c-7.162 3.879-22.678 9.847-22.678 9.847m22.679-9.256s3.282 2.089-.894 5.073c-4.775 2.387-23.574 12.235-23.574 12.235l-12.236 8.057"/>
            <path d="M876.6 125.06c0 .298 5.074 4.476 3.282 9.25 4.477 3.283 3.581 6.864 3.581 6.864s6.267 3.58 5.373 8.654c6.266 1.492 5.967 5.073 5.967 5.073l-2.09 3.282s6.267-.298.896 7.759c3.283 1.79 1.791 3.879 1.791 3.879m-1.79-3.581c-.896 0-21.783 7.759-27.155 12.533"/>
            <path d="M843.18 156.99s6.266-.298 5.372 6.565c7.162-2.388 5.67 4.476 5.67 4.476s8.354-3.283 6.863 7.162c5.37-1.194 4.475 4.177 4.475 4.177s4.775-.298 4.775 2.388c3.282-2.984 6.863-1.492 6.863-1.492s2.387-3.283 5.67-2.388M848.85 163.26c0 .597-28.051 16.114-28.051 16.114m33.421-11.044-21.187 13.13m28.347-6.57c0 .298-18.502 11.041-18.502 11.041m22.682-6.861s-13.13 10.743-16.114 10.146m20.594-6.866s-7.46 5.67-13.727 8.355m21.477-10.735s2.387 2.984-12.533 10.742"/>
        </g>
    </g>
</svg>
