<svg xmlns="http://www.w3.org/2000/svg" xmlns:xlink="http://www.w3.org/1999/xlink" viewBox="0 0 900 600">
    <path fill="#FFF" d="M0 625h937.5V0H0v625z"/>
    <g fill="none">
        <path fill="#CE0F25" d="M659.049 394.35c10.735 25.244 6.121 45.149 0 64.53 15.479-5.609 48.359-21.014 44.419-40.226-6.894-16.818-28.349-20.938-44.419-24.304"/>
        <path stroke="#221B0F" d="M659.049 394.35c10.735 25.244 6.121 45.149 0 64.53 15.479-5.609 48.359-21.014 44.419-40.226-6.894-16.818-28.349-20.938-44.419-24.304z"/>
        <path fill="#FAF8F0" d="M604.198 503.635c9.756-3.152 16.456-6.744 32.61-8.985 6.658-.923 24.596.161 34.996-3.075 10.015-3.12 15.813-6.081 16.099-11.106.509-9.006 3.43-19.321 6.961-28.685 5.036-13.362 11.151-24.134 12.095-27.744.891-3.404-.64-6.816-2.896-9.945-8.792-12.194-28.496-21.087-46.054-21.066l.746 2.989c13.518.245 40.244 10.371 41.851 23.915 2.423 20.399-66.544 23.491-104.855 31.064 0 0-9.878 2.456-13.244 5.93-2.384 2.456-3.599 8.816-1.119 11.172 17.52 16.648 22.81 35.536 22.81 35.536"/>
        <path stroke="#221B0F" d="M604.198 503.635c9.756-3.152 16.456-6.744 32.61-8.985 6.658-.923 24.596.161 34.996-3.075 10.015-3.12 15.813-6.081 16.099-11.106.509-9.006 3.43-19.321 6.961-28.685 5.036-13.362 11.151-24.134 12.095-27.744.891-3.404-.64-6.816-2.896-9.945-8.792-12.194-28.496-21.087-46.054-21.066l.746 2.989c13.518.245 40.244 10.371 41.851 23.915 2.423 20.399-66.544 23.491-104.855 31.064 0 0-9.878 2.456-13.244 5.93-2.384 2.456-3.599 8.816-1.119 11.172 17.52 16.648 22.81 35.536 22.81 35.536z"/>
        <path fill="#F6E4BE" d="M700.591 432.568c-25.791 16.68-60.626 17.901-91.055 20.664l-19.374 19.696 17.76 26.156s19.784-6.49 30.028-8.074c7.24-1.117 15.374-.115 22.601-1.29 6.188-1.007 11.685-.457 15.823-5.167 4.81-5.48 4.564-15.445 7.103-22.28 1.62-4.356 4.209-7.956 7.579-13.121 5.401-8.283 9.535-16.584 9.535-16.584"/>
        <path fill="#CE0F25" d="M594.856 514.846c4.751-22.985-10-32.042-17.935-45.961 0 0 8.549 3.504 13.076 4.109 8.494 1.134 13.394.96 25.681-1.019 10.059-1.621 18.512-6.689 25.515-3.465.973.448 1.72 1.554 1.867 2.617.454 3.278-1.45 6.64-3.362 9.341-10.493 14.808-44.842 34.378-44.842 34.378"/>
        <path stroke="#221B0F" d="M594.856 514.846c4.751-22.985-10-32.042-17.935-45.961 0 0 8.549 3.504 13.076 4.109 8.494 1.134 13.394.96 25.681-1.019 10.059-1.621 18.512-6.689 25.515-3.465.973.448 1.72 1.554 1.867 2.617.454 3.278-1.45 6.64-3.362 9.341-10.493 14.808-44.842 34.378-44.842 34.378z"/>
        <path fill="#CE0F25" d="M278.37 394.35c-10.736 25.244-6.121 45.149 0 64.53-15.479-5.609-48.36-21.014-44.417-40.226 6.894-16.818 28.347-20.938 44.417-24.304"/>
        <path stroke="#221B0F" d="M278.37 394.35c-10.736 25.244-6.121 45.149 0 64.53-15.479-5.609-48.36-21.014-44.417-40.226 6.894-16.818 28.347-20.938 44.417-24.304z"/>
        <path fill="#FAF8F0" d="M333.22 503.635c-9.757-3.152-16.455-6.744-32.608-8.985-6.66-.923-24.596.161-34.996-3.075-10.016-3.12-15.816-6.081-16.1-11.106-.51-9.006-3.431-19.321-6.961-28.685-5.039-13.362-11.154-24.134-12.096-27.744-.89-3.404.64-6.816 2.898-9.945 8.792-12.194 28.499-21.087 46.054-21.066l-.747 2.989c-13.516.245-40.242 10.371-41.851 23.915-2.423 20.399 66.544 23.491 104.856 31.064 0 0 9.876 2.456 13.244 5.93 2.384 2.456 3.599 8.816 1.117 11.172-17.517 16.648-22.81 35.536-22.81 35.536"/>
        <path stroke="#221B0F" d="M333.22 503.635c-9.757-3.152-16.455-6.744-32.608-8.985-6.66-.923-24.596.161-34.996-3.075-10.016-3.12-15.816-6.081-16.1-11.106-.51-9.006-3.431-19.321-6.961-28.685-5.039-13.362-11.154-24.134-12.096-27.744-.89-3.404.64-6.816 2.898-9.945 8.792-12.194 28.499-21.087 46.054-21.066l-.747 2.989c-13.516.245-40.242 10.371-41.851 23.915-2.423 20.399 66.544 23.491 104.856 31.064 0 0 9.876 2.456 13.244 5.93 2.384 2.456 3.599 8.816 1.117 11.172-17.517 16.648-22.81 35.536-22.81 35.536z"/>
        <path fill="#F6E4BE" d="M236.83 432.568c25.79 16.68 60.625 17.901 91.054 20.664l19.372 19.696-17.759 26.156s-19.785-6.49-30.029-8.074c-7.239-1.117-15.37-.115-22.601-1.29-6.188-1.007-11.686-.457-15.821-5.167-4.81-5.48-4.564-15.445-7.104-22.28-1.617-4.356-4.207-7.956-7.579-13.121-5.399-8.283-9.533-16.584-9.533-16.584"/>
        <path fill="#CE0F25" d="M342.561 514.846c-4.749-22.985 10-32.042 17.938-45.961 0 0-8.55 3.504-13.08 4.109-8.49 1.134-13.391.96-25.679-1.019-10.057-1.621-18.513-6.689-25.514-3.465-.974.448-1.722 1.554-1.869 2.617-.454 3.278 1.45 6.64 3.362 9.341 10.496 14.808 44.842 34.378 44.842 34.378"/>
        <path stroke="#221B0F" d="M342.561 514.846c-4.749-22.985 10-32.042 17.938-45.961 0 0-8.55 3.504-13.08 4.109-8.49 1.134-13.391.96-25.679-1.019-10.057-1.621-18.513-6.689-25.514-3.465-.974.448-1.722 1.554-1.869 2.617-.454 3.278 1.45 6.64 3.362 9.341 10.496 14.808 44.842 34.378 44.842 34.378z"/>
        <path fill="#FAF8F0" d="M305.291 543.188c-4.464-2.861-9.549-5.693-12.377-9.996-1.949-2.965-2.796-7.039-1.904-10.474 5.216-20.094 4.106-30.854.49-46.069-1.167-4.917-2.358-12.341 3.794-12.01 15.78.851 33.471 5.886 46.178 5.431 5.191-.189 12.95-1.221 13.616-6.881.791-6.723-16.472-12.695-16.472-12.695 10.261 1.178 18.752 5.424 21.666 11.428 1.184 2.441.635 5.897-.894 8.141-3.009 4.423-8.734 5.621-14.034 6.331-10.558 1.425-28.455-1.47-38.575-3.412-4.577-.878-6.177-1.598-6.976-.971-2.002 1.577.731 4.762 7.103 10.72 12.891 12.055 27.917 21.872 43.424 30.307 42.229 22.967 74.524 30.305 118.381 30.305 43.855 0 76.149-7.337 118.38-30.305 15.506-8.435 30.531-18.253 43.423-30.307 6.372-5.957 9.108-9.143 7.1-10.72-.794-.626-2.395.094-6.974.971-10.12 1.943-28.017 4.837-38.576 3.413-5.296-.71-11.024-1.909-14.033-6.331-1.529-2.244-2.077-5.7-.891-8.141 2.914-6.004 11.402-10.25 21.664-11.427 0 0-17.262 5.973-16.471 12.695.665 5.66 8.424 6.693 13.615 6.881 12.709.455 30.396-4.58 46.179-5.431 6.152-.331 4.962 7.092 3.792 12.01-3.616 15.215-4.728 25.975.491 46.069.89 3.435.042 7.509-1.905 10.474-2.827 4.304-7.911 7.135-12.378 9.996-51.901 33.279-110.235 50.366-163.416 50.366-53.183-.001-111.518-17.089-163.42-50.368"/>
        <path stroke="#221B0F" d="M305.291 543.188c-4.464-2.861-9.549-5.693-12.377-9.996-1.949-2.965-2.796-7.039-1.904-10.474 5.216-20.094 4.106-30.854.49-46.069-1.167-4.917-2.358-12.341 3.794-12.01 15.78.851 33.471 5.886 46.178 5.431 5.191-.189 12.95-1.221 13.616-6.881.791-6.723-16.472-12.695-16.472-12.695 10.261 1.178 18.752 5.424 21.666 11.428 1.184 2.441.635 5.897-.894 8.141-3.009 4.423-8.734 5.621-14.034 6.331-10.558 1.425-28.455-1.47-38.575-3.412-4.577-.878-6.177-1.598-6.976-.971-2.002 1.577.731 4.762 7.103 10.72 12.891 12.055 27.917 21.872 43.424 30.307 42.229 22.967 74.524 30.305 118.381 30.305 43.855 0 76.149-7.337 118.38-30.305 15.506-8.435 30.531-18.253 43.423-30.307 6.372-5.957 9.108-9.143 7.1-10.72-.794-.626-2.395.094-6.974.971-10.12 1.943-28.017 4.837-38.576 3.413-5.296-.71-11.024-1.909-14.033-6.331-1.529-2.244-2.077-5.7-.891-8.141 2.914-6.004 11.402-10.25 21.664-11.427 0 0-17.262 5.973-16.471 12.695.665 5.66 8.424 6.693 13.615 6.881 12.709.455 30.396-4.58 46.179-5.431 6.152-.331 4.962 7.092 3.792 12.01-3.616 15.215-4.728 25.975.491 46.069.89 3.435.042 7.509-1.905 10.474-2.827 4.304-7.911 7.135-12.378 9.996-51.901 33.279-110.235 50.366-163.416 50.366-53.183-.001-111.518-17.089-163.42-50.368z"/>
        <path fill="#F6E4BE" d="M637.419 535.408s3.499-3.49 4.145-6.447c1.611-7.385-2.131-15.006-2.303-22.563-.185-8.148 1.383-24.404 1.383-24.404-20.186 19.274-75.825 68.013-171.934 68.013-93.4 0-151.749-48.739-171.935-68.013 0 0 1.565 16.256 1.381 24.404-.17 7.556-3.915 15.178-2.301 22.563.645 2.958 4.143 6.448 4.143 6.448 52.923 33.996 109.461 54.795 168.712 54.795 59.249-.001 115.788-20.8 168.709-54.796"/>
    </g>
    <path d="M365.845 550.515c1.832-5.256 7.756-10.813 17.201-7.524 7.839 2.731 11.168 8.888 8.714 15.929-2.452 7.039-9.43 10.85-17.426 8.066-9.036-3.147-10.385-11.03-8.489-16.471m21.111 8.006c2.399-6.886-.174-12.572-5.338-14.371-3.62-1.261-8.43-.731-11.098 6.925-2.227 6.395-.374 12.729 5.671 14.831 2.205.77 7.669 1.502 10.765-7.385m11.179-.254c1.155-4.813 1.368-5.697 1.545-6.727.195-1.091.056-1.659-.961-2.138-.245-.126-.787-.29-1.241-.399-.356-.085-.536-.193-.484-.418.054-.22.296-.23.783-.11 1.719.41 3.737.996 4.71 1.229.779.188 2.844.583 4.011.859.487.117.699.236.646.456-.054.224-.264.24-.589.16-.355-.082-.557-.1-.961-.128-.915-.052-1.304.423-1.634 1.515-.307.997-.521 1.884-1.675 6.696l-1.064 4.431c-1.101 4.59-.624 6.745.661 8.395 1.178 1.519 2.639 2.004 3.741 2.269 1.428.341 3.284.319 4.885-.639 2.201-1.311 2.982-4.137 3.764-7.397l.95-3.958c1.154-4.811 1.366-5.697 1.545-6.726.194-1.092.056-1.661-.961-2.138-.245-.125-.789-.29-1.144-.375-.357-.086-.537-.198-.484-.418.053-.223.295-.23.75-.12 1.653.396 3.673.981 3.705.989.389.095 2.455.489 3.72.79.454.109.665.226.612.448-.054.223-.264.24-.652.145-.356-.085-.559-.1-.964-.13-.912-.051-1.301.424-1.632 1.516-.307.999-.52 1.884-1.675 6.695l-.813 3.388c-.842 3.516-2.096 7.164-5.366 8.79-2.765 1.38-5.184 1.167-7.291.664-1.719-.413-4.809-1.255-6.673-3.913-1.305-1.852-1.975-4.491-.874-9.081l1.11-4.62zm28.994 13.257c-.165-.025-.24.031-.334.215l-2.416 4.159c-.445.759-.72 1.509-.776 1.897-.084.579.153 1.04 1.176 1.188l.495.07c.396.056.485.135.459.329-.037.258-.245.294-.607.241-1.056-.153-2.463-.45-3.485-.598-.363-.052-2.191-.216-3.908-.462-.429-.061-.618-.153-.581-.412.029-.194.169-.239.434-.201a9.5 9.5 0 0 0 1.031.083c1.548.025 2.331-.981 3.222-2.497l11.15-18.791c.53-.879.779-1.204 1.107-1.156.298.042.454.361.679 1.15.537 1.886 3.967 15.532 5.378 20.734.838 3.081 1.73 3.668 2.399 3.929.481.167.972.27 1.369.326.264.038.424.095.391.321-.036.258-.343.28-1.564.102-1.189-.17-3.598-.515-6.229-.959-.589-.115-.985-.172-.952-.399.027-.193.169-.239.504-.224.24-.031.513-.288.403-.698l-1.688-7.019c-.043-.169-.132-.25-.298-.271l-7.359-1.057zm6.962-.647c.166.025.214-.066.192-.169l-1.832-8.354c-.014-.134-.022-.3-.123-.315-.097-.014-.187.138-.239.265l-4.17 7.46c-.051.122-.033.225.1.244l6.072.869zm17.258 7.42c-.025 2.54.378 3.401 1.036 3.654.559.214 1.191.27 1.724.288.366.016.565.089.557.282-.01.259-.311.315-.777.299-2.166-.079-3.495-.225-4.129-.246-.3-.011-1.869.028-3.601-.034-.434-.015-.732-.057-.721-.351.006-.195.21-.254.542-.241.433.016 1.034.005 1.505-.109.876-.23 1.043-1.167 1.179-3.996l.991-19.151c.024-.65.14-1.101.472-1.089.366.014.653.446 1.196 1.05.385.441 5.261 5.826 9.955 10.719 2.186 2.295 6.515 7.141 7.063 7.683l.167.005.193-14.619c.039-1.985-.239-2.614-1.026-2.969-.493-.211-1.292-.242-1.757-.259-.401-.013-.531-.115-.524-.311.01-.26.378-.28.878-.26 1.731.063 3.329.219 4.025.244.368.014 1.639-.039 3.27.017.435.015.768.06.757.321-.007.194-.211.286-.61.27-.334-.012-.601-.022-1.005.063-.943.226-1.232.901-1.333 2.721l-1.107 20.513c-.026.716-.167 1.005-.469.994-.366-.013-.754-.386-1.107-.758-2.029-2.028-6.139-6.443-9.482-9.917-3.506-3.644-7.06-7.746-7.638-8.386l-.1-.003-.124 13.576zm31.832-3.734c-.169.014-.229.081-.281.283l-1.472 4.578c-.273.836-.383 1.627-.353 2.019.041.584.371.984 1.404.907l.499-.035c.396-.028.503.027.516.224.019.259-.175.339-.541.365-1.064.078-2.502.084-3.533.161-.365.024-2.189.255-3.916.381-.431.033-.636-.018-.656-.279-.013-.194.114-.269.381-.29.3-.02.762-.085 1.025-.138 1.516-.307 2.066-1.456 2.614-3.128l6.88-20.739c.331-.971.505-1.342.837-1.367.3-.022.52.256.908.98.926 1.727 7.195 14.326 9.681 19.106 1.479 2.83 2.475 3.215 3.185 3.328a7.58 7.58 0 0 0 1.406.028c.268-.02.435 0 .452.227.018.261-.276.346-1.509.438-1.195.086-3.623.264-6.288.39-.6.014-1.002.041-1.016-.185-.015-.195.114-.269.444-.328.228-.081.44-.39.244-.768l-3.147-6.495c-.079-.159-.184-.214-.349-.204l-7.415.541zm6.665-2.116c.166-.014.191-.113.152-.208l-3.575-7.769c-.043-.128-.09-.289-.189-.281s-.155.174-.176.306l-2.481 8.178c-.024.134.018.229.15.219l6.119-.445zm19.683-1.839c.65 4.115.999 6.334 1.781 6.804.635.396 1.527.486 4.095.081 1.746-.274 3.027-.509 3.714-1.506.329-.481.583-1.445.551-2.066-.011-.291.024-.497.289-.537.229-.039.286.119.347.503.056.355.206 2.804.088 3.78-.085.737-.225.925-1.939 1.194-2.37.371-4.094.576-5.58.781a81.923 81.923 0 0 0-4.034.534c-.363.056-1.088.173-1.872.328-.757.119-1.604.319-2.263.422-.429.068-.675.006-.711-.217-.024-.162.091-.279.488-.341a5.664 5.664 0 0 0 1.166-.315c.639-.232.691-.968.676-1.919-.049-1.378-.448-3.917-.912-6.876l-.891-5.661c-.768-4.889-.909-5.79-1.137-6.807-.236-1.083-.581-1.556-1.704-1.609-.275-.025-.674.005-1.103.074-.363.054-.569.023-.605-.201-.035-.225.185-.325.679-.405 1.549-.244 3.638-.474 4.528-.612.791-.126 3.179-.601 4.466-.802.46-.073.701-.045.735.181.037.225-.151.321-.545.384a8.714 8.714 0 0 0-1.271.299c-.864.299-1.041.888-.93 2.024.096 1.04.237 1.941 1.006 6.83l.888 5.655zm18.356-2.288c-.16.04-.209.119-.23.324l-.699 4.759c-.132.87-.11 1.667-.018 2.046.137.57.529.91 1.534.667l.486-.117c.389-.096.502-.054.547.134.061.254-.119.364-.474.451-1.037.251-2.452.493-3.459.738-.356.086-2.116.611-3.802 1.02-.42.103-.631.086-.691-.167-.045-.189.069-.284.327-.347a9.52 9.52 0 0 0 .99-.306c1.445-.55 1.8-1.775 2.064-3.515l3.381-21.584c.166-1.01.276-1.409.6-1.486.291-.069.555.166 1.055.816 1.2 1.552 9.452 12.95 12.69 17.258 1.923 2.55 2.969 2.766 3.69 2.759.506-.024 1-.109 1.39-.204.26-.061.43-.071.484.151.059.254-.215.388-1.415.677-1.166.282-3.531.855-6.14 1.421-.591.109-.98.203-1.034-.019-.048-.189.069-.285.384-.395.212-.119.37-.459.116-.799l-4.173-5.889c-.103-.141-.216-.182-.376-.143l-7.227 1.75zm6.229-3.183c.162-.039.171-.141.116-.228l-4.804-7.075c-.06-.119-.134-.27-.23-.246-.096.025-.125.198-.128.33l-1.1 8.472c-.004.134.054.222.183.19l5.963-1.443zm10.89-5.111c-1.8-5.266-.558-13.291 8.909-16.526 7.857-2.681 14.272.115 16.683 7.17 2.409 7.055-.735 14.355-8.75 17.09-9.056 3.096-14.98-2.279-16.842-7.734m21.562-6.706c-2.358-6.901-7.889-9.794-13.064-8.025-3.629 1.237-7.089 4.621-4.47 12.291 2.188 6.409 7.553 10.253 13.611 8.184 2.209-.754 6.966-3.546 3.923-12.45"/>
    <path fill="#666" d="M600.99 134.593H336.514v18.726H600.99v-18.726z"/>
    <path fill="none" stroke="#520" d="M600.99 134.593H336.514v18.726H600.99v-18.726z"/>
    <g fill="#5E520E" stroke="#520">
        <path fill="#EACE24" stroke="#806600" stroke-width="2" d="m336.514 153.318-29.936-70.443-5.031 1.529-10.99-25.175 20.187-5.964 4.571 11.818 9.746-2.889-4.171-11.585 20.56-4.742 3.655 12.07 10.121-1.949-3.503-12.188 20.62-3.595 2.823 12.279 13.641-1.932 1.185 6.206 5.063-.641-1.04-6.175 10.45-1.36 1.066 6.281 5.11-.515-.769-6.331 10.382-.948.872 6.326 10.099-.775-1.841-18.731 20.92-1.069.684 12.324 9.976-.152-.18-12.441 21.006.001-.323 12.592 10.155.208.739-12.533 20.871.917-1.906 18.997 10.095.699.876-6.261 10.35.95-.821 6.271 5.219.511.944-6.116 10.415 1.115-1 6.25 5.158.716 1.247-6.245 13.487 1.995 2.859-12.379 20.592 3.594-3.194 12.415 9.72 1.908 3.766-12.221 20.524 4.649-4.271 12.059 9.779 2.671 4.725-12.066 20.263 5.779-10.989 25.176-8.674-2.857-30.483 71.973c-84.189-24.222-184.104-24.323-265.399-.001"/>
        <path d="M462.536 95.047V72.721c0-8.93 16.066-8.93 16.066 0v22.326m-133.352 15.17-6.93-21.565c-2.771-8.625 12.746-12.092 15.519-3.466l6.929 21.565m218.296-.822 6.929-21.564c2.775-8.626 18.29-5.16 15.519 3.465l-6.931 21.565"/>
        <path fill="none" stroke="#806600" d="m514.974 119.629-.915 7.759m-180.992 17.585c88.135-25.836 184.129-26.221 272.559-1.09m-275.756-5.987c90.111-26.456 188.276-26.865 278.703-1.165m-281.552-6.015c92.091-27.003 192.401-27.375 284.776-1.056m-287.687-5.514c93.783-27.525 195.94-27.951 290.05-1.212m-64.204.807-1.609 7.573m47.759 2.274-2.605 7.077m-16.872-11.816-2.204 7.189m-25.601-20.042-1.526 7.467m17.573-4.766-1.971 7.166m20.266-3.454-2.198 7.155m22.742-2.061-2.72 7.089m-22.142-20.316-1.96 6.535m25.408-1.22-2.536 6.84m-6.342-8.928-2.266 6.595m-33.02-13.54-1.626 6.79m-10.438-9.068-1.464 7.136m-40.835 3.524-.689 7.505m27.589-5.137-1.236 7.325m-31.647-17.767-.525 7.583m14.328-6.814-.804 7.483m24.235-4.805-1.284 7.229m-3.831-15.16-1.091 6.825m-12.795-8.075-.854 7.013m-20.546-8.799-.442 7m-129.146 18.778 2.147 6.95m121.167-18.048-.356 7.741m-136.884 6.596 2.505 7.096m79.461-20.279.79 7.59m18.186-8.426.397 7.355m-41.808-4.455 1.295 7.516m52.895-10.734.135 7.47m-81.654-.092 1.8 7.411m-27.173-10.098 2.351 7.265m15.617-10.97 1.938 7.189m9.263-9.159 1.699 7.427m14.613-9.89 1.386 7.331m21.084-9.548.944 7.518m16.71-8.856.589 7.699m15.14-8.234.246 7.474m21.902-7.933-.21 7.471m-140.382 9.467 2.734 7.245m133.758-31.169-.118 7.185m-15.818-6.994.184 6.9m-14.752-6.331.457 6.908m-27.547-4.82.981 7m-22.152-4.612 1.342 6.74m-16.139-4.562 1.655 6.865m-19.03-3.658 1.927 6.596m-27.806-1.049 2.599 7.026m213.407-24.418 8.036-37.306m-243.474 51.917c95.924-28.114 200.404-28.491 296.615-1.075M506.806 67.845c18.643 1.164 37.333 3.221 55.693 6.163m-48.753-21.106-.69 5.793a602.147 602.147 0 0 0-82.977-.013l-.737-5.916m-50.095 21.258c18.179-2.916 37.099-4.966 55.557-6.138m-57.913-3.206 8.567 37.223m52.087-5.791-3.638-37.683m73.407-.076-2.018 37.784M377.7 52.127l2.61 12.115c-26.975 4.16-52.976 12.363-78.764 20.163m260.99-32.49s-2.528 11.995-2.527 11.996c27.659 4.176 54.641 12.294 81.062 20.292"/>
    </g>
    <path fill="#1353B4" stroke="#540" stroke-width="2" d="M336.514 153.317c-.704 45.093-.662 90.191 0 135.284.636 43.444 2.766 77.346 21.895 103.856 23.042 31.931 61.427 54.975 110.806 77.616 49.376-22.641 87.764-45.685 110.806-77.616 19.126-26.51 21.258-60.413 21.894-103.856.664-45.092.704-90.191 0-135.284H336.514z"/>
    <path fill="#CE0F25" d="M598.216 344.999c.088-11.274 2.433-16.629 2.434-27.901 1.169-22.626 1.618-45.096 1.265-67.644H336.514c-.354 22.548.094 44.817 1.262 67.644.004 11.272 2.416 16.628 2.501 27.901h257.939z"/>
    <path fill="none" stroke="#540" stroke-width="2" d="M336.135 248.863h266.159m-262.188 96.136h258.111"/>
    <path fill="#FFF" stroke="#000" stroke-width=".805" d="m436.14 311.056 32.228-13.13-13.13 32.229 14.324-9.548 14.325 9.548-13.131-32.229 32.229 13.13-9.55-14.323 9.55-14.324-32.229 13.13 13.131-32.228-14.325 9.549-14.324-9.549 13.13 32.228-32.228-13.13 9.549 14.324-9.549 14.323z"/>
    <g id="a" fill="#FFF" stroke="#000">
        <path fill="#EACE24" stroke="none" d="M256.42 398.03c-.345 39.061-.69 40.443-.69 40.443 17.109 16.765 19.139 22.906 24.195 28.346 6.567-9.507 16.764-5.705 16.764-5.705 2.075-8.986 12.964-16.764 12.964-16.764-15.209-1.209-41.48-8.989-43.554-12.099-6.888-10.332 2.592-41.651 2.592-41.651l-12.271 7.43z"/>
        <path fill="none" stroke="#806600" d="M256.42 398.03c-.345 39.061-.69 40.443-.69 40.443 17.109 16.765 19.139 22.906 24.195 28.346 6.567-9.507 16.764-5.705 16.764-5.705 2.075-8.986 12.964-16.764 12.964-16.764-15.209-1.209-41.48-8.989-43.554-12.099-6.888-10.332 2.592-41.651 2.592-41.651l-12.271 7.43z"/>
        <path fill="#EACE24" stroke="none" d="m293.936 459.211-16.865-12.953 20.042 11.975"/>
        <path fill="none" stroke="#806600" d="m293.936 459.211-16.865-12.953 20.042 11.975"/>
        <path fill="#EACE24" d="M268.904 379.505s21.131-8.626 42.788 6.57c2.069.604 3.581.427 5.227.141 4.186-4.489 13.681-17.685 21.014-15.974.54-11.15-.734-55.728-.734-55.728-3.176-.124-4.277 6.11-4.277 6.11 1.834 12.709-5.5 89.948-35.563 38.862l-21.265 2.2-7.19 17.819z"/>
        <path fill="none" stroke="#806600" d="M268.904 379.505s21.131-8.626 42.788 6.57c2.069.604 3.581.427 5.227.141 4.186-4.489 13.681-17.685 21.014-15.974.54-11.15-.734-55.728-.734-55.728-3.176-.124-4.277 6.11-4.277 6.11 1.834 12.709-5.5 89.948-35.563 38.862l-21.265 2.2-7.19 17.819z"/>
        <path fill="#EACE24" stroke="none" d="M257.333 200.842c18.148 6.567 18.375 10.037 36.347 25.937 14.345 5.705 35.71 19.692 36.92 22.804l-1.164 4.543c2.766 1.727 5.378-4.644 5.378-4.644-2.765-15.729-53.276-63.103-53.276-63.103l-22.249 4.685-1.956 9.778z"/>
        <path fill="none" stroke="#806600" d="M257.333 200.842c18.148 6.567 18.375 10.037 36.347 25.937 14.345 5.705 35.71 19.692 36.92 22.804l-1.164 4.543c2.766 1.727 5.378-4.644 5.378-4.644-2.765-15.729-53.276-63.103-53.276-63.103l-22.249 4.685-1.956 9.778z"/>
        <path fill="none" d="m274.395 193.804 56.861 52.195 1.211 3.802m-45.629-36.64c5.704 10.025 16.248 13.654 16.248 13.654"/>
        <path d="M263.87 180.412c-.244-18.82 21.999-31.285 21.999-32.996-2.201-13.415-33.976 18.575-35.688 22.731-1.964 6.064 2.445 13.443 2.445 13.443m17.355-27.865c-6.6 5.377-11.976 22.976-11.976 22.976"/>
        <path d="M253.604 180.168c-2.688-18.088 11-33.73 10.022-34.219-8.411-4.205-19.311 18.086-22.487 25.42l4.155 24.93m3.911-31.041c-3.423 8.799.244 20.775.244 20.775"/>
        <path d="M246.516 189.7c-4.4-4.399-.245-35.929-1.467-35.929-9.288 0-14.175 30.307-12.22 36.663 6.342 20.614 11.487 24.197 11.487 24.197m-6.11-35.685c-.734 9.289 6.599 20.776 6.599 20.776"/>
        <path d="M244.316 212.92c-11.731-10.999-13.766-40.511-15.397-43.506-12.553 2.445-6.11 33.73-6.11 33.73.244 2.444 16.62 21.998 16.62 21.998m-11.978-36.175c-4.155 8.31 14.665 32.998 14.665 32.998"/>
        <path d="M258.982 282.823s-3.178-42.528 2.199-48.882l-15.886-23.465-20.531 40.817 18.575 33.975 15.643-2.445z"/>
        <path fill="none" d="M258.982 282.823s-3.178-42.528 2.199-48.882l-15.886-23.465-20.531 40.817 18.575 33.975 15.643-2.445z"/>
        <path d="M244.026 375.503c6.966 8.92 10.37 29.036 10.37 29.036l2.074-6.569c.978.611 1.571 5.705 2.938 5.705.611 0 .504-5.251 1.901-5.533.611-.12.206 7.26 1.556 7.26 1.1 0 1.188-5.256 1.555-5.013.864.575 1.035 6.978 1.729 3.63-.977-34.341 66.34-62.443 64.985-100.936 1.711-39.839-41.135-54.959-67.405-88.488 0 0-7.381-21.987 6.221-12.271 11-1.711 10.025-12.616 10.025-12.616h6.049c2.69-23.464-20.912-17.974-20.912-17.974-21.875 0-23.85 22.64-23.85 22.64-5.622 29.454 32.542 64.53 32.542 64.53 5.621 12.221-.05 33.295-.05 33.295l-53.114 50.04"/>
        <path d="M221.253 341.843c-2.934 3.545-18.003 21.403-21.669 27.635-5.191 5.723 4.9 4.113 4.9 4.113s-14.922 15.775-22.17 20.389c2.225 6.675 16.536-2.994 16.536-2.994s-13.933 8.555-13.198 10.266c4.251 3.244 16.619-5.865 16.619-5.865s-2.954 4.154-.489 5.621c4.156 0 13.687-7.576 13.687-7.576s-1.955 4.399.245 5.131c3.974-2.505 28.843-23.221 28.843-23.221"/>
        <path fill="none" d="M230.855 331.268s-7.432 9.851-2.42 8.296"/>
        <path d="M229.809 305.698c-6.049 11.753-13.77 31.131-5.359 39.75 2.766.865 10.145-27.608 15.901-30.245.864-2.936 4.666-15.899 4.666-15.899m-5.833 5.028c3.173 0-6.347 6.356-9.778 15.154"/>
        <path d="M241.734 306.564c-4.666 21.949-.345 26.615 1.556 26.789 2.765-1.385 7.605-21.434 13.135-22.643m-38.369-105.772c-19.356-18.148-21.95-38.886-24.024-39.061-9.135-.76 3.111 36.815 3.111 36.815l23.159 18.492m-5.316-11.685s-9.286-7.089-14.176-16.621"/>
        <path d="M218.056 218.074c-28.69-15.901-32.147-41.825-34.566-40.962-8.834 3.489 2.419 27.309 2.419 27.309 1.556 6.567 24.37 27.134 24.37 27.134m2.263-5.925s-12.22-9.044-21.997-23.954"/>
        <path d="M209.242 229.653c-34.393-19.01-35.085-40.789-38.887-39.405-8.168 22.139 21.776 43.034 42.862 58.762m-2.141-9.937s-15.644-5.621-25.421-20.531"/>
        <path d="M212.526 248.491c-29.9-9.505-44.336-37.371-48.048-35.949-8.641 3.284 9.506 26.616 9.506 26.616 14.69 13.654 38.887 23.678 38.887 23.678m.405-10.075s-20.776-3.911-32.02-15.4"/>
        <path d="M212.699 261.108c-47.874-15.383-49.775-30.418-54.269-29.209-8.525 6.483 18.839 27.999 18.839 27.999 3.455 5.184 38.369 14.691 38.369 14.691m.815-11.073s-24.198.489-34.463-7.822"/>
        <path d="M214.945 274.417c-45.8-9.68-52.54-23.16-56.171-22.295-5.724 7.781 21.951 24.713 21.951 24.713 17.11 9.852 40.269 11.234 40.269 11.234m-.875-8.179s-16.131.489-26.398-5.132m19.841 29.729c-12.788 11.753-20.047 33.695-13.48 35.086 3.629.171 13.48-25.581 27.826-29.208l9.159-7.952m-5.216-1.258c3.171 0-16.614 6.112-20.043 14.911"/>
        <path d="M206.822 293.773c-18.665 13.999-24.637 30.557-21.948 31.455 4.147 1.383 20.745-15.871 26.789-16.939 2.938-.518 20.394-9.85 20.394-9.85m-13.893-2.906c3.171 0-12.948 5.621-16.376 14.423"/>
        <path d="M220.131 287.724c-20.394 2.419-56.17-19.357-56.861-17.456-8.879 10.401 29.554 27.826 38.022 26.961l30.072 1.901m-3.18-5.553s-24.686.246-35.93-4.886"/>
        <path d="M284.156 290.157s0-11.488-5.621-11.977c0 0-12.71-.976-26.886 1.467-32.424-19.357-7.024-44.221-11.489-52.795-1.466-13.198-23.219-32.997-23.219-32.997-2.2 1.957.443 14.277-1.223 13.444-4.399-2.199-1.686 7.485-2.933 10.021-4.155-1.466-3.942 4.823-2.933 9.532-3.422.49-2.201 6.355-1.467 10.511-6.71-3.691 2.031 10.464-.245 10.02-10.265-1.467 1.467 9.778 1.467 9.778-5.866 2.2-3.126 6.563.979 8.31-5.134 3.666.121 9.519 1.954 9.778-4.644 2.443.524 5.976 3.177 8.554-4.155 3.911 3.422 5.581 7.09 7.087-2.934 4.644.515 5.648 3.665 7.088-1.955 3.666 2.856 3.394 5.865 2.935-3.665 3.91 2.445 5.621 4.889 5.13 0 0 1.304 5.074 5.623 3.179-1.221 3.913 7.578 3.423 7.578 3.423 0 3.914 12.954 2.445 12.954 2.445"/>
        <path d="M221.087 223.77s2.689 7.088 5.866 7.088m-10.744-23.804s3.421 11.978 6.599 11.978m-9.532-2.69s.978 7.821 4.154 7.821m-7.576 2.2s2.689 7.088 5.865 7.088m-7.577 3.177s2.934 6.355 6.111 6.355m-5.866 3.911s4.889 7.821 8.065 7.821m-7.087 2.69s5.132 4.4 8.31 4.4m-7.089 3.909s5.132 4.4 8.31 4.4m-7.087 4.644s7.576 3.666 10.754 3.666m-7.333 4.889s8.555.734 11.732.734m-4.757 6.283s7.173-.304 10.349-.304m-6.2 7.218s6.136-1.688 10.004-.304m-4.301 4.278s6.134-1.689 10.004-.304m-5.511 4.97s5.963-.82 10.176-2.551m-4.126 5.663s2.504.732 6.719-.994m.54 4.103s2.16-.13 6.375-1.856m24.026-120.433c-5.011-9.505-10.198-8.468-10.198-8.468-2.591 0-3.456 1.728-6.394 1.728-3.63 0-2.765-3.803-2.765-3.803" fill="none"/>
        <path fill="#000" stroke="none" d="M272.137 181.521c-1.037 4.494-4.338 5.366-4.338 5.366s.716 4.289 3.474 4.485c5.065.907 6.719-3.649 4.32-7.605-.862-1.037-3.456-2.246-3.456-2.246"/>
        <path stroke="none" d="M275.279 186.708c.164.554-.675 1.33-1.875 1.731-1.2.404-2.306.279-2.47-.276l-.001-.003c-.164-.555.676-1.33 1.875-1.732 1.201-.401 2.306-.277 2.471.277v.003"/>
        <path fill="none" d="M206.061 373.022c-1.589 2.566 5.745 3.248 7.7.244 0 4.156 5.665 4.314 7.699 2.322.855 2.689 4.813 2.003 7.333-.489.428 1.16 4.014 3.647 5.339 3.17 2.59-.934 12.71-15.254 14.909-16.475m-53.271 31.175s11.623-11.319 19.226-17.367m-15.251 21.515s15.289-14.13 22.894-20.179m-8.203 17.414s10.156-10.464 17.76-16.512m-27.871-4.548s11.356-13.535 18.961-19.584m-10.099 19.944s9.546-10.953 20.45-18.711m-11.747 20.345s4.499-8.628 18.214-19.196m-11.248 19.075s5.22-9.049 14.658-15.831m-15.253 17.043c-7.778 7.95-14 13.309-14 13.309m2.768-12.617c-7.779 7.95-15.727 14.345-15.727 14.345m8.121-16.592c-7.778 7.95-9.851 8.643-9.851 8.643m17.488-35.853c-1.59 2.566 2.004 8.781 9.663 5.086-2.42 6.402 1.171 4.66 6.145 2.324-1.392 5.452 4.813 2 7.331-.49.427 1.161.557 3.995 2.919 4.21 2.743.249 5.623-7.651 7.824-8.871m-24.471 2.943 13.889-12.731m-21.279 13.4 6.761-10.289m6.872 11.744 8.338-9.151m-1.109 8.957 4.392-4.809m-17.801 6.22c-1.729 1.902-5.704 4.84-5.704 4.84m13.135-2.937c-3.803 2.938-7.085 6.05-7.085 6.05m19.184-3.113c-7.778 7.95-6.049 5.876-6.049 5.876m1.9-9.16c-3.803 2.939-6.049 5.185-6.049 5.185m13.826-24.542c-11.061 13.827 4.84 2.765 4.84 2.765m-19.092 3.824s-6.486 1.188.945-7.799m11.58-6.567-2.074 3.284m-.352-94.299c-1.955 5.621 3.423 11.244 3.423 11.244m-7.578-8.066c-1.956 5.621 7.086 14.909 7.086 14.909m-8.799-5.378c-1.954 5.623 8.066 10.266 8.066 10.266m-3.665 3.911c.489 4.155 7.821 3.177 7.821 3.177m-18.282-48.787s.624 4.735 2.939 11.235c-3.63 3.629-4.32 9.159-4.32 9.159m-11.143-17.462s2.689 7.088 5.866 7.088m-7.421 1.728s2.689 7.088 5.866 7.088m-8.804.343s3.38 4.669 6.557 4.669m-5.348 4.664s3.381 4.669 6.559 4.669m-4.139 5.182s3.726.866 6.903.866m-4.656 6.047s.787.175 3.965.175m-.163-48.912s-.423 3.978 2.756 3.978m.948 59.408s3.972-.463 3.272-3.561m-9.148-1.968s6.91-2.019 6.213-5.117m8.305 18.596s1.208-8.066.509-11.166m8.997 17.562s-1.213-10.66-3.639-12.031m14.181 14.622c-2.591-8.986-6.051-13.079-8.478-13.932m18.676 13.415c-2.592-8.987-9.509-12.387-11.936-13.241m24.033 13.584c-2.592-8.986-9.506-12.387-11.934-13.238m3.471 25.212c-9.333 3.456-13.653 11.925-13.653 11.925m1.102-125.862c-2.445 0-3.178 1.466-3.178 1.466m-4.888 12.954c-1.037 2.938 2.23 6.975 1.711 6.111m-1.55-29.802c-2.421 0-2.594 4.666-2.594 4.666m15.73 35.776 3.456 4.494m-1.729 8.641 3.629 4.147m11.58 9.852 4.321 4.667"/>
        <path fill="#000" stroke="none" d="M304.346 270.347s2.054 5.674 3.519 6.162c0 0 1.666.56 2.766-.172 1.001-.668 0-2.075 0-2.075-1.342-1.955-6.285-3.915-6.285-3.915m-8.745 2.846s-.339 6.024.819 7.049c0 0 1.313 1.17 2.611.926 1.184-.221.815-1.908.815-1.908-.47-2.326-4.245-6.067-4.245-6.067m5.988 21.264s-.338 6.024.82 7.05c0 0 1.313 1.167 2.611.926 1.181-.222.814-1.909.814-1.909-.47-2.326-4.245-6.067-4.245-6.067m14.788 6.038-.13.301h-.329a.697.697 0 0 1-.527-.246c-.636-.721-.359-3.964-.116-5.977-.627-.818-2.075-2.852-1.885-3.942a.943.943 0 0 1 .43-.658l.317-.198.28.248c.368.326 3.603 3.232 3.83 4.825.133.922-1.398 4.555-1.87 5.647zm-32.675 17.667c-1.099 0-2.07 3.32-1.346 4.689 0 0 .816 1.555 2.118 1.785 1.185.209 1.434-1.5 1.434-1.5.377-2.343-.002-4.974-2.206-4.974m-6.604 48.563c-.472.821-2.362 1.968-2.735 2.189l-.294.174-.27-.211c-.673-.529-.293-1.921 1.128-4.138.006-.99.106-3.571.945-4.327a.947.947 0 0 1 .745-.253l.372.039.067.367c.089.485.845 4.767.042 6.16zm-15.52 4.521c-.273.477-.762.633-1.26.633-.436 0-.878-.119-1.191-.249l-.116-.068c-.819-.641-.438-2.657-.216-3.561.001-.916.081-3.635.945-4.413a.948.948 0 0 1 .744-.253l.349.037.083.341c.25 1.016 1.454 6.154.662 7.533zm12.832-23.586c-.285.494-.774.637-1.241.637-.569 0-1.107-.211-1.208-.253l-.118-.068c-.839-.658-.42-2.752-.201-3.622.176-.507 1.055-2.805 2.531-2.649l.384.041.058.382c.062.419.592 4.144-.205 5.532zm20.046-17.399s-2.435 5.519-1.714 6.886c0 0 .817 1.558 2.119 1.786 1.185.209 1.433-1.5 1.433-1.5.38-2.342-1.838-7.172-1.838-7.172m-7.096 14.258c-3.62 1.194-4.38 5.486-4.112 7.005 0 0 .3 1.732 1.467 2.351 1.064.565 1.825-.986 1.825-.986 1.08-2.114 3.386-6.414.82-8.37m-19.551-21.318c-2.441 1.646-2.449 3.084-2.465 4.629 0 0-.022 1.756 1.013 2.58.943.747 4.174-.638 4.174-.638 1.448-1.879-2.6-1.928-2.722-6.571m26.152-23.586c-2.441 1.646-2.448 1.371-2.464 4.626 0 0 .832 2.614 1.869 3.436.94.748 1.974-1.614 1.974-1.614 1.449-1.877.699-5.838-1.379-6.448m17.972 13.049c-1.1 0-2.07 3.32-1.347 4.686 0 0 .818 1.556 2.119 1.786 1.185.21 1.434-1.499 1.434-1.499.376-2.343-.003-4.973-2.206-4.973m-7.578 9.409c-1.571 5.08-3.413 6.621-2.691 7.988 0 0 1.794.455 3.096.684 1.185.211 1.432-1.497 1.432-1.497.381-2.344-1.471-1.676-1.837-7.175m-42.775 59.174c-1.1 0-2.07 3.319-1.347 4.686 0 0 .816 1.555 2.119 1.785 1.185.209 1.432-1.499 1.432-1.499.38-2.341-.001-4.972-2.204-4.972"/>
    </g>
    <use xlink:href="#a" transform="matrix(-1 0 0 1 938.5 0)"/>
    <g id="b" fill="#EACE24" stroke="#806600">
        <path d="M462.575 214.875c.309-2.981.144-8.604-1.376-11.159-.514-.862-1.772-1.869-2.755-1.826-.966.043-2.298.336-2.753 1.216-.417.808-.689 2.541-.59 3.45.137 1.264 1.572 3.854 1.572 3.854s-5.142-1.064-6.884-2.434c-1.721-1.356-3.581-3.925-4.13-6.088-.189-.74-.924-3.139.005-6.017.539-1.67 2.159-3.905 3.415-5.018 3.276-2.909 9.636-2.064 10.939-1.341 1.719.957 3.816 2.991 4.522 4.87.549 1.459 1.689 5.766 1.967 7.305.568 3.137.734 4.323.983 7.506.171 2.185.645 4.146.196 6.29-.241 1.155-.541 3.804-1.196 5.549-.658 1.754-1.67 2.604-2.541 3.379-1.78 1.585-7.473 2.435-7.473 2.435s3.128-4.073 3.933-5.884c.959-2.153 1.924-3.732 2.166-6.087m13.947 0c-.308-2.981-.144-8.604 1.376-11.159.514-.862 1.774-1.869 2.755-1.826.966.043 2.296.336 2.753 1.216.419.808.69 2.541.59 3.45-.139 1.264-1.574 3.854-1.574 3.854s5.144-1.064 6.886-2.434c1.721-1.356 3.579-3.925 4.129-6.088.189-.74.924-3.139-.005-6.017-.539-1.67-2.161-3.905-3.414-5.018-3.277-2.909-9.639-2.064-10.94-1.341-1.721.957-3.818 2.991-4.524 4.87-.549 1.459-1.688 5.766-1.967 7.305-.568 3.137-.733 4.323-.983 7.506-.173 2.185-.646 4.146-.197 6.29.243 1.155.544 3.804 1.197 5.549.656 1.754 1.67 2.604 2.541 3.379 1.779 1.585 7.474 2.435 7.474 2.435s-3.129-4.073-3.934-5.884c-.955-2.153-1.919-3.732-2.163-6.087"/>
        <path d="M469.513 237.02s4.594-3.887 5.356-8.286c.683-3.958-2.362-8.591-2.594-10.455-.921-7.454 1.034-17.384 1.21-18.195.701-3.224 1.581-4.604 2.051-5.66.339-.76 1.304-2.271 2.269-3.735.554-.841 1.787-2.406 2.416-3.999.666-1.687.71-3.405.721-4.321.016-1.561-.271-2.89-.673-4.161-.381-1.209-1.626-3.186-3.429-4.323-1.944-1.226-3.515-2.211-4.114-2.601-1.975-1.289-3.191-5.528-3.215-5.528s-1.24 4.238-3.215 5.528c-.598.39-2.098 1.375-4.043 2.601-1.802 1.136-3.048 3.114-3.427 4.323-.403 1.271-.689 2.6-.671 4.161.009.916.054 2.634.721 4.321.628 1.592 1.861 3.156 2.416 3.999.966 1.464 1.93 2.975 2.268 3.735.47 1.056 1.351 2.436 2.051 5.66.176.811 2.132 10.741 1.209 18.195-.231 1.864-3.348 6.497-2.664 10.455.762 4.398 5.357 8.286 5.357 8.286"/>
        <path d="m479.837 213.11-2.213-3.16h-16.145l-2.218 3.16 2.218 3.144h16.146l2.212-3.144z"/>
    </g>
    <use xlink:href="#b" x="-86.94"/>
    <use xlink:href="#b" x="86.94"/>
    <g id="c">
        <path fill="#EACE24" stroke="#806600" stroke-miterlimit="10" d="M445.151 439.394h48.684v11.395h-48.684v-11.395zm-.002-2.479c-.081-10.701-1.586-21.734-6.15-31.13a6.23 6.23 0 0 1 8.016 5.969c0 .854-.169 1.663-.479 2.401a6.233 6.233 0 1 1 2.634 11.882c-.446 0-.882-.05-1.302-.138.467 4.205 2.625 7.391 5.216 7.391 2 0 3.74-1.897 4.647-4.696.905 2.799 2.648 4.696 4.647 4.696 2.785 0 5.069-3.681 5.291-8.356a6.186 6.186 0 0 1-3.533 1.103 6.231 6.231 0 0 1-.048-12.464 6.23 6.23 0 0 1 5.405-9.331 6.231 6.231 0 0 1 5.405 9.331 6.232 6.232 0 1 1-.047 12.464 6.19 6.19 0 0 1-3.534-1.103c.221 4.675 2.506 8.356 5.293 8.356 2 0 3.741-1.897 4.647-4.696.906 2.799 2.646 4.696 4.646 4.696 2.593 0 4.749-3.186 5.218-7.391a6.232 6.232 0 0 1-7.534-6.092 6.232 6.232 0 0 1 8.864-5.652 6.23 6.23 0 0 1 7.538-8.37c-4.565 9.396-6.069 20.429-6.151 31.13h-48.689z"/>
        <path fill="#806600" d="m470.924 419.776 6.634-1.04-6.97-1.095-1.095-6.969-1.091 6.969-6.971 1.095 6.635 1.04h2.858zm-25.994 21.493a.98.98 0 0 1 .927.639l1.149 2.526a.991.991 0 0 1-.001.814h.001l-1.173 2.579a.989.989 0 0 1-.904.582l.001-7.14zm.573-19.736 6.361-2.151-7.054.103-2.26-6.681 1.696 8.401 1.257.328z"/>
        <path fill="#806600" d="M443.709 418.248h.067c.063.004.115.01.158.014a.701.701 0 0 1 .351.141l.003.004.005.004c.119.087.231.18.334.276l.034.038c.109.102.206.202.286.301l.034.042c.489.613.783 1.391.783 2.235h.004v.009h-.004c0 .325-.042.632-.121.92l-.009.03-.03.1-.019.056-.004.008-.004.009a3.512 3.512 0 0 1-.278.628.696.696 0 0 1-.252.256h.001l-.006.004-.004.001-.005.005c-.046.026-.1.057-.165.092l-.13.063a68.768 68.768 0 0 0-1.16-5.232l.042-.003v-.001h.005c.029 0 .055.001.084.004v-.004z"/>
        <path fill="#FF8080" d="m464.851 444.943 4.365-2.579 4.365 2.579-4.365 2.579-4.365-2.579z"/>
        <path fill="none" stroke="#9E7800" stroke-linejoin="round" d="m464.851 444.943 4.365-2.579 4.365 2.579-4.365 2.579-4.365-2.579z"/>
        <path fill="#FF8080" d="m464.851 444.943 4.365-2.579 4.365 2.579-4.365 2.579-4.365-2.579z"/>
        <path fill="#BA0028" d="m473.581 444.943-4.289 2.534-.076.045v-2.579h4.365z"/>
        <path fill="#CF1E45" d="M469.216 444.943v2.579l-4.366-2.579h4.366z"/>
        <path fill="#FF083C" d="M469.216 442.361v2.581h4.365l-.103-.061-3.95-2.334-.312-.186z"/>
        <path fill="#F9C" d="m442.574 444.852 2.577-2.578 1.174 2.578-1.174 2.579-2.577-2.579z"/>
        <path fill="red" d="M442.574 444.852h3.751l-1.174 2.579-2.577-2.579z"/>
        <path fill="#CCC" d="M443.626 418.944c.077 0 .153.004.229.014a2.876 2.876 0 0 1 .837 3.76 2.03 2.03 0 0 1-1.066.304 2.04 2.04 0 1 1 0-4.078"/>
        <path fill="none" stroke="#9E7800" d="M443.626 418.944c.077 0 .153.004.229.014a2.876 2.876 0 0 1 .837 3.76 2.03 2.03 0 0 1-1.066.304 2.04 2.04 0 1 1 0-4.078z"/>
        <path fill="#FFF" d="M442.649 419.753a.975.975 0 0 1 0 1.948.974.974 0 1 1 0-1.948"/>
        <path fill="#806600" d="m493.485 421.533-6.36-2.151 7.051.103 2.26-6.681-1.695 8.401-1.256.328z"/>
        <path fill="#806600" d="M495.281 418.248h-.07c-.06.004-.114.01-.156.014a.694.694 0 0 0-.35.141l-.004.004-.004.004c-.119.087-.231.18-.334.276l-.037.038a2.998 2.998 0 0 0-.284.301l-.034.042a3.571 3.571 0 0 0-.785 2.235h-.001v.009h.001c.001.325.045.632.124.92l.011.03.028.1c.005.02.012.038.019.056l.004.008.004.009c.074.219.166.434.279.628.06.11.149.194.251.256l.004.004.006.001.004.005c.046.026.1.057.165.092l.129.063a68.772 68.772 0 0 1 1.161-5.232l-.042-.003v-.001h-.006a.813.813 0 0 0-.084.004l.001-.004z"/>
        <path fill="#CCC" d="M495.365 418.944c-.079 0-.158.004-.232.014a2.876 2.876 0 0 0-.837 3.76 2.038 2.038 0 0 0 3.105-1.735 2.039 2.039 0 0 0-2.036-2.039"/>
        <path fill="none" stroke="#9E7800" d="M495.365 418.944c-.079 0-.158.004-.232.014a2.876 2.876 0 0 0-.837 3.76 2.038 2.038 0 0 0 3.105-1.735 2.039 2.039 0 0 0-2.036-2.039z"/>
        <path fill="#FFF" d="M495.723 419.368a.974.974 0 1 0 0 1.947.974.974 0 0 0 0-1.947"/>
        <path fill="#806600" d="M494.059 441.269a.988.988 0 0 0-.929.639l-1.149 2.526a.987.987 0 0 0 .003.814h-.003l1.173 2.579a.99.99 0 0 0 .905.582v-7.14z"/>
        <path fill="#FF083C" d="m496.415 444.852-2.579-2.578-1.174 2.578 1.174 2.579 2.579-2.579z"/>
        <path fill="#BA0028" d="M496.415 444.852h-3.753l1.174 2.579 2.579-2.579z"/>
        <circle fill="#CCC" stroke="#9E7800" stroke-width=".5" cx="469.496" cy="418.747" r="2.287"/>
        <circle fill="#FFF" cx="469.085" cy="418.041" r=".975"/>
        <circle fill="#CCC" stroke="#9E7800" stroke-width=".5" cx="458.079" cy="442.665" r="1.668"/>
        <circle fill="#FFF" cx="457.793" cy="442.174" r=".677"/>
        <circle fill="#CCC" stroke="#9E7800" stroke-width=".5" cx="458.079" cy="447.518" r="1.668"/>
        <circle fill="#FFF" cx="457.793" cy="447.026" r=".677"/>
        <circle fill="#CCC" stroke="#9E7800" stroke-width=".5" cx="481.16" cy="442.665" r="1.668"/>
        <circle fill="#FFF" cx="480.874" cy="442.174" r=".677"/>
        <circle fill="#CCC" stroke="#9E7800" stroke-width=".5" cx="481.16" cy="447.518" r="1.668"/>
        <circle fill="#FFF" cx="480.874" cy="447.026" r=".677"/>
    </g>
    <use xlink:href="#c" x="-49.151" y="-55.104"/>
    <use xlink:href="#c" x="49.151" y="-55.104"/>
</svg>
