<svg xmlns="http://www.w3.org/2000/svg" viewBox="0 0 1200 600">
    <clipPath id="a">
        <path d="M0 0v150h700v150H600zm600 0H300v350H0v-50z"/>
    </clipPath>
    <path fill="#00247d" d="M0 0h1200v600H0z"/>
    <path d="m0 0 600 300m0-300L0 300" stroke="#fff" stroke-width="60"/>
    <path d="m0 0 600 300m0-300L0 300" stroke="#cf142b" stroke-width="40" clip-path="url(#a)"/>
    <path d="M300 0v350M0 150h700" stroke="#fff" stroke-width="100"/>
    <path d="M300 0v350M0 150h700" stroke="#cf142b" stroke-width="60"/>
    <path d="M0 300h600V0h600v600H0z" fill="#cf142b"/>
    <path fill="#fff" d="M767.32 145.154v253.639c3.002 36.316 78.686 59.178 131.454 97.748 69.212-46.422 136.34-55.812 139.039-107.858l.842-243.529h-271.33z"/>
    <g fill="none">
        <path fill="#2f8f22" stroke="#000" stroke-width=".456" d="m767.292 395.158 2.834 14.485 9.447 11.338 68.34 44.085 50.072 31.18 97.626-53.222 33.697-25.826 6.615-33.696-4.096-7.872.946 8.188-2.521 6.613-2.832-1.891-1.89-12.28-.316 9.13-4.723 5.357-.945-6.617 1.26-4.722-1.89-5.353-.63 10.706-2.518 4.726-2.206-3.151.946-4.726-.315-4.406-1.575-2.207-.317 4.725-.943 1.574.315 2.833-1.89 1.891-1.26-3.778.631-3.466-.63-3.147-1.26-3.467.316 5.67-3.15 6.928-2.52 1.574-1.574-1.89.316-6.613-2.205-3.777.629 8.187-3.148 7.245-1.889-2.207-.948-2.203v-3.467l3.467-8.817-3.467 3.15-2.832 7.557-1.26 2.203-1.574-3.778 2.205-8.503-1.26-1.572-2.834 10.391-2.521 1.574-1.889-.63-1.259.63-152.425 8.504-4.094-5.985-.943 5.985-2.522 2.203-2.517-11.023-1.89 11.654-2.521-5.669 1.26-12.914-1.26-.943-1.888 6.927v9.763l-.946 6.614-1.89-1.26-2.518-5.984-.315-9.764.943-6.928-2.518 8.188v10.079l-.315 5.036-3.151-6.927-1.574-5.67-3.15-6.612 1.89 8.503V392l-5.354-4.726-2.833-13.225-.63 9.763 1.26 4.722-1.574 1.891-3.149-5.67-1.889-7.556-2.204-7.244v11.65l1.574 6.3-1.26 1.576-2.519-1.26-.945-6.931-.631-10.075-2.518 6.927-.631 7.241-.945 5.67-1.574 3.781-4.409.323z"/>
        <path stroke="#4dcf4a" stroke-width=".913" d="M876.022 472.104c-.818-14.885 12.643-29.772-23.593-44.66"/>
        <path stroke="#38bb26" stroke-width="1.141" d="M910.572 463.678c0-19.662-11.236-28.087-33.707-25.28"/>
        <path stroke="#51c757" stroke-width=".913" d="M922.368 472.104c-11.875-14.298-27.737-12.642-46.346 0m75.838-18.538c-4.51-8.406-20.974-2.87-38.761 4.217"/>
        <path stroke="#7acb73" stroke-width=".822" d="M1011.69 426.602c-4.494-12.92-12.358-20.225-23.594-21.91"/>
        <path stroke="#4cb135" stroke-width="1.141" d="M1026.86 406.376c-2.98-6.674-6.1-13.075-13.482-10.955"/>
        <path stroke="#60c85a" stroke-width="1.278" d="M845.686 459.466c3.925-13.476-.332-18.77-7.583-21.067"/>
        <path stroke="#71ce5b" stroke-width="1.187" d="M781.645 409.747c7.5-3.256 13.49-9.532 24.436-5.896m-33.706-2.528c6.125.128 10.402 2.519 11.796 8.425"/>
    </g>
    <g stroke="#000" stroke-width=".456">
        <path d="M905.36 150.642c-3.542 3.26-7.176 6.25-12.28 4.957-3.494 1.432-.106 9.672-5.793 7.974-5.519-4.368-4.058 5.21-7.595 7.214-3.232 1.033-9.232 2.622-4.482 6.46 2.904 2.836 5.695 7.763.941 10.235-2.755 5.184-3.342-4.775-7.426 1.074-1.324 5.916 8.79 4.627 4.088 9.212-.788 2.743-3.598-6.762-6.447.795-2.214 3.127-2.3 7.744 1.952 9.141 3.622 2.08 11.215-1.083 6.692 5.021.001 3.602-5.948 9.583-3.69 2.8 4.065-4.719-1.835-6.024-4.507-2.805-5.486 3.741-3.207 12.066 2.152 14.468 1.587 3.324 3.199 4.202-.818 8.203.55 4.008-.283 7.452-5.568 7.201-2.95 2.797-4.934 7.463-10.547 6.759-5.388 2.171-6.743-1.373-7.759-5.65-1.744-4.248-8.866-6.678-11.465-1.983-3.119-1.262-7.171-7.188-10.37-1.356-2.843 3.895-7.341-2.278-10.345 2.79-3.494 3.837 2.174 7.421 2.993 10.348 4.673 3.767 2.16 5.993 1.161 10.864-1.695 4.413 6.185 7.145 3.746 10.683-3.502 2.735-9.136 5.89-7.783 11.13-4.964 1.75-4.293 7.444-2.756 11.386 2.5 5.628 13.084 4.99 12.577-1.9 2.802-.4 6.096 5.682 8.138 8.635-1.98 2.08-8.403-.427-11.948 1.373-4.648-.479-8.635 4.573-13.273 5.254-3.363 1.993-7.842 4.584-6.724 9.42.834 4.066 2.372 8.11 1.774 12.29-2.23 3.695-4.14 7.612-3.958 12.07-1.966 6.513 2.427 14.368-3.145 19.699-1.574 4.818 2.702 4.796 4.608 1.724 2.583 1.132 4.215-3.28 3.972-5.184 2.26 4.124 3.04-1.13 5.086 2.742 4.139-1.374-.941-13.305 1.652-8.313 1.976 2.898 3.022 9.057 5.87 9.488 3.167-1.254 1.556-12.902 3.844-3.841 2.471 8.078 3.753 16.602 7.83 24.029 2.397 6.986 8.719 13.51 16.717 12.147 2.267 2.148-3.514 6.589-4.624 9.624-3.574 2.705-7.987-.786-11.767-.938-3.79 1.473-8.143 2.277-10.838 5.536-1.727 3.792-3.046 7.099-3.434 10.855-.888 5.31.13 11.423 5.43 14.047 1.325-4.065.321-7.529 5.987-7.18 3.963 2.273-.436 8.102 3.088 11.678 1.781 3.71 6.917 8.342 5.22 1.03-2.016-5.742 3.357-5.794 6.617-8.162 4.295-4.53 4.972-.126 4.394 4.302 2.408 3.15 7.216-2.93 8.382-5.643 1.664-3.145.099-9.927 3.056-8.559 3.808-.98 6.274-4.468 9.262-6.941 2.693-5.24 7.736-.069 11.705.689 4.944 2.133 11.575 1.377 13.803 7.372-3.808-1.882-8.258 1.64-6.864 6.386 1.926 4.869 7.81 3.45 11.35 2.756 3.562 1.468 7.575-3.006 11.407.298 3.75-.817 7.885-.305 11.406-2.178 3.468-2.849 2.047-9.281-3.03-8.3 2.323-3.432 7.59-4.394 11.093-6.785 4.027-.366 7.53-4.832 11.058-4.17 5.026 3.478 7.524 9.095 11.844 13.11 4.235.49.311 6.377.765 9.973-1.134 4.345 1.297 10.36 4.926 4.42 2.186-3.95 8.198-2.82 8.523-8.005 1.678-4.38 2.811 6.4 7.104 5.824.289 3.346-.977 11.535 4.07 6.148 4.429-4.065 5.167-10.29 3.59-15.805.71-4.513 7.239 2.715 6.054 5.954 1.008 4.168 6.179-3.6 6.91-5.973.567-6.085.746-13.275-3.864-17.94-3.499-1.736-4.948-7.176-9.954-6.974-3.445 1.895-7.375 5.505-8.844-.822-4.543-4.036 3.08-4.32 5.626-6.172 5.123-3.238 7.928-8.794 8.967-14.566 1.864-5.297 3.463-10.685 4.685-16.168 4.008-1.44 7.765-4.377 9.996-6.806 4.553-8.556.198 6.417-1.419 9.938 3.48 1.54 8.027-1.245 9.517-4.931 2.241-2.484 2.735-12.253 3.902-4.43.52 2.708-4.304 10.748-.395 9.326 4.04-1.293 7.281-5.18 9.137-8.92 1.619-5.02 3.228-11.126 1.187-15.964 3.248-2.224-.235-11.523-3.75-6.467-4.514-.85-3.216-7.42-4.04-10.66 3.697-5.233.614-15.367-6.579-15.12-3.635-2.084-6.535-3.016-10.262-4.421-4.842 1.51-8.301-3.067-13.119-2.274-7.278.361.612-7.967 3.435-5.097 3.301 4.252 10.294 6.275 13.691 1.072-.16-3.923-.152-9.324-3.654-12.394-.695-4.386-1.865-8.533-4.883-11.951-3.705-5.446 3.11-6.713 5.354-10.104.996-4.387-1.666-9.2-4.292-12.782 2.824-2.826 5.67-8.063 2.635-11.652 1.13-3.422-6.573-4.017-9.066-3.68-4.991-.331-9.182 4.22-14.151 4.562-4.251 3.468-9.404 5.395-14.873 4.014-3.869-.961-6.9-5.21-8.975-7.735-5.043 2.76-.915-5.447-5.01-7.85-2.833-3.885-8.7-3.051-6.572 2.649-3.706 4.527-.474-6.087-2.79-8.26-3.017-7.273-1.782-2.055 2.292-.066 4.528 3.1 11.121 1.226 12.254-4.338-2.223-3.304.26-9.824-4.752-9.356-3.67.56-3.854 9.498-5.909 2.19-.557-4.032-2.83-7.386-4.864-10.847 2.731 4.795 8.022 9.975 13.89 7.019 3.15-2.06 4.268-7.18 2.375-10.247.177-10.609-5.948 5.636-8.76-2.757-6.502-1.926 12.459-8.926 4.682-11.246-2.645 3.682-8.39 1.949-8.996-1.917 3.28-1.836 6.403-8.92 4.234-11.263-4.732-2.685-6.564-6.739-5.507-12.178-2.773-2.97-9.863 2.25-10.276-4.43-.23-6.205-5.882.82-8.98-1.423-2.338-1.382-4.713-2.755-6.924-4.479z"/>
        <g fill="#d40000">
            <path d="M904.106 194.538c-.31 6.88-6.22 5.435-7.908 3.553-1.624-6.29 7.801-8.015 7.908-3.553zm3.203-.395c.616 5.434 6.847 6.188 8.027 3.912 2.059-5.189-5.677-8.485-8.027-3.912z"/>
            <path stroke-linejoin="round" d="M903.481 188.9v1.19l-.655.12-.238-.297-.177-1.847-.358-.178v-.834l.833-.058v-.776h-1.012l-.359.776-.18 1.071.42.894-.42.715-.772.417-1.073 1.014-.717.356-1.668.179-1.369-.656-1.373-1.31s-.595-.954-.655-1.192c-.059-.238-.417-1.072-.417-1.072l-.36-.894-.654-.715-1.013-.12-.298 1.251-.356.477-.835.119-.892-.774-.596-1.013-.657-1.312-.536-.894-.774-1.13-.359-.655-.356-1.55-.896-1.132-.595-.953-.951-.774-1.014-.775h-1.192l-.775-.596-1.13-1.072-.835-1.132-.534-.655.12-.597.416-.537.894-.535.892-.06 1.014-.238 1.013-.536.179-.716.179-1.191 1.071-1.907.477-1.37.06-1.072 1.549-.239 1.49.179 1.072.299 1.132.356 1.31-.655 1.073-1.372.356-2.382.477-2.204.537-1.25h2.742l.95.655.776-.357.714-.357 1.729.177h.893s.715-1.131 1.014-1.31c.296-.179 1.727-2.086 1.727-2.086l1.846-.476.953.12 1.312 1.49 1.071.656.954.06 2.265 1.489s.715.595.954.475c.237-.119 2.265-1.013 2.265-1.013l1.785-.119 1.908-.655.655 1.488s.954 2.265 1.252 2.503c.298.238 1.489 2.501 1.489 2.501s.596-.297.895-.357c.296-.06 1.667.298 1.667.298l3.932.18.537-.597.415.715-.534 2.74.237 2.086.716 2.801.892 1.31 1.193.06 1.55 1.311.06 1.31-1.192.418-1.073-.358-1.373.774-2.143 1.25-1.79 1.789-1.546 2.203-1.014 2.204-1.012.716-.895-.358-.894.059-.416 1.073-.894 1.071-.775 2.741-1.668 1.847-1.728.834-1.25.954h-.834l-1.43-1.372-.655-.595-.178-2.144-1.373-1.074h-1.014l1.49 1.192.06 1.608-.832.714-.419-.118-.415-.834h-.479l-.06 1.608-1.787 2.085-1.786-1.489-.06-1.907-.892-.175z"/>
            <path d="m874.307 173.86 2.662.085 1.375 2.063 1.202 1.288 1.201.945 1.032.17 1.976 2.921v.345l1.544 1.374.43 1.802.172.601-.086.773-.86.516-1.03-.173-.601-.43-1.888 1.633-1.203 1.632-.773.173-2.063 2.232-1.03.344-1.632 1.202-2.576-.086-1.63-1.975-.343-.774-.086-1.546 1.46-1.03.687.772-.342.773.084.946.86.343.858-.087 3.092-2.662.773-.43 1.804-1.802 1.117-.602-.085-1.116-1.289-1.975-.428-1.374-.344-1.289-.342-.945-1.203-1.373-.688-.774-.258-.773-1.201-.945-.343-.173v-.599h-.005z"/>
            <path fill="#a00" d="M926.009 183.908h1.375l1.46-.688 1.118-.944h1.03l.687.686 1.117-.085.687-.859.258-1.03.944-1.288.258-1.29.86-1.803.257-1.289-2.147-.085-2.49 2.148-1.89.085-1.546 1.632-1.202.17-1.288 1.89-.429 1.118.172 1.117.769.515z"/>
            <path stroke-linejoin="round" d="m899.472 201.173-1.633 1.632-.429 1.46.687 1.458 1.547.258 1.117-.6 1.03 1.202.171 2.061 2.062 2.232.944.258.774-.859.858-.86.086-.857 1.376-.601.343-2.577.774.943 1.286-.772 1.633-.17v-2.149l-.6-1.459-1.29-.946-1.975-.859-2.147-.773-1.03.087-1.893 1.118-2.06.685-1.631.088z"/>
            <path stroke-linejoin="round" d="m912.4 200.641 3.1-.142c2.128-1.38 3.049-7 4.513-10.713 2.271-2.945 5.06-3.826 8.46-2.256l1.974.564 2.537 1.973h1.83l1.272.282 1.974.141 3.525-2.82-.14 2.96-2.398 2.115-4.934 1.834-3.808-2.255-.14.564 8.178 9.021h.704l1.41 1.41.705-.564.141-2.396 2.821-2.537.281 3.665.987 1.832v3.525l-2.679 3.384-4.229.564-4.934-3.101-.14-1.41-4.514-5.216v2.256l2.68 5.498.422 2.114.988.988.706 1.693v2.115l1.267 2.96 2.256.28.566-1.408v-1.974l2.397-2.398 1.551-.14.564.846-.705.704-.282 1.552v.986l1.974 2.679.565 1.692-2.962 4.51-1.975.566-3.523-.565-2.116-1.41h-1.128l-3.243-4.935-.422-2.396-4.371-6.909-.143 1.41 1.694 2.116.845 3.242.845 5.78 2.538 4.935.14 9.165.848.986h1.125l1.411-1.127 1.127-1.55-.282-5.358h1.552l2.678 1.551 1.974 3.243.705 1.41v2.96l-.986.14-1.975 2.116-3.243 1.409h-5.638l-1.268-1.127h-1.128l-.845-.846h-1.552l-4.373-6.203-.139-10.292.564-2.255v-3.102h-.704v3.102l-.707 1.975-.14 2.82.14 7.754 4.652 7.472 3.384 1.692.988 1.128h-1.551l.142 1.128-1.271-.282-.281.564-.704-.282-1.271-.847-1.692.283-1.126.564h-2.96l-1.271-2.538-.985-1.974-3.384-3.102H909.3l-.564-1.832.423-3.243.707-2.96v-7.896l-.566 9.024-1.55 5.075-.565.423-.141 5.78.987 2.679 3.947 4.37-2.678.282-1.974-.844-2.116.42-3.241-.704-3.667-1.268-2.397-2.396-1.128-2.68-.423-2.677-.564-2.82.564-2.255.282-2.256-1.127 2.537v6.062l-1.552-.422v-1.692l-1.268-1.692-.28-2.256-.424-3.383-.143-5.498.143-3.384.704-3.807-.564-.141-.425 4.795-.28 9.445-.987.283-2.255 3.101H881.1l-1.974-1.69 3.808-4.09-.423-3.243-.424-3.805-.423-6.486-4.371 4.652-4.934 3.526h-4.23l-2.396-2.962-.425-3.382.283-2.398 2.537-3.384 1.831-.28.707-.706.423.564-.986 2.82-.987 2.114.845 1.974 2.398.282 3.101-4.793 2.397-5.64 1.832-2.82v-1.55l-1.69 1.268-1.975.424-5.779.141-3.383-2.115-.565-1.692.14-1.55.143-2.115 3.665-2.398.14 5.075 2.4-1.974v-.982l3.1-4.09 7.472-6.625h4.512l2.678 1.974 1.126.282 3.244 3.102.14 3.947 3.808 3.102-2.256 2.679.138 1.41 2.118 1.551 1.973-.564.846 5.217 2.396 1.41 1.269.14 4.795-5.64 2.115-.28 1.269-2.82-.567-2.257-.561-1.277z"/>
            <path d="M858.209 249.643v.827l1.657 2.247-.119 2.367-8.4 4.259-3.664.237-1.895 1.774-4.85 1.538-2.128-.474.354-1.182.236-2.011-.236-1.183-1.537-.828v-1.895l1.892-.59-.593-.827-1.064-.12.237-2.483.473-.946.119-.592-.119-1.184-.473-1.064-1.302-.356-3.784 1.54-.592-.594-1.775 1.893-.947.119-.117-1.539-1.893-2.485v-.474l-3.548-.59-2.485 3.194h-1.775l-1.3-.946h-1.066l-1.181.708-.712-.235-1.064 1.894h-.59l-.712-1.54-.946-1.537-.354-.948.474-1.891 1.537-.947 1.89-.948 1.424-.235 1.654.947.71 1.536 2.13-2.01 2.128-2.367 1.774-.709 2.249.354 2.485 3.313 2.364.235 2.84-2.01 1.065-.592 2.604.355 2.603 1.42 2.72 4.02.474 3.904.59 1.066 4.732-.357 4.968-.945 2.838-.113z"/>
            <path d="m861.049 244.319-1.302 5.797 1.537 1.656-.119 1.893.827.828 1.539-.828 1.537-1.065 1.537-.593 1.775-.945.235-1.066 1.892-.945 2.013-.593 2.601-.71 2.604-.355-1.892-1.302-5.442-3.547-2.249-.237-.828.709-3.192.119-1.773.472-1.3.712z" stroke="none"/>
            <path d="m887.192 238.523-3.785-.119h-2.486l-2.01-.827-1.656-1.656-.237-1.538-1.182-1.892-1.183-1.184h-1.775l-2.482 1.656-1.066 2.13-.235 3.43 1.418 2.957 4.732 3.55 2.721.59 1.895-.826 4.257-1.893 2.721-1.774.95-1.538-.597-1.066zm-9.109-5.443 2.128-2.246.118-5.088-.591-.473.591-2.011.237-1.656h-.828l-4.614 4.376-3.195.473-1.653.948-.12 1.182 1.302.828 2.366-.237 1.3.12 2.959 3.784z"/>
            <path d="m879.976 246.448 4.139-.355 3.313.237 1.656.474 3.313 1.774 1.894.948 3.667-.238-1.42-1.773-1.42-1.775-.948-1.775-.236-1.773-.825.236-.948-.236-1.182-1.538-.71-2.248-.475-2.957-.944-.12-.712 1.42.712.709.708 1.42-1.183 1.536-.118 1.185-1.537 1.183-2.13.947-2.011.827-2.248.828-.355 1.064zm30.284-5.442.119 5.087 1.775 1.538h1.654l1.302-.709.356-1.064-1.184-.71-.474-1.42-2.484-2.72h-1.065v-.002zm19.283 4.022 5.086 3.43 1.538.475 1.42-.474 2.365-1.893 1.182-2.602.12-1.892-1.182-.118-1.893 1.302-2.721.236-2.129.354h-1.657l-1.657.355-.472.827zm14.667-3.902-.944 1.538-.947 2.366-2.13 2.248.119 1.655h-.948l.12 1.302 1.654 1.3 4.616.709 3.668-4.73v-1.302l-2.012-2.367-1.421-.354-1.775-2.365zm21.53 13.249 2.368 1.183v.828l-.947 1.302-.59 2.483-.238 1.538-2.84.12-2.956-1.065-1.657-1.065h-1.538l-.828-.709-1.418-.947-1.776-1.184-1.891-2.483-1.301-1.656v-1.183l1.775-2.248 1.775-.59h7.926l3.666-1.302 2.956-2.484 3.55-.71.828-.946 2.366-.474 5.915-3.076 3.312.59 3.313-.117 2.838.827 1.066.947-.592.355-1.537-.119-1.775.947-.237 3.194 1.42 2.602-.355.71-1.774-.118-1.182-.593-.593-1.065v-1.064l-1.181-1.656-.947-.354h-2.127l-.71 4.494h-1.068l-2.008-1.774-2.96-.356-2.01 1.775.708 2.366 2.96 2.84h1.537l1.42 1.654-.12 1.301-2.128-.474-2.13-.472-1.774-.83-1.42.238-1.657-.948-1.656-.708-1.064-.474-.714.95zm7.984 52.853-1.882 1.705-1.255 2.42-.447 2.507-.807 3.137-.359 2.42.36 5.287.18 2.866 1.7 2.69.896.268 1.075 2.15 1.523-4.211.719.537.447 3.136 2.51 2.15s-2.33-1.164-2.868-1.164-.627.626-.627.626l.627 1.344 1.432 1.434 2.51.984 4.66.09-1.075 1.075h-3.225l-.81.626 1.167 1.703 1.433 2.24 2.6 1.254 2.686-.716h.896l-.447 1.075 1.344.984 1.164 1.075 1.076 1.166.895.178v1.344l-1.612 4.034-.36 1.88-.894 1.524-.538 2.328-1.613 2.778-.179.986h.807l1.164-1.525 1.704-.716 2.061-2.688s1.164.36 1.434-.18c.268-.538 1.523-4.301 1.523-4.301l1.254-.269.628-3.942 1.075 3.675.898 4.66-.36 3.942-2.33 4.3-.626.72.358 1.432h1.702l1.972-2.063 3.404-4.57 1.347-4.57.716-8.871 1.523 4.123 1.434 4.031.719 3.136-1.077 4.122-1.344 4.84 1.793-1.256 3.765-4.212 2.955-4.388.808-3.226.717-6.184-.448-4.838.177-1.793.628-.985-.09-3.226-.627-1.344-2.149 2.867-.896.18-2.51-1.703-.626-.18-1.434-2.061-.984-3.316.088-3.763h-.536s.269-3.137.536-3.943c.27-.807.628-2.328.628-2.328l-.449-3.317-1.702-3.137-2.061-1.79-3.315-.985-3.855-1.077-2.24-1.79-4.211-.448-2.15.269-4.033-1.882-2.599-.986-3.314-.088-3.137-.36-1.617.094zm-144.176.196-8.264-.164-1.323-.662-1.982 1.652h-3.802l-4.133 2.314-2.809 2.148-1.487-.164-5.786 5.29.827 4.296.66 1.158.331 4.132.164 5.949-1.32.993-1.984 4.96-1.158 4.296-.992 8.43.827 6.28-1.158 3.306-2.313 3.637-.496 1.818 1.982-1.324-.328-.661.99 1.487 2.478-4.463.993 1.654.99.164v-5.62l-1.155-8.76 2.809 9.093.662 3.305.496-.167.33-7.438 1.817 4.133.166 3.635.826.662.498-.992v-5.454l-2.977-8.76-1.487-8.101 3.967 10.579 2.315 2.148 2.148 5.786 1.82 3.305.33 2.148 1.322-.826.498-.825-1.158-.827.825-.66-.167-2.975-.99-6.94h-.99l-3.472-7.273 3.14 4.464h1.322l.166-1.159-1.487-2.975-.33-3.471 2.975 4.298.99-.495-1.652-4.796-.33-5.454.992 2.314-.166 2.645 2.15 2.646 2.148 1.155 1.652-1.98-1.158-.829-.494-2.312-1.655-1.984v-2.646l2.317 4.133 2.147 1.488 2.149.496 2.15-1.487 3.634-4.133-.493-.497-3.804.167-2.975-1.984-2.644-2.478v-2.149l.496.329 1.156 2.316 2.149 2.15 2.479.328 3.142.167 3.469-3.14 1.82-5.951.496-3.306-.661-4.132-2.15-4.794-1.323-2.15-1.157-.496zm121.656 91.572-8.762 9.088-1.157-.33-3.14 2.646-.165 2.81 2.975 2.316 1.158 2.148.827-.167 2.973 3.636 2.812 3.969 1.158.662.824 1.817-1.485 2.148.495 1.325 2.314-.333 2.646.167 1.651.991.662 2.976v1.155l1.818-.99 1.488-2.15.166-5.288-.329-1.487.493-3.968.496 5.288 1.158 1.654.826-.663.99 3.473 2.15 2.15 1.158 1.98.167-1.32-.167-2.644 1.158-2.976 1.322-3.47 1.323-.829 1.155.5 1.656 1.65-.166.662 1.488-.167-.333-3.966-2.147-2.976-3.307-2.145-1.652-1.653-1.487-2.645 2.314 1.322 2.479 2.314 2.313 1.158 1.654.33 2.812 5.454 1.818 2.645.33-3.636 1.322-4.134 1.324-1.817 1.652-.166 2.15.662-.498-2.48-1.652-3.14-3.306-2.974-3.472-2.645-2.973-1.325-2.647 2.316-.826.329-1.488 1.325-1.156-.496-3.802-3.64-.992-.658-1.652-3.969-2.48-1.158-3.802.333-4.632-.994zm-99.341-2.148 1.158 1.981.992 3.14 1.652 1.821-.165.99 2.314 1.982 2.313 3.636 3.803 3.14-2.81 2.481-6.612 4.96-2.15.662-2.809-1.657.33 3.968 1.157 1.82-2.975-.662-3.472.33-2.148 1.82-.497 1.816-.826-1.32-1.158-1.821-.33-.329-.66.496.496.328.164 3.306-.825.663-.167.991-3.8 2.478-.992-2.478-1.325-2.81-2.313-1.158-2.478.332-2.81 1.652.825-2.314 1.654-2.645 3.139-2.644 3.14-1.982 2.48-.991.662-.333-.828-.825-4.626 1.32-3.307 2.15-3.472 2.48-2.644 3.8-1.322.99v-2.807l-1.49-3.802-.495-2.481-1.488-1.817h-1.817l-2.479.495 1.82-3.139 3.634-1.982 1.654-2.81 2.975-2.482 2.479-.496 3.637.496 1.816.995 3.474.163 2.146-.163 2.646-1.325 2.15-3.969 2.973-4.294 3.474-1.82 4.133-.326z"/>
        </g>
        <path d="M892.877 173.292v2.084l-.775 1.25h-1.37l-.833.895-.24.715 1.55 1.43 1.43 1.012.594.716.36.178 5.957-.06.714.715 1.312-.953 1.61-2.443 5.064.06 2.68 1.966.179 1.609.596.239 1.428-1.25 1.192-.06.595.775h1.074l3.515-3.159.596-.834 1.31-.06-.177-1.013-1.43-.357-1.25-1.25-.359-2.086-1.131-.178-1.966 1.013-3.396 1.668-1.133.834-1.012.059s-.417-.357-.656-.357h-1.31l-1.074.894h-.834l-.298-.298-4.587-.358-3.813-.953-1.968-1.31-1.25-1.013-.359-.356-.535.236z"/>
        <path d="M895.739 178.772h2.62l.656.536v.714l-1.25.537-2.206.119-1.55-.238-1.073-.954-.237-1.906 1.428-1.609h1.372l.12.537.12 2.264zm17.515-.118-.416.356v.716l.534.357 2.623.12 2.86-2.263.06-.895-1.726-1.49h-1.49l-.24.417.36.775.475.715-.476.953-2.564.239z" fill="#fff"/>
        <g fill="#48489c">
            <path fill="#5656a6" d="m819.408 249.526 1.538 2.72-.117 4.85-.593.592-2.246-1.893-1.185-1.655-1.183-2.011v-1.774l1.183-.947 1.537-.354 1.066.472zm4.733 7.804 3.43-7.097v-1.892l-1.302-1.895h-1.775l-1.891 1.775v6.27l1.538 2.839zm5.913 0 1.894-.827 4.614-4.377.709-1.301-.357-1.065-1.3-.946-.826-.237-1.894.828-1.064 1.065-2.13 3.784.354 3.076zm8.165 3.076-1.657 1.184-1.894-.118-3.428-2.367.117-.474 2.13-.355 1.892-.828 1.892.118 1.067.946.353 1.066-.472.828z"/>
            <path d="M970 256.975h2.722l1.537.828h3.075v1.184l-1.774 1.3-3.431.947-1.539.709-1.182-.119-.828-1.064v-1.656l.71-1.42.71-.709zm18.808-3.665s1.894-1.067 2.246-1.892c.357-.828 1.184-2.604 1.184-2.604l.711-3.076-.945-2.602-1.775-.472-1.537.117-.828.827-.236 2.249.827 1.892.71 1.065-.118 2.01-.239 2.486zm-7.098.945 1.894-.946 1.18-2.247.122-2.485-.947-1.894-1.302-1.417h-1.775l-.474 3.31 1.3 1.303v4.376h.002zm-2.247 2.13.71-.828.357-1.775-.71-2.601-1.067-1.184-1.3-1.183-1.42-.945h-2.013l-1.3 1.064.353 2.13 2.369 1.774 1.892.355 2.129 3.193zm8.643-5.628v2.134l-2.132.306-.153-2.896 2.285.456z"/>
            <path fill="#4f4d9f" d="m971.699 428.416-1.818 2.48v4.132l.826 1.985-.826 7.767 4.133-5.784 1.485-2.977-.164-3.965-1.158-1.82-1.322-1.157-1.156-.661zm13.719-8.592-1.322.329-1.488 3.139-.33 4.132.826 2.148v2.977l.332 1.817 1.485-2.146 2.15-3.638.328-2.645v-3.635l-.991-1.654-.99-.824zm-36.034 21.484 2.15-1.487 1.653-1.158 2.15-2.808-.332-2.148-1.324-.991-1.652-.662-1.487.166-1.654 2.313.167 4.63.329 2.145z"/>
            <path fill="#4748a5" d="m848.724 426.766 1.652.659v4.464l-2.809 3.14-3.139 2.315.163-2.976-.825-.988v-3.144l.662-.825v-1.486l2.81-1.49 1.486.331zm-21.49 2.643 2.314-.166 2.479 1.486.991 2.812-1.487 1.323-.825 1.321-.496 2.15.33 3.472.166 3.14-2.81-3.473-2.313-3.635-.167-3.635.826-3.14.992-1.655zm-7.934-4.131-.661 2.312-.826.496-.991 1.324v4.957l-1.654-.988-1.818-2.316-.99-2.48.33-6.28.826-2.645 1.984-.662 1.983.662 1.651 3.802.166 1.818zm.168-16.032-.992 2.477-2.645 1.982c-.405-2.64.955-4.026 3.637-4.459z"/>
        </g>
    </g>
    <g stroke="#000" stroke-width=".456">
        <path fill="#dfda4d" d="m825.559 261.236 3.193 2.957 2.368 1.537 1.892.71 2.367 1.301h4.969l4.494-.474 2.247-.828 4.377-.119 3.55-1.656 2.601-1.773 2.602-.118 1.423-1.42h1.891l3.784-2.84 5.325-2.364 5.56-2.011 6.035-1.183 2.482.117.946.71 1.184 2.01.472.948-.59 2.01-2.247 1.303-.474-1.421 1.419-1.183-.354-.71-2.25-.355h-1.538l-1.417 1.42-.237 3.194 1.892 1.655 2.011 1.302 1.775.119 2.13-1.3 2.84-2.485 1.654-2.839-.474-4.14-.946-2.604-2.839-2.129-3.548-1.42-6.151.12-3.668.945-1.42.474-3.903 2.602-1.775.118-3.903 2.602-1.54.59-1.775.71-2.72 1.184-5.207 2.364-3.547 2.13-1.775.238-4.139 2.601-5.916.474-1.064-.593-2.722-.354-1.774-.711-1.774-.946-2.483-2.957-.711-.474h-2.248l-.71.948.356 2.014z"/>
        <path fill="#d9d24d" d="m894.408 251.299.71 5.915-1.3 3.666 2.721.119h3.192l2.84-.593 2.721-.237 2.485.12 2.011.236 2.483-.946.119-1.892-.592-1.656 1.182-3.669-.474-.828-18.098-.235z"/>
        <path fill="#d9d34a" d="m922.444 257.804-.71.474-1.064-.474-.592-1.655 1.183-1.065 2.601.118 2.367 2.13v3.075l-3.195 1.54-3.31.827-3.669-1.065-2.247-3.076-.592-2.129.474-3.668.592-2.366 3.194-2.367 3.43-1.064 4.02-.593 4.617 1.183 9.343 3.55 6.27 2.839 6.98 3.668 4.14 1.893 5.443 2.601 3.313 1.184 3.785-.474 1.656.118 3.312-1.064 2.247-.238L981 255.91l2.012-1.183-.236 2.602-3.313 3.668-2.838 3.194-1.182.12-1.538 1.299-2.957-.119-6.862.356-3.312-1.064-5.205-1.066-6.151-2.72-4.852-2.485-2.366-.353-3.669-1.894-2.246-.236-1.301-.947-4.024-1.182-3.313-1.184-3.192-.355-2.485-.354-1.182.709-1.183 1.656-.59 2.247.827 2.722 1.42.238 1.302-.59.472-.948-.592-.236z"/>
        <path fill="#ddd457" d="m852.564 388.192-1.51 1.507-2.374-1.507 1.077-2.804 3.883-.648 2.158 3.235-.864 3.234-3.02 3.018-3.668 1.08-3.666.43-4.312-.214-5.825-1.297-4.528-5.39-3.451-6.902-2.586-5.822-3.02-11.862-1.511-4.961-.647-4.529-3.234-6.254 1.292-1.078 11.216-9.92h.648l2.373-2.158 4.096-7.764.432-.43 1.293-4.744-.216-8.195-1.077-3.882-2.587-4.314s-.863-1.51 0-1.294c.861.216-2.373-3.667-2.373-3.667l-3.884-4.1v-.86l-2.802-2.804-1.941-1.078h-1.51l-.648-.864-2.804-.862-1.293 1.294-.863 2.804v1.08l1.94.86.646-.43-.646-1.08.216-1.294 1.512-1.077 1.724 1.291-.216 3.235-1.294 1.511-3.234.217-2.588-1.295-1.078-2.157-.861-3.233.861-1.942 1.295-1.077 2.157.43 3.45-.863 1.077-.431 2.805.43 1.941 1.942 2.155 1.294 5.393 6.04 1.509 1.508 2.804 4.099 3.451 7.764.862 5.39-.43 5.393-2.804 7.764-3.235 4.96-4.528 5.607-7.764 6.472-1.078.215-1.725 2.157 3.02 6.47 4.744 19.842 3.882 8.194 5.607 5.823 4.313 2.373 5.609.648 4.96-1.296 2.157-1.938-.864-1.294z"/>
        <path fill="#dbd45d" d="m861.622 392.72-.647 1.076.863 1.727 2.158.431 1.508-1.942v-2.158l-1.295-2.37-1.724-.435-1.94.217-2.805 1.942-1.51 1.726-.864 4.096 2.158 6.688 3.451 4.528 8.626 5.607 9.275 3.45 5.82.862 4.316 4.315 2.156 5.174-1.94 3.238-2.588.215v-1.294l1.077-.217 1.295-1.294-.647-1.293-2.587-1.511-2.156 1.726-.218 3.883 1.94 1.941 2.804.645 2.158-.863 2.155-2.374.218-2.803-.863-4.098-3.668-5.173-3.88-1.942-9.705-3.452-6.255-2.37-4.53-3.239-4.096-4.311-2.373-6.252 1.078-4.098 2.373-1.727 1.294.43-.432 1.299z"/>
        <path fill="#e5dc5e" d="m939.906 392.934 1.726 1.079.217 1.724-1.942.863-2.587-.43v-2.587l1.508-3.235 4.316-.217 1.94 2.373 1.295 4.528-1.295 4.746-4.96 4.097-6.902 4.746-7.548 3.234-11.214 5.39-3.235 2.37-2.805 5.177 1.727 3.022 2.157.43v-1.078l-.648-.863.43-2.374 1.295-1.292 2.586 1.51.65 3.235-2.374 2.373-2.589.431-4.096-1.942-1.295-2.155-.215-3.023 1.726-2.803 3.45-3.449 5.392-3.022 7.764-3.234 11.43-5.606 7.978-8.628v-3.448l-1.726-2.157-2.156.215z"/>
        <path fill="#d7d643" d="M949.826 386.681v1.938h1.51l1.51-.215.647-2.586-1.293-1.724-1.726-.219-2.158.431-2.37 1.726-.217 3.452 1.077 2.37 2.157 3.234 3.882 1.942 3.881 1.079 5.825-.431 6.685-3.234 6.254-4.529 2.588-6.256 3.234-11.43 4.096-14.448 2.589-5.39 2.156-1.943-.647-.861h-1.94l-4.96-3.666-5.175-3.236-6.687-7.978-3.45-6.687-1.078-9.488 1.941-9.275 4.097-6.901 6.685-5.608 6.04-4.313 6.038-.213.86 2.371-.86 1.942-1.295-1.08-1.94-.215-.862 3.235 2.154 1.078 3.882-.431 1.08-2.587-.43-3.666-2.805-2.589-4.962.431-3.666.43-4.53 2.59-4.742 4.959-3.234 4.745-4.1 6.685-1.293 6.038.216 10.569 5.393 11.428 4.743 6.04 9.273 6.253 1.51 1.079-2.803 6.254-4.098 13.156-2.587 10.567-2.156 4.529-6.901 6.038-7.766 3.018-6.684-.213-3.235-2.374-.864-2.156-.216-3.234 1.727-.431z"/>
        <g fill="#5db7d2">
            <path fill="#44b3cc" d="m890.873 284.615-.33 3.305.991 7.273 3.636 20h1.82l.164-3.14-6.281-27.438z"/>
            <path fill="#50aece" d="m900.127 313.706-6.61-28.926 4.956 29.422 1.654-.496z"/>
            <path fill="#50afce" d="m901.285 313.375 2.314-.826-8.596-27.769 6.282 28.595z"/>
            <path fill="#50abce" d="m897.484 283.127 10.082 28.926-1.983.66-8.099-29.586z"/>
            <path fill="#50b0ce" d="m909.054 311.39-9.752-29.255 12.397 28.926-2.645.329z"/>
            <path fill="#50b3ce" d="m912.69 309.904-11.57-27.935 14.38 28.266-2.81-.331z"/>
            <path fill="#64b4d1" d="m822.091 258.767-1.56.239-1.918 1.56-.84 2.039.122 3.717 1.318 2.278 2.28 2.4 1.078 1.799-.6 3.236-3.236 2.039-3.478 2.519-1.32 2.038-.48 2.278.121 2.399.479.599 2.639-.122 1.559-.477 2.397-.24 2.278.36 3.477 2.399 4.918 4.437 2.156 2.519-1.557-3.719-.839-4.437-.6-4.437.721-2.637 1.199-1.68 1.319.72 1.079-.6 1.44.72 1.2-.72 1.917.6 2.397-1.2 3.598-2.757h2.518l.721.599 1.438-.599.84 1.2 2.999-2.28 2.397-1.199 2.398.96 3.119.72 1.2-1.08 2.517-.12 3.477-.48 1.68 1.2 1.676 4.076 1.2 1.32 1.8.358.959.48 1.677 4.198 1.2 3.358.6 4.076-.24 1.079 1.078-.119 1.68 1.676 1.439.722 1.199 1.318.357 2.158.961-.119.84-1.079 1.68.36 1.438 1.558 1.438.121-2.52-16.669-2.398-1.319-.12-3.836 5.636-2.04.12-1.438-.838-2.4-1.08-2.157-2.158.238 1.678-5.395 4.197 4.317-1.919.24 1.677 6.595 7.197-1.199 1.32 1.8-.48 1.558.6 1.078.358 1.92 2.16 2.757 5.636 12.23 5.396 11.033 2.398-2.518 2.52-.598 2.758-1.92 1.678-.6 1.198-1.558 3.12-.121 4.674 4.197.722-1.078 4.435-.242 1.439 2.878.24 1.2 1.8-.72 4.916 1.078 2.998 2.4 2.276.957.601 1.201 1.319-1.56.96.122 1.56.36 4.915-.36 2.52-5.038s2.277-4.675 3.359-5.875c1.078-1.199 5.515-5.995 5.515-5.995l5.395-3.6 4.077-2.277 3.837-.48 3.6-.12-.12-3.237-1.44-3.118-3.598-4.675-.72-3.718v-2.28l3.118-2.039 3.718-2.997.121-3.119-1.079-3.838-2.16-3.236-.72-.6-1.2-.239-1.677 1.078-3.358 4.676-3.717 3.719-4.557 2.759-5.276.599-8.393-1.32-5.875-1.8-7.317-2.757-7.675-3.597-4.196-.842-6.357-3.116-2.397-.121-.121 1.08 1.917 1.917-.477 3.36-1.68 1.797-3.117.121s.36.241-1.439.72c-1.8.48-3.357 0-3.357 0l-2.998-1.799-2.879-.48h-5.755l-6.355.601-7.196.6-3.597 3.118-3.119.48-3.357-.84-3.477-4.076.12-2.278 2.518-3.119-1.319-.12-7.915 2.879-4.918 2.756-2.636 1.68-1.919-.12-2.52 2.278-3.117.24-1.8 1.918-.6-.24-5.034 1.32-4.558.838s-5.756.84-6.355.84c-.601 0-6.115-.72-6.115-.72l-4.08-2.038-1.917-2.158-1.8-1.2-2.397-2.516.12-1.92-.718-.478z"/>
            <path d="m893.774 318.595-.17 3.743 2.722-.678-.34-3.574-2.212.509zm3.574-1.02v3.062h1.192v-3.232l-1.192.17zm2.723-.68v3.403l1.7-.511-.17-3.062-1.53.17zm3.572-.682.172 2.552h1.528l.172-3.062-1.872.51zm3.403-.68v2.724h2.38l-.339-3.065-2.041.341zm3.742-.85v2.552l2.042-.51-.51-2.724-1.532.682z"/>
        </g>
        <g fill="#ccc">
            <path fill="#fffcfc" d="M973.633 345.67v2.69l.628.36.18.894 2.775.45-.27-.897-1.793-1.703-.447-1.255-1.073-.539z"/>
            <path d="m916.933 309.892-.46-.916L918 307.3l2.893-.607 2.286-1.83 2.896-1.829 3.048-.762 3.963 3.352-1.371 1.07-1.374-.154-2.59 1.676-1.98 1.22-1.676-.305-1.526-.457-.913.762h-1.374l-1.068.61-2.281-.154zm18.594-4.269 1.523-.607h2.286l1.22 3.351v1.068l1.98-.61h3.659l2.59 1.22 2.286 2.286 2.438 1.373h1.98v-1.068h1.981l.459.61 2.132.304 1.525-.456.457 1.372-.304 1.827-.459 1.374.61 5.79 2.744 9.906 5.182 8.384-1.98-.916-4.421-.61-1.373.61-1.827-.152-2.134 1.98-1.068.152-.913.763-1.677-2.286-6.4-8.534-1.677-1.829-3.657-7.924-5.03-10.822-.306-4.421-1.218-1.22-.61-.152v-.763h.002zm-1.83 58.984 2.592 1.22-.152-1.22 1.828 1.22s1.676.305 2.59.152c.913-.153 2.896-2.133 2.896-2.133l.61-4.115 3.963-6.859 2.893-1.676.918-.153 2.74-3.049 5.182-2.742 2.439-.915 3.963.762 2.896 1.372.61 2.439.458 6.553 1.828 1.374 1.525-.764 1.371-1.676 3.352-1.221 2.44.303-.154 3.05-1.066 5.64-1.676 5.943L975 377.56l-2.59 6.708-6.402 4.878-5.029 3.198h-8.078l-2.438-2.285 3.048-.764 1.067-1.826.305-3.201-2.742-1.981-2.743.152-3.658 2.135-1.374 1.825-.762 2.136h-1.37l-3.05-.154-2.287 1.526-1.675 2.13-.458 3.202.764 2.288 1.675 1.066 3.048-.153.764-.607h.61l-2.745 3.044-3.504 3.66-4.573 3.048-3.048.913-5.03 1.83-3.657 1.677-4.116.152-4.267 3.809-2.896 2.288-1.981 2.742-.915 4.726v3.503l2.284 3.048-.304.916-1.371-.156-.763-.607h-3.352l-.916-1.373-1.676.306-2.437.761-1.068 1.07-1.829-.917 1.068-2.742.152-2.59-.762-3.508-2.286-4.573-1.98-2.131-3.507-2.135-6.706-1.982-7.314-2.739-5.334-2.594-1.981-3.048-.763-3.809 1.22 1.22-1.068-4.268 1.524 1.979 1.07.152 3.047 3.813 2.439.458.61.303h.76l.153-.303 2.286 1.22 2.592.76h3.656l-3.2-.76-3.963-1.83-4.115-2.288-2.286-3.044-.306-1.373-1.219-.152.154-.917.914-1.067 1.22.154.305.913 1.22-.459 1.98 1.527 3.354.302 2.437.306-2.131-1.219-3.354-1.829-3.353-3.049-1.068-.152-3.354-5.18-1.828-5.03-1.524-5.333v-6.25l1.98-5.027 2.896-4.574 1.676-1.525 1.372.457 3.505-2.59 2.438-.761 3.202.15 2.438.763 3.506 1.068 1.675 2.132 1.676.154.456 1.22-.913.304 1.22 1.676-.458 1.067 1.068 1.372-.152 1.98-1.98 2.287 1.37 2.285-.154.764 1.677 1.829 1.525 2.284 2.59.458 6.097.154 4.418-.459 2.592-.153-1.068-1.22 1.829-.458 2.286-.458 4.115-3.197s3.201-5.489 3.811-6.251c.61-.76 1.828-3.353 1.828-3.353l5.181-5.334 1.98-.762 4.573-2.285h4.726l1.222 1.373 1.98.305 1.828 2.285.914 6.25-2.896 1.98h-2.436l-1.676-1.067-.459.914-1.981-.456zm-73.956 22.461s.359-.716.719-.716c.359 0 1.165-.088 1.165-.088l.089-4.662s-.627-.356-.718-.716c-.089-.357-.089-2.06-.089-2.06l-.626-.628-.09-18.819-1.793-4.838-1.523-2.598-1.254-.987-1.972-.177-2.24 1.434-1.345.716-2.868-.625-1.074-.719-1.705-.087-1.523-2.778-3.135-.987-1.433-.447-4.301-.36-1.254-.09-1.615 1.077-1.882 2.24-1.343 2.597-.178 4.214.985 1.344v1.97l.449.806v1.703l-1.434-1.703-1.434-3.494-.717-2.15-.627.896.178 2.868.09 2.328.807 2.153.806 3.044 1.344 3.853 1.075 4.125.987 3.94 1.881 3.585 1.613 2.24 3.675 3.674 2.329 1.612 3.584 1.257 4.032-.088 1.253-.9-1.613-1.521s-.267-.984-.267-1.344.536-2.152.536-2.152l1.703-1.793 4.928-.895 1.703 1.255 2.24 2.51 1.882.981zm53.941-73.237v2.552l1.53-.34-.338-2.212h-1.192zm2.552-.68v2.041h1.022v-2.211l-1.022.17zm2.214-.171.17 1.87 1.7-.338-.17-2.212-1.7.68zm3.4-1.36v2.554h1.022l.34-2.554h-1.362zm2.895-.51v2.213l1.36.17-.34-2.382h-1.02zm2.723-.681v2.551l1.36.17v-2.211l-1.36-.51zm2.721-.852-.511 2.892h1.532l-.171-2.212-.85-.68zm2.041 0v2.383l2.213-1.022-.342-2.554-1.871 1.193z"/>
        </g>
        <path fill="#76401b" d="m890.046 266.598-1.488 4.463 5.125-.827-3.637-3.636z" stroke="none"/>
        <g fill="#784421">
            <path d="m932.194 351.556-4.792 1.325-3.306 2.645-4.298 4.461-3.472 6.282-3.966 4.794-7.274 2.974-6.612.167-5.124-1.486-1.818-2.813-.496-3.635-.66-4.464-1.489-2.809-2.313-2.811-2.645-1.818 2.811-11.902.826-2.645v-3.471l.496-4.626 2.479-4.133 2.479-2.314 4.297-1.983 7.602-1.983 7.605-2.479 7.934-1.818 8.926-2.15 3.801-.33-.33 4.96.993 1.818-.167 12.892-.826 11.406-.661 5.946zm1.82-.165 4.627.992 3.636 2.15 1.487 2.148 1.984-1.653.825-2.811 3.472-1.982 5.29-4.628-4.465-6.778-2.314-3.306-3.14-3.634-3.802-6.942-4.298-9.423h-2.314l-.33 18.677.166 6.776-.824 10.414z"/>
            <path fill="#a05a2c" d="m886.904 279.325.167 3.472 14.215-4.463v-1.323l-14.382 2.314z"/>
        </g>
        <path d="m846.526 359.353.64 3.21 2.14 3.852 4.064 3.528-3.423-2.46 2.567 3.424-4.384-2.78 4.277 2.78-4.493-6.42-1.388-5.134zm-5.241 14.224-1.604 1.711-2.782-.427.107 3.53 3.85 5.67-3.85-5.347.108-3.635 2.675.21 1.496-1.712zm-4.599 9.842-.856-2.461v-2.78l.856 5.241z" fill="none"/>
        <g fill="#666">
            <path d="m887.275 369.728-1.283 1.282-2.138.536s-2.139-.214-2.567-.536c-.427-.32-2.782-1.71-2.782-1.71l2.782 1.496h4.919l1.069-1.068zm3.423 5.028.534 3.102 2.138 3.74 1.39 1.82-4.062-8.662z"/>
            <path fill="gray" d="m898.078 383.525-2.034-.638-1.818-1.715-2.567-4.596 2.674 3.422 3.745 3.527z"/>
            <path stroke-width=".137" d="m880.217 371.011.322 9.091.855 3.53 1.28 2.567 1.714 2.675.427-1.069 1.818 1.283.537-.537-1.82-1.816-1.819-2.462-1.071-2.566-1.175-4.385-.427-4.705h1.495l-.427-.856-1.709-.75z"/>
            <path fill="gray" stroke-width=".137" d="m920.644 385.344 3.422-.32 3.21-2.675.534-1.82 1.497-1.071-.214 3.103.748 1.606 2.031.642 1.283 1.175 2.248.214 3.207-2.03 2.354-2.461 2.032-1.82 1.497-.641.535-2.994h.962l.214-1.392-.427-2.672-.963-2.568-1.282-1.71-2.14-1.926-.961.429 2.352 2.245 1.925 2.46.106 3.85-.534 1.497-2.888 3.317-3.743 4.063-1.818.856-3.85-.533-1.391-1.82-.32-1.282-.43-1.283v-1.497l.536-1.07-3.956 4.49-1.605.106-4.171 3.532z"/>
            <path fill="gray" stroke-width=".228" d="m972.088 357.323.856-.749.962 1.392.216 3.849.106.108v2.566l-1.496 2.782-3.21 3.422-3.742 1.602-3.424.428-2.353-.532-.856-1.392-.534-1.39v-3.207l.642-1.284.214.64-.107 3.531 1.175 1.39 2.46.747 2.245-.746 2.675-.75 2.245-1.283.108-.749-.856-.107.214-.32h1.283l1.604-3.21.534-2.675v-2.138l-.64-.641-.322-.534v-.75z"/>
            <path d="m887.381 406.842-5.348 2.567-4.92 1.496-2.674-.427 5.24 1.925 2.033-1.603 3.208-1.606 2.461-2.352z"/>
            <path fill="#999" stroke-width=".183" d="m891.553 417.643 2.887.856 1.39.536 2.995.427-2.246 1.389 2.886.64s-2.778.323-3.207.323-1.926.961-1.926.961-.32 1.715.642 1.606c.965-.108 2.352-.323 2.887-.323s2.247.323 2.247.323l1.07.856-.642.964-4.493.106.644.536h3.636l-3.528 2.352 4.275-.109 3.423 1.392v.856l-3.315.75-.749-1.287-4.278 1.178-.855 1.07-1.605-1.07 1.283-2.78-.107-2.888-.642-2.248-1.496-3.313-1.176-3.103z"/>
        </g>
        <g fill="#e2d67e">
            <path fill="#e4cb5e" stroke-width=".228" d="m868.889 274.852-3.445.416-2.436.298-1.605.952-1.306-.774-.773.475-2.911-1.545-3.388 1.844-1.604 1.424h-1.008l-.774-1.01-1.545 1.072-.891-.892-.95-.534-6.417 4.634-2.317-.773-1.01.892-.418.356-.236 1.01-.952-2.498-.83.594-1.426-.475-1.01 1.427-.238 3.743.594 4.693 1.546 5.17 1.425 2.138 1.188.237.357-1.485.654 2.792.95.95.298 5.05 3.862 8.675.356 4.456.178 7.723-1.426 1.725-1.84 2.793.058.829-1.9 3.625.117 5.526.418.475.12 5.288 1.484.118 1.188 1.307 2.615-.236v-1.605l.356 1.841 2.079 2.735 1.783 1.424 1.246.06.654-.95-.06-5.941.416 6.535 1.307-.06 1.665-1.484 2.199-.298.713.06s.594.356.891.89c.297.534 1.367 1.012 1.367 1.012l.773 1.604.95.357.475-1.012-.652-12.655-.654-10.337-.713-13.129-.714-16.757-.119-5.346-.832-.713.06-1.723 2.021-.594 1.187-.356-.535-1.603-.593-5.348v-2.02l.714-.593 1.426-.059 1.01 1.188 1.96 8.138 1.011.357 3.564-.06 8.081 12.775 2.851 4.278 3.922 7.307 5.11 7.308 1.605 2.138 1.07.121.356-7.784 2.26-1.96-1.903-13.428-1.544-.296-2.139-1.96-1.188.177-1.188 1.96-1.484-1.663-.18-1.902-1.367-.889h-1.008l-1.309-1.782-.712-.18-.831.773-.179-6.059-1.307-2.851-.237-1.723-2.436-3.447-2.554-.594s-1.128-2.556-1.128-2.912-.478-1.604-.478-1.604l-1.79-1.846z"/>
            <path fill="#dcc56a" d="m871.027 356.128-1.722-2.197-.594-2.317-.238-4.991-.534-4.755-.951-7.366-1.545-9.09-1.246-7.367-.477-4.337-1.009-5.11-.416-3.506-.417-2.911-.356-4.158 1.188 3.743 1.962 8.733 2.196 6.06.891 4.1v2.317l1.546 3.325 1.01 4.22 2.079 8.911 2.198 7.31 1.128 5.286.178 2.02-2.317.774-1.128.533-1.426.773z"/>
            <path fill="#e2cc75" d="m882.613 354.348 1.25-6.001 1.485-4.575.653-3.09.475-2.494-.12-3.743-1.01-2.199-4.633-9.327-2.793-5.644-1.13-2.912-2.078-3.625-2.792-5.823-2.496-4.335-2.079-3.566-1.96-2.616-.593.537 1.78 6.654 1.485 5.702 1.427 6.298 2.376 8.258 1.367 5.705 1.366 3.505 1.307 4.931 3.624 11.765.714 3.089 1.783 3.566.592-.06z"/>
            <path fill="#ddd690" d="m863.999 357.562-1.873 1.87.17.682h2.212l.683-1.532-1.192-1.02zm-2.214-2.554.34 2.042 1.532-.17.85-1.53-.17-1.192-1.53.341-1.022.509zm3.743-.85.511 1.36h2.893v-1.02l-1.19-.51-2.214.17zm-.338-2.551.168 1.53h2.044l1.02-1.363-1.19-1.02-2.042.853zm-4.086.509-.34 1.022 1.022.51 2.214-.51v-.852l-2.896-.17zm0-2.552v1.192l2.213.17.681-1.021-.852-.68-2.042.339zm4.424-1.02-.337 1.02 2.04.511 1.02-.85-1.529-1.023-1.194.342zm-4.252-2.723-.34 1.531 1.36.17 1.192-.85.17-1.19-1.362-.172-1.02.511zm3.743-.681v1.53l2.213.509v-2.212l-1.021-.338-1.192.511zm-2.043-2.553h-2.041l-.173 2.38 2.383-1.02-.169-1.36zm1.701-.681-.85 1.702h2.382l1.022-2.21-1.362-.342-1.192.85zm-.51-2.892.173 1.362 2.213-.34-.854-1.701-1.532.679zm-2.212.512-1.53-.34.172 1.872 2.211-.34-.853-1.192zm-1.53-3.064-.17 1.703h2.722l-.51-1.703h-2.042zm3.233-.851v2.042h2.552l-.512-2.042h-2.04zm-1.362-1.531-1.7 2.04-.682-1.7 1.19-2.043 1.192 1.703zm1.531-1.532-.34 1.703h2.21v-1.703l-.848-.51-1.022.51zm-2.723-2.04h-1.19l-.17 1.362h2.04l-.68-1.362z"/>
            <path d="m863.488 329.996-.34 1.531h1.702v-1.531h-1.362zm-.512-3.063-.34 1.53h2.381l.173-1.36-2.214-.17zm-2.721.681-.34 2.212 2.04-.849v-1.191l-1.7-.172zm-.171-3.062-.68 1.36 1.02.512.853-1.192-.341-1.02-.852.34zm2.81-1.147-.538 1.128.882 1.52 1.227-.295.051-1.717-1.376-.688-.246.052zM860 321.684l-.444 1.228.884.784s.735-.292.735-.54c0-.244.246-1.03.246-1.03l-.98-.59-.441.148zm2.356-.637-.295 1.375.687.442 1.227.098s.049-.933.049-1.277c0-.342-.884-.735-.884-.735l-.784.097zm-2.602-1.866-.1 1.374 1.032.246s.54-.538.54-.734c0-.196-.492-1.08-.492-1.08l-.98.194zm2.307-.393-.197 1.13s.394.538.885.538c.49 0 .686-.49.686-.685 0-.198-.197-1.032-.197-1.032l-1.177.049zm-2.406-1.521-.342 1.13.98.44.737-.98-.786-.538-.589-.052zm2.307-.687-.146 1.03s.685.49.932.343c.246-.147.539-.784.539-.784l-.885-.589h-.44zm-2.994-2.209-.245 1.276s.735.687.931.59c.198-.1 1.228-.394 1.228-.394l-.54-1.275s-.637-.148-.833-.148c-.197 0-.59 0-.541-.049zm2.553-.638-.293 1.226 1.667.296s.246-1.376-.096-1.376c-.347.001-1.18-.097-1.278-.146zm-2.405-1.668-.294.737.833.637.687-.391-.442-.934-.784-.049zm2.502-.491-.636.983 1.03.439.882-.685-1.276-.737zm-2.453-2.159-.442.737.491.783.786-.638-.835-.882zm1.767-.491-.392.54.589.784.98-.54.099-.44-.442-.54-.834.196zm-2.013-1.522-.442 1.03.98.54.543-.686-.345-.786-.736-.098zm1.865-.982-.54.689.737.735.931-.54-.636-.786-.492-.098zm-1.865-.737h-.392v.834l1.128-.098-.197-.834-.539.098zm1.522-.981-.05.932 1.03-.147-.049-.833-.931.048zm-1.767-.735-.342.49.587.786.59-.542s.196-.734 0-.734h-.835zm.098-1.62-.44.392.538.54.687-.343-.785-.589zm.147-1.226-.54.784h.934l-.394-.784zm1.227.44.098.786h.786l-.884-.786zm.049 1.277s-.194 1.03 0 1.03c.197 0 .737-.148.737-.148l-.737-.882z"/>
            <path fill="#d3c55f" d="m886.307 326.544-1.078 1.472.098 1.523 1.424 1.325 1.325-1.866-1.769-2.454z"/>
            <path fill="#d3c75f" d="m888.222 324.432-1.325 1.916 1.276 2.013 1.325-.833s.196-1.672-.05-1.967c-.246-.293-1.275-1.178-1.226-1.129z"/>
            <path d="M885.767 321.733s-.588.883-.588 1.081c0 .196.344 1.618.344 1.618l.834 1.081s.93-.295 1.029-.59c.098-.292.443-1.424.443-1.424l-1.128-1.473-.934-.293z"/>
            <path fill="#d3c95f" d="m883.706 323.844-.246.49s-.145 1.18.148 1.375c.294.197 1.177 1.13 1.177 1.13s.783-.49.783-.737-.588-1.768-.588-1.768l-.685-.686-.589.196z"/>
            <path d="m881.693 320.458-.391.931.49 1.277.933.932s1.03-.194 1.03-.393v-1.374l-.64-1.079-1.079-.49-.343.196zm2.209-.884-.245.736s.099 1.032.294 1.128l.982.492.685-1.13-.685-1.423-1.031.197zm-1.078-2.354-.492 1.079.295.783.688.345s.783-.393.783-.59v-1.029l-.882-.541-.392-.047zm-2.259.784-.637.834.246 1.032 1.079.343.735-.884-.59-1.177-.833-.148zm-.837-2.21-.538.49v.64l.834.639.784-.394-.196-.884-.39-.59-.494.099zm2.162-.637-.344.785.49 1.03.788-.441-.15-.884-.784-.49zm-1.473-2.109-.194 1.766 1.225-.196.295-.932-.44-.688-.886.05zm-1.277.391c-.196.048-.882.098-.882.098l.197 1.766.783-.096.296-.639-.099-.785-.295-.344zm-1.471-1.767-.588.737.588.98.54-.098.342-.735-.882-.884zm1.912-.493-.49.541.394.59.49.049.49-.59-.44-.538-.444-.052zm-3.139-1.273-.344.931.933.246.244-.589-.293-.541-.54-.047zm1.62-.491-.097 1.079 1.03-.099-.099-.882-.834-.098zm-2.798-1.227.05.931h1.029s.344-1.079-.099-1.03c-.441.05-.882.146-.98.099zm1.964-.443v.932l1.079-.147-.245-.833-.834.048zm-1.425-.981h-1.079l.148.932.98-.098-.049-.834zm.688-.639-.148.884 1.13-.049v-.835h-.982zm-1.079-1.423-.05 1.03s1.227.196 1.227 0-.246-.882-.246-.882l-.931-.148zm-.688.098h-.982l.1 1.128h1.177l.147-.784-.442-.344zm-2.306-3.337-.492.49 1.523 2.406h.931l-.882-1.227s.146-.588-.098-.685c-.244-.098-.44-.098-.44-.098l-.542-.886zm.194-.933-.342.442 1.817 1.226v1.03l.834.786.685.194-.244-.833-.343-.931-.689-.541-.488-.882s-.246-.05-.443-.099c-.194-.049-.391-.344-.391-.344l-.396-.048z"/>
        </g>
        <g fill="none">
            <path fill="#000" d="m851.578 283.375-.173 7.996.511 2.552v4.426l.17 6.806v4.594l-3.914-4.767 4.084 5.106.68 4.933 1.023 1.874-.68 2.552.17 4.253v12.08l-3.915-9.528.341 19.738.341-11.399 1.362-2.044 2.212 5.618.34 2.552-.512-9.53"/>
            <path d="m835.582 282.694-.68 5.106 1.362 3.571.171 4.936-.171-5.445-1.362-2.722.68-5.446zm4.935 3.063v6.466l1.19 1.53-.338 6.807 1.02 2.041v11.23m5.103-35.73-1.36 2.551.51 4.595.34 3.233-.51 5.102m31.99-3.062-.173 7.828.851 4.252.682 4.594m5.954-5.273 1.531 17.016m-45.26 8.338.34 9.869.681 4.255.17 4.592"/>
        </g>
        <path d="M893.264 345.481v-1.703l7.487-1.703-1.192.852.17 5.105m13.953-6.806v-2.213l7.487-1.36-1.703.34.34 5.274m-22.288 14.464v-1.703l6.296-1.189-.171 6.295m8.848-5.784v-2.724l6.805-1.19.341 5.953m-29.265-24.33v4.254l-1.531.34v-2.042l1.531-2.552zm3.574-.682.17 4.255h-1.192l-.34-3.744 1.362-.511zm2.719-.849-1.19.68v3.402l1.704-.34-.514-3.742zm3.235-1.191-1.192 1.021v3.063l1.871-.17-.679-3.914zm3.743-.852-1.703.68v3.404l1.875-.34-.172-3.744zm3.574-1.021-1.531.172v4.254l1.873-.341-.342-4.085zm4.593-.85-1.7.68.17 2.891 1.7-.509-.17-3.062zm4.254-1.19-1.7.85v2.893h1.53l.17-3.743zm3.404-1.022-1.362.68v3.233h1.703l-.341-3.913zm3.742-.339-1.362.85v2.55h1.874l-.512-3.4zm4.085-1.363-1.532.682.171 2.55 1.531-.339-.17-2.893zm4.423-1.021-1.702.85v2.724l2.044-.17-.342-3.404z" fill="#d38d5f"/>
        <g stroke-width=".913">
            <path fill="#fffcfc" d="m891.564 368.79 26.371-5.954"/>
            <path fill="#c87137" d="m885.096 352.285 2.725.34 44.919-10.209"/>
            <path fill="#c87137" stroke-width=".867" d="m887.65 340.717 6.976-1.024 38.794-10.208"/>
            <path fill="none" stroke-width="1.187" d="m935.122 327.955 6.635-1.192"/>
            <path fill="#fffcfc" stroke-width="1.324" d="m935.122 341.906 14.633-3.912"/>
        </g>
    </g>
    <path fill="none" stroke="#000" stroke-width="8.216" d="M767.32 145.154v253.639c3.002 36.316 78.686 59.178 131.454 97.748 69.212-46.422 136.34-55.812 139.039-107.858l.842-243.529h-271.33z"/>
</svg>
