<svg xmlns="http://www.w3.org/2000/svg" viewBox="0 0 900 600">
    <path fill="#ffd520" d="M0 0h900v600H0z"/>
    <path d="M0 600h900V0z" fill="#ff4e12"/>
    <g stroke="#000" stroke-width=".521">
        <g fill="#fff">
            <path d="M481.74 187.59c-4.987-1.77-8.208.805-8.046 7.244.159 6.44 3.542 10.142 8.53 7.727l-.484-14.97z"/>
            <path d="M486.12 175.53c-4.154-3.28-8.03-1.874-9.946 4.276-1.916 6.149.096 10.742 5.596 10.058l4.35-14.333z"/>
            <path d="M493.04 163.86c-3.58-3.905-7.63-3.138-10.508 2.625-2.875 5.763-1.625 10.618 3.917 10.825l6.591-13.45zm-4.54 56.73c-6.117 2.254-6.763 10.625-2.896 15.776 3.863 5.151 10.946 6.117 14.808 0l-11.91-15.78z"/>
            <path d="M481.42 202.88c-5.796-1.932-11.017 5.853-11.913 12.878-1.125 8.854-13.683 11.751-6.758 25.113 1.445-8.532 7.083-13.2 11.588-13.522 4.508-.322 11.27-1.288 14.167-6.761l-7.084-17.708zm18.35 34.45c-6.763 1.61-7.73 10.625-2.9 17.064 4.133 5.513 17.063 4.185 16.742-1.288L499.77 237.33zm19.16 54.25c.32-5.795-9.012-8.049-13.521-6.922-4.508 1.127-13.121-.16-15.133-4.99-1.608 3.863.725 8.049 7.246 10.141 4.933 1.585 4.829 5.152 3.379 6.762 3.704.644 14.65.644 18.029-4.99z"/>
            <path d="M513.62 254.56c-6.6-2.897-10.513 1.516-13.038 5.795-3.704 6.278-15.133-1.77-18.996 6.6 5.233-2.253 10.558 2.553 13.038 4.186 7.083 4.668 20.767 3.22 22.7-7.727l-3.704-8.854z"/>
            <path d="M517.48 262.28c-6.6 4.99-9.175 10.946-9.012 14.971.162 4.025 5.795 12.878 11.913 13.361 3.541-7.244 5.312-22.537-2.9-28.332zm-27.36 31.07c0-2.415 3.542-3.38 5.954-2.576 2.417.805 6.117 3.22 4.83 5.796l-10.784-3.22zm-36.39-13.2c-.642-2.897 4.025-7.888 10.304-5.151 6.275 2.736 7.083 8.049 4.504 10.142l-14.808-4.99z"/>
            <path d="M469.02 285.46c-.483-1.61 4.037-4.825 11.754-2.898 7.725 1.932 9.62 6.907 9.338 10.786l-21.093-7.888zm-16.09-5.31c4.025-3.058 2.5-8.855-1.13-10.625-6.6-3.22-4.183-11.59-8.37-13.2-4.183-1.61-8.208-4.508-8.37-7.405-2.092 4.024-.805 7.727 2.095 10.303 2.896 2.576-2.254 13.039 1.446 15.776l14.329 5.151zm-86.29-2.25c-3.38-5.312-11.43-4.346-14.81-.644-3.38 3.703-2.897 9.176.322 11.59L366.64 277.9zm19.32-7.89c-1.288-7.083-9.82-7.888-14.488-6.117-4.668 1.77-7.888 8.854-4.83 14.005l19.319-7.888z"/>
            <path d="M398.84 269.04c3.058-5.956-2.897-14.81-9.659-16.098-5.644-1.074-12.315-1.046-14.488-6.6-1.368 4.83 2.254 7.888 6.44 10.625 4.185 2.737-.806 9.82 5.956 13.844l11.752-1.77z"/>
            <path d="M398.2 269.25c-1.409-4.267 1.449-9.943 7.232-9.545 5.785.398 9.08 4.6 6.53 9.855l-13.763-.31z"/>
            <path d="M411.07 269.57c-.796-4.422 2.83-9.64 8.5-8.435s8.343 5.83 5.084 10.675l-13.584-2.24z"/>
            <path d="M423.86 271.6c-.575-4.457 3.308-9.488 8.912-8.001 5.605 1.487 8.042 6.24 4.542 10.915L423.86 271.6zm-97.14 73.75c-10.786 0-13.42 2.568-14.971 13.683-1.932 13.844 16.903 15.454 14.971-13.683z"/>
            <path d="M331.55 330.86c-16.581-6.278-25.595 19.961-42.015 15.293 5.875 9.337 20.118.017 25.434.966 9.015 1.61 28.493-1.771 16.581-16.26zm-10.79 35.9c-8.21-3.702-17.064 8.854-15.454 14.327 2.044 6.952 20.766 1.288 15.454-14.327zm-38.31 54.09c4.508 1.283 9.98 3.862 9.015 12.554-.966 8.692-17.385 26.4-32.195 27.367-14.81.967-20.123 18.833-32.84 13.842 11.912-2.25 11.912-15.775 21.249-19.958-6.762-2.417-10.303 12.879-18.995 12.879-8.693 0-12.878 13.842-23.503 12.875-10.625-.963-11.743 16.854-33 17.067-16.26.158-36.381 19.154-43.625 10.946 15.776-2.254 22.142-10.996 31.552-20.608 15.132-15.45 32.196-8.53 37.99-22.213-6.922 4.667-14.97 6.92-22.858 6.763-9.902-.205-20.766 15.775-31.874 8.691 6.439-.804 10.625-3.541 17.386-10.625 6.923-7.254 17.083-2.566 25.113-9.979 12.556-11.592 23.342-1.933 35.415-16.421-3.381-1.608-10.625-.483-17.386 3.058-6.762 3.542-15.454-2.416-23.181 1.771.965-9.496 18.995-4.062 30.264-10.625 12.718-7.404 23.262-5.233 33.323-4.346-14.005-.079-19.478-13.363-38.795-9.5-8.425 1.688-15.132-11.588-23.503-4.829.24-4.987 9.015-9.013 18.03-4.183 9.014 4.829 12.648-4.226 30.586 7.083 7.405 4.667 20.122-2.9 28.17 2.092-1.046-3.058-5.634-4.992-11.026-4.588 3.38-6.92 25.193-6.037 34.69.888z"/>
            <path d="M296.78 410.38c-7.083-5.473-16.903 1.128-23.664-1.449 0 4.506 2.254 11.27 9.659 13.844 2.254-1.608 12.395-10.463 14.005-12.395z"/>
            <path d="M307.89 394.77c-11.108-5.634-13.039 8.37-21.732 5.473.322 4.025 3.542 9.015 10.625 10.142l11.108-15.615z"/>
            <path d="M314.49 382.05c-16.42-6.44-18.513 9.337-28.171 6.278 2.254 5.473 16.098 8.37 23.181 6.44l4.99-12.718zm22.53-69.06c-4.347-6.117-13.522-1.127-14.971 6.117-1.449 7.244 2.092 17.386 8.21 15.132l6.76-21.249z"/>
            <path d="M348.13 293.67c-7.566-1.77-16.259-.966-15.293 6.44-2.898 1.287-3.703 10.785 4.185 12.877l11.108-19.318z"/>
            <path d="M353.12 288.68c-7.405-8.693-15.663-8.49-20.283-4.83-8.532 6.762-16.823 2.898-17.064 9.66 5.152-3.945 9.659.804 13.844-.645 4.185-1.448 7.244 6.6 18.835 3.22l4.668-7.405zM335.25 418.6c1.127 2.092 8.049 3.058 11.43-.483 4.48-4.696-.483-17.71-7.566-18.675-7.083-.966-7.727 14.65-3.864 19.158z"/>
            <path d="M327.2 418.92c10.141 3.7 14.488-4.67 9.015-9.981-1.45 1.77-6.762 8.21-9.015 9.981z"/>
            <path d="M289.21 432.76c-1.932 5.796-11.913 6.763-23.181 24.792-11.269 18.029-22.054 10.463-24.791 22.858 13.522-10.946 24.142-3.675 32.195-14.488 12.235-16.421 22.309-14.063 27.045-25.113 6.76-15.775 36.381-15.454 37.991-40.244-9.98-1.932-41.533 24.79-49.259 32.194zm254.03-243.4c12.879 4.185 13.2 20.927 28.008 26.4 14.813 5.473 16.263 18.673 28.333 15.454-11.267-3.059-10.463-16.098-22.213-19.318-13.783-3.776-18.996-24.791-29.946-28.01m54.898 92.884c2.254 5.151 1.933 14.327-6.117 16.742 4.346 2.737 10.783.16 14.325-5.795-5.312 11.751-1.77 22.376 6.6 24.469-4.025-8.21 4.992-12.074 2.096-17.386 5.313 2.254 9.98 9.498 9.817 14.005 6.925-7.727-5.15-18.03-2.896-25.273l-23.825-6.761zm-83.39 82.74c-7.888-6.922-11.254 1.81-15.133-1.208-3.62-2.817-8.45-3.22-10.3-.402 6.762.242 3.458 5.473 16.579 6.761-13.121.886-10.704 15.535-19.479 14.81 9.338 8.854 14.167-7.888 21.733-5.15-2.254.643 3.542 5.955-.483 13.038 6.52-.16 9.175-9.176 9.983-13.844l-2.9-14.005zm-173.7 75.18c-2.898-2.413-11.269-3.542-14.488-1.608-3.22 1.929-2.092 2.412 1.77 2.737 3.865.321 8.853 6.571.484 6.921-3.864.158-2.576 9.496-10.625 10.142 3.3 4.025 12.718 1.367 16.098-3.058-.644 3.62 4.185 6.92 2.254 11.267 5.956.646 2.495-12.071 11.913-11.43-3.864.484-2.254 9.176 4.507 6.922-4.025 1.933-1.932 6.6 2.575 5.475-2.897.966-3.863 4.666.161 6.762 3.864-5.312-.483-24.308-14.649-34.129zm350.62-177.62c12.321 0 22.308-9.99 22.308-22.312 0-12.32-9.988-22.31-22.308-22.31-12.325 0-22.313 9.99-22.313 22.31 0 12.322 9.988 22.312 22.313 22.312z"/>
            <path d="M579.3 284.02c6.763-6.44 17.067-9.659 24.146-4.83 7.083 4.83 30.588 10.625 42.179 2.576 11.588-8.049 17.063-12.235 22.213-11.269 3.867 5.796 8.533 8.532 14.329 9.015 1.77 1.932 8.05 3.542 11.592 3.058 5.15 1.288 11.429-.321 16.417-5.795 7.73 1.127 14.971-4.668 17.708-13.36 8.208-.966 8.692-10.143 3.542-16.26-4.83-.965-1.125-17.225-18.675-14.005 7.408 4.508 1.77 13.522 7.891 17.708-4.187 0-9.579 1.771-10.867 8.05 1.609-4.347-.241-7.245-1.37-8.21.162-3.703-8.046-12.798-15.775-9.498 5.554 1.207 2.416 10.142 6.441 13.522-2.9.161-5.958 1.61-7.729 4.185-2.092-3.702-9.496-7.566-14.004-7.888 0-1.288-.242-3.863-.804-5.15-2.013-3.864-3.704-8.452-2.9-14.328-3.863 4.185-7.083 9.98-9.013 14.166-6.116-4.185-21.25 1.932-28.333 3.541-7.083 1.61-30.908-2.253-36.383-8.049-5.47-5.795-16.096-9.336-26.075-12.234-13.725-3.983-13.846-18.995-28.979-29.298-.32 18.674 28.013 77.914 34.45 84.353zm-157.76 142.3c11.913 0 21.571-9.658 21.571-21.571s-9.658-21.57-21.571-21.57-21.571 9.658-21.571 21.57c0 11.913 9.658 21.571 21.571 21.571z"/>
            <path d="M370.02 409.74c4.346 5.635 11.751 5.314 14.81 4.83 2.576 6.759 10.785 6.6 14.327 10.3 3.542 3.705 15.613 3.384 19.155 1.288-3.217-.32-7.403-2.25-11.428-5.633-4.858-4.08-2.576-12.234-6.44-15.131 2.898-3.22 3.381-8.532 2.737-10.625 3.06-1.771 5.313-4.669 5.635-6.118 5.313-.322 9.98-3.058 11.913-5.15 2.737 2.575 9.658-.806 13.363 3.54.804-10.625-9.338-16.259-16.1-12.717-2.738-1.448-9.98-.482-11.268 1.45-2.254-.967-8.532 2.253-11.43 4.346 3.22-1.77 3.702-7.083 2.414-9.015 2.737-1.127 5.796-4.83 6.117-7.566 3.864.644 9.658-1.932 12.233-1.288-4.183-5.473-11.105-7.405-18.189-6.922-7.325.403-10.463 5.554-11.429 11.108-4.346 2.576-5.795 11.268-4.185 14.327-2.496-.08-4.83 2.335-5.795 3.703-3.38-1.45-8.21-2.495-11.671-2.495m1.531-8.772c-1.449-4.185.47-7.953 1.449-11.268 2.495-8.45.966-10.625-6.6-9.498-.644 4.025 3.22 17.225 5.151 20.766z"/>
            <path d="M360.77 352.91c1.932 1.932 8.774 2.817 9.498-3.3.832-7.022-2.012-9.74-8.13-7.003-.482 1.61-1.046 8.21-1.368 10.303z"/>
            <path d="M362.22 342.37c2.576 1.046 8.13 3.139 11.188-2.817 2.566-4.996-.805-8.854-6.117-8.533-1.288 1.45-3.863 6.6-5.071 11.35z"/>
            <path d="M366.97 330.54c.644 1.932 7.244 8.37 12.073 3.703 4.83-4.669 4.83-11.59-2.415-14.166-1.932.321-7.727 7.082-9.658 10.463z"/>
            <path d="M376.62 320.08c1.449 4.024 5.956 10.946 14.327 7.727 8.371-3.22 4.83-13.683.966-15.776-2.254.16-11.43 4.346-15.293 8.049z"/>
            <path d="M391.92 312.03c-.644 3.542 0 13.2 11.429 13.039 11.428-.16 8.211-13.522 5.313-15.454-4.669 0-12.556.16-16.742 2.415z"/>
            <path d="M409.14 310.09c-1.288 2.737-4.19 20.75 18.191 15.776 2.896-.644 10.463-17.225-18.191-15.776z"/>
            <path d="M421.37 311.7c-2.25 2.253 3.542 20.444 18.675 17.385 15.133-3.059 2.417-20.283-18.675-17.385z"/>
            <path d="M434.25 314.44c-2.413 4.99 1.212 19.8 19.883 19.8 16.921 0-.887-19.478-19.883-19.8z"/>
            <path d="M448.9 318.79c-1.212 2.766-2.696 18.468 19.317 19.8 15.938.966 12.075-21.571-19.317-19.8z"/>
            <path d="M472.57 325.39c-2.733 4.83-5.633 16.903 18.513 17.869 15.471.62 5.958-17.547-18.513-17.869z"/>
            <path d="M492.69 329.09c-3.542 4.83-.933 14.303 8.046 16.098 11.27 2.254 12.879-8.37 5.154-13.522-7.73-5.151-13.2-2.576-13.2-2.576z"/>
            <path d="M503.64 331.34c-2.575 4.508-.98 15.454 16.096 15.454 3.542 0 17.067-13.844-16.096-15.454zM371.48 541.27c13.83 0 25.042-11.213 25.042-25.042 0-13.833-11.212-25.046-25.042-25.046-13.831 0-25.043 11.213-25.043 25.046 0 13.829 11.212 25.042 25.043 25.042z"/>
            <path d="M555.15 177.13c-1.933 1.932-5.954 7.727-6.763 9.98-8.37 25.113 13.975 43.871 27.046 70.83 10.304 21.25 9.017 54.733-7.083 75.982-5.508 7.269-3.862 9.337-10.946 16.742-2.717 2.841-5.796 6.44-4.829 16.742 4.508-1.61 10.946 2.576 12.233 6.118 3.22-1.61 7.73-.966 9.337.965 5.471-2.575 9.98-1.288 14.808 3.864 4.188-.644 8.696 0 12.88 4.507 2.254-4.507 6.762-6.117 9.979-5.151-.321-5.795 5.475-9.98 10.625-7.727-1.609-7.727 5.475-13.523 12.238-11.269 5.791-4.507 17.383-4.829 23.179 1.932-10.304-2.897-9.98 8.05-18.675 7.083 2.254 6.44-3.542 10.142-9.334 12.234 3.7-1.77 7.725-3.863 9.013-1.61 3.22-2.816 9.658-1.77 11.27-.321 4.263-1.368 8.372-.322 10.3 4.829 5.797 3.542 9.66 12.556 5.476 19.318-1.288-7.083-6.117-6.761-8.05-9.659-4.509 1.61-9.017 1.61-10.304-1.288-2.575 2.576-11.267 4.83-15.13.966-1.45 5.795-6.44 10.625-12.237 10.625 1.612 4.507-2.896 12.236-6.438 16.098 5.475 2.896 3.863 9.337 2.575 13.2 8.371 1.287 1.288 8.692 15.775 13.521-7.079 2.254-20.925 0-22.858-8.692-7.083-.32-11.913-7.404-11.588-14.813-5.475-5.15-6.279-12.554 1.288-17.705-6.442 1.932-9.984-8.37-19.321-4.185-4.642 2.082-16.9-1.449-16.738-5.796-1.934 3.22-13.683 1.933-15.296-3.54-3.863 2.092-12.88-1.45-12.717-6.762-4.992 2.254-11.75-1.77-11.43-6.922-4.666-.644-5.15-4.83-4.828-8.37-4.188-1.933-3.059-5.957-1.45-10.786-2.896-3.22-1.609-7.727.645-11.913-3.22-3.22-2.575-7.083-1.612-11.59-15.454-1.288-34.813-5.015-79.2-18.673-66.967-20.605-84.997 27.688-70.187 57.952 17.087 34.92-1.932 42.5 3.864 68.58 6.117 1.287 9.336 6.437 9.015 11.912 3.62.158 6.196 3.538 4.909 9.98 3.058-.563 7.003.32 9.578 2.895 2.254-4.183 9.66-5.15 13.523-.32 8.37-.647 12.556 6.116 12.235 14.487 4.505 8.05 2.896 17.871-1.933 24.146.483-3.379 0-8.208-.158-11.104-.3-5.329-7.73-6.441-6.924-10.788-3.864.321-7.567-1.77-8.854-4.666-2.254 1.929-5.474 2.575-8.21 1.608 4.346 1.933 7.727 9.658 6.439 14.808 2.254 3.867 1.77 10.95-.966 14.008-1.288 6.275-6.117 8.53-12.395 5.792 3.542-2.25 4.83-6.275 4.668-9.659-2.253-1.929-3.38-5.633-3.541-7.887-6.278.966-14.971-4.346-16.574-6.446-13.831 0-25.043 11.213-25.043 25.046-.644-5.154-7.16-10.229-6.355-14.575-3.863-11.913 1.61-23.021 17.386-25.271-1.931-4.508 4.83-9.18 2.254-14.329-3.29-6.58-9.336-15.133-18.35-25.113 5.473-9.338 3.863-21.892.643-29.62-4.623-11.096-9.015-8.37-25.435 9.658-26.76 29.383-62.46 21.25-94.012 40.567-8.384 5.133-16.741 7.083-7.727-1.93 9.015-9.016 32.84-18.028 48.293-25.757 28.94-14.471 53.445-38.635 63.104-85.64 22.697-110.46 106.24-74.05 159.04-53.445 49.571 19.346 40.567-24.47 15.454-50.87-30.183-31.731-24.146-56.663-9.979-76.625 25.433-3.542 74.213 5.312 64.392 13.845z"/>
            <path d="M644.82 448.48c15.217 0 27.554-12.333 27.554-27.55 0-15.218-12.338-27.554-27.554-27.554-15.217 0-27.554 12.336-27.554 27.554 0 15.217 12.338 27.55 27.554 27.55z"/>
        </g>
        <g fill="none">
            <path d="M539.7 178.41c-6.117 27.045-.967 39.279 8.05 51.191 18.629 24.621 33.483 80.811 12.233 117.51"/>
            <g stroke-linecap="round">
                <path d="M571.89 315.41c2.575-.966 7.404-4.024 8.533-9.337m-6.603-2.413c.804-4.668 8.046-6.68 8.208-11.67m-8.048-6.53c-.483-4.83 7.246-9.176 6.117-14.005M569.8 268.08c-.646-2.737 6.438-7.888 4.508-12.234m-9.818-4.666c-1.45-3.059 3.38-6.6 1.288-9.82m-9.018-3.71c-.483-2.092 2.496-6.68.887-9.416m-8.617-6.514c.642-.805 3.22-2.737 2.17-5.151m-7.48-6.519c1.046-.564 4.183-1.53 3.783-3.863"/>
                <path stroke-linejoin="round" d="M382.58 513.57c-6.44-2.254-14.488.967-16.098 6.442M371.31 525c.805-5.47 9.176-7.888 11.751-5.313-5.312-2.895-7.888 7.405-3.22 7.73M423.15 397.67c-3.862 1.932-4.987 9.015 0 14.329m5.79-12.719c-2.733 2.254-2.575 9.015 1.45 10.625-3.38-2.415 0-6.6 2.417-6.761 2.412-.161 4.02 2.736 1.125 5.634m221.188 6.432c-9.012-2.413-16.258 8.05-8.05 17.388-.158-9.017 6.28-14.971 14.167-13.363m-3.627 6.235c-2.217 0-3.462 1.733-3.462 3.42 0 1.772 1.529 3.463 4.025 3.463 1.612 0 2.9-1.85 2.9-3.3M689.4 227.83c1.45 5.473 9.017 7.727 14.971 6.44m-.001-3.54c-4.667.161-8.53-4.185-8.208-7.888 0 2.737 6.279 4.025 8.208 2.254"/>
                <path d="M384.83 414.57c-1.288-3.22 3.864-6.44 4.025-9.5.16-3.057 5.795-5.472 11.59.323m-2.735-34.283c-1.127.483-2.093 1.127-3.059 1.449m14.169 16.091c-1.369.081-4.185-.08-5.715-1.127m.085 7.247c-1.127.564-3.623 1.53-5.072 1.852M347.97 492c-.161 2.9 2.737 7.083 4.346 8.37m8.214-15.29c-1.61 2.413-2.575 6.6-1.61 9.496m25.59.164c-2.898-1.933-.966-6.925-1.288-10.142-.322-3.22 3.38-8.37 10.625-4.025m-36.377-4.183c2.898-.483 5.956-.325 7.888.48m28.812-9.66c-1.288 1.77-1.61 3.704-1.77 4.992m15.29-5.312c-2.254 0-4.185 1.608-5.151 3.22m-26.079-85.64c2.576.886 9.256 4.99 9.498 9.257m17.872-30.187c-7.888-.161-10.946-8.21-4.99-8.21M418 374.32c-3.058 1.288-1.608 6.6 2.737 9.176M399.16 424.87c-1.53-1.93.483-7.563 5.473-5.875m6.277 64.635c.32-4.908 6.52-7.808 9.016-2.254M388.05 497.63c-.403-5.392 2.334-7.162 4.748-7.483 2.415-.321 5.877 1.687 7.487 5.229m-60.205 6.284c.322-3.22 3.059-6.6 5.956-6.117M634.67 358.71c-2.096 1.53-3.462 8.37 4.504 9.015m-16.734 2.255c0 .805 1.046 1.932 1.692 2.415m36.298 10.465c-2.092-1.61-7.487 4.91-2.575 9.659M609.24 436.95c-1.208-4.588 3.058-5.796 7.083-4.83m-17.383-27.69c2.413-1.61 4.83-3.38 7.888-4.185m-9.178 21.885c0-3.862 1.93-7.08 3.7-8.046m10.46-36.374c-.32 4.668 1.613 9.176 3.063 11.59m35.257-11.27c-2.337.725-4.43 1.61-5.313 3.542m2.733 9.658c1.13-.966 2.417-2.092 2.98-2.897M708.4 250.69c0 4.507-5.633 6.922-9.333 4.024m21.573-3.864c2.492 1.932 11.104.081 9.092-4.91m-19.562 30.83c-1.77-.322-4.83-2.254-6.117-3.863m23.827-9.497c-2.896.644-4.83 0-6.28-.644m-39.44 16.744c1.608 0 5.47-.644 8.13-2.012m-12.96-26.478c-2.092-.24-3.625.161-4.83.966m37.27 6.914c-.563 2.013-2.013 5.151-3.783 6.52"/>
                <path stroke-linejoin="round" d="M671.86 265.99c4.025-1.77 9.017 11.912 18.675 7.083m.805-14.173c-1.288 1.77-2.092 4.508-2.254 6.922"/>
            </g>
            <path d="M498.81 237.98c1.288-.16 3.542-.644 4.025-2.254M333.16 387.85c4.83 2.737 8.21 7.405 6.117 14.327M554.5 223.17c1.45.966 6.925.966 9.983-.16m3.867 3.38c-.163 2.254.483 10.785-3.862 12.556m1.612-1.126c4.025 1.288 12.075.805 14.65-6.6m-5.64 6.27c2.092 3.22 2.733 9.498-3.542 12.878m5.152-7.558c4.667 1.61 15.454 1.77 14.325-7.405m-3.695 7.405c3.22 4.507 17.388 9.82 15.133.483M574.31 255.84c5.47 1.288 13.2-2.415 9.98-12.073m15.45 4.833c.804 3.703 18.833 7.566 16.421-.805m-3.381 4.835c3.383 7.727 21.25 7.083 15.617-3.22m-2.897 8.04c3.542 4.347 19.321 1.77 13.042-8.693m-.172 8.533c9.82 7.405 21.25-3.22 8.854-10.947m5.636 8.537c8.696 6.922 19.321-5.635 11.754-9.176m-80.494 6.276c2.737.805 8.533.483 9.82-4.507m-2.17 3.377c-.32 7.325 11.996 10.142 15.133 1.69m-4.103 4.59c2.254 4.83 13.038 6.76 14.808-.161m-1.768 3.221c1.77 4.83 11.108 4.347 13.683-.644m-3.383 3.224c2.896 6.278 14.808 6.278 17.546-2.898m-2.086 4.018c4.667 2.898 14.65 1.77 13.842-7.244m-1.932 6.444c6.92 5.635 16.742.161 11.913-9.337m-.483 16.737c3.704-.644 5.633-8.049 1.77-9.98m-87.57 11.27c7.725-4.185 9.175-11.268 3.862-18.19m2.738 11.11c4.83 2.897 14.004-.16 15.613-7.244m-9.013 8.044c2.733 3.541 3.217 7.888-.325 11.912m2.575-7.402c8.53-5.312 19.154 4.508 11.267 10.464m-1.447-10.944c1.933-.483 5.313-4.024 5.633-8.049m-1.773 11.749c3.542-3.703 27.692 3.864 12.396 11.59m-1.126-21.73c4.667 1.77 7.083 8.371 0 10.625m6.12 5.475c5.15-5.312 21.25-1.932 15.454 4.83m-3.864-6.93c2.896-9.82 20.121-3.703 14.488.322M633.71 267.27c.483 1.932.642 6.761-2.575 9.337M648.2 265.34c.642 1.61.483 4.668-.967 6.6m11.907-6.44c.967 1.77 2.575 5.151-.967 7.888M521.35 191.45c.158 9.175 3.38 15.293 15.775 9.498M525.21 202.4c-6.117 8.21.804 17.064 12.879 8.21m-31.719-4.19c8.37 9.015 23.342 2.415 13.683-11.269M530.2 214.15c-1.613 8.854 5.633 10.625 11.588 6.6m-42.818-12.88c1.525 8.901 10.625 15.937 19.479 10.464m-8.529 1.776c0 12.718 17.546 14.166 21.571.966m-6.281 8.044c5.633 11.59 17.867 6.922 21.892-.16m-34.292-18.35c2.254 5.634 6.763 11.913 17.225 7.244m-49.415-9.984c1.45 4.668 9.82 10.303 19.479 3.863m-13.529 2.097c-5.154 7.566 5.15 14.649 17.546 3.38m-11.426 5.96c2.092 10.625 6.275 19.157 21.408 5.473m-7.568 5.467c5.475 6.76 13.846 10.946 21.733-.483"/>
            <path d="M534.06 236.04c-.483 8.049 1.125 12.073 7.404 11.751 4.95-.253 9.659-4.185 12.396-8.37m-13.52 8.379c-.163 9.176 7.08 16.42 20.604 7.083m-14.974 3.697c-2.575 6.922 5.15 18.19 20.283 12.395M513.94 240.23c-.963 8.854 7.246 14.81 20.446 3.38m-14.006 6.44c.483 7.244 8.692 15.937 20.767 3.38m-14.977 5.8c-.967 12.395 10.463 15.937 20.121 6.44m-37.341-15.62c2.575.161 4.667-2.092 5.954-3.703m-.484 12.713c2.254.483 6.12-1.61 7.408-4.185m-1.768 18.835c2.575 2.737 11.267.805 12.392-2.897m-2.732 2.737c4.83 11.268 17.704 10.785 23.017-1.932m-2.417 4.512c2.413 6.6 8.533 10.785 18.513 8.532m-13.683-1.772c-5.633 9.176 1.77 19.961 14.325 9.337m-11.265 4.343c-.642 5.795 4.67 12.395 11.913 13.2m-35.743-30.1c-1.933 13.039 7.404 19.318 19.158 12.395M520.7 285.95c3.058 2.415 8.533 2.737 13.683.805m6.277 7.565c-2.9 10.947 8.37 18.835 18.029 6.6m-33.639-13.2c.163 5.634 5.638 11.751 15.133 9.98m26.557 11.27c-6.442 4.346-7.73 12.073 1.288 17.063M550.96 306.71c.325 6.6 3.383 10.303 10.625 10.946M541.47 303.33c-9.658 8.854-.163 19.157 11.267 10.464m-4.507 2.736c-3.22 10.142 8.854 16.259 15.292 5.956M528.27 294.96c-3.542 9.98.967 16.581 9.175 15.937M515.55 293.03c.483 5.956 5.633 8.049 11.429 6.761m-7.729-.481c-4.346 8.37 2.254 12.878 10.95 9.659m26.4 18.671c-1.45 5.312-.646 9.176 7.242 10.947m-6.762-3.377c-9.5 4.347-10.304 13.523-2.9 19.478m-4.75-29.698c-4.987 4.508-4.025 12.314 1.45 15.373m-43.7-44.753c-5.475 5.393-.242 20.283 11.829 12.155m19.561 6.675c-7.408 6.117-4.025 17.225 8.208 14.166M526.33 309.77c-3.862 10.947-.158 14.81 8.533 14.971"/>
            <path d="M499.13 295.12c-6.6 4.99-4.83 12.073-1.93 15.293 2.897 3.22 8.368 1.77 10.139-2.415M485.28 290.78c-7.404 9.498 0 20.766 10.467 17.386m29.143 10.784c-7.567 2.737-13.338 9.607-8.696 15.615 2.738 3.542 14.65 4.025 18.03-9.659M511.2 310.09c-4.346 6.278-2.9 12.235 5.15 15.293m-5.63-3.533c-4.67 2.576-7.73 5.635-6.6 11.269m-3.86-21.089c-1.77 7.566.32 12.235 4.987 14.488m-5.147-5.478c-7.246-.483-10.946 2.575-8.533 9.659m.643-7.889c-7.083-2.576-8.213-8.693-5.154-15.132m-.966 9.502c-7.73.322-11.108 4.185-11.108 9.498"/>
            <path d="M475.62 287.07c-5.633 2.415-7.404 9.98-5.313 14.166 2.096 4.185 8.696 4.508 12.721 1.77M459.85 281.12c-5.15 5.795.804 17.064 9.983 14.327M446.65 276.61c-4.83 6.76.483 18.03 12.879 14.81m.641 31.39c-1.288-8.05 7.083-13.361 17.388-2.898m-4.988-16.252c-3.058 2.737-4.504 7.083-4.025 10.625M433.45 272.75c-5.313 9.015 1.13 17.225 12.558 14.005m17.222 8.365c-7.567 7.566-4.992 15.132.642 19.478M458.4 303.98c-11.429.16-12.071 13.361-2.733 17.547m-5.957-30.747c-4.667 3.22-6.117 12.073 1.933 15.615m-2.253 4.185c-4.83-2.254-10.625.483-10.142 6.117m2.892-5.957c-4.346-10.303-17.063-8.532-15.933 2.093m19.473-14.813c-2.733.483-8.208 2.092-10.3 6.278m.81-17.868c-5.15 5.795-1.13 12.717 3.058 14.166M420.9 270.17c-.967 6.922 1.77 10.303 10.463 9.659m-7.413-.799c-3.383 8.37 1.125 12.073 9.817 11.59m-7.887-1.29c-5.15 6.117-1.608 12.718 3.38 15.454m-5.79-7.724c-9.175-1.127-10.625 9.498-7.567 14.488"/>
            <path d="M416.06 269.37c-5.632 2.415-8.852 9.498-5.793 13.844 3.06 4.346 9.176 2.897 12.556.644M412.2 285.14c-4.668 7.083-.483 12.395 4.508 14.488"/>
            <path d="M394.17 268.56c-3.702 3.863-1.449 11.752 7.566 11.913 7.258.13 10.946-6.761 8.693-11.59m-9.979 11.587c-2.897 6.44-1.127 13.361 9.82 12.234m4.67 10.146c-6.76-3.058-15.776 0-11.912 8.05m-.968-19.48c-2.737 3.863-1.77 9.337 1.288 12.717m-1.768-2.417c-4.508.805-8.854 3.22-6.117 10.303m-.653-5.793c-5.795-1.77-13.2 2.415-8.693 8.37m-.957-5.63c-4.99-.805-10.946 4.507-6.117 9.82m-1.933-4.35c-4.508 1.127-9.82 6.278-5.152 10.303m27.852-35.573c-6.44 2.897-7.083 10.142-4.025 15.454m-2.745-28.814c-9.659 3.703-9.498 16.581 1.127 20.605m-4.507-2.905c-5.795 3.38-6.922 9.82-3.058 14.005m-7.082-36.535c-3.864 1.288-3.542 13.2 6.761 12.878M368.9 275c-7.727 5.151 1.61 18.19 14.166 8.854m-6.926 3.216c-1.127 5.313.322 11.108 8.854 11.752m-8.374-4.662c-6.117 2.253-7.244 14.81 3.863 15.776M357.15 282.73c-7.888 7.244 6.44 13.522 11.752 3.059M346.2 294.8c-3.864 4.668 9.658 16.903 15.615-3.542m1.445-.318c.322 4.83 3.22 7.727 9.175 8.049m-.155 4.671c-9.498 1.449-12.556 13.361-1.932 15.937M354.73 302.05c-.322 4.507 4.346 8.21 9.659 7.405m4.831 9.815c-8.693 1.932-9.82 13.2-2.092 12.556M363.1 342.29c-7.245-2.173-7.405-10.786-.966-14.005"/>
            <path d="M357.15 334.72c-6.117 3.703-3.702 12.556-.483 13.844 3.22 1.288 5.795-.322 6.118-3.058M362.3 357.9c.644 4.185-14.891 2.576-6.922-10.463m-.088 11.193c-5.231 8.21 3.3 14.89 8.693 7.888m-7.963 2.012c-2.093 6.6 5.875 11.35 11.026 6.198M338.63 306.71c-2.898 5.956 11.59 8.21 12.556-4.025M334.61 315.57c-2.897 11.59 18.995 9.176 13.361-5.795m.479 7.725c3.058 1.77 12.235 1.932 14.488-7.888m-6.598 8.208c.644 3.058 3.38 6.76 5.956 7.888m-16.416-4.828c-.966 6.278 5.312 11.43 12.556 10.947M347 327c-3.541 4.83-4.668 14.166 6.44 14.81m-23.34-13.2c-1.77 4.99 8.693 10.142 14.81 1.932m-18.03 10.778c-.886 3.784 8.532 8.854 13.844-7.244m-4.184 8.214c2.254 4.024 9.82 7.244 14.488-.644m-7.568 4.834c-1.932 5.634 3.38 10.946 9.82 9.337m-21.89-10.627c-1.288 8.049 8.049 12.717 13.844 8.532m-19.964-4.992c-2.736 10.303 10.464 14.166 15.454 6.439m-3.374 3.061c.483 5.795 9.498 10.785 16.581 5.956m-32.681-1.126c-.644 2.575 10.142 5.151 11.751-3.864m-5.471 6.114c2.575 6.6 11.268 8.21 16.259.161m-2.899 3.219c1.127 6.117 9.015 9.498 15.937 5.312m2.893 2.418c-1.77 8.21 6.761 14.81 12.073 10.303M346.04 374.97c-2.575 9.015 8.693 14.166 14.971 9.176M332.52 370.46c-.644 8.37 5.956 13.361 13.522 9.658m-27.852-8.848c-2.254 5.473 9.659 9.98 15.293 5.313m-22.703 9.657c3.059 3.541 13.683 0 14.649-7.888m-2.889 5.788c3.863 4.508 13.039 6.922 16.742-2.737m-3.222 4.997c-.161 6.922 12.235 11.913 16.259-.805m14.561 2.495c-1.127 3.38 1.53 8.773 7.083 9.417M356.66 386c-.805 3.863 4.83 9.255 10.786 7.083m1.134 1.607c-1.61 4.185-.242 10.221 5.392 10.141m-4.832-2.331c-4.185 3.541-2.415 9.82 3.623 10.062m-5.793-4.112c-5.956 4.022-3.863 12.877 4.024 12.398M348.94 391.39c0 8.693 10.785 9.98 12.878 1.932m-4.188 5.148c-1.61 5.151 2.575 10.142 9.175 8.693m-7.885 53.447c1.45 2.096 7.405-1.446 5.795-4.987s-7.919-1.617-7.244 2.091m5.789-3.544c.805-7.083-7.566-8.208-9.659-2.092m3.059-3.538c2.093-3.542-4.99-8.37-7.888-3.22m2.578-2.1c1.932-5.154-6.117-7.404-6.761-2.737m-1.769-6.763c.966-2.575 9.98-.967 6.117 4.346m6.923 6.444c3.542-3.22-2.414-9.82-6.117-7.404m29.937 17.224c-2.818.32-5.716 2.17-3.623 8.13 1.451 4.133 7.647 4.345 8.532 1.85"/>
            <path d="M375.58 457.31c-2.737-1.77-8.693 1.208-5.956 7.004 2.06 4.363 7.244 2.575 8.049.321m-17.473.965c1.367 2.413 8.209 1.37 9.417-1.288m-4.747-6.682c1.449-.967 4.104.237 4.668 1.446m-5.148-41.126c-4.668 3.058-1.77 12.396 5.473 9.98m-6.923-2.41c-3.703 2.896-.322 11.913 6.6 8.533m-5.47-.003c-2.575 2.575-.08 9.738 6.6 8.37m-7.57-4.83c-1.45-.646-5.232-.163-6.843 2.25m2.663-34.85c-3.541 3.38-1.852 10.304 4.748 10.866m-6.038-3.786c-5.072 2.496-5.072 12.554 5.07 12.958m-5.47-1.608c-2.817 2.254-1.449 10.946 5.795 9.817m-3.465-.317c-1.047 1.046-1.208 3.704-.322 4.83m-2.898-8.13c-2.575.08-5.956 1.933-6.843 4.588m-4.667-9.338c.966-2.575 8.935-2.413 9.498 5.154m.802-9.014c-1.127.242-3.3 1.288-3.863 3.462m.403-27.042c-3.462 3.139-5.151 13.04 5.392 14.97m-12.392 5.47c0-2.658 7.164-4.912 9.659-.967M340.08 403.46c1.046 2.013 6.036 4.75 9.095 2.496M314.16 387.69c-.16 4.668 3.703 8.854 9.015 8.21 5.312-.644 6.44-5.313 4.83-8.371m-4.025 8.531c-3.542 4.346.805 10.464 4.83 8.693m-.8-11.753c2.093-.805 9.015-1.77 11.108 1.449m-33.488-.159c-1.61 2.415 8.371 4.83 11.751.16M314 396.86c-.323 3.22 1.288 8.693 9.498 6.44"/>
            <path d="M324.79 408.29c1.288-2.737-4.83-7.244-9.498-2.254-4.668 4.99.644 10.625 3.542 8.692M303.38 397.51c-2.415 4.185 6.922 11.833 12.235 4.75"/>
            <path d="M297.18 404.75c-3.38 3.462.805 9.82 5.876 7.888 5.07-1.932 4.588-7.244 3.381-8.612"/>
            <path d="M290.66 411.19c-2.737 2.494-.081 8.37 3.703 8.37 3.782 0 6.117-2.976 5.392-6.76m6.275-2.09c-.483 3.702 4.99 6.277 8.532 2.819m.168-6.769c.483-.805.081-2.174-.723-2.818M284.79 416.18c-3.138 2.496 3.623 9.417 7.888 3.058m16.332-4.428c-2.013 1.93 1.207 7 4.426 5.47m-15.446-1.93c.483 3.458 7.244 6.033 11.51.725m-7.81 2.735c-1.046 2.175 1.047 5.638 3.623 5.154M365.76 441.7c-2.494 4.908 5.473 10.625 11.269 4.667m-5.479 2.653c-1.207 2.654.242 6.358 2.415 7.725m-9.975-2.175c.564-2.417 4.024-4.67 7.164-3.542M359.8 448.21c.483-2.17 3.38-4.346 5.554-3.78m183.996-96.67c-11.429.161-6.6 18.513 3.22 14.81m-6.92-1.28c-2.254 3.703 2.092 9.579 6.92 6.117m-1.28.723c-3.383 5.634 8.692 14.246 13.521 5.392m-3.861 3.378c.158 5.313 15.613 8.693 13.363-1.932m-1.453 5.792c3.7 6.278 17.546 6.922 16.096-2.415m-3.056 6.445c2.9 4.185 16.421 6.76 15.938-1.932M531 331.83c1.93 4.99 8.53 6.761 15.775 3.863m-19.955-.323c4.508 2.897-2.092 16.098-9.012 10.785m9.012-2.575c4.992 2.415 11.108.644 12.879-6.44m-3.059 5.47c.483 3.703 5.796 6.6 12.717 5.151m-25.117-1.281c6.442 5.473-2.896 16.742-7.083 11.59m9.503-7.41c3.058 2.254 10.946.966 11.75-4.99m-3.54 4.99c.646 3.863 3.704 5.312 8.05 5.473m-18.03-.163c3.217 4.508 11.267 5.795 14.808-.16m-3.548 3.38c-.32 4.347 4.508 7.888 9.5 6.922m-27.04 2.738c4.183 2.092 8.692-5.795 5.15-11.268m-.32 19.638c4.992.322 5.633-7.244.967-11.43m10.463 18.35c4.188-.966 2.896-10.142-7.246-10.947m19.956 17.717c4.025-1.127.804-11.269-10.3-10.625m25.6 14.165c2.733-4.185-6.28-11.268-13.683-7.566m21.243 13.356c4.992 1.449 8.37-11.751-7.404-9.659m16.584 9.659c4.35-1.127 7.408-9.015-5.308-6.44m14.968 7.09c3.862 1.932 5.633-9.337-6.12-6.278M524.4 365.79c4.83 2.737 12.396-.483 11.75-6.6m-1.93 5.32c1.613 2.897.967 8.532-2.092 9.98m2.572-3.22c3.22 1.288 7.567.161 10.142-4.99m-4.502 4.99c.963 2.254 1.288 6.761-.808 9.015m1.618-5.155c3.542 1.932 7.725-.644 9.496-4.347M548.39 374c2.575 1.61 4.83 9.176.483 12.235m2.417-3.535c3.058.16 7.567.16 10.463-3.703m-2.093 2.093c2.737.805 5.954 5.313 4.83 9.337m.16-1.457c3.063-.322 8.37-2.415 9.82-6.117m-1.45 2.417c2.58 1.449 4.35 4.507 4.025 8.049m-.005-2.579c3.058-.16 5.796-1.77 6.6-5.151m-.8 2.261c2.254.805 4.992 3.38 5.154 6.44m-.324-1.94c2.254-.322 3.862-1.77 5.313-4.025m6.117-.315c2.9 2.898-.963 12.557-6.92 10.786M537.28 192.9c-5.958 3.541-22.863 2.415-14.492-11.59m16.102 2.09c-11.75 4.668-26.242-4.346-11.108-14.166m-4.022-3.214c-9.82 0-16.421 15.776-3.217 21.249M485.61 172.62c-2.575 4.99 6.6 10.463 12.879 5.473 4.863-3.866 4.504-14.327 1.608-18.352M480.62 184.53c-3.22 10.624 20.446 11.268 16.742-5.635M479.33 200.31c.804 8.049 22.7 5.473 15.613-10.786m2.577-4.514c1.77 2.415 6.6 6.6 14.808 5.795M501.38 173.58c.725 2.897 5.633 5.151 11.913 2.979M281.73 418.51c-5.553 3.946 2.979 10.142 6.117 3.3m-10.467-.24c-5.553 3.942 2.979 10.138 6.117 3.296m-10.707-.316c-5.555 3.946 2.978 10.142 6.117 3.3m-10.947-.56c-5.313 2.817.885 9.738 6.278 3.62m-11.508-.96c-5.313 2.813.886 9.738 6.278 3.62m20.692-11.92c-.081 4.104 7.727 5.796 10.543-.325m-5.633 4.115c-2.415 3.058 2.013 6.842 4.428 5.47m-14.818-6.04c-.242 3.462 6.519 5.475 9.82 1.692m-6.11 1.938c-2.174 2.817 2.092 6.6 4.83 5.47m-13.04-5.96c.24 2.737 4.104 5.875 8.29 4.104m-5.8-.404c-1.61 1.45-.805 4.833 1.449 5.88m-9.819-6.12c-.644 2.496 3.623 6.925 7.969 4.025m-7.089-1.125c-2.575 2.013-2.254 5.07 1.046 5.47m-7.236-5.79c-.322 1.688 1.852 4.425 4.589 4.104m-18.359-4.264c-2.575 1.367 4.025 8.37 8.129 1.85m-14.489 1.04c-3.22 1.533 4.75 9.258 8.291 1.37m12.559-1.69c-2.496.563-4.105 4.188-2.013 5.633m-6.117-4.343c-.322 1.45 2.737 3.862 5.233 2.98m-7.323-2.33c-2.415 1.53-1.127 5.792 1.69 5.15m-10.3-2.34c-2.254 1.688-.725 5.07 2.415 4.267m1.685-4.507c.081.883 2.093 2.254 3.784 1.692m-15.694-3.142c-2.816 1.208-2.655 8.292 6.843 4.43m-13.203-1.61c-3.945 1.933-2.657 7.246 5.956 2.175m.724.405c-1.046.804-2.172 4.346 1.77 2.975m-9.01-1.295c-1.61 1.45-.563 4.43 2.98 3.3m-11.27-2.81c-2.897 1.692 3.46 3.946 7.727-.563m-5.797 2.653c-1.288 1.288-1.288 5.07 2.092 3.704m-10.302-2.174c-1.932 1.45 1.368 3.383 7.405.725m-4.995 1.365c-2.254 1.85-2.013 4.183 1.288 3.458m-7.968-2.408c-2.495 2.254 1.127 3.783 5.473 1.93m-5.393.57c-4.267 1.93-2.415 5.47.24 4.104m142.23 8.206c-.99 2.13 2.254 3.862 5.313 3.38 2.937-.463 5.748-2.884 3.54-6.276m.157 4.186c2.897 2.254 8.049-.32 8.049-3.704"/>
        </g>
        <g fill="#fff">
            <path d="M545.97 128.83c-12.879-6.44-39.6-18.352-47.167-8.693 6.92-2.897 27.204.161 43.946 15.615l3.22-6.922z"/>
            <path d="M553.78 128.15c-14.892-17.347-23.663-13.464-34.371-19.439-10.058-5.614-26.079-6.761-29.183 2.167 14.696-7.157 28.188 3.849 36.475 5.18 11.383 1.828 17.808 10.629 21.138 14.676l5.942-2.584zm56.1-2.22c-7.73-17.708-24.254-13.083-31.554-20.605-10.621-10.946-37.504-21.088-48.613-13.522 24.467-1.288 34.888 16.865 47.971 23.181 9.338 4.508 19.317 14.166 32.196 10.947z"/>
            <path d="M580.91 124c-13.2-16.42-33.488-30.908-42.821-25.435 12.233.644 16.096 9.176 24.792 14.649 8.692 5.473 4.83 13.361 18.029 10.786zm-62.79 28.98c-13.846-5.151-40.888-7.727-53.446 8.05 20.929 3.54 52.479 1.609 53.446-8.05z"/>
            <path d="M515.55 159.1c-13.846-6.44-24.658 2.555-37.671 1.288-24.788-2.415-42.496-.966-44.75 10.946 14.167-12.717 37.992-2.253 47.65-4.829 9.658-2.576 45.396-.322 56.663 4.507-5.796-7.083-14.808-9.014-21.892-11.912zm43.46-36.87c-3.217-10.625-3.058-21.893 12.879-21.088-4.025-4.99-18.833-7.566-21.25 11.108-17.546-12.878-36.704-15.132-40.242-4.024 9.012-7.727 23.017-2.093 39.758 16.903 1.45-.805 5.313-2.415 8.854-2.898z"/>
            <path d="M534.87 136.88c-9.98-6.439-23.504-16.903.163-21.088-10.142-5.473-24.954-3.059-23.342 15.615-27.046-10.947-46.467-7.252-50.55 3.541-4.509 11.913 12.238 18.513 15.133 10.947-3.059 1.288-13.521-2.253-8.05-9.015 5.475-6.76 33.525-1.685 60.208 12.235 7.404 3.864 32.838 3.22 6.437-12.235z"/>
            <path d="M527.78 154.59c-7.7-15.722-32.679-1.449-37.713-16.678-6.88 22.312 35.521 9.966 37.713 16.678zm158.89 17.06c5.237 2.603 9.767-1.489 1.754-4.698 5.242 2.601 9.813-1.392 1.8-4.603 5.242 2.601 9.813-1.392 1.8-4.602-2.137 2.151-5.196 10.04-5.354 13.903zm2.73-30.26c11.592-12.234-.963-16.42 13.2-28.976 11.592-10.273 2.212-17.12 13.204-25.113 3.542-2.575 11.267-7.727 11.913-12.878 4.667 11.59-14.492 13.2-13.204 31.874.82 11.89-7.217 10.851-10.3 30.908-.646 4.185-3.542 13.522-14.813 4.185z"/>
            <path d="M694.56 146.86c6.438-13.844 13.829-13.578 17.383-18.995 6.763-10.303 21.088 1.77 33.163-7.405-2.092 13.039-18.35 8.37-25.433 16.742-7.083 8.37-12.879 12.235-25.113 9.659z"/>
            <path d="M696.17 151.37c11.271-9.015 19.575-3 27.367-7.727 19.638-11.913 27.529 2.414 45.075-3.22-4.67 11.268-30.588 1.61-41.854 9.981-11.271 8.37-50.871 16.42-30.588.966zm-32.84 64.23c-.163-5.151-4.992-11.752-11.754-12.556-6.758-.805-9.658-7.888-14.808-8.21-5.15-.322-8.533-10.625-15.617-10.464-7.083.161-9.98 9.337 6.6 17.708 16.583 8.371 34.933 18.03 35.579 13.523zm-20.93 4.35c-7.083.322-8.05 10.625-14.808 10.947 9.333 4.99 16.096-2.254 20.925-8.693l-6.117-2.254z"/>
            <path d="M648.2 221.23c-6.117 5.151-7.888 15.937.967 18.995-5.313-7.325 9.337-10.625 4.829-17.386l-5.796-1.61z"/>
            <path d="M654.31 221.56c-4.83 9.337 7.567 10.463 4.346 17.547 7.083-1.61 8.212-14.971 1.77-18.513l-6.116.966z"/>
            <path d="M606.98 201.59c11.592-.644 22.192 5.627 29.3 15.776 4.508 6.439 19.638 9.015 24.792 3.863 5.15-5.15 2.254-16.098-10.625-12.556-3.22-5.473-12.558-3.541-17.063-8.049-4.508-4.507-21.896-17.385-26.404.966z"/>
            <path stroke-linecap="round" d="M650.45 208.68c-3.058.644-4.025 5.956-2.096 8.693m8.696-5.473c.967 1.61.32 3.863-.163 4.99m-31.547-14.81c5.954.322 7.083 4.669 13.521 6.278"/>
            <path d="M621.4 187.43c20.571 5.151 36.892 9.659 47.013 15.454 10.121 5.795 25.792 7.405 39.504 3.542 13.713-3.864 40.154-7.405 38.85 9.659 7.188-8.533-1.958-17.709-20.242-19.319.33-8.37-8.63-15.937-15.071-10.947 5.958-.804 11.1 10.303-.65 14.81 2.283-8.37-6.042-15.937-14.692-12.234 5.55 1.61 11.163 10.917-1.254 14.488-7.838 2.254-19.263-.643-27.75-5.795-8.488-5.151-56.154-23.825-45.708-9.658z"/>
            <path d="M673.31 179.06c-6.438 2.897-2.254 9.659-12.233 13.522-9.983 3.863-16.904 12.717-14.65 20.283 6.763-14.81 18.675-14.166 22.858-19.961 4.188-5.795 10.304-14.327 4.025-13.844z"/>
            <path d="M675.08 180.02c-.32 11.751-9.57 7.47-5.958 23.986 1.129 5.151 3.22 13.522-.321 21.893 10.383-7.566 3.704-23.46 8.37-29.459 2.255-2.897 5.15-7.405 6.28-11.268-2.417 6.76-2.254 19.318 4.346 22.537-5.313-12.557 14.329-22.859.804-37.347-1.93 3.542-8.05 9.82-13.521 9.659zm-32.84-11.75c1.613 2.415 3.22 8.532 1.77 11.913 3.222-1.932 7.893-6.922 9.338-10.303 6.6.966 9.175 9.176 2.9 12.717 3.863 0 10.463 0 14.163-4.346-4.504-4.99-18.508-12.718-28.17-9.981z"/>
            <path d="M542.11 145.18c-1.042-.95-2.8-1.852-5.954-2.5-9.746-1.998-4.713-10.784 3.583-10.706 17.704-19.317 27.646-4.426 49.217-10.543 7.55-2.14 12.733-1.507 16.846.272 9.658-6.44 20.988-4.64 29.2 2.926.913-1.451 2.138-2.559 3.858-3.037 7.563-2.1 13.68 4.348 15.771 12.72 5.896-1.093 12.63 1.825 17.058 5.85 6.134-3.15 10.358-3.29 11.913-.052 5.475-2.575 12.567-4.19 16.108 4.502 3.542 8.693-8.37 6.118-10.304 24.47-1.191 11.32-13.842 15.775-23.825 9.014-15.967-10.817-31.55-12.557-39.279 3.864-7.725 16.42-13.779 25.96-32.517 20.605-6.758-1.932-15.454.644-20.925 8.049-5.475 7.405-13.846.482-23.825 1.287 12.554-1.931 7.746-5.09 18.675-5.795 9.98-.644 7.405-9.98 13.842-11.268-25.113 6.44-24.146-2.898-44.75 3.541 9.013-11.59 23.18-5.151 30.263-11.912-18.675-.322-27.025-12.522-35.417-7.405-13.2 8.05-7.408 30.965-41.854 28.976-16.742-.966-27.367 1.288-37.346 11.27 17.388-36.06 41.038-16.25 52.48-27.689 6.762-6.761 11.912-11.913 15.453-18.352 1.246-2.266 2.934-3.562 5.042-4.063-28.654-9.015-11.325-23.058 16.688-24.023z"/>
            <path stroke-linecap="round" d="M683.59 140.11c.438.905.662 2.08.662 3.533 0 7.082-10.624 7.405-11.266 17.869-.338 5.473-.967 8.531-4.671 7.887-3.7-.644-6.921-6.439-3.38-13.2"/>
            <path d="M547.42 134.63c-2.667-1.874-5.333-2.635-7.725-2.657m66.045-10.323c8.525 3.69 12.683 12.546 25.067 12.98 11.921.418 19.321 17.708 39.279 6.439.542-.305 1.07-.59 1.583-.854M635 124.63c-1.78 2.83-2.183 6.778-1.696 10.244M596.04 161.03c-15.129 0-18.996 7.727-18.996 15.132 0 7.405 7.083 17.064 19.642 17.064 12.554 0 19.317-7.727 19.317-16.098s-7.73-16.098-19.963-16.098z"/>
            <path d="M598.77 192.9c-.32-4.185-7.888-3.542-7.567-6.761.321-3.22 4.188-4.508 4.188-9.015 0-4.507 6.758-4.83 9.012-1.288 2.255 3.541 9.017 10.463 10.467 6.922m-10.46-6.918c-3.542 3.541-5.15 10.785-.483 16.42m5.313-10.95c-1.125 2.415-1.446 6.117-.158 8.37"/>
            <path fill="none" d="M669.36 169.48c11.833.966 13.846-12.074 4.992-12.878M654.8 134.31c-4.104-5.231-13.521-7.002-13.683 4.105"/>
            <path d="M639.99 151.05c-4.025-9.98-14.329-11.43-19.804-6.44-4.554 4.154-4.667 14.972 5.154 17.226 3.38-4.024 9.98-9.337 14.65-10.785zm-4.43-6.28c-5.796-5.152-14.329 4.588-6.6 13.522M525.31 169.16c3.88-.92 9.55.978 18.246 5.067 5.475 2.576 21.896 8.05 32.196 2.576-10.625 3.864-18.671-12.235-26.721-10.303-8.05 1.932-22.779 4.91-28.975-.966 15.129.966 23.267-11.021 40.563-.644 4.833 2.898 10.95 4.83 16.421 4.508-14.163-17.064-32.838-6.118-34.771-19.961 8.533 9.176 29.379-2.093 40.004 15.132M545.33 152.01c-1.992-2.48-1.092-4.95-3.23-6.905"/>
        </g>
        <path d="M654.8 134.31c-3.542-3.783-11.267-.805-9.096 6.842 1.692-3.541 5.313-6.52 9.096-6.842zm-21.89 20.62c2.438-1.77 4.954-3.223 7.075-3.882-1.158-2.864-2.83-5.026-4.758-6.534-1.842-1.272-7.134 5.844-2.317 10.416z" stroke="none"/>
        <path d="M623.4 141.87c-5.796-3.863-11.108-3.541-12.879-.322-4.183-.16-7.646 2.898-7.808 9.015m8.937 2.577c-6.92-4.748-16.421-2.978-15.775 7.647m-4.185 6.033c3.38-2.737 8.208-4.668 11.913.161m39.767-10.621c-1.288 1.77-2.254 4.507-.163 8.693-2.575-3.38-9.012-3.38-15.938 5.634m31.391-14.807c-8.37.966-8.208 6.439-1.45 8.854M599.1 135.43c-7.083-1.449-12.233 2.737-2.413 6.278M612.62 130.6c-9.983-2.415-14.008.16-9.5 2.415M583.8 170.69c-.32 3.542 1.608 8.21 7.404 2.898m-5.464 7.722c0 .966-.163 2.092-.808 2.897M562.55 134.14c-6.117-1.77-7.242-7.405-.158-6.922m-1.932 19.962c-6.763-2.254-6.763-8.854-1.13-8.21m13.69 4.83c-7.888-1.932-8.208-7.405-2.25-6.6m3.21-10.14c-4.183-.322-10.625 4.347.163 7.083m11.597 2.257c-9.82-1.449-9.658 2.576-3.867 5.152m11.267-14.492c-7.567-1.449-10.142 3.059-4.992 4.99m-18.828 22.86c-1.854-1.529-3.38-8.854 5.47-6.68m12.88 4.43c-5.954-1.61-11.588 4.185-6.117 7.566m13.997-14.486c-6.275-1.127-11.588.644-8.208 2.897" fill="none" stroke-linecap="round"/>
        <path fill="#fff" d="M654.46 134.31c-3.538.655-6.708 2.734-8.762 6.84"/>
    </g>
</svg>
