<svg xmlns="http://www.w3.org/2000/svg" xmlns:xlink="http://www.w3.org/1999/xlink" viewBox="0 0 750 500">
    <defs>
        <radialGradient id="a">
            <stop stop-color="#ffef5d" offset="0"/>
            <stop stop-color="#ea5700" offset="1"/>
        </radialGradient>
        <radialGradient id="b">
            <stop stop-color="#952d1a" offset="0"/>
            <stop stop-color="#570a00" offset="1"/>
        </radialGradient>
    </defs>
    <path fill="#ce1126" d="M0 0h750v500H0z"/>
    <path fill="#003f87" d="M0 35.71h750v428.57H0z"/>
    <circle cx="375" cy="250" r="196.43" fill="#fff"/>
    <circle cx="375" cy="249" r="162.81" fill="none" stroke="#552300" stroke-width="4.1"/>
    <path d="M356.19 76.24c14.72-15.8 28.04 2.45 27.68 11-.35 8.55-15.2 27.42-28.64 12.24 13.92 3.56 18.08-12 25.12-12.16-7.04.16-9.92-15.26-24.16-11.08zM202.92 200.12c-7.74-20.1 14.64-23.86 22.2-19.75 7.57 4.1 18.03 25.68-1.64 30.9 9.39-10.8-2.82-21.4.16-27.73-2.98 6.33-18.18 2.06-20.72 16.58zm330.36-19.88c20.17 7.9 7.85 26.83-.31 29.6-8.16 2.76-31.26-4.15-21.87-22.08 1.7 14.17 17.83 12.39 20.52 18.85-2.7-6.46 10.74-14.7 1.66-26.37zm-263.7 212.9c-21.58-2.14-14.92-23.68-7.83-28.56 7.09-4.87 31.2-4.47 27.1 15.32-5.52-13.17-20.55-7.09-24.92-12.57 4.37 5.48-6.3 17.05 5.65 25.81zm218.06-15.59c.3 21.52-22.01 17.4-27.7 10.97-5.68-6.43-8.03-30.26 12.25-28.46-12.56 6.94-4.76 21.07-9.75 26 5-4.93 17.79 4.26 25.2-8.5zm-269-218.31c-1.97-21.43 20.6-19.03 26.77-13.04 6.16 5.98 10.34 29.56-10.02 29.3 11.99-7.87 3.12-21.36 7.72-26.66-4.6 5.3-18.06-2.9-24.47 10.4zm23.12 201.05c-21.38-3.59-13.28-24.63-5.87-29.02 7.4-4.38 31.44-2.37 26 17.1-4.62-13.51-20.03-8.45-24.01-14.22 3.98 5.77-7.44 16.6 3.88 26.14zM410.72 77.13c19.42-9.58 25.33 12.17 21.94 20.04-3.4 7.87-24.03 20.27-31.16 1.34 11.74 8.24 21.2-4.85 27.84-2.51-6.64-2.34-3.81-17.76-18.62-18.87zm41.32 327.36c-9.63 19.28-27.6 5.51-29.69-2.79-2.1-8.3 6.78-30.56 24-19.77-14.37.49-13.93 16.59-20.64 18.7 6.7-2.11 13.86 11.86 26.33 3.86zm94.29-186.11c16.32 14.18-1.7 27.88-10.32 27.76-8.63-.11-28.03-14.33-13.1-28.08-3.22 13.9 12.57 17.61 12.92 24.6-.35-6.99 15.1-10.26 10.5-24.28zM272.4 105.04c4.87-20.97 25.56-11.7 29.54-4.1 3.97 7.6.52 31.29-18.74 24.74 13.87-3.77 9.69-19.33 15.72-22.94-6.04 3.6-16.25-8.35-26.52 2.3zm-64.13 179.69c-19-10.37-4.36-27.6 4.08-29.32 8.45-1.72 30.48 8.04 18.87 24.64.13-14.26-16.1-14.52-17.95-21.26 1.85 6.74-12.52 13.23-5 25.94zM482.8 118.48c21.46-3.09 20.24 19.41 14.54 25.84-5.7 6.42-29.2 11.81-30.02-8.38 8.56 11.46 21.67 1.96 27.24 6.24-5.57-4.28 1.96-18.06-11.76-23.7zM360.73 425.12c-19.8 8.78-24.8-13.2-21.1-20.92 3.72-7.72 24.85-19.27 31.2-.07-11.4-8.7-21.4 3.98-27.93 1.38 6.54 2.6 3.08 17.9 17.83 19.61zm177.64-120.04c8.94 19.6-13.18 24.68-20.98 21.03-7.8-3.64-19.54-24.56-.22-30.95-8.72 11.35 4.11 21.2 1.52 27.7 2.6-6.5 18.02-3.13 19.68-17.78zm-338.71-63.15c-12.44-17.63 8.36-26.68 16.7-24.52 8.35 2.16 23.78 20.56 5.98 30.38 6.46-12.75-7.99-20.08-6.65-26.95-1.34 6.86-17.13 6.39-16.03 21.09zm116.97 170.15c-20.35 7.43-23.85-14.83-19.62-22.29 4.23-7.45 26.1-17.56 31.12 2.03-10.77-9.46-21.6 2.53-27.95-.5 6.34 3.03 1.85 18.06 16.45 20.76zm-5.87-327.14c12.06-17.89 28.08-1.93 29.08 6.57s-10.7 29.44-26.37 16.53c14.3 1.36 15.97-14.66 22.9-15.9-6.93 1.24-12.2-13.54-25.61-7.2zm208.51 262.68c1.3 21.48-21.19 18.39-27.16 12.22-5.98-6.17-9.42-29.87 10.93-29-12.23 7.51-3.79 21.27-8.55 26.42 4.76-5.15 17.97 3.46 24.78-9.64zm-5.53-202.54c21.26 4.26 12.48 25.04 4.94 29.19-7.54 4.15-31.5 1.38-25.43-17.92 4.17 13.66 19.73 9.09 23.53 14.97-3.8-5.88 7.97-16.34-3.04-26.24zm-269.2-15.14c.2-21.52 22.42-16.89 27.95-10.32 5.53 6.57 7.3 30.45-12.93 28.17 12.72-6.65 5.26-20.95 10.38-25.76-5.11 4.8-17.68-4.68-25.4 7.91zm-26.88 193.97c-19.35-9.72-5.31-27.43 3.07-29.44 8.39-2 30.74 7 19.71 23.99-.36-14.26-16.59-13.97-18.67-20.65 2.08 6.68-12.07 13.65-4.11 26.1zM450 94.8c20.29-7.6 23.98 14.64 19.8 22.13-4.16 7.5-25.94 17.78-31.13-1.77 10.85 9.37 21.59-2.71 27.95.28-6.36-2.99-2-18.05-16.62-20.63zm-43.06 327.91c-15.78 14.8-27.8-4.3-26.86-12.8.94-8.52 17.05-26.36 29.42-10.33-13.65-4.47-18.87 10.8-25.9 10.48 7.03.31 8.84 15.88 23.34 12.65zm138.24-164.58c14.8 15.73-4.51 27.57-13.08 26.6-8.56-.98-26.44-17.06-10.2-29.25-4.6 13.52 10.74 18.78 10.38 25.76.36-6.98 16.06-8.7 12.9-23.11z" fill="#007f00"/>
    <path d="M355.23 99.48c13.92 3.56 17.41-11.82 24.45-11.97-4.11 4.9-14.83 17.42-24.45 11.97zm.96-23.24c14.72-15.8 28.04 2.45 27.68 11-11.95-20.83-15.69-17.62-27.68-11zM223.48 211.27c9.39-10.8-2.95-20.73.03-27.06 2.61 5.83 9.16 20.92-.03 27.06zm-20.56-11.15c-7.74-20.1 14.64-23.86 22.2-19.75-24.1 1.4-22.86 6.15-22.2 19.75zm308.19-12.36c1.7 14.17 17.4 11.83 20.1 18.3-6.1-2.04-21.74-7.43-20.1-18.3zm22.17-7.52c20.17 7.9 7.85 26.83-.31 29.6 15.24-18.6 10.86-20.9.31-29.6zM288.85 379.91c-5.52-13.18-20-6.67-24.36-12.16 6.43.3 22.95 1.26 24.36 12.16zm-19.27 13.23c-21.58-2.14-14.92-23.68-7.83-28.56-9.55 22.02-4.72 23.05 7.83 28.56zm202.61-33.08c-12.56 6.94-4.4 20.47-9.4 25.4-.43-6.37-1.35-22.77 9.4-25.4zm15.45 17.49c.3 21.52-22.01 17.4-27.7 10.97 23.14 6.91 23.61 2.03 27.7-10.97zM235.39 175.5c11.99-7.88 2.81-20.75 7.41-26.04.93 6.32 3.11 22.6-7.41 26.04zm-16.75-16.26c-1.97-21.43 20.6-19.03 26.77-13.04-23.6-5.14-23.7-.23-26.77 13.04zm43.24 189.13c-4.61-13.52-19.5-8-23.48-13.76 6.4.72 22.81 2.79 23.48 13.76zm-20.12 11.92c-21.38-3.59-13.28-24.63-5.87-29.02-11.03 21.33-6.27 22.68 5.87 29.02zM401.51 98.5c11.74 8.25 20.5-4.9 27.14-2.56-5.6 3.14-20.1 11.05-27.14 2.57zm9.21-21.37c19.42-9.58 25.33 12.17 21.94 20.04-3.72-23.69-8.36-22-21.94-20.04zm35.63 304.8c-14.37.48-13.34 16.22-20.05 18.34 2.55-5.86 9.27-20.87 20.05-18.34zm5.69 22.56c-9.63 19.28-27.6 5.51-29.69-2.79 17.4 16.63 20.07 12.5 29.69 2.79zm70.86-186.43c-3.21 13.9 12.38 16.95 12.72 23.93-5.05-3.94-17.95-14.24-12.72-23.93zm23.43.32c16.32 14.18-1.7 27.88-10.32 27.76 20.65-12.42 17.31-16.04 10.32-27.76zm-263.13-92.7c13.87-3.77 9.2-18.84 15.23-22.45-1.11 6.3-4.15 22.44-15.23 22.45zm-10.8-20.64c4.87-20.97 25.56-11.7 29.54-4.1-20.81-12.19-22.45-7.56-29.54 4.1zm-41.18 175.01c.13-14.27-15.75-13.92-17.6-20.66 5.8 2.77 20.61 10.08 17.6 20.66zm-22.95 4.68c-19-10.37-4.36-27.6 4.08-29.32-17.49 16.54-13.44 19.37-4.08 29.32zm259.05-148.79c8.56 11.46 21.02 1.69 26.6 5.96-6.31 1.26-22.58 4.28-26.6-5.96zm15.48-17.46c21.46-3.09 20.24 19.41 14.54 25.84 3.92-23.66-1.02-23.5-14.54-25.84zM370.82 404.14c-11.39-8.71-20.7 4.07-27.23 1.46 5.73-2.9 20.55-10.23 27.23-1.46zm-10.09 20.98c-19.8 8.78-24.8-13.2-21.1-20.92 2.74 23.82 7.45 22.32 21.1 20.92zm156.44-129.95c-8.72 11.34 4.2 20.52 1.6 27.01-2.96-5.66-10.4-20.33-1.6-27.01zm21.2 9.91c8.94 19.6-13.18 24.68-20.98 21.03 24-2.83 22.46-7.5 20.98-21.03zm-316.03-57.29c6.46-12.75-7.94-19.4-6.6-26.25 3.96 5.02 14 18.08 6.6 26.25zm-22.68-5.86c-12.44-17.63 8.36-26.68 16.7-24.52-23.05 7.18-20.68 11.49-16.7 24.52zm128.46 149.89c-10.77-9.46-20.92 2.67-27.26-.37 5.9-2.52 21.19-8.82 27.26.37zm-11.49 20.26c-20.35 7.43-23.85-14.83-19.62-22.29 1.1 23.95 5.9 22.78 19.62 22.29zm-3.16-304.04c14.31 1.36 15.34-14.37 22.27-15.61-3.29 5.48-11.91 19.5-22.27 15.61zm-2.71-23.1c12.06-17.89 28.08-1.93 29.08 6.57-15.1-18.72-18.28-14.97-29.08-6.57zm192.27 245.91c-12.23 7.5-3.46 20.65-8.22 25.8-.72-6.34-2.4-22.68 8.22-25.8zm16.24 16.77c1.3 21.48-21.19 18.39-27.16 12.22 23.43 5.85 23.68.95 27.16-12.22zm-26.03-191.27c4.18 13.65 19.23 8.61 23.02 14.5-6.36-.93-22.7-3.51-23.02-14.5zm20.5-11.27c21.26 4.26 12.48 25.04 4.94 29.19 11.7-20.97 7-22.47-4.94-29.19zm-254.17 2.7c12.72-6.65 4.9-20.36 10-25.17.28 6.37.81 22.8-10 25.17zm-15.03-17.84c.2-21.52 22.42-16.89 27.95-10.32-22.96-7.45-23.55-2.58-27.95 10.32zm-4.1 188.52c-.36-14.26-16.22-13.38-18.3-20.06 5.88 2.58 20.95 9.39 18.3 20.06zm-22.78 5.45c-19.35-9.72-5.31-27.43 3.07-29.44-16.9 17.12-12.77 19.81-3.07 29.44zm221.01-208.75c10.85 9.37 20.9-2.84 27.27.14-5.9 2.57-21.12 9-27.27-.14zM450 94.8c20.29-7.6 23.98 14.64 19.8 22.13-1.3-23.94-6.1-22.72-19.8-22.12zm-40.5 304.79c-13.64-4.47-18.18 10.64-25.22 10.33 4.44-4.63 16-16.4 25.22-10.33zm-2.56 23.12c-15.78 14.8-27.8-4.3-26.86-12.8 10.5 21.57 14.44 18.61 26.86 12.8zM521.9 255.48c-4.6 13.52 10.6 18.1 10.24 25.08-4.63-4.43-16.42-15.96-10.24-25.08zm23.28 2.65c14.8 15.73-4.51 27.57-13.08 26.6 21.81-10.31 18.85-14.25 13.08-26.6z" fill="#005800"/>
    <g stroke-width=".51">
        <g fill="#730000" stroke="#000">
            <path d="M405.26 125.34s.61-1.43 1.73-.61c1.02.81 1.32 4.38 1.32 4.38l-1.63.8s.92-1.31-1.42-4.57zm-9.25 31.95s.81-1.12-.3-3.56l1.62-.51s.61 1.93-.2 4.07H396m28.19-5.6-3.87 2.34 1.94.92 4.68-2.75-2.75-.51m-51.79 15.16c-1.02.81-1.12 2.24-1.73 3.05-.5.82-2.03 1.93-2.14 3.16a6.6 6.6 0 0 0 .2 3.66c.62 1.63 3.16 8.85 2.14 14.35-1.12 5.49-.7 7.83-.3 8.65.4.81 1.63 3.05 2.34 3.05 1.63-.2.92-.71 1.52-1.73 1.53-2.65 0-23.1-.7-28.8-.51-4.37-2.55-8.34-2.75-8.75-.2-.5-.61-1.83-.92-2.65-1.52-3.66-3.36-6.81-3.36-14.45 0 0-4.98 1.13-9.25-8.54-2.24-4.89-5.5-4.38-9.36-6l1.73-1.13s3.25 1.63 4.88 1.63 1.12-3.25 1.12-3.25l1.63-1.63v7.12c0 3.26 4.48 7.73 7.12 9.06 1.63.81 3.77-2.55 3.26-5.8-.51-3.26 0-7.63 0-7.63l2.24 1.32s-.82 1.42-.61 2.24c.3.81 1.42-.82 2.23-1.63 0 0 .2.2 1.02.2 0 0-1.63 2.75-2.44 4.17-.81 1.33-.81 6.52-.81 8.45 0 1.94.71 6.41.71 7.83 0 1.03 1.93 5.2 3.46 7.74.5 1.02 1.73 3.66 1.73 3.66 1.22 1.93 1.32 3.26 2.03 4.89.4.81 1.12 3.15 1.63 7.22.2 1.02.4 4.89.71 7.43.3 2.44 2.34.5 4.78-1.22 2.45-1.83 2.45-6.2 2.45-6.2s1.93-1.64 1.62-.72c-.2 1.02 1.02 2.04 1.02 2.04-1.52 3.45-.6 3.05.92 2.95 1.52-.21 6.81-4.18 6.81-4.18.72-.2 3.87-.2 3.36 0-.6.3-1.42 1.83-1.42 1.83l3.46-.4c-1.23.91-5.8 3.56-6.82 4.17a93.97 93.97 0 0 1-8.95 4.27c-2.34 1.02-6.92 3.26-7.12 5.6-.1 2.34.3 8.65 0 10.68-.2 2.04-1.02 11.1-1.02 11.1h-10.89s2.14-7.94-.1-10.08c-2.14-2.24-7.12-8.75-10.38-10.99-3.26-2.14 2.14-.5 2.14-.5v-2.25l4.98 6.01s8.65-7.63 0-18.01c-2.75-3.26-5.5-8.24-7.63-8.75-2.24-.61-3.36-1.12-7.12 0-3.87 1.12-13.13 1.12-17-4.99l3.27-.5 2.74-1.13s-1.12 3.87 6.61 3.87c7.63 0 8.75 0 8.14-7.12l2.24-1.12 1.63 1.63s-1.12 3.86-.51 5.5c.5 1.62 3.26 2.74 5.4 4.37.9.7 1.62.81 2.23.81.92-.1 1.12-.1 2.34-1.32 1.83-2.04 1.42-1.94 3.26-3.56 0 0 .91-1.43 1.12-1.63l1.12 2.95h-.01z"/>
            <path d="M374.03 161.46c.4-.4 1.22-1.93 1.93-3.26 1.22-2.03 2.65-3.25 4.27-5.8 1.53-2.34 2.14-5.8 1.53-8.24l1.42.82.1 3.86s1.94-1.63 2.76-2.03l.8.4s-6.1 6.31-11.8 16.49l-1.01-2.24zm-53.51-21.16c.81 1.42 1.63 4.17 4.07 6.3l1.63-.5s-3.77-4.38-3.77-6.3l-1.93.5m9.56-2.45s.5 5.19-.81 7.12l1.62-.8s1.12-3.57.82-5.5l-1.63-.82zm53.62-16.38s-.3 7.33 1.12 11.8l1.93-.6s-.3-1.33 1.32-1.94c1.63-.51 5.5-2.14 7.43-3.77l-.6-1.62s-2.96 2.34-4.38 2.95c-1.33.5-2.14 1.11-3.26.81-1.12-.3-2.44-2.14-1.63-6.3l-1.93-1.33m21.56 34.19s-.5 5.19-.2 7.43l1.73.4s-.4-6.2.7-6.7l-2.23-1.13m7.74 3.87s-1.93 3.36-4.17 3.66l3.56-.71s1.02-.5 2.54-2.13l-1.93-.82"/>
        </g>
        <g fill="#289400" stroke="#030">
            <path d="m381.87 144.16 1.32.81 1.43.2s1.52 1.43 3.25 2.75c1.32 1.12 1.32-.2 1.32-.2l.81 3.26h1.12s-.3 2.13-.3 3.25l1.93-1.63 2.24 1.94s1.63-1.43 2.44-1.43 1.12-.8 1.12-.8h.1c-5.39-2.56-7.73-5.2-6.1-7.95 2.65-4.58 7.02-1.63 8.44-1.01l19.74 10.58s1.32-.82.4-1.63c-1.01-.81-1.42-2.85-1.11-3.66.3-.82 2.54 2.54 3.66 2.84 1.12.31 3.66.72 3.66.72l-.1-1.02s3.25 2.24 3.25 3.36c0 0 2.34-1.22 1.53-1.94-.82-.7 3.56 1.74 3.86 3.06l.92-1.02c-.1 0 .3-3.26 1.42-4.78 1.02-1.53 2.14-1.94 2.14-1.94s1.02-1.73 2.03-1.73c0 0-1.02-.7-1.42-1.52-.51-.82-1.73-1.22-1.73-1.22s1.52-1.12 1.93-1.63c.4-.61.82-.72.82-.72s-2.34-1.93-3.97-2.23c0 0-.1-2.65-2.14-2.85h.92s-1.53-2.85-2.95-2.95c0 0 .91-1.02 1.73-1.12 0 0-1.73-2.24-4.07-1.42l1.52-.61s-1.12-1.22-4.57-.61c0 0 .3-1.43-1.22-2.55 0 0-1.33.1-1.33 1.12 0 0-1.22-1.12-2.74-1.12-1.53 0 .5 1.63.5 1.63s-2.03-1.32-3.25-.91c0 0 .5-2.34-.81-3.57 0 0-1.53.82-1.94 1.84l-.4-1.02s-2.04 2.44-2.44 1.73c-.3-.4-.61-2.14-.61-2.14l-1.22 1.84.2-2.55s-1.42.81-2.54 3.46c0 0-1.43 1.32-1.43 2.54 0 0-1.12-1.32-2.14 0-.91 1.42 0 1.12 0 1.12s-.4.5-1.42.71l.2.81s-1.32-.7-2.33-.4l.5 1.22s-2.64.2-2.74-1.93c0 0-2.24-1.12-2.55.1l-1.62 1.02s-.51-1.02-1.43-1.22c-1.02-.3-.2 1.32-.2 1.32s-.3-1.22-1.53-1.83c-1.22-.51-.2 1.12-.2 1.12s-1.63-1.33-.81-2.34c0 0-1.53 1.42-.82 2.75l-1.01.7s-.51-.5-.41-.91c.1-.4-1.73 1.22-1.73 1.22s-1.12-2.64 0-2.64c.1 0-1.93-.1-2.24 2.24 0 0-1.32.1-2.54.5-1.32.4.91 1.33.91 1.33s-1.93-.41-3.05.2l.71.92s-.71-.72-2.44-.1c-1.83.5.4.8.4.8s-1.82-.4-2.74 0c-.92.41.3 1.12.3 1.12s-3.35-1.01-3.86-.7c-.5.3 1.12 1.93 1.12 1.93s-2.04.5-2.44 2.03l1.83.71s-.81.4-1.22 1.23c-.4.8 1.22.4 1.22.4s-2.24 1.63-2.24 2.85c0 0 1.63.5 2.85-.71s.4-.82.4-.82l.1.82s2.35-1.02 2.35-1.63c0-.5-.4.81-.4.81l2.34-1.22 1.52 1.02z"/>
            <path d="m379.93 112.42-.5-2.24 5.18.61.91-2.13s2.45 1.11 3.26 1.92c0 0 4.78-1.21 6.2-.7l-.6 2.23s4.37.3 5.8.82c1.32.5-.61 1.63-.61 1.63s4.98.6 7.12 1.93c2.24 1.32 2.24 2.44 1.12 2.74l2.74 4.38s-4.37.5-5.18 1.62c-.82 1.12-1.63-1.11-1.63-1.11l-.82 3.05s-2.74-1.43-3.86-2.44c0 0-1.32 1.63-.5 2.44l-5-3.26s-2.13-.3-2.13 1.63c0 0-2.44-2.75-3.05-3.56l-2.75.81s-.81-1.11-1.83-1.42c-1.12-.2-.3 1.42-.3 1.42l-1.63-1.93-1.63-1.93s-1.43 1.93-2.55 1.93c-1.02 0-1.02-1.32-.81-2.24.3-.81-3.26-1.01-3.56 0 0 0-1.02-4.07 2.75-5.18l3.86-1.02zm-19.73 13.94-1.73 1.63-1.02-.5-2.03 2.23-.4-1.22-1.13 1.83-1.73-.61-.81 1.32-1.53-.3s-1.32 1.22-2.13 1.52c-.82.2 0-1.83 0-1.83s-1.22 2.03-2.14 2.03c-.81 0-.5-.91-.5-.91s-.52 1.32-1.53 1.52c-.92.1-.51-1.01-.51-1.01l-1.63 1.22v-1.02l-.71-.3s.4-1.84 1.12-2.24c.7-.41-.71-1.63-.71-1.63l.7-.81s-2.03-.51-2.03-.1c0 0 1.02-2.75 2.44-3.26l.1-3.05s1.43-1.22 2.75-1.33c1.43-.2-.4-2.34-.4-2.34l3.25-1.93.4-2.34 5 .4 1-2.13 3.98 1.02 3.35-1.73 2.44 2.85 3.67.3s-.1 2.54-.1 3.26c0 0 4.37 1.32 4.88 1.73 0 0-.82 2.64-.82 3.15 0 0 3.06-.81 3.97-.6l.4 3.55s5.2 1.63 5.5 2.55c0 0-1.12.7-1.73 1.63 0 0 .61 3.15.61 4.17l-.4.6s-1.53-1.42-2.75-1.62l-1.02 2.24-1.83-1.22-1.12.1s-.92-1.12-1.63-1.12l-.1-1.02-1.43.92s-2.23-1.12-2.23-1.83c0-.61.1-1.63.1-1.63l-2.34 1.63s-.5-1.22-.4-1.73c.1-.51-.92 1.22-.92 1.22s-1.22-2.14-1.12-2.55l-.3 1.73s-2.45-.8-2.75-2.44z"/>
            <path d="M327.64 136.33s4.27 2.14 4.27 3.16c0 0 1.12-2.24.51-3.06l1.63 1.12s.5-2.03-.1-2.64c-.51-.51 3.66-2.24 4.57.5 0 0 2.55-2.64-2.33-4.88 0 0-.41-1.62 2.54-1.22 0 0-.2-1.01-.92-1.42h2.85s-1.73-1.43-4.27-1.83c-2.44-.41-.92-.71-1.02-1.23-.2-.5 0-2.34 0-2.34s-1.42-.5-2.54.1l.4-.5s-2.64-.71-3.66-.1c0 0-1.52-.62-1.32-2.25 0 0-1.53-.1-2.24 1.53 0 0-1.42 1.63-3.35 1.63-.4 0-1.84-.82-1.84-.82l-1.22 2.85-1.93-.1.61 1.12s-2.95-.81-3.87 0c0 0 1.12 1.73.82 2.95 0 0-2.34.4-2.85.82-.61.4.81.7.81.7s-2.64.82-3.26 1.64l1.02.8-1.22 1.64 1.02.2s-1.73.5-2.64.81c-.92.3 1.62.51 1.62.51l-1.22 1.12 1.94.3s-1.53 4.08-1.63 6c0 0 2.34-2.84 2.95-3.04l-1.83 3.05s3.46-1.12 3.77-1.63c.3-.61.6-1.12.6-1.12l.1 1.73s1.33-1.83 1.53-2.54c.1-.71 2.14.7 2.14.7v-1.01s1.83.6 2.44.71c.71.1.81-.3.81-.3l1.73-.2-.3 1.42s1.22-.82 1.52-1.63c.2-.82.81 0 .81 0l.81-3.26h1.73l.01.01zm-13.94 14.45 1.63 3.36c-1.32.1-3.26 1.62-3.26 1.62.3 5.6-1.12 5.3-1.12 5.3.4 1.01-.25 2.9-.25 2.9l8.09-4.84.1-.5 9.56-4.48.3.5 2.75-1.52 1.94 5.08-1.94 1.12c.1 1.73 2.14 4.79 2.14 4.79l2.54-.61 2.75-1.02s.1 1.52.1 1.02c0-.41 2.95-1.42 2.95-1.42l1.33 1.32c1.02-.1 2.84-2.55 2.84-2.55l2.14.82s.71-1.22.71-2.14c0-.81 2.65-.81 2.65-.81l1.83 1.32 2.34-1.93s.71 1.42 1.63 1.62c1.02.1 3.56 2.04 3.56 1.63 0-.4 1.12-2.64 1.12-2.64l4.27 1.73c-.6-1.94-2.03-4.28-2.03-4.28s2.03-1.62 1.62-2.03-1.62 0-1.62 0l1.22-2.44h-1.63l.5-.61-2.64-1.12 1.42-2.85c-.6-.71-7.62-2.14-7.62-2.14l1.62-1.52s-.81-1.22-1.62-1.22-5.1.1-5.3-.3c-.1-.41-1.83-1.94-1.83-1.94l-2.64 1.94-1.33-.41-2.34.91s0 1.33-.3.4c-.3-.8-2.44-2.94-2.44-2.94-.4.7-3.16 3.97-3.16 3.97s-.4 1.73-1.32.5c-1.02-1.22-3.15-2.54-3.46-1.52-.3 1.12-2.23 2.13-2.64 1.83-.4-.3-2.65-.1-2.85.5-.1.72-2.55 2.55-2.55 2.55-1.52-.7-3.97-.3-3.97-.3s-.7 1.12-.8 2.03l-5 1.32h.01zm45.99 41.21v-2.14l2.44 1.63 1.43-1.63 1.83 1.83 1.12-1.83v2.95l2.74-2.44 1.63.71v-2.34s1.93-3.25 1.12-3.86l1.63-.51s-2.75-2.75-3.56-3.26c-.82-.6-1.94-.6-1.94-.6s-2.13-2.15-3.56-2.75c-1.32-.51-2.14.6-2.14.6s-.8-1.62-2.23-1.93c-1.32-.3-1.32 1.12-1.32 1.12s-1.02-1.02-2.34-1.53c-1.33-.6-.41 1.22-.41 1.22l-4.68-1.42.6 1.42-4.37-1.11.51 1.63-3.05-.52-.2 1.33-4.38.81.82 1.43-2.75-1.12v1.93l-3.05 1.12 1.12 1.02s-4.07 1.93-4.89 2.54c-.81.51 1.63 1.63 1.63 1.63l-4.37-.61 1.62 1.42-3.86 3.57 2.74 1.93-1.62 2.44 4.07.81 1.62 2.75 3.36-.61v3.05l4.88-3.86s3.57 3.15 3.87 2.23c.2-.81.2-3.56.2-3.56h1.73v-2.74l1.32 1.11 2.24-3.25 2.95 4.07 2.24-5.19 3.25.5.01.01zm19.94-12.31-.5-4.68-1.43 1.42.6-4.37-2.23-.4.81-4.28-1.62-.82.4-2.03 1.63-1.22 2.95-2.85 6.81.1.82-2.23 4.88.81c.81.92 3.36-1.83 3.36-1.83h1.02l1.12 2.13s3.56-.5 5.18.61l-1.93 2.65 3.56.3 2.44.51 2.54-.81 3.26-.2.81 1.32h3.06l-1.02 1.22 3.97 1.83-.82.81s2.24.82 3.87.82h.81s.81 1.93-.3 2.74c0 0 1.11 2.75 3.56 3.26 2.44.5 2.44.5 2.74 1.12.31.5 0 3.25-2.74 3.25v2.75s-2.14 1.94-2.44 2.75l-1.63-1.12s-1.43 1.63-1.43 2.75c0 0-3.56-4.69-4.88-4.9-1.42-.3-1.12 2.66-1.12 2.66l-3.86-3.26-.51 2.24-3.26-2.75-1.93 1.32-3.46-3.56-3.36.41 1.32-1.73h-4.07l-.81-3.56-.61 2.95-2.44-1.63-3.15 3.46s-.41-.4-.92-2.03c-.5-1.63-1.93 1.93-1.93 1.93l-1.12-2.55-1.33 2.55s-1.12-1.94-2.23-2.55c-1.02-.5-2.14 3.06-2.44 4.69zm.61 10.68.2-1.63 5.8-2.24 4.89-1.83 2.43-1.12 1.12 1.94 1.43-2.75 2.24 2.85 1.22-1.53 1.93 1.43h1.63l.3 2.14s4.07.3 4.38-.51c.3-.82.8 2.74.8 2.74l3.87.51.82 4.38s1.93 4.07 1.32 5.7c-.51 1.73-2.14-2.14-2.14-2.14s-.3 3.05-.6 3.86c-.21.82-5.2-.8-5.2-.8l-2.13 4.06s-2.24-3.25-3.26-3.25c-1.12 0-1.12 3.25-1.12 3.25s-3.25-3.87-4.68-5.5c-1.32-1.62-1.62 1.63-1.62 1.63s-2.14-3.56-2.14-4.57c0-1.12-1.93-2.24-1.93-2.24s-3.36 3.86-5.8 4.88c0 0 .3-2.44-.51-3.25-.82-.82-3.26 1.62-3.26 1.62s-1.73-3.76 0-7.63h.01z"/>
        </g>
        <g fill="none" stroke="#004b00">
            <path d="m407.1 129.71.5 2.04s1.84-.41 3.06-.31c0 0-.3 1.63-.71 2.34 0 0 2.44-.4 3.56.3l-.5 1.22 2.84 1.22-2.64 2.14s4.27 1.53 5.08 2.75c0 0-2.74 1.93-3.15 1.83-.4-.2-.1.81.6 1.73l-2.33-.1s.91 2.13.81 2.95c-.1.81-3.87.6-3.87.6m14.65-5.48s.71-4.07-.4-5.09c0 0 2.64 2.24 4.37 2.34 1.83.1-.1-3.35-.1-3.35s2.54 1.32 3.76 1.62c1.22.2-.92-2.54-.92-2.54s.72-1.32 2.75-.1m-47.3-16.18s.1-.92-.3-1.42c-2.45-3.36 2.54 2.54 3.55 2.74m4.68 0s1.63 1.22 2.44 1.22c.82 0-.5-3.26-.91-3.66-.41-.41 2.95 1.32 4.17 1.52 1.22.3 1.42-2.03 1.42-2.03s3.77.6 4.58 1.12m-26.15-.71s-.3-2.14-.4-3.05m-25.23 13.23c-.2-.4 1.02-2.24.5-3.05 0 0 .72.6 1.43.71.61.1.4-2.34.4-2.34l.82.3s2.14-1.02 1.73-1.83c-.4-.81 1.42 1.22 1.42 1.22s1.23-1.22 1.23-1.73 1.42 1.22 1.42 1.22 1.52-.3 1.52-1.22c0-.91 1.94.3 1.94.3s.8-1.11.7-1.83m-20.54 10.18s.91-2.13-.1-3.56m-24.62 10.27c.1-1.02.6-3.76.1-4.17-.5-.4 1.02.4 2.24.71m9.66-.4c-1.22-1.22-1.93-1.83-3.86-1.83m-16.79 8.64c.3-.71.81-2.44.5-3.46m26.05 53.93 1.32-2.75 1.63 3.87 1.12-2.44.4.81 2.44-2.64 2.65 3.96m42.43-17.19 1.73-3.46 2.34 1.22 1.12-3.35 2.44 1.52 1.42-3.15 2.75.71.2-2.24s1.94 1.12 2.44 1.93c.61.82 0-2.74 0-2.74l2.24 1.02s1.63-1.63-.6-2.55"/>
            <path d="m399.57 169.91 2.44 3.56 2.03-2.34 1.84 3.97 2.34-1.42 3.35 1.93 1.53-1.22 3.66 2.64 1.52-3.15 3.26 1.02 2.14-3.66m-87.9-9.57s1.43-2.45.92-3.56c-.62-1.12 2.95 1.93 2.95 1.93s.8-2.44.3-3.56c-.61-1.12 4.07 3.26 4.07 3.26s.81-3.77 0-4.58c-.81-.82 4.48 1.12 4.48 1.12s2.13-.61 1.32-1.73c-.82-1.12 3.56 1.62 3.56 1.62s1.02-2.74 0-3.76c-1.12-1.12 3.25 1.32 3.25 1.32l-1.62-2.95 3.56.2-.3-3.25m31.53 47 2.34-1.12 2.03 2.04 2.24-3.56 2.75 2.64.4-2.64 2.95 1.22.62-1.63 3.25 1.73.3-2.44 1.63.5.3-1.62"/>
        </g>
    </g>
    <path fill="#9dd7ff" d="M336.59 310.53a72.75 72.75 0 0 1-6.2-13.53l44.04-38.77 44.06 38.66a67.3 67.3 0 0 1-6.4 13.84l-.36.57c-.81-.3-3.31-1.28-3.31-1.28s-1.43 1.33-2.54 1.43c-1.53.2-2.85-1.32-2.85-1.32s-1.94 1.62-3.87 1.32c-1.93-.2-2.75-1.43-2.75-1.43s-2.03 1.63-3.46 1.33c-1.32-.31-2.23-1.23-2.23-1.23s-1.22 1.53-2.95 1.23c-1.63-.31-3.16-1.23-3.16-1.23s-2.54 1.12-4.17 1.32c-1.62.31-3.05-1.42-3.05-1.42s-2.14 1.42-2.95 1.42-3.86-1.42-3.86-1.42-3.16 1.02-4.28 1.02c-1.02 0-4.17-1.32-4.17-1.32s-2.95.8-4.27.8c-1.42 0-3.46-.8-3.46-.8s-2.44 1.11-3.76.8c-1.43-.3-2.55-.8-2.55-.8s-2.64 1.11-4.37.8c-1.63-.3-3.56-1.41-3.56-1.41s-.3.81-3.46 1.42h-.1"/>
    <path fill="#fff" stroke="#000" stroke-width=".71" d="M374.44 213.66v44.57l-44.05 38.97a87.68 87.68 0 0 1-4.58-28.29v-55.25h48.63"/>
    <path fill="#ffd83c" stroke="#000" stroke-width=".71" d="M374.44 213.66v44.57l43.95 38.97a87.7 87.7 0 0 0 4.58-28.29v-55.25h-48.53"/>
    <g stroke="#000" stroke-width=".51">
        <path fill="#730000" d="M346.02 301.27c3.31 1.8 2.19 1.23 9.05 3.66 5.6 1.94 12.11 2.85 21.57 2.85 8.28 0 12.94-.66 15.56-1.38 2.72-.78 3.37-1.88 3.37-1.88l-6.82 6.92s-27.4 1.48-32.35-1.73c-1.93-1.02-6.1-4.37-10.38-8.44z"/>
        <path d="M386.21 288.35s8.75 4.98 0 14.55m-39.37-1.12 12.62-12.01-1.43 16.08m6.61 1.42v-26.86m21.57 26.86v-28.49m-10.89 29v-30.63" fill="none"/>
        <path d="m364.64 281.84-5.7 1.83 5.7.61v-2.44m10.68-4.18-6 2.24 6 .2v-2.44m10.89 1.63-6 2.24 6 .3v-2.54zm3.56 12.93c-.3-1.22 3.56-1.12 3.56-1.12s1.12 4.07 0 6.61l-3.25-.6s.3-2.75-.31-4.89z" fill="#ff0018"/>
        <g fill="#fff">
            <path d="m348.77 300.15 10.68-10.38-.5 6.2s-5.5 3.57-5.5 6.11l-4.68-1.93m5.69 2.14s1.12-3.26 4.17-4.88l-.3 6.5-3.87-1.62zm15.37-18.01s4.37-.61 7.63 0c0 0-.5 4.38 0 5.19 0 0-6-1.43-8.44.81 0 0-.82-4.07.81-6zm-9.26 1.12s4.38-.61 7.63 0c0 0-.81 4.89-.3 5.7 0 0-4.9-2.75-7.33-.51 0 0-1.63-3.36 0-5.19z"/>
            <path d="M360.26 291.09s4.37-.5 7.63 0c0 0-.5 4.38 0 5.2 0 0-5.7-1.33-8.14.8 0 0-1.12-4.07.51-6zm8.75-.81s6.3-.81 9.56-.3c0 0-1.32 3.56.3 6 0 0-6.8-1.83-9.35.3 0 0-2.14-4.07-.51-6zm-9.25 6.82 8.44.6s-.81 6.22-.3 7.03c0 0-6.82-1.63-8.14.6 0 0-2.24-5.69 0-8.23zm9.56 0s7.32-.51 10.68 0c0 0-1.93 4.68.2 8.75 0 0-9.56-2.74-10.88-.51 0 0-2.24-5.7 0-8.24zm11.19-12.82s4.37-.61 7.63 0c0 0-.5 4.38 0 5.19 0 0-6-1.43-8.44.81 0 0-.82-4.07.81-6zm0 6s4.37-.5 7.63 0c0 0-.5 4.38 0 5.19 0 0-6-1.32-8.44.81 0 0-.82-4.07.81-6zm.51 6.31s4.37-.6 7.73 0c0 0-1.12 6.82-.6 7.63 0 0-5-2.34-7.33-.3 0 0-1.43-5.4.2-7.33z"/>
            <path d="M390.07 297.1s1.42 5.19 3.25 5.8l-2.44 2.95s-2.95-2.14-3.25-4.58c0 0 1.93-2.24 2.44-4.17z"/>
        </g>
    </g>
    <g stroke="#000" stroke-width=".61">
        <path fill="#006ac8" d="M411.88 311.14c-7.02 11.7-18.52 22.69-37.44 29.5-19.23-6.91-30.93-18.4-37.84-30.01l.1-.1c3.15-.62 3.46-1.43 3.46-1.43s1.93 1.12 3.56 1.43c1.73.3 4.37-.82 4.37-.82s1.12.51 2.55.82c1.32.3 3.76-.82 3.76-.82s2.03.82 3.46.82c1.32 0 4.27-.82 4.27-.82s3.15 1.32 4.17 1.32c1.12 0 4.27-1.01 4.27-1.01s3.06 1.42 3.87 1.42 2.95-1.42 2.95-1.42 1.42 1.72 3.05 1.42c1.63-.2 4.17-1.32 4.17-1.32s1.53.92 3.16 1.22c1.72.3 2.95-1.22 2.95-1.22s.91.92 2.23 1.22c1.43.3 3.46-1.32 3.46-1.32s.81 1.22 2.75 1.42c1.93.3 3.87-1.32 3.87-1.32s1.32 1.53 2.84 1.32c1.12-.1 2.55-1.42 2.55-1.42s2.54.81 3.45 1.12" stroke="none"/>
        <path fill="none" stroke-width=".51" d="M410.15 313.79c-1.52.1-1.73-.92-1.73-.92s-2.03 1.74-3.97 1.43c-2.03-.3-2.95-1.63-2.95-1.63s-2.13 1.73-3.56 1.43c-1.42-.2-2.44-1.23-2.44-1.23s-1.32 1.53-3.05 1.23c-1.73-.2-3.26-1.23-3.26-1.23s-2.74 1.13-4.47 1.43c-1.73.3-3.16-1.63-3.16-1.63s-3.97 1.33-4.78 1.33c-.91 0-3.76-1.33-3.76-1.33s-1.94 1.23-3.06 1.23c-1.22 0-4.47-1.43-4.47-1.43s-3.06.82-4.48.82c-1.42 0-3.56-.82-3.56-.82s-2.65 1.12-4.07.82c-1.42-.31-2.54-.82-2.54-.82s-2.85 1.12-4.58.82a15 15 0 0 1-3.77-1.43s-.3.71-3.66 1.43h-.1"/>
        <path fill="#5ac800" d="M346.97 317.94s-.28.67-2.94 1.25c-.05 0-.72.16-.72.16l.66-.13-.75.25c3 4.34 7.5 8.27 12.18 11.42 4.68 3.16 10.06 6.93 19.23 9.61 9.63-3.76 12.2-5.19 18.5-9.4 6.3-4.6 9.58-7.47 13.09-12.2-2.75 1.57-2.36 1.59-3.78 1.38-1.43-.3-2.47-1.34-2.47-1.34s-1.3 1.55-3.03 1.34c-1.73-.3-3.25-1.34-3.25-1.34s-2.26 1.54-4.5 1.44c-1.73-.1-3.16-1.63-3.16-1.63s-3.97 1.31-4.78 1.31c-.92 0-3.75-1.3-3.75-1.3s-1.94 1.21-3.06 1.21c-1.22 0-4.47-1.44-4.47-1.44s-3.05.82-4.47.82-3.56-.82-3.56-.82-2.54 1.12-4.06.82c-1.43-.3-2.57-.82-2.57-.82s-2.83 1.12-4.56.82c-1.73-.3-3.78-1.41-3.78-1.41z"/>
        <path fill="#ffd800" d="M374.63 340.51c9.95-4.14 11.75-5.27 17.77-8.95-1.05.03-4.1-.96-3-1.27 0 0-1.22 1.1-2.44 1.1-1.12 0-4.38-1.42-4.38-1.42s-3.05.81-4.47.81-3.56-.81-3.56-.81-2.65 1.12-4.07.81c-1.43-.3-2.55-.81-2.55-.81s-2.95 1.12-4.57.81c-1.73-.3-3.77-1.42-3.77-1.42s-2.5 1.32-4.08 1.48c4.81 3.52 9.88 6.96 19.12 9.67z"/>
    </g>
    <g stroke="#000" stroke-width=".51">
        <path fill="#b34b00" d="M367.88 259.34c1.98-1.61 3.11-3.16 2.45-4.36-.74-1.04-1.9.64-3.21.25 0 0-1.98-1.22-2.52-2.1-1.15-1.28-2.63-2.43-3.49-3.53-.9-1.02-4.3-5.53-9.49-10.7-1.49-.98-1.15-4.66-2.22-5.8-.09-.8-10.35-10.96-14.02-14.64-1.48-1.09-2.26-1.8-4.86.57-2.06 1.85-2.8 3.76-.1 6.07l13.35 12.15c1.96 1.9 4.68 2.24 5.82 3.22l13.58 13.88c1.7 1.48 2.53 2.53 1.56 3.8-1.07 2.07.08 2.35.32 2.41.16.09 1.12.08 1.76-.4l1.07-.82z"/>
        <path fill="none" stroke-width=".5" d="m334.02 222.92 13.96 13.8"/>
        <path fill="#fff" stroke-width=".57" d="M352.92 229.22c.22-.41.69-1.47 1.19-2.63.2-.45 3.95-6.44 5.82-6.62 0 0 11.68 8.5 11.69 8.61.03.46-5.07 8.1-5.51 7.51 0 0-13.68-5.74-13.19-6.87z"/>
        <path fill="#ccb8c8" d="M360.36 231.22c-1.6-1.24-4.24-2.45-6.38-3.88l-.95 2c.77.87 10.48 5.39 12.08 6.25 0 0-1.85-2.12-4.75-4.37z" stroke="none"/>
        <path fill="none" stroke-width=".4" d="M353.98 227.09c1.25.88 3.63 2.38 5.13 3.25 2.87 2 4.69 4.2 6.75 5.38"/>
        <path fill="#782121" d="m330.32 263.48 26.59-32.9c.5-.46 2.96-.48 3.3 2.06l-25.18 34.32s-2.87-.28-4.71-3.48z"/>
        <path fill="#730000" d="M419.44 263.84c-.92.71-2.47.9-2.47.9-1.73-2.04-3.16-4.17-5.6-6.82l-26.55-32.66 2.74-2.64 23.9 27.98c.72.7 4.9 5.08 8.86 10.27 0 0 .35 2.03-.88 2.97z"/>
        <path fill="#fff" d="m393.87 229.43-4.27-5.09s-3.26.4-3.87 2.14c0 0-2.34 3.87-8.54 4.27 0 0 1.72 7.23 8.95 11.1 0 0 2.64-7.44 5.19-8.76 0 0 2.64-1.93 2.54-3.66z"/>
        <path fill="#730000" d="M383.19 252.02c-.6-.2-1.22 0-2.14.5-.8.52-1.83.31-1.73-.7.1-.92 0-.82 1.12-1.53a6.52 6.52 0 0 1 5.09-.5l-2.34 2.23m28.99-28.9c-.2-.71-.4-1.42.3-2.34.72-.81.72-2.24-1.01-1.52-1.73.7-2.34 2.64-.92 5.6l1.63-1.74z"/>
        <path fill="#fff" d="m382.58 252.63 30.11-29.91 7.43 7.93s-1.53-.61-2.14-.2c-.5.4.61 1.93.61 1.93s-1.42-.5-2.03-.1c-.71.4 0 2.13 0 2.13s-1.22-.91-1.83-.5c-.51.4 0 2.33 0 2.33s-1.63-.5-2.04-.1c-.4.4 0 2.14 0 2.14s-1.63-.81-2.44 0 .4 1.93.4 1.93-2.03-.81-2.84.4c-.81 1.23.1 2.35.1 2.35s-1.63-.81-2.03-.41c-.4.4 0 2.34 0 2.34s-1.43-.81-2.34.2c-.92 1.13.1 2.04.1 2.04s-1.32-.81-2.04-.41c-.7.41.2 2.34.2 2.34s-1.31-.92-2.23 0c-.91 1.02 0 2.04 0 2.04s-1.12-1.02-2.24 0c-1.02 1.12 0 2.23 0 2.23s-1.62-.8-2.23 0c-.71.82.2 1.94.2 1.94s-1.22-.71-2.03-.31c-.82.4 0 2.24 0 2.24s-1.22-1.32-1.73-.6c-.61.7.1 2.43.1 2.43s-1.12-1.32-1.73-.6c-.71.6.4 2.13.4 2.13s-2.03-.92-1.52-.92z"/>
        <path d="m410.96 225.16-2.34 2.34.5 8.04s.52-2.34 1.23-.72c0 0 .2-1.93.71-1.62-.4-.2-.1-8.04-.1-8.04m-4.37 4.37-1.73 1.63.61 8.04s.51-3.06 1.22-.61c0 0-.1-2.04-.1-2.75v-6.31m-18.21 18.02-1.63 1.73.41 4.88s.5-3.15 1.22-.71c0 0-.2-2.03-.2-2.75 0 .51.2-3.15.2-3.15" fill="#7e4b7e" stroke="none"/>
        <g fill="none" stroke="#7e4b7e" stroke-width=".92">
            <path d="M386.34 227.4a95.54 95.54 0 0 1 4.27 5.19m-2.84-2.95c-.2.61-.6 2.34-1.52 3.26m2.02-2.86c-.1.4-.1 1.73-1.52 3.05m2.03-2.43c-.2.71-.3 1.22-.81 1.73m1.12-1.12c0 .5-.3.61-.4.92m-3.36-2.86c-.4.4-3.36 2.34-4.99 2.95m4.17-1.83c-.4.4-2.24 1.83-3.26 2.24m2.96-1.02c-.6.41-1.63 1.42-2.44 1.73m1.83-.51c-.4.5-1.02.92-1.52 1.22"/>
            <path d="M365.94 234.01c.33-.61.91-1.82 1.67-2.92.96-1.4 1.37-1.63 1.87-2.12" stroke-linecap="square"/>
        </g>
    </g>
    <path fill="#289400" stroke="#060" stroke-width=".51" d="M267.72 316.03c1.53.71 0-4.99.5-7.12.62-2.24 5 5.5 7.13 6.51 2.24 1.12 15.87-5.4 15.87-5.4l3.26-6.1 1.73 4.99s3.76-4.38 4.88-6c1.12-1.63 0 3.25-1.12 4.88s3.25 2.24 2.74 5.5c-.5 3.25 4.38-2.24 4.38-2.24l12.62 1.11s2.13-7.63 5.49-12l1.02 4.88 5.18-5.29c5.8 15.27 18.01 31.85 43.04 40.9 23.5-8.54 35.6-23.7 41.91-38.15l7.02 7.23s5.5-1.63 6.51-2.24c1.12-.51 12.92 4.17 12.92 4.17s2.14.81 3.26 1.63c1.12.81.3-3.56.3-3.56s6 1.12 5.5 4.37c0 0 1.32-3.05 2.44-3.56s3.76 2.75 4.37 3.87c.51 1.02 13.43 2.64 15.26 3.76 0 0 1.43 1.63 1.43 2.75 0 0 2.75-.3 4.88-.3 0 0-1.62.8-1.62 2.54 0 1.63-.82 2.95-2.45 3.76-1.62.82 0 1.43 2.14 1.63 2.24.3 0 3.05-4.37 4.69 0 0-1.02 2.43.81 3.25 0 0-3.77.3-4.38-.81 0 0-1.32 2.54-1.32 3.86 0 0-4.06-1.32-5.18-1.93 0 0-1.63 1.62-.51 2.44 0 0-7.43-.81-8.85-3.56 0 0-2.65.81-2.14 1.73 0 0-5.19-3.56-6.82-3.56l-1.11 1.83s-3.57-2.14-4.69-2.14c-1.02 0-.2 1.63-.2 1.63l-4.98-3.05-1.94 3.05s-4.07-1.94-5.18-2.75c-1.02-.81-1.32 1.63-2.14 1.93 0 0-1.63-2.23-3.87-1.93 0 0-.8 2.75-.5 3.56 0 0-6.31-1.32-7.43-1.63-1.12-.3-.5 1.33 0 2.45 0 0-4.68-1.33-5.7-2.14l-.3 2.14s-3.87-.31-4.68-1.12l-2.44 3.35h-3.56l-.82 2.95s-6.81-1.93-7.42-.8c-.51 1.1.3 2.74.3 2.74l-6-.82-.5 2.44s-6.93-2.13-8.55-1.12c0 0-2.14 2.24-3.57 2.75-1.31.61 0-.81 0-.81l-2.13-2.95s-2.44 1.32-3.87.81c-1.32-.61-5.7 2.14-7.12 1.32 0 0 0-1.93-1.12-2.44-1.02-.5-2.95-.5-3.76.82 0 0-.81-1.13-2.24-3.26-1.32-2.24-3.26.2-3.26.2l-.3-2.64-3.77-.31c-2.24-.3-2.74-2.24-2.74-2.24s-5.8.6-6.62.3l1.43-1.32s-7.94 1.63-9.56 1.02c-1.73-.5 1.83-2.74 1.83-2.74s-7.33-1.83-8.75-2.14c-1.33-.3-9.26 1.32-10.38 1.32-1.12 0-1.63-1.83-1.63-1.83s-1.93 1.63-3.56 2.14c0 0-1.32-3.26-.5-3.57 0 0-5.2 1.43-5.5 2.75 0 0-1.33-2.13-1.12-3.05 0 0-2.44 3.87-3.56 4.68-1.12.81-.2-1.93-.2-1.93s-3.06 3.86-4.18 4.17v-2.75s-8.75 4.68-11.19 4.07c0 0 0-1.93.81-2.44l-5.49-.3c-1.32-.2-2.95-.82-4.37-1.12-1.33-.21 1.93-1.63 4.17-1.02 0 0-6.1-2.24-7.94-1.12 0 0-.81-2.24 2.44-3.06 0 0-4.17-4.06-6.61-3.76 0 0 2.74-1.63 4.98-.82 0 0-2.54-6.91-4.17-7.73 0 0 5.8-1.01 7.43-.2z"/>
    <path fill="#730000" stroke="#000" stroke-width=".51" d="m259.27 196.67 74.06-38.36c.36-1.98-.77-3.54-1.93-5.09-21.18 10.39-40.45 23-63.99 30.63-1.32.5-13.02 5.4-19.03 12.62-1.9 1.9-2.04 4.72-2.04 4.72s.15 3.23.83 4.1c0 0 .17.9 1.28 1.6-.01 0 .68.34 1.16.17.54.1 1.42.1 2.64-2.04a54.59 54.59 0 0 1 7.02-8.35z"/>
    <path d="m318.89 158.72 9.56-4.58s3.26 2.44 2.95 5.19c0 0 .72 6.3 8.55 10.68 0 0-6.61 8.24-18.21 8.96 0 0 1.33-10.88-1.11-14.04 0 0-.4.4-.23-.15.35-1.05-.24-4.68-1.72-5.48-.18-.1.12-.4.21-.58z" stroke="#000" stroke-width=".51" fill="#FFF"/>
    <path d="M330.08 160.04c-2.03.81-8.65 4.27-8.65 4.27m5.5-2.24c-.1 1.02-.71 3.46 0 5.19m-.92-4.88c0 .5-.81 2.34.1 4.78m-1.11-4.27c-.2 1.02-.4 1.63 0 2.75m-.82-2.14c-.2.6 0 .92 0 1.32m6-1.63c.3.81 3.05 5.09 4.68 6.82m-4.27-4.89c.3.81 1.83 3.77 2.95 4.89m-3.15-3.16c.4 1.02 1.22 2.85 2.03 3.87m-2.03-1.83c.2.81.61 1.83 1.22 2.55" fill="none" stroke="#7e4b7e" stroke-width=".81"/>
    <g stroke="#000" stroke-width=".51">
        <path fill="#b34b00" d="m398.22 154.46 27.2 13.32c5.46 2.65 7.42.2 10.5 1.54l53.69 27.35c4.6 2.01 7.18 2.66 6.52 5.04-.11 3.79 1.8 3.84 2.31 3.88.38.1 2.2-.16 2.95-1.17.57-.65.59-.72.59-.72.6-.61.5-.66.69-.94 2.25-3.24 3.5-6.06 1.14-7.9-2.7-1.27-3.01 1.6-5.86 1.3 0 0-5.08-1.93-6.91-3.25-3.38-1.84-8.09-4.02-9.16-5.21-3.43-.65-29.23-15.16-43.85-22.45-1.57-1.3-2.42-6.16-5.5-7.79-.9-1.3-20.7-10.34-31.05-15.52-3.81-1.42-5.95-2.4-8.7 2.28-2.4 4.6-1.81 7.1 5.44 10.24z"/>
        <path fill="none" d="m400.52 148.76 30.46 15.2"/>
    </g>
    <g fill="#ffa54b" stroke="#000" stroke-width=".51">
        <path fill="url(#a)" d="M309.73 165.12c-.2.61-.71.2-.71.4-.4 2.14-.3 3.26-.81 4.48-.72 1.43-3.26 2.75-3.16 2.65-2.03.6-4.47 3.05-8.44.81-.2-.1-.4-.3-.61-.5 0 0 1.12 4.16-2.95 6.2-1.42.71-15.77 8.24-15.77 8.24s-1.53 2.75-.51 6.51c.1.61.3 1.12-.3 1.53-.92.71-2.65 2.75-3.67 6 0 0-3.05-1.32-3.05-3.25 0-1.94 1.22-2.95 1.53-4.38.3-1.32 1.11-4.68.7-5.7-.4-1.12-2.23-1.52-2.94-1.93-.61-.4-1.43.4-1.32 1.32.1 1.02.8.81 1.62 1.02 0 0-.91 1.93-.8 3.35l-9.27 4.79s1.22 1.62 1.63 2.34c.4.71 1.32 10.17 4.07 14.65s3.66 3.26 4.27 3.87c.51.5 1.32 1.32 2.04 1.93.7.5 3.86.81 4.47-.91a8.91 8.91 0 0 1 3.16-4.18c1.93-1.52 5.9-5.39 5.9-7.12 0 0 2.34 6.71 2.03 12.31 0 0 8.55 1.73 16.18 1.93 7.63.1 11.5-1.52 11.5-1.52s1.01-6.41.6-7.63c0 0 1.22 4.17 2.14 5.6 1.02 1.72 2.14 5.28 4.37 5.49 2.14.1 3.97-2.14 4.17-3.05v-6.72h8.65c0-.1 3.87 1.42 5.09 1.22 1.22-.1 1.93-1.22.81-1.63l-.4-.3c1.11 0 2.54.7 2.54.7h4.27c.1-.1 0-.4-.1-.5-.3-1.22-2.55-2.24-4.17-2.95-1.63-.6-3.46-1.32-4.68-1.42-1.94-.2-3.26-.1-6.21.4-.81.1-3.87.41-5.8 1.33-.5.3-1.02.4-.81-.92.3-1.43.2-7.84-1.32-10.58-1.12-1.94-1.02-3.57-.82-5.2.1-1.62.2-7.22 0-8.85-.3-1.62-2.54-3.86-6.6-4.37-3.87-.51-7.13-3.66-7.33-6.2-.3-2.55.4-7.23.81-9.26"/>
        <g fill="none">
            <path fill="url(#a)" d="M292.44 153.63c-.71 3.25-.71 6.1-.6 9.26.1 2.13 1.1 4.57 2.03 6.71.6 1.43 1.42 3.05 2.74 3.87 3.56 2.34 6.92-.2 8.85-1.02a6.4 6.4 0 0 0 2.75-2.44c.5-1.22.3-2.13.81-4.47-.1.1.82-.41.71-.41.92-1.53.72-2.04 1.22-3.06.51-1.01-.6-2.13-1.83-1.93.61-1.93 1.02-4.07.4-5.9-.2-.61.52-2.24-.6-1.83-4.58 1.83-9.97 1.42-14.85 1.42-.41 0-.72-.81-1.33-.7-.1 0-.2.3-.3.5"/>
            <path fill="#000" d="M292.03 155.35c-.5-.4-.61-1.32 0-3.26.71-1.93 0-2.03 1.12-3.15s.81-1.63 1.53-1.93c.7-.2 2.84-.2 3.56-.5.6-.32 1.52-.72 2.94-.92 1.53-.31 4.58-.21 6 .6 1.53.82 2.55 2.85 3.47 3.56 1.02.71 1.63 3.67 1.42 7.94-.3 4.27-1.12 3.46-1.12 3.46s-1.22-2.03-2.24-.3c0 0 0-1.63.2-2.86.11-1.22-.6-3.45.11-4.98 0 0-5.8 1.83-8.75 1.73-3.05-.2-7.32-.92-7.53-1.63l-.71 2.24"/>
            <path fill="#fff" stroke="#fff" d="M294.98 151.8c-.3-.61-1.83-2.85-.6-3.56 1.11-.61.4 2.74 1.93 3.46 0 0-.51 1.52-1.32.1h-.01z"/>
            <path d="M298.34 160.14c-.5 1.73-.71 2.14-.92 3.16m10.59 1.62c.2.61.4.3.91.4m.41-3.96c.5-.6 1.22-.3.81 1.22"/>
            <path d="M292.44 157.7c.92.3 1.83.6 2.75 1.02 1.52.61.6 2.85.2 4.27-.2.71-1.02 1.93-.6 2.55.5.8 1.11.3 2.03.4 0-.3.6-.5.81-.5.71-.1 1.12.5 1.63.3.6-.3.5-1.22.3-1.73m-.1-4.48c.1-.4 1.02-.81 1.53-.92 2.13-.4 3.66-.7 5.39.52m-5.7 11.08c-1.73.4-3.56.71-5.19-.2m0-.81c.81-.4 1.12-.82 2.14-.3 0-.1 1.12-.41 1.12-.41.8 0 1.32.3 2.13.8m-5.49.31c.92-.3 3.36-.3 5.4.1"/>
            <path fill="#fff" stroke-width=".31" d="M292.34 160.14c.71-.1 1.53-.92 3.15.3 1.12.72-1.83 1.43-1.32 1.33-1.32.2-1.73-.5-1.83-1.12 0-.2-.2-.51 0-.51zm8.34.81c.71-1.43 1.83-1.12 2.85-.82 1.02.31.71.1 1.63.62-1.12.2-.82.3-1.63.7-.92.42-1.73.62-2.34.21-.2-.2-.71-.5-.71-.91 0 .1.1.2.2.2z"/>
            <path fill="#000" stroke-width=".31" d="M293.76 161.36c.4 0 .71-.4.71-.81 0-.51-.3-.92-.71-.92-.5 0-.81.4-.81.92 0 .4.3.81.81.81zm8.65.2c.4 0 .71-.4.71-.92a.8.8 0 0 0-.81-.8c-.4 0-.71.3-.71.8 0 .52.4.92.81.92z"/>
        </g>
        <g id="c">
            <g fill="none">
                <path d="M345.85 213.66a3.85 3.85 0 0 0-1.83-1.32l-2.04-1.02c-.7-.4-1.72-.5-2.34-.92m.41 2.65c-.3-.2-.5-.3-.81-.51-.3-.1-.71-.1-1.02-.2-.1 0-.1-.2-.2-.2a3.48 3.48 0 0 1-2.44-1.33m-62.78-9.36c.91.71 3.15 2.24 3.36 5.19a10.5 10.5 0 0 0 1.01 3.05m-13.12-7.83c.51 1.73.61 7.42 6 13.43m-4.98-21.37c-.4 1.12-.92 2.14.2 2.95m14.45 10.69c1.12-2.54 4.58-2.34 4.58-4.78"/>
                <path d="M284.81 207.25c-.3-2.85-.92-4.47-.4-8.65.2-1.22.4-5.9 0-8.14 0 0 1.62 7.84-3.67 9.37m34.39 12.51c0-3.97.92-6.2.92-6.2 1.22-5.6-1.12-7.74-.2-9.16.8-1.22 2.03-3.77.4-8.86 0 0 2.85 10.49-4.48 10.49-7.42 0-7.12-2.75-7.12-2.75"/>
                <path d="M284.4 190.46c0 2.13 0 8.45 9.05 8.45 2.75 0 5.7-1.94 7.33-3.26m2.24-2.75c-.3-1.93-.3-4.38-.3-6.92m-13.64-3.45c2.44-.3 4.38-.61 8.96-.61m.3-6.32c.5 2.24-.3 5.8 3.87 6.3m4.37-7.11c-.61 1.63-.61 3.26-.81 4.38m.2 2.75c1.73 0 4.99-1.12 9.05-.3m1.43 22.78c.81 1.63 1.02 3.77 3.56 6.2m-31.74-11.39c.2 1.32-1.73 5.7-.3 9.26a12.31 12.31 0 0 1-1.13 11.1m6.62-19.03c-.81 1.63-2.24 3.26-2.54 4.68m6.6-1.63c0 1.02-2.74 8.75-4.68 10.89 0 0 3.56 1.42 3.05 6.61m7.33-21.06c0 1.32-.2 1.63.92 2.44m2.44 0c1.32 1.63 5.5 6.51 4.58 9.26m-7.33-6.51c.3 1.02.3 6.3-.61 8.96m-2.13-.21c-1.12 0-2.75.81-3.05 2.75m8.74-3.06c1.12-.3 3.35 1.63 3.35 7.12m15.68-10.27c-2.14.61-3.05 1.73-2.44 1.12-1.12.91-2.14 1.52-2.14 1.52"/>
            </g>
            <path fill="#000" stroke-width=".31" d="M289.79 197.99c.6 0 1.12-.4 1.12-.92 0-.4-.5-.81-1.12-.81-.5 0-1.02.4-1.02.81 0 .5.5.92 1.02.92zm23.1.31c.51 0 1.02-.4 1.02-.92 0-.5-.5-.8-1.02-.8-.6 0-1.12.3-1.12.8 0 .52.51.92 1.12.92z"/>
            <path fill="#fff" d="M280.54 239.81c1.22-7.94 4.99-14.55 5.09-15.16 0 0 3.86.81 10.58 1.42 6.6.71 8.44.41 11.5.2 2.94-.3 6.8-.8 6.8-.8s1.23 2.43 1.33 4.88c.3 5.18 2.24 27.67 2.44 33.68 0 0 .81 3.56.81 12.3 0 9.57 2.65 29 2.65 39.39l-2.65.5s-14.44 1.13-14.44-.8c0-2.14-.82-27.07 1.32-42.13 0 0-.51-2.95-1.32-5.5-.82-2.44-4.38-10.07-4.38-11.7 0 0-5.7 16.08-6 18.83-.3 2.54-1.12 38.35-1.63 41.31 0 0-8.24 6.3-9.36 6.92-1.12.5-9.05-3.36-9.26-4.37-.3-1.12.82-13.23 4.58-33.18 1.43-7.12.61-8.44.61-10.38 0-1.93.1-27.47 1.32-35.4l.01-.01z"/>
            <path d="M294.27 274.92c-.6 2.24-1.63 4.38-3.56 5.8m-2.75-53.63c-.3 1.32-2.24 7.33-7.12 10.89m14.24-9.77c-1.12 3.56-5.5 22.7-6.3 45.38m-.31 7.13c-.2 2.13-1.32 18.01-1.63 20.76m-.81 3.05c-.5 1.12-2.75 10.38-2.75 18.62m32.25-35.92c-.2 1.93-1.02 15.67 3.56 27.98m-18.51-85.98c-.3 2.24-.81 16.69-.81 17.8 0 1.12 1.63 2.75 2.44 3.06 0 0-1.63.5-1.94 6m-4.07-12.92c-.3 1.73-1.93 8.55-3.05 11.3m13.12-25.44s4.88 1.02 5.19 0c0 0 1.63 29.51 3.86 45.9m-11.18-42.14c0 1.93-.6 16.48-.6 16.48m2.43 2.14s1.93 2.75 1.43 4.07m-17.81-28.08c1.63.5 3.05.81 3.05.81m5.19 1.63c-.3.81-.61 4.58-.61 4.58m8.75 38.87c.61.81 1.43 1.94.81 4.38" fill="none"/>
            <path fill="#9b5f00" d="M284.91 224.45s0-3.26 1.22-4.89c0 0 3.46.72 8.34 1.23 4.99.5 8.95.91 12.62.5 3.66-.4 7.43-1.32 7.43-1.32s1.01 4.79.5 5.5c0 0-3.97.81-8.34 1.01-4.48.3-11.9-.4-14.45-.8-3.35-.42-6.3-1.03-7.32-1.23z"/>
            <path fill="#fff" d="m288.06 224.85.6-4.88 1.03.1-.2 5.08-1.43-.3m22.08-4.07.1 5.5 1.22-.21-.1-5.6-1.22.31m-15.67 0-.4 5.3h.7l.72-5.3h-1.02"/>
            <path d="M276.77 320.81c-.3 1.32-.81 3.15-1.02 5.5 0 .5-.5 3.25 1.02 3.35 1.12.1 1.43-2.85 1.43-2.85s-1.02 3.26.3 3.67c1.83.4 2.03-3.57 2.03-3.57-.2 1.12-1.42 3.97.31 4.28 1.83.3 2.34-3.87 2.34-3.87s-1.53 4.17.3 4.27c1.73.1 1.73-4.07 1.73-4.07s-.91 4.99 1.53 4.58c1.32-.2 1.63-1.93 1.93-2.95.4-1.52 1.32-3.46.2-6.61-.8-2.34-.5-2.95-.5-2.95s-2.85 2.14-5.09 3.56c-1.02.6-6.51-2.34-6.51-2.34zm29.71-4.38c-.5-.3-.4 1.83-.6 2.85-.11 1.02.2 3.25 3.65 3.05 3.36-.3 6.72-1.02 8.86-.5 2.13.6 5.28.7 7.02.7 1.73 0 2.85-.2 3.66-.5.71-.3 2.24.4 2.95.4s1.83-1.12 1.73-1.83c-.1-1.32-1.32-1.32-3.06-1.42-1.62-.2-3.86-.51-4.98-.92-1.12-.4-3.15-1.53-5.7-2.03 0 0-4.88.2-5.9.2-1.01 0-7.02.3-7.63 0z"/>
        </g>
        <g fill="none">
            <path fill="#ffb366" d="M255.71 189.85c-.5.3-1.12-2.04.4-2.95 0 0 .41-1.93 2.04-2.14 0 0 1.32-1.83 3.26-1.62 0 0 2.23-1.53 3.05-1.33.81.1 2.85 2.14 2.95 2.85.2.71 0 1.94-.51 2.44-.61.61-1.02-.1-1.12-.91 0 0 .4 1.52-.81 2.13-1.22.72-1.12.21-1.22-.6 0 0-.31 1.62-1.12 1.83-.82.3-1.33-.41-1.94-.41 0 0 1.02.81.3 1.42-.7.51-1.52.3-2.03-.1-.5-.5-1.12-1.83-3.25-.6v-.01z"/>
            <path d="M265.68 186.09c-.51-1.63-2.14-3.05-4.07-2.85m2.24 4.37c-.3-.4-.4-.82-.71-1.22-.92-1.53-2.85-1.42-4.48-1.83m2.44 4.58c-.6-.4-.81-1.22-1.43-1.52-1.01-.41-2.03-.92-3.25-.72"/>
        </g>
    </g>
    <g stroke="#000" stroke-width=".51">
        <path fill="url(#b)" d="M439.14 165.12c.71-.3.51.61.61.92.3 1.32.3 2.74.81 3.96.61 1.12.81 1.53 1.83 2.04 1.63.91 6.41 3.56 9.77 1.42.2-.1.5-.3.71-.5 0 0-1.22 4.17 2.95 6.2 1.32.71 15.67 8.24 15.67 8.24s1.52 2.75.6 6.51c-.2.61-.4 1.12.21 1.53 1.02.71 2.65 2.75 3.77 6 0 0 2.95-1.32 2.95-3.25 0-1.94-1.22-2.95-1.53-4.38-.2-1.32-1.02-4.68-.6-5.7.4-1.11 2.13-1.52 2.84-1.93.71-.4 1.53.4 1.32 1.32-.1 1.02-.81.82-1.63 1.02 0 0 1.02 1.93.82 3.35l9.36 4.79s-1.23 1.63-1.63 2.34c-.51.71-1.43 10.17-4.17 14.65-2.75 4.48-3.67 3.26-4.17 3.87-.61.5-1.43 1.32-2.14 1.93-.6.5-3.76.81-4.48-.92a8.94 8.94 0 0 0-3.15-4.17c-1.93-1.52-5.9-5.39-5.9-7.12 0 0-2.34 6.72-2.03 12.31 0 0-8.45 1.73-16.18 1.94-7.63.1-11.5-1.53-11.5-1.53s-1.02-6.41-.6-7.63c0 0-1.23 4.17-2.04 5.6-1.12 1.72-2.24 5.28-4.38 5.49-2.23.1-3.96-2.14-4.27-3.05v-6.72h-8.64c0-.1-3.77 1.42-5.09 1.22-1.22-.1-1.83-1.22-.81-1.63l.4-.3c-1.12 0-2.54.7-2.54.7h-4.27c0-.1.1-.4.1-.5.3-1.22 2.55-2.24 4.27-2.95 1.63-.6 3.36-1.32 4.58-1.42 1.93-.2 3.26-.1 6.2.4.82.1 3.97.41 5.8 1.33.51.3 1.12.4.82-.92-.3-1.42-1.22-5.6.3-8.34 1.02-1.94.92-3.56.82-5.2-.2-1.72-1.12-5.6-1.12-7.32 0-5.7 4.38-8.04 8.24-9.26 4.27-1.32 7.12-2.75 6.92-5.29-.1-2.64.6-7.02.2-9.06"/>
        <g fill="none">
            <path fill="url(#b)" d="M456.34 153.63c.92 3.36 1.12 4.17 1.12 5.3 0 1.21-.5 1.41-.1 2.74.7 2.44-.72 5.09-2.45 7.94-.8 1.32-1.42 3.05-2.74 3.86-3.36 2.14-7.43-.4-9.56-1.32a3.73 3.73 0 0 1-2.04-2.14c-.4-1.22-.5-2.34-.81-3.97 0-.3.1-1.22-.6-.91-1.23-1.43-1.03-2.04-1.53-3.05-.51-1.02.91-2.14 2.03-1.94-.6-1.93-.91-4.07-.3-5.9.2-.61-.51-2.24.5-1.83 4.58 1.83 9.97 1.42 14.86 1.42.4 0 .7-.81 1.32-.7.1 0 .2.3.3.5"/>
            <path fill="#000" d="M456.75 155.35c.5-.4.2-2.34-.3-4.38-.2-1.01-1.02-1.42-2.14-2.54s-1.53-1.12-2.24-1.42c-.6-.2-2.03-.2-2.74-.5-.61-.32-2.24-.11-3.77.1-2.04.3-3.15.2-4.68 1.01-1.52.81-2.74 1.73-3.25 3.26-.41 1.11-1.12 2.54-.82 6.81.2 4.27 1.02 3.46 1.02 3.46s1.12-1.63 1.83-.6c0 0-.1-2.25-.3-3.57-.1-1.22 0-2.75.5-4.58 0 0 4.69 1.73 9.06 1.73 3.05 0 7.02-.3 7.12-1.02l.71 2.24z"/>
            <path d="M450.44 160.14c.61 1.73.1 1.22.4 2.34m-10.27 2.03c0 .81-.61.61-1.02.61"/>
            <path d="M456.85 158.82c-.92-.71-2.65-.2-3.46.1-1.52.71-.71 2.24-.2 3.67.2.7 1.02 1.72.5 2.44-.4.8-.7.4-1.62.5.1-.3-.81 0-1.12 0-.6-.1-.91.41-1.42.2-.61-.3-.51-1.21-.31-1.72m.1-4.48c0-.4-1.32-.81-2.75-.92-2.23-.1-2.44.1-4.17 1.33m11.5 8.95c-.4-.6-1.02-.92-2.14-.4 0-.2-1.52-.41-1.52-.41-.81 0-1.32.3-2.14.7m5.59.62c-.92-.6-3.26-.2-5.6-.2m.21.81c1.73.51 3.46.82 5.19 0"/>
            <path fill="#fff" stroke-width=".31" d="M456.44 160.14c-.71-.1-1.02-.92-3.15.3-1.12.62 1.83 1.43 1.42 1.33 1.22.2 1.63-.5 1.73-1.12 0-.2.2-.51 0-.51zm-8.34.81c0-.82-1.83-1.12-2.85-.82-1.02.31-.6.1-1.52.62 1.02.2.7.3 1.52.7.92.42 1.12.82 2.34.21.3-.1.71-.5.82-.91-.1.1-.2.2-.31.2z"/>
            <path fill="#000" stroke-width=".31" d="M455.12 161.36a.8.8 0 0 1-.81-.81c0-.51.3-.92.81-.92.4 0 .71.4.71.92 0 .4-.3.81-.71.81zm-8.75.2c-.4 0-.71-.4-.71-.92 0-.5.4-.8.81-.8s.71.3.71.8c0 .52-.3.92-.81.92z"/>
        </g>
        <use xlink:href="#c" fill="#730000" transform="matrix(-1 0 0 1 748.82 0)"/>
        <g fill="none">
            <path fill="#730000" d="M491.64 193.51c.5.2 1.93-2.03.5-3.05 0 0-.5-1.93-2.13-2.04 0 0-1.32-1.93-3.26-1.62 0 0-2.13-1.53-2.94-1.43-.92.2-2.95 2.24-3.06 2.95-.1.61 0 1.84.51 2.45.61.5 1.02-.1 1.12-1.02 0 0-.4 1.52.81 2.24 1.22.7 1.12.1 1.22-.71 0 0 .31 1.62 1.12 1.93.82.3 1.33-.41 1.94-.41 0 0-1.02.81-.3 1.32.7.61 1.52.3 2.03-.1.6-.4.3-1.73 2.44-.51z"/>
            <path d="M482.49 189.75c.5-1.73 2.23-3.15 4.07-2.85m-2.14 4.38c.2-.41.3-.82.61-1.22.92-1.53 2.95-1.53 4.58-1.84m-2.55 4.48c.61-.4.81-1.12 1.43-1.42a5.28 5.28 0 0 1 3.25-.72"/>
            <path fill="#730000" d="M482.31 186.77c-.9.72-1.84 1.8-1.9 2.28-.1.61-.01 1.83.5 2.44.54.46.94-.02 1.09-.78-.06.46-.07 1.46.84 2 1.22.7 1.12.1 1.22-.72 0 0 .31 1.63 1.13 1.94.81.3 1.32-.4 1.94-.4 0 0-1.03.8-.32 1.3.71.61 1.52.31 2.03-.1.61-.4.3-1.71 2.44-.5.27.12.8-.44 1.03-1.15l-7.69-5.53-2.31-.78z" stroke="none"/>
            <path d="M480.68 188.19c-1.5 2.58.5 4.13 1.16 2.62-.19 2.38 1.61 2.3 2.29 1.54.66 2.5 1.83 1.4 2.9 1.16-1.21 2.3 1.49 1.61 2.13 1.08.92-1.36 1.35-.28 2.03-.41l1.17-1.25m-7.98-5.7c-1.69.9-2.51 2.14-2.54 3.7m4.87-2.2c-1.69.9-2.51 2.14-2.54 3.7m5.41-1.75c-1.69.9-1.76 1.72-2.5 2.83"/>
        </g>
    </g>
    <path d="m290.1 323.66-.2-4.68 1.93 1.63.5-3.56c.82-.2 2.15 1.42 2.15 1.42l-.2-3.56 2.94 3.26s-.2-2.75.81-4.38c0 0 2.24 1.93 2.24 4.17 0 1.94 1.93-2.75 1.93-2.75l1.63 5.2 1.32-1.94 1.12 4.07 2.45-3.56 1.93 4.17 4.37-.3.51 2.43 1.93-2.13 2.55 1.62s2.13-.6 3.25-.6 2.45 1.42 2.45 1.42.8-1.42 1.62-1.94c.82-.5 1.94.82 2.24 1.63l1.63-2.95s2.14 2.14 2.44 2.95c0 0 .3-2.44.81-3.25.51-.82 1.32.3 1.94 1.32l1.32-4.37s1.42.3 2.44 1.93c1.11 1.63 1.11-2.44 1.11-2.44s2.45 3.26 3.06 5.5c0 0-16.85 5.78-28.73 4.2-13.98-1.87-25.5-4.51-25.5-4.51m115.48-.51s.81-2.24 1.94-3.36c0 0 2.13 2.55 2.13 3.36 0 0 .6-.3 1.73-1.12l1.63 1.63 1.93-1.32 1.83 1.62 3.36-1.42 1.32 1.42 5.2-.6 1.92.8 1.84-2.33 1.73 1.83 2.74-2.75s1.32 1.12 1.63 1.94c0 0 2.24-1.12 2.75-1.94 0 0 2.13-.81 2.44.51 0 0 1.32-1.02 1.22-2.13-.1-1.12 1.52-.31 2.03 1.11 0 0 .61-2.23 2.24-2.44 0 0 1.12 1.32.81 3.77 0 0 2.44-1.94 3.56-2.14 0 0 .51 2.75-.3 5.2 0 0 2.54-4.18 3.05-2.76.2.82.81 3.56.2 5.5l2.24-1.43.81 2.75 2.44-.51s-14.44 2.21-28.05.91c-13.6-1.3-26.37-6.1-26.37-6.1m-10.06 10.1c.66-.4-4.55 10.7-17.17 11.3-17.56.82-32.58-7.94-32.58-7.94s1.83-3.05 2.95-3.87c0 0 2.44 1.94 3.26 4.38 0 0 .3-1.63 1.12-3.05 0 0 3.05 1.42 3.56 3.35 0 0 1.12-1.93 1.93-2.44.81-.61 1.63 2.14 1.63 3.77 0 0 1.93-2.04 3.05-2.14 0 0 2.14 1.02 2.75 4.58 0 0 2.04-1.93 2.75-1.63 0 0 2.44 1.63 1.83 3.86-.3 1.23 2.44-1.42 5.8-2.23l2.95 2.24s2.74-3.66 3.56-4.89c0 0 2.23.82 2.23 2.14 0 0 1.02-3.87 1.84-4.27.8-.51 1.93 1.22 1.93 2.34 0 0 .3-2.95 1.93-3.56 0 0 1.63 1.11 1.63 2.24 0 0 1.73-3.36 3.05-4.18z" fill="#5ac800"/>
    <path d="m290.1 323.66-.2-4.68 1.93 1.63.5-3.56c.82-.2 2.15 1.42 2.15 1.42l-.2-3.56 2.94 3.26s-.2-2.75.81-4.38c0 0 2.24 1.94 2.24 4.17 0 1.94 1.93-2.74 1.93-2.74l1.63 5.19 1.32-1.94 1.12 4.07 2.44-3.56 1.94 4.17 4.37-.3.51 2.44 1.93-2.14 2.55 1.63s2.13-.6 3.25-.6 2.44 1.41 2.44 1.41.82-1.42 1.63-1.93c.81-.5 1.94.82 2.24 1.63l1.63-2.95s2.13 2.14 2.44 2.95c0 0 .3-2.44.81-3.26.51-.8 1.32.31 1.93 1.33l1.33-4.38s1.42.3 2.44 1.94c1.12 1.62 1.12-2.45 1.12-2.45s2.44 3.26 3.05 5.5m61.25-.82s.81-2.23 1.93-3.36c0 0 2.14 2.55 2.14 3.36 0 0 .6-.3 1.73-1.12l1.63 1.63 1.93-1.32 1.83 1.63 3.36-1.43 1.32 1.43 5.19-.61 1.93.81 1.83-2.34 1.73 1.83 2.75-2.74s1.32 1.11 1.63 1.93c0 0 2.23-1.12 2.74-1.93 0 0 2.14-.82 2.44.5 0 0 1.32-1.02 1.22-2.13-.1-1.12 1.53-.3 2.04 1.12 0 0 .6-2.24 2.24-2.45 0 0 1.11 1.33.8 3.77 0 0 2.45-1.93 3.57-2.14 0 0 .5 2.75-.3 5.2 0 0 2.54-4.18 3.05-2.76.2.82.81 3.57.2 5.5l2.24-1.43.81 2.75 2.44-.5m-114.31 8.28s1.83-3.05 2.95-3.87c0 0 2.44 1.94 3.26 4.38 0 0 .3-1.63 1.12-3.05 0 0 3.05 1.42 3.56 3.36 0 0 1.12-1.94 1.93-2.45.81-.6 1.63 2.14 1.63 3.77 0 0 1.93-2.04 3.05-2.14 0 0 2.14 1.02 2.75 4.58 0 0 2.03-1.93 2.74-1.63 0 0 2.44 1.63 1.83 3.87-.3 1.22 2.45-1.42 5.8-2.24l2.95 2.24s2.75-3.66 3.56-4.89c0 0 2.24.82 2.24 2.14 0 0 1.02-3.87 1.83-4.27.82-.51 1.93 1.22 1.93 2.34 0 0 .31-2.95 1.94-3.56 0 0 1.63 1.11 1.63 2.24 0 0 1.73-3.36 3.05-4.18" stroke-width=".51" stroke="#060" fill="none"/>
    <g fill="#fff">
        <path d="M374.44 376.98c22.9.2 36.42-8.14 43.85-13.13 17.4-11.7 21.06-12.1 23.9-11.9 3.27.3 8.04 1.42 8.25 4.27.3 4.38-6.82 6.31-10.89 6.31-4.17 0-15.06-2.75-15.06-2.75l-2.85 1.94c1.94.91 24.22 8.34 28.5 1.32 4.36-7.12 8.74-18.62 8.74-18.62s-4.88-8.75-15.77-8.75c-10.99 0-21.67 6.92-28.79 12.1-7.12 5.2-16.07 12.32-39.88 12.32-23.81 0-32.86-7.12-39.98-12.31-7.12-5.2-17.8-12.11-28.7-12.11-10.98 0-15.86 8.75-15.86 8.75s4.37 11.5 8.74 18.62c4.28 7.02 26.56-.4 28.49-1.32l-2.75-1.94s-10.98 2.75-15.05 2.75c-4.18 0-11.3-1.93-11-6.3.21-2.86 5-3.98 8.25-4.28 2.85-.2 6.51.2 23.9 11.9 7.44 4.99 20.97 13.03 43.96 13.13"/>
        <path d="M337.61 350.01s0-1.94-.3-4.78c-.41-3.67-2.55-4.58-4.28-4.07-1.12.4-3.35 3.15-3.35 3.15v.1a32.36 32.36 0 0 0-3.16-1.93c.82-.92 5.5-3.77 6.61-3.77 1.02 0 15.06 5.7 19.54 9.57 1.12 1.02 1.93 7.32 1.32 9.36a48.39 48.39 0 0 1-16.38-7.53v-.1m-6.72 14.25s-3.05 3.05-3.15 8.65c-.1 6.61 4.68 6.92 7.83 6.81 3.77-.1 6.82-2.23 6.71-9.26 0 0-6.2-2.64-11.4-6.2m80.29-14.25s.1-1.94.4-4.78c.41-3.67 2.45-4.58 4.18-4.07 1.12.4 3.35 3.15 3.35 3.15v.1a32.21 32.21 0 0 1 3.16-1.93c-.82-.92-5.5-3.77-6.51-3.77-1.12 0-15.16 5.7-19.64 9.57-1.02 1.02-1.83 7.32-1.32 9.36a47.43 47.43 0 0 0 16.38-7.53v-.1m6.71 14.25s3.05 3.05 3.15 8.65c.2 6.61-4.68 6.92-7.83 6.81-3.77-.1-6.71-2.23-6.71-9.26 0 0 6.2-2.64 11.4-6.2"/>
    </g>
    <path d="M324.28 359.78s-10.89 2.75-14.96 2.75c-4.17 0-11.29-1.93-10.98-6.31.2-2.85 4.98-3.97 8.24-4.27 2.44-.2 5.6.1 17.7 7.83m100.22 0s10.88 2.75 15.06 2.75c4.07 0 11.19-1.93 10.88-6.31-.2-2.85-4.98-3.97-8.24-4.27-2.44-.2-5.6.1-17.7 7.83m-86.89-9.67a98.36 98.36 0 0 1-3.26-2.44c-1.52-1.12-3.05-2.14-4.68-3.26 0 0 2.24-2.85 3.36-3.15 1.73-.61 3.86.3 4.27 3.96.3 2.85.3 4.9.3 4.9m-7.42 28.69c1.94 1.12 4.07 1.02 5.4.92 3.76-.1 6.81-2.24 6.7-9.26 0 0 4.69 2.34 12.32 4.17 0 0 1.22 1.53 1.42 4.58.31 2.54-1.42 5.29-3.45 5.09 0 0-10.69-1.94-17.2-3.05-3.76-.72-5.19-2.45-5.19-2.45m80.99-28.7 3.35-2.44c1.43-1.12 2.96-2.14 4.58-3.26 0 0-2.23-2.85-3.35-3.15-1.73-.61-3.77.3-4.17 3.96-.3 2.85-.41 4.89-.41 4.89m7.42 28.7c-1.93 1.12-4.07 1.02-5.4.92-3.76-.1-6.7-2.24-6.7-9.26 0 0-4.69 2.34-12.22 4.17 0 0-1.32 1.53-1.52 4.58-.2 2.54 1.52 5.29 3.46 5.09 0 0 10.78-1.94 17.19-3.05 3.76-.72 5.19-2.45 5.19-2.45" fill="#69f"/>
    <g fill="none" stroke="#000" stroke-width=".71">
        <path d="M374.44 376.98c22.9.2 36.42-8.14 43.85-13.13 17.4-11.7 21.06-12.1 23.9-11.9 3.26.3 8.05 1.42 8.25 4.27.3 4.38-6.82 6.3-10.89 6.3-4.17 0-15.06-2.73-15.06-2.73l-2.84 1.93c1.93.92 24.2 8.34 28.48 1.32 4.38-7.12 8.75-18.62 8.75-18.62s-4.88-8.75-15.77-8.75c-10.99 0-21.67 6.92-28.8 12.1-7.11 5.2-16.06 12.32-39.87 12.32s-32.86-7.12-39.98-12.31c-7.13-5.2-17.81-12.11-28.7-12.11-10.98 0-15.86 8.75-15.86 8.75s4.37 11.5 8.74 18.62c4.28 7.02 26.56-.4 28.49-1.32l-2.74-1.93s-11 2.74-15.06 2.74c-4.17 0-11.3-1.93-10.99-6.3.2-2.86 4.98-3.97 8.24-4.28 2.85-.2 6.51.2 23.9 11.9 7.44 5 20.97 13.03 43.96 13.13z"/>
        <path d="M324.28 359.78s-10.89 2.75-14.95 2.75c-4.18 0-11.3-1.94-11-6.31.21-2.85 5-3.97 8.25-4.27 2.44-.2 5.6.1 17.7 7.83zm100.21 0s10.89 2.75 15.06 2.75c4.07 0 11.19-1.94 10.88-6.31-.2-2.85-4.98-3.97-8.23-4.27-2.45-.2-5.6.1-17.7 7.83h-.01zm-86.88-9.67a97.32 97.32 0 0 1-3.26-2.44c-1.52-1.12-3.05-2.14-4.68-3.26 0 0 2.24-2.85 3.36-3.15 1.73-.61 3.86.3 4.27 3.97.31 2.84.31 4.88.31 4.88z"/>
        <path d="M337.61 350.01s0-1.94-.3-4.78c-.41-3.67-2.55-4.58-4.28-4.07-1.12.4-3.36 3.15-3.36 3.15v.1a33.2 33.2 0 0 0-3.15-1.93c.81-.92 5.5-3.77 6.61-3.77 1.02 0 15.06 5.7 19.54 9.57 1.12 1.02 1.93 7.32 1.32 9.36a48.52 48.52 0 0 1-16.39-7.53m-6.71 14.15s-3.05 3.05-3.15 8.65c-.1 6.6 4.68 6.92 7.83 6.81 3.77-.1 6.82-2.23 6.72-9.26 0 0-6.2-2.64-11.4-6.2z"/>
        <path d="M333.44 365.78s-2.44 2.54-2.85 6.71c-.2 3.26 1.94 5.1 4.68 4.89 3.87-.2 5.4-5.5 3.56-8.45l-5.39-3.15"/>
        <path d="M330.18 378.81c1.93 1.12 4.07 1.02 5.4.92 3.76-.1 6.8-2.24 6.7-9.26a63 63 0 0 0 12.32 4.17s1.22 1.52 1.42 4.58c.3 2.54-1.42 5.29-3.45 5.08 0 0-10.69-1.93-17.2-3.05-3.77-.71-5.19-2.44-5.19-2.44zm80.99-28.7 3.36-2.44c1.42-1.12 2.95-2.14 4.58-3.26 0 0-2.24-2.85-3.36-3.15-1.73-.61-3.77.3-4.17 3.97-.3 2.84-.4 4.88-.4 4.88h-.01z"/>
        <path d="M411.17 350.01s.1-1.94.4-4.78c.41-3.67 2.45-4.58 4.18-4.07 1.12.4 3.35 3.15 3.35 3.15v.1a33.2 33.2 0 0 1 3.16-1.93c-.82-.92-5.5-3.77-6.51-3.77-1.12 0-15.16 5.7-19.64 9.57-1.02 1.02-1.83 7.32-1.32 9.36a47.55 47.55 0 0 0 16.38-7.53m6.71 14.15s3.05 3.05 3.15 8.65c.2 6.6-4.68 6.92-7.83 6.81-3.76-.1-6.71-2.23-6.71-9.26 0 0 6.2-2.64 11.39-6.2z"/>
        <path d="M415.34 365.78s2.44 2.54 2.85 6.71c.3 3.26-1.94 5.1-4.68 4.89-3.87-.2-5.3-5.5-3.56-8.45l5.39-3.15"/>
        <path d="M418.59 378.81c-1.93 1.12-4.07 1.02-5.4.92-3.76-.1-6.7-2.24-6.7-9.26 0 0-4.69 2.34-12.21 4.17 0 0-1.33 1.52-1.53 4.58-.2 2.54 1.53 5.29 3.46 5.08 0 0 10.78-1.93 17.2-3.05 3.76-.71 5.18-2.44 5.18-2.44z"/>
    </g>
    <path d="M353.79 376.47s3.36 2.44-.71 5.5m-9.36-7.13 10.28 4.48m-8.56-2.14 7.53 3.25m-4.88-5.18 5.7 2.55m41.3-1.33s-3.46 2.44.61 5.5m9.36-7.13-10.28 4.48m8.65-2.14-7.53 3.25m4.79-5.18-5.6 2.55" fill="none" stroke="#fff" stroke-width=".71"/>
    <path d="M313.56 345.17c.15.24.24.48.28.74.04.25.03.54-.02.86a2.44 2.44 0 0 1-1.21 1.71c-.66.4-1.42.5-2.25.34a4.53 4.53 0 0 1-2.06-1.02l-.35.39-.49-.1.48-2.95.5.1c.02.38.09.73.17 1.05.07.32.2.62.38.92.17.28.38.52.64.7.26.2.57.34.95.4.28.06.53.07.76.04a1.28 1.28 0 0 0 .95-.63 1.87 1.87 0 0 0 .1-1.61c-.14-.34-.4-.62-.75-.84l-.85-.53c-.32-.2-.59-.36-.82-.52a2.85 2.85 0 0 1-.97-1.08c-.2-.4-.26-.88-.15-1.45.06-.33.19-.62.37-.87a2.63 2.63 0 0 1 1.65-.98 3.03 3.03 0 0 1 2.09.4c.3.18.56.37.79.58l.33-.36.49.1-.5 2.85-.5-.1a11.7 11.7 0 0 0-.11-.99 3.7 3.7 0 0 0-.29-.9c-.13-.26-.31-.49-.53-.68a1.92 1.92 0 0 0-.9-.38 1.44 1.44 0 0 0-1.06.18c-.32.2-.52.47-.58.82-.07.37-.04.7.09.97.13.28.34.53.65.75.27.2.54.37.81.53a14.62 14.62 0 0 1 1.42.98c.19.18.36.37.49.58m12.48 1.75c-.1-.05-.27-.11-.48-.18-.22-.07-.41-.1-.58-.09-.17.01-.35.14-.54.37-.2.23-.4.54-.6.9-.6 1.12-1.22 2.22-1.83 3.33a2.51 2.51 0 0 1-2 1.34c-.4.04-.78 0-1.15-.08a4.34 4.34 0 0 1-2.77-2.24 2.32 2.32 0 0 1 .1-1.94l2.5-4.52c.07-.12.1-.25.11-.35 0-.1-.04-.23-.13-.37-.06-.1-.15-.21-.28-.32l-.32-.25.21-.38 3.23 1.78-.21.38a3.23 3.23 0 0 0-.8-.27c-.14-.02-.27 0-.36.08a.91.91 0 0 0-.25.3l-2.33 4.22c-.11.2-.2.43-.28.68a1.75 1.75 0 0 0 .23 1.58c.18.26.48.5.9.74.4.22.78.34 1.12.37a1.94 1.94 0 0 0 1.56-.58c.17-.17.32-.37.44-.58l1.73-3.14c.22-.4.38-.74.45-1.03.09-.29.09-.5.02-.64a1.57 1.57 0 0 0-.4-.5c-.2-.17-.35-.3-.46-.36l.21-.38 3.17 1.75a20 20 0 0 1-.21.38m4.49 7.77a1.94 1.94 0 0 1-.07 1.92c-.2.35-.45.6-.76.78-.3.17-.63.26-.97.29-.34.03-.68 0-1.03-.1a4.2 4.2 0 0 1-1.02-.41l-3.63-2.1.21-.37a4.94 4.94 0 0 0 .81.3c.14.01.26-.02.36-.07.09-.06.17-.15.25-.28l3.13-5.44a.98.98 0 0 0 .13-.36.58.58 0 0 0-.12-.36 1.75 1.75 0 0 0-.3-.34l-.3-.24.22-.38 3.54 2.04c.27.16.52.33.74.53.22.2.4.43.55.7a1.67 1.67 0 0 1-.01 1.7 1.88 1.88 0 0 1-1.27.93 3.46 3.46 0 0 1-1.6-.14l-.03.04c.2.16.42.35.64.59.23.24.4.5.53.77zm-.65-1.9c.22-.07.41-.18.57-.33.15-.16.3-.35.45-.6.23-.42.3-.81.21-1.19-.09-.37-.39-.7-.88-.98l-.44-.24-.44-.24-1.68 2.91.68.4c.3.17.57.27.82.32.26.04.5.04.7-.04zm-.64 2.85c.26-.44.31-.9.18-1.36-.14-.47-.5-.86-1.06-1.19l-.59-.33-.36-.19-1.53 2.67a.65.65 0 0 0-.02.66c.11.22.34.43.67.62.53.3 1.03.4 1.5.25.46-.16.86-.52 1.21-1.13zm19.7 4.5a3.6 3.6 0 0 0-.5-.13 1.49 1.49 0 0 0-.58-.03c-.17.03-.34.17-.5.42-.17.25-.34.57-.5.97l-1.5 3.49a2.53 2.53 0 0 1-1.86 1.52c-.4.08-.77.09-1.14.04a4.49 4.49 0 0 1-2.25-1.03 3.2 3.2 0 0 1-.74-.93 2.32 2.32 0 0 1-.09-1.94l2.03-4.74a.94.94 0 0 0 .08-.36c0-.1-.06-.23-.16-.36-.08-.1-.18-.19-.31-.29l-.35-.21.18-.4 3.38 1.45c-.05.14-.1.27-.17.4a3.6 3.6 0 0 0-.82-.19c-.15 0-.27.03-.35.12a.98.98 0 0 0-.22.31l-1.9 4.44c-.09.21-.16.45-.21.7a1.76 1.76 0 0 0 .4 1.55c.19.24.51.46.96.64.42.19.8.27 1.15.26.33-.01.63-.08.89-.23.24-.13.45-.3.6-.5.16-.18.3-.4.39-.62l1.4-3.3c.19-.41.3-.77.36-1.06.05-.3.03-.5-.05-.64-.09-.15-.24-.3-.45-.45a3.88 3.88 0 0 0-.5-.32l.18-.4 3.32 1.42-.17.4m9.57 11.24-3.75-1.09.12-.42c.14.04.31.07.53.11.22.04.38.05.47.03.15-.04.26-.1.35-.18a.74.74 0 0 0 .2-.34l1.76-6.1a1.44 1.44 0 0 0-.1-.03c-1.64 2.12-3.32 4.2-4.96 6.31l-.3-.08c-.2-2.7-.46-5.4-.66-8.1a.74.74 0 0 0-.07-.02l-1.45 5.01c-.14.48-.21.86-.22 1.13-.02.27.03.48.12.63a3.35 3.35 0 0 0 .98.67l-.12.42-3.43-1 .12-.42a5 5 0 0 0 .6.08c.2.02.37 0 .51-.06.17-.08.31-.21.44-.43.11-.21.25-.59.4-1.12l1.24-4.3c.07-.24.1-.45.09-.63a.99.99 0 0 0-.15-.46c-.1-.14-.22-.26-.39-.36-.16-.11-.33-.2-.5-.25l.12-.42 2.89.84c.19 2.34.43 4.67.62 7 1.19-1.56 2.41-3.1 3.6-4.66a4.64 4.64 0 0 0 .58-.95l2.77.8-.12.42a4.02 4.02 0 0 0-.85-.1.46.46 0 0 0-.34.17.8.8 0 0 0-.17.33l-1.75 6.05a.82.82 0 0 0-.03.37c.02.11.09.22.2.33a3.62 3.62 0 0 0 .77.4l-.12.42m9.09-2.76a1.96 1.96 0 0 1 .68 1.8 2.1 2.1 0 0 1-1.18 1.66c-.3.15-.63.25-.99.3-.36.06-.73.07-1.1.02l-4.16-.52.06-.44a4.47 4.47 0 0 0 .86-.04c.13-.04.23-.1.3-.2.06-.08.1-.2.13-.35l.78-6.23a1 1 0 0 0-.02-.37.6.6 0 0 0-.25-.3 1.73 1.73 0 0 0-.4-.19c-.15-.05-.27-.1-.38-.1l.06-.44 4.05.5c.31.05.6.12.9.21.27.1.53.24.77.43a1.68 1.68 0 0 1 .65 1.58 1.8 1.8 0 0 1-.81 1.35 3.55 3.55 0 0 1-1.53.49l-.02.05c.25.06.52.16.82.29.3.13.56.3.78.5zm-1.33-1.5c.17-.15.3-.33.4-.53.07-.2.14-.44.17-.73.06-.47-.02-.86-.25-1.17-.23-.3-.63-.49-1.2-.56a28.4 28.4 0 0 0-1-.1l-.42 3.33.78.1c.34.04.64.03.89-.02.25-.06.46-.16.63-.31zm.51 2.88a1.7 1.7 0 0 0-.36-1.33c-.3-.38-.79-.6-1.44-.68l-.67-.08-.4-.04-.4 3.06c-.02.25.06.46.25.62.2.16.48.26.85.3.62.08 1.11-.03 1.48-.35.37-.32.6-.81.69-1.5zm11.91 2.75h-2.39c-.52-.82-1-1.52-1.42-2.12-.43-.6-.9-1.2-1.4-1.84h-.9v2.77a1 1 0 0 0 .07.38c.05.1.15.2.3.25.07.03.2.05.39.08.19.02.34.04.47.04v.44h-3.74v-.44l.44-.04c.19-.02.32-.05.4-.08a.53.53 0 0 0 .26-.23c.06-.1.09-.24.09-.4v-6.31c0-.14-.02-.27-.06-.38a.455.455 0 0 0-.3-.25c-.1-.04-.23-.08-.4-.1-.17-.04-.3-.06-.43-.06v-.44h4.09c.37 0 .72.03 1.05.1.33.1.63.2.9.38.25.17.46.37.61.64a2.41 2.41 0 0 1 .08 1.85c-.1.26-.26.48-.47.67-.18.18-.41.33-.67.46a5.5 5.5 0 0 1-.86.33l1.09 1.44 1.06 1.42a2.78 2.78 0 0 0 .93.83c.1.06.25.1.4.12.17.03.3.05.41.05v.44zm-3.28-6.5c0-.53-.16-.95-.46-1.27-.3-.3-.74-.46-1.3-.46h-1.06v3.74h.81c.58 0 1.06-.17 1.44-.54.37-.37.57-.85.57-1.48zm13.47 5.85-3.67.28-.03-.44c.32-.04.59-.1.8-.18.2-.08.3-.16.3-.25l-.02-.14a.48.48 0 0 0-.05-.14c-.29-.63-.6-1.26-.88-1.9l-3.1.24c-.1.3-.17.55-.22.77l-.16.6-.08.44c0 .12-.02.2 0 .27 0 .17.14.28.41.36.27.07.57.1.9.09l.03.44-3.32.25-.03-.44a2.08 2.08 0 0 0 .78-.29c.16-.12.28-.25.36-.38.09-.12.16-.3.23-.52.35-1.12.77-2.38 1.19-3.79l1.15-3.75.5-.03c1.15 2.44 2.35 4.85 3.5 7.28a1.35 1.35 0 0 0 .6.63c.1.06.23.1.38.12.16.03.29.04.4.04 0 .15.02.3.03.44zm-3.82-3.3-1.6-3.26c-.34 1.16-.7 2.31-1.06 3.47l2.66-.2zm16.37-6.88-.45.12c-.17-.3-.44-.57-.8-.86-.36-.29-.67-.41-.93-.38l-.45.08-.58.15-1.44.39.92 3.38.98-.27c.3-.08.53-.17.67-.28.14-.1.27-.23.34-.39.06-.11.1-.27.11-.47.02-.2.01-.4-.02-.63l.45-.12.9 3.32-.45.12a2.98 2.98 0 0 0-.29-.56c-.13-.2-.25-.34-.36-.42a.91.91 0 0 0-.53-.18c-.2 0-.43.03-.68.1l-.98.27.78 2.9c.04.13.1.24.18.33.08.09.19.14.34.17.07.02.21.01.42 0l.47-.07.12.42-3.7 1-.12-.41a9.76 9.76 0 0 0 .85-.35c.1-.08.18-.19.2-.3a.84.84 0 0 0-.02-.39l-1.65-6.08c-.03-.13-.1-.24-.16-.33-.07-.09-.19-.14-.34-.17a2.53 2.53 0 0 0-.47-.02c-.2.01-.36.03-.46.05l-.12-.42 6.7-1.82.57 2.12m9.86-.75.96 2.42-6.22 3-.2-.39.38-.23c.16-.1.26-.18.31-.24.1-.1.15-.2.15-.33a.8.8 0 0 0-.1-.39c-.9-1.87-1.8-3.75-2.72-5.63a.97.97 0 0 0-.22-.3.53.53 0 0 0-.37-.1c-.1-.01-.25 0-.43.04-.17.03-.31.06-.41.1l-.2-.39 3.37-1.62.19.4c-.1.05-.23.13-.38.24-.15.12-.26.2-.32.27a.43.43 0 0 0-.15.35c0 .13.04.26.1.38l2.55 5.28c.11.24.21.42.3.55.1.12.2.2.33.23.11.03.26.01.44-.06.19-.06.43-.16.73-.31l.43-.22c.15-.08.28-.17.4-.25.13-.09.23-.18.32-.27.1-.1.15-.18.18-.26.06-.25.13-.59.16-1.04.03-.44.05-.79.02-1.04l.4-.19m4.66-8.65c.54.15 1.05.4 1.53.79a5.36 5.36 0 0 1 1.91 3.25 4.32 4.32 0 0 1-.76 3.2c-.33.44-.74.8-1.25 1.1a4.09 4.09 0 0 1-4.78-.36 5.24 5.24 0 0 1-1.88-3.22 4.13 4.13 0 0 1 2-4.3 4.16 4.16 0 0 1 3.23-.46zm2.35 5.8c0-.44-.05-.89-.2-1.35a7.51 7.51 0 0 0-1.65-2.77 4.1 4.1 0 0 0-1.12-.83 2.32 2.32 0 0 0-2.33.08c-.42.25-.73.56-.91.94a2.8 2.8 0 0 0-.28 1.22c0 .41.08.85.24 1.32a7.46 7.46 0 0 0 1.6 2.7c.33.35.7.62 1.08.82.39.2.77.29 1.17.3.4 0 .8-.12 1.2-.36a2.4 2.4 0 0 0 1.2-2.06zm10.97-5.95-1.95 1.38c-.9-.37-1.7-.66-2.38-.9-.7-.25-1.43-.46-2.2-.7l-.74.53 1.6 2.26c.08.1.18.2.27.26.1.06.24.07.39.04a4.56 4.56 0 0 0 .78-.4l.25.35-3.05 2.16-.25-.35a8.2 8.2 0 0 0 .6-.58.5.5 0 0 0 .09-.35.78.78 0 0 0-.16-.37l-3.65-5.15a1.1 1.1 0 0 0-.27-.27c-.1-.07-.23-.08-.38-.04a3.2 3.2 0 0 0-.77.35l-.26-.36 3.33-2.36c.3-.21.61-.39.93-.52.31-.12.62-.2.94-.21.3-.02.6.04.87.16.28.13.53.35.74.65.2.28.33.55.39.82.07.27.07.54.02.81-.05.26-.15.5-.3.76-.13.26-.3.52-.5.77l1.72.54c.45.16 1.02.33 1.68.55a2.6 2.6 0 0 0 1.25.14 2.74 2.74 0 0 0 .76-.33l.25.36zm-6.43-3.41c-.31-.43-.68-.68-1.11-.76-.43-.08-.87.05-1.33.37-.3.2-.58.41-.87.62l2.17 3.05.67-.47c.46-.33.76-.76.85-1.27.1-.52-.03-1.04-.39-1.54zm13.72-2.09.73 2.47-6.89 2.56-.15-.41a4.29 4.29 0 0 0 .8-.45c.1-.1.17-.21.18-.32a.77.77 0 0 0-.05-.38l-2.19-5.88a1.02 1.02 0 0 0-.19-.32c-.08-.08-.2-.12-.36-.14-.12 0-.28 0-.46.03-.2.02-.35.05-.46.09l-.15-.41 6.42-2.39.73 1.98c-.14.06-.3.1-.43.16a2.82 2.82 0 0 0-.85-.74c-.4-.24-.7-.32-.95-.27l-.44.13-.58.2-1.3.48 1.2 3.25.94-.34c.3-.11.5-.22.63-.33.11-.1.2-.24.26-.41.05-.15.06-.32.05-.54a3 3 0 0 0-.07-.57l.43-.16 1.2 3.21-.44.17a3.3 3.3 0 0 0-.35-.55c-.14-.17-.27-.3-.38-.36a.9.9 0 0 0-.52-.14c-.17 0-.38.06-.64.15l-.93.35.9 2.46c.1.25.2.43.28.56.09.14.2.21.32.25.13.04.29.03.47-.02s.44-.12.76-.24l.5-.2a3.6 3.6 0 0 0 .96-.47c.14-.1.24-.2.27-.29.12-.25.2-.6.26-1.05s.08-.77.07-.96l.42-.16m7.4-6.06c.44.35.81.79 1.1 1.32a5.33 5.33 0 0 1 .49 3.75c-.15.59-.4 1.1-.74 1.56a4.03 4.03 0 0 1-2.8 1.6 4.03 4.03 0 0 1-3.19-.88 4.27 4.27 0 0 1-1.06-1.32 5.07 5.07 0 0 1-.56-1.76c-.1-.7-.06-1.35.09-1.94a4.14 4.14 0 0 1 3.53-3.17 4.23 4.23 0 0 1 3.14.84zm-.11 6.26c.18-.4.3-.84.34-1.32a7.52 7.52 0 0 0-.44-3.2 4.05 4.05 0 0 0-.69-1.2 2.34 2.34 0 0 0-2.18-.83c-.49.06-.9.22-1.2.5-.32.27-.58.6-.74 1.01-.15.39-.26.82-.29 1.31a7.25 7.25 0 0 0 .42 3.1c.16.46.4.85.67 1.19.26.34.58.56.95.73.36.15.78.2 1.25.14a2.39 2.39 0 0 0 1.9-1.43z" stroke="#000" stroke-width=".7"/>
    <path d="M422.97 213.66v55.25c0 10.99-1.52 54.74-48.53 71.74-47.1-17-48.63-60.75-48.63-71.74v-55.25h97.16" stroke="#000" stroke-width="1.02" fill="none"/>
</svg>
