<svg xmlns="http://www.w3.org/2000/svg" xmlns:xlink="http://www.w3.org/1999/xlink" viewBox="0 0 900 600">
    <path fill="#fff" d="M0 0h900v600H0z"/>
    <path id="a" fill="#435125" d="M434.8 498.25a1.018 1.018 0 0 1-.347-.245l-.125-.117a21.368 21.368 0 0 1-1.582-1.643c-1.332-1.513-3.119-3.728-4.69-5.685-3.115-3.883-5.689-7.228-6.174-7.858l-.793-1.032-7.767-2.395-5.671-2.644 3.03-3.406 10.408 4.456 7.767 1.594 14.363 10.564-.011.009c-.029.024-2.089 1.738-4.136 3.599-.913.83-2.064 1.896-2.877 2.783-.375.408-.705.813-.93 1.14a2.554 2.554 0 0 0-.252.471l.892-.555.967.752-1.968.184-.09.02zm-53.34-16.02c-6.777-.001-13.471-1.874-19.895-5.567l-.007-.004.003-.008s.84-1.601 2.878-3.096c1.941-1.425 5.442-3.128 11.1-3.15h.117c6.701 0 14.901 2.278 24.373 6.771-.32.212-7.756 5.054-18.566 5.054l.01.01zm-29.37-6.51c-1.253 0-2.379-.474-3.17-1.333-.649-.706-1.114-1.646-1.422-2.878-.504-2.018-.365-4.025-.351-4.217a4.349 4.349 0 0 1 1.562-.354l.112-.002c2.511 0 4.49 2.178 5.338 4.337.481 1.227.574 2.259.274 3.067-.3.81-1.24 1.37-2.34 1.37zm51.68-5.99c-17.359-2.479-24.717-8.755-27.833-13.583-3.323-5.149-2.641-9.912-2.634-9.96l.003-.014.013-.004c.005 0 1.061-.285 2.658-.293 4.618 0 16.43 2.323 27.798 23.842l.007.014-.02-.01zm-35.58-3.44c-7.416-.001-13.062-1.28-16.782-3.804-2.138-1.45-3.184-3.043-3.686-4.125-.47-1.014-.577-1.856-.594-2.023.196-.09 3.232-1.438 7.765-1.65.383-.018.769-.029 1.174-.03 5.732 0 14.448 1.87 23.646 10.78l.009.009-.011.001c-4.2.55-8.08.84-11.53.84zm-35.91-1.38c-7.82 0-18.563-2.388-25.263-9.087l-.007-.008.02-.005c.07-.018 7.342-1.863 15.523-2.062.488-.012.979-.019 1.475-.019 7.332 0 12.944 1.422 16.682 4.225 1.305.979 2.018 1.89 2.178 2.783.134.746-.26 1.55-1.056 2.15-1.683 1.271-4.692 1.949-8.945 2.017l-.6.02zm-25.34-13a3.206 3.206 0 0 1-2.479-1.167c-.506-.614-.858-1.416-1.108-2.522-.418-1.848-.292-3.656-.291-3.674l.001-.018a2.994 2.994 0 0 1 1.217-.275h.003c1.157 0 2.039.63 2.589 1.158a6.964 6.964 0 0 1 1.688 2.645c.365 1.03.424 1.892.18 2.635-.2.59-.88 1.21-1.8 1.21zm58.53-1.32c-1.253 0-2.379-.474-3.17-1.333-.649-.706-1.114-1.646-1.422-2.878-.504-2.018-.365-4.025-.351-4.217a4.349 4.349 0 0 1 1.562-.354l.112-.002c2.511 0 4.49 2.178 5.338 4.337.481 1.227.574 2.259.274 3.067-.3.82-1.25 1.37-2.34 1.37zm-28.51-1.18c-15.737-.554-23.904-5.027-27.984-8.683-2.297-2.058-3.574-4.098-4.24-5.447-.628-1.274-.866-2.249-.908-2.438l.021-.009c.003 0 1.489-.532 3.885-.579l.368-.004c5.307 0 16.111 2.229 28.852 17.153v.01zm17.09-1.59c-12.661-1.928-19.834-7.363-23.622-11.585-3.971-4.425-5.16-8.546-5.213-8.738.023-.007 1.57-.41 3.9-.469a17.83 17.83 0 0 1 1.077 0c6.368.139 17.934 3.023 23.855 20.785h.01zm-65-6.08c-4.149 0-8.174-.48-11.962-1.427-6.629-1.658-9.473-4.189-10.691-6.021-.692-1.04-.943-1.952-1.031-2.534a4.268 4.268 0 0 1-.031-1.073l.031-.011c.017-.004 4.4-1.235 10.464-1.328a43.783 43.783 0 0 1 9.289.824c10.536 2.107 16 10.06 16.053 10.14l.005.009-.013.003c-.06.01-5.08 1.42-12.12 1.42zm29.39-10.68c-1.269 0-2.395-.463-3.172-1.304-.639-.691-1.104-1.643-1.42-2.908-.506-2.015-.365-4.002-.351-4.185a4.349 4.349 0 0 1 1.562-.354l.112-.002c2.506 0 4.488 2.179 5.339 4.338.468 1.188.55 2.208.243 3.034-.31.84-1.22 1.38-2.31 1.38zm-22.1-3.03c-.095-.023-5.977-1.536-11.967-5.225-5.544-3.413-12.326-9.45-13.153-18.83v-.005l.014-.004c.001 0 .516-.125 1.278-.154a8.82 8.82 0 0 1 .334-.006c1.656 0 5.046.466 9.147 3.584 5.22 3.98 10.04 10.92 14.35 20.65zm14.43-.53c-.037-.015-4.229-1.693-9.469-6.084-4.882-4.092-11.746-11.46-16.716-23.33.003-.001 1.142-.608 2.886-.718.101-.007.203-.009.306-.009.15 0 .305.005.463.009 2.411.068 6.083 1.07 10.154 5.463 4.676 5.047 8.85 13.34 12.404 24.651l.01.032-.03-.01zm-37.39-1.09c-4.821 0-6.471-2.615-6.957-3.74-.798-1.849-.556-3.689-.554-3.707l.003-.02c.78-.195 1.605-.303 2.398-.314l.165-.001c3.799 0 6.798 1.929 8.084 3.841.255.379 1.037 1.694.39 2.721-.52.81-1.7 1.22-3.53 1.22zm-10.68-13.47c-2.692 0-6.811-.165-11.141-.952-4.294-.781-6.728-4.432-8.013-7.356-1.399-3.185-1.794-6.223-1.798-6.254h.012c13.282.39 19.555 4.271 22.478 7.457 3.018 3.29 3.197 6.706 3.206 6.922l-.009.001c-.02 0-1.89.18-4.74.18zm13.83-13.82a53.416 53.416 0 0 1-3.033-4.228c-1.573-2.445-3.028-4.996-3.028-7.084 0-2.016-.474-6.266-.757-8.619-.358-2.985-.72-5.54-.75-5.757l.013.004c.337.123 8.308 3.114 8.308 10.591 0 7.489-.738 15.014-.745 15.089l-.001.011h-.01zm-10.33-.71c-.084 0-.167-.008-.25-.021-2.356-.393-6.496-2.194-11.073-4.818-5.082-2.914-9.209-6.036-11.62-8.791-2.198-2.512-3.503-6.457-3.88-11.726-.267-3.739.053-6.854.087-7.163.412-.137.85-.204 1.315-.204 1.764.029 3.647.823 6.189 2.574 1.981 1.365 4.165 3.221 6.49 5.514 4.012 3.957 7.168 7.932 7.199 7.971l.032.04c.265.475 2.537 4.571 4.307 8.558 1.124 2.532 1.767 4.357 2.024 5.746.147.791.19 1.31-.004 1.781-.081.195-.235.376-.385.448-.14.06-.28.09-.44.09z"/>
    <use xlink:href="#a" transform="matrix(-1 0 0 1 842.178 0)"/>
    <path fill="#d47600" d="m698.83 95.476-2.355.938-.923.368-2.854-.157-2.673 1.283-4.74 3.239-.209.15-1.767.461-1.641-.708-.932.424-.321 1.92-.887 1.379-1.092.767-3.783.387-3.19 1.645-4.15-1.111-1.928.755-4.099 3.692-2.095.992-.732-.042-2.778-.143-1.173.384-1.752 1.693-3.315.258-1.033.715-1.618 3.26-1.753 1.808-1.003.212-1.087-.398-.817.144-.37 2.086-.793.874-2.219.764-1.773 1.477-1.556.799-2.084-.052h-.479l-2.076 1.146-3.905.342-1.624 1.549-.358.331-.758.458-1.24.74-.304.184-1.495-.267-1.75.693-.708-1.089-1.211.727-1.604.069-1.998-.889-1.522-.678-1.113.161-.387 1.94-.039.206-1.17 1.557-2.184 1.323-.297.387-2.485 3.208-4.722 4.966-3.993 2.028-4.139 1.259-2.897 2.38-7.599 3.767-11.994 5.967-2.453.786-3.52.562-6.278 2.312-5.539 1.671-.308.094-1.096.332-7.81 2.363-3.635-.384-2.153.782-5.605-.622-3.897.077-2.467.513-4.637 2.224-7.827 3.762-2.586 2.366-4.027 2.101-4.715 1.493.011-1.981-.028-.084-1.636.517-1.181.373-3.825.59h-2.128l-1.321-.384-.204.069-7.818 2.576-8.719.842-4.363 1.399-3.26-.052-2.038.607-3.995.488-1.428-.381-.322-.088-11.75.51-5.372-.607-2.564.583-4.296-1.445-6.269-.727-1.465-.439-3.295-.978-1.491.859-1.116.119-2.667-.967-.96-.025-2.202.796-1.267-.325-1.177-.938-2.761-.411-1.682-1.414-9.402 1.246-2.551-.75-8.554-2.492-1.361.069-1.696 1.271-2.548.929-2.212.575-3.012.105-3.497-.918-3.606-1.748-1.333-.317-2.974.3-.91.083-5.466-2.932-7.042-4.404-4.778-2.296-1.794-.291-.241.853.89 2.805.303 2.774-.091 2.563-.049 1.587.446 1.425 1.725 1.912.719 1.92.526 5.284-.006 5.362-.839 8.551-.283 1.302-1.001 4.43-.914 4.069-3.546 10.833-.974 1.343-2.391 1.631-5.419 3.688-3.99 2.301-1.263.523-3.239.245-2.018-.105-2.513-1.361-2.467-.635-3.232-2.324-3.595-.744-3.941-2.278-1.026-1.233-2.146-.202-2.976-.893.002-.005-1.093-.327-.755-.22v-.001l-3.796-.104-3.54-1.634-1.864-.45-2.547-.129-2.666 1.239-.001-.004-1.351.629-1.707-.678-1.235.077-1.399 2.115-.209.328-.964.51-1.2-.017-.939-.025-1.016.444-1.368.593v.003l-1.208.527-.59.255-.01-.01-.363.073-.645.112-.8.153-1.41-.824-.75-.442-1.257-.256-.677.489-.133 2.301-.618 1.378-1.961 1.734-1.993 1.755-1.389 2.047-3.676 8.39-2.303 3.385-.715.789-2.408 2.656-2.136 1.657-4.922 3.815-4.659 1.741-4.013.82-1.951.008-3.696-.492-3.323-1.02-3.65-2.282-4.003-3.217-5.794-5.724-.82-.493-.171-.114-1.825-1.167-1.354.035-.53.874-.29 1.263-.245 1.12-.664 6.367.049.369.349 2.622 4.401 6.15 1.358 3.267.223.373.908 1.525.691 1.163.069.118 1.504 4.488-1.057 2.534.534 1.697-1.336 1.037-.245 1.465 3.951 4.953.862 2.185-.963 3.029-1.536 1.671-.429.457.216 1.28 1.818 1.635 3.089 2.75 1.647 4.086 1.253 1.096 1.456-.31.81.618 1.228-.021 1.208 1.208.782.379 1.236.616.977 1.272.216 3.911 1.822 4.86.028 2.635.01.374 1.134 1.948.356 1.538-.604 4.069 1.445 1.306 1.567-.32 1.012.16 1.626 1.354 1.969 3.001 1.926-.282 1.222.589 5.902 5.334 1.339.676.074.042.963.483 1.197 1.208 1.856-1.232.206-.021 2.018-.178.886.597 1.704 1.149 2.234-.029 4.844 1.485 2.119.543 4.261 2.648 1.811 1.12 1.072.871 1.424 1.161 2.845 1.224 2.44.584 1.322.314.995.384.025-.062.014.004-.024.063 5.284 2.023 2.862.668 2.648.975 1.927.703 1.414.023 2-1.682 1.937-.112 1.609.401 1.57-.263 2.485-1.531.485-.719 1.762-.839 5.944-.738 1.737.564 4.46-1.94 2.988.831 2.645-.938 5.779 1.284 1.536 1.081 1.717 1.965.21.009 1.912.037-.799 1.331 2.523 2.647 2.279 3.445.154.455 1.657 4.864 1.232 1.723.862 2.405.042 1.568-1.34 1.022-.22.583-.076.216.272.655.506-.276.963-.533 1.166-.181 2.066.22 1.364.143 2.154-1.069 1.427-.71 2.293.987 2.52-.028 1.058.471 2.995 1.358 1.529.144.565-.371.36-.856-.185-.996-1.145-1.323-2.531-2.938-1.036-1.51-.789-2.186-.245-2.794-.174-1.885.314-2.477.68-.884.5-1.968h.009l.129-.515 1.406-1.866 3.724-2.393 4-3.582 3.162-2.085 3.26-1.412.087-.396.363.146 8.292-2.819.137-.016 3.692-.643 24.92 1.755.924-.279.004-.006.83-2.33.447-.432.297-.282 2.74-1.206 1.281-.183 3.556.878 1.456.359 2.332-1.307 1.654.028 3.417-1.866 2.111.053.803-.321 4.112-2.955 3.961-1.135 1.03-.548.363-.199 4.06-2.144 2.579-1.981 2.226-1.183 2.438-.629 6.38-.449 1.283-2.138 2.744-.366 1.657-1.87 1.896-.771 1.359-1.958 1.139-1.641 1.591-.921 5.1-.32 6.045.749.799-.485 1.366-4.875 1.43-.915 3.851-5.612.013-2.045.004-1.708.633-2.432-.43-4.391.51-4.446 2.394-5.65 2.109-2.279 3.401-2.301 1.729-.753 2.449-.412v-.006l.36-.061.624-.107 8.433-.116c.117-.087 3.067-.042 3.067-.042l2.812-.038 7.114 1.266.506.088 2.405.779 2.774 2.157 2.936 2.868.551.535 1.902.801.575.251 1.571-.251 2.237-1.165 1.688-1.427 2.301-1.257.056-.08 1.295-1.948.039-.04.028.007.003-.011-.022-.005.511-.775 4.447-1.733 5.23-.304.588-.318.327-.175 1.382-1.623 1.295-.011 3.135 1.134 2.204-.437 1.75.699 1.36-.161 2.565-.304 2.754 1.938 1.605.205 5.658 3.31.294.048.152.028.324.053.671-.199.998-.289.132-.039.126.174.643.907.882.126 1.044-1.393-.415-.632-.157-.23-2.021-.411-1.815-3.103 1.728-1.861-2.711-3.326-.45-.551-.153-.234-.937-1.423-4.746-7.235-6.182-4.935-.002.004-2.165-1.732-.014-.01-.758-.596-3.302-3.358-2.358-3.13-.309-.674-.487-1.062-1.413-3.078-2.462-1.896-2.006-2.191-.098-.129-4.14-5.626-.68-.943-.978-.565-2.066-.014-.195-.196-.116-.121.07-.074.991-.985 1.105-.278.476-1.089-2.108-6.104-.014-.213-.157-1.95 1.718-8.855.22-1.079 2.928-5.958 1.814-1.486 1.98-3.892 1.696-2.488 1.625-1.582.284-.168 2.934-1.776 2.465-.347 2.348-.331 4.099 1.264 3.901-.076.761-.081 1.77-.203 2.911-.917 1.374-.848.713-1.093 1.487-4.987.478-1.587.917-1.724 5.306-6.108 4.011-3.71 9.019-6.613 4.415-2.639 2.254-1.347 20.126-8.946 5.23-5.302 2.725-2.757 4.821-3.235 5.641-2.311 4.854-3.842 1.06-1.334 1.336-4.303 1.113-.269 1.005-2.174.286-.618 3.961-2.792.448-.223 15.388-7.71 2.236.307 1.197-1.793 4.477-.751.824-.14 1.104-.551.939-1.599v-.316l.129-4.273.956-1.155.521-2.816.491-.65.513-.676 1.268-.891-.22-.531z"/>
</svg>
