<svg xmlns="http://www.w3.org/2000/svg" viewBox="0 0 1200 600">
    <clipPath id="a">
        <path d="M0 0v150h700v150H600zm0 300v100h300V0h300z"/>
    </clipPath>
    <path fill="#002868" d="M0 0h1200v600H0z"/>
    <path d="m0 0 600 300M0 300 600 0" stroke="#fff" stroke-width="60"/>
    <path d="m0 0 600 300M0 300 600 0" stroke="#ce1126" stroke-width="40" clip-path="url(#a)"/>
    <path d="M300 0v400M0 150h700" stroke="#fff" stroke-width="100"/>
    <path d="M300 0v400M0 150h700" stroke="#ce1126" stroke-width="60"/>
    <path d="M0 300h600V0h600v600H0z" fill="#68bfe5"/>
    <g stroke-miterlimit="4.8">
        <path fill="#fff" d="M778.8 143.94v205.09c0 67.08 121.2 106.91 121.2 106.91s121.2-39.833 121.2-106.91V143.94z"/>
        <path fill="#d21034" d="M883.2 216v92.344H778.8v33.6h104.4v107.6l16.8 6.396 16.8-6.396v-107.6h104.4v-33.6H916.8V216z"/>
        <path fill="#d21034" d="M778.8 143.94h242.4v79.2H778.8z"/>
        <g stroke-miterlimit="3">
            <g fill="#fff" stroke="#000" stroke-width=".805">
                <ellipse stroke-width=".803" cx="798.23" cy="192.212" rx="13.623" ry="10.962"/>
                <ellipse cx="798.23" cy="186.525" rx="12.114" ry="6.123"/>
                <ellipse cx="798.23" cy="198.769" rx="12.114" ry="6.123"/>
                <ellipse cx="798.23" cy="192.213" rx="12.114" ry="6.123"/>
            </g>
            <path fill="#ffd100" stroke="#000" stroke-width="1.2" d="m1015.2 207.43-1.985-5.476s-5.433-2.216-5.847-5.102c-.968-7.694-3.714-10.578-7.83-11.678-4.125-1.1-6.868.689-6.868.689-1.24 1.787-7.426 1.787-10.859 1.921-3.434.14-3.493-1.492-3.493-1.492-2.668.02-3.79-1.941-3.79-1.941-1.746-3.487-3.045-4.792-3.908-5.233 4.457.066 7.813-1.991 12.844-7.27 5.493-5.772 9.415-3.54 9.415-3.54-2.666 5.39.887 4.913.887 4.913 7.28-3.706.96-13.051-1.237-12.638-2.198.41-2.825-1.07-2.825-1.07.067 1.678-2.44 2.345-2.44 2.345 1.88-10.674-4.489-13.504-4.489-13.504-.964.962-1.516 2.884-1.516 2.884-1.783 6.458-7.69 5.497-14.29 2.335-6.592-3.158-24.179 3.3-29.672 5.497-5.5 2.199-15.528 5.634-24.596.55-9.064-5.087-11.269-4.124-14.839-3.16-3.574.96-9.888 2.475-12.222 1.235-2.338-1.236-5.002-1.313-5.002-1.313.636-.355-.358-1.846-.358-1.846-2.747-3.708.358-5.981.358-5.981s-5.115 1.44-3.08 10.169l.934 1.309s.685 2.746 2.2 3.571l-.054.601s1.293-.6 1.7 1.184c.418 1.785 2.34.138 3.164-1.372 0 0-1.376 7.97 8.52 9.892 0 0-1.107-1.238-.693-2.062.41-.824-1.234-1.517-1.095-2.75.136-1.232-2.47-1.782-.414-2.748 2.058-.962 3.026-2.886 7.42-.275s7.834 2.064 7.834 2.064-2.681-5.502-1.204-5.499c1.477.002 8.123 8.23 11.394 7.823 3.272-.403 9.593-4.113 12.754-2.74 0 0 .271-1.648 12.36-3.71 12.092-2.061 27.006-8.087 32.599-2.807 0 0 .654 4.182 2.987 5.283 0 0-.418 8.654-15.385 3.842l-5.43-1.428s-.834-2.629-29.304 4.693c0 0-1.675.585-2.775 1.412-1.102.82-2.614-.414-8.247 1.645-5.628 2.065-26.654 8.935-39.564 6.46l-.017.034c-2.844-.85-5.508-.41-5.616-.859-.14-.55 1.513.14 1.513.14-.96-1.102-1.374-1.191-1.374-1.191-10.855-1.19-8.936-6.094-8.936-6.094l.553 1.512c1.787-2.334-.692-7.83-.692-7.83l-.105.018a5.679 5.679 0 0 0-.1-.5l.897-.62c5.222-4.397 11.269-5.222 11.269-5.222-3.575-4.394-11.134-2.058-11.134-2.058.14-5.358-2.058-11.542-2.058-11.542-7.423.825-11.678 7.006-11.678 7.006-.275-5.494-7.284-8.652-7.284-8.652 2.608 3.158.964 10.714.964 10.714l.274.138c-.434-.011-.688 0-.688 0l-.156 1.62-.257-.108s-2.608.96-5.63 7.83c0 0-.305 1.623-1.474 3.087-.01-.19.01-.36-.013-.559 0 0-3.376 4.423-11.176 0 0 0-10.598-6.288-14.323-6.055-3.725.232-6.174 1.979-5.937 3.026 0 0-8.504-.7-11.413 4.19 0 0-6.403 2.329-.93 7.57 0 0 .733 2.277 2.326 3.497 0 0-.226-4.784.933-3.378 0 0 .302.472.874.802.152.67.666 2.534 1.804 3.483l.82-.26c.124-1.193.382-2.7.647-3.334.125.017.225.032.27.035-.036.035-.07.055-.104.087l1.513 2.329 1.745-.931c.817-.12 1.863.7 1.863.7l1.98-1.632c-.012-.018-.024-.021-.036-.04 1.95.326 2.483-3.454 2.483-3.454 1.752.46 3.39-.055 4.785-.9.85 3.134 7.791 6.496 7.791 6.496l.299-.026c-.588.376-.937.658-.937.658 3.158 2.202 9.067 1.651 9.067 1.651-2.47.964-2.125 5.537-2.125 5.537-1.444.593-1.585 2.018-1.585 2.018 4.81 1.92 8.095.33 8.095.33.264 1.565-.125 1.732-.125 1.732-1.922 4.12-2.747 8.105-2.747 8.105.042.018.091.027.132.042-.059.108-.132.212-.177.324 0 0-8.384 2.91-12.11 6.986 0 0-.35-1.166-1.399-1.166-1.047 0-4.308-2.675-5.822-3.143-1.51-.463-3.725.468-4.308-.23-.527-.635-.29-5.405-1.298-6.174l.019.004-1.049-2.91c-.698 1.512-3.608 1.161-3.608 1.161-.116.07-.563.396-1.197.869-.58.031-1.249-.17-1.249-.17-.299.062-.594.9-.811 1.716-.117.086-.235.176-.353.266v-.817c-.58.465-1.745-.233-2.213-.233-.228 0-.51.667-.739 1.352-1.184.22-2.754.279-2.754.279-.466.233-.119 3.842-.119 3.842-3.374 1.865-1.746 4.657-1.746 4.657 1.864 9.083 17.35 5.007 18.515 6.174 1.162 1.166 3.843 1.395 5.24 1.395 1.395 0 3.14 3.378 5.122 3.727 1.981.35 0-2.677 9.183-4.87 9.178-2.194 12.239-5.959 12.239-5.959 2.875-.554 3.675-4.049 3.89-5.46.028.65.104 1.37.209 2.19.414 3.161-1.77 4.312-1.77 4.312l7.955-2.388c3.157-.825 2.746-3.575 2.746-3.575 3.022 8.657 8.52 9.206 8.52 9.206 1.098-3.298.963-4.26.963-4.26l2.472-.135c.1-1.864-1.545-3.226-2.497-3.86l3.87 2.348 1.508-.275c0 1.374 2.062 2.608 2.062 2.608l.278-1.782c1.787 2.335 5.083 1.51 5.083 1.51a11.039 11.039 0 0 0-.291-1.284c7.04 4.346 18.286-1.189 18.286-1.189 3.021.687 3.434-1.1 3.434-1.1 3.434.41 4.231-1.937 4.231-1.937 8.083-.7 13.772-6.446 13.772-6.446 3.98-.275 4.11-3.122 4.11-3.122s3.991.788 7.84-4.022c8.928-12.775 22.28-6.124 22.28-6.124l-7.72.489c-20.194-.136-11.822 13.598-11.822 13.598l1.245-.132c1.923.411 8.515 5.633 6.085 9.522-.039.068-.091.13-.136.193-4.117 5.636-11.742.26-13.915-4.495-2.2-4.807-6.599-3.707-6.599-3.707s-11.4 1.924-6.73 10.991l.17.005c.086 2.213 1.475 4.734 5.542 7.24 2.284 3.231 9.794 3.568 15.31 2.373 2.566-.56 16.112-6.384 16.112-6.384.993-2.95 4.36-2.27 7.38-6.529s-4.26-5.772-5.907-8.105c-1.651-2.339.414-1.925.414-1.925 6.592 3.573 7.141-7.832 7.141-7.832.69 6.593 6.458 8.38 6.458 8.38 3.574-3.568.967-10.852.967-10.852 8.519 15.25 13.678 12.822 13.678 12.822-4.587-2.84-2.278-6.64-2.278-6.64 4.117 16.211 21.022 2.062 21.022 2.062-.824 2.332.004 3.705 1.513 5.217 1.51 1.512 3.297 2.2 2.476 4.948-.827 2.747-8.653 2.2-8.653 2.2s-7.698-.411-7.007 6.046c.403 1.509 5.49 2.058 7.414 1.648 0 0-.794.173 2.05.553.953.122 2.104.143 3.275.104 3.279-.1 6.77-.657 6.77-.657 4.391-.959 3.707-2.476 3.707-2.476 6.726-1.24 7.418-5.775 7.418-5.775z"/>
            <path d="M791.954 179.295c.005-.007.361-.848 1.04-.95.522-.077 1.157.31 1.828 1.125l.367-.276c-.015-.027-1.813-2.646-1.097-4.495.32-.824 1.114-1.39 2.357-1.67l-.1-.452c-1.403.322-2.306.98-2.686 1.958a3.132 3.132 0 0 0-.202 1.136c0 .904.318 1.82.645 2.522-.407-.255-.803-.36-1.184-.303-.69.104-1.026.601-1.208.925zM1004 215.28c-4.59.728-11.328 1.132-11.864-.257-.094-.247-.11-1.238 3.648-3.685l-.438-.673c-3.136 2.042-4.398 3.518-3.96 4.646.962 2.5 10.799 1.072 12.763.759zm-87.8 2.65c-1.046-1.6-.576-3.793 1.398-6.523l-.65-.47c-2.194 3.019-2.672 5.524-1.422 7.435z"/>
            <path d="M910 211.02c.1 2.768 2.056 5.339 5.8 7.632l.42-.686c-3.504-2.144-5.322-4.49-5.417-6.974-.138-3.812 3.89-6.752 3.929-6.783l-.47-.654c-.18.128-4.418 3.216-4.262 7.465zm78.29 1.03c-1.259 1.859-.838 4.11-.82 4.205l.788-.155c-.007-.022-.372-2.026.703-3.604.645-.949 1.686-1.564 3.097-1.832l-.145-.79c-1.635.31-2.85 1.04-3.623 2.176zm-179.37-35.16-.248-.062-.034.255c-.007.025-.358 2.464-1.464 3.127-.31.185-.643.206-1.028.065l-1.878-1.142c-.375-.33-.696-.573-1.238-.414-.108-.14-.538-.724-.538-1.662 0-.105.007-.216.022-.329.134-1.1.902-2.161 2.29-3.151l-.264-.376c-1.505 1.075-2.338 2.243-2.484 3.48a3.351 3.351 0 0 0 .697 2.448l.112.129.152-.07c.418-.185.539-.076.946.284l2.027 1.233c.514.19.99.155 1.422-.102 1.144-.685 1.545-2.681 1.639-3.235 4.877 1.048 8.802-4.88 8.972-5.135l-.39-.252c-.035.062-4.04 6.134-8.713 4.909z"/>
            <path d="M797.23 175.98c-.244.988-.077 1.957.487 2.882.539.878 1.07 1.344 1.623 1.418.674.093 1.213-.407 1.688-.845.346-.324.674-.625.944-.605l.42.29.36-.288-.747-.46c-.472-.035-.868.332-1.29.726-.421.386-.853.793-1.314.73-.4-.056-.832-.463-1.29-1.207-.497-.815-.647-1.669-.436-2.53.526-2.176 3.127-3.775 3.155-3.79l-.236-.393c-.117.068-2.792 1.71-3.364 4.072zm-6.71 31.06c.233-.841.88-1.558 1.919-2.135-.205.02 1.019 1.015 2.069.904l.681-.369c.279.24 2.097 1.895 2.097 3.992 0 .441-.08.894-.279 1.353l.426.179c1.33-3.15-2.015-5.944-2.046-5.974l-.122-.096-.207.134-.596.324c-.86.09-1.979-.819-1.987-.827-1.411.615-2.133 1.43-2.4 2.399zm15.53-8.04c-1.004.085-3.802.62-4.715 2.071-.33.527-.379 1.107-.139 1.733l.367.977c.871 2.343 1.776 4.765 2.763 5.312l.223-.4c-.838-.465-1.75-2.913-2.556-5.072l-.365-.977c-.187-.494-.156-.928.095-1.328.75-1.19 3.265-1.765 4.365-1.856.641-.052.85 2.313.977 3.727l.457-.042c-.183-2.083-.376-4.236-1.472-4.145z"/>
            <path d="M798.38 201.3c-.588.526-.47 1.318-.462 1.352.005.218.266 6.068 3.044 7.277l.183-.421c-2.514-1.096-2.767-6.845-2.771-6.901-.001-.035-.083-.616.317-.966.421-.375 1.259-.403 2.42-.084l.123-.442c-1.34-.37-2.3-.308-2.854.185z"/>
            <path d="M796.18 201.78c-1.229.856-1.178 3.298-1.177 3.4l.46-.008c0-.026-.046-2.303.98-3.015.383-.264.887-.275 1.501-.027l.17-.425c-.765-.312-1.418-.287-1.934.075zm66.15-32.29c.022.038 1.31 2.945 1.31 5.305 0 .419-.198.717-.291 1.081-.052-.135-.5-1.366-.5-1.366l-.39.987c-.017.055-.525 1.384.382 2.883 1.2 1.977 4.187 3.243 8.884 3.758h-.002c0 .004.059.055.066.065-.195.026-.341.08-.385.122l-.189.16.025.4c.122.488.678.512 1.784.554.187.01.49.055.705.066.275.077.557.153.557.153l-.094-.108c1.07.074 2.274.338 3.581.826-.289.076-.995.252-.995.252l1.162.458c.088.035 8.648 3.474 12.191 6.303-1.006.872-5.3 4.08-12.736 2.247l-1.246-.306.845.965c.052.058 4.896 5.614 5.9 8.983-1.687.017-8.185-.042-10.455-1.971l-.588.535c.03.05 3.115 4.576 3.804 8.105-.884.116-3 .203-4.252-1.433l-.577-.751-.313 2.037c-.605-.456-1.367-1.137-1.367-1.867v-.48l-1.833.333-3.765-2.283a7.975 7.975 0 0 0-.605-.365c-.004-.004-.035-.022-.035-.022l-.027-.016-.39.706s.448.267.577.348c.806.525 2.186 1.67 2.325 3.188-.595.035-2.448.136-2.448.136l.046.426v.067c0 .252-.08 1.304-.848 3.679-1.158-.276-5.37-1.744-7.858-8.874l-.775.192c.004.02.013.114.013.265 0 .65-.23 2.279-2.465 2.86-.013.004-4.15 1.248-6.452 1.937.43-.616.824-1.46.824-2.685 0-.26-.017-.54-.051-.837-.14-1.036-.224-1.899-.224-2.619 0-1.501.369-2.395 1.406-3.031l-.362-.716c-.097.038-9.618 3.82-14.339 2.25.216-.922 1.016-4.162 2.628-7.616l-.208.198c.31-.132.625-.615.364-2.166l-.086-.528-.484.233c-.03.015-3.052 1.363-7.417-.236.089-.358.32-1.001 1.235-1.38l.268-.108-.026-.292c0-.01-.01-.213-.01-.531 0-1.179.184-3.94 1.88-4.602l-.18-.777c-.055.007-5.161.415-8.257-1.307.812-.56 2.519-1.592 4.505-1.878l.318-.045.022-.318c.004-.016.011-.11.011-.26 0-.403-.156-1.219-.511-2.04 1.178.328 2.59.625 3.091.249l.17-.128-.146-3.099-.803.039.123 2.562c-.504.027-1.788-.23-3.035-.626l-1.234-.392.795 1.024c.645.829.727 1.858.737 2.331-2.79.519-4.976 2.251-5.07 2.33l-.41.337.435.303c2.4 1.672 6.153 1.817 8.08 1.775-1.136 1.28-1.328 3.421-1.328 4.492 0 .22.007.278.011.386-1.363.736-1.568 2.118-1.577 2.182l-.03.3.282.116c4.125 1.644 6.941.85 7.897.497.007.128.035.302.035.393 0 .378-.07.494-.07.494-2.026 4.248-2.875 8.286-2.885 8.324l-.066.334.313.124c3.828 1.53 10.705-.559 13.75-1.634-.399.689-.632 1.464-.632 2.429 0 .809.098 1.718.233 2.731.035.257.05.494.05.724 0 2.28-1.541 3.142-1.615 3.18l.306.741 7.955-2.389c1.84-.478 2.531-1.565 2.824-2.489 3.139 7.444 8.066 8.115 8.285 8.14l.32.027.1-.302c.766-2.287.943-3.449.978-4.01a439.55 439.55 0 0 0 2.462-.131l.02-.361c.004-.063.004-.123.004-.182 0-.658-.205-1.24-.49-1.764.498.3 1.377.834 1.377.834l1.318-.24c.344 1.33 1.923 2.374 2.127 2.499l.512.307s.188-1.212.267-1.74c1.965 1.758 4.753 1.235 4.885 1.202l.352-.09-.052-.357c-.4-2.688-2.204-5.886-3.265-7.596 3.491 1.587 9.85 1.471 10.163 1.461l.474-.016-.093-.465c-.564-2.825-4.094-7.272-5.57-9.04 8.201 1.541 12.606-2.714 12.795-2.907l.288-.306-.317-.278c-2.757-2.402-9.112-5.19-11.665-6.257l.894-.226-.883-.494c-2.135-1.2-4.398-1.349-5.928-1.415l-.007-.012c-.97-1.111-1.464-1.289-1.589-1.316-5.546-.612-7.579-2.166-8.317-3.366-.062-.099-.031-.166-.077-.262.12-.16.244-.318.244-.318.535-.697.726-1.63.726-2.617 0-2.547-1.294-5.457-1.367-5.625l-.738.334z"/>
            <path d="M836.8 167.86c-.017.08-.608 3.119-3.196 4.543-1.947 1.07-4.52.982-7.639-.266l-.351-.14.037.376c.008.078.213 1.864 1.897 3.172 1.402 1.092 3.408 1.475 5.922 1.2-.841.998-3.544 4.452-3.544 7.802 0 .177.011.354.028.528.344.247 4.58 1.395 6.544-1.116.07 1.077.379 4.522 1.724 5.87.737.733.91 1.804.91 2.66 0 .771-.146 1.367-.146 1.379l-.152.613.511-.372c.163-.119 4.057-2.971 5.302-6.707-.004.01.623-.937 1.825-1.325-.025.163-.046.33-.046.563 0 1.444.633 4.064 4.836 5.671l.345.132-.031-.367a7.135 7.135 0 0 1-.028-.726c0-1.055.146-2.993 1.15-3.997.662-.66.86-1.404.86-2.049 0-.507-.112-.918-.226-1.22.849.215 2.855.862 3.672 2.39 1.186 2.223 5.338.454 5.516.38l-.143-.437c-.017.004-1.746.391-2.837-.358-.48-.33-.768-.837-.869-1.51l-.192-2.31c-.042-1.047-.187-1.712-.713-2.271.55-.05 1.652-.031 2.118 1 .734 1.617 3.251 1.774 3.356 1.783l.861.045-.723-.468c-.024-.014-2.198-1.456-1.822-3.336l.313-1.376c.595-2.48 1.585-6.632.779-9.181l-.438.14c.2.636.282 1.39.282 2.196 0 2.26-.64 4.944-1.072 6.738l-.316 1.395a2.608 2.608 0 0 0-.052.538c0 1.217.79 2.146 1.405 2.705-.74-.16-1.766-.512-2.151-1.37-.605-1.326-2.229-1.387-3.004-1.23l-.542.109.462.307c.73.487.75 1.054.802 2.293l.195 2.358c.115.804.473 1.419 1.06 1.824.515.35 1.117.4 1.666.44-1.233.321-2.924.522-3.531-.62-1.145-2.132-4.292-2.702-4.424-2.727l-.48-.083.24.421c.026.046.358.652.358 1.422 0 .546-.167 1.171-.733 1.735-1.116 1.126-1.287 3.167-1.287 4.296 0 .221.011.252.015.387-3.595-1.511-4.231-3.749-4.231-5.016 0-.539.104-.898.118-.945l.105-.354-.365.062c-1.746.288-2.472 1.71-2.503 1.77-.999 2.991-3.71 5.359-4.691 6.148a6.88 6.88 0 0 0 .066-.895c0-.935-.202-2.126-1.05-2.976-1.43-1.429-1.624-5.973-1.624-6.019l-.03-.82-.4.712c-1.582 2.833-6.2 1.472-6.245 1.46-.195-3.58 3.866-8.16 3.908-8.206l.425-.472-.626.092c-2.652.384-4.712.03-6.123-1.06a4.63 4.63 0 0 1-1.644-2.499c3.076 1.146 5.656 1.21 7.642.113 2.774-1.534 3.383-4.675 3.407-4.807 2.913-6.606 5.458-7.649 5.486-7.656l-.16-.431c-.115.04-2.74 1.073-5.768 7.95z"/>
            <path d="m843.45 158.07-.194.007-2.364 3.24.702.07c12.829 1.248 19.613 8.988 19.679 9.068l.296.344 2.326-2.527-.17-.26c-6.506-10.244-20.136-9.947-20.275-9.942zm.22.804c1.585.004 13.27.365 19.189 9.331-.29.313-.935 1.019-1.28 1.397-1.387-1.438-7.962-7.582-19.237-8.906a631.23 631.23 0 0 1 1.328-1.822z"/>
            <path d="M841.6 164.84c-1.096 1.495-2.114 3.707-2.114 4.742 0 .198.038.354.122.453.007.01.046.013.059.029-1.336 1.197-2.131 3.196-2.131 5.456 0 1.243.22 2.538.681 3.773l.257.695c1.259 3.424 2.344 6.384 7.788 4.641 5.244-1.675 5.45-2.011 6.77-4.189l.345-.564c.72-1.17 1.506-1.404 2.343-1.652.999-.3 2.034-.608 2.942-2.4l.883-1.324c.953-1.313 2.142-2.94 2.285-5.023l-.46-.031c-.132 1.95-1.28 3.518-2.197 4.78l-.922 1.388c-.82 1.616-1.715 1.884-2.664 2.167-.883.263-1.79.534-2.604 1.853l-.348.566c-1.27 2.096-1.431 2.366-6.512 3.994-5.027 1.606-5.946-.9-7.218-4.364l-.257-.702c-1.433-3.818-.313-7.669 1.55-9.049l.64-.475-.887.1c-.01-.038-.02-.071-.02-.131 0-.624.681-2.611 2.037-4.464 1.158-1.578 3.89-3.142 3.92-3.157l-.23-.399c-.115.069-2.845 1.63-4.058 3.287z"/>
            <path d="M839.16 178.65c.9.624 2.166.58 3.692 0 .007.544.129 1.7 1.078 2.538 1.116.988 2.965 1.178 5.5.574l-.108-.446c-2.375.567-4.089.407-5.087-.469-1.072-.945-.922-2.45-.918-2.463l.042-.394-.365.155c-1.537.662-2.74.702-3.575.125-1.495-1.04-1.383-3.755-1.38-3.786l-.46-.022c-.001.124-.127 3.002 1.581 4.188z"/>
            <path d="M842.07 174.99c-.656.156-.827.706-.827 1.13 0 .102.011.197.024.279.115 1.182 1.398 1.969 2.563 2.306 1.133.328 2.528.35 3.077-.356.22-.282.38-.79-.1-1.61-1.75-2.977-4.581-1.811-4.737-1.749zm1.888 3.271c-1.02-.291-2.142-.953-2.232-1.933-.022-.094-.132-.752.448-.89l.046-.015c.104-.047 2.611-1.136 4.19 1.55.281.48.327.845.132 1.093-.338.44-1.454.526-2.584.195zm-1.934-3.254c.004-.004.046-.018.046-.018l-.046.018zm1.626 5.973c-.295 2.514-.115 2.574.066 2.63l.16.05.18-.212 1.456-1.92-1.828-.866-.034.318zm.421.376.737.348c-.198.253-.566.744-.845 1.11.007-.378.053-.912.108-1.458zm-4.211-2.396-.097 2.376 1.995-2.413-1.887-.209-.011.246zm.449.266.552.06c-.195.233-.324.392-.585.706.02-.37.027-.575.033-.766z"/>
            <path d="M838.53 178.2c.017.031 1.484 2.9 1.745 3.947.167.665 1.015 1.422 2.027 1.797 1.008.38 1.953.318 2.659-.174l1.325-1.101c.441-.425.588-.544.945-.483l.077-.453c-.601-.101-.894.179-1.34.603l-1.269 1.058c-.782.546-1.739.313-2.239.12-.946-.35-1.63-1.028-1.742-1.48-.275-1.094-1.721-3.92-1.78-4.04l-.408.206zm1.91-8.6c-1.62.748-2.305 2.713-2.333 2.796l.435.151c.007-.019.654-1.87 2.092-2.53.702-.322 1.488-.311 2.344.025l.17-.425c-.973-.393-1.884-.396-2.708-.017zm10.89 5.16c.128.096 3.188 2.414 1.43 5.243l.39.243c1.984-3.188-1.514-5.83-1.545-5.858l-.275.372zm-9.2.45s-.476 1.73 1.957 2.34c0 0-2.288-.02-2.433-.61-.154-.591.013-1.9.476-1.73zm7.44 2.07c0 .15-.122.274-.271.274a.275.275 0 0 1-.271-.274c0-.148.124-.271.27-.271.15 0 .272.123.272.271zm.27 1.08c0 .15-.122.275-.271.275s-.268-.125-.268-.275c0-.146.119-.27.268-.27s.271.125.271.27z"/>
            <circle cx="848.01" cy="177.825" r=".27"/>
            <path d="M848.75 179.45a.27.27 0 1 1-.539 0c0-.151.123-.275.268-.275.149 0 .271.123.271.275zm-7.1-7.32a.273.273 0 0 1-.546 0c0-.146.125-.271.271-.271.154 0 .275.125.275.271z"/>
            <circle cx="841.65" cy="173.22" r=".27"/>
            <circle cx="840.09" cy="172.68" r=".27"/>
            <path d="M840.83 174.3a.276.276 0 0 1-.275.271.273.273 0 0 1 0-.546.278.278 0 0 1 .275.275zm4.74-9.55s3.518 2.165.132 6.228c0 0 1.666-1.237 1.836-3.362.178-2.123-1.207-3.816-1.968-2.866zm13.5 5.84c-1.133.582-2.764-.496-3.58-1.514-.814-1.02-2.5-1.28-3.55.58-1.048 1.864-2.56 2.562-2.56 2.562s1.477-.872 2.998-2.503c1.512-1.627 2.385-.32 3.87.466s1.717.959 2.763.552l.059-.143z"/>
            <path d="M858.78 170.86c-.463.348-1.312.64-2.212-.09-.9-.727-1.658-1.715-2.792-1.134-1.138.584-3.293 2.212-3.293 2.212s3.495-2.417 4.165-1.892c.668.526 2.243 1.805 3.202 1.43.961-.383.93-.526.93-.526z"/>
            <path d="M856.1 172.34c-1.105-.844-2.212.989-3.143.76-.931-.237-1.69-1.779-1.69-1.779s.877 1.631 2.097 1.252c1.224-.377 2.069-1.135 2.824-.555.757.585-.088.322-.088.322z"/>
            <path d="M854.37 172.57c-2.183.226-2.399-1.813-2.399-1.834 0 0 .689 1.78 2.619 1.457l-.22.377z"/>
            <path d="M854.3 171.18c.143.552.112.803-.473.803-.588 0-.987-.196-.987-.766 0-.571 1.374-.392 1.46-.037zm-7.84-3.03c0 .38-.313.685-.7.685s-.462-.26-.462-.636.076-.73.462-.73.7.307.7.681z"/>
            <path d="M844.05 165.71s3.74.04 1.888 4.72c0 0 1.425-2.33.531-4.006-.897-1.674-2.305-1.252-2.305-1.252s-.343.317-.114.538z"/>
            <path d="M843.94 167.58c-.01.938.616 1.907 1.856 2.876l.286-.36c-1.123-.876-1.69-1.72-1.682-2.506.007-.786.612-1.253.619-1.26l-.275-.37c-.032.026-.79.604-.804 1.62z"/>
            <path d="M844.77 168.37c.16.539.577.946 1.244 1.212l.17-.425c-.527-.21-.855-.518-.972-.913-.237-.796.403-1.724.41-1.732l-.372-.267c-.036.048-.779 1.12-.48 2.125zm5.13 2.6s.696 1.512-.32 3.143c-1.02 1.63-.992 1.544-.992 1.544s1.224-2.241.759-3.175c-.462-.931.553-1.512.553-1.512zm14.55 15.79c3.842.724 12.51 7.52 12.6 7.59l.498-.636c-.365-.282-8.915-6.985-12.948-7.744l-.15.79zm3.41 9.59c.257 3.41 3.967 5.528 4.127 5.614l.392-.7c-.038-.018-3.49-1.996-3.72-4.975l-.799.061zm-9.21.71c0 3.824 3.584 8.45 3.738 8.647l.632-.497c-.034-.043-3.567-4.602-3.567-8.15h-.803zm-12.15.43c.632 1.262.566 1.902.403 2.215-.19.353-.58.407-.594.41l.094.801c.295-.035.887-.24 1.2-.816.383-.7.253-1.7-.383-2.964l-.72.354z"/>
            <g fill="#fff" stroke="#000" stroke-width=".36">
                <path d="M791.86 178.63s.233 2.56 2.212 4.079c0 0-.233-2.8.35-3.96 0-.001-1.046-1.165-2.562-.119zm3.95 1.63s.468 2.326 1.865 3.376l.82-.233s.347-2.914.813-3.262c.466-.347-1.979 1.048-3.498.119z"/>
                <path d="m799.31 180.14 1.513 2.33 1.745-.932-.348-2.792s-1.046-.237-2.91 1.394z"/>
                <path d="m806.41 180.61-1.98 1.63s-1.046-.816-1.864-.699l.352-2.562s1.397-1.047 3.492 1.631zm-14.09 24.1s-.348-3.61.119-3.842c0 0 1.394.465 1.977-.12 0 0 .816 2.914.582 4.078-.231 1.163-1.628.701-2.678-.116zm8.97-3.73s-.115-3.028.466-3.38c0 0 2.91.351 3.608-1.16l1.049 2.91s-3.26-.351-5.123 1.63z"/>
                <path stroke-width=".35" d="M798.15 201.56s.58-3.143 1.165-3.26c0 0 1.513.465 1.979-.12l-.115 3.847c0-.001.115-1.632-3.029-.467zm-3.38.47s.698-2.795 1.165-2.795c.468 0 1.632.699 2.213.233v2.096s-2.566-.58-2.911 2.91l-.467-2.444z"/>
            </g>
        </g>
        <g fill="#00a651" stroke="#000" stroke-width=".78">
            <path d="M840.16 260s7.914 7.35 5.845 13.758c0 0 5.087-10.932-.375-14.137-5.47-3.203-5.657-.748-5.47.38z"/>
            <path fill="#964b36" d="M830.17 267.15s-2.07 2.833.188 4.906c0 0-2.448 3.574-.56 6.595 0 0-1.51 3.203-1.133 6.596 0 0-1.321 5.275 1.505 7.73 0 0 3.018 1.508 4.34.188 0 0 2.636-3.957.938-8.109 0 0 1.885-3.39-.188-7.725 0 0 .567-2.45-1.13-5.274 0 0 1.13-1.888.186-3.394 0 0-3.767-3.961-4.146-1.513z"/>
            <path d="M832.43 257.92s-9.422-18.09-16.02-18.848c-6.598-.755-6.972-7.16-6.972-7.16s.752 3.015 6.031 3.015c5.278 0 15.456 7.349 16.585 13.003 1.13 5.653 2.263 4.902 2.263 4.902l-1.887 5.088z"/>
            <path d="M832.43 256.6s3.394-22.805 18.286-23.184c14.885-.38 9.989 1.13 13.567-1.321 0 0-9.985 5.281-16.208 6.032-6.217.754-11.308 12.812-11.119 15.08.187 2.259-3.391 6.596-5.088 5.09-1.697-1.509.563-1.697.563-1.697z"/>
            <path d="M835.82 265.09s3.391-9.047 9.235-6.029c0 0-4.526-8.673-12.629-1.134 0 0 3.582 4.9 3.394 7.163zm-11.31-9.06s4.902 20.17-2.639 26.387c0 0 .187-10.361-4.335-16.582-4.52-6.223 4.522-13.003 6.974-9.805z"/>
            <path d="M825.08 259.62s8.86 8.484 9.427 11.31c.567 2.827 2.637-8.48-1.508-11.682-4.147-3.209-8.67-3.773-8.67-3.773l.751 4.145z"/>
            <path fill="#964b36" d="M808.74 281.85s.803 3.56 2.988 4.25c0 0 .113 2.645 2.068 3.448 0 0-1.037 2.184.69 3.56 0 0-.347 4.367 1.263 5.289 0 0 3.911-.23 5.285-1.38 0 0 .806-2.868-1.374-5.747 0 0 .34-2.758-1.843-4.25 0 0 .69-3.68-2.069-5.057 0 0-.457-2.99-2.184-4.482.001-.001-3.33 4.71-4.824 4.369z"/>
            <path d="M813.1 277.48s-11.606-4.252-18.042 1.84c0 0 9.88 1.38 11.147 3.333 1.264 1.95 7.352-3.216 6.895-5.173z"/>
            <path d="M809.54 284.72s-.918-.803-2.066-1.61c-1.15-.802-10.916-3.446-12.3 5.977 0 0-3.563-9.307 1.609-10.573 5.175-1.266 9.312 1.724 12.757 6.206m-7.64-19.26s3.577 7.726 4.9 8.108c1.318.372 2.26-.942 2.26-.942s-4.71-6.974-7.16-7.166zm-2.64-11.87s-3.018-9.988-6.596-7.35c-3.581 2.639-2.64 9.798-2.64 9.798s-7.162-7.346-3.017-13.192c4.152-5.842 12.253.566 12.253 10.744z"/>
            <path fill="#964b36" d="M807.37 274.13s0 1.885 1.32 2.448c1.32.566 3.77 1.505 3.77.38 0-1.131-1.884-5.467-2.642-4.9-.755.567-2.069.56-2.448 2.072z"/>
            <path d="M805.11 262.45s-.377-8.668 5.274-11.876c0 0 1.134.194 1.7-1.501 0 0-4.528 10.927-3.207 16.393l-.187.755"/>
            <path d="M806.24 251.89s10.177-21.112 22.618-13.762c0 0-13.004 2.64-17.714 11.876l-4.715 6.967-.188-5.082z"/>
            <path d="M800.77 259.62s-3.017-14.134-4.9-16.016c-1.887-1.886-5.091-3.959-8.862-.756 0 0 6.6-5.845 13.572-.942 6.971 4.9 5.464 12.628 5.464 12.628l-.751 9.802L800.58 260"/>
            <path d="M811.7 276.39s-12.44-23.552-20.542-6.78c0 0-1.512 4.332.184 6.025 0 0-4.524-3.39-2.45-11.682 2.07-8.29 15.828-4.524 19.79 2.263 3.957 6.784 5.09 10.18 4.524 10.552-.567.38-1.507-.378-1.507-.378zm35.06 6.79s9.05-18.66 14.324-10.18c0 0 1.506 4.145-.757 5.845 0 0-3.577-4.335-6.78.942-3.205 5.275-1.885 4.902-1.885 4.902s-3.394.942-4.902-1.51z"/>
            <path d="M860.32 278.84s4.9 2.635 3.209 7.913c0 0 6.591-12.625-2.452-13.758.001 0 1.698 3.96-.757 5.845zm.57-12.81s11.876 3.39 12.252 8.484c0 0 2.076-9.805-4.711-12.82 0 .001-8.107 1.322-7.541 4.336z"/>
            <path d="M866.17 250.38c5.09-9.989 11.498 3.204 11.498 3.204s2.26-10.364-4.145-12.252c-6.411-1.884-10.556 22.05-10.556 22.05l-7.54 1.697s2.074-20.917 13.381-22.805l1.318.19"/>
            <path d="M857.12 256.41s-7.16-14.7-12.061-16.206c-4.902-1.508 2.642-3.77 5.657-.944 3.01 2.824 8.665 6.408 8.101 13.948l-1.697 3.202zm-7.35 20.17s2.072-9.985 7.726-13.003c5.653-3.018 10.932-1.884 10.932-1.884s-6.788 1.505-7.914 4.902c-1.133 3.39-3.018 3.577-3.018 3.577l-7.726 6.408z"/>
            <path fill="#964b36" d="M846.76 283.18s-3.203 6.032-2.452 6.972c0 0-3.39 4.9-2.072 7.35 0 0 3.394 2.639 4.902 1.506 0 0 3.953-5.462 2.824-8.48 0 0 2.638-3.578 1.7-5.838 0 0-3.956.187-4.902-1.51z"/>
            <path d="M830.18 272.41c.212.108 2.116 1.032 3.396.605l.916-.783-.72-.357c-.47.931-2.542.163-3.234-.18l-.358.715zm-.31 5.85-.156.79c.162.03 3.986.771 5.81-.849l-.535-.599c-1.524 1.353-5.08.669-5.119.658zm-.97 6.66-.472.65c.046.035 4.49 3.2 7.334-.256l-.623-.512c-2.362 2.868-6.08.233-6.239.118zm-17.26.96.167.43c.16-.065 3.925-1.577 4.164-4.331l-.457-.042c-.215 2.472-3.838 3.929-3.874 3.943zm2.13 3.44.032.458c.147-.01 3.623-.27 4.23-2.7l-.448-.116c-.524 2.107-3.78 2.354-3.814 2.358zm.72 3.56-.025.462c.167.007 4.06.209 5.382-1.948l-.393-.243c-1.18 1.927-4.926 1.733-4.964 1.729zm29.53-2.44c.07.073 1.748 1.732 3.71 1.658.96-.034 1.811-.476 2.53-1.303l-.608-.528c-.567.653-1.224 1.001-1.948 1.029-1.606.058-3.104-1.408-3.119-1.426l-.565.57z" fill="#000" stroke="none"/>
        </g>
        <g fill="#964b36" stroke="#000" stroke-width=".42">
            <path d="M961.06 304.22a1.66 1.66 0 0 0-.608.403l.608-.403zm13.86-3.47c-.134-.344-.222-.2-.4-.352-.253-.208-.4-.876-.622-1.125-.132-.153-.285-.004-.428-.042-.324-.713-.705-1.464-1.046-2.152a.597.597 0 0 0 .094-.32c0-.028-.16-.577-.17-.601-.098-.153-.252-.063-.345-.3-.105-.236-.025-.701-.063-.98-.027-.232-.118-.36-.104-.688.014-.285.167-.616.149-.866-.007-.156-.191-.507-.246-.64-.223-.538-.41-1.046-.438-1.71-.028-.602.093-.97.138-1.492.056-.625-.275-.929-.275-1.506.004-.442.19-.938.244-1.334a9.952 9.952 0 0 0 .033-1.884c-.04-.532-.19-.852-.108-1.45.022-.146.091-.264.108-.47-.004-.146-.004-.287-.004-.43v-.858c0-.278.028-.592.004-.863-.024-.225-.156-.458-.156-.636 0-.306.195-.451.153-.866-.027-.299-.07-.369-.138-.629-.132-.493-.042-.991-.123-1.52-.038-.252-.119-.333-.143-.622-.033-.34.071-.458.105-.7.035-.24.07-.555.038-.81-.038-.306-.183-.522-.143-.855l-.111 3.782c-.094-3.3-.226-6.355-.226-6.355l-5.018-2.357s-.425 9.214-.317 10.496c.1 1.287.532 10.076.317 11.147-.216 1.072-.744 6.429-.744 6.429s-2.454 1.714-3.414 3.64c-.964 1.93-.748 2.573-1.072 2.573l2.385-.372-1.776 1.186a1.085 1.085 0 0 1 1.106.171c.04.034.306.26.34.26.093 0 .223-.238.337-.28.37-.125.681.568 1.032.515.188-.028.445-.226.599-.427.127-.17.176-.47.31-.584.122-.104.42.017.549.017.35 0 .705.011 1.056 0 .467-.013.845-.67 1.275-1.043.401-.337.696-.456 1.125-.43.469.034.893.472 1.37.5.361.018.612.062.904-.317.201-.264.344-.656.535-.931l1.186-.184c.235.098.475.206.676.198.303-.014.616-.051.916-.004.114.015.34.282.433.216.064-.049.172-.41.237-.518-.027-.145-.071-.506-.124-.628z"/>
            <path d="M964.77 304.05c.302 0 .58-.07.834.152.042.08.08.158.119.233a.26.26 0 0 0 .25.035c.171.115.206.18.393.223.174.037.365-.007.539-.004.22.007.326.083.531.167.358.146.594.007.904-.216.359-.264.49-.062.834.269.258.246.205.223.438.055.035-.08.076-.156.115-.223.115-.048.233-.08.35-.101.193-.09.383-.08.565-.149.19-.074.33-.285.531-.247.174.035.373.176.539.23.16.054.23.086.362.183.24-.493.768-.64 1.106-.879.351-.243.678.052 1.064.056.205 0 .288-.12.434-.167.164-.06.35.026.508-.039.167-.062.198-.223.382-.243.34-.042.72.513 1.06.618.191.063 1.076.261.946-.389-.125-.62-.68-.19-.8-.625-.063-.247.067-.599-.01-.876-.066-.253-.344-.546-.511-.601-.209-.066-.33.152-.508-.018-.146-.136-.201-.644-.33-.845-.171.125-.278.24-.504.194-.258-.062-.233-.15-.425-.393-.417-.522-.657.313-1.042.18-.293-.093-.564-.83-.794-1.13-.122-.16-.466-.678-.643-.562-.299.194-.027.758-.183 1.008-.112.174-.508-.004-.65.024-.226.049-.268.108-.432.379-.33.546-.522.98-1.035.918-.244-.028-.427-.275-.665-.185-.253.097-.396.368-.674.4-.202.016-.435.024-.633-.052-.194-.088-.414-.452-.591-.553a.23.23 0 0 0-.24-.046c-.02-.01-.288-.167-.292-.167-.31-.09-.284-.079-.41.33-.074.254-.101.515-.195.755-.09.202-.288.451-.403.587-.216.233-.32.17-.601.254-.226.074-.526.425-.647-.027-.18-.682.5-1.7-.258-1.523-.198.046-.317.083-.438.376-.134.337-.026.555-.086.925-.08.465-.968 1.248-.792 1.669.118.296.514-.16.622-.086.18.124.129.42.257.619.269.41 1.065-.636 1.11-.07m-3.221-4.073c-.002-.059-.013-.115-.017-.176-.212-.039-.452-.264-.647-.268-.183-.01-.542.438-.668.653-.389.643-.28 1.519-.935 1.506-.16-.004-.535-.112-.675-.015-.246.174-.09.69-.09 1.04 0 .33.15 0-.027.428-.053.118-.212.156-.254.313-.132.56.333.382.539.376a103.36 103.36 0 0 1 1.575 0c.317.007.508-.105.803-.22.194-.066.608-.062.773-.236.059-.066.25-.508.277-.612.042-.216-.04-.477.01-.657.084-.316.367-.195.418-.622.136-1.048-.982-.264-.806-1.294"/>
        </g>
        <g stroke="#000" stroke-width=".78">
            <path d="M974.21 271.28c0 1.356-.928 2.448-2.078 2.448-1.137 0-2.073-1.092-2.073-2.448 0-1.352.935-2.452 2.073-2.452 1.15.001 2.078 1.1 2.078 2.452zm-6.78-3.02c0 1.352-.929 2.448-2.074 2.448-1.147 0-2.078-1.096-2.078-2.448s.931-2.45 2.078-2.45c1.145 0 2.074 1.098 2.074 2.45z"/>
            <path d="M971.01 269.2c0 1.356-.929 2.448-2.074 2.448s-2.072-1.092-2.072-2.448.928-2.45 2.072-2.45 2.074 1.095 2.074 2.45z"/>
            <path d="M967.54 271.44c0 1.356-.932 2.454-2.076 2.454s-2.072-1.1-2.072-2.454c0-1.352.927-2.448 2.072-2.448s2.076 1.094 2.076 2.448z"/>
            <path d="M970.76 273.31c0 1.352-.935 2.454-2.075 2.454-1.143 0-2.076-1.102-2.076-2.454s.933-2.448 2.076-2.448c1.139.001 2.075 1.096 2.075 2.448z"/>
        </g>
        <path fill="#00a651" stroke="#000" stroke-width=".78" d="M971.76 246.58s20.918-29.209 43.348 1.134c0 0 .187 3.018-1.885 6.22l-.567-2.448-1.318.374-.376-1.507-2.455-.187.758-3.206-2.642 2.074.379-2.263-3.016 3.02.38-6.411-3.207 5.466.376-3.767-1.13 1.693-.68-2.196-1.013 2.196-1.512-1.128v1.507l-2.635-2.262-.942 3.015-1.319-3.202-.378 2.26-1.322-2.64-.184 2.83-4.339-1.887.942 2.639-2.069-1.505.376 1.505-2.824-.563.185 1.694-3.015-.566.567 1.506-4.148-.562 1.502 1.696-.417.69s22.66-7.473 24.168 20.796l-4.148 2.072 1.133-2.256-1.133-.757-3.39-2.635.942-3.585-1.129.38-.19-2.073-.565.376-1.322-2.073-.376.755-.942-2.454-.942 1.7-.567-4.148-1.505 2.643-.192-1.509-.566.942-1.884-2.263-.56 1.508-.76-1.13-.562 1.318-2.074-1.888v1.513l-1.317-1.134-.571.755-3.198-1.697-.196 1.505-1.692-1.505-.568 1.505s20.55 11.689 14.137 30.725l-1.134 2.448-.372-6.404-1.884 3.39 1.31-7.35-1.31 1.317-.194-2.823-1.69 2.823-.574-3.201-.748.942-1.136-4.902-.942 2.076-1.506-5.466-1.13 2.26-.754-4.708-.755 2.826-2.263-4.149-.374 1.693-1.317-3.39-.759 1.134s-3.769-.192-4.898-1.134c-1.13-.938-4.336 5.657-4.336 5.657l.378-3.96-1.317 2.635v-2.635l-2.452 7.914-.566-5.653-1.319 4.9-.568-1.505-.375 2.075-.755-.758-.658 2.225-1.23-.903v3.014l-1.129-1.508-.942 4.524-.564-1.88v2.068l-.942-1.126-.945 4.524-1.318-1.884-.185 3.2.56 2.454-1.505-.755.567 3.953s-5.844-10.927 1.133-21.484c6.968-10.55 16.393-13.38 16.393-13.38l-.946-.938-.187-.945-5.653 2.826.19-1.7-1.509 1.32-.375-1.884-.946 1.697-.184-.755-1.322 2.076-.757-3.018-.94 3.585-.889-2.507-1.937 5.33v-3.957l-1.508 4.148-.564-4.524-1.13 5.274v-4.711l-1.7 4.711-1.129-4.52-.755 4.332-1.129-3.39-1.134 5.087-1.693-4.524-.942 6.787-1.13-2.643-.19 4.902-1.315-3.014 1.315 6.404-1.697-2.448.568 3.957-2.448-4.336.187 5.094-1.321-1.7-.568 1.885s-.56-19.6 12.816-23.372c13.386-3.768 22.055 1.133 22.055 1.133l-5.087-4.145.564-1.321h-1.884l.754-1.509-3.957.191 1.13-1.508-3.018.375v-.94l-1.884 1.503.754-1.693-2.638 1.693-.161-2.507-1.349 2.135-.748-2.263-6.034 6.028 1.695-6.218-1.129 1.322-.187-1.322-1.697 2.642-.378-1.887-.755 2.26-.567-2.637-1.314 2.637-1.323-2.446-.563 3.205-.945-1.7-1.13 2.45-1.505-1.51-.191 1.51-3.016-1.32.755 2.264-2.263-1.884-.568 3.014-1.315-1.508-.942 3.772-.942-3.583-.942 2.827s11.786-30.286 41.605-10.526c0 0 3.247 3.176 4.002 5.436.755 2.264.19.38.19.38l-.567-20.92 1.13 9.047.754-3.206-.187 4.713 3.012-6.598s-3.577 10.933-2.26 14.89c0 0 1.322-12.626 5.848-14.136l-4.148 9.046 1.317-.19-.942 1.888h1.13l-1.366 2.99-.707 1.534.751 1.506 1.139-1.141z"/>
        <path d="m968.66 258.87.594.535c.08-.083 1.944-2.069 5.074.574l.518-.616c-3.742-3.164-6.17-.522-6.186-.493zm-.91-10.26-.122.725 1.453-.62a360.89 360.89 0 0 1-.999 1.748l2.168-.721a9103.73 9103.73 0 0 1-2.688 3.517l.64.494 4.276-5.601-2.657.886c.277-.482 1.14-2.005 1.14-2.005l-2.298.988.475-2.874-.795-.133-.593 3.596z"/>
        <path d="M963.76 248.84s.528 1.169.925 2.039c-.171-.071-1.475-.593-1.475-.593l4.35 7.694s.525-.67.556-.712c-.438 1.123-.876 2.256-.876 2.256l.751.292 1.875-4.822-.692-.393-1.51 1.933c-.406-.723-1.91-3.386-2.625-4.645.09.034 1.207.484 1.207.484s-.82-1.812-1.203-2.653l1.63 1.018v-2.868h-.803v1.419l-2.663-1.662.553 1.213zm-2.74 9.66.32.737c1.178-.504 2.148-.588 2.885-.237.863.414 1.123 1.304 1.126 1.31l.775-.208c-.01-.052-.352-1.248-1.543-1.822-.952-.458-2.152-.385-3.563.22zm3.376 8.15-.66-4.215.795-.125.661 4.214zm5.789-.694-1.074-3.22.765-.255 1.073 3.22zm2.124 2.38-.807-3.216.782-.196.807 3.216z"/>
        <path d="M811.41 365.04s-3.534-1.606-5.143-.43c-1.608 1.181-1.389 2.892-2.783 2.784 0 0 5.354 1.179 6.532-.216 1.177-1.387 1.394-1.819 1.394-1.819m.65 1.161s-2.326 3.11-1.522 4.93c.802 1.822 2.523 1.978 2.116 3.315 0 0 2.302-4.974 1.196-6.426-1.105-1.442-1.474-1.745-1.474-1.745m-4.236-8.684s-3.71 1.15-4.126 3.095c-.426 1.946.879 3.086-.232 3.931 0 0 4.782-2.68 4.737-4.506-.045-1.823-.163-2.284-.163-2.284m1.964 1.044s1.76-3.467.652-5.118c-1.106-1.663-2.832-1.52-2.662-2.904 0 0-1.414 5.296-.073 6.536 1.343 1.23 1.763 1.468 1.763 1.468m-3.32-1.242s.085-3.876-1.632-4.889c-1.715-1.015-3.209-.141-3.658-1.467 0 0 1.026 5.389 2.774 5.928 1.746.525 2.227.556 2.227.556m6.629 6.332s4.068-1.397 4.392 2.998c.32 4.39-.216 2.893-.216 2.893s-2.142-4.713-4.496-5.464l.32-.427z" stroke="#000" stroke-width=".78" fill="#00a651"/>
        <path d="M811.99 366.59c0 .094.426 3.414.426 3.414l.572-.073-.43-3.322c.014.004 1.39-7.3 1.39-7.3l-.567-.105-1.391 7.386z"/>
        <path d="m808.29 365.51-.19.542c1.946.684 4.661-1.454 4.774-1.544l-.36-.448c-.024.017-2.578 2.034-4.224 1.45zm5.098-4.286-9.102-4.605.363-.717 9.102 4.605z"/>
        <path d="m806.79 360.19-.568-.567 1.821-1.82.567.568zm3.185-.885-1.927-4.18.729-.336 1.928 4.18zm2.695 5.115.052.804c2.475-.168 3.08 1.435 3.084 1.453l.79-.164c-.094-.459-1.086-2.284-3.926-2.093z"/>
        <path d="M854.43 366.27c3.035-1.7 3.643-7.657 3.643-7.657-.726 2.191-6.31 4.375-6.31 4.375 4.126-2.556 9.101-14.084 9.101-14.084-1.334 4.13-12.138 7.526-19.06 11.411-6.923 3.883-3.279 15.058-3.279 15.058-1.94-1.337-5.706-7.283-6.432-12.509-.733-5.219-2.796-7.28-7.531-7.889-4.738-.608-7.529 4.732-7.529 4.732l-7.04 3.647 7.159.24s5.106 1.704 5.106 5.71c0 4.008-4.493 20.034 2.91 29.021 5.153 6.245 24.166 9.833 24.166 9.833" stroke="#000" fill="#FFF"/>
        <path d="M840.47 378.65s1.457-7.165 6.192-6.922c4.735.243 6.07-5.34 8.863-6.192 2.793-.848 17.242-4.731 18.821-11.656 0 0-1.335 11.416-14.568 17.122 0 0 10.681-3.523 11.898-5.83 0 0-4.739 10.2-16.272 11.778 0 0 10.806-.849 12.385-3.761 0 0-4.857 6.433-12.869 7.285 0 0 7.405 3.035 9.35.484 0 0-4.009 4.735-8.989 5.096l1.34.366s-4.736 5.587-9.958 1.822c-5.219-3.766-5.344.974-5.344.974" stroke="#000" fill="#FFF"/>
        <path d="M851.25 389.45s6.098 10.202 6.707 15.665c0 0 11.658 12.872 16.028 13.595 0 0-2.065.848-5.831-2.305 0 0 3.157 3.278 3.766 3.4.604.125-2.552-.243-3.039-1.095 0 0 1.338 1.948 2.187 2.19.852.244-.849-.242-.849-.242s-1.581-.244-2.309-.852c-.73-.605-.243 1.575-.243 1.575s-1.822-.486-2.427-1.092c-.608-.605.244 1.34.244 1.34l-1.578-.367-1.092.726s-.122.73-.856.123c-.723-.601-2.061 0-2.061 0s-.975.852-1.457.243c-.482-.606-2.323 2.336-2.323 2.336l-7.645-18.455" stroke="#000" fill="#FFF"/>
        <path d="m858.505 422.928-9.662-18.393 1.014-.533 9.663 18.393zm8.442-1.24-16.531-18.51.858-.766 16.532 18.51zm3.771-1.632-18.864-17.58.783-.84 18.865 17.58zM823.44 360.84s-1.231-2.204-2.303-1.376c-1.069.825-1.685.976-1.87.919 0 0 1.076.059 1.687-.522.613-.586 1.656-.216 2.486.979zm-6.66-1.01s.676 1.398.685 1.422c-.068.004-.763 2.257-.763 2.257l.553.17.75-2.453c-.013-.213-.703-1.642-.703-1.642l-.522.246z"/>
        <path d="M823.16 360.5s-.918 1.075-2.176.766l-1.252-.306s1.066.06 1.776.093c.7.029 1.618-.337 1.652-.553z"/>
        <path d="M822.86 360.72s-1.132-1.195-1.9-.858c0 0 1.35-.43 2.116.73l-.216.128z"/>
        <path d="M822.67 360.5s-1.286.887-2.699-.09l-.086-.066.183-.059c.001.001 1.778.735 2.602.215z"/>
        <circle cx="821.573" cy="360.284" r=".383"/>
        <path d="M822.61 394.2s-.996 1.834-.475 2.939c.528 1.103 2.89 1.675 3.205 3.146.317 1.475 1.105 1.471 2.208 1.266 1.105-.212 1.314-.264 1.314-.264s-4.625-2.473-5.834-6.46l-.418-.627z"/>
        <g stroke="#000" fill="#964b36" stroke-width=".48">
            <path d="M972.09 356.85s8.418-11.099 15.882-8.184c7.465 2.917 12.316 4.321 12.316 4.321s.142 7.475-3.828 7.475c-3.96 0-7.757-7.465-11.366-5.246-3.616 2.215-6.584 5.25-6.818 6.296-.233 1.048-9.562 1.283-6.185-4.662z"/>
            <path stroke-width=".78" d="M940.14 410.37s-2.328 2.444-1.278 3.031c1.054.581 3.146-.122 3.146-.935 0-.82-1.395-2.329-1.868-2.096z"/>
            <path stroke-width=".78" d="M938.28 412.7s-4.312-2.455-7.694 3.376c-3.387 5.83-6.182 15.277-8.164 16.56-1.981 1.282 19.241-9.328 19.475-13.758 0 0 1.397-5.716-.817-5.602-2.215.122-2.333.356-2.8-.576z"/>
            <path d="M938.86 413.4s-4.43 1.043-5.362 7.337c-.932 6.303-7.114 9.565-7.462 9.797m74.264-77.544s-6.738 2.344-5.574 7.01"/>
        </g>
        <path fill="#fff200" stroke="#000" stroke-width=".48" d="M948.54 366.64s.232-15.976 13.284-15.277c2.473.23 1.294 3.146 1.294 3.146s2.823-1.977 4.113 1.166c0 0 4.117-1.864 4.585 2.218 0 0 4.47-.58 3.88 3.032 0 0 3.056-.699 2.942 1.867 0 0 3.526-1.4 3.17 2.215 0 0 3.882-2.566 3.297 2.096 0 0 3.999-2.794 5.404 1.869 1.411 4.662-3.995 14.574-9.287 17.138"/>
        <path d="M984.81 367.61c.018.125 1.76 12.498-5.257 17.026l.247.39c7.27-4.69 5.482-17.356 5.466-17.484l-.456.068zm-8.45 13.55.324.33c4.444-4.325 5.4-15.976 5.434-16.469l-.455-.038c-.011.122-.977 11.974-5.303 16.177zm-4.15-2.77.458.037c.572-7.195 6.196-15.425 6.256-15.509l-.38-.258c-.058.082-5.75 8.413-6.334 15.73zm-3.26-2.1.458.046c.8-8.68 6.533-15.196 6.59-15.258l-.341-.308c-.06.064-5.891 6.688-6.707 15.52zm-4.55-2.9.458.017c.456-10.25 7.18-15.28 7.247-15.33l-.272-.371c-.065.051-6.967 5.2-7.433 15.684zm-4.2-2.55.462-.014c-.336-9.328 6.835-14.912 6.91-14.97l-.279-.364c-.073.06-7.434 5.78-7.093 15.348zm-7.57-3.41.455.056c1.249-10.097 10.236-12.725 10.326-12.75l-.125-.441c-.09.024-9.373 2.729-10.656 13.135z"/>
        <path fill="#00a651" stroke="#000" stroke-width=".48" d="M940.84 386s-2.212-14.813 6.648-19.472c0 0 1.637-.352 2.566 1.748 0 0 4.666-1.98 4.784 1.978 0 0 2.33-1.864 2.914.7 0 0 5.013-1.047 4.08 2.683 0 0 4.197-1.165 3.847 2.445 0 0 4.2-1.514 3.497 1.635 0 0 4.429-1.047 3.382 2.567 0 0 5.483-.581 3.85 3.265 0 0 4.081-1.048 3.146 2.1 0 0 5.366.935 2.914 4.315-2.448 3.378-8.63 8.51-14.686 10.724"/>
        <path fill="#00a651" stroke="#000" stroke-width=".48" d="M936.06 400.92s-3.616-12.355 3.269-15.509c0 0 1.275-.352 1.51.935 0 0 1.519-1.985 2.686-.233 0 0 3.495-1.633 4.315.931 0 0 2.33-1.985 3.498.928 0 0 2.216-.928 2.216 1.401 0 0 3.03-1.282 3.03 1.517 0 0 2.91-1.165 2.33 1.981 0 0 4.433.699 3.15 2.798 0 0 3.97 1.046 2.448 2.683 0 0 4.312-.466 1.981 2.448 0 0 3.265-1.047 1.402 2.57-1.869 3.612-7.695 7.576-11.776 8.041"/>
        <path fill="#00a651" stroke="#000" stroke-width=".48" d="M940.37 410.71s-7.694-7.462-4.075-9.676c0 0 1.626.462 2.211 2.097 0 0 1.864-2.681 2.918.115 0 0 2.8-.931 2.8.938l2.21 1.634s2.57-.236 2.104 1.398c0 0 2.799-.352 2.68 1.165 0 0 2.452.115 2.219 1.745 0 0 4.193.7 2.329 2.803 0 0-7.346 1.512-12.475-.585 0 0-2.688-.936-2.92-1.634z"/>
        <path d="m966.76 398.38.164.427c4.56-1.755 12.478-12.564 12.816-13.024l-.372-.275c-.084.117-8.174 11.164-12.608 12.871zm-2.59-1.97.223.4c3.967-2.213 11.867-12.676 12.2-13.121l-.366-.278c-.079.112-8.174 10.834-12.058 12.998zm-2.25-.92.296.352c4.19-3.478 10.291-14.966 10.552-15.452l-.406-.216c-.062.117-6.32 11.896-10.441 15.317zm-2.06-2.65.456.064c.796-5.807 8.953-14.947 9.032-15.037l-.34-.308c-.338.38-8.334 9.336-9.148 15.281zm-16.33-7.06.46-.04c-.686-8.203 6.18-17.238 6.25-17.328l-.364-.277c-.074.089-7.044 9.262-6.346 17.645zm4.32.72.456-.08c-1.136-6.576 6.63-15.928 6.71-16.02l-.351-.298c-.327.389-7.984 9.605-6.815 16.398zm6.64 2.42.46-.013c-.226-7.507 6.976-15.032 7.05-15.11l-.33-.32c-.072.077-7.414 7.743-7.18 15.443zm-15.84 13.6.43-.16c-2.615-6.937 1.926-15.819 1.972-15.906l-.414-.212c-.045.091-4.677 9.149-1.988 16.278zm3.02.45.438-.142c-2.281-7.065 1.585-16.535 1.626-16.628l-.427-.176c-.037.092-3.966 9.721-1.637 16.946zm12.5 7.06.157.434c7.44-2.676 12.305-9.46 12.353-9.525l-.375-.269c-.046.067-4.826 6.738-12.134 9.36zm-1.53-1.62.187.421c5.934-2.677 11.467-10.146 11.52-10.223l-.37-.269c-.056.075-5.514 7.443-11.337 10.07zm-1.44-.56.269.373c4.641-3.362 10.604-11.982 10.667-12.07l-.378-.257c-.061.088-5.977 8.638-10.558 11.953zm-7.44-4.33.456-.066c-1.026-7.414 3.773-16.208 3.824-16.295l-.403-.223c-.051.091-4.923 9.018-3.877 16.584zm3.23 2.01.31.34c4.788-4.322 6.418-15.971 6.484-16.464l-.456-.064c-.014.119-1.672 11.981-6.338 16.188z"/>
        <path d="m950.27 406.91.269.372c6.758-4.888 8.59-14.274 8.605-14.365l-.449-.086c-.018.09-1.815 9.295-8.425 14.08zm.78-20.23c0 .438.022.875.062 1.318-.007-.038-5.125 16.583-5.125 16.583l.438.135 5.139-16.674c-.794-8.06 6.296-16.859 6.366-16.945l-.354-.288c-.071.08-6.526 8.093-6.526 15.871z"/>
        <path d="M956.41 390.74c-.067.233-1.627 11.618-7.768 15.818l.26.38c6.315-4.32 7.849-15.545 7.911-16.019 2.725-3.243 9.005-14.614 9.069-14.728l-.404-.222c-.063.114-6.318 11.45-9.068 14.77zm-18.13 12.44c.046.239 1.072 5.896 2.246 7.891l.396-.231c-1.136-1.926-2.175-7.68-2.186-7.74l-.456.08zm2.91.07c.05 2.816.064 7.436-.094 7.847l.428.168c.236-.592.146-6.784.128-8.019l-.462.004z"/>
        <path d="m941.45 411.32.418.187c1.971-4.29 2.578-7.249 2.586-7.277l-.452-.09c-.007.024-.602 2.942-2.552 7.18z"/>
        <path d="m941.89 411.45.233.396c3.657-2.125 4.506-5.821 4.536-5.976l-.448-.1c-.01.036-.841 3.66-4.321 5.68z"/>
        <path d="m942.57 411.77.046.455c3.584-.358 6.025-4.711 6.13-4.895l-.405-.223c-.023.045-2.429 4.328-5.771 4.663z"/>
        <path d="m942.93 412 .028.458c5.754-.354 8.343-3.793 8.448-3.938l-.372-.272c-.024.032-2.577 3.415-8.104 3.752z"/>
        <path d="m943.34 412.12-.094.449c.31.07 7.642 1.625 10.152-2.197l-.385-.251c-2.334 3.558-9.601 2.013-9.673 1.999z"/>
        <path fill="none" stroke="#000" stroke-width="4.2" d="M778.8 143.94v205.09c0 67.08 121.2 106.91 121.2 106.91s121.2-39.833 121.2-106.91V143.94z"/>
    </g>
</svg>
