<svg xmlns="http://www.w3.org/2000/svg" xmlns:xlink="http://www.w3.org/1999/xlink" viewBox="0 0 1200 600">
    <defs>
        <linearGradient id="a" gradientUnits="userSpaceOnUse">
            <stop stop-color="#a43907" stop-opacity=".996" offset="0"/>
            <stop stop-color="#fff" offset="1"/>
        </linearGradient>
        <linearGradient id="d" xlink:href="#a" x1="826.45" y1="419.932" x2="786.124" y2="396.11"/>
        <linearGradient id="e" xlink:href="#a" x1="851.569" y1="436.067" x2="763.033" y2="419.673"/>
        <linearGradient id="f" xlink:href="#a" x1="1016.15" y1="398.539" x2="974.919" y2="400.941"/>
        <linearGradient id="g" xlink:href="#a" x1="1033.335" y1="421.219" x2="945.904" y2="428.645"/>
        <linearGradient id="h" xlink:href="#a" x1="1023.357" y1="445.132" x2="776.646" y2="445.132"/>
        <linearGradient id="i" xlink:href="#a" x1="783.43" y1="462.503" x2="1144.088" y2="465.421"/>
        <linearGradient id="j" xlink:href="#a" x1="1032.128" y1="442.287" x2="1002.941" y2="444.033"/>
        <linearGradient id="k" xlink:href="#a" x1="775.747" y1="471.718" x2="803.908" y2="476.185"/>
        <linearGradient id="l" xlink:href="#a" x1="803.177" y1="466.888" x2="755.308" y2="440.32"/>
        <clipPath id="b">
            <path d="M0 0v150h700v150H600zm600 0H300v350H0v-50z"/>
        </clipPath>
    </defs>
    <path fill="#00247d" d="M0 0h1200v600H0z"/>
    <path d="m0 0 600 300m0-300L0 300" stroke="#fff" stroke-width="60"/>
    <path d="m0 0 600 300m0-300L0 300" stroke="#cf142b" stroke-width="40" clip-path="url(#b)"/>
    <path d="M300 0v350M0 150h700" stroke="#fff" stroke-width="100"/>
    <path d="M300 0v350M0 150h700" stroke="#cf142b" stroke-width="60"/>
    <path d="M0 300h600V0h600v600H0z" fill="#00247d"/>
    <g stroke="#000" stroke-width="1.8">
        <use xlink:href="#c" stroke="#fff" stroke-width="12"/>
        <g id="c" stroke-linejoin="bevel">
            <path fill="url(#d)" d="M826.45 427.735s-8.536-13.884-15.65-12.893c-7.113.992-13.752 9.918-14.227 10.413-.473.496-10.906-11.404-10.432-11.901.474-.495 10.907-26.28 16.598-27.272 5.69-.992 17.977 1.897 17.977 2.889 0 .992 5.734 38.764 5.734 38.764z"/>
            <path fill="url(#e)" d="M845.419 412.859c0 .992-2.845 37.686-15.175 50.579-12.33 12.892-32.247 20.826-39.361 18.843-7.113-1.984-23.236-39.173-23.236-39.173s17.072 17.851 29.875 14.876c12.805-2.975 20.392-25.29 22.762-36.2 2.372-10.908.475-32.232.475-32.232l24.66 23.307z"/>
            <path fill="url(#f)" d="M973.576 427.735s8.536-13.884 15.65-12.893c7.113.992 13.752 9.918 14.227 10.413.473.496 10.906-11.404 10.432-11.901-.474-.495-10.907-26.28-16.598-27.272-5.69-.992-17.977 1.897-17.977 2.889 0 .992-5.734 38.764-5.734 38.764z"/>
            <path fill="url(#g)" d="M954.608 412.859c0 .992 2.845 37.686 15.175 50.579 12.33 12.892 32.247 20.826 39.361 18.843 7.113-1.984 23.236-39.173 23.236-39.173s-17.072 17.851-29.875 14.876c-12.805-2.975-20.392-25.29-22.763-36.2-2.371-10.908-.475-32.232-.475-32.232l-24.66 23.307z"/>
            <path fill="url(#h)" d="M788.945 407.482c-5.69 6.942-8.729 12.308-11.1 16.275-2.371 3.967-.977 9.487 4.5 17.363 5.905 8.487 54.448 41.662 117.675 41.662s111.77-33.175 117.675-41.662c5.477-7.876 6.834-13.396 4.462-17.363-2.37-3.967-5.371-9.333-11.062-16.275 0 10.412-40.214 48.038-111.075 48.038-70.86 0-111.075-37.625-111.075-48.038z"/>
            <path fill="url(#i)" d="M1008.25 476.741c.949-1.487 10.906-18.843 10.906-18.843l-5.46-4.027c-1.677 4.91-7.818 6.507-8.766 12.458s4.268 11.9 3.32 10.412z"/>
            <path fill="url(#j)" d="M1018.15 471.371s1.897-8.429-4.267-9.42c-6.166-.992-9.43 4.717-8.536 2.478.992-2.487 4.742-4.959 5.215-13.388.475-8.43-.473-12.892-.473-12.892s2.37-10.911 12.33-9.423c9.958 1.489 10.433 9.423 10.433 12.398 0 2.975-.949 4.462-.949 4.462l-13.753 25.785z"/>
            <path fill="url(#k)" d="M791.773 476.741c-.949-1.487-10.907-18.843-10.907-18.843l5.46-4.027c1.677 4.91 7.818 6.507 8.767 12.458s-4.27 11.9-3.32 10.412z"/>
            <path fill="url(#l)" d="M781.873 471.371s-1.897-8.429 4.267-9.42c6.166-.992 9.43 4.717 8.536 2.478-.992-2.487-4.742-4.959-5.215-13.388-.475-8.43.473-12.892.473-12.892s-2.37-10.911-12.33-9.423c-9.958 1.489-10.433 9.423-10.433 12.398 0 2.975.949 4.462.949 4.462l13.753 25.785z"/>
        </g>
        <path d="m813.43 438.565-5.168-3.56-.6.954 1.018.842.088.506-6.506 10.339-.479.116-1.14-.647-.6.954 5.167 3.56c1.77 1.22 3.28 1.842 4.966 1.664 2.195-.22 4.065-1.498 5.51-3.795 2.574-4.09 1.851-8.103-2.256-10.933zm-2.155.078 1.027.707c2.814 1.939 3.062 4.65.759 8.31s-4.793 4.512-7.607 2.574l-1.027-.708 6.848-10.883zm3.899 18.63 10.268 5.133 1.717-3.764-1.299-.65-1.342 2.067-.403.213-4.435-2.218 2.495-5.47 2.485 1.242.134.429-.5 1.61 1.128.563 2.226-4.88-1.129-.565-.881 1.421-.402.16-2.485-1.243 2.283-5.007 3.804 1.902.124.397-.557 1.997 1.339.669 1.506-3.304-9.638-4.818-.47 1.03 1.118.69.172.447-5.114 11.214-.46.183-1.214-.479-.47 1.031zm13.612 5.726a11.7 11.7 0 0 0 3.668 2.045c3.309 1.116 5.931-.107 6.742-2.748.402-1.309.125-2.726-.793-3.942-.93-1.243-1.898-1.938-2.393-2.57-.85-1.07-1.212-1.926-.898-2.947.375-1.222 1.555-1.802 3.027-1.306.645.218 1.076.484 1.377.806l.187.407-.365 2.424 1.451.49 1.104-3.596c-1.12-.917-2.308-1.612-3.56-2.033-2.883-.973-5.345.303-6.102 2.766-.334 1.09-.184 2.34.478 3.518.635 1.12 1.468 1.818 2.138 2.534 1.187 1.282 1.668 2.325 1.3 3.523-.375 1.222-1.616 1.783-3.25 1.232a5.683 5.683 0 0 1-1.678-.91l-.16-.42.495-2.773-1.535-.517-1.233 4.017zm10.723 4.154 6.03 2.033.334-1.087-1.318-.566-.213-.464 3.632-11.83.418-.202 1.386.344.334-1.088-6.03-2.033-.334 1.088 1.296.56.228.42-3.633 11.83-.432.246-1.364-.338-.334 1.087zm12.953-12.333-.23 1.118 1.199.385.265.393-2.504 12.161-.407.292-1.246-.157-.23 1.118 5.84 1.29.23-1.117-1.24-.393-.256-.438 1.058-5.134.352.078c2.091.463 2.428 1.563 2.623 3.872.106 1.167.08 2.236.97 3.387.408.543 1.117.986 2.009 1.183a13.93 13.93 0 0 0 2.107.276l.225-1.096-.269-.06c-1.387-.306-1.937-.785-2.115-2.137-.158-1.227-.07-2.496-.506-3.642-.324-.835-.94-1.424-1.882-1.895 2.439.038 3.934-1.015 4.366-3.114.522-2.533-.853-4.269-4.063-4.978l-6.296-1.392zm3.978 2.24.953.21c2.007.444 2.847 1.727 2.462 3.597-.432 2.1-1.686 2.825-3.9 2.336a8.661 8.661 0 0 1-.742-.189l1.227-5.955zm9.146 16.828 11.363.563.182-4.169-1.439-.071-.468 2.451-.292.36-4.908-.244.265-6.058 2.75.137.283.34.138 1.688 1.248.062.236-5.405-1.247-.062-.285 1.668-.311.31-2.75-.136.242-5.544 4.211.209.262.316.227 2.067 1.481.073.16-3.658-10.663-.528-.05 1.141 1.285.181.325.343-.544 12.417-.355.356-1.296.052-.05 1.141zm19.976-13.186-.039 4.128 1.499.018.371-2.491.35-.3 2.61.032-.12 12.687-.374.368-1.414.1-.011 1.142 6.498.077.011-1.142-1.412-.133-.366-.377.12-12.687 2.608.031.323.307.346 2.5 1.499.018.039-4.128-12.538-.15zm13.205.447.02 1.142 1.262.096.355.366.216 12.383-.341.38-1.259.137.02 1.142 6.148-.107-.02-1.142-1.305-.093-.354-.367-.103-5.877 6.279-.11.103 5.877-.32.379-1.3.138.02 1.143 6.127-.107-.02-1.143-1.262-.093-.355-.367-.216-12.383.341-.379 1.259-.14-.02-1.142-6.128.107.02 1.143 1.305.094.332.367.09 5.108-6.279.11-.09-5.108.342-.379 1.301-.14-.02-1.142-6.148.107zm17.306 15.264 11.624-1.064-.354-4.158-1.473.135-.158 2.497-.25.397-5.021.46-.515-6.042 2.813-.257.332.297.359 1.653 1.276-.117-.46-5.39-1.276.117-.074 1.694-.276.351-2.813.258-.471-5.53 4.308-.394.307.276.499 2.016 1.515-.139-.311-3.648-10.91.999.097 1.138 1.331-.004.374.294 1.055 12.383-.314.404-1.31.236.096 1.138zm16.482-18.06.178 1.128 1.365-.115.417.26 1.934 12.269-.307.43-1.33.344.178 1.128 6.437-1.1-.178-1.127-1.41.123-.423-.305-.817-5.179.388-.066c2.305-.394 3.055.494 4.106 2.56.54 1.041.91 2.043 2.24 2.761.618.343 1.505.475 2.488.307.706-.12 1.471-.322 2.252-.573l-.175-1.106-.297.051c-1.529.261-2.267.034-2.947-1.151-.614-1.076-.992-2.288-1.859-3.18-.641-.647-1.487-.95-2.621-1.018 2.501-.924 3.638-2.488 3.305-4.606-.403-2.555-2.447-3.625-5.986-3.02l-6.938 1.185zm4.886.513 1.05-.18c2.213-.377 3.544.482 3.842 2.37.334 2.118-.678 3.283-3.119 3.7-.252.043-.525.09-.826.117l-.947-6.007zm14.369 11.74 6.603-2.08-.33-1.092-1.512.355-.461-.246-3.579-11.893.26-.424 1.445-.578-.329-1.093-6.602 2.08.329 1.092 1.49-.346.448.201 3.579 11.893-.246.468-1.424.57.329 1.093zm13.73-12.868.314 1.095 1.672-.4.445.202 1.308 4.558c-.563.225-.977.379-1.2.448-3.41 1.066-6.166-.63-7.321-4.652-1.123-3.91.248-6.87 3.55-7.902a4.916 4.916 0 0 1 1.94-.218l.448.298 1.1 2.237 1.618-.505-1.09-3.798c-1.782.02-3.424.266-4.887.723-4.917 1.537-7.206 5.587-5.89 10.168 1.334 4.648 5.403 6.884 10.055 5.43 1.617-.505 3.167-1.33 4.7-2.467l-1.496-5.206.265-.424 1.253-.514-.315-1.094-6.469 2.021zm3.421-9.351.494 1.02 1.247-.527.492.159 5.35 11.058-.17.507-1.146.735.493 1.02 5.841-3.083-.493-1.02-1.29.55-.49-.158-2.54-5.247 5.965-3.149 2.539 5.248-.148.496-1.19.758.494 1.02 5.82-3.072-.494-1.02-1.247.529-.491-.16-5.35-11.057.169-.507 1.146-.737-.493-1.02-5.82 3.072.493 1.02 1.29-.55.47.17 2.207 4.56-5.965 3.149-2.206-4.56.169-.508 1.189-.759-.494-1.02-5.841 3.083zm14.622-8.45 2.028 3.546 1.369-.854-.909-2.342.17-.459 2.38-1.486 6.232 10.897-.153.53-1.234.905.561.981 5.934-3.704-.561-.98-1.346.704-.521-.11-6.232-10.896 2.383-1.487.446.075 1.562 1.933 1.37-.855-2.028-3.546-11.451 7.148z" stroke="none"/>
    </g>
    <path fill="#0072c4" stroke="#fff" stroke-width="6" d="M900.011 448.344s-114.465-33.735-113.798-162.077l.882-169.649h225.834l.884 168.675c.668 128.342-113.802 163.051-113.802 163.051z"/>
    <g fill="#bcbcbc">
        <path d="M802.805 155.04c.188 0 1.575-1.317 2.845-2.479 1.774-.888 3.415-2.137 5.217-2.975 1.343-.777 3.998-1.38 5.216-1.983 1.598-.836 2.902-1.8 4.269-3.472.164-2.218.475-3.812.475-6.446 1.886-.907 3.56-1.788 5.216-2.48 2.373-.668 2.887-1.617 5.217-1.983 1.499-.524 3.977-.497 6.164-.497 2.36 0 3.848 1.677 5.968 2.074 2.513 1.014 3.686 1.715 5.69 3.472 1.133 1.433 1.837 2.597 3.767 3.676 1.528.784 2.96 1.971 4.742 2.479 1.958 1.135 3.696 1.792 5.216 3.472 1.393.99 1.968 2.461 3.32 3.47 1.567 1.3 3.052 2.47 4.743 3.472 2.032 1.362 4.045 2.396 7.337 2.1 1.742-.104 3.618-.304 5.69.083 2.32 0 4.585-.04 6.64.497 2.418 0 4.376.327 6.639.495 2.12.397 4.28.497 6.639.497 2.056.536 4.318.495 6.639.495h13.278c2.416 0 4.862.098 6.639.497 2.393 0 4.45-.224 6.64-.497 2.574 0 4.538-.471 7.113-.495h8.063c2.07.566 4.715.955 6.164 1.983 1.898.541 2.844 1.441 4.742 1.984 1.454.746 3.662 1.926 4.742 3.47 1.339 1.4 2.713 3.404 3.794 5.455 1.32 1.905 1.822 4.082 2.845 6.446.542 2.266.92 4.42.949 6.942.514 2.15.475 4.516.475 6.942-.542 2.261-.66 4.778-1.424 6.942-.082 2.42-.566 4.61-.948 6.447-.422 2.03-.918 3.336-.949 5.95v6.943c-.167 2.277-.664 3.95-.948 6.446-1.147 2.166-2.246 4.698-3.319 7.438-1.578 1.1-2.947 2.665-3.794 3.967-1.012.626-1.598 1.574-1.423 1.984 1.895.66 1.423 1.979 1.423 4.462.246 1.912.431 4.283.949 6.447.173 2.367.68 3.815 1.422 5.454.748.977.894.496-.949.496-1.37 1.075-2.757.513-3.318-1.488-1.107-1.335-1.47-2.95-1.897-5.454-.263-2.296-.63-4.533-1.424-5.95-.243-2.795-.986-2.766-3.794-2.975-1.335-1.184-3.098-1.489-5.69-1.489-2.581 0-2.798-.263-2.846 2.48v6.942c-.446 2.012-1.424 3.644-1.896 5.454-1.415 1.036-2.15 2.775-3.794 3.967-.783 2.252-1.921 2.644-4.269 2.975-.82-1.025-2.16-2.362-2.845-3.47 1.328-2.228 2.487-2.564 3.32-4.959a102.21 102.21 0 0 0 2.37-4.958c-1.012-1.559-1.92-2.261-2.845-4.464-.78-1.2-1.86-3.781-2.37-5.454-1.557-.542-4.01-.63-5.217-1.488-2.301-.535-2.944 1.983-5.69 1.983h-6.639c-2.936 0-3.669 1.64-6.165 1.489-.733.238-2.512-.105-5.217 0-1.982.69-4.37.495-6.64.495-2.405-.03-4.373-.584-6.164-.992-2.179-.596-4.346-1.201-6.639-1.487-2.784 0-3.82.222-5.69 1.487-1.48.878-3.624 2.883-5.218 3.967-.673 1.646-1.024 4.43-1.896 6.447-.504 1.934-1.324 3.161-1.897 4.959-.642 1.677-1.25 3.403-1.422 5.95-.161 3.342-.891 2.933-2.846 1.984-.814-1.384-2.113-2.906-2.845-4.464.431-2.523.917-3.778.949-6.445-.462-1.925-1.54-1.863-2.846-.497 0 2.596.12 4.598-.948 5.95-.534 2.049-1.393 2.934-2.845 3.967-.71 1.841-2.287 2.684-3.794 3.472-.242-.084 0-.665 0-1.983-1.137-2.268-.082-4.15-.082-6.942.029-2.504-.114-4.164.613-6.448 0-2.403-1.116-4.69-1.48-6.445-.881-1.842-1.39-2.753-3.794-3.472-1.688-.671-4.123-1.579-5.217-2.975-1.376-1.785-2.255-2.52-4.267-3.47-2.182-.79-3.241-1.514-4.742-2.48-1.466-1.617-2.657-2.319-3.32-4.463-.99-1.524-1.16-4.357-1.897-6.447-.161-2.177-.785-4.2-1.422-5.95-.282-2.177-.625-3.77-1.424-5.95-.264-2.04-.852-4.172-1.422-6.446 0-2.426.04-4.794-.475-6.942v-6.942c-.34-2.004-.467-4.938-.948-6.447 0-2.698-.287-4.221-.948-5.95-1.085-1.753-1.173-2.538-2.846-2.976-1.208 1.54-3.199 2.17-5.69 2.48-1.74-.397-4.198-.655-6.166-1.488-1.901-.468-3.202-1.22-4.742-1.984-.842-1.296-1.848-2.764-2.845-3.967-.295-2.59-.86-3.922-.949-6.445 0-1.893.046-.889 1.897-3.472z"/>
        <path fill="#fefefe" d="M830.89 172.905c3.01-.997 9.585-5.876 13.364-9.004 4.304-2.727 13.111.103 13.462-7.287-.533 2.222-5.626 7.746-8.116 11.09-5.49 3.487 2.685 7.042 4.004 2.056 2.847-5.1 6.47-10.277 12.16-12.283-1.038 3.675-1.803 7.25.67 10.52.89-1.61 1.112-8.218 1.017-2.778-1.798 3.094 2.657 12.107 2.77 5.095.711-4.433.442 4.795 1.795 6.185 2.835 5.47 2.586-5.033 3.215-7.113.476-3.931.674-2.894.1-.053-.57 3.56.613-7.436.826-1.375.39 3.168-.042 11.78 3.02 4.947 2.451-4.063 3.037-4.124.36-.518-.872 1.359 4.021-7.402 2.086-1.291-.129 4.39.033 10.92 2.418 13.786 1.83-2.255.763-13.983 2.603-5.923.705 2.273.021 8.598 2.993 3.744 3.21-3.783 4.98-7.065 4.63-12.253.401-2.647 2.014-6.905 3.432-2.216-.974 6.117 5.394 10.007 4.615 15.891 2.858-4.496 1.572-11.188-.331-15.488-.402-5.093 7.744-2.057 5.719 2.436-.232 3.228 4.396 11.524 4.766 3.846.622-3.65 2.631-3.972 2.191.109.84 2.636 4.422 10.39 4.035 3.637.319-3.678-.596-7.552 1.058-11.019 1.173 2.215 1.297 5.617 2.681 1.403 2.83-.085 1.119 7.783 4.696 9.467 1.437 2.823 5.015 7.438 4.012 1.36.555-3.292-2.392-10.096-1.114-10.972 3.745 4.755 5.13 11.033 10.18 14.87 4.81 2.44.597-6.748.335-9.116-2.867-1.576-5.21-7.702-1.152-2.916 2.342 4.252 9.463 7.972 11.688 8.896-2.123-1.57-4.057-2.155-.458.018 2.665 1.093-1.58-6.641-3.127-7.952-1.375-2.473-8.072-6.079-6.173-7.784 5.24 1.133 6.773 6.861 9.952 10.44 1.981 1.66 6.76 5.186 4.09-.077 1.494-.623 8.867 7.56 7.11.998-1.215-2.822-7.676-7.915-6.964-8.223 2.204 3.19.874.91-.882-.762 6.388.71 10.14 7.086 14.157 11.14.5 1.93 1.961 11.329-.012 5.164-4.154-1.774 1.603 8.431-2.933 7.108-.206-2.261-4.208-7.003-2.271-2.317 3.336 6.845.821 14.361 1.118 21.579.089 3.553-.082 7.085-.335 10.62.24-2.609.443-6.952.016-1.254-.148 3.96-1.607-5.713-3.586-6.206-.41-1.8-1.967-10.9-3.28-5.471.01 5.32 5.14 10.902 1.043 15.591-1.382 1.288-2.112 4.997-2.85 1.11-2.018-4.596-3.31-9.461-6.848-13.216-1.493-2.925-6.62-10.018-5.199-2.572.889 3.364 1.486 6.778 1.256 10.267-1.991-5.162-4.707-9.96-7.378-14.727.386 2.227 3.09 11.784.739 5.59-1.627-5.08-4.248-10.15-9.31-12.405-1.399-.173 3.4 8.934 1.55 9-.445-2.937-3.106-9.473-5.75-8.28.12 5.248 2.254 10.134 1.034 15.486.266 5.22-3.219-5.19-4.36-6.585-5.124-3.136.375 8.839-3.687 4.206-3.27-2.297-5.014-4.834-4.695-9.116-6.082-1.035-3.735 5.395-4.023 9.05-.514 2.774-2.01 8.04-3.702 8.85-.706-4.008-.14-8.205-.323-12.29.978-2.346-.098-8.375-2.947-5.51-.482 5.293 2.975 12.015-.956 16.337-2.08 2.38-5.938-3.714-9.576-2.085-4.62-2.368-2.727-9.773-5.863-13.661-3.118-3.263-1.656 13.078-3.706 5.335 1.474-4.93-7.516-6.859-5.76-1.6 2.209 2.237 2.607 5.043 2.317 8.017.627 3.5-1.972 4.537-2.577.61-.249-4.327-7.656-6.122-6.14-.43-3.883-2.5-.239 9.85-4.997 6.054-5.362-3.74-8.801 3.312-14.675 1.928-3.34.556-11.329 1.427-6.485-3.423 4.53-2.732 6.445-10.99 12.757-6.766 4.826-.28 9.95-3.68 13.891-6.845 3.223-2.172 1.781-7.7-2.169-4.272-3.279 4.927-12.699 4.922-15.524 4.532 2.8-2.65 11.363-3.04 9.237-7.682-3.143.256-8.662 4.965-10.43 2.224 1.098-1.21 4.707-4.56.544-3.098-5.27 1.717-10.921 1.299-16.353.868-5.435-5.322 7.928-3.865 7.735-7.363-1.318-.109-6.522.594-4.247-1.318 4.4.087 8.837.421 11.992-3.754 1.908-1.983 8.548-6.534 6.925-8.133-4.9 2.821-10.045 7.61-16.184 4.82 5.275-3.935-2.038-4.271-5.371-3.887-2.425.749-9.168-2.008-3.4-1.831 3.928.831 7.832-4.612 1.784-3.57-1.265-.388-2.624-.14-3.93-.21zm-29.033-7.948c-.231-2.562-1.263-5.107-.836-7.695 1.262-1.845 3.007-3.187 4.63-4.7 2.905-1.62 5.668-3.592 8.953-4.389 2.282-.696 4.259-2.202 5.748-4.042.733-2.214-.562-5.76 1.515-6.953 2.557-1.4 5.324-2.3 7.929-3.586 2.845-.919 5.923-1.062 8.874-.71 2.361 1.015 4.756 1.939 7.099 2.998 2.12 1.03 3.68 2.777 5.113 4.586 1.674 1.528 3.77 2.52 5.741 3.61 1.637.113 1.097 2.235.058 2.152-.674 3.14-4.591.476-5.337-1.374.657-1.219.389 2.785-.865 2.839-2.209.977-2.143-2.785-2.466-4.222.28-1.215-.679-2.656-1.18-.747-1.485 1.635 1.602 5.139-1.625 4.173-2.398-.316-5.078-.81-7.16.779-1.744 1.818 1.887 2.565 3.018 3.446 1.526 1.436 3.566.018 5.342-.159 2.43-.84 5.164-.405 7.416.721 1.041 2.248-1.047 4.483-3.037 5.395-1.86 1.009-3.936 1.445-6.009 1.697-3.039.135-2.45 3.901-5.41 4.203-1.89.8-4.019.983-6.036.718-.397-1.087 2.004-2.807 2.253-4.467 2.174-2.585-3.115-2.114-2.348.351.367 1.671-3.296 4.14-2.058 1.3.059-1.528 1.641-3.9-1.024-2.799-1.458-.013-4.447-.066-3.625 2.2-1.808.383-4.126.424-5.677-.476-.926-2.47-3.812-3.555-5.62-1.31-1.803 2.384-4.306-.742-6.096.494-.023 2.235 2.281 3.404 4.322 3.387 2.065-.182 4.184-.566 6.267-.225 1.917 2.287-1.83 3.004-3.609 2.69-2.397-.087-4.54-1.457-6.98-1.267-1.164-.165-3.82 1.284-1.315 1.478 1.86.378 5.668.252 4.818 3.17-1.458.68-3.264-.067-4.913.637-.968-.25-3.873.534-2.255-.298-.857-1.482-2.513-2.321-3.615-3.605z"/>
        <path d="M812.447 153.269c-.11 0-1.112.697-2.012 1.403-1.474.788-3.047 2.13-4.025 2.805-.769.616-.764.884-1.675 1.052 1.598-.227 2.31-.633 3.688-1.403 1.742-.209 3.43-.579 4.36-1.402.872-.305-.066-1.703-.336-2.455zm15.426-16.48c.193 0 .586 1.096 1.34 1.753.483 1.346.927 2.296 1.006 3.858.411-1.714 1.114-3.091 1.342-4.91-.522-.923-.557-1.356-2.013-1.402 0 .947.111.328-1.675.701zm6.035.351v.35c0-.945-.021-.463.335 1.403.554 1.176.671 2.438.671 4.209.88-.657 1.615-1.968 2.012-3.157 0-2.768-.375-2.605-3.018-2.805zm12.407 40.323h.335c-.986 0-.43.06 1.342-1.052 1.147-.8 2.086-1.982 3.689-2.455 1.552-1.274 2.747-1.87 4.358-2.453.786-.378 1.48-1.033 2.348-.35-.25 1.729-.536 2.383-2.012 3.154-.764 1-1.966 1.583-3.017 2.104-1.091.501-2.292.527-2.683 1.753-1.824.84-2.049.699-4.36-.701zm6.372 10.168c.598-.473 2.698-2.663 3.688-3.505 1.12-1.544 2.252-2.725 3.353-3.507.978-1.504 2.23-2.512 3.019-3.857.931-1.18 1.617-2.177 2.682-3.506 0 1.533-.14 3.566.334 4.558 0 2.118-.233 2.697-1.004 4.208-.762 1.24-1.33 2.063-3.019 2.805-1.523.844-2.437 1.141-3.689 2.103-.954.614-1.948 1.225-3.018 1.753-.959.43-.519.243-2.346-1.052zm-10.396 8.065h.335c-.986 0-.432.06 1.342-1.052 1.43-1.496 2.57-2.017 4.36-2.805 1.36-.11 3.007-.464 4.024-1.052.81-.15 1.375-.665 2.01 0 1.054 1.488 1.344 1.908-.335 2.805-.802.712-2.218 1.43-3.352 1.753-.837.722-2.495.767-4.024 1.052-1.37 0-2.132.162-2.683-.701l2.683.701c-1.37 0-2.132.162-4.36-.701zm14.419 0v-.35c0 .978-.041.46.67-1.403 1.257-1.962 1.73-3.044 3.354-3.507.76-.962 2.078-1.21 3.69-1.754.603 1.054.14 2.282 0 3.507-.44 1.31-1.635 2.233-2.348 3.156-1.046.743-1.472 1.457-3.018 1.754-1.28 0-.601-.034-2.348-1.403z"/>
        <path fill="#c4c4c2" stroke="#000" stroke-width="1.358" d="M817.476 151.165c-.75 0 1.322-.78 2.012-1.052.553-1.217.991-2.079 2.012-2.804 1.68.135 2.504.641 3.354 1.752 1.411.403 1.92 1.106 3.69 1.403.656.58 1.546.647 0 1.052-1.052.58-2.374.701-4.025.701-1.73.13-2.965.528-4.025 1.052-2.244 0-1.884.078-3.018-2.104z"/>
        <circle fill="#000" cx="138.108" cy="302.603" transform="matrix(1.5175 0 0 1.58678 612.592 -330.05)" r="1.105"/>
    </g>
    <g fill="#005121" stroke="#002b0e" stroke-width="1.94">
        <path d="M827.872 247.944h1.341c-4.205 0-1.692-.294 5.365 5.61 2.956-2.576 2.921-2.924 5.366 1.402 1.411 2.463 1.825-.25 4.023-2.804 1.059 5.095 1.737 10.438 5.366 5.61 4.144 0 8.482-.36 10.73 1.402 2.716 5.276 1.827-.895 4.024 1.403 5.906.74 5.794-5.297 12.227-6.858 3.999 5.225 5.75 1.204 10.732-1.401 3.7 1.082 7.187 6.951 7.89 1.245 3.03-5.166 3.294-4.727 5.367 0 2.945 2.774 4.186-1.387 6.705-2.804 4.49 2.747 9.499 3.128 16.097 1.403 1.117 4.672 3.933 2.645 6.706 1.401 5.933 2.607 8.003 3.405 14.754 0 3.345-4.132 1.451.116 4.023 2.806 5.002-1.624 3.62-1.968 9.39-1.403 5.799 0 6.268-.146 8.048-4.207 2.913 3.047 3.967 5.243 8.047 1.403 6.252.192 4.319.825 8.049-1.403 2.759 6.389 3.407 1.773 6.706 4.207-2.173 5.762-5.512 8.464-9.389 11.22-2.58 4.468-4.193 9.294-9.389 11.222-3.79 4.043-7.83 6.387-12.072 9.817-5.815 1.52-12.215 1.403-18.779 1.403h-56.334c-4.006 2.093-10.559 3.09-16.096 4.206-6.184 0-13.193.077-17.436-1.402-2.876-3.006-7.92-6.365-10.73-9.818-2.844-2.397-2.926-7.077-5.366-9.817-2.245-4.013-2.938-10.292-5.365-14.026v-9.817z"/>
        <path d="M957.978 260.567v1.403c0-3.921.165-1.838-2.683 5.609-.577 1.809-1.84 2.234-4.024 2.805m-5.365-4.207h1.341c-4.966 4.905-8.31 7.164-9.39 12.623l9.39-12.623c-4.966 4.905-8.31 7.164-9.39 12.623m-10.73-19.635c0 .125-.188 5.003-1.341 7.012m-4.023 2.805v1.403-1.403zm-10.731-8.415h1.341-1.341zm-75.113 0c.64 0 3.28 4.452 6.706 7.012-.853 4.103-2.164 8.851 0 12.623m4.024-11.22c.64 0 3.28 4.454 6.707 7.014l-6.707-7.014c.64 0 3.28 4.454 6.707 7.014v1.402c0-4.333-.344-8.871 1.34-11.221 1.492 2.638 3.375 6.881 4.025 2.805 7.554-.282 11.2-2.5 16.096-4.207 0 2.063-.317 1.072 1.341 2.804m91.209-5.609h1.341c-2.53 2.204-4.47 6.7-6.707 9.817m-49.627-14.025h10.73"/>
    </g>
    <path d="M824.718 268.429c-16.131 0-21.477 16.858-37.609 16.858-.31 0-.604-.026-.907-.038v1.02c-.06 11.686.858 22.57 2.533 32.733 14.88-1.087 20.408-16.857 35.983-16.857 16.131 0 21.515 16.895 37.646 16.895s21.516-16.895 37.647-16.895 21.515 16.895 37.646 16.895 21.515-16.895 37.647-16.895c15.533 0 21.076 15.66 35.87 16.82 1.772-10.435 2.708-21.646 2.645-33.678v-.038c-.302.012-.597.038-.907.038-16.13 0-21.477-16.858-37.608-16.858-16.132 0-21.516 16.858-37.647 16.858s-21.515-16.858-37.646-16.858-21.516 16.858-37.647 16.858-21.515-16.858-37.646-16.858zm0 65.805c-12.549 0-18.585 10.172-28.235 14.703a155.36 155.36 0 0 0 11.982 25.514c4.582-3.466 9.454-6.464 16.253-6.464 16.131 0 21.515 16.858 37.646 16.858s21.516-16.858 37.647-16.858c16.13 0 21.515 16.858 37.646 16.858s21.515-16.858 37.647-16.858c6.649 0 11.455 2.87 15.95 6.237a157.179 157.179 0 0 0 12.02-25.4c-9.498-4.591-15.536-14.59-27.97-14.59-16.132 0-21.516 16.858-37.647 16.858s-21.515-16.858-37.646-16.858-21.515 16.858-37.647 16.858-21.515-16.858-37.646-16.858zm75.293 65.806c-16.131 0-21.515 16.895-37.646 16.895-15.256 0-20.902-15.103-35.114-16.744 18.994 21.16 40.533 33.97 55.222 41.01 4.968-3.855 10.112 4.687 17.538 4.687 7.373 0 12.49-8.586 17.425-4.762 14.526-7.073 35.802-19.903 54.693-40.86-13.747 2.01-19.446 16.67-34.471 16.67-16.132 0-21.516-16.896-37.647-16.896z" fill="#fff"/>
    <g stroke="#522108">
        <g fill="none">
            <path stroke-width=".737" d="M800.148 342.754c2.647-.922 15.438-5.073 15.88-4.613.44.462 24.701 24.908 24.701 24.908l-20.29 4.15-20.291-24.445z"/>
            <path d="M848.358 374.785c.374-5.788 11.21-38.709 11.21-38.709m-7.473 39.101c0-.362 8.595-38.739 8.595-38.739m-5.651 38.799c.373-2.17 7.145-38.799 7.145-38.799m-10.835 27.855c1.868 0 5.605-1.447 5.605-1.447m-4.484-2.894c0-.362 5.605-1.447 5.605-1.447m-4.859-3.979 5.979-1.085m-3.363-3.618c0 .362 4.11.362 4.11.362" stroke-width=".751"/>
            <path d="M914.897 400.376c-.442-9.912-13.233-66.285-13.233-66.285m8.821 64.426c0-.62-10.146-63.806-10.146-63.806m5.735 58.849c-.44-3.717-7.498-58.85-7.498-58.85m15.879 57.612c-2.205-1.858-8.821-4.337-8.821-4.337m5.733-5.575c-2.205 0-6.616-2.479-6.616-2.479m5.293-4.954c0-.62-6.616-2.479-6.616-2.479m5.734-6.813-7.058-1.858m3.97-6.196c0 .62-4.851.62-4.851.62m3.527-8.053c-.882 0-4.851 1.238-4.851 1.238m48.898 21.241c-2.205 0-6.616-1.845-6.616-1.845m10.145 15.221c-.442-7.38-13.233-49.354-13.233-49.354m8.822 47.971c0-.462-10.146-47.508-10.146-47.508m5.735 43.817c-.44-2.767-7.498-43.817-7.498-43.817m11.467 29.98c0-.462-6.616-1.845-6.616-1.845m5.735-5.073-7.058-1.384m3.97-4.613c0 .462-4.851.462-4.851.462m3.527-5.996c-.882 0-4.851.922-4.851.922" stroke-width=".737"/>
        </g>
        <g fill="#dd8b59" stroke-width=".737">
            <path d="M895.426 391.646c0-.462 1.323-115.771 1.323-115.771s3.97-.462 3.97 0-.44 115.31-.882 115.771c-.441.462-4.853.922-4.411 0zm43.23-110.699c0 .924-.883 97.322-.883 97.322l-3.088 3.69.883-101.012h3.088zm-76.753 88.56c.44-2.769.44-86.253.44-86.253l-2.646-.461-.44 85.33 2.646 1.384z"/>
            <path d="M845.141 338.141c1.765 0 31.76-5.073 31.76-5.073l-.442 5.073-29.553 3.23-1.765-3.23zm.44-26.752c1.765.462 36.171-9.686 36.171-9.686s0 3.23-.441 3.23c-.44 0-35.73 9.685-35.73 9.685v-3.229zm1.325-13.376c-.442 1.845.44 4.153.44 4.153l28.672-10.148s1.323-2.307 0-2.307-29.554 9.226-29.112 8.302zm37.934-6.457c.882 0 29.553-9.686 29.553-9.686s.442 4.151 0 4.151c-.44 0-26.906 8.302-26.906 8.302l-2.647-2.767zm-2.206 11.993s-.882 4.151-.44 4.151c.44 0 37.493-10.147 37.493-10.147v-2.768l-37.053 8.764zm1.323 32.748v3.228l31.76-4.612-.882-2.307-30.878 3.691zm36.613 2.306.44 2.767s31.76-4.15 31.76-4.612c0-.46 0-3.228-.44-3.228-.442 0-31.32 5.535-31.76 5.073zm-.442-29.519.442 3.228 37.493-10.608s.883-2.767.441-2.767c-.441 0-37.494 11.53-38.376 10.147zm3.97-14.76s-.44 2.767 0 2.767c.442 0 27.79-6.918 27.79-7.38 0-.46 2.647-3.229.442-2.767-2.207.462-27.349 8.764-28.232 7.38z"/>
        </g>
        <path d="M864.108 303.549c3.97-1.384 1.323-4.613 2.205-4.613.883 0 3.97 2.306 5.735.46 1.764-1.843 3.088-7.378 2.206-6.918-.795.416-19.802 7.552-23.926 7.634 2.583.997 10.342 4.635 13.78 3.437zm61.313-6.458s2.206 5.535 4.411 4.613c2.205-.922 4.412-2.768 4.412-2.768s1.765 4.613 4.851 3.69c3.088-.922 4.853-5.997 4.853-5.997s3.087.924 4.41.462c1.325-.462 3.088-7.84 3.088-7.84l-26.025 7.84zm-2.646 44.741c-.442.922 2.206 3.23 4.411 3.23 2.205 0 3.089-3.23 3.529-2.308.441.923.441 5.074 6.176 3.69 5.734-1.383 5.734-5.534 5.734-5.534s-1.764 1.384 2.205 1.844c3.97.462 7.94-5.997 7.5-5.997-.442 0-28.672 5.537-29.555 5.075zm0-29.981s-4.411 5.073-3.088 11.991c1.323 6.92 3.088 12.915 3.53 12.915.441 0 5.293-9.224 10.586-9.686 5.293-.461 14.997 5.075 14.997 5.075s-1.323-11.071-.881-16.144c.44-5.074 7.94-13.837 7.94-13.837l-33.084 9.686zm-76.311 29.981c.442 0 0 4.151 3.528 3.23 3.53-.924 4.412-3.23 4.412-3.23s.881 5.073 5.734 4.613c4.852-.462 7.498-5.997 7.498-5.997s.442 4.151 3.53 2.768c3.088-1.384 3.97-4.613 3.97-4.613l-27.79 4.15-.882-.921zm0-27.213s-3.97 1.384-2.647 9.686c1.324 8.302 4.412 12.915 4.852 12.915.442 0 3.97-7.84 9.263-9.224 5.294-1.386 14.557 4.15 14.557 4.15s-.883-7.38.442-14.298c1.323-6.92 5.733-11.993 5.733-11.993s-30.877 8.764-32.2 8.764zm39.258-21.679c1.765.462 4.853 5.073 6.616 4.151 1.765-.922 4.412-3.69 4.412-3.69s-.442 5.535 3.088 4.612c3.528-.922 3.97-4.611 3.97-4.611s2.646 1.383 4.851 0c2.207-1.384 4.411-8.304 3.53-8.304s-25.584 8.304-26.467 7.842zm-.882 13.377c0 .922-4.411 8.302-3.088 15.22 1.323 6.919 3.97 13.377 4.411 13.377.442 0 7.058-7.38 12.793-8.764 5.733-1.384 14.114 4.613 13.674 4.613-.442 0-2.206-6.92-2.206-11.993 0-5.075 6.616-20.757 6.616-20.757l-32.2 8.304zm0 33.208c0 .462 1.323 3.69 4.411 3.69 3.087 0 3.529-3.228 3.529-3.228s-.442 5.534 4.411 5.074c4.851-.461 6.616-5.536 6.616-5.536s.442 2.769 4.412 1.385c3.97-1.385 9.263-5.996 8.821-5.996-.44 0-31.758 5.996-32.2 4.611z" fill="#fecf3e" stroke-width=".737"/>
        <g fill="#dd8b59" stroke-width=".737">
            <path d="M846.464 372.734s4.411 47.508 55.139 46.124c50.727-1.383 64.841-47.968 64.841-47.968s-21.614-.923-22.055-.923c-.44 0-17.644 22.14-39.7 21.678-22.055-.461-29.112-5.996-33.965-10.607-4.851-4.613-9.262-11.531-9.262-11.531l-25.584-10.61 1.323 10.148 9.263 3.69zm136.947-4.935c-.442-1.384-1.528-6.134-1.528-6.134v-5.535l2.442-5.605s-38.377 5.75-38.377 6.211c0-.532-.236 10.925-.236 10.925l37.699.138z"/>
            <path d="m976.149 356.13-.882 9.686h6.175l-.44-9.686h-4.853zm-6.617.462-.442 10.146 3.97-.46.442-9.686h-3.97zm-6.616 10.146v-7.84l3.97-1.384.441 7.84-4.411 1.384zm-7.5-.46.883-6.918 4.41.46.442 7.38-5.735-.922zm-8.381 0 .442-5.996 4.411-.462v6.918l-4.853-.46zm-4.41 3.689 41.904.924.442-3.23-43.23-.461.884 2.767zm1.764-11.531c4.853 0 41.464-7.38 41.464-7.38s1.324-4.611 0-4.611c-1.323 0-41.464 8.763-41.464 8.763v3.228zm-145.564-16.142 33.523 17.066-.881 2.305s-32.202-15.682-32.202-16.144c0-.46.442-2.305-.44-3.227z"/>
            <path d="M814.263 337.219c0 1.384 4.853 29.519 4.853 29.519s3.088.462 3.088 0c0-.46-5.294-29.057-5.294-29.057l-2.647-.462z"/>
        </g>
        <g fill="none">
            <path d="M882.044 389.315c.442-7.668 13.233-51.282 13.233-51.282m-8.821 51.801c0-.48 10.146-51.322 10.146-51.322m-6.671 51.401c.44-2.875 8.434-51.4 8.434-51.4m-15.879 44.571c2.205-1.438 8.821-3.355 8.821-3.355m-5.733-4.313c2.205 0 6.616-1.918 6.616-1.918m-5.293-3.833c0-.48 6.616-1.918 6.616-1.918m-5.734-5.271 7.058-1.438m-3.97-4.793c0 .48 4.851.48 4.851.48m-3.528-6.231c.882 0 4.851.958 4.851.958" stroke-width=".751"/>
            <path d="M919.474 388.989c.442-7.38 13.233-49.354 13.233-49.354m-8.822 47.97c0-.462 10.146-47.508 10.146-47.508m-5.735 43.817c.44-2.767 7.498-43.817 7.498-43.817m-15.879 42.895c2.205-1.384 8.821-3.23 8.821-3.23m-5.733-4.15c2.205 0 6.616-1.845 6.616-1.845m-5.293-3.69c0-.462 6.616-1.845 6.616-1.845m-5.734-5.073 7.058-1.384m-3.97-4.613c0 .462 4.851.462 4.851.462m-3.527-5.996c.882 0 4.851.922 4.851.922m-57.315 31.518c-.442-7.425-13.233-49.651-13.233-49.651m8.821 48.259c0-.465-10.146-47.795-10.146-47.795m5.735 44.082c-.44-2.784-7.498-44.082-7.498-44.082m15.879 43.155c-2.205-1.392-8.821-3.249-8.821-3.249m5.733-4.176c-2.205 0-6.616-1.857-6.616-1.857m5.293-3.711c0-.465-6.616-1.857-6.616-1.857m5.734-5.103-7.058-1.392m3.97-4.641c0 .465-4.851.465-4.851.465m3.528-6.033c-.882 0-4.851.927-4.851.927" stroke-width=".737"/>
        </g>
        <path fill="#b6b6b4" stroke-width=".737" d="M834.995 359.359s-8.821-1.384-8.381.922c.441 2.306 4.411 4.613 4.853 5.996.44 1.384-1.323 6.457 1.323 5.997 2.647-.462 5.293-2.307 5.293-3.691s-.441-7.84-.441-7.84l-2.647-1.384z"/>
        <g fill="none" stroke-width=".737">
            <path d="M844.699 372.274c1.323 0 11.47 2.306 11.47 2.306l10.585 14.76"/>
            <path d="M852.199 374.118c.44.462 9.263 31.364 51.609 31.364S956.3 370.43 956.3 370.43"/>
            <path d="M962.916 371.351s-20.29 46.124-59.108 42.895c-38.818-3.227-44.993-18.45-48.081-26.29-3.088-7.841-4.852-14.298-4.852-14.298m101.013-39.668c.442-1.384 1.765-29.057 1.765-29.057m29.112 42.895-27.349-45.203m-55.578-25.367c0-.462 13.674 5.996 13.674 6.457 0 .461 48.521 67.803 48.963 67.803m-24.261-67.804 12.351 5.536 3.97 10.146m-93.073-16.603c-.442 0 13.674 11.07 13.674 11.07l1.765 9.225m-63.52 47.046c6.175-2.767 48.962-41.974 48.962-41.974m-60.431 34.594c5.295-4.613 48.08-42.434 48.08-42.434m32.202 6.457 45.434 78.872m-5.36-46.256s5.36 18.583 10.653 21.35c5.293 2.767 11.468 7.38 11.468 7.38"/>
            <path d="M921.656 339.779s3.765 21.886 9.058 26.038c5.293 4.15 10.588 8.763 10.588 8.763m-56.235-36.329s5.293 30.442 15.88 37.36a1440.085 1440.085 0 0 1 19.408 12.915"/>
            <path d="M884.627 337.79s11.468 23.986 21.172 31.366c9.705 7.378 22.937 14.298 22.937 14.298m-81.162-43.819c3.087 5.535 2.647 16.144 6.175 19.833 3.528 3.691 8.823 11.993 8.823 11.993"/>
            <path d="M848.456 340.097c1.765 2.767 6.686 16.547 9.704 20.755 2.207 3.69 24.702 27.213 24.702 27.213"/>
        </g>
        <g stroke-width=".475">
            <ellipse rx="3.308" ry="3.459" cx="872.054" cy="389.219"/>
            <ellipse rx="2.867" ry="2.998" cx="888.817" cy="396.599"/>
            <ellipse rx="2.867" ry="2.998" cx="909.549" cy="398.444"/>
            <ellipse rx="2.647" ry="2.537" cx="928.075" cy="391.294"/>
            <ellipse rx="2.426" ry="2.998" cx="942.191" cy="382.3"/>
        </g>
        <path d="M859.483 283.363c-1.323.924-23.379 6.458-20.29 5.996 3.086-.46 20.732 4.613 20.29 3.23-.442-1.384 0-8.302 0-9.226zm37.495-6.918c-.883 0-13.676 5.075-13.234 5.075s14.557 4.15 14.116 3.227c-.442-.922-.442-6.918-.882-8.302zm38.376 4.612c-.883.462-15.88 4.151-13.234 4.613 2.646.462 12.792 4.15 12.792 3.229 0-.924 0-7.38.442-7.842z" fill="#ff0101" stroke-width=".737"/>
        <g fill="#be1017" stroke-width=".581" transform="matrix(.04915 -1.29622 1.23825 .05145 0 0)">
            <circle r="1.889" cx="-216.002" cy="726.377"/>
            <circle r="1.889" cx="-212.218" cy="739.051"/>
            <circle r="1.889" cx="-219.249" cy="732.918"/>
            <circle r="1.889" cx="-208.971" cy="732.51"/>
            <circle r="1.889" cx="-214.11" cy="732.714"/>
        </g>
    </g>
</svg>
