<svg xmlns="http://www.w3.org/2000/svg" viewBox="0 0 830 498">
    <path fill="#00ab39" d="M0 249h830v249H0z"/>
    <path fill="#fff" d="M0 0h830v249H0z"/>
    <g stroke="#000" stroke-width="1.8">
        <path d="M543.282 29.532c-.011.02-.019.044-.031.063.033-.018.061-.044.094-.063h-.063zm-.031.063c-52.242 28.887-99.003 58.945-144.969 97.25-22.06 19.27-15.833 34.631-16.687 51.937.711 11.618-2.511 22.426-9.656 28.938-16.35 3.306-32.715 6.632-49.063 9.938-1.566-4.524-3.121-9.042-4.687-13.563 1.495-6.94 7.232-10.352 19.312-6 .952-8.923-6.227-12.555-14.625-15.656-2.885-2.246-6.468-3.971-6-11.688-1.412-17.467 26.615 1.25 26.875 1.25.261 0-.934-17.627-13.812-21.156-7.022-2.485-9.994-9.892-7.313-15.375 5.618-11.209 16.194.878 24.282 1.312-.304-7.316-2.387-12.531-8.688-18.437-3.392-2.087-11.722-3.657-11.938-7.156-.176-4.752 7.808-6.784 18.782-5.469-2.288-6.66-9.668-10.968-19.813-14.094l-6-10.437c-2.841-5.26-4.115-5.402 2.469-15.375 5.915-3.827 13.774-9.237 19.688-13.063l-6.532-.781c.869-7.131.969-9.53 2.625-21.375-6.346 8.672-14.275 7.121-21.406 10.687 0 0-20.33 3.61-26.875 12.25-.261 0-51.125-2.593-51.125-2.593-10.84 1.51-20.099 4.582-21.906 15.125-24.792 2.502-50.755.289-69.657 24 12.87-.609 24.136-3.674 38.594-1.813 0 0 12.321.233 14.875 13.281.261.522 4.188.532 4.188.532 1.566 1.217 3.121 2.439 4.687 3.656.609-1.652 1.204-3.317 1.813-4.969l4.187 2.875c.434-1.826.879-3.642 1.313-5.469 1.392.957 2.764 1.919 4.156 2.875.087-2.174.195-4.357.281-6.53l5.469 3.905v-8.593s20.192-.047 26.344 12.781c.262.261-56.665 10.463-111.657 5.75 5.306-2.609 10.602-5.235 15.907-7.844-20.05-4.076-38.901-7.761-56.594-21.656 6.677 25.137 41.181 54.663 48.25 54.531 0 .261-6.781-12.25-6.781-12.25 19.916.87 39.835 1.725 59.75 2.594 2.175 6.61 1.213 14.02 6.531 19.844 0 0-3.299 10.925 4.031 15.375.262.521 8.75-22.157 8.75-22.157s2.6 6.101 5.219 10.157c3.795-19.508 25.031-22.688 25.031-22.688s4.438 10.176 4.438 10.438c-6.636.96-14.89 14.486-10.438 21.906-4.45.085-12.351 13.186-9.906 20.344-3.741 3.723-13.058 8.686-10.688 24.281-7.334 1.572-11.676 14.991-9.406 29.219-11.349 10.564-8.563 29.956 1.563 37.812-4.203 3.74-6.791 6.616-6.781 11.219-3.996-1.485-7.68-.244-9.407 2.375-4.898-5.021-11.931-9.418-16.937-4.719-1.296-5.94-9.032-12.474-17.5-11.718.496-6.264-2.755-14.018-11.719-16.719 0 0-1.814-29.358-10.719-38.875-.873-5.326.51-8.948 7.844-13.313 7.323-3.906 8.879-6.935 8.344-18 2.887-7.396 5.08-14.936-3.906-20.062.27 8.795-2.43 13.031-6 16.937-4.266-.621-5.756 4.358-8.626 6.532-4.016-5.414 8.472-13.799-.781-25.844-.521-.523-6.459-15.723-21.125-15.375 6.971 4.082 9.92 10.951 9.906 18-4.624 13.045-6.973 23.127-2.343 38.093-6.093-9.128-9.549-26.482-14.594-29.5-4.422-.862-6.582-11.321-23.75-8.343 7.406 1.992 9.757 7.647 11.75 12.781-4.541 2.342-2.285 8.519 1.031 12.781-.63 10.015 5.37 15.866 14.344 19.594-1.478 13.653-2.96 27.283-4.438 40.937-3.564-.454-9.05 13.425-11.218 13.844-3.489 2.171-9.581 8.01-2.594 9.656-2.076 7.492-4.001 12.009-15.156 13.563 0 0 11.787 6.991 21.562-4.969 10.474-.262 7.03-12.752 12.094-18.25 0-.26 2.874-2.066 7.062-13.062 1.832 9.819 11.908 39.888 34.688 54.812 19.856 21.256 36.175 41.33 36 69.656 7.75-7.208 12.378-18.624 15.938-29.5 10.776-3.748 26.191-5.179 39.937-4.562-2.358 4.961-4.997 9.721-1.594 12.938-9.593 3.294-11.695 10.256-7.843 17.218-10.112 6.867-10.778 11.28-10.938 22.688-18.708 23.985-30.249 23.188-48.781 16.968-6.086-3.572-15.505-8.714-19.844-6-8.004-5.334-19.512-6.126-21.406 6 6.006-4.978 9.592-4.018 14.375.782-.962 2.436-1.766 4.862 1.812 6.25-1.566 1.739-3.121 3.48-4.687 5.218-8.613-1.324-20.194-1.25-23.219 11.219 4.424-3.665 14.24-4.525 22.156-1.031 1.479.522 2.959 1.04 4.438 1.562.174 2 .358 4 .531 6 0 0-11.732-1.811-14.875 17.219 11-11.702 18.781-8.625 18.781-8.625 4.239 6.205 19.841 5.271 31.063-4.937 15.762-8.812 20.357 3.851 30.531-4.438 8.436-6.292 18.417-2.108 25.281 5.219 7.915 2.969 16.2 5.413 22.719 0 0 0 7.963-5.081 15.906 3.125.087-9.253-6.47-14.169-15.375-14.344l-2.625-2.625c-8.349-1.74-17.73-1.034-25.031-5.218 3.442-13.066 8.457-24.904 18.25-34.969 12.088-12.958 20.987-18.85 36.25-38.688-.589 11.211 8.003 23.677 12.531 35.063 0 0 9.116-14.555 10.438-26.375.26 0 11.423-5.81 16.187-10.75 10.056 6.237 26.446-4.994 37.032-14.281 6.524 2.47 11.478 2.292 19.062 0-6.088 12.39 3.521 23.883 18.781 28.687 1.411 10.938 12.459 13.229 29.219 13.313.706 6.436 10.688 7.312 10.688 7.312-6.308 2.94-9.596 5.886-9.376 12.531-6.464.044-11.36 1.671-13.062 9.125-8.876.152-17.922.833-25.562 5.219-8.176-1.269-18.122-4.657-24.532-11.219-3.306-2.783-4.131-6.796-9.906-8.344-3.66-4.326-8.039-3.36-9.406.782-3.783-2.955-17.972-4.328-20.344 9.125 6.624-4.848 12.564-6.696 16.719-.781-2.264 4.106 5.516 6.455 12.25 8.093 4.776.296 13.247 4.647 15.906 12-6.16 1.869-15.496 1.253-21.656-3.406-5.476-4.582-12.872-4.036-16.938-1.031-5.64-3.596-19.071 3.193-19.593 14.062 5.658-5.184 10.807-7.691 15.937-4.406-2.553.606-1.583.855-1.313 2.344l13.032 7.562c-6.394 1.687-12.405 4.238-9.625 16.156 0 0 5.208-10.296 16.937-6.5.261-.26 1.617 3.678 4.969 1.032 5.076-5.776 16.682-8.362 26.875-9.375 8.18-.977 16.347-3.387 23.469 1.281 6.341-3.262 13.401-5.456 20.625-.25 8.523 2.696 14.746 12.631 25.562 8.094 5.379-3.723 11.99-3.912 18.782 3.656.082-9.543-7.069-12.742-17.219-14.875-2.349-1.393-4.683-2.795-7.031-4.187-6.522-.958-13.072.198-19.594-2.876 34.134-8.824 58.062-27.859 74.906-55.031 5.392 1.913 10.764 3.805 16.156 5.719 3.825.245 4.117 1.574 12 3.938.297-11.614-4.689-23.578-25.562-24.782l-27.406-10.437c-5.818-6.135-8.447-19.152-1.032-26.875 7.258-6.463 8.525-5.689 13.313-13.563 5.822-.53 11.309 5.469 16.687 5.469 2.554 7.587 17.274 14.294 26.625 12 5.859 5.187 17.008 8.07 29.219 3.906 6.93 6.067 15.959 8.6 26.594 3.906 2.823 2.824 8.783 5.069 15.656 3.657.522 0 3.473 7.541 10.969 10.187-3.268 3.176-1.259 16.966 2.093 21.906-2.288 5.302-3.008 10.958-1.062 16.438-7.559 4.86-9.098 8.475-5.719 16.688-9.899 15.906-21.741 17.724-32.875 12.812-4.002-2.522-7.998-5.071-12-7.594-4.261-4.175-8.52-8.325-12.781-12.5-2.17-2.037-6.66-2.677-7.594 1.813 0 0-16.399-3.658-17.719 10.187 6.798-6.62 16.438-.792 16.438-.531s-2.296 1.823-.531 4.469c.397-.331 11.973 4.32 22.281 8.75 5.6 2.122 6.831 2.786 9.281 4.094a441.984 441.984 0 0 0-9.281-4.094c-6.275-2.379-12.388-4.279-14.188-3.813-5.84-.545-12.034-1.27-14.874 3.125-6.278 2.656-16.084 4.783-15.657 16.438 4.239-6.94 10.055-6.647 17.469-6-.174.522-.326 1.04-.5 1.562 8.05 3.667 6.523-.998 14.031-1.687 6.277-.576 15.174 1.672 19.875 3.25-5.913 1.739-13.954 1.009-17.75 5.219-.696 1.392-3.131.823-2.062 4.156 0 0-11.534-.298-14.625 15.656 11.728-7.509 20.615-7.281 20.875-7.281.261 0 3.656.781 3.656.781s14.084-9.406 14.344-9.406c.262 0 13.638-5.923 19.812.781 5.389 2.649 11.153 2.818 16.719-.531 10.966-4.77 21.231-5.104 31.313 1.594l9.124 5.468c1.304-.869 2.603-1.755 3.907-2.625 0 0 10.329-2.917 17.906 6.281-3.132-15.914-14.5-16.437-14.5-16.437-.87-.783-1.756-1.561-2.625-2.344-5.392-2.087-10.764-4.194-16.156-6.281-2.354-5.826-8.268-10.465-2.375-17.469 6.02-29.926 13.218-52.401 1.562-82.719 10.871 4.696 19.005 19.217 32.625 14.094 0-12.176-44.822-35.294-79.062-53.875 56.094-2.87 123.51-44.277 97.594-96.906 4.088-12.697 8.162-25.397 12.25-38.094 5.77 11.623 17.453 20.483 27.937 24.25-8.641-16.496-13.6-66.93-8.625-101.75-22.603 27.922-47.563 52.702-74.094 77.875 13.05 3.05 24.453.904 37.063-.656-3.566 7.305-7.029 14.632-10.594 21.938-34.473-20.188-74.947-5.038-75.25 21.906 1.179 31.42 40.027 35.885 62.437 24.937-4.442 28.647-70.281 18.094-70.281 18.094-23.394-8.064-45.613-6.683-70.187-6.5 5.106-15.71 33.46-29.652 55.062-23.5-30.243-33.91 4.275-76.008 45.906-88.97-45.376-14.965-6.304-49.557 27.657-74.343 0 0-97.663 41.101-106.563 40.969-27.779-2.087-20.207-34.967-9.625-52.656zM236.72 69.064c2.273.012 4.945.234 7.062.75 4.404 1.073 9.763 1.688 9.688 3-2.039 3.412-7.047 7.529-11.969 7.281-4.921-.248-7.766-3.198-9.406-10.594.503-.272 2.352-.45 4.625-.437zm411.094 115.875c6.403-.088 14.074 2.62 21.562 10.562-3.6 10.37-34.842 15.697-36.937.344-.633-4.641 6.016-10.78 15.375-10.906z" fill="#d21034"/>
        <path d="m268.98 159.71 4.737 6.891m-.215.217s0 9.259 1.938 9.476m-4.307 4.952c.215.216 4.954 8.184 4.954 8.184m-13.569 2.153c.215 0 6.031 6.677 6.031 6.677m5.051-5.18c0 .215 5.501 10.565 5.932 10.565m-13.136-3.447s1.938 12.491 3.66 12.061m-11.801 10.828 5.556 8.339m4.738-17.229s3.015 11.845 5.383 10.767m2.364-17.879c.216.215 5.606 7.974 7.112 6.897m-1.291 3.014 5.168 10.338m-13.783-2.37c.215.432 4.307 12.277 4.307 12.277m-14.214-6.03s3.877 13.137 7.323 10.982m-8.83 6.462s.215 6.891 3.661 7.321m2.37-10.767c0 .215 3.445 4.954 3.445 4.954m6.398-13.149 2.862 4.534m6.246-12.921 4.308 5.383m-24.293-67.137c.215 5.815 9.437-2.048 13.098-7.002m-17.018 27.19s10.122-7.107 17.875-17.875m-21.106 34.889c7.107-1.938 20.183-17.753 22.767-26.152m-24.275 41.873c1.94.861 26.367-16.732 27.014-29.653m-27.659 43.221c0-.215 22.33-5.693 31.591-30.244m-32.79 48.826s35.657-21.381 37.595-37.102m240.77 73.006s-2.299 18.453-20.82 21.252m26.635 11.699c.215-.216 17.659-19.383 13.137-25.198m27.351 6.676s-.215 13.353-11.199 22.613m32.95-18.735s.432 16.151-6.46 22.612m26.488-12.922s-7.727 15.126-10.526 16.634m10.191 10.173s10.167 2.534 13.397-4.143m-10.761 26.084s9.399 1.697 13.706-7.347m-14.714 24.284s7.607 6.391 12.776-2.007m-121.95-122.44s-.862 32.735 45.225 39.41c51.472 14.215 75.807 6.677 78.823 64.394-1.938 21.967-4.668 46.778-20.604 37.301m-152.32-110.95s7.323 13.136 16.152 12.275c11.629-3.446 15.936 3.661 15.936 3.661m-63.53-2.8s19.383 9.476 35.964-5.815m-33.811-7.753c1.722 22.613-26.059 35.535-37.043 33.382m38.36 53.27c.216 0 15.05-8.905 12.036-15.152m-41.566 1.94c.431-.432 24.982-2.801 29.505-11.631m-40.919-24.552c0-.215 34.845.097 37.213 6.557m9.09-27.231s-34.028 58.148 28.858 58.148m-64.824-59.01s-7.323 21.753-17.66 29.074m-18.52-36.61s12.636 24.449-.071 36.509m-32.879-29.618c.215.43 4.091 34.673-4.524 44.364m-11.843-43.287s1.291 21.751-5.169 29.504c-6.462 7.753 1.513 23.856 1.513 23.856m-78.5 10.457s4.624 8.114 11.086 5.313m-3.231-23.042s10.337 4.522 13.783 2.799m-2.584-39.411s-15.291 4.307-9.476 22.397c8.829 7.108 17.444 6.03 17.444 6.03m-38.119 48.456c-.215 0 1.723 14.215 11.63 3.446 6.891-14.428 28.643-55.132 33.597-69.131m10.121-6.675s-10.553-8.184-10.121 3.23c-.217 7.106 3.229 8.829 3.229 8.829.43 5.169 4.954 12.49 8.614 5.815 1.508-6.461-1.076-9.261-1.076-9.261m6.03-11.63c-9.476-.646-14.644 20.245 3.662 7.11m6.245-14.216s-2.368 3.232-6.03-.215c-1.939-3.445-8.829 15.507 3.231 16.152 2.153-5.6 8.83-7.107 8.83-7.107m5.6-17.875s-5.385 2.584-7.323 2.153c-6.461 1.508-5.17 16.584 3.014 15.722 2.799-3.23 5.815-7.753 5.815-7.753m-52.29-29.83c-.216 0-21.372 33.268 11.794 42.098m256.71-92.175s-12.922 10.984-.862 28.643c-40.058-.645-61.592 17.875-63.315 30.365-51.041-3.66-41.78 11.416-58.364 16.368-22.182-18.521-54.702-8.183-52.548 10.337-14.861-20.89-37.688-10.767-40.487-5.599-2.8 5.169-1.723-25.628-1.723-25.628s-14.86 6.677-25.199 18.952c.217-8.183 0-21.536 0-25.843-12.418 2.512-24.407 2.654-37.257 2.369m-33.596-9.476s18.52 10.337 41.349-3.661m-42.857-33.596s14.43 12.92 41.566 8.829m-32.52-38.55s3.229 10.553 34.243 11.199m-23.74-35.604s11.679 14.283 27.4 12.13m-17.443-32.52s4.522 7.753 21.751 9.045m-11.631-31.658s9.046 9.907 19.384 8.184m34.431-88.698s4.006-4.005 10.682-2.003m-13.573 23.142s-12.463-.445-11.573-5.34c.892-5.563 13.13-9.569 13.13-9.569s16.243-10.458 18.691-14.019m-73.432 56.966 15.8 30.263 7.565-11.349 4.006 7.788 6.453-11.348 11.126 7.12-4.228-13.796 9.345-.667s-2.448-6.676-10.904-8.01c2.226-1.78 10.014-6.899 10.014-6.899s-4.449-5.118-11.348-5.34c2.225-2.448 5.34-8.456 5.118-8.456-.222 0-6.899-1.558-6.899-1.558s15.8 5.118 28.038-2.003m-30.25-24.467c.222.223-.891 6.231-4.229 9.791m-56.742 6.899s9.774-2.69 17.088-1.165c7.245 1.488 16.958 4.057 16.958 4.057s11.57-1.557 15.354-4.228m-73.656 7.789s-1.334 4.672-1.779 7.788c0 2.225-7.122 5.118-7.122 5.118m13.353-22.475s6.23 7.788 6.452 12.238c.223 4.45-4.672 7.789-4.672 7.789m-66.089 33.156-6.454-10.458 5.786-2.003m117.2 156.72c-5.168-6.676 3.876-109.19 23.044-135.89-6.676 48.24 15.506 97.558 21.105 97.343m-102.4-125.99s8.722 3.337 26.812-10.984m24.443 34.676 12.975.16m389.49-80.51s-216.19 101.02-219.34 106.37c36.505-11.015 191.33-36.82 195.11-34.616-9.126 2.203-197 45.315-205.81 55.7 46.889-1.573 145.08 15.106 160.49 31.155-33.358-7.552-133.12-22.343-163.64-15.735 22.344 5.35 107.94 60.737 107.94 69.548-12.902-12.272-115.81-54.757-119.9-50.665 23.6 14.16 56.96 66.714 56.958 79.617-6.923-11.014-66.4-74.898-69.861-70.807 6.294 8.813 18.766 84.222 12.39 87.717 0-9.126-23.09-75.13-24.978-77.017-4.721 1.258-34.152 80.528-28.321 87.899-3.776-26.433.628-81.604 7.866-79.402-12.901 1.888-54.078 56.18-49.673 64.677 1.259-13.532 3.1-22.507 26.386-67.51-25.805 1.573-79.302 35.247-88.43 47.205 7.239-21.398 52.555-57.59 72.381-60.107m93.316-78.747c22.85-12.68 93.46-38.557 140.56-57.543m-184.91 125.78s15.576-.222 31.153-42.501c15.35-57.85 137.07-122.38 139.52-134.4m-376.67 235.07s-3.615 7.703-8.066 9.929m25.525 1.744s-4.829 9.382-5.942 13.832m22.65-9.243s4.052 12.803.714 18.812m-47.239-52.053c-12.238 6.899 6.964 50.494 65.041 54.722m-9.346-23.587s-1.557 7.788 9.346 23.365c-3.115 17.356 13.195 30.996 19.649 33.22m-33.67-213.01c0-.222 1.78-4.672 1.78-4.672l1.984 5.144 3.193-.083 2.107-5.158 1.73 5.177h3.173l1.957-5.748 2.957 5.442 2.512.128 1.977-6.63 4.077 4.75 1.481-.574 1.27-6.632 4.028 4.638 1.155-.677 1.868-6.536 3.345 4.86 1.685-.55 1.563-5.492 3.11 5.048m-50.532 8.149 24.274-.361c7.723-.115 20.442-10.82 34.684-7.481m-110.12 59.774s4.005 8.679 9.569 3.783m-18.914 2.003s-7.789 20.917 1.557 25.81M129.47 158.45s0 4.895 10.236-2.67M97.633 268.37s8.233 2.448 6.898 8.679m-3.788-104.81s5.118 2.448 10.014-5.117m44.282 245.89c8.01-.445 9.735 3.172 17.023 3.172 8.396.256 16.577-3.172 27.26-6.065m68.757 19.36c-.223 0-3.783 7.565-.667 11.347m-113.49-10.68s12.685-10.46 19.36-4.005c6.454 2.226 10.013 1.78 10.013 1.78m-22.69-27.59s3.115 8.01-7.344 6.898m-3.115 11.57s6.675 4.23-.89 9.792m4.895 7.566s9.123 1.336 3.782 8.678m290.91-64.115s24.776 2.564 25.915 4.415c2.85-2.991 24.972-20.911-2.225-23.473-4.555 18.654-23.263 19.343-23.69 19.058zm-8.828 12.388c9.255 7.404 5.463 11.84 34.513-7.666m-47.756 16.923s13.67 14.667 23.637-3.134m-49.695 8.402-18.51 9.682m-33.322 13.67s11.25-9.682 16.518-4.556c5.268 5.126 27.624-4.413 27.624-4.413m-35.74-33.037s3.845 7.689-3.56 8.686m-11.107 15.379s3.901 7.23-3.646 9.223m12.332 10.428s11.677.569 7.547 9.397m101.67-10.964s-6.408 5.41-1.708 11.535m94.691-50.408s7.404 3.559-1.424 9.683m-7.404 12.815s5.553 5.839 1.851 10.679m13.67 11.676s7.688 2.136 6.835 8.544m100.81-14.24s-6.408 4.699-2.99 10.823m-111.139-197.97c15.38-1.852 37.45 32.322 48.698 39.015m67.272-87.425s7.79 6.8.936 23.205m13.505-49.366c2.167 1.686 10.54 6.154 16.07 16.496m5.311-67.659c0 .142-10.822 29.191-10.822 29.191m22.925-30.615s-2.136 25.915-5.268 31.184m-42.957 47.223c-3.6 10.371-34.84 15.678-36.935.326-1.065-7.816 18.503-19.872 36.935-.326z" fill="none" stroke-linejoin="round"/>
        <path d="m236.48 69.148 12.02 2.225s-8.46 11.349-12.02-2.225z" stroke-linejoin="round"/>
    </g>
</svg>
