<svg xmlns="http://www.w3.org/2000/svg" viewBox="0 0 3600 2400">
    <path fill="#e32118" d="M0 0h3600v2400H0z"/>
    <path fill="#fff" d="M0 0h3600v1600H0z"/>
    <path fill="#3e9a00" d="M0 0h3600v800H0z"/>
    <path d="M0 0v2400l900-1200z" fill="#0073ce"/>
    <g stroke="#000">
        <path fill="#fff" stroke-width="4.8" d="M1608 958.8h383V1360c0 135-176 31-191 103-26-74-191 33-191-111 0-140-1-393.2-1-393.2z"/>
        <path fill="#73452b" d="M1827 1399s-5 5-14 1-10-257-10-257c20-22 36-29 36-29l12 10c-45 23-41 56-37 113 1 21 1 48 6 74 7 33 21 61 22 82 1 13-15 6-15 6z"/>
        <path fill="#73452b" d="M1796 1108h18c-15 145-2 231-2 273 0 14 8 19 7 19-18 20-27-1-27-1z"/>
        <path fill="#a36629" d="M1768 1399c-17 8-19-8-18-10 37-75 53-240 19-258l2-16c13 4 25 21 25 21 5 185 0 261-3 264-18 19-25-3-26-5"/>
        <path fill="none" d="M1767 1396c-3-16 26-57 24-100m25 35c9 25 13 47 11 68"/>
        <path fill="#009a3b" d="M1855 1040c6-7 6-7 17-7 2-15 27-15 29 4 20-4 24 8 16 20 19-5 36 0 31 22 34 9 21 33 6 38-2 15-16 20-35 14-24 17-38 11-49-6-27 4-29-2-41-17-21 9-25 9-43-2-1 14-6 10-15 9 1 18-6 26-22 20 12 25-19 36-34 15-14 1-15-3-22-8-6 20-28 17-32 6-28-4-25-19-2-20 2-16 16-13 25-11 1-10 7-8 12-6-3-7-1-11 8-13-13-17-5-23 8-29-7-16 5-15 14-16-1-17 4-20 22-22-2-6 1-11 11-11-6-17 2-20.9 20-18 3-24.7 56-13 52 21 15 2 20 5 24 17z"/>
        <path d="M1748 1031c4 2 9 0 10 11 8-14 18-6 18 10m55-29c-4 6-19 6-17 22-5-7-15-9-19-2m60-3c0 4-1 16-5 22m67-5c1 1-14 0-21 5m58 55c-4-2-12-7-18 1 0-4 0-15-11-15m-6 28c0-10-2-13-4-16m-29 2c-8-6-16 3-16 8m-42-17c0-4-3-12 4-15m-118 57c2-10 9-10 8-15-1-8-10-15-21-4m21 4c6-2 12-1 14 2m-31-39c4-4 14-3 20 0m0-24c5 0 14-2 17 7 11-17 19-15 21-11m20-2c8-3 22 5 30 19 4-11 10-9 16-10m38 10c13-6 21 6 25 11 6-8 11-8 17-8m-163 21c3-5 10-6 15-3-1-9 5-13 9-11" fill="none"/>
        <path d="m1787 902.6-22 1-11 19.7-12-18.8-22 .9 10-19.8-12-18.8 23-1 10-19.7 12 18.8 22-.9-10 19.8zm-94 7.3-22 5.4-6 21.3-16-16-21 5.2 6-21.3-15-16.2 21-5.3 6-21.4 16 16 22-5.2-7 21.4zm-91 18.7-20 9.9-1 22.2-19-12.2-20 9.8 2-22.2-19-12.3 20-10 2-22.2 18 12.2 20-9.8-1 22.2zm214-26 22 1 10 19.7 12-18.8 22 .9-10-19.8 12-18.8-22-1-11-19.7-12 18.8-22-.9 10 19.8zm94 7.3 21 5.4 6 21.3 16-16 21 5.2-6-21.3 16-16.2-22-5.3-6-21.4-16 16-21-5.2 6 21.4zm90 18.7 20 9.9 1 22.2 19-12.2 20 9.8-1-22.2 18-12.3-20-10-1-22.2-19 12.2-20-9.8 2 22.2z" fill="gold" stroke-width="3.5"/>
        <g fill="#fff" stroke-width="3.5">
            <path d="m2027 1352 25 36 23-34-16-29zm-159 105 2 36s10 0 19-3c8-3 15-9 15-9l-1-19zm-134 0-2 35s-9 0-18-2c-8-2-15-7-15-7l-10-24zm-161-105-26 36-28-46 21-22z"/>
            <path d="M1698 1529c0 34 206 34 206 0v-48c0 25-206 20-206 0z"/>
            <path d="M1514 1418c18 92 184 94 184 94v-31c-4-12 3-16 30-20 11-1 6-17 6-17s-72 13-123-7c-69-28-79-82-79-82s-5 42-18 63zm573 0c-17 92-183 94-183 94v-31c3-12-4-16-31-20-11-1-5-17-5-17s72 13 123-7c68-28 76-82 76-82s7 42 20 63z"/>
            <path d="M1527 1383c-46-25-10-51-6-125 7 45 58 64 52 93-21 1-31-31-41 4l-5 28zm547 0c46-26 8-51 4-125-7 45-57 64-51 93 20 1 30-31 40 4l7 27z"/>
        </g>
        <path d="m1555 1417 5 4-11 12c-4.403 4.803-5.467 7.98-2.41 10.905 3.797 3.63 6.466 2.368 10.41-1.905l12-13 4 4-11.99 13.989c-6.508 7.594-12.55 5.856-17.617 1.123-4.416-4.124-6.947-10.102-.454-17.454l12.1-13.6zm20 17 5 3-1 24 11-17 5 3-16 26-6-3 1-24-11 17-5-3zm9 42 14-28 5 3-13 27zm22-24-11.04 28.98L1606 1485c10.29 3.75 15.12-.78 18.39-9.48 3.3-8.85 1.86-15.36-8.43-19.5L1606 1452zm3.96 7.02c10.35 3.6 10.98 7.53 8.16 14.64-2.73 6.75-5.28 9.39-15.12 4.32l6.96-18.96zM1639 1463l-18 27 6.96 2.04 4.02-7.02 12 3 1.02 7.02 6.96.96-6.96-31.98-6-1.02zm1.98 7.02 1.98 12-7.98-1.02 6-10.98zm15.12-4.42-1.084 30.99 11.772.23c10.941.208 14.051-5.62 14.318-14.91.271-9.45-3.208-15.153-14.298-15.715l-10.708-.596zm6.003 5.377c10.964.044 12.838 3.543 12.453 11.195-.366 7.273-1.955 10.588-12.884 8.969l.43-20.164zM1761 1509v31.98h7.02v-12s6 .36 10.98-.96c3.93-1.02 6.66-3.54 6.75-9.75.09-6.09-3.45-9.27-9.57-9.27h-15.2zm7.02 4.98 7.05.09c5.88 0 4.77 8.91.18 8.91h-7.23v-9zM1797 1509l-13.02 31.98h7.02l3-7.98h13.02l3 7.98h6.96l-13-32h-7zm3 7.02 4.98 12h-9l4.02-12zm17 18.98 17-21h-15v-5h24v5l-18 21h18v6h-26zm101-62 6-1 3 18c1.067 6.401-1.858 10.764-6.414 12.445-5.19 1.914-11.806.164-12.586-8.445l5-1c1.165 5.152 3.237 5.599 5.636 4.791 1.904-.64 2.889-3.64 2.364-6.79zm10-1.8 5.92-1.123 2.74 14.98c1.172 6.409 3.183 9.135 7.351 8.407 5.174-.903 5.741-3.8 4.64-9.51l-3.68-15.98 6.057-.915 4.019 16.623c2.35 9.722-2.729 13.578-9.546 14.851-5.939 1.11-12.253-.399-14.322-9.987zm31 13.8 5-2c2.453 4.405 6.28 4.178 9.255 2.863 4.133-1.827 4.606-5.44 2.562-6.663-2.914-1.743-9.869.733-13.615-.634-4.482-1.635-6.406-4.156-6.177-8.032.276-4.666 4.381-7.23 8.846-8.615 4.996-1.55 9.926-1.003 13.129 5.081l-6 2c-1.953-3.287-4.466-3.131-6.697-2.078-1.866.882-4.784 2.538-3.222 5.206 1.277 2.18 8.626.765 12.498.923 4.004.164 7.24 2.836 7.781 6.687.755 5.368-1.234 8.276-7.44 10.697-7.667 2.99-14.583-.36-15.92-5.435zm27-25-8 4-2-5 22-9 2 4-8 4 9 22-5 3zm13-11 5-3 14 26-5 3zm34 2 6-2c2.821 5.932-1.415 16.715-11.775 16.493-15.164-.325-16.805-17.027-14.421-22.536 4.005-9.252 15.224-9.075 20.196-3.957l-5 4c-3.17-4.067-10.212-1.504-10.688 2.237-.776 6.106 1.912 11.788 7.371 14.483 4.629 2.285 11.761-3.46 8.316-8.72zm-3-21 5-4 18 24-5 4zm19-15-4.98 4.02 10.98 30 4.98-4.98-3-6 9-8.04 6 3 5.04-3.96L2049 1415zm1.98 7.02L2061 1427l-6 6-4.02-10.98z" stroke="none"/>
    </g>
</svg>
