<svg xmlns="http://www.w3.org/2000/svg" viewBox="0 0 820 440">
    <path fill="#c62139" d="M0 0h820v440H0z"/>
    <path fill="#00297b" d="M20 20h780v400H20z"/>
    <path fill="#c62139" d="M410.258 100S330 154.71 330 219.222c0 64.52 80.258 120.78 80.258 120.78S490 288.381 490 219.221C490 150.066 410.258 100 410.258 100"/>
    <path fill="#66afeb" d="M477.923 240.562c1.76-6.864 2.76-13.991 2.76-21.34 0-61.93-70.425-107.863-70.425-107.863s-71.455 47.486-71.455 107.863c0 7.25 1.018 14.316 2.813 21.16l136.307.18"/>
    <path fill="#007bde" d="M409.673 328.126s55.236-36.58 68.226-87.745H341.563c13.19 50.18 68.11 87.745 68.11 87.745"/>
    <path fill="#9c8431" d="M480.338 226.452c-12.083 8.608-80.088 4.474-80.088 4.474l-3.801 9.636h81.468c.34-1.321.65-2.643.93-3.98l1.491-10.13"/>
    <g fill="#fff100">
        <path d="M406.076 287.355c-1.035-7.21-32.841-14.93-49.72-14.295 5.269 8.267 11.24 15.833 17.247 22.558 8.575-9.202 32.812-5.884 32.473-8.263"/>
        <path d="M470.454 260.55c-4.042.144-11.376.79-16.4 3.406-7.247 3.783-23.472 7.917-30.724 5.847-7.247-2.064-18.64 4.475-17.254 5.847 2.298 2.297 18.98-.34 18.98 14.456 0 12.386-19.325 6.885-26.923 12.045a46.994 46.994 0 0 0-9.586 8.64c11.861 10.977 21.15 17.335 21.15 17.335s22.02-14.585 41.52-38.2l9.171-12.17c3.696-5.414 7.124-11.158 10.066-17.206"/>
    </g>
    <g fill="#009270">
        <path d="M405.86 165.167s-11.008-6.451-26.022-3.36c-15.014 3.096-18.254 12.51-18.254 12.51l5.048-2.317.128 2.064 4.533-2.838.129 2.064 3.883-3.608.638 2.318 3.497-3.097.264 1.677 5.69-3.612v2.322l4.533-2.07-.386 2.2 8.545-1.544s-20.196 6.704-22.78 22.832l3.877-4.635.392 2.183 2.456-4.897.65 1.935 2.199-4.516.643 2.705 3.363-4.903.263 2.843 3.878-5.29v2.57l4.147-4.515-.129 3.365s4.013-3.365 5.3-3.365l-4.785 6.198 1.556.516s-3.37 2.71-3.626 3.226c-.258.51 2.205 0 2.205 0s-2.983 3.091-3.112 4c-.129.908 1.942 0 1.942 0s-2.72 3.478-3.106 4.778c-.392 1.29 1.421.253 1.421.253s-1.678 4.129-1.813 5.29c-.128 1.15 1.942-.263 1.942-.263l1.17 7.096 2.07-8.505 1.293 1.935v-6.069l1.164 1.027-.129-3.99 1.55 1.544-.772-4.903 1.679 1.925-.258-4.118 1.679 1.682v-5.424l1.556 1.409.257-3.726 1.813.898s.257-4.516 2.334-4.387c2.064.119 4.655 2.317 3.62 3.344l1.813-.5-.386 4.37 1.679-1.026-.257 3.225 1.42-.645-.514 4.124 1.685-1.017.122 5.017 1.936-1.41-.128 5.925 1.942-1.538v4.898l1.813-1.28 1.947 4.769-.392-7.096 1.428 1.156-2.597-5.027 1.947-.263-2.076-3.36 1.942.145-2.843-3.36 1.936-.382-4.275-3.102 2.333-.898-4.404-2.843 1.685-.646-3.1-3.225 3.234 1.29 1.03-2.064 3.883 3.101v-3.101l3.363 4.645.392-2.844 2.591 3.618.515-1.672 1.813 3.607.9-2.7 1.814 3.872.515-2.72 1.684 4.263 1.556-1.683.778 4.392 1.544-1.682 1.421 3.87 1.813-1.419 1.556 4.392s4.27-23.487-32.361-23.88l-10.873-2.053"/>
        <path d="m389.032 144.26 2.065 2.57-1.035.785 3.497 1.935-.777 1.414 3.497 1.29-1.298 1.038 3.111 1.795-2.07.656 3.749 1.801-.515 1.672 3.235.78-1.422 1.155 3.75 2.978 4.275 2.963 2.977-1.027-1.17-5.688s-12.294-16.772-21.869-16.127"/>
        <path d="m400.291 128.003 1.428 3.345-1.948.392 4.404 4.386-3.498.13 4.276 3.349-2.076.655 3.89 3.871-2.077 1.027 4.012 4-2.714 1.027 4.533 4.134-2.591.134 2.714 3.473-2.457.78s2.977 5.542 2.843 7.87l5.047.252s.778-14.966.135-16.901l-1.299.903.387-5.42-1.942 1.167-.38-6.45-1.948 2.058-.509-6.322-1.427 2.199-1.427-6.198-1.55 1.935-1.427-3.995-1.164 1.543-3.235-3.354"/>
        <path d="M413.364 165.678c1.427-9.032 10.878-22.192 28.612-22.708l-4.018 2.064 2.333 1.032-4.661 1.683 2.328 1.409-5.562.392 2.842 1.935-4.135.516-3.24.645 2.328 2.189-4.662.51 2.983 1.554s-7.381 2.58-7.896 3.36c0 0 24.858-6.322 30.94 5.408l-4.796-2.064.392 2.198-3.363-2.451.515 1.806-3.492-1.806.515 2.188-3.627-2.064.778 1.946-4.661-2.199.778 2.064-4.013-1.29.392 2.188-4.018-.253.392 2.58-12.429-.262-1.555-2.58"/>
    </g>
    <g fill="#7b4800">
        <path d="m409.568 173.46 2.59-.17c-1.21 24.607-.075 59.887 3.276 72.949 5.69 22.186 22.284 30.733 26.232 32.859 2.24 1.197 1.38 6.188-3.112 5.847-4.48-.346-20.137-11.875-25.541-32.518-7.241-27.699-3.726-76.082-3.445-78.967"/>
        <circle cx="413.755" cy="168.129" r="2.926"/>
        <circle cx="409.094" cy="167.092" r="2.739"/>
        <circle cx="409.094" cy="171.871" r="2.558"/>
        <circle cx="412.586" cy="170.58" r="2.739"/>
    </g>
    <g fill="#7b4800">
        <path fill="#000" d="M384.64 257.164h2.924v-31.481h-2.924v31.481z"/>
        <path d="M394.138 263.1s-1.199.21-3.105.453v-2.456h-1.942v2.668a69.685 69.685 0 0 1-6.925.366c-2.685 0-5.393-.196-7.627-.423v-2.544h-2.14v2.302c-1.849-.233-3.042-.434-3.042-.434s-.585 3.226 12.622 3.226c13.2 0 12.165-3.159 12.165-3.159"/>
        <path d="M381.604 257.071c10.704 0 19.682-1.713 19.682-1.713s1.374 6.874-19.682 6.874c-21.055 0-19.33-5.842-19.33-5.842s8.633.681 19.33.681"/>
        <path fill="#fff" d="M372.627 227.479s16.57 6.198 23.132 27.879c0 0-15.19-3.091-23.823.346h-4.83c0-.011 8.287-12.046 5.52-28.225"/>
    </g>
    <path d="M374.972 211.16h-3.07c-.24-1.32-.82-2.25-1.738-2.76a3.37 3.37 0 0 0-1.708-.434c-1.21 0-2.193.573-2.965 1.754-.778 1.167-1.164 2.942-1.164 5.29 0 2.38.421 4.052 1.258 5.053.836.975 1.79 1.47 2.86 1.47 1.047 0 1.9-.386 2.573-1.17.667-.775 1.076-1.802 1.24-3.077h-3.462v-3.215h6.223v10.353h-2.065l-.316-2.41c-.602.918-1.14 1.563-1.62 1.945-.825.656-1.836.98-3.041.98-1.977 0-3.603-.887-4.86-2.662-1.317-1.776-1.978-4.212-1.978-7.298 0-3.122.667-5.635 2-7.52 1.323-1.883 3.083-2.822 5.276-2.822 1.895 0 3.422.624 4.574 1.868 1.147 1.239 1.813 2.792 1.983 4.655m14.616 5.837v-11.865h3.17v11.865c0 1.321.129 2.286.369 2.9.38 1.08 1.199 1.626 2.474 1.626 1.257 0 2.082-.547 2.462-1.625.246-.615.357-1.58.357-2.9v-11.866h3.176v11.865c0 2.044-.246 3.639-.737 4.79-.924 2.084-2.673 3.132-5.264 3.132-2.585 0-4.346-1.037-5.27-3.133-.491-1.14-.737-2.745-.737-4.789m33.537-11.872-5.344 19.313h3.281l1.032-3.97h5.5l.969 3.97h3.375l-5.313-19.313h-3.5zm1.719 4.406 1.875 7.594h-3.781l1.906-7.594zm26.812 10.769 2.696-15.168h4.486v19.292h-2.907v-13.042c0-.382.006-.908.012-1.584s.012-1.198.012-1.559l-2.831 16.185h-3.03l-2.807-16.185c0 .361.006.883.012 1.559.005.676.011 1.202.011 1.584v13.042h-2.907v-19.292h4.54l2.713 15.168" fill="#c62139"/>
</svg>
