<svg xmlns="http://www.w3.org/2000/svg" xmlns:xlink="http://www.w3.org/1999/xlink" viewBox="0 0 1200 600">
    <path fill="#171796" d="M0 0h1200v600H0z"/>
    <path fill="#fff" d="M0 0h1200v400H0z"/>
    <path fill="red" d="M0 0h1200v200H0z"/>
    <path fill="red" d="M600.037 455.185c64.152 0 116.636-52.487 116.636-116.635V199.954H483.399V338.55c0 64.151 52.487 116.635 116.635 116.635z"/>
    <path fill="#fff" d="M600.037 453.316c62.928 0 114.411-51.485 114.411-114.41V202.198H485.623v136.706c0 62.929 51.486 114.411 114.414 114.411z"/>
    <g fill="red">
        <path d="M533.916 206.5h-44.03v48.376h44.03zm0 96.749h44.03v-48.373h-44.03zm-44.03 35.387c0 4.393.272 8.726.779 12.988h43.251V303.25h-44.03v35.387zm132.094-35.387h-44.034v48.375h44.034zm0 96.748h44.03v-48.373h-44.03zm44.03 26.463A111.488 111.488 0 0 0 691.15 400h-25.14v26.46zm-132.091-26.463h44.03v-48.373h-44.03zm-25.18 0a111.46 111.46 0 0 0 25.18 26.492v-26.492h-25.18z"/>
        <path d="M607.632 448.373a109.46 109.46 0 0 0 14.345-1.958v-46.418h-44.03v46.424c4.668.957 9.445 1.611 14.303 1.949 5.127.317 10.254.299 15.379 0zm101.585-96.749c.51-4.277.782-8.625.782-13.033v-35.34h-43.992v48.376h43.21zm-87.237-48.375h44.03v-48.373h-44.03zm0-96.749h-44.03v48.376h44.03zM710 254.876V206.5h-43.99v48.376z"/>
    </g>
    <path fill="#fff" d="m712.464 198.535 27.3-61.885-20.799-33.587-34.46 12.758-24.194-27.656-31.88 18.27-28.426-23.282-28.427 23.281-31.88-18.27-24.197 27.654-34.46-12.757-20.805 33.595 27.265 61.897c34.357-15.55 72.451-24.214 112.507-24.214 40.037 0 78.114 8.658 112.461 24.196z"/>
    <path fill="#0093dd" d="m516.26 118.552-.051.06-34.173-12.655-19.123 30.876 7.325 16.656 18.558 42.126a274.588 274.588 0 0 1 43.227-14.953l-15.76-62.107z"/>
    <path fill="#fff" stroke="#000" stroke-width=".35" d="M514.293 149.084a16.572 16.572 0 0 1 1.916 7.752c0 9.2-7.503 16.703-16.703 16.703-8.107 0-14.896-5.83-16.395-13.51 2.885 5.1 8.362 8.554 14.618 8.554 9.244 0 16.786-7.538 16.786-16.785 0-.925-.077-1.83-.222-2.717z"/>
    <path d="m498.985 125.975-.056.275-1.165 5.995 4.6 4.02.21.183-.266.092-5.773 1.99-1.182 5.993-.056.275-.21-.186-4.61-4.005-5.778 1.973-.27.092.057-.279 1.164-5.992-4.597-4.02-.213-.186.266-.092 5.773-1.987 1.182-5.993.056-.275.21.184 4.61 4.007 5.778-1.972z"/>
    <path d="m492.048 134.488 4.31 3.758 5.393-1.857zm.035-.19 9.707 1.899-4.295-3.756zm-10.42-2.041 9.704 1.899-4.31-3.756zm9.668 2.091-9.707-1.898 4.295 3.753zm.542-.364 6.499-7.455-5.4 1.842zm-6.978 8.006 6.498-7.455-5.408 1.854zm6.646-7.328-6.498 7.456 5.4-1.843zm6.979-8.006-6.499 7.455 5.409-1.854zm-7.023 7.352-3.208-9.354-1.105 5.598zm3.445 10.047-3.208-9.354-1.1 5.61zm-3.025-9.419 3.208 9.357 1.105-5.599zm-3.444-10.048 3.208 9.358 1.098-5.614z" fill="#f7db17"/>
    <path fill="#171796" d="m571.874 109.257-.059.047-31.614-18.115-23.942 27.363 15.761 62.108a274.725 274.725 0 0 1 45.147-7.542l-5.296-63.86z"/>
    <path d="M528.11 165.245a290.314 290.314 0 0 1 47.745-7.974l-1.339-16.143a306.934 306.934 0 0 0-50.392 8.416l3.983 15.701zm-7.923-31.214a322.445 322.445 0 0 1 53.005-8.853l-1.315-15.847a338.401 338.401 0 0 0-55.603 9.286l3.913 15.414z" fill="red"/>
    <g transform="scale(.00296)">
        <path fill="#0093dd" d="m212105 36890-23 13-9517-7794-9497 7778 1788 21560c2543-210 5113-322 7709-322 2608 0 5190 113 7744 325l1795-21560z"/>
        <g id="a">
            <path d="M202545 46585c-18-2-44 10-69 45-186 250-359 469-545 720-195 61-242 180-167 348-261-26-291 193-302 432-250-379-522-482-814-307-11-230-187-338-439-392-180-10-319-65-436-145-60-42-110-64-170-106-126-88-226-5-172 74 267 434 535 868 802 1302-14 80 6 151 88 204 47 133 93 265 140 397-11 38-21 75-32 113-221-105-443-118-664-133-170-8-287-50-361-137-54-63-91-26-92 82-3 534 162 1014 599 1492-231 4-462 11-694 21-79 6-95 39-73 104 126 304 339 579 822 766-208 112-327 285-357 520-9 224-75 382-212 455-60 32-81 65-24 106 253 185 565 193 895 112-157 270-226 553-198 850 208 56 412 15 614-52-29 61-44 175-52 309-7 115-41 229-104 343-32 33-65 84 4 102 336 91 648 52 915-47 0 243 2 487 76 727 18 58 70 102 125 26 155-214 322-396 527-517 31 90 75 168 156 215 96 55 147 170 153 343 0 30-2 60 35 90 149 7 514-380 589-597 206 121 284 246 439 461 55 76 99 29 128-25 62-243 67-481 66-724 267 99 579 138 915 47 69-19 36-70 4-102-62-114-105-250-113-365-9-133-14-226-43-287 202 68 405 108 614 52 29-297-53-579-211-850 330 80 655 73 908-112 57-41 35-74-24-106-136-73-203-231-212-455-30-235-149-409-357-520 483-187 696-463 822-766 22-66 6-99-73-104-231-10-480-24-711-27 437-478 606-961 604-1495-1-108-38-146-92-82-74 87-179 137-348 146-222 15-435 24-656 128-11-38-21-75-32-113 46-132 106-260 153-393 82-53 102-123 88-204 267-434 513-868 781-1302 54-79-46-162-171-74-60 42-110 64-170 106-117 80-257 134-437 145-251 54-417 167-428 397-293-175-564-73-814 307-11-239-41-457-302-432 75-168 17-291-178-352-186-250-458-470-644-720-31-35-51-47-69-45z"/>
            <g fill="#f7db17">
                <path d="M205075 47978c-51-26-124 17-162 95s-33 170 19 196c40 20 84-6 119-56l22-36c2-3 4-6 5-9 38-78 49-163-2-188zm-5008 0c52-26 124 17 162 95s39 165-13 191-103-24-141-102-60-158-9-184zm4539 905c-32 0-59 27-59 59s26 59 59 59 59-26 59-59c0-32-26-59-59-59zm-4032 0c-32 0-59 26-59 59 0 32 26 59 59 59s59-26 59-59-26-59-59-59zm4294-304c-754-91-1506-133-2260-133s-1509 41-2269 115c-26 8-21 90 14 86 756-73 1507-113 2256-113 743 0 1485 40 2228 129 39 4 54-80 32-84z"/>
                <path d="M200319 48495c768-75 1530-117 2289-116 754 0 1507 42 2261 133l111-184c-32 10-62 9-90-5-76-38-92-161-36-274 56-114 164-175 240-138 39 19 62 62 68 114l446-739c-204 130-328 214-581 252-281 41-409 139-368 307 38 156-57 133-201 54-314-171-541 71-652 353-73 186-159 181-168-13-4-70 0-131-7-200-21-223-89-286-216-224-161 78-175 25-137-58 28-60 86-128 66-221-9-67-66-92-151-98-182-244-467-483-649-727-182 244-374 483-556 727-86 5-142 30-152 98-20 93 52 157 80 217 38 82 23 135-137 57-127-61-186-3-207 220-7 69-10 139-13 209-9 194-95 199-168 13-111-282-352-524-667-353-145 79-203 102-182-54 23-172-107-266-388-307-253-37-377-122-581-252l419 682c12-25 29-45 53-57 76-38 184 24 240 138 56 113 40 237-36 274-10 5-21 8-32 10l100 163zm4389 911c-7 3-7 4-24 11-46 19-80 66-134 124-57 60-128 125-211 188-12 10-25 19-44-6s-7-35 6-44c80-62 149-124 204-182 30-32 56-63 77-92-95-11-190-21-284-30-79 24-157 55-222 95-59 35-107 77-137 125-8 14-16 27-44 11-27-16-19-30-11-44 35-58 91-107 158-147 33-20 69-38 106-54-107-9-214-18-321-25-22 13-42 29-61 47-20 19-39 42-56 67-9 13-18 26-44 8s-18-31-8-44c19-29 41-54 64-77l9-9c-80-5-161-10-241-14-2 2-5 5-8 7-21 18-40 38-55 59s-28 43-38 67c-6 15-12 29-41 18-29-12-23-26-17-41 12-29 27-55 45-81 8-11 18-22 27-33-115-5-230-9-344-12-4 5-9 8-14 11-25 15-47 32-66 51s-35 40-48 63c-8 14-16 28-43 12-28-16-20-29-12-43 16-28 35-54 59-77 7-7 14-13 21-19-122-2-244-4-365-4-120 0-240 1-360 3 8 7 15 13 22 20 23 23 42 49 59 77 8 14 16 27-12 43s-35 2-44-12c-13-23-29-44-48-63s-41-36-66-51c-6-3-12-7-15-12-115 2-230 6-345 11 11 11 20 23 29 35 19 25 33 52 45 81 6 15 12 29-17 41s-35-3-41-18c-9-24-22-46-38-67-15-21-34-41-55-59-4-3-7-6-10-10-81 4-162 8-243 13 4 4 9 8 13 12 24 23 45 48 64 77 9 13 18 26-8 44s-35 5-44-8c-18-26-36-48-56-67s-41-35-64-49c-1-1-3-2-5-3-110 7-220 14-330 23 43 18 85 38 122 61 67 40 124 89 158 147 8 14 16 27-11 44-27 16-35 3-44-11-29-48-78-90-137-125-72-44-159-77-246-102h-2c-90 7-179 15-268 24 22 33 51 68 86 106 55 58 124 120 204 182 13 9 25 19 6 44s-32 15-44 6c-83-64-155-128-211-188-37-38-99-111-135-140-196-90-354-127-575-147-153-14-318-9-458-79 36 85 75 164 126 229 53 68 120 121 209 147 8 2 21 16 22 25 28 157 84 286 169 386 52 60 114 110 188 149-75-81-132-166-172-251-67-142-90-286-77-420 1-16 3-32 34-29 32 3 30 19 29 35-11 123 9 256 72 387 56 118 159 237 291 346 24 19 0 63-29 55-154-44-290-123-383-231-89-104-149-237-180-397-94-32-165-90-222-164-47-60-85-131-118-205 28 428 182 801 456 1137 61 75 165 182 255 216 92 35 95 100-20 101-34 1-69 1-105 1 84 31 164 66 233 105 127 73 217 162 224 273 1 16 2 32-29 34-32 2-33-14-34-29-6-86-82-160-192-223-113-65-259-117-402-160-154 0-312-1-459 3 39 28 80 57 131 84 82 44 188 86 343 122 89 21 166 52 233 91 71 42 130 93 177 150 10 12 20 25-5 45s-34 8-45-5c-42-52-95-98-159-135-61-36-133-64-216-84-161-38-272-81-358-128-75-40-131-82-184-123 180 393 450 573 835 689 23 7 43 13 61 19 3 1 6 1 9 2 86 21 175 40 266 55 92 15 166 28 261 37 16 1 32 3 29 34-3 32-19 30-34 29-99-9-174-22-266-38-58-10-115-21-171-33-26 6-64 9-107 12-232 14-420 225-435 494 0 5 0 11-1 16 88-80 179-157 273-212 117-68 239-103 364-69 15 4 31 8 22 39-8 31-23 27-39 22-106-28-212 3-316 63-108 63-213 158-315 253-24 147-82 285-205 377 61 34 104 65 163 45 86-39 172-78 261-108 91-31 184-52 282-57 16-1 32-1 33 31s-14 32-31 33c-91 4-179 24-264 53-75 26-149 58-222 91 221 47 460-1 667-79 60-22 105-42 133-41 51-30 112-53 172-79 66-28 132-51 182-57 16-2 32-4 35 28 4 32-12 33-28 35-112 13-127 21-222 79 0 21-66 57-126 96-36 24-70 52-87 67-95 86-144 181-188 287-29 70-52 145-68 224 55-108 121-211 201-303 94-108 208-201 345-265 14-7 29-13 42 15 13 29-1 35-15 42-129 60-236 147-324 250-90 103-161 222-219 345-31 64-8 1-42 86 110-122 212-224 323-307 132-100 283-157 418-133 15 3 31 6 26 37s-21 28-37 26c-116-21-250 32-369 121-121 92-244 223-366 361 184 26 366-26 542-85 91-30 183-135 239-152 19-24 38-46 57-67 33-37 67-71 102-100 12-10 24-20 45 4s8 34-4 45c-33 28-65 60-96 94-32 35-62 73-92 113-6 8-13 17-24 16-60 70-151 162-172 240-57 210-25 370-122 576 71-38 128-81 175-134 53-60 94-135 128-230 37-104 95-195 167-270 75-77 165-136 261-172 15-5 30-11 41 19s-4 35-19 41c-87 32-169 86-238 157-66 68-119 151-153 247-37 102-81 183-141 250-44 50-95 91-156 127 52-3 78-10 121-7 79-6 211-66 279-119 66-51 116-120 154-206 6-15 13-29 42-16s23 27 16 42c-42 96-99 174-173 231-56 43-121 75-196 93 161-5 311-42 467-100 65-24 87-168 127-208 32-58 66-112 105-158 47-56 101-101 164-127 15-6 29-12 41 18 12 29-3 35-17 41-52 21-98 60-139 108-36 42-68 93-98 147 10 73-51 228-53 305-7 205-2 409 53 612 53-71 107-134 162-192 0-5 0-10 1-15 18-106 33-219 40-332 7-112 7-223-6-329-2-16-4-32 27-35 32-4 34 12 35 28 14 111 14 226 7 340-6 90-16 180-30 269 54-51 53-51 77-103 37-80 59-159 67-237 9-80 5-157-13-230-4-15-7-31 24-38s35 8 38 24c19 80 25 165 14 252-8 65-24 132-49 199 56-42 114-82 178-122-4-75-5-153-3-227 2-68 7-134 18-190 4-20 7-40 47-33s37 27 33 48c-9 50-14 111-16 177-2 78 0 162 4 243 5 82 49 185 125 230 103 62 158 163 186 274 16-145 17-280 3-400-17-143-55-267-114-368-8-14-16-27 12-44 27-16 35-2 43 12 63 110 104 241 122 393 17 146 13 310-13 488 102-82 381-258 352-594-7-27-16-52-28-75-7-14-14-28 14-42s35 0 42 14c17 33 30 69 39 110 5 24 8 49 11 76 13-7 45-43 51-39 24 16 58 38 80 54-21-60-35-120-42-178-10-87-5-172 14-252 4-15 7-31 38-24s27 23 24 38c-18 73-22 151-13 230 9 77 31 157 67 237 4 8 8 16 5 25 24 21 47 42 70 65-13-84-22-170-28-255-8-115-7-230 7-341 2-16 4-32 35-28s29 20 27 35c-13 106-13 217-6 329 7 113 22 225 40 332 1 2 1 5 1 7 54 59 95 120 152 196 55-203 73-407 66-612-2-76-69-227-65-302-30-55-63-107-100-151-41-49-87-87-139-108-15-6-29-12-18-41 12-29 27-24 41-18 62 26 117 71 164 127 38 45 72 98 103 154 57 7 78 179 143 212 154 57 298 94 453 100-75-19-140-50-195-93-74-57-131-135-173-231-6-15-13-29 16-42s35 2 42 16c38 86 88 156 154 206 85 66 289 124 400 127-61-37-113-78-157-128-59-67-104-148-141-250-34-95-87-179-153-247-68-71-150-124-238-157-15-6-29-11-19-41 11-29 26-24 41-19 96 36 186 94 261 172 72 74 130 166 167 270 34 95 75 169 128 230 47 54 105 98 177 135-98-207-66-367-122-577-35-129-232-277-193-320 45-51 133 88 248 127 175 59 357 111 540 85-122-138-244-269-366-361-119-90-237-140-352-120-16 3-31 6-37-26-5-31 10-34 26-37 135-24 269 32 401 132 111 84 201 175 311 298-18-47 0-14-30-77-59-123-130-241-220-345-89-102-196-189-324-250-14-7-28-13-15-42 13-28 28-22 42-15 137 65 251 157 345 265 81 93 147 198 203 307-15-81-39-157-68-227-44-106-93-201-188-287-62-56-209-140-208-179-29-15-33-11-63-24-61-26-121-46-164-52-16-2-32-4-28-35 4-32 19-30 35-28 50 6 115 28 182 56 33 14 66 43 98 60 53 4 139 47 208 74 206 78 446 126 666 79-73-33-147-65-223-91-85-29-172-49-264-53-16-1-32-1-31-33s17-31 33-31c98 4 191 26 282 57 89 30 175 69 261 108 59 27 101-7 163-45-123-92-181-230-205-376l-2-2c-102-95-207-190-315-253-104-60-210-91-316-63-15 4-31 8-39-22-8-31 7-35 22-39 125-33 247 1 364 69 94 55 186 132 274 213 0-6-1-11-1-17-15-270-203-480-435-494-78-5-189 21-186-32 4-59 97-44 234-86 385-116 655-296 836-690-54 41-110 83-186 124-86 47-198 91-358 128-82 19-154 48-216 84-64 38-117 84-159 135-10 12-20 25-45 5s-14-32-5-45c47-57 106-108 177-150 67-39 145-70 233-91 155-36 261-78 343-122 51-27 92-55 131-84-148-4-305-3-459-3-143 44-289 96-402 160-110 63-186 136-192 223-1 16-2 32-34 29-32-2-31-18-29-34 8-111 97-200 224-273 69-39 149-74 233-105-35 0-70 0-104-1-116-2-112-66-20-101 90-34 190-141 251-216 271-334 412-714 456-1130-33 72-69 140-115 198-57 73-128 131-222 164-31 160-91 293-180 397-92 108-216 185-369 230-29 8-52-35-29-55 132-109 221-226 278-344 62-131 83-264 72-387-1-16-3-32 29-35 31-3 33 13 34 29 12 134-10 278-78 420-40 85-97 170-172 251 73-39 136-89 187-149 85-100 141-229 170-386 1-8 14-22 22-25 89-27 155-79 209-147 51-65 90-143 126-228-140 69-304 64-457 78-213 19-369 68-554 152z"/>
                <path d="M204649 49231c-680-88-1359-113-2041-114-684 0-1369 40-2058 112-20 6-15 33-14 46 2 28 37 35 121 27 643-60 1285-93 1932-93 674 0 1351 21 2038 102 33 9 77-85 22-81z"/>
                <path fill-rule="evenodd" d="M200570 49160c683-71 1362-110 2038-110 675 0 1349 40 2025 127l31-127c-17 9-37 15-58 15-67 0-123-55-123-123s55-123 123-123c51 0 94 31 113 75l60-170c-724-84-1446-122-2171-122-729 0-1459 38-2193 107l58 164c22-32 59-54 101-54 68 0 123 55 123 123s-55 123-123 123c-12 0-25-2-36-6l33 94-2 7zm3067-416c-68 0-123 55-123 123s55 123 123 123 123-55 123-123-55-123-123-123zm0 64c-33 0-59 27-59 59s26 59 59 59c32 0 59-27 59-59s-26-59-59-59zm-1082-91c-67 0-123 55-123 123s55 123 123 123 123-55 123-123-55-123-123-123zm0 64c-32 0-59 26-59 59s26 59 59 59 59-26 59-59c0-32-26-59-59-59zm-1064-40c-68 0-123 55-123 123s55 123 123 123c67 0 123-55 123-123s-55-123-123-123zm0 64c-33 0-59 26-59 59s26 59 59 59c32 0 59-26 59-59 0-32-26-59-59-59z"/>
            </g>
            <path d="M202601 47974c-14-68-49-129-100-175-51-47-116-78-187-88-33-4-39-58-7-68 60-20 114-67 157-133 45-69 79-157 95-256 5-34 64-35 69-1 15 84 51 153 97 208 55 66 125 112 193 138 31 12 25 63-8 68-59 9-105 42-141 87-50 62-81 145-100 221-8 33-62 31-69-2zm33-118c20-52 47-103 81-146 28-34 60-64 99-84-51-30-100-70-143-120-28-34-53-73-73-116-19 59-45 112-75 158-31 47-67 86-108 116 50 19 95 47 134 82 34 31 63 68 85 110zm799 5115-515 206c-17 7-35 14-48-21-14-34 4-41 21-48l515-206c17-7 35-14 48 21 14 34-4 41-21 48zm59-326-604 328c-16 9-33 18-51-15s-1-42 15-51l604-328c16-9 33-18 51 15s1 42-15 51zm-1826-65 604 328c16 9 33 18 15 51s-34 24-51 15l-604-328c-16-9-33-18-15-51s34-24 51-15zm51 322 515 206c18 7 35 14 21 48-14 35-31 28-49 21l-515-206c-17-7-34-14-21-48 14-35 31-28 48-21zm224 434c137 33 261 48 358 31 88-16 155-60 191-146v-493c-107-1-212-15-303-41-109-31-170-98-201-178-41-107-27-235-4-329 5-18 9-36 45-27s32 27 27 45c-20 82-33 194 1 284 23 60 69 110 152 133 91 25 198 38 307 38 107 0 214-13 304-40 82-24 148-69 192-123s65-117 57-176c-5-36-24-62-49-80-34-24-82-35-128-37-47-2-94 7-142 16-25 5-50 9-77 13-19 2-37 5-42-32s14-40 32-42c23-3 48-8 73-12 52-10 105-20 159-18 60 2 121 18 168 51 42 29 72 72 80 131 11 80-16 163-73 233-53 65-131 119-229 147-83 24-178 38-274 42v483c3 5 3 11 2 16 37 82 102 125 188 141 97 18 221 2 358-31 18-5 36-9 45 27 8 37-9 41-28 45-146 35-279 51-388 32-92-17-165-58-215-132-49 74-124 115-215 132-109 20-242 4-388-32-18-4-37-8-28-45 8-36 27-32 45-27zm356 210 402-9c19 0 38-1 38 37 1 38-18 38-37 38l-402 9c-19 0-37 1-38-37s18-38 37-38zm593-3082c151-125 293-227 423-297 133-72 254-111 359-106 19 1 37 1 36 39-1 37-20 37-39 36-92-4-200 32-322 97-125 67-263 166-410 289-14 12-29 24-53-5s-9-41 5-53zm-605 56c-141-130-298-240-445-314-139-71-268-108-363-100-19 2-37 4-40-34-4-37 15-39 34-40 110-10 252 31 404 107 152 77 315 191 461 325 14 13 28 25 2 53-25 27-39 15-53 2zm-213 1004c37-83 83-155 136-219 53-63 112-119 174-170 14-12 29-24 52 5 24 29 9 41-5 53-59 48-114 101-164 160-49 59-91 125-125 201-8 17-15 34-49 19s-27-32-19-49zm371-1734c49 66 88 139 114 223 26 82 40 175 39 279 5 80 6 165-7 249-13 86-42 170-97 246-43 60-101 97-165 113-53 13-109 10-164-7 29 100 51 208 6 308-8 18-33 27-51 18-43-22-86-43-128-62s-84-36-127-51l-1-1c-95-37-173-73-236-112-65-39-115-80-150-124l1 2c-44-49-72-106-88-170-14-55-20-114-22-174-72-39-138-78-194-116-64-43-118-87-161-131-13-14-26-27 1-53s40-12 53 1c39 40 89 80 150 121 60 40 128 81 204 121 124 13 247 51 370 109 106 50 211 115 317 192 13 7 19 16 27 20 8 6 16 13 25 19 51 22 104 28 152 16 47-11 90-39 122-84 48-66 72-139 84-214 12-77 11-157 6-234v-2c1-97-12-183-35-258-24-76-58-142-102-201-11-15-22-30 7-52s41-7 52 7zm-375 1047c-104-77-207-141-311-190-105-49-210-83-314-98 2 48 8 93 18 135 13 52 35 99 71 138l1 1c30 37 73 72 130 107 60 36 134 71 225 106l-1-1c45 16 89 34 133 54 31 14 61 28 93 44 19-83-10-179-37-267-2-8-5-15-9-29zm776-1003c-44 59-79 125-102 201-24 76-36 161-35 258v2c-5 77-6 158 6 234 12 75 37 148 84 214 32 45 75 72 122 84 48 12 101 6 152-16 8-6 17-13 25-19 6-4 13-12 27-20 105-77 211-143 317-192 123-58 246-95 370-109 75-40 144-80 204-121s111-81 149-121c13-13 26-27 53-1s14 39 0 53c-43 44-97 88-161 131-57 38-122 77-194 116-2 61-8 119-22 174-16 63-44 121-88 170l1-2c-35 44-85 85-150 124-63 38-141 75-237 112l-1 1c-43 15-85 32-127 51-43 19-85 40-128 62-18 9-43 0-51-18-45-100-23-208 6-308-55 18-111 20-164 7-64-15-122-53-165-113-55-76-84-160-97-246-13-85-12-169-7-249-1-104 13-196 39-279 26-84 65-158 114-223 11-15 22-30 52-7 30 22 19 37 7 52zm940 715c-105 15-209 49-314 98-104 49-207 113-311 190-4 13-6 21-8 29-27 88-56 184-37 267 31-15 62-30 93-44 44-20 87-38 133-54l-1 1c91-35 165-70 225-106 58-34 100-70 131-107l1-1c35-39 57-86 71-138 11-42 16-87 19-135z"/>
            <path fill-rule="evenodd" d="M203459 50602c-119 0-216 97-216 216s97 217 216 217 216-97 216-217c0-119-97-216-216-216zm0 69c-81 0-147 66-147 147s66 147 147 147 147-66 147-147-66-147-147-147zm0 60c-48 0-87 39-87 87s39 87 87 87 87-39 87-87-39-87-87-87zm-1697-124c119 0 217 97 217 216s-97 217-217 217c-119 0-216-97-216-217 0-119 97-216 216-216zm0 69c81 0 147 66 147 147s-66 147-147 147-147-66-147-147 66-147 147-147zm0 60c48 0 87 39 87 87s-39 87-87 87-87-39-87-87 39-87 87-87z"/>
        </g>
        <use xlink:href="#a" transform="rotate(-2.173 -55532.79 156275.842)"/>
        <use xlink:href="#a" transform="rotate(2.18 459865.852 156275.761)"/>
    </g>
    <path fill="#171796" d="m683.871 118.584-.074.027-23.992-27.422-31.546 18.08-5.32 63.861a274.6 274.6 0 0 1 45.145 7.556l15.784-62.099z"/>
    <path d="M634.482 122.518c1.096-.267 2.178-.323 3.226.32.46.19.806.432 1.019.743.486-.376.98-.728 1.493-1.03.72-.534 1.454-1.005 2.245-1.268 1.132-.575 2.26-.915 3.392-1.02 1.196-.203 2.399-.215 3.596-.144a6.48 6.48 0 0 1 2.885.865c.835.414 1.667.832 2.502 1.247.883.491 1.766.936 2.648 1.309 1.12.441 2.379.59 3.72.64.658.023 1.304.023 1.938-.145.512-.137.832.19.267.536-4.147 2.544-7.397.281-10.17-.732a20.117 20.117 0 0 1 2.667 2.124c1.054 1.016 2.233 2.047 4.318 2.997 1.265.575 2.642 1.028 4.41 1.043.6.006 1.245-.018 1.944-.133.352-.057.503-.024.51.16.005.124-.027.373-.238.512-1.069.717-2.076.907-3.199.978-2.138.136-4.425-.566-6.516-1.689-1.674-.9-2.802-1.996-4.135-2.98-1.33-.98-2.48-1.525-3.714-1.786-1.218-.26-2.536-.23-3.647.113.332.065.613.222.785.42.572.338 1.307.486 2.37.608.554.065.382.447-.471.906-.512.66-1.179 1.016-2.065.93-1.22.809-1.655.32-2.064-.21-.05.335-.148.663-.293.98a.753.753 0 0 1-.018.533c.195.303.29.596.225.919a.77.77 0 0 0 .272.491c.255.231.418.498.45.824.004.216.122.394.294.554.249.204.5.385.75.69.737.266 1.078.832 1.199 1.564.557.18.788.583.897 1.063.317.134.608.293.774.575 1.137.003 2.248.003 3.287.112.975.104 1.769.711 2.48 1.5.48.073.965.097 1.463-.016.512-.225 1.054-.397 1.644-.447.974-.083 1.952-.133 2.882.089.63.151 1.122.486 1.525.942.58.66 1.475.572 2.24.246 1.036-.442 1.898-.427 2.959.038.453-.175.906-.257 1.36-.21.387-.42.799-.524 1.222-.536.69-.024 1.191.083 1.06.968-.035.24-.177.471-.358.554-.316.685-.92.886-1.688.82-.083.472-.275.821-.583 1.046.352 1.087.014 1.523-.791 1.508-.17.314-.42.51-.85.447a1.726 1.726 0 0 1-1.09.643c.047.284.168.418.37.723.548.83-.276 1.164-1.028 1.176.193.548.216 1.096.148 1.644.767.465.871.953.163 1.436.518.907.317 1.573-.655 2.059-.014.506-.065 1.016-.402 1.3-.231.196-.563.231-.344.598.394.652.308 1.476-.275 1.5-.125-.013-.237.005-.246.204 0 .068-.06.136-.175.204-.7.376-1.354.806-1.955 1.3-.089.06-.178.101-.267.021-.438.954-1.255 1.922-2.159 2.897-.14.717-.545 1.203-1.217 1.454a.512.512 0 0 1-.4.409c.376.418.518.82.154 1.217-.447.49-1.037.966-1.626 1.117-1.253.32-2.038.26-2.542-.22-.444-.423-.27-.743.012-.876-.773.062-.93-.346-.91-.891.045-.273.137-.237.41-.228.42.011.8-.217 1.196-.347.154-.26.356-.486.604-.675.14-.877.694-1.363 1.446-1.65.607-.231 1.188-.818 1.75-1.576.347-.598.697-1.194 1.043-1.792-.243-.317-.308-.634-.317-.95a1.847 1.847 0 0 1-.696-.647c-.545-.038-.77-.284-.85-.625a1.294 1.294 0 0 1-.409-.053c-.266.172-.536.323-.87.308a8.618 8.618 0 0 1-1.363 1.138c-.163.45-.486.63-.88.687-1.12.133-1.789 1.528-2.405 2.097-.249.184-.403.51-.512.9-.054.735-.181 1.31-.584 1.321-.361-.014-.418-.053-.43-.091a1.482 1.482 0 0 0-.47.02c.302.332.35.75.07 1.117-.278.361-.678.474-1.063.5-.796.054-1.442-.017-2.04-.26-.572-.234-.64-.575-.622-.906-.412-.196-.495-.391-.45-.584.056-.249.284-.376.57-.296a3.06 3.06 0 0 1 .747-.246c.723-.779 1.467-1.448 2.284-1.76.24-.29.515-.55.85-.767.095-.699.554-1.25 1.117-1.762a2.51 2.51 0 0 1 .275-.758c-.032-.151.01-.222.012-.365-.228-.423-.364-.933-.195-1.356a1.642 1.642 0 0 1-.063-.676c-1.344.8-1.759.528-1.913-.121-.492.412-.95.604-1.28.012-.476.142-.956.302-1.433.112-.311.122-.625.231-.984.255-.145.287-.34.575-.604.862-.015.604-.225 1.209-.613 1.813a11.588 11.588 0 0 1-.87 1.934c.005.207-.024.415-.134.625.104.743-.145 1.105-.554 1.288-.11.3-.272.602-.521.9-.012.099-.021.2-.033.297.163.439.19.874-.255 1.312-.358.225-.74.462-1.12.649-.447.22-.861.116-1.237-.02-.66-.238-.61-.469-.525-.694a.805.805 0 0 1-.651-.009c-.16-.1-.261-.204-.42-.308-.143-.257-.193-.491.153-.675.436-.193.732-.335 1.075-.687.119-.267.27-.468.483-.522.207-.485.462-.814.809-.903.254-.601.527-1.265.85-1.84.112-.174.195-.355.142-.553-.006-.163.006-.317.142-.41.077-.064.213-.124.042-.215a1.7 1.7 0 0 1 .204-1.443c.35-.527.74-1.8.37-2.426-.068-.35-.136-.75-.092-1.078-.127-.006-.222.012-.349-.077-.284-.175-.521-.009-.738.308-.157.397-.314.747-.47.747-.149 1.024-.652 1.821-1.176 2.026-.122.47-.199.941-.134 1.412.054.513 0 .862-.237.922-.26.065-.503.216-.654.634a1.28 1.28 0 0 0-.092.42c.361.373.252.838-.095 1.182-.782.77-1.753.658-2.781.355-.744-.293-.924-.604-.85-.92-1.055-.09-.845-.898.03-1.141.938-.264 1.7-.865 2.324-1.724.057-1.019.29-1.712.839-1.822.053-.625.249-1.187.512-1.72.276-.483.444-1.014.347-1.66-.584-.364-.608-.74-.071-1.125.177-.104.157-.21-.063-.317-.355-.035-.31-.376-.287-.696-.015-.166-.1-.252-.258-.255-.788-.115-.592-.438-.254-.788.142-.16.237-.396.089-.491-.122-.077-.205-.347-.232-.584-.482-.364-.275-.737 0-1.096-.272-.23-.4-.568-.438-.962-.897-.039-1.232-.495-.746-1.159.204-.28.468-.55.788-.808.207-.335.405-.67.308-1.004-.258-.655.565-1.15 1.27-1.659a1.1 1.1 0 0 1-.154-.512c-.397-.383-.296-.738.142-1.076a1.33 1.33 0 0 1-.162-.521c-.987.196-.98-.394-.522-1.342-.571-.329-.411-.912.625-1.8.015-.205.054-.362.113-.472a2.395 2.395 0 0 0-1.25.38c-.394.257-.785.225-1.18.062-.12-.196-.307-.362-.52-.513-.27-.237-.332-.503-.276-.788-1.161.066-1.383-.793-.687-1.3.388-.308.672-.63.779-.983.314-.797.98-1.34 1.63-1.896 0-.228.05-.456.12-.687-.287-.193-.589-.332-.92-.359a1.47 1.47 0 0 0-.717-.796c-.217-.13-.288-.252-.154-.545-.617-.551-.463-.886-.306-1.203z"/>
    <g fill="#f7db17">
        <path d="M655.548 152.429c-.068.005-.139.011-.219.008-.299.305-.657.61-.99.871-.286-.332-.713.033-.295.234l-.214.148c-.136.362-.26.516-.663.578-.062.009-.125.02-.187.035a3.69 3.69 0 0 1 .018-.447c.018-.18.047-.355.086-.527.006-.033.015-.062-.047-.077s-.072.018-.077.05a5.446 5.446 0 0 0-.092.542 3.438 3.438 0 0 0-.018.495c-1.016.326-1.603 1.383-2.296 2.136-.299.257-.45.613-.56.986-.059.198-.08 1.108-.284 1.123-.098.003-.201 0-.31 0-.11-.166-.259-.17-.445-.012-.424-.01-.874-.012-1.25.047-.258.279.45.175.826.406.172.104.246.308.178.592-.347.827-2.28.56-2.923.22-.3-.157-.311-.338-.3-.596a2.7 2.7 0 0 0 .406-.03c.231-.032.46-.1.684-.228.063-.035.128-.07.057-.198s-.137-.092-.199-.056c-.19.11-.385.166-.58.192-.202.03-.41.03-.608.021-.017 0-.035-.003-.05 0-.112-.065-.198-.142-.151-.21.047-.065.234.006.27.017.299-.139.56-.228.882-.29.682-.728 1.375-1.413 2.314-1.789.281-.338.586-.604.953-.847.13-.812.525-1.244 1.114-1.783a2.78 2.78 0 0 1 .32-.868c-.036-.187-.009-.305 0-.495-.225-.426-.358-.796-.18-1.273-.11-.347-.095-.58-.054-.9a.436.436 0 0 0-.003-.181 7.777 7.777 0 0 1 1.06-.717 3.87 3.87 0 0 0 .048 1.004l-.003.003c-.1.11-.187.216-.246.329a.662.662 0 0 0-.092.346c0 .033 0 .065.065.062.066 0 .066-.032.063-.065a.54.54 0 0 1 .077-.281c.053-.098.133-.199.228-.3a.132.132 0 0 0 .023-.032c.311-.009.616-.175.922-.42a7.67 7.67 0 0 0 .823-.821c-.003.444-.006.889-.012 1.333a2.928 2.928 0 0 0-.672.88c-.015.03-.03.056.026.085.06.03.074 0 .086-.03.163-.322.37-.589.61-.81h.012c.065 0 .065-.033.065-.066v-.003a3.963 3.963 0 0 1 1.146-.658c-.056.392-.082.774-.014 1.14.074.404.264.783.649 1.115a.06.06 0 0 0 .023.012z"/>
        <path d="M636.2 141.161c.05-.092.178-.21.22-.201l.023-.006c.14-.261.285-.504.436-.723.195-.284.403-.536.622-.75.023-.023.047-.044.092 0 .044.048.02.069 0 .092-.214.208-.415.45-.608.729-.148.216-.29.453-.426.71.044.06.065.152.041.217.045.406.098.634.279.868a.253.253 0 0 1 .062-.041c.074-.181.175-.341.3-.483.153-.172.34-.317.565-.439a2.24 2.24 0 0 0 .379-.394c.1-.133.18-.27.237-.408.012-.03.024-.06.086-.036.06.024.047.056.035.086a1.99 1.99 0 0 1-.251.438 2.57 2.57 0 0 1-.41.418s-.008.006-.011.006c-.21.115-.391.252-.533.412-.11.121-.196.257-.264.408.095.069.136.255.048.374-.27.388-.59.616-.086.947a.791.791 0 0 0 .237.64c.115.122.103.545-.181.85-.267.27-.062.199.213.231.021.006.042.015.062.021v-.003c.101-.195.22-.37.35-.533.127-.16.267-.311.409-.453.198-.196.355-.409.468-.625.11-.21.174-.427.186-.634.003-.033.003-.065.071-.06.066.004.063.036.06.069a1.763 1.763 0 0 1-.202.687 2.64 2.64 0 0 1-.491.655c-.14.139-.273.281-.397.441a3.249 3.249 0 0 0-.335.512c.332.202.225.563.275.895a.584.584 0 0 1 .172.047c.003-.006.006-.012.012-.017l.196-.308.308-.49c.017-.026.035-.056.088-.02.057.036.039.062.021.089l-.308.489-.195.308c-.003.006-.006.012-.01.014.205.166.22.468-.032.7-.494.373-.355.488.107.784.06.436.062.785-.033 1.156.003.009.003.02.006.032.012.122.02.246.03.368l.03.37c.002.032.005.065-.06.07s-.068-.026-.07-.058l-.03-.37a.77.77 0 0 1-.006-.095c-.024.056-.048.115-.077.177-.332.726-.676 1.318-.75 2.133-.797.19-.678.974-.723 1.668-.628.847-1.356 1.525-2.366 1.863-.19.062-.649.174-.693.414-.006.086.308.273.51.163.556-.533.834-.237.195.308-.05.104-.01.22.1.317.578.519 2.009.687 2.66.276.483-.302.735-.634.314-1.093.027-.652.282-1.289.969-1.472.08-.148.056-.424.02-.575-.065-.566.024-1.07.163-1.614.024-.068.074-.125.187-.154.26-.054.761-.809.918-1.535.039-.157.062-.32.092-.482.042-.252.14-.297.267-.149.121-.162.118-.26.192-.447.267-.388.652-.699 1.102-.48a3.795 3.795 0 0 1-.22-1.04 3.39 3.39 0 0 1 .143-1.288c.018-.062.039-.121.136-.106l.388-.922c.13-.308.26-.619.391-.927.012-.03.024-.059.083-.035s.048.056.036.086l-.391.927c-.13.308-.258.613-.388.918.056.041.038.095.02.148-.118.37-.157.78-.127 1.179.03.432.136.85.296 1.19.015.033.033.066.027.098.213.125.21.154.201.439-.006.222.024.441.077.708.424.782-.017 2.09-.43 2.745a1.357 1.357 0 0 0-.168 1.043c.255.246.089.5-.136.673-.018.059 0 .127.003.186.023.255-.068.468-.202.678-.346.625-.613 1.292-.891 1.946-.504.14-.607.433-.809.904-.293.083-.323.169-.447.438-.338.34-.66.545-1.093.74-.358.164-.012.32.24.492.228.17.527-.198.714-.476.204-.308.411-.217.278.023a2.432 2.432 0 0 0-.27.841c-.076.214.735.377.874.383.495.023 1.117-.46 1.505-.705.323-.33.273-.616.13-1.016l.003-.027a2.463 2.463 0 0 1-.595-.06 4.29 4.29 0 0 1-.699-.23c-.03-.012-.06-.024-.036-.086.024-.06.057-.048.086-.036.231.095.454.175.679.222.186.042.379.063.583.057l.033-.311c.257-.317.435-.628.574-1.007.548-.258.551-.525.477-1.111.122-.237.148-.376.14-.646.36-.643.657-1.3.903-1.996.432-.575.64-1.117.59-1.801.038-.267.136-.418.331-.409.142-.198.27-.403.385-.63a.575.575 0 0 0 .071.005.083.083 0 0 1 0-.047c.036-.157.077-.297.13-.412a.997.997 0 0 1 .178-.281c.08-.196.11-.385.09-.57a1.379 1.379 0 0 0-.193-.553.615.615 0 0 1-.146-.231c-.026-.092-.008-.184.083-.276.024-.023.048-.044.092 0 .045.048.024.072 0 .092-.053.05-.062.098-.047.145a.57.57 0 0 0 .121.187l.006.012c.116.198.193.403.213.613s-.008.427-.103.643c0 .003-.012.018-.012.02a.902.902 0 0 0-.163.252 2.11 2.11 0 0 0-.121.385c-.003.01-.003.018-.006.024.305 0 .574-.095.868-.24l.017-.018a1.8 1.8 0 0 0 .436-.536 2.36 2.36 0 0 0 .249-.72c.005-.032.011-.062.077-.053.062.012.056.045.053.074a2.527 2.527 0 0 1-.264.761c-.1.187-.219.338-.337.457.473.142.885.003 1.335-.137-.065-.634-.056-1.116.012-1.496.074-.411.214-.702.388-.92.021-.027.039-.051.092-.013.05.042.033.066.012.092-.163.205-.293.477-.361.865-.066.362-.077.824-.015 1.434.006-.003.015-.003.023-.006.19.323.29.557.679.305.142-.095.29-.19.409-.314.044-.047.03-.074.065-.113.37-.394.743-.76 1.113-1.087.374-.328.747-.61 1.12-.838.027-.018.056-.035.089.02s.006.072-.02.09a8.062 8.062 0 0 0-1.103.823c-.317.279-.634.587-.95.918.017.057.026.154.035.303.033.438.113.702.738.462a3.18 3.18 0 0 0 .708-.341c.157-.095.29-.175.382-.196.204-.16.405-.31.61-.447.198-.133.4-.255.598-.361a3.63 3.63 0 0 1 .163-.69c.193-.569.515-1.096.921-1.594l.021-.018c.338-.183.613-.4.832-.645a2.86 2.86 0 0 0 .513-.82c.012-.03.023-.06.086-.036.059.023.047.056.035.085a3.07 3.07 0 0 1-.533.857c-.228.254-.51.48-.859.669-.394.486-.708.995-.892 1.543a3.328 3.328 0 0 0-.145.593c.012.003.024.014.036.038.03.06 0 .074-.027.086a.097.097 0 0 0-.026.015c-.039.32-.03.657.03 1.007.275-.009.553-.163.834-.391.3-.243.605-.578.907-.918.003-.01.003-.015.012-.021.074-.243.169-.456.293-.628a1.18 1.18 0 0 1 .498-.409c.03-.012.059-.026.085.036.024.059-.003.07-.035.086a1.078 1.078 0 0 0-.444.364c-.119.166-.21.373-.282.61l-.012 1.386c.015-.011.033-.023.048-.038.34-.264.731-.46 1.155-.613.044-.018.095.023.086.07-.065.416-.1.827-.033 1.206.065.356.225.688.545.984a3.475 3.475 0 0 1 .584-.77c.003-.006.006-.012.015-.015a5.07 5.07 0 0 1 .376-.34c.095-.087.19-.176.281-.264.095-.086.19-.175.285-.264.023-.024.047-.044.091.003s.021.071-.003.092c-.094.089-.19.174-.284.263-.095.086-.19.175-.284.264l-.003.003a3.89 3.89 0 0 0-.35.314c.003.121.01.24.015.361.003.065.003.13.006.196.272.074.435.077.714.07.092.549.139.635.616.647a4.055 4.055 0 0 1 .018-.572 2.5 2.5 0 0 1 .142-.616c.012-.03.024-.06.083-.039.062.024.05.054.038.083-.07.184-.112.38-.136.584-.02.18-.024.367-.018.56h.039c.19.39.414.583.817.758.113-.178.196-.356.25-.533a1.71 1.71 0 0 0 .07-.596c-.003-.032-.003-.065.06-.068.065-.003.068.027.07.06.015.213-.011.426-.077.64s-.168.423-.31.633c-.012.018-.024.036-.045.036.018.228.056.397.136.568.06-.127.122-.254.193-.373.098-.172.21-.326.346-.462.024-.024.045-.044.092 0 .045.044.024.068 0 .092a2.09 2.09 0 0 0-.326.435 4.979 4.979 0 0 0-.228.453c.045.078.101.155.166.243-.758 1.3-1.57 3.102-3.066 3.694-.773.305-1.11.7-1.264 1.525-.29.226-.498.454-.687.768-.504.168-.954.42-1.5.397 0 .352.116.506.469.509.672-.338.823-.4.882-.352.083.07-.094.553-.651.944-.086.054-.083.086-.033.175.471.738 1.706.474 2.37.3.474-.125 1.33-.688 1.567-1.162.092-.219-.116-.5-.323-.731-.948.145-.767-.765.047-.385.276-.083.311-.086.388-.391.726-.282 1.028-.587 1.194-1.366.732-.788 1.466-1.6 1.993-2.544.146-.178.231-.492.19-.655.13-.154.201-.35.249-.527.047-.19.077-.376.07-.566 0-.032-.002-.065.063-.068s.065.03.068.062a2.2 2.2 0 0 1-.074.601 5.599 5.599 0 0 1-.15.463c.046.118.07.198.174.168.634-.51 1.274-.868 1.958-1.291.047-.29.234-.433.521-.444.116.003.157-.033.199-.14.16-.4-.042-.675-.234-1.007-.178-.494.139-.613.456-.85.331-.246.308-.897.32-1.273h.003c-.012-.063-.024-.128-.039-.193a3.279 3.279 0 0 0-.113-.4c-.011-.03-.02-.062.039-.083.062-.02.071.01.083.042.05.145.089.281.118.414.012.054.021.107.033.157.317-.163.649-.352.773-.705.11-.39-.104-.76-.293-1.093a11.957 11.957 0 0 1-.743.32c-.03.012-.06.024-.084-.035s.006-.074.036-.083a12.774 12.774 0 0 0 .859-.38c.142-.094.287-.195.39-.328.229-.329-.384-.625-.597-.758 0-.01.003-.018.003-.027-.308-.281-.614-.566-.922-.847-.023-.02-.047-.045-.003-.092s.069-.027.092-.003l.853.782c.048-.483.054-.945-.097-1.425-.048-.154-.104-.305-.157-.456a1.395 1.395 0 0 1-.598-.498 1.296 1.296 0 0 1-.2-.619c-.002-.032-.002-.065.063-.07.065-.004.065.029.071.062.015.201.065.39.175.556.11.17.275.317.515.439.258.133.8.065 1.114-.086.435-.246-.133-.744-.267-1.037-.094-.21-.118-.426-.16-.651.039-.006.077-.015.119-.021a1.304 1.304 0 0 0-.175-.184.752.752 0 0 0-.234-.142c-.03-.012-.062-.02-.038-.083.02-.062.053-.05.083-.038.097.035.19.091.275.165.083.072.16.157.234.258a1.89 1.89 0 0 0 .127-.024c.43-.085.667-.325.927-.633a4.495 4.495 0 0 0-.467-.483 12.61 12.61 0 0 0-.534-.45c-.023-.021-.05-.042-.009-.092s.066-.03.092-.01c.184.149.368.3.54.457.174.16.34.329.491.512.015.018.03.036.018.06.394.035.459-.045.657-.397a1.892 1.892 0 0 0-.237-.513 3.126 3.126 0 0 0-.394-.483c-.023-.023-.044-.047 0-.091.048-.045.072-.021.092 0 .154.16.297.328.41.503a1.9 1.9 0 0 1 .25.542c.184.003.383.012.54-.083.344-.204.053-.939-.036-1.223a.052.052 0 0 0 .015-.012 3.452 3.452 0 0 0-.136-.086c-.08-.05-.163-.1-.243-.154-.027-.018-.053-.035-.02-.089.035-.056.062-.038.088-.02l.243.154.178.112.08-.062c.252-.201.34-.468.417-.746.119-.427.143-.237.64-.311.536-.083.827-.143 1.144-.77.165-.083.251-.155.28-.359.054-.37.025-.56-.399-.592-.592-.048-.954.07-1.354.462.054.08.107.163.16.243.018.026.036.053-.017.091-.054.036-.071.01-.09-.017l-.15-.231c-.54-.054-.972.032-1.475.222l-.151-.062c.106.142.19.278.251.411.086.19.13.37.137.542 0 .033.003.065-.063.068s-.065-.03-.068-.062c-.006-.157-.044-.32-.124-.494s-.202-.359-.373-.554l-.003-.003c-.421-.151-.806-.228-1.2-.22.065.066.133.13.198.193.086.083.172.166.255.249.024.024.048.044 0 .092-.044.047-.068.023-.092 0a20.421 20.421 0 0 1-.254-.25 20.421 20.421 0 0 1-.255-.248c-.009-.009-.018-.018-.024-.027a3.445 3.445 0 0 0-1.063.276c-.24.1-.486.178-.726.222.178.172.329.364.447.584.125.225.22.473.282.749.006.033.015.062-.048.077s-.07-.018-.077-.047c-.059-.264-.15-.504-.27-.717s-.266-.403-.44-.569c-.018-.015-.033-.033-.027-.056a2.225 2.225 0 0 1-.658.003l.264.435c.015.03.027.06-.03.086-.059.027-.074 0-.086-.03l-.242-.509a1.807 1.807 0 0 1-.593-.234c.062.234.11.486.145.752.048.353.077.729.086 1.126 0 .032.003.065-.062.065s-.065-.033-.065-.062a9.81 9.81 0 0 0-.083-1.11 5.874 5.874 0 0 0-.187-.89 2.077 2.077 0 0 1-.266-.248 2.624 2.624 0 0 0-.711-.554 1.186 1.186 0 0 1-.26.91c-.022.026-.04.05-.093.011-.05-.041-.032-.065-.012-.092a1.058 1.058 0 0 0 .22-.9c-.406-.187-.853-.279-1.316-.317a6.64 6.64 0 0 1 .687 1.09c.184.15.282.334.338.536.054.198.066.412.074.628 0 .032.003.065-.062.068s-.065-.03-.068-.062a2.608 2.608 0 0 0-.068-.599.893.893 0 0 0-.302-.476c-.003-.003-.018-.018-.018-.021-.1-.202-.213-.4-.335-.596a5.762 5.762 0 0 0-.411-.568l-.006-.006a6.246 6.246 0 0 0-.471-.009c.026.036.053.071.077.11a.721.721 0 0 1 .106.308c.003.032.006.065-.059.07s-.068-.026-.07-.059a.623.623 0 0 0-.09-.254.843.843 0 0 0-.139-.172c-.326.009-.649.035-.96.062.326.418.587.85.788 1.295a6.01 6.01 0 0 1 .462 1.53c.006.033.012.066-.053.075-.062.012-.068-.02-.074-.053a5.99 5.99 0 0 0-.453-1.5 6.4 6.4 0 0 0-.827-1.335l-.047.003a4.295 4.295 0 0 0-.75.145c.11.068.205.136.288.204.112.092.201.184.278.276.021.027.042.05-.009.092s-.07.018-.091-.01a1.966 1.966 0 0 0-.261-.26 3.003 3.003 0 0 0-.373-.255 5.97 5.97 0 0 0-.385.14c-.071.026-.14.053-.21.074.219.157.429.329.63.521.243.234.471.498.676.803.017.026.035.053-.018.089s-.071.008-.092-.018a4.744 4.744 0 0 0-.655-.782 5.859 5.859 0 0 0-.705-.572c-.266.06-.536.074-.805.065.166.33.31.66.42.996.119.361.202.725.228 1.096.003.032.006.065-.059.07s-.068-.026-.07-.059a4.47 4.47 0 0 0-.223-1.066 7.779 7.779 0 0 0-.447-1.043 8.492 8.492 0 0 1-.495-.053c.095.302.178.613.249.93.083.373.15.756.201 1.144.003.032.006.065-.056.074-.065.008-.068-.024-.074-.057a11.558 11.558 0 0 0-.199-1.131 11.598 11.598 0 0 0-.275-1.013c-.468-.507-.986-1.001-1.62-1.265a2.13 2.13 0 0 1 .468 1.404c0 .033-.003.065-.065.062-.066 0-.066-.035-.063-.065a2.041 2.041 0 0 0-.15-.835 2.094 2.094 0 0 0-.439-.658 2.44 2.44 0 0 0-.447-.089 19.527 19.527 0 0 0-1.25-.083c.32.29.571.557.548.88-.003.033-.006.065-.071.06s-.063-.04-.06-.072c.021-.299-.275-.568-.622-.876-.248-.01-.5-.012-.75-.015.137.139.256.278.35.417.13.19.223.38.267.57v.008c.027.293.098.55.228.764.127.21.311.373.563.489.03.015.06.027.032.086s-.056.047-.085.032a1.368 1.368 0 0 1-.62-.539 1.88 1.88 0 0 1-.245-.811 1.568 1.568 0 0 0-.246-.522 3.344 3.344 0 0 0-.43-.494c-.278 0-.554-.003-.832-.003.116.329.196.666.252 1.01.065.42.095.85.103 1.285 0 .033 0 .065-.065.065s-.065-.032-.065-.062a8.927 8.927 0 0 0-.1-1.267 5.592 5.592 0 0 0-.261-1.031h-.077a1.253 1.253 0 0 0-.61-.548.754.754 0 0 1-.133.352c-.018.027-.04.054-.093.018s-.035-.062-.017-.089a.618.618 0 0 0 .112-.338c-.041-.017-.086-.035-.133-.056-.133-.557-.258-.788-.702-.977a2.966 2.966 0 0 1-.042.477c-.035.201-.1.405-.222.6-.017.028-.035.057-.089.022-.056-.036-.038-.063-.02-.09a1.52 1.52 0 0 0 .204-.553c.03-.169.039-.34.039-.507l-.077-.026c-.119-.78-.261-1.215-1.07-1.523.01.101.012.205.006.308a1.704 1.704 0 0 1-.112.536c-.012.03-.024.063-.083.039s-.048-.053-.039-.083c.065-.169.095-.335.104-.498a2.375 2.375 0 0 0-.024-.459c-.172-.195-.417-.382-.628-.59.006.288-.032.572-.112.86a3.825 3.825 0 0 1-.483 1.042c-.018.027-.036.057-.089.021-.056-.035-.038-.062-.02-.089.216-.334.373-.672.467-1.007.092-.32.125-.643.101-.965a1.282 1.282 0 0 1-.222-.326.58.58 0 0 1-.018.041l-.095.214c-.014.03-.026.059-.086.035-.059-.027-.047-.056-.035-.086.032-.07.062-.142.095-.213.023-.056.05-.116.074-.172a1.17 1.17 0 0 1-.015-.11c-.027-.248-.16-.44-.34-.604l-.004-.003a1.887 1.887 0 0 1-.089.234c-.056.122-.13.24-.225.362-.02.026-.038.05-.091.012-.05-.042-.03-.066-.012-.092.089-.113.157-.225.21-.335.044-.095.077-.19.1-.287a1.202 1.202 0 0 1-.189-.308.995.995 0 0 1-.124.213 1.454 1.454 0 0 1-.243.246c-.024.02-.05.041-.092-.01s-.015-.07.009-.091c.092-.074.163-.148.22-.222s.094-.145.12-.22c.042-.115.057-.04.018-.227.068-.368-.068-.587-.263-.892a.089.089 0 0 1 .012-.024 1.114 1.114 0 0 0-.394.104 3.58 3.58 0 0 0-.57.332c-.026.018-.052.035-.088-.018-.039-.053-.012-.071.018-.089.21-.142.409-.26.59-.34.183-.08.352-.125.497-.116a.462.462 0 0 0 .015-.284c-.593.219-1.06.322-1.437.346a2.05 2.05 0 0 1-.948-.145c-.03-.015-.059-.027-.032-.086.023-.06.056-.047.086-.035.234.1.515.16.888.136.37-.024.827-.125 1.413-.344l-.006-.018a4.24 4.24 0 0 0 .252-.699c-.21.057-.418.054-.625.048h-.042c-.032 0-.065-.003-.065-.065 0-.065.036-.065.065-.065h.042c.22.002.438.008.654-.063a6.26 6.26 0 0 0 .039-.23c.033-.258.335-.32.548-.09.178.19.34.391.515.474.356.17.756.018 1.043-.213l-.264-.086c-.032-.009-.062-.02-.041-.08.02-.062.05-.053.08-.041.112.035.225.07.338.11l.077-.08c.734.062 1.211-.092 1.682-.566a8.657 8.657 0 0 1-1.114-.039c-.355-.041-.648-.112-.865-.22-.03-.014-.059-.029-.03-.085.03-.06.06-.044.087-.03.201.101.482.17.823.208.347.038.755.05 1.22.035h.006c.042-.047.083-.097.128-.15.201-.084.403-.176.55-.341-.855-.092-1.67-.261-2.437-.661-.199-.222-.513-.347-.847-.432-.622-.077-1.173.077-1.68.34-.133-.124-.237-.237-.367-.358-.195-.024-.38-.128-.575-.151-.26-.03-.533.02-.793-.01-.033-.002-.066-.005-.057-.07.006-.065.039-.062.071-.057.261.03.534-.02.794.01.252.029.492.139.744.168.84-.317 1.537-.491 2.138-.465a7.1 7.1 0 0 1 2.16-.272.192.192 0 0 1-.027-.024c-.086-.086-.045-.13 0-.172.394-.4.486-.767.358-1.099-.13-.343-.485-.666-.98-.962-.527.059-1.034-.083-1.594-.021-.35.038-.693.115-1.03.228.28.1.527.267.728.504.249.293.427.693.521 1.196.012.06.021.122-.097.142-.119.024-.13-.038-.142-.097-.086-.46-.246-.82-.468-1.085-.234-.334-.77-.465-.94-.533-.56.057-1.11.119-1.59.243-.361.092-.678.22-.921.409.361-.077.737-.062 1.063.1.311.155.575.445.74.916.021.056.04.115-.076.154s-.137-.018-.154-.077c-.14-.406-.359-.649-.616-.776-.513-.255-1.57-.033-2.018.3-.26.195-.52.446-.779.74-.047.056-.097.11-.207.014-.11-.097-.062-.15-.012-.204.27-.305.542-.575.824-.782.272-.201.554-.347.844-.415.296-.328.734-.527 1.24-.657.496-.128 1.061-.193 1.636-.249-.169-.34-.385-.545-.634-.655-.267-.118-.572-.136-.903-.103-.69.237-1.304.607-1.893 1.025.053 0 .107 0 .157.003.175.011.332-.015.477.041.056.02.115.041.074.157-.05.14-.433.053-.566.044a1.69 1.69 0 0 0-.5.048c-.027.006-.057.015-.083.006-.72.444-1.236.894-1.834 1.4l-.1.036c-.534-.02-.901.054-1.12.22-.199.15-.214.388-.175.707-.092.3-.207.628-.237.978-.625.536-1.321 1.072-1.644 1.854-.071.228-.192.43-.343.61.127.021.23.06.31.122.03.023.057.047.08.077a2.88 2.88 0 0 1 .069-.394c.044-.184.11-.353.195-.489.018-.027.036-.053.089-.018.056.036.038.062.02.09-.08.12-.139.278-.18.45-.05.204-.077.429-.083.636-.003.065-.121.071-.13.006a.358.358 0 0 0-.14-.252.65.65 0 0 0-.337-.106 3.93 3.93 0 0 1-.436.397c-.124.1-.242.21-.27.373-.017.284.333.335.664.355.756.045.154.474.57.85.2.14.387.303.53.501.287.104.464.08.66-.009.038-.512-.006-.773.219-.773h.024a.96.96 0 0 1 .053-.195c.039-.095.095-.193.172-.288.02-.024.041-.05.092-.009s.03.065.009.092a1.009 1.009 0 0 0-.152.255.937.937 0 0 0-.053.213c.039.077.03.228.027.498.43-.21.82-.264 1.259-.285.82-.96 1.17-.716.45-.017l-.116.219c-.124.24-.204.426-.23.752-.21.184-1.242 1.03-.857 1.345.27-.039.439-.027.335.175-.127.27-.512.829-.385 1.137.047.113.213.1.376.062l.036-.032c.27-.22.554-.471.82-.764a4.75 4.75 0 0 0 .708-.993c.027-.053.053-.103.13-.086.08-.296.175-.59.282-.885.11-.305.234-.613.367-.922a.066.066 0 0 1 .113-.011c.112.163.222.281.331.358.098.071.196.104.29.104s.193-.033.291-.098a1.4 1.4 0 0 0 .323-.34c.018-.027.038-.054.092-.015s.035.062.014.091c-.118.166-.234.288-.355.37s-.24.125-.364.122a.63.63 0 0 1-.365-.13 1.417 1.417 0 0 1-.296-.3c-.115.27-.222.54-.32.81-.11.298-.204.6-.287.9.068.056.038.11.012.163a5.17 5.17 0 0 1-.753 1.051 7.307 7.307 0 0 1-.699.667c.033.219.09.426.19.64.447-.386.865-.777 1.232-1.18a7.47 7.47 0 0 0 .94-1.258c.017-.027.032-.057.088-.024s.039.062.024.089c-.13.225-.279.444-.439.66.03.045.006.062-.017.083-.048.039-.075.193-.086.391-.018.27 0 .604.03.844.002.033.008.066-.057.074s-.068-.023-.074-.056c-.033-.252-.047-.595-.033-.868.003-.07.012-.136.021-.195a15.78 15.78 0 0 1-.302.346c-.373.412-.8.809-1.256 1.2l-.012.009a.883.883 0 0 0 .042.07c-.397.288-.72.389-.276.774l.445-.32.473-.34c.027-.018.054-.039.092.014s.012.071-.015.092l-.476.34-.46.33a.778.778 0 0 0 .113.453.66.66 0 0 1 .098-.01l.995-.722c.027-.02.053-.038.092.015s.012.071-.015.092c-.32.234-.643.468-.966.702a.892.892 0 0 1-.115.148c-.326.234-1.463.936-1.342 1.422v.003c.273-.077.545-.172.806-.306.27-.139.533-.325.782-.58.023-.024.044-.044.092 0 .044.044.023.068 0 .092-.258.263-.53.453-.812.601v.012c-.003.044-.003.089-.006.133s-.003.089-.006.133c-.003.033-.003.066-.068.063s-.062-.036-.062-.068c.003-.045.003-.09.006-.134.003-.023.003-.05.003-.074a4.526 4.526 0 0 1-.702.252c.097.46-.143.853-.388 1.247-.14.113-1.277 1.034-.803 1.31.127.061.27.091.412.106z"/>
        <path d="M636.716 125.14c-.237-.143-.542-.318-.838-.377a1.801 1.801 0 0 0-.631-.702c-.22-.142-.22-.13-.137-.287.25-.027.353-.095.356-.163.13.003.243.02.338.053a.51.51 0 0 1 .251.175c.021.027.039.053.092.012.053-.039.033-.065.012-.092a.678.678 0 0 0-.314-.22 1.279 1.279 0 0 0-.462-.058c-.015 0-.027 0-.039.006a.929.929 0 0 0-.414-.069c-.17-.16-.311-.346-.243-.577.009.009.024.012.038.015.134.038.258.077.365.127.103.045.19.1.248.166.021.024.045.047.092.003s.027-.068.006-.092a.93.93 0 0 0-.29-.198 2.228 2.228 0 0 0-.281-.104c.977-.198 1.85-.184 2.725.335.459.19.675.408.924.746l-.249.21c-.572-.014-.992.066-1.256.267-.237.178-.284.498-.293.817z"/>
    </g>
    <path d="M656.147 152.189c-.193.118-.35.201-.548.234a.09.09 0 0 0 .023-.024c.128-.24.276-.45.442-.64l.065-.074.009.237.009.27zm2.449 5.242c-.13.196-.29.374-.47.536-.178.16-.38.312-.596.454-.027.017-.056.035-.092-.018s-.009-.071.018-.089a5.08 5.08 0 0 0 .58-.441 2.55 2.55 0 0 0 .45-.513c.018-.026.036-.053.092-.017.054.035.036.062.018.088zm1.62-1.931-.245.376c-.018.027-.036.054-.092.018-.054-.035-.036-.062-.018-.089.083-.124.163-.252.246-.376.018-.027.035-.053.092-.018.053.036.035.062.017.092zm-.882-.124c-.042.186-.11.364-.228.527s-.294.308-.545.424c-.03.014-.06.026-.086-.033s.003-.074.032-.086c.231-.107.388-.237.495-.382a1.2 1.2 0 0 0 .207-.48c.006-.032.015-.062.077-.047s.057.044.048.077zm1.587-1.937a1.149 1.149 0 0 0-.171.222 1.437 1.437 0 0 0-.125.272c-.012.03-.02.062-.083.042s-.053-.054-.041-.083a1.42 1.42 0 0 1 .326-.542c.023-.024.044-.045.091 0 .045.044.024.068 0 .092zm1.298.127c-.056.184-.11.37-.178.554a3.53 3.53 0 0 1-.258.563c-.017.026-.032.056-.088.023s-.042-.062-.024-.089c.104-.18.18-.36.249-.539.065-.18.118-.364.174-.548.01-.032.018-.062.08-.044s.054.047.045.08zm-.589-7.592c.402.593.491 1.203.506 1.816a9.11 9.11 0 0 1 .157-.67l.009-.02c.169-.237.275-.474.329-.708s.053-.471.011-.705c-.006-.033-.011-.062.054-.074.062-.012.07.02.077.053.044.252.044.507-.012.758a2.098 2.098 0 0 1-.34.747c-.11.412-.19.826-.267 1.241l-.015.077c-.012.062-.13.053-.13-.012 0-.047 0-.092.002-.139.01-.773.018-1.55-.482-2.284-.018-.026-.039-.053.017-.092.054-.035.074-.008.092.018zm-.987 1.271c-.006.05-.009.1-.015.148-.003.05-.009.1-.012.151-.003.033-.006.065-.07.06s-.063-.04-.06-.072c.003-.05.009-.1.012-.148.003-.05.009-.1.015-.15.003-.033.006-.066.07-.06s.063.038.06.071zm-.275 1.724c.1.329.177.663.234 1.007.038.234.062.47.074.714.026-.045.056-.086.088-.128a1.5 1.5 0 0 1 .418-.346c.027-.018.056-.033.089.024s.006.074-.024.088a1.31 1.31 0 0 0-.379.317.88.88 0 0 0-.184.403c-.011.065-.13.054-.13-.012.003-.355-.027-.702-.08-1.04s-.13-.666-.228-.989c-.009-.032-.02-.062.042-.08s.07.012.08.042zm1.374.616a4.436 4.436 0 0 1 .08 1.487c-.003.032-.009.065-.074.056s-.06-.041-.056-.074c.026-.222.035-.453.023-.696a4.503 4.503 0 0 0-.1-.746c-.006-.033-.015-.063.05-.077.062-.015.071.017.077.05zm1.178-.219c.045.243.069.48.057.708-.012.23-.056.45-.151.663-.08.243-.086.486-.044.729.041.249.136.497.248.75.015.029.027.058-.032.085s-.074-.003-.086-.032a3.173 3.173 0 0 1-.26-.78 1.622 1.622 0 0 1 .05-.796l.003-.006a1.7 1.7 0 0 0 .139-.62 2.812 2.812 0 0 0-.056-.678c-.006-.032-.012-.062.053-.074s.07.021.077.054zm.57-1.956c-.03.122-.06.247-.092.371-.03.122-.06.246-.092.37-.006.033-.015.063-.077.048s-.056-.048-.048-.08c.03-.122.06-.246.092-.37.03-.122.06-.246.092-.37.009-.033.015-.063.08-.048.062.015.056.047.047.08zm-.584-3.246c.036.113.068.226.104.338.009.033.017.062-.045.08-.062.02-.07-.012-.08-.041l-.103-.338c-.012-.033-.021-.062.041-.08s.071.012.08.041zm.299-2.467c.003.154.003.308-.009.969a.967.967 0 0 0-.293.477 1.7 1.7 0 0 0-.009.731c.006.033.012.065-.053.077s-.071-.02-.077-.053a1.778 1.778 0 0 1 .012-.788c.059-.222.174-.4.331-.54l-.026-.41c-.003-.155-.003-.309-.006-.46 0-.033 0-.065.065-.065s.065.032.065.065zm-2.449-.859c.379.249.705.524.93.85.228.329.358.705.343 1.15a.067.067 0 0 1-.092.056l-.642-.276c.142.921.106 1.656-.095 2.219a2.003 2.003 0 0 1-1.17 1.232.064.064 0 0 1-.086-.08c.11-.35.175-.699.201-1.048s.012-.7-.047-1.046c-.006-.033-.012-.065.053-.074.065-.012.071.02.074.053.06.359.077.72.048 1.078a4.8 4.8 0 0 1-.166.942c.459-.225.785-.586.968-1.099.202-.565.232-1.318.072-2.271-.01-.05.044-.092.088-.072l.661.285a1.718 1.718 0 0 0-.32-.975c-.216-.31-.527-.574-.894-.814-.027-.018-.054-.036-.018-.092.035-.053.062-.036.089-.018zm6.412-1.262-.053.128c-.018.042-.033.086-.05.127-.012.03-.024.06-.083.036s-.048-.054-.036-.083l.054-.128c.018-.042.032-.086.05-.127.012-.03.024-.06.083-.036s.047.054.035.083zm-1.508-.032c.125.05.226.118.309.201.083.08.145.175.198.279.015.03.03.059-.026.085-.06.03-.075 0-.086-.026-.048-.092-.104-.175-.175-.246s-.157-.13-.267-.172c-.03-.012-.059-.024-.035-.083s.053-.047.083-.035zm-2.239.642a1.4 1.4 0 0 1 .326.631c.056.234.065.495.036.773-.003.033-.006.066-.071.06s-.063-.039-.057-.071a2.193 2.193 0 0 0-.032-.732 1.292 1.292 0 0 0-.296-.572c-.021-.023-.045-.047.006-.091.047-.045.07-.018.091.005zm-7.568.729-.026.255a8.156 8.156 0 0 0-.024.255c-.003.032-.006.065-.071.059s-.062-.039-.056-.071c.009-.086.017-.172.023-.255l.027-.255c.003-.032.006-.065.071-.059s.062.039.06.071zm1.404-.74c.036.121.072.243.11.364l.033.11c.008.032.017.062-.045.08s-.07-.012-.08-.045l-.032-.11c-.036-.12-.071-.242-.11-.364-.009-.03-.018-.062.044-.08s.072.012.08.045zm2.88 1.934a.757.757 0 0 1 .026.157 1.37 1.37 0 0 1 0 .157c-.003.032-.006.065-.07.059s-.063-.038-.06-.071a1.046 1.046 0 0 0 0-.136.69.69 0 0 0-.024-.137c-.009-.032-.018-.062.045-.08s.07.015.08.048zm.992-2.192a.42.42 0 0 1 .118.195.292.292 0 0 1-.03.21c-.014.03-.032.06-.088.027-.056-.03-.042-.059-.027-.088.02-.042.027-.08.018-.122s-.039-.089-.083-.136c-.024-.024-.044-.045 0-.092.044-.044.068-.024.092 0zm-6.872.346c0 .155.024.303.074.439.05.14.13.27.243.39.15.173.228.341.27.513.04.17.044.335.053.498 0 .032.003.065-.063.068s-.065-.03-.068-.062c-.006-.16-.011-.32-.047-.474a1.076 1.076 0 0 0-.24-.46 1.318 1.318 0 0 1-.27-.432 1.407 1.407 0 0 1-.082-.485c0-.033 0-.066.065-.066s.065.033.065.066zm2.781 1.872c.154.288.24.57.273.854.035.28.018.568-.033.867a1.46 1.46 0 0 0 .208 1.002c.174.296.45.577.805.838a3.573 3.573 0 0 1-.16-1.123c.018-.426.148-.838.447-1.226.128-.166.214-.338.273-.512.062-.175.095-.353.118-.525.003-.032.01-.065.072-.056.065.006.059.038.056.071-.024.184-.06.367-.122.551s-.157.37-.293.548a1.984 1.984 0 0 0-.42 1.152c-.018.406.07.827.207 1.26.018.055-.05.103-.098.073-.447-.302-.788-.634-.998-.986-.204-.347-.287-.711-.222-1.087.047-.288.062-.563.03-.833s-.113-.533-.258-.805c-.015-.027-.033-.057.026-.086.057-.033.074-.003.09.026zm-1.116 1.71c0 .308-.086.616-.24.924a4.233 4.233 0 0 1-.471.722c.097-.038.198-.077.296-.124a2.867 2.867 0 0 0 .874-.622c.121-.124.243-.27.367-.441.018-.027.038-.054.092-.015s.032.065.015.092a4.485 4.485 0 0 1-.38.456 3.101 3.101 0 0 1-.337.302 30.597 30.597 0 0 1 .086.427c.006.032.014.062-.05.077-.063.014-.072-.018-.078-.05l-.047-.229c-.009-.047-.018-.095-.03-.142-.154.11-.31.192-.462.264-.177.082-.352.145-.527.21-.056.02-.11-.056-.071-.104.249-.296.459-.59.604-.883.145-.29.228-.577.228-.864 0-.033 0-.066.065-.066s.066.033.066.066zm-1.36-.11v.293c0 .033 0 .065-.065.065s-.065-.032-.065-.065v-.293c0-.033 0-.065.065-.065s.065.032.065.065z"/>
    <path d="M653.709 142.07c.178.436.225.842.157 1.22-.065.38-.246.732-.515 1.064l-.01.009c-.257.222-.45.489-.592.788a3.267 3.267 0 0 0-.228.646c.071-.098.142-.19.228-.276a1.39 1.39 0 0 1 .637-.38 5.94 5.94 0 0 0 .77-.503 5.03 5.03 0 0 0 .676-.63c.02-.024.044-.048.091-.006s.027.065.006.091c-.213.24-.444.454-.693.646s-.512.364-.794.518l-.014.006c-.243.066-.43.19-.587.347s-.281.352-.403.554c-.032.053-.13.018-.118-.045.065-.367.163-.713.31-1.027s.35-.593.623-.827c.255-.314.423-.646.486-1.001s.017-.738-.152-1.15c-.011-.029-.023-.058.036-.085.06-.024.074.006.086.035zm2.763 4.432c-.041.118.045.228.22.453l.118.154c.234.31.32.663.326 1.033.006.362-.062.738-.133 1.102-.012.063-.119.06-.128-.003a2.236 2.236 0 0 0-.482-1.075c-.255-.32-.596-.604-.987-.865-.026-.018-.053-.035-.018-.092.036-.053.063-.035.09-.017.402.27.752.562 1.015.894.202.252.353.524.442.824a4.25 4.25 0 0 0 .074-.765c-.006-.343-.086-.669-.3-.956-.044-.063-.082-.11-.115-.151-.204-.264-.302-.391-.24-.575.012-.03.02-.062.083-.041s.05.053.041.082zm1.179-.078c.048.05.098.101.146.155.047.05.097.1.145.154.023.023.044.047-.003.091s-.071.021-.092-.003c-.048-.05-.098-.1-.145-.154-.048-.05-.098-.1-.145-.154-.021-.023-.045-.047.003-.091s.07-.021.091.002zm1.446.466c-.092.29-.18.577-.27.867-.092.29-.18.578-.272.868-.01.033-.018.062-.08.042-.062-.018-.053-.05-.042-.08.092-.29.181-.578.27-.868.092-.29.18-.578.272-.868.01-.033.018-.062.08-.044.063.02.054.05.042.083zm.817 4.848a.302.302 0 0 0 0 .217c.012.03.024.062-.038.083-.06.023-.071-.006-.083-.039a.433.433 0 0 1 0-.311c.012-.033.024-.062.083-.039.062.024.05.054.038.083zm-.859-1.424c-.038.15-.08.305-.118.456a26.13 26.13 0 0 1-.119.459c-.008.032-.017.062-.08.047-.062-.017-.056-.047-.047-.08l.119-.459c.038-.15.08-.305.118-.456.009-.033.015-.062.08-.047.062.014.056.047.047.08zm-1.238-.006.113.112c.024.024.044.045 0 .092-.048.045-.071.024-.092 0l-.113-.112c-.023-.024-.044-.045 0-.092.048-.045.072-.024.092 0zm-1.454-.696c-.03.086-.06.171-.092.257-.03.086-.06.172-.092.258-.012.03-.02.062-.083.039-.059-.021-.05-.054-.038-.083.03-.086.06-.172.092-.258.03-.086.059-.172.091-.258.012-.032.021-.062.083-.041s.05.053.042.083zm-2.083 2.2a.867.867 0 0 0-.171.279c-.039.1-.06.204-.077.314-.006.032-.012.065-.074.053-.065-.012-.06-.041-.054-.074a1.97 1.97 0 0 1 .086-.338.962.962 0 0 1 .196-.32c.02-.023.044-.047.092-.002s.026.068.003.091zm-5.959 5.838a.829.829 0 0 1-.127.199 1.373 1.373 0 0 1-.199.193c-.024.02-.05.041-.092-.012-.041-.05-.014-.071.01-.092a1.02 1.02 0 0 0 .287-.34c.014-.03.026-.06.085-.036.06.026.045.056.033.086zm.933-.494a.44.44 0 0 1-.127.169.765.765 0 0 1-.202.115c-.032.012-.062.024-.083-.038-.023-.062.01-.074.039-.083.065-.024.121-.056.163-.092s.07-.077.092-.121c.011-.03.026-.06.085-.033s.045.056.033.086zm1.238-.756c-.02.036-.044.072-.077.107s-.077.071-.133.107c-.027.018-.056.035-.089-.02s-.006-.075.024-.09a.476.476 0 0 0 .169-.166c.017-.026.032-.056.088-.02.057.032.039.059.024.089zm1.863-4.845c-.059.174-.1.346-.115.518s-.006.344.03.512c.005.033.014.063-.048.078s-.071-.018-.077-.05c-.041-.184-.05-.371-.033-.555s.06-.367.122-.548c.012-.032.02-.062.083-.041s.05.053.041.083zm1.268-12.894c-.006.145-.044.287-.113.43s-.165.28-.293.42c-.02.024-.044.048-.092.003s-.026-.068-.003-.092c.119-.13.21-.26.273-.388a.96.96 0 0 0 .098-.379c0-.032.003-.065.068-.062s.062.035.062.068zm-1.294-1.143c.112.195.18.394.219.592.038.196.047.394.035.59 0 .032-.003.065-.068.062s-.062-.036-.062-.068c.012-.187.003-.37-.033-.557-.035-.184-.1-.37-.204-.554-.015-.027-.033-.056.024-.089s.074-.003.089.024zm-1.715 2.126a1.888 1.888 0 0 1-.507-.52.816.816 0 0 1-.118-.546c.006-.032.011-.062.074-.053.065.012.059.041.053.074a.69.69 0 0 0 .1.459c.095.16.252.32.472.483.026.018.053.038.014.092s-.065.032-.091.014zm1.898 3.226v.282c0 .032 0 .065-.065.065s-.065-.033-.065-.066v-.281c0-.033 0-.065.065-.065s.065.032.065.065zm-2.426-2.444c.382.362.61.797.732 1.28.077.3.11.616.116.948.002 0 .008-.003.014-.003.172-.06.305-.213.397-.46.098-.26.148-.621.157-1.08 0-.003.006-.03.01-.033.135-.222.218-.447.275-.67s.083-.45.103-.678c.006-.056.083-.08.119-.032.222.314.417.64.568.99s.252.719.29 1.122c.004.032.007.065-.059.07s-.068-.026-.07-.058a3.631 3.631 0 0 0-.279-1.082 4.834 4.834 0 0 0-.453-.82 3.62 3.62 0 0 1-.09.521c-.055.231-.141.46-.28.69-.01.468-.063.839-.163 1.108-.107.287-.267.465-.477.536-.021.006-.039.012-.057.003-.003.16-.011.323-.023.489-.003.033-.006.065-.071.06s-.063-.04-.06-.072c.045-.539.033-1.051-.085-1.513a2.471 2.471 0 0 0-.697-1.218c-.023-.02-.047-.044-.003-.092s.069-.023.092-.003zm1.422 6.081-.08.513-.08.51c-.003.032-.009.064-.074.053-.062-.01-.06-.042-.053-.074l.08-.51.08-.512c.006-.033.009-.063.074-.054.062.012.06.042.053.074zm-2.731 1.159.071.388c.006.032.012.062-.053.074-.062.012-.071-.021-.077-.054l-.071-.388c-.006-.032-.012-.062.053-.074.062-.012.071.021.074.054zm2.361-3.134a2.838 2.838 0 0 1-.199.746 2.78 2.78 0 0 1-.432.696l-.003.003c-.234.255-.347.519-.382.794s.003.563.08.856c.009.033.015.062-.047.08-.063.015-.072-.015-.08-.047a2.363 2.363 0 0 1-.083-.904c.038-.299.163-.59.414-.865a2.62 2.62 0 0 0 .412-.66c.098-.231.16-.468.19-.714.003-.033.008-.065.07-.056.066.009.06.041.057.074zm-.616-.918c.044.248.006.494-.098.743a2.79 2.79 0 0 1-.483.723l-.006.006c-.222.186-.379.39-.503.601a5.133 5.133 0 0 0-.308.66c-.012.03-.024.06-.086.036-.06-.024-.048-.053-.036-.083.092-.228.187-.456.317-.678s.296-.436.527-.631c.202-.228.359-.456.457-.684.094-.222.13-.448.088-.667-.005-.032-.011-.062.054-.077.062-.012.07.02.077.054zm-3.012 1.43a2.16 2.16 0 0 1-.193 1.298c-.184.373-.477.693-.835.98-.024.02-.05.041-.092-.012-.042-.05-.015-.07.012-.092.343-.275.625-.583.8-.936s.248-.752.18-1.223c-.003-.033-.009-.065.056-.074s.068.024.074.056zm-3.848 2.13c.038.077.074.154.11.23.04.084.08.164.118.247.015.03.026.059-.03.086-.059.026-.074 0-.086-.03-.038-.083-.08-.163-.118-.246-.036-.077-.074-.154-.11-.228-.015-.03-.026-.06.03-.086.06-.026.074 0 .086.03zm-1.526.03c-.003.293.021.583.092.861.074.279.193.548.388.806l.006.012c.098.198.154.397.193.598.026.148.044.297.053.445.187-.199.329-.4.432-.61.119-.243.181-.495.187-.756 0-.032 0-.065.065-.062.065 0 .065.032.062.065a1.96 1.96 0 0 1-.198.809c-.127.26-.314.51-.56.75-.038.038-.107.01-.11-.045-.008-.193-.023-.385-.059-.572s-.089-.373-.177-.56c-.202-.27-.33-.554-.406-.847s-.101-.592-.098-.897c0-.033 0-.066.065-.066s.065.033.065.066zm.208 5.21a3.287 3.287 0 0 1 .225-.957c.012-.03.023-.06.083-.036.062.024.047.054.038.083a3.155 3.155 0 0 0-.216.916c-.003.032-.003.065-.071.059-.065-.003-.062-.036-.06-.068zm-.178 1.451.08-.578c.003-.032.009-.065.074-.056s.06.042.056.074l-.08.578c-.003.032-.009.065-.074.056s-.059-.041-.056-.074zm-.998 2.432c.095-.095.186-.207.272-.332.09-.127.172-.266.255-.412.015-.03.033-.056.089-.026.056.032.041.059.024.089a5.182 5.182 0 0 1-.261.423c-.092.13-.187.249-.29.35-.024.023-.048.044-.092 0s-.021-.068 0-.092zm-1.443-8.16v.24c0 .032 0 .065-.065.065s-.065-.033-.065-.066v-.24c0-.032 0-.065.065-.065s.065.033.065.066zm-2.44 5.621c-.003-.059-.006-.118-.012-.177l-.012-.18c0-.034-.003-.066.062-.07s.068.028.068.063l.012.178c.003.06.006.118.012.178 0 .032.003.065-.062.068s-.068-.027-.068-.063zm6.128-9.999c-.124.43-.222.876-.213 1.259.006.37.11.678.376.85.31.201.447.503.577.796.01.018.015.036.024.054.039-.145.071-.3.086-.453.02-.19.02-.374-.006-.54-.006-.032-.012-.065.053-.077.063-.011.072.021.074.054.03.177.03.376.01.574a3.13 3.13 0 0 1-.14.643c-.018.053-.095.06-.118.009a7.43 7.43 0 0 1-.098-.213c-.122-.276-.249-.56-.53-.74-.308-.2-.43-.546-.439-.957-.006-.397.092-.856.22-1.298.008-.032.017-.062.08-.044s.053.047.044.08zm-.43-1.639c.042.335.03.643-.026.954a5.007 5.007 0 0 1-.29.951 3.01 3.01 0 0 0-.208 1.25c.02.424.13.844.326 1.244.015.03.03.06-.03.086-.059.03-.074 0-.086-.03a3.17 3.17 0 0 1-.124-2.598 4.75 4.75 0 0 0 .281-.926 2.84 2.84 0 0 0 .027-.913c-.003-.032-.009-.065.056-.074.063-.008.069.024.074.057zm-2.846 4.053a.989.989 0 0 0-.074.586c.035.199.121.4.243.601.018.027.032.057-.02.09-.057.032-.075.005-.09-.024a1.88 1.88 0 0 1-.258-.646 1.095 1.095 0 0 1 .083-.66c.015-.03.027-.06.086-.033s.045.056.033.086zm-1.241-.445c.02.116.027.252.015.388a1.072 1.072 0 0 1-.09.338v.003a.497.497 0 0 0-.047.329c.024.115.083.23.163.35.018.026.036.053-.017.091s-.072.012-.092-.018a1.065 1.065 0 0 1-.184-.396.605.605 0 0 1 .06-.415.951.951 0 0 0 .076-.293 1.382 1.382 0 0 0-.012-.353c-.005-.032-.011-.065.054-.074.065-.012.07.02.074.053zm7.257-10.748a2.897 2.897 0 0 0 .39 1.833c.019.026.033.056-.023.089s-.071.003-.089-.024c-.163-.284-.287-.587-.358-.904s-.092-.651-.048-1.007c.003-.032.006-.065.072-.056.065.006.062.039.056.071zm-.91.879c.17.3.314.622.424.974s.184.741.21 1.17c.003.033.003.066-.062.069s-.065-.03-.068-.063a4.71 4.71 0 0 0-.616-2.085c-.015-.03-.033-.056.024-.089s.074-.003.088.024zm-4.508.139c-.435.62-.625 1.123-.66 1.558-.036.433.08.794.252 1.129l.002.009c.119.343.172.684.163 1.027a3.232 3.232 0 0 1-.198 1.025c-.012.033-.02.063-.083.039-.062-.02-.05-.054-.039-.083.119-.329.184-.655.193-.984a2.81 2.81 0 0 0-.154-.977c-.18-.352-.302-.738-.264-1.194s.234-.983.685-1.623c.017-.027.038-.053.091-.018.054.039.036.066.015.092zm4.203-1.783a.918.918 0 0 1-.065.572c-.077.174-.21.34-.409.497-.201.157-.32.362-.373.608-.056.251-.044.545.018.873.006.033.012.066-.053.077-.062.012-.071-.02-.077-.053-.063-.347-.074-.655-.015-.924a1.14 1.14 0 0 1 .42-.681c.181-.143.3-.294.37-.448a.793.793 0 0 0 .057-.491c-.006-.033-.015-.063.05-.077.063-.012.071.02.077.05zm-4.452.382c.086.276.09.545.01.815-.078.266-.238.53-.48.788l-.006.006a1.512 1.512 0 0 0-.465.72c-.092.28-.125.595-.143.92-.003.033-.003.066-.068.063s-.062-.036-.062-.068c.018-.335.053-.658.148-.954s.249-.563.5-.776a1.87 1.87 0 0 0 .451-.735 1.263 1.263 0 0 0-.009-.74c-.009-.033-.02-.063.042-.08s.07.012.08.044zm2.548.133a.954.954 0 0 0 0 .29c.015.093.05.181.11.267.017.027.035.054-.018.092-.054.036-.071.012-.092-.018a.784.784 0 0 1-.13-.317 1.02 1.02 0 0 1 0-.328c.002-.033.008-.066.074-.057s.059.042.056.074zm-.122-.669a1.066 1.066 0 0 0-.539.5c-.124.235-.198.537-.222.907.015.018.024.033.024.044.124.17.21.37.263.596.06.246.08.524.072.826 0 .033-.003.065-.069.062s-.062-.035-.062-.065a3.029 3.029 0 0 0-.068-.794 1.528 1.528 0 0 0-.225-.524c-.483.45-.72.948-.735 1.49-.017.566.205 1.182.631 1.84.018.026.036.056-.017.091s-.072.006-.09-.02c-.44-.682-.669-1.322-.651-1.914.018-.583.273-1.117.797-1.596v-.003c.02-.406.1-.738.24-.999.142-.263.34-.45.604-.56.03-.011.06-.023.086.036.024.06-.006.074-.036.086zm-.722-.936c-.006.053-.012.095-.015.14-.033.307-.065.654-.3.864-.13.116-.213.252-.272.397a1.97 1.97 0 0 0-.11.486c-.002.032-.005.065-.07.056-.066-.006-.06-.038-.057-.074.02-.18.056-.355.119-.518a1.15 1.15 0 0 1 .305-.448c.195-.174.23-.497.257-.779.006-.053.012-.103.015-.142.003-.032.01-.065.074-.056s.06.041.057.074zm7.076 7.55c.077.16.14.326.18.495s.063.343.054.524c0 .033-.003.065-.068.062s-.062-.035-.062-.068a1.791 1.791 0 0 0-.048-.489 2.429 2.429 0 0 0-.175-.468c-.014-.03-.026-.059.033-.085s.071 0 .086.03zm.021 2.322c.056.267.059.54.011.812s-.148.551-.296.832c-.1.234-.198.468-.299.702-.015.03-.027.06-.086.036s-.047-.056-.035-.086c.1-.234.198-.471.299-.705l.003-.006c.145-.27.24-.533.287-.794a2.008 2.008 0 0 0-.012-.764c-.006-.032-.012-.065.05-.077.063-.015.072.018.078.05zm-1.475-2.162c.423.471.699.969.829 1.493.133.524.118 1.075-.042 1.65-.008.032-.017.062-.08.044s-.053-.047-.044-.08c.154-.554.169-1.08.042-1.584s-.394-.984-.803-1.44c-.02-.024-.042-.047.006-.092s.07-.017.092.006zm-.131 2.607a6.646 6.646 0 0 1-1.084 1.653 3.148 3.148 0 0 0-.672 1.173c-.018.059-.13.038-.125-.024.012-.196-.012-.391-.065-.587s-.142-.394-.26-.59v.004c-.237-.35-.338-.702-.32-1.052.02-.35.16-.696.408-1.042.143-.243.243-.489.314-.732s.107-.489.116-.734c0-.033.003-.066.068-.063s.062.036.062.068a3.26 3.26 0 0 1-.45 1.529l-.003.006c-.234.329-.367.654-.385.977-.018.326.08.649.3.975l.002.003c.124.207.216.414.276.625.026.097.047.195.059.293a3.312 3.312 0 0 1 .586-.91 6.15 6.15 0 0 0 .62-.811 6.68 6.68 0 0 0 .444-.812c.014-.03.026-.059.086-.032s.044.056.032.086zm-3.865-1.244c-.01.323.02.625.086.909.065.281.171.545.32.788.017.027.032.056-.021.089-.056.035-.071.006-.089-.02a2.817 2.817 0 0 1-.335-.824 3.742 3.742 0 0 1-.089-.942c0-.033.003-.065.066-.063.065.003.065.036.062.066zm-2.201 1.179v.379c0 .032 0 .065-.065.065s-.065-.033-.065-.065v-.38c0-.032 0-.065.065-.065s.065.033.065.066zm.729-2.012c.006.223-.024.439-.092.646-.071.207-.18.406-.34.592-.022.024-.042.05-.093.006-.05-.041-.026-.065-.006-.091a1.62 1.62 0 0 0 .314-.551 1.71 1.71 0 0 0 .086-.602c0-.032-.003-.065.063-.065s.065.033.065.062zm-1.982 3.905c-.355-.886-.441-1.588-.352-2.16a2.455 2.455 0 0 1 .705-1.374c.234-.24.438-.477.571-.773s.196-.652.148-1.132c-.003-.033-.006-.065.06-.071s.065.027.07.06c.048.503-.017.879-.16 1.196-.139.314-.352.563-.595.811a2.339 2.339 0 0 0-.67 1.304c-.085.55 0 1.232.347 2.094.012.03.024.06-.035.083s-.074-.006-.086-.036zm-1.143-1.455a.9.9 0 0 0-.057.43c.015.142.069.287.157.432.018.027.036.056-.02.089-.057.035-.071.006-.09-.021-.097-.16-.156-.323-.174-.486s.003-.326.065-.488c.012-.03.024-.06.083-.039.062.024.048.053.039.083zm5.621-3.993c.235.329.37.67.398 1.025s-.054.723-.255 1.105c-.015.027-.03.056-.086.027-.06-.03-.042-.06-.027-.086.19-.359.267-.702.24-1.034-.024-.332-.154-.652-.373-.96-.02-.026-.039-.053.015-.092s.07-.012.092.015zm1.757-1.374a3.002 3.002 0 0 1 .089 2.088c-.018.06-.124.047-.127-.018-.012-.326-.08-.619-.202-.877s-.302-.48-.536-.669c-.024-.02-.05-.041-.009-.092s.065-.03.092-.009a2.018 2.018 0 0 1 .746 1.262c.039-.216.057-.432.048-.649a2.81 2.81 0 0 0-.22-.989c-.011-.03-.023-.06.036-.086.06-.023.074.006.086.036zm1.043-1.425c.23.228.394.53.494.903.098.368.134.8.116 1.295v.003c-.024.21-.033.415-.009.604.02.187.074.358.172.513.018.026.035.056-.018.091-.056.036-.074.006-.092-.02a1.326 1.326 0 0 1-.192-.57 2.85 2.85 0 0 1 .009-.633v.003c.017-.483-.018-.903-.11-1.256-.095-.35-.246-.63-.46-.844-.023-.024-.047-.045 0-.092.045-.047.069-.024.093 0zm-2.767-.275c-.15.183-.243.4-.287.64a2.42 2.42 0 0 0 .006.8c.006.032.012.061-.053.073-.063.012-.069-.02-.075-.053a2.528 2.528 0 0 1-.005-.844c.047-.261.15-.495.314-.7.02-.023.041-.05.091-.008s.03.065.01.092zm-5.423 3.652c-.024.539-.18.977-.433 1.339-.251.358-.595.642-1 .88-.028.017-.057.032-.09-.024s-.006-.071.024-.09c.388-.227.72-.5.96-.843.24-.341.388-.756.411-1.268 0-.033.003-.065.069-.062s.062.035.062.068zm-.14-1.866c.03.201.018.397-.026.592a2.715 2.715 0 0 1-.22.584c-.014.03-.029.056-.085.03-.06-.03-.045-.06-.03-.087.095-.19.169-.373.21-.554s.054-.358.027-.545c-.003-.032-.009-.065.056-.074s.072.024.074.057zm3.673-.27v.184l.063.954.006.085c.003.033.003.066-.06.072h-.02c-.01.011-.024.017-.054.017-.065 0-.065-.032-.065-.065v-1.054l-.018-.258c-.003-.033-.006-.065.06-.071.065-.003.068.027.07.06v.02c.015.012.015.032.015.053zm.887-1.638c-.262.317-.365.622-.371.921s.086.599.222.895c.308.495.409.986.376 1.48-.03.493-.192.981-.409 1.47-.014.03-.026.06-.085.033s-.045-.057-.033-.086c.213-.474.367-.951.397-1.425a2.31 2.31 0 0 0-.359-1.41l-.003-.006c-.145-.314-.242-.63-.236-.957.005-.328.121-.66.4-1 .02-.024.04-.051.091-.01s.03.066.01.092zm-5.697-10.156c.43-.33.85-.516 1.292-.563.438-.045.891.05 1.383.281l.489-.006c.165-.003.334-.006.5-.006.033 0 .065 0 .065.065s-.032.065-.065.065c-.169.003-.335.006-.5.006l-.45.006-.01.01c-.527.464-.977.719-1.377.802a1.324 1.324 0 0 1-1.09-.237c-.032-.024-.065-.047-.02-.113s.08-.044.112-.02a1.2 1.2 0 0 0 .966.21c.35-.074.746-.29 1.211-.684-.427-.187-.818-.26-1.194-.222-.408.041-.805.219-1.211.53-.033.023-.065.047-.113-.015-.047-.065-.017-.089.015-.113z"/>
    <path d="M639.447 126.22c.18 0 .326.146.326.326a.327.327 0 0 1-.326.326c-.178 0-.326-.145-.326-.326s.145-.325.326-.325zm2.243 1.97c.233-.121.414-.251.565-.385a2.71 2.71 0 0 0 .367-.406c.018-.026.039-.053.092-.014s.032.065.015.091a2.83 2.83 0 0 1-.385.43c-.157.14-.347.272-.593.4-.03.015-.059.03-.086-.027-.03-.056-.003-.074.027-.086zm4.623-1.913a.652.652 0 0 1 .361.003.957.957 0 0 1 .35.192c.023.021.05.042.009.092s-.066.03-.092.009c-.101-.083-.205-.14-.302-.166s-.196-.026-.294-.003c-.032.01-.062.018-.08-.047-.017-.062.015-.071.045-.08zm-2.645.106c.103-.236.26-.417.477-.533.213-.112.482-.16.811-.13.033.003.065.006.06.071s-.04.062-.072.06c-.305-.027-.55.014-.74.115a.91.91 0 0 0-.418.47c-.012.03-.026.06-.086.033s-.047-.056-.032-.086zm.302.433a.529.529 0 0 1 .145-.3.697.697 0 0 1 .335-.183c.032-.009.062-.018.08.045s-.015.07-.045.08a.556.556 0 0 0-.272.148.432.432 0 0 0-.11.23c-.006.033-.012.063-.074.054s-.06-.041-.053-.074zm-4.402 1.464a1.993 1.993 0 0 0-.183.352 1.028 1.028 0 0 0-.06.414c.003.033.006.065-.059.068s-.068-.026-.071-.059a1.18 1.18 0 0 1 .065-.468c.048-.136.119-.26.196-.379.017-.027.035-.056.089-.02.056.035.038.062.02.088zm1.262.565v.195c0 .033 0 .066-.065.066s-.065-.033-.065-.066v-.195c0-.033 0-.065.065-.065s.065.032.065.065zm-.82-1.41a1.2 1.2 0 0 0 .388.074c.13 0 .263-.018.394-.047.032-.006.062-.015.077.047s-.018.071-.048.08a1.748 1.748 0 0 1-.426.05 1.244 1.244 0 0 1-.433-.083c-.032-.011-.062-.023-.038-.083.023-.062.053-.047.083-.038zm.811-2.367a.397.397 0 0 0-.26.08.472.472 0 0 0-.163.237c-.01.033-.018.062-.08.045s-.054-.05-.045-.08c.033-.104.1-.22.21-.302a.538.538 0 0 1 .341-.107c.033 0 .065.003.065.065 0 .065-.032.065-.065.065zm-1.312.134a.995.995 0 0 0-.234.136.318.318 0 0 0-.104.142c-.012.033-.02.062-.083.042s-.05-.05-.041-.083a.46.46 0 0 1 .145-.202c.068-.056.157-.11.27-.157.03-.012.059-.024.083.036.026.059-.003.074-.036.086zm-.809.023a.852.852 0 0 0-.337.412c-.012.03-.021.062-.083.039-.06-.021-.05-.054-.039-.083.036-.098.09-.187.154-.267s.142-.148.231-.21c.027-.018.054-.036.092.017s.012.072-.018.092zm-1.04.833a2.174 2.174 0 0 0-.473.489c-.018.026-.039.053-.092.014s-.033-.065-.015-.092c.074-.103.154-.198.237-.284s.172-.163.264-.231c.026-.02.053-.039.092.012.038.053.011.07-.015.092zm.104 1.146c-.062.068-.124.136-.186.201l-.19.202c-.02.023-.044.047-.092.003s-.026-.068-.003-.092l.187-.201c.062-.066.124-.134.19-.202.02-.024.044-.047.091-.003s.027.068.003.092zm-1.051.305v.403c0 .032 0 .065-.065.065s-.065-.033-.065-.065v-.403c0-.033 0-.065.065-.065s.065.032.065.065zm1.347 1.771c-.02.22-.04.439-.062.66l-.006.063c-.003.033-.005.065-.07.06s-.063-.04-.06-.072c.003-.02.003-.041.006-.062l.062-.66c.003-.033.006-.066.071-.06s.063.039.06.071zm-.79-.586c-.003.142-.01.287-.015.43 0 .032-.003.065-.068.062s-.062-.036-.062-.066c.003-.145.008-.287.014-.432 0-.033.003-.065.069-.062s.062.035.062.068zm-.735-5.61a.91.91 0 0 1 .584.584c.012.032.02.061-.042.082s-.07-.012-.083-.041a.811.811 0 0 0-.195-.317.87.87 0 0 0-.311-.19c-.03-.012-.06-.023-.039-.083.024-.062.054-.05.083-.038zm6.451 8.412a2.034 2.034 0 0 1 .027 1.685c-.012.03-.024.06-.083.036s-.047-.056-.035-.086c.11-.264.163-.527.157-.79a1.973 1.973 0 0 0-.184-.792c-.015-.03-.027-.059.033-.086s.074.003.085.033zm-2.103 2.432c.092-.317.225-.593.38-.844s.328-.48.503-.705c.201-.261.335-.545.406-.836.077-.314.08-.64.024-.948-.006-.032-.012-.062.053-.074.062-.011.071.021.074.054.06.326.056.666-.024 1a2.29 2.29 0 0 1-.43.887 7.893 7.893 0 0 0-.494.693 3.27 3.27 0 0 0-.364.811c-.01.033-.018.062-.08.045s-.054-.048-.045-.08zm-2.703-.714c.043-.119.109-.222.198-.314s.198-.169.328-.231c.03-.015.06-.027.086.03.027.059 0 .074-.032.085a.993.993 0 0 0-.294.205.716.716 0 0 0-.168.27c-.012.029-.024.062-.083.038-.06-.02-.05-.053-.039-.083zm-.525-.19c.1-.13.201-.251.317-.358.118-.11.251-.202.406-.264.03-.012.059-.023.082.036.024.062-.005.074-.038.083a1.18 1.18 0 0 0-.364.237c-.11.1-.208.222-.303.343-.02.027-.038.054-.091.012-.054-.038-.033-.065-.012-.092zm2.802-2.778c.112.05.219.074.323.077s.204-.012.302-.039c.032-.008.062-.017.08.045s-.015.071-.045.08a.995.995 0 0 1-.71-.044c-.03-.015-.06-.027-.033-.086s.056-.045.086-.033zm-1.395-.181.097-.112.012-.015c.021-.024.045-.047.092-.006.048.044.027.068.006.092l-.012.015a3.445 3.445 0 0 1-.1.112c-.021.024-.042.048-.092.006-.048-.041-.027-.068-.006-.092zm30.165 8.703c.062.068.115.139.163.216.044.077.08.157.11.243.011.032.02.062-.042.08-.062.02-.071-.012-.083-.042a.95.95 0 0 0-.098-.216.995.995 0 0 0-.145-.192c-.02-.024-.044-.048.003-.092s.071-.021.092.003zm-33.489 15.716c.143.13.29.249.454.332.16.08.337.13.539.13.032 0 .065 0 .065.065s-.033.066-.065.066c-.223 0-.418-.057-.599-.146a2.202 2.202 0 0 1-.483-.35c-.023-.02-.047-.044-.002-.09s.068-.028.091-.004z"/>
    <g fill="red">
        <path d="M661.016 124.479c.744.032 1.46.003 2.07-.098-.651.471-1.483.788-2.38.936.174-.136.287-.278.337-.423a.533.533 0 0 0-.027-.415zm-1.774-.184c.483.08.983.136 1.478.17.006.01.015.02.02.032.08.11.104.216.069.32-.042.118-.154.242-.338.37-.05.035-.1.07-.03.169a7.037 7.037 0 0 1-1.516.026.22.22 0 0 0 .05-.041c.181-.19.297-.385.33-.59a.783.783 0 0 0-.063-.453zm-13.11-3.767a16.54 16.54 0 0 1 2.55-.116c.285.116.495.284.625.507.143.248.193.574.134.98-.01.06-.018.121.103.136.122.018.13-.044.137-.103.065-.463.006-.839-.163-1.135a1.307 1.307 0 0 0-.32-.367c.077.003.154.006.23.012.996.053 1.77.337 2.634.767a.121.121 0 0 1 .02.024c.184.192.247.39.217.595-.033.216-.163.45-.37.69-.039.047-.08.092.015.172.091.08.133.032.171-.015.234-.275.388-.548.427-.815a.87.87 0 0 0-.045-.435c.73.361 1.47.708 2.19 1.087.014.009.029.015.044.024a.14.14 0 0 0 .012.047.607.607 0 0 1-.065.53c-.11.157-.309.294-.596.4-.056.021-.112.042-.07.157.04.113.1.092.156.071.338-.127.575-.29.71-.491a.79.79 0 0 0 .134-.566c.477.258.954.524 1.443.758l.003.003c.086.172.1.326.032.468-.07.151-.237.293-.5.424-.054.026-.11.053-.057.163s.11.083.163.056c.317-.157.519-.338.613-.54a.68.68 0 0 0 .054-.432c.169.074.34.145.515.21.471.175 1.04.326 1.65.439a.08.08 0 0 0 .015.018c.112.157.15.308.124.453-.026.151-.118.305-.266.46-.042.044-.083.085.003.17a.323.323 0 0 0 .038.033c-1.851-.19-3.498-1.075-5.222-1.741-.204-.08-.412-.157-.616-.237-.637-.24-1.28-.566-1.92-.827a.2.2 0 0 0-.082-.041c-.045-.015-.086-.03-.13-.041-.027-.012-.057-.021-.084-.033.003.003.01.006.012.009a10.594 10.594 0 0 0-1.771-.415 7.639 7.639 0 0 0-2.032-.02l-.113-.018c.06-.365.012-.685-.168-.963a1.564 1.564 0 0 0-.587-.518z"/>
        <path d="M643.102 121.342c.85-.37 1.712-.607 2.592-.752.403.16.67.355.82.586.145.228.18.495.13.803a5.246 5.246 0 0 0-2.299.281c-.195-.411-.458-.66-.766-.796a1.553 1.553 0 0 0-.477-.125zm9.321 4.716a11.62 11.62 0 0 0-.699-.418c-1.152-.634-2.473-1.025-3.797-1.075.012-.01.02-.02.033-.03.47-.48.574-.933.414-1.356-.124-.33-.411-.634-.808-.91.444-.023.856.003 1.318.068.651.092 1.496.311 2.266.622.19.415.243.78.16 1.087-.086.323-.33.593-.72.815-.053.03-.107.06-.047.166s.112.077.165.044c.454-.254.732-.574.836-.965.08-.302.056-.64-.077-1.016.521.234.992.512 1.32.817.43.296.854.596 1.268.91.003.527-.15.826-.405.983-.27.163-.655.184-1.093.14-.06-.007-.122-.013-.134.109v.006z"/>
        <path d="M654.959 127.965c-.77-.601-1.523-1.23-2.331-1.771.447.035.847 0 1.15-.18.292-.181.485-.495.517-1.008.483.373.948.767 1.39 1.19.222.211.444.419.672.623 0 .003.003.006.003.012.053.19.071.352.056.488a.574.574 0 0 1-.139.33.684.684 0 0 1-.34.192c-.217.062-.498.074-.845.035-.056-.006-.115-.012-.13.092z"/>
        <path d="M657.616 129.716a14.382 14.382 0 0 1-.767-.424c-.59-.35-1.144-.75-1.686-1.167.332.027.61.009.836-.053a.937.937 0 0 0 .456-.264.806.806 0 0 0 .201-.468 1.153 1.153 0 0 0-.003-.266c.53.453 1.087.873 1.689 1.24.314.193.63.374.944.543-.003.02 0 .041.003.065.039.243-.097.397-.346.495-.29.115-.723.162-1.218.192-.056.003-.11.006-.115.1z"/>
        <path d="M660.453 130.83c-.9-.246-1.77-.59-2.568-.978.457-.033.86-.086 1.15-.201.328-.13.518-.332.506-.655.527.267 1.055.498 1.59.687.096.21.101.382.013.527-.107.178-.341.326-.631.454-.057.023-.113.05-.063.16v.002z"/>
        <path d="M666.366 130.228c.077-.012.55-.136.305.045-1.742 1.14-3.952 1.137-6.034.6.323-.144.587-.319.72-.538.1-.163.118-.35.071-.554.663.216 1.336.37 2.029.459a.47.47 0 0 1-.11.317c-.11.136-.296.27-.6.403-.057.023-.114.047-.063.16.047.112.104.086.16.062.343-.151.566-.311.696-.474a.687.687 0 0 0 .163-.441c.856.092 1.741.08 2.666-.042zm-12.044 30.002c-.13.137-.24.288-.346.466-.507.168-.954.42-1.5.396 0 .353.116.507.469.51.672-.338.823-.4.882-.353.083.071-.094.554-.651.945-.086.054-.083.086-.033.175.471.738 1.706.474 2.37.3.474-.125 1.33-.688 1.567-1.162.092-.216-.116-.5-.323-.732-.524.08-.705-.162-.622-.331-.554-.196-1.17-.237-1.813-.214zm-18.936-5.968a4.095 4.095 0 0 1-1.315.729c-.19.062-.649.174-.693.414-.006.086.308.273.51.163.556-.533.834-.237.195.308-.05.104-.01.22.1.317.578.519 2.009.687 2.66.276.483-.302.735-.634.314-1.093.003-.104.015-.205.033-.308l-.797-.08-.489-.285-.518-.441zm12.464 4.336c-.047.006-.098.012-.145.021-.258.279.45.175.826.406.172.104.246.308.178.592-.347.827-2.28.56-2.923.22-.3-.157-.311-.338-.3-.596a2.7 2.7 0 0 0 .406-.03c.231-.032.46-.1.684-.228.063-.035.128-.074.057-.198-.071-.127-.137-.092-.199-.056-.19.106-.385.166-.58.192-.202.03-.41.03-.608.021h-.05c-.112-.065-.198-.142-.151-.21.047-.065.234.006.27.017.299-.139.56-.228.882-.29.045-.044.086-.092.13-.136.59.05 1.153.14 1.526.275zm-8.942-.506c-.119.071-.16.172-.246.358-.338.34-.66.545-1.093.74-.359.164-.012.32.24.492.228.17.527-.198.714-.476.204-.308.411-.217.278.023a2.432 2.432 0 0 0-.27.842c-.076.213.735.376.874.382.495.023 1.117-.46 1.505-.705.323-.33.273-.616.13-1.016l.003-.027a2.463 2.463 0 0 1-.595-.06 4.29 4.29 0 0 1-.7-.23c-.029-.012-.058-.024-.035-.086.015-.039.033-.048.054-.045l-.853-.195zm3.462-32.967c.137-.006.273-.012.406.003.252.03.492.139.744.168.84-.317 1.537-.491 2.138-.465a7.1 7.1 0 0 1 2.16-.272.192.192 0 0 1-.027-.024c-.086-.086-.045-.13 0-.172.394-.4.486-.767.358-1.099-.13-.343-.486-.666-.98-.962-.527.059-1.034-.083-1.594-.02-.35.038-.693.115-1.03.227.28.1.527.267.728.504.249.293.427.693.521 1.196.012.06.021.119-.097.143s-.13-.039-.143-.098c-.085-.46-.245-.82-.468-1.084-.234-.335-.77-.465-.938-.533-.56.056-1.111.118-1.591.242-.361.092-.678.22-.921.41.361-.078.737-.063 1.063.1.311.154.575.444.74.915.021.056.04.116-.076.154s-.137-.018-.154-.077c-.14-.406-.359-.649-.617-.776-.512-.255-1.57-.032-2.017.3-.26.195-.521.447-.779.74-.026.032-.056.062-.092.065.96.065 1.926.115 2.672.415zm-2.846-.542c-.02-.054.015-.092.047-.13.27-.306.542-.575.824-.783.272-.201.554-.346.844-.414.296-.33.734-.528 1.244-.658.495-.127 1.06-.193 1.632-.249-.169-.34-.385-.545-.634-.654-.267-.119-.575-.137-.903-.104-.69.237-1.304.607-1.893 1.025.053 0 .107 0 .157.003.175.012.332-.015.477.041.059.02.115.042.074.157-.05.14-.433.054-.566.045a1.69 1.69 0 0 0-.5.047c-.03.006-.057.015-.083.006-.62.382-1.087.77-1.588 1.194.38.133.675.29.868.474z"/>
    </g>
    <path fill="#0093dd" d="m711.17 195.594 25.923-58.758-19.123-30.876-34.102 12.627-15.784 62.1a274.19 274.19 0 0 1 43.082 14.91z"/>
    <path fill="#fff" d="M678.11 141.244a314.594 314.594 0 0 1 49.48 17.126l-10.002 22.68a289.893 289.893 0 0 0-45.586-15.775z"/>
    <path fill="red" d="m719.196 177.407 6.683-15.145a310.646 310.646 0 0 0-48.812-16.895l-3.94 15.494a294.82 294.82 0 0 1 46.3 16.025l-.23.521z"/>
    <path d="M681.878 157.168c.447-.282.924-.214 1.404-.137.388-.145.835-.195 1.32-.177.208-.113.448-.193.72-.243.146-.113.152-.234.021-.364-.121-.149-.19-.294-.198-.442-.77-.447-1.055-1.128-1.348-1.804-.438-.115-.643-.263-.69-.43-.213-.02-.424-.04-.634-.064-.998.11-1.256-.214-1.611-.477-.296-.098-.554-.26-.72-.572-.11-.14-.22-.275-.329-.415-.272-.346-.19-.805.222-.779.29.033.578.033.845-.082.31-.14.776-.137 1.128-.107.418-.024.681-.293 1.087-.673l-.006-.485c-.065-.175.018-.252.249-.228.542.017.865.272 1.084.634.631.11 1.129.411 1.463.941.839.003 1.404.32 1.472.631.05.228-.195.49-.574.768.003.056.006.115.006.171.225.196.373.391.45.584.471.18.921.423 1.342.779 1.2-.14 3.222.731 5.956 2.476 1.775.317 3.496.809 5.148 1.523.35.011.7.02 1.046.032 2.965-.438 5.838-.1 8.504 1.937 1.007.122 1.91.439 2.784.8.649.267 1.31.37 1.976.433a9.91 9.91 0 0 1 3.255.873c1.218.273 2.355.655 3.06 1.508.5.604.38 1.161-.258 1.392-.385.812-1.152.847-2.301.447-.791.146-1.662-.488-2.453-1.084-1.099-.352-2.109-.986-3.107-1.661-.518-.388-1.043-.634-1.552-.744-.4-.086-.758-.142-.998 0-.119.071-.104.113 0 .199a1.6 1.6 0 0 1 .536 1.004c.056.37-.003.796.018 1.25.023.477.31.823.79 1.12.33.2.72.414 1.286.494.27.053.347.21.338.415.15.722.29 1.451.554 2.106.074.186.216.275.43.432.73.527.352 1.117-.315 1.244-.583.516-1.087.862-1.685.998-.477.16-.673-.035-.833-.27a.604.604 0 0 1-.554-.307c-.583-.43-.085-1.176 1.31-.856.03-.163.148-.214.266-.21-.083-.362-.13-.765.027-1.14-.124-.08-.231-.182-.412-.24-.503-.16-.98-.392-1.356-.744-.714-.673-1.83-1.235-2.906-1.801-.889-.045-1.55-.453-2.245-.8l-.942-.012c-.276-.092-.5.003-.667.202-.278.337-.601.281-.983.237-.438-.05-.883-.018-1.321-.024-.216.053-.43.121-.664.124-.494-.026-.977-.032-1.306.243-.272.287-.545.267-.817.16-.205-.095-.353-.195-.439-.302-.343-.071-.566-.157-.64-.26-.577-.164-.74-.327-.713-.49-.768-.183-.403-.787.094-.808.587-.024 1.123.089 1.698.169.482.136 1.078.056 1.472-.3.254-.23.35-.429.66-.6-.992-.066-1.724-.24-2.263-.581-1.451-.915-2.612-1.138-3.536-.362-.246.14-.439.196-.702.095a1.329 1.329 0 0 0-.73-.035c-.523.118-1.042.053-1.566-.137-.767.193-1.531.234-2.298.077-.65.341-1.123.38-1.425.119-.285-.16-.554-.323-.809-.498-.412-.062-.59-.166-.607-.302-.527-.06-.592-.252-.59-.462-.219-.252-.136-.444.083-.607.391-.163.797-.222 1.247.009.27.127.468.252.631.379.3-.036.557 0 .782.083.166-.26.637-.273 1.153-.243.257-.172.565-.293.96-.329a3.25 3.25 0 0 1-.033-.184c-.519-.136-.785-.512-1.043-.891-.797-.015-1.368-.35-1.937-.7-.468.04-.844-.115-1.209-.334-.296.024-.625.036-.936-.044a3.19 3.19 0 0 1-1.75 0c-.388.035-.7-.003-1.02-.033-.363.418-.772.492-1.22.279-.245-.311-.595-.516-1.036-.631-.335-.11-.439-.255-.498-.412-.409-.252-.326-.5.068-.69.297-.142.667-.169 1.23.11.183.068.388.115.619.133z"/>
    <path fill="#fff" d="M701.41 163.121c-.04-.068-.122-.24-.421-.068-.927-.05-1.964-.038-2.743-.497-.812-.477-1.647-.975-2.545-.94.267-.251.599-.423.984-.527.515-.136 1.125-.145 1.8-.035.949.154 1.784.338 2.43.58.622.234 1.06.525 1.253.898a.507.507 0 0 0 .053.06c.249.16.465.322.646.494.136.127.254.26.355.403a3.123 3.123 0 0 1-.892-.054 3.593 3.593 0 0 1-.924-.32z"/>
    <path d="m703.542 118.368.053.279 1.167 6.042-4.641 4.046-.213.187.27.095 5.817 2.01 1.181 6.043.057.279.213-.187 4.65-4.031 5.827 1.996.27.092-.054-.278-1.167-6.046 4.641-4.046.214-.186-.27-.092-5.817-2.014-1.182-6.043-.057-.278-.213.186-4.653 4.034-5.824-1.999z"/>
    <path d="m700.698 128.667 4.337-3.78 5.453 1.879zm10.512-2.041 4.352-3.782 5.435 1.88zm9.826-1.709-4.337 3.78-5.453-1.878zm-10.513 2.044-4.35 3.78-5.436-1.878zm-6.365-8.036 5.441 1.866 1.102 5.66zm7.026 8.08 5.45 1.878 1.09 5.649zm6.392 7.655-5.441-1.864-1.102-5.66zm-7.026-8.081-5.45-1.875-1.09-5.649zm3.777-9.532 1.105 5.646-4.352 3.782zm-3.487 10.124 1.1 5.66-4.346 3.771zm-3.433 9.366-1.104-5.645 4.35-3.783zm3.487-10.124-1.1-5.66 4.346-3.768z" fill="#f7db17"/>
</svg>
