<svg xmlns="http://www.w3.org/2000/svg" viewBox="0 0 600 300">
    <path d="M0 0h600v300H0z" fill="#cf142b"/>
    <path d="M309.846 214.989c.101-.308.306-3.48.204-3.48-.103 0-4.809-5.524-4.706-5.524.102 0 6.036 1.33 6.036 1.125 0-.204 2.353-5.831 2.353-5.934 0-.101 2.865 6.855 2.865 6.855l5.832 2.559-4.093 3.375s.921 6.549.921 6.651c0 .102-4.093-3.888-4.093-3.888l-4.502.511s-.613-2.046-.817-2.25z" font-size="12" fill="#f9dd16" fill-opacity=".988" fill-rule="evenodd" stroke="#000" stroke-width="1.12"/>
    <path d="M278.145 129.01c-3.887 2.003-18.807 19.057-20.854 21.717-1.714 3.862-5.067 8.747-8.521 11.892-3.687 2.789-5.736 6.6-5.228 10.207-.041 4.49 2.476 7.546 4.48 10.705 1.187 1.443 2.784 2.376 4.482 2.489 3.482.46 3.791 1.532 5.534 2.196 6.866 9.348 17.109 16.242 24.486 21.703 4.702 2.478 7.972 4.956 9.092 6.31 2.16 4.123 1.762 8.145 1.466 10.12l-5.476 20.664c-.921 5.627 3.969 4.361 4.232 3.236 2.207-2.865 5.5-.853 10.206-17.427l6.473-8.713s2.49-.996 2.49-1.245c3.786-4.545.903-7.147-1.245-7.966-1.577-.58-3.154-1.162-4.73-1.743 0 0-5.477-5.477-5.726-5.477-2.602-7.57-15.377-23.734-18.344-25.984-2.054-2.14-3.032-3.053-4.981-4.243-2.998-1.434-3.965-1.9-5.802-2.633-1.528-.614-.44-2.292.532-3.06 10.119-5.507 18.14-11.629 27.848-17.852l1.494-.996-3.485-19.916-16.182-5.726c-.849.58-1.493 1.162-2.24 1.743z" font-size="12" fill="#fff" fill-rule="evenodd" stroke="#000" stroke-width="1.3"/>
    <path d="M291.685 233.866c.051-.205 10.128-2.047 10.128-2.047s-1.176 3.735-1.228 3.735l-10.025 3.018 1.125-4.706z" font-size="12" fill="#f9dd16" fill-rule="evenodd"/>
    <path d="M265.425 195.922c1.943-5.166 7.34-9.257 10.964-10.386" font-size="12" fill="none" stroke="#000" stroke-width="1.12"/>
    <path d="M291.323 233.956c.65-.183 3.539-1.026 4.38-1.157.897-.21 1.79-.445 2.654-.723.996-.204 1.62-.391 2.654-.58.81-.309 1.61-.52 2.477-.723m-13.99 9.414c.084-.113.77-.72 1.264-1.013.58-.183 2.567-1.026 3.318-1.157.802-.21 1.6-.445 2.37-.723.89-.204 1.446-.391 2.37-.58.724-.309 1.44-.52 2.213-.723" font-size="12" fill="none" stroke="#000" stroke-width="1.239"/>
    <path d="M293.59 197.385h-.144c.453 0 .174-.038-.435.723-.217.585-2.074 1.88-3.472 1.88a26.43 26.43 0 0 1-2.388.145c-.192 0-.458-.144-.651-.144m6.946 27.202h.722c.75 0 1.504.134 2.171.145.724 0 1.447.205 2.17.205.731.103 1.61.07 2.366.177.847.029 1.527.196 2.409.196.71.027 1.094.145 1.882.145l-1.882-.145c.71.027 1.094.145 1.882.145m-16.64 16.784c.077-.113.706-.72 1.157-1.013.532-.183 2.35-1.026 3.039-1.157a23.79 23.79 0 0 0 2.17-.724c.815-.203 1.324-.39 2.17-.579.664-.309 1.318-.52 2.026-.723m2.987-20.954c-.409 1.189.121 1.487.34 2 .382.496 1.356 1.254 2.895 1.736.593.16 1.05.316 1.736.579.455.042.679.155 1.013.289m-63.229-48.182h.144c-.454 0-.182.03.579-.579.47-.525.862-.763 1.302-1.302m7.343 12.189c.097 0 8.417-4.194 9.305-5.09.63-.456 1.106-.938 1.872-1.456.49-.256.843-.585 1.303-.868.382-.554.881-.889 1.157-1.395.51-.443.291-.923.706-1.457.196-.546.562-1.466.681-1.966m10.598 6.223c.045.299-.133 1.22-.12 1.923-.03.813-1.075 3.326-2.34 4.076" font-size="12" fill="none" stroke="#000" stroke-width="1.12"/>
    <path d="M264.87 180.32c.05 0 1.316.412 3.433 1.064 2.548.916 7.847 4.255 8.374 4.715.537.423 1.497.8 1.865 1.302.576.497.998 1.071 1.447 1.591.529.645.98 1.19 1.302 1.737 1.61 1.305 5.938 10.341 6.077 10.852.243.477.544 1.142.723 1.591.321.37.54.893.869 1.447.302.72.64 1.048 1.013 1.592.48.333 1.125.965 1.736 1.302.652.558 1.264.785 1.737 1.158.682.29 8.308 5.11 8.661 5.351.697.56 2.824 2.765 1.33 4.368-.633.542-1.204 1.26-1.745 1.566-.551.553-1.318.8-1.952 1.085-3.435 1.016-5.185.652-5.86.652h-.724m-45.127-58.42c.976.383.582.1 1.461.5.59.26.98.266 1.56.478.617.197 2.338.507 3.165 1.338.606.548 1.07 1.01 1.736 1.41.788.544 1.357.786 2.335 1.194.824.308 1.746.65 2.58.68.866.05 1.074.007 1.905.007h2.026-2.026 2.026" font-size="12" fill="none" stroke="#000" stroke-width="1.12"/>
    <path d="M247.796 172.932c2.17-.145 5.787.507 5.859.507l4.775-.073c2.509-.242 3.062-1.206 3.473-1.881.94-1.447 1.591-1.953 2.315-3.038 1.157-.868 2.75 1.157 2.822 1.157 4.05 3.835.795 8.537.578 8.681-2.025 1.857-2.46 1.978-3.69.796-1.23-1.447-1.591-2.098-2.604-2.604-1.953-.94-6.004-.217-6.077-.217-.073 0-2.098.796-2.098.796-.989.361-1.616 1.23-3.328 1.518-1.736.121-2.315-.048-3.183-1.446-1.157-1.809-.58-3.98 1.158-4.196z" font-size="12" fill="#ffe606" fill-rule="evenodd" stroke="#000" stroke-width="1.12"/>
    <path d="M361.08 85.175c-.319.063-3.184 1.438-3.134 1.527.05.09-2.459 6.9-2.509 6.81-.05-.09-1.799-5.914-1.977-5.813-.178.1-6.237.807-6.326.857-.089.05 4.571-5.857 4.571-5.857l-.628-6.337 4.948 1.913s5.257-4.012 5.346-4.062c.089-.05-1.383 5.473-1.383 5.473l2.652 3.674s-1.483 1.537-1.56 1.815z" font-size="12" fill="#f9dd16" fill-opacity=".988" fill-rule="evenodd" stroke="#000" stroke-width="1.12"/>
    <path d="M301.67 154.944c3.65 2.408 25.829 7.055 29.15 7.535 4.206-.398 10.108.131 14.542 1.6 4.238 1.847 8.563 1.766 11.46-.445 3.933-2.164 5.364-5.856 7.134-9.152.677-1.741.707-3.59-.026-5.126-1.306-3.26-.523-4.056-.798-5.9 4.784-10.567 5.773-22.874 6.918-31.98-.144-5.313.413-9.378 1.044-11.018 2.536-3.903 6.236-5.528 8.103-6.238l20.696-5.353c5.356-1.955 1.857-5.597.747-5.275-3.58-.52-3.44-4.377-20.193-.356l-10.767-1.372s-2.089-1.682-2.305-1.56c-5.818-1.073-6.673 2.715-6.334 4.99l.799 4.976s-2.09 7.458-1.968 7.675c-5.324 5.98-13.25 25.179-13.757 28.869-.24 3.467-1.55 2.84-1.198 6.21.013 2.634-.293.99.586 6.415.214 1.633-1.782 1.507-2.927 1.035-9.76-6.12-19.027-10.112-29.21-15.524l-1.6-.814-15.652 12.798 2.939 16.912c.922.455 1.745.732 2.617 1.098z" font-size="12" fill="#fff" fill-rule="evenodd" stroke="#000" stroke-width="1.3"/>
    <path d="M386.434 91.754c-.203.056-6.748-7.825-6.748-7.825s3.832-.805 3.857-.76l7.545 7.26-4.654 1.325z" font-size="12" fill="#f9dd16" fill-rule="evenodd"/>
    <path d="M366.23 133.24c-5.457.838-11.667-1.86-14.428-4.467" font-size="12" fill="none" stroke="#000" stroke-width="1.12"/>
    <path d="M386.69 92.026c-.478-.478-2.628-2.582-3.155-3.251a33.76 33.76 0 0 0-1.931-1.959c-.666-.768-1.135-1.22-1.806-2.03-.666-.554-1.243-1.148-1.845-1.804m15.063 7.58c-.14-.018-1.005-.319-1.503-.605-.444-.416-2.152-1.734-2.634-2.325a27.603 27.603 0 0 0-1.792-1.711c-.614-.676-1.05-1.07-1.667-1.783-.624-.479-1.16-.999-1.715-1.573" font-size="12" fill="none" stroke="#000" stroke-width="1.239"/>
    <path d="m353.7 107.973.071.126c-.222-.395-.118-.134.844.024.616-.098 2.656.886 3.341 2.105.394.553.965 1.421 1.296 2.01.095.168.099.47.194.639m20.307-19.387-.07-.125-.284-.504c-.368-.654-.62-1.376-.938-1.963-.355-.631-.53-1.362-.885-1.993-.268-.687-.728-1.438-1.005-2.149-.39-.752-.578-1.427-1.01-2.195-.325-.633-.41-1.025-.795-1.712l.795 1.712c-.325-.633-.41-1.025-.795-1.712m22.784 6.279c-.136-.012-.973-.262-1.45-.512-.42-.374-2.046-1.546-2.497-2.082a23.79 23.79 0 0 0-1.695-1.537c-.576-.61-.99-.963-1.568-1.608-.595-.426-1.1-.893-1.623-1.41m-19.729 7.664c1.236-.226 1.237-.834 1.576-1.277.246-.576.429-1.796.095-3.373a16.262 16.262 0 0 1-.346-1.798c-.186-.416-.197-.667-.245-1.024m-11.01 78.729-.071-.126c.222.396.114.144-.789-.221-.688-.152-1.087-.378-1.772-.497m7.024-12.374c-.047-.084-7.78-5.282-8.996-5.617-.706-.325-1.36-.505-2.187-.918-.464-.302-.923-.448-1.395-.71-.67-.062-1.206-.333-1.783-.325-.636-.228-.947.198-1.615.099-.573.097-1.554.228-2.049.37m.231-12.288c.239-.186 1.13-.483 1.735-.837.723-.374 3.426-.694 4.7.041" font-size="12" fill="none" stroke="#000" stroke-width="1.12"/>
    <path d="M352.901 141.37c-.024-.043-.285-1.349-.755-3.513-.45-2.67-.137-8.927.006-9.61.106-.676-.036-1.698.22-2.265.152-.745.446-1.394.679-2.041.303-.777.557-1.437.875-1.986.35-2.042 6.105-10.244 6.481-10.615.298-.446.73-1.034 1.033-1.41.165-.462.514-.908.836-1.467.48-.616.599-1.072.891-1.663.055-.58.29-1.453.284-2.152.167-.842.065-1.486.158-2.08-.081-.738.383-9.747.42-10.174.147-.881 1.026-3.816 3.155-3.3.783.287 1.688.433 2.221.754.752.21 1.343.758 1.903 1.17 2.568 2.497 3.108 4.2 3.44 4.79l.354.63m-28.845 67.675-.07-.126c.19.34.085.171-.159-.575-.063-.642-.261-1.51-.361-2.12-.13-.634-.427-1.356-.347-1.798-.227-.643-.084-1.175-.023-1.813.18-.797.262-1.374.284-2.15.087-.955.017-1.63.071-2.531-.25-.742-.302-1.363-.685-2.104-.34-.71-.601-1.365-1.009-2.09l-.993-1.766.993 1.767c-.33-.59-.662-1.178-.993-1.767" font-size="12" fill="none" stroke="#000" stroke-width="1.12"/>
    <path d="M354.829 159.874c-1.19-1.82-2.395-5.292-2.43-5.355l-2.403-4.127c-1.44-2.068-2.552-2.079-3.342-2.105-1.722-.11-2.483-.43-3.783-.53-1.324-.583-.339-2.963-.374-3.026 1.357-5.41 7.051-4.877 7.284-4.759 2.611.855 2.929 1.175 2.501 2.826-.658 1.782-1.048 2.415-.993 3.547.137 2.163 2.753 5.34 2.79 5.404.035.063 1.72 1.438 1.72 1.438.8.685 1.865.806 2.956 2.157.956 1.454 1.092 2.041.299 3.483-1.01 1.895-3.185 2.455-4.225 1.047z" font-size="12" fill="#f9dd16" fill-rule="evenodd" stroke="#000" stroke-width="1.12"/>
    <path d="M220.481 109.588c.226.232 2.947 1.875 2.994 1.784s7.119-1.722 7.072-1.631c-.048.09-3.963 4.744-3.78 4.839.18.094 4.09 4.775 4.182 4.822.09.047-7.404-.616-7.404-.616l-4.958 3.997-1.11-5.188s-6.236-2.2-6.327-2.247c-.09-.047 5.337-1.84 5.337-1.84l1.62-4.232s2.099.399 2.374.312z" fill="#f9dd16" fill-opacity=".988" fill-rule="evenodd" stroke="#000" stroke-width="1.121"/>
    <path d="M311.394 121.07c.015-4.373-8.246-25.473-9.664-28.515-2.637-3.3-5.428-8.527-6.627-13.042-.777-4.557-3.215-8.131-6.65-9.343-3.966-2.105-7.838-1.28-11.566-.956-1.827.389-3.39 1.376-4.274 2.83-2.012 2.88-3.107 2.66-4.499 3.9-11.46 1.787-22.298 7.7-30.544 11.731-4.366 3.031-8.072 4.792-9.79 5.162-4.654.017-8.04-2.189-9.657-3.362l-15.816-14.381c-4.57-3.41-5.7 1.513-4.822 2.264 1.526 3.28-1.777 5.275 10.764 17.089l4.75 9.76s-.263 2.668-.042 2.783c2.29 5.454 5.927 4.095 7.643 2.565l3.727-3.395s7.384-2.337 7.499-2.558c7.918 1.179 28.322-2.708 31.687-4.305 3.032-1.698 3.226-.26 5.852-2.4 2.196-1.453.989-.296 5.046-4.004 1.249-1.074 2.237.666 2.47 1.882.226 11.518 1.963 21.457 3.013 32.942l.195 1.784 19.281 6.083 12.539-11.722c-.124-1.021-.344-1.861-.515-2.792z" fill="#fff" fill-rule="evenodd" stroke="#000" stroke-width="1.3"/>
    <path d="M212.094 84.771c.158.14-2.85 9.932-2.85 9.932s-2.773-2.765-2.75-2.81l1.942-10.29 3.658 3.168z" fill="#f9dd16" fill-rule="evenodd"/>
    <path d="M257.871 78.949c3.69 4.106 4.834 10.78 4.166 14.517" fill="none" stroke="#000" stroke-width="1.121"/>
    <path d="M212.182 84.408c-.137.662-.72 3.614-.99 4.421-.228.893-.43 1.795-.582 2.689-.278.977-.399 1.617-.709 2.622-.098.862-.28 1.67-.499 2.532m-1.909-16.754c.061.127.284 1.016.317 1.589-.105.6-.272 2.75-.502 3.478a27.602 27.602 0 0 0-.45 2.436c-.23.884-.32 1.464-.578 2.371-.06.785-.201 1.517-.377 2.297" font-size="12" fill="none" stroke="#000" stroke-width="1.239"/>
    <path d="m243.595 103.272.067-.128c-.209.402-.047.173-.442-.719-.42-.462-.713-2.707-.07-3.949a26.69 26.69 0 0 1 .973-2.185c.088-.17.339-.34.428-.512m-27.343-6.37-.066.129-.267.513c-.346.666-.811 1.273-1.128 1.86-.334.642-.85 1.19-1.183 1.832-.428.6-.803 1.397-1.247 2.018-.416.739-.877 1.265-1.284 2.047-.351.619-.633.904-.996 1.603l.996-1.603c-.351.619-.633.904-.996 1.603m-7.228-22.5c.065.12.313.957.366 1.493-.083.556-.173 2.559-.373 3.23a23.79 23.79 0 0 0-.358 2.26c-.195.816-.264 1.355-.486 2.192-.031.731-.145 1.41-.291 2.131m17.22 12.307c-.867-.911-1.376-.578-1.932-.62-.617.11-1.737.626-2.875 1.77-.415.452-.764.785-1.313 1.273-.247.385-.45.53-.724.766m71.897-33.916-.067.128c.21-.403.058-.174.247.78.25.66.28 1.118.556 1.756m-14.2.901c-.045.086-.157 9.403.228 10.604.115.77.323 1.414.43 2.332.002.554.131 1.018.17 1.556.316.595.383 1.192.706 1.67.157.658.684.684.967 1.298.395.425 1.042 1.174 1.431 1.51m-10.406 6.538c-.286-.097-1.022-.68-1.65-.992-.71-.4-2.458-2.487-2.54-3.955" fill="none" stroke="#000" stroke-width="1.121"/>
    <path d="M271.973 85.646c-.022.044-.971.978-2.525 2.556-1.987 1.84-7.393 5.004-8.043 5.26-.623.281-1.4.96-2.015 1.055-.707.282-1.41.392-2.08.551-.815.172-1.507.32-2.14.356-1.9.827-11.915.505-12.432.393a22.198 22.198 0 0 1-1.746-.092c-.476.115-1.04.067-1.684.104-.778-.063-1.225.087-1.88.166-.516.272-1.374.553-1.955.941-.796.322-1.279.76-1.828 1.007-.571.473-8.363 5.02-8.74 5.222-.818.36-3.755 1.233-4.49-.832-.189-.812-.563-1.649-.586-2.27-.236-.744-.101-1.54-.063-2.233.682-3.517 1.811-4.902 2.122-5.502l.334-.642m72.418-12.94-.066.128c.18-.347.096-.165-.395.447-.502.405-1.12 1.047-1.576 1.464-.459.456-.9 1.1-1.314 1.275-.414.542-.937.714-1.504 1.012a10.21 10.21 0 0 0-1.955.941c-.846.45-1.372.878-2.156 1.327-.483.616-.975 1-1.385 1.726-.406.673-.812 1.25-1.195 1.988l-.934 1.798.934-1.798-.934 1.798m5.97 37.172.134-.257c-.247.475-.16.35.071-.451.002-.962.23-2.126.24-2.974.145-.899.291-1.869.3-2.779-.054-1.064-.052-2.017-.211-3.044-.012-.945-.123-1.924-.151-2.85-.017-.917-.086-1.702-.285-2.592-.018-.667-.06-1.582-.221-2.398.087-.644-.097-1.236-.233-1.751-.25-.992-.346-1.57-.608-2.598-.157-.55-.312-1.255-.55-2.08-.086-.78-.504-1.795-.674-2.469-.232-.495-.467-1.166-.556-1.755-.244-.544-.59-1.208-.685-1.823-.256-.47-.529-1.199-.812-1.89-.244-.567-.424-1.266-.684-1.821-.262-.703-.582-1.303-.746-2.018-.25-.243-.307-.51-.442-.718" fill="none" stroke="#000" stroke-width="1.121"/>
    <path d="M286.398 73.897c-.871 1.992-3.116 4.902-3.15 4.966l-2.135 4.271c-.941 2.338-.341 3.274.07 3.95.85 1.5 1 2.312 1.63 3.454.236 1.427-2.295 1.907-2.328 1.971-5.27 1.828-7.943-3.228-7.971-3.487-.715-2.653-.622-3.094.993-3.64 1.852-.426 2.595-.447 3.512-1.112 1.734-1.3 2.959-5.23 2.993-5.294.033-.064.26-2.228.26-2.228.135-1.045-.347-2.002.185-3.654.693-1.596 1.11-2.032 2.75-2.159 2.14-.193 3.8 1.32 3.191 2.962z" fill="#f9dd16" fill-rule="evenodd" stroke="#000" stroke-width="1.121"/>
    <path d="M279.483 125.329c-.797-.723 14.975 5.715 17.145 5.788 2.966-1.085 15.193-11.43 15.193-11.43.12 1.012.554 3.64 1.735 4.196-4.726 3.834-9.019 7.523-13.745 11.357.338 6.077-.771 12.516 2.315 19.317 0 0-3.689.071-3.689 0-3.255-3.256-4.414-18.955-4.414-18.955-5.184-2.315-10.37-4.557-15.553-6.872.747-.483 1.35-1.978 1.013-3.401z" font-size="12" fill="#f9dd16" fill-opacity=".987" fill-rule="evenodd" stroke="#000" stroke-width="1.12"/>
    <path d="M294.488 141.421c.252-.182-2.845 1.44-3.64 1.846-14.329 7.644-21.702 18.762-22.162 19.182-.247.473-.703 1.105-1.12 1.724-.336.519-.818 1.056-1.136 1.58-.439.608-1.362 1.809-1.866 2.342-.063.343.24-.118.14.11m39.574-35.867c-.278-.14 2.581 1.872 3.307 2.392 13.35 9.246 26.61 10.718 27.194 10.934.534.004 1.305.12 2.046.208.615.062 1.312.245 1.925.287.74.112 2.23.384 2.935.588.334-.101-.213-.158.035-.175" font-size="12" fill="none" stroke="#000" stroke-width="1.12"/>
</svg>
