<svg xmlns="http://www.w3.org/2000/svg" xmlns:xlink="http://www.w3.org/1999/xlink" viewBox="0 0 1200 600">
    <clipPath id="a">
        <path d="M0 0v150h700v150H600zm600 0H300v350H0v-50z"/>
    </clipPath>
    <path fill="#00247d" d="M0 0h1200v600H0z"/>
    <path d="m0 0 600 300m0-300L0 300" stroke="#fff" stroke-width="60"/>
    <path d="m0 0 600 300m0-300L0 300" stroke="#cf142b" stroke-width="40" clip-path="url(#a)"/>
    <path d="M300 0v350M0 150h700" stroke="#fff" stroke-width="100"/>
    <path d="M300 0v350M0 150h700" stroke="#cf142b" stroke-width="60"/>
    <path d="M0 300h600V0h600v600H0z" fill="#00247d"/>
    <g stroke="#000" stroke-width="1.438">
        <g stroke="#fff" stroke-width="9.6" stroke-linejoin="round">
            <use xlink:href="#b"/>
            <use xlink:href="#c"/>
            <use xlink:href="#d"/>
            <use xlink:href="#e"/>
            <use xlink:href="#f"/>
            <use xlink:href="#g"/>
            <use xlink:href="#h"/>
        </g>
        <g id="c" fill="#fcea83">
            <path d="M754.417 449.563c2.875 7.668 23.483 17.732 47.444 4.792 16.294-9.105 26.838-22.044 36.901-45.048 2.876-5.75 4.313-12.94-2.396-17.252-5.271-3.834-13.898-8.147-17.732-11.981-1.916-1.917-3.833-3.355-5.271-4.793.958.959 1.917 1.917 2.875 3.355 9.585 11.502-.479 28.275-11.022 38.339-7.668 7.188-21.566 24.92-41.694 8.147-4.313-3.834-14.377 11.98-9.105 24.44zm291.373 0c-3.355 7.668-23.962 17.732-47.444 4.792-16.294-9.105-26.838-22.044-37.38-45.048-2.397-5.75-3.835-12.94 2.875-17.252 5.271-3.834 13.898-8.147 17.731-11.981 1.917-1.917 3.355-3.355 5.272-4.793-.959.959-1.917 1.917-2.875 3.355-9.585 11.502.479 28.275 10.543 38.339 7.667 7.188 22.045 24.92 42.172 8.147 4.314-3.834 13.898 11.98 9.106 24.44z"/>
            <path d="M900.105 490.778c38.339 0 97.285-17.253 128.914-77.636 5.272-10.064 0-15.336-6.23-18.69-6.71-2.876-14.856-9.585-19.17-13.898 7.668 7.668 6.23 12.94.96 21.566-24.442 40.735-57.988 61.342-104.474 61.342-46.486 0-80.032-20.607-104.473-61.342-5.271-8.627-6.71-13.898.48-21.566-3.835 4.313-12.46 11.022-19.17 13.898-6.23 3.354-11.502 8.626-6.23 18.69 31.63 60.384 91.054 77.636 129.394 77.636z"/>
        </g>
        <path d="M811.446 409.787c-.958-4.792-7.189-2.875-9.105 2.875-2.397-3.354-4.793-6.709-6.71-10.543-5.75-8.626-6.71-14.377 1.438-22.524 3.834-3.834 11.502-8.147 16.773-3.355 11.023 9.106 5.272 23.962-2.396 33.547zm176.838 0c.958-4.792 7.668-2.875 9.585 2.875 2.396-3.354 4.792-6.709 6.709-10.543 5.75-8.626 6.71-14.377-1.917-22.524-3.355-3.834-11.022-8.147-16.773-3.355-10.543 9.106-5.272 23.962 2.396 33.547zm-233.867 39.776c-4.792-7.189-8.626-25.879-9.585-30.671-1.437-4.313-1.917-8.147 3.355-10.064 5.272-1.917 10.064 4.792 12.46 10.543 2.396 5.751 6.23 14.377 10.543 24.92-10.543-6.23-19.17-1.917-16.773 5.272zm291.373 0c4.313-7.189 8.147-25.879 9.585-30.671.958-4.313 1.917-8.147-3.355-10.064-5.271-1.917-10.064 4.792-12.46 10.543-2.396 5.751-6.23 14.377-10.543 24.92 10.543-6.23 18.69-1.917 16.773 5.272z" id="d" fill="#db161c"/>
        <g fill="#00493d" stroke="none">
            <path d="m782.213 406.432-3.834 1.917c-.958.48-.958 1.438-.958 1.917h-.48l-1.917-4.313h.48c0 .479.479.958 1.437.479l8.147-4.313c.959-.48.959-.959.48-1.438l.479-.48 2.396 4.793h-.48c-.478-.479-.958-.958-1.916-.479l-3.355 1.917 1.438 2.875 3.834-1.437c.958-.48.48-1.438.48-1.917h.478l1.917 4.313c-.479-.48-.958-.959-1.917-.48l-8.147 4.314c-.958.479-.958.958-.479 1.437l-.48.48-2.395-4.313.479-.48c.48.48.958.959 1.917.48l3.834-1.917-1.438-3.355zm8.147 6.23c.958-.48.958-.958.48-1.917h.478l4.793 7.189-3.355 2.396v-.48c1.917-1.437 1.917-3.354 1.438-3.833-.48-.48-.959-.959-.959-1.438-.479 0-.479-.48-1.437.48-.48.478-3.355 2.395-3.355 2.395.48.48.959 1.917 3.355.48h.479l-5.272 3.833v-.479c2.397-1.917 1.438-3.354.959-3.834l-3.355 2.397c-.958.479-.958.958-.958 1.437.479 0 .479.48.958.959.48.958 1.917 1.917 4.313.958l.48.48-3.834 1.437-4.793-7.668h.48c.479.48.958.959 1.916.48l7.189-5.272zm7.667 18.211-3.355 2.875c-.479.48-.479 1.438 0 1.917h-.479l-3.355-3.354.48-.48c.479.48.958.959 1.917 0l6.23-6.23c.958-.479.958-.958.479-1.917l3.355 3.834c-.48-.479-1.438-.479-1.917 0l-2.876 2.876 2.396 2.396 2.876-2.396c.958-.959.48-1.438 0-1.917l.48-.48 3.354 3.834h-.48c-.479 0-.958-.479-1.916.48l-6.23 5.75c-.959.959-.959 1.438-.48 1.917v.48l-3.354-3.834c.479 0 1.437.48 1.917 0l3.354-3.355-2.396-2.396zm7.189 10.064 1.438 1.438 1.917-4.313s-1.438.479-3.834 1.917l.479.958-.48.48-.958-.96c-.479.48-.958.48-1.437.96-1.438.958-.959 1.437-.48 1.916v.48l-2.396-2.397h.48l1.916-.479 9.585-5.272.48.48s-.48.479-4.793 10.064c0 .958-.48 1.437 0 2.396l-3.834-3.355.48-.48c.479.96 1.437.96 1.916 0 0-.478.48-1.437.48-1.916l-1.438-1.438.479-.479zm3.834 9.585.48-.48c.478.48.958.48 1.916 0l6.23-8.146-.479-.48c-.958-.479-2.396-.479-3.834.959v-.48l1.917-2.395 7.189 5.271-2.397 2.876h-.479c1.438-1.438.959-3.355 0-3.834v-.48l-6.23 8.147c-.958.48-.48 1.438 0 1.917h-.48l-3.833-2.875z"/>
            <path d="m821.51 452.439-2.396 3.355c-.48.958 0 1.437.479 1.917l-.48.479-3.833-2.876v-.479c.958.48 1.438.48 1.917-.48l5.271-7.188c.48-.958 0-1.437-.479-1.917l.48-.479 3.833 2.876v.479c-.958-.48-1.437-.48-1.917.48l-2.396 3.354 2.876 1.917 2.396-3.355c.48-.958 0-1.438-.48-1.917l.48-.48 3.834 2.876v.48c-.48-.48-1.438-.48-1.917.479l-4.793 7.668c-.958.479-.479.958 0 1.437v.48l-4.313-2.876h.48c.479 0 .958 0 1.437-.48l2.396-3.833-2.875-1.917zm9.585 13.418.48-.48c.478.48 1.437.48 1.916-.478l3.834-8.147c.48-.959 0-1.438-.48-1.917l8.148 3.833-1.917 3.834-.48-.479c1.438-1.917 0-3.834-.479-4.313-.479 0-.958-.48-1.437-.48s-.48 0-.959.96c-.479.478-1.917 3.354-1.917 3.354.48.48 1.438 1.438 3.355-.959h.48l-2.876 5.751-.48-.479c1.438-2.875-.479-3.355-.958-3.355l-1.917 3.834c-.48.959 0 1.438.48 1.438v.48l-4.793-2.397zm13.897 6.71c-1.438-.958-1.438-3.834 0-6.71.958-2.875 2.875-5.27 4.792-4.312 1.438.479.959 3.354 0 6.23-1.437 3.354-3.354 5.271-4.792 4.792h-.48c3.355 1.438 5.752-.48 7.19-3.834 1.437-2.875.958-6.23-1.918-7.668-2.875-1.437-5.75.48-7.188 3.834-1.438 3.355-.959 6.71 1.917 7.668h.479zm14.857.958 1.917-5.75c.48-.96 0-1.439-.48-1.918l2.397.48v.479c-.48 0-.959 0-1.438.958l-1.917 5.751c-.958 2.396-2.396 4.313-5.271 3.355-1.917-.48-3.355-2.876-2.397-5.272l2.397-6.23c.479-.958 0-1.438-.48-1.917v-.48l4.314 1.918v.479c-.48-.48-1.438-.48-1.438.48l-2.396 6.23c-.48 1.916-.48 3.833.958 4.312 1.438.48 2.876-.479 3.834-2.875z"/>
            <path d="M864.162 467.295c0-.48 0-.48-.48-.48l3.355.48 2.876 9.105 1.438-5.75c.479-.959 0-1.438-.48-1.917l2.876.479-.48.48c-.479 0-.958 0-1.437.958l-2.396 10.543h-.48l-3.834-11.502-2.396 7.668c0 1.438.48 1.438.959 1.917v.48l-2.876-.96v-.479c.48.48 1.438 0 1.438-.958l2.396-8.626-.479-1.438z"/>
            <path d="M880.456 476.88c-.958 4.313-2.875 5.272-3.834 5.272h-.958s-.48-.48 0-.959l1.437-9.585c.48-.479.48-.958.959-.479h.958c.959 0 1.917 1.917 1.438 5.751l1.438.48c.958-4.793-.959-6.71-3.355-7.19-1.917-.479-4.792-.958-4.792-.958v.48c.479.479 1.437.479.958 1.916l-1.438 8.627c-.479.958-.958 1.437-1.437 1.437h-.48l4.793.959c2.396.48 4.792 0 5.75-5.272l-1.437-.479zm4.313-3.834c0-.958-.958-1.438-1.438-1.438v-.479l8.627.959-.48 3.833c0-2.396-1.437-3.354-2.396-3.354-.48-.48-.958-.48-1.438-.48-.479 0-.479 0-.479 1.438 0 .48-.48 3.834-.48 3.834.48 0 1.918.48 2.876-2.396l-.479 6.23h-.48c0-2.875-1.437-2.875-1.916-2.875l-.48 4.313c0 .958 0 .958.48.958l.958.48c1.438 0 2.876-.48 3.834-3.355h.48l-.959 3.834-9.105-.959c.958 0 1.437-.48 1.917-1.438l.958-9.105zm15.815 5.751c0 4.313-1.438 5.75-2.875 5.75-.48-.478-.48-.478-.959-.478l-.48-.48.48-10.064c0-.479 0-.479.48-.479h.958c.958 0 2.396 1.438 2.396 5.751h1.917c0-4.792-2.396-6.23-4.792-6.23-1.917-.48-4.793-.48-4.793-.48v.48c.48 0 1.438.48 1.438 1.438l-.48 9.105c0 .959-.479 1.438-.958 1.438v.48h4.313c2.397 0 4.793-.96 5.272-6.231h-1.917zm13.898 3.834c0 .958.48.958 1.438.958v.48l-5.272.479c.48-.48 1.438-.959 1.438-1.917l-.959-9.105c-.479-.959-.958-.959-1.917-.959v-.48l5.272-.478c-.48.479-1.438.958-.958 1.917l.958 9.105zm4.792.958v-.48c.48 0 .958-.478.958-1.437l-1.916-10.064h-.48c-.958.48-1.917 1.438-1.437 3.355h-.48l-.479-3.355 8.626-1.438.48 3.355h-.48c0-1.917-1.437-2.396-2.875-2.396h-.48l1.918 10.064c0 .958.479 1.438 1.437 1.438v.479l-4.792.479zm20.607-9.585-1.917-5.75c0-.96-.958-.96-1.438-.96v-.479l2.397-.958v.48c-.48.478-.48.478-.48 1.437l1.917 6.23c.48 1.917.48 4.792-2.396 5.75-1.917.48-4.313-.478-4.792-3.354l-1.917-6.23c-.48-.958-.959-.958-1.438-.958l-.48-.48 4.793-1.437v.479c-.48.48-.958.958-.48 1.917l1.439 6.23c.479 1.917 1.917 2.875 3.354 2.875 1.438-.479 1.917-2.396 1.438-4.792zm5.272-3.354c2.396-.958 1.917-2.396 1.438-3.834-.48-1.438-1.438-2.396-2.396-1.917-.48 0-.959.48-.48.959l1.438 4.792.48.48.958 3.833c.479.959 1.437.959 1.917.48v.479l-4.313 1.917-.48-.48c.959-.479.959-.958.959-1.917l-3.355-8.147c-.48-1.437-.958-.958-1.917-.958v-.48l4.793-1.916c1.916-.48 3.833 0 4.792 1.917.48 2.396-.48 3.834-2.396 4.792-.48 0-.959.48-.959.48l-.479-.48zm11.981 1.437c-1.438.48-3.355-1.438-4.792-4.792-1.438-2.876-1.438-5.751 0-6.23 1.437-.48 3.354 1.437 4.792 4.313s1.438 5.75 0 6.709c2.875-.958 3.834-4.313 2.396-7.668-1.438-2.875-4.313-4.792-7.188-3.834-2.876 1.438-3.834 4.793-2.397 7.668 1.438 3.355 4.314 5.272 7.189 3.834zm.479-13.418h-.958l2.875-1.917 8.626 4.792-2.875-5.271c-.48-.959-1.438-.959-1.917-.959v-.479l2.396-.958c-.48.479-.958.958 0 1.917l4.792 9.584-.479.48-10.543-5.751 3.834 7.188c.479.959 1.438.959 1.917.48v.479l-2.396 1.437v-.479c.479-.48.479-.958 0-1.917l-3.834-7.668-1.438-.958zm21.565 1.438v-.48c0-.478.48-.958 0-1.916l-5.75-8.147h-.48c-.959.48-1.438 2.396 0 3.834l-.48.479-1.916-3.355 7.188-4.792 1.917 2.875c-1.437-1.437-2.875-1.437-3.834-.958l-.479.48 5.75 8.146c.48.959 1.439.959 1.918.48v.479l-3.834 2.875zm5.272-11.502 2.875 3.355c.48.479 1.438.479 1.917 0v.479l-3.834 3.355v-.48c.48-.479.48-.958 0-1.917l-5.75-7.188c-.48-.959-.959-.48-1.917-.48l3.834-3.354v.48c0 .478-.48.958 0 1.916l2.396 2.876 2.875-1.917-2.396-3.355c-.48-.959-1.438-.48-1.917-.48l3.834-3.354v.48c-.48.479-.48.958 0 1.916l5.75 7.189c.48.479.96.479 1.438 0l.48.479-3.834 3.355-.48-.48c.48-.479.96-.958.48-1.917l-2.876-3.354-2.875 2.396zm4.313-10.064c-.48-.48-1.438-.48-1.917 0v-.48l6.23-5.75 2.876 2.875h-.48c-1.437-1.917-3.354-.958-4.313-.479 0 .48-.48.48-.958.959 0 0 0 .479.479 1.437l2.875 2.876c.48-.48 1.917-1.438 0-3.834h.48l3.833 4.313v.48c-2.396-2.397-3.354-.96-3.833-.48l2.875 2.875c.48.959.958.959.958.959l1.438-1.438c.48-.48.959-1.917 0-4.792h.48l1.916 3.354-6.23 6.23-.479-.479c.48-.479.959-.958 0-1.917l-6.23-6.709zm11.497-13.419c-.48.48-.48 1.438.48 1.917.958.958 1.916.958 3.833 0 .959-.48 2.876-.959 4.313.48 2.396 2.395 1.438 4.312.959 5.27-.48.48-1.438.96-1.917 1.438-.48 0-.48 0-.48.48v.479l-3.354-2.875h.48c1.916.958 3.833 1.437 4.791 0 .959-.959 0-1.917-.479-2.397-.958-.958-1.917-.958-3.354 0-1.438.48-3.355.48-4.793-.479-1.917-1.917-1.917-3.355-.958-4.792.479-.48 1.438-.959 1.917-1.438.479 0 .479 0 0-.958l3.354 2.396h-.479c-2.396-.959-3.834-.48-4.313.479zm4.32-3.834c-.958-.48-1.438 0-1.917.48h-.48l5.273-7.669 3.354 2.397-.48.479c-1.916-1.438-3.833-.48-4.312 0 0 .48-.48.958-.48 1.438-.479 0-.479.479.48.958.479.48 3.354 2.396 3.354 2.396.48-.479 1.438-1.437-.479-3.354v-.48l4.792 3.834c-2.875-1.437-3.354 0-3.833.48l3.354 2.396c.959.479 1.438.479 1.438.479 0-.48.48-.959.958-1.438.48-.958.959-2.396-.958-4.313l.48-.48 2.395 2.876-4.792 7.189h-.48c.48-.959.48-1.438-.478-2.396l-7.189-5.272zm12.94-8.626-1.438 2.396c-1.917-1.917-2.875-3.354-2.875-3.354l4.313.958h.959c.479 0 1.437.48 1.916.48 1.438.478.959.958.48 1.916h.479l2.396-4.313c-.958.959-1.438.48-2.396.48-10.064-1.918-11.023-2.397-11.023-2.397v.48l7.668 8.626c.48.479.48 1.437.48 1.917h.479l1.437-2.397-.479-.479c-.48.959-.958 1.438-1.917 0l-.958-.958 1.437-3.355h-.958zm-2.88-10.543c-.48.48-.48 1.438.959 1.917 1.437.48 1.916 0 3.354-.959 1.438-.958 2.875-1.916 4.792-.958 2.876 1.438 2.397 3.834 1.917 4.792-.479.48-.958 1.438-1.437 1.917v.959l-3.834-1.917c2.396.48 4.313 0 4.792-1.438.48-.958-.48-1.917-.958-2.396-.959-.48-1.917 0-3.355.958-1.438 1.438-2.875 1.917-4.792.959-1.917-.959-2.876-2.396-1.917-3.834 0-.958.958-1.438 1.438-1.917 0-.48 0-.48-.48-.958v-.48l3.834 1.917h-.48c-2.395-.479-3.833.48-3.833 1.438z"/>
        </g>
        <g id="e" fill="#073163">
            <path fill="#fff" d="M863.203 232.47c-6.23 1.438-10.543 1.917-16.294-3.355-3.834-3.834-2.875-10.543.958-12.94 4.314-2.874 8.147-4.791 13.42-3.354 5.27 1.438 19.168 14.377 15.814 14.857-3.355 0-8.626 3.354-13.898 4.792zm14.857-23.004c1.917-1.438 4.313-2.396 10.543-2.875 5.751-.48 10.064-.48 11.502 3.833 1.917 5.272 3.354 11.502 7.188 14.378-2.396 1.437-14.377 2.875-18.69.479-5.75-2.876-7.188-13.898-10.543-15.815zm41.214.48c1.917-1.438 4.313-1.438 10.543-.958 6.23.479 8.626.958 10.064 5.271 1.438 4.792 0 11.023 2.876 15.336-2.876.958-12.46.958-15.815-2.397-5.272-3.833-4.793-14.856-7.668-17.252z"/>
            <path d="M948.028 212.821c-4.313-.958-7.189-1.438-9.105 0 2.396 2.875.479 14.377 5.271 18.21 3.355 2.397 11.981 2.876 13.898-2.395 2.396-4.793 2.396-11.981-10.064-15.815zm-49.361-4.792c1.438-1.438 4.313-1.917 10.064-1.917 6.23 0 10.064.959 11.98 4.792 1.918 4.793 1.439 11.023 4.793 14.857-1.438 1.917-14.377 1.917-18.21-.959-5.272-3.354-5.752-14.377-8.627-16.773zm-40.735 4.313c0-2.396 3.355-2.875 11.98-3.355 8.627-.958 9.106-.479 11.982 5.751 1.438 3.355 3.354 9.106 7.188 11.023-10.543 2.396-13.897 3.833-19.648.479-4.313-2.396-9.106-8.147-10.064-10.543-.48-1.438-.48-2.876-1.438-3.355z"/>
        </g>
        <g fill="#f9d050" stroke-width=".647">
            <g id="g">
                <path d="M880.935 163.46c-10.064-7.668-22.045-14.856-33.067-16.294 7.188 4.313 27.316 20.128 32.588 25.4"/>
                <path d="M886.686 156.271c-11.98-8.147-25.879-17.253-39.297-18.21 10.064 5.27 24.92 17.73 33.067 27.795m21.565-23.003c6.71-14.856 13.898-23.003 23.483-32.109-4.793 10.064-10.065 30.671-12.46 38.818"/>
                <path d="M912.565 140.457c4.792-10.543 11.98-19.649 24.441-25.4-6.23 6.23-15.815 24.92-18.211 34.985"/>
                <path d="M916.878 150.041c5.75-8.147 17.253-23.483 37.86-31.63-11.981 11.981-29.713 34.026-34.026 42.652m2.875-.479c8.626-4.792 25.879-12.46 38.339-10.064-7.668 2.876-30.671 13.419-40.735 23.003"/>
                <path d="M921.67 157.23c8.147-8.626 23.003-21.566 38.818-26.837-11.502 11.022-35.943 35.942-39.297 39.776m-22.524-18.211c-5.75-17.732-14.377-34.505-27.316-39.776 7.188 10.543 16.294 25.878 21.086 48.881m-4.793-9.584c-9.585-11.502-22.524-23.003-37.38-25.4 10.063 5.751 26.837 22.525 33.067 38.819"/>
                <path d="M892.916 151c-11.98-21.566-21.086-25.4-26.358-29.713 4.313 8.147 14.856 29.713 21.087 38.819"/>
                <path fill="none" d="M868.954 149.562c5.75 3.355 14.377 11.502 17.253 16.773"/>
                <path d="M868.954 159.626c2.875 2.396 8.147 5.272 12.94 9.585m44.089-2.397c4.792-3.834 15.335-10.064 20.607-11.98m-23.961 8.626c4.792-6.23 14.377-14.856 17.732-17.732m-4.314-11.981c-4.313 4.792-14.377 16.773-18.21 22.524m5.75-26.837c-3.355 4.313-10.064 16.773-11.98 21.086m-25.88-20.127c2.875 7.668 8.147 20.607 10.064 25.879m-14.377-17.732c1.917 2.875 5.75 9.585 7.189 14.377"/>
            </g>
            <g id="h">
                <path d="M897.708 136.143c0-4.313 2.875-9.105 5.75-9.105 3.355 0 5.752 5.75 5.752 9.105 0 3.834-2.876 7.189-5.751 7.189s-5.751-2.876-5.751-7.189z"/>
                <path d="M891.478 139.977c.48-4.792 3.834-8.626 6.71-8.147 2.875.48 4.312 6.23 3.833 9.585-.48 3.834-3.834 6.709-6.23 6.23-2.396 0-4.792-3.355-4.313-7.668zm12.94 1.438c-.958-4.313.958-9.105 3.834-9.585 2.875-.479 5.75 4.313 6.23 8.147.958 3.834-1.438 7.668-3.834 7.668-2.396.48-5.75-1.917-6.23-6.23z"/>
                <path d="M897.229 145.249c0-4.792 2.875-9.105 5.75-9.105 3.355 0 5.752 5.271 5.752 9.105 0 3.834-2.876 7.189-5.751 7.189-2.876 0-5.751-2.876-5.751-7.189z"/>
                <path d="M888.603 147.645c0-4.313 3.355-9.105 6.23-9.105 2.875 0 5.75 5.75 5.75 9.105 0 3.834-3.354 7.189-5.75 7.189-2.875 0-6.23-2.876-6.23-7.189zm17.732-1.917c0-4.313 2.875-9.105 5.75-9.105 3.355 0 5.752 5.75 5.752 9.105 0 3.834-2.876 7.189-5.751 7.189s-5.751-2.876-5.751-7.189z"/>
                <path d="M904.418 149.562c0-4.792 3.355-9.105 6.23-9.105s5.75 5.271 5.75 9.105c0 3.834-2.875 7.189-5.75 7.189s-6.23-2.876-6.23-7.189z"/>
                <path d="M896.75 153.875c0-4.792 2.875-9.105 5.75-9.105 3.355 0 5.752 5.75 5.752 9.105 0 3.834-2.876 7.189-5.751 7.189s-5.751-2.876-5.751-7.189zm-11.981 0c0-4.792 2.396-9.105 4.792-9.105 2.397 0 4.313 5.75 4.313 9.105 0 3.834-2.396 7.189-4.313 7.189-2.396 0-4.792-2.876-4.792-7.189zm26.837-.958c0-4.313 2.396-8.626 4.792-8.626 2.397 0 4.793 5.271 4.793 8.626 0 4.313-2.876 7.189-4.793 7.189-2.396 0-4.792-2.876-4.792-7.189z"/>
                <path d="M914.482 161.064c.958-4.792 3.834-8.626 5.75-8.147 1.918.48 2.397 6.23 1.439 9.585-.48 4.313-3.355 6.709-5.272 6.23-1.917-.48-2.875-3.834-1.917-7.668z"/>
                <path d="M905.376 159.626c.48-4.313 3.355-8.626 5.75-8.147 2.876 0 4.314 5.75 3.835 9.105-.48 4.314-2.876 7.189-5.272 6.71-2.396 0-4.792-3.355-4.313-7.668zm-13.418 1.438c-1.438-4.792-4.313-8.147-6.23-7.668-1.917.48-2.396 6.23-1.438 9.585.959 3.834 3.834 6.23 5.751 5.75 1.438-.478 2.875-3.833 1.917-7.667z"/>
                <path d="M888.603 160.105c0-4.313 2.396-8.626 4.792-8.626 2.876 0 4.793 5.271 4.793 8.626 0 4.313-2.396 7.189-4.793 7.189-1.917 0-4.792-2.876-4.792-7.189z"/>
                <path d="M895.791 162.022c0-4.792 2.875-9.105 5.75-9.105 3.355 0 5.752 5.271 5.752 9.105 0 3.834-2.876 7.189-5.751 7.189s-5.751-2.876-5.751-7.189zm2.397-52.716c-.958 3.834-4.313 7.189-1.917 12.46-4.313-1.438-8.147-1.917-11.502 1.917 4.314-.48 8.147.959 10.064 3.834-3.834-.48-5.75 1.438-6.709 3.834 3.355-.959 6.71-1.917 8.147-1.438-1.438 1.438-3.834 3.834-4.313 5.75 2.875-2.395 6.23-1.916 8.147-3.354-1.438 3.355 1.438 6.71 3.834 10.064-.48-4.792 2.396-8.147.958-10.543 4.313.959 4.793 4.792 11.023 4.792-2.396-1.437-3.834-6.23-6.71-6.23 1.438-.479 7.189-.958 8.147 0-.958-1.917-4.313-3.834-6.23-3.834 1.917-1.916 5.272-5.75 7.668-6.709-3.355.48-8.626.959-10.543 3.834 4.792-3.834 3.834-11.022 9.105-11.98-2.875-.48-7.188 1.437-10.543 4.792 1.438-2.876 1.438-6.71 3.355-7.668-3.834.958-8.147 5.75-9.585 8.147 0-2.396-1.438-6.23-2.396-7.668zm2.396 7.668c0 1.438 0 4.313-.48 5.272m6.71-5.751c-.958.958-2.875 4.313-2.875 7.189"/>
                <path fill="none" d="M909.689 122.246c-1.438.958-2.875 2.396-3.355 4.313"/>
            </g>
        </g>
        <g id="f" fill="#059334">
            <path d="M858.89 169.69c-3.355 0-6.23-1.438-8.147-3.834-3.355-4.313-12.46-6.23-16.294-2.396-1.438.958-3.355.958-4.792 1.438-2.397 0-5.272 2.396-4.313 7.188 1.916-1.438 2.396 0 3.833 0 .959-.48.48.48.48 1.438 0 2.396 5.271 7.188 10.064 6.71 5.271 0 7.667 1.916 8.626 2.875 1.437 1.437.479.958 1.437 3.354 1.438 1.438 1.917 1.917-.479 3.834-3.354 2.876-5.75 9.585 0 14.856 6.23 4.793 22.045 11.981 39.777-1.917 17.252-13.418 44.09-5.75 46.006-.958 2.397 4.792 3.355 7.668 3.834 10.064.48 1.917 2.876 3.834 6.23 3.355 3.355 0 7.189 1.437 9.106 2.875 2.396 1.438 5.75.959 4.792-3.355-1.917-13.418-10.064-15.335-11.022-21.565 4.792.479 8.147.479 10.064-1.438 1.437-1.917 3.354-5.271 5.271-6.23 1.438-.958 1.438-1.917-.479-1.438-2.396.48-3.834 1.438-8.147.959-22.045-2.396-83.866-19.17-95.847-15.815z"/>
            <path fill="#000" d="M956.654 185.984c-2.396 1.438-4.792 3.834-9.105 9.585-4.793 6.23-19.17 12.46-36.902 12.46-17.252 0-27.795-2.876-35.463-9.106-4.313-3.354-7.668-5.271-10.543-6.709-5.272-2.396-6.23-7.668-4.793-11.98-1.437 2.395-2.396 4.791-5.271 4.312-1.917 0-5.75 0-4.792 1.917-.48-.958-.48-2.396-.959-2.875l-.958-.959c1.437.959 4.792-1.917 7.188-1.917 1.917.48 4.313-1.917 3.834-4.792-.48-2.396-.958-4.313-1.438-6.23 3.834-1.917 54.154 7.188 64.218 8.147 10.064.48 38.818 4.792 34.984 8.147z"/>
            <path d="M865.6 167.773c4.792-4.792 10.543-7.189 16.294-5.75h1.438c2.875-2.397 9.584-2.876 13.418-.96h1.917c5.751-1.916 16.773 0 20.607 3.835l1.438.958c12.94-.958 20.607 4.792 29.713 13.898.958.958 2.396 2.875 4.792 3.355 2.875.479 3.355 1.916.958 3.354-2.875 1.438-5.271 3.834-10.063 9.106-4.314 5.75-18.211 11.501-35.464 11.501-16.773 0-26.837-2.875-34.505-8.626-4.313-3.355-7.668-5.272-10.064-6.71-2.875-.958-6.709-4.792-5.271-8.626.958-3.833-1.438-8.626-3.355-13.418 1.438-.959 5.272-2.396 7.189-1.438l.958-.48z"/>
            <g fill="#00493d">
                <path d="M950.424 179.754c-9.105-9.105-16.773-14.856-29.713-13.898 0 .48 0 1.917-.479 2.876 7.668 2.875 18.69 11.501 23.483 17.731 1.917-1.917 5.271-4.313 6.709-6.709zm-31.15-14.856c-3.834-3.834-14.856-5.75-20.607-3.834 0 1.917 0 4.792-.959 6.71 3.355 1.437 6.23 4.792 9.106 8.146 1.917-.479 6.71-1.917 9.105-2.396.959-1.917 2.876-6.23 3.355-8.626zm-22.524-3.834c-3.834-1.917-10.543-1.438-13.419.958-.958 1.917-1.437 5.751-1.437 7.668 1.917 0 4.792 1.438 5.75 2.396 2.876-.958 6.71-2.875 8.148-4.313.479-1.917 1.437-4.792.958-6.709zm-31.15 6.709c4.792-4.792 10.543-7.189 16.294-5.75-.958 1.437-1.438 4.312-1.438 7.188-5.271-.48-11.98.958-14.856 2.875v-4.313z"/>
                <path d="M941.798 187.422c-4.313-6.23-14.856-13.419-22.045-16.773 0 .479-.958 2.396-1.438 3.834 2.876 4.313 8.627 13.897 11.023 19.17 2.396-.96 9.105-3.835 12.46-6.231zm-36.422 10.543c.958-6.71 1.438-16.294 1.438-19.649 2.396-.479 7.188-1.917 9.105-2.396 2.396 3.834 8.147 13.898 10.543 18.69-5.75 1.438-15.335 3.834-21.086 3.355zm-16.773-23.004c2.396-.958 5.75-2.875 8.147-4.792 1.917 1.437 5.75 4.792 7.189 6.709 0 4.313-1.438 16.773-1.917 21.086-3.834 0-10.064-.958-13.419-2.875.48-7.189.958-15.336 0-20.128zm-23.962 5.751c.48-.958.958-4.313.958-5.75 3.834-2.397 13.42-4.793 20.608-.96.479 4.793 0 16.774-.48 19.65-6.23-4.793-16.294-11.502-21.086-12.94z"/>
            </g>
            <g fill="none">
                <path fill="#000" stroke="none" d="M840.679 172.086c-.958 0-1.438-2.875-3.355-2.875-.479 0-1.917.479-2.396 0 0 .958.48 1.917.959 2.396.479 1.437 2.875.479 4.792.479z"/>
                <path d="M840.679 180.233c5.75 0 6.71-7.189 9.585-7.668m-6.23 8.147c4.313 1.917 7.668-8.147 11.022-7.668m-19.648-4.792c1.438 0 2.396-1.917 4.792.48.959.958 2.397 1.437 3.355 1.437m-.959 5.272c-1.917 2.875-5.272 4.792-7.189 3.834m-.958-15.815c-1.438.958-2.396 2.875-3.355 4.313m-1.437 2.875v2.396"/>
            </g>
        </g>
        <g stroke="none">
            <path id="b" fill="#fff" d="M989.722 232.949v93.45c0 80.992-38.339 108.787-89.617 130.832-51.278-22.045-90.096-49.84-90.096-130.831v-93.451h179.713z"/>
            <path fill="#cf142b" d="M900.105 312.023c4.313 0 11.022-3.834 16.773-9.585 6.23-6.709 16.773-9.105 27.796 0 11.022 9.106 17.732 5.272 23.483 0 5.75-5.271 10.543-7.188 21.565-7.188v-62.3H810.01v62.3c11.022 0 15.815 1.917 21.566 7.188 5.75 5.272 12.46 9.106 23.482 0 11.502-9.105 21.566-6.709 28.275 0 5.272 5.751 11.98 9.585 16.773 9.585z"/>
            <path d="M900.105 359.946c5.75 0 17.253-6.23 20.128-7.668 10.543-6.23 18.21-.479 24.44 2.396 6.71 2.876 19.17 6.23 26.838 0 7.668-6.23 11.981-5.75 17.253-5.75.958-7.189.958-14.378.958-22.525v-5.75c-6.71-1.438-10.064.479-17.252 6.709-7.189 6.23-15.336 4.792-25.88.958-10.063-4.313-20.127-11.98-30.19 0-2.876 3.355-9.586 8.147-16.295 8.147-7.188 0-13.419-4.792-16.294-8.147-10.543-11.98-20.128-4.313-30.192 0-10.543 3.834-19.17 5.272-26.358-.958-6.709-6.23-10.064-8.147-17.252-6.71v5.751c0 8.147.48 15.336 1.438 22.525 5.271 0 9.105-.48 16.773 5.75 7.668 6.23 20.607 2.876 26.837 0 6.71-2.875 14.377-8.626 24.92-2.396 2.876 1.438 13.898 7.668 20.128 7.668zm0 20.607c7.189 0 15.815-2.875 23.483-7.189 9.584-5.271 16.294-2.875 25.878 1.917 10.064 4.793 18.211 3.355 23.962 0 2.875-1.917 5.272-5.75 11.502-4.313-2.876 11.981-7.189 22.524-12.46 31.15-9.585 2.397-14.857 2.397-24.92-1.916-10.065-4.793-22.525-7.668-29.234-3.355-6.23 3.834-12.94 5.75-18.211 5.75-5.272 0-11.981-1.916-18.211-5.75-6.71-4.313-19.17-1.438-29.233 3.355-10.064 4.313-15.336 4.313-24.92 1.917-5.272-8.627-9.585-19.17-12.46-31.15 6.23-1.438 8.626 2.395 11.5 4.312 5.272 3.355 13.899 4.793 23.483 0 10.064-4.792 16.774-7.188 26.358-1.917 7.668 4.314 16.294 7.189 23.483 7.189zm0 76.678c19.17-8.147 36.901-17.253 51.278-29.713-3.834-1.437-6.23-.479-9.585-2.875-3.354-2.396-13.418-3.355-22.044 1.438-9.106 4.313-12.94 5.271-19.649 5.271-6.71 0-10.543-.958-19.649-5.271-8.626-4.793-18.69-3.834-22.044-1.438-3.355 2.396-5.751 1.438-9.585 2.875 14.377 12.46 31.63 21.566 51.278 29.713z" fill="#0b50a0"/>
            <g stroke="#000">
                <path fill="#f9d050" d="M887.644 256.432c.48.958-.48 3.355 0 4.313.958 1.917.958 2.876 2.396 3.834h3.355c10.543 0 23.003-4.313 33.546-4.313 10.064 0 16.294 3.355 22.045 3.355 3.355 0 6.23-2.397 6.23-4.793 0-2.396-3.834-3.834-11.98-3.834-11.502 0-17.732 2.876-27.317 2.876-14.377 0-16.773-5.272-16.773-7.668s2.396-5.75 10.064-5.75c2.396 0 4.313-.48 5.271-1.439.48-.958 1.917-2.875 4.793-4.313 3.354-1.917 10.064 0 13.418-2.396 0 1.917-2.875 4.792-5.271 5.75 4.792-1.437 10.064-1.437 11.022 2.397-2.396-1.438-6.23-.48-7.668 0-1.917.48-2.875.959-4.792 1.438 1.917-.48 2.875 3.354 5.75 3.354-2.875 2.397-7.667 2.397-12.46.48-1.437-.48-5.27-1.917-7.667-1.917-4.792 0-7.668.958-7.668 2.875 0 2.396 2.876 3.834 11.502 3.834 8.626 0 13.418-2.396 26.358-2.396-.959-1.438.479-2.876-1.438-4.313 4.792 0 10.064 1.437 11.98 4.792-.478-3.355 2.397-6.23 1.439-9.105 2.875.479 5.271 3.354 5.75 5.75 0-1.437 1.917-1.437 1.917-2.875 2.876 1.438 4.313 4.792 3.834 7.668 1.438-2.396 2.876-1.438 3.834-4.313.959 1.917.48 7.667-2.875 9.584 2.875-1.917 7.188-1.917 10.064 1.438-2.876-.48-4.313.959-5.751 1.438-5.751 3.354-15.336 5.271-22.524 4.792-7.668-.48-8.627-1.917-13.419-1.917 2.876.48 8.626 6.23 13.898 6.23 3.355 0 5.75 0 7.188-.479 1.438-.48 3.834 0 5.751.959 1.438 1.437 4.313 2.875 6.23 2.396-.479 1.917-1.437 2.875-2.875 3.354 2.396 1.438.958 2.397 3.355 4.313-.959 0-1.917.959-3.355.48 1.438 1.437 1.438 3.354 2.875 4.313-.479 0-1.917.48-2.875 0 1.438 1.917 0 4.313 1.438 5.271 1.437 1.917-1.438 4.314-3.834 2.397.479 1.437-.959 2.875-2.396 2.396-1.438-.48-2.397-1.917-1.917-2.396 0-.48 0-.48.479-.959-.959 1.438-2.876 1.438-3.834.959-.48-.48-.959-.959-.959-1.438-3.354.958-4.792-1.917-4.313-3.355.48-1.437 3.355-1.917 4.313-1.437.959.479 1.917.958 2.876 0 .958-.48 1.438-1.438 1.438-2.397 0-1.437-1.438-5.75-7.668-5.271-7.189.479-18.69-1.438-24.441-3.355-.48-.48-.959-.48-1.438-.958 0 1.917-1.917 2.875-1.917 4.792 0 2.396.959 4.313 3.834 5.272-1.438 2.396-3.834 1.917-4.792.479 0 1.438-1.917 2.396-1.917 4.313-.48-.959-.959-1.438-1.438-2.396-1.438 3.354-5.271 5.271-7.188 4.313-2.397 1.917-5.272 1.438-6.23-.48-1.438.96-3.355.96-4.314 0 0 1.438-.958.96-1.437 2.876 0 .959-1.917 1.438-2.876.959-.958-.48-1.437-2.397-.479-3.355-1.438.958-2.875.958-3.834 0 0-.959 0-2.396.959-2.876h.958c-.958-.479-2.396 0-3.355-.479-.958-.958-.958-1.917-.479-2.875.48-.48 1.917-1.438 2.876-.48l.479.48c0-.959.48-1.917.958-1.917.959-.48 2.397-.48 3.834.958.959 1.438 1.917 1.438 4.793.959 2.396 0 6.23-2.396 9.105-4.793-8.147-1.437-3.355-6.709-.958-8.626-1.917-.479-4.793-.479-6.71.48-10.064 5.271-20.607 11.501-27.316 9.584 0 .959.48 1.917.958 2.876-1.437 0-4.313 0-5.271-1.438-.48.958-1.438 3.355-.48 5.271-.958-.958-3.833-1.916-5.271-2.396.958.959 0 2.876.48 4.313-1.439-1.437-3.835-2.396-4.793-1.437s-2.876 1.437-4.313.958c-.959 1.438-2.396 2.396-3.834 2.876 0-.959 0-2.397-.48-2.876-.479 1.438-1.916 3.355-3.833 4.313 0-.958 0-2.396-.48-3.354 0 1.917-3.833 2.875-4.313 4.313.48-1.438.48-2.876.48-3.834-.959 1.438-2.397 2.875-4.793 3.355.48-.959.959-1.917.48-2.876-.48 1.917-3.355 2.876-5.751 2.396 0 .959-1.917 2.396-4.313.959-1.438-.48-2.397-1.917-1.438-2.876-1.917 0-3.834-1.917-2.876-3.354 0-.48.48-.959.48-1.438-1.438-.958-1.917-2.875-.48-4.313.48-.48 1.917-.48 2.876-.48 0-3.833 3.354-3.833 4.792-.958.959 1.438 3.834 3.834 6.23 3.355.959 0 1.438-.48 2.396-.48 2.876-.958 8.627-3.354 11.981-6.23.48-1.437.48-2.396.48-3.354-1.917.958-3.834 1.917-4.793 3.355v-1.438c-1.438 0-3.834-.48-4.792-.48.479-.479.958-2.875 1.917-3.354-2.396.48-4.793 0-6.71-.48.959-.958.959-2.395 1.438-3.833-.958.48-3.354-.48-5.271 0 .479-1.438.958-3.355 2.396-3.834-1.917.48-4.313 0-6.71-.959 1.917 0 2.876-2.396 4.314-2.396-3.834 0-4.793-1.917-6.71-2.875 1.438.48 2.396-.959 3.834-.959-1.438-.479-3.834-2.875-2.875-4.313-.48.48-.959 1.438-1.917 1.917-.959.48-2.876 0-4.313-1.437-.959-1.917-.48-4.314 1.437-4.793-2.396-.48-2.396-2.875-1.437-3.834.479-.958 2.396-2.396 3.354-.958.48.48.959 1.438 1.438 1.917-.48-.959-.48-2.876-.48-4.313.48-1.438 1.439-1.438 2.876-1.917 1.438 0 2.396 1.437 2.396 2.875s.48 2.396.959 4.313c0-.479.48-1.437.48-1.917 0-1.917 2.395-1.437 3.833-.958 1.438.48 1.917 3.354 0 4.792-.958.959-.48 2.396.48 3.355 3.354 5.271 9.105 9.585 13.897 10.064 0-1.917.958-3.834 2.396-5.272 0-.958.48-2.396.959-3.355.479-2.875 1.917-4.313 3.834-3.354-.48-.48-.959-.959-.959-1.438-1.438-1.438-2.875-3.834-1.917-5.75s3.834-1.438 4.792-.48c-.479-2.875 2.876-5.272 2.876-6.71.48 1.438 1.438 3.355.958 4.793.48-1.917 3.834-4.313 6.23-5.271-.958 1.437 1.917 3.833 1.438 5.271.959-2.396 4.792-3.834 7.668-3.834-.959.959-.959 2.876-.959 3.834 1.438 0 3.834-.48 4.793-1.917 0 1.917-.959 3.834-1.917 4.793.48-.48 2.396-.48 3.834-.48-1.438 1.438-.959 2.876-2.396 3.834 1.917-.958 4.313-.958 4.792.959.958 1.437-.48 3.834-1.438 5.271-.958.48-1.917 1.438-2.396 1.438z"/>
                <g fill="none">
                    <path d="M857.932 262.182c-3.355 1.438-4.313 4.792-4.792 6.71m4.313-3.355c-4.792 2.875-6.71 5.272-5.75 10.543m8.146 3.834c2.875-.958 4.792-1.917 7.189-6.23"/>
                    <path d="M865.6 275.601c-.958 1.917 0 5.272-1.438 6.71 2.396-1.438 4.313-3.355 4.793-6.71"/>
                    <path d="M866.558 280.872c1.917-.958 4.792-3.834 6.23-7.189-.48 1.438 0 3.834-.958 5.272 2.396-2.396 3.354-3.834 3.833-6.23 0 .48.48 1.438.48 1.917.958-.959 1.917-1.917 1.917-3.834m0 1.438v2.396c1.917-1.438 2.396-3.354 2.396-5.75m-.479 2.875c2.875-1.917 3.355-4.792 3.355-9.105m-.001 4.792c1.917-1.438 2.396-2.396 2.396-6.71m-6.23-12.939c-.958 0-1.917.48-1.917 1.917 0 .958-1.438 2.396-1.438 3.834-.479 1.917-1.437 2.396-2.875 1.917-1.438-.959-1.438-.959-1.438-2.396 0-1.917 2.396-2.397 2.396-4.314.48-.958.959-2.396 1.438-2.396-2.396 1.438-5.75.48-6.23-2.396"/>
                    <path d="M883.811 249.243c-.958.48-1.917-.958-3.355-.48-.479 0-1.917.48-2.396 0"/>
                    <path d="M877.101 251.639c.48.48 2.875 1.438 5.272.48-1.917.478-3.355-1.918-1.438-3.355m-8.147-1.917c-1.917 0-3.355 1.438-2.875 2.875.479 1.438 2.396 1.438 3.833.48m-4.313 20.607c.48-.48.958-1.438.958-1.917.959 0 1.917-.48 2.397-.958 1.917 0 3.354-1.438 3.834-2.876.958 0 1.437-2.396 1.916-3.354.48.479 1.438 0 1.917-1.917.959.479 2.397 0 2.876-1.438m-19.648-3.355c0 .48-.958 1.438-1.917 1.917.48.958 0 3.355-.958 3.834.479.958 0 2.396-.48 3.354 0 .48.48 1.917.48 2.397m4.792-21.087c-.958 2.396-.48 5.272 1.438 5.75"/>
                    <path d="M866.558 253.077c-.48 2.396-.48 5.75-.958 7.189-.48.958-1.438 4.313 2.396 5.271 4.313.959 6.709.48 9.105-6.71m7.189 18.691c0 .48-.48 1.438-1.438 1.438m4.792-2.397c0 .958-.958 2.396-1.438 2.875m4.793-3.833c0 .958 0 2.396-.958 2.875m-28.275-32.588c.48 0 .958.958 1.438 1.917-1.438-.959-2.876 1.438-1.917 2.875m-.959 3.355c-.48.48-1.438.958-1.917 1.438m.479 2.875c-.48 0-.958.48-1.438.48m-21.565-9.106c0-.48 0-.48.48-.958m-4.793-.48c-.48 0-.48 0-.958-.48m1.437 7.19h.958m-2.875-2.876c-.958-.958-2.396-1.438-2.875-1.438m29.233 19.17c-3.355 2.875-4.792 5.272-5.272 8.626m8.627-6.23c-.958 1.917-2.396 3.355-3.834 4.313m-14.856 10.064c-3.834.958-6.71.48-9.585-1.438-.479-.479-.958-.479-1.437-.958m25.399-4.313c-.48 1.917-.958 4.313-1.917 4.792 3.834-1.917 7.189-4.792 7.668-9.105M827.74 289.02c1.438-.48 2.875.48 3.834-.48m79.553-15.335c.958.48 2.396.958 2.875 1.438.48-.959 2.397-2.396 3.834-2.876m-40.735 11.502c-.48-1.917.48-4.313 3.355-5.272m-22.045 13.419c.48-.958.48-2.396.958-3.355m-22.044 4.792c-.48.958-1.438 1.917-1.438 2.875m-5.751-1.916s0-.48.48-.48c.958-.478 2.395-1.437 2.875-2.395m61.821-3.834c-.958.48-1.438 0-1.917-.48m1.438 2.876s-.48.48-.958.48m3.354 1.916c-.48.48-.958.958-1.438.958m15.336 0c.958-.48 1.438-1.438 1.917-3.355m-8.147 2.876c1.438-.48 2.396-1.438 3.834-2.875m9.584-.959c0-.958 0-1.917.48-2.875m34.984 7.188c-.958-.958-.958-2.396.48-3.355.958-.479 1.437-.958 2.395-1.437m-32.108-11.981c-7.668-3.355-7.189-7.668-13.419-7.189m47.444 22.045c.48.48 0 1.917 0 2.396m4.313-2.396c-.48 1.438-.48 1.917-.48 3.355m-36.421-48.403h-3.834m-36.422 16.294c0 .958 1.438 2.875 5.272 2.875-.48 0-.959-.479-.959-.479"/>
                    <path d="M887.644 256.432c-.48.48-.958 0-.958 0-.959-.958.479-2.875 1.916-3.834-1.437.48-2.396.48-3.354.48-.959 2.875-3.834 4.312-5.751 2.396-.48 1.916-2.875 4.313-4.792 3.833-1.917-.958-2.397-2.396-1.917-3.833-2.396 2.875-5.272.958-6.23 0-.48-.959 0-3.355.958-6.23"/>
                </g>
                <path d="M918.315 274.642c-1.438.958-2.875 0-4.313 1.438-.959.958.48 1.437 1.438 1.437-.48 1.438-.48 1.917 1.917 1.917-.959 1.438 1.916 1.917 1.437 3.834 1.438-1.437 1.438-3.354.959-4.792-.48-1.438-2.876-2.396-1.438-3.834z" stroke="none"/>
                <path d="M874.705 259.307c-1.917-.958-2.396-2.396-1.917-3.834-.48.959-1.438 1.438-2.396 1.438-1.917 4.313-4.313 8.147-7.189 8.147-3.354.48-2.875 3.834-.479 3.834 5.272.958 7.668-.959 11.981-9.585zm-47.444-11.502c1.438-1.438.48-2.875-.48-3.355-1.437-.479-4.312 0-5.75 2.397 1.438-.48 2.875-.48 3.355.479.479.958 1.437 1.917 2.875.479zm2.396-8.626c3.355 0 4.313.48 4.792 1.917.48.958-.479 2.396-1.437 2.396-1.438 0-2.876-.958-2.397-1.438.48-.958.48-2.396-.958-2.875zm9.585 7.668c2.396.48 3.355-.958 1.917-2.875-.48-1.438-1.917-2.397-4.313-1.917 2.396 1.437 0 3.834 2.396 4.792zm-17.732 8.147c1.438 2.396 3.834 2.396 4.792 1.917 1.438-.48 1.917-1.917 1.438-2.875-.958-1.438-2.396-1.917-2.875 0-.959 1.916-2.397 1.437-3.355.958zm7.188 29.233c-.958-1.917-3.834-1.917-6.23 0 .958-.48 2.875 0 3.355.958.479.959 1.437.959 1.917.959.479-.48 1.437-.959.958-1.917zm3.834-2.875c0-2.396-3.355-2.875-5.272-1.917.959 0 2.397.959 2.397 1.917.479.958 1.437 1.438 1.917 1.438.958-.48 1.437-.959.958-1.438zm-4.792 8.626c-2.875-.48-4.313 2.875-4.313 5.272.48-1.438 1.917-2.397 3.355-1.917 1.437 0 1.916-.48 1.916-1.438.48-.959 0-1.438-.958-1.917zm.479 8.147c.958.48 1.917-.48 2.396-1.917 0-.958 1.917-.958 2.396-.48.959.48.959 2.397-.479 3.355-.958.48-3.355.959-4.313-.958zm66.614-14.377c-.958-.48-3.355-1.438-5.272 0 1.438-.48 2.397.48 2.876 1.438 0 .958 1.438 1.437 1.917.479.479-.48.958-1.438.479-1.917zm-4.313 3.355c-1.917-.958-4.313 1.438-4.792 3.355.479-.48 2.396-1.438 3.354-1.438.959.48 1.917 0 1.917-.959.48-.479.48-.958-.479-.958zm2.396 3.833c-1.438 0-3.355 1.917-3.355 3.834.48-.959 1.438-1.438 2.397-.959.958 0 2.396-.479 2.396-1.437s-.48-1.438-1.438-1.438zm4.313 3.834c-.958-.48-2.396 0-2.396 1.438 0 1.437 0 2.875-.48 3.354.96-.958 1.918-1.437 2.876-1.917.48-.479.958-1.917 0-2.875zm54.154-4.313c-.958-.958-2.396-.48-2.875.48-.48.958-.959 3.354 0 5.27 0-.958.958-2.395 1.917-2.395 1.437-.48 1.916-2.397.958-3.355zm2.875 1.917c-1.917.958-1.917 4.313-.48 6.23 0-.958.48-2.396 1.438-2.875 1.438 0 1.917-1.917 1.438-2.876-.958-.958-1.917-.479-2.396-.479zm5.751 1.917c-.958-.48-1.917.48-1.917 1.438-.48 1.437.48 3.354 1.917 4.313 0-.959.48-1.917.958-2.396 1.438-.959.959-2.876-.958-3.355zm4.313-.479c-.958 0-1.917 1.438-.958 2.875.479.959 1.437 1.438 3.354.959-.48 0-1.438-1.438-.958-1.917.479-.959 0-1.917-1.438-1.917z" fill="#073163" stroke="none"/>
            </g>
            <g id="i">
                <path fill="#f9d050" d="m831.095 383.429 23.962-73.802 23.962 73.802-62.78-45.527h77.636z"/>
                <path fill="#024919" d="m835.887 376.72 49.84-36.422h-61.342l49.362 36.422-18.69-58.467z"/>
            </g>
            <use xlink:href="#i" x="90.097"/>
            <use xlink:href="#i" x="45.048" y="52.237"/>
            <path fill="none" stroke="#000" d="M989.722 232.949v93.45c0 80.992-38.339 108.787-89.617 130.832-51.278-22.045-90.096-49.84-90.096-130.831v-93.451h179.713z"/>
        </g>
    </g>
</svg>
