<svg xmlns="http://www.w3.org/2000/svg" xmlns:xlink="http://www.w3.org/1999/xlink" viewBox="0 0 1800 900">
    <path fill="#cc092f" d="M0 0h1800v900H0z"/>
    <path fill="#ffd200" d="M0 0h1200v900H0z"/>
    <path fill="#0046ae" d="M0 0h600v900H0z"/>
    <path d="M847.69 183.24c-3.223 0-6.038.822-7.68 2.1 2.609.76 4.506 3.166 4.506 6.092v7.423h-7.422c-2.907 0-5.315-1.87-6.093-4.454-1.278 1.642-2.099 4.457-2.099 7.679 0 3.223.821 6.039 2.099 7.679.761-2.61 3.166-4.506 6.093-4.506h7.422v35.681c0 2.805-1.754 5.132-4.198 5.989 3.541.482 6.588 5.234 7.423 7.833.837-2.593 3.884-7.351 7.424-7.833a6.28 6.28 0 0 1-4.251-5.989v-35.683h7.424c2.908 0 5.315 1.87 6.093 4.456 1.277-1.642 2.098-4.459 2.098-7.68 0-3.223-.82-6.038-2.098-7.679-.761 2.609-3.167 4.504-6.093 4.504h-7.424v-7.422c0-2.908 1.869-5.315 4.455-6.093-1.64-1.276-4.457-2.098-7.679-2.098z"/>
    <path fill="#f5d402" d="M847.69 184.78c-1.678 0-3.156.314-4.402.716 1.664 1.447 2.765 3.544 2.765 5.939v7.423c0 .106-.031.207-.052.308v1.177h-1.178c-.1.021-.202.051-.307.052h-7.424c-2.367 0-4.439-1.083-5.886-2.713-.416 1.259-.768 2.697-.768 4.403 0 1.678.314 3.156.716 4.402 1.447-1.664 3.543-2.763 5.938-2.763h8.959c-.01.154-.052.303-.052.459v.768c.021.1.051.201.052.307v35.681c0 2.317-1.195 4.139-2.765 5.58a11.976 11.976 0 0 1 2.918 2.561c.737.885 1.03 1.751 1.536 2.661.507-.908.799-1.776 1.536-2.661a12.036 12.036 0 0 1 2.867-2.509c-1.584-1.437-2.765-3.305-2.765-5.631v-37.168h1.229c.1-.02.201-.05.307-.05h7.423c2.366 0 4.438 1.083 5.886 2.712.415-1.258.769-2.695.769-4.402 0-1.677-.315-3.156-.717-4.402-1.447 1.664-3.543 2.763-5.938 2.763h-7.423c-.105 0-.207-.031-.307-.052h-1.178v-1.177c-.021-.099-.051-.201-.052-.308v-7.422c0-2.367 1.084-4.438 2.713-5.887-1.259-.414-2.696-.768-4.402-.768"/>
    <path d="M940.609 313.987c-4.535-3.221-8.258-6.862-10.904-11.11-6.372-10.223-9.061-22.773-9.061-35.527 0-5.391 6.04-11.46 6.04-15.82 0-6.59-.614-10.544-.614-10.544 2.143.292 5.887 4.095 5.887 4.095s-.129-10.938-3.585-12.849c0 0 1.398-1.438 6.451-1.587-1.42-3.596-8.446-7.986-8.446-7.986.351-.629 1-1.173 1.842-1.638 1.765-.976 4.245-1.62 6.142-1.997-2.022-.419-4.352-1.061-6.91-1.895-5.842-1.903-12.719-4.697-19.146-7.78-11.732-5.628-20.669-5.99-25.596-5.99-3.575.001-8.84.099-11.927 2.152-2.825 1.875-2.595 4.314-3.584 5.17-2.33 2.016-6.321 1.945-8.243 1.945-12.44 0-12.901 13.311-12.901 13.311s3.181-4.813 8.805-4.813c9.351 0 16.433 5.094 16.433 7.013 0 .777-.964.921-1.023.921-6.108 0-15.326-3.516-20.223-3.686v2.406c10.931 3.803 22.013 9.187 22.013 32.917 0 14.943-1.789 30.19-9.265 42.183-2.648 4.247-6.418 7.881-10.955 11.11l44.385 8z"/>
    <g id="a">
        <path d="m896.222 303.988-44.383 10c-2.019-.61-11.513-3.56-18.174-7.269-11.726-6.532-17.806-13.03-31.74-13.669v-10.598c0-5.662 2.049-10.763 2.049-16.177-5.874-1.575-22.178-21.51-37.218-30.358-22.13 14.334-39.265 37.865-39.265 48.686 0 0 .665 232.51 0 313.51 0 4.668-2.815 11.263-2.815 11.263 8.079-3.418 22.888-23.68 26.006-31.382v3.687c12.201-5.564 21.135-20.184 25.136-27.747.071 1.094.257 3.839.257 3.839 10.9-9.555 24.776-66.038 24.776-66.038l23.124 22.725s-8.363 16.976-11.621 20.015c0 0 2.184.277 4.658.256-1.522 2.188-13.147 18.925-16.791 25.238-3.41 5.906-5.816 3.277-11.058 3.277-4.347 0-14.2 6.925-15.818 9.727-1.701 2.945-2.968 6.523-2.968 9.471 0 3.24 3.43 7.68 3.43 7.68.369-1.552 1.023-2.1 1.023-2.1s9.013 11.228 10.341 12.695c1.034 1.143 5.645 1.886 7.27.411 4.066-3.697 8.002-6.282 11.621-11.62 1.863-2.752 2.005-5.905 4.146-8.859 7.162-9.88 21.415-28.799 24.675-33.12.218 1.203.405 2.205.612 3.43 3.694-7.458 21.451-21.707 21.451-21.707l18.578 8.55s-34.687 79.735-65.476 91.995c0 0 13.395 5.691 29.845 14.232a447.91 447.91 0 0 1 7.372 3.943 203.524 203.524 0 0 0 6.399-8.14c9.836-13.16 19.455-28.413 19.455-28.413.67 3.961-4.524 16.194-13.31 31.281-1.728 2.964-3.53 6.064-5.529 9.213a333.743 333.743 0 0 1 6.655 3.892c16.295 9.805 31.598 21.077 37.267 31.432l4-10.009-4-10.009V317.264l2-5z"/>
        <g fill="#b07f55">
            <path d="M896.202 667.221c-5.749-6.236-17.769-13.855-31.278-20.886 16.334-29.316 24.428-75.655 20.63-84.88 0 0-6.705 24.033-14.898 37.729-7.586 12.684-16.925 26.95-25.954 37.526-7.428-3.169-14.631-5.828-20.785-7.68 27.058-20.843 54.726-89.742 54.726-89.742l-28.612-13.26s-10.704 12.479-14.18 14.796c0 0-1.485-6.206-2.355-8.396 0 0-4.101 3.102-6.346 3.176 0 0-.671-4.212-1.178-6.964-2.825 1.883-7.525 1.485-7.525 1.485 4.127-1.954 9.01-13.925 9.01-13.925l-27.322-36.343s-9.597 46.116-20.528 55.596v-198.58l8.652 8.036 13.105-12.235v-9.317l-11.621 10.852v-28.105a94.373 94.373 0 0 0 3.788-6.194c1.881 3.279 7.96 13.329 15.101 19.505 1.175-4.778 8.908-9.318 8.908-9.318s2.771 7.508 7.012 9.368c1.492-2.628 10.394-8.446 10.394-8.446s-7.616 1.157-10.7 4.045c-2.649-.593-3.328-11.058-3.328-11.058s-11.207 5.459-13.156 9.368c-2.137-.578-5.464-8.988-6.759-12.44a74.752 74.752 0 0 1 8.345-.46c3.196 0 7.285 1.514 11.569 3.532 4.707 2.216 9.631 5.022 14.028 7.014 5.632 2.55 14.153 3.068 16.637 3.174-2.845 2-5.973 3.826-9.367 5.529 0 0 13.411-.124 22.832-4.813 3.361-2.162 6.849-4.316 9.829-6.86-1.293 3.593-3.306 7.839-6.452 11.467 13.836-1.171 20.726-9.072 22.679-11.723.918 2.375 2.553 6.187 5.119 9.47h5v340zM794.247 267.298l.255 6.348v18.687c-5.019-1.727-11.326-9.973-14.384-14.334v-2.56c0-2.408 1.417-4.167 2.457-5.119l-3.02-1.074c-1.152 1.313-2.406 3.263-2.406 5.784v1.485l-9.009 9.676-8.856-13.413v-3.276c0-2.208 1.698-4.67 3.123-6.348l-2.97-1.075c-1.499 1.942-3.072 4.559-3.072 7.013v2.661a10183.97 10183.97 0 0 1-10.187 10.496l-5.17-11.109c6.205-8.595 16.266-18.219 25.749-25.125 0 0 20.564 18.881 27.49 21.283zm-52.12 18.123v15.411l-7.167 6.654v-22.883c0-2.191.918-4.831 2.456-7.731z"/>
            <path d="M764.447 291.359v9.522l-8.241 7.731v-29.794zm-11.161 17.202-8.243-7.679v-11.159l8.243-8.652zm37.627-11.57c-1.914 2.705-6.927 9.321-12.337 12.236v-26.16c1.241 2.064 6.934 11.274 12.337 13.924zm-15.257-12.594v24.163l-8.243-7.679v-8.549zm-33.53 25.75v24.113l-7.167-6.707v-10.7zm11.154 7.731v8.651l-8.244 7.678v-24.009zm11.158-7.678v24.01l-8.241-7.731v-8.549zm11.213 7.73v8.549l-8.243 7.73v-24.01zm11.159 16.33-8.244-7.731v-8.036c2.843-1.735 5.702-4.924 8.243-8.293zm-20.885 10.648 8.703-8.089v198.63s.607 9.856 1.024 16.279l-18.429 18.634V336.766zM752.253 562.94c0 6.385-11.659 21.273-17.303 24.675v-250.74l8.6 8.036 8.703-8.09z"/>
        </g>
        <g fill="#d10429">
            <path d="m824.535 541.388 6.348-4.352s.423 2.1.972 4.967c-2.718 3.716-18.331 25.024-26.057 35.425-1.921 2.584-3.534 9.163-3.534 9.163s-2.814-1.331-2.814-3.736c0-2.362.308-5.171.308-5.171s-2.101 2.406-5.735 2.406c0-2.903 5.614-6.052 5.836-10.186-4.281 3.174-7.999 1.545-12.951 3.072-5.393 1.661-6.895 3.927-8.549 3.84-.974-.053-1.856-1.733-1.484-2.765.644-1.787 7.314-6.733 11.977-7.627 1.117-.214 9.903 1.912 11.673-.819 7.292-11.252 19.13-29.518 20.272-31.278.752-.18 1.444-.371 1.995-.719 0 0-.067 5.751 1.743 7.78z"/>
            <path d="M783.72 576.452c.353.408.322 1.006-.053 1.33l-2.866 2.508c-.375.324-.977.255-1.33-.154-.354-.408-.324-1.006.052-1.331l2.866-2.508a.851.851 0 0 1 .665-.204c.238.027.488.154.666.359zm4.351 3.02c.857.988.802 2.388-.103 3.175l-6.962 6.091c-.906.788-2.367.63-3.226-.357-.857-.988-.803-2.439.103-3.225l6.962-6.041a2.206 2.206 0 0 1 1.229-.513c.712-.058 1.46.254 1.997.87zm3.99 4.71c.857.988.803 2.387-.103 3.174l-7.012 6.092c-.906.787-2.316.63-3.175-.358-.858-.987-.803-2.438.104-3.224l6.961-6.041a2.07 2.07 0 0 1 1.178-.513c.711-.058 1.51.252 2.047.87zm2.403 3.737a2.37 2.37 0 0 1 1.997.819c.858.988.803 2.439-.102 3.225l-6.963 6.042c-.906.787-2.316.629-3.174-.359s-.854-2.388.051-3.175l7.014-6.091c.338-.296.749-.427 1.177-.461z"/>
        </g>
    </g>
    <use xlink:href="#a" transform="matrix(-1 0 0 1 1792.404 0)"/>
    <path fill="#b07f55" d="M885.934 206.637c11.458 0 19.517 5.224 30.359 10.033 2.841 1.26 5.45 2.281 7.779 3.071-1.459 1.293-2.594 2.592-2.918 3.687 0 0 4.859.9 7.064 4.967 0 0-4.62.524-5.375 3.224 2.588.195 5.159 3.457 5.171 6.605l-6.553-2.049s1.587 7.358 1.587 15.358c0 4.086-5.886 8.894-5.886 15.819 0 21.734 5.475 30.088 9.369 36.807 1.523 2.629 2.761 5.654 5.324 7.935-11.218-5.973-19.556-13.439-19.556-20.374v-26.262h-2.918v26.262c0 5.029 1.228 7.372 1.228 7.372 1.761 5.564 5.321 14.152 7.526 17.61-10.321-5.578-15.564-12.563-15.564-15.153v-36.092h-2.918v36.603l.563 2.508c-1.251 1.88-2.877 4.106-3.993 4.863-1.113-.756-2.69-2.986-3.943-4.863l.564-2.508v-36.603h-2.918v36.092c0 2.589-5.243 9.575-15.563 15.153 2.205-3.459 5.764-12.046 7.524-17.61 0 0 1.229-2.342 1.229-7.372v-26.262h-2.918v26.262c0 6.927-8.307 14.405-19.505 20.374 2.537-2.283 3.757-5.321 5.272-7.935 4.258-7.348 9.522-16.683 9.522-43.258 0-9.974-1.475-16.755-4.044-21.501-.781-1.566-1.833-5.734 4.146-5.734 3.097 0 10.188 5.478 10.188 5.478s-.292-4.371-3.891-6.86c-.597-.413-1.586-1.712-1.586-2.919 0-.904 1.551-3.135 2.763-3.686.833-.378-12.183-2.646-12.183-8.549 0-1.229.773-2.048 3.479-2.048 3.545 0 9.312 4.249 14.438 4.249 3.789 0 5.283-.922 9.163-.922 4.742 0 14.635 8.979 18.019 8.651-3.783-2.375-9.894-11.365-19.145-11.365-3.211 0-6.117.717-9.114.717-3.841 0-7.623-3.533-11.774-3.533-2.782 0-5.889.155-6.349-.564-.805-1.255-.08-1.983.666-3.02 1.409-1.957 5.366-2.525 9.267-2.661a77.953 77.953 0 0 1 3.433-.05c1.09.011 2.099.053 2.971.053z"/>
    <path fill="#cc092f" d="M848.73 220.69s2.419-4.581 8.534-4.581c2.556 0 10.992-.177 10.992-.177 1.124 2.921 6.249 7.802 6.249 12.878 0 0-5.202-9.377-19.723-9.377-3.649 0-6.054 1.256-6.054 1.256z"/>
    <path fill="#d10429" d="M872.34 230.6s-3.093 3.258-3.765 4.997c-3.061-1.16-8.399-6.661-8.399-6.661s4.525 2.642 12.163 1.664z"/>
    <path d="M867.44 221.97s-3.568-1.144-3.568-2.342c0-1.526 1.733-1.526 2.769-.337.713.819.798 2.68.798 2.68z"/>
    <ellipse cx="882.798" cy="222.06" rx="5.112" ry="4.043"/>
    <circle fill="#f5d402" cx="882.8" cy="222.06" r="3.56"/>
    <circle cx="882.799" cy="222.06" r="1.511"/>
    <path d="m801.375 591.952 16.201 8.838-3.93 18.029-16.201-8.84z"/>
    <path d="m725.9 418.73-5.836 2.663L786 565.813h7.014zm77.762 170.32-4.76 4.915 2.969 6.553 5.784-2.662z"/>
    <path d="M746.39 532.6s5.554 11.472 9.775 13.045c-2.183-.595-9.271 2.006-9.271 2.006s12.499 11.165 23.1 11.898c8.99.619 13.355-3.868 13.355-3.868l-1.801-9.524s-5.5-6.642-14.302-9.707c-8.894-3.098-20.857-3.848-20.857-3.848zm41.87-20.55s-7.669 6.565-9.768 14.169c-2.1 7.605 1.368 16.247 1.368 16.247l6.444 12.021s8.931-4.753 12.73-11.86c3.799-7.108 2.406-16.698 2.406-16.698s-7.075 2.634-7.975 3.8c1.493-7.884-5.206-17.679-5.206-17.679zm-24.65-3.07s-8.722 2.948-17.192 2.438c-8.068-.487-14.777-7.262-14.777-7.262s6.688-4.526 9.989-3.923c-3.631-1.327-8.896-10.423-8.896-10.423s7.482-2.261 14.116.24c6.634 2.503 12.419 9.77 12.419 9.77l4.342 9.16zm3-42.6s4.362 9.032 3.328 12.171c1.353-2.09 6.474-5.345 6.474-5.345s3.096 14.624.135 23.656c-2.96 9.031-11.974 12.47-11.974 12.47l-9.943-19.337s-1.48-7.164 1.62-12.837c3.101-5.673 10.36-10.779 10.36-10.779zm-56.75-23.91s9.427-.99 18.051 2.583c7.21 2.993 9.42 8.433 9.42 8.433l3.551 9.52s-10.261 3.848-18.368.906c-8.108-2.945-14.065-12.68-14.065-12.68s5.666-2.149 7.823-1.343c-3.142-1.39-6.41-7.419-6.41-7.419v.001zm29.65-17.67s4.137 5.313 4.261 11.424c1.103-3.249 6.268-6.84 6.268-6.84s5.312 12.855 4.146 21.982c-1.166 9.128-8.809 14.527-8.809 14.527l-9.531-18.092s-3.106-7.415-2.191-13.167c.916-5.75 5.856-9.836 5.856-9.836zm-32.65-34.6s-1.709 9.854 1.199 15.53c2.598 5.065 4.252 6.176 4.252 6.176-4.954-3.269-12.444-3.551-12.444-3.551s2.666 10.721 9.037 15.612 16.195 3.748 16.195 3.748 6.46-8.6 6.01-17.865c-.449-9.265-7.808-19.197-7.808-19.197s-2.902 6.02-3.158 10.514c-1.878-4.633-13.285-10.966-13.285-10.966zm77 165.07.265 3.537c5.875.055 6.75-.53 8.256 1.322 1.003 1.234 3.389 2.311 5.787 1.215 2.4-1.095 3.475-3.977 2.38-6.376s-3.326-2.92-5.475-2.496c-1.319.26-2.187 1.313-3.306 1.891-2.128 1.102-7.909.908-7.909.908z"/>
    <path d="m783.35 552.57 2.859 2.095c-3.067 5.014-4.024 5.446-3.251 7.705.515 1.504.166 4.097-2.035 5.553-2.2 1.455-5.214.841-6.669-1.358-1.454-2.2-.715-4.366.783-5.965.92-.982 2.27-1.16 3.353-1.803 2.062-1.223 4.959-6.228 4.959-6.228zm-19.9-42 .264 3.537c5.876.054 6.75-.53 8.256 1.321 1.002 1.233 3.389 2.311 5.787 1.215 2.401-1.095 3.476-3.976 2.379-6.375-1.095-2.4-3.325-2.92-5.474-2.496-1.32.261-2.187 1.313-3.305 1.891-2.129 1.101-7.909.908-7.909.908z"/>
    <path d="m764.64 511.82 2.5 2.517c-3.809 4.474-4.824 4.753-4.411 7.104.276 1.567-.473 4.075-2.874 5.17-2.399 1.095-5.279.021-6.376-2.379-1.095-2.399-.028-4.425 1.701-5.771 1.061-.825 2.425-.793 3.593-1.258 2.227-.887 5.867-5.382 5.867-5.382zm-20.97-43.1.265 3.537c5.876.054 6.75-.53 8.257 1.323 1.003 1.231 3.388 2.309 5.788 1.213 2.398-1.095 3.474-3.975 2.379-6.377-1.097-2.399-3.326-2.919-5.476-2.495-1.32.261-2.187 1.313-3.306 1.891-2.128 1.102-7.908.907-7.908.907z"/>
    <path d="m745.3 467.98 2.499 2.516c-3.809 4.475-4.822 4.754-4.411 7.105.276 1.566-.473 4.074-2.873 5.169-2.399 1.094-5.28.02-6.376-2.379-1.094-2.4-.027-4.426 1.701-5.771 1.061-.827 2.424-.793 3.594-1.26 2.227-.887 5.866-5.38 5.866-5.38zm-22.7-43.44.264 3.536c5.876.055 6.751-.53 8.256 1.321 1.004 1.234 3.39 2.311 5.788 1.217 2.4-1.097 3.475-3.977 2.38-6.377s-3.326-2.921-5.476-2.496c-1.318.261-2.186 1.314-3.305 1.891-2.128 1.101-7.909.908-7.909.908z"/>
    <path d="m724.23 423.8 2.498 2.517c-3.808 4.475-4.823 4.753-4.41 7.105.276 1.566-.474 4.074-2.873 5.169-2.4 1.095-5.28.021-6.375-2.379-1.096-2.399-.028-4.427 1.699-5.771 1.062-.825 2.425-.793 3.594-1.26 2.226-.886 5.866-5.38 5.866-5.38z"/>
    <path d="m803.71 597.062 10.048 5.482-2.438 11.183-10.049-5.482zm-43.99-96.972c-2.106.874-5.23-8.295-7.524-13.318-2.353-5.155-7.131-13.1-5.774-13.72 1.489-.68 3.451 3.492 5.859 8.767 2.408 5.273 9.412 17.449 7.439 18.269zm-21.63-48.29c-2.105.877-4.41-5.127-6.703-10.151-2.353-5.154-4.645-8.795-3.288-9.415 1.49-.68 3.69 3.837 5.616 8.055 1.866 4.088 6.348 10.69 4.374 11.512zm50.04 109.49c-1.653.442-8.869-14.662-14.703-27.442-5.833-12.779-10.177-23.119-8.82-23.736 1.49-.681 6.213 11.391 12.049 24.172 5.835 12.781 12.713 26.673 11.475 27.006z" fill="#f5d402"/>
    <path d="M709.76 396.19s-.255 7.201 2.127 11.285c2.383 4.086 7.704 5.715 7.704 5.715s.254-7.199-2.128-11.283c-2.383-4.086-7.703-5.717-7.703-5.717zm-4.98 16.29s6.255.368 9.868 3.136c3.61 2.768 5.009 8.535 5.009 8.535s-4.146.421-7.756-2.347c-3.611-2.769-7.121-9.324-7.121-9.324zm19.63-14.54s-2.08 4.77-1.84 9.912c.239 5.143 3.24 10.937 3.24 10.937s2.713-6.174 2.474-11.318c-.238-5.143-3.147-8.075-3.874-9.531zm-10.53 46.36s3.071 4.288 7.799 6.626c4.728 2.337 11.773 2.424 11.773 2.424s-3.516-4.562-8.245-6.9c-4.728-2.337-11.327-2.152-11.327-2.152zm1.52 9.96s2.257 4.421 6.384 6.316c4.129 1.896 12.574 1.74 12.574 1.74s-3.24-4.131-7.368-6.027c-4.128-1.897-11.591-2.029-11.591-2.029zm23.77-23.58s-2.495 4.123-2.251 8.666c.245 4.545 3.227 9.511 3.227 9.511s2.097-5.693 1.852-10.237c-.244-4.545-2.829-7.94-2.829-7.94zm9.19 5.83s-4.269 5.73-4.882 11.621c-.613 5.89 2.428 11.942 2.428 11.942s5.157-5.178 5.77-11.068c.613-5.892-3.316-12.493-3.316-12.493zm-11.77 54.4s.513 2.118 2.297 4.367c1.783 2.251 4.836 4.632 4.836 4.632s2.949-.948 6.615-.155c3.665.795 8.54 4.06 8.54 4.06s-5.247-7.831-10.695-10.876c-5.448-3.043-11.591-2.029-11.591-2.029zm-.54 13.46s6.793-2.902 12.387-2.153c5.595.749 10.639 5.171 10.639 5.171s-7.561 2.616-13.155 1.868c-5.596-.749-9.872-4.886-9.872-4.886zm28.71-31.58s-6.007 6.364-6.511 11.887c-.503 5.522 4.871 10.669 4.871 10.669s-.264-3.542.661-5.874c.926-2.332 2.893-4.822 2.893-4.822s.838-2.843.514-5.123c-.453-3.186-2.428-6.737-2.428-6.737zm8.62 7.37s-5.662 5.729-7.158 11.864c-1.497 6.135 1.17 12.676 1.17 12.676s5.149-4.062 6.646-10.196c1.497-6.135-.659-14.344-.659-14.344zm14.18 36.98s2.565 5.355 3.215 9.833c.652 4.477.048 6.027.048 6.027s-2.652 2.607-3.841 4.14c-1.528 1.97-1.752 5.576-1.752 5.576s-5.325-7.916-4.504-13.703c.82-5.786 6.834-11.874 6.834-11.874zm11.22 12.39s-6.818 4.503-9.523 9.123c-2.708 4.617-1.304 9.349-1.304 9.349s4.858-.428 7.566-5.046c2.706-4.618 3.26-13.427 3.26-13.427zm-44.8 19.02s9.826-.268 15.832 1.209c6.006 1.475 8.192 4.695 8.192 4.695s-6.753 3.162-12.759 1.686c-6.006-1.475-11.266-7.591-11.266-7.591zm-1.66-11.66s4.433 6.873 10.164 9.367c7.898 3.435 17.043 1.77 17.043 1.77s-4.968-6.089-11.804-8.777c-6.838-2.687-15.403-2.359-15.403-2.359z" fill="#097754"/>
    <path d="m1088.74 401.944 1.281 2.712s-2.08.714-3.022 2.559c-.94 1.847.615 4.455.615 4.455s-10.804-.943-12.491.154c-1.528.99.647 8.474-.359 14.795-1.402 8.81-4.875 8.07-5.017 9.777-.138 1.659 1.331 4.249 1.331 4.249s-2.026.638-2.458 1.485c-.695 1.362.484 3.875-.358 5.528-4.7 9.223-11.64 22.836-16.228 31.843-.641 1.257-2.363 1.737-3.226 3.43-.796 1.562-.153 3.839-.153 3.839s-3.041.182-4.096 2.253c-1.121 2.2-.461 5.17-.461 5.17s-1.923.246-2.868 2.099c-1.009 1.981.7 3.02.259 3.891-6.169 12.102-13.434 26.368-17.867 35.068-1.631 3.199-7.338 3.84-10.65 10.341-3.214 6.306 1.382 10.955 1.382 10.955s-4.772.432-6.04 2.919c-1.292 2.535-.27 6.384 3.174 8.139 3.444 1.754 7.207.334 8.5-2.201 1.267-2.487-1.281-6.604-1.281-6.604s6.463.931 9.675-5.376c3.313-6.501.52-11.441 2.15-14.641 4.434-8.7 11.7-22.965 17.867-35.068.445-.871 2.267-.117 3.276-2.098.944-1.853 0-3.532 0-3.532s2.822-1.23 3.943-3.431c1.056-2.071-.563-4.658-.563-4.658s2.223-.792 3.02-2.354c.862-1.693.228-3.35.869-4.609 4.59-9.006 11.531-22.62 16.229-31.841.843-1.655 3.555-2.221 4.249-3.585.432-.846-.255-2.866-.255-2.866s2.988-.296 4.248-1.383c1.298-1.118-1.337-3.516 4.967-9.829 4.522-4.528 11.817-7.192 11.722-9.01-.105-2.01-7.218-10.187-7.218-10.187s3.001-.253 3.942-2.098c.941-1.846.308-3.994.308-3.994l2.968-.512V393.65zm-98.136 196.074a3.498 3.498 0 0 0 0 3.121s-3.583-1.12-4.812-.512c-1.158.573 0 17.458 0 17.458s14.295-9.018 14.077-10.29c-.23-1.352-3.225-3.635-3.225-3.635 1.158-.186 2.061-.912 2.509-1.791.47-.925.533-3.568-2.714-5.223-1.216-.62-2.299-.804-3.175-.716-1.455.147-2.365 1.01-2.66 1.588z"/>
    <g fill="#f5d402">
        <path d="m1091.34 402.51 6.757 3.431-.101-8.14zm-2.61 4.915c-.868 1.704-.025 3.886 1.894 4.863 1.92.977 4.148.373 5.018-1.33.868-1.704.023-3.885-1.895-4.863a4.2 4.2 0 0 0-2.201-.462c-1.208.083-2.273.727-2.816 1.792zm-11.62 6.195c-.711.46.256 6.545.051 11.722-.194 4.882-1.756 6.257-2.611 7.935-.789 1.549-3.634 3.379-3.634 3.379l2.354 2.355s1.532-2.386 3.942-7.118c2.843-5.579 2.751-15.688 3.585-16.227.725-.469 6.655-1.946 6.655-1.946-.001 0-5.442-.294-8.447-.255-1.003.013-1.73.048-1.895.155z"/>
        <path d="M1077.73 441.725s.787-2.188 3.533-7.577c3.311-6.499 10.379-11.213 10.544-12.389.172-1.212-2.457-6.91-2.457-6.91s-6.235 1.195-7.117 2.048c-.852.823-.476 9.267-3.788 15.767-2.744 5.388-4.094 7.372-4.094 7.372z"/>
        <path d="M1093.65 422.22c.052.989-8.163 6.861-11.007 12.439-2.41 4.731-3.43 7.373-3.43 7.373l3.277.512s-.226-3.367.563-4.915c.854-1.677 1.079-3.731 4.915-6.757 4.068-3.209 9.567-6.014 9.522-6.861-.041-.782-6.144-8.344-6.144-8.344s2.257 5.692 2.304 6.553zm-24.06 36.5c4.936-9.688 6.444-10.348 7.065-11.569.669-1.312.509-3.078-1.689-4.199-.824-.419-1.531-.526-2.15-.459-1.033.111-1.784.767-2.201 1.586-.622 1.222-.285 2.855-5.223 12.544l-11.212 21.961s-1.175 2.156 1.024 3.276c2.199 1.119 3.174-1.127 3.174-1.127zm-19.81 25.188c-.611 1.201.436 2.964 2.355 3.943 1.919.976 3.996.791 4.607-.41.611-1.2-.486-2.964-2.406-3.943-.959-.489-1.935-.687-2.764-.613-.83.072-1.486.424-1.792 1.023zm-4.15 6.245c-.792 1.553.443 3.783 2.765 4.968 2.322 1.183 4.84.886 5.631-.667.792-1.554-.444-3.782-2.765-4.967-.871-.442-1.733-.677-2.56-.716-1.374-.065-2.576.411-3.071 1.382zm-2.61 6.964c-.611 1.199.437 2.963 2.355 3.941 1.919.978 3.995.791 4.608-.409.611-1.2-.437-2.964-2.355-3.942-.96-.49-1.986-.688-2.816-.615-.828.073-1.485.424-1.792 1.025zm-1.69 6.655s-12.448 24.5-16.84 33.121c-1.404 2.754-7.312 4.47-9.625 9.011-2.33 4.568-.686 8.844 2.354 10.392 3.039 1.549 7.502.423 9.83-4.146 2.313-4.54.235-10.353 1.637-13.106 4.393-8.624 16.843-33.122 16.843-33.122s1.226-2.156-.973-3.276a2.372 2.372 0 0 0-1.433-.255c-1.212.155-1.793 1.381-1.793 1.381zm-31.49 56.874c-.933 1.83.134 4.269 2.405 5.426 2.272 1.158 4.904.601 5.837-1.228.933-1.83-.186-4.27-2.457-5.427-.852-.435-1.721-.637-2.56-.614-1.399.04-2.643.7-3.225 1.843zm-16.583 37.423c-.71.024-1.298.249-1.535.717-.477.935.508 2.413 2.201 3.276 1.693.862 3.464.782 3.942-.154.477-.937-.51-2.414-2.201-3.276-.847-.432-1.695-.588-2.407-.564zm-5.836 4.606v12.082l9.83-7.065s-1.333-2.354-4.25-3.84c-2.917-1.485-5.58-1.178-5.58-1.178z"/>
    </g>
    <path fill="#f5d402" d="M993.643 333.597c0-6.626 8.703-13.157 8.703-13.157H790.1s8.703 6.53 8.703 13.157v157.986c0 4.162 1.286 6.872 3.328 9.521 2.041 2.853 6.39 6.795 10.903 9.727 13.94 9.053 37.246 18.599 54.88 26.621 14.694 6.684 20.671 9.381 28.309 18.839 7.639-9.458 13.667-12.154 28.361-18.839 17.631-8.021 40.938-17.568 54.879-26.621 4.515-2.932 8.864-6.873 10.904-9.727 2.042-2.649 3.276-5.359 3.276-9.521z"/>
    <path fill="#d10429" d="M803.82 422.981v-89.385c0-5.059-2.56-8.139-2.56-8.139h189.928s-2.56 3.081-2.56 8.139l.054 89.385-92.431 28z"/>
    <path fill="#0b45bb" d="m988.681 422.981-57.234-1.075h-70.393l-57.234 1.075v68.601c0 3.448 3.578 11.525 24.215 21.807 34.111 16.998 60.33 24.934 68.189 34.607 7.858-9.673 34.077-17.61 68.189-34.607 20.636-10.282 24.214-18.359 24.214-21.807z"/>
    <path d="M930.063 419.401s33.019-8.326 33.019-43.617c0-27.563-33.103-41.237-34.044-47.814-3.235 11.381 11.058 27.1 11.058 45.715 0 24.086-17.764 25.239-17.764 25.239-4.157 0-5.841 2.968-7.475 2.968-3.497-.365-5.143-4.813-8.601-4.813-3.247 0-5.74 5.017-10.033 5.017-4.292 0-6.735-5.017-9.983-5.017-3.456 0-5.103 4.448-8.6 4.813-1.634 0-3.319-2.968-7.476-2.968 0 0-17.763-1.153-17.763-25.239 0-18.615 14.295-34.336 11.058-45.715-.938 6.577-34.041 20.25-34.041 47.814 0 35.291 33.019 43.617 33.019 43.617l-9.42 17.149s13.645.683 20.887 6.861c8.733 7.448 7.883 23.229 7.883 34.709 0 9.045-1.143 18.59-5.784 22.524-6.232 5.284-10.445 5.675-10.445 11.878 0 5.174 3.977 6.211 10.445 9.625 8.287 4.373 7.901 10.238 20.22 10.238 12.321 0 11.985-5.864 20.273-10.238 6.468-3.414 10.444-4.451 10.444-9.625 0-6.203-4.214-6.594-10.444-11.878-4.641-3.936-5.784-13.48-5.784-22.524 0-11.48-.849-27.261 7.883-34.709 7.243-6.177 20.886-6.861 20.887-6.861z"/>
    <path d="m896.22 330.42-5.735 16.281-15.614-7.424 7.423 15.615-16.279 5.784 16.279 5.785-7.423 15.563 15.614-7.423 5.735 16.279 5.785-16.279 15.614 7.423-7.422-15.563 16.279-5.785-16.279-5.784 7.422-15.615-15.614 7.424-5.785-16.281zm-35.17 91.49s-20.387-4.984-28.002-15.051c-13.313 11.976-29.232 16.126-29.232 16.126s16.607 7.498 29.232 17.048c5.817-8.336 28.002-18.123 28.002-18.123zm70.39 0s22.186 9.786 28.004 18.123c12.623-9.55 29.229-17.048 29.229-17.048s-15.917-4.151-29.229-16.126c-7.615 10.066-28.004 15.051-28.004 15.051zm-62.04 21.7-7.935 7.934 7.935 7.935 7.935-7.935-7.935-7.934zm53.7 0-7.934 7.934 7.934 7.935 7.935-7.935-7.935-7.934zm-55.697 46.33c0 10.025-.972 15.307-.972 15.307s11.186-3.293 13.414-14.641c1.044-5.32 2.207-24.918-3.175-28.259l-14.59-2.867c1.576 3.899 5.323 15.977 5.323 30.46zm48.426-27.592c-5.381 3.34-4.218 22.938-3.174 28.259 2.227 11.348 13.413 14.641 13.413 14.641s-.972-5.282-.972-15.307c0-14.483 3.747-26.562 5.324-30.46zm-82.824.567c-5.031 1.262-8.071 6.385-6.808 11.416.193.77.511 1.481.87 2.15a9.254 9.254 0 0 0-2.304-.461 9.55 9.55 0 0 0-.972 0c-4.761.16-8.73 3.903-9.061 8.755-.354 5.174 3.579 9.629 8.755 9.983a9.393 9.393 0 0 0 2.251-.103 9.217 9.217 0 0 0-1.125 1.996c-1.937 4.813.409 10.351 5.222 12.288 4.812 1.935 10.298-.461 12.234-5.273a9.067 9.067 0 0 0 .564-2.202 9.277 9.277 0 0 0 1.586 1.689c3.979 3.328 9.931 2.801 13.259-1.177a9.364 9.364 0 0 0-1.178-13.208c-.602-.504-1.27-.9-1.945-1.228a9.316 9.316 0 0 0 2.098-.972c4.395-2.755 5.725-8.609 2.969-13.004-1.894-3.021-5.222-4.574-8.549-4.351a9.465 9.465 0 0 0-4.403 1.434 9.33 9.33 0 0 0-1.791 1.433 9.436 9.436 0 0 0-.256-2.303c-1.104-4.403-5.151-7.305-9.522-7.117a9.522 9.522 0 0 0-1.894.255zm99.82 27.335c1.017 9.587 8.808 17.619 18.429 19.914-1.643-2.687-2.735-5.682-3.072-8.856-1.205-11.37 7.588-20.581 19.607-20.581 1.894 0 3.729.234 5.528.667-4.237-6.947-12.215-11.775-20.887-11.775-12.018.001-20.813 9.263-19.605 20.631z"/>
    <g fill="#ffd200">
        <path d="M847.592 373.684c0 18.128 9.667 28.821 22.576 28.821 2.462 0 5.155 3.328 7.475 3.328 3.782 0 6.298-4.198 8.601-4.198 2.927 0 4.9 4.607 9.982 4.607 5.083 0 7.107-4.607 10.034-4.607 2.302 0 4.818 4.198 8.6 4.198 2.321 0 5.012-3.328 7.475-3.328 12.909 0 22.577-10.693 22.577-28.821 0-14.784-12.416-32.81-11.058-35.734 0 0 24.214 17.369 24.214 37.832 0 32.963-33.429 41.109-33.429 41.109l7.525 16.944s-10.362 1.554-16.689 6.656c-8.439 6.805-8.55 25.191-8.55 37.626 0 14.648.545 20.855 5.837 24.829 5.58 4.193 9.777 5.096 9.777 9.369 0 3.723-4.345 5.246-9.983 7.73-6.413 2.827-7.052 7.731-16.33 7.731-9.279 0-9.867-4.904-16.28-7.731-5.637-2.484-9.983-4.006-9.983-7.73 0-4.273 4.197-5.176 9.777-9.369 5.292-3.974 5.836-10.181 5.836-24.829 0-12.435-.11-30.821-8.549-37.626-6.328-5.104-16.689-6.656-16.689-6.656l7.524-16.944s-33.428-8.145-33.428-41.109c0-20.463 24.215-37.832 24.215-37.832 1.358 2.924-11.057 20.95-11.057 35.734zM883.58 509.81c-6.567 0-10.75 1.386-10.75 3.379 0 1.994 4.184 3.328 10.75 3.328 1.75 0 3.737-1.019 3.737-3.328s-1.988-3.379-3.737-3.379zm25.34 0c-1.75 0-3.737 1.071-3.737 3.379-.001 2.309 1.987 3.328 3.737 3.328 6.568 0 10.75-1.333 10.75-3.328 0-1.994-4.183-3.379-10.75-3.379z"/>
        <path d="m896.28 341.38 3.686 10.394 9.931-4.761-4.71 9.982 10.342 3.687-10.342 3.686 4.71 9.931-9.931-4.71-3.737 10.341-3.686-10.341-9.931 4.71 4.71-9.931-10.341-3.686 10.341-3.687-4.71-9.982 9.931 4.761 3.737-10.394zm-46.133 81.148c-.002 0-17.099 12.696-17.099 12.696l-.206.255-.358-.307-18.941-11.877s12.087-4.167 19.198-11.415c6.728 7.703 17.406 10.648 17.406 10.648zm128.801.767s-12.609 6.28-18.943 11.877l-.357.307-.204-.255c-5.986-6.871-17.098-12.696-17.098-12.696s10.676-2.945 17.405-10.648c7.111 7.248 19.197 11.415 19.197 11.415zM869.4 447.4l4.147 4.145-4.147 4.199-4.198-4.199 4.198-4.145zm53.7 0 4.199 4.145-4.199 4.199-4.146-4.199 4.146-4.145zm-48.067 18.119c2.897 3.998 2.405 10.462 2.405 19.455 0 9.067-6.808 12.541-6.808 12.541 0-21.794-2.247-27.034-3.43-33.635zm50.267-1.639c-1.185 6.602-3.429 11.841-3.429 33.634 0 0-6.809-3.474-6.809-12.541 0-8.993-.492-15.455 2.406-19.454l7.832-1.639z"/>
        <path id="b" d="M842.832 472.128c.204.816.226 1.618.153 2.407-.06.654-.234 1.248-.46 1.842-1.133-.414-2.359-.615-3.635-.615-3.159 0-5.987 1.39-7.935 3.585a7.308 7.308 0 0 1-1.33-1.536c-.42-.649-.775-1.359-.973-2.15-.982-3.913 1.411-7.876 5.324-8.857.488-.124 1-.185 1.484-.204a7.29 7.29 0 0 1 7.372 5.528z"/>
        <use xlink:href="#b" transform="rotate(72 838.89 486.468)"/>
        <use xlink:href="#b" transform="rotate(144 838.89 486.468)"/>
        <use xlink:href="#b" transform="rotate(216 838.89 486.468)"/>
        <use xlink:href="#b" transform="rotate(288 838.89 486.468)"/>
        <circle cx="838.89" cy="486.468" r="7.065"/>
        <path d="M962.925 476.942c-11.729 2.268-20.17 12.628-18.942 24.727-3.738-3.096-6.473-7.266-6.962-11.877-.951-8.979 5.571-15.922 15.41-15.922 3.761 0 7.375 1.152 10.494 3.072z"/>
    </g>
</svg>
