<svg xmlns="http://www.w3.org/2000/svg" viewBox="0 0 1000 500">
    <path fill="#0071bc" d="M0 0h1000v500H0z"/>
    <g fill="none" stroke="#000" stroke-width="1.935">
        <path fill="#fff" d="M557.817 395.544s17.632-18.65 34.586-15.09c5.086-19.665 24.244-21.191 24.244-21.191s-1.865-21.7 22.717-26.448c.679-14.75 15.598-26.956 15.598-26.956s-3.052-22.888 12.546-28.143c-9.494-18.14 3.22-31.365 3.051-31.704-.17-.339-16.106-28.652-1.865-36.79-15.088-12.715-10.172-27.125-10.172-27.125s-16.445-4.239-10.511-23.905c-13.563-2.374-16.276-24.244-16.276-24.244s-20.853 4.238-23.396-13.902c-13.732 2.204-15.258-11.359-15.428-11.359-.17 0-27.295 7.29-32.72-13.224-10.511 5.426-15.09-4.238-15.09-4.238s-15.088 7.46-24.073-6.951c-17.971 11.19-27.974-.509-27.974-.509s-23.566 15.597-31.364 3.56c-13.902 14.072-26.279 7.969-26.279 7.969s-10.51 18.649-27.465 13.902c-3.899 17.292-23.396 17.632-23.396 17.632s2.035 15.258-21.361 19.327c-3.052 17.97-15.259 21.022-15.259 21.022s1.187 17.463-9.833 23.057c3.9 9.834-6.273 21.87-6.273 21.87s10.85 13.563-3.899 28.822c14.241 3.73 3.9 28.313 3.9 28.313s19.666 8.816 7.29 25.091c14.071 4.578 9.663 15.767 9.833 22.38 8.985 4.068 16.953 2.033 13.054 20.174 27.634 3.052 14.58 18.31 14.58 18.31s12.885.509 7.799 10.68c23.565-.508 26.956 17.633 26.956 17.633s21.87-5.765 24.753 2.712c2.882 8.477-9.494 65.611-9.494 65.611s-18.48 0-32.212-14.75c-32.213-.847-25.092-22.04-25.6-22.04-.51 0-10.681 3.9-15.937-13.732-21.531 4.408-20.853-13.732-21.023-13.902-.17-.17-9.663-4.408-6.103-13.393-22.21 2.034-20.514-19.667-20.514-19.667-4.86-1.978-6.668-6.499-5.934-11.02-2.882-1.017-22.548-1.356-12.376-27.295-18.819-11.36-7.12-24.413-7.12-24.413s-25.94-13.394-5.934-28.822c-14.92-22.04 1.186-33.06 1.186-33.06s-20.683-21.022.34-35.941c-3.391-31.873 15.597-39.502 15.597-39.502s-10.003-25.94 17.123-36.79c1.696-26.278 20.684-26.956 20.684-26.956s.508-20.853 30.347-18.819c5.764-18.649 26.109-14.92 26.109-14.92s6.272-22.548 33.907-11.697c14.071-27.465 34.925-13.394 34.925-13.394s13.223-8.646 19.835-5.934c8.396-14.428 26.27-.559 37.827 2.233 4.188-1.629 19.138-12.913 30.666 1.328 15.259-10.003 28.313 7.968 28.313 7.968s21.023-10.68 30.856 13.733c44.588-4.07 38.146 25.09 38.146 25.09s35.094-7.967 27.465 26.957c31.873 2.204 28.651 23.227 28.651 23.227s20.175 15.258 11.36 28.99c17.97.848 11.358 18.141 11.358 18.141s13.733 5.256 2.374 26.617c26.278 21.023 5.086 41.876 4.916 41.707-.17-.17 14.072 16.953 1.187 36.62 3.9 31.195-11.867 39.163-11.867 39.163s4.068 20.175-13.563 25.939c-.34 23.735-22.718 26.617-22.718 26.617s5.933 10.31-16.276 21.16c-.876 15.882-24.074 17.155-24.074 17.155s-2.204 29.16-31.704 21.362c-7.16 23.397-41.706 16.445-42.384 16.106-.678-.339-6.612-50.183-6.612-50.352z"/>
        <path d="M599.01 420.07s-2.616 5.032 7.85 9.46m13.08-21.34s11.673-2.818 19.522 0m15.298-29.38c0 .201-1.61 5.233 7.648 12.478M661.4 365.73s6.843 5.032 18.315 4.83m-87.345 9.86s.402 13.283-6.44 19.522m29.38-40.052s11.27 2.818 20.529-1.811m51.721-17.709s2.415 3.421 14.893 2.818M638.86 332.52c.402.201 14.692 4.83 23.749.604m4.821-55.354s.604-.805 5.032 14.692M678.5 234.1s-.604 8.252-7.245 11.874m49.715-45.684s-9.66 7.849-7.849 11.069M672.87 194.65s5.032 8.453-3.22 14.289m-21.13-50.509s8.654-.403 12.478 7.044m5.632-61.784c0 .201 1.811 1.811-1.61 5.233m-60.18-4.433s4.629 7.245 3.824 16.101m22.946-40.654c2.013-.201 8.855-3.22 8.855-3.22m-38.645-25.56c-.201 0-2.616 9.057 1.811 12.277M590.75 92.415c0 9.66 7.648 7.245 2.415 16.503M572.04 84.365c-.201 0-12.075 9.258-12.075 10.868m-18.925-15.9s5.032 5.031 3.824 11.874M499.58 73.295c-.201.403-4.227 9.057-7.044 10.667M462.96 73.497c.201 0 4.025 8.05-1.006 13.887M397.75 106.91c.201.402 10.264 2.013 10.264 2.013M372.59 130.25c.201-.201 12.277-3.824 12.277-3.824M353.07 145.35c.403 0 8.453 1.409 10.465.403m-16.105 7.037s2.616 1.409.403 14.893M308.19 117.37l4.83 7.245M291.68 154.6c0-.201 4.83 7.245 11.271 8.654m26.769 29.186c.201 0 7.85-1.61 9.057-2.415M326.3 219.81c.201 0-.201-5.032 6.038-8.453M318.05 232.29c0 .201 5.837 7.447 9.862 8.453m-13.282 5.437c.604-.201 6.843-5.636 14.088-5.233M312.61 264.89s.201 6.24 18.717 4.63m-16.897 17.31c0-.201 5.434-12.478 16.503-17.107m-1.613 32.807s1.61-5.233 10.868-8.855m-.608 29.585s6.642-5.434 9.057-6.239m-.797 22.339s4.025 4.226 14.088-3.019m-62.598 6.439c1.208-.201 15.899-3.623 20.931 4.025m-15.091 8.055s15.497-2.013 17.51-.402m37.83 3.622s-2.013 4.227 17.107-2.818m6.643 10.468c-3.421 5.836.805 10.465-3.623 13.082M326.1 373.78c.604-.402 7.044-2.616 6.038-11.874m-.198 25.754c.805-.201 11.472-4.83 13.686-2.415m7.244 15.905s1.409-9.46 4.428-10.465m11.672 24.755s8.855-.201 12.679-3.019m4.421-28.981c.201.201 8.252 4.428 25.359.201M392.51 421.88s2.415 12.277 2.214 15.094M632.21 133.87h6.642M526.35 75.308s-2.616 7.648-6.038 9.66M454.5 31.836c.201.201.805 6.239-3.019 11.472m-33.201 2.214c0 .201 1.61 6.843-9.057 9.057"/>
    </g>
    <g fill="#f7df73" stroke="#000" stroke-linejoin="round" fill-rule="evenodd">
        <path d="M561.72 423.68s100.53-28.397 130.89-151.78c-17.626 126.65-127.63 166.79-127.63 166.79l-3.264-15.015z" stroke-width="2.419"/>
        <path d="M429.95 421.01s-99.612-28.908-129.69-154.51c17.464 128.92 126.46 169.79 126.46 169.79l3.234-15.285z" stroke-width="2.429"/>
    </g>
    <g fill="#8c1800">
        <path d="M572.03 431.37c3.107 0 10.794-8.505 15.21-9.486 4.416-.981 4.907-5.397-.164-5.56-5.07-.164-9.485 5.724-9.485 5.724s-4.416 3.761-8.996 4.252c-4.58.49-1.635 6.215 3.435 5.07zm21.42-15.7s-3.108-1.145 4.907-4.252c8.013-3.108 7.523-6.706 10.14-8.178 2.616-1.472 8.177-5.397 9.322-3.107 1.145 2.29-5.888 6.869-7.523 7.36-1.636.49-9.65 7.85-11.94 8.504-2.29.654-3.925.327-4.906-.327zm-173.71 13.17c-3.079 0-10.695-8.658-15.071-9.656-4.375-1-4.862-5.495.162-5.661 5.023-.167 9.399 5.827 9.399 5.827s4.375 3.83 8.913 4.329c4.537.5 1.62 6.326-3.403 5.16zm-21.23-15.98s3.08-1.165-4.862-4.329c-7.94-3.163-7.454-6.826-10.047-8.324-2.592-1.499-8.102-5.494-9.236-3.164s5.834 6.993 7.454 7.493 9.561 7.991 11.83 8.657c2.269.666 3.89.333 4.861-.333z"/>
        <path stroke="#8c1800" stroke-width="2.419" d="M629.92 388.19s-10.467 6.051-8.995 7.523c1.472 1.472 10.794-5.724 10.958-5.887.163-.164 3.925-4.743-1.963-1.636z"/>
        <path stroke="#8c1800" stroke-width="2.429" d="M362.37 384.89s10.371 6.16 8.913 7.658c-1.459 1.499-10.695-5.827-10.857-5.993-.162-.167-3.89-4.828 1.944-1.665z"/>
    </g>
    <g fill="none" stroke="#8c1800" stroke-linecap="round">
        <path stroke-width="3.144" d="M645.46 372.82c-6.869 7.687-6.869 7.523-6.869 7.523"/>
        <path stroke-width="2.902" d="m655.76 360.23-6.542 8.014"/>
        <path stroke-width="2.66" d="m666.07 343.87-7.36 11.776"/>
        <path stroke-width="2.419" d="m674.74 327.19-6.051 12.103m9.971-20.933-1.963 4.252"/>
        <path stroke-width="1.451" d="m683.08 306.75-1.636 5.07"/>
        <path stroke-width="3.158" d="M346.98 369.24c6.806 7.825 6.806 7.659 6.806 7.659"/>
        <path stroke-width="2.915" d="m336.77 356.42 6.482 8.158"/>
        <path stroke-width="2.672" d="m326.56 339.77 7.293 11.987"/>
        <path stroke-width="2.429" d="m317.97 322.79 5.996 12.32m-9.886-21.31 1.945 4.329"/>
        <path stroke-width="1.457" d="m309.71 301.98 1.62 5.161"/>
    </g>
    <path d="M343.56 115.74c.086 0 7.477 6.41 6.096 16.07-1.38 9.66-6.959 23.09-5.837 33.095.685 4.011.426 11.198.426 11.198s-6.7-9.52-6.786-19.698 7.255-19.842 7.255-27.346c0-7.504-1.327-13.492-1.154-13.319zm-3.66 2.88s-9.698 9.258-10.947 18.255c-.922 4.638-1.28 26.247-1.39 35.839-.217 2.943-1.437 14.558-1.696 18.785-.258 4.226 7.134-7.215 7.557-16.53-.231-9.643-.232-29.953.749-33.005.872-3.924.682-8.259 2.03-12.194 1.785-5.46 3.783-11.064 3.697-11.15z" fill="#217900" stroke="#000" stroke-width="1.935" stroke-linejoin="round"/>
    <g fill="none" stroke="#6b18b5" stroke-linejoin="round">
        <path stroke-width="1.935" d="M276.41 180.31s6.574 9.102 7.754 14.328c1.18 5.225 3.371 15.508 6.237 19.722 2.865 4.214 19.216 27.644 20.059 37.421.168 6.405-6.743 17.362-17.025 17.53-6.406-.168-22.924-4.382-23.6-18.542-.674-14.159 5.058-14.497 5.732-23.093.674-8.597.843-47.197.843-47.366z"/>
        <path d="M389.35 56.361s-6.806.485-12.046 3.326c-4.06 2.503-10.937 6.105-15.743 12.769-12.223 9.529-30.612 13.975-36.412 21.891-3.472 5.386-3.258 18.338 5.44 23.823 5.56 3.184 21.865 8.165 29.797-3.583 7.932-11.748 3.21-15.014 7.1-22.71 6.418-17.641 21.776-35.372 21.864-35.517zm165.09-17.195s-5.083-4.552-10.769-6.34c-4.623-1.175-12.322-.664-20.288-1.446-15.348-2.153-31.171-13.253-40.892-11.912-6.284 1.252-15.441 10.416-13.331 20.481 1.58 6.21 8.525 18.768 22.483 16.294s13.837-5.519 22.072-8.078c20.085-11.262 40.56-8.961 40.724-8.999zM718.18 198.3c1.146-2.62-.965-7.542-2.464-13.311-1.455-4.542-3.627-11.592-8.941-17.858-6.315-14.154-5.233-33.564-11.524-41.094-4.395-4.663-17.02-7.567-24.433-.44-4.427 4.633-13.177 19.264-3.678 29.785 9.5 10.52 13.64 6.558 20.176 12.182C702.9 178.03 710.531 196.38 718.18 198.3zm-5.59 123.64c2.128-2.946 5.938-8.625 5.485-13.354-.359-3.746 1.717-15.101 1.944-20.055 1.408-15.434 11.069-27.962 8.442-41.372-1.554-6.216-10.658-15.083-20.61-12.489-6.126 1.879-19.765 9.384-16.62 23.206 3.146 13.822 7.612 13.593 10.566 21.694 8.48 16.748 3.054 36.642 10.793 42.37z"/>
    </g>
    <g fill="#6b18b5">
        <path d="M491.8 26.96c0-2.178-2.449-3.943-5.471-3.943s-5.472 1.765-5.471 3.943c-.001 2.178 2.449 3.943 5.47 3.943s5.473-1.765 5.472-3.943zm2.34 9.173c0-2.088-2.522-3.782-5.632-3.782s-5.632 1.694-5.632 3.782 2.521 3.782 5.632 3.782 5.632-1.693 5.632-3.782zm7-10.862s-6.437 4.828-3.781 6.759c2.655 1.93 9.976-4.184 9.976-4.184l-6.195-2.575zM690.31 135.8c.002-1.372-.641-2.641-1.687-3.328a3.03 3.03 0 0 0-3.38 0c-1.045.687-1.689 1.956-1.687 3.328-.002 1.372.642 2.641 1.687 3.328 1.046.687 2.334.687 3.38 0s1.689-1.956 1.687-3.328zm-2.45-9.21c0-2.289-1.58-4.144-3.53-4.144-1.95 0-3.53 1.855-3.53 4.144s1.58 4.144 3.53 4.144 3.53-1.855 3.53-4.144zm1.69 18.73c0-1.187-.618-2.149-1.381-2.149s-1.382.962-1.382 2.149.619 2.149 1.382 2.149c.763 0 1.381-.962 1.381-2.149zm5.68-16.73c0-1.356-.618-2.456-1.381-2.456s-1.382 1.1-1.382 2.456.619 2.456 1.382 2.456c.763 0 1.381-1.1 1.381-2.456zm-15.51 1.69c0-1.102-.618-1.995-1.381-1.995s-1.382.893-1.382 1.995.619 1.995 1.382 1.995c.763 0 1.381-.893 1.381-1.995zm2.46 13.2c0-1.78-1.305-3.225-2.916-3.225s-2.917 1.444-2.917 3.225c0 1.78 1.306 3.225 2.917 3.225 1.61 0 2.917-1.444 2.916-3.225zm-7.68-5.84c0-1.526-1.1-2.763-2.456-2.763-1.356 0-2.456 1.237-2.456 2.763 0 1.526 1.1 2.763 2.456 2.763s2.456-1.237 2.456-2.763zm-1.22-7.82c.001-.823-.408-1.585-1.074-1.996a2.026 2.026 0 0 0-2.15 0c-.665.411-1.075 1.173-1.074 1.996 0 .823.409 1.585 1.074 1.996a2.026 2.026 0 0 0 2.15 0c.666-.411 1.075-1.173 1.074-1.996zm34.99 39.8c-3.17-4.184-8.246-5.947-11.337-3.938-3.09 2.01-3.026 7.03.144 11.215 3.17 4.184 8.247 5.947 11.337 3.938 3.091-2.01 3.026-7.03-.144-11.215zm9.01 77.19c.614-5.135-1.89-9.656-5.593-10.099-3.704-.443-7.204 3.36-7.819 8.494-.614 5.135 1.89 9.656 5.594 10.1 3.703.443 7.204-3.36 7.818-8.495zm1.9 44.94c1.055-5.062-1.049-9.783-4.7-10.544-3.652-.761-7.468 2.725-8.523 7.787-1.056 5.063 1.049 9.784 4.7 10.545 3.652.76 7.467-2.726 8.523-7.788zm8.66-42.06c0-2.034-1.374-3.684-3.07-3.684-1.695 0-3.07 1.65-3.07 3.684s1.375 3.684 3.07 3.684c1.696 0 3.07-1.65 3.07-3.684zm-7.52 8.44-6.293 7.137s-5.91.154-5.603 2.073c.307 1.918 8.136 7.674 8.059 9.977-.077 2.302 5.219-.538 5.219-.538s4.22-12.817 4.22-12.893c0-.076-.23-8.902-2.532-8.749-2.303.154-2.926 2.83-3.07 2.994zm-413.94-2.82a2.995 2.995 0 1 0-5.99 0 2.995 2.995 0 0 0 5.99 0zm2.83-9.15c0-1.746-1.341-3.162-2.995-3.162-1.654 0-2.995 1.416-2.995 3.162s1.34 3.162 2.995 3.162c1.654 0 2.995-1.416 2.995-3.162zm-24.6-43.53c-1.123-2.518-3.463-3.921-5.225-3.135-1.762.786-2.28 3.465-1.157 5.982s3.462 3.922 5.225 3.135c1.762-.786 2.28-3.464 1.157-5.982zm7.43 27.12c-1.543-3.263-4.757-5.082-7.178-4.063s-3.132 4.49-1.59 7.754 4.757 5.082 7.178 4.063 3.133-4.49 1.59-7.754zm7.95 19.88c.5-4.076-1.189-7.82-3.772-8.363-2.584-.542-5.083 2.322-5.583 6.397-.5 4.076 1.189 7.82 3.772 8.363 2.584.543 5.083-2.321 5.583-6.397zm-12.76 2.91c1.598-3.783 1-7.846-1.336-9.076s-5.524.84-7.122 4.622c-1.598 3.783-1 7.846 1.336 9.076s5.524-.84 7.122-4.622z"/>
        <path d="M281.42 243.99c0-1.93-1.49-3.494-3.328-3.494-1.838 0-3.328 1.564-3.328 3.494s1.49 3.494 3.328 3.494c1.838 0 3.328-1.564 3.328-3.494zm-2.66-8.65c0-1.746-1.341-3.162-2.995-3.162s-2.995 1.416-2.995 3.162 1.34 3.162 2.995 3.162c1.654 0 2.995-1.416 2.995-3.162zm2.82-16.64c0-2.94-1.304-5.325-2.912-5.325-1.608 0-2.912 2.384-2.912 5.325s1.304 5.325 2.912 5.325 2.912-2.384 2.912-5.325zm8.96-1.28c.388-2.915-.59-5.45-2.184-5.662-1.594-.213-3.201 1.979-3.589 4.894-.388 2.915.59 5.45 2.184 5.662 1.594.212 3.201-1.979 3.589-4.894zm63.85-127.378c1.187-4.128-.037-8.277-2.734-9.267-2.697-.99-5.845 1.554-7.032 5.682-1.187 4.129.037 8.278 2.734 9.268 2.697.99 5.845-1.555 7.032-5.683zm-12.12 18.378c3.557-3.027 5.076-7.212 3.394-9.349-1.683-2.136-5.93-1.414-9.486 1.613s-5.076 7.213-3.394 9.349 5.93 1.414 9.486-1.613zm-7.08-10.203c3.517-2.599 5.02-6.192 3.356-8.025-1.664-1.834-5.863-1.214-9.38 1.384-3.518 2.599-5.02 6.192-3.356 8.026 1.663 1.833 5.863 1.214 9.38-1.385zm27.27-17.936c2.372-1.813 3.385-4.32 2.263-5.6s-3.954-.847-6.326.966c-2.372 1.814-3.385 4.32-2.263 5.6s3.954.847 6.326-.966z"/>
        <path d="M348.25 97.659c1.622-2.506 1.73-5.208.243-6.035-1.487-.826-4.008.535-5.63 3.042s-1.73 5.208-.243 6.035c1.487.826 4.008-.536 5.63-3.042zm20.51-10.739c2.55-2.15 3.544-4.997 2.22-6.36s-4.467-.725-7.017 1.425c-2.55 2.15-3.545 4.997-2.22 6.36s4.466.725 7.017-1.425zm-37.07 25.05c2.384-.119 4.184-1.307 4.02-2.653-.164-1.346-2.23-2.34-4.614-2.222-2.385.12-4.185 1.307-4.02 2.653.164 1.346 2.23 2.341 4.614 2.222zm44.88-38.364c1.622-2.506 1.73-5.208.243-6.035-1.487-.826-4.008.535-5.63 3.042s-1.73 5.208-.243 6.035c1.487.826 4.008-.536 5.63-3.042z"/>
    </g>
    <g fill="#ffd200" stroke="#ef8a10" stroke-width="1.935">
        <path d="M553.24 88.375s12.574-5.8 16.169-16.603c3.594-10.802-10.882-10.906-12.795-7.473-1.912 3.434 1.631 11.983.719 14.243-.913 2.26-6.029 7.716-4.093 9.833z"/>
        <path stroke-width="2.419" d="M441.8 92.316s8.163-11.186 6.047-22.372c-2.117-11.186-14.814-4.233-14.814-.302s7.255 9.674 7.558 12.093c.302 2.418-1.512 9.674 1.21 10.58zm-22.07 6.651s8.163-11.186 6.046-22.372-14.814-4.233-14.814-.302 7.256 9.674 7.559 12.093c.302 2.418-1.512 9.674 1.209 10.58zm-24.49 7.563s8.163-11.186 6.047-22.372c-2.117-11.186-14.814-4.233-14.814-.302s7.255 9.674 7.558 12.093c.302 2.418-1.512 9.674 1.21 10.58zm-17.23 17.23s8.163-11.186 6.046-22.372-14.814-4.233-14.814-.302 7.256 9.674 7.559 12.093c.302 2.418-1.512 9.674 1.209 10.58zm-18.14 16.63s8.163-11.186 6.046-22.372-14.814-4.233-14.814-.302 7.256 9.674 7.559 12.093c.302 2.418-1.512 9.674 1.209 10.58z"/>
        <path d="M401.57 43.519s-10.87 8.579-11.84 19.922c-.97 11.343 13.13 8.06 14.187 4.275 1.057-3.785-4.387-11.269-4.028-13.68.36-2.41 4.058-8.911 1.681-10.517zm36.28-11.186s-10.87 8.579-11.84 19.922c-.97 11.343 13.13 8.06 14.187 4.275 1.057-3.786-4.387-11.269-4.028-13.68.36-2.41 4.058-8.911 1.681-10.517zM302.66 130.27s2.296 13.656 11.776 19.96 13.38-7.638 10.569-10.385-11.991-1.571-13.932-3.045c-1.941-1.474-5.863-7.843-8.414-6.53zm-18.12 46.37s.112 13.847 8.479 21.568c8.366 7.72 14.418-5.43 12.076-8.586-2.343-3.157-11.592-3.445-13.277-5.206-1.684-1.762-4.552-8.67-7.278-7.776zm41.8 51.8s-4.942-12.936-15.479-17.248c-10.536-4.312-11.613 10.125-8.316 12.264 3.298 2.139 12.065-.823 14.26.24 2.193 1.063 7.293 6.533 9.535 4.744zm-8.68-22.39s8.38-11.025 6.481-22.25-14.729-4.52-14.805-.59c-.076 3.929 7.066 9.813 7.321 12.237.255 2.424-1.7 9.643 1.003 10.603zM578.94 99.561s12.574-5.8 16.169-16.603c3.594-10.802-10.882-10.906-12.795-7.473-1.912 3.434 1.631 11.983.719 14.243-.913 2.26-6.029 7.716-4.093 9.833zm38.03 18.969s7.396-11.707 4.537-22.726-15.064-3.233-14.801.69c.263 3.92 7.886 9.167 8.35 11.56.463 2.393-.862 9.754 1.914 10.477zm103.77 107.74s-4.96-12.929-15.502-17.226c-10.542-4.298-11.599 10.141-8.299 12.275 3.3 2.134 12.064-.839 14.26.22 2.194 1.06 7.302 6.524 9.541 4.731zM670 234.3s.288-13.845 8.751-21.459c8.464-7.614 14.348 5.612 11.966 8.739-2.382 3.125-11.635 3.296-13.342 5.037-1.706 1.74-4.661 8.611-7.375 7.683zm-8.17-146.816s-12.945-4.917-23.175.08c-10.23 4.996-.169 15.405 3.622 14.366 3.79-1.038 7.414-9.553 9.667-10.485 2.253-.93 9.73-1.097 9.886-3.962zm-29.62-24.791s-12.945-4.917-23.175.08c-10.23 4.996-.169 15.405 3.622 14.366 3.79-1.038 7.414-9.553 9.667-10.485 2.253-.93 9.73-1.097 9.886-3.962zm-44.19-23.64s-10.975 8.445-12.084 19.775c-1.109 11.331 13.03 8.221 14.133 4.449 1.103-3.773-4.248-11.322-3.86-13.73.39-2.406 4.168-8.86 1.81-10.494zm-28.75-6.922s-5.005 12.912-.077 23.175 15.404.273 14.39-3.525c-1.012-3.798-9.503-7.478-10.418-9.737-.916-2.26-1.032-9.737-3.895-9.912zm-81.61 49.756s8.952-10.565 7.65-21.875c-1.3-11.31-14.467-5.295-14.752-1.375-.285 3.92 6.536 10.174 6.662 12.61.126 2.434-2.209 9.539.44 10.64z"/>
    </g>
    <g fill="#de2010" stroke="#000" stroke-width="2.383">
        <path d="M701.62 233.11c-.502-4.05-2.454-7.607-5.117-9.332-2.663-1.724-5.633-1.353-7.79.974s-3.172 6.256-2.663 10.304c.502 4.05 2.454 7.607 5.117 9.332 2.663 1.724 5.634 1.353 7.79-.974 2.157-2.327 3.172-6.256 2.663-10.304z"/>
        <path d="M699.95 212.66c-.502-4.05-2.454-7.607-5.117-9.332-2.663-1.724-5.633-1.353-7.79.974s-3.172 6.256-2.663 10.304c.502 4.05 2.454 7.607 5.117 9.332 2.663 1.724 5.634 1.353 7.79-.974 2.157-2.327 3.172-6.256 2.663-10.304z"/>
        <path d="M695.8 190.82c-.856-3.99-3.113-7.362-5.917-8.846s-5.73-.853-7.675 1.655c-1.944 2.507-2.61 6.51-1.746 10.498.856 3.99 3.112 7.362 5.917 8.846s5.73.853 7.674-1.655 2.61-6.51 1.747-10.498z"/>
        <path d="M688.23 168c-1.845-3.64-4.887-6.325-7.977-7.045-3.09-.72-5.758.636-6.999 3.556-1.24 2.92-.864 6.96.987 10.597 1.845 3.64 4.887 6.325 7.977 7.045 3.09.72 5.759-.636 7-3.556 1.24-2.92.863-6.96-.988-10.597z"/>
        <path d="M680.14 149.69c-1.845-3.64-4.887-6.325-7.977-7.045-3.09-.72-5.758.636-6.999 3.556-1.24 2.92-.864 6.96.987 10.597 1.845 3.64 4.887 6.325 7.977 7.045 3.09.72 5.759-.636 7-3.556 1.24-2.92.863-6.96-.988-10.597z"/>
        <path d="M668.64 131.28c-2.147-3.47-5.405-5.889-8.545-6.344s-5.684 1.121-6.672 4.136c-.99 3.015-.272 7.009 1.88 10.475 2.147 3.47 5.405 5.889 8.545 6.344 3.14.456 5.684-1.121 6.673-4.136.989-3.015.272-7.009-1.881-10.475z"/>
        <path d="M655.85 113.54c-2.472-3.246-5.949-5.339-9.118-5.489-3.17-.15-5.549 1.666-6.242 4.763-.692 3.096.408 7.002 2.885 10.244 2.472 3.246 5.949 5.338 9.118 5.488 3.17.15 5.55-1.666 6.242-4.762.692-3.096-.407-7.002-2.885-10.244z"/>
        <path d="M640.59 96.996c-2.916-2.854-6.66-4.42-9.817-4.109-3.158.311-5.25 2.453-5.486 5.617-.236 3.164 1.418 6.869 4.34 9.717 2.916 2.854 6.66 4.42 9.817 4.11 3.157-.312 5.249-2.453 5.485-5.617.237-3.164-1.418-6.87-4.34-9.718z"/>
        <path d="M623.41 81.776c-3.167-2.573-7.038-3.789-10.154-3.188-3.115.6-5.001 2.925-4.946 6.097s2.044 6.71 5.215 9.277c3.167 2.573 7.038 3.789 10.154 3.188 3.115-.6 5.001-2.925 4.946-6.097s-2.044-6.71-5.215-9.277z"/>
        <path d="M605.21 69.628c-3.55-2.012-7.57-2.568-10.542-1.458-2.973 1.109-4.446 3.714-3.865 6.833s3.13 6.277 6.683 8.283c3.55 2.012 7.569 2.568 10.542 1.458 2.972-1.109 4.446-3.714 3.865-6.833s-3.13-6.277-6.683-8.283z"/>
        <path d="M584.84 58.844c-3.718-1.68-7.772-1.868-10.631-.493-2.86 1.375-4.09 4.104-3.227 7.157s3.688 5.966 7.409 7.64c3.718 1.68 7.771 1.868 10.63.493 2.86-1.375 4.09-4.104 3.228-7.157-.863-3.053-3.688-5.966-7.409-7.64z"/>
        <path d="M564.86 50.799c-3.822-1.427-7.88-1.343-10.64.22-2.76 1.564-3.805 4.37-2.74 7.358s4.08 5.706 7.905 7.126c3.822 1.428 7.879 1.343 10.64-.22 2.76-1.564 3.805-4.37 2.74-7.358s-4.08-5.705-7.905-7.126z"/>
        <path d="M544.56 44.43c-3.92-1.131-7.959-.738-10.592 1.032-2.633 1.77-3.46 4.647-2.17 7.545 1.29 2.899 4.503 5.378 8.425 6.502 3.92 1.132 7.959.738 10.592-1.032 2.633-1.77 3.46-4.646 2.17-7.545-1.29-2.898-4.503-5.377-8.425-6.502z"/>
        <path d="M522.21 40.62c-4.048-.514-7.978.497-10.307 2.651-2.33 2.154-2.704 5.124-.982 7.79 1.721 2.665 5.277 4.62 9.326 5.127 4.047.514 7.977-.497 10.307-2.652 2.329-2.154 2.703-5.124.982-7.789-1.722-2.665-5.277-4.62-9.326-5.127z"/>
        <path d="M500.15 39.375c-4.077-.167-7.906 1.175-10.043 3.52-2.137 2.345-2.257 5.336-.315 7.844 1.942 2.51 5.652 4.154 9.729 4.314 4.077.168 7.906-1.175 10.043-3.52 2.137-2.344 2.257-5.335.315-7.844-1.943-2.509-5.652-4.154-9.729-4.314z"/>
        <path d="M479.94 40.089c-4.077-.167-7.906 1.175-10.043 3.52-2.137 2.345-2.257 5.336-.315 7.844 1.942 2.51 5.652 4.154 9.729 4.314 4.077.168 7.906-1.175 10.043-3.52 2.137-2.344 2.257-5.335.315-7.844-1.943-2.509-5.652-4.154-9.729-4.314z"/>
        <path d="M456.25 42.895c-3.978.906-7.323 3.204-8.772 6.026-1.449 2.823-.782 5.741 1.75 7.654s6.542 2.529 10.519 1.616c3.978-.905 7.323-3.203 8.772-6.026 1.449-2.822.781-5.74-1.75-7.653s-6.542-2.53-10.519-1.617z"/>
        <path d="M434.7 48.296c-3.89 1.23-7.034 3.797-8.245 6.73s-.306 5.785 2.375 7.482 6.728 1.981 10.616.744c3.89-1.23 7.034-3.797 8.245-6.73s.306-5.785-2.375-7.482-6.728-1.981-10.616-.744z"/>
        <path d="M415.04 56.715c-3.716 1.685-6.531 4.607-7.385 7.663-.853 3.056.386 5.781 3.25 7.147 2.863 1.366 6.916 1.166 10.629-.526 3.715-1.685 6.53-4.607 7.384-7.663s-.385-5.781-3.249-7.147c-2.864-1.366-6.916-1.166-10.629.526z"/>
        <path d="M395.43 66.766c-3.559 1.996-6.114 5.148-6.704 8.265-.59 3.118.877 5.727 3.847 6.844s6.99.571 10.546-1.431c3.559-1.996 6.115-5.148 6.704-8.266.59-3.117-.877-5.726-3.847-6.843s-6.99-.571-10.546 1.431z"/>
        <path d="M376.88 79.349c-3.32 2.371-5.519 5.782-5.766 8.945-.247 3.163 1.494 5.598 4.568 6.385 3.073.788 7.011-.192 10.328-2.569 3.32-2.37 5.519-5.781 5.766-8.945.247-3.163-1.494-5.597-4.568-6.385-3.074-.787-7.011.192-10.328 2.569z"/>
        <path d="M359.71 92.358c-3.108 2.643-5.01 6.228-4.989 9.4s1.963 5.452 5.092 5.977c3.13.524 6.97-.785 10.073-3.434 3.108-2.643 5.01-6.228 4.989-9.4-.022-3.173-1.963-5.452-5.092-5.976-3.13-.525-6.97.784-10.073 3.433z"/>
        <path d="M344.56 108.19c-2.91 2.86-4.55 6.571-4.302 9.734.25 3.163 2.349 5.297 5.508 5.595 3.158.3 6.895-1.282 9.8-4.146 2.911-2.86 4.551-6.572 4.302-9.735-.248-3.163-2.348-5.296-5.507-5.595-3.158-.299-6.895 1.282-9.801 4.147z"/>
        <path d="M331.51 125.79c-2.661 3.093-3.984 6.93-3.472 10.06.513 3.131 2.784 5.081 5.956 5.115s6.765-1.855 9.42-4.953c2.661-3.093 3.985-6.93 3.472-10.06-.513-3.131-2.784-5.081-5.956-5.115s-6.764 1.855-9.42 4.953z"/>
        <path d="M319.58 143.81c-2.316 3.36-3.223 7.314-2.38 10.373.845 3.059 3.31 4.755 6.469 4.45 3.158-.305 6.527-2.565 8.837-5.929 2.316-3.359 3.223-7.314 2.38-10.373-.844-3.058-3.31-4.755-6.468-4.45-3.158.305-6.528 2.566-8.838 5.929z"/>
        <path d="M309.64 164.24c-1.704 3.707-1.918 7.76-.562 10.628 1.357 2.868 4.077 4.116 7.136 3.273 3.059-.843 5.99-3.649 7.688-7.359 1.705-3.707 1.918-7.76.562-10.628-1.357-2.868-4.077-4.116-7.136-3.273-3.059.843-5.99 3.649-7.688 7.359z"/>
        <path d="M301.77 185.59c-1.361 3.846-1.207 7.901.404 10.635 1.61 2.733 4.434 3.73 7.403 2.613s5.635-4.177 6.99-8.026c1.36-3.846 1.207-7.901-.404-10.635-1.611-2.733-4.434-3.73-7.404-2.613s-5.634 4.177-6.989 8.026z"/>
        <path stroke-width="2.133" d="M294.94 226.01c-.38 3.257.76 6.378 2.99 8.188s5.21 2.03 7.817.581c2.607-1.45 4.443-4.35 4.817-7.607.38-3.257-.76-6.379-2.99-8.188s-5.21-2.031-7.817-.581c-2.607 1.45-4.444 4.35-4.817 7.607z"/>
        <path d="M296.76 207.14c-.91 3.977-.291 7.988 1.623 10.518 1.914 2.53 4.833 3.196 7.655 1.745 2.821-1.45 5.117-4.797 6.02-8.776.911-3.977.292-7.987-1.623-10.518-1.914-2.53-4.832-3.195-7.654-1.745-2.822 1.451-5.118 4.797-6.021 8.776z"/>
    </g>
    <path d="M685.33 197.47c2.485-2.66 4.798-3.413 7.724-2.443-1.032-7.019-3.253-9.4-5.959-8.555-2.706.845-3.93 4.453-1.765 10.998zm3.8 21.19c2.679-2.466 5.042-3.042 7.886-1.854-.5-7.077-2.535-9.619-5.297-8.98-2.762.64-4.255 4.145-2.589 10.834zm-8.99-40.52c1.728-3.205 3.774-4.52 6.85-4.324-2.78-6.527-5.533-8.267-7.936-6.762-2.402 1.505-2.67 5.306 1.086 11.086zm-9.43-19.28c1.728-3.205 3.774-4.52 6.85-4.324-2.78-6.527-5.533-8.266-7.936-6.762-2.402 1.505-2.67 5.306 1.086 11.086zm-22.61-35.32c1.19-3.44 2.998-5.067 6.066-5.369-3.793-5.995-6.79-7.27-8.92-5.398s-1.782 5.666 2.854 10.767zm-14.78-15.39c1.06-3.483 2.805-5.177 5.859-5.595-4.017-5.847-7.06-7.007-9.117-5.057-2.057 1.95-1.568 5.73 3.258 10.652zm-31.06-26.215c-.064-3.64 1.074-5.79 3.851-7.127-5.623-4.326-8.875-4.492-10.23-2.003-1.357 2.489.272 5.933 6.38 9.13zm16.16 12.122c.567-3.597 2.06-5.516 5.027-6.353-4.789-5.234-7.963-5.961-9.73-3.744-1.767 2.216-.758 5.89 4.703 10.097zm-34.61-22.301c-.44-3.614.471-5.87 3.095-7.486-6.04-3.723-9.291-3.553-10.384-.937-1.092 2.615.884 5.873 7.288 8.423zm-18.85-8.228c-.952-3.514-.374-5.876 1.992-7.852-6.51-2.82-9.704-2.187-10.411.558-.707 2.745 1.715 5.687 8.419 7.294zm-20.31-6.293c-1.246-3.421-.87-5.824 1.32-7.993-6.725-2.259-9.854-1.357-10.326 1.438-.472 2.795 2.19 5.521 9.006 6.555zm-19.95-3.862c-1.49-3.322-1.289-5.745.739-8.067-6.872-1.767-9.927-.641-10.195 2.18-.27 2.823 2.584 5.349 9.456 5.887zm-21.13-1.62c-1.827-3.15-1.878-5.58-.102-8.1-7.017-1.045-9.94.391-9.914 3.226.026 2.835 3.125 5.051 10.016 4.874zm-41.36 3.116c-2.532-2.616-3.167-4.963-2.052-7.837-7.062.678-9.552 2.777-8.843 5.521.708 2.745 4.25 4.15 10.895 2.316zm20.36-2.68c-2.155-2.935-2.467-5.346-.972-8.042-7.09-.285-9.84 1.458-9.51 4.273.33 2.815 3.65 4.686 10.482 3.769zm-40.34 6.996c-2.881-2.226-3.846-4.458-3.154-7.462-6.892 1.684-9.055 4.118-7.96 6.732 1.094 2.615 4.8 3.497 11.114.73zm-38.25 17.587c-3.252-1.637-4.624-3.645-4.516-6.725-6.446 2.963-8.106 5.764-6.535 8.123 1.572 2.36 5.38 2.52 11.051-1.398zm18.44-9.422c-3.03-2.02-4.147-4.18-3.666-7.224-6.758 2.159-8.746 4.737-7.473 7.27 1.274 2.532 5.033 3.154 11.14-.046zm-52.75 33.31c-3.522-.924-5.282-2.601-5.818-5.637-5.687 4.242-6.727 7.328-4.699 9.307 2.03 1.98 5.786 1.344 10.517-3.67zm16.37-13.397c-3.439-1.196-5.062-3.007-5.36-6.075-6 3.784-7.28 6.779-5.412 8.91 1.868 2.133 5.663 1.793 10.772-2.835zm-30.91 27.727c-3.591-.6-5.497-2.11-6.307-5.084-5.277 4.741-6.033 7.908-3.832 9.695 2.2 1.787 5.884.812 10.139-4.611zm-13.04 16.91c-3.63-.271-5.666-1.603-6.742-4.49-4.826 5.2-5.29 8.423-2.937 10.002 2.353 1.58 5.933.275 9.679-5.512zm-10.9 17.3c-3.63.288-5.844-.716-7.35-3.405-3.972 5.878-3.938 9.134-1.37 10.335 2.567 1.2 5.905-.638 8.72-6.93zm-9.58 18.47c-3.562.757-5.888.048-7.73-2.423-3.176 6.344-2.72 9.568-.018 10.425 2.702.858 5.773-1.398 7.748-8.002zm-7.66 18.95c-3.397 1.311-5.806.98-8.016-1.167-2.13 6.767-1.17 9.878 1.634 10.297 2.804.418 5.478-2.296 6.382-9.13zm-5.13 21.13c-3.301 1.536-5.727 1.367-8.076-.628-1.673 6.894-.506 9.934 2.32 10.164 2.825.23 5.312-2.657 5.756-9.536zm-2.09 17.58c-3.108 1.646-5.53 1.84-8.07.596-.924 5.619.556 7.84 3.38 7.64 2.824-.201 4.981-2.795 4.69-8.236zm355.57-83.65c1.243-3.422 3.075-5.021 6.147-5.276-3.702-6.052-6.68-7.372-8.837-5.533-2.157 1.838-1.868 5.638 2.69 10.809zm29.15 98.44c2.679-2.466 5.042-3.042 7.886-1.854-.5-7.077-2.535-9.619-5.297-8.98-2.762.64-4.254 4.145-2.589 10.834z" fill="#ffe300"/>
    <path d="M646.9 149.66s7.396-11.707 4.537-22.726-15.064-3.233-14.801.69c.263 3.92 7.886 9.167 8.35 11.56.463 2.393-.862 9.754 1.914 10.477z" fill="#ffd200" stroke="#ef8a10" stroke-width="1.008"/>
    <g fill="#217900" stroke="#000" stroke-width="2.419" stroke-linejoin="round">
        <path stroke-width="1.935" d="M663.67 124.92c-.086 0-8.022 7.935-6.641 17.596 1.38 9.66 7.504 21.564 6.382 31.569-1.121 10.006-2.932 16.647-2.932 16.647s9.315-10.609 9.401-20.787-6.383-23.548-6.383-31.052c0-7.504.346-14.146.173-13.973zm14.75 32.43s-6.21 4.572-5.606 15.095c.603 10.523 11.472 29.844 11.472 29.844s7.935 16.302 7.676 20.529c-.259 4.226 1.466-4.054.69-13.369-.776-9.316-12.766-29.844-12.766-29.844s-2.587-4.226-2.329-11.213c.26-6.987.95-10.954.863-11.041z"/>
        <path d="M505.65 52.293s26.653 1.035 26.825 18.286c-.086 2.674 0 5.865-.949 13.542 5.262-2.846 8.798-10.782 8.108-15.871.086-17.51-23.806-29.499-33.984-15.957z"/>
        <path d="M488.75 51.517s21.477-4.485 21.65 12.766c.173 17.251-6.814 20.011-6.814 20.011s16.475-3.537 16.56-21.046c.087-17.51-21.217-25.272-31.396-11.731zM697.38 249.19c.494 7.74 8.069 15.149 5.105 28.652-3.788 15.314-17.125 51.705-14.82 58.127-3.952-5.434-3.294-10.539-3.623-18.113-.33-7.574 11.032-35.732 12.021-45.283 0-8.562.823-20.254 1.317-23.382z"/>
        <path d="M697.38 249.36s12.35 15.643 11.691 27.993c-.659 12.35-7.575 26.84-5.27 33.262-3.951-5.434-4.94-8.892-5.269-16.467-.329-7.574 6.093-15.973 4.776-24.206-1.318-8.233-6.093-20.583-5.928-20.583zm-404.56 3.45c-.494 7.74-6.257 14.655-3.294 28.158 3.788 15.314 17.29 34.744 15.15 56.974 3.951-5.434 5.104-11.527 5.433-19.102.33-7.574-14.984-33.098-15.973-42.648 0-8.562-.823-20.254-1.317-23.382z"/>
        <path d="M292.82 252.98s-12.021 15.149-11.362 27.499c.165 8.233 15.314 42.648 13.009 49.07 3.952-5.434 5.105-4.776 4.94-13.009-4.446-21.077-12.35-34.58-11.032-42.813 1.317-8.233 4.61-20.748 4.446-20.748z"/>
    </g>
    <g fill="none" stroke="#000" stroke-width="1.935">
        <path fill="#8c8a8c" d="M526.38 104.56s21.457 1.35 22.508 13.655c1.05 12.304-5.102 19.807-5.102 19.807s2.701 26.559-18.306 34.361c-22.508 2.701-57.769.6-57.769.6s-10.354 2.551-14.555-18.906c-4.201-21.457-5.402-36.612-5.402-36.612s2.101-12.004 17.256-12.754c15.155-.75 61.22.15 61.371-.15z"/>
        <path stroke-linecap="round" d="M543.63 137.87s-11.554 14.405-10.353 20.257"/>
        <path fill="#8c8a8c" d="M528.18 171.63c2.851 2.4 5.552 5.102 6.152 13.955l1.2 17.706 15.005 135.05 13.204 97.683.9 15.155s-3.15 11.104-12.003 12.004c-6.452 13.504-41.414 17.406-44.865 17.256-3.151-.15-14.255-4.802-21.007-4.201-6.753.6-18.456 5.101-23.708 4.351-5.252-.75-17.106-4.802-19.206-13.354-14.705-4.652-17.106-15.905-17.106-15.905l15.905-112.99 15.455-142.85s1.8-19.056 9.453-21.907c7.952-.75 49.066.75 60.62-1.95z"/>
        <path d="m447.15 367.15-3.151 99.934M544.23 380.35l8.853 82.378"/>
        <path fill="#fff" stroke-width="2.016" stroke-linejoin="round" d="m498.19 114.45 29.923 92.093 96.82.004-78.327 56.92 29.916 92.095-78.331-56.915-78.331 56.914 29.916-92.095-78.327-56.92 96.82-.004z"/>
    </g>
</svg>
