<svg xmlns="http://www.w3.org/2000/svg" xmlns:xlink="http://www.w3.org/1999/xlink" viewBox="0 0 900 600">
    <path fill="#cf142b" d="M0 0h900v600H0z"/>
    <path fill="#fff" d="M0 0h450v600H0z"/>
    <path fill="#e60d2e" d="M22.222 82.828v45.457h45.455c0 7.574 7.576 15.151 15.152 15.151v45.454h45.452v-45.454c7.576 0 15.152-7.577 15.152-15.151h45.455V82.828h-45.455c0-7.574-7.576-15.151-15.152-15.151V22.223H82.829v45.454c-7.576 0-15.152 7.577-15.152 15.151H22.222z"/>
    <path fill="#96877d" d="M25.254 85.857v39.397h45.452c0 7.574 7.576 15.15 15.152 15.15v45.454h39.392v-45.454c7.576 0 15.152-7.577 15.152-15.15h45.452V85.857h-45.452c0-7.574-7.576-15.151-15.152-15.151V25.252H85.858v45.454c-7.576 0-15.152 7.577-15.152 15.151H25.254z"/>
    <path fill="#ccc" d="M26.77 87.373v36.364h45.452c0 7.574 7.576 15.153 15.152 15.153v45.454h36.362V138.89c7.576 0 15.152-7.58 15.152-15.153h45.452V87.373h-45.452c0-7.574-7.576-15.15-15.152-15.15V26.769H87.374v45.454c-7.576 0-15.152 7.577-15.152 15.15H26.77z"/>
    <g id="a" fill="#d0d0d0">
        <path fill="#96877d" d="M84.536 71.681c2.663 2.663 1.943 7.7-1.607 11.25s-8.587 4.27-11.25 1.607c-2.662-2.662-1.942-7.7 1.608-11.25s8.587-4.27 11.249-1.607z"/>
        <path d="m71.143 79.715 1.071-1.072 4.286 2.142-2.143-4.285 1.071-1.072 4.286 8.57-8.571-4.285zm6.429-6.428 1.071-1.071 6.429 6.428L84 79.715z"/>
    </g>
    <use xlink:href="#a" transform="rotate(90 105.555 105.557)"/>
    <use xlink:href="#a" transform="rotate(180 105.555 105.557)"/>
    <use xlink:href="#a" transform="rotate(270 105.555 105.557)"/>
    <g fill="none" stroke="#96877d" stroke-width=".514">
        <circle cx="105.555" cy="105.557" r="31.822"/>
        <circle cx="105.555" cy="105.557" r="24.245"/>
    </g>
    <circle cx="93.434" cy="131.31" r="1.515"/>
    <circle cx="117.675" cy="131.31" r="1.515"/>
    <path d="M104.55 131.31v1.58h-2.02c-2.02 0-2.02 1.58 0 1.58h2.02v1.58c.007 1.636 1.763 1.835 1.892.137l.128-1.708h2.02c2.02 0 2.02-1.58 0-1.58h-2.02v-1.58c0-1.58-2.02-1.58-2.02 0zM75.954 113.4l2.084-.497-.23-.965c-.053-.222-.14-.372-.263-.452-.122-.08-.332-.102-.63-.067l-.034-.145 1.794-.427.035.144c-.206.052-.35.115-.435.189a.521.521 0 0 0-.166.262c-.027.102-.02.241.023.418l.23.966 1.665-.397c.269-.064.442-.123.52-.178a.36.36 0 0 0 .129-.204.762.762 0 0 0 .008-.382l-.046-.191.145-.035.542 2.275-.144.035-.045-.188c-.052-.219-.154-.363-.305-.431-.099-.043-.307-.026-.625.05l-3.424.816c-.269.064-.442.123-.52.177a.362.362 0 0 0-.13.2.747.747 0 0 0-.008.383l.045.187-.145.035-.94-3.944 1.153-.329.032.137c-.231.127-.394.249-.489.366a.799.799 0 0 0-.173.393c-.02.144.002.354.068.63l.279 1.17zm-1.342-9.402c.04-.706.342-1.303.908-1.79.565-.488 1.25-.709 2.052-.664.826.047 1.498.346 2.014.899.516.552.754 1.199.712 1.94-.042.749-.344 1.363-.905 1.843s-1.264.695-2.11.647c-.863-.048-1.552-.382-2.064-1.001a2.608 2.608 0 0 1-.607-1.874zm.288.093c-.027.487.132.887.476 1.202.429.392 1.077.612 1.943.66.888.05 1.582-.1 2.083-.454a1.41 1.41 0 0 0 .61-1.124 1.582 1.582 0 0 0-.526-1.3c-.38-.355-1-.557-1.858-.606-.93-.052-1.635.092-2.113.433-.38.273-.585.67-.615 1.189zm7.894-9.951-.517 1.36-3.038.817a8.805 8.805 0 0 1-.153.419 4.251 4.251 0 0 1-.05.114l1.48.563c.32.122.533.163.637.122.147-.053.256-.175.329-.365l.075-.199.14.053-.831 2.182-.14-.053.073-.191c.082-.216.071-.396-.034-.542-.058-.082-.232-.179-.522-.29l-3.29-1.252c-.32-.122-.533-.163-.637-.122-.148.056-.258.18-.331.373l-.073.191-.14-.053.707-1.855c.206-.54.397-.925.574-1.151.176-.227.404-.39.684-.488s.566-.092.86.02c.312.119.545.324.698.616.152.292.195.67.127 1.134l1.861-.495c.427-.113.729-.235.905-.365.176-.131.332-.33.467-.596l.14.053zM78.8 96.76a3.78 3.78 0 0 1 .084-.209c.184-.486.219-.892.102-1.219a1.08 1.08 0 0 0-.663-.676c-.318-.12-.614-.12-.889.004-.275.123-.475.349-.6.677-.055.145-.106.35-.153.616l2.119.807zm11.596-18.053 1.053 1.367-.118.077c-.352-.283-.682-.454-.989-.514-.442-.087-.877.008-1.304.285-.583.377-.877.894-.882 1.552-.002.554.171 1.099.52 1.637.282.436.624.78 1.026 1.03.401.25.793.37 1.175.361a1.893 1.893 0 0 0 1.004-.293 2.215 2.215 0 0 0 .78-.865l-.856-1.322c-.148-.23-.263-.369-.344-.417a.42.42 0 0 0-.266-.057c-.097.01-.238.075-.423.195l-.083-.129 1.771-1.147.083.129-.084.054c-.175.114-.258.25-.247.41.009.112.092.29.251.536l.907 1.4a4.083 4.083 0 0 1-.567.802c-.21.229-.469.443-.777.642-.883.572-1.738.724-2.564.454a2.705 2.705 0 0 1-1.469-1.136 2.93 2.93 0 0 1-.459-1.345 2.95 2.95 0 0 1 .29-1.624c.208-.412.54-.766.997-1.062.166-.108.326-.192.48-.253.153-.062.384-.127.694-.196a1.12 1.12 0 0 0 .299-.093.16.16 0 0 0 .071-.13c.005-.06-.027-.148-.094-.267l.125-.081zm8.873.614-2.039.543-.136.926c-.034.228-.037.392-.01.493.021.08.078.14.17.181s.269.036.527-.013l.038.144-1.658.44-.038-.143c.21-.097.339-.186.387-.265.099-.16.178-.45.237-.874l.7-4.827.136-.036 2.998 3.893c.242.313.436.506.585.579.148.073.331.087.55.043l.038.144-2.078.552-.038-.144c.207-.066.34-.138.397-.218a.28.28 0 0 0 .053-.247c-.03-.113-.13-.28-.299-.498l-.52-.673zm-.185-.258-1.46-1.891-.35 2.372 1.81-.481zm9.621-.028.131.033-.523 1.46-4.216-.165.006-.148.204.008c.23.009.398-.06.503-.206.06-.083.095-.28.108-.59l.136-3.515c.013-.34-.016-.554-.087-.642-.1-.122-.253-.187-.46-.195l-.204-.008.006-.149 2.466.096-.006.149c-.29-.014-.493.005-.612.056a.491.491 0 0 0-.247.204c-.046.084-.076.288-.088.612l-.133 3.421c-.01.222.007.376.046.46.03.058.078.101.144.13.066.03.274.052.625.065l.397.016c.418.016.712-.003.883-.058a1.15 1.15 0 0 0 .475-.31c.145-.151.294-.393.446-.724zm7.257 1.942.117.068-.907 1.258-4.006-1.325.047-.141.194.064c.22.072.399.053.54-.058.08-.064.17-.244.267-.539l1.104-3.338c.107-.323.138-.537.094-.642-.062-.145-.191-.25-.387-.314l-.195-.065.047-.141 2.343.775-.047.14c-.274-.092-.475-.13-.603-.114a.492.492 0 0 0-.294.127c-.068.068-.152.256-.254.564l-1.075 3.25c-.07.212-.098.364-.083.456a.287.287 0 0 0 .102.165c.055.046.25.125.583.235l.377.125c.397.13.685.194.865.188.18-.005.36-.06.542-.166.181-.105.391-.296.63-.572zm5.849 3.097-1.722-1.219-.799.488c-.196.12-.325.223-.385.308-.048.068-.058.15-.03.248.028.097.144.229.347.396l-.086.121-1.4-.991.086-.122c.209.1.36.142.451.128.186-.026.46-.152.823-.377l4.156-2.554.115.082-1.07 4.796c-.086.385-.11.658-.071.819.039.16.145.31.32.45l-.087.121-1.755-1.242.086-.121c.184.116.324.171.422.165a.28.28 0 0 0 .224-.117c.068-.096.132-.28.191-.549l.184-.83zm.08-.308.518-2.331-2.047 1.25 1.529 1.081zm6.463 1.191.88 1.188-1.3 5.11 2.525-1.87c.27-.2.415-.355.437-.465.031-.146-.017-.306-.144-.478l-.113-.152.12-.088 1.13 1.524-.12.088-.115-.155c-.137-.185-.29-.275-.46-.27-.104.005-.279.097-.524.28l-3.69 2.735-.087-.117 1.387-5.5-2.696 1.999c-.27.2-.416.353-.44.46-.03.15.019.309.145.479l.115.155-.12.088-1.129-1.524.12-.088.112.151c.139.188.293.279.462.273.104-.004.279-.096.524-.278l3.045-2.257a2.62 2.62 0 0 0 .08-.507c-.002-.1-.03-.23-.082-.387a1.28 1.28 0 0 0-.182-.305l.12-.089zm6.87 12.662-1.184.483-.05-.144c.201-.103.34-.194.414-.274a.807.807 0 0 0 .213-.427 1.152 1.152 0 0 0-.077-.55l-.257-.724-3.925 1.388c-.315.112-.5.216-.554.312-.073.133-.073.3-.002.5l.062.177-.14.05-.77-2.178.14-.05.064.182c.077.217.197.348.36.392.101.027.295-.01.583-.112l3.925-1.389-.218-.617c-.085-.24-.163-.405-.234-.493a.745.745 0 0 0-.396-.24c-.17-.045-.373-.035-.612.03l-.05-.144 1.225-.366 1.484 4.194zm-4.313 9.666-.075-1.453 2.448-1.974a8.874 8.874 0 0 1-.03-.445v-.125l-1.58.082c-.343.018-.554.066-.633.146-.113.107-.164.263-.153.466l.011.213-.148.008-.122-2.332.149-.008.01.205c.013.23.096.39.25.482.087.052.285.07.595.054l3.516-.183c.342-.018.553-.067.632-.146.113-.11.163-.268.153-.475l-.011-.204.149-.008.103 1.982c.03.578.01 1.007-.06 1.285-.07.279-.214.52-.43.723-.216.203-.48.312-.793.329a1.272 1.272 0 0 1-.888-.282c-.258-.205-.45-.534-.575-.986l-1.503 1.205c-.345.275-.571.508-.68.699s-.17.435-.187.734l-.148.008zm2.596-4.01c.003.05.004.095.005.132l.003.093c.027.519.16.904.399 1.156.238.252.531.369.879.35.34-.017.61-.138.812-.361.202-.224.293-.511.275-.862a3.539 3.539 0 0 0-.109-.626l-2.263.118zm1.495 11.21-.483 1.838-.144-.037.027-.101c.018-.068.014-.174-.012-.32s-.08-.285-.164-.42a3.617 3.617 0 0 0-.441-.536l-1.668-1.796-1.322-.347c-.324-.085-.536-.102-.635-.05-.135.07-.23.21-.286.423l-.045.171-.143-.037.587-2.24.144.038-.05.187c-.058.223-.032.399.079.527.068.08.25.157.545.235l1.247.327 2.588-.867c.304-.103.496-.176.577-.22.08-.044.192-.15.333-.318a.535.535 0 0 0 .098-.215l.143.038-.591 2.254-.144-.037.03-.117a.707.707 0 0 0 .004-.359.286.286 0 0 0-.217-.22c-.093-.025-.282.01-.567.104l-1.988.654 1.354 1.46c.203.22.364.345.483.377a.36.36 0 0 0 .386-.132.809.809 0 0 0 .13-.302l.145.038z"/>
    <g fill="#96877d" stroke="#000" stroke-width=".203">
        <path d="M122.85 110.19c.532-.135 1.41-.026 1.41-.026s.076.365-.155.487c.257.148 1.18.103 1.18.103s-.36.275-.539.384c.333.032.743.461.743.461s-.769.128-1.102-.051c.205.41.18.769.18.769s-1.243-.308-1.691-1.128m-2.106-1.699c-.301.743-2.51-.64-2.51-.64s.973 1.543 2.433 1.716M93.181 123.66h25.877l1.998-1.589-3.33-1.793-5.125-1.742-2.05-1.127-3.791.204-3.177 1.691-4.356.513-1.025 1.178-3.228.257-5.073-.103 8.455 1.333-6.969-.36 1.794 1.538z"/>
        <path d="M107.12 116.23c-3.241-1.742-4.189 2.55-5.585 3.587 1.883.32 3.305-1.448 4.919-2.306 1.224 3.333 3.151 1.127 3.151 1.127s2.011 3.19 4.689 1.743c.73.55 1.537.05 1.537.05s.974.18 1.179-.256c.512.18 1.076-.46 1.076-.46s1.114.012 1.332-.564c1.653.294 3.843-3.382 3.843-3.382l.666-1.281.974-.205s.064-.64-.461-.615c-.013-.385-.346-.59-.82-.513.09-.23-.256-.41-.256-.41-.923.231-.974 2.563-.974 2.563s-1.614 1.23-2.203 1.537c-.026-1.333-2.255-3.139-1.794-3.997.461-.858 1.909 1.32 3.177.922 1.268-.397 1.891-2.047 1.947-3.33-.358-.872-1.23-2.306-1.23-2.306l-.82-.052-.717-1.742s-1.511.987-1.486 1.845c.026.858 1.589 1.588 1.589 1.588s-.901.564-1.742.308c-.077.87 1.024.704 1.434.717.205.628.82.974.82.974s.385.96-.615.87c-.999-.089-2.178-2.391-3.587-1.331-1.498 1.127.667 3.177.667 3.177s-1.32.691-2.101 2.46c-3.19-2.691-5.06-1.436-8.609-.718z"/>
        <path d="M102.46 111.67c1.332 1.255.403 3.342.922 3.74.551.423 1.333-.204 1.333-.204 1.396.371 3.894-.41 3.894-.41 1.1.615.665-.293 1.332-.256.59 1.511 2.562 1.23 2.562 1.23s-1.806-1.845-2.92-2.358c-.859.513-3.357.59-3.792.513-.486-.086-.18-.68-.41-1.025.918-.894.192-3.113-.308-3.946-2.036-1.356-4.468.968-2.613 2.716zm-8.861-3.75c-1.676.453-4.583-2.165-5.942-1.16s-.725 3.479.18 4.71c.886 1.205-1.294 1.64-1.883 2.356-.554.673.18 1.45.18 1.45l.617.398-.109.906.326 1.087s.3.262.399-.073c.28.281.03 1.093.725 1.196-.25-.52.18-1.957.18-1.957s1.215.091 1.523-.434c.307-.526-.29-1.667-.29-1.667h.362c-.408-.28-.544-1.123-.544-1.123s1.685-.535 1.667-1.812c-.018-1.277-2.735-2.636-1.739-3.297 1.105-.734 3.025 1.902 4.674.688 1.632-1.201.58-.036.58-.036s.746-1.678-.906-1.232zm8.651-17.949c-2.242-.935-6.822-.993-9.377-2.255-1.121.07-1.62.955-1.666 1.307-1.172-.058-1.966 1.787-1.793 2.152-2.133-.864-3.126 2.511-2.434 3.203-1.82.077-1.595 2.402-1.768 3.049-.583 1.415.13 1.892 1.281 1.383.173.615-.07.96-.59 1.076 3.158 3.614 4.943-2.223 7.713-2.203 3.458-1.012 4.816-2.716 4.816-2.716l1.358.18 2.46-5.176z"/>
        <circle cx="105.145" cy="87.384" r="3.305"/>
        <path d="M99.33 113.41c-2.05-.372-5.444-2.498-5.79-5.278 1.908-7.494 11.755-3.58 12.604-9.217-.217-3.719.45-7.4 2.512-10.511.96-1.217 2.203-1.537 2.203-1.537s.223.793-.102 1.332c1.626-.18 3.856.73 5.38.82.448.91.41 1.242.307 1.793-.102.551-.717.41-.717.41-.398.377-.876.761-1.947.564-.807.615-2.511.768-2.511.768s3.561 3.754 2.972 4.92c.743.345 1.845 1.998 1.845 1.998s2.434-1.281 3.228-2.46c1.41 0 3.715 1.474 4.868 1.64 1.41 1.14 2.818 2.306 2.818 2.306s-1.678 1.102-2.408-.359c-.884.077-2.793-2.037-5.432-1.383-.077 2.344-2.664 3.997-2.664 3.997s2.415-.338 3.74.46a139.033 139.033 0 0 0 3.382 2.717l1.794 3.074s-1.64.282-2.255-1.845c-.615 1.717-.64-1.063-3.074-2.357-.743.09-1.115.141-1.743-.358-1.755.474-3.83 1.498-6.302 1.23-1.755.55-3.037 2.01-4.817 2.818-1.78.807-2.306.41-2.306.41l-1.435.05c-.207.865-.09 2.179-.87 2.41.499.537-.36 2.83-1.23 3.227.41 1.474 1.61 1.925 2.869 2.665 0 0 1.114-.512 1.844.154s1.486 2.562 1.486 2.562-1.52.103-1.998-.103c-.479-.205-.525-.704-1.076-.563-3.472-3.088-5.302-1.86-5.637-2.562-.342-.72.82-2.6.462-3.792z"/>
        <path d="M90.99 99.655c.181-.226 1.45.254 1.45.254l2.318 1.449 4.71 3.044 1.667 2.427-3.007-.978-4.167-3.587-2.246-1.45s-.906-.933-.725-1.16zm27.86 7.715c-1.627-.41-5.637 4.458-5.637 4.458l3.024 3.28s.09-5.586 2.613-7.738z"/>
        <path d="M99.023 93.789c-.887 1.137-.967 3.429.188 4.353.108 1.391 1.291 4.197 2.22 4.46 1.016.288 5.073 1.23 6.662.974-.304 2.575 1.716 4.641 3.587 5.995-.014.232-.017.514.199.8.21.276 1.192.326 1.235.174.436.613 2.548.882 2.7.609.15-.266-3.105-2.53-3.827-3.222-.613-1.144-1.775-3.694-2.05-5.74-1.597-1.9-4.34-1.862-4.34-1.862l.087-3.723.154-4.202-1.486-.768s.3-.137.461-.308c.361.156 1.04-.57 1.128-.774.341.12.65.12.71-.064.054-.16.115-.879.24-1.25 1.12-.987-.164-3.08-1.878-3.114-1.697-.035-2.077 2.023-2.044 2.18.159.645.125.97 0 1.126-.128.16-.718.513-.718.513s-.948-.449-2.1 0-2.448 1.05-2.512 1.793c-.525.077-1.383.756-1.537 1.333-.461-.09-1.063.294-2.05 1.896-1.767.781-1.87 4.56-1.87 4.56s-.477.695-.5 1.063c-.022.369.167.705.398.64.025.244.346.462.486.385.052.244.403.38.615.346.02.167.702.125.756-.026.06-.166-.067-.996.013-1.063.074-.06.64.372.794.256.154-.115-.03-.484-.115-.627-.077-.128-.564-.27-.679-.871s.307-1.435.307-1.435 1.922-1.512 2.14-2.806c1.447.141 2.213-1.124 2.626-1.601z"/>
        <path d="M95.679 88.37c.439-1.073 2.024-.974 2.024-.974s.567-1.492 2.703-.602c.804-.621 2.92.27 2.92.27s.794-1.057 1.833-.936c1.925.224 2.245 1.989 2.126 2.293-1.053.266-2.879-.856-4.266-.538-.81.458-2.123.942-2.613 1.602-1.284.134-2.655-1.182-4.727-1.115zm4.01 1.781c.48-.295 1.659-.813 2.46-.18.839.904 2.126 1.743 2.126 1.743l1.46.615.667.41-.436 6.687c-1.352-1.383-2.619-1.626-3.587-3.254-.519-.698-.122-2.376-1.025-3.485-.903-1.108-1.864-1.857-1.665-2.536z"/>
        <path d="M103.2 92.082s.765-.145.978.036c.268.09.526.168.598.399.29.086.49.235.49.453.271.072.38.561.38.561l-.254.38s-.29-.271-.326-.56c-.183-.091-.589-.187-.688-.454-.317-.031-.521-.195-.58-.47-.295.067-.598-.345-.598-.345z"/>
        <path d="M109.68 87.717c-.436-.487-1.204-.128-1.204-.128l-2.05 3.536-.897.743-.077 2.767.743 2.587-.256 1.999s1.032-.969 1.153-1.512c.116-.519-.384-2.203-.384-2.203s-.615-1.05.128-2.998c.743-1.947 2.434-3.561 2.844-4.79z"/>
        <path d="M114.74 90.868s-3.2 4.573-8.44 6.2c-1.447.346-.922-3.382-.922-3.382l-.359.103s-.807 3.65 1.127 3.69c5.266-1.038 9.216-6.581 9.216-6.581l-.63-.028zm2.17 26.292s-.487.359-1.127 0c-.333-.769-1.23-.82-1.23-.82s-.578-1.66-1.486-1.178c-.141-.859-1.127-.41-1.127-.41s-.026-1.243-1.179-1.076c.384-1.423-1.589-1.333-1.589-1.333s-.064-1.601-2.972-1.28c6.265-2.806 11.222 4.406 11.222 4.406m2.458 2.301s1.448 1.627 2.203 1.64c.756.013.82-1.589.82-1.589s.244.692.615.513c-.038.486.461.615.461.615s-1.306 3.036-5.021.153m-10.408-.712-.512 2.1s-.654.59-.462.718c.193.128 1.23-.205 1.23-.205s1.614-.192 2.101-.666c.333.756 1.076.82 1.076.82s.051-.32-.051-.512c.359.064.666-.052.666-.052s.205-.589-.256-.82c.051-.435.269-.82-.512-.768-.577.615-1.999 1.32-2.358 1.076-.358-.243 1.41-1.025.923-2.05"/>
    </g>
</svg>
