<svg xmlns="http://www.w3.org/2000/svg" viewBox="0 0 920 460">
    <path fill="#007934" d="M0 0h920v460H0z"/>
    <path fill="#fff" d="M280 0h360v460H280z"/>
    <path fill="#007934" d="m463.32 30.575-2.414 26.116-8.842 1.33s6.14 3.449 7.213 6.912c.172.555.103 1.014-.145 1.36a1.944 1.944 0 0 1-.32.318c-1.78 1.367-7.039.723-7.039.723s6.968 5.88 7.504 8.011c.012.05.028.096.03.145-.002.04.007.106 0 .144-.009.031-.047.086-.06.116a1.108 1.108 0 0 1-.232.318c-1.638 1.513-9.365 1.938-9.365 1.938s8.567 6.109 9.103 9.573c.486 3.139.079 4.977 0 5.292-.598-.511-14.415-12.122-23.327-8.734-.443.23-.706.45-.814.665a.55.55 0 0 0-.029.347c.624 1.932 13.227 3.91 22.018 11.511-.218 1.903-25.055-6.05-25.973-1.07.777 1.405 26.729 5.145 28.649 8.532-9.558.355-29.303-2.104-28.649 1.041-1.997 3.63 18.649 1.58 27.311 4.54 2.54 2.87 2.294 5.28-2.123 5.582-8.35-3.969-27.034-6.918-27.08-1.85v.028c.003.006.028.024.03.03.008.015.016.043.029.057.03.029.096.06.145.087 2.11 1.053 19.51.54 26.061 4.859-9.288 2.1-40.782-4.262-40.982-1.157.897 1.45 5.881 7.815 14.456 7.548 8.575-.266 28.414 3.467 29.755 6.131a.36.36 0 0 1 .03.232c-.581 1.858-26.127-5.669-35.95-1.041-10.183 4.796 29.197 1.888 35.63 7.75 6.43 5.862-12.857-.55-12.857-.55s-26.783-3.715-30.802-1.85c-4.02 1.866-8.58 6.131-8.58 6.131s2.672 5.317 5.352 4.252c.408-.163.687-.196.843-.145.004.002.026-.002.03 0 .003.002.025.027.029.029.006.004.023.024.029.029.004.006.024.023.029.029l.03.029a.538.538 0 0 1 .028.115c.063.8-1.832 3.124-1.832 3.124s37.532 9.041 45.839 17.034c8.306 7.994-47.7-12.523-47.7-12.523s-22.51 8.259 1.338 8.792c-2.659 3.867 1.1 6.247 1.337 6.391 0 0 39.668 8.268 43.687 14.663 4.02 6.395-27.063-6.138-34.03-9.601-6.721-3.343-25.432 1.767-26.497 3.326a.559.559 0 0 0-.029.057c-.002.006.002.024 0 .03a.388.388 0 0 0 0 .057v.03c.002.005-.002.023 0 .028.002.006.027.024.03.029.001.006-.003.024 0 .029a.926.926 0 0 0 .058.087c.004.006.024.023.029.029 1.198 1.313 9.55 3.121 9.802 5.379v.029a.863.863 0 0 1-.088.376c-1.052 2.028-11.016 2.89-11.43 4.8-.007.033-.03.083-.03.116 0 2.133 50.125 12.524 63.523 23.715s-39.382-13.333-39.382-13.333 2.948 3.995 0 5.062c-2.948 1.065-13.419-14.92-30.569-5.062-3.123 4.057 14.974 7.276 19.575 7.722-1.57 4.017-2.94 5.346 3.49 9.342.704.437 1.099.701 1.251.838l.03.03.028.028c.002.002 0 .027 0 .03v.028h-.058c-.996-.155-12.55-6.059-13.758-6.304-.012-.002-.049 0-.058 0h-.029c0 .533 1.338 6.94 1.338 6.94-5.937-4.795-13.114-6.241-19.836-1.33-.01.284-.06 4.883 6.69 7.722-3.804 7.729 4.298 5.33 17.16 12.523-19.115-4.968-20.646 4.26-6.98 6.392s51.19 3.467 60.033 14.923c1.865 2.417 2.372 3.632 2.007 4.02-1.475 1.329-15.044-8.43-17.015-8.792-.004.002-.025-.004-.03 0l-.028.029a.898.898 0 0 0-.088.144c-.481 1.06-.93 5.669-.93 5.669-5.717-3.29-10.963-6.241-17.8-7.635-.537 1.065-.424 2.579-.96 3.644-6.206-4.45-11.611-7.578-20.622-8.011l-1.077 4.28s-7.512-9.326-22.25 0c-8.23 5.867 31.088 2.124 37.52 9.052 6.43 6.927 1.337 7.982 1.337 7.982-5.359-1.953-10.696-3.888-16.055-5.842 0 0-19.044-3.481-24.403.781-5.359 4.264 78.243 14.658 80.654 26.116 1.626 6.214-19.642-6.506-38.044-11.973-.711 2.034-1.44 4.069-2.152 6.103-.436-.43-7.555-7.314-15.532-8.503-.002.004-.027.022-.03.029v.058c.013.874 1.63 7.114 1.63 7.114s-20.613-9.602-31.063-4.54c-10.451 5.062 36.433 7.726 40.72 12.523.469.524.664.907.64 1.157a.55.55 0 0 1-.059.144c-1.035 1.508-15.017-4.062-16.404-1.301-1.608 3.197-24.38-5.854-24.112-1.591.268 4.264 3.229 6.652 3.229 6.652s47.43 4.527 49.038 10.122c1.607 5.595-26.264-3.181-26.264-3.181s-2.696 3.977-.553 5.842c.084.072.15.142.175.173v.029h-.03c-.968-.318-16.07-10.153-14.6-2.603-5.91-2.34-21.167-9.586-19.023-3.991 2.112 5.513 41.905 13.363 43.076 13.593-1.052.082-17.88 1.482-17.102 5.87-22.555-13.662-22.502-5.469-21.989-4.829v.03c-1.267-.2-29.016-7.074-6.951 4.8 11.833 6.367 14.717 8.85 14.776 9.804 0 .021.002.067 0 .087-.004.025-.02.064-.029.087-.002.006-.026.023-.03.029-.01.016-.017.043-.028.058l-.03.029-.029.029-.029.029c-.006.004-.023.025-.029.029-.459.291-1.567.17-1.89.173h-.059a.133.133 0 0 0-.029.029l.03.029c.314.465 2.045 5.165 1.948 5.987-.002.014-.026.047-.03.057-.001.004.003.025 0 .03 0 .001-.027-.003-.028 0-.002 0 .002.027 0 .028h-.059c-.967-.242-15.58-8.007-20.593-8.531-5.092-.533-29.215 6.653-3.49 17.844s41.526-2.67 55.728-1.07c14.202 1.598 20.914 4.001 19.575 8.531-1.34 4.53-14.528-14.85-28.388 1.91-15.766-3.103-26.462-4.898-18.324 6.622-25.747-9.567-41.47 2.919-9.046 7.982 31.862.934 51.452-7.722 51.452-7.722s5.375 9.878 13.147 2.95c7.407-6.602 7.99 1.8 8.26 2.603.005.012.026.022.03.03.002.001-.002.027 0 .028h.029c.572-.143 7.475-3.21 7.475-3.21h1.89v63.944c8.665.089 17.31.171 25.973.26 0 0-8.307-55.674-3.752-63.134 4.414-7.227 8.587-6.447 8.842-6.391 0 0 16.885 5.05 18.76 4.251.022-.01.067-.018.088-.029.014-.008.045-.02.058-.029.033-.02.087-.063.116-.087.006-.004.024-.024.03-.029 1.372-1.245-.026-6.16 8.55-5.408 2.65-.958 1.639-5.156 3.346-6.189.03-.018.084-.042.116-.058.064-.03.161-.065.233-.086.1-.03.234-.047.349-.058 2.68-.267 54.392 14.376 65.646.52-2.948-7.726-13.143-.527-15.823-.26-2.412 0-12.602-4.796-18.498 0-5.36-3.996-29.726-6.652-29.726-6.652-3.216-3.197 58.149 1.588 61.632-.81 7.234-7.194-13.392-6.389-16.608-3.99-5.717-3.465-12.9-3.208-17.277-.81-2.099-4.992-22.024-2.83-33.1-4.252-3.544-2.067-2.954-3.254-.552-4.54 23.134.977 46.151 3.98 69.398 2.95 6.284-8.146-7.91-11.218-16.608-4.28-5.106-8.35-15.545-.272-22.512-1.071-6.966-.8-3.752-9.314 5.09-7.982 8.843 1.333 24.655-.544 27.602-4.54 2.947-3.997-1.76-8.046-16.346-4.252-4.937-4.798-15.792-.008-20.884 1.59-6.774-3.757-22.534-.522-27.893.81-5.246-3.242 27.602-8.531 27.602-8.531 12.68-.223 19.831-2.405 23.85-3.47 19.168-10.216-.267-11.3-10.325-3.876-6.243-4.847-12.173.419-17.8 2.285-5.275 1.748-15.032 3.021-16.23 2.516a.631.631 0 0 1-.058-.03c-.002-.001-.026-.026-.03-.028l-.028-.03v-.058a.473.473 0 0 1 .029-.057c.79-1.218 15.24-10.036 15.24-10.036s18.76-1.347 22.513-1.88c2.286-.325 10.299-4.096 10.296-5.495-.067-.868-3.406-.788-13.525 1.764-9.111.8-14.462.283-17.946.55-5.603-.576-7.964-1.163-8.435-1.678a.658.658 0 0 1-.058-.086c-.04-.093-.014-.2.058-.29.018-.02.063-.066.087-.086 1.374-1.091 10.238-1.88 10.238-1.88s27.063-2.468 28.853-3.876l.03-.029c.01-.012.022-.047.028-.058.002-.006.028-.023.03-.029.556-11.002-22.96-5.921-23.588-5.842.067-7.736-21.224-.113-22.221 0h-.03c-.916-.536-1.315-1.102-1.396-1.62a1.48 1.48 0 0 1 .058-.606c.534-1.596 3.752-2.835 3.752-2.835 5.896-1.42 14.71-1.864 17.015-3.73 0 0 16.64-.146 18.615-4.541-4.083-11.201-35.213 1.983-39.382 3.991-.835 0-1.346-.209-1.6-.55-1.368-1.988 5.387-8.537 5.614-8.762.002-.002.024-.027.03-.03 1.029-.29 25.883-1.554 37.752-17.554.838-9.894-14.194 5.581-14.194 5.581-1.122-12.83-16.345.814-25.188 1.88-8.842 1.065-9.1-4.001-2.937-4.8 6.162-.8 13.124-.277 16.608-9.602 3.482-9.326 13.947.543 15.823-2.921 1.816-3.356-3.424-6.217-3.752-6.392 0 0 7.765-8.017-4.829-7.75-12.467.263-28.585-1.554-28.91-1.591.781-.297 13.48-5.06 25.42-4.801 12.327.266 5.625-8.792-6.166-8.792-11.79 0-17.946-3.991-17.946-3.991l20.098-7.462-1.338-5.582s11.786-9.332-4.828-7.201c-16.614 2.132-18.498 2.4-18.498 2.4s-32.705 4.984-33.478 5.062h-.03c-.316-.05-3.555-1.05-4.158-2.285a1.567 1.567 0 0 1-.059-.145 1.126 1.126 0 0 1-.029-.173c-.004-.058-.01-.143 0-.203.135-.65 1.144-1.354 3.723-1.995 8.575-2.131 38.87-8.251 43.425-6.652.587.206 1.016.16 1.28-.058 1.708-1.537-3.974-11.338-17.917-12.725-16.078-1.598-25.973 3.991-25.973 3.991s-10.462-3.743-.814-6.94c9.646-3.197 24.926 1.07 24.926 1.07s17.14-5.07 2.937-7.202c-14.202-2.132-18.68 1.917-25.188 2.14-2.598-3.224 22.297-3.985 23.85-6.651-2.625-4.798-18.028 0-27.05 0-3.837-1.62-4.091-4.253.262-5.871 9.2-.356 17.849.181 27.05-.174-.268-4.884.006-10.675-.262-15.559-11.67-2.12-25.355 1.553-31.907 1.244 1.753-5.33 26.95-6.706 29.755-8.156 5.79-7.195-24.167-.111-24.897 0-5.317-.781-4.995-4.123-1.629-6.131 7.771-.889 25.197 1.132 23.88-4.107-1.01-4.91-12.083-2.28-16.638-1.215-4.555 1.066-11.256.26-11.256.26-2.917-3.904 26.27-2.308 26.003-5.32-.38-3.46-18.5-1.077-24.665-.81-4.74-3.253 22.286-5.415 23.56-5.843l.029-.029c1.01-8.857-18.76 0-22.512 0-.645 0-1.133-.16-1.484-.433a2.222 2.222 0 0 1-.233-.232c-1.288-1.494-.145-4.916-.145-4.916s7.045-3.148 7.475-3.905c.002-.006.027-.023.03-.029v-.058l-.03-.028a.576.576 0 0 0-.087-.087c-.827-.633-5.673-2.232-6.312-2.285h-.029c-.004-.001-.025-.027-.029-.029a.223.223 0 0 1-.03-.029c-.003-.004-.025-.023-.028-.029-.365-.745.087-6.044.087-6.044s5.582-4.16 5.933-5.813c.002-.014-.002-.045 0-.058.002-.014 0-.045 0-.058v-.058c0-.012.002-.046 0-.058v-.029c-.004-.016-.022-.042-.029-.058-.002-.006.002-.023 0-.029-.002-.004-.026-.024-.029-.029-.006-.01-.023-.02-.03-.029-.01-.014-.017-.045-.028-.057l-.03-.03a.938.938 0 0 0-.087-.057l-.058-.03c-1.41-.672-7.242 1.331-7.242 1.331v-5.321s5.106-.552 5.642-2.95c.032-.14.016-.279 0-.405-.008-.05-.014-.126-.029-.174a1.346 1.346 0 0 0-.145-.318c-.01-.014-.048-.044-.059-.058-1.168-1.5-5.933-1.706-5.933-1.706-.894-9.325-1.782-18.64-2.676-27.966zm-4.77 91.332v3.673s-6.01-.306-7.126-1.244c-.006-.004-.024-.024-.03-.029l-.028-.028-.03-.03-.029-.028c-.01-.014-.021-.043-.029-.058-.002-.004.002-.024 0-.029-.002-.004-.028-.024-.029-.029v-.144a.592.592 0 0 1 .029-.087c.002-.006.026-.024.03-.03a.798.798 0 0 1 .057-.086l.03-.029.058-.058c.04-.035.093-.079.145-.116 2.016-1.403 6.042-1.37 6.835-1.59.006-.002.023.002.03 0 .006-.002.024-.027.029-.03.004-.001.025.003.029 0 .004-.001.026-.026.029-.028zm8.522 4.888c.208 0 11.97.1 13.001 1.62.008.011.023.044.03.057.007.02.024.067.029.087.002.014-.001.044 0 .058 0 .02.004.065 0 .087a.973.973 0 0 1-.03.086c-.898 1.898-12.798 3.037-12.798 3.037l-.232-5.032zm-.669 7.259c.004.002.025-.002.03 0 .003.002.022-.002.028 0 .699.183 5.57.34 6.167 1.156.006.008.024.022.029.03.002.003-.002.024 0 .028.004.008.026.021.029.03v.143c-.002.004-.028.024-.03.029-.001.004.003.024 0 .028-.007.014-.02.044-.028.058l-.03.03c-.004.003.004.023 0 .028-1.01 1.227-5.505 1.562-5.73 1.562h-.029c-.002 0 .002-.028 0-.029-.004-.006-.025-.023-.029-.029-.205-.415-.407-3.065-.407-3.065zm-35.863 9.66c3.84-.2 11.462.7 25.77 4.627 0 .302.29 3.991.175 4.598-.001.004-.028.025-.03.029v.029c-.002.002-.025.028-.029.029-.224-.112-26.03-7.486-28.388-7.375-.064.002-.142.006-.203 0a1.945 1.945 0 0 1-.175-.029c-.064-.016-.147-.061-.203-.087-.021-.01-.068-.018-.088-.029-.006-.004-.023-.025-.03-.029a.826.826 0 0 1-.203-.202c-.004-.006-.025-.023-.029-.029l-.029-.058c-.002-.006.002-.023 0-.029-.004-.012-.026-.046-.029-.058v-.144a.703.703 0 0 1 .03-.116.873.873 0 0 1 .174-.26c.394-.384 1.382-.77 3.286-.868zm13.38 10.902c4.113-.146 13.968 2.211 14.513 2.083 0 .781.436 4.475-.058 5.234-.004.006-.024.023-.03.03-.003.005-.023.023-.028.028-.006.004-.024.025-.03.029a.685.685 0 0 1-.058.029c-.006.002-.023-.001-.03 0h-.057c-.006-.001-.022.002-.03 0-.837-.208-15.381-4.802-15.938-6.68-.008-.032-.001-.087 0-.117a.383.383 0 0 1 .087-.202c.006-.006.022-.023.03-.029l.028-.029c.28-.22.856-.35 1.6-.376zm40.486 10.122c3.928-.076 6.702.258 5.672 1.446-2.805 3.236-22.192 5.9-22.192 5.9l-.35-5.9c.417-.06 10.268-1.317 16.87-1.446zm-55.495 18.394c3.297-.174 10.974 1.626 28.068 8.821l.117 4.252s-28.948-8.73-29.958-10.18c-.498-.714-1.421-2.723 1.774-2.893zm56.717 6.334c.88-.045 1.5.044 1.716.26.006.006.025.023.03.03.011.02.021.065.028.086.004.022.03.063.03.087-.012.122-.104.286-.262.463-2.694 3.013-17.161 6.015-17.161 6.015v-3.904h.029c.66-.023 11.279-2.82 15.59-3.037zm-63.465.52c4.322-.227 14.08 2.052 35.95 12.35 0 .106.195 3.658.116 3.99h-.029c-1.296-.415-39.353-13.707-39.353-13.707-.04-.146-.613-2.425 3.316-2.632zm72.452 16.63c1.106-.046 1.832.05 2.007.29a.332.332 0 0 1 .03.116c-.005.115-.101.263-.292.433-3.45 3.1-25.453 6.854-26.235 6.912h-.029c-.002 0-.026.002-.029 0l-.03-.029a.41.41 0 0 1-.028-.057c-.002-.006.002-.024 0-.03-.004-.011-.026-.044-.03-.057-.14-.718.316-3.234.35-3.586v-.03c0 .002.027 0 .029 0 .004.001.024.03.029.03h.029c1.408-.024 18.27-3.745 24.199-3.991zm-64.686 9.69c6.55-.337 26.397 8.712 27.37 8.993h.03c-.103.405-.12 3.672-.204 4.194-.002.014.002.05 0 .058-.001.002-.029-.001-.03 0-.534-.285-27.735-11.51-28.94-10.614-.75-1.768.028-2.542 1.775-2.632zm58.52 2.37c1.363-.059 2.36.001 2.676.174a.248.248 0 0 1 .087.087c.002.004 0 .024 0 .029a.39.39 0 0 1 0 .029c-.002.012.006.046 0 .058-.004.006-.024.022-.029.029a.78.78 0 0 1-.087.086c-2.02 1.786-20.767 5.466-20.767 5.466s-.088-3.453-.088-3.788c.533-.113 12.635-1.925 18.208-2.17zm-1.512 11.945c1.319-.044 2.254.03 2.472.26l.029.029c.006.01-.002.047 0 .058 0 .006.029.023.03.029-.001.006-.03.023-.03.029-.002.012.006.045 0 .057-.004.006-.025.023-.03.03-.015.026-.034.059-.057.086-.018.02-.064.066-.088.087-2.023 1.737-17.917 5.061-17.917 5.061s-.436-3.792-.436-3.904c.44.01 11.067-1.658 16.026-1.822zm-67.071.954c3.834-.241 13.337 1.33 36.793 9.804l.785 4.57s-39.055-12.536-40.167-12.928c.002 0 0-.026 0-.03 0-.024-.006-.082 0-.144a.986.986 0 0 1 .204-.463c.275-.335.904-.717 2.385-.81zm51.452 9.92c.47.1 7.019.316 8.23 1.33a.213.213 0 0 1 .03.03l.03.028c.003.004.024.024.028.03.012.015.02.042.03.057.002.006.026.024.029.029.01.021.023.065.029.087v.145c-.002.012-.025.046-.03.057-.001.006.003.023 0 .03l-.028.057c-1.01 1.562-7.853 2.14-7.853 2.14s-.337-3.06-.495-4.02zm15.852 8.907c1.525-.036 2.619.138 2.85.579.13.299-.12.74-.843 1.33-5.61 4.575-17.83 5.466-17.83 5.466v-5.032h.029c.694-.082 10.73-2.222 15.794-2.343zm15.56 4.686c1.937-.073 2.772.25 3.026.694.02.04.046.103.058.145a.94.94 0 0 1 .029.26c-.062.573-.687 1.26-1.163 1.706-1.908 1.785-32.314 11.366-32.314 11.366s-.23-6.355-.117-6.912c17.777-5.357 26.472-7.108 30.482-7.259zm-19.661 17.989c1.933-.072 3.444.042 3.897.491.028.03.069.083.088.116.01.02.022.065.029.087.006.021-.002.064 0 .087 0 .038.01.102 0 .144-.022.086-.081.19-.146.29-2.601 2.538-15.241 2.92-15.241 2.92v-3.152c2.373-.08 7.657-.845 11.372-.983zm12.652 5.176c.6-.014.967.083 1.018.26a.28.28 0 0 1 0 .059c-.03.147-.207.37-.582.636-5.05 3.57-24.025 7.23-24.025 7.23s.235-2.495.349-3.095c.528-.008 18.699-4.979 23.239-5.09zm10.645 3.963c2.236-.021 3.942.307 4.915 1.012h.03v.116c-.096.691-1.517 3.945-6.516 5.35-6.234-.554-32.693 7.224-33.216 7.346-.002-.002-.028.002-.029 0-.002-.01.001-.043 0-.058-.014-.498.35-3.181.35-3.181 9.12-5.424 25.694-10.503 34.465-10.585zm-67.74 15.27h.174c11.445 1.227 15.72 5.487 16.928 7.2-2.282 3.983-20.37-4.947-18.469-6.853.218-.193.665-.333 1.367-.347zm65.588.752c.454-.018.87.075 1.163.26.12.08.238.194.32.318.11.178.184.418.204.694-1.196 1.837-7.38 1.035-7.766.983.311-.11 3.881-2.172 6.079-2.255zm-24.52 12.378c.85-.035 1.554.05 1.95.289.047.03.107.08.145.116.012.012.047.044.058.057.016.02.045.066.058.087.012.022.02.063.03.087.071.216.043.515-.146.868-1.795 3.347-9.656 2.11-9.656 2.11v-2.342h.029c.442.038 4.775-1.16 7.533-1.272zm-46.303 8.82c2.418-.12 4.532 1.457 6.748 2.719 4.936-1.004 15.066.78 15.066.78v4.455a.112.112 0 0 1-.03.029c-.004.002-.023-.002-.029 0-.922.16-12.793-.356-15.444-2.025-2.162 0-8.284-3.212-8.754-4.858-.004-.014-.027-.045-.03-.058-.004-.02.002-.067 0-.087v-.058c.001-.012-.002-.046 0-.058v-.029c.002-.012.026-.046.03-.058.002-.006-.002-.023 0-.029.846-.448 1.67-.684 2.443-.723zm51.918 2.199c1.857-.1 2.644.47 1.192 2.516-4.04 5.69-14.485 3.354-14.485 3.354l-.436-3.528c3.684.143 10.418-2.165 13.728-2.343zm-39.033 11.539c4.223-.196 8.813 1.475 8.813 1.475.108.214 2.27 4.451.349 5.87-.072.052-.15.102-.233.145-2.357 1.227-13.62-.959-14.281-5.466 1.325-1.391 3.289-1.929 5.352-2.024zm-43.541 2.198c3.862-.231 8.177 2.135 8.667 2.371.006.002.026 0 .03 0 0 .133-.146 4.28-.146 4.28s-7.647-2.12-10.064-6.391a7.581 7.581 0 0 1 1.512-.26zm73.558.578c4.308-.027 9.513.98 10.267 2.43.142.296.1.623-.175.954-2.132 2.565-14.252.231-14.252.231v-3.123c1.079-.314 2.564-.482 4.16-.492z"/>
</svg>
