<svg xmlns="http://www.w3.org/2000/svg" xmlns:xlink="http://www.w3.org/1999/xlink" viewBox="0 0 120 60">
    <clipPath id="a">
        <path d="M0 0v15h70v15H60zm0 30v10h30V0h30z"/>
    </clipPath>
    <path fill="#002868" d="M0 0h120v60H0z"/>
    <g stroke="#cf142b" stroke-width="6">
        <path d="m0 0 60 30m0-30L0 30" stroke="#fff"/>
        <path d="m0 0 60 30m0-30L0 30" clip-path="url(#a)" stroke-width="4"/>
        <path d="M30 0v40M0 15h70" stroke="#fff" stroke-width="10"/>
        <path d="M30 0v40M0 15h70"/>
    </g>
    <path d="M60 0h60v60H0V30h60z" fill="#fcd116"/>
    <g transform="translate(30 15)">
        <g transform="scale(5.1039)">
            <circle r="1" fill="#002868"/>
            <path id="b" d="m0-513674 301930 929245-790463-574305h977066l-790463 574305" fill="#fcd116" transform="scale(0)"/>
        </g>
        <use xlink:href="#b" transform="matrix(3 0 0 3 -17.5 .29)"/>
        <use xlink:href="#b" transform="matrix(3 0 0 3 17.5 .29)"/>
        <use xlink:href="#b" transform="matrix(3 0 0 3 0 10.29)"/>
        <use xlink:href="#b" transform="matrix(3 0 0 3 0 -9.71)"/>
    </g>
</svg>
