<svg xmlns="http://www.w3.org/2000/svg" xmlns:xlink="http://www.w3.org/1999/xlink" viewBox="0 0 768 576">
    <path d="M0 0h768v576H0z"/>
    <path d="M0 0h768v576z" fill="#ce1126"/>
    <path d="M475.485 167.354c-5.673 7.326-19.095-7.37-35.175-7.706-16.08-.335-27.471 15.41-32.16 20.77-4.69 5.361-19.765 33.5-19.43 36.515.335 3.015 9.38-8.374 12.73-10.384.335 4.02-3.685 8.71-2.68 10.05 1.005 1.34 11.724-8.04 15.41-8.375 1.005 2.68-2.01 5.36-1.005 9.38 1.34 1.34 7.37-6.7 11.39-8.375.67 3.015-3.685 8.71-1.34 12.395 1.675.334 11.724-11.39 15.075-12.73 3.35-1.341-1.676 11.054 0 12.06 3.015-2.01 12.395-12.731 15.41-14.07 3.015-1.34-.334 13.735 1.005 13.735 3.685-2.68 13.065-15.41 14.07-17.42 1.005-2.01-1.005 19.43 9.38 30.82 10.385 11.39 26.131 24.455 27.805 24.455 2.01-3.685-.669-11.39 1.005-11.055 4.69 5.025 13.4 12.395 15.41 12.395s-1.34-8.04 1.34-8.04c5.36 5.025 20.77 24.79 50.92 33.835-2.01-5.695-6.366-10.72-6.7-13.4 2.01.335 9.046 3.686 10.385 3.35 1.34-.336-14.74-20.1-13.735-22.78 3.685-.335 5.36 2.01 6.7.334-1.675-2.68-15.745-18.424-15.745-22.11 0-3.685 4.356.67 5.695 0 1.34-.67-5.36-14.74-4.02-16.414 1.34-1.675 16.08 9.045 19.765 9.045 3.685 0 1.005-13.065 2.68-13.736 1.675-.67 14.071 7.035 16.75 7.035 2.68 0 2.345-5.695 3.35-5.025 1.005.67 30.15 29.816 20.1 63.986-10.05 24.455-30.149 37.52-59.63 26.8 1.675 2.68 17.42 15.745 34.505 11.055 17.085-4.69 37.854-18.09 35.51-51.59-2.345-33.5-13.401-38.19-15.075-43.215-1.675-5.025 2.681 1.34 6.365 2.68 3.685 1.341-.67-7.035-1.675-10.72-1.005-3.686 11.055 7.705 14.07 8.71 3.015 1.005-7.035-27.47-10.05-29.48-3.015-2.01 3.015.67 5.025 1.34 2.01.67-18.426-31.155-22.78-31.155-4.355 0 3.684-1.676 6.03-1.676 2.345 0-23.449-20.77-27.805-20.77-4.355 0 9.379-5.36 10.72-5.695 2.345.334-29.815-17.085-58.625.334-1.675-1.338 13.569-11.891 14.07-16.413.168-1.173-5.024-3.686-5.36-5.025-.335-1.34 8.04-5.36 8.375-8.375-2.01-2.68-5.695-1.675-7.705-2.345-.502-2.512 7.036-8.71 6.365-11.39-.502-1.507-6.03-2.01-7.37-1.004-1.34 1.005 3.518-7.035 2.68-9.38-.67-1.005-3.35-.335-6.03.335-1.675-.335 8.71-14.74 6.7-16.75-2.01-2.01-30.15 14.739-40.535 33.499-10.385 18.76-2.344 33.835-3.685 40.2-1.34 6.365-3.016 12.73-7.37 12.73-4.355 0-14.404-6.7-17.755-10.05-3.35-3.35-4.02-5.695-8.71-7.035-4.69-1.34-15.41 2.68-19.43 3.015-4.02.335-19.765-3.015-20.77-2.01-1.005 1.005 15.41 7.035 19.095 9.045 3.685 2.01 4.021 4.69 6.7 6.365 2.68 1.674 27.805 9.045 19.765 19.43zm98.155 47.235c8.04 8.04 62.31 44.22 62.31 88.44s-39.53 42.88-50.92 41.54c12.73 10.72 60.97 8.71 60.97-41.54 0-44.22-62.31-88.44-70.35-92.46-8.04-4.02-10.05-4.02-2.01 4.02z" fill="#fcd116"/>
    <g fill="#fff">
        <path d="m220.254 418.599 11.455-36.851L243.164 419 213 396.168h37.418z"/>
        <path id="a" d="m192.418 178.496-22.909 73.702 60.327-44.862H155L215.327 253z"/>
        <use xlink:href="#a" x="-88" y="112.504"/>
        <use xlink:href="#a" x="87.582" y="104.504"/>
        <use xlink:href="#a" y="264.504"/>
    </g>
</svg>
