<svg xmlns="http://www.w3.org/2000/svg" viewBox="0 0 600 330">
    <path fill="#0038a8" d="M0 0h600v330H0z"/>
    <path fill="#fff" d="M0 0h600v220H0z"/>
    <path fill="#d52b1e" d="M0 0h600v110H0z"/>
    <g fill="none" stroke="#000">
        <circle stroke-width="1.076" cx="300" cy="165" r="42.2"/>
        <circle stroke-width=".478" cx="300" cy="165" r="34.67"/>
        <circle stroke-width=".438" cx="300" cy="165" r="26.56"/>
    </g>
    <path d="m277.53 181.28-4.893 2.905-1.496-2.52c-.277-.467-.45-.848-.516-1.142a1.326 1.326 0 0 1 .09-.862c.128-.28.347-.513.659-.698.271-.16.54-.242.805-.243.266-.001.52.063.763.193.154.082.324.22.508.415a1.753 1.753 0 0 1-.053-.5c.007-.08.044-.212.113-.395a2.15 2.15 0 0 1 .178-.392l.984-1.574 1.015 1.71-1.016 1.695c-.132.217-.204.383-.214.497-.011.154.024.3.106.438l.08.134 1.985-1.18zm-3.812.21-.379-.638a2.65 2.65 0 0 0-.304-.36.465.465 0 0 0-.3-.155.526.526 0 0 0-.34.074c-.157.093-.249.215-.274.366s.044.363.208.64l.394.663zm-4.608-3.78-1.487-4.471 1.153-.384.93 2.8.859-.286-.864-2.597 1.102-.366.863 2.597 1.065-.354-.958-2.88 1.222-.407 1.514 4.552zm-1.95-6.65-.332-2.904c-.073-.632.024-1.123.288-1.472.265-.35.675-.556 1.23-.62.571-.065 1.037.055 1.397.362.361.306.582.812.662 1.516l.11.957 2.098-.24.2 1.754zm2.21-2.03-.05-.428c-.038-.337-.124-.567-.256-.69a.57.57 0 0 0-.473-.153.632.632 0 0 0-.43.23c-.11.131-.147.36-.11.687l.057.498zm-2.39-8.65.188-1.744 3.373.363c.334.037.645.123.93.259.286.136.529.328.727.574s.33.497.394.751c.089.353.108.768.057 1.244-.03.275-.082.573-.155.895a2.37 2.37 0 0 1-.318.791 2.056 2.056 0 0 1-.553.548c-.23.158-.461.259-.692.302a3.408 3.408 0 0 1-.975.058l-3.373-.363.189-1.745 3.453.373c.31.033.56-.026.752-.179.192-.152.304-.38.337-.684.032-.3-.028-.546-.18-.735-.153-.19-.386-.302-.7-.335zm.76-4.17 1.086-3.107c.181-.518.448-.87.802-1.058a1.32 1.32 0 0 1 1.098-.083c.317.11.555.305.713.582.105.185.158.42.157.705.228-.354.486-.582.776-.685.29-.103.605-.095.947.025a1.515 1.515 0 0 1 1.025 1.172c.032.167.017.398-.044.692a7.8 7.8 0 0 1-.187.77l-1.001 2.864zm2.692-.938.253-.722c.09-.259.108-.455.055-.587-.054-.133-.165-.228-.334-.287-.156-.055-.296-.047-.42.024s-.228.231-.316.483l-.256.733zm2.11.738.297-.847c.1-.286.12-.505.059-.657a.543.543 0 0 0-.347-.32c-.159-.055-.307-.041-.444.041s-.256.269-.358.56l-.295.842zm-2.112-6.64.908-1.505 3.673 2.216 1.418-2.35 1.2.724-2.327 3.855zm3.44-5.21 1.128-1.354 4.371 3.643-1.128 1.354zm7.65-2.94 1.472-.651c.203.395.315.775.335 1.14.02.365-.047.71-.2 1.038-.155.327-.425.656-.812.988-.469.403-.91.665-1.325.784-.415.119-.878.1-1.389-.059-.51-.158-.996-.505-1.457-1.04-.614-.715-.896-1.427-.846-2.137.05-.71.423-1.363 1.118-1.96.543-.468 1.065-.725 1.565-.772.5-.048 1.021.091 1.564.417l-.953 1.274a1.33 1.33 0 0 0-.377-.178 1.012 1.012 0 0 0-.477 0 1.031 1.031 0 0 0-.432.229c-.303.26-.43.58-.382.962.034.285.217.62.549 1.007.412.48.766.745 1.064.798.298.053.578-.034.841-.26.255-.219.387-.456.394-.712.007-.255-.077-.545-.252-.868zm6.06-2.18-1.767.942.198.959-1.585.845-.79-6.027 1.692-.902 4.564 4.015-1.623.865zm-.904-.912-1.517-1.51.41 2.1zm5.374-5.828 2.574-.445c.508-.087.93-.09 1.265-.006.337.084.629.237.877.46.249.222.449.496.6.822.15.326.259.68.325 1.062.103.6.115 1.076.036 1.43-.08.353-.221.663-.425.928a1.88 1.88 0 0 1-.703.58 4.079 4.079 0 0 1-1.006.332l-2.574.444zm1.952.97.53 3.064.424-.073c.362-.062.612-.147.752-.254s.234-.268.286-.483c.052-.215.04-.547-.038-.996-.102-.594-.27-.984-.501-1.17-.232-.185-.572-.24-1.02-.162zm5.358-1.95 4.708.201-.052 1.214-2.947-.126-.039.904 2.734.117-.05 1.159-2.733-.117-.048 1.12 3.032.13-.055 1.288-4.793-.205zm6.85.54 1.708.418-1.02 4.166 2.666.653-.333 1.36-4.374-1.07zm9.13 3.03 2.516 1.487c.548.324.881.697 1 1.12.119.421.036.873-.248 1.354-.293.494-.67.793-1.132.895-.462.103-.998-.026-1.608-.387l-.829-.49-1.074 1.818-1.52-.899zm.286 2.987.37.22c.292.172.527.242.705.21a.57.57 0 0 0 .408-.284.632.632 0 0 0 .077-.482c-.04-.167-.2-.334-.483-.502l-.431-.255zm4.934 6.633-1.467-1.364-.841.5-1.316-1.224 5.441-2.71 1.404 1.306-2.309 5.623-1.347-1.253zm.568-1.152.933-1.926-1.851 1.072zm.682 3.782 4.692-3.22 1.658 2.417c.307.448.504.817.59 1.106.085.29.074.579-.034.866-.109.288-.313.535-.611.74-.26.178-.523.277-.788.295a1.578 1.578 0 0 1-.774-.142 2.13 2.13 0 0 1-.534-.382c.06.213.09.378.086.497-.002.08-.03.213-.087.4a2.237 2.237 0 0 1-.152.404l-.88 1.634-1.124-1.639.903-1.758c.118-.226.179-.396.181-.51a.738.738 0 0 0-.135-.43l-.087-.129-1.905 1.307zm3.79-.459.42.612c.045.066.154.18.327.34a.465.465 0 0 0 .309.134.524.524 0 0 0 .334-.095c.152-.104.235-.232.25-.384.016-.151-.068-.36-.25-.624l-.436-.637zm1.76 8.519-.742-1.86-.975.092-.666-1.67 6.078-.122.71 1.781-4.492 4.095-.682-1.708zm1.006-.798 1.667-1.343-2.131.178zm1.484 6.218 1.17-.175.403 2.687-2.4.359c-.427-.462-.734-.881-.92-1.258-.185-.376-.319-.836-.4-1.378-.1-.668-.067-1.23.097-1.685.165-.455.455-.832.871-1.13.416-.3.916-.493 1.499-.58.614-.092 1.167-.045 1.66.14.492.185.892.505 1.2.958.24.355.407.854.504 1.499.093.622.106 1.095.04 1.42a1.832 1.832 0 0 1-.41.847 2.354 2.354 0 0 1-.831.593l-.55-1.632a.919.919 0 0 0 .434-.425c.088-.182.113-.4.075-.656-.057-.382-.235-.666-.534-.853-.299-.186-.735-.237-1.308-.151-.609.09-1.027.27-1.254.539-.227.268-.31.607-.248 1.016.03.195.085.376.168.544.082.168.209.356.378.563l.53-.079zm3.72 8.26-.156 1.748-3.379-.302a2.86 2.86 0 0 1-.935-.24 2.059 2.059 0 0 1-.737-.561 1.967 1.967 0 0 1-.407-.744c-.096-.352-.123-.766-.08-1.243.024-.275.07-.575.138-.897a2.37 2.37 0 0 1 .303-.797c.134-.21.315-.395.542-.558.228-.163.457-.268.687-.315.37-.076.695-.102.973-.077l3.38.302-.156 1.747-3.46-.308c-.31-.028-.56.036-.748.192-.19.156-.298.386-.325.69-.027.302.038.546.194.732.156.187.391.294.706.323zm-6.29 6.02.626-1.903-.807-.555.562-1.707 4.737 3.81-.599 1.82-6.073.255.574-1.748zm1.284.034 2.14.042-1.748-1.233zm2.036 4.626-1.004 1.675-2.238-.002 1.057 1.973-.998 1.664-1.699-3.597-2.044-1.226.906-1.511 2.044 1.225z"/>
    <g fill="#009b3a" stroke="#000" stroke-width=".1">
        <path d="M305.58 145.3s16.052 6.916 13.249 21.207-11.74 14.195-15.244 15.775c-3.504 1.58-5.922 3.84-7.305 3.523-1.382-.316-3.21-1.383-3.21-1.383s-.146 2.347 2.668 2.775 6.515-3.705 8.292-4.164c1.777-.46 12.688-1.644 15.343-16.185 3.098-15.522-13.693-21.092-13.792-21.548z"/>
        <path d="M313.68 148.34a2.204.522 75.104 0 1-1.057.081 2.204.522 75.104 1 1 1.057-.081z"/>
        <path d="M313.13 148.49a2.27.506 63.335 1 1-.957.35 2.27.506 63.335 0 1 .957-.35zm-1.61 1.06a2.15.535 17.053 0 1-.1 1.086 2.15.535 17.053 0 1 .1-1.086z"/>
        <path d="M311.76 148.96a2.26.509 34.225 1 1-.462.916 2.26.509 34.225 1 1 .462-.916z"/>
        <path d="M312.44 148.68a2.299.5 46.194 1 1-.699.716 2.299.5 46.194 0 1 .699-.716z"/>
        <path d="M313.56 150.7c.009.01-.62.35-.762.4-.142.05-.335-.19-.744.02-.41.21-.69.593-.78.818-.089.225.116.32.611.079.495-.24.625-.621.863-.77.239-.15.639-.37.867-.45.098-.216.418-.677.584-.942.165-.265.815-.702 1.051-1.21.206-.422.129-.78-.147-.63-.277.15-.634.572-.8.876-.166.304-.023.69-.208.975-.146.206-.497.833-.535.834zm4.97 1.64a3.305.742 88.415 1 1-1.491-.357 3.305.742 88.415 1 1 1.491.357z"/>
        <path d="M317.7 152.31a3.443.712 77.49 1 1-1.442.072 3.443.712 77.49 1 1 1.442-.072z"/>
        <path d="M315.13 153.11a3.207.764 34.91 1 1-.499 1.511 3.207.764 34.91 1 1 .499-1.511z"/>
        <path d="M315.65 152.38a3.43.715 50.904 0 1-.943 1.105 3.43.715 50.904 1 1 .943-1.105z"/>
        <path d="M316.69 152.28a3.504.7 61.837 1 1-1.205.713 3.504.7 61.837 1 1 1.205-.713z"/>
        <path d="M317.57 155.67c.01.018-.973.223-1.187.232-.214.009-.402-.422-1.038-.304s-1.152.54-1.35.823c-.198.282.055.508.82.385.764-.123 1.07-.61 1.45-.717.38-.107 1.006-.242 1.349-.257.207-.264.804-.781 1.12-1.086.317-.306 1.361-.641 1.857-1.264.425-.51.437-1.058.005-.967-.432.09-1.066.537-1.397.897-.331.36-.261.978-.611 1.303-.27.23-.965.971-1.017.955zm3.57 3.33a.738 3.32 8.74 1 1-1.393-.639.738 3.32 8.74 1 1 1.393.639z"/>
        <path d="M320.35 158.8a3.465.707 87.95 1 1-1.422-.205 3.465.707 87.95 1 1 1.422.205z"/>
        <path d="M317.69 159.1a3.223.76 46.026 1 1-.76 1.397 3.223.76 46.026 1 1 .76-1.397z"/>
        <path d="M318.33 158.48a3.455.71 61.791 1 1-1.12.91 3.455.71 61.791 1 1 1.12-.91z"/>
        <path d="M319.35 158.58a3.53.694 72.543 1 1-1.306.473 3.53.694 72.543 1 1 1.306-.473z"/>
        <path d="M319.61 162.09c.006.02-.991.033-1.202 0-.21-.032-.316-.493-.96-.499-.643-.006-1.223.313-1.468.553-.244.24-.038.513.732.539.77.025 1.157-.397 1.547-.43.39-.033 1.027-.046 1.364.005.251-.22.927-.617 1.292-.858.365-.24 1.446-.371 2.043-.891.507-.423.617-.962.179-.955-.44.007-1.14.326-1.528.618-.389.293-.432.916-.833 1.17-.305.175-1.118.773-1.166.747m1.73 4.331a.738 3.32 31.311 0 1-1.013-1.168.738 3.32 31.311 0 1 1.013 1.168"/>
        <path d="M320.69 165.91a.703 3.487 20.618 0 1-1.208-.778.703 3.487 20.618 0 1 1.208.778m-2.52-.82a3.276.748 69.934 0 1-1.23.98 3.276.748 69.934 0 1 1.23-.98"/>
        <path d="M318.99 164.78a3.511.698 85.137 0 1-1.368.38 3.511.698 85.137 1 1 1.368-.38"/>
        <path d="M319.88 165.3a.685 3.578 5.55 1 1-1.366-.102.685 3.578 5.55 1 1 1.366.102"/>
        <path d="M318.75 168.66c-.002.02-.91-.38-1.089-.496-.178-.117-.094-.588-.674-.86-.58-.271-1.23-.216-1.544-.094-.315.122-.234.46.453.802.686.341 1.201.11 1.567.24.367.132.948.383 1.234.57.312-.101 1.078-.19 1.502-.262.424-.072 1.453.254 2.195.018.624-.182.933-.636.533-.811-.4-.175-1.158-.17-1.623-.059-.465.111-.747.671-1.208.74-.344.037-1.312.256-1.346.212m.59 5.29a.864 3.782 48.457 1 1-.73-1.656.864 3.782 48.457 1 1 .73 1.656"/>
        <path d="M318.79 173.16a.821 3.982 37.466 1 1-1.073-1.296.821 3.982 37.466 1 1 1.073 1.296"/>
        <path d="M316.29 171.34a3.81.858 86.522 1 1-1.677.638 3.81.858 86.522 1 1 1.677-.638"/>
        <path d="M317.29 171.29a.806 4.054 11.633 0 1-1.63-.075.806 4.054 11.633 1 1 1.63.075"/>
        <path d="M318.1 172.18a.795 4.11 22.119 1 1-1.47-.607.795 4.11 22.119 1 1 1.47.607"/>
        <path d="M315.75 175.49c-.009.022-.878-.748-1.035-.941-.158-.194.089-.684-.46-1.194-.55-.509-1.282-.683-1.669-.662-.387.02-.408.423.235 1.049.644.625 1.287.556 1.647.833.36.277.918.765 1.17 1.075.377 0 1.25.18 1.74.254.49.074 1.516.805 2.41.814.746.025 1.236-.365.853-.703-.382-.338-1.219-.605-1.767-.651-.549-.047-1.042.47-1.573.38-.391-.084-1.529-.193-1.551-.254m-1.58 5.05a.967 4.17 79.752 1 1 .2-1.998.967 4.17 79.752 1 1-.2 1.998"/>
        <path d="M314.09 179.47a.923 4.37 68.504 0 1-.328-1.853.923 4.37 68.504 0 1 .328 1.853"/>
        <path d="M312.66 176.29a.964 4.183 26.238 0 1-1.966-.363.964 4.183 26.238 1 1 1.966.363"/>
        <path d="M313.66 176.83a.91 4.434 41.823 0 1-1.533-1.014.91 4.434 41.823 0 1 1.533 1.014"/>
        <path d="M313.95 178.15a.897 4.495 52.671 1 1-1.088-1.427.897 4.495 52.671 0 1 1.088 1.427"/>
        <path d="M309.87 179.93c-.02.016-.439-1.219-.485-1.494-.046-.275.46-.599.208-1.4-.252-.803-.865-1.392-1.249-1.596-.384-.204-.625.166-.346 1.134.28.967.938 1.273 1.134 1.744.196.472.468 1.258.543 1.699.363.22 1.107.895 1.54 1.248.433.354 1.023 1.643 1.882 2.169.707.455 1.392.367 1.207-.175-.185-.543-.846-1.281-1.35-1.642-.504-.362-1.263-.156-1.725-.548-.332-.307-1.37-1.068-1.359-1.139"/>
        <path d="M307.4 184.24a1.212 4.22 89.068 0 1 .007-2.425 1.212 4.22 89.068 0 1-.007 2.425"/>
        <path d="M306.84 180.45a1.171 4.366 37.587 0 1-1.799-1.504 1.171 4.366 37.587 1 1 1.799 1.504"/>
        <path d="M307.43 182.38a1.197 4.271 66.472 0 1-.857-2.239 1.197 4.271 66.472 0 1 .857 2.239m1.15-36.72a2.62.533 41.126 0 1-.995.542 2.62.533 41.126 1 1 .995-.542m-1.29 1.09a2.654.526 8.163 0 1 .202 1.09 2.654.526 8.163 1 1-.202-1.09"/>
        <path d="M307.81 146.06a2.776.503 26.817 1 1-.526.861 2.776.503 26.817 0 1 .526-.861m-19.02 34.07s3.536.758 6.61 1.875c3.074 1.118 7.744 4.952 9 5.17 1.407.063 3.36-.417 4.101-2.45-2.168.578-3.469 1.457-5.539.32-.731-.278-3.126-2.458-5.752-3.626s-7.92-2.497-7.92-2.497l-.5 1.208m3.77-31.97c-.013-.03 4.07-2.147 4.07-2.147l-4.488 1.147-.522.79.94.21"/>
        <path d="M296.42 149.15c-1.576-.286-4-.816-5.542-.94 1.066-1.181 2.536-3.179 3.442-4.405-.598 1.17-1.537 2.712-1.908 3.831 1.087.587 2.794 1.046 4.008 1.514"/>
        <path d="M291.83 148.41c-.018-.028 3.617-2.8 3.617-2.8l-4.2 1.879-.375.868.958.053"/>
        <path d="M295.69 149.11c-1.587-.302-4.029-.858-5.58-.991 1.048-1.217 2.485-3.276 3.37-4.54-.577 1.207-1.49 2.797-1.84 3.952 1.1.61 2.823 1.09 4.05 1.579"/>
        <path d="M291.23 148.64c-.01-.031 4.26-1.784 4.26-1.784l-4.587.755-.592.74.919.289"/>
        <path d="M295.21 149.15c-1.605-.134-4.086-.433-5.635-.4.893-1.35 2.072-3.6 2.8-4.981-.43 1.289-1.146 3.005-1.357 4.218 1.16.5 2.92.8 4.192 1.163"/>
        <path d="M290.79 148.66c-.023-.024 2.885-3.516 2.885-3.516l-3.656 2.734-.17.932.941-.15"/>
        <path d="M295.19 149.38c-1.72-.033-4.387-.184-6.03-.038.813-1.538 1.84-4.076 2.474-5.635-.327 1.437-.915 3.36-1.018 4.7 1.285.463 3.186.667 4.574.973"/>
        <path d="M290.21 149.49c-.022-.03 3.504-3.362 3.504-3.362l-4.24 2.346-.29 1.005 1.026.011"/>
        <path d="M294.42 149.49c-1.848.007-4.694-.093-6.497.109 1.196-1.715 2.83-4.536 3.837-6.27-.65 1.592-1.684 3.726-2.071 5.203 1.289.478 3.297.656 4.731.958"/>
        <path d="M289.03 149.74c-.018-.033 4.476-3.791 4.476-3.791l-5.06 2.69-.52 1.114 1.104-.013"/>
        <path d="M293.75 149.6c-1.83.264-4.664.562-6.422 1.01.94-1.838 2.154-4.816 2.904-6.645-.417 1.642-1.135 3.865-1.307 5.36 1.346.286 3.361.18 4.825.275"/>
        <path d="M288.43 150.49c-.026-.027 3.449-4.777 3.449-4.777l-4.304 3.892-.23 1.192 1.085-.307"/>
        <path d="M292.74 150.17c-1.843.172-4.69.327-6.47.686 1.041-1.788 2.421-4.7 3.273-6.489-.509 1.619-1.35 3.803-1.607 5.285 1.328.354 3.347.35 4.804.518"/>
        <path d="M287.81 150.99c-.018-.034 4.39-3.8 4.39-3.8l-4.98 2.685-.504 1.122 1.094-.007"/>
        <path d="M292.2 150.36c-1.837.387-4.687.878-6.442 1.442.858-1.876 1.937-4.896 2.604-6.751-.34 1.647-.955 3.888-1.054 5.373 1.375.19 3.407-.056 4.892-.064"/>
        <path d="M287.08 151.19c-.03-.021 2.804-5.207 2.804-5.207l-3.795 4.502-.063 1.19 1.054-.485"/>
        <path d="M292.2 150.66c-1.97.513-5.042 1.185-6.902 1.891.714-2.133 1.531-5.553 2.037-7.655-.172 1.855-.574 4.386-.502 6.048 1.534.152 3.737-.21 5.367-.284"/>
        <path d="M286.53 152.39c-.03-.03 3.533-5.218 3.533-5.218l-4.518 4.217-.19 1.317 1.175-.316"/>
        <path d="M291.42 151.25c-1.937.613-4.962 1.443-6.78 2.24.611-2.146 1.265-5.57 1.67-7.673-.085 1.842-.366 4.364-.217 6.003 1.533.067 3.708-.41 5.327-.57"/>
        <path d="M285.82 153.16c-.034-.024 2.686-5.76 2.686-5.76l-3.819 4.96.017 1.325 1.116-.525"/>
        <path d="M290.68 152.04c-1.985.452-5.072 1.032-6.954 1.679.803-2.09 1.764-5.45 2.359-7.513-.251 1.83-.76 4.32-.761 5.966 1.52.193 3.73-.105 5.356-.132"/>
        <path d="M285.18 153.71c-.024-.035 4.388-4.508 4.388-4.508l-5.173 3.338-.421 1.266 1.206-.096"/>
        <path d="M289.8 152.82c-1.966.264-5.017.548-6.894 1.02.913-2.047 2.058-5.37 2.765-7.412-.358 1.837-1.008 4.321-1.11 5.996 1.473.347 3.649.263 5.239.396"/>
        <path d="M284.31 153.26c-.032-.027 2.986-5.64 2.986-5.64l-4.05 4.746-.063 1.344 1.127-.45"/>
        <path d="M290.04 152.15c-2.138.876-5.478 2.096-7.481 3.175.657-2.538 1.35-6.56 1.779-9.03-.077 2.14-.367 5.086-.187 6.97 1.697-.053 4.1-.79 5.889-1.115"/>
        <path d="M283.9 154.97c-.035-.03 3.574-6.473 3.574-6.473l-4.718 5.477-.13 1.53 1.274-.534"/>
        <path d="M289.22 152.95c-2.095.985-5.374 2.377-7.326 3.555.543-2.538 1.055-6.539 1.374-8.998.019 2.114-.14 5.032.123 6.879 1.692-.15 4.057-1.014 5.829-1.436"/>
        <path d="M283.17 155.95c-.04-.022 2.608-6.966 2.608-6.966l-3.903 6.221.099 1.509 1.196-.764"/>
        <path d="M288.3 153.53c-2.09 1.001-5.363 2.42-7.308 3.613.527-2.54 1.014-6.543 1.317-9.003.032 2.112-.107 5.03.168 6.873 1.692-.164 4.052-1.047 5.823-1.483"/>
        <path d="M282.58 156.78c-.032-.034 4.035-6.143 4.035-6.143l-5.087 5.028-.248 1.523 1.3-.408"/>
        <path d="M288.11 153.21c-1.864 1.488-4.812 3.675-6.492 5.31-.003-2.565-.347-6.518-.554-8.949.468 2.013.932 4.84 1.584 6.534 1.642-.585 3.798-2.029 5.462-2.895"/>
        <path d="M282.78 157.07c-.045-.006.467-7.361.467-7.361l-1.943 7.156.542 1.349.934-1.144"/>
        <path d="M287.58 153.89c-1.869 1.478-4.825 3.65-6.512 5.276.008-2.566-.319-6.522-.516-8.955.459 2.016.911 4.846 1.557 6.545 1.643-.576 3.804-2.009 5.471-2.866"/>
        <path d="M282.31 158.32c-.042-.018 1.88-7.193 1.88-7.193l-3.253 6.615.256 1.477 1.117-.899"/>
        <path d="M287.37 154.06c-1.766 1.74-4.578 4.322-6.14 6.191-.276-2.631-1.054-6.648-1.528-9.119.698 2.012 1.48 4.86 2.335 6.523 1.634-.788 3.707-2.516 5.333-3.595"/>
        <path d="M282.32 159.24c-.046-.007.352-7.65.352-7.65l-1.879 7.433.584 1.403.943-1.186"/>
        <path d="M286.81 155.33c-1.89 1.563-4.884 3.862-6.582 5.576-.06-2.665-.5-6.77-.768-9.294.527 2.088 1.068 5.02 1.778 6.775 1.682-.623 3.874-2.142 5.572-3.057"/>
        <path d="M281.76 160.11c-.04-.025 2.663-7.195 2.663-7.195l-3.993 6.375.104 1.58 1.226-.76"/>
        <path d="M286.78 155.36c-1.673 1.77-4.337 4.396-5.815 6.296-.264-2.667-1.004-6.739-1.455-9.242.663 2.038 1.406 4.923 2.218 6.608 1.548-.805 3.511-2.563 5.052-3.662"/>
        <path d="M281.86 160.48c-.047 0-.315-7.607-.315-7.607l-1.232 7.576.706 1.317.841-1.286"/>
        <path d="M285.96 155.93c-1.619 1.786-4.201 4.437-5.622 6.351-.343-2.668-1.201-6.737-1.725-9.24.722 2.035 1.549 4.917 2.41 6.597 1.521-.818 3.43-2.595 4.937-3.708"/>
        <path d="M281.43 161.24c-.043-.013.85-7.728.85-7.728l-2.266 7.31.451 1.5.965-1.082"/>
        <path d="M285.61 156.23c-1.48 1.933-3.856 4.822-5.129 6.865-.544-2.62-1.71-6.585-2.423-9.023.876 1.954 1.92 4.74 2.906 6.327 1.457-.962 3.227-2.915 4.646-4.169"/>
        <path d="M281.4 161.96c-.044-.002-.49-7.737-.49-7.737l-.974 7.676.701 1.352.763-1.291"/>
        <path d="M285.46 156.67c-1.39 2.025-3.63 5.058-4.806 7.182-.68-2.61-2.051-6.54-2.89-8.959.978 1.921 2.167 4.672 3.238 6.218 1.416-1.045 3.096-3.104 4.458-4.441"/>
        <path d="M281.88 162.68c-.043-.014.787-7.772.787-7.772l-2.215 7.305.467 1.53.961-1.063"/>
        <path d="M285.18 157.39c-1.197 2.206-3.15 5.533-4.127 7.808-.91-2.5-2.626-6.217-3.677-8.504 1.144 1.774 2.573 4.343 3.776 5.731 1.312-1.235 2.796-3.517 4.028-5.035"/>
        <path d="M281.61 163.32c-.043.012-2.172-7.37-2.172-7.37l.734 7.768.979 1.096.459-1.494"/>
        <path d="M285.13 158.25c-1.248 2.2-3.28 5.517-4.301 7.785-.916-2.493-2.65-6.199-3.713-8.48 1.162 1.77 2.61 4.331 3.836 5.715 1.358-1.232 2.9-3.506 4.178-5.02"/>
        <path d="M281.71 164.71c-.046 0-.797-7.75-.797-7.75l-.718 7.75.775 1.329.74-1.33"/>
        <path d="M285.26 158.93c-1.283 2.17-3.369 5.439-4.426 7.683-.875-2.515-2.549-6.26-3.574-8.566 1.133 1.796 2.54 4.391 3.742 5.804 1.377-1.2 2.956-3.437 4.258-4.921"/>
        <path d="M281.64 165.33c-.046.005-1.438-7.61-1.438-7.61l-.07 7.794.882 1.227.626-1.411"/>
        <path d="M284.71 160.03c-1.384 2.078-3.622 5.198-4.784 7.366-.753-2.572-2.245-6.429-3.159-8.802 1.046 1.872 2.326 4.562 3.459 6.056 1.431-1.103 3.113-3.229 4.484-4.62"/>
        <path d="M280.97 166.18c-.045-.012.644-7.779.644-7.779l-2.12 7.376.512 1.504.964-1.101"/>
        <path d="M284.79 160.22c-1.183 2.25-3.118 5.651-4.073 7.96-.987-2.452-2.829-6.08-3.957-8.314 1.213 1.718 2.735 4.216 4 5.547 1.321-1.288 2.796-3.626 4.03-5.193"/>
        <path d="M280.71 166.83c-.044.014-2.387-7.25-2.387-7.25l.919 7.71 1.028 1.049.44-1.509"/>
        <path d="M284.47 160.8c-.826 2.47-2.22 6.234-2.812 8.712-1.34-2.194-3.7-5.357-5.146-7.305 1.452 1.423 3.327 3.545 4.772 4.576 1.107-1.554 2.207-4.174 3.186-5.983"/>
        <path d="M282.83 167.42c-.044.016-2.585-7.15-2.585-7.15l1.13 7.668 1.056 1.007.399-1.525"/>
        <path d="M284.45 161.56c-.808 2.478-2.175 6.257-2.749 8.74-1.357-2.179-3.738-5.317-5.199-7.25 1.463 1.408 3.352 3.51 4.805 4.526 1.096-1.566 2.177-4.197 3.143-6.016"/>
        <path d="M282.85 168.64c-.042.022-3.326-6.687-3.326-6.687l1.937 7.425 1.156.835.233-1.573"/>
        <path d="M284.2 162.18c-.517 2.573-1.438 6.515-1.722 9.06-1.596-1.967-4.32-4.737-5.991-6.443 1.613 1.186 3.73 2.999 5.287 3.798.907-1.71 1.677-4.473 2.426-6.415"/>
        <path d="M283.07 169.69c-.045.009-1.793-7.498-1.793-7.498l.295 7.785.94 1.164.558-1.45"/>
        <path d="M284.21 162.98c-.273 2.63-.82 6.678-.865 9.25-1.767-1.743-4.727-4.133-6.544-5.606 1.71.962 3.98 2.482 5.6 3.068.74-1.824 1.247-4.678 1.81-6.712"/>
        <path d="M283.16 170.24c-.035.035-4.74-5.413-4.74-5.413l3.572 6.556 1.305.446-.137-1.589"/>
        <path d="M284.31 163.9c-.284 2.628-.847 6.673-.902 9.243-1.76-1.752-4.71-4.159-6.521-5.642 1.706.973 3.969 2.505 5.587 3.1.747-1.82 1.266-4.67 1.836-6.701"/>
        <path d="M283.69 171.49c-.041.024-3.641-6.525-3.641-6.525l2.287 7.324 1.195.782.159-1.58"/>
        <path d="M284.52 164.98c-.173 2.644-.566 6.72-.513 9.293-1.83-1.644-4.875-3.87-6.745-5.244 1.744.869 4.066 2.263 5.706 2.76.67-1.864 1.068-4.745 1.552-6.809"/>
        <path d="M284.15 172.69c-.037.032-4.499-5.704-4.499-5.704l3.28 6.77 1.286.528-.067-1.594"/>
        <path d="M284.57 166.2c-.157 2.646-.525 6.726-.457 9.299-1.84-1.629-4.898-3.83-6.775-5.186 1.749.853 4.079 2.227 5.721 2.71.659-1.87 1.04-4.755 1.511-6.823"/>
        <path d="M284.56 173.66c-.043.02-3.154-6.877-3.154-6.877l1.745 7.529 1.135.904.274-1.556"/>
        <path d="M284.69 166.99c.09 2.655.105 6.766.412 9.317-1.977-1.373-5.215-3.152-7.205-4.25 1.815.615 4.255 1.669 5.929 1.928.48-1.95.589-4.873.864-6.995"/>
        <path d="M285.11 173.39c-.027.043-5.762-3.945-5.762-3.945l4.885 5.383 1.357.07-.48-1.508"/>
        <path d="M284.87 167.27c.23 2.643.459 6.74.9 9.27-2.052-1.293-5.387-2.944-7.437-3.962 1.85.543 4.347 1.501 6.038 1.696.378-1.962.334-4.879.499-7.004"/>
        <path d="M285.73 174.86c-.035.034-4.8-5.518-4.8-5.518l3.635 6.625 1.314.48-.149-1.587"/>
        <path d="M285.29 168.28c.34 2.632.742 6.719 1.288 9.226-2.098-1.172-5.492-2.623-7.577-3.519 1.866.433 4.395 1.242 6.087 1.335.294-1.987.128-4.904.202-7.042"/>
        <path d="M286.69 175.79c-.027.043-5.718-4.04-5.718-4.04l4.823 5.461 1.358.094-.463-1.515"/>
        <path d="M285.47 169.4c.512 2.6 1.183 6.652 1.891 9.109-2.161-.974-5.628-2.104-7.758-2.804 1.881.256 4.447.826 6.134.759.16-2.015-.199-4.918-.267-7.064"/>
        <path d="M287.32 176.59c-.036.033-4.729-5.606-4.729-5.606l3.549 6.69 1.308.504-.128-1.588"/>
        <path d="M285.78 170.12c.75 2.53 1.793 6.486 2.724 8.845-2.228-.683-5.762-1.348-7.933-1.762 1.884.004 4.474.23 6.136-.063-.031-2.034-.659-4.886-.927-7.02"/>
        <path d="M287.57 176.6c-.01.052-6.606-1.415-6.606-1.415l6.282 3.123 1.27-.478-.946-1.23"/>
        <path d="M286.21 170.91c.74 2.533 1.768 6.495 2.69 8.859-2.226-.696-5.758-1.381-7.928-1.807 1.884.015 4.474.255 6.137-.028-.023-2.034-.639-4.889-.899-7.024"/>
        <path d="M288.65 177.3c-.02.047-6.32-3.053-6.32-3.053l5.668 4.596 1.359-.127-.707-1.416"/>
        <path d="M285.88 171.35c1.255 2.308 3.09 5.948 4.487 8.05-2.315-.177-5.9-.047-8.105.027 1.84-.411 4.413-.762 5.974-1.415-.45-1.983-1.653-4.634-2.356-6.662"/>
        <path d="M289.65 177.99c-.012.05-6.568-1.814-6.568-1.814l6.164 3.49 1.296-.395-.892-1.28"/>
        <path d="M286.56 172.33c1.269 2.3 3.126 5.926 4.535 8.018-2.316-.157-5.897.002-8.1.096 1.836-.428 4.406-.8 5.96-1.467-.462-1.98-1.68-4.623-2.395-6.647"/>
        <path d="M290.48 178.53c-.023.044-6.12-3.661-6.12-3.661l5.347 5.117 1.375.014-.602-1.47"/>
        <path d="M287.07 172.91c1.47 2.146 3.646 5.55 5.232 7.47-2.289.143-5.791.77-7.945 1.15 1.76-.668 4.249-1.378 5.712-2.25-.647-1.931-2.1-4.429-2.999-6.37"/>
        <path d="M290.93 179.07c-.002.054-6.607-.156-6.607-.156l6.537 1.932 1.162-.722-1.092-1.054m3.83-32.01c0-.02 4.753-.793 4.753-.793l-4.729.11-.825.424.801.259"/>
        <path d="M297.37 148.07c-1.38-.417-3.463-1.115-4.879-1.423 1.505-.597 3.731-1.658 5.101-2.309-1.054.66-2.587 1.508-3.404 2.17.79.536 2.222 1.082 3.182 1.562"/>
        <path d="M294.55 147.22c-.005-.02 4.599-1.263 4.599-1.263l-4.765.607-.718.493.884.163"/>
        <path d="M297.59 148.41c-1.611-.152-4.083-.46-5.673-.477 1.198-1.06 2.878-2.835 3.912-3.925-.711 1.024-1.805 2.383-2.276 3.351 1.08.434 2.815.724 4.037 1.05"/>
        <path d="M292.84 147.55c.004-.02 4.78-.54 4.78-.54l-4.658-.149-.87.383.748.306"/>
        <path d="M296.38 148.59c-1.465-.28-3.692-.768-5.174-.942 1.408-.691 3.46-1.88 4.724-2.61-.943.712-2.335 1.642-3.039 2.336.892.443 2.435.842 3.489 1.216"/>
        <path d="M292.43 147.5c-.012-.018 4.207-1.81 4.207-1.81l-4.608 1.216-.552.56.953.034"/>
        <path d="M296.24 149.12c-1.22-.504-3.088-1.357-4.294-1.712.934-.869 2.25-2.392 3.061-3.326-.564.934-1.425 2.14-1.806 3.066.81.69 2.119 1.366 3.039 1.972"/>
        <path d="M292.67 147.81c-.009-.028 3.273-1.418 3.273-1.418l-3.564.488-.439.635.73.295m-2.74 30.65c.003.052-6.783.051-6.783.051l6.868 1.68 1.127-.739-1.212-.992"/>
        <path d="M291.15 178.9c-.008.05-6.89-1.602-6.89-1.602l6.616 3.243 1.297-.417-1.023-1.224"/>
        <path d="M292.28 179.36c0 .052-6.84-.345-6.84-.345l6.84 2.062 1.172-.665-1.172-1.052"/>
        <path d="M287.94 174.53c1.78 1.961 4.445 5.086 6.312 6.815-2.297.347-5.757 1.276-7.886 1.843 1.692-.813 4.114-1.73 5.476-2.714-.918-1.825-2.728-4.131-3.902-5.944"/>
        <path d="M293.22 179.71c-.013.048-6.837-2.237-6.837-2.237l6.425 3.82 1.346-.284-.934-1.3"/>
        <path d="M288.57 174.98c1.94 1.769 4.864 4.608 6.865 6.13-2.202.635-5.474 2.001-7.488 2.837 1.562-1.031 3.825-2.258 5.048-3.423-1.086-1.737-3.09-3.851-4.425-5.544"/>
        <path d="M293.78 180.13c.01.053-6.487 1.276-6.487 1.276l6.836.466.965-.953-1.314-.789"/>
        <path d="M292.43 179.72c.007.052-6.767.52-6.767.52l6.982 1.199 1.07-.814-1.285-.905"/>
        <path d="M293.68 180.08c-.005.05-6.997-1.122-6.997-1.122l6.847 2.776 1.263-.505-1.113-1.149z"/>
        <path d="M294.84 180.46c.004.052-6.853.128-6.853.128l6.982 1.583 1.12-.743-1.249-.968z"/>
        <path d="M290.14 175.94c1.923 1.832 4.819 4.763 6.812 6.357-2.267.505-5.65 1.67-7.732 2.38 1.627-.926 3.975-2.007 5.26-3.082-1.052-1.756-3.032-3.93-4.34-5.655z"/>
        <path d="M295.81 180.74c-.009.049-6.992-1.758-6.992-1.758l6.7 3.364 1.321-.376-1.029-1.23z"/>
        <path d="M290.81 176.34c2.068 1.63 5.201 4.257 7.312 5.637-2.15.784-5.314 2.371-7.26 3.343 1.481-1.135 3.647-2.514 4.78-3.76-1.213-1.656-3.373-3.625-4.832-5.22z"/>
        <path d="M296.4 181.12c.015.052-6.38 1.72-6.38 1.72l6.859-.008.891-1.016-1.37-.696z"/>
    </g>
    <path d="m305.21 171.52-5.211-3.602-5.212 3.602 1.955-5.762-4.56-3.602h5.862l1.955-5.762 1.954 5.762h5.862l-4.56 3.602 1.955 5.762z" fill="#fedf00" stroke="#000" stroke-width=".299"/>
</svg>
