<svg xmlns="http://www.w3.org/2000/svg" viewBox="0 0 750 500">
    <path fill="#006c35" d="M0 0h750v500H0z"/>
    <path fill-rule="evenodd" d="M323.28 118.09c-.388-.011-.968.205-1.781.688-1.829 1.225-5.452 5-5.563 9.343-.11 2.45-.573 2.441 1.031 4 1.16 1.671 2.317 1.507 4.657.282 1.343-.99 1.797-1.622 2.25-3.282.557-2.784-2.93 1.318-3.375-1.78-.78-2.877 1.446-4.06 3.562-6.845.049-1.31.072-2.38-.781-2.406zm34.062.188c-.653.087-1.453.925-2.563 2.937-.795 2.108-4.225 5.297-1.75 11.875 2.025 4.17 2.857 10.949 1.938 18.5-1.403 2.146-1.723 2.885-3.563 5.031-2.584 2.78-5.383 2.069-7.53 1.031-2.008-1.352-3.585-2.046-4.5-6.343.165-6.85.564-18.06-.688-20.438-1.846-3.684-4.888-2.363-6.188-1.25-6.247 5.712-9.333 15.357-11.219 23.03-1.732 5.594-3.579 3.976-4.875 1.72-3.156-2.958-3.377-26.084-7.187-22.282-6.102 17.44 3.502 36.545 10.156 34.688 4.8 1.988 7.847-7.15 9.812-17.156 1.345-2.808 2.372-3.13 3.063-1.687-.178 13.306.954 16.274 4.375 20.312 7.63 5.887 13.943.746 14.438.25l5.937-5.938c1.323-1.39 3.07-1.475 4.938-.25 1.815 1.65 1.582 4.493 5.469 6.47 3.27 1.308 10.255.317 11.875-2.5 2.18-3.737 2.708-5.021 3.718-6.438 1.557-2.072 4.22-1.154 4.22-.5-.249 1.155-1.813 2.294-.75 4.375 1.85 1.388 2.28.496 3.374.187 3.872-1.85 6.781-10.25 6.781-10.25.172-3.132-1.61-2.895-2.75-2.25-1.485.908-1.576 1.217-3.062 2.125-1.893.281-5.56 1.53-7.375-1.281-1.854-3.38-1.864-8.091-3.281-11.5 0-.248-2.477-5.36-.188-5.687 1.155.214 3.64.856 4.031-1.22 1.212-2.022-2.614-7.76-5.218-10.655-2.261-2.482-5.383-2.784-8.407-.25-2.117 1.948-1.803 4.124-2.218 6.187-.54 2.37-.437 5.305 1.968 8.438 2.114 4.168 5.954 9.515 4.688 17.062 0 0-2.231 3.591-6.156 3.125-1.636-.357-4.302-1.065-5.72-11.531-1.072-7.923.27-19.022-3.093-24.22-.759-1.96-1.41-3.865-2.5-3.718zm-10.78.84c-1.017.088-2.144 1.273-3.063 3.562-.788 1.74-1.75 10.844-1.593 10.844-.63 2.71 2.83 3.857 4.406.375 2.362-6.384 2.373-9.104 2.531-11.812-.368-2.063-1.264-3.058-2.281-2.969zm39.812.718c-1.045.095-1.877.707-2.188 2.25-.416 3.63-.203 5.603.407 8.625.467 2.015 3.4 5.389 4.844 7.344 6.896 9.27 13.53 18.583 19.938 28.219a294.127 294.127 0 0 1 2.218 21.125c1.039 15.284 1.354 34.31.407 50.406 2.863.113 7.451-4.624 9.062-11.562 1.047-9.598-.373-29.18-.469-34.844-.067-2.351-.212-5.157-.375-8.094A526.562 526.562 0 0 1 442 222.555c2.588-1.23 2.014-15.798.5-17.844-5.68-12.227-13.529-24.296-16.03-28.938-.904-1.676-3.98-6.354-7.626-11.75-.67-7.698-1.4-14.219-1.875-16.188-1.172-8.138 3.345.918 2.72-3.812-1.466-8.127-5.952-13.65-11.25-21.094-1.71-2.421-1.676-2.915-4.313.594-1.577 3.576-1.556 6.552-1.094 9.343a49.551 49.551 0 0 0-2.781-3.687c-4.576-3.926-4.859-4.14-8.657-7.344-1.197-.85-3.477-2.158-5.218-2zm118 1.22c-.509-.08-1.063.17-1.688 1.093-1.193 1.046-2.476 2.94-2.437 5.375.29 4.289 1.054 8.68 1.344 12.969.102.574.21 1.145.312 1.719a16.723 16.723 0 0 0-1.093-1.282c-8.36-8.782 3.84-1.435-1.594-8.218-4.596-5.047-5.941-6.653-9.875-9.688-1.973-1.275-3.165-3.711-3.813.438-.258 3.644-.526 7.865-.281 10.938-.014 1.707 1.754 4.921 3.281 6.812a731.007 731.007 0 0 1 17 21.75c1.205 15.516 1.527 29.74 2.75 45.281-.173 6.647-2.218 15.476-4.156 16.312 0 0-2.96 1.7-4.938-.187-1.438-.578-7.187-9.594-7.187-9.594-2.943-2.698-4.906-1.927-7 0-5.776 5.577-8.388 16.023-12.312 23.219-1.012 1.605-3.862 2.972-7.031-.125-8.049-10.996-3.342-26.648-4.344-22.625-7.169 8.078-3.994 21.465-2.375 24.344 2.364 4.728 4.276 7.755 8.875 10.094 4.189 3.083 7.45 1.159 9.25-1 4.215-4.369 4.271-15.54 6.25-17.75 1.388-4.06 4.866-3.362 6.562-1.563 1.644 2.364 3.585 3.902 6 5.188 3.932 3.468 8.625 4.098 13.25.937 3.161-1.773 5.212-4.077 7.063-8.625 1.986-5.31 1.004-33.142.562-48.625a628.708 628.708 0 0 1 8.813 12.781c1.278 13.591 1.858 26.976 1.437 39.812-.3 2.552 8.907-7.62 8.844-12.438-.041-4.215.008-8.036 0-11.594 4.466 7.13 8.79 14.38 12.875 21.72 2.532-1.342 1.664-15.679.063-17.657-4.278-7.178-9.757-14.936-14-20.938-.839-7.575-1.98-16.512-2.5-19.25-.81-4.27-1.62-10.683-2.844-15.75-.336-1.978-1.349-8.298-1.031-8.906.499-1.414 2.384.045 3.312-1.594 1.39-1.515-4.818-17.598-7.969-22.188-1.132-2.057-3.181-1.345-5.718 2-2.353 2.202-1.492 7.224-.594 12 2.333 12.174 4.415 24.572 6.062 36.938a1389.254 1389.254 0 0 0-10.438-15.312c-.098-.51-.468-2.38-.468-2.406 0-.219-.505-9.959-.938-12.28-.075-.943-.3-1.215.688-1.095 1.047.881 1.19.929 1.843 1.22 1.058.193 1.982-1.595 1.344-3.25-3.27-6.033-6.542-12.093-9.812-18.126-.394-.387-.835-.796-1.344-.875zm-304.53.312c-1.812-.052-3.812 1.071-3.031 3.25-.455 1.187 3.547 5.2 4.25 7.406.63 1.57-.625 6.627.687 7.094 1.207.523 2.868-3.501 3.5-7.22.35-2.036.085-9.007-4.656-10.437a3.886 3.886 0 0 0-.75-.094zm346.91.04c-.413.04-.916.708-1.687 2.343-1.855 3.038-2.493 8.478-1.75 13.281 4.465 30.203 7.783 59.45 8.468 86.22-.384 2.54-.496 3.892-1.687 7.093-2.636 3.379-5.543 7.614-8.281 9.656-2.738 2.041-8.564 3.987-10.47 5.5-6.043 3.494-6.073 7.511-1.187 7.657 8.421-.978 18.386-1.669 25.25-12.031 1.837-2.904 4-10.776 4.094-15.594.642-28.247-.362-55.866-4.594-76.281-.271-1.99-1.15-6.56-.812-7.157.545-1.398 3.3.14 4.28-1.468 1.44-1.47-7.125-12.436-10.124-17.125-.6-1.178-.969-2.147-1.5-2.094zm-88.312.468c-.348.06-.861.59-1.812 1.844-2.353 7.692-3.18 13.973-2.282 18.75 6.043 31.534 12.234 60.263 11.25 90.281 2.866.02 6.179-6.555 7.594-13.062.775-8.963-.517-14.419-.75-19.688-.232-5.268-5.964-48.014-7.125-52-1.4-7.537 5.574-.991 4.813-5.375-2.411-5.526-8.43-13.574-10.312-18.375-.708-1.286-.796-2.475-1.375-2.375zm-215.03.594c-.743.129-1.46.74-1.719 1.75-.163.661.286 1.761-.312 2.094-.344.347-1.648.114-1.594-1.719 0-.584-.429-1.193-.688-1.562-.26-.17-.435-.22-.906-.22-.573.024-.56.175-.875.657-.14.49-.32.97-.32 1.53-.071.652-.333.873-.812.969-.537 0-.41.058-.844-.219-.258-.282-.563-.393-.563-.875 0-.499-.13-1.295-.28-1.625-.229-.3-.589-.457-1-.562-2.248.008-2.411 2.59-2.282 3.562-.168.183-.252 4.76 2.812 6.031 4.114 1.962 11.827 1.132 11.5-5.5 0-.586-.129-2.556-.187-3.094-.42-.977-1.195-1.347-1.938-1.218zm55.188.063a9.19 9.19 0 0 0-3.75 1.03c-2.726 2.611-3.366 6.796-1.219 9.407 2.09.987 4.174 3.09 2.781 4.25-5.908 6.311-21.287 16.857-22.062 18.781-.006.016-.027.048-.03.062-.003.014 0 .05 0 .063 0 .006-.002.026 0 .031a.29.29 0 0 0 .03.063c.004.004.027.027.032.03.005.004.025-.002.03 0 .007.004.025.03.032.032.007.002.023-.002.031 0l.031.031c.782.524 10.404.512 11.47.031.007-.004.024-.027.03-.03.004-.003.03.001.032 0 .002-.003-.002-.03 0-.032 3.307-1.219 19-19.156 19-19.156-.814-.696-1.563-1.21-2.375-1.906-.871-.754-.783-1.495 0-2.25 3.886-2.262 2.655-7.238.625-9.5-1.683-.755-3.266-1.01-4.688-.938zm144.25.062c-.413.041-.916.677-1.687 2.313-1.855 3.037-3.115 8.328-2.97 13.28 4.018 27.815 5.25 52.155 7.876 79.97.213 2.69-.181 6.598-1.97 8.156-6.613 6.906-16.15 15.424-26.53 19.344-1.117 1.254 2.777 6.599 7.812 6.594 8.422-.978 15.823-5.705 22.688-18.156 1.836-2.904 5.062-9.12 5.157-13.938.642-28.247-1.424-50.21-5.657-70.625-.27-1.989-.086-4.341.25-4.938.546-.651 2.395.015 3.375-1.594 1.44-1.47-3.844-13.655-6.843-18.344-.6-1.177-.97-2.115-1.5-2.062zm-223.47.85c-1.162.136-2.256 1.082-2.781 2.344-.195 4.461-.22 8.92.281 13.03 2.03 7.212 2.672 13.554 3.656 20.939.273 9.89-5.711 4.278-5.437-.625 1.382-6.37 1.009-16.396-.219-18.938-.974-2.541-2.101-3.168-4.469-2.75-1.88-.115-6.736 5.176-8.094 13.938 0 0-1.13 4.496-1.625 8.5-.664 4.524-3.661 7.729-5.75-.625-1.805-6.072-2.914-21.032-5.937-17.531-.866 11.68-1.894 32.235 8.031 34.344 12.005 1.154 5.374-20.294 9.719-24.188.821-1.924 2.344-1.959 2.469.469v18.219c-.11 5.922 3.787 7.682 6.812 8.906 3.148-.243 5.235-.157 6.469 2.906.492 10.502 1.008 21.03 1.5 31.531 0 0 7.277 2.091 7.625-17.719.349-11.632-2.316-21.393-.75-23.656.055-2.223 2.906-2.333 4.875-1.25 3.138 2.213 4.53 4.937 9.406 3.844 7.42-2.044 11.89-5.646 12-11.344-.433-5.415-1.06-10.835-3.406-16.25.328-.985-1.42-3.547-1.094-4.531 1.334 2.088 3.351 1.915 3.813 0-1.263-4.162-3.23-8.15-6.406-9.875-2.626-2.314-6.468-1.824-7.875 3-.653 5.558 2.014 12.147 6.062 17.53.86 2.104 2.062 5.603 1.531 8.75-2.154 1.23-4.29.718-6.094-1.187 0 0-5.906-4.421-5.906-5.406 1.568-10.035.338-11.184-.531-13.97-.607-3.843-2.429-5.06-3.906-7.687-1.478-1.566-3.482-1.566-4.438 0-2.61 4.526-1.386 14.242.5 18.594 1.363 4.003 3.453 6.5 2.47 6.5-.811 2.262-2.501 1.736-3.72-.875-1.74-5.395-2.094-13.437-2.094-17.062-.522-4.494-1.104-14.095-4.062-16.53-.79-1.076-1.721-1.45-2.625-1.344zm42.156.063c-.596.075-1.254.414-2.031.593-2.552.813-4.942 3.019-4.188 7.313 3.017 18.332 4.984 32.323 8 50.656.464 2.147-1.336 4.977-3.656 4.687-3.945-2.669-4.924-8.074-11.656-7.843-4.873.058-10.43 5.361-11.125 10.469-.812 4.059-1.102 8.46 0 12 3.425 4.118 7.528 3.679 11.125 2.75 2.958-1.218 5.392-4.133 6.438-3.438.003.003.028-.004.03 0 .004.004-.002.027 0 .031.646 1.128-.06 10.663-13.937 18.031-8.528 3.83-15.316 4.744-18.97-2.219-2.262-4.35.165-20.924-5.405-17.094-16.475 42.467 38.598 48.395 44.75 1.75.398-1.315 1.612-2.636 2.468-2.312.376.16.72.67.844 1.625-1.277 42.235-42.606 45.13-49.625 31.844-1.74-3.132-2.263-10.103-2.437-14.281-.319-2.528-.953-3.985-1.688-4.563-1.674-1.258-3.925 2.023-4.406 7.72-.697 4.582-.5 5.84-.5 10.25 2.204 33.358 55.388 19.025 64.031-8.532 4.279-14.246-.087-24.993 1.344-26.312.012-.01.05-.022.062-.031l.063-.031c.015-.006.046-.027.062-.032a.894.894 0 0 1 .188-.03c5.28 5.686 12.688.722 14.312-1.25.696-.988 2.438-1.62 3.656-.345 4.118 2.96 11.337 1.565 12.844-3.656.87-5.105 1.607-10.36 1.781-15.812-2.683.833-4.847 1.457-5.719 2.375-.207.227-.36.478-.406.75-.233 1.51-.455 3.023-.687 4.531-.025.125-.065.24-.125.344a1.455 1.455 0 0 1-.5.469c-.949.518-2.603.222-2.688-1.156-1.276-5.802-6.527-6.557-9.719 2.437-2.147 1.74-6.061 2.08-6.468-.531.522-6.034-1.91-6.843-6.782-4-1.566-11.951-3.12-23.361-4.687-35.312 2.03-.059 3.893 1.414 5.75-.906-2.01-6.249-6.26-18.963-8.656-20.156-.02-.01-.044-.024-.063-.031a3.182 3.182 0 0 0-.5-.47c-.044-.03-.112-.068-.156-.093a1.73 1.73 0 0 0-.313-.125 1.614 1.614 0 0 0-.656-.062zm164.34.093c-2.108-.062-4.44 1.266-3.531 3.906-.53 1.44 4.528 6.326 5.344 9 1.467 4.109-1.121 8.028.406 8.594 1.405.634 3.36-4.241 4.094-8.75.847-3.644-1.753-11.114-5.438-12.656a4.367 4.367 0 0 0-.875-.093zm-128.03 4.5c.96-.098 2.12.784 2.688 2.031.605 1.33.301 2.602-.688 2.844-.99.243-2.27-.638-2.875-1.969-.606-1.33-.302-2.632.688-2.875.061-.015.123-.024.187-.03zm237.5 6.156c-1.921-.067-4.016 1.392-3.187 4.25-.482 1.56 4.1 6.856 4.843 9.75.669 2.06-1.017 8.7.375 9.313 1.281.686 3.082-4.587 3.75-9.469.371-2.672-1.609-12.049-4.968-13.719a3.524 3.524 0 0 0-.813-.125zm-131.31 3.25c.176.784.351 1.573.469 2.375.394 1.732.733 3.452 1.094 5.157-1.517-2.089-2.773-3.777-3.313-4.375-3.432-4.08.077-2.679 1.75-3.157zm30.25 14.875c-.743.13-1.46.772-1.719 1.782-.163.66.318 1.73-.281 2.062-.344.347-1.68.145-1.625-1.687 0-.584-.429-1.224-.688-1.594-.26-.17-.435-.219-.906-.219-.573.023-.56.175-.875.656-.133.491-.312.975-.312 1.532-.072.652-.302.873-.782.968-.536 0-.44.059-.875-.218-.258-.283-.562-.394-.562-.875 0-.5-.131-1.296-.281-1.625-.228-.3-.588-.426-1-.532-2.247.008-2.38 2.559-2.25 3.532-.169.183-.283 4.79 2.78 6.062 4.114 1.961 11.859 1.101 11.532-5.531 0-.587-.16-2.557-.219-3.094-.42-.978-1.195-1.347-1.937-1.219zm-138.12 1.375c-.507-.051-1.172.135-1.937.594-3.638 1.968-5.047 7.804-2.782 11.22 2.116 3.007 5.461 1.905 5.907 1.905 3.564.446 5.687-6.687 5.687-6.687s.107-2.006-4.125 1.781c-1.781.334-2.023-.31-2.469-1.312-.37-1.856-.291-3.737.563-5.594.394-1.113.002-1.82-.844-1.906zm195.25.907c-2.02-.098-4.169 1.21-4.719 3.969.008 1.627.735 2.522.594 4-.21.844-1.08 1.4-3.156.406.324-.299-1.344-2.656-1.344-2.656-1.619-.986-3.78.053-5.188.968-.774 1.407-1.346 3.82-.468 6.281 2.323 4.293 10.293 11.618 14.094 11.688.07-3.87.446-9.017.656-12.219.09-1.208.373-2.54 1.531-2.843 1.157-.303 3.165 1.164 3.188-.094-.211-2.462-.703-6.096-2.094-7.813-.713-1.055-1.882-1.628-3.094-1.687zm-161.62 13.469c-.054.02-.107.065-.156.093-.024.015-.07.045-.094.063-.402.302-.877.999-1.937 1.75-1.79 2.035-2.11 3.452-2 7.531.101.432 3.396 9.592 6.187 16.031 1.882 6.693 3.623 14.356 2.344 21.594-4.406 9.569-13.263 18.15-21.812 22.812-4.356 1.395-8.118.92-9.125-.031l-.031-.031c-2.502-1.682-2.56-4.676-2.407-5.188v-.031l.032-.031c7.213-5.025 15.454-9.092 21.906-22.656 1.905-5.184 2.486-8.297.593-16.312-.738-2.987-1.649-5.445-3.687-7.563l.031-.03c1.228-.588 4.414 1.759 4.906.28-.754-3.827-3.346-8.965-6.28-11.594-2.571-2.334-5.367-2.604-7.72-.468-2.65 1.474-3.213 6.77-1.937 11.406 1.417 3.49 5.243 4.101 7.969 11.125v.03c.056.441.935 5.243-.438 7.188-1.114 3.474-15.424 14.76-16.438 15.438-.011.011-.083.052-.094.063l-.03.031c-.004.002-.025.024-.032.031l-.031.031h-.063a.706.706 0 0 1-.03-.03v-.032c-.007-.01-.026-.051-.032-.063-.043-.281.033-.999 0-2.156-.094-2.114.781-6.898.719-7.719v-.03l-.031-.032v-.031h-.032c-4.73 3.054-6.292 12.416-7.156 15.188-11.975 8.274-25.574 14.43-33.406 22.812-4.079 6.37 28.104-7.315 31.844-8.969.032.024.064.063.094.094.71.782.771 3.51 2.906 5.969 3.345 4.531 10.456 7.322 17.375 5.593 11.603-4.194 18.288-12.102 25.094-20.875.973-1.415 2.497-2.53 3.906-1.437 4.677 10.47 18.161 17.92 35.594 18.688 4.034-4.906 2.105-7.318.469-8.344-.504-.335-8.67-3.518-9.938-6.687-.798-2.95 1.143-5.565 5.032-7.532 11.193-1.353 22.196-2.857 32.844-6.28.108-3.578 2.215-8.928 3.625-11.25.979-1.613 1.608-1.772 1.843-2l.032-.032c.003-.004.028-.027.03-.031.007-.005.027-.026.032-.031v-.063c.006-.07 0-.193-.031-.312l-1.813-1.063-35.719-.156c-.44-.17-.769-.34-.968-.5-.016-.013-.05-.05-.063-.063l-.031-.03-.031-.032c-.005-.011-.027-.052-.031-.063l-.032-.03v-.032l-.03-.031v-.249c.005-.007.025-.026.03-.032.008-.016.02-.046.032-.062.174-.235.597-.457 1.125-.657 8.529-1.162 23.682-3.646 24.688-18.219-.158-7.59-3.249-12.56-12.562-13.938-6.844.53-11.725 7.15-10.938 14.438-.328 1.963.664 5.814-1.344 6.25-13.128 1.2-27.457 9.425-27.938 15.312h-.031l-.032.031-.062.032h-.063a1.44 1.44 0 0 1-.093.03h-.094a1.513 1.513 0 0 1-.094 0c-.034-.006-.095-.023-.125-.03-.854-.237-1.954-1.647-1.781-3.625-.5-10.177-3.812-21.693-9-30.562-1.851-1.851-2.658-2.601-3.187-2.688-.018-.002-.046.001-.063 0h-.187zm34.188 5.375c-.743.128-1.46.74-1.719 1.75-.163.66.318 1.76-.281 2.093-.344.347-1.68.145-1.625-1.687 0-.584-.429-1.224-.688-1.594-.26-.17-.404-.219-.875-.219-.573.024-.591.175-.906.657-.133.49-.312.975-.312 1.53-.072.653-.302.874-.782.97-.536 0-.409.058-.843-.22-.258-.281-.594-.392-.594-.874 0-.499-.1-1.295-.25-1.625-.228-.3-.62-.426-1.031-.531-2.247.008-2.38 2.558-2.25 3.53-.169.184-.283 4.791 2.781 6.063 4.113 1.962 13.916.807 11.531-5.53 0-.587-.16-2.557-.219-3.095-.42-.977-1.195-1.347-1.937-1.218zm137.97 5.656a.679.679 0 0 0-.344.031s-19.059 13.56-19.53 14.031c-1.89 1.68-.945 7.589 0 6.906 1.365.525 20.553-12.478 20.187-14 .837.05 1.239-6.689-.312-6.968zm-119.96 2.01c.778-.083 1.798.181 2.781.75 1.423.823 2.3 2.066 2.188 2.969-.004.024.005.07 0 .093-.006.024-.056.07-.063.094-.008.023-.022.071-.031.094-.006.015-.024.048-.031.062l-.031.063a1.25 1.25 0 0 1-.188.219c-.684.638-2.262.547-3.75-.313-1.41-.815-2.28-2.068-2.187-2.969.003-.024.026-.07.03-.093.024-.112.069-.214.126-.313.02-.035.038-.093.062-.125l.032-.031a1.43 1.43 0 0 1 .156-.156 1.78 1.78 0 0 1 .906-.344zm-166.91 3.437c-9.876.18-24.338 12.945-24.719 20.031 10.421-5.004 20.657-9.82 31.25-15-1.71-2.552-.104-4.851-6.531-5.03zm32 4.438c.968.01 1.99.489 2.531 1.844.488 1.242.023 2.542-.562 3.187-.003.005.003.026 0 .031-.01.015-.022.05-.031.063-.415.534-1.87.312-2.907.312-1.254-.055-1.872-.26-2.625-1.28-.36-1.135.736-2.249 1.22-3.095.004-.008.025-.023.03-.03.053-.08.138-.174.22-.25.374-.344 1.023-.665 1.718-.75.135-.017.268-.034.406-.032zm251.16 3.93c-1.756.216-3.425 1.877-2.656 4.531-.482 1.56 2.382 7.012 3.125 9.906.668 2.06-.86 7.888.531 8.5 1.281.687 4.65-3.459 4.531-8.656.371-2.672-.953-12.517-4.312-14.188a3.164 3.164 0 0 0-1.219-.094zm-213.31 9.625c-1.552.108-2.937.938-2.312 3.125-.094 1.586 4.385 3.515 4.656 7.187.64 1.514-.958 6.362.375 6.813 1.223.504 2.921-3.351 3.562-6.938.355-1.964-1.536-8.835-4.75-10.062a5.5 5.5 0 0 0-1.531-.125zm63.844 8.719c.118-.008.222 0 .344 0h.062c3.98 1.081 9.846 1.193 14.938 1.718 4.148.264 6.197 3.51 2.313 4.875-3.832 1.313-7.514 2.338-7.531 7.875.503 2.744.397 4.183-.032 4.844-.033.05-.087.116-.125.157l-.03.03-.032.032-.031.031-.031.031-.063.032a1.102 1.102 0 0 1-.187.093c-.054.018-.131.022-.188.031-.91.134-2.234-.735-3.219-1.25-2.362-1.696-8.993-5.805-9.937-14.625-.135-1.99 1.355-3.706 3.75-3.875zm-155.94 6.78c-.249.009-.746.752-1.406 1.595-5.875 9.36-6.398 23.33-3.156 27.5 1.722 1.97 4.562 2.835 6.656 2.218 3.69-1.6 5.313-9.077 4.437-11.812-1.231-1.928-2.207-2.233-3.437-.593-2.598 5.273-3.679 1.666-3.906-1.281-.399-5.59.143-10.736.75-14.812.323-2.09.31-2.82.062-2.813zm200.16 12.29a2.695 2.695 0 0 0-1.375.282c-.093 0-4.206 2.782-5.531 4.719-.809.615-.717 1.15-.469 2.219.63 1.448 1.74.994 3 .312 1.672-.228 2.48.867 2.344 2.875-.772 2.504.344 3.437.344 3.594 0 .157 1.61 1.54 3.5.438 3.989-1.523 6.475-3.005 12.062-4.22 1.466-.028 1.381-3.953-.938-4.093-3.026.152-5.818.307-8.844 2.687-1.861.43-2.18-.702-2.593-1.718-.473-2.521 1.064-4.298.75-6.188.083.083-.94-.836-2.25-.906zm128.16 4.782c-.742.023-1.524.126-2.656.219-1.225.26-1.652.796-1.875 2.281.088 2.252 1.465 2.14 2.875 3.031.816 1.04 1.347 1.98-.063 3.688-1.336 1.224-2.288 1.9-3.625 3.125-.63 1.076-1.024 2.73.907 3.25 3.564 1.002 11.812-4.357 11.812-4.469 1.336-1.002.893-2.906.78-2.906-.778-.891-2.537-.356-3.718-.5-.562 0-2.41-.274-1.531-1.906.733-1.016 1.003-1.624 1.5-2.875.556-1.225.067-2.05-1.938-2.72-1.02-.185-1.726-.241-2.468-.218zm-53.54 108.4c-.008.004-.023.026-.031.031-5.928 1.521-5.744 7.675-1.938 10.375-62.594 0-158.65-1.062-179.25-1.062-11.525 0-47.987-1.375-48.688-1.375 7.82 11.437 19.147 13.766 33.97 14 27.801 0 156.62-.344 193.28-.344-2.607 4.628.236 12.074 2.28 13.438.044.028.114.072.157.094.076.038.177.075.25.093.024.006.07-.003.093 0 2.428.573 3.496-1.184 4.313-2.468 3.937.347 26.097.667 28.125-.032.007-.003.024-.028.031-.03 1.372 2.018 2.733 3.926 5.344 3.593 4.569-.98 8.167-1.477 8.281-10.75 0 0-.467-15.802-10.844-14.812-2.455.371-9.344 1.063-9.344 1.063-7.971-.949-13.819-1.046-22.78-1.375.827-1.05 2.287-5.304.5-6.844-.467-.388-1.162-.604-2.126-.531h-.03c-.014-.001-.05.002-.063 0-.007-.002-.025-.03-.032-.032-.025-.009-.069-.016-.093-.03a.946.946 0 0 1-.157-.157c-.01-.014-.051-.048-.062-.063-.453-.66-.7-2.277-1-2.687l-.031-.031-.031-.032a.506.506 0 0 0-.063-.03h-.031c-.004 0-.028-.002-.031 0zm4.25 22.594c.01-.005.02.005.031 0 9.132.446 17.712.086 26.844.531 1.448 1.23.724 4.049-.219 4.563a1.032 1.032 0 0 1-.156.062c-.034.008-.09 0-.125 0-.034 0-.09.008-.125 0-2.97-.074-4.687-.144-7.656-.218a1.716 1.716 0 0 0-.063-.438c-.703-2.085-5.8-1.946-7-.312l-.062.093c-.02.033-.046.092-.063.125a1.894 1.894 0 0 0-.062.157c-.019.061-.023.153-.031.218-.008.075-.038.171-.031.25-4.009.482-7.617-.133-11.625-.28-1.177-1.465-1.04-4.114.343-4.75z" fill="#fff"/>
</svg>
