<svg xmlns="http://www.w3.org/2000/svg" viewBox="0 0 675 450">
    <path d="m0 0 298.571 225.241H675V0z" fill="#dc171d"/>
    <path d="m0 0 299.005 225.746L0 450z" fill="#fff" stroke="#fff"/>
    <path d="m0 450 298.571-224.759H675V450z" fill="#012a87"/>
    <path d="m150.828 170.286.092-3.484s-1.871-2.98.3-6.18c0 0-4.612-2.44-3.538-6.262 0 0-4.17-1.066-3.864-5.654 0 0-4.502-.312-4.968-4.144 0 0-4.502.741-6.483-2.993 0 0-4.392.858-5.63-2.22 0 0-4.269 1.479-6.802-2.14 0 0-4.508 1.822-6.397-1.594-1.865 3.404-6.372 1.594-6.372 1.594-2.503 3.606-6.802 2.11-6.802 2.11-1.196 3.09-5.575 2.214-5.575 2.214-1.975 3.735-6.47 2.993-6.47 2.993-.442 3.82-4.937 4.133-4.937 4.133.355 4.6-3.809 5.642-3.809 5.642 1.098 3.82-3.508 6.254-3.508 6.254 2.227 3.22.374 6.176.374 6.176l-.104 3.212 74.506.345" fill="#ff0"/>
    <path d="m377.175 843.108.091-3.458s-1.857-2.958.298-6.136c0 0-4.578-2.422-3.512-6.215 0 0-4.139-1.059-3.835-5.613 0 0-4.468-.31-4.931-4.114 0 0-4.468.736-6.434-2.971 0 0-4.359.852-5.588-2.204 0 0-4.237 1.468-6.751-2.124 0 0-4.474 1.808-6.349-1.583-1.851 3.379-6.325 1.583-6.325 1.583-2.484 3.579-6.751 2.094-6.751 2.094-1.187 3.068-5.533 2.198-5.533 2.198-1.96 3.708-6.422 2.971-6.422 2.971-.438 3.793-4.9 4.103-4.9 4.103.353 4.566-3.78 5.601-3.78 5.601 1.09 3.792-3.482 6.208-3.482 6.208 2.21 3.196.371 6.131.371 6.131l-.103 3.189 73.949.342h-.012z" fill="#f9d90f" stroke-width=".271" stroke="#000" transform="matrix(1.00754 0 0 1.00735 -229.19 -679.021)"/>
    <path d="M149.086 165.937c-11.702-1.172-25.177-3.949-35.579 1.908-6.973-4.11-16.683-3.858-24.95-3.053-4.49.802-9.77.802-14.462 1.57l-.735.103c-8.513.565-16.235-1.95-23.632-5.256 2.349 13.332 4.956 26.994 6.238 40.951 2.79 20.671-9.783 38.026-4.625 58.446 3.08 9.798 13.855 15.495 23.717 16.624 9.55.563 19.43 2.128 28.269 4.047 1.68.35 3.673 1.129 4.833 1.63 2.435 1.02 4.22 2.515 5.783 4.116 5.336-5.557 13.156-7.102 20.871-7.917 13.904-1.625 31.047-.741 39.56-13.336v-.713c4.624-6.965 4.01-17.592 2.005-25.485-.135-2.753-.87-5.181-1.27-7.806-8.494-22.431-1.22-47.658 2.436-70.268-4.465 2.44-9.446 3.593-14.413 4.814-3.961.528-8.377.288-12.388.072l-1.663-.447m17.485 64.376" fill="#dc171d"/>
    <path d="M166.566 230.313c-.056 1.477.742 2.637 1.03 4.003 1.626 9.806 3.197 22.793-6.899 28.877-11.169 7.1-25.815 4.06-38.738 7.818-2.582.717-6.139 3.091-7.954 4.77-1.166-.766-2.337-1.944-3.84-2.636-10.634-5.654-24.459-3.759-36.462-6.813-6.029-1.907-12.315-6.603-13.842-12.774-3.926-16.188 5.477-29.985 4.366-46.045-.717-12.264-2.778-24.037-5.612-35.535 9.385 4.372 20.246 5.101 30.796 3.005 7.813-1.092 16.91-1.116 24.232 2.189 4.035-1.736 8.759-2.514 13.107-2.993 8.268.804 17.154 2.3 25.668 2.238 5.686-.295 10.85-1.938 15.793-4.127-2.932 19.004-8.562 38.91-1.65 58.023" fill="#62afe1"/>
    <path d="m149.687 234.101-.092-17.869h2.201L124.48 198.59l-.05-9.168h2.638l-13.659-9.78-13.591 9.774h2.63l.05 9.161-27.17 17.619 2.17.012.092 17.857 72.09.05" fill="#fff"/>
    <path d="m376.042 906.458-.091-17.739h2.185l-27.113-17.513-.049-9.101h2.618l-13.557-9.709-13.49 9.703h2.611l.049 9.094-26.967 17.49 2.155.012.091 17.727 71.551.049.006-.013z" fill="none" stroke-width="1.164" stroke="#000" transform="matrix(1.00754 0 0 1.00735 -229.19 -679.021)"/>
    <path d="m158.083 257.576.006 5.592-88.005-.098-.036-5.568 88.043.075" fill="#fff"/>
    <path d="m384.376 929.761.006 5.551-87.347-.097-.036-5.527 87.384.074h-.006z" fill="none" stroke-width="1.164" stroke="#000" transform="matrix(1.00754 0 0 1.00735 -229.19 -679.021)"/>
    <path d="m75.929 257.238-.074-18.924 3.564-.007-.196 19.145.214-18.99-5.133-.148v-4.06l78.652.087.037 4.023h-4.85l.09 19.162-.17-19.162h3.612l.08 18.947" fill="#fff"/>
    <path d="m302.836 929.426-.073-18.786 3.537-.007-.195 19.005.213-18.852-5.095-.146v-4.03l78.064.086.037 3.993h-4.815l.091 19.023-.17-19.023h3.585l.079 18.809m-58.475-4.698-.055-13.1h-10.482l.061 13.087 10.476.013m0 0-.055-13.1h-10.482l.061 13.087 10.476.013m0 0-.055-13.1h-10.482l.061 13.087 10.476.013m0 0-.055-13.1h-10.482l.061 13.087 10.476.013m0 0-.055-13.1h-10.482l.061 13.087 10.476.013m-7.682-10.368.03 7.609h4.797l-.024-7.609h-4.803m58.925 10.404-.061-13.087-10.446-.012.049 13.099h10.458m-7.682-10.355.055 7.585h4.791l-.043-7.585h-4.803m7.603-10.975-.061-13.101h-10.458l.037 13.101h10.489-.006zm-7.682-10.343.03 7.597h4.791l-.006-7.597h-4.815m-43.567 10.295-.073-13.076-10.464-.013.049 13.082h10.489v.007zm-7.683-10.343.024 7.585 4.803.012-.036-7.597h-4.791m26.651 10.366-.049-13.076-10.47-.012.043 13.087h10.476m-7.676-10.353.024 7.585 4.797.024-.03-7.609h-4.791m22.298 10.379-.073-13.101-10.464-.012.049 13.087 10.489.025m-7.69-10.365.037 7.609h4.797l-.024-7.609h-4.809" fill="none" stroke-width="1.164" stroke="#000" transform="matrix(1.00754 0 0 1.00735 -229.19 -679.021)"/>
    <path d="m129.208 227.08.117 30.421-30.561-.05-.111-30.395 30.55.024" fill="#fff"/>
    <path d="m355.717 899.488.116 30.199-30.333-.049-.11-30.174 30.321.024h.006zm-30.51 8.62 30.54.024m-30.54-.024 30.54.024m-30.54-.024 30.54.024m-30.54-.024 30.54.024m-30.54-.024 30.54.024m-26.729 21.543-.103-21.342m23.228 21.354-.103-21.329m14.75-21.732-17.081-12.474-19.193-.024-16.947 12.449 53.222.049m-34.797-22.827.03 7.609 16.144.012-.03-7.609-16.144-.012m0 0 .03 7.609 16.144.012-.03-7.609-16.144-.012" fill="none" stroke-width="1.164" stroke="#000" transform="matrix(1.00754 0 0 1.00735 -229.19 -679.021)"/>
    <path d="m331.994 863.799.03 7.609 16.144.012-.03-7.609-16.144-.012" fill="none" stroke-width="1.164" stroke="#000" transform="matrix(1.00754 0 0 1.00735 -229.19 -679.021)"/>
    <path d="m336.371 865.686.024 3.792h7.414l-.024-3.792h-7.414m3.665-10.544 8.979 6.348-17.891-.024 8.912-6.325m0 .001 8.979 6.348-17.891-.024 8.912-6.325m0 .001 8.979 6.348-17.891-.024 8.912-6.325m0 .001 8.979 6.348-17.891-.024 8.912-6.325m0 .001 8.979 6.348-17.891-.024 8.912-6.325" fill="none" stroke-width="1.164" stroke="#000" transform="matrix(1.00754 0 0 1.00735 -229.19 -679.021)"/>
    <path d="M149.988 178.073c2.57-.062 3.232 10.584 3.238 15.857 2.208.62 7.102 3.698 9.267 6.482l-24.827-.037c2.134-2.747 6.992-5.837 9.181-6.456 0-5.28.54-15.919 3.14-15.858" fill="#fff"/>
    <path d="M376.341 850.838c2.551-.061 3.208 10.507 3.214 15.742 2.191.615 7.049 3.671 9.198 6.434l-24.642-.036c2.118-2.727 6.94-5.795 9.113-6.409 0-5.242.536-15.803 3.117-15.742m-49.533 49.508h2.21l-.645 1.186m-1.565-1.186h2.21l-.645 1.186m-1.565-1.186h2.21l-.645 1.186m-1.565-1.186h2.21l-.645 1.186m-1.565-1.186h2.21l-.645 1.186s1.065 1.37.018 2.94l.578 1.09h-2.131l.578-1.035s-1.09-1.82.049-2.995l-.657-1.186m4.505 0h2.21l-.639 1.186s1.065 1.334.006 2.94l.572 1.09h-2.124l.572-1.035s-1.065-1.82.055-2.995l-.651-1.186m4.911 0h2.204l-.657 1.186s1.077 1.37.018 2.94l.578 1.114-2.112-.024.566-1.035s-1.077-1.808.043-2.995l-.645-1.186h.006zm5.546.011h2.222l-.651 1.199s1.065 1.346.006 2.922l.597 1.108h-2.143l.572-1.035s-1.065-1.832.073-2.995l-.67-1.199h-.006zm4.93 0h2.204l-.651 1.199s1.071 1.346.012 2.916l.584 1.114h-2.124l.554-1.035s-1.071-1.82.085-2.995l-.664-1.199m4.901.013 2.204-.012-.651 1.199s1.09 1.346.03 2.922l.554 1.108h-2.131l.572-1.035s-1.065-1.82.073-2.995l-.651-1.187" fill="none" stroke-width="1.164" stroke="#000" transform="matrix(1.00754 0 0 1.00735 -229.19 -679.021)"/>
    <path d="M114.077 296.496c11.445.037 25.52-2.3 32.113-5.709l14.48-1.282.289 17.667c-12.267 6.763-40.59 8.216-46.821 8.167-6.238.05-34.91-1.428-47.233-8.216l.16-17.679 14.511 1.307c6.594 3.392 21.098 5.746 32.53 5.746h-.03" fill="#f9d90f"/>
    <path d="M340.699 968.397c11.359.037 25.329-2.283 31.873-5.667l14.372-1.273.286 17.538c-12.175 6.714-40.286 8.156-46.471 8.108-6.191.049-34.649-1.418-46.879-8.156l.158-17.55 14.403 1.297c6.544 3.367 20.94 5.704 32.287 5.704h-.03" fill="none" stroke-width=".271" stroke="#000" transform="matrix(1.00754 0 0 1.00735 -229.19 -679.021)"/>
    <path d="m29.63 221.138 12.757 4.06-3.858 20.653-12.076 1.876s-2.036-10.86 3.177-26.601" fill="#f9d90f"/>
    <path d="m256.883 893.589 12.662 4.03-3.829 20.503-11.986 1.862s-2.021-10.781 3.153-26.407v.012z" fill="none" stroke-width=".271" stroke="#000" transform="matrix(1.00754 0 0 1.00735 -229.19 -679.021)"/>
    <path d="m38.522 245.624-12.07 2.103 7.636-10.86 4.434 8.757" fill="#7e7e7e"/>
    <path d="m265.709 917.896-11.98 2.088 7.579-10.781 4.401 8.693" fill="#f9b60f" stroke-width=".271" stroke="#000" transform="matrix(1.00754 0 0 1.00735 -229.19 -679.021)"/>
    <path d="m22 236.015 12.297.889c.276 10.419 1.54 50.18 49.022 52.338l-1.478 14.465c-57.8.6-62.191-48.768-59.841-67.692" fill="#f9d90f"/>
    <path d="m249.31 908.358 12.205.882c.274 10.343 1.528 49.813 48.656 51.956l-1.467 14.36c-57.367.596-61.726-48.413-59.394-67.198zm44.797 70.138 14.384-3.141m-14.384 3.141 14.384-3.141m-14.384 3.141 14.384-3.141m-14.384 3.141 14.384-3.141m-14.384 3.141 14.384-3.141" fill="none" stroke-width=".271" stroke="#000" transform="matrix(1.00754 0 0 1.00735 -229.19 -679.021)"/>
    <path d="m197.52 221.285-12.708 4.022 4.03 20.623 12.1 1.943s1.945-10.853-3.423-26.6" fill="#ff0"/>
    <path d="m423.518 893.735-12.613 3.993 3.999 20.472 12.01 1.929s1.93-10.774-3.397-26.406v.012z" fill="#f9d90f" stroke-width=".271" stroke="#000" transform="matrix(1.00754 0 0 1.00735 -229.19 -679.021)"/>
    <path d="m188.842 245.715 12.1 2.171-7.74-10.865-4.36 8.694" fill="#7e7e7e"/>
    <path d="m414.904 917.987 12.01 2.155-7.682-10.786-4.328 8.631" fill="#f9b60f" stroke-width=".271" stroke="#000" transform="matrix(1.00754 0 0 1.00735 -229.19 -679.021)"/>
    <path d="m205.29 236.18-12.315.842c-.178 10.406-1.085 50.184-48.569 52.293l1.613 14.454c57.787.668 61.762-48.677 59.272-67.594" fill="#f9d90f"/>
    <path d="m431.23 908.522-12.223.835c-.177 10.33-1.077 49.818-48.206 51.912l1.601 14.348c57.355.663 61.3-48.322 58.828-67.101v.005zm-44.194 70.053-14.421-3.159" fill="none" stroke-width=".271" stroke="#000" transform="matrix(1.00754 0 0 1.00735 -229.19 -679.021)"/>
    <path d="M106.393 305.203c-.326.209-.767.264-1.276.24l-2.294-.118.197-2.863 2.275.122c.447.03.803.117 1.024.252.46.239.662.681.62 1.294-.03.527-.215.87-.552 1.072m-3.852 4.508.227-3.49 2.674.185c.864.068 1.508-.159 1.944-.601.454-.43.687-.993.718-1.631.055-.743-.135-1.35-.577-1.797-.423-.43-1.024-.656-1.778-.73l-3.82-.238-.529 8.216 1.135.074m8.322-6.862 2.797.03m-2.797-.03 2.797.03m-2.797-.03 2.797.03m-2.797-.03 2.797.03m-2.797-.03 2.797.03c.405.038.724.086.957.197.43.202.632.607.632 1.196 0 .552-.16.92-.473 1.14-.3.202-.735.295-1.257.295l-2.686-.03.024-2.827m-.043 7.28.024-3.508 2.625.037c.466 0 .81.036 1.048.153.387.178.577.552.595 1.067l.067 1.38c.019.331.025.534.044.669.037.098.055.202.104.277h1.41l-.024-.178c-.16-.086-.288-.251-.344-.503-.05-.16-.073-.4-.085-.7l-.025-1.097c-.018-.497-.103-.84-.294-1.03a1.474 1.474 0 0 0-.742-.529c.393-.207.687-.447.901-.742.203-.325.307-.735.307-1.238 0-.944-.386-1.589-1.172-1.938-.423-.19-.963-.29-1.601-.3l-3.943-.038-.03 8.241h1.134m8.753-1.748c-.502-.613-.773-1.38-.834-2.287-.055-1.141.165-2.012.687-2.601.528-.638 1.208-.944 2.098-.993.896-.05 1.631.239 2.177.803.558.552.877 1.318.932 2.275.03.92-.129 1.735-.552 2.452-.417.73-1.11 1.141-2.134 1.166-1.067.055-1.865-.196-2.374-.816m-1.349-5.188c-.528.816-.742 1.76-.687 2.901.08 1.232.46 2.25 1.178 3.017.797.767 1.852 1.152 3.152 1.079 1.393-.062 2.442-.588 3.153-1.557.576-.877.852-1.896.79-3.152-.079-1.123-.404-2.036-1.01-2.717-.767-.914-1.89-1.318-3.411-1.256-1.435.091-2.49.618-3.17 1.685m38.737-11.852c.79-.135 1.478-.097 2.104.117.92.288 1.54.97 1.925 2.012l-1.134.159c-.245-.563-.595-.95-1.067-1.165-.46-.202-1.037-.252-1.7-.154a2.648 2.648 0 0 0-1.827 1.123c-.429.661-.558 1.545-.368 2.672.16.933.503 1.724 1.067 2.25.521.54 1.288.73 2.289.589.748-.123 1.349-.422 1.772-.938.441-.49.57-1.233.423-2.189l-2.644.405-.135-.908 3.68-.565.717 4.36-.73.11-.453-1.005c-.306.455-.613.804-.883 1.006-.454.356-1.067.583-1.834.693-.994.153-1.901-.025-2.724-.552-.901-.669-1.484-1.662-1.704-3.041-.239-1.355-.024-2.515.601-3.428.595-.883 1.46-1.398 2.625-1.564m8.322-.625 2.638-.957c.362-.134.675-.179.944-.146.485.036.84.324 1.043.9.19.49.19.92-.024 1.221-.227.312-.583.54-1.099.73l-2.477.889-1.025-2.637m2.638 6.813-1.288-3.305 2.454-.883c.46-.147.778-.227 1.018-.202.435.055.767.32.988.821l.558 1.259c.123.312.22.502.3.588.037.11.117.178.178.25l1.331-.489-.073-.178c-.197 0-.386-.111-.528-.326-.104-.153-.203-.373-.344-.63l-.435-1.03c-.197-.448-.399-.724-.632-.89a2.106 2.106 0 0 0-.876-.239c.27-.313.466-.627.54-.994.08-.374.043-.791-.135-1.256-.338-.877-.957-1.355-1.828-1.417-.46-.036-.987.062-1.595.275l-3.705 1.319 2.994 7.75 1.085-.398m9.64-4.108-4.704-6.863 5.164-3.293.57.828-4.23 2.704 1.447 2.098 3.907-2.515.534.803-3.907 2.514 1.595 2.312 4.305-2.754.57.81-5.256 3.355m4.12-12.129 1.35-1.484c.626-.662 1.288-.963 2.012-.876.723.061 1.46.441 2.245 1.128.214.165.405.38.601.62.344.447.546.84.675 1.233.111.491.086.938-.085 1.368-.104.213-.289.465-.565.766l-1.355 1.472-4.875-4.237m7.127 3.23c.957-1.053 1.166-2.188.608-3.47a5.873 5.873 0 0 0-1.509-1.956c-.864-.767-1.766-1.16-2.717-1.232-1.055-.08-1.95.3-2.73 1.152l-2.3 2.465 6.342 5.532 2.3-2.477m4.916-6.411-7.299-4.286.595-.944 7.31 4.262-.601.98m2.86-4.99-7.882-3.153 2.325-5.544.957.368-1.895 4.568 2.373.933 1.773-4.208.907.375-1.754 4.2 2.656 1.08 1.945-4.623.957.361-2.368 5.643m3.624-9.677-8.292-1.833.276-1.282 7.66-2.588-6.728-1.484.246-1.005 8.292 1.784-.264 1.245-7.672 2.644 6.728 1.453-.239 1.067m-.664-10.53.104-1.043c.479.014.884-.061 1.19-.226.602-.326.951-.944 1.043-1.859.037-.428.018-.803-.08-1.16-.178-.685-.564-1.066-1.184-1.127-.46-.05-.79.061-1.03.313-.215.288-.442.704-.614 1.293l-.38 1.085c-.245.711-.472 1.202-.717 1.477-.393.516-.944.693-1.65.645-.754-.08-1.367-.38-1.803-.957-.447-.528-.632-1.282-.52-2.214.073-.853.355-1.57.858-2.146.466-.528 1.19-.78 2.115-.681l-.085 1.042c-.454 0-.816.08-1.08.264-.478.264-.742.822-.821 1.637-.068.675.024 1.129.282 1.473.258.288.582.472.963.503.405.037.723-.092.944-.404.16-.216.35-.681.608-1.436l.373-1.14c.185-.528.405-.932.662-1.22.46-.478 1.061-.68 1.816-.624.92.097 1.576.478 1.913 1.177.332.705.46 1.484.38 2.367-.104 1-.43 1.784-1.03 2.312-.602.54-1.35.724-2.258.65M27.63 252.45l.19 1.03c-.46.092-.828.277-1.098.516-.485.453-.65 1.134-.485 2.06.074.392.215.777.393 1.085.368.625.847.876 1.454.777.447-.08.743-.25.884-.57.135-.313.232-.792.264-1.404l.055-1.16c.037-.717.117-1.28.276-1.594.252-.564.724-.914 1.429-1.03a2.454 2.454 0 0 1 1.987.466c.576.399.957 1.092 1.098 2.011.178.841.098 1.595-.233 2.275-.32.663-.932 1.067-1.87 1.239l-.185-1.042c.435-.159.76-.313.975-.527.368-.411.479-1.006.338-1.822-.111-.663-.338-1.092-.681-1.306-.338-.252-.676-.35-1.043-.288-.411.061-.681.288-.81.655-.08.245-.141.754-.197 1.534l-.055 1.201c-.03.564-.117 1.03-.306 1.35-.3.588-.81.95-1.552 1.067-.938.16-1.663-.055-2.177-.656-.528-.588-.853-1.293-1.018-2.17-.184-1.043-.05-1.852.368-2.502.423-.669 1.092-1.055 1.999-1.184m-.521 10.862 8.107-2.441 1.89 5.709-.988.312-1.545-4.691-2.466.742 1.429 4.335-.944.3-1.417-4.347-2.747.821 1.57 4.795-.97.277-1.92-5.813m3.595 9.897 7.457-3.955.797 1.391-5.127 5.42 7.49-1.28.772 1.38-7.44 3.93-.528-.914 4.392-2.311c.16-.093.405-.228.76-.417.35-.16.743-.375 1.135-.578l-7.457 1.27-.547-.97 5.092-5.402-.245.123c-.16.092-.436.227-.81.441a6.053 6.053 0 0 1-.823.442l-4.378 2.348-.54-.932M44.6 284.2c-.374-.086-.743-.3-1.105-.675L41.92 281.9l2.121-1.944 1.59 1.62c.306.3.502.594.607.846.147.484 0 .926-.447 1.343-.405.374-.81.528-1.19.435m-5.992.755 2.6-2.386 1.846 1.87c.595.608 1.202.884 1.84.872a2.597 2.597 0 0 0 1.699-.742c.552-.49.816-1.067.816-1.685-.006-.602-.282-1.166-.791-1.693l-2.65-2.705-6.17 5.667.797.803m7.45 6.621 4.472-7.01 5.286 3.214-.552.834-4.342-2.6-1.343 2.122 3.993 2.422-.515.803-4-2.41-1.52 2.373 4.397 2.643-.528.828-5.348-3.219m13.236-1.356 2.687.853c.38.116.655.263.84.43.343.325.435.79.233 1.354-.166.49-.418.81-.81.945-.35.06-.791.06-1.307-.099l-2.533-.808.89-2.675m-2.319 6.886 1.116-3.342 2.503.816c.448.117.773.277.932.441.306.276.4.687.246 1.197l-.374 1.33c-.085.325-.129.54-.165.637 0 .105 0 .216.018.288l1.319.43.08-.191c-.141-.11-.221-.312-.215-.563.03-.154.074-.399.16-.681l.319-1.067c.129-.466.178-.816.061-1.067a1.678 1.678 0 0 0-.54-.729c.417-.074.779-.202 1.085-.43a2.28 2.28 0 0 0 .681-1.091c.3-.89.135-1.632-.528-2.196-.331-.294-.803-.546-1.422-.779l-3.753-1.158-2.625 7.818 1.098.337m11.394-142.282" fill="#012a87"/>
    <path d="M68.354 154.826c.97-2.337 9.949-8.709 39.412-5.918 0 0 4.98 3.04 7.906 2.649 1.669-.216-.981.104-3.158-1.705-2.221-1.809-2.693-5.519 2.38-5.421 5.047.129 23.943 1.196 24.3 2.894.33 1.717-9.992 2.435-13.831 2.336-3.858-.104-3.41 1.847.429 1.7 11.997-.43 25.09-4.655 38.921 5.126 1.65 1.189-4.17 1.38-8.673-.534 0 0-12.2.633-17.474-.233 0 0-4.054 3.298-9.334 2.974.687 1.71-1.95 8.094-18.553 3.292-2.742.841-12.732 2.514-11.641-.453-2.63 0-7.243.846-7.93-.65-.662-1.472 8.12-3.699 9.66-5.293 0 0-18.578.179-22.099-1.104 0 0-10.96 2.46-10.316.326" fill="#bc715f"/>
    <path d="M74.31 180.838c.399-.54.558-1.508 1.404-1.484 1.84.49 3.091 3.856 5.354 1.673.803-.178 1.11.915 1.773 1.043.423 1.87 1.925-.38 3.047-.252 2.398-1.067 5.367-1.319 8.207-.79.085 1.832-1.35 3.856-3.153 4.899.038 1.846 1.711 3.03 1.68 4.888-.287.693-.049 1.784-1.097 2.011-1.331-.239-2.644-.38-3.747-1.122-.135-.135-.245-.399-.528-.312-.135.62.834 1.233 1.214 1.864-.67 1.14-1.779.098-2.712.111-.276.656-.012 1.484-.687 1.907-1.178-.036-1.416-1.318-2.14-1.956-.742.803.521 1.281.7 1.919-.454 2.415-.393 4.777-2.81 6.36l-1.619.803c-.44-1.214-.165-3.054-.46-4.323-.957 1.557-1.705 2.919-3.11 4.236-1.643-.54-2.6-2.477-2.961-4.083-.688-1.871-.295-4.11 1.183-5.464-.502-.981-2.226-.755-2.471-2.152-2.582-1.681-4.011 2.944-5.68.539-.54-2.243.104-5.035 1.73-6.709-.361-.919-1.563-.68-2.275-1.208-1.625-1.38-3.968-2.838-3.851-5.33 4.446-1.679 9.764-.447 12.996 2.932" fill="#008830"/>
    <path d="M76.616 180.587c-.104 2.035 1.374.55 2.472 1.784-.859-.338-1.485 1.484-2.325.441l-.528.504c.307.698.902.79.282 1.557-.92.35-1.104-.803-1.533-1.257-.074-.201.141-.582-.197-.717-.52.441-1.067.601-1.784.528-.196-.393-.576-.908-.19-1.208.705-.951 1.797.342 2.33-.326.086-.588-.43-1.306.239-1.711.46.08 1.049-.171 1.24.405m5.495 1.668c.056.393-.202.944.313 1.221.669-.363 1.38-.087 1.766.576-.006.355.104.821-.362.993l-1.043-.195c.074-.202-.258-.331-.387-.528-.46-.14-.73.233-1.073.46.258.392.853.607.712 1.11-.614.612-.914-.528-1.59-.24-.46-.177.166-1.134-.557-1.423-.859 0-.289 1.41-1.387.859-.393-.442-.779-1.037-.355-1.533.46-.308 1.239-.228 1.63.17.67-.74.736-3.605 2.337-1.47m-6.854 2.956c.447.644-.098 1.52.473 2.238.895-1.673 1.76.362 2.827.202.325.4.11.951.171 1.405-1.319.35-2.907.766-4.072-.288l-.326.373c.693.645 1.35 1.374.797 2.453-.987.215-2.515.239-3.011-.778-.258-.84.601-1.447-.307-2.122-.656.816-.625 1.908-1.993 1.166-.846-.467-1.098-1.429-.675-2.239.884-1.392 2.43.044 3.386-.637.135-1.196-.307-2.239.79-2.9.939-.167 1.375.538 1.945 1.127" fill="#f9d90f"/>
    <path d="M79.008 185.94c-.441 2.036-1.975-.104-2.692-.19.957-1.699 1.558.552 2.692.19m4.778 2.214c-1.067.3-.902-1.03-1.429-1.552l.411-.374c.387.466.681 1.307 1.019 1.926" fill="#fff"/>
    <path d="M82.338 187.75c.306.704-.693 1.27.16 1.783.27-.226.6-.54.742-.669.73.216 1.575.345 2.085 1.067.546 1.497-.969 1.46-1.827 1.877l-.853-.036c.203-.418-.368-.595-.509-.883-.393-.098-.717.024-.938.355.19.95 1.35 1.692.154 2.538-1.012-.066-2.583.326-2.49-1.073-.38-.79 1.03-2.011-.479-2.06-.496 1.067-1.042 2.097-2.336 1.085l.159-1.52c1.24.035 2.705.25 3.262-1.135.356-1.005-.62-1.932.252-2.729 1.264-.288 1.975.558 2.619 1.397" fill="#f9d90f"/>
    <path d="M81.43 190.036c.32.754-.54.804-.944 1.177-.546.044-.926-.17-1.257-.54-.245-.913.435-1.005.957-1.366.607-.252.858.453 1.245.729"/>
    <path d="M80.689 190.526c-.135.179-.326.123-.528.172l-.19-.913c.404.036.931.165.717.741" fill="#fff"/>
</svg>
