<svg xmlns="http://www.w3.org/2000/svg" viewBox="0 0 1200 600">
    <clipPath id="a">
        <path d="M0 0v150h700v150H600zm600 0H300v350H0v-50z"/>
    </clipPath>
    <path fill="#00247d" d="M0 0h1200v600H0z"/>
    <path d="m0 0 600 300m0-300L0 300" stroke="#fff" stroke-width="60"/>
    <path d="m0 0 600 300m0-300L0 300" stroke="#cf142b" stroke-width="40" clip-path="url(#a)"/>
    <path d="M300 0v350M0 150h700" stroke="#fff" stroke-width="100"/>
    <path d="M300 0v350M0 150h700" stroke="#cf142b" stroke-width="60"/>
    <path d="M0 300h600V0h600v600H0z" fill="#00247d"/>
    <path fill="#fff" d="M1008.94 170.989v85.175c0 69.927-27.467 133.94-108.953 172.848-81.488-38.91-108.956-102.921-108.956-172.85v-85.174h217.907z"/>
    <path fill="#fdc300" d="M1001.61 179.669v79.444c0 65.223-25.62 124.928-101.623 161.218-76.004-36.29-101.623-95.996-101.623-161.219v-79.444h203.246z"/>
    <g fill="#ff9e3d" stroke="#000" stroke-width=".26">
        <path d="M852.667 214.487c-1.47-1.103-3.066-1.778-5.27-1.839.487-5.394-3.434-7.724-6.254-8.704-2.817-.981-3.8-2.085-4.288-4.292-.491-2.206-1.962-3.555-4.537-4.29-2.575-.736-4.783-3.31-5.762-4.537-.979-1.226-1.35-.98-2.083 1.104-.738 2.084-3.679 6.007-.983 6.13-1.959 1.593-3.063 3.433-1.838 5.885-1.35 1.103-2.329 2.697-.491 3.31 1.841.613 2.329 1.103 2.454 1.594-1.654 0-2.084 3.31 1.837 4.045-.858.123-1.225 2.82.37 2.82-2.207 0-4.049 3.31-6.865 3.31-2.821 0-4.292.613-4.413 1.84-.125 1.225-1.595 2.696-2.329 3.31 2.084.244 3.43 0 4.533-.859 1.105-.858 2.942-1.103 4.171-.122 1.225.98 3.8 1.47 5.025 1.225-2.696 1.84-4.658 4.292-4.904 6.62-.246 2.33-1.838 5.027-3.68 5.763-1.837.736-4.286 2.697-5.145 5.027 2.33 5.762 5.633 7.185 8.946 8.704 5.887 2.698 9.562 4.659 12.016 7.356 2.45 2.697 3.433.736 7.107 5.394 3.68 4.66 7.112 13.486 10.787 14.958 3.68 1.47 8.337.49 11.033-4.169 2.7-4.659 4.416-51.736-9.437-59.583z"/>
        <path fill="#ff927f" d="M858.921 194.871c-3.433 3.678-7.85 7.356-7.112 13.976.737 6.62 1.47 17.41-4.658 21.087-6.129 3.678-9.07 12.996-1.717 18.39 7.354 5.395 7.6 12.015 8.825 18.145 1.229 6.13 4.416 11.034 9.32 6.866 4.9.735 7.6-1.226 7.6-5.15 0-3.923.245-6.13 3.92-7.356 3.68-1.226 4.658-2.452 6.375-5.762 1.716-3.31 2.695-4.781 1.716-6.743-.979-1.961-1.35-6.007-.612-8.95.737-2.942-.98-4.536-1.963-6.374-.979-1.84-1.345-3.433-.858-5.885.492-2.452-.733-4.046-2.45-5.272-1.716-1.226-2.454-2.452-2.083-4.414.367-1.961-1.229-3.187-3.066-4.658-1.838-1.472-3.188-3.433-3.188-6.375 0-2.943-5.637-9.809-10.049-11.525z"/>
        <path fill="#ff9ee1" d="M860.267 274.928c8.212-2.084 7.479-15.57 6.254-21.21-1.23-5.64-4.38-13.717-1.963-20.106 3.434-9.072-4.17-17.654-2.208-21.087 1.963-3.433 1.717-5.272 1.47-6.375-.24-1.103-2.082-1.961-2.203.368-.125 2.33-.738 3.187-2.208 4.658s-1.104 4.66 0 8.215c1.104 3.555 3.433 8.95-.246 16.06-3.675 7.11-2.162 10.28-.733 13.609 2.204 5.149 7.478 23.048 1.837 25.868z"/>
        <path d="M823.49 198.059c.92 0 2.7-.368 2.7.858m-4.538 5.026c1.104-.797 3.066.123 5.025-1.042m-3.062 5.946c1.47 0 3.433-.061 5.27-1.533m-3.433 5.579c1.35 0 3.862-.858 4.475-2.636m-4.104 5.456c2.633-.123 6.129.858 6.616-.061m-6.495 8.765c1.837-1.716 6.191-2.881 7.17-4.659m-2.512-22.68c3.062.981 1.796 2.876 3.308 4.046 2.7 2.084.246 4.414 2.454 5.027 2.204.612 2.167.985 1.592 3.432-.675 2.882 2.083 3.004 1.104 4.904m8.337-1.839c-1.225 0-4.841.123-6.375 3.371m-19.799 31.999c1.412.245 2.117-.558 2.512-1.348.43-.859.613-1.472 1.9-1.533 1.288-.062 3.25-.43 3.68-1.41.428-.98 1.962-.061 3.249-2.636 1.287-2.574 2.146-5.64 5.575-6.743"/>
    </g>
    <g stroke="#000" stroke-width=".26">
        <g fill="#00a728">
            <path d="M918.475 301.589c1.387 2.016-.05 4.195 2.304 5.067 2.758 1.02.35 4.648 3.604 5.927 2.883 1.134.02 4.602 3.137 6.16 2.788 1.394-.466 4.649 3.254 6.508 3.717 1.86-.7 6.044 2.092 7.67 2.787 1.628-.93 5.812 2.325 7.44 3.254 1.626-1.396 4.88 1.625 7.205 3.02 2.324-.696 5.81 2.324 7.903 3.021 2.092-1.854 4.885 1.163 7.903 2.325 2.324-.838 4.6.929 8.136 1.162 2.324-1.163 11.622-7.67 10.692-2.325 3.952-11.387 7.438-14.641 6.276-3.254 2.324-13.712 5.578-19.062.465-5.34 5.113-15.803 1.86-19.057-.465-3.254 1.162-12.316-2.324-14.64-6.276-6.508.93-8.833-8.368-7.67-10.692 1.766-3.535-1.397-5.812.928-8.136 3.017-3.018-1.858-5.811 1.163-7.903 3.02-2.092-.696-5.579 2.324-7.903 3.021-2.325-1.629-5.58 1.625-7.206 3.254-1.627-.462-5.811 2.325-7.438 2.792-1.627-1.625-5.811 2.092-7.67 3.72-1.86.466-5.115 3.254-6.51 3.116-1.557.254-5.025 3.137-6.16 3.254-1.278.846-4.905 3.604-5.926 2.392-.886.867-3.12 2.375-5.163 6.92 2.722 28.344 4.676 37.156.096z"/>
            <path d="M887.544 302.239c-2.558 2.557.467 4.416-2.092 7.438-2.558 3.022-.233 4.649-2.324 7.438-2.092 2.79.929 4.185-1.396 7.206-2.32 3.022.467 4.881-2.092 7.438-2.554 2.557.467 4.882-2.091 7.671-2.554 2.79.466 4.649-2.092 7.205-2.554 2.558.467 5.347-2.091 7.903-2.554 2.558.466 5.811-2.325 8.834-2.787 3.021.466 5.345-1.858 7.67-2.325 2.324-.234 4.649-1.859 6.276-1.629 1.627-1.858 3.894-1.162 4.881m26.261-79.03c-2.32 3.022 1.162 4.416-.93 6.973-2.09 2.557.93 3.487-.695 6.509s1.163 3.719-.929 6.74c-2.092 3.022 1.162 5.347-1.162 8.369-2.325 3.021 1.162 4.648-.93 7.67-2.091 3.022.93 4.649-.929 6.974-1.862 2.324 1.392 4.648-.929 7.438-2.325 2.79.93 4.881-.933 7.438-1.858 2.557.7 5.346-.93 7.438-1.624 2.092 1.163 5.114-1.162 7.903-2.324 2.79.467 4.649-.929 6.509-1.395 1.859-2.495 4.59-1.162 5.346m19.057-82.518c-1.158 4.86 1.63 9.18 0 13.23-1.625 4.05 1.162 5.67.233 8.91-.929 3.24 1.163 5.67-.233 9.18-1.392 3.51 1.862 6.21 0 10.8-1.858 4.59 1.2 5.733 0 10.26-1.392 5.266 2.325 8.055 0 11.774-2.32 3.72 2.096 4.65.233 8.833-1.858 4.184 1.163 5.811-.233 9.995m12.32-86.701c2.558 2.557-.467 4.416 2.092 7.438 2.558 3.022.233 4.649 2.324 7.438 2.092 2.79-.929 4.185 1.396 7.206 2.32 3.022-.467 4.881 2.092 7.438 2.554 2.557-.467 4.882 2.091 7.671 2.554 2.79-.466 4.649 2.092 7.205 2.554 2.558-.467 5.347 2.091 7.903 2.554 2.558-.466 5.811 2.325 8.834 2.787 3.021-.466 5.345 1.858 7.67 2.325 2.324.234 4.649 1.859 6.276 1.629 1.627 1.862 3.894 1.162 4.881m-26.261-79.03c2.32 3.022-1.162 4.416.93 6.973 2.09 2.557-.93 3.487.695 6.509 1.629 3.022-1.163 3.719.929 6.74 2.092 3.022-1.162 5.347 1.162 8.369 2.325 3.021-1.162 4.648.93 7.67 2.091 3.022-.93 4.649.929 6.974 1.862 2.324-1.392 4.648.933 7.438 2.32 2.79-.933 4.881.929 7.438 1.858 2.557-.7 5.346.93 7.438 1.624 2.092-1.163 5.114 1.162 7.903 2.324 2.79-.467 4.649.929 6.509 1.395 1.859 2.5 4.59 1.162 5.346"/>
        </g>
        <path d="M884.115 313.745c.004 1.044-.02 2.083-.987 3.37-2.092 2.79.929 4.185-1.396 7.206-2.32 3.022.466 4.882-2.092 7.439-2.554 2.556.467 4.881-2.091 7.67-2.554 2.79.466 4.649-2.092 7.206-2.554 2.557.467 5.346-2.091 7.903-2.554 2.557.466 5.81-2.325 8.833-2.788 3.021.466 5.346-1.858 7.67-2.325 2.325-.234 4.649-1.859 6.276 2.788-2.092 2.788-5.345 4.88-6.973 2.09-1.627-.697-3.952.466-5.114 1.162-1.162.233-6.043 2.325-8.368 2.091-2.324.233-6.973 2.091-8.6 1.858-1.627.463-6.508 2.788-8.135 2.324-1.628 0-5.579 1.858-7.671 1.862-2.092 0-5.346 1.862-7.903 1.858-2.557.083-4.878 1.392-6.973.583-.93.583-7.67-.871-3.836zm6.683 2.906c-1.625 3.022 1.162 3.719-.93 6.74-2.09 3.023 1.163 5.347-1.162 8.369-2.324 3.021 1.163 4.648-.929 7.67-2.091 3.022.93 4.649-.929 6.974-1.862 2.324 1.392 4.648-.929 7.438-2.325 2.79.93 4.881-.933 7.438-1.858 2.557.7 5.346-.93 7.438-1.624 2.092 1.163 5.114-1.162 7.903-2.325 2.79.467 4.65-.929 6.509 2.792-.93 1.746-4.765 2.792-5.579 1.045-.814-.35-6.16 1.275-7.554 1.629-1.395-1.046-5.697.466-7.555 2.558-3.138.35-5.23 1.858-7.67 1.513-2.441-.574-5.574.584-7.206 1.975-2.79-.875-5.304.579-7.322 2.091-2.906-.404-5.298 1.046-7.206 2.208-2.905-.234-5.811.7-7.322.929-1.51 2.437-8.02-.467-9.065zm9.062 2.537c-1.625 4.05 1.162 5.67.233 8.91-.929 3.24 1.163 5.67-.233 9.18-1.392 3.51 1.862 6.21 0 10.8-1.858 4.59 1.2 5.733 0 10.26-1.392 5.266 2.325 8.055 0 11.775-2.32 3.719 2.662 4.95.233 8.832-1.162 1.86.117 6.625 1.975.93 1.863-5.695-1.391-6.392.234-8.717 1.629-2.324-.58-8.484.116-11.738.7-3.254-1.625-7.67-.116-11.157 1.512-3.487-2.325-7.206-.813-10.228 1.512-3.021-.696-6.74.696-9.181 1.396-2.44-1.046-5.695-.463-7.09.58-1.394-.583-6.547-1.862-2.576z" fill="#fcc300"/>
        <path fill="#ef072d" d="M917.292 304.331c0-26.266-3.716-35.33-17.432-35.33-13.712 0-17.428 9.064-17.428 35.33h34.86z"/>
        <path d="M882.432 304.331c0-26.266 3.716-35.33 17.428-35.33-6.275 0-10.108 4.88-11.153 8.134-1.046 3.254-.467 3.022.929 1.744 1.395-1.279.696 1.51-.463 3.021-1.162 1.511-2.325 5.811-.7 4.417 1.63-1.395 2.904.232 1.163 2.673-1.742 2.44-3.254 8.135-1.513 6.16 1.746-1.976 2.092 1.278 1.05 2.905-1.05 1.627-.933 3.022 0 2.325.93-.698.813 2.673-.116 3.951h-6.625zm32.19-1.511c0-20.571-2.554-26.73-7.666-28.823-2.896-1.186-2.98-.93-1.596.93 1.383 1.86 1.17 4.533-.108 2.673-1.275-1.86-1.7-2.208-2.233-1.394-.534.813 1.487 4.648 2.979 8.135 1.2 2.804.425 4.184-1.384 1.394-1.808-2.789-1.808-.262-.22 2.093 2.037 3.021 1.974 12.203 1.974 16.038l8.254-1.046z"/>
        <path fill="#ef072d" d="M899.86 308.166c5.462 0 11.441-.973 15.457-2.533 4.767-1.85 5.02-3.476 3.371-5.552-1.162-1.462-3.72-.585-6.158.487-2.441 1.071-9.183 1.753-12.67 1.753-3.483 0-10.224-.682-12.666-1.753-2.437-1.072-4.995-1.949-6.158-.487-1.65 2.076-1.396 3.701 3.37 5.552 4.013 1.56 9.996 2.533 15.454 2.533z"/>
    </g>
    <g fill="#b95a1e" stroke="#000" stroke-width=".298">
        <path d="M952.855 273.393s3.578 6.176 6.202 10.679c2.623 4.501 4.75 5.527 6.65 4.192 1.9-1.336.287-5.005-1.236-6.746-1.522-1.742-9.892-9.912-9.892-9.912l-1.724 1.787z"/>
        <path d="M952.005 273.868s1.418 7.082 2.466 12.25c1.048 5.166 2.728 6.881 4.942 6.291 2.214-.59 1.855-4.617.97-6.794-.883-2.177-6.187-12.825-6.187-12.825l-2.191 1.078z"/>
        <path d="M950.499 274.091s-.008 7.238 0 12.522 1.313 7.33 3.595 7.237c2.282-.093 2.723-4.11 2.288-6.433-.436-2.323-3.528-13.9-3.528-13.9l-2.355.574zm-2.351-.698s-3.578 6.176-6.202 10.679c-2.623 4.501-4.75 5.527-6.65 4.192-1.9-1.336-.287-5.005 1.236-6.746 1.522-1.742 9.892-9.912 9.892-9.912l1.724 1.787z"/>
        <path d="M948.999 273.868s-1.418 7.082-2.466 12.25c-1.048 5.166-2.728 6.881-4.942 6.291-2.214-.59-1.855-4.617-.97-6.794.883-2.177 6.187-12.825 6.187-12.825l2.191 1.078z"/>
        <path d="M950.504 274.091s.008 7.238 0 12.522-1.313 7.33-3.595 7.237c-2.282-.093-2.723-4.11-2.288-6.433.436-2.323 3.528-13.9 3.528-13.9l2.355.574zm3.96-55.691s5.827-6.189 16.023-12.377c10.196-6.19 17.573-10.95 18.936-9.903 0 1.238-8.74 7.427-16.023 12.378-7.283 4.951-16.023 12.377-16.023 12.377l-2.913-2.475zm.676 4.951s5.76-3.635 16.804-8.664c10.872-4.466 26.22-3.714 26.22-2.476-1.457 1.238-14.567 1.238-23.307 4.951-8.342 3.545-16.804 8.664-16.804 8.664l-2.913-2.475zm.062 8.526s5.07-2.45 16.804-6.189c11.653-3.713 27.122-1.238 27.122 0-1.456 1.238-14.013.486-22.753 2.476-9.043 1.939-18.26 6.189-18.26 6.189l-2.913-2.476zm.554 8.658s5.844-4.959 18.292-6.189c12.524-1.238 22.721 6.189 22.721 7.427-1.456 1.237-13.11-5.448-21.85-4.492-9.26.954-16.25 5.73-16.25 5.73l-2.913-2.476zm-2.901-27.231s9.39-6.189 9.39-11.14c0-4.95-4.14-9.902-5.313-12.377 2.347 0 7.66 7.426 7.66 12.377 0 5.41-8.824 13.615-8.824 13.615l-2.913-2.475z"/>
        <path d="M952.855 213.304s-1.174-3.713-1.174-11.14c0-8.664 5.18-14.175 7.043-16.09.485 1.915-4.695 8.664-4.695 16.09 0 5.41 1.74 13.615 1.74 13.615l-2.914-2.475zm-6.316 5.096s-5.827-6.189-16.023-12.377c-10.196-6.19-17.573-10.95-18.936-9.903 0 1.238 8.74 7.427 16.023 12.378 7.283 4.951 16.023 12.377 16.023 12.377l2.913-2.475zm-.676 4.951s-5.76-3.635-16.804-8.664c-10.872-4.466-26.22-3.714-26.22-2.476 1.457 1.238 14.567 1.238 23.307 4.951 8.342 3.545 16.804 8.664 16.804 8.664l2.913-2.475zm-.062 8.526s-5.07-2.45-16.804-6.189c-11.652-3.713-27.122-1.238-27.122 0 1.456 1.238 14.013.486 22.753 2.476 9.043 1.939 18.26 6.189 18.26 6.189l2.913-2.476zm-.554 8.658s-5.844-4.959-18.292-6.189c-12.524-1.238-22.721 6.189-22.721 7.427 1.456 1.237 13.11-5.448 21.85-4.492 9.26.954 16.25 5.73 16.25 5.73l2.913-2.476zm2.901-27.231s-9.39-6.189-9.39-11.14c0-4.95 4.14-9.902 5.313-12.377-2.347 0-7.66 7.426-7.66 12.377 0 5.41 8.824 13.615 8.824 13.615l2.913-2.475z"/>
        <path d="M948.148 213.304s1.174-3.713 1.174-11.14c0-8.664-5.18-14.175-7.043-16.09-.485 1.915 4.695 8.664 4.695 16.09 0 5.41-1.74 13.615-1.74 13.615l2.914-2.475z"/>
        <path d="M981.025 302.422c-3.648-8.546-4.695-23.517-4.695-25.993 0-6.97 2.183-40.878 2.348-54.46.164-13.584-8.217-21.042-16.433-21.042-7.042 0-11.737 4.95-11.737 12.377h3.521c0-4.95 3.521-8.664 8.216-8.664 7.043 0 12.455 5.85 12.911 17.328.504 13.267-1.412 47.714-1.173 56.937.238 9.224 3.394 17.447 7.042 23.517zm-61.046 0c3.648-8.546 4.695-23.517 4.695-25.993 0-6.97-2.183-40.878-2.348-54.46-.164-13.584 8.217-21.042 16.433-21.042 7.042 0 11.737 4.95 11.737 12.377h-3.521c0-4.95-3.521-8.664-8.216-8.664-7.043 0-12.455 5.85-12.911 17.328-.504 13.267 1.412 47.714 1.173 56.937-.238 9.224-3.394 17.447-7.042 23.517z" stroke="#fdc301" stroke-width=".75"/>
        <path d="M950.507 273.954c6.56-.097 7.284-2.475 7.284-2.475s1.457-4.951.728-6.19c-.728-1.237-8.012-1.237-8.012-1.237v9.902z"/>
        <path d="M950.507 269.003c7.042 0 8.216-2.475 8.216-2.475s2.347-4.951 1.174-6.19c-1.174-1.237-9.39-1.237-9.39-1.237v9.902z"/>
        <path d="M950.507 264.052c5.869 0 9.39-2.475 9.39-2.475s2.347-4.951 1.174-6.19c-1.174-1.237-10.564-1.237-10.564-1.237v9.902z"/>
        <path d="M950.507 257.863c10.572-.097 10.564-3.18 10.564-3.18s2.347-4.95 1.173-6.188c-1.173-1.238-11.737-.534-11.737-.534v9.902z"/>
        <path d="M950.507 252.912c10.572-.097 11.737-2.475 11.737-2.475s2.348-4.951 1.174-6.19c-1.174-1.237-12.911-1.237-12.911-1.237v9.902z"/>
        <path d="M950.507 246.724c10.572-.097 12.911-2.475 12.911-2.475s2.347-4.951 1.174-6.19c-1.174-1.237-14.085-1.237-14.085-1.237v9.902z"/>
        <path d="M950.507 240.535c10.572-.097 14.085-2.475 14.085-2.475s1.173-4.951 0-6.19c-1.174-1.237-14.085-1.237-14.085-1.237v9.902z"/>
        <path d="M950.507 234.346c10.572-.097 14.085-2.475 14.085-2.475s0-4.951-1.174-6.19c-1.174-1.237-12.911-1.237-12.911-1.237v9.902z"/>
        <path d="M950.507 228.157c10.572-.097 12.911-2.475 12.911-2.475s0-4.951-1.174-6.19c-1.173-1.237-11.737-1.237-11.737-1.237v9.902z"/>
        <path d="M950.507 212.631c8.224.01 11.777 7.153 11.757 7.008l-2.367 2.33c-1.258 1.237-9.39 1.237-9.29 1.23l-.1-10.568zm-.011 61.323c-6.56-.097-7.284-2.475-7.284-2.475s-1.457-4.951-.728-6.19c.728-1.237 8.012-1.237 8.012-1.237v9.902z"/>
        <path d="M950.496 269.003c-7.042 0-8.216-2.475-8.216-2.475s-2.347-4.951-1.174-6.19c1.174-1.237 9.39-1.237 9.39-1.237v9.902z"/>
        <path d="M950.496 264.052c-5.869 0-9.39-2.475-9.39-2.475s-2.347-4.951-1.174-6.19c1.174-1.237 10.564-1.237 10.564-1.237v9.902z"/>
        <path d="M950.496 257.863c-10.572-.097-10.564-3.18-10.564-3.18s-2.347-4.95-1.173-6.188c1.173-1.238 11.737-.534 11.737-.534v9.902z"/>
        <path d="M950.496 252.912c-10.572-.097-11.737-2.475-11.737-2.475s-2.348-4.951-1.174-6.19c1.174-1.237 12.911-1.237 12.911-1.237v9.902z"/>
        <path d="M950.496 246.724c-10.572-.097-12.911-2.475-12.911-2.475s-2.347-4.951-1.174-6.19c1.174-1.237 14.085-1.237 14.085-1.237v9.902z"/>
        <path d="M950.496 240.535c-10.572-.097-14.085-2.475-14.085-2.475s-1.173-4.951 0-6.19c1.174-1.237 14.085-1.237 14.085-1.237v9.902z"/>
        <path d="M950.496 234.346c-10.572-.097-14.085-2.475-14.085-2.475s0-4.951 1.174-6.19c1.174-1.237 12.911-1.237 12.911-1.237v9.902z"/>
        <path d="M950.496 228.157c-10.572-.097-12.911-2.475-12.911-2.475s0-4.951 1.174-6.19c1.173-1.237 11.737-1.237 11.737-1.237v9.902z"/>
        <path d="M950.496 212.631c-8.224.01-11.777 7.153-11.757 7.008l2.367 2.33c1.258 1.237 9.39 1.237 9.29 1.23l.1-10.568z"/>
    </g>
</svg>
