<svg xmlns="http://www.w3.org/2000/svg" xmlns:xlink="http://www.w3.org/1999/xlink" viewBox="0 0 1200 600">
    <defs>
        <linearGradient id="b" gradientUnits="userSpaceOnUse" x1="103.083" y1="111.276" x2="92.551" y2="107.764" gradientTransform="matrix(.99614 0 0 2.25255 703.842 -75.047)">
            <stop stop-color="red" offset="0"/>
            <stop stop-color="#ff0" offset="1"/>
        </linearGradient>
        <clipPath id="a">
            <path d="M0 0v150h700v150H600zm600 0H300v350H0v-50z"/>
        </clipPath>
    </defs>
    <path fill="#00247d" d="M0 0h1200v600H0z"/>
    <path d="m0 0 600 300m0-300L0 300" stroke="#fff" stroke-width="60"/>
    <path d="m0 0 600 300m0-300L0 300" stroke="#cf142b" stroke-width="40" clip-path="url(#a)"/>
    <path d="M300 0v350M0 150h700" stroke="#fff" stroke-width="100"/>
    <path d="M300 0v350M0 150h700" stroke="#cf142b" stroke-width="60"/>
    <path d="M0 300h600V0h600v600H0z" fill="#00247d"/>
    <path fill="#fff" d="m776.26 144.068 250.401-.93-.465 222.993s8.827 33.913-104.992 85.48c40.882-4.181 85.48-47.85 85.48-47.85s18.119-23.228 26.946-10.22c8.826 13.007 17.188 19.511 23.692 24.621 6.504 5.11 11.614 19.048 1.859 29.268s-25.087 11.614-29.268-.93c-6.504 3.253-46.457 51.568-128.22 53.89-83.157-1.393-128.685-54.354-128.685-54.354s-11.15 17.654-26.945 3.717c-15.33-18.118-3.716-29.732-3.716-29.732s13.007-7.433 16.724-12.544c6.04-6.968 7.898-16.26 18.118-16.26 12.079.93 16.724 10.685 16.724 10.685s41.811 44.134 86.874 49.709c-101.736-48.783-105.453-78.98-104.988-86.413l.465-221.133z"/>
    <path fill="#006129" stroke="#000" stroke-width="1.887" d="m782.299 150.107 238.787-1.394v214.63c.465 27.874-46.457 56.213-119.858 92.449-75.724-39.024-119.394-62.716-119.858-92.913l.93-212.771z"/>
    <g id="c" fill="#f7c600" stroke="#000" stroke-width=".944">
        <path fill="none" stroke="#f7c600" stroke-width="1.887" d="m814.794 181.829 14.095-20.701 14.164 20.744"/>
        <path d="M831.719 174.09a2.8 2.8 0 1 1-5.598.002 2.8 2.8 0 0 1 5.598-.002z"/>
        <path d="m817.444 197.119 21.852.062s.342-2.836-2.283-4.56c11.446-1.573 8.472-11.669 18.058-12.241 1.86.286-5.008 4.292-5.008 4.292s-5.779 4.078-3.147 6.152c2.09 1.646 3.004-1.001 3.29-3.004.286-2.003 9.3-3.29 8.012-9.014-2.146-4.72-14.736 3.148-14.736 3.148l-8.982-.05c-.56-1.008-3.035-5.05-5.592-5.07-3.033.111-5.17 5.12-5.17 5.12h-20.315s-.696 5.212 9.605 6.214c2.319 3.029 4.117 3.875 6.133 4.659-1.344 1.12-1.723 2.475-1.717 4.292zm1.573-4.435 18.2-.062m-26.536-10.669s1.456 8.513 8.176 10.529"/>
        <path fill="url(#b)" d="M809.561 181.841c.672-3.248 1.904-3.808 3.248-7.952.224-4.033-3.248-3.585-2.24-6.16 1.792-2.8.896-5.49-2.464-7.617.672 3.696-4.368 7.168-4.368 10.192 0 3.025 2.576 2.353 2.24 6.945.224 2.688-.672 2.016-.896 4.592h4.48z"/>
        <path d="M831.495 161.657a2.575 2.575 0 1 1-5.15.002 2.575 2.575 0 0 1 5.15-.002z"/>
    </g>
    <use xlink:href="#c" x="-.772" y="41.304"/>
    <use xlink:href="#c" x="-1.089" y="82.013"/>
    <use xlink:href="#c" x="25.627" y="126.099"/>
    <use xlink:href="#c" x="-4.574" y="162.163"/>
    <use xlink:href="#c" x="-3.782" y="204.773"/>
    <use xlink:href="#c" x="146.28" y=".672"/>
    <use xlink:href="#c" x="144.936" y="41.218"/>
    <use xlink:href="#c" x="143.144" y="82.661"/>
    <use xlink:href="#c" x="145.16" y="123.431"/>
    <use xlink:href="#c" x="144.712" y="164.201"/>
    <use xlink:href="#c" x="144.936" y="205.195"/>
    <g fill="#ffc6b5" stroke="#000" stroke-width=".944">
        <path fill="#f7c600" d="M915.843 406.315s5.702 13.147 12.197 5.069c6.494-8.079 4.118-11.563 4.118-11.563l-14.573-7.92-4.276 9.028 2.534 5.386z"/>
        <path d="M928.357 404.572s.95.159 1.742-1.267-1.742-2.06-2.85-3.643l-1.268 2.534 2.376 2.376zm-32.948-3.485-12.83 6.97s-6.337 1.267-6.812 0c-.475-1.268.159-2.376 3.485-2.535 3.327-.158 12.355-8.395 12.355-8.395l3.802 3.96zm.159-227.938s.317 3.01.475 4.594c.159 1.584-2.534 4.91-2.693 4.752s-1.425.158-1.267 1.108c.159.95 2.06 1.268 2.06 1.268s-.793 3.326 0 3.484c.791.159-2.06 4.277 0 5.386 2.059 1.109 5.543 2.534 7.127 2.218 1.584-.317 0 6.177 0 6.177l-4.435 9.504 24.394-2.534-5.069-8.079s-2.376-1.584-1.742-6.177c.633-4.594-.317-25.344-.317-25.344l-17.424-2.376-1.109 6.019zm-4.436 36.115s-7.92 3.643-7.603 13.464c-2.06 9.504-3.168 19.008-3.168 19.008s-9.346 10.613-12.197 14.415c-2.851 3.801-7.128 11.563-8.712 13.622-1.584 2.06-7.762 8.87-7.603 11.405.158 2.534-1.426 13.78 4.752 15.048 1.584.633 6.653-12.99 6.653-12.99s.316-5.86-1.426-6.969c-1.742-1.108 3.802-4.91 3.802-4.91s10.612-7.762 12.988-9.663c2.376-1.9 8.87-9.187 8.87-9.187l3.644-43.243z"/>
        <path fill="#fff" d="M900.161 201.82s2.06 5.544 6.653 4.594c4.594-.95 9.98-5.228 9.98-5.228s4.276-.158 4.91.476c.633.633 11.563 11.246 11.246 14.572-.317 3.327-5.069 2.376-6.811 4.594-1.743 2.218-4.594 7.762-3.802 11.88.792 4.119 3.168 9.504 2.851 11.563-.316 2.06-2.059 2.693-2.059 3.802s1.426 3.01 1.426 5.069c0 2.06-1.901 5.069-1.584 7.128.317 2.06.475 8.078.475 8.078l-.475 27.879s1.584.95 1.742 2.534c.159 1.584 10.771 47.679 10.771 47.679s-.475 1.425-1.584 1.267c-1.108-.159 4.277 7.128 4.436 9.187.158 2.06 5.544 18.216 5.385 20.434-.158 2.217-.95 7.128-1.425 7.286-.476.158 3.484 10.138 2.85 11.722-.633 1.584-7.127 1.425-7.127 1.425l-1.743-.316s.159 2.059-1.108 2.217-10.613-.475-10.613-.475-2.693 4.118-4.277 3.96c-1.584-.158-3.643-3.01-4.119-2.534-.475.475 1.426 3.167.95 3.96-.474.792-8.553 2.534-10.137-1.268-1.584-3.801.95-2.85.476-3.643-.476-.792-4.119-2.851-5.228-2.217-1.109.633 2.852 1.584 2.693 3.168-.158 1.584-3.485 3.96-4.752 3.96s-4.277-5.861-8.712-5.228c-4.435.634-7.286 1.743-7.286 1.743s-5.228 2.217-7.445 1.742c-2.218-.475-3.168-2.218-3.168-3.168 0-.95 1.584-5.069 1.425-6.336s-1.425-2.534-1.425-4.435c0-1.9 3.643-8.395 3.643-8.395l-.158-29.146s-3.327 0-3.485-2.06 5.069-46.094 5.86-48.945c.793-2.851 2.852-12.989 2.852-12.989s-2.376 1.109-2.535 0c-.158-1.109 7.128-26.294 7.128-26.294s1.268-12.514 1.268-15.84c0-3.327-.634-7.92-.634-7.92s-6.503-2.753-6.653-6.97c-.595-6.709 6.178-10.454 6.97-12.672l3.168-8.87s3.485-6.02 9.187-6.97z"/>
        <path fill="#f7c600" d="M897.785 402.988s-15.365 8.079-17.582 8.712c-2.218.634-3.644-2.693-1.426-3.326 2.218-.634 5.702-.95 5.702-.95s-5.227-4.12-5.068-4.278c.158-.158 7.128-2.692 7.286-2.692s2.218 4.118 3.643 3.801c1.426-.317 5.544-3.484 5.544-3.484s2.218 2.534 1.901 2.217z"/>
        <path d="M919.432 407.423c1.453 1.874 2.02 5.123 5.347 3.222 3.327-1.9-1.704-5.428-1.704-5.428l-3.643 2.206z"/>
        <path d="M925.505 407.106s1.584 1.267 3.01-.158-2.852-4.436-2.852-4.436l-2.059 2.376 1.901 2.218zm6.812-190.146c.158 0 5.227 15.682 5.86 19.642.634 3.96 2.694 19.8 1.902 22.017-.792 2.218-8.87 12.83-9.821 15.523-.95 2.693-6.653 12.99-6.653 12.99s-1.426 10.137-2.06 10.612c-.633.476 1.636 2.964 1.426 3.802-.314.943-4.593 5.386-6.494 4.91-1.9-.475-4.91-2.693-5.069-4.752s.158-8.87 1.584-10.612c1.426-1.743 8.87-19.325 9.346-20.434.475-1.109 6.81-14.89 6.97-17.266.158-2.376-1.972-7.87-4.212-9.886-4.985-14.673-3.026-23.522 7.221-26.546z"/>
        <path fill="#9c5100" d="M895.092 172.199s3.485.475 5.386-.634c1.9-1.108 4.118-1.584 5.702.634 1.584 2.218 2.693 2.06 2.693 2.06s-2.376 5.86 0 6.494c2.376.633 3.485.633 3.643 1.425.159.792-2.06 2.535-1.426 3.327.634.792 1.743 1.742 1.901 2.376.159.633-1.425 3.326-.95 3.96.475.633 1.9 3.168 2.851 3.168.95 0 .317 3.96 3.168 3.01s2.693-3.486 2.693-3.486 3.01-.475 3.802-3.168c.791-2.692 2.692-3.326 2.692-3.326s3.802-2.06-1.267-5.227c0-22.176-14.573-19.8-14.573-19.8s-1.742-3.96-4.593-3.485-3.01 3.802-5.07 3.485c-2.058-.317-2.533-1.743-2.692-1.584-.158.158-1.9 3.326-1.9 4.118 0 .792-5.545-1.109-5.07 3.01.476 4.118 3.168 3.96 3.01 3.643z"/>
        <g fill="none">
            <path d="M920.753 207.997s-14.098 9.029-13.78 12.197m16.948-10.613s-3.168 3.485-3.326 3.485m7.603.317s-6.97 5.702-5.86 9.346m-27.087-15.524s-2.06 4.277-1.584 5.702c.475 1.426 3.96 6.812 4.435 10.138.475 3.326 0 5.703 0 5.703m-6.494-13.623s.634 5.069 1.584 6.02c.95.95 3.485 5.226 3.802 6.969m-6.653 8.078s4.118 2.06 7.92-5.86m6.177-5.544c-.158 0-3.01 7.762 2.06 10.613 5.068 2.851 8.87 2.534 11.087 1.742 2.218-.792 4.594-2.217 4.594-2.217m-19.958-.634s.317 10.455 15.682 20.75m-15.049-10.93s-.158 9.187 5.86 13.306m-9.028-24.077s-4.594 13.622-8.237 15.048m6.812-5.069s-.158 9.82-1.426 13.306m-1.267 2.376s3.168 3.96 6.653 3.643c3.485-.316 4.91-4.435 7.286-3.801 2.376.633 4.594 2.534 10.138 2.059m-7.92 4.118s0 8.078 1.426 8.87.792 8.237.792 8.237M892.4 261.22s-.158 7.603-1.109 10.296c-.95 2.693-2.851 7.287-2.534 11.247m-6.02 4.434c.792-.317 3.485-2.693 3.485-2.693m1.426 1.743s-6.811 29.146-4.91 46.57m6.494-45.144s-3.485 21.86-1.9 25.978m.157-26.612c.158 0 13.306.95 13.306.95m1.901-1.742s3.643 1.9 8.712 1.584m-10.296 9.029s-.634 37.383-1.584 45.62m21.067-37.067s4.118 32.789 6.494 35.798m-14.414-31.679s2.534 28.987 3.96 31.522m-39.917 10.137s4.91-1.584 9.345-6.336c5.07 6.811 12.831.317 12.831.317s12.038 8.237 17.424-.95c8.237 5.385 12.355-.793 12.355-.793s3.01 4.594 5.228 4.119m-13.148 3.168s6.178 28.987 15.365 37.224m-47.203-40.234s.792 24.235 2.218 41.342m-3.327-13.938s-.792 15.84-1.743 16.949m-7.603 1.583s1.742 6.811 10.454.475 8.87 2.376 9.188 3.327c.316.95 1.742 7.761 5.068 2.059m6.971-9.345s-1.426 14.097 11.088 3.801c12.514-10.295 14.573-.158 14.89 3.01m-25.82-230.156s-1.109 6.97 6.336 6.336c-.95 3.802 1.9 5.069 1.9 5.069m5.545 4.277c.159 0 3.326 2.06-.158 4.594m-10.613.95s1.584 1.9 3.326 1.426c1.743-.475 4.594 1.742 4.594 1.742s2.376.792 2.693.317m-20.276 2.534s5.386 2.06 8.87-6.494m-18.849-2.535 3.168.158m-38.312 99.737.248 6.942m-6.758-7.457s4.45 7.443 4.079 11.41"/>
            <path stroke-linejoin="round" d="M894.142 188.197h2.851l-2.534 1.109m17.206 110.656s3.328-.35 3.223 5.206c2.125-6.902 6.446-7.066 6.446-7.066"/>
            <path stroke-width="1.699" stroke-linejoin="round" d="M898.102 179.327c.475 0 2.217-.634 2.534-.158.317.475-1.9.792-2.534.158z"/>
        </g>
    </g>
    <g fill="none" stroke="#000" stroke-width="1.887">
        <path fill="#f7c600" d="M900.299 458.579c66.898-1.858 110.102-50.173 109.638-50.638-.465-.464 8.827-13.472 16.26-11.614 7.433 1.858 18.118 23.693 31.126 28.338 6.504 10.22-1.859 19.512-4.646 21.37-2.787 1.859-15.33 6.97-17.189-.464-1.858-7.433-5.575-6.04-5.575-6.04s-59.464 58.071-128.22 55.749c-71.078.464-129.614-55.748-129.614-55.748l-5.11 5.574s-5.575 6.04-8.362 5.575c-2.787-.464-14.866-8.362-15.795-16.26-.93-7.897 7.433-13.007 7.433-13.007s20.44-15.796 22.764-24.158c4.645-4.646 13.472 3.252 13.472 3.252s53.89 61.787 113.819 58.07z"/>
        <path d="M748.855 422.646s5.528-1.474 7.555.83c2.027 2.302 15.938 15.938 15.938 15.938"/>
        <path d="m761.477 429.095-5.528 4.146s13.912 2.763 10.78 11.885m285.611-22.941s-2.764-1.474-7.094 1.75c-4.33 3.225-15.294 15.479-15.294 15.479"/>
        <path d="m1039.9 428.727 5.989 4.607s-12.53.829-9.766 12.714"/>
    </g>
    <path d="M819.664 437.396c-.362 1.052-1.321-.029-2.117.183-2.094.079-3.834 1.445-5.628 2.377l-18.407 10.731c-.62-.203-.473-.704-.322-1.206 1.636-7.663 3.335-15.313 4.925-22.986.264-1.342.69-3.01-.606-3.986-.551-.376.301-1.14.655-.446l9.41 6.71c-.302.885-.837.265-1.372-.094-1.303-1.253-2.873-.095-2.835 1.488-1.119 5.052-2.21 10.11-3.318 15.165 4.165-2.476 8.378-4.874 12.506-7.412 1.474-.656 2.56-2.631 1.029-3.855-.582-.343-1.544-1.28-.585-1.422l6.665 4.753zm6.611 31.986c-.168.572-.466.698-.922.286l-11.074-6.056c.167-.572.466-.698.922-.286 1 .68 2.634.938 3.363-.255 1.466-2.35 2.701-4.839 4.06-7.253 1.845-3.42 3.769-6.8 5.559-10.248.856-1.222-.1-2.728-1.298-3.251-.405-.217-1.001-.378-.49-.864.247-.304.772.345 1.13.423l10.617 5.806c-.168.572-.467.698-.923.286-1-.68-2.642-.94-3.38.245-1.465 2.351-2.7 4.84-4.058 7.254-1.847 3.42-3.77 6.8-5.56 10.248-.855 1.23.097 2.747 1.314 3.26l.74.405zm42.609-9.994-3.007 8.443c-1.232-.13-.413-1.708-.796-2.54-.44-3.8-3.243-7.347-7.06-8.16-2.92-.795-6 .708-7.715 3.082-2.59 3.537-4.165 7.853-4.387 12.235-.148 2.49.995 5.046 3.17 6.357 1.723 1.136 3.817 1.593 5.863 1.536.722-2.13 1.586-4.215 2.187-6.381.247-1.41-1.21-2.26-2.375-2.583-.181-.41.27-.912.745-.472l11.037 3.932c-.132 1.358-1.667-.109-2.517.433-1.36.522-1.476 2.157-1.991 3.34l-1.345 3.775c-4.946.35-10.044-.696-14.348-3.186-4.185-2.637-7.015-7.728-6.192-12.722.638-4.274 3.301-8.277 7.242-10.165 3.62-1.924 8.037-1.916 11.796-.392 2.055.693 3.83 1.964 5.42 3.41.964 1.3 2.829 1.303 3.62-.175l.653.233m17.952 28.813c-.022.449-.072.86-.61.61l-12.638-1.915c.023-.449.073-.86.61-.61 1.096.224 2.564.206 3.093-.976.535-1.688.642-3.476.95-5.215.723-4.856 1.495-9.706 2.186-14.567.268-1.048-.09-2.233-1.175-2.64-.614-.29-1.299-.334-1.96-.444.023-.45.073-.86.61-.61l12.638 1.915c-.022.449-.072.86-.61.609-1.101-.227-2.563-.197-3.111.974-.535 1.688-.642 3.476-.95 5.215-.723 4.856-1.495 9.706-2.186 14.567-.266 1.045.094 2.254 1.185 2.648.62.282 1.305.33 1.968.44zm34.118-8.287-.5 8.962-22.546 1.15c-.138-.548.01-.84.606-.725 1.133.029 2.593-.452 2.737-1.752.1-2.227-.15-4.455-.224-6.681-.243-4.442-.419-8.887-.71-13.325.125-1.322-1.066-2.301-2.32-2.261-.398-.202-1.475.415-1.367-.31-.182-.589.635-.276.98-.388l12.541-.64c.138.549-.009.84-.606.725-1.158-.006-2.665.276-2.985 1.584-.183 1.926.086 3.864.137 5.795.254 4.625.434 9.256.74 13.877-.094 1.21.877 2.28 2.13 2.047 1.83-.091 3.7-.013 5.487-.473 2.507-.667 3.874-3.15 4.56-5.47.45-.627.078-2.191 1.071-2.101l.269-.014m17.577-21.695c-.598.01-.334.773-.486 1.173-.998 7.476-1.944 14.96-2.976 22.432-.251 1.655-.664 3.588-2.297 4.425-.603.214-.072 1.162.48.635l7.529-2.259c-.095-1.268-1.54-.116-2.35-.339-1.727-.002-1.984-2.1-1.744-3.41l.313-2.657 8.625-2.594c1.1 1.386 2.314 2.69 3.31 4.153.747 1.41-1.07 2.055-2.125 2.327-.493.052-.063 1.085.387.605l11.334-3.397c-.034-1.283-1.677-.08-2.369-.937-2.121-1.594-3.644-3.812-5.4-5.775l-12.231-14.382zm-.063 8.969 6.125 7.312-7.343 2.188 1.218-9.5zm38.632-25.809 3.259 6.06c-1.014.872-1.541-1.149-2.46-1.457-1.507-1.268-3.779-1.508-5.457-.432-.687.357-1.365.73-2.048 1.095 3.277 6.068 6.509 12.16 9.815 18.212.511 1.552 2.418 1.843 3.648.968.476-.345.906-.54 1.06.188-1.664.965-3.482 1.882-5.205 2.828l-6.509 3.5c-.51-.53-.169-.803.407-1.006 1.542-.573 2.135-2.445 1.102-3.763-3.206-6.025-6.46-12.026-9.685-18.042-1.796.995-4.09 1.892-4.543 4.132-.51 1.41.24 3.135.24 4.334-.553.574-.698-.209-.954-.623l-2.785-5.18L977.1 441.38zm15.251-9.042 6.233 8.263c1.445-.919 2.652-2.56 2.218-4.353.167-1.4-1.836-2.988-1.148-3.97.453-.281.72.767 1.095 1.044l7.118 9.436c-.928 1.057-1.6-1.098-2.583-1.331-1.387-.986-3.333-1.477-4.82-.397-1.11.354-1.058.977-.303 1.662 1.67 2.156 3.22 4.41 5.003 6.475 1.091 1.059 2.448-.048 3.372-.784 2.388-1.626 4.485-4.165 4.362-7.21.156-1.33-.679-2.814-.67-3.935.535-.713.685.393.992.755l3.366 6.08-17.544 13.233c-.761-.54-.012-.857.468-1.23 1.638-1.012 1.117-3.078-.088-4.213-3.748-4.936-7.43-9.924-11.226-14.823-.972-1.318-2.765-.624-3.745.295-.407.577-1.044-.579-.273-.664l16.543-12.479 4.528 6.003c-1.049 1.064-1.978-1.307-3.175-1.431-2.173-1.131-4.757-.22-6.553 1.21-1.074.764-2.114 1.575-3.17 2.364"/>
</svg>
