<svg xmlns="http://www.w3.org/2000/svg" xmlns:xlink="http://www.w3.org/1999/xlink" viewBox="0 0 840 600">
    <defs>
        <path id="a" d="m0-36 21.16 65.125-55.398-40.25h68.476l-55.398 40.25z" fill="#fff"/>
    </defs>
    <path fill="#244aa5" d="M0 0h840v600H0z"/>
    <path fill="#d0a650" d="M332.094 284.595s1.558-1.05 2.128-1.19c.57-.14 2.584-.77 2.584-.77s1.292-.665 1.976-.665c.722 0 2.128.77 2.584 1.435.418.665 2.698 1.82 2.698 1.82s1.558.525 1.862 0c.304-.525.988-.91 1.71-.91s.836-.665.836-1.19c0-.525.304-1.19.836-1.82.57-.665 1.71-1.05 1.71-1.05s1.558-.665 1.71-1.575c.152-.91 1.71-1.575 2.584-1.715.836-.14 0-.525 2.28-.28 2.28.28 2.584-.525 2.698-1.19.152-.665 0-1.33 1.444-1.19 1.444.14 2.128.14 2.128-.665 0-.77 1.292-1.19-.988-1.82-2.28-.665-2.128-.14-2.28-1.19-.152-1.05 0-.91-1.558-1.05s-.722-.91-.836-1.715c-.152-.77-.57-1.19-.836-1.715-.304-.525-1.14-.525-1.14-1.295 0-.77-.152-1.19-.988-1.19s-1.14 0-1.14-.77.152-1.435.988-1.435 1.292-.665 1.14-1.435c-.152-.77-.152-2.485-.152-2.485l1.14-1.33s3.42-2.765 3.724-3.29c.304-.525 1.444-.91 1.976.14.57 1.05.836 1.33 1.292 1.82.418.525 1.71.14 1.976-.385.304-.525.418-2.45 1.178-3.5.76-1.015 1.292-1.54 1.482-2.38.19-.84.57-1.54 1.482-1.54s1.482-1.19 1.482-1.89.38-1.365 1.482-1.54c1.102-.175 1.672-.84 2.052.175.38 1.015.76 1.015 1.482 1.365.76.35 1.862.84 2.394.35.57-.525.836-1.365 1.672-.84.798.525 1.368 0 1.558-1.015.19-1.015.38-2.38.38-2.38s.19-.7 1.482-.7.38-.84 1.102-1.365c.76-.525.76-1.015 1.672-.7.912.35 2.394-.42 1.672-1.26-.76-.84-2.394-2.205-1.482-3.255.912-1.015 1.292-2.73.38-2.905-.912-.175-2.242.175-2.394-.84-.19-1.015-.57-1.715.57-1.89 1.102-.175 2.964-.175 3.534-.7.57-.525 2.394-.84 2.394-2.38s.57-1.715.76-2.555c.19-.84.19-2.625-.57-3.465-.76-.84-1.862-2.065-2.052-2.555-.19-.525-.912-1.365-2.052-1.715-1.102-.35-2.052-.525-2.052-1.365s.76.175.76-2.065c0-2.205-1.482-2.555-1.482-2.555l-2.242-1.365s-3.952-1.05-5.016-1.05-2.28-1.12-1.064-1.82c1.216-.7 1.52-1.96 1.064-2.94-.456-.98-.76-1.68-2.432-2.1-1.672-.42-2.128-.84-1.368-1.82.76-.98.912-1.68 1.824-.98s2.432.98 3.648.42c1.216-.56 1.672-.98 2.28-.42.608.56 1.368 1.12 2.28.28.912-.84 2.584-.98 3.344-.56.76.42 2.584.28 3.192 0 .608-.28 1.824-1.26 1.824-1.82s.76-1.54 1.52-1.96c.76-.42 1.672-1.82 2.432-1.82s1.064-.84 1.064-1.4c0-.56.608-1.68.76-2.1.152-.42 1.672-1.015 2.736-.14 1.064.84 2.432 1.12 2.432 1.12s1.52.28 2.28 0c.76-.28 1.824-.56 2.888.14 1.064.7 2.584.7 2.584.7s.304-1.12.304-1.68c0-.56.304-1.54-.304-1.96-.608-.42-1.368-.98-.152-1.82 1.216-.84 1.216-.7 2.432-.7s1.976.14 2.888.14c.912 0 2.432.84 2.432 1.68s.608 1.4 1.368 1.82c.76.42 1.672.84 1.368 1.54-.304.7-.304 1.26.608 1.12.912-.14 1.216.42 1.216 1.12 0 .7.304 1.12 1.216 1.4.912.28 1.368.84 1.368 1.54 0 .7-.152 1.12.152 1.82s1.216 1.82 1.216 1.82 1.672 1.96-.456.98-2.584-1.4-3.344-1.26c-.76.14-1.216.56-1.216.56s-1.064.28-1.824.28-1.52 1.54-.304 1.82 1.672.56 1.672 1.54-.456.7-1.064 1.4c-.608.7-1.064.28-2.128.28s-1.368.84-1.368 1.68.456.7.912 1.4 1.216.84 1.976.14 1.368-1.12 1.824.14c.456 1.26 1.064 1.26 1.976 1.26.912 0 1.216 0 1.976-.42s1.672 0 1.824 1.12c.152 1.12.912 1.26 1.672 1.68.76.42 1.216.7 1.368 1.4.152.7.608.98 1.368.56.76-.42 1.976-.7 2.432-.14.456.56 1.216 1.68 1.216 1.68l.152 1.4 2.888.98s.304.7.304 1.26.456.84 1.216.7 2.128 0 2.128 0 1.064-.42 1.064-1.26c0-.84.456-1.12 1.216-1.12s2.432.56 2.888-.28c.456-.84 1.824-1.12 2.888-.7 1.064.42 3.8 1.54 3.8 1.54s-.304.14.608 1.54c.912 1.4 2.584 1.4 2.584 1.4s.152 1.26.456 1.82c.304.56 1.672.84 2.432.28.76-.56 1.824-1.26 2.736-1.26.912 0 1.52 0 1.52-.56s-.912-.98-.912-1.82c0-.84.912-.84 1.064-1.68.152-.84 1.064 0 1.672.42.608.42 1.368 1.12 1.368 1.68 0 .56 1.216 2.52 1.976 2.8.76.28 2.736.42 3.344-.28.608-.7 2.128-.98 1.976.7-.152 1.68-.456 1.82.608 2.38 1.064.56 1.216 2.52.304 3.08-.912.56-1.216.7-1.216 1.68s-.304 2.1.456 2.66 1.216.98 1.216 1.54.912 3.08.912 3.08.456 2.52.304 3.08c-.152.56-.456 1.54.912 1.4 1.368-.14 1.672-.14 1.672.98s.456 1.54-.304 1.96c-.76.42-1.216 1.82-.456 2.1s1.368.7 1.52 1.26c.152.56 1.368 1.54 2.128.98s.912-.84 1.52-.98 1.064-.56.456-1.26c-.608-.7-.76-1.4-.152-1.82.608-.42.912-1.82.912-1.82s.912-1.26 1.976 0 1.216.84 1.976.84 1.064.7 1.064 1.4 1.52.56 1.52 1.68c0 1.12.304 3.78.304 3.78s0 1.54.912 2.1.76.7.304 1.4-.304 1.82-.304 2.38c0 .56.304.84-.456 1.4-.76.56-1.064 1.26-.608 2.1.456.84.304 1.4 1.52 2.38s1.064 1.4 1.064 2.1c0 .7 1.216 1.68 1.216 2.38s.912 1.54 1.672 1.68c.76.14 1.672 1.4 1.672 2.1 0 .7.152 2.52.152 2.52s-.152.42.76.42 1.52.98 1.824-.14c.304-1.12 1.216-1.26 1.824-1.54.608-.28 1.824-.84 2.432-.42.608.42 1.368.42 1.976.42.608 0 3.496.14 3.496.14s.76-.14 1.216.98c.456 1.12 1.824 2.38 1.064 2.94s-.76 1.68.152 1.68 1.824 0 1.824.7.152 1.26.912.84c.76-.42 1.216-.56 1.52 0 .304.56.912.56 1.672.98.76.42 1.064.14 1.52-.42.456-.56 2.28-1.12 2.28-1.12s2.432-.56 3.344-.28c.912.28 2.128.84 2.128.84s.608 1.4.304 2.24c-.304.84-.608.7-.304 1.96s-.304 1.4-.912 1.26c-.608-.14-1.216-.14-1.216.98s-.608 1.4-.608 2.38 0 .84-.608 1.26c-.608.42-.76 1.12.152 1.26.912.14.608 1.12.608 1.68 0 .56-.152 1.82-.152 1.82s.152.7-.912.7-1.976-.14-2.128.56c-.152.7-1.368 1.82-.304 2.52s.76 1.12.152 1.4c-.608.28-1.064 1.68.152 2.1 1.216.42 1.064.84.304 1.4-.76.56-2.28.98-2.28 1.82 0 .84-.304.84-1.216.98-.912.14-1.368 1.26-.304 2.66 1.064 1.4 1.368 1.12 2.128 1.12s.76-1.12.76-1.12 2.584.14 3.344.14c.76 0 1.824 0 2.432-.42.608-.42 2.28-1.12 2.28.14 0 1.26.304 1.12 1.064 1.68.76.56.912.14 1.52.98s.76.14 1.216-.84c.456-.98 1.368-1.96 2.128-.84s.76.84 1.672.84c.912 0 1.216.42 1.216 1.12 0 .7.912.7 1.976.56 1.064-.14 1.216.56 1.672 1.26.456.7.608.56 1.216.56s1.216 0 1.672-.56c.456-.56 1.064-1.26 1.672-.42.608.84 1.824.7 2.128-.28.304-.98 1.672-1.82 2.432-.7s1.368 1.12 2.128 1.26c.76.14 1.824.14 2.28.84.456.7 1.976 1.82.912 2.66-1.064.84-2.28 1.96-1.368 2.24.912.28 1.52.56 2.128 1.26.608.7 2.584.98 3.496 1.12.912.14 1.672.28 2.736-.56 1.064-.84 2.128-.84 1.976.28-.152 1.12.456 2.38.456 2.38s.76 1.82.76 2.52-.152.84 1.216 1.68c1.368.84 1.216 1.4 2.28.56 1.064-.84 1.368-1.26 1.368-1.96v-2.24s1.52-.28 2.128-.7c.608-.42 3.04-1.68 3.648-1.12.608.56 1.368.42 1.976.14.608-.28 1.824-.28 2.432-.28.608 0 1.672.14 2.888-.84s1.216-.7 1.976 0 .76 1.54.304 2.1 0 1.82 1.064 1.82 1.368.56 1.368 1.26.152 1.68.304 2.24c.152.56.152.84 1.824 1.26 1.672.42 1.368 1.4 1.672 2.1.304.7.304 1.26-.608 1.26-.912 0-1.216.42-1.368 1.12-.152.7-1.52.98-1.52.98l-1.368-.28s-.912 0-1.368.56c-.456.56-1.368 1.68-.76 2.66.608.98.608 1.54 0 1.96-.608.42-.912 2.52-1.52 2.1-.608-.42-1.368.14-1.976.42-.608.28-.456 2.24.76 2.94 1.216.7 1.52 1.68 1.52 1.68l1.368 2.1s-.456.42-.76 1.12c-.304.7-1.216 2.1-.304 2.38.912.28.456 1.82-.456 1.82s-1.976-.42-2.128.7c-.152 1.12-.608.84-1.52.7s-3.192-.7-3.8.42c-.608 1.12-.76 1.54-1.824 1.4-1.064-.14-.608 1.68-.304 2.38s1.368 1.68 1.368 1.68.912.7.912 2.1c0 1.4-.608 1.26-1.216.28s-1.824-.84-1.976.28c-.152 1.12-.304 2.8-1.368 2.8s-1.52.28-1.976.84c-.456.56-1.216 1.54-1.216 2.1s-.152 1.12-.912 1.26c-.76.14-.912 1.68-.912 1.68s-1.824.28-1.976.98c-.152.7.152 1.82-1.368 1.96-1.52.14-2.432 1.12-2.888 1.82-.456.7-.608 1.26 0 1.96s1.064 2.94 1.824 3.36c.76.42 1.368.56 1.216 1.68-.152 1.12-1.064 1.96.152 1.96s1.976.28 1.52 1.26c-.456.98-.456 1.12-1.368 1.54-.912.42-1.368.42-1.368 1.54s.304 1.12-.456 1.54c-.76.42-.76.98-.76 1.82 0 .84-.304.56-1.216 1.54-.912.98-2.128.98-2.888.7-.76-.28-.912-.28-1.064-1.12-.152-.84-1.52-.84-2.28-.7-.76.14-1.824.98-1.824.98s-1.368.84-.76 1.54c.608.7.304 1.82-.76 1.68-1.064-.14-3.496 1.12-4.256-.14-.76-1.26-2.888-2.1-3.192-.42-.304 1.68.912 1.54.76 3.22-.152 1.68-.456 1.68-1.064 2.24-.608.56-.608.98-.76 1.68-.152.7-.304 2.24.76 2.8 1.064.56 1.52 2.1 1.52 2.94 0 .84 0 1.68 1.064 1.68s1.976-.14 2.128-1.12c.152-.98 2.28-1.54 2.432.42.152 1.96.152 2.94.912 3.78.76.84 1.368 1.96 1.976 2.38.608.42 1.634 3.99 1.634 3.99-1.482.315-1.862 2.24-2.812 2.625-.532.21-1.102.035-1.596.385-.38.28-.38.805-.912 1.05-1.102.49-.912-1.225-2.242-.595-1.216.56-1.33 1.96-3.078 1.365-.912-.315-1.482-3.885-1.748-4.725-.152-.49-1.102-1.96-1.406-2.415-1.026-1.54-3.078 0-3.724-.455-1.026-.7-.57-1.89-2.128-2.03-3.154-.21-.912 1.925-2.242 2.415-2.546.91-2.546-2.38-4.446-.875-.722.56 1.14.91.684 1.89-.38.805-2.242 2.03-2.128 2.975.152 1.295 1.558 1.68 1.976 2.765 1.14 2.87-.76 4.865-3.61 2.625-1.596-1.26-1.9-3.605-4.37-3.43-.57.035-.76.63-1.33.7-.57.035-1.026-.525-1.634-.35-.912.315-.114.945-.304 1.47 0 0-1.216 1.015-1.406 1.295-.684.91-.456 1.715-1.444 2.45-.836.63-1.482.245-2.394 1.225-.95 1.015-1.026 2.52-2.242 3.5-.608.49-1.026-1.47-1.786-.175-.114.175-.228.35-.304.525-.19.385-.228.56-.038.98 1.596 3.08-1.748 4.235-2.774 6.405-.456.91.798 1.75.304 2.45-.342.525-1.824 1.96-1.938 2.275-.114.315-.266 1.015-.532 1.26-.266.28-1.178.14-1.254.56-.076.49.95.875 1.216 1.19.342.385-.152.91-.038 1.015 1.71 1.715.684 1.19 1.558 2.695.114.21.646-.175.836.385.19.525-.418.49-.19 1.085.038.175 1.254 1.75 1.254 1.785.076.525-2.318 1.61-2.85 1.61-1.444.035 1.254-2.975-1.102-2.975-1.026 0-1.102 2.345-1.368 2.59-.114.105-1.064 0-1.292 0-1.52 0-2.508 1.89-3.116 2.065-.38.14-1.216-.21-1.862-.105-.608.105-1.33.7-1.9.7-.38 0-.57-.245-.874-.42-.684-.385-1.938-.56-2.698-.805-.418-.14-1.216.525-1.482.35-.494-.315.342-1.19-.798-1.82-.152-.07-.988-2.1-.95-2.205.38-1.33.798-2.765.608-4.165-.228-1.435-2.47-2.66-3.078-3.815-.456-.875-.874-3.185-1.748-3.78-.95-.63-1.824-1.855-2.318-2.8-.152-.28.304-.77-.038-1.26-.38-.525-1.102-.735-1.292-1.435-.152-.56 0-2.38-.646-2.765-.722-.42-5.358-.98-6.498-1.085-.608-.035-1.064-.035-1.52-.49-.19-.175-.494-.91-.646-.91-.456-.035-.988.21-1.444.245-.342.035-.912-.21-1.216 0-1.482 1.015-1.862 2.31-3.268 3.395-1.444 1.085-3.04 1.05-4.484 2.31-.912.805-1.52 2.73-2.432 3.64-.38.385-.988 0-1.14.175-.76.945-1.824 1.505-2.584 2.38-.152.175-.114.525-.304.665l-1.634.42c-.418.07-1.216-.035-1.558.07-.76.245-.722 1.05-3.306 1.575-.19.035-.532.21-.684.315-.304.21-.532.525-.836.735-.19.14-.76-.105-1.102-.07-.646.105-1.026.665-1.634.735-1.368.175-3.572-.63-4.636-.21-.646.245-2.432 2.24-3.078 2.45-.418.14-.722-.035-1.178-.21-.228.28-.76 2.45-.95 2.94 0 .035-2.926 2.485-3.154 2.765-.38.42-.532.875-.988 1.33-.304.315-.798.595-1.292.595-.608 0-1.52-.455-2.09-.56-1.102-.175-4.408-.315-5.396-.105-1.026.21-.722 3.15-3.268 3.43-1.482.175-2.85.455-4.37.595-.152 0-1.064-.63-1.976-.385-.342.105-1.444 1.225-1.444 1.575v.63c0 .105.304.49.266.525-.57.665-1.862 1.715-2.28 2.485-.114.21-.266.455-.456.595-.342.245-2.09.91-2.242 1.225-.418 1.05 1.216 2.03 1.064 2.45-.456 1.365-2.28 2.66-2.85 3.92-.228.525.608 2.275.57 2.87-.19 1.645-.76 3.745-.684 5.355 0 .315.228 1.96.342 2.135.19.315.608.49.874.77s2.28 4.2 2.356 4.62c.38 2.905-3.838 1.89-1.406 4.795.38.455.684.945 1.102 1.33.532.525 3.648 2.8 3.686 3.045.076.42-2.508.84-2.964 1.295-1.216 1.19-2.242 3.395-3.42 4.62-.722.77-1.368-.07-2.318 1.715-.342.665 0 2.17-.418 2.59-.608.63-1.102-.21-1.71.07-.266.105-.418.875-.684 1.085-.684.595-6.764 3.815-7.334 3.535-.304-.14-.646-1.155-.684-1.47-.076-.35-.456-1.12-.76-1.365-1.558-1.33-3.952-1.575-5.472.035-.38.42-.418 1.05-.912 1.47-.836.7-1.786 1.33-2.584 2.03-.152.14-.608.665-.798.63-.608-.07-2.09-1.75-2.47-2.205-.684-.805-2.66-2.73-2.85-3.64 0-3.115-2.432-6.37-3.458-9.415l1.52.035c1.71-1.155 1.216-3.99 4.294-2.87.38-.525.342-1.085 1.064-1.47.266-.14.76-.28.912-.525 1.026-1.575 2.242-7.595 1.178-9.135-.95-1.4-1.938-1.33-2.698-3.64-.228-.63.19-1.365 0-2.065-.152-.56-1.178-3.885-1.33-4.13-.19-.28-.836-.63-.874-.805-.038-.28-.266-3.885-.152-4.165-1.026-2.8-4.484-4.585-4.674-4.9-.418-.665-.836-1.54-1.292-2.275-.532-.875-.532-1.33-.836-2.17-.114-.385-.684-.7-.722-1.12-.076-.735 2.014-2.275 1.938-3.57-.038-.42-1.33-1.68-1.064-2.38.266-.735 1.596-2.38 1.558-3.185-.076-1.085-2.09-3.43-2.356-4.585-.114-.56.798-1.015.57-1.4-.266-.49-2.394-2.415-2.736-2.975-.266-.42.798-.98.038-1.75-.684-.7-.114-.455-.304-1.05-.228-.665-.988-1.26-1.292-1.96-.266-.595-2.09-7.175-2.052-7.56-.304-.455-.836-.84-1.102-1.295-.266-.455-.38-1.33-.608-1.68-.038-.035-2.052-.63-2.432-1.225-.304-.49-.38-2.1-.912-2.905-.266-.385-.684-.315-.988-.595-.266-.21-.228-.595-.418-.84-.608-.84-1.824-.07-2.66-3.15-1.102-.77-2.128-1.435-3.078-2.38-.19-.175-.304-.385-.532-.49-.76-.315-1.9-.42-2.546-.98-.38 0-2.394-.07-2.622-.21-.228-.14-.456-1.015-.608-1.05-1.064-.21-2.812-.105-3.724-.875-.722-.63-.874-3.675-2.166-3.255-.152-.07-.342-.14-.532-.105-.836-1.085-3.724-1.225-4.902-1.925-.342-.21-1.444-.035-1.444-.35.266-.595.19-1.085.228-1.68-.646-.63-1.064-1.365-1.52-1.82-1.102-.245-.684-.35-1.368-.77-1.9-.14-2.09.175-3.306 1.295-.304.28-.912.35-1.292.56-.646.35-.836 1.505-1.748.98-.304-.175-.494-.455-.722-.665-.532-.455-.836-.21-1.102-1.05-1.558-.84-5.852 2.065-6.878.035-.722-.385-1.254.105-1.862-.525-.304-.315.836-3.815-2.28-5.25.722-.56 1.482-.945 2.166-1.47.19-.385-.038-.98-.038-1.365 0-.595.38-1.75.266-2.17-.114-.42-.57-.77-.722-1.26-.19-.49.038-1.12-.228-1.645-.19-.14-.76-.49-.988-.49-.798-.665-1.672-1.085-2.318-1.89-.152-.175-.266-.49-.456-.63-.57-.42-2.432-.98-2.356-1.855.038-.28.418-.315.532-.595.114-.35.038-.805.304-1.12.874-1.19 2.812-.665 2.508-2.87-.152-.98-.836-1.82-1.026-2.87-.342-.245-.38-.665-.684-.91-1.9-.175-1.634-2.135-2.318-2.59-2.014-1.365-3.572-.525-1.33-3.22.304-.875-1.938-2.275-2.394-2.765-.798-.77-.418-2.38-.722-3.22-.152-.42-1.482-1.155-1.9-1.75-.114-.175-.456-1.085-.646-1.19l.038-.28c.418-.315.19-.945.076-1.365-.266-.245-.836-.175-1.026-.35-1.824-1.645-4.028-2.38-6.422-3.325-.646-.245-.456-.77-.988-1.015-.456-.21-3.686-1.645-3.914-1.575-.38-.105-.646-1.54-.912-1.995-.228-.42-1.14-1.19-1.14-1.225.076-1.33-.76-1.505-1.786-2.205.076-.175-.114-.595-.114-.805 0-.175.684-2.485.798-2.8.19-.49.836-.945.722-1.505-.152-.875-.266-2.24-.57-3.01-1.026-2.73-2.242-2.38-1.596-5.95.152-.735-.114-1.155.456-1.82-.076-.035.266-.385.304-.455.342-.315 1.292-.84 1.482-1.085.57-.77.912-2.52 1.634-3.08.532-.42 2.052-1.225 2.318-1.575.228-.28.57-1.155.38-1.505-.532-.315-1.064-.175-1.596-.245-.19-.035-.874-.525-1.406-.63-.152-.175-.418-.385-.418-.63l-.228-.21c-.608-.07-1.292-.455-1.824-.63-.684-.28-1.634-.315-2.28-.7-1.216-.7-2.584-2.625-3.762-2.905-1.596-.35-2.622.14-4.142.21-.988.07-.988-.525-1.786-.77-1.064-.315-.266.56-2.698-.21-.304-.245.152-1.085.19-1.4-.38-.105-.836.105-1.292 0-2.014-.49-1.254-2.31-1.786-3.5-.228-.28-1.064-.21-1.444-.245-.114-.035-.152-.21-.114-.28l.19-.14c.342-.525-.874-1.855-.836-2.03.076-.42 2.546-.805 2.888-.84.114-.315-.228-.595-.266-.91-.076-.7.38-1.61.608-2.24l-.076-.21c-.684-.385-.912-.945-1.52-1.4.038-.315.456-.525.532-.84 1.178-3.255 3.002-.665 4.598-3.675.152-.28.608-1.015.76-1.505l.304-.07c.304.07.722.315 1.026.21.228-.315.722-.42 1.102-.525l.57.14c2.964-.63 2.28-1.715 3.99-2.94.456-.315 1.786-.455 2.394-.665.646.28 1.558 1.295 2.774 1.75.874.35 3.876.98 4.37 1.26.646.35.76 1.19 1.33 1.505 1.71.91.722-.63 2.356-.315 1.672.35 3.04 1.715 4.598 2.38.266.105.912-.035 1.216-.105.494-.105 3.154-.595 3.42-.49.304.105.76.385 1.064.455.38.07.684-.735.95-.7 1.14.175 1.178.63 2.698.49.076 0 .798-4.27 1.52-4.48.418-.105 1.558 1.015 1.9 1.085.57.14-.038-.875-.076-.945-.152-.35-.95-2.975-.912-3.22.038-.14.76.21 1.102.105.836-.28 1.976-.49 2.584-1.155.076-.07 1.368-1.925 1.406-1.995.076-.315-.342-1.05-.152-1.295.19-.21.912-.49 1.254-.84.494-.49.57-1.33 1.254-1.68 2.698-.245 3.648-2.345 6.08-2.625.152 0 .684-.105.798-.07l.494.805c.152.21 1.786 1.19 2.052 1.12.228-.035.342-.42.57-.49.494.07 1.862-.77 2.014-1.19.038-.07-.304-.49-.152-.77.114-.21 1.824-1.47 2.09-1.61.608 0 1.254-.14 1.824.07.342.14.38.665.76.735.418.035 1.178-.14 1.482-.07.342.07.494-.63.912-.665z"/>
    <g id="b">
        <use xlink:href="#a" x="461.835" y="121.826"/>
        <use xlink:href="#a" x="544.233" y="136.356"/>
        <use xlink:href="#a" x="622.857" y="164.972"/>
    </g>
    <use xlink:href="#b" x="-840" transform="scale(-1 1)"/>
</svg>
