<svg xmlns="http://www.w3.org/2000/svg" viewBox="0 0 2100 1400">
    <path fill="#198a00" d="M0 0h2100v1400H0z"/>
    <path fill="#ef7d00" d="M1850 500h250v900h-250z"/>
    <path d="M1600 500h250v900h-250z"/>
    <path fill="#de2010" d="M1350 500h250v900h-250z"/>
    <g fill="#ef7d00" stroke="#000" stroke-width="2.25" stroke-linecap="round" stroke-linejoin="round">
        <path d="M1916.425 168.334s86.002-33.706 94.334-40.656c3.79 4.17-34.476 46.564-108.731 62.2 67.435-14.594 125.023-60.462 136.768-59.072 3.41.695 2.65 44.826-151.923 83.05 106.837-25.715 168.97-72.973 168.213-67.76.757 1.042-10.608 37.18-104.185 65.327 26.141-5.56 96.987-45.174 96.23-37.529 2.272 3.128-68.574 86.524-196.627 59.421 102.292 24.324 168.59-34.402 178.062-33.36 1.895.348-18.944 51.429-147.753 54.556 61.755-5.907 43.946-.348 43.946-.348s-36.37 26.061-80.317 8.341c34.476 8.688 38.264 9.034 39.021 11.814-2.272 3.474-30.687 8.687-57.964-4.866 21.973 8.34 41.674 9.73 42.052 12.858-.378 1.042-14.395 8.34-26.897 3.128-12.502-5.214-127.676-70.193-127.676-70.193l196.249-49.343zm-230.712 175.771c-17.257 0-17.734 14.085-17.734 14.085s-1.424 1.017-.474 7.844c2.85-4.649 4.275-6.1 4.275-6.1 1.9.29 9.816 2.468 22.324-6.535-11.4 10.89-4.59 14.957-4.59 14.957s-2.692 8.568 6.014 10.311c-2.69-3.486-1.107-6.535-1.107-6.535s12.19-1.161 11.4-14.811c.475 12.341 7.758 15.391 7.758 15.391s0 6.825 7.915 7.407c-4.273-3.486-3.325-8.859-3.325-8.859s10.292-6.825 1.584-18.443c5.225-2.76 9.5-10.455 9.5-10.455s-7.124-2.76-10.449-5.082c-1.585-3.051-.158-19.75-.158-19.75l-4.276-21.639-12.192 33.693c.474-4.793.792 14.521-16.465 14.521z"/>
        <path d="M1770.944 295.514c.378.348 12.882 13.206 25.004 12.51 4.545-3.474-9.472-11.119-9.472-12.857 4.925 4.17 25.762 20.501 39.023 14.594 5.303-6.95-9.472-5.906-25.763-24.671 11.365 6.95 39.78 22.239 53.04 16.332 5.685-5.56-29.551-22.936-41.296-36.487l-30.307-14.246-41.296 30.927zm-46.599-105.635s14.017-7.645 70.088-3.823c6.062.695 38.264-10.077 48.494-13.204 16.29-2.78 68.193-13.205 82.212-22.935 9.85-1.042-2.654 16.68-15.154 20.85-13.262 5.56-61.376 20.849-78.425 18.764 20.459.348 9.094 15.637-25.005 8.34 16.292 8.34 10.23 9.73 10.23 9.73s-28.792 1.39-36.37-4.518c19.323 6.602 11.366 9.035 11.366 9.035s-19.7 1.737-28.794-2.085c14.017 3.822 6.82 6.255 6.82 6.255s-11.365 1.737-20.837-1.39c-9.47-3.128-23.868-25.02-24.625-25.02zm22.482 112.837 2.06 33.982s-1.11 1.743-2.06 2.76c-.95 1.016-26.283-3.632-22.8 14.085 0 7.262.16 9.149 5.543 13.215-1.426-4.792-.95-8.131-.95-8.131s7.124 3.921 14.091-6.825c-4.75 10.6-1.426 14.376-.317 14.667 1.109 1.889-1.899 10.455 7.6 10.31-3.64-3.195-1.9-7.843-1.9-7.843s9.976-1.45 6.492-18.006c3.642-3.34 5.066-.145 5.066-.145s1.108 9.874 9.816 7.842c3.96 2.032-.632 7.405-.632 7.405s6.332.146 8.232-4.792c1.9-4.937 4.117-13.796-6.334-17.426-1.266-3.484 4.118-3.775 4.118-3.775s6.65 2.032 8.549 5.082c1.9 3.05 1.267-7.986-6.966-9.149-10.133-.291-10.766-2.178-10.766-2.613 0-.437-1.741-24.687-2.533-31.658z"/>
        <path d="M1782.069 331.675c.124-1.558-17.286-23.059-12.869-25.838 4.415.833 11.656 10.613 17.522 7.438-1.778-3.811-7.018-1.665-12.97-11.423-5.948-11.032-6.817-27.593-27.654-45.658 13.49 19.116 44.092 30.322 45.388 24.748 1.296-5.575-26.946-26.653-25.5-31.733 5.617 10.433 33.975 33.678 54.868 31.753 1.432-4.475-17.11-13.508-21.881-21.942-13.347-8.224-49.065-36.462-49.78-43.011-12.998-17.387-21.111-22.647-24.89-24.65-1.46-1.577-1.826-3.085-2.112-4.044-8.068-17.446 2.619-23.11 8.874-23.949 5.147-.524 6.642.182 10.346-1.463-4.386-1.574-8.77-3.046-13.156-4.62 5.719 3.848 20.325.46 17.16 11.542 6.403-2.235 20.03-17.104-15.444-20.46-11.545-12.147-59.009-19.128-70.89 33.888.95.743 1.446 1.354 4.465 3.422-14.989-6.663-55.421-11.802-69.992-13.961-39.364-10.417-80.244-35.52-84.174-32.433-5.256 2.14 23.784 26.92 22.274 27.468-25.18-13.466-48.182-23.006-69.585-31.687-15.058-5.163-30.14-17.182-31.802-14.896-5.542 10.53 24.14 36.996 29.662 40.11 5.523 2.978 48.947 21.453 48.307 21.684-65.406-27.229-76.372-32.165-79.654-35.305-5.764-1.19-19.807-18.581-23.72-17.463-2.143 1.93 2.154 29.41 33.364 41.744 5.087 3.4 66.9 23.739 66.295 25.333-.15.399-70.798-26.743-73.542-27.714-13.621-4.899-30.334-22.07-33.459-20.14-2.982 1.753 7.705 20.339 21.468 26.168 7.215 2.92 34.887 15.492 59.819 23.493 1.591.527-44.815-16.141-67.126-24.693-10.116-5.15-14.88-11.568-16.42-10.187-2.28 1.38 3.682 28.837 75.38 44.33 1.888.737 25.237-5.074 24.083-4.303-.289.193-23.186 4.765-25.415 4.608-1.984-.278-14.528 1.362-14.755 1.959-.758 1.857 4.545 11.688 41.564 9.638 4.733-.261 30.416-8.579 28.258-6.79-1.08.896-34.973 10.997-37.554 11.196-2.242.291-14.15 1.433-14.59 2.595-.537 1.584 8.814 8.58 28.694 9.702 17.602.857 51.05-9.865 50.378-9.17-.67.695-32.244 10.618-33.07 11.223-1.142.593-12.704 1.168-13.11 1.982-.942 2.026 16.678 17.138 68.787 1.01-5.235 6.486-30.493 10.921-30.457 12.09-.117.847 5.565 5.882 14.396 7.684 4.415.9 10.46.717 15.982-.083 9.918-1.821 20.37-5.42 33.65-16.678 1.587 3.533-33.174 19.668-31.542 21.207 7.537 6.41 32.576-.827 34.216-1.667 1.641-.842 48.215-24.93 48.055-27.718.723 3.573-60.046 33.859-59.39 35.101 3.9 5.71 24.66-.3 25.652-.825.99-.523 26.493-13.16 27.192-13.532.697-.373-29.973 16.464-27.24 19.027-1.321 10.933 47.898-7.546 51.755-9.847 1.929-1.15-23.644 10.313-23.712 15.759 8.235 12.77 34.603 8.719 38.67 5.91 2.035-1.405-2.393 9.486-.967 8.497.497-.205 5.735-5.886 7.75-9.998-.643 3.568-3.534 9.189-5.22 15.638-1.69 6.449-2.173 13.726-4.49 21.458-.532 3.396 16.247-6.64 13.81-30.631 1.436 12.479-5.299 35.813-3.536 37.026 3.525 2.426 13.27-11.621 14.255-21.12 2.894 4.798 8.968 14.813 14.193 17.117-.569-7.258.1-6.925-2.252-14.059 1.357-9.47 1.546-22.578 1.874-37.38 14.199 24.948 19.862 35.483 15.895 54.588 4.222 1.615 10.966-13.335 10.422-21.03 5.422 21.381 28.825 24.587 29.197 23.965z"/>
        <path d="M1545.575 173.288s-9.664 6.697-21.69 6.303c3.006 11.03 27.918 2.56 27.918 2.56s-12.027 12.213-20.617 14.183c5.154 3.94 26.845 2.56 30.497.591 3.65-1.97 10.093-9.652 10.093-9.652s-22.335 23.637-25.557 23.44c-.43 2.758 23.41 1.773 28.35-2.363 4.938-4.137 17.394-10.243 17.394-10.243s-32.643 20.88-34.147 20.88c12.241 2.954 36.724-3.546 52.402-12.41-23.195 14.182-25.34 16.743-37.153 21.47 10.524 2.167 15.89 8.668 51.542-5.515 20.403-8.864 31.998-25.016 31.998-25.016-12.67 15.561-32.644 28.76-54.762 41.76-1.29 2.363 23.622 12.014 55.406-18.32m60.992 18.122s2.148 9.258 10.738 16.35c8.592 7.09 9.236 13.984 9.236 13.984m-24.268-90.609s3.006 8.273 11.811 13.592c9.02 5.318 22.552 22.06 23.625 25.016 1.04 3.576 6.227 29.35 5.798 32.106"/>
        <path d="M1659.184 191.606c.644 3.152-12.672 19.107 5.582 37.82-16.537 18.515-16.535 20.88-16.535 20.88s9.234 4.727 25.77-8.274c27.274 30.73 18.186 44.792 18.186 44.792"/>
        <path d="M1690.014 265.13s-2.512-3.3 1.967-15.626c4.033 4.456 8.518 5.407 10.484 7.211 1.965 1.804 22.558 4.538 23.867 17.16m-12.109-124.443c0-.927-4.147-9.088-19.616 1.113 8.29.464 16.48 4.822 19.616-1.113zm147.646 37.319c.757.348 46.22 9.382 61.375 4.865-19.322 23.63-57.965 7.645-57.965 7.645 18.942 5.212 19.701 4.865 25.761 9.73 1.895 4.517-34.854 2.432-46.978-3.823 33.719 9.73 34.476 9.035 35.614 12.857 1.517 5.212-55.314-1.39-60.239-8.34 15.155 10.772 23.49 12.857 31.824 17.722-10.23 4.17-29.171 8.339-64.027-14.247 45.84 38.224 87.137 35.79 93.579 42.74-15.912 21.545-77.667-12.856-106.082-30.23-28.414-17.375 62.133 42.046 70.47 41.003-4.17 5.907-34.098.695-35.993-2.085m64.405-37.876c-5.302.695-21.214.695-23.487.348m-317.866-60.076s34.576 16.743 49.18 15.562c-3.866 3.348-9.666 4.727-9.666 4.727 3.652 1.379 13.746 6.303 28.995 3.152-3.652 3.348-8.377 7.091-8.377 7.091s13.101 4.53 27.92-2.56c-4.51 5.12-7.089 8.863-7.089 8.863l10.31.591"/>
    </g>
</svg>
