<svg width="100" height="60" xmlns="http://www.w3.org/2000/svg"><g fill="none" fill-rule="evenodd"><rect fill="#8DC640" width="100" height="60" rx="4"/><path d="M84.654 29.138c-.453.31-1.11.465-2.01.465h-.892l.684-3.637h.657c.746 0 1.291.118 1.667.358.294.188.642.561.642 1.269 0 .852-.405 1.31-.748 1.545zm-53.217 4.564h-6.903l.446-2.377h4.33l.492-2.677h-4.289l.415-2.353h6.892l-1.383 7.407zm56.936-9.447c-1.015-.685-2.551-1.03-4.565-1.03h-5.274l-1.96 10.478h-6.91l.443-2.377h4.163l.495-2.67-4.16.007.445-2.367h4.287l.57-3.071h-8.708l-1.86 9.94h-3.193l1.874-9.94h-4.552l-1.861 9.94h-3.113l1.876-9.94h-4.548l-1.965 10.478h-6.958l.438-2.377h4.181l.493-2.655-4.175-.004.443-2.371h4.335l.567-3.071H22.053l-1.544 8.304-3.076-8.304H12.71l-2.54 13.55h4.508l1.538-8.531 2.985 8.531h16.161l1.964-10.48h2.53l-1.966 10.48h42.523l1.232-6.616 1.996 6.616h4.512l-2.067-5.405.472-.1c1.04-.22 1.853-.692 2.418-1.4.566-.713.853-1.63.853-2.731 0-1.282-.476-2.225-1.457-2.884z" fill="#FFF"/></g></svg>