<svg xmlns="http://www.w3.org/2000/svg" width="20" height="15" fill="none"><mask id="a" width="20" height="15" x="0" y="0" mask-type="alpha" maskUnits="userSpaceOnUse"><path fill="#fff" d="M0 0h20v15H0z"/></mask><g mask="url(#a)"><path fill="#F7FCFF" fill-rule="evenodd" d="M0 0v15h20V0H0Z" clip-rule="evenodd"/><mask id="b" width="20" height="15" x="0" y="0" mask-type="alpha" maskUnits="userSpaceOnUse"><path fill="#fff" fill-rule="evenodd" d="M0 0v15h20V0H0Z" clip-rule="evenodd"/></mask><g fill-rule="evenodd" clip-rule="evenodd" mask="url(#b)"><path fill="#FF0122" d="M0 0v2.5h20V0H0Z"/><path fill="#FF8C01" d="M0 2.5V5h20V2.5H0Z"/><path fill="#FECA00" d="M0 5v2.5h20V5H0Z"/><path fill="#73BE4A" d="M0 7.5V10h20V7.5H0Z"/><path fill="#5770ED" d="M0 10v2.5h20V10H0Z"/><path fill="#871FF0" d="M0 12.5V15h20v-2.5H0Z"/></g></g></svg>