<svg xmlns="http://www.w3.org/2000/svg" id="flag-icon-css-ws" width="640" height="480">
  <g fill-rule="evenodd" stroke-width="1pt">
    <path fill="#ce1126" d="m0 0h640v480h-640z"/>
    <path fill="#002b7f" d="m0 0h320v240h-320z"/>
    <path fill="#fff" d="m180.08 229.26-20.74-13.937-19.911 14.103 6.471-24.888-19.081-15.265 24.556-1.4933 8.1302-23.561 8.7939 23.893 24.059 0.82962-19.081 16.26zm-3.6503-165.59-16.592-10.619-16.094 10.453 4.4799-19.911-14.601-12.776 19.413-1.6592 7.1346-18.583 7.4665 18.749 19.081 1.6592-14.767 13.274zm-73.006 59.566-16.094-11.117-16.592 11.117 5.1436-19.413-15.099-12.776 19.247-0.99554 6.9687-19.081 6.8028 18.915 19.579 1.1615-14.933 12.444zm146.51-13.274-15.431-9.9553-14.933 9.9553 4.314-18.251-13.937-11.78 18.251-1.4933 6.305-17.256 6.9687 17.422 17.754 0.99553-13.772 12.278zm-43.14 43.472-10.287-6.471-10.287 6.6369 2.6548-12.278-9.1257-8.2961 11.946-0.99554 4.6458-11.615 4.8117 11.615 11.946 0.99554-9.1257 8.2961z"/>
  </g>
</svg>
