<svg viewBox="0 0 24 24" fill="none" xmlns="http://www.w3.org/2000/svg"><path d="M12 2.78a9.22 9.22 0 1 0 6.145 16.093 6.65 6.65 0 0 1-3.695 1.129c-2.197 0-4.162-1.09-5.487-2.807-1.02-1.204-1.678-2.982-1.724-4.979v-.436c.046-1.997.704-3.776 1.724-4.978 1.322-1.718 3.29-2.808 5.487-2.808a6.65 6.65 0 0 1 3.695 1.13 9.189 9.189 0 0 0-6.11-2.346h-.037L12 2.78z" fill="url(#paint0_linear_29_513)"/><path d="M8.965 6.804c.844-.998 1.94-1.602 3.132-1.602 2.685 0 4.863 3.046 4.863 6.796 0 3.754-2.176 6.796-4.863 6.796-1.192 0-2.286-.601-3.132-1.6 1.321 1.718 3.288 2.808 5.486 2.808a6.66 6.66 0 0 0 3.696-1.129A9.192 9.192 0 0 0 21.22 12a9.194 9.194 0 0 0-3.075-6.873 6.65 6.65 0 0 0-3.695-1.129c-2.197 0-4.162 1.09-5.487 2.808" fill="url(#paint1_linear_29_513)"/><defs><linearGradient id="paint0_linear_29_513" x1="10.459" y1="3.083" x2="10.459" y2="20.954" gradientUnits="userSpaceOnUse"><stop offset=".6" stop-color="#FF1B2D"/><stop offset="1" stop-color="#A70014"/></linearGradient><linearGradient id="paint1_linear_29_513" x1="15.101" y1="4.128" x2="15.101" y2="19.945" gradientUnits="userSpaceOnUse"><stop stop-color="#9C0000"/><stop offset=".7" stop-color="#FF4B4B"/></linearGradient></defs></svg>