<svg viewBox="0 0 24 24" fill="none" xmlns="http://www.w3.org/2000/svg"><g opacity=".53" filter="url(#filter0_f_29_514)"><path d="M21.122 12.261c0 2.33-.961 4.564-2.672 6.211-1.71 1.647-4.03 2.573-6.45 2.573-2.419 0-4.739-.926-6.45-2.573-1.71-1.647-2.671-3.881-2.671-6.21 0-2.33.96-4.564 2.672-6.211C7.26 4.403 9.58 3.478 12 3.478c2.418 0 4.739.925 6.45 2.573 1.71 1.647 2.67 3.88 2.67 6.21z" fill="#000"/></g><path d="M21.469 11.486a9.468 9.468 0 1 1-18.937 0 9.468 9.468 0 0 1 18.937 0v0z" fill="url(#paint0_linear_29_514)" stroke="#CDCDCD" stroke-width=".093" stroke-linecap="round" stroke-linejoin="round"/><path d="M20.727 11.486a8.726 8.726 0 1 1-17.452 0 8.726 8.726 0 0 1 17.451 0z" fill="url(#paint1_radial_29_514)"/><path d="M12 3.214a.127.127 0 0 0-.127.127V4.81a.127.127 0 1 0 .254 0V3.341a.126.126 0 0 0-.078-.117.127.127 0 0 0-.049-.01zm-.832.053a.127.127 0 0 0-.14.14l.065.613a.127.127 0 1 0 .253-.026l-.064-.614a.127.127 0 0 0-.114-.113zm1.67 0a.127.127 0 0 0-.114.114l-.064.613a.128.128 0 0 0 .206.113.127.127 0 0 0 .047-.086l.064-.614a.125.125 0 0 0-.036-.103.128.128 0 0 0-.103-.037zm-2.525.123a.127.127 0 0 0-.124.154l.303 1.436a.127.127 0 1 0 .25-.053l-.304-1.436a.127.127 0 0 0-.126-.1zm3.38.002a.127.127 0 0 0-.125.1l-.305 1.436a.128.128 0 0 0 .098.151.127.127 0 0 0 .15-.098l.306-1.436a.126.126 0 0 0-.07-.14.127.127 0 0 0-.054-.013zm-4.197.228a.127.127 0 0 0-.132.167l.191.587a.127.127 0 1 0 .242-.079l-.19-.587a.127.127 0 0 0-.11-.088zm5.008 0a.127.127 0 0 0-.11.088l-.19.587a.127.127 0 0 0 .241.079l.191-.587a.127.127 0 0 0-.132-.166zm-5.815.296a.127.127 0 0 0-.114.18l.596 1.34a.127.127 0 1 0 .233-.103l-.596-1.341a.127.127 0 0 0-.119-.076zm6.631.005a.127.127 0 0 0-.118.076l-.598 1.34a.126.126 0 0 0 .024.14.128.128 0 0 0 .18.004.128.128 0 0 0 .028-.04l.598-1.34a.127.127 0 0 0-.114-.18zm-7.38.391a.127.127 0 0 0-.118.19l.308.536a.127.127 0 1 0 .22-.127l-.308-.535a.127.127 0 0 0-.101-.064zm8.12 0a.126.126 0 0 0-.102.064l-.309.535a.129.129 0 0 0-.012.096.128.128 0 0 0 .156.09.128.128 0 0 0 .077-.06l.308-.534a.128.128 0 0 0-.002-.131.128.128 0 0 0-.117-.06zm-8.847.454a.128.128 0 0 0-.098.202l.861 1.188a.127.127 0 0 0 .206-.15L7.321 4.82a.127.127 0 0 0-.108-.053zm9.583.006a.127.127 0 0 0-.108.053l-.863 1.187a.127.127 0 0 0 .206.15l.863-1.187a.126.126 0 0 0-.033-.182.127.127 0 0 0-.065-.02zm-10.233.54a.127.127 0 0 0-.1.212l.412.458a.127.127 0 1 0 .19-.17l-.414-.459a.127.127 0 0 0-.088-.042zm10.875 0a.127.127 0 0 0-.088.042l-.413.459a.127.127 0 1 0 .189.17l.413-.459a.127.127 0 0 0-.101-.212zM5.94 5.91a.127.127 0 0 0-.078.221l1.09.982a.127.127 0 0 0 .171-.189l-1.09-.981a.127.127 0 0 0-.093-.033zm12.124.004a.127.127 0 0 0-.092.033l-1.091.98a.127.127 0 0 0 .17.19l1.09-.981a.127.127 0 0 0-.077-.222zm-12.642.662a.127.127 0 0 0-.08.23l.5.363a.127.127 0 1 0 .15-.206l-.5-.362a.127.127 0 0 0-.07-.025zm13.16.005a.121.121 0 0 0-.071.024l-.5.363a.127.127 0 0 0 .055.228.127.127 0 0 0 .095-.023l.5-.362a.127.127 0 0 0-.08-.23zm-13.644.706a.127.127 0 0 0-.054.237l1.27.734a.127.127 0 1 0 .127-.22l-1.27-.734a.127.127 0 0 0-.073-.017zm14.125 0a.126.126 0 0 0-.073.017l-1.271.733a.127.127 0 1 0 .127.22l1.271-.733a.127.127 0 0 0 .02-.207.127.127 0 0 0-.074-.03zm-14.491.757a.127.127 0 0 0-.055.244l.564.251a.127.127 0 1 0 .104-.232l-.564-.252a.127.127 0 0 0-.05-.01zm14.859.005a.127.127 0 0 0-.05.012l-.564.25a.127.127 0 0 0-.036.21.128.128 0 0 0 .14.023l.564-.251a.128.128 0 0 0 .074-.144.127.127 0 0 0-.128-.1zm-15.185.787a.127.127 0 0 0-.029.248l1.395.454a.127.127 0 0 0 .08-.241l-1.396-.455a.127.127 0 0 0-.05-.006zm15.51.005a.123.123 0 0 0-.05.006l-1.395.454a.128.128 0 0 0-.088.11.129.129 0 0 0 .03.093.126.126 0 0 0 .136.039l1.396-.454a.127.127 0 0 0-.029-.247zm-15.714.826a.127.127 0 0 0-.027.252l.604.128a.127.127 0 1 0 .053-.249l-.604-.128a.125.125 0 0 0-.026-.003zm15.916.001a.156.156 0 0 0-.025.003l-.604.128a.127.127 0 0 0 .052.249l.604-.128a.127.127 0 0 0-.027-.252zm-16.07.835a.127.127 0 0 0 0 .253l1.459.154a.125.125 0 0 0 .093-.027.128.128 0 0 0 .042-.135.127.127 0 0 0-.108-.09l-1.46-.155h-.026zm16.225.011a.11.11 0 0 0-.026 0l-1.46.152a.125.125 0 0 0-.085.047.126.126 0 0 0-.013.14.127.127 0 0 0 .125.066l1.46-.152a.127.127 0 0 0-.001-.253zm-16.25.844a.127.127 0 1 0 0 .255h.618a.127.127 0 1 0 0-.255h-.617zm15.656 0a.127.127 0 1 0 0 .255h.618a.127.127 0 0 0 0-.255h-.618zm-14.147.694h-.026l-1.46.152a.128.128 0 0 0-.067.226c.027.021.06.031.094.028l1.46-.153a.127.127 0 0 0-.001-.253zm13.255.01a.127.127 0 0 0 0 .252l1.459.155a.127.127 0 0 0 .074-.239.128.128 0 0 0-.047-.014l-1.46-.155a.126.126 0 0 0-.026 0zm-13.983.858a.13.13 0 0 0-.025.004l-.604.128a.127.127 0 1 0 .053.248l.604-.128a.127.127 0 0 0-.028-.252zm14.712.002a.127.127 0 0 0-.027.252l.603.128a.125.125 0 0 0 .096-.018.126.126 0 0 0 .055-.08.128.128 0 0 0-.098-.151l-.604-.128a.13.13 0 0 0-.026-.003zm-13.695.5a.124.124 0 0 0-.05.007l-1.396.453a.127.127 0 1 0 .079.242l1.395-.453a.127.127 0 0 0 .05-.213.127.127 0 0 0-.078-.035zm12.676.005a.128.128 0 0 0-.117.113.127.127 0 0 0 .089.135l1.395.455a.125.125 0 0 0 .097-.008.128.128 0 0 0-.018-.234l-1.395-.455a.127.127 0 0 0-.05-.006zm-13.208.99a.127.127 0 0 0-.05.011l-.564.251a.128.128 0 0 0-.036.209.127.127 0 0 0 .14.024l.564-.251a.127.127 0 0 0-.054-.244zm13.74.005a.127.127 0 0 0-.054.243l.564.252a.127.127 0 0 0 .168-.065.128.128 0 0 0-.024-.139.127.127 0 0 0-.04-.028l-.564-.252a.126.126 0 0 0-.05-.01zm-12.642.276a.126.126 0 0 0-.073.017l-1.27.733a.127.127 0 0 0 .126.22l1.271-.733a.127.127 0 0 0-.054-.238zm11.546 0a.127.127 0 0 0-.108.178.13.13 0 0 0 .054.06l1.27.733a.128.128 0 0 0 .142-.01.128.128 0 0 0 .023-.178.127.127 0 0 0-.037-.033l-1.271-.733a.126.126 0 0 0-.073-.017zM5.91 15.774a.124.124 0 0 0-.07.025l-.5.362a.127.127 0 1 0 .15.206l.499-.362a.127.127 0 0 0-.08-.23zm12.177.005a.127.127 0 0 0-.079.23l.5.363a.126.126 0 0 0 .14.006.125.125 0 0 0 .058-.08.128.128 0 0 0-.049-.132l-.5-.363a.127.127 0 0 0-.07-.024zm-11.046.044a.127.127 0 0 0-.092.032l-1.09.981a.128.128 0 0 0-.036.137.127.127 0 0 0 .162.078.129.129 0 0 0 .043-.025l1.091-.981a.127.127 0 0 0-.078-.222zm9.915.003a.127.127 0 0 0-.079.222l1.091.982a.127.127 0 1 0 .17-.19l-1.09-.981a.126.126 0 0 0-.092-.033zm-8.88.932a.127.127 0 0 0-.107.053l-.863 1.187a.127.127 0 0 0 .206.15l.863-1.187a.127.127 0 0 0-.033-.182.126.126 0 0 0-.065-.02zm7.84.006a.127.127 0 0 0-.098.202l.861 1.188a.128.128 0 1 0 .206-.15l-.861-1.188a.126.126 0 0 0-.108-.052zm-8.954.183a.127.127 0 0 0-.087.042l-.414.459a.127.127 0 0 0 .19.17l.412-.458a.127.127 0 0 0-.1-.213zm10.075 0a.127.127 0 0 0-.101.213l.413.459a.126.126 0 0 0 .137.035.129.129 0 0 0 .072-.066.126.126 0 0 0 .005-.097.127.127 0 0 0-.025-.043l-.413-.458a.126.126 0 0 0-.088-.042zm-7.755.51a.126.126 0 0 0-.118.075l-.598 1.34a.127.127 0 0 0 .232.104l.598-1.34a.127.127 0 0 0-.114-.18zm5.428.003a.128.128 0 0 0-.125.118.128.128 0 0 0 .01.061l.597 1.341a.126.126 0 0 0 .12.076.126.126 0 0 0 .115-.082.126.126 0 0 0-.002-.097l-.597-1.341a.127.127 0 0 0-.118-.076zm-6.478.411a.127.127 0 0 0-.102.064l-.308.534a.127.127 0 1 0 .22.127l.308-.535a.127.127 0 0 0-.118-.19zm7.537 0a.127.127 0 0 0-.12.19l.309.535a.129.129 0 0 0 .127.063.127.127 0 0 0 .094-.19l-.31-.535a.128.128 0 0 0-.1-.063zm-5.155.019a.128.128 0 0 0-.126.101l-.305 1.436a.13.13 0 0 0 .018.095.128.128 0 0 0 .176.038.127.127 0 0 0 .055-.08l.305-1.436a.128.128 0 0 0-.124-.154zm2.768.001a.126.126 0 0 0-.124.154l.305 1.435a.13.13 0 0 0 .055.08.128.128 0 0 0 .176-.037.126.126 0 0 0 .017-.096l-.304-1.435a.127.127 0 0 0-.125-.101zM12 18.036a.13.13 0 0 0-.09.037.128.128 0 0 0-.037.09v1.468a.127.127 0 1 0 .254 0v-1.468a.127.127 0 0 0-.127-.127zm-2.336.474a.127.127 0 0 0-.11.088l-.19.587a.127.127 0 0 0 .242.078l.19-.587a.127.127 0 0 0-.132-.166zm4.67 0a.127.127 0 0 0-.132.166l.191.588a.127.127 0 0 0 .242-.079l-.19-.587a.127.127 0 0 0-.11-.088zm-3.133.327a.127.127 0 0 0-.114.114l-.064.613a.125.125 0 0 0 .027.094.128.128 0 0 0 .135.042.129.129 0 0 0 .09-.11l.066-.613a.125.125 0 0 0-.037-.103.127.127 0 0 0-.103-.037zm1.592.001a.128.128 0 0 0-.102.037.126.126 0 0 0-.037.103l.065.613a.127.127 0 1 0 .253-.026l-.064-.614a.127.127 0 0 0-.114-.113z" fill="#F4F2F3"/><g opacity=".409" filter="url(#filter1_f_29_514)"><path d="M17.963 6.397l-6.961 4.044L6.6 17.37l6.438-4.77 4.924-6.203z" fill="#000"/></g><path d="M12.997 12.53l-1.995-2.09 7.078-4.76-5.083 6.85z" fill="#FF5150"/><path d="M12.998 12.53l-1.995-2.09-5.084 6.852 7.079-4.762z" fill="#F1F1F1"/><path opacity=".243" d="M5.92 17.292l7.077-4.762 5.084-6.85L5.919 17.291z" fill="#000"/><defs><filter id="filter0_f_29_514" x=".51" y="1.109" width="22.98" height="22.304" filterUnits="userSpaceOnUse" color-interpolation-filters="sRGB"><feFlood flood-opacity="0" result="BackgroundImageFix"/><feBlend in="SourceGraphic" in2="BackgroundImageFix" result="shape"/><feGaussianBlur stdDeviation="1.184" result="effect1_foregroundBlur_29_514"/></filter><filter id="filter1_f_29_514" x="5.927" y="5.723" width="12.709" height="12.32" filterUnits="userSpaceOnUse" color-interpolation-filters="sRGB"><feFlood flood-opacity="0" result="BackgroundImageFix"/><feBlend in="SourceGraphic" in2="BackgroundImageFix" result="shape"/><feGaussianBlur stdDeviation=".337" result="effect1_foregroundBlur_29_514"/></filter><linearGradient id="paint0_linear_29_514" x1="12" y1="20.954" x2="12" y2="2.017" gradientUnits="userSpaceOnUse"><stop stop-color="#BDBDBD"/><stop offset="1" stop-color="#fff"/></linearGradient><radialGradient id="paint1_radial_29_514" cx="0" cy="0" r="1" gradientUnits="userSpaceOnUse" gradientTransform="translate(12.039 10.213) scale(9.46859)"><stop stop-color="#06C2E7"/><stop offset=".25" stop-color="#0DB8EC"/><stop offset=".5" stop-color="#12AEF1"/><stop offset=".75" stop-color="#1F86F9"/><stop offset="1" stop-color="#107DDD"/></radialGradient></defs></svg>