<svg id="Layer_1" xmlns="http://www.w3.org/2000/svg" viewBox="0 0 209.5 208" width="2500" height="2482"><style>.st0{fill:#f7a800}.st1{fill:#67b2e8}.st2{fill:#00c4b3}</style><path d="M104.8 208l-1.2-.6C56.8 180 21.4 134.8 7 80.8c-2.3-8.5-4-17.2-5.2-26C.7 46 .1 37.1 0 28.2c0-1.5-.2-1.3 1.2-2 17.6-10 36.2-17.3 55.9-21.9 7.3-1.7 14.6-3 22-3.9 10.2-1.2 20.4-1.7 30.7-1.5 5.8.1 11.5.5 17.2 1.1 28.7 3.1 55.6 11.7 80.8 25.8.4.2.7.4 1.1.6.4.2.6.5.6 1v1.5c-.1 5.2-.3 10.3-.7 15.5-.6 7.4-1.6 14.7-3 22-3 15.7-7.7 30.8-14.2 45.3-10.3 23.1-24.4 43.7-42.2 61.7-12.8 13-27.1 24.2-42.9 33.5-.6.4-1.1.7-1.7 1.1zM9.6 33.3v1.2c0 7.3.5 14.7 1.4 21.9.8 6.6 1.9 13.1 3.4 19.6.3 1.1.6 2.2 1.1 3.3 9 19.1 29.8 29.3 50.4 24.6 15.7-3.6 28.5-15.7 32.8-31.2 1.2-4.3 1.6-8.7 1.8-13.1.1-2.9.4-5.8.9-8.7 3.4-17.6 15.1-32.1 31.6-39 .9-.4 1.9-.7 2.8-1.1.1-.1.3-.1.3-.3-2.6-.9-18.1-2.5-27.4-2.7-20-.4-39.6 2.2-58.7 8-14.2 4.3-27.6 10.1-40.4 17.5zm147.5 119.8c.5-.3.8-.7 1-1 4-5 7.8-10.2 11.3-15.6 12.5-19.4 21.3-40.3 26.2-62.9 1.7-7.7 2.8-15.4 3.5-23.2.5-5.3.7-10.6.7-16 0-.4 0-.7-.1-1.1l-1.5-.9c-4.1-2.3-8.3-4.5-12.5-6.5-6.2-2.9-12.4-5.5-18.9-7.6-7.9-2.5-15.9-2.8-23.9-.8-22.9 5.5-37.6 28-33.2 51.1 2.4 12.8 9.3 22.8 20.3 29.8.7.5 1.5.9 2.2 1.4 8.1 4.9 14.4 11.6 18.9 19.9 4.8 8.7 6.9 18.1 6.3 28 .1 1.7-.1 3.5-.3 5.4zm-52.3 44.7c.4-.2.9-.5 1.3-.8 12.6-7.4 24.2-16.2 34.8-26.2.7-.6 1.2-1.4 1.6-2.2.7-1.3 1.4-2.7 2-4 5-10.4 6.1-21.2 2.8-32.4-6.5-21.6-27.3-34-48.2-31.4-6 .7-11.5 2.6-16.7 5.6-9.9 5.6-20.5 7.9-31.9 6.8-5.6-.5-10.9-2-16-4.2-4-1.8-7.8-4-11.2-6.7-.2-.2-.5-.3-1-.6.1.5.2.8.3 1 4.5 11.4 10 22.2 16.5 32.5 7.1 11.1 15.2 21.4 24.4 30.8 9.2 9.4 19.3 17.8 30.2 25.1 5 3.2 9.7 6.1 11.1 6.7z"/><path class="st0" d="M9.6 33.3c12.8-7.4 26.2-13.2 40.3-17.4 19.2-5.7 38.7-8.4 58.7-8 9.3.2 24.8 1.7 27.4 2.7.1.2-.1.3-.3.3-.9.4-1.9.7-2.8 1.1-16.5 6.9-28.2 21.4-31.6 39-.5 2.9-.8 5.8-.9 8.7-.1 4.4-.5 8.8-1.8 13.1-4.4 15.5-17.1 27.6-32.8 31.2-20.6 4.7-41.4-5.5-50.4-24.6-.5-1.1-.9-2.2-1.1-3.3-1.5-6.5-2.6-13-3.4-19.6-.9-7.3-1.4-14.6-1.4-21.9.1-.5.1-.8.1-1.3z"/><path class="st1" d="M157.1 153.1c.2-1.9.4-3.6.5-5.4.5-9.9-1.6-19.3-6.3-28-4.5-8.3-10.8-14.9-18.9-19.9-.7-.5-1.5-.9-2.2-1.4-11.1-7-17.9-16.9-20.3-29.8-4.3-23.2 10.3-45.6 33.2-51.1 8.1-1.9 16-1.7 23.9.8 6.5 2 12.7 4.7 18.9 7.6 4.3 2 8.4 4.2 12.5 6.5.5.3.9.5 1.5.9 0 .4.1.7.1 1.1 0 5.3-.3 10.7-.7 16-.7 7.8-1.9 15.6-3.5 23.2-4.9 22.6-13.6 43.5-26.2 62.9-3.5 5.4-7.3 10.6-11.3 15.6-.4.3-.6.7-1.2 1z"/><path class="st2" d="M104.8 197.8c-1.5-.6-6.1-3.4-11-6.7-10.9-7.3-21-15.7-30.2-25.1s-17.4-19.7-24.4-30.8c-6.6-10.3-12.1-21.1-16.5-32.5-.1-.3-.2-.5-.3-1 .5.3.7.4 1 .6 3.5 2.7 7.2 5 11.2 6.7 5.1 2.2 10.4 3.7 16 4.2 11.3 1.1 21.9-1.2 31.9-6.8 5.2-2.9 10.8-4.8 16.7-5.6 20.9-2.6 41.7 9.8 48.2 31.4 3.3 11.1 2.3 21.9-2.8 32.4-.7 1.4-1.3 2.7-2 4-.4.8-.9 1.6-1.6 2.2-10.6 10-22.2 18.8-34.8 26.2-.5.3-1 .6-1.4.8z"/></svg>