<svg xmlns="http://www.w3.org/2000/svg" xmlns:xlink="http://www.w3.org/1999/xlink" id="flag-icon-css-ph" width="640" height="480">
   <path d="m0 0h640v240h-640z" fill="#0038a8"/>
 <path d="m0 240h640v240h-640z" fill="#ce1126"/>
 <path d="M 415.7,240 0,480 V 0" fill="#fff"/>
 <g fill="#fcd116">
  <g stroke-width="1pt">
   <path d="m26.689 42.443 14.382 12.428 16.652-9.1669-7.3761 17.52 13.864 13.005-18.941-1.6014-8.0837 17.204-4.3301-18.509-18.86-2.3717 16.265-9.8378z"/>
   <path d="m350.47 214.72 0.38729 19.005 17.955 6.2412-17.955 6.241-0.38729 19.005-11.484-15.148-18.194 5.5045 10.857-15.603-10.857-15.603 18.194 5.5045z"/>
   <path d="m37.187 388.1 8.0837 17.204 18.941-1.6014-13.864 13.005 7.3761 17.52-16.652-9.167-14.382 12.428 3.5724-18.67-16.265-9.8378 18.86-2.3718z"/>
  </g>
  <path d="m151.45 139.1-6.2036 6.2036 3.0766 46.987c-1.046 0.0674-2.0814 0.16882-3.1081 0.30261l-5.6488-42.877-5.0624 5.0624 7.622 38.325c-6.2697 1.2406-12.097 3.7036-17.223 7.1366l-21.706-32.487h-7.1618l26.327 34.315c-0.82608 0.63506-1.6262 1.2993-2.4084 1.9859l-31.056-35.412h-8.7758v8.7758l35.412 31.056c-0.6873 0.78308-1.3502 1.5875-1.9859 2.4145l-34.315-26.334v7.1618l32.493 21.713c-3.4322 5.1258-5.9026 10.949-7.1429 17.217l-38.325-7.622-5.0624 5.0624 42.877 5.6488c-0.13379 1.0268-0.23519 2.0623-0.30262 3.1081l-46.987-3.0766-6.2036 6.2036 6.2036 6.2036 46.987-3.0766c0.068 1.0464 0.16883 2.0875 0.30262 3.1144l-42.877 5.6425 5.0624 5.0624 38.325-7.622c1.2404 6.2695 3.7029 12.096 7.1366 17.223l-32.487 21.706v7.1618l34.315-26.327c0.63511 0.8264 1.2993 1.6258 1.9859 2.4084l-35.412 31.056v8.7758h8.7758l31.056-35.412c0.78329 0.68778 1.5874 1.3496 2.4145 1.9859l-26.334 34.315h7.1618l21.713-32.493c5.1244 3.4351 10.948 5.9089 17.217 7.1492l-7.622 38.318 5.0624 5.0624 5.6488-42.877c1.0262 0.13379 2.062 0.23519 3.1081 0.30262l-3.0766 46.987 6.2036 6.2036 6.2036-6.2036-3.0766-46.987c1.046-0.068 2.0814-0.16883 3.1081-0.30262l5.6488 42.877 5.0624-5.0624-7.622-38.325c6.2697-1.2406 12.097-3.7034 17.223-7.1366l21.706 32.487h7.1618l-26.327-34.315c0.82608-0.63506 1.6263-1.2993 2.4084-1.9859l31.056 35.412h8.7758v-8.7758l-35.412-31.056c0.6873-0.78308 1.3502-1.5875 1.9859-2.4145l34.315 26.334v-7.1618l-32.493-21.713c3.4322-5.1257 5.9026-10.949 7.1429-17.217l38.325 7.622 5.0624-5.0624-42.877-5.6488c0.13378-1.0269 0.23519-2.0623 0.30261-3.1081l46.987 3.0766 6.2036-6.2036-6.2036-6.2036-46.987 3.0766c-0.0674-1.046-0.16883-2.0814-0.30261-3.1081l42.877-5.6488-5.0624-5.0624-38.325 7.622c-1.2406-6.2697-3.7033-12.097-7.1366-17.223l32.487-21.706v-7.1618l-34.315 26.327c-0.63506-0.82603-1.2993-1.6262-1.9859-2.4083l35.412-31.056v-8.7758h-8.7758l-31.056 35.412c-0.78308-0.68731-1.5874-1.3502-2.4145-1.9859l26.334-34.315h-7.1618l-21.713 32.493c-5.1257-3.4322-10.949-5.9025-17.217-7.1429l7.622-38.325-5.0624-5.0624-5.6488 42.877c-1.0268-0.13379-2.0623-0.23519-3.1081-0.30261l3.0766-46.987z" stroke-width="5.309"/>
 </g>
</svg>
