<svg width="100" height="60" xmlns="http://www.w3.org/2000/svg"><g fill="none" fill-rule="evenodd"><rect fill="#FFF" width="100" height="60" rx="4"/><path d="M35.067 23.958c.666 0 1.24.118 1.723.351.485.235.886.552 1.207.95.317.401.553.87.706 1.406.15.538.227 1.116.227 1.736a6.92 6.92 0 01-.529 2.696 6.988 6.988 0 01-1.444 2.211 6.781 6.781 0 01-2.16 1.486 6.61 6.61 0 01-2.698.548c-.125 0-.345-.003-.655-.01a9.513 9.513 0 01-1.069-.092 12.534 12.534 0 01-1.278-.25 6.432 6.432 0 01-1.278-.454l3.593-15.02 3.218-.496-1.286 5.33c.275-.123.553-.22.83-.289.278-.067.575-.103.893-.103zm-2.699 8.845c.485 0 .941-.119 1.37-.352.43-.233.802-.547 1.113-.94.31-.393.557-.837.737-1.333.18-.495.27-1.012.27-1.55 0-.661-.11-1.177-.332-1.55-.222-.37-.631-.557-1.226-.557-.195 0-.446.037-.757.102a1.907 1.907 0 00-.843.436l-1.37 5.66c.083.014.156.028.218.041a2.213 2.213 0 00.446.043h.374zm9.9 2.251h-3.074l2.596-10.867h3.095l-2.617 10.867zm1.496-12.19c-.43 0-.818-.128-1.163-.382-.349-.253-.521-.643-.521-1.168 0-.288.059-.56.176-.815a2.172 2.172 0 011.142-1.107c.257-.11.53-.164.822-.164.429 0 .816.127 1.162.382.345.255.519.645.519 1.167 0 .29-.058.562-.177.817a2.162 2.162 0 01-1.14 1.105 2.034 2.034 0 01-.82.165zm3.814-1.384l3.22-.496-.791 3.203h3.447l-.622 2.52h-3.427l-.913 3.801a4.28 4.28 0 00-.145.887c-.015.277.02.514.103.714.082.2.231.354.446.463.215.111.522.167.924.167.331 0 .654-.031.967-.094.31-.06.625-.147.943-.258l.23 2.356c-.416.152-.866.283-1.35.392-.485.11-1.06.164-1.724.164-.955 0-1.696-.14-2.223-.42-.527-.284-.899-.67-1.122-1.16-.22-.487-.318-1.05-.29-1.682.028-.635.124-1.302.29-2.005l2.037-8.551zm5.741 9.236c0-.936.152-1.819.457-2.646a6.495 6.495 0 011.31-2.17 6.123 6.123 0 012.066-1.466c.808-.358 1.712-.538 2.709-.538a7.18 7.18 0 011.671.176 6.77 6.77 0 011.34.464l-1.06 2.399c-.276-.112-.564-.21-.86-.3-.298-.091-.661-.135-1.09-.135-1.026 0-1.837.352-2.441 1.053-.601.702-.904 1.646-.904 2.831 0 .703.152 1.27.458 1.705.304.434.866.65 1.681.65a5.714 5.714 0 002.16-.433l.23 2.458c-.389.15-.817.286-1.288.404-.47.115-1.032.174-1.683.174-.858 0-1.585-.125-2.18-.371-.594-.25-1.086-.582-1.473-1.003a3.773 3.773 0 01-.842-1.478 6 6 0 01-.261-1.774zm13.653 4.627c-.734 0-1.37-.11-1.911-.33a3.533 3.533 0 01-1.338-.93 4.013 4.013 0 01-.8-1.415 5.677 5.677 0 01-.268-1.806c0-.828.134-1.655.403-2.48a7.008 7.008 0 011.196-2.231 6.37 6.37 0 011.93-1.624c.76-.419 1.634-.63 2.615-.63.72 0 1.355.112 1.903.332.545.22.994.53 1.35.93.35.4.618.87.797 1.415.181.542.27 1.146.27 1.807a8.21 8.21 0 01-.393 2.48 7.152 7.152 0 01-1.163 2.23 6.092 6.092 0 01-1.92 1.622c-.77.42-1.66.63-2.67.63zm1.536-8.842c-.456 0-.858.132-1.203.392a3.379 3.379 0 00-.872.992c-.237.4-.412.837-.53 1.311a5.643 5.643 0 00-.176 1.353c0 .69.111 1.227.331 1.613.223.384.623.578 1.205.578.458 0 .858-.13 1.205-.394.344-.26.635-.59.871-.99.236-.398.413-.837.532-1.312.116-.475.175-.927.175-1.353 0-.688-.111-1.226-.333-1.612-.221-.385-.623-.578-1.205-.578zm7.96 8.553h-3.076l2.596-10.867h3.096l-2.616 10.867zm1.493-12.19c-.429 0-.817-.128-1.162-.382-.347-.253-.52-.643-.52-1.168 0-.288.059-.56.176-.815a2.17 2.17 0 011.143-1.107 2.05 2.05 0 01.82-.164c.43 0 .817.127 1.163.382.346.255.52.645.52 1.167 0 .29-.062.562-.178.817a2.15 2.15 0 01-1.14 1.105 2.03 2.03 0 01-.822.165zm3.336 1.818c.234-.068.494-.15.778-.238a11.805 11.805 0 012.14-.433c.436-.05.932-.073 1.484-.073 1.62 0 2.738.47 3.355 1.406.616.937.723 2.218.323 3.842l-1.413 5.868H84.87l1.37-5.744c.083-.359.15-.706.197-1.045a2.46 2.46 0 00-.01-.887 1.06 1.06 0 00-.383-.62c-.203-.159-.51-.238-.926-.238-.4 0-.808.043-1.224.126l-2.015 8.408h-3.095l2.513-10.372zM44.16 41.53l-.603 1.09h-.652a49.59 49.59 0 012.64-4.243h.585c.061.306.118.616.169.928a49.368 49.368 0 01.292 2.073c.045.383.093.797.142 1.242h-.603a24.12 24.12 0 01-.056-.554 17.416 17.416 0 00-.055-.535h-1.858zm1.804-.478a30.968 30.968 0 00-.265-1.996 29.45 29.45 0 00-1.262 1.996h1.527zm2.95 1.659a1.98 1.98 0 01-.705-.116 1.351 1.351 0 01-.507-.33 1.372 1.372 0 01-.305-.518 2.142 2.142 0 01-.102-.683c0-.367.059-.718.176-1.053.117-.334.283-.63.498-.887.216-.257.475-.462.779-.616.303-.153.641-.23 1.015-.23.32 0 .575.033.766.099.191.065.327.126.41.183l-.247.49a1.771 1.771 0 00-.96-.257c-.283 0-.537.066-.763.2a1.912 1.912 0 00-.572.514c-.156.21-.275.447-.357.71a2.613 2.613 0 00-.123.78c0 .796.347 1.194 1.04 1.194a2.368 2.368 0 00.947-.19l.185-.086.074.515c-.05.028-.114.059-.194.091a2.46 2.46 0 01-.28.093 2.982 2.982 0 01-.775.097zm3.457 0c-.266 0-.501-.039-.704-.116a1.351 1.351 0 01-.508-.33 1.372 1.372 0 01-.305-.518 2.142 2.142 0 01-.101-.683c0-.367.058-.718.175-1.053.117-.334.283-.63.499-.887a2.45 2.45 0 01.778-.616c.304-.153.642-.23 1.016-.23.32 0 .575.033.766.099.19.065.327.126.409.183l-.246.49a1.771 1.771 0 00-.96-.257c-.283 0-.538.066-.763.2a1.912 1.912 0 00-.573.514c-.156.21-.275.447-.357.71a2.613 2.613 0 00-.123.78c0 .796.347 1.194 1.04 1.194a2.368 2.368 0 00.948-.19l.185-.086.074.515c-.05.028-.114.059-.194.091a2.46 2.46 0 01-.28.093 2.982 2.982 0 01-.776.097zm1.653-.091l1.021-4.243h2.517l-.117.495H55.52l-.308 1.28h1.711l-.117.484h-1.704l-.364 1.487h2.068l-.117.496h-2.664zm5.32-4.286c.496 0 .87.094 1.123.281.252.188.378.462.378.82 0 .278-.052.519-.157.72a1.344 1.344 0 01-.446.5 2.08 2.08 0 01-.695.29 3.98 3.98 0 01-.905.095h-.425l-.381 1.58h-.597l1.01-4.188c.172-.04.354-.067.547-.08a8.31 8.31 0 01.548-.018zm-.074.502c-.292 0-.468.008-.53.024l-.406 1.684h.388c.172 0 .349-.015.53-.046.18-.03.342-.085.485-.162a.984.984 0 00.354-.322.927.927 0 00.139-.529c0-.232-.086-.399-.259-.5-.172-.1-.406-.15-.701-.15zm5.216-.459l-.117.495h-1.286l-.905 3.747h-.597l.905-3.747h-1.287l.117-.495h3.17zm-.554 4.243l1.021-4.243h2.517l-.117.495h-1.926l-.308 1.28h1.711l-.117.484H65.01l-.363 1.487h2.067l-.117.496h-2.664zm5.311-4.286c.631 0 1.103.148 1.415.444.312.295.468.694.468 1.196 0 .352-.056.69-.167 1.013-.11.325-.283.611-.516.861a2.492 2.492 0 01-.896.594c-.363.147-.797.22-1.301.22-.173 0-.36-.008-.56-.024a2.984 2.984 0 01-.53-.086l.991-4.12c.172-.041.355-.068.548-.08.193-.012.375-.018.548-.018zm-.05.502c-.307 0-.492.008-.554.024l-.787 3.27c.033.008.088.015.166.021.078.006.205.01.381.01.325 0 .617-.054.877-.163.26-.108.481-.259.662-.453.18-.194.32-.424.418-.691.099-.268.148-.56.148-.879 0-.36-.105-.639-.314-.84-.209-.199-.541-.3-.997-.3zm6.53 3.784h-.597l.473-1.972h-1.975l-.474 1.971h-.597l1.022-4.242h.597l-.431 1.775h1.976l.43-1.775h.598l-1.022 4.242zm.941 0l1.022-4.243h2.517l-.118.495H78.16l-.308 1.28h1.711l-.117.484H77.74l-.363 1.487h2.068l-.118.496h-2.663zm5.32-4.286c.455 0 .817.092 1.083.275.267.184.4.453.4.808 0 .359-.105.66-.317.903-.211.243-.507.418-.889.523a9.526 9.526 0 01.375.769 10.7 10.7 0 01.376 1.007h-.61a29.496 29.496 0 00-.178-.472c-.06-.159-.124-.312-.187-.459a8.955 8.955 0 00-.367-.753 4.202 4.202 0 01-.32.012h-.474l-.4 1.672h-.597l1.01-4.188c.173-.04.355-.067.548-.08.192-.011.375-.017.547-.017zm-.074.502c-.291 0-.467.008-.53.024l-.387 1.605h.363c.169 0 .34-.012.517-.037.177-.024.338-.072.483-.144a.943.943 0 00.357-.3c.092-.128.139-.299.139-.511 0-.229-.087-.392-.262-.49-.174-.098-.401-.147-.68-.147zm1.602 3.784l1.022-4.243h2.517l-.118.495h-1.926l-.308 1.28h1.711l-.117.484h-1.705l-.362 1.487h2.067l-.118.496h-2.663z" fill="#4D4D4D"/><path d="M19.228 35.342c-4.53 0-8.202-3.654-8.202-8.16 0-4.507 3.672-8.16 8.202-8.16 4.53 0 8.202 3.653 8.202 8.16 0 4.506-3.672 8.16-8.202 8.16zm3.616-9.324c.163-1.086-.668-1.67-1.805-2.06l.37-1.471-.9-.224-.36 1.433c-.236-.058-.48-.114-.721-.168l.361-1.443-.9-.223-.368 1.471a28.39 28.39 0 01-.575-.135v-.004l-1.24-.308-.24.956s.667.152.653.162c.365.09.431.33.42.521l-.42 1.676a.606.606 0 01.094.03l-.096-.024-.588 2.35c-.045.109-.158.274-.413.211.01.013-.654-.162-.654-.162l-.448 1.026 1.172.29c.218.054.431.111.641.165l-.372 1.488.899.223.37-1.472c.245.066.483.128.717.185l-.368 1.466.9.223.373-1.485c1.535.289 2.69.172 3.175-1.21.392-1.112-.02-1.753-.827-2.172.589-.135 1.032-.52 1.15-1.315zm-2.057 2.87c-.278 1.113-2.16.511-2.77.36l.494-1.971c.61.151 2.567.451 2.276 1.611zm.279-2.885c-.254 1.01-1.82.497-2.33.371l.45-1.788c.507.126 2.144.361 1.88 1.417z" fill="#F7931A"/></g></svg>