<svg viewBox="0 0 24 24" fill="none" xmlns="http://www.w3.org/2000/svg"><path d="M18.238 6.242a14.843 14.843 0 0 0-3.664-1.137.056.056 0 0 0-.059.028c-.168.304-.32.617-.456.937a13.704 13.704 0 0 0-4.115 0 9.483 9.483 0 0 0-.464-.937.058.058 0 0 0-.058-.028 14.83 14.83 0 0 0-3.664 1.137.052.052 0 0 0-.024.02C3.4 9.75 2.76 13.15 3.074 16.508c.002.017.01.032.024.042a14.924 14.924 0 0 0 4.494 2.272.058.058 0 0 0 .064-.02c.346-.474.654-.972.92-1.497a.057.057 0 0 0-.032-.079 9.815 9.815 0 0 1-1.404-.669.058.058 0 0 1-.006-.096c.095-.07.188-.143.279-.218a.057.057 0 0 1 .058-.008c2.946 1.345 6.135 1.345 9.046 0a.056.056 0 0 1 .06.007c.09.074.184.148.279.22a.058.058 0 0 1 .014.075.058.058 0 0 1-.019.02 9.223 9.223 0 0 1-1.405.669.058.058 0 0 0-.033.033.056.056 0 0 0 .003.047c.27.523.578 1.022.918 1.494.014.02.04.029.063.022A14.871 14.871 0 0 0 20.9 16.55a.057.057 0 0 0 .023-.042c.376-3.882-.628-7.255-2.66-10.245a.046.046 0 0 0-.024-.021h-.001zm-9.223 8.22c-.887 0-1.618-.813-1.618-1.813s.717-1.815 1.618-1.815c.908 0 1.632.822 1.618 1.815 0 1-.717 1.814-1.618 1.814v-.001zm5.981 0c-.887 0-1.618-.813-1.618-1.813s.717-1.815 1.618-1.815c.908 0 1.632.822 1.618 1.815 0 1-.71 1.814-1.618 1.814v-.001z" fill="#5865F2"/></svg>