<svg viewBox="0 0 24 24" fill="none" xmlns="http://www.w3.org/2000/svg"><path d="M12 3.598a8.389 8.389 0 0 1 5.936 14.324 8.395 8.395 0 0 1-9.148 1.821A8.389 8.389 0 0 1 6.064 6.057 8.395 8.395 0 0 1 12 3.598z" fill="#E74D89"/><path d="M12 20.979c-4.964 0-9-4.029-9-8.986C3 7.029 7.036 3 12 3s9 4.029 9 8.986c0 4.957-4.036 8.993-9 8.993zm7.587-7.763c-.26-.084-2.377-.71-4.789-.33 1.006 2.756 1.414 5.006 1.491 5.47a7.632 7.632 0 0 0 3.298-5.14zm-4.585 5.85c-.112-.675-.562-3.023-1.638-5.821a.13.13 0 0 1-.05.014c-4.337 1.511-5.891 4.514-6.032 4.795A7.657 7.657 0 0 0 12 19.67a7.51 7.51 0 0 0 3.002-.605v.001zm-8.711-1.933c.175-.296 2.285-3.783 6.25-5.07.099-.035.204-.063.303-.091-.193-.44-.402-.874-.626-1.3-3.84 1.145-7.566 1.096-7.903 1.089 0 .077-.007.155-.007.232.003 1.9.71 3.73 1.983 5.14zm-1.814-6.708c.344.007 3.508.021 7.108-.935-1.273-2.264-2.65-4.163-2.848-4.437a7.699 7.699 0 0 0-4.26 5.372zM10.2 4.533c.21.281 1.61 2.18 2.869 4.493 2.735-1.027 3.888-2.574 4.029-2.77A7.664 7.664 0 0 0 12 4.321c-.619 0-1.223.077-1.8.21v.002zm7.748 2.608c-.161.218-1.448 1.87-4.289 3.03.24.496.468.998.682 1.506 2.56-.324 5.098.196 5.351.246a7.647 7.647 0 0 0-1.744-4.782z" fill="#B2215A"/></svg>