<svg viewBox="0 0 24 24" fill="none" xmlns="http://www.w3.org/2000/svg"><path d="M6.908 5.036a4.487 4.487 0 0 1 2.928.634c.489.288.88.705 1.28 1.1.29.285.58.573.87.857l.01.03c-.216.214-.463.642-.74 1.285-.58.204-.975.41-1.187.618-.472-.455-.93-.925-1.4-1.382-.447-.42-1.123-.588-1.708-.396A1.706 1.706 0 0 0 5.749 9.3c-.023.36.07.726.266 1.03.12.196.299.345.457.508.382.384.773.759 1.149 1.148-.2.197-.44.579-.713 1.146-.584.276-.99.528-1.216.755-.508-.477-.993-.98-1.496-1.463A4.312 4.312 0 0 1 3.06 10.14a4.394 4.394 0 0 1 .416-2.704A4.495 4.495 0 0 1 5.023 5.72a4.507 4.507 0 0 1 1.885-.684z" fill="#EA4335"/><path d="M12.006 16.305l4.388-4.325 1.186.705.743 1.206-6.317 6.25-4.382-4.336.84-1.183 1.1-.732 2.442 2.415z" fill="#34A853"/><path d="M10.073 9.564l1.104.597.829 1.32-4.382 4.324-1.932-1.918 4.38-4.323z" fill="#FBBC05"/><path d="M17.297 5.063c1.286.218 2.468 1.02 3.117 2.157.738 1.247.778 2.867.123 4.158-.271.554-.686 1.022-1.128 1.448-.366.35-.714.724-1.086 1.065-.645-.635-1.29-1.27-1.93-1.91.456-.46.919-.913 1.376-1.371.294-.298.479-.706.494-1.126a1.71 1.71 0 0 0-.514-1.292 1.758 1.758 0 0 0-1.331-.482c-.418.02-.82.21-1.115.505-1.1 1.088-2.197 2.178-3.297 3.266-.647-.636-1.295-1.272-1.933-1.917a.03.03 0 0 0-.004-.004c.644-.633 1.285-1.27 1.928-1.904l1.399-1.38c.604-.609 1.4-1.006 2.234-1.189a4.827 4.827 0 0 1 1.667-.025v.001z" fill="#4285F4"/></svg>