<svg viewBox="0 0 24 24" fill="none" xmlns="http://www.w3.org/2000/svg"><path d="M16.79 11.506c.131-.017.264-.017.395 0 .071-.154.083-.418.02-.706-.095-.429-.224-.688-.49-.648-.266.04-.275.35-.18.78.053.24.148.447.254.574h.001zm-2.282.339c.19.078.307.13.353.085.03-.028.02-.083-.025-.152-.094-.145-.287-.291-.49-.373a1.41 1.41 0 0 0-1.305.147c-.127.088-.248.21-.23.284.005.024.024.042.07.047.104.012.47-.163.892-.187.298-.018.545.07.735.149zm-.382.205c-.247.037-.384.114-.472.185-.075.062-.12.13-.12.178 0 .023.01.036.02.043.01.01.023.014.04.014a.79.79 0 0 0 .181-.047c.344-.116.571-.102.797-.078.124.013.183.02.21-.02.01-.012.018-.036-.007-.074-.058-.09-.308-.24-.649-.201zm1.893.755c.168.078.353.047.413-.068.06-.116-.027-.272-.195-.35-.168-.078-.353-.047-.413.068-.06.116.027.272.195.35zm1.081-.89c-.137-.002-.25.14-.253.316-.003.176.105.32.241.323.137.002.25-.139.253-.315.003-.177-.105-.322-.24-.324zm-9.173 3.182c-.034-.04-.09-.028-.144-.016-.037.008-.08.018-.127.017a.281.281 0 0 1-.233-.112c-.062-.09-.059-.224.01-.377l.032-.07c.11-.23.293-.618.087-.988a.928.928 0 0 0-.71-.487.946.946 0 0 0-.784.266c-.303.314-.35.741-.292.892.022.056.055.07.08.074.051.006.127-.029.175-.15l.014-.04c.02-.063.06-.182.125-.277a.537.537 0 0 1 .342-.223.575.575 0 0 1 .418.074.49.49 0 0 1 .203.608c-.047.12-.123.35-.106.54.034.384.284.538.51.554.218.008.37-.108.41-.192.022-.05.003-.08-.01-.093z" fill="#000"/><path d="M20.297 14.395c-.008-.027-.06-.214-.13-.439s-.143-.383-.143-.383c.282-.422.287-.8.25-1.012-.04-.265-.15-.49-.373-.723-.22-.233-.676-.472-1.314-.651l-.335-.093c-.002-.014-.017-.79-.032-1.123a3.805 3.805 0 0 0-.148-.986c-.139-.501-.38-.94-.683-1.22.834-.865 1.355-1.817 1.353-2.634-.002-1.57-1.93-2.046-4.31-1.062l-.503.214c-.002-.002-.91-.893-.925-.905-2.71-2.365-11.186 7.056-8.476 9.344l.592.502c-.16.429-.216.89-.165 1.344.064.63.39 1.234.915 1.7.5.443 1.157.723 1.795.723 1.054 2.43 3.464 3.92 6.29 4.005 3.03.09 5.574-1.332 6.64-3.886.07-.18.365-.987.365-1.7 0-.717-.406-1.015-.663-1.015zm-12.4 1.913a1.45 1.45 0 0 1-.28.02c-.915-.025-1.904-.849-2.003-1.826-.108-1.08.444-1.912 1.42-2.109.135-.026.273-.036.411-.029.548.03 1.355.45 1.54 1.643.162 1.056-.097 2.132-1.088 2.301zm-1.022-4.56a2.33 2.33 0 0 0-1.472.939c-.196-.163-.56-.48-.626-.603-.523-.994.571-2.927 1.336-4.018 1.89-2.697 4.85-4.739 6.22-4.368.223.063.961.919.961.919s-1.37.76-2.64 1.819c-1.71 1.317-3.004 3.233-3.779 5.311v.001zm9.608 4.156a.053.053 0 0 0 .026-.073.05.05 0 0 0-.03-.024.05.05 0 0 0-.02-.002s-1.434.213-2.789-.283c.148-.48.54-.307 1.133-.26a8.283 8.283 0 0 0 2.735-.295c.613-.176 1.42-.523 2.045-1.017.211.464.286.975.286.975s.163-.03.3.054c.128.08.223.244.158.671-.13.798-.47 1.444-1.04 2.04a4.303 4.303 0 0 1-1.249.934c-.256.134-.528.25-.816.344-2.147.701-4.345-.07-5.053-1.725a2.617 2.617 0 0 1-.143-.391c-.3-1.091-.045-2.4.756-3.224.05-.053.1-.115.1-.192a.334.334 0 0 0-.077-.183c-.28-.406-1.252-1.1-1.057-2.44.14-.963.983-1.642 1.768-1.602l.2.012c.34.02.636.063.916.075.47.02.89-.048 1.39-.464.17-.14.304-.262.533-.3.023-.005.083-.026.203-.02.122.006.238.04.342.108.4.267.457.912.478 1.384.012.27.044.922.056 1.109.025.428.137.488.365.563.128.042.247.074.422.123.53.148.844.3 1.043.493.118.122.173.25.19.373.062.456-.354 1.02-1.456 1.53-1.205.56-2.668.702-3.678.59-.077-.01-.353-.04-.354-.04-.808-.11-1.269.935-.784 1.65.313.461 1.164.762 2.016.762 1.953 0 3.454-.834 4.012-1.554.017-.022.02-.024.045-.064.027-.042.005-.064-.03-.04-.456.311-2.482 1.55-4.65 1.178 0 0-.263-.043-.504-.137-.19-.074-.59-.258-.64-.669 1.75.543 2.852.031 2.852.031zm-6.117-7.849c.672-.777 1.5-1.452 2.24-1.83.025-.013.052.014.038.04-.09.16-.16.33-.208.507a.03.03 0 0 0 .012.033.03.03 0 0 0 .035-.001c.46-.314 1.262-.651 1.966-.694.03-.002.045.037.02.055-.116.09-.22.194-.308.31a.03.03 0 0 0-.003.031.03.03 0 0 0 .026.017c.494.004 1.19.176 1.644.43.03.018.008.077-.026.07-.686-.158-1.81-.277-2.978.007-1.042.255-1.838.647-2.418 1.07-.029.021-.064-.018-.04-.045z" fill="#000"/></svg>