<svg viewBox="0 0 24 24" fill="none" xmlns="http://www.w3.org/2000/svg"><path d="M14.086 8.495L4.594 3.069a.382.382 0 0 0-.385.004.38.38 0 0 0-.193.331l.008 1.324 6.915 6.914 3.147-3.147z" fill="url(#paint0_linear_29_246)"/><path d="M4.024 4.728c.012 2.97.046 10.18.062 13.77l6.857-6.856-6.92-6.914z" fill="url(#paint1_linear_29_246)"/><path d="M19.52 11.6l-5.434-3.105-3.15 3.147 3.554 3.555 5.033-2.932a.385.385 0 0 0 .192-.33.39.39 0 0 0-.196-.335h.001z" fill="url(#paint2_linear_29_246)"/><path d="M4.082 18.499l.012 2.1a.384.384 0 0 0 .577.332l9.823-5.73-3.555-3.555-6.857 6.853z" fill="url(#paint3_linear_29_246)"/><defs><linearGradient id="paint0_linear_29_246" x1="4.016" y1="7.332" x2="14.088" y2="7.332" gradientUnits="userSpaceOnUse"><stop stop-color="#63BE6B"/><stop offset=".506" stop-color="#5BBC6A"/><stop offset="1" stop-color="#4AB96A"/></linearGradient><linearGradient id="paint1_linear_29_246" x1="4.022" y1="11.615" x2="10.939" y2="11.615" gradientUnits="userSpaceOnUse"><stop stop-color="#3EC6F2"/><stop offset="1" stop-color="#45AFE3"/></linearGradient><linearGradient id="paint2_linear_29_246" x1="10.938" y1="11.848" x2="19.714" y2="11.848" gradientUnits="userSpaceOnUse"><stop stop-color="#FAA51A"/><stop offset=".387" stop-color="#FAB716"/><stop offset=".741" stop-color="#FAC412"/><stop offset="1" stop-color="#FAC80F"/></linearGradient><linearGradient id="paint3_linear_29_246" x1="4.084" y1="16.314" x2="14.494" y2="16.314" gradientUnits="userSpaceOnUse"><stop stop-color="#EC3B50"/><stop offset="1" stop-color="#E7515B"/></linearGradient></defs></svg>