<svg viewBox="0 0 24 24" fill="none" xmlns="http://www.w3.org/2000/svg"><path d="M10.2 10.089v-.702a5.172 5.172 0 0 0-.735-.063 5.458 5.458 0 0 0-3.126 9.935 5.452 5.452 0 0 1 3.861-9.17z" fill="#25F4EE"/><path d="M10.332 18.035a2.494 2.494 0 0 0 2.488-2.386V3.752h2.172A4.076 4.076 0 0 1 14.93 3h-2.97v11.884a2.494 2.494 0 0 1-2.49 2.403A2.526 2.526 0 0 1 8.32 17a2.494 2.494 0 0 0 2.012 1.035zM19.05 7.789v-.661c-.8 0-1.581-.236-2.247-.678a4.12 4.12 0 0 0 2.247 1.34v-.001z" fill="#25F4EE"/><path d="M16.802 6.45a4.094 4.094 0 0 1-1.017-2.703h-.793a4.117 4.117 0 0 0 1.81 2.703zm-7.337 5.847A2.493 2.493 0 0 0 8.315 17a2.49 2.49 0 0 1 2.017-3.95c.25.003.497.042.736.115v-3.024a5.212 5.212 0 0 0-.736-.058H10.2v2.3a2.553 2.553 0 0 0-.735-.086z" fill="#FE2C55"/><path d="M19.049 7.79v2.299a7.047 7.047 0 0 1-4.12-1.34v6.043a5.467 5.467 0 0 1-5.464 5.456 5.404 5.404 0 0 1-3.126-.989 5.452 5.452 0 0 0 9.446-3.714V9.52a7.058 7.058 0 0 0 4.125 1.322V7.881a4.21 4.21 0 0 1-.861-.092v.001z" fill="#FE2C55"/><path d="M14.929 14.792V8.749a7.047 7.047 0 0 0 4.125 1.323v-2.3a4.12 4.12 0 0 1-2.252-1.322 4.116 4.116 0 0 1-1.81-2.703H12.82V15.65a2.495 2.495 0 0 1-4.51 1.362 2.494 2.494 0 0 1 1.149-4.703c.25.002.497.041.735.115v-2.3a5.445 5.445 0 0 0-4.93 3.34 5.453 5.453 0 0 0 1.07 5.86 5.405 5.405 0 0 0 3.13.925 5.466 5.466 0 0 0 5.465-5.456v-.001z" fill="#000"/></svg>