<svg viewBox="0 0 24 24" fill="none" xmlns="http://www.w3.org/2000/svg"><path d="M4.28 12a7.722 7.722 0 0 0 4.35 6.948L4.949 8.858A7.691 7.691 0 0 0 4.279 12zm12.932-.39c0-.954-.343-1.615-.636-2.13-.392-.635-.758-1.174-.758-1.81 0-.71.538-1.37 1.296-1.37.034 0 .066.004.1.006A7.693 7.693 0 0 0 12 4.28a7.712 7.712 0 0 0-6.45 3.48c.18.006.35.01.496.01.808 0 2.058-.099 2.058-.099.416-.024.465.587.05.636 0 0-.42.05-.884.074l2.81 8.363 1.69-5.067-1.202-3.296c-.416-.025-.81-.074-.81-.074-.416-.024-.367-.66.049-.636 0 0 1.275.098 2.034.098.807 0 2.057-.098 2.057-.098.417-.024.466.587.05.636 0 0-.42.05-.884.074l2.79 8.3.77-2.574c.334-1.068.588-1.835.588-2.496v-.001z" fill="#00749A"/><path d="M12.136 12.675l-2.317 6.731a7.713 7.713 0 0 0 4.745-.123.662.662 0 0 1-.055-.106l-2.373-6.502zm6.639-4.38c.033.246.052.51.052.794 0 .784-.147 1.665-.587 2.766l-2.36 6.819a7.718 7.718 0 0 0 2.895-10.378v-.001z" fill="#00749A"/><path d="M12 3c-4.962 0-9 4.037-9 9s4.038 9 9 9c4.963 0 9-4.037 9-9s-4.037-9-9-9zm0 17.587c-4.735 0-8.587-3.852-8.587-8.587 0-4.735 3.852-8.587 8.587-8.587 4.735 0 8.587 3.852 8.587 8.587 0 4.735-3.852 8.587-8.587 8.587z" fill="#00749A"/></svg>