<svg viewBox="0 0 24 24" fill="none" xmlns="http://www.w3.org/2000/svg"><path d="M14.25 12.004c0 .649-.117 1.293-.346 1.9a5.399 5.399 0 0 1-1.9.346h-.008a5.375 5.375 0 0 1-1.9-.346 5.383 5.383 0 0 1-.346-1.9v-.008c0-.649.117-1.293.345-1.9a5.38 5.38 0 0 1 1.901-.346h.008c.649 0 1.293.117 1.9.346a5.38 5.38 0 0 1 .346 1.9v.008zm6.625-1.504h-5.254l3.715-3.715a9.073 9.073 0 0 0-2.122-2.121L13.5 8.379V3.125A9.042 9.042 0 0 0 12.005 3h-.01c-.51 0-1.009.044-1.495.125V8.38L6.785 4.664c-.41.291-.793.616-1.148.972l-.002.001c-.355.355-.68.74-.971 1.148L8.379 10.5H3.125S3 11.487 3 11.997v.006c0 .51.043 1.01.125 1.497H8.38l-3.715 3.715a9.064 9.064 0 0 0 2.121 2.121l3.715-3.715v5.254c.493.083.993.125 1.493.125h.013c.5 0 1-.042 1.494-.125v-5.254l3.715 3.715c.41-.291.793-.616 1.149-.971v-.001c.356-.356.68-.74.972-1.15L15.621 13.5h5.254c.083-.493.125-.993.125-1.493v-.014c0-.509-.043-1.007-.125-1.493z" fill="#FF4A00"/></svg>