<svg viewBox="0 0 224 190" preserveAspectRatio="xMinYMin" version="1.1" xmlns="http://www.w3.org/2000/svg" xmlns:xlink="http://www.w3.org/1999/xlink"><title>mozilla</title><desc>Created with Sketch.</desc><g id="Page-1" stroke="none" stroke-width="1" fill="none" fill-rule="evenodd"><g id="mozilla" transform="translate(0.000000, -1.000000)"><path d="M21.488,144.218 C27.843,142.04 31.937,137.861 38.035,135.423 C38.035,131.503 37.683,130.37 37.859,126.278 C33.765,125.407 32.371,129.325 28.629,128.977 C28.191,124.797 33.332,122.707 32.981,116.959 C27.844,116.959 25.844,123.49 22.098,123.055 C23.403,113.301 37.426,103.635 29.672,102.852 C28.453,103.635 12.52,115.217 10.254,113.041 C14.086,110.775 28.02,89.092 22.531,88.568 C19.746,89.963 9.468,95.97 6.941,95.623 C7.031,91.791 21.574,79.512 24.363,77.596 C26.625,76.639 29.066,74.461 27.758,71.934 C18.613,71.674 9.207,86.043 0.848,82.821 C0.676,82.212 4.418,79.339 4.332,78.729 C6.594,76.465 33.07,54.083 33.07,51.124 C26.711,47.987 9.554,61.05 1.457,61.05 C39.687,20.294 66.426,5.316 82.449,1.745 C95.336,-0.868 106.137,4.009 118.937,6.796 C118.937,11.064 139.054,3.835 142.187,3.835 C149.851,4.88 157.515,10.89 159.781,18.464 C159.781,20.382 160.39,22.384 160.39,24.388 C166.484,43.982 214.382,37.015 221.87,58.439 C221.35,67.496 221.96,72.894 223.96,82.475 C221.698,89.094 221.261,102.592 213.772,105.291 C207.065,105.727 207.065,105.727 206.893,106.162 C201.58,109.992 195.83,115.566 189.299,116.787 C189.299,116.787 162.479,106.945 155.338,111.822 C135.045,118.615 127.818,124.799 122.94,145.785 C119.37,166.164 120.147202,171.953759 128.158202,190.676759 C129.900202,191.026759 36.2529289,196.225587 21.488,144.218 Z" id="Shape" fill="#000"/><path d="M146.107,39.802 C143.845,38.06 144.802,36.491 145.759,33.968 C151.072,34.489 151.161,34.316 150.552,39.279 C149.158,39.455 147.416,39.628 146.107,39.802 L146.107,39.802 L146.107,39.802 Z" id="Shape" fill="#464444"/><path d="M146.369,38.757 C145.588,37.45 145.412,37.189 145.76,35.796 C146.983,35.884 148.201,35.97 149.506,36.144 L149.506,38.234 C148.458,38.41 147.416,38.582 146.369,38.757 L146.369,38.757 L146.369,38.757 Z" id="Shape" fill="#FFF"/><path d="M136.181,29.787 C141.06,30.049 144.369,31.529 141.318,36.058 C139.318,36.058 137.838,36.232 136.005,35.273 C136.095,33.445 136.095,31.617 136.181,29.787 L136.181,29.787 L136.181,29.787 Z" id="Shape" fill="#464444"/><path d="M141.58,34.576 C140.275,35.535 139.666,35.449 138.01,35.449 C137.225,34.666 137.225,34.666 137.053,32.226 C138.01,31.093 139.143,31.443 140.537,31.443 C140.884,32.4 141.232,33.445 141.58,34.576 L141.58,34.576 L141.58,34.576 Z" id="Shape" fill="#FFF"/><path d="M208.986,99.021 C208.463,97.974 207.939,96.931 207.33,95.884 C206.025,95.71 205.24,98.585 201.408,98.411 C201.408,96.407 201.322,92.837 202.279,91.095 C203.412,91.183 204.545,91.183 205.763,91.269 C206.025,91.966 206.72,94.056 207.068,94.841 C208.986,92.749 210.814,92.142 213.166,92.142 C214.994,93.882 214.037,96.755 212.728,98.497 C211.509,98.671 210.205,98.847 208.986,99.021 L208.986,99.021 L208.986,99.021 Z" id="Shape" fill="#FFF"/><path d="M193.744,98.671 C192.787,96.843 192.611,94.056 192.611,91.792 C194.181,90.224 195.92,89.526 198.275,90.05 C198.537,95.363 199.404,96.494 193.744,98.671 L193.744,98.671 L193.744,98.671 Z" id="Shape" fill="#FFF"/><path d="M186.951,96.146 C185.646,94.492 185.471,91.095 186.517,89.179 C187.564,89.179 188.955,89.876 190.001,89.876 C192.005,93.361 190.001,95.625 186.951,96.146 L186.951,96.146 L186.951,96.146 Z" id="Shape" fill="#FFF"/><path d="M180.509,94.406 C178.767,93.535 178.939,92.314 177.982,90.66 C175.806,90.574 173.802,91.793 172.498,91.445 C170.494,90.748 170.232,88.047 172.498,83.955 C173.889,83.867 176.502,84.041 177.549,85.609 C178.158,86.568 177.111,89.005 177.721,89.355 C179.026,89.964 180.682,86.742 182.772,86.742 C184.167,88.137 183.381,91.096 183.381,93.012 C182.599,93.185 181.205,94.144 180.509,94.406 L180.509,94.406 L180.509,94.406 Z" id="Shape" fill="#FFF"/><path d="M163.177,88.046 C161.263,85.87 162.306,83.78 162.306,80.907 C165.353,80.731 168.318,80.034 168.751,83.518 C167.009,85.173 165.443,87.177 163.177,88.046 L163.177,88.046 L163.177,88.046 Z" id="Shape" fill="#FFF"/><path d="M49.3569995,147.333988 C49.3569995,146.636988 64.685,139.515 64.685,138.818 C60.33,138.209 57.802,141.343 52.665,140.822 L52.665,138.732 C55.974,136.816 64.075,130.023 67.556,130.023 L67.556,127.062 C63.466,127.062 51.533,130.371 51.533,123.23 C52.228,120.183 59.635,110.517 56.846,109.123 C51.272,99.457 44.217,91.096 40.127,80.559 C42.217,77.948 39.775,74.637 42.826,70.979 C48.486,67.844 46.135,76.377 51.533,75.247 C44.654,45.202 60.678,37.452 60.592,36.755 C55.803,38.148 52.928,38.148 49.705,38.411 C51.361,26.218 69.646,15.333 80.099,12.458 C88.372,11.587 104.482,8.538 110.228,16.378 C110.228,18.032 109.095,19.599 109.095,21.776 C116.325,21.776 125.99,15.419 133.829,12.805 C138.356,10.891 141.927,11.065 146.106,12.457 C147.762,13.937 150.723,16.027 148.809,16.027 C136.266,12.109 118.329,22.123 108.137,27.697 C106.657,27.785 105.266,27.959 103.785,28.394 C103.699,29.787 103.699,29.787 104.39,31.093 C110.14,32.4 112.23,33.968 119.808,33.357 C121.288,35.359 122.769,37.277 124.249,39.279 C125.206,41.543 126.948,42.328 129.386,42.328 C129.995,38.932 128.605,38.932 127.21,36.318 C129.472,32.748 125.815,29.873 131.39,27.088 C134.351,26.391 134.175,28.568 135.831,27.959 C129.21,36.406 132.956,42.328 153.769,45.027 C155.164,44.332 159.257,45.463 158.734,40.5 C155.949,40.5 155.078,37.537 154.73,35.187 C156.296,35.796 157.601,36.058 159.171,36.492 C160.823,43.285 205.237,49.469 212.03,57.916 C214.729,61.4 211.682,63.578 205.151,66.451 C205.151,69.41 209.069,76.031 211.421,77.512 C212.901,76.553 212.987,74.637 213.511,73.069 C216.124,71.85 215.949,72.895 216.472,74.899 C216.21,77.948 216.21,80.995 216.734,84.129 C216.211,84.738 215.777,85.262 215.339,85.871 C213.859,86.307 211.683,86.219 210.202,86.219 C203.233,84.739 195.917,84.217 188.167,83.52 C168.573,74.637 145.499,57.133 126.077,50.079 C122.854,48.077 123.464,47.641 119.37,48.163 C119.546,51.386 121.55,51.647 123.987,53.04 C129.733,59.397 134.874,62.968 132.346,71.851 C132.17,72.722 131.998,73.681 131.998,74.55 C124.334,75.335 130.256,61.402 123.377,60.181 C107.439,73.158 132.346,103.29 147.498,93.972 C139.834,90.923 139.053,87.005 139.053,86.046 C156.643,94.755 193.307,102.679 196.877,104.159 C196.615,106.86 190.779,106.163 190.518,107.731 C181.463,110.256 167.877,104.768 160.041,100.85 C151.678,100.241 141.662,113.565 122.158,107.991 C118.674,106.684 100.385,93.884 97.252,94.667 C96.033,100.591 111.272,114.61 115.275,116.612 C115.451,117.919 115.713,119.225 115.884,120.532 C112.837,123.319 106.743,128.108 107.091,132.897 C111.357,132.723 113.099,131.243 117.103,131.243 C117.193,133.333 117.279,135.425 117.369,137.514 C117.369,144.479 109.181,140.475 106.045,138.993 C103.346,137.862 101.17,134.378 98.557,135.425 L98.557,137.253 C98.729,137.253 110.834,150.403 111.096,150.663 L111.096,155.452 C110.924,155.714 110.662,155.977 110.487,156.325 C106.307,156.325 104.132,153.712 100.299,153.538 C100.213,155.278 109.642725,166.056648 108.137002,167.045902 C93.7441417,176.501957 58.614257,167.045902 49.3569995,147.333988 Z M136.529,43.023 C141.318,43.896 156.213,49.556 151.162,50.949 L151.162,50.949 C146.369,50.949 138.533,50.513 135.486,45.898 L136.529,43.023 L136.529,43.023 Z M74.439,35.796 C73.74,35.796 70.955,38.757 70.255,38.757 C70.255,37.974 72.345,34.316 72.345,33.618 C77.224,23.778 87.411,19.858 96.556,21.686 C96.556,22.297 96.47,22.905 96.47,23.516 C82.97,27.608 85.759,44.243 85.236,44.502 C80.794,42.416 79.923,35.187 74.439,35.796 L74.439,35.796 L74.439,35.796 Z M74.177,94.841 C74.177,83.78 61.025,65.841 80.009,56.435 C80.361,56.435 75.482,82.212 90.548,90.05 L90.548,92.142 C88.544,92.488 85.669,92.402 83.06,92.402 C81.49,89.617 81.58,91.269 78.88,91.269 C78.88,94.23 80.97,99.542 81.489,102.503 C78.791,101.197 75.396,98.498 74.177,94.841 L74.177,94.841 L74.177,94.841 Z M98.298,49.207 C98.907,46.16 94.814,43.809 97.603,42.502 C101.607,42.152 104.048,39.803 104.048,36.232 C107.005,36.232 112.493,38.843 114.15,41.109 C113.279,44.332 111.451,44.853 110.318,47.291 C111.884,50.34 112.931,51.035 112.494,54.346 C111.623,54.52 110.752,54.694 109.967,54.869 C107.529,54.346 96.209,52.865 96.209,55.476 C93.162,55.914 91.068,55.476 87.85,55.738 C86.631,54.519 89.678,53.736 90.288,51.908 C93.072,51.035 95.423,49.642 98.298,49.207 L98.298,49.207 L98.298,49.207 Z" id="Shape" fill="#ED1C24"/></g></g></svg>