<svg xmlns="http://www.w3.org/2000/svg" height="480" width="640" viewBox="0 0 640 480"><g stroke-width="1pt" fill-rule="evenodd"><path fill="#f41408" d="M0 0h639.998v480H0z"/><path fill="#21873b" d="M0 319.997h639.998V480H0z"/><path d="M0 0h639.998v160.003H0z"/><g><path d="M220.479 141.06c22.308-49.262 84.502-72.826 138.83-52.597 27.36 10.188 46.74 27.754 57.987 52.56l-196.81.037zM194.509 147.425c-23.45-1.577-48.376-6.456-52.443-7.798-4.066-1.343-4.223-3.585-3.722-5.303.501-1.717 3.096-3.667 6.127-2.94 5.682 1.363 28.788 6.905 50.034 16.044zM319.139 61.514c-4.208-20.98-5.27-44.078-4.86-47.985.41-3.906 2.765-4.608 4.724-4.6 1.96.008 4.693 1.796 4.68 4.638-.027 5.33-.132 27.003-4.544 47.948zM330.679 62.001c-2.21-21.23-1.086-44.326-.308-48.186.778-3.86 3.19-4.376 5.141-4.216 1.952.16 4.507 2.153 4.224 4.984-.53 5.308-2.682 26.893-9.057 47.418zM341.139 63.286c-.276-21.322 2.94-44.256 4.066-48.046 1.126-3.789 3.576-4.123 5.506-3.818 1.93.305 4.295 2.483 3.757 5.283-1.01 5.25-5.113 26.601-13.329 46.581zM352.149 65.519c1.793-21.262 7.222-43.85 8.711-47.536 1.49-3.684 3.963-3.821 5.855-3.364 1.894.458 4.039 2.816 3.23 5.562-1.514 5.15-7.673 26.09-17.796 45.338zM362.999 68.653c3.867-21.034 11.486-43.097 13.33-46.647 1.844-3.55 4.321-3.488 6.161-2.88 1.841.609 3.747 3.13 2.674 5.8-2.01 5.007-10.2 25.37-22.16 43.726zM373.109 72.484c5.836-20.657 15.507-42.048 17.679-45.443 2.172-3.394 4.634-3.14 6.41-2.39 1.777.748 3.438 3.407 2.117 5.985-2.478 4.833-12.552 24.486-26.206 41.848zM383.059 77.207c7.808-20.113 19.507-40.655 21.999-43.863 2.491-3.21 4.92-2.76 6.617-1.873 1.697.887 3.095 3.668 1.53 6.13-2.935 4.618-14.868 23.396-30.146 39.607zM392.469 82.675c9.712-19.42 23.341-38.958 26.131-41.958 2.79-3 5.166-2.36 6.771-1.343 1.606 1.018 2.732 3.899.936 6.228-3.367 4.368-17.06 22.132-33.838 37.074zM401.329 88.875c11.544-18.577 27.001-36.963 30.07-39.73 3.068-2.768 5.374-1.943 6.875-.802 1.502 1.14 2.345 4.1.332 6.278-3.775 4.085-19.126 20.697-37.277 34.254zM409.579 95.765c13.292-17.59 30.464-34.68 33.787-37.192 3.324-2.514 5.54-1.51 6.926-.254 1.386 1.256 1.94 4.27-.275 6.281-4.154 3.77-21.049 19.1-40.439 31.166zM417.159 103.31c14.943-16.466 33.701-32.123 37.255-34.362 3.554-2.24 5.665-1.062 6.924.299 1.259 1.36 1.52 4.408-.881 6.235-4.504 3.424-22.815 17.352-43.298 27.828zM423.679 111.045c16.41-15.274 36.549-29.451 40.297-31.413 3.748-1.961 5.743-.629 6.872.823 1.129 1.452 1.108 4.508-1.454 6.146-4.803 3.071-24.338 15.56-45.715 24.444zM429.579 119.433c17.791-13.944 39.193-26.508 43.113-28.172 3.92-1.664 5.782-.18 6.77 1.353.987 1.534.678 4.578-2.03 6.01-5.075 2.688-25.715 13.615-47.853 20.808zM435.049 128.99c19.138-12.39 41.731-23.103 45.804-24.43 4.073-1.328 5.775.304 6.602 1.915.827 1.61.208 4.615-2.633 5.814-5.329 2.25-26.996 11.397-49.773 16.701zM439.229 138.221c20.24-10.856 43.763-19.771 47.946-20.778 4.183-1.006 5.725.753 6.396 2.422.672 1.67-.229 4.614-3.173 5.588-5.522 1.827-27.974 9.255-51.17 12.768zM442.589 148.006c21.216-9.197 45.514-16.198 49.779-16.867 4.265-.667 5.63 1.208 6.136 2.924.507 1.716-.676 4.578-3.704 5.313-5.678 1.378-28.765 6.984-52.21 8.63zM307.849 61.912c-6.33-20.538-9.744-43.448-9.733-47.373.01-3.924 2.283-4.82 4.234-4.976 1.952-.157 4.856 1.394 5.132 4.225.518 5.309 2.624 26.898.367 48.123zM296.749 63.213c-8.283-19.958-13.889-42.511-14.256-46.421-.367-3.91 1.81-4.982 3.739-5.293 1.93-.31 4.972 1.005 5.52 3.803 1.026 5.248 5.203 26.587 4.997 47.91zM285.719 65.413c-10.19-19.218-17.97-41.235-18.72-45.102-.746-3.865 1.32-5.107 3.21-5.57 1.892-.464 5.05.602 5.868 3.346 1.532 5.146 7.766 26.07 9.633 47.325zM275.319 68.359c-11.95-18.365-21.76-39.703-22.86-43.498-1.105-3.794.836-5.19 2.677-5.797 1.841-.608 5.088.212 6.16 2.883 2.009 5.008 10.179 25.376 14.03 46.412zM265.159 72.131c-13.65-17.369-25.44-37.867-26.9-41.562-1.46-3.695.343-5.237 2.12-5.985 1.777-.748 5.09-.184 6.409 2.395 2.475 4.834 12.539 24.492 18.362 45.152zM254.889 76.934c-15.313-16.183-29.09-35.636-30.91-39.196-1.82-3.56-.179-5.243 1.516-6.133 1.696-.89 5.051-.599 6.622 1.86 2.944 4.613 14.92 23.369 22.773 43.47zM245.539 82.306c-16.8-14.924-32.37-33.226-34.53-36.63-2.153-3.404-.677-5.21.927-6.229 1.605-1.02 4.975-.992 6.774 1.336 3.372 4.364 17.089 22.113 26.826 41.524zM236.779 88.282c-18.139-13.57-35.382-30.6-37.847-33.825-2.465-3.226-1.165-5.139.337-6.278 1.503-1.14 4.864-1.374 6.875.806 3.771 4.088 19.108 20.71 30.635 39.297zM228.269 95.23c-19.4-12.053-38.25-27.621-41.02-30.634-2.772-3.014-1.665-5.024-.281-6.28 1.385-1.258 4.709-1.762 6.926.247 4.158 3.766 21.068 19.083 34.377 36.663zM220.919 102.358c-20.447-10.533-40.668-24.614-43.709-27.406-3.041-2.792-2.124-4.88-.86-6.237 1.263-1.358 4.529-2.112 6.924-.28 4.492 3.438 22.758 17.416 37.645 33.922zM213.879 110.5c-21.398-8.842-42.92-21.237-46.223-23.772-3.303-2.536-2.594-4.69-1.469-6.143 1.126-1.454 4.305-2.47 6.87-.837 4.811 3.062 24.376 15.511 40.822 30.753zM207.569 119.324c-22.191-7.056-44.858-17.638-48.4-19.893-3.542-2.255-3.05-4.457-2.074-5.997s4.041-2.812 6.759-1.396c5.096 2.655 25.819 13.453 43.716 27.287zM202.329 128.292c-22.785-5.275-46.383-14.025-50.128-15.992-3.745-1.967-3.467-4.2-2.643-5.811.825-1.612 3.756-3.12 6.6-1.925 5.331 2.243 27.014 11.362 46.17 23.728zM198.129 137.278c-23.192-3.524-47.516-10.45-51.43-12.126-3.914-1.675-3.843-3.922-3.17-5.59.672-1.669 3.454-3.395 6.398-2.419 5.52 1.83 27.969 9.268 48.202 20.135z" fill="#f31509"/><path d="M194.509 147.425c-23.45-1.577-48.376-6.456-52.443-7.798-4.066-1.343-4.223-3.585-3.722-5.303.501-1.717 3.096-3.667 6.127-2.94 5.682 1.363 28.788 6.905 50.034 16.044z" fill="#f31509"/><path d="M129.386 141.522h381.23v12.562h-381.23z"/></g></g></svg>