<svg id="e2e0f303-db8f-43b0-b991-e6394321a108" data-name="Layer 1" xmlns="http://www.w3.org/2000/svg" width="1068.79" height="689.43" viewBox="0 0 1068.79 689.43"><title>joyride</title><path d="M1056,703.06,952.31,523.41a3.3,3.3,0,0,0-5.73,0L842.86,703.06a3.3,3.3,0,0,0,2.87,5h30.94a3.32,3.32,0,0,1,3.31,3.31v38.38a3.3,3.3,0,0,0,3.29,3.31h40.37a3.31,3.31,0,0,0,3.31-3.31V731.18a3.3,3.3,0,0,1,3.3-3.3h38.38a3.31,3.31,0,0,1,3.31,3.3v18.53a3.31,3.31,0,0,0,3.31,3.31h40.36a3.34,3.34,0,0,0,3.32-3.31V711.33a3.31,3.31,0,0,1,3.31-3.31h30.94A3.31,3.31,0,0,0,1056,703.06ZM911.43,722.94a3.34,3.34,0,0,1-2.35,1H894.52a3.31,3.31,0,0,1,0-6.62h14.56a3.3,3.3,0,0,1,3.31,3.31A3.34,3.34,0,0,1,911.43,722.94Zm95.27,0a3.29,3.29,0,0,1-2.34,1H989.81a3.32,3.32,0,0,1-3.31-3.31,3.33,3.33,0,0,1,3.31-3.31h14.55a3.3,3.3,0,0,1,2.34,5.65Z" transform="translate(-65.6 -105.28)" fill="#f2f2f2"/><path d="M414.94,704.64,311.23,525a3.32,3.32,0,0,0-5.74,0L215.9,680.16a274.22,274.22,0,0,0,37.53,38.71H268a3.31,3.31,0,0,1,2.34,5.65,3.25,3.25,0,0,1-2.34,1h-6.16a160.29,160.29,0,0,0,24,14.93v-7.65a3.32,3.32,0,0,1,3.32-3.31h38.37a3.31,3.31,0,0,1,3.31,3.31v18.52a3.08,3.08,0,0,0,.31,1.39,3.28,3.28,0,0,0,3,1.92h40.37a3.27,3.27,0,0,0,2.63-1.33,3.17,3.17,0,0,0,.66-2V712.92a3.31,3.31,0,0,1,3.31-3.31h30.94A3.3,3.3,0,0,0,414.94,704.64Zm-68.56,15.2a3.33,3.33,0,0,1,2.35-1h14.56a3.31,3.31,0,0,1,3.31,3.31,3.33,3.33,0,0,1-3.31,3.31H348.73a3.3,3.3,0,0,1-3.31-3.31A3.34,3.34,0,0,1,346.38,719.84Zm-65.14-66.48a3.3,3.3,0,0,1-3.31-3.31V624.91a3.3,3.3,0,0,1,3.31-3.31h54.25a3.31,3.31,0,0,1,3.31,3.31v25.14a3.31,3.31,0,0,1-3.31,3.31Z" transform="translate(-65.6 -105.28)" fill="#f2f2f2"/><path d="M824.93,381.92H696.57V354.16a6.63,6.63,0,0,0-6.64-6.64H652.24V318a4.18,4.18,0,0,0-4.18-4.18H599.51a4.18,4.18,0,0,0-4.18,4.18v29.57H551a6.64,6.64,0,0,0-6.64,6.64V381.9a0,0,0,0,0,0,0H422a1.35,1.35,0,0,0-1.34,1.35V751.79a1.35,1.35,0,0,0,1.34,1.35h81.34a1.35,1.35,0,0,0,1.35-1.35V702.21a1.37,1.37,0,0,1,1.36-1.35h34.35a1.36,1.36,0,0,1,1.35,1.35v49.58a1.36,1.36,0,0,0,1.34,1.35H703.83a1.36,1.36,0,0,0,1.35-1.35V702.21a1.36,1.36,0,0,1,1.34-1.35h34.36a1.36,1.36,0,0,1,1.36,1.35v49.58a1.36,1.36,0,0,0,1.34,1.35h81.35a1.35,1.35,0,0,0,1.34-1.35V383.27A1.35,1.35,0,0,0,824.93,381.92ZM490.12,683.64a1.34,1.34,0,0,1-1.33,1.34H438.55a1.35,1.35,0,0,1-1.36-1.34V666.48a1.36,1.36,0,0,1,1.36-1.35h50.24a1.35,1.35,0,0,1,1.33,1.35Zm0-44.34a1.34,1.34,0,0,1-1.33,1.35H438.55a1.35,1.35,0,0,1-1.36-1.35V622.15a1.35,1.35,0,0,1,1.36-1.35h50.24a1.34,1.34,0,0,1,1.33,1.35Zm0-44.33a1.35,1.35,0,0,1-1.33,1.35H438.55a1.36,1.36,0,0,1-1.36-1.35V577.81a1.36,1.36,0,0,1,1.36-1.35h50.24a1.35,1.35,0,0,1,1.33,1.35Zm0-44.34a1.34,1.34,0,0,1-1.33,1.35H438.55a1.35,1.35,0,0,1-1.36-1.35V533.48a1.35,1.35,0,0,1,1.36-1.35h50.24a1.34,1.34,0,0,1,1.33,1.35Zm0-44.33a1.35,1.35,0,0,1-1.33,1.35H438.55a1.36,1.36,0,0,1-1.36-1.35V489.14a1.35,1.35,0,0,1,1.36-1.34h50.24a1.34,1.34,0,0,1,1.33,1.34Zm0-44.33a1.34,1.34,0,0,1-1.33,1.34H438.55a1.35,1.35,0,0,1-1.36-1.34V444.81a1.36,1.36,0,0,1,1.36-1.35h50.24a1.35,1.35,0,0,1,1.33,1.35Zm0-44.34a1.34,1.34,0,0,1-1.33,1.35H438.55a1.35,1.35,0,0,1-1.36-1.35V400.48a1.35,1.35,0,0,1,1.36-1.35h50.24a1.34,1.34,0,0,1,1.33,1.35Zm119.12,266a1.35,1.35,0,0,1-1.36,1.34H557.64a1.34,1.34,0,0,1-1.34-1.34V666.48a1.35,1.35,0,0,1,1.34-1.35h50.24a1.36,1.36,0,0,1,1.36,1.35Zm0-44.34a1.35,1.35,0,0,1-1.36,1.35H557.64a1.34,1.34,0,0,1-1.34-1.35V622.15a1.34,1.34,0,0,1,1.34-1.35h50.24a1.35,1.35,0,0,1,1.36,1.35Zm0-44.33a1.36,1.36,0,0,1-1.36,1.35H557.64A1.35,1.35,0,0,1,556.3,595V577.81a1.35,1.35,0,0,1,1.34-1.35h50.24a1.36,1.36,0,0,1,1.36,1.35Zm0-44.34a1.35,1.35,0,0,1-1.36,1.35H557.64a1.34,1.34,0,0,1-1.34-1.35V533.48a1.34,1.34,0,0,1,1.34-1.35h50.24a1.35,1.35,0,0,1,1.36,1.35Zm0-44.33a1.36,1.36,0,0,1-1.36,1.35H557.64a1.35,1.35,0,0,1-1.34-1.35V489.14a1.34,1.34,0,0,1,1.34-1.34h50.24a1.35,1.35,0,0,1,1.36,1.34Zm0-44.33a1.35,1.35,0,0,1-1.36,1.34H557.64A1.34,1.34,0,0,1,556.3,462V444.81a1.35,1.35,0,0,1,1.34-1.35h50.24a1.36,1.36,0,0,1,1.36,1.35Zm0-44.34a1.35,1.35,0,0,1-1.36,1.35H557.64a1.34,1.34,0,0,1-1.34-1.35V400.48a1.34,1.34,0,0,1,1.34-1.35h50.24a1.35,1.35,0,0,1,1.36,1.35Zm81.38,266a1.34,1.34,0,0,1-1.35,1.34H639a1.36,1.36,0,0,1-1.36-1.34V666.48a1.37,1.37,0,0,1,1.36-1.35h50.23a1.35,1.35,0,0,1,1.35,1.35Zm0-44.34a1.34,1.34,0,0,1-1.35,1.35H639a1.36,1.36,0,0,1-1.36-1.35V622.15A1.36,1.36,0,0,1,639,620.8h50.23a1.34,1.34,0,0,1,1.35,1.35Zm0-44.33a1.35,1.35,0,0,1-1.35,1.35H639a1.37,1.37,0,0,1-1.36-1.35V577.81a1.37,1.37,0,0,1,1.36-1.35h50.23a1.35,1.35,0,0,1,1.35,1.35Zm0-44.34a1.34,1.34,0,0,1-1.35,1.35H639a1.36,1.36,0,0,1-1.36-1.35V533.48a1.36,1.36,0,0,1,1.36-1.35h50.23a1.34,1.34,0,0,1,1.35,1.35Zm0-44.33a1.35,1.35,0,0,1-1.35,1.35H639a1.37,1.37,0,0,1-1.36-1.35V489.14A1.36,1.36,0,0,1,639,487.8h50.23a1.34,1.34,0,0,1,1.35,1.34Zm0-44.33a1.34,1.34,0,0,1-1.35,1.34H639a1.36,1.36,0,0,1-1.36-1.34V444.81a1.37,1.37,0,0,1,1.36-1.35h50.23a1.35,1.35,0,0,1,1.35,1.35Zm0-44.34a1.34,1.34,0,0,1-1.35,1.35H639a1.36,1.36,0,0,1-1.36-1.35V400.48a1.36,1.36,0,0,1,1.36-1.35h50.23a1.34,1.34,0,0,1,1.35,1.35Zm119.12,266a1.36,1.36,0,0,1-1.36,1.34H758.14a1.33,1.33,0,0,1-1.34-1.34V666.48a1.34,1.34,0,0,1,1.34-1.35h50.24a1.37,1.37,0,0,1,1.36,1.35Zm0-44.34a1.36,1.36,0,0,1-1.36,1.35H758.14a1.34,1.34,0,0,1-1.34-1.35V622.15a1.34,1.34,0,0,1,1.34-1.35h50.24a1.36,1.36,0,0,1,1.36,1.35Zm0-44.33a1.37,1.37,0,0,1-1.36,1.35H758.14A1.34,1.34,0,0,1,756.8,595V577.81a1.34,1.34,0,0,1,1.34-1.35h50.24a1.37,1.37,0,0,1,1.36,1.35Zm0-44.34a1.36,1.36,0,0,1-1.36,1.35H758.14a1.34,1.34,0,0,1-1.34-1.35V533.48a1.34,1.34,0,0,1,1.34-1.35h50.24a1.36,1.36,0,0,1,1.36,1.35Zm0-44.33a1.37,1.37,0,0,1-1.36,1.35H758.14a1.34,1.34,0,0,1-1.34-1.35V489.14a1.33,1.33,0,0,1,1.34-1.34h50.24a1.36,1.36,0,0,1,1.36,1.34Zm0-44.33a1.36,1.36,0,0,1-1.36,1.34H758.14A1.33,1.33,0,0,1,756.8,462V444.81a1.34,1.34,0,0,1,1.34-1.35h50.24a1.37,1.37,0,0,1,1.36,1.35Zm0-44.34a1.36,1.36,0,0,1-1.36,1.35H758.14a1.34,1.34,0,0,1-1.34-1.35V400.48a1.34,1.34,0,0,1,1.34-1.35h50.24a1.36,1.36,0,0,1,1.36,1.35Z" transform="translate(-65.6 -105.28)" fill="#f2f2f2"/><path d="M253.2,385.72a74.43,74.43,0,0,0,5.77-8.48l-40.67-6.68,44,.33a74.17,74.17,0,0,0,1.43-58.73l-59,30.6,54.41-40a74.13,74.13,0,1,0-122.43,83,73.89,73.89,0,0,0-8.45,13.52L181,426.66l-56.27-18.89a74.19,74.19,0,0,0,12,69.61,73.63,73.63,0,0,0-13.29,26.45,738.47,738.47,0,0,0,34.9,83.83,73.39,73.39,0,0,0,23,8.41,25.71,25.71,0,0,0-1.46,8.61A24.45,24.45,0,0,0,183,617.06a24,24,0,0,0-3.16,10.56h0a455.92,455.92,0,0,0,30.1,45,22.75,22.75,0,0,0-2.44-6,25.41,25.41,0,0,0,0-24.76,25.41,25.41,0,0,0,0-24.76,24.45,24.45,0,0,0,3.22-12.38,25.39,25.39,0,0,0-1.5-8.73,74.13,74.13,0,0,0,44-118.57,74.11,74.11,0,0,0,0-91.66Z" transform="translate(-65.6 -105.28)" fill="#f2f2f2"/><path d="M1134.27,444.85l-3-.49,2.94,0a126.92,126.92,0,0,0-6.08-33.31l-10.46,5.43,9.84-7.26a127.64,127.64,0,0,0-48.75-63.93,74.4,74.4,0,0,0-29.11,114.25,74.13,74.13,0,0,0-8.45,13.55L1094,500.59l-56.27-18.93a74.48,74.48,0,0,0,12,69.76,74.41,74.41,0,0,0,32.9,115.77c4-9.49,7.89-19.41,11.53-29.61,3.22-9,6.29-18.17,9.18-27.43a843,843,0,0,0,21.16-82.56c6.4-31.72,10-59.44,10-77C1134.4,448.66,1134.35,446.76,1134.27,444.85Z" transform="translate(-65.6 -105.28)" fill="#f2f2f2"/><ellipse cx="532" cy="664.43" rx="532" ry="25" fill="#3f3d56"/><path d="M880,510.22c-9.94-17.22-51-12.15-91.61,11.32a195.17,195.17,0,0,0-20.38,13.51,176.65,176.65,0,0,0-352.48,4.44,189.49,189.49,0,0,0-26-18C349,498.07,307.93,493,298,510.22s15,50.2,55.61,73.67c26.31,15.19,52.76,22.66,70.85,21.39a176.85,176.85,0,0,0,53.82,79c-35.62,5-61.81,21.66-61.81,41.48,0,23.74,37.61,43,84,43s84-19.26,84-43c0-.06,0-.12,0-.19q3.74.16,7.51.17t7.51-.17c0,.07,0,.13,0,.19,0,23.74,37.61,43,84,43s84-19.26,84-43c0-19.82-26.19-36.49-61.81-41.48a176.82,176.82,0,0,0,53.78-78.85c17.69-.46,41.4-7.87,65-21.5C865.08,560.42,890,527.43,880,510.22Z" transform="translate(-65.6 -105.28)" fill="#206bc4"/><path d="M298,519.22c9.94-17.22,51-12.15,91.61,11.32a189.25,189.25,0,0,1,25.61,17.64c.39-8.46.39.54.37-8.7a189.58,189.58,0,0,0-26-17.94C349,498.07,307.93,493,298,510.22c-2.19,3.79-2.68,8.35-1.69,13.4A16,16,0,0,1,298,519.22Z" transform="translate(-65.6 -105.28)" opacity="0.1"/><path d="M880.22,519.22c-9.94-17.22-51-12.15-91.62,11.32C779.13,536,775.52,538,768,544.18c-.4-8.46-.4.54-.37-8.7,7.6-6.29,11.35-8.38,21-13.94,40.66-23.47,81.68-28.54,91.62-11.32,2.19,3.79,2.68,8.35,1.69,13.4A16,16,0,0,0,880.22,519.22Z" transform="translate(-65.6 -105.28)" opacity="0.1"/><ellipse cx="479.03" cy="409.54" rx="18.32" ry="23.99" fill="#444053"/><ellipse cx="573.68" cy="409.54" rx="18.32" ry="23.99" fill="#444053"/><path d="M705.8,590.28c0,34.44-57.53,92.46-115.58,92.46S476.81,623.41,476.81,589,531,586,589,586,705.8,555.83,705.8,590.28Z" transform="translate(-65.6 -105.28)" fill="#3f3d56"/><path d="M495.11,596.16s104.35,23.23,192,.66c0,0,10.73,0,3.4,12.4a19.81,19.81,0,0,1-8,7.52c-16.9,8.63-79.45,34.15-179.47,1.61A19.68,19.68,0,0,1,490,605C488.86,600.79,489.37,596.75,495.11,596.16Z" transform="translate(-65.6 -105.28)" fill="#f6f8fb"/><path d="M591.31,395.83A176.64,176.64,0,0,1,767.63,562q.5-6.6.5-13.33a176.65,176.65,0,0,0-353.29,0c0,3.53.12,7,.32,10.51A176.66,176.66,0,0,1,591.31,395.83Z" transform="translate(-65.6 -105.28)" opacity="0.1"/><path d="M611.24,167.36a22.64,22.64,0,1,1-45.28,0c0-.37,0-.73,0-1.09a22.64,22.64,0,0,1,45.22,0C611.23,166.63,611.24,167,611.24,167.36Z" transform="translate(-65.6 -105.28)" fill="#3f3d56"/><path d="M611.24,167.36a22.64,22.64,0,1,1-45.28,0c0-.37,0-.73,0-1.09a35.74,35.74,0,0,1,45.22,0C611.23,166.63,611.24,167,611.24,167.36Z" transform="translate(-65.6 -105.28)" opacity="0.1"/><circle cx="523" cy="90.68" r="35.75" fill="#3f3d56"/><path d="M567,162.36a22.65,22.65,0,0,1,19.64-22.44,22.64,22.64,0,1,0,0,44.88A22.65,22.65,0,0,1,567,162.36Z" transform="translate(-65.6 -105.28)" fill="#3f3d56"/><path d="M548.27,210.47a22.64,22.64,0,0,1-3.81-29.58A22.64,22.64,0,1,0,576.25,213a21.75,21.75,0,0,0,1.84-2.39A22.63,22.63,0,0,1,548.27,210.47Z" transform="translate(-65.6 -105.28)" fill="#3f3d56"/><path d="M569.91,241.29c-1.78.6-3.76.73-5.29,1.81-3,2.07-2.87,6.46-2,10,2,8,7,15.71,14.57,19,4.58,2,9.7,2.19,14.68,2.13,5.43-.06,11.54-.75,14.9-5,1.67-2.13,2.38-4.83,3.05-7.46,1.66-6.5,3.33-13.15,2.73-19.83-3.29.29-7,.48-9.52-1.59s-3.18-6-4.3-9.29a2.34,2.34,0,0,0-.84-1.32,2.56,2.56,0,0,0-1.5-.23A59.24,59.24,0,0,1,586.1,229c-2.13-.28-7.37-2.5-9-.63-1.17,1.37-.43,5.5-1.32,7.41A10.36,10.36,0,0,1,569.91,241.29Z" transform="translate(-65.6 -105.28)" fill="#ffc1c7"/><path d="M569.91,241.29c-1.78.6-3.76.73-5.29,1.81-3,2.07-2.87,6.46-2,10,2,8,7,15.71,14.57,19,4.58,2,9.7,2.19,14.68,2.13,5.43-.06,11.54-.75,14.9-5,1.67-2.13,2.38-4.83,3.05-7.46,1.66-6.5,3.33-13.15,2.73-19.83-3.29.29-7,.48-9.52-1.59s-3.18-6-4.3-9.29a2.34,2.34,0,0,0-.84-1.32,2.56,2.56,0,0,0-1.5-.23A59.24,59.24,0,0,1,586.1,229c-2.13-.28-7.37-2.5-9-.63-1.17,1.37-.43,5.5-1.32,7.41A10.36,10.36,0,0,1,569.91,241.29Z" transform="translate(-65.6 -105.28)" opacity="0.05"/><path d="M383.16,474.58c-8,.24-16.17-.1-24,1.66a6.15,6.15,0,0,0-3.88,2c-1.15,1.64-.54,3.93.41,5.7a17.71,17.71,0,0,0,10.12,8.41c4.76,1.52,9.89.94,14.87,1.1a49.74,49.74,0,0,1,19.62,4.72c1.4.66,2.88,1.4,4.41,1.17,2.21-.34,3.59-2.55,4.41-4.63a56.5,56.5,0,0,0,2.21-7.67c1.16-4.93,1.32-14.67-5.45-16-3.1-.6-6.75,1.54-9.73,2.16A72.41,72.41,0,0,1,383.16,474.58Z" transform="translate(-65.6 -105.28)" fill="#444053"/><path d="M793.17,476.89a9.22,9.22,0,0,0,4.67-3.58c3-4.37,3-9.59,4.59-14.38,2-6.23,6.43-11.37,9.21-17.3a35.77,35.77,0,0,0,3.34-17,3,3,0,0,0-3.51-2.8c-3.77.73-7.19,3.46-9.59,6.58-3.09,4-5.11,8.76-8.28,12.71s-7.62,7.12-11.39,10.75c-4.73,4.56-8.44,9.52-4.22,15.44C781.42,472.17,786.16,479.19,793.17,476.89Z" transform="translate(-65.6 -105.28)" fill="#444053"/><path d="M548.09,345.94a321.29,321.29,0,0,1-92,81.17c-10.89,6.39-22.25,12.19-31.93,20.3-7.34,6.16-13.57,13.52-19.76,20.84a5,5,0,0,0-1.4,2.56,4.91,4.91,0,0,0,.37,2.06c2,5.9,4.32,12.3,9.66,15.52,13.84-20,41.34-25.17,62.43-37.27,9.8-5.62,18.73-12.6,27.77-19.36q19.6-14.67,40.07-28.11c9.05-5.94,18.37-11.78,28.75-14.87,22-6.58,46,0,66.32,10.8s38.21,25.56,58.12,37.05c27.06,15.6,57.25,24.8,87.14,33.87,1.07-7.18,1.72-14.22,3.24-21.32-7.46-1.05-14.51-4-21.47-6.89-7.77-3.24-15.59-6.52-22.57-11.23-4.61-3.12-8.8-6.84-13.36-10-9.94-7-21.46-11.4-31.53-18.19-13.12-8.84-23.27-21.35-35.27-31.66-5.23-4.49-10.79-8.56-16.36-12.62-5.76-4.21-11.61-8.46-18.25-11.07-7.88-3.11-16.48-3.75-24.93-4.35C584.23,341.77,566,339.91,548.09,345.94Z" transform="translate(-65.6 -105.28)" fill="#575a89"/><circle cx="522.5" cy="107.93" r="25" fill="#ffc1c7"/><path d="M587.36,265.34a30,30,0,0,1-12.62-4.6A18.38,18.38,0,0,1,567.05,250c-.81-3.53-.36-7.34-1.78-10.66a95.44,95.44,0,0,1-14,5.68c-2.71.85-5.54,1.63-7.74,3.42-4.73,3.85-5,10.85-4.87,16.94a11.26,11.26,0,0,0,.45,3.57,9,9,0,0,0,1.95,2.94c5.14,5.5,13.13,7.78,18,13.55a19.29,19.29,0,0,0-4.71,10.16,35.89,35.89,0,0,1-.64,4.52,27.89,27.89,0,0,1-1.47,3.59c-3.16,7.2-3.05,15.34-3.53,23.18s-1.84,16.19-7.14,22c2.16,2.32,5,3,8.11,3.29s6.33-.12,9.5,0c8.36.24,16.25,3.66,24.31,5.89s17.21,3.14,24.34-1.23c2.5-1.53,4.62-3.64,7.13-5.15,3-1.82,6.52-2.69,10-3.54l1.25-41.76a70.94,70.94,0,0,1,.63-8.75c1.81-11.42,9.1-21.09,16.16-30.24a27.67,27.67,0,0,0-12.69-20.6,54.36,54.36,0,0,0-10-4.64L612.09,239a4.58,4.58,0,0,0-2.34-.44c-1.78.32-2.46,2.49-2.56,4.29-.16,2.84.26,5.69.16,8.53s-.81,5.84-2.82,7.85a13.56,13.56,0,0,1-5,2.84C595.33,263.67,591.79,266,587.36,265.34Z" transform="translate(-65.6 -105.28)" fill="#ff6584"/><path d="M554.18,370c.33,5.57.66,11.2-.28,16.7s-3.24,10.94-7.42,14.64c-3.23,2.85-7.77,5-8.57,9.27a5,5,0,0,0,.22,2.8c.89,2.1,3.5,3.05,5.76,2.69a13.43,13.43,0,0,0,6-3.14,132.54,132.54,0,0,0,9.94-9c2.79-2.71,5.68-5.57,6.85-9.28a22.91,22.91,0,0,0,.81-5.42c.65-10,.82-20,1-30,.12-7.28.2-14.79-2.48-21.56.4,1-9.34,1.95-10.08,2-4.2.37-3.4,2.1-3.16,6.06Q553.47,357.92,554.18,370Z" transform="translate(-65.6 -105.28)" fill="#ffc1c7"/><path d="M627,370c-.33,5.57-.66,11.2.28,16.7s3.24,10.94,7.42,14.64c3.23,2.85,7.77,5,8.57,9.27a5,5,0,0,1-.22,2.8c-.89,2.1-3.5,3.05-5.76,2.69a13.43,13.43,0,0,1-6-3.14,132.54,132.54,0,0,1-9.94-9c-2.79-2.71-5.68-5.57-6.85-9.28a22.91,22.91,0,0,1-.81-5.42c-.65-10-.82-20-1-30-.12-7.28-.2-14.79,2.48-21.56-.4,1,9.34,1.95,10.08,2,4.2.37,3.4,2.1,3.16,6.06Q627.75,357.92,627,370Z" transform="translate(-65.6 -105.28)" fill="#ffc1c7"/><path d="M541.63,261.7c-3.53,10.42-2.1,22,1.51,32.37.88,2.55,1.91,5.21,1.5,7.88a24.78,24.78,0,0,1-1.24,4,18.94,18.94,0,0,0-.54,9.71,6.08,6.08,0,0,0,1.11,2.68,12.45,12.45,0,0,1,1,1.16c1.37,2.14-1.32,4.79-1,7.32.24,2.1,2.37,3.34,3.86,4.85,4.21,4.27,3.4,11.22,2.3,17.12,5.11-.45,9.52-4.63,14.64-4.29a8.76,8.76,0,0,1,7.54,5.81c-.19-4.95,1.57-9.17,2-14.11.57-6.43-3.59-12.19-5.6-18.31-2.93-8.92-1.28-18.61-2-28a93.56,93.56,0,0,0-1.52-10.39c-.91-4.7-2.24-9.84-6.22-12.51C553.84,263.58,546.12,266,541.63,261.7Z" transform="translate(-65.6 -105.28)" opacity="0.1"/><path d="M540.63,259.7c-3.53,10.42-2.1,22,1.51,32.37.88,2.55,1.91,5.21,1.5,7.88a24.78,24.78,0,0,1-1.24,4,18.94,18.94,0,0,0-.54,9.71,6.08,6.08,0,0,0,1.11,2.68,12.45,12.45,0,0,1,1,1.16c1.37,2.14-1.32,4.79-1,7.32.24,2.1,2.37,3.34,3.86,4.85,4.21,4.27,3.4,11.22,2.3,17.12,5.11-.45,9.52-4.63,14.64-4.29a8.76,8.76,0,0,1,7.54,5.81c-.19-4.95,1.57-9.17,2-14.11.57-6.43-3.59-12.19-5.6-18.31-2.93-8.92-1.28-18.61-2-28a93.56,93.56,0,0,0-1.52-10.39c-.91-4.7-2.24-9.84-6.22-12.51C552.84,261.58,545.12,264,540.63,259.7Z" transform="translate(-65.6 -105.28)" fill="#ff6584"/><path d="M639.58,261.7c3.53,10.42,2.1,22-1.51,32.37-.88,2.55-1.91,5.21-1.5,7.88a24.78,24.78,0,0,0,1.24,4,18.94,18.94,0,0,1,.54,9.71,6.08,6.08,0,0,1-1.11,2.68,12.45,12.45,0,0,0-1,1.16c-1.37,2.14,1.32,4.79,1,7.32-.24,2.1-2.37,3.34-3.86,4.85-4.21,4.27-3.4,11.22-2.3,17.12-5.11-.45-9.52-4.63-14.64-4.29a8.76,8.76,0,0,0-7.54,5.81c.19-4.95-1.57-9.17-2-14.11-.57-6.43,3.59-12.19,5.6-18.31,2.93-8.92,1.28-18.61,2-28A93.56,93.56,0,0,1,616,279.55c.91-4.7,2.24-9.84,6.22-12.51C627.37,263.58,635.09,266,639.58,261.7Z" transform="translate(-65.6 -105.28)" opacity="0.1"/><path d="M640.58,259.7c3.53,10.42,2.1,22-1.51,32.37-.88,2.55-1.91,5.21-1.5,7.88a24.78,24.78,0,0,0,1.24,4,18.94,18.94,0,0,1,.54,9.71,6.08,6.08,0,0,1-1.11,2.68,12.45,12.45,0,0,0-1,1.16c-1.37,2.14,1.32,4.79,1,7.32-.24,2.1-2.37,3.34-3.86,4.85-4.21,4.27-3.4,11.22-2.3,17.12-5.11-.45-9.52-4.63-14.64-4.29a8.76,8.76,0,0,0-7.54,5.81c.19-4.95-1.57-9.17-2-14.11-.57-6.43,3.59-12.19,5.6-18.31,2.93-8.92,1.28-18.61,2-28A93.56,93.56,0,0,1,617,277.55c.91-4.7,2.24-9.84,6.22-12.51C628.37,261.58,636.09,264,640.58,259.7Z" transform="translate(-65.6 -105.28)" fill="#ff6584"/><ellipse cx="522" cy="84.43" rx="30" ry="20" fill="#3f3d56"/><path d="M562.6,295.72a14,14,0,0,1,13-14c-.33,0-.66,0-1,0a14,14,0,0,0,0,28c.34,0,.67,0,1-.05A14,14,0,0,1,562.6,295.72Z" transform="translate(-65.6 -105.28)" opacity="0.05"/><ellipse cx="508" cy="190.43" rx="11" ry="14" fill="#ff6584"/><path d="M619.6,295.72a14,14,0,0,0-13-14c.34,0,.67,0,1,0a14,14,0,0,1,0,28c-.33,0-.66,0-1-.05A14,14,0,0,0,619.6,295.72Z" transform="translate(-65.6 -105.28)" opacity="0.05"/><ellipse cx="543" cy="190.43" rx="11" ry="14" fill="#ff6584"/><path d="M587.6,207.72c-16.06,0-29.18-8.42-30-19,0,.33,0,.66,0,1,0,11,13.44,20,30,20s30-9,30-20c0-.34,0-.67,0-1C616.79,199.3,603.67,207.72,587.6,207.72Z" transform="translate(-65.6 -105.28)" opacity="0.1"/><path d="M410.59,139.41l-15.52,9.85,9.42-17.14a15.35,15.35,0,0,0-9.38-3.35h-.25a18.09,18.09,0,0,1-3.22-.23l-5.26,3.33,2.25-4.1a18.72,18.72,0,0,1-9.2-7l-9.41,6L376,115.94c-5.5-6.6-12.92-10.66-21.09-10.66-9.79,0-18.51,5.83-24.14,14.9a18,18,0,0,1-16,8.6h-.52c-10.81,0-19.57,12.26-19.57,27.37s8.76,27.37,19.57,27.37a14.71,14.71,0,0,0,6.81-1.7c7.05-3.67,16.31-3.74,23.69-.47a24.71,24.71,0,0,0,20.14,0,28.27,28.27,0,0,1,23.47.45,14.72,14.72,0,0,0,6.75,1.67c10.81,0,19.57-12.25,19.57-27.37A34.77,34.77,0,0,0,410.59,139.41Z" transform="translate(-65.6 -105.28)" fill="#f2f2f2"/><path d="M381.34,179.46a28.9,28.9,0,0,0-16.77,1.83,24.69,24.69,0,0,1-20.13,0,28.25,28.25,0,0,0-23.69.46,14.6,14.6,0,0,1-6.81,1.71c-9.61,0-17.59-9.67-19.26-22.43a18.43,18.43,0,0,0,4.8-5.18c5.63-9.07,14.35-14.89,24.14-14.89s18.41,5.75,24,14.73a18.52,18.52,0,0,0,15.95,8.76h.25C371.5,164.4,378.12,170.53,381.34,179.46Z" transform="translate(-65.6 -105.28)" opacity="0.03"/><path d="M940.57,311l-7.74,4.91,4.7-8.54a7.64,7.64,0,0,0-4.69-1.67h-.12a9.62,9.62,0,0,1-1.61-.12l-2.62,1.66,1.12-2a9.4,9.4,0,0,1-4.59-3.49l-4.69,3,3-5.39A13.75,13.75,0,0,0,912.77,294c-4.88,0-9.23,2.91-12,7.43a9,9,0,0,1-8,4.29h-.26c-5.39,0-9.76,6.11-9.76,13.65S887.12,333,892.51,333a7.32,7.32,0,0,0,3.4-.85,14.1,14.1,0,0,1,11.82-.23,12.31,12.31,0,0,0,10,0,14.08,14.08,0,0,1,11.71.23,7.29,7.29,0,0,0,3.36.83c5.39,0,9.76-6.11,9.76-13.65A17.42,17.42,0,0,0,940.57,311Z" transform="translate(-65.6 -105.28)" fill="#f2f2f2"/><path d="M926,331a14.44,14.44,0,0,0-8.37.91,12.28,12.28,0,0,1-5,1.06,12.41,12.41,0,0,1-5-1.08,14,14,0,0,0-11.81.23,7.35,7.35,0,0,1-3.4.85c-4.79,0-8.78-4.83-9.61-11.19a9.25,9.25,0,0,0,2.4-2.58c2.8-4.53,7.15-7.43,12-7.43s9.18,2.87,12,7.35a9.24,9.24,0,0,0,8,4.37h.13C921.07,323.49,924.37,326.54,926,331Z" transform="translate(-65.6 -105.28)" opacity="0.03"/><path d="M781.73,197l12.44,7.89-7.55-13.73a12.29,12.29,0,0,1,7.52-2.69h.2a14.8,14.8,0,0,0,2.58-.2l4.21,2.68-1.8-3.29A15,15,0,0,0,806.7,182l7.54,4.78-4.76-8.66c4.41-5.3,10.35-8.55,16.9-8.55,7.84,0,14.83,4.67,19.34,11.94a14.46,14.46,0,0,0,12.78,6.89h.43c8.66,0,15.67,9.82,15.67,21.93s-7,21.93-15.67,21.93a11.81,11.81,0,0,1-5.47-1.36,22.61,22.61,0,0,0-19-.38,19.79,19.79,0,0,1-16.14,0,22.62,22.62,0,0,0-18.81.37,11.78,11.78,0,0,1-5.4,1.33c-8.66,0-15.68-9.82-15.68-21.93A27.84,27.84,0,0,1,781.73,197Z" transform="translate(-65.6 -105.28)" fill="#f2f2f2"/><path d="M805.17,229a23.11,23.11,0,0,1,13.43,1.46,19.79,19.79,0,0,0,16.14,0,22.65,22.65,0,0,1,19,.37,11.76,11.76,0,0,0,5.47,1.37c7.69,0,14.09-7.75,15.42-18a14.94,14.94,0,0,1-3.84-4.15c-4.51-7.27-11.5-11.93-19.35-11.93s-14.74,4.61-19.25,11.8a14.85,14.85,0,0,1-12.78,7h-.2C813.05,217,807.75,221.88,805.17,229Z" transform="translate(-65.6 -105.28)" opacity="0.03"/><path d="M307,759.17c-4.13-7.64.55-17,5.93-23.81s11.95-13.91,11.81-22.59c-.2-12.48-13.45-19.85-24-26.46A117,117,0,0,1,279.18,669a31.49,31.49,0,0,1-6.63-8.87c-2.19-4.88-2.13-10.43-2-15.78q.69-26.7,2.64-53.36" transform="translate(-65.6 -105.28)" fill="none" stroke="#3f3d56" stroke-miterlimit="10" stroke-width="4"/><path d="M253.08,590A19.41,19.41,0,0,1,262.8,574l4.35,8.61L267,572.22a19.2,19.2,0,0,1,6.41-.77A19.46,19.46,0,1,1,253.08,590Z" transform="translate(-65.6 -105.28)" fill="#57b894"/><path d="M287.79,721.69a19.46,19.46,0,1,0-.94-15.67L299,715.91l-13.37-3.1A19.17,19.17,0,0,0,287.79,721.69Z" transform="translate(-65.6 -105.28)" fill="#57b894"/><path d="M297.4,683.91a19.46,19.46,0,0,0,6.17-38.18l.1,8L299.26,645h-.05a19.47,19.47,0,1,0-1.81,38.89Z" transform="translate(-65.6 -105.28)" fill="#57b894"/><path d="M250.16,652.47a19.46,19.46,0,1,0-8.61-36.42l3.44,9.43-7.07-6.8a19.38,19.38,0,0,0-6.29,13.44,19,19,0,0,0,.49,5.36A19.45,19.45,0,0,0,250.16,652.47Z" transform="translate(-65.6 -105.28)" fill="#57b894"/><path d="M255.7,595.16c4.49.5,8.86,1.89,13.37,2.17s9.45-.8,12.3-4.3c1.54-1.89,2.31-4.28,3.61-6.33a13.82,13.82,0,0,1,4.9-4.62A19.46,19.46,0,1,1,253.5,595C254.23,595,255,595.08,255.7,595.16Z" transform="translate(-65.6 -105.28)" opacity="0.1"/><path d="M250.16,652.47a19.47,19.47,0,0,0,18.51-27.76,14.34,14.34,0,0,0-3.92,3.92c-1.38,2.09-2.22,4.51-3.85,6.43-3,3.56-8.21,4.73-12.91,4.51s-9.23-1.54-13.91-2c-.64-.06-1.3-.1-2-.12A19.45,19.45,0,0,0,250.16,652.47Z" transform="translate(-65.6 -105.28)" opacity="0.1"/><path d="M297.4,683.91a19.46,19.46,0,0,0,18.67-27.4,15.67,15.67,0,0,0-4.12,4c-1.51,2.14-2.45,4.59-4.22,6.56-3.29,3.66-8.8,5-13.78,4.83-4.82-.1-9.46-1.29-14.25-1.65A19.48,19.48,0,0,0,297.4,683.91Z" transform="translate(-65.6 -105.28)" opacity="0.1"/><path d="M287.79,721.69a19.46,19.46,0,0,0,35.47-15.88,19.57,19.57,0,0,0-4.27,3.81c-1.85,2.26-3.07,4.81-5.21,6.91-4,3.91-10.4,5.52-16.12,5.67A84.94,84.94,0,0,1,287.79,721.69Z" transform="translate(-65.6 -105.28)" opacity="0.1"/><path d="M883.5,751.64c-3-5.64.41-12.56,4.39-17.59s8.82-10.27,8.71-16.68c-.14-9.22-9.93-14.66-17.74-19.55A86.29,86.29,0,0,1,862.92,685a23.55,23.55,0,0,1-4.9-6.56c-1.61-3.6-1.57-7.7-1.47-11.65q.51-19.72,2-39.42" transform="translate(-65.6 -105.28)" fill="none" stroke="#3f3d56" stroke-miterlimit="10" stroke-width="4"/><path d="M843.64,626.66a14.4,14.4,0,0,1,7.18-11.78l3.22,6.37-.1-7.71a14.59,14.59,0,0,1,4.74-.57,14.38,14.38,0,1,1-15,13.69Z" transform="translate(-65.6 -105.28)" fill="#57b894"/><path d="M869.28,724a14.37,14.37,0,1,0-.7-11.57l9,7.31-9.87-2.29A14.21,14.21,0,0,0,869.28,724Z" transform="translate(-65.6 -105.28)" fill="#57b894"/><path d="M876.38,696a14.38,14.38,0,0,0,15-13.69,14.19,14.19,0,0,0-1.24-6.54,14.41,14.41,0,0,0-9.23-8l.07,5.93-3.25-6.45h0A14.38,14.38,0,1,0,876.38,696Z" transform="translate(-65.6 -105.28)" fill="#57b894"/><path d="M841.48,672.82a14.38,14.38,0,1,0-6.35-26.9l2.54,7-5.23-5a14.28,14.28,0,0,0-4.64,9.92,14,14,0,0,0,.36,4A14.37,14.37,0,0,0,841.48,672.82Z" transform="translate(-65.6 -105.28)" fill="#57b894"/><path d="M845.58,630.49c3.31.37,6.54,1.4,9.87,1.61s7-.6,9.09-3.18c1.14-1.4,1.71-3.16,2.66-4.68a10.28,10.28,0,0,1,3.62-3.41,14.37,14.37,0,0,1-13.49,20.87A14.4,14.4,0,0,1,844,630.37C844.49,630.39,845,630.43,845.58,630.49Z" transform="translate(-65.6 -105.28)" opacity="0.1"/><path d="M841.48,672.82a14.39,14.39,0,0,0,13.68-20.5,10.78,10.78,0,0,0-2.9,2.89c-1,1.55-1.64,3.33-2.84,4.75-2.24,2.63-6.07,3.5-9.54,3.34s-6.81-1.15-10.27-1.46c-.48-.05-1-.08-1.45-.09A14.37,14.37,0,0,0,841.48,672.82Z" transform="translate(-65.6 -105.28)" opacity="0.1"/><path d="M876.38,696a14.38,14.38,0,0,0,15-13.69,14.19,14.19,0,0,0-1.24-6.54,11.58,11.58,0,0,0-3,2.92c-1.12,1.57-1.81,3.39-3.12,4.84-2.43,2.7-6.5,3.66-10.18,3.57s-7-.95-10.52-1.22A14.36,14.36,0,0,0,876.38,696Z" transform="translate(-65.6 -105.28)" opacity="0.1"/><path d="M869.28,724a14.38,14.38,0,0,0,26.21-11.72,14.26,14.26,0,0,0-3.16,2.81c-1.37,1.67-2.27,3.55-3.85,5.11-2.94,2.88-7.68,4.07-11.9,4.18A60.9,60.9,0,0,1,869.28,724Z" transform="translate(-65.6 -105.28)" opacity="0.1"/><path d="M1005.17,766.17c4.13-7.64-.55-17-5.93-23.81s-12-13.91-11.81-22.59c.2-12.48,13.45-19.85,24-26.46A117,117,0,0,0,1033,676a31.49,31.49,0,0,0,6.63-8.87c2.19-4.88,2.13-10.43,2-15.78Q1041,624.61,1039,598" transform="translate(-65.6 -105.28)" fill="none" stroke="#3f3d56" stroke-miterlimit="10" stroke-width="4"/><path d="M1059.13,597a19.44,19.44,0,0,0-9.72-16l-4.36,8.62.14-10.43a19.23,19.23,0,0,0-6.41-.77A19.46,19.46,0,1,0,1059.13,597Z" transform="translate(-65.6 -105.28)" fill="#57b894"/><path d="M1024.42,728.69a19.46,19.46,0,1,1,.94-15.67l-12.15,9.89,13.37-3.1A19.17,19.17,0,0,1,1024.42,728.69Z" transform="translate(-65.6 -105.28)" fill="#57b894"/><path d="M1014.81,690.91a19.46,19.46,0,0,1-6.17-38.18l-.1,8L1013,652h0a19.47,19.47,0,1,1,1.81,38.89Z" transform="translate(-65.6 -105.28)" fill="#57b894"/><path d="M1062.05,659.47a19.46,19.46,0,1,1,8.61-36.42l-3.44,9.43,7.07-6.8a19.46,19.46,0,0,1-12.24,33.79Z" transform="translate(-65.6 -105.28)" fill="#57b894"/><path d="M1056.51,602.16c-4.49.5-8.86,1.89-13.37,2.17s-9.45-.8-12.3-4.3c-1.54-1.89-2.31-4.28-3.61-6.33a13.82,13.82,0,0,0-4.9-4.62A19.46,19.46,0,1,0,1058.71,602C1058,602,1057.24,602.08,1056.51,602.16Z" transform="translate(-65.6 -105.28)" opacity="0.1"/><path d="M1062.05,659.47a19.47,19.47,0,0,1-18.51-27.76,14.34,14.34,0,0,1,3.92,3.92c1.38,2.09,2.22,4.51,3.85,6.43,3,3.56,8.21,4.73,12.91,4.51s9.23-1.54,13.91-2c.64-.06,1.3-.1,2-.12A19.45,19.45,0,0,1,1062.05,659.47Z" transform="translate(-65.6 -105.28)" opacity="0.1"/><path d="M1014.81,690.91a19.46,19.46,0,0,1-18.67-27.4,15.67,15.67,0,0,1,4.12,4c1.51,2.14,2.45,4.59,4.22,6.56,3.29,3.66,8.8,5,13.78,4.83,4.82-.1,9.46-1.29,14.25-1.65A19.48,19.48,0,0,1,1014.81,690.91Z" transform="translate(-65.6 -105.28)" opacity="0.1"/><path d="M1024.42,728.69A19.46,19.46,0,0,1,989,712.81a19.57,19.57,0,0,1,4.27,3.81c1.85,2.26,3.07,4.81,5.21,6.91,4,3.91,10.4,5.52,16.12,5.67A84.94,84.94,0,0,0,1024.42,728.69Z" transform="translate(-65.6 -105.28)" opacity="0.1"/><path d="M276.83,753.38s15.35-.48,20-3.77,23.63-7.23,24.78-2,23.08,26.29,5.74,26.43-40.29-2.7-44.91-5.51S276.83,753.38,276.83,753.38Z" transform="translate(-65.6 -105.28)" fill="#656380"/><path d="M327.64,772.25c-17.34.14-40.29-2.7-44.91-5.51-3.52-2.14-4.92-9.83-5.39-13.38l-.51,0s1,12.38,5.59,15.2,27.57,5.65,44.91,5.51c5,0,6.73-1.82,6.64-4.45C333.27,771.23,331.37,772.22,327.64,772.25Z" transform="translate(-65.6 -105.28)" opacity="0.2"/><path d="M865,751.48s9-.27,11.67-2.2,13.79-4.22,14.46-1.13,13.47,15.34,3.35,15.42-23.52-1.57-26.22-3.22S865,751.48,865,751.48Z" transform="translate(-65.6 -105.28)" fill="#656380"/><path d="M894.62,762.5c-10.12.08-23.52-1.58-26.22-3.22-2-1.25-2.87-5.74-3.14-7.81H865s.57,7.23,3.26,8.87,16.1,3.31,26.22,3.22c2.92,0,3.93-1.06,3.87-2.6C897.91,761.9,896.79,762.48,894.62,762.5Z" transform="translate(-65.6 -105.28)" opacity="0.2"/><path d="M975.83,757.38s15.35-.48,20-3.77,23.63-7.23,24.78-2,23.08,26.29,5.74,26.43-40.29-2.7-44.91-5.51S975.83,757.38,975.83,757.38Z" transform="translate(-65.6 -105.28)" fill="#656380"/><path d="M1026.64,776.25c-17.34.14-40.29-2.7-44.91-5.51-3.52-2.14-4.92-9.83-5.39-13.38l-.51,0s1,12.38,5.59,15.2,27.57,5.65,44.91,5.51c5,0,6.73-1.82,6.64-4.45C1032.27,775.23,1030.37,776.22,1026.64,776.25Z" transform="translate(-65.6 -105.28)" opacity="0.2"/></svg>