<?xml version="1.0" encoding="UTF-8"?>
<svg width="1800px" height="1835px" viewBox="0 0 1800 1835" version="1.1" xmlns="http://www.w3.org/2000/svg" xmlns:xlink="http://www.w3.org/1999/xlink">
    <title>tabler/bg</title>
    <g id="tabler/bg" stroke="none" stroke-width="1" fill="none" fill-rule="evenodd">
        <g id="Group" transform="translate(208.000000, 908.000000)">
            <g fill="#F4F6FA" fill-rule="nonzero" id="Oval">
                <circle cx="1314" cy="252" r="2"></circle>
                <circle cx="1314" cy="268" r="2"></circle>
                <circle cx="1314" cy="284" r="2"></circle>
                <circle cx="1314" cy="300" r="2"></circle>
                <circle cx="1314" cy="316" r="2"></circle>
                <circle cx="1314" cy="332" r="2"></circle>
                <circle cx="1314" cy="348" r="2"></circle>
                <circle cx="1314" cy="364" r="2"></circle>
                <circle cx="1314" cy="380" r="2"></circle>
                <circle cx="1314" cy="396" r="2"></circle>
                <circle cx="1330" cy="252" r="2"></circle>
                <circle cx="1330" cy="268" r="2"></circle>
                <circle cx="1330" cy="284" r="2"></circle>
                <circle cx="1330" cy="300" r="2"></circle>
                <circle cx="1330" cy="316" r="2"></circle>
                <circle cx="1330" cy="332" r="2"></circle>
                <circle cx="1330" cy="348" r="2"></circle>
                <circle cx="1330" cy="364" r="2"></circle>
                <circle cx="1330" cy="380" r="2"></circle>
                <circle cx="1330" cy="396" r="2"></circle>
                <circle cx="1346" cy="252" r="2"></circle>
                <circle cx="1346" cy="268" r="2"></circle>
                <circle cx="1346" cy="284" r="2"></circle>
                <circle cx="1346" cy="300" r="2"></circle>
                <circle cx="1346" cy="316" r="2"></circle>
                <circle cx="1346" cy="332" r="2"></circle>
                <circle cx="1346" cy="348" r="2"></circle>
                <circle cx="1346" cy="364" r="2"></circle>
                <circle cx="1346" cy="380" r="2"></circle>
                <circle cx="1346" cy="396" r="2"></circle>
                <circle cx="1362" cy="252" r="2"></circle>
                <circle cx="1362" cy="268" r="2"></circle>
                <circle cx="1362" cy="284" r="2"></circle>
                <circle cx="1362" cy="300" r="2"></circle>
                <circle cx="1362" cy="316" r="2"></circle>
                <circle cx="1362" cy="332" r="2"></circle>
                <circle cx="1362" cy="348" r="2"></circle>
                <circle cx="1362" cy="364" r="2"></circle>
                <circle cx="1362" cy="380" r="2"></circle>
                <circle cx="1362" cy="396" r="2"></circle>
                <circle cx="1378" cy="252" r="2"></circle>
                <circle cx="1394" cy="252" r="2"></circle>
                <circle cx="1410" cy="252" r="2"></circle>
                <circle cx="1426" cy="252" r="2"></circle>
                <circle cx="1442" cy="252" r="2"></circle>
                <circle cx="1458" cy="252" r="2"></circle>
                <circle cx="1378" cy="268" r="2"></circle>
                <circle cx="1394" cy="268" r="2"></circle>
                <circle cx="1410" cy="268" r="2"></circle>
                <circle cx="1426" cy="268" r="2"></circle>
                <circle cx="1442" cy="268" r="2"></circle>
                <circle cx="1458" cy="268" r="2"></circle>
                <circle cx="1378" cy="284" r="2"></circle>
                <circle cx="1394" cy="284" r="2"></circle>
                <circle cx="1410" cy="284" r="2"></circle>
                <circle cx="1426" cy="284" r="2"></circle>
                <circle cx="1442" cy="284" r="2"></circle>
                <circle cx="1458" cy="284" r="2"></circle>
                <circle cx="1378" cy="300" r="2"></circle>
                <circle cx="1394" cy="300" r="2"></circle>
                <circle cx="1410" cy="300" r="2"></circle>
                <circle cx="1426" cy="300" r="2"></circle>
                <circle cx="1442" cy="300" r="2"></circle>
                <circle cx="1458" cy="300" r="2"></circle>
                <circle cx="1378" cy="316" r="2"></circle>
                <circle cx="1378" cy="332" r="2"></circle>
                <circle cx="1378" cy="348" r="2"></circle>
                <circle cx="1378" cy="364" r="2"></circle>
                <circle cx="1378" cy="380" r="2"></circle>
                <circle cx="1378" cy="396" r="2"></circle>
                <circle cx="1394" cy="316" r="2"></circle>
                <circle cx="1394" cy="332" r="2"></circle>
                <circle cx="1394" cy="348" r="2"></circle>
                <circle cx="1394" cy="364" r="2"></circle>
                <circle cx="1394" cy="380" r="2"></circle>
                <circle cx="1394" cy="396" r="2"></circle>
                <circle cx="1410" cy="316" r="2"></circle>
                <circle cx="1426" cy="316" r="2"></circle>
                <circle cx="1442" cy="316" r="2"></circle>
                <circle cx="1458" cy="316" r="2"></circle>
                <circle cx="1410" cy="332" r="2"></circle>
                <circle cx="1426" cy="332" r="2"></circle>
                <circle cx="1442" cy="332" r="2"></circle>
                <circle cx="1458" cy="332" r="2"></circle>
                <circle cx="1410" cy="348" r="2"></circle>
                <circle cx="1410" cy="364" r="2"></circle>
                <circle cx="1410" cy="380" r="2"></circle>
                <circle cx="1410" cy="396" r="2"></circle>
                <circle cx="1426" cy="348" r="2"></circle>
                <circle cx="1442" cy="348" r="2"></circle>
                <circle cx="1458" cy="348" r="2"></circle>
                <circle cx="1426" cy="364" r="2"></circle>
                <circle cx="1426" cy="380" r="2"></circle>
                <circle cx="1426" cy="396" r="2"></circle>
                <circle cx="1442" cy="364" r="2"></circle>
                <circle cx="1442" cy="380" r="2"></circle>
                <circle cx="1442" cy="396" r="2"></circle>
                <circle cx="1458" cy="364" r="2"></circle>
                <circle cx="1458" cy="380" r="2"></circle>
                <circle cx="1458" cy="396" r="2"></circle>
                <circle cx="2" cy="2" r="2"></circle>
                <circle cx="2" cy="18" r="2"></circle>
                <circle cx="2" cy="34" r="2"></circle>
                <circle cx="2" cy="50" r="2"></circle>
                <circle cx="2" cy="66" r="2"></circle>
                <circle cx="2" cy="82" r="2"></circle>
                <circle cx="2" cy="98" r="2"></circle>
                <circle cx="2" cy="114" r="2"></circle>
                <circle cx="2" cy="130" r="2"></circle>
                <circle cx="2" cy="146" r="2"></circle>
                <circle cx="18" cy="2" r="2"></circle>
                <circle cx="18" cy="18" r="2"></circle>
                <circle cx="18" cy="34" r="2"></circle>
                <circle cx="18" cy="50" r="2"></circle>
                <circle cx="18" cy="66" r="2"></circle>
                <circle cx="18" cy="82" r="2"></circle>
                <circle cx="18" cy="98" r="2"></circle>
                <circle cx="18" cy="114" r="2"></circle>
                <circle cx="18" cy="130" r="2"></circle>
                <circle cx="18" cy="146" r="2"></circle>
                <circle cx="34" cy="2" r="2"></circle>
                <circle cx="34" cy="18" r="2"></circle>
                <circle cx="34" cy="34" r="2"></circle>
                <circle cx="34" cy="50" r="2"></circle>
                <circle cx="34" cy="66" r="2"></circle>
                <circle cx="34" cy="82" r="2"></circle>
                <circle cx="34" cy="98" r="2"></circle>
                <circle cx="34" cy="114" r="2"></circle>
                <circle cx="34" cy="130" r="2"></circle>
                <circle cx="34" cy="146" r="2"></circle>
                <circle cx="50" cy="2" r="2"></circle>
                <circle cx="50" cy="18" r="2"></circle>
                <circle cx="50" cy="34" r="2"></circle>
                <circle cx="50" cy="50" r="2"></circle>
                <circle cx="50" cy="66" r="2"></circle>
                <circle cx="50" cy="82" r="2"></circle>
                <circle cx="50" cy="98" r="2"></circle>
                <circle cx="50" cy="114" r="2"></circle>
                <circle cx="50" cy="130" r="2"></circle>
                <circle cx="50" cy="146" r="2"></circle>
                <circle cx="66" cy="2" r="2"></circle>
                <circle cx="82" cy="2" r="2"></circle>
                <circle cx="98" cy="2" r="2"></circle>
                <circle cx="114" cy="2" r="2"></circle>
                <circle cx="130" cy="2" r="2"></circle>
                <circle cx="146" cy="2" r="2"></circle>
                <circle cx="66" cy="18" r="2"></circle>
                <circle cx="82" cy="18" r="2"></circle>
                <circle cx="98" cy="18" r="2"></circle>
                <circle cx="114" cy="18" r="2"></circle>
                <circle cx="130" cy="18" r="2"></circle>
                <circle cx="146" cy="18" r="2"></circle>
                <circle cx="66" cy="34" r="2"></circle>
                <circle cx="82" cy="34" r="2"></circle>
                <circle cx="98" cy="34" r="2"></circle>
                <circle cx="114" cy="34" r="2"></circle>
                <circle cx="130" cy="34" r="2"></circle>
                <circle cx="146" cy="34" r="2"></circle>
                <circle cx="66" cy="50" r="2"></circle>
                <circle cx="82" cy="50" r="2"></circle>
                <circle cx="98" cy="50" r="2"></circle>
                <circle cx="114" cy="50" r="2"></circle>
                <circle cx="130" cy="50" r="2"></circle>
                <circle cx="146" cy="50" r="2"></circle>
                <circle cx="66" cy="66" r="2"></circle>
                <circle cx="66" cy="82" r="2"></circle>
                <circle cx="66" cy="98" r="2"></circle>
                <circle cx="66" cy="114" r="2"></circle>
                <circle cx="66" cy="130" r="2"></circle>
                <circle cx="66" cy="146" r="2"></circle>
                <circle cx="82" cy="66" r="2"></circle>
                <circle cx="82" cy="82" r="2"></circle>
                <circle cx="82" cy="98" r="2"></circle>
                <circle cx="82" cy="114" r="2"></circle>
                <circle cx="82" cy="130" r="2"></circle>
                <circle cx="82" cy="146" r="2"></circle>
                <circle cx="98" cy="66" r="2"></circle>
                <circle cx="114" cy="66" r="2"></circle>
                <circle cx="130" cy="66" r="2"></circle>
                <circle cx="146" cy="66" r="2"></circle>
                <circle cx="98" cy="82" r="2"></circle>
                <circle cx="114" cy="82" r="2"></circle>
                <circle cx="130" cy="82" r="2"></circle>
                <circle cx="146" cy="82" r="2"></circle>
                <circle cx="98" cy="98" r="2"></circle>
                <circle cx="98" cy="114" r="2"></circle>
                <circle cx="98" cy="130" r="2"></circle>
                <circle cx="98" cy="146" r="2"></circle>
                <circle cx="114" cy="98" r="2"></circle>
                <circle cx="130" cy="98" r="2"></circle>
                <circle cx="146" cy="98" r="2"></circle>
                <circle cx="114" cy="114" r="2"></circle>
                <circle cx="114" cy="130" r="2"></circle>
                <circle cx="114" cy="146" r="2"></circle>
                <circle cx="130" cy="114" r="2"></circle>
                <circle cx="130" cy="130" r="2"></circle>
                <circle cx="130" cy="146" r="2"></circle>
                <circle cx="146" cy="114" r="2"></circle>
                <circle cx="146" cy="130" r="2"></circle>
                <circle cx="146" cy="146" r="2"></circle>
            </g>
            <g transform="translate(62.000000, 32.000000)" id="Rectangle" stroke="#F4F6FA">
                <rect x="1071" y="227" width="244" height="244"></rect>
                <rect x="0" y="0" width="244" height="244"></rect>
            </g>
        </g>
    </g>
</svg>