<svg width="100" height="60" viewBox="0 0 100 60" version="1.1" xmlns="http://www.w3.org/2000/svg" xmlns:xlink="http://www.w3.org/1999/xlink"><title>2checkout-light</title><desc>Created with Sketch.</desc><g id="Light-Payment-badges" stroke="none" stroke-width="1" fill="none" fill-rule="evenodd" transform="translate(-611.000000, -589.000000)"><g id="2checkout-light" transform="translate(611.000000, 589.000000)"><rect id="Rectangle" fill="#FFF" x="0" y="0" width="100" height="60" rx="4"/><path d="M67.2039046,24.432894 C64.8222765,16.6559554 57.5818034,11 49.0183092,11 C38.5149865,11 30,19.5067394 30,30.0004751 C30,40.4937358 38.5149865,49 49.0183092,49 C57.6236531,49 64.8917089,43.2879792 67.236243,35.4521243 C66.2532507,36.0460377 65.0786058,36.3957338 63.7679494,36.3957338 C59.9448846,36.3957338 57.2779175,33.5002876 57.2779175,30.0004751 L57.2779175,29.9653155 C57.2779175,26.4650279 59.9810275,23.534422 63.8040924,23.534422 C65.0881171,23.534422 66.2370815,23.8665383 67.2039046,24.432894 L67.2039046,24.432894 Z M44.6321757,36.1824002 L35.6340154,36.1824002 L35.6340154,34.4600515 L39.9188536,30.8176999 C41.626131,29.3790042 42.2491208,28.5798345 42.2491208,27.4604266 C42.2491208,26.2345895 41.3774107,25.5233189 40.2393843,25.5233189 C39.1013579,25.5233189 38.3185783,26.1452649 37.3593642,27.3896321 L35.8118766,26.1808997 C37.0031663,24.5103403 38.1763845,23.5695816 40.399174,23.5695816 C42.8359677,23.5695816 44.5075777,25.061967 44.5075777,27.2827278 L44.5075777,27.3178874 C44.5075777,29.2711496 43.4765534,30.338293 41.2713597,32.1319113 L38.7094925,34.2642977 L44.6321757,34.2642977 L44.6321757,36.1824002 L44.6321757,36.1824002 Z M56.9754584,25.2420416 L55.4351042,26.745355 C54.548176,26.0131786 53.5784995,25.5413739 52.3406045,25.5413739 C49.9575496,25.5413739 48.2331519,27.4951112 48.2331519,29.9292055 L48.2331519,29.9653155 C48.2331519,32.3989347 49.9575496,34.3887819 52.3406045,34.3887819 C53.6222514,34.3887819 54.5158376,33.9478607 55.3999124,33.2204356 L56.8575183,34.6448773 C55.6757399,35.7296006 54.3260872,36.3957338 52.2687942,36.3957338 C48.6407108,36.3957338 45.9390276,33.571082 45.9390276,30.0004751 L45.9390276,29.9653155 C45.9390276,26.4293931 48.5893499,23.534422 52.3582004,23.534422 C54.4925349,23.534422 55.8383831,24.2304884 56.9754584,25.2420416 L56.9754584,25.2420416 Z M68,30.0004751 L68,29.9653155 C68,27.5488009 66.2404105,25.5413739 63.7679494,25.5413739 C61.2973907,25.5413739 59.5715662,27.5131661 59.5715662,29.9292055 L59.5715662,29.9653155 C59.5715662,32.3813549 61.3316313,34.3887819 63.8040924,34.3887819 C66.2751267,34.3887819 68,32.4165145 68,30.0004751 L68,30.0004751 Z" id="Fill-72" fill="#008FBE"/></g></g></svg>