<svg width="100" height="60" xmlns="http://www.w3.org/2000/svg"><g fill="none" fill-rule="evenodd"><rect fill="#FFF" width="100" height="60" rx="4"/><path d="M32.886 26.958c.037 3.825 3.5 5.097 3.538 5.113-.03.09-.553 1.814-1.824 3.595-1.099 1.54-2.24 3.073-4.035 3.105-1.765.032-2.332-1.003-4.35-1.003s-2.648.971-4.319 1.035c-1.733.063-3.054-1.666-4.161-3.2-2.264-3.137-3.994-8.866-1.67-12.732 1.153-1.92 3.215-3.137 5.453-3.168 1.702-.031 3.31 1.098 4.35 1.098 1.04 0 2.994-1.358 5.047-1.158.859.034 3.271.332 4.82 2.506-.125.075-2.88 1.612-2.849 4.81m-3.317-9.392c.92-1.069 1.54-2.556 1.371-4.035-1.327.05-2.931.847-3.882 1.915-.854.945-1.6 2.458-1.399 3.91 1.48.109 2.99-.721 3.91-1.79m13.323-1.829a41.71 41.71 0 012.257-.307 24.794 24.794 0 012.716-.136c1.411 0 2.628.164 3.65.494 1.023.33 1.863.801 2.521 1.415a5.812 5.812 0 011.323 1.943c.317.75.475 1.615.475 2.592 0 1.182-.217 2.217-.652 3.104a6.463 6.463 0 01-1.78 2.233c-.753.602-1.646 1.05-2.68 1.347-1.036.295-2.164.443-3.387.443-1.105 0-2.033-.08-2.785-.239v9.822h-1.658V15.738zm1.658 11.458c.4.113.846.193 1.34.238.494.045 1.022.068 1.586.068 2.116 0 3.756-.478 4.92-1.432 1.164-.955 1.746-2.353 1.746-4.194 0-.887-.153-1.66-.458-2.32a4.168 4.168 0 00-1.305-1.62c-.564-.42-1.234-.738-2.01-.955-.777-.216-1.635-.324-2.576-.324-.752 0-1.399.029-1.94.086-.54.057-.975.12-1.304.187v10.266zm24.47 7.366c0 .659.011 1.319.034 1.978.024.659.094 1.295.212 1.909h-1.552l-.246-2.319h-.072a5.809 5.809 0 01-.81.955 6.168 6.168 0 01-2.627 1.5 6.573 6.573 0 01-1.817.239c-.822 0-1.546-.132-2.17-.392-.623-.262-1.134-.603-1.534-1.023a4.14 4.14 0 01-.898-1.45 4.72 4.72 0 01-.3-1.636c0-1.933.84-3.421 2.521-4.468 1.682-1.046 4.215-1.545 7.602-1.5v-.444c0-.432-.042-.927-.124-1.484a4.553 4.553 0 00-.547-1.585c-.282-.5-.705-.92-1.27-1.26-.563-.342-1.328-.513-2.292-.513-.729 0-1.451.108-2.169.324a7.438 7.438 0 00-1.956.904l-.53-1.194a7.946 7.946 0 012.327-1.073 9.569 9.569 0 012.505-.324c1.175 0 2.134.193 2.874.58.74.386 1.323.886 1.746 1.5.423.613.712 1.3.864 2.063.152.762.23 1.518.23 2.267v6.446h-.001zm-1.658-4.877c-.894-.023-1.83.011-2.805.102-.975.09-1.875.29-2.697.597-.824.307-1.505.756-2.045 1.347-.541.592-.812 1.375-.812 2.353 0 1.159.341 2.012 1.023 2.557.682.546 1.445.82 2.292.82.682 0 1.293-.091 1.834-.274a4.708 4.708 0 002.415-1.773c.272-.387.477-.784.619-1.194.117-.455.177-.785.177-.99v-3.545zm4.9-7.605l4.301 10.64c.236.59.46 1.199.671 1.824.212.625.4 1.2.564 1.722h.071c.165-.5.352-1.063.564-1.688.212-.625.447-1.267.705-1.928l4.022-10.57h1.762l-4.9 12.004a136.65 136.65 0 01-1.394 3.46 32.347 32.347 0 01-1.323 2.797c-.447.83-.899 1.562-1.359 2.2a9.285 9.285 0 01-1.533 1.67c-.658.568-1.264.984-1.817 1.245a15.75 15.75 0 01-1.11.495l-.566-1.33c.424-.182.894-.42 1.411-.716a7.665 7.665 0 001.517-1.16c.424-.409.888-.948 1.393-1.62.506-.67.958-1.483 1.358-2.438.141-.364.212-.603.212-.716 0-.159-.07-.398-.212-.716l-6.102-15.176h1.765v.001z" fill="#000"/></g></svg>