<svg version="1.1" id="Layer_1" xmlns="http://www.w3.org/2000/svg" x="0" y="0" viewBox="0 0 100 60" xml:space="preserve"><style>.st1{fill:#fff}</style><linearGradient id="SVGID_1_" gradientUnits="userSpaceOnUse" x1="50" y1="60" x2="50" y2="0"><stop offset="0" stop-color="#262626"/><stop offset="1"/></linearGradient><path fill="url(#SVGID_1_)" d="M0 0h100v60H0z"/><path class="st1" d="M43.29 17.54h4.64v26.01h-4.64zM51.9 26.32h4.64v17.23H51.9zM77.35 43.55l-6.98-9.12 6.42-8.11h-5.48l-6.15 7.87V17.54h-4.65v26.01h4.65V34.7l6.15 8.85zM31.46 26.13c-1.51 0-2.93.38-4.17 1.05v-9.63h-4.64v17.39c0 4.86 3.94 8.81 8.81 8.81s8.81-3.94 8.81-8.81-3.94-8.81-8.81-8.81zm0 12.97c-2.3 0-4.17-1.87-4.17-4.17s1.87-4.17 4.17-4.17 4.17 1.87 4.17 4.17c0 2.31-1.87 4.17-4.17 4.17z"/><radialGradient id="SVGID_2_" cx="32.625" cy="16.032" r="13.569" fx="32.466" fy="15.992" gradientUnits="userSpaceOnUse"><stop offset="0" stop-color="red"/><stop offset=".495" stop-color="#e83e49"/><stop offset="1" stop-color="#f0f"/></radialGradient><circle cx="35.99" cy="20.39" r="4.14" fill="url(#SVGID_2_)"/></svg>