<?xml version="1.0" encoding="utf-8"?>
<!-- Generator: Adobe Illustrator 23.1.1, SVG Export Plug-In . SVG Version: 6.00 Build 0)  -->
<svg version="1.1" id="Layer_1" xmlns="http://www.w3.org/2000/svg" xmlns:xlink="http://www.w3.org/1999/xlink" x="0px" y="0px"
	 viewBox="0 0 100 60" style="enable-background:new 0 0 100 60;" xml:space="preserve">
<style type="text/css">
	.st0{fill:#9F221F;}
</style>
<path class="st0" d="M39.21,23.86c0.79,0,1.78,0,2.57,0V19h2.71v4.86h3.61v2.29h-3.47v7.15c0,0-0.14,0.97,0.56,0.97s2.91,0,2.91,0
	v2.36h-3.89c-0.23-0.01-0.47-0.01-0.7-0.02c-0.12-0.02-0.88-0.12-1.38-0.82c-0.43-0.6-0.37-1.24-0.35-1.39c0-2.75,0-5.5,0-8.26
	c-0.83,0-1.73,0-2.57,0C39.21,25.41,39.21,24.6,39.21,23.86z"/>
<path class="st0" d="M40.88,34.68"/>
<path d="M75.01,24v9.16c0,0,0,3.47,3.19,3.47c2.91,0,5.27,0,5.27,0v0.97c0,0,0.14,1.11-1.25,1.11s-7.22,0-7.22,0v2.36h8.19
	c0,0,3.19-0.42,3.19-4.44s0-12.63,0-12.63h-2.91v10.34h-4.16c0,0-1.39-0.07-1.39-2.01c0-2.5-0.14-8.33-0.14-8.33H75.01z"/>
<path d="M56.97,23.99h-7.91l-0.14,17.07h2.92v-4.44h5.27c0,0,4.02-0.55,4.02-6.66C61.13,23.86,56.97,23.99,56.97,23.99z M55.98,34.4
	h-4.14v-8.19h4.14c0,0,2.79,0.14,2.79,4.03C58.77,34.12,55.98,34.4,55.98,34.4z"/>
<path d="M70.71,24h-8.33v2.08c0,0,4.3,0,6.52,0c2.22,0,2.36,1.39,2.36,1.39v1.53h-5.83c0,0-3.89-0.06-3.89,3.47
	c0,3.89,3.33,4.16,3.33,4.16h9.16c0,0,0-6.11,0-9.44S70.71,24,70.71,24z M71.13,34.41h-5.13c0,0-1.25,0-1.25-1.67
	c0-1.67,1.25-1.53,1.25-1.53h5.13V34.41z"/>
<g>
	<path class="st0" d="M33.31,24C29.83,24,27,26.83,27,30.31c0,3.49,2.83,6.31,6.31,6.31s6.31-2.83,6.31-6.31
		C39.63,26.83,36.8,24,33.31,24z M35.47,34.04c-0.81,0-4.6,0-4.6,0s-0.68-0.05-0.68-0.68c0-0.81,0-2.98,0-2.98s0-0.68,0.68-0.68
		v-2.17c0,0,0-0.81,0.81-0.81s2.98,0,2.98,0s0.81,0,0.81,0.68s0,2.3,0,2.3s0.69-0.02,0.68,0.68c-0.01,0.81,0,2.98,0,2.98
		S36.29,34.04,35.47,34.04z"/>
	<path class="st0" d="M34.05,27.47H32.3c-0.4,0-0.72,0.32-0.72,0.72v0.78c0,0.4,0.32,0.72,0.72,0.72h1.75c0.4,0,0.72-0.32,0.72-0.72
		v-0.78C34.77,27.79,34.45,27.47,34.05,27.47z"/>
</g>
<path class="st0" d="M23.12,18.93V24h-4.06c0,0-5.45,0.21-5.45,6.45s5.45,6.24,5.45,6.24h7.04V18.93H23.12z M23.12,34.41h-4.15
	c0,0-2.79-0.14-2.79-4.02s2.79-4.16,2.79-4.16h4.15V34.41z"/>
</svg>
