<svg width="100" height="60" xmlns="http://www.w3.org/2000/svg"><g fill="none" fill-rule="evenodd"><rect fill="#FFF" width="100" height="60" rx="4"/><path d="M24.17 29.28c-.01-.275-.142-.418-.398-.427h-1.37c-.324.02-.49.194-.5.524v2.428c.01.34.194.514.554.524h1.255c.13 0 .239-.048.325-.145a.345.345 0 00.133-.284v-2.62zm-4.025-.344c.009-.608.146-1.07.412-1.385a1.77 1.77 0 01.527-.334c.22-.098.434-.145.64-.145h2.514c1.11.01 1.673.607 1.69 1.795v3.654a1.5 1.5 0 01-.5 1.094c-.32.32-.702.485-1.148.494h-2.377v2.635h-1.758v-7.808zm8.957 3.04c0 .102.048.182.141.242.083.073.187.11.319.11h1.35c.306 0 .464-.116.473-.352v-.497c0-.271-.161-.408-.485-.408h-1.338c-.176 0-.297.029-.365.083-.063.064-.095.192-.095.38v.442zm2.283-2.738c.009-.267-.148-.394-.473-.385h-3.541v-1.78h3.987c1.161.018 1.751.571 1.77 1.663v3.725c-.009.47-.155.86-.44 1.168-.296.32-.679.48-1.148.48h-2.41c-1.173-.01-1.768-.537-1.786-1.587v-1.437c.009-1.097.577-1.654 1.702-1.673h2.34v-.174zm6.683 5.726a.573.573 0 00.358-.147.37.37 0 00.141-.285v-.423h-2.251c-.294 0-.529-.036-.704-.11a1.628 1.628 0 01-.554-.368 1.77 1.77 0 01-.38-.59 1.821 1.821 0 01-.12-.712v-5.257h1.758v4.693c0 .376.156.564.471.564h1.241a.55.55 0 00.383-.145.365.365 0 00.156-.296v-4.816h1.744v7.755c-.01.574-.16 1.033-.447 1.382-.293.348-.692.526-1.202.535h-4.104v-1.78h3.51m3.623-2.635h3.133c.287-.01.436-.123.445-.34v-.16a.353.353 0 00-.042-.153c-.07-.135-.156-.202-.258-.202h-1.553a1.747 1.747 0 01-1.185-.467c-.334-.279-.506-.622-.516-1.026v-1.327c.019-1.036.59-1.563 1.714-1.582h3.634v1.78h-3.079c-.361 0-.543.11-.543.328v.172c0 .226.186.34.557.34h1.548c.413.009.764.164 1.058.468.296.306.45.67.459 1.092v1.3c-.01.364-.181.728-.51 1.091a1.414 1.414 0 01-.49.37c-.17.064-.4.096-.696.096h-3.676v-1.78m8.381-.353c0 .102.047.182.142.242.082.073.187.11.317.11h1.353c.306 0 .463-.116.472-.352v-.497c0-.271-.163-.408-.487-.408h-1.338c-.176 0-.297.029-.364.083-.063.064-.095.192-.095.38v.442zm2.284-2.738c.008-.267-.15-.394-.474-.385H48.34v-1.78h3.988c1.16.018 1.75.571 1.768 1.663v3.725c-.009.47-.156.86-.439 1.168-.295.32-.678.48-1.148.48h-2.412c-1.172-.01-1.767-.537-1.784-1.587v-1.437c.008-1.097.576-1.654 1.702-1.673h2.34v-.174zm3.171-3.175c.01-.481.19-.867.543-1.156.341-.294.79-.445 1.345-.454h1.116v1.72h-.675c-.372.009-.562.184-.57.522v.378h1.245v1.782h-1.245v5.255h-1.76v-8.047m8.006 3.142v-.042a.275.275 0 00-.113-.227.521.521 0 00-.302-.083h-1.224a.545.545 0 00-.382.132.376.376 0 00-.184.323v.715l2.205-.818zm-2.177 2.516v.111c0 .143.038.256.114.338.056.105.13.159.23.159h3.611v1.78h-3.84c-.351 0-.624-.032-.817-.097a1.5 1.5 0 01-.566-.335 1.489 1.489 0 01-.39-.578c-.073-.206-.11-.48-.11-.82l-.014-3.563c.02-1.077.59-1.625 1.711-1.644h2.37c1.096.019 1.65.586 1.668 1.704v1.408l-3.967 1.537zm7.689 2.389a3.65 3.65 0 01-.73-.069 1.572 1.572 0 01-.696-.32 1.651 1.651 0 01-.5-.697 2.385 2.385 0 01-.143-.86v-3.322c-.01-.271.018-.51.082-.715a1.49 1.49 0 01.37-.606c.215-.207.433-.345.664-.412a3.13 3.13 0 01.752-.083h2.695v.416h-2.633c-.464 0-.83.095-1.097.283-.273.206-.412.56-.412 1.06v3.325c0 .234.036.461.108.68.074.217.196.406.373.571.192.144.383.233.569.27.194.042.401.062.622.062h2.512v.416h-2.536m9.425-4.311h-3.533c-.424.01-.754.139-.994.387-.246.252-.369.598-.369 1.038v1.06c0 .206.022.394.067.563a.873.873 0 00.33.474c.306.25.644.373 1.013.373h2.14c.895-.01 1.346-.474 1.346-1.397v-2.498zm.42 2.395c0 .267-.021.502-.056.709a1.592 1.592 0 01-.351.647c-.37.383-.827.57-1.373.56h-2.1c-.546 0-.989-.16-1.332-.48-.35-.316-.527-.756-.527-1.32v-1.07c.018-1.21.629-1.828 1.832-1.856h3.5v-.47a1.61 1.61 0 00-.34-1.015 1.062 1.062 0 00-.505-.38 2.644 2.644 0 00-.657-.076h-3.817v-.416h3.62c.33 0 .63.023.9.068.14.028.266.081.383.158.124.074.24.182.347.323.324.413.482.888.476 1.425v3.193zm3.951-4.751c-.98.019-1.463.546-1.445 1.583v5.084h-.421v-5.082c-.02-1.335.625-2 1.933-2h.468v.415h-.535m7.117.003h-3.33a2.6 2.6 0 00-.65.076c-.202.045-.398.167-.581.364-.176.18-.286.358-.333.537a1.77 1.77 0 00-.08.647v3.242c0 .539.159.905.48 1.102.158.092.332.16.527.206.195.051.411.076.65.076h1.456c.543 0 .989-.123 1.33-.372.344-.233.519-.637.53-1.21v-4.668zm.42 4.696c-.037 1.342-.757 2-2.16 1.971h-1.562a4.37 4.37 0 01-.885-.082c-.268-.068-.525-.23-.772-.481a1.596 1.596 0 01-.354-.689 2.582 2.582 0 01-.082-.777v-3.025c.018-1.363.714-2.04 2.09-2.03h3.305v-2.297h.42v7.41z" fill="#008ACA"/><path d="M10.378 26.804c.138-.06.276-.106.414-.136a2.662 2.662 0 012.614-2.09c1.287 0 2.36.897 2.614 2.091.395.074.722.232.977.466.01-.23 0-.45-.027-.658-.163-1.805-1.698-3.221-3.57-3.221-1.927 0-3.496 1.505-3.577 3.388a4.97 4.97 0 00-.01.508c.163-.134.347-.255.565-.348" fill="#E2001A"/><path d="M11.203 27.072c-.207 0-.42.047-.641.145a1.778 1.778 0 00-.527.334c-.267.316-.403.777-.412 1.385v3.309c.009.609.145 1.07.412 1.384.14.134.314.245.527.337.22.096.434.143.641.143h4.294c1.11-.01 1.674-.609 1.692-1.795v-3.447c-.018-1.188-.583-1.785-1.692-1.795h-4.294z" fill="#E2001A"/></g></svg>