<svg version="1.1" id="Layer_1" xmlns="http://www.w3.org/2000/svg" x="0" y="0" viewBox="0 0 100 60" xml:space="preserve"><style>.st0{fill-rule:evenodd;clip-rule:evenodd}.st0,.st1{fill:#d13239}.st2{fill-rule:evenodd;clip-rule:evenodd;fill:#b3b2b1}</style><path class="st0" d="M29.08 31.85h5.95l-.22 1.35-4.97 4.75 4.17-.01-.24 1.46h-6.15l.26-1.51 4.77-4.56h-3.81zM22.58 29.54c-.13-.14-.32-.24-.52-.33a4.15 4.15 0 00-.69-.19c-.26-.05-.53-.07-.79-.08-.19-.01-.31-.01-.31-.01h-4.53L14 39.4h1.62l.64-3.88 3.14.02s1.22.05 2.09-.41 1.1-1.5 1.1-1.5.1-.39.17-.86c.09-.52.17-1.14.22-1.47.02-.14.03-.24.03-.24.02-.09.02-.18.02-.27.01-.32-.07-.63-.21-.92-.06-.12-.15-.23-.24-.33zm-1.25 1.85c0 .02-.14.86-.33 1.85-.07.38-.36.59-.7.66-.55.12-1.15.1-1.15.1l-2.62-.01.58-3.48 2.38.01h.38c.29 0 .58.02.87.05.24.03.43.08.49.16.07.1.11.22.12.34 0 .1 0 .21-.02.32zM43.09 28.94h1.55L42.9 39.4h-1.56zM51.4 31.85h1.49l.53 5.31 2.3-5.32 1.84.01.55 5.33 2.29-5.33h1.55l-3.29 7.54h-1.84l-.53-5.28-2.32 5.28-1.81.01z"/><path class="st1" d="M40.21 31.91c-.44-.14-1.19-.17-1.84-.16-.62.01-.9.04-1.14.09 0 0-1.1.16-1.73.93-.63.78-.81 2.47-.81 2.47s-.37 1.87-.26 2.5c.11.63.3 1.2 1.01 1.47.42.16.86.25 1.31.26 0 0 1.26.1 2.21-.13.57-.13 1.08-.45 1.45-.89.15-.2.28-.41.38-.63.09-.2.17-.4.22-.61l.1-.41h-1.62s-.09 1.07-.96 1.17c-.87.1-1.34.06-1.51.05-.17-.01-1.1.03-1.03-.75v-.05c.04-.89.14-1.12.14-1.12l5.07-.02.22-1.25c.27-1.41.09-2.49-1.21-2.92zm-.34 2.76h-3.48l.14-.55s.12-.43.36-.62c.24-.18.55-.22.84-.24.29-.03 1.06-.08 1.69.05.21.04.41.16.46.33.12.4-.01 1.03-.01 1.03zM36.01 37.25v0zM45.58 37.25v0zM49.78 31.92c-.44-.14-1.19-.17-1.84-.16-.62.01-.9.04-1.14.09 0 0-1.1.16-1.73.93-.63.78-.81 2.47-.81 2.47s-.37 1.87-.26 2.5c.11.63.3 1.2 1.01 1.47.42.16.86.25 1.31.26 0 0 1.26.1 2.21-.13.57-.13 1.08-.45 1.45-.89.15-.2.28-.41.38-.63.09-.2.17-.4.22-.61l.1-.41h-1.62s-.09 1.07-.96 1.17c-.5.06-1.01.08-1.51.06-.17-.01-1.1.03-1.03-.75v-.05c.04-.89.14-1.12.14-1.12l5.07-.02.22-1.25c.27-1.42.09-2.51-1.21-2.93zm-.35 2.75h-3.48l.14-.55s.12-.43.36-.62c.24-.18.55-.22.84-.24.29-.03 1.06-.08 1.69.05.21.04.41.16.46.33.12.4-.01 1.03-.01 1.03z"/><path class="st0" d="M63.75 31.85l1 5.52 2.82-5.52 1.59.02-4.07 7.89s-.74 1.43-1.19 1.79-.74.52-1.11.56c-.37.04-.52.06-.88 0l-.38-.07.24-1.41s.63.12 1-.03.68-.79.68-.79l.19-.32-1.47-7.64h1.58z"/><path class="st2" d="M69.74 32.6h1.64l.1-.63s.17-1.15.57-1.37c.13-.07.33-.14.56-.18.43-.08.97-.08 1.42-.07.68.02.94.03 1.63.11s.52.75.52.75l-.14 1s-.06.45-.22.73c-.14.25-.53.41-.75.49-.54.17-2.39.65-2.39.65l-1.45.42s-.89.26-1.39.81c-.38.43-.65.95-.77 1.51-.07.33-.45 2.59-.45 2.59h7.84l.26-1.57-6.2.01.11-.64s.07-.66.34-.87c.08-.07.13-.16.62-.33.3-.11 1.31-.38 1.31-.38l2.34-.64s1.28-.33 1.78-1.03.7-2.03.7-2.03.14-1.3.03-1.7-.49-.89-.95-1.1c-.47-.21-.95-.33-2.36-.31s-2.11.08-2.82.35c-.71.27-1.13.74-1.39 1.42-.33.63-.49 2.01-.49 2.01zM84.49 36.3l1.1-6.58h-1.95l-6.06 6.51-.27 1.65h5.3l-.39 2.31h1.63l.38-2.31h1.5L86 36.3h-1.51zm-1.62.01h-3.42l4.17-4.44-.75 4.44zM26.02 29.8h4.99s1.12-.9 1.91-1.49 2.24-1.5 2.24-1.5l-2.82-1.32s-2.38 1.47-3.39 2.17c-.99.65-2.93 2.14-2.93 2.14zM36.74 25.88l-2.31-1.56c1.58-.87 3.21-1.63 4.88-2.3 2.78-1.11 4.27-1.57 4.27-1.57l.47 2.21s-2.68.9-4.21 1.62c-1.6.68-3.1 1.6-3.1 1.6zM45.75 22.18l-.4-2.26s2.86-.76 5.47-1.25 6.09-.72 6.09-.72l-1.15 3.49s-3.05-.42-5.92-.03c-1.37.18-2.74.43-4.09.77zM57.58 21.74l1.93-3.88s4.23-.08 7.88.48c3.65.57 6.98 1.43 6.91 1.47l-9.25 4.84s-2.16-1.37-4.85-2.21c-1.51-.45-2.62-.7-2.62-.7zM66.71 25.7l2.03 1.54h16.71s-.03-.54-.48-1.31c-.28-.48-.78-.99-1.31-1.52-.19-.19-.96-.79-1.54-1.17-1.47-.96-2.3-1.33-3.83-2.02L66.71 25.7z"/><path class="st1" d="M27.1 31.85c-.63 0-1.22.25-1.73.52l.09-.52H23.8l-1.33 7.51h1.66l.74-4.16c.15-.84.78-1.89 2.01-1.89h.86l.26-1.46h-.9z"/></svg>