<svg width="101" height="60" xmlns="http://www.w3.org/2000/svg"><g fill="none" fill-rule="evenodd"><rect fill="#FFF" width="100" height="60" rx="4"/><path d="M68.58 0c-3.164.1-7.034 2.65-7.739 5.792L50.146 54.2c-.705 3.172 1.212 5.753 4.297 5.801h41.582c2.212 0 4.005-1.8 4.004-4.005L100 4v-.003A3.997 3.997 0 0096.003 0H96" fill="#01798A"/><path d="M0 4.007A4.003 4.003 0 013.993 0H45v60H3.993A4.001 4.001 0 010 55.993V4.007z" fill="#DD0228"/><path d="M61.097 5.798c.705-3.143 4.574-5.692 7.681-5.789L59.786.003 38.586 0c-3.116.065-7.036 2.632-7.74 5.798l-10.7 48.401c-.707 3.172 1.213 5.754 4.296 5.801h30.257c-3.085-.047-5.002-2.629-4.297-5.8L61.097 5.797z" fill="#024381"/><path d="M43.987 35.175h.393c.36 0 .604-.123.717-.366l1.021-1.552h2.733l-.57 1.02h3.277l-.415 1.564h-3.9c-.449.687-1.002 1.01-1.667.971h-2.03l.441-1.637zm-.449 2.242h7.18l-.458 1.699h-2.887l-.44 1.64h2.809l-.458 1.698h-2.81l-.652 2.423c-.162.405.05.588.634.546h2.29l-.424 1.579h-4.397c-.833 0-1.119-.484-.858-1.455l.835-3.093h-1.796l.456-1.698h1.796l.44-1.64h-1.716l.456-1.7zm11.46-4.172l-.113.995s1.354-1.034 2.584-1.034h4.545L60.276 39.6c-.144.731-.762 1.095-1.854 1.095h-5.151l-1.207 4.489c-.07.24.029.364.288.364h1.014l-.373 1.393h-2.577c-.989 0-1.4-.302-1.237-.91l3.41-12.785h2.409zm3.849 1.807H54.79l-.485 1.725s.675-.495 1.804-.513c1.126-.018 2.411 0 2.411 0l.327-1.212zm-1.47 4.002c.3.041.468-.08.488-.364l.248-.91H54.05l-.34 1.274h3.667zm-2.74 2.065h2.341l-.043 1.03h.624c.315 0 .47-.103.47-.305l.185-.666h1.947l-.26.97c-.22.81-.803 1.233-1.75 1.275h-1.248l-.005 1.76c-.023.282.228.425.744.425h1.173l-.378 1.394h-2.813c-.788.038-1.175-.344-1.167-1.153l.18-4.73zm-28.38-16.391c-.317 1.581-1.054 2.796-2.196 3.658-1.132.848-2.592 1.274-4.379 1.274-1.682 0-2.915-.435-3.702-1.306-.546-.62-.817-1.405-.817-2.356 0-.393.046-.815.139-1.27l1.904-9.33h2.876l-1.878 9.224a3.007 3.007 0 00-.078.707c-.003.473.112.86.346 1.162.34.449.894.672 1.663.672.885 0 1.615-.22 2.18-.663.567-.44.936-1.065 1.102-1.878l1.884-9.224h2.862l-1.906 9.33m12.079-3.67h2.252l-1.764 8.326h-2.248l1.76-8.326m.709-3.034h2.272l-.424 2.021h-2.272l.424-2.02m3.537 10.725c-.589-.572-.886-1.344-.89-2.323 0-.168.01-.358.033-.567.021-.211.049-.416.088-.607.267-1.352.836-2.426 1.712-3.219.875-.795 1.93-1.194 3.166-1.194 1.012 0 1.815.288 2.403.863.587.578.882 1.358.882 2.35 0 .17-.013.367-.035.578-.026.214-.057.42-.094.622-.26 1.332-.828 2.394-1.704 3.172-.877.783-1.93 1.173-3.157 1.173-1.016 0-1.816-.282-2.404-.848m4.293-1.649c.397-.437.681-1.1.855-1.983a5.3 5.3 0 00.063-.425c.014-.141.02-.273.02-.394 0-.513-.129-.912-.387-1.194-.257-.284-.622-.425-1.094-.425-.624 0-1.132.223-1.53.669-.402.446-.686 1.12-.866 2.018-.024.138-.044.276-.063.411a3.035 3.035 0 00-.016.384c0 .511.129.904.387 1.183.257.279.62.416 1.099.416.627 0 1.135-.22 1.532-.66m17.715 8.145l.543-1.942h2.746l-.118.712s1.403-.712 2.414-.712h3.395l-.54 1.942h-.534l-2.561 9.16h.534l-.508 1.818h-.534l-.222.79h-2.66l.222-.79h-5.246l.51-1.819h.527l2.563-9.16h-.53zm2.963 0l-.699 2.479s1.196-.467 2.227-.599c.227-.865.525-1.88.525-1.88h-2.053zm-1.023 3.64l-.7 2.597s1.324-.663 2.234-.719c.263-1.003.526-1.877.526-1.877h-2.06zm.514 5.52l.526-1.884h-2.05l-.528 1.883h2.052zm6.642-11.223h2.582l.11.968c-.018.247.126.364.433.364h.456l-.462 1.64h-1.897c-.725.038-1.098-.243-1.132-.85l-.09-2.122zm-.756 3.518h8.362l-.49 1.76h-2.663l-.457 1.637h2.66l-.494 1.758h-2.962l-.67 1.03h1.45L78 44.948c.04.205.219.305.525.305h.45l-.473 1.699h-1.594c-.826.04-1.253-.24-1.288-.848l-.384-1.883-1.32 2.003c-.312.566-.791.83-1.438.79h-2.434l.474-1.7h.76c.311 0 .57-.14.804-.425l2.065-3.033h-2.662l.493-1.758h2.888l.46-1.637h-2.891l.494-1.76zM28.907 21.055h2.03l-.231 1.202.291-.343c.659-.716 1.458-1.07 2.403-1.07.854 0 1.47.252 1.858.76.38.507.485 1.208.305 2.109l-1.12 5.674h-2.087l1.01-5.143c.105-.531.076-.927-.085-1.183-.158-.255-.462-.38-.9-.38-.536 0-.988.169-1.356.507-.37.34-.614.812-.734 1.414l-.931 4.785h-2.092l1.639-8.332m23.295 0h2.033l-.23 1.202.288-.343c.659-.716 1.461-1.07 2.403-1.07.854 0 1.472.252 1.856.76.379.507.488 1.208.303 2.109l-1.114 5.674h-2.09l1.01-5.143c.104-.531.075-.927-.084-1.183-.165-.255-.462-.38-.898-.38-.537 0-.987.169-1.36.507-.37.34-.615.812-.73 1.414l-.936 4.785h-2.09l1.64-8.332m10.048-5.165h5.903c1.135 0 2.012.262 2.616.775.6.52.9 1.265.9 2.236v.03c0 .184-.011.393-.028.618-.03.223-.067.45-.116.684-.26 1.285-.863 2.318-1.796 3.101-.936.78-2.044 1.174-3.32 1.174h-3.166l-.978 4.879h-2.74L62.25 15.89m1.476 6.27h2.625c.684 0 1.227-.162 1.623-.481.392-.323.652-.816.796-1.485.023-.123.038-.235.055-.337.01-.097.02-.194.02-.288 0-.478-.167-.824-.502-1.041-.335-.22-.86-.326-1.588-.326h-2.23l-.8 3.958m20.212 8.838c-.866 1.871-1.692 2.962-2.177 3.47-.485.502-1.447 1.67-3.763 1.582l.2-1.43c1.949-.61 3.003-3.359 3.603-4.576l-.716-8.966 1.508-.02h1.264l.136 5.624 2.37-5.624h2.4l-4.825 9.94m-6.71-9.263l-.954.666c-.996-.792-1.905-1.282-3.66-.455-2.392 1.127-4.39 9.767 2.194 6.921l.375.452 2.59.068 1.701-7.851-2.246.2m-1.473 4.291c-.416 1.247-1.346 2.072-2.073 1.837-.728-.229-.988-1.432-.566-2.681.415-1.25 1.35-2.072 2.073-1.837.727.229.99 1.432.566 2.681" fill="#FFF"/></g></svg>