<svg width="188" height="28" xmlns="http://www.w3.org/2000/svg">
    <path d="m27.636 8.939 1.857 3.08a4.384 4.384 0 0 1 0 4.094l-5.632 9.646C23.13 27.14 21.72 28 20.187 28h-10.4c-1.533 0-2.943-.86-3.675-2.241l-1.944-3.29 7.673-7.119 5.559 3.223c.581.398 1.36.292 1.82-.248l8.416-9.386zm-16.738.785-8.41 9.464-1.98-3.032a4.369 4.369 0 0 1 0-4.088l5.94-9.83A4.172 4.172 0 0 1 10.125 0h10.01c1.535 0 2.946.859 3.678 2.238l2.02 3.402-7.521 6.99-5.54-3.217a1.373 1.373 0 0 0-1.874.31v.001zm37.434 7.551c0-2.692-.978-4.038-2.935-4.038-.425 0-.845.056-1.26.168-.416.112-.753.252-1.011.42v7.6c.203.038.462.07.775.099.314.028.656.042 1.025.042 1.126 0 1.975-.393 2.548-1.178.572-.785.858-1.823.858-3.113zm4.209.112c0 1.178-.17 2.244-.512 3.197-.342.954-.836 1.767-1.482 2.44s-1.44 1.192-2.381 1.557c-.942.364-2.012.547-3.212.547-.499 0-1.02-.024-1.565-.07a29.085 29.085 0 0 1-1.606-.183c-.506-.071-1.01-.16-1.51-.266-.48-.103-.904-.21-1.273-.323V4.007L43.126 3v7.348a7.305 7.305 0 0 1 3.046-.645c1.034 0 1.948.182 2.741.547a5.377 5.377 0 0 1 1.994 1.556c.536.673.942 1.482 1.219 2.426.277.944.415 1.996.415 3.155zm8.091 4.46c.406 0 .794-.01 1.163-.029a7.66 7.66 0 0 0 .886-.084v-3.169a7.528 7.528 0 0 0-.747-.112 8.076 8.076 0 0 0-2.008.014 2.83 2.83 0 0 0-.9.266 1.55 1.55 0 0 0-.61.533c-.147.225-.22.505-.22.842 0 .654.216 1.107.65 1.36.434.252 1.03.378 1.786.378v.001zm-.277-12.17c1.219 0 2.234.14 3.046.421.813.28 1.463.683 1.952 1.206.49.524.78 1.1.983 1.848.204.748.305 1.58.305 2.496v8.694c-.59.131-1.412.286-2.464.463-1.053.178-2.326.267-3.822.267-.941 0-1.795-.085-2.561-.253-.766-.168-1.426-.444-1.98-.827a3.773 3.773 0 0 1-1.274-1.5c-.295-.618-.443-1.375-.443-2.272 0-.86.17-1.59.512-2.188a3.97 3.97 0 0 1 1.371-1.43 6.148 6.148 0 0 1 1.966-.771c.755-.16 1.526-.241 2.298-.239.536 0 1.011.024 1.427.07.415.047.752.108 1.01.183v-.393c0-.71-.212-1.28-.637-1.71-.424-.43-1.163-.646-2.215-.646-.701 0-1.394.052-2.077.155a8.816 8.816 0 0 0-1.772.434l-.47-3.306a15.48 15.48 0 0 1 2.076-.463c.425-.066.872-.122 1.343-.168.47-.047.946-.07 1.426-.07v-.001zm17.092 3.807s-1.03.2-1.855.534c-.824.334-1.72 1.14-1.813 1.168v9.516h-4.126l.005-14.085 3.837-1.004.284 1.4s.824-.5 1.813-.835a13.028 13.028 0 0 1 1.888-.477l-.033 3.783zm76.064.065s-1.03.2-1.855.533c-.824.334-1.72 1.14-1.813 1.169v9.45h-4.126l.005-14.02 3.837-1.004.284 1.4s.824-.5 1.813-.834c.99-.334 1.888-.477 1.888-.477l-.033 3.783zm-74.127.515c.397-.982.918-1.8 1.564-2.454a6.502 6.502 0 0 1 2.23-1.487c.84-.336 1.747-.446 2.633-.446 2.068 0 3.657.582 4.857 1.863 1.2 1.28 1.8 3.164 1.8 5.65 0 .244-.01.51-.028.8-.018.29-.037.547-.055.771h-9.36c.092.86.49 1.543 1.19 2.048.702.505 1.644.757 2.825.757.757 0 1.5-.07 2.23-.21.729-.14 1.324-.314 1.786-.52l.553 3.394a5.61 5.61 0 0 1-.886.337c-.369.112-.78.21-1.232.294-.452.084-.937.155-1.454.21-.517.057-1.034.085-1.55.085-1.311 0-2.451-.197-3.42-.59-.97-.392-1.773-.93-2.41-1.612a6.418 6.418 0 0 1-1.412-2.426 9.723 9.723 0 0 1-.457-3.029c0-1.308.199-2.454.596-3.435zm9.096 1.837a4.326 4.326 0 0 0-.18-1.038 2.502 2.502 0 0 0-1.274-1.542c-.323-.169-.725-.253-1.205-.253-.46 0-.858.079-1.19.239a2.47 2.47 0 0 0-.831.631 2.812 2.812 0 0 0-.512.911 6.02 6.02 0 0 0-.263 1.052h5.455zm15.524-5.626a26.98 26.98 0 0 1 1.736-.334c.176-.028.457-.066.664-.093l.27-.035s.455-.048.686-.068a19.33 19.33 0 0 1 1.634-.07c1.052 0 1.844.131 2.562.406.717.276 1.446.645 2.176 1.26 1.336 1.108 1.41 2.462 1.41 2.462v10.96h-4.126v-7.825s0-2.151-.513-2.861c-.512-.708-.928-.84-1.758-.84-.259 0-.526.014-.803.042-.277.028-.545.06-.803.098v11.386h-4.143v-7.825s0-2.151-.513-2.861c-.512-.708-.928-.84-1.758-.84-.258 0-.526.014-.803.042-.277.028-.545.06-.803.098v11.386h-4.126V10.516c.9-.236 1.81-.428 2.728-.575.175-.028.456-.066.663-.093l.27-.035s.456-.048.686-.068a19.33 19.33 0 0 1 1.634-.07c1.052 0 1.844.131 2.562.406.158.06.314.125.468.194zm13.507 7.224c0-1.308.199-2.454.596-3.435.396-.982.918-1.8 1.564-2.454a6.502 6.502 0 0 1 2.23-1.487c.84-.336 1.594-.446 2.48-.446 2.068 0 3.81.582 5.01 1.863 1.2 1.28 1.8 3.164 1.8 5.65 0 .244-.01.51-.028.8-.019.29-.037.547-.055.771h-9.36c.092.86.49 1.543 1.19 2.048.702.505 1.644.757 2.825.757.757 0 1.5-.07 2.23-.21.728-.14 1.324-.314 1.785-.52l.554 3.394a5.61 5.61 0 0 1-.886.337c-.37.112-.78.21-1.232.294-.452.084-.937.155-1.454.21-.517.057-1.034.085-1.55.085-1.311 0-2.451-.197-3.42-.59-.97-.392-1.773-.93-2.41-1.612a6.418 6.418 0 0 1-1.412-2.426 9.723 9.723 0 0 1-.457-3.029zm9.692-1.598a4.363 4.363 0 0 0-.18-1.038 2.602 2.602 0 0 0-.47-.897 2.512 2.512 0 0 0-.804-.645c-.323-.169-.724-.253-1.204-.253-.462 0-.859.08-1.191.239-.332.159-.61.369-.83.63-.226.27-.4.579-.513.912a6.02 6.02 0 0 0-.263 1.052h5.455zm7.103-9.23 4.126-1.007v4.013h3.499l-.73 3.478h-2.769v5.522c0 .879.153 1.58.457 2.104.305.523.433.785 1.356.785.443 0 .9-.042 1.37-.126.471-.084.9-.201 1.288-.35l.582 3.252c-.499.206-1.053.384-1.662.533-.61.15-1.357.225-2.243.225-1.126 0-1.572-.155-2.31-.463-.74-.309-1.33-.739-1.773-1.29-.443-.552-.752-1.22-.928-2.005a11.983 11.983 0 0 1-.263-2.609v-5.578h-1.497v-3.39h1.497V6.67v.001zm25.427 18.03h-4.126l.025-14.022 4.126-1.002-.025 15.025v-.001zm.412-18.953c0 .767-.244 1.37-.733 1.81a2.508 2.508 0 0 1-1.731.658c-.665 0-1.242-.22-1.73-.659-.49-.439-.735-1.042-.735-1.809 0-.766.245-1.37.734-1.808.49-.44 1.066-.66 1.73-.66.666 0 1.242.22 1.732.66.489.439.733 1.042.733 1.808zm2.138 11.64c0-1.067.17-2.071.512-3.016a7.222 7.222 0 0 1 1.482-2.468 7.07 7.07 0 0 1 2.353-1.668c.924-.412 1.976-.559 3.157-.559.776 0 1.486.012 2.132.152.647.14 1.274.341 1.883.603l-.858 3.337c-.388-.15-.812-.28-1.274-.392a6.577 6.577 0 0 0-1.55-.169c-1.219 0-2.128.384-2.728 1.15-.6.767-.9 1.777-.9 3.03 0 1.327.282 2.355.845 3.084.563.73 1.546 1.094 2.949 1.094.498 0 1.034-.047 1.606-.14a6.761 6.761 0 0 0 1.578-.449l.582 3.422c-.48.205-1.08.383-1.8.532-.72.15-1.514.225-2.382.225-1.329 0-2.473-.201-3.433-.603-.96-.402-1.75-.95-2.368-1.64a6.423 6.423 0 0 1-1.357-2.455 10.546 10.546 0 0 1-.43-3.07h.001zm18.789 4.374c.757 0 1.292-.075 1.606-.224.314-.15.47-.44.47-.87 0-.336-.202-.63-.608-.883-.407-.252-1.025-.537-1.856-.855a18.885 18.885 0 0 1-1.758-.758 5.168 5.168 0 0 1-1.343-.939c-.37-.365-.655-.8-.859-1.304-.203-.505-.304-1.113-.304-1.823 0-1.384.508-2.477 1.523-3.281 1.015-.804 2.409-1.206 4.181-1.206.886 0 1.736.08 2.548.238.812.159 1.458.332 1.938.519l-.72 3.253a15.002 15.002 0 0 0-1.564-.449 8.4 8.4 0 0 0-1.897-.196c-1.292 0-1.939.365-1.939 1.094 0 .168.028.318.084.449.055.13.166.257.332.378.166.122.392.253.678.393.286.14.651.294 1.094.463.905.336 1.652.668 2.243.995.59.327 1.057.683 1.398 1.066.342.383.582.809.72 1.276.139.467.208 1.01.208 1.627 0 1.458-.54 2.561-1.62 3.309-1.08.748-2.607 1.122-4.583 1.122-1.292 0-2.367-.112-3.226-.337-.858-.224-1.454-.411-1.786-.56l.692-3.394c.702.28 1.422.5 2.16.659.739.159 1.468.238 2.188.238z" fill="#656d7e"/>
</svg>
