<svg width="57" height="27" xmlns="http://www.w3.org/2000/svg">
    <path d="M14.115 5.218c-5.14 0-8.292 4.068-8.292 8.175 0 4.942 3.977 8.174 8.33 8.174 2.889 0 5.628-1.293 7.955-3.384v6.122c-2.44 1.482-5.779 2.395-8.368 2.395C6.31 26.7.082 20.579.082 13.393.082 5.789 6.348.086 13.777.086c2.852 0 6.192.874 8.368 1.977V8.07c-2.739-1.825-5.516-2.852-8.03-2.852zM38.485 26.7c-7.6 0-14.017-5.893-14.017-13.307 0-7.49 6.379-13.307 14.362-13.307 2.903 0 6.494.76 8.71 1.787v5.969c-2.522-1.445-5.769-2.624-8.596-2.624-5.232 0-8.632 4.068-8.632 8.175 0 4.828 4.01 8.326 8.71 8.326.992 0 1.947-.076 3.17-.532v-4.79h-4.278V11.34h9.778v13.459c-2.789 1.255-5.92 1.901-9.206 1.901zm12.691-1.157V.086h5.806v25.457h-5.806z" fill="#656d7e" fill-rule="evenodd"/>
</svg>
