<svg width="157" height="28" xmlns="http://www.w3.org/2000/svg">
    <path d="M149.521 9.204h2.522l.207 2.117h.026c.645-.969 2.215-2.21 4.044-2.314v2.761c-2.664.536-3.886 2.355-3.886 4.006v6.58h-2.913V9.203zm-13.407 6.615v-.054c0-4.044 1.911-6.955 5.864-6.955 3.665 0 5.367 2.183 5.367 6.766 0 .486-.033 1.156-.084 1.649h-8.092c.21 1.852 1.258 2.959 3.41 2.959 1.36 0 2.64-.132 3.825-.291v2.511c-1.332.215-2.462.344-3.902.344-4.189 0-6.388-2.157-6.388-6.929zm3.01-.83h5.263c0-2.057-.524-3.681-2.487-3.681-2.042 0-2.723 1.733-2.775 3.682zm-16.353-5.785h2.535s.117 1.305.169 1.775h.034c.702-1.133 2.177-2.17 3.96-2.17 3.011 0 4.506 1.652 4.506 5.002v8.542h-2.913V14.43c0-2.138-.799-2.976-2.37-2.862-1.422.103-3.009 1.777-3.009 3.87v6.916h-2.912V9.204zm-13.727 0h2.535s.118 1.305.17 1.775h.034c.702-1.133 2.176-2.17 3.96-2.17 3.011 0 4.506 1.652 4.506 5.002v8.542h-2.913V14.43c0-2.138-.8-2.976-2.37-2.862-1.422.103-3.01 1.777-3.01 3.87v6.916h-2.912V9.204zM97.571 8.95c1.265-.108 2.638-.14 3.963-.14 3.123 0 4.986 1.243 4.986 4.755v8.788h-2.62l-.13-1.315h-.033c-.898.996-2.203 1.578-3.873 1.578-2.213 0-3.971-1.476-3.971-4.4 0-2.72 2.202-5.253 7.714-4.048v-.792c0-1.567-.892-2.005-2.65-2.005-1.08 0-1.994.075-3.386.198v-2.62zm6.036 7.299c-2.335-.612-4.67.14-4.67 1.998 0 1.233.794 1.958 1.979 1.903.933-.042 1.961-.469 2.691-1.135V16.25zm-9.91-12.304v18.408h-2.912V4.293l2.913-.348zm-16.702 5.26h2.46l.158 1.423h.047c.854-1.064 2.284-1.818 3.933-1.818 3.274 0 5.028 2.507 5.028 6.768v.135c0 4.098-1.754 7.037-5.42 7.037-1.283 0-2.54-.512-3.3-1.105v5.77h-2.906V9.205zm2.906 3.85v6.055c.603.486 1.572.917 2.514.917 2.462 0 3.169-1.968 3.169-4.287 0-2.104-.393-4.142-2.776-4.142-1.152 0-2.266.698-2.907 1.457zm-11.8 2.724c.007 2.872 1.216 4.405 3.621 4.405 1.017 0 2.05-.13 2.988-.26v2.43a17.79 17.79 0 0 1-3.356.328c-3.588 0-6.287-2.034-6.298-6.903.011-4.87 2.71-6.904 6.298-6.904 1.31 0 2.585.17 3.356.33v2.428c-.938-.13-1.971-.26-2.988-.26-2.405 0-3.614 1.533-3.622 4.406zm-16.899.067v-.135c0-4.394 1.964-6.901 6.022-6.901 4.031 0 5.995 2.507 5.995 6.901v.135c0 4.394-1.964 6.902-5.995 6.902-4.058 0-6.022-2.508-6.022-6.902zm6.015-4.538c-2.062 0-3.014 1.44-3.014 4.451 0 3.01.952 4.425 3.014 4.425s2.987-1.41 2.987-4.425c0-3.015-.925-4.451-2.987-4.451zM35.752 22.353V3.945h4.49c6.256 0 9.168 1.935 9.168 9.204 0 7.27-2.911 9.204-9.168 9.204h-4.49zm10.314-9.204c0-4.139-.816-6.227-5.127-6.227H38.94v12.454h1.999c4.311 0 5.127-2.089 5.127-6.227zM14.87 21.254c.646-1.63 2.461-3.91 4.314-5.086l4.1 6.987-4.2 3.143-4.214-5.044zM8.813 26.29l-5.782-3.83C7.41 14.034 15.59 8.033 25.204 6.915l1.61 5.109c-7.925 1.607-14.538 6.994-18 14.266zm1.262-17.344L10.805 0H16l.66 8.09c-2.98 1.053-4.733 1.894-6.741 3.165a21.455 21.455 0 0 0-4.037 3.288L0 11.986l1.603-5.094 8.472 2.054z" fill="#656d7e"/>
</svg>
