<svg width="89" height="30" xmlns="http://www.w3.org/2000/svg">
    <path d="m77.3 1.897-1.73 7.15-2.18.023 1.663-7.15-2.495.047L73.075 0l9.462.023.539 6.155L86.267.023h2.338l-5.147 9.024-1.978.023L80.244.278l.25 1.596-3.194.023zM.135 12.617l1.08-5.338 3.014.068C5.143 1.537 8.937-.69 15.408.184l-.99 5.315-2.429-.046c-1.202.047-1.845.714-2.024 1.894l3.149-.02-.99 5.27-3.217.045-3.261 16.837-5.646.02 3.217-16.905-3.082.023zm14.828-5.521H20.9l-2.27 11.863c-.45 2.51-.922 5.293 2.025 5.818.817.119 1.658 0 2.454-.377 2.398-1.14 2.982-3.552 3.467-5.972l2.266-11.31 5.691-.02-4.364 22.243-5.218.069.225-1.095c-3.47 2.32-7.691 2.01-10.21.324-2.446-1.75-3.003-4.813-2.39-8.69l2.388-12.853zM32.099 29.41 37.677.213l5.601.02-1.507 7.849c2.84-1.787 6.951-1.676 9.874-.152 1.35.703 2.67 1.892 3.485 3.195 1.185 1.896 1.443 4.24 1.487 7.497.186 3.262 2.24 6.399 6.082 5.796 2.182-.342 3.909-1.465 4.855-3.539 1.221-2.675.767-6.073-.86-7.527-1.897-1.704-5.953-2.038-8.053.775-.403-1.933-.976-3.762-2.249-5.361 5.056-3.936 13.239-2.58 16.248 2.975 1.817 3.355 1.696 7.819-.036 11.435-1.457 3.04-4.096 5.384-7.308 6.33-2.734.807-5.688.604-8.107-.453-2.009-.878-3.898-2.596-4.856-4.62-1.609-3.399.24-6.556-2.06-10.351-1.366-1.837-4.15-2.441-6.471-1.496-1.962.798-3.305 2.635-3.739 4.71-.48 2.296-.002 4.946 1.843 6.276 1.964 1.537 5.773 1.225 7.715-1.346.244 1.99.881 3.845 2.385 5.407-2.73 2.472-10.565 3.711-13.991-.045l-.338 1.802-5.578.02z" fill="#656d7e" fill-rule="evenodd"/>
</svg>
