<svg width="94" height="41" xmlns="http://www.w3.org/2000/svg">
    <g fill="none">
        <path d="M14.137 29.518 18.564 4.83 3.353 3.353 5.51 30.17l8.627-.652zM4.922 41l-1.071-8.922 14.796 3.245L4.922 41z" fill="#656d7e"/>
        <path d="m1 5.611 5.593 29.507.524-.191L2.733 8.933l5.017-1.22L1 5.61zM8.117 1l1.936 33.322.58.208L9.508 4.326l5.61-1.229L8.117 1z" stroke="#656d7e" stroke-width=".515" fill="#FFF"/>
        <path stroke="#656d7e" stroke-width=".515" fill="#FFF" d="m11.85 8.059-.262 26.85.624.209.79-23.725 5.645-1.22z"/>
        <path d="m15.76 13.95-1.563 20.985.546.183 1.698-17.771L21 16.113l-5.24-2.163zM1 18.749l4.278 16.35.511-.205-3.068-12.763 3.696-1.221L1 18.749zm4.793-8.337 2.929 23.396.566-.205-2.06-19.805 4.672-1.235-6.107-2.151z" stroke="#656d7e" stroke-width=".515" fill="#FFF"/>
        <path d="M32.31 13.477c-1.252-1.05-2.949-1.658-4.664-1.658-2.693 0-5.538 1.595-5.733 4.448-.352 5.163 6.406 3.82 6.253 6.066-.063.923-1.282 1.28-2.042 1.28-1.107 0-2.08-.378-2.723-1.155L21 25.186c1.331 1.176 3.206 1.7 5.053 1.7 3.105 0 5.819-1.574 6.039-4.806.361-5.288-6.408-3.798-6.251-6.085.052-.756 1.055-1.134 1.705-1.134 1.151 0 1.777.378 2.576 1.092l2.189-2.476zm4.423 2.421-3.351-.008-.74 10.828 3.351.01.74-10.83zm-.293 10.86h4.022l2.383-3.208 1.758 3.208h3.932l-3.538-5.79 4.118-5.055h-3.842l-1.958 2.664-1.483-2.664H38.02l3.16 5.013-4.74 5.832zm-3.104-11.423.32-3.312 4.929 1.659-5.249 1.653zm20.12.094h5.06l-.667-3.275h-7.86l-1.007 14.604h3.723l.333-5.202h3.67l.207-3.043h-3.67l.21-3.084zm5.928-3.505-1.019 14.834h3.396l1.034-15.17-3.411.336zM65.61 22.94c.06-.881.857-1.406 1.79-1.406.913 0 1.637.525 1.576 1.406-.061.903-.858 1.428-1.77 1.428-.933 0-1.658-.525-1.596-1.428zm-1.43-4.176c.939-.399 1.977-.65 2.976-.65 1.455 0 2.15.314 2.048 1.804-.009.126-.014.231-.045.336a4.336 4.336 0 0 0-2.462-.819c-2.15 0-4.09 1.364-4.238 3.546-.158 2.309 1.102 3.904 3.62 3.904 1.152 0 2.148-.273 2.865-1.238h.044l-.138 1.11h3.01l.524-7.595c.182-2.665-1.654-3.777-4.434-3.777-.934 0-2.207.19-3.095.483l-.676 2.896zm20.415-3.798c-1.28.293-2.545.693-3.845.65-.996-.042-1.852-.23-2.482-.23-2.823 0-5.21 1.889-5.404 4.721-.1 1.49.844 2.918 2.168 3.547l-.329 1.007c.977-.293 1.684-.482 2.704-.482 1.217 0 2.419.524 2.334 1.762-.085 1.26-1.509 1.743-2.638 1.743-1.151 0-2.077-.441-2.849-1.218l-2.067 1.973c1.233 1.342 2.927 1.972 4.838 1.972 2.54 0 5.878-1.175 6.071-3.987.11-1.616-.504-2.476-1.816-3.316 1.259-.61 1.96-1.679 2.047-2.938.104-1.532-.475-1.952-.64-2.393l1.07-.105.838-2.706zm-8.538 5.12c.078-1.154 1.134-1.972 2.176-1.972 1.043 0 1.986.819 1.906 1.972-.08 1.176-1.134 1.994-2.176 1.994-1.043 0-1.986-.819-1.906-1.994zm7.323 5.33c1.422 1.113 2.462 1.47 4.351 1.47 2.194 0 4.473-1.26 4.636-3.631.306-4.491-5.03-2.686-4.906-4.491.038-.567.783-.65 1.196-.65.629 0 1.285.251 1.738.608l1.992-1.826c-.917-.88-2.263-1.51-3.61-1.51-2.215 0-4.31 1.112-4.476 3.525-.299 4.385 5.014 2.895 4.914 4.385-.054.777-1.016.861-1.58.861-.955 0-1.758-.336-2.386-.986l-1.87 2.246zm8.218-10.207c0 .713.552 1.172 1.171 1.172.62 0 1.171-.46 1.171-1.172 0-.71-.552-1.167-1.17-1.167-.62 0-1.172.457-1.172 1.167zm.31 0c0-.532.382-.916.861-.916.473 0 .86.384.86.916 0 .535-.387.922-.86.922-.479 0-.86-.387-.86-.922zm.406.653h.254v-.56h.158l.311.56h.266l-.342-.572c.189-.016.336-.11.336-.35 0-.285-.18-.388-.5-.388h-.482v1.31zm.254-1.107h.213c.116 0 .262.022.262.163 0 .16-.107.181-.25.181h-.226v-.344z" fill="#656d7e"/>
    </g>
</svg>
