<svg width="91" height="30" xmlns="http://www.w3.org/2000/svg">
    <g fill="#656d7e" fill-rule="evenodd">
        <path d="M51.763 1.603c-5.486 0-9.935 4.521-9.935 10.061 0 2.638 1.051 5.138 2.956 7.02 1.89 1.868 4.373 2.902 6.994 2.902 2.011 0 4.023-.679 5.7-1.898l.167-.124v-3.719l-.67.68c-1.479 1.496-3.383 2.345-5.258 2.345-3.825 0-7.04-3.333-7.04-7.283s3.2-7.284 6.994-7.284c1.95 0 3.886.849 5.303 2.346l.67.71V3.624l-.151-.123c-1.723-1.281-3.582-1.898-5.73-1.898zm20.312 11.773v.279c0 1.342.015 2.731-.808 3.718-.746.91-2.041 1.512-3.291 1.512-1.31 0-2.712-.663-3.383-1.604-.731-1.019-.731-2.376-.731-3.689V1.927h-2.82v12.005c0 2.007.153 3.935 1.921 5.648 1.265 1.265 3.138 2.006 5.013 2.006 2.012 0 3.916-.818 5.212-2.238 1.584-1.666 1.706-3.44 1.706-5.416V1.927h-2.819v11.45zM85.56 9.89l-1.219-.54c-1.173-.54-2.62-1.204-2.62-2.531 0-1.39 1.158-2.485 2.65-2.485 1.281 0 2.074.51 2.82 1.82l.198.356 2.286-1.482-.168-.324c-1.051-1.959-2.895-3.085-5.09-3.085-3.138 0-5.516 2.206-5.516 5.122 0 2.932 2.088 4.136 4.221 5.108l1.113.494.09.046c1.647.756 3.064 1.42 3.064 3.287 0 1.774-1.509 3.225-3.367 3.225-1.677 0-3.017-1.28-3.277-3.102l-.06-.447-2.774.787.076.355c.625 3.101 3.018 5.123 6.095 5.123 3.444 0 6.156-2.7 6.156-6.126-.046-3.271-2.33-4.568-4.678-5.602zM8 15.352 3.047 1.927H0l8 21.171 8.015-21.171h-3.063zm20.937 6.944a1.43 1.43 0 0 1 1.066-1.698 1.41 1.41 0 0 1 1.676 1.08 1.43 1.43 0 0 1-1.066 1.698c-.107.015-.199.03-.305.03a1.391 1.391 0 0 1-1.371-1.11zm-3.597.972a1.348 1.348 0 0 1-.99-1.62 1.328 1.328 0 0 1 1.6-1.003 1.347 1.347 0 0 1-.305 2.654c-.091 0-.198-.016-.305-.03zm8-2.376a1.528 1.528 0 0 1 .244-2.115c.64-.509 1.585-.4 2.087.247.504.648.397 1.605-.243 2.114a1.48 1.48 0 0 1-.93.325c-.426 0-.853-.186-1.158-.571zm-12.662-.047a1.3 1.3 0 0 1-.183-1.79 1.26 1.26 0 0 1 1.768-.185 1.3 1.3 0 0 1 .183 1.79c-.244.309-.61.463-.976.463-.274 0-.563-.093-.792-.278zm16.075-3.132a1.604 1.604 0 0 1-.73-2.114 1.567 1.567 0 0 1 2.087-.741 1.604 1.604 0 0 1 .73 2.114 1.554 1.554 0 0 1-1.416.895c-.229 0-.457-.046-.67-.154zm-19.214-1.081c-.274-.601-.016-1.311.563-1.574a1.165 1.165 0 0 1 1.555.571c.274.602.015 1.312-.564 1.574a1.175 1.175 0 0 1-.503.108c-.426.016-.838-.231-1.051-.679zM36.83 11.68c0 .92.737 1.666 1.646 1.666.908 0 1.645-.747 1.645-1.667s-.737-1.666-1.645-1.666c-.909 0-1.646.746-1.646 1.666zm-19.2.956a1.11 1.11 0 0 1-1.081-1.126 1.108 1.108 0 0 1 1.112-1.096 1.11 1.11 0 0 1 1.082 1.127c-.016.601-.503 1.095-1.098 1.095h-.015zm18.514-4.614c-.35-.802 0-1.744.792-2.098.793-.355 1.723 0 2.073.802.35.802 0 1.744-.792 2.099a1.598 1.598 0 0 1-.64.139c-.61 0-1.174-.355-1.433-.942zm-17.92-.015c-.579-.293-.807-1.019-.518-1.605a1.177 1.177 0 0 1 1.585-.525c.579.293.808 1.019.518 1.605a1.177 1.177 0 0 1-1.051.648c-.183 0-.366-.046-.534-.123zm15.574-3.241a1.526 1.526 0 0 1-.183-2.129 1.481 1.481 0 0 1 2.102-.186c.625.541.716 1.482.183 2.13-.29.355-.716.54-1.142.54a1.54 1.54 0 0 1-.96-.355zm-13.074-.679a1.267 1.267 0 0 1 .228-1.774 1.231 1.231 0 0 1 1.753.232c.426.555.32 1.357-.23 1.774a1.27 1.27 0 0 1-.761.262c-.366 0-.747-.17-.99-.494zm9.539-1.25c-.748-.2-1.22-.971-1.022-1.728A1.392 1.392 0 0 1 30.948.075a1.412 1.412 0 0 1 1.02 1.728 1.418 1.418 0 0 1-1.37 1.081 1.43 1.43 0 0 1-.335-.047zm-5.608-1.218A1.35 1.35 0 0 1 25.69.029c.716-.155 1.417.324 1.57 1.05a1.349 1.349 0 0 1-1.037 1.588 1.586 1.586 0 0 1-.274.031c-.61 0-1.173-.447-1.295-1.08zM43.534 29.81c-.899 0-1.569-.709-1.569-2.006 0-1.295.716-1.99 1.57-1.99.472 0 .761.14.929.278l-.228.617a.671.671 0 0 0-.458-.154c-.487 0-.7.447-.7 1.234 0 .787.259 1.234.7 1.234a.682.682 0 0 0 .458-.153l.228.679c-.168.153-.457.261-.93.261zm2.82 0c-1.098 0-1.677-.848-1.677-2.006 0-1.156.58-1.99 1.677-1.99 1.112 0 1.691.849 1.691 1.99 0 1.158-.58 2.006-1.691 2.006zm0-3.301c-.488 0-.58.601-.58 1.295 0 .695.107 1.266.58 1.266.487 0 .594-.571.594-1.266 0-.694-.107-1.295-.594-1.295zm6.415 3.24v-2.7c0-.293-.168-.525-.549-.525a.685.685 0 0 0-.487.185v3.04h-1.098v-2.716c0-.308-.213-.509-.594-.509-.198 0-.305.015-.442.077v3.163h-1.097v-3.641c.426-.2.884-.293 1.539-.293.625 0 .99.169 1.204.385.243-.2.625-.385 1.265-.385.899 0 1.371.54 1.371 1.219v2.7H52.77zm5.957 0v-2.7c0-.293-.167-.525-.548-.525a.687.687 0 0 0-.488.185v3.04h-1.096v-2.716c0-.308-.214-.509-.595-.509-.198 0-.305.015-.442.077v3.163H54.46v-3.641c.427-.2.884-.293 1.539-.293.625 0 .99.169 1.204.385.244-.2.624-.385 1.264-.385.9 0 1.372.54 1.372 1.219v2.7h-1.113zm3.277.061c-1.082 0-1.6-.4-1.6-1.342v-2.592H61.5v2.67c0 .277.152.508.518.508a.966.966 0 0 0 .457-.092v-3.086h1.097v3.626c-.32.2-.853.308-1.57.308zm4.312-.061v-2.7c0-.279-.122-.54-.564-.54-.213 0-.335.03-.472.077v3.163h-1.097v-3.642c.38-.17.914-.293 1.6-.293 1.204 0 1.646.525 1.646 1.219v2.7h-1.113v.016zm2.28-4.444c-.333 0-.62-.231-.62-.525 0-.293.27-.524.62-.524.333 0 .618.231.618.524 0 .294-.285.525-.618.525zm-.572 4.444v-3.858h1.143v3.858zm3.137.061c-.898 0-1.569-.709-1.569-2.006 0-1.295.717-1.99 1.57-1.99.472 0 .762.14.93.278l-.23.617a.671.671 0 0 0-.457-.154c-.487 0-.7.447-.7 1.234 0 .787.258 1.234.7 1.234.199 0 .35-.061.458-.153l.228.679c-.152.153-.442.261-.93.261zm2.774 0c-1.097 0-1.661-.416-1.661-1.219 0-1.002.975-1.295 2.133-1.388v-.185c0-.401-.274-.51-.67-.51-.366 0-.747.124-.99.232l-.244-.633a3.748 3.748 0 0 1 1.432-.293c.869 0 1.494.37 1.494 1.404v2.3c-.321.184-.839.292-1.494.292z"/>
        <path d="M74.39 27.728c-.67.061-1.096.216-1.096.833 0 .448.26.648.686.648a.9.9 0 0 0 .396-.078v-1.403h.015zm2.987 2.082c-.792 0-1.142-.524-1.142-1.11v-2.083h-.411v-.726h.41v-.817l1.098-.294v1.111h.594v.726h-.594v1.99c0 .294.107.447.35.447.092 0 .138-.015.23-.045v.693a1.413 1.413 0 0 1-.535.108zm1.549-4.505c-.333 0-.618-.231-.618-.525 0-.293.269-.524.618-.524.333 0 .619.231.619.524-.016.294-.286.525-.62.525zm-.586 4.444v-3.858h1.141v3.858zm3.258.061c-1.096 0-1.675-.848-1.675-2.006 0-1.156.579-1.99 1.675-1.99 1.113 0 1.692.849 1.692 1.99-.015 1.158-.594 2.006-1.692 2.006zm0-3.301c-.487 0-.579.601-.579 1.295 0 .695.107 1.266.58 1.266.487 0 .594-.571.594-1.266-.015-.694-.107-1.295-.595-1.295zm4.267 3.24v-2.7c0-.279-.122-.54-.564-.54-.213 0-.335.03-.472.077v3.163h-1.097v-3.642c.38-.17.914-.293 1.6-.293 1.204 0 1.646.525 1.646 1.219v2.7h-1.113v.016zm2.575.061c-.472 0-.883-.122-1.112-.277l.29-.71c.137.108.396.216.685.216.29 0 .473-.185.473-.416 0-.263-.137-.401-.488-.54-.7-.279-.853-.68-.853-1.081 0-.663.502-1.188 1.28-1.188.472 0 .792.093 1.097.278l-.274.633a.958.958 0 0 0-.58-.2c-.289 0-.441.184-.441.4 0 .263.198.402.487.524.731.31.9.68.9 1.127-.016.694-.565 1.234-1.464 1.234z"/>
    </g>
</svg>
