<svg class="bi bi-arrow-repeat" width="1em" height="1em" viewBox="0 0 20 20" fill="currentColor" xmlns="http://www.w3.org/2000/svg">
  <path fill-rule="evenodd" d="M4 9.5a.5.5 0 00-.5.5 6.5 6.5 0 0012.13 3.25.5.5 0 00-.866-.5A5.5 5.5 0 014.5 10a.5.5 0 00-.5-.5z" clip-rule="evenodd"/>
  <path fill-rule="evenodd" d="M4.354 9.146a.5.5 0 00-.708 0l-2 2a.5.5 0 00.708.708L4 10.207l1.646 1.647a.5.5 0 00.708-.708l-2-2zM15.947 10.5a.5.5 0 00.5-.5 6.5 6.5 0 00-12.13-3.25.5.5 0 10.866.5A5.5 5.5 0 0115.448 10a.5.5 0 00.5.5z" clip-rule="evenodd"/>
  <path fill-rule="evenodd" d="M18.354 8.146a.5.5 0 00-.708 0L16 9.793l-1.646-1.647a.5.5 0 00-.708.708l2 2a.5.5 0 00.708 0l2-2a.5.5 0 000-.708z" clip-rule="evenodd"/>
</svg>