<svg class="bi bi-arrows-angle-expand" width="1em" height="1em" viewBox="0 0 20 20" fill="currentColor" xmlns="http://www.w3.org/2000/svg">
  <path fill-rule="evenodd" d="M4 11.5a.5.5 0 01.5.5v3.5H8a.5.5 0 010 1H4a.5.5 0 01-.5-.5v-4a.5.5 0 01.5-.5z" clip-rule="evenodd"/>
  <path fill-rule="evenodd" d="M8.854 11.11a.5.5 0 010 .708l-4.5 4.5a.5.5 0 11-.708-.707l4.5-4.5a.5.5 0 01.708 0zm7.464-7.464a.5.5 0 010 .708l-4.5 4.5a.5.5 0 11-.707-.708l4.5-4.5a.5.5 0 01.707 0z" clip-rule="evenodd"/>
  <path fill-rule="evenodd" d="M11.5 4a.5.5 0 01.5-.5h4a.5.5 0 01.5.5v4a.5.5 0 01-1 0V4.5H12a.5.5 0 01-.5-.5z" clip-rule="evenodd"/>
</svg>