<svg class="bi bi-arrow-left-right" width="1em" height="1em" viewBox="0 0 20 20" fill="currentColor" xmlns="http://www.w3.org/2000/svg">
  <path fill-rule="evenodd" d="M12.146 9.646a.5.5 0 01.708 0l3 3a.5.5 0 010 .708l-3 3a.5.5 0 01-.708-.708L14.793 13l-2.647-2.646a.5.5 0 010-.708z" clip-rule="evenodd"/>
  <path fill-rule="evenodd" d="M4 13a.5.5 0 01.5-.5H15a.5.5 0 010 1H4.5A.5.5 0 014 13zm3.854-9.354a.5.5 0 010 .708L5.207 7l2.647 2.646a.5.5 0 01-.708.708l-3-3a.5.5 0 010-.708l3-3a.5.5 0 01.708 0z" clip-rule="evenodd"/>
  <path fill-rule="evenodd" d="M4.5 7a.5.5 0 01.5-.5h10.5a.5.5 0 010 1H5a.5.5 0 01-.5-.5z" clip-rule="evenodd"/>
</svg>