<svg class="bi bi-arrows-fullscreen" width="1em" height="1em" viewBox="0 0 20 20" fill="currentColor" xmlns="http://www.w3.org/2000/svg">
  <path fill-rule="evenodd" d="M4 11.5a.5.5 0 01.5.5v3.5H8a.5.5 0 010 1H4a.5.5 0 01-.5-.5v-4a.5.5 0 01.5-.5z" clip-rule="evenodd"/>
  <path fill-rule="evenodd" d="M8.854 11.11a.5.5 0 010 .708l-4.5 4.5a.5.5 0 11-.708-.707l4.5-4.5a.5.5 0 01.708 0zm7.464-7.464a.5.5 0 010 .708l-4.5 4.5a.5.5 0 11-.707-.708l4.5-4.5a.5.5 0 01.707 0z" clip-rule="evenodd"/>
  <path fill-rule="evenodd" d="M11.5 4a.5.5 0 01.5-.5h4a.5.5 0 01.5.5v4a.5.5 0 01-1 0V4.5H12a.5.5 0 01-.5-.5zm4.5 7.5a.5.5 0 00-.5.5v3.5H12a.5.5 0 000 1h4a.5.5 0 00.5-.5v-4a.5.5 0 00-.5-.5z" clip-rule="evenodd"/>
  <path fill-rule="evenodd" d="M11.146 11.11a.5.5 0 000 .708l4.5 4.5a.5.5 0 00.708-.707l-4.5-4.5a.5.5 0 00-.708 0zM3.682 3.646a.5.5 0 000 .708l4.5 4.5a.5.5 0 10.707-.708l-4.5-4.5a.5.5 0 00-.707 0z" clip-rule="evenodd"/>
  <path fill-rule="evenodd" d="M8.5 4a.5.5 0 00-.5-.5H4a.5.5 0 00-.5.5v4a.5.5 0 001 0V4.5H8a.5.5 0 00.5-.5z" clip-rule="evenodd"/>
</svg>