<svg class="bi bi-arrow-up-down" width="1em" height="1em" viewBox="0 0 20 20" fill="currentColor" xmlns="http://www.w3.org/2000/svg">
  <path fill-rule="evenodd" d="M13 5.5a.5.5 0 01.5.5v9a.5.5 0 01-1 0V6a.5.5 0 01.5-.5z" clip-rule="evenodd"/>
  <path fill-rule="evenodd" d="M12.646 4.646a.5.5 0 01.708 0l3 3a.5.5 0 01-.708.708L13 5.707l-2.646 2.647a.5.5 0 01-.708-.708l3-3zm-9 7a.5.5 0 01.708 0L7 14.293l2.646-2.647a.5.5 0 01.708.708l-3 3a.5.5 0 01-.708 0l-3-3a.5.5 0 010-.708z" clip-rule="evenodd"/>
  <path fill-rule="evenodd" d="M7 4.5a.5.5 0 01.5.5v9a.5.5 0 01-1 0V5a.5.5 0 01.5-.5z" clip-rule="evenodd"/>
</svg>