<svg class="bi bi-blockquote-left" width="1em" height="1em" viewBox="0 0 20 20" fill="currentColor" xmlns="http://www.w3.org/2000/svg">
  <path fill-rule="evenodd" d="M4 5.5a.5.5 0 01.5-.5h11a.5.5 0 010 1h-11a.5.5 0 01-.5-.5zm5 3a.5.5 0 01.5-.5h6a.5.5 0 010 1h-6a.5.5 0 01-.5-.5zm0 3a.5.5 0 01.5-.5h6a.5.5 0 010 1h-6a.5.5 0 01-.5-.5zm-5 3a.5.5 0 01.5-.5h11a.5.5 0 010 1h-11a.5.5 0 01-.5-.5z" clip-rule="evenodd"/>
  <path d="M5.734 8.352a6.586 6.586 0 00-.445.275 1.94 1.94 0 00-.346.299 1.38 1.38 0 00-.252.369c-.058.129-.1.295-.123.498h.282c.242 0 .431.06.568.182.14.117.21.29.21.521a.697.697 0 01-.187.463c-.12.14-.289.21-.503.21-.336 0-.577-.109-.721-.327-.145-.223-.217-.514-.217-.873 0-.254.055-.485.164-.692.11-.21.242-.398.399-.562.16-.168.33-.31.51-.428.179-.117.33-.213.45-.287l.211.352zm2.168 0a6.588 6.588 0 00-.445.275 1.94 1.94 0 00-.346.299c-.113.12-.199.246-.257.375a1.75 1.75 0 00-.118.492h.282c.242 0 .431.06.568.182.14.117.21.29.21.521a.697.697 0 01-.187.463c-.12.14-.289.21-.504.21-.335 0-.576-.109-.72-.327-.145-.223-.217-.514-.217-.873 0-.254.055-.485.164-.692.11-.21.242-.398.398-.562.16-.168.33-.31.51-.428.18-.117.33-.213.451-.287l.211.352z"/>
</svg>