<svg class="bi bi-book-half-fill" width="1em" height="1em" viewBox="0 0 20 20" fill="currentColor" xmlns="http://www.w3.org/2000/svg">
  <path fill-rule="evenodd" d="M5.214 3.072c1.599-.32 3.702-.363 5.14 1.074a.5.5 0 01.146.354v11a.5.5 0 01-.854.354c-.843-.844-2.115-1.059-3.47-.92-1.344.14-2.66.617-3.452 1.013A.5.5 0 012 15.5v-11a.5.5 0 01.276-.447L2.5 4.5l-.224-.447.002-.001.004-.002.013-.006a5.116 5.116 0 01.22-.103 12.958 12.958 0 012.7-.869zM3 4.82v9.908c.846-.343 1.944-.672 3.074-.788 1.143-.118 2.387-.023 3.426.56V4.718c-1.063-.929-2.631-.956-4.09-.664A11.958 11.958 0 003 4.82z" clip-rule="evenodd"/>
  <path fill-rule="evenodd" d="M14.786 3.072c-1.598-.32-3.702-.363-5.14 1.074A.5.5 0 009.5 4.5v11a.5.5 0 00.854.354c.844-.844 2.115-1.059 3.47-.92 1.344.14 2.66.617 3.452 1.013A.5.5 0 0018 15.5v-11a.5.5 0 00-.276-.447L17.5 4.5l.224-.447-.002-.001-.004-.002-.013-.006-.047-.023a12.582 12.582 0 00-.799-.34 12.96 12.96 0 00-2.073-.609z" clip-rule="evenodd"/>
</svg>