<svg class="bi bi-box-arrow-bottom-left" width="1em" height="1em" viewBox="0 0 20 20" fill="currentColor" xmlns="http://www.w3.org/2000/svg">
  <path fill-rule="evenodd" d="M15 3.5A1.5 1.5 0 0116.5 5v8a1.5 1.5 0 01-1.5 1.5h-4a.5.5 0 010-1h4a.5.5 0 00.5-.5V5a.5.5 0 00-.5-.5H7a.5.5 0 00-.5.5v4a.5.5 0 01-1 0V5A1.5 1.5 0 017 3.5h8zm-11 7a.5.5 0 00-.5.5v5a.5.5 0 00.5.5h5a.5.5 0 000-1H4.5V11a.5.5 0 00-.5-.5z" clip-rule="evenodd"/>
  <path fill-rule="evenodd" d="M3.646 16.354a.5.5 0 00.708 0l8-8a.5.5 0 00-.708-.708l-8 8a.5.5 0 000 .708z" clip-rule="evenodd"/>
</svg>