<svg class="bi bi-box-arrow-up" width="1em" height="1em" viewBox="0 0 20 20" fill="currentColor" xmlns="http://www.w3.org/2000/svg">
  <path fill-rule="evenodd" d="M6.646 6.354a.5.5 0 00.708 0L10 3.707l2.646 2.647a.5.5 0 00.708-.708l-3-3a.5.5 0 00-.708 0l-3 3a.5.5 0 000 .708z" clip-rule="evenodd"/>
  <path fill-rule="evenodd" d="M10 13.5a.5.5 0 00.5-.5V4a.5.5 0 00-1 0v9a.5.5 0 00.5.5z" clip-rule="evenodd"/>
  <path fill-rule="evenodd" d="M4.5 16A1.5 1.5 0 006 17.5h8a1.5 1.5 0 001.5-1.5V9A1.5 1.5 0 0014 7.5h-1.5a.5.5 0 000 1H14a.5.5 0 01.5.5v7a.5.5 0 01-.5.5H6a.5.5 0 01-.5-.5V9a.5.5 0 01.5-.5h1.5a.5.5 0 000-1H6A1.5 1.5 0 004.5 9v7z" clip-rule="evenodd"/>
</svg>