<svg class="bi bi-braces" width="1em" height="1em" viewBox="0 0 20 20" fill="currentColor" xmlns="http://www.w3.org/2000/svg">
  <path d="M4.114 10.063V9.9c1.005-.102 1.497-.615 1.497-1.6V6.503c0-1.094.39-1.538 1.354-1.538h.273V4h-.376C5.25 4 4.49 4.759 4.49 6.352v1.524c0 1.094-.376 1.456-1.49 1.456v1.299c1.114 0 1.49.362 1.49 1.456v1.524c0 1.593.759 2.352 2.372 2.352h.376v-.964h-.273c-.964 0-1.354-.444-1.354-1.538v-1.798c0-.984-.492-1.497-1.497-1.6zM15.886 9.9v.163c-1.005.103-1.497.616-1.497 1.6v1.798c0 1.094-.39 1.538-1.354 1.538h-.273v.964h.376c1.613 0 2.372-.759 2.372-2.352v-1.524c0-1.094.376-1.456 1.49-1.456V9.332c-1.114 0-1.49-.362-1.49-1.456V6.352C15.51 4.759 14.75 4 13.138 4h-.376v.964h.273c.964 0 1.354.444 1.354 1.538V8.3c0 .984.492 1.497 1.497 1.6z"/>
</svg>