<svg class="bi bi-brightness-fill-high" width="1em" height="1em" viewBox="0 0 20 20" fill="currentColor" xmlns="http://www.w3.org/2000/svg">
  <circle cx="10" cy="10" r="4"/>
  <path fill-rule="evenodd" d="M10 2a.5.5 0 01.5.5v2a.5.5 0 01-1 0v-2A.5.5 0 0110 2zm0 13a.5.5 0 01.5.5v2a.5.5 0 01-1 0v-2a.5.5 0 01.5-.5zm8-5a.5.5 0 01-.5.5h-2a.5.5 0 010-1h2a.5.5 0 01.5.5zM5 10a.5.5 0 01-.5.5h-2a.5.5 0 010-1h2a.5.5 0 01.5.5zm10.657-5.657a.5.5 0 010 .707l-1.414 1.414a.5.5 0 01-.707-.707l1.414-1.414a.5.5 0 01.707 0zm-9.193 9.193a.5.5 0 010 .707L5.05 15.657a.5.5 0 01-.707-.707l1.414-1.414a.5.5 0 01.707 0zm9.193 2.121a.5.5 0 01-.707 0l-1.414-1.414a.5.5 0 01.707-.707l1.414 1.414a.5.5 0 010 .707zM6.464 6.464a.5.5 0 01-.707 0L4.343 5.05a.5.5 0 01.707-.707l1.414 1.414a.5.5 0 010 .707z" clip-rule="evenodd"/>
</svg>