<svg class="bi bi-building" width="1em" height="1em" viewBox="0 0 20 20" fill="currentColor" xmlns="http://www.w3.org/2000/svg">
  <path fill-rule="evenodd" d="M17.285 2.089a.5.5 0 01.215.411v15a.5.5 0 01-.5.5h-3a.5.5 0 01-.5-.5V16h-1v1.5a.5.5 0 01-.5.5H3a.5.5 0 01-.5-.5v-6a.5.5 0 01.418-.493l5.582-.93V5.5a.5.5 0 01.324-.468l8-3a.5.5 0 01.46.057zM9.5 5.846V10.5a.5.5 0 01-.418.493l-5.582.93V17h8v-1.5a.5.5 0 01.5-.5h2a.5.5 0 01.5.5V17h2V3.221l-7 2.625z" clip-rule="evenodd"/>
  <path fill-rule="evenodd" d="M8.5 17.5v-7h1v7h-1z" clip-rule="evenodd"/>
  <path d="M4.5 13h1v1h-1v-1zm2 0h1v1h-1v-1zm-2 2h1v1h-1v-1zm2 0h1v1h-1v-1zm6-10h1v1h-1V5zm2 0h1v1h-1V5zm-4 2h1v1h-1V7zm2 0h1v1h-1V7zm2 0h1v1h-1V7zm-2 2h1v1h-1V9zm2 0h1v1h-1V9zm-4 0h1v1h-1V9zm0 2h1v1h-1v-1zm2 0h1v1h-1v-1zm2 0h1v1h-1v-1zm-4 2h1v1h-1v-1zm2 0h1v1h-1v-1zm2 0h1v1h-1v-1z"/>
</svg>