<svg class="bi bi-calendar-fill" width="1em" height="1em" viewBox="0 0 20 20" fill="currentColor" xmlns="http://www.w3.org/2000/svg">
  <path d="M2 4a2 2 0 012-2h12a2 2 0 012 2H2z"/>
  <path fill-rule="evenodd" d="M2 5h16v11a2 2 0 01-2 2H4a2 2 0 01-2-2V5zm6.5 4a1 1 0 100-2 1 1 0 000 2zm4-1a1 1 0 11-2 0 1 1 0 012 0zm2 1a1 1 0 100-2 1 1 0 000 2zm-8 2a1 1 0 11-2 0 1 1 0 012 0zm2 1a1 1 0 100-2 1 1 0 000 2zm4-1a1 1 0 11-2 0 1 1 0 012 0zm2 1a1 1 0 100-2 1 1 0 000 2zm-8 2a1 1 0 11-2 0 1 1 0 012 0zm2 1a1 1 0 100-2 1 1 0 000 2zm4-1a1 1 0 11-2 0 1 1 0 012 0z" clip-rule="evenodd"/>
</svg>