<svg class="bi bi-camera" width="1em" height="1em" viewBox="0 0 20 20" fill="currentColor" xmlns="http://www.w3.org/2000/svg">
  <path d="M11 7c-1.657 0-4 1.343-4 3a4 4 0 014-4v1z"/>
  <path fill-rule="evenodd" d="M16.333 5h-2.015A5.97 5.97 0 0011 4a5.972 5.972 0 00-3.318 1H3.667C2.747 5 2 5.746 2 6.667v6.666C2 14.253 2.746 15 3.667 15h4.015c.95.632 2.091 1 3.318 1a5.973 5.973 0 003.318-1h2.015c.92 0 1.667-.746 1.667-1.667V6.667C18 5.747 17.254 5 16.333 5zM3.5 7a.5.5 0 100-1 .5.5 0 000 1zm7.5 8a5 5 0 100-10 5 5 0 000 10z" clip-rule="evenodd"/>
  <path d="M4 5a1 1 0 011-1h1a1 1 0 010 2H5a1 1 0 01-1-1z"/>
</svg>