<svg class="bi bi-camera-video" width="1em" height="1em" viewBox="0 0 20 20" fill="currentColor" xmlns="http://www.w3.org/2000/svg">
  <path fill-rule="evenodd" d="M4.667 5.5c-.645 0-1.167.522-1.167 1.167v6.666c0 .645.522 1.167 1.167 1.167h6.666c.645 0 1.167-.522 1.167-1.167V6.667c0-.645-.522-1.167-1.167-1.167H4.667zM2.5 6.667C2.5 5.47 3.47 4.5 4.667 4.5h6.666c1.197 0 2.167.97 2.167 2.167v6.666c0 1.197-.97 2.167-2.167 2.167H4.667A2.167 2.167 0 012.5 13.333V6.667z" clip-rule="evenodd"/>
  <path fill-rule="evenodd" d="M13.25 7.65l2.768-1.605a.318.318 0 01.482.263v7.384c0 .228-.26.393-.482.264l-2.767-1.605-.502.865 2.767 1.605c.859.498 1.984-.095 1.984-1.129V6.308c0-1.033-1.125-1.626-1.984-1.128L12.75 6.785l.502.865z" clip-rule="evenodd"/>
</svg>