<svg class="bi bi-capslock" width="1em" height="1em" viewBox="0 0 20 20" fill="currentColor" xmlns="http://www.w3.org/2000/svg">
  <path fill-rule="evenodd" d="M9.27 3.047a1 1 0 011.46 0l6.345 6.77c.6.638.146 1.683-.73 1.683H13.5v1a1 1 0 01-1 1h-5a1 1 0 01-1-1v-1H3.654c-.875 0-1.328-1.045-.73-1.684L9.27 3.047zm7.076 7.453L10 3.731 3.654 10.5H6.5a1 1 0 011 1v1h5v-1a1 1 0 011-1h2.846zm-9.846 5a1 1 0 011-1h5a1 1 0 011 1v1a1 1 0 01-1 1h-5a1 1 0 01-1-1v-1zm6 0h-5v1h5v-1z" clip-rule="evenodd"/>
</svg>