<svg class="bi bi-check-box" width="1em" height="1em" viewBox="0 0 20 20" fill="currentColor" xmlns="http://www.w3.org/2000/svg">
  <path fill-rule="evenodd" d="M17.354 4.646a.5.5 0 010 .708l-7 7a.5.5 0 01-.708 0l-3-3a.5.5 0 11.708-.708L10 11.293l6.646-6.647a.5.5 0 01.708 0z" clip-rule="evenodd"/>
  <path fill-rule="evenodd" d="M3.5 15A1.5 1.5 0 005 16.5h10a1.5 1.5 0 001.5-1.5v-5a.5.5 0 00-1 0v5a.5.5 0 01-.5.5H5a.5.5 0 01-.5-.5V5a.5.5 0 01.5-.5h8a.5.5 0 000-1H5A1.5 1.5 0 003.5 5v10z" clip-rule="evenodd"/>
</svg>