<svg class="bi bi-cloud-upload" width="1em" height="1em" viewBox="0 0 20 20" fill="currentColor" xmlns="http://www.w3.org/2000/svg">
  <path d="M6.887 8.2l-.964-.165A2.5 2.5 0 105.5 13H8v1H5.5a3.5 3.5 0 11.59-6.95 5.002 5.002 0 119.804 1.98A2.501 2.501 0 0115.5 14H12v-1h3.5a1.5 1.5 0 00.237-2.982L14.7 9.854l.216-1.028a4 4 0 10-7.843-1.587l-.185.96z"/>
  <path fill-rule="evenodd" d="M7 10.854a.5.5 0 00.707 0L10 8.56l2.293 2.293a.5.5 0 00.707-.707L10.354 7.5a.5.5 0 00-.708 0L7 10.146a.5.5 0 000 .708z" clip-rule="evenodd"/>
  <path fill-rule="evenodd" d="M10 8a.5.5 0 01.5.5v8a.5.5 0 01-1 0v-8A.5.5 0 0110 8z" clip-rule="evenodd"/>
</svg>