<svg class="bi bi-code-slash" width="1em" height="1em" viewBox="0 0 20 20" fill="currentColor" xmlns="http://www.w3.org/2000/svg">
  <path fill-rule="evenodd" d="M6.854 6.146a.5.5 0 010 .708L3.707 10l3.147 3.146a.5.5 0 01-.708.708l-3.5-3.5a.5.5 0 010-.708l3.5-3.5a.5.5 0 01.708 0zm6.292 0a.5.5 0 000 .708L16.293 10l-3.147 3.146a.5.5 0 00.708.708l3.5-3.5a.5.5 0 000-.708l-3.5-3.5a.5.5 0 00-.708 0zm-.999-3.124a.5.5 0 01.33.625l-4 13a.5.5 0 11-.955-.294l4-13a.5.5 0 01.625-.33z" clip-rule="evenodd"/>
</svg>