<svg class="bi bi-columns-gutters" width="1em" height="1em" viewBox="0 0 20 20" fill="currentColor" xmlns="http://www.w3.org/2000/svg">
  <path fill-rule="evenodd" d="M8 3H3v3h5V3zM3 2a1 1 0 00-1 1v3a1 1 0 001 1h5a1 1 0 001-1V3a1 1 0 00-1-1H3zm14 12h-5v3h5v-3zm-5-1a1 1 0 00-1 1v3a1 1 0 001 1h5a1 1 0 001-1v-3a1 1 0 00-1-1h-5zm-4-3H3v7h5v-7zM3 9a1 1 0 00-1 1v7a1 1 0 001 1h5a1 1 0 001-1v-7a1 1 0 00-1-1H3zm14-6h-5v7h5V3zm-5-1a1 1 0 00-1 1v7a1 1 0 001 1h5a1 1 0 001-1V3a1 1 0 00-1-1h-5z" clip-rule="evenodd"/>
</svg>