<svg class="bi bi-display" width="1em" height="1em" viewBox="0 0 20 20" fill="currentColor" xmlns="http://www.w3.org/2000/svg">
  <path d="M7.75 15.5c.167-.333.25-.833.25-1.5h4c0 .667.083 1.167.25 1.5H13a.5.5 0 010 1H7a.5.5 0 010-1h.75z"/>
  <path fill-rule="evenodd" d="M15.991 5H4c-.325 0-.502.078-.602.145a.758.758 0 00-.254.302A1.46 1.46 0 003 6.01V12c0 .325.078.502.145.602.07.105.17.188.302.254a1.464 1.464 0 00.538.143L4.01 13H16c.325 0 .502-.078.602-.145a.758.758 0 00.254-.302 1.464 1.464 0 00.143-.538L17 11.99V6c0-.325-.078-.502-.145-.602a.757.757 0 00-.302-.254A1.46 1.46 0 0015.99 5zM16 4H4C2 4 2 6 2 6v6c0 2 2 2 2 2h12c2 0 2-2 2-2V6c0-2-2-2-2-2z" clip-rule="evenodd"/>
</svg>