<svg class="bi bi-document-diff" width="1em" height="1em" viewBox="0 0 20 20" fill="currentColor" xmlns="http://www.w3.org/2000/svg">
  <path fill-rule="evenodd" d="M6 3h8a2 2 0 012 2v10a2 2 0 01-2 2H6a2 2 0 01-2-2V5a2 2 0 012-2zm0 1a1 1 0 00-1 1v10a1 1 0 001 1h8a1 1 0 001-1V5a1 1 0 00-1-1H6z" clip-rule="evenodd"/>
  <path fill-rule="evenodd" d="M7.5 13a.5.5 0 01.5-.5h4a.5.5 0 010 1H8a.5.5 0 01-.5-.5zM10 6.5a.5.5 0 01.5.5v4a.5.5 0 01-1 0V7a.5.5 0 01.5-.5z" clip-rule="evenodd"/>
  <path fill-rule="evenodd" d="M7.5 9a.5.5 0 01.5-.5h4a.5.5 0 010 1H8a.5.5 0 01-.5-.5z" clip-rule="evenodd"/>
</svg>