<svg class="bi bi-document-code" width="1em" height="1em" viewBox="0 0 20 20" fill="currentColor" xmlns="http://www.w3.org/2000/svg">
  <path fill-rule="evenodd" d="M6 3h8a2 2 0 012 2v10a2 2 0 01-2 2H6a2 2 0 01-2-2V5a2 2 0 012-2zm0 1a1 1 0 00-1 1v10a1 1 0 001 1h8a1 1 0 001-1V5a1 1 0 00-1-1H6z" clip-rule="evenodd"/>
  <path fill-rule="evenodd" d="M10.646 7.646a.5.5 0 01.708 0l2 2a.5.5 0 010 .708l-2 2a.5.5 0 01-.708-.708L12.293 10l-1.647-1.646a.5.5 0 010-.708zm-1.292 0a.5.5 0 00-.708 0l-2 2a.5.5 0 000 .708l2 2a.5.5 0 00.708-.708L7.707 10l1.647-1.646a.5.5 0 000-.708z" clip-rule="evenodd"/>
</svg>