<svg class="bi bi-egg-fried" width="1em" height="1em" viewBox="0 0 20 20" fill="currentColor" xmlns="http://www.w3.org/2000/svg">
  <path fill-rule="evenodd" d="M15.665 8.113a1 1 0 01-.667-.977L15 7a4 4 0 00-6.483-3.136 1 1 0 01-.8.2 4 4 0 00-3.693 6.61 1 1 0 01.2 1 4 4 0 006.67 4.087 1 1 0 011.262-.152 2.5 2.5 0 003.715-2.905 1 1 0 01.341-1.113 2.001 2.001 0 00-.547-3.478zM16 7c0 .057 0 .113-.003.17a3.001 3.001 0 01.822 5.216 3.5 3.5 0 01-5.201 4.065 5 5 0 01-8.336-5.109A5 5 0 017.896 3.08 5 5 0 0116 7z" clip-rule="evenodd"/>
  <circle cx="10" cy="10" r="3"/>
</svg>