<svg class="bi bi-envelope-open-fill" width="1em" height="1em" viewBox="0 0 20 20" fill="currentColor" xmlns="http://www.w3.org/2000/svg">
  <path fill-rule="evenodd" d="M10.941 2.435a2 2 0 00-1.882 0l-6 3.2A2 2 0 002 7.4v.125l8 4.889 8-4.889V7.4a2 2 0 00-1.059-1.765l-6-3.2zM18 8.697l-5.875 3.59L18 15.743V8.697zm-.168 8.108l-6.586-3.874-.088-.052-.897.548-.261.159-.26-.16-.897-.547-.09.052-6.585 3.874A2 2 0 004 18h12a2 2 0 001.832-1.195zM2 15.743l5.875-3.456L2 8.697v7.046z" clip-rule="evenodd"/>
</svg>