<svg class="bi bi-eye" width="1em" height="1em" viewBox="0 0 20 20" fill="currentColor" xmlns="http://www.w3.org/2000/svg">
  <path fill-rule="evenodd" d="M18 10s-3-5.5-8-5.5S2 10 2 10s3 5.5 8 5.5 8-5.5 8-5.5zM3.173 10a13.133 13.133 0 001.66 2.043C6.12 13.332 7.88 14.5 10 14.5c2.12 0 3.879-1.168 5.168-2.457A13.133 13.133 0 0016.828 10a13.133 13.133 0 00-1.66-2.043C13.879 6.668 12.119 5.5 10 5.5c-2.12 0-3.879 1.168-5.168 2.457A13.133 13.133 0 003.172 10z" clip-rule="evenodd"/>
  <path fill-rule="evenodd" d="M10 7.5a2.5 2.5 0 100 5 2.5 2.5 0 000-5zM6.5 10a3.5 3.5 0 117 0 3.5 3.5 0 01-7 0z" clip-rule="evenodd"/>
</svg>