<svg class="bi bi-folder-symlink-fill" width="1em" height="1em" viewBox="0 0 20 20" fill="currentColor" xmlns="http://www.w3.org/2000/svg">
  <path fill-rule="evenodd" d="M15.81 5h-3.982a2 2 0 01-1.414-.586l-.828-.828A2 2 0 008.172 3H4.5a2 2 0 00-2 2l.04.87a1.99 1.99 0 00-.342 1.311l.637 7A2 2 0 004.826 16h10.348a2 2 0 001.991-1.819l.637-7A2 2 0 0015.81 5zM4.19 5c-.24 0-.47.042-.684.12L3.5 4.98a1 1 0 011-.98h3.672a1 1 0 01.707.293L9.586 5H4.19zm9.608 5.271l-3.182 1.97c-.27.166-.616-.036-.616-.372V11.1s-2.571-.3-4 2.4c.571-4.8 3.143-4.8 4-4.8v-.769c0-.336.346-.538.616-.371l3.182 1.969c.27.166.27.576 0 .742z" clip-rule="evenodd"/>
</svg>