<svg class="bi bi-grid" width="1em" height="1em" viewBox="0 0 20 20" fill="currentColor" xmlns="http://www.w3.org/2000/svg">
  <path fill-rule="evenodd" d="M9.5 4.5a1 1 0 00-1-1h-4a1 1 0 00-1 1v4a1 1 0 001 1h4a1 1 0 001-1v-4zm-1 7h-4v4h4v-4zm7 0h-4v4h4v-4zm0-7h-4v4h4v-4zm-7 0h-4v4h4v-4zm2 0a1 1 0 011-1h4a1 1 0 011 1v4a1 1 0 01-1 1h-4a1 1 0 01-1-1v-4zm-6 6a1 1 0 00-1 1v4a1 1 0 001 1h4a1 1 0 001-1v-4a1 1 0 00-1-1h-4zm7 0a1 1 0 00-1 1v4a1 1 0 001 1h4a1 1 0 001-1v-4a1 1 0 00-1-1h-4z" clip-rule="evenodd"/>
</svg>