<svg class="bi bi-image" width="1em" height="1em" viewBox="0 0 20 20" fill="currentColor" xmlns="http://www.w3.org/2000/svg">
  <path fill-rule="evenodd" d="M16.002 4h-12a1 1 0 00-1 1v10a1 1 0 001 1h12a1 1 0 001-1V5a1 1 0 00-1-1zm-12-1a2 2 0 00-2 2v10a2 2 0 002 2h12a2 2 0 002-2V5a2 2 0 00-2-2h-12z" clip-rule="evenodd"/>
  <path d="M12.648 9.646a.5.5 0 01.577-.093l3.777 1.947V16h-14v-2l2.646-2.354a.5.5 0 01.63-.062l2.66 1.773 3.71-3.71z"/>
  <path fill-rule="evenodd" d="M6.502 9a1.5 1.5 0 100-3 1.5 1.5 0 000 3z" clip-rule="evenodd"/>
</svg>