<svg class="bi bi-inboxes" width="1em" height="1em" viewBox="0 0 20 20" fill="currentColor" xmlns="http://www.w3.org/2000/svg">
  <path fill-rule="evenodd" d="M2.125 13.17A.5.5 0 012.5 13H8a.5.5 0 01.5.5 1.5 1.5 0 003 0 .5.5 0 01.5-.5h5.5a.5.5 0 01.496.562l-.39 3.124A1.5 1.5 0 0116.117 18H3.883a1.5 1.5 0 01-1.489-1.314l-.39-3.124a.5.5 0 01.121-.393zm.941.83l.32 2.562a.5.5 0 00.497.438h12.234a.5.5 0 00.496-.438l.32-2.562H12.45a2.5 2.5 0 01-4.9 0H3.066zM5.81 2.563A1.5 1.5 0 016.98 2h6.04a1.5 1.5 0 011.17.563l3.7 4.625a.5.5 0 11-.78.624l-3.7-4.624A.5.5 0 0013.02 3H6.98a.5.5 0 00-.39.188l-3.7 4.624a.5.5 0 11-.78-.624l3.7-4.625z" clip-rule="evenodd"/>
  <path fill-rule="evenodd" d="M2.125 7.17A.5.5 0 012.5 7H8a.5.5 0 01.5.5 1.5 1.5 0 003 0A.5.5 0 0112 7h5.5a.5.5 0 01.496.562l-.39 3.124A1.5 1.5 0 0116.117 12H3.883a1.5 1.5 0 01-1.489-1.314l-.39-3.124a.5.5 0 01.121-.393zm.941.83l.32 2.562a.5.5 0 00.497.438h12.234a.5.5 0 00.496-.438L16.933 8H12.45a2.5 2.5 0 01-4.9 0H3.066z" clip-rule="evenodd"/>
</svg>