<svg class="bi bi-inbox" width="1em" height="1em" viewBox="0 0 20 20" fill="currentColor" xmlns="http://www.w3.org/2000/svg">
  <path fill-rule="evenodd" d="M5.81 6.063A1.5 1.5 0 016.98 5.5h6.04a1.5 1.5 0 011.17.563l3.7 4.625a.5.5 0 11-.78.624l-3.7-4.624a.5.5 0 00-.39-.188H6.98a.5.5 0 00-.39.188l-3.7 4.624a.5.5 0 11-.78-.624l3.7-4.625z" clip-rule="evenodd"/>
  <path fill-rule="evenodd" d="M2.125 10.67a.5.5 0 01.375-.17H8a.5.5 0 01.5.5 1.5 1.5 0 003 0 .5.5 0 01.5-.5h5.5a.5.5 0 01.496.562l-.39 3.124a1.5 1.5 0 01-1.489 1.314H3.883a1.5 1.5 0 01-1.489-1.314l-.39-3.124a.5.5 0 01.121-.393zm.941.83l.32 2.562a.5.5 0 00.497.438h12.234a.5.5 0 00.496-.438l.32-2.562H12.45a2.5 2.5 0 01-4.9 0H3.066z" clip-rule="evenodd"/>
</svg>