<svg class="bi bi-info-square-fill" width="1em" height="1em" viewBox="0 0 20 20" fill="currentColor" xmlns="http://www.w3.org/2000/svg">
  <path fill-rule="evenodd" d="M2 4a2 2 0 012-2h12a2 2 0 012 2v12a2 2 0 01-2 2H4a2 2 0 01-2-2V4zm8.93 4.588l-2.29.287-.082.38.45.083c.294.07.352.176.288.469l-.738 3.468c-.194.897.105 1.319.808 1.319.545 0 1.178-.252 1.465-.598l.088-.416c-.2.176-.492.246-.686.246-.275 0-.375-.193-.304-.533l1.002-4.705zM10 7.5a1 1 0 100-2 1 1 0 000 2z" clip-rule="evenodd"/>
</svg>