<svg class="bi bi-lock" width="1em" height="1em" viewBox="0 0 20 20" fill="currentColor" xmlns="http://www.w3.org/2000/svg">
  <path fill-rule="evenodd" d="M13.655 9H6.333c-.264 0-.398.068-.471.121a.73.73 0 00-.224.296 1.626 1.626 0 00-.138.59V15c0 .342.076.531.14.635.064.106.151.18.256.237a1.122 1.122 0 00.436.127l.013.001h7.322c.264 0 .398-.068.471-.121a.73.73 0 00.224-.296 1.627 1.627 0 00.138-.59V10c0-.342-.076-.531-.14-.635a.658.658 0 00-.255-.237 1.123 1.123 0 00-.45-.128zm.012-1H6.333C4.5 8 4.5 10 4.5 10v5c0 2 1.833 2 1.833 2h7.334c1.833 0 1.833-2 1.833-2v-5c0-2-1.833-2-1.833-2zM6.5 5a3.5 3.5 0 117 0v3h-1V5a2.5 2.5 0 00-5 0v3h-1V5z" clip-rule="evenodd"/>
</svg>