<svg class="bi bi-music-player" width="1em" height="1em" viewBox="0 0 20 20" fill="currentColor" xmlns="http://www.w3.org/2000/svg">
  <path fill-rule="evenodd" d="M14 3H6a1 1 0 00-1 1v12a1 1 0 001 1h8a1 1 0 001-1V4a1 1 0 00-1-1zM6 2a2 2 0 00-2 2v12a2 2 0 002 2h8a2 2 0 002-2V4a2 2 0 00-2-2H6z" clip-rule="evenodd"/>
  <path fill-rule="evenodd" d="M13 5H7v3h6V5zM7 4a1 1 0 00-1 1v3a1 1 0 001 1h6a1 1 0 001-1V5a1 1 0 00-1-1H7zm3 11a2 2 0 100-4 2 2 0 000 4zm3-2a3 3 0 11-6 0 3 3 0 016 0z" clip-rule="evenodd"/>
  <circle cx="10" cy="13" r="1"/>
</svg>