<svg class="bi bi-outlet" width="1em" height="1em" viewBox="0 0 20 20" fill="currentColor" xmlns="http://www.w3.org/2000/svg">
  <path fill-rule="evenodd" d="M5.34 4.994c.275-.338.68-.494 1.074-.494h7.172c.393 0 .798.156 1.074.494.578.708 1.84 2.534 1.84 5.006 0 2.472-1.262 4.297-1.84 5.006-.276.338-.68.494-1.074.494H6.414c-.394 0-.799-.156-1.074-.494C4.762 14.297 3.5 12.472 3.5 10c0-2.472 1.262-4.298 1.84-5.006zm1.074.506a.376.376 0 00-.299.126C5.599 6.259 4.5 7.863 4.5 10c0 2.137 1.099 3.74 1.615 4.374.06.073.163.126.3.126h7.17c.137 0 .24-.053.3-.126.516-.633 1.615-2.237 1.615-4.374 0-2.137-1.099-3.74-1.615-4.374a.376.376 0 00-.3-.126h-7.17z" clip-rule="evenodd"/>
  <path fill-rule="evenodd" d="M8 7.5a.5.5 0 01.5.5v1.5a.5.5 0 01-1 0V8a.5.5 0 01.5-.5zm4 0a.5.5 0 01.5.5v1.5a.5.5 0 01-1 0V8a.5.5 0 01.5-.5z" clip-rule="evenodd"/>
  <path d="M9 12v1h2v-1a1 1 0 10-2 0z"/>
</svg>