<svg class="bi bi-plug" width="1em" height="1em" viewBox="0 0 20 20" fill="currentColor" xmlns="http://www.w3.org/2000/svg">
  <path d="M6 7h8v3a4 4 0 01-8 0V7z"/>
  <path fill-rule="evenodd" d="M8 3.5a.5.5 0 01.5.5v3a.5.5 0 01-1 0V4a.5.5 0 01.5-.5zm4 0a.5.5 0 01.5.5v3a.5.5 0 01-1 0V4a.5.5 0 01.5-.5zM9.115 15.651c.256-.511.385-1.408.385-2.651h1c0 1.257-.121 2.36-.49 3.099-.191.381-.47.707-.87.877-.401.17-.845.15-1.298-.002-.961-.32-1.534-.175-1.851.046-.33.23-.491.615-.491.98h-1c0-.635.278-1.353.918-1.8.653-.456 1.58-.561 2.74-.174.297.099.478.078.592.03.115-.05.244-.161.365-.405z" clip-rule="evenodd"/>
</svg>