<svg class="bi bi-question" width="1em" height="1em" viewBox="0 0 20 20" fill="currentColor" xmlns="http://www.w3.org/2000/svg">
  <path fill-rule="evenodd" d="M10 17a7 7 0 100-14 7 7 0 000 14zm8-7a8 8 0 11-16 0 8 8 0 0116 0z" clip-rule="evenodd"/>
  <path d="M7.25 8.033h1.32c0-.781.458-1.384 1.36-1.384.685 0 1.313.343 1.313 1.168 0 .635-.374.927-.965 1.371-.673.489-1.206 1.06-1.168 1.987l.007.463h1.307v-.355c0-.718.273-.927 1.01-1.486.609-.463 1.244-.977 1.244-2.056 0-1.511-1.276-2.241-2.673-2.241-1.326 0-2.786.647-2.754 2.533zm1.562 5.516c0 .533.425.927 1.01.927.609 0 1.028-.394 1.028-.927 0-.552-.42-.94-1.029-.94-.584 0-1.009.388-1.009.94z"/>
</svg>