<svg class="bi bi-shield-shaded" width="1em" height="1em" viewBox="0 0 20 20" fill="currentColor" xmlns="http://www.w3.org/2000/svg">
  <path fill-rule="evenodd" d="M7.443 3.991a60.17 60.17 0 00-2.725.802.454.454 0 00-.315.366C3.87 9.056 5.1 11.9 6.567 13.773c.736.94 1.533 1.636 2.197 2.093.333.228.626.394.857.5.116.053.21.089.282.11A.73.73 0 0010 16.5a.774.774 0 00.097-.023c.072-.022.166-.058.282-.111a5.94 5.94 0 00.857-.5 10.198 10.198 0 002.197-2.093C14.9 11.9 16.13 9.056 15.597 5.159a.454.454 0 00-.315-.366c-.626-.2-1.682-.526-2.725-.802C11.491 3.71 10.51 3.5 10 3.5c-.51 0-1.49.21-2.557.491zm-.256-.966C8.23 2.749 9.337 2.5 10 2.5c.662 0 1.77.249 2.813.525 1.066.282 2.14.614 2.772.815.528.168.926.623 1.003 1.184.573 4.197-.756 7.307-2.367 9.365a11.192 11.192 0 01-2.418 2.3 6.942 6.942 0 01-1.007.586c-.27.124-.558.225-.796.225s-.526-.101-.796-.225a6.908 6.908 0 01-1.007-.586 11.192 11.192 0 01-2.418-2.3c-1.611-2.058-2.94-5.168-2.367-9.365A1.454 1.454 0 014.415 3.84a61.105 61.105 0 012.772-.815z" clip-rule="evenodd"/>
  <path d="M10 4.25c.909 0 3.188.685 4.254 1.022a.94.94 0 01.656.773c.814 6.424-4.13 9.452-4.91 9.452V4.25z"/>
</svg>