<svg class="bi bi-star-half" width="1em" height="1em" viewBox="0 0 20 20" fill="currentColor" xmlns="http://www.w3.org/2000/svg">
  <path fill-rule="evenodd" d="M7.354 7.119l2.184-4.327A.516.516 0 0110 2.5c.183 0 .366.097.465.292l2.184 4.327 4.898.696A.537.537 0 0118 8.32a.55.55 0 01-.17.445l-3.523 3.356.83 4.73c.078.443-.36.79-.746.592L10 15.187l-4.389 2.256a.52.52 0 01-.146.05c-.341.06-.668-.254-.6-.642l.83-4.73-3.522-3.356a.55.55 0 01-.172-.403.59.59 0 01.084-.302.513.513 0 01.37-.245l4.898-.696zM10 14.027c.08 0 .16.018.232.056l3.686 1.894-.694-3.957a.564.564 0 01.163-.505l2.907-2.77-4.053-.576a.525.525 0 01-.393-.288l-1.847-3.658-.001.003v9.8z" clip-rule="evenodd"/>
</svg>