<svg class="bi bi-table" width="1em" height="1em" viewBox="0 0 20 20" fill="currentColor" xmlns="http://www.w3.org/2000/svg">
  <path fill-rule="evenodd" d="M16 3H4a1 1 0 00-1 1v12a1 1 0 001 1h12a1 1 0 001-1V4a1 1 0 00-1-1zM4 2a2 2 0 00-2 2v12a2 2 0 002 2h12a2 2 0 002-2V4a2 2 0 00-2-2H4z" clip-rule="evenodd"/>
  <path fill-rule="evenodd" d="M17 6H3V5h14v1z" clip-rule="evenodd"/>
  <path fill-rule="evenodd" d="M7 17.5v-14h1v14H7zm5 0v-14h1v14h-1z" clip-rule="evenodd"/>
  <path fill-rule="evenodd" d="M17 10H3V9h14v1zm0 4H3v-1h14v1z" clip-rule="evenodd"/>
  <path d="M2 4a2 2 0 012-2h12a2 2 0 012 2v2H2V4z"/>
</svg>