<svg class="bi bi-terminal" width="1em" height="1em" viewBox="0 0 20 20" fill="currentColor" xmlns="http://www.w3.org/2000/svg">
  <path fill-rule="evenodd" d="M16 4H4a1 1 0 00-1 1v10a1 1 0 001 1h12a1 1 0 001-1V5a1 1 0 00-1-1zM4 3a2 2 0 00-2 2v10a2 2 0 002 2h12a2 2 0 002-2V5a2 2 0 00-2-2H4z" clip-rule="evenodd"/>
  <path fill-rule="evenodd" d="M8 11a.5.5 0 01.5-.5h3a.5.5 0 010 1h-3A.5.5 0 018 11zM5.146 6.146a.5.5 0 01.708 0l2 2a.5.5 0 010 .708l-2 2a.5.5 0 01-.708-.708L6.793 8.5 5.146 6.854a.5.5 0 010-.708z" clip-rule="evenodd"/>
</svg>