<svg class="bi bi-text-indent-right" width="1em" height="1em" viewBox="0 0 20 20" fill="currentColor" xmlns="http://www.w3.org/2000/svg">
  <path fill-rule="evenodd" d="M4 5.5a.5.5 0 01.5-.5h11a.5.5 0 010 1h-11a.5.5 0 01-.5-.5zm10.646 2.146a.5.5 0 01.708.708L13.707 10l1.647 1.646a.5.5 0 01-.708.708l-2-2a.5.5 0 010-.708l2-2zM4 8.5a.5.5 0 01.5-.5h6a.5.5 0 010 1h-6a.5.5 0 01-.5-.5zm0 3a.5.5 0 01.5-.5h6a.5.5 0 010 1h-6a.5.5 0 01-.5-.5zm0 3a.5.5 0 01.5-.5h11a.5.5 0 010 1h-11a.5.5 0 01-.5-.5z" clip-rule="evenodd"/>
</svg>