<svg class="bi bi-triangle" width="1em" height="1em" viewBox="0 0 20 20" fill="currentColor" xmlns="http://www.w3.org/2000/svg">
  <path fill-rule="evenodd" d="M9.938 4.016a.146.146 0 00-.054.057L3.027 15.74a.176.176 0 00-.002.183c.016.03.037.05.054.06.015.01.034.017.066.017h13.713a.12.12 0 00.066-.017.163.163 0 00.055-.06.176.176 0 00-.003-.183L10.12 4.073a.146.146 0 00-.054-.057.13.13 0 00-.063-.016.13.13 0 00-.064.016zm1.043-.45a1.13 1.13 0 00-1.96 0L2.166 15.233c-.457.778.091 1.767.98 1.767h13.713c.889 0 1.438-.99.98-1.767L10.982 3.566z" clip-rule="evenodd"/>
</svg>