<svg class="bi bi-tv" width="1em" height="1em" viewBox="0 0 20 20" fill="currentColor" xmlns="http://www.w3.org/2000/svg">
  <path fill-rule="evenodd" d="M2.216 6H1.5v-.04l.005-.083a2.957 2.957 0 01.298-1.102c.154-.309.394-.633.763-.88C2.94 3.648 3.413 3.5 4 3.5h12.039l.083.005a2.958 2.958 0 011.102.298c.309.154.633.394.88.763.248.373.396.847.396 1.434v6H18h.5v.039l-.005.083a2.957 2.957 0 01-.298 1.102 2.257 2.257 0 01-.763.88c-.373.248-.847.396-1.434.396H3.961l-.083-.005a2.956 2.956 0 01-1.102-.298 2.254 2.254 0 01-.88-.763C1.648 13.06 1.5 12.588 1.5 12V6h.716zm.284.002v-.008l.003-.044a1.959 1.959 0 01.195-.726c.095-.191.23-.367.423-.495.19-.127.466-.229.879-.229h12.006l.044.003a1.958 1.958 0 01.726.195c.191.095.367.23.495.423.127.19.229.466.229.879v6.006l-.003.044a1.959 1.959 0 01-.195.726c-.095.191-.23.367-.423.495-.19.127-.466.229-.879.229H3.994l-.044-.003a1.96 1.96 0 01-.726-.195 1.256 1.256 0 01-.495-.423c-.127-.19-.229-.466-.229-.879V6.002zM4.003 13.5zm.497 2A.5.5 0 015 15h10a.5.5 0 010 1H5a.5.5 0 01-.5-.5z" clip-rule="evenodd"/>
</svg>