<svg class="bi bi-volume-mute" width="1em" height="1em" viewBox="0 0 20 20" fill="currentColor" xmlns="http://www.w3.org/2000/svg">
  <path fill-rule="evenodd" d="M8.717 5.55A.5.5 0 019 6v8a.5.5 0 01-.812.39L5.825 12.5H3.5A.5.5 0 013 12V8a.5.5 0 01.5-.5h2.325l2.363-1.89a.5.5 0 01.529-.06zM8 7.04L6.312 8.39A.5.5 0 016 8.5H4v3h2a.5.5 0 01.312.11L8 12.96V7.04zm7.854.606a.5.5 0 010 .708l-4 4a.5.5 0 01-.708-.708l4-4a.5.5 0 01.708 0z" clip-rule="evenodd"/>
  <path fill-rule="evenodd" d="M11.146 7.646a.5.5 0 000 .708l4 4a.5.5 0 00.708-.708l-4-4a.5.5 0 00-.708 0z" clip-rule="evenodd"/>
</svg>