<svg class="bi bi-x-octagon" width="1em" height="1em" viewBox="0 0 20 20" fill="currentColor" xmlns="http://www.w3.org/2000/svg">
  <path fill-rule="evenodd" d="M6.54 2.146A.5.5 0 016.893 2h6.214a.5.5 0 01.353.146l4.394 4.394a.5.5 0 01.146.353v6.214a.5.5 0 01-.146.353l-4.394 4.394a.5.5 0 01-.353.146H6.893a.5.5 0 01-.353-.146L2.146 13.46A.5.5 0 012 13.107V6.893a.5.5 0 01.146-.353L6.54 2.146zM7.1 3L3 7.1v5.8L7.1 17h5.8l4.1-4.1V7.1L12.9 3H7.1z" clip-rule="evenodd"/>
  <path fill-rule="evenodd" d="M9.293 10L6.646 7.354l.708-.708L10 9.293l2.646-2.647.708.708L10.707 10l2.647 2.646-.707.708L10 10.707l-2.646 2.647-.708-.707L9.293 10z" clip-rule="evenodd"/>
</svg>