<svg class="bi bi-x-square" width="1em" height="1em" viewBox="0 0 20 20" fill="currentColor" xmlns="http://www.w3.org/2000/svg">
  <path fill-rule="evenodd" d="M16 3H4a1 1 0 00-1 1v12a1 1 0 001 1h12a1 1 0 001-1V4a1 1 0 00-1-1zM4 2a2 2 0 00-2 2v12a2 2 0 002 2h12a2 2 0 002-2V4a2 2 0 00-2-2H4z" clip-rule="evenodd"/>
  <path fill-rule="evenodd" d="M9.293 10L6.646 7.354l.708-.708L10 9.293l2.646-2.647.708.708L10.707 10l2.647 2.646-.708.708L10 10.707l-2.646 2.647-.708-.707L9.293 10z" clip-rule="evenodd"/>
</svg>