<svg xmlns="http://www.w3.org/2000/svg" viewBox="0 0 24 24">
    <path d="M23 24c-.3 0-.5-.1-.7-.3l-22-22C-.1 1.3-.1.7.3.3s1-.4 1.4 0l22 22c.4.4.4 1 0 1.4-.2.2-.4.3-.7.3z"/>
    <path d="M21 22H3c-1.7 0-3-1.3-3-3V8c0-1.7 1.3-3 3-3h3c.6 0 1 .4 1 1s-.4 1-1 1H3c-.6 0-1 .4-1 1v11c0 .6.4 1 1 1h18c.6 0 1 .4 1 1s-.4 1-1 1zm2-3.7c-.6 0-1-.4-1-1V8c0-.6-.4-1-1-1h-4c-.3 0-.6-.2-.8-.4L14.5 4H9c-.6 0-1-.4-1-1s.4-1 1-1h6c.3 0 .6.2.8.4L17.5 5H21c1.7 0 3 1.3 3 3v9.3c0 .6-.4 1-1 1zM12 18c-1 0-2-.3-2.8-.9-1.1-.8-1.8-1.9-2.1-3.2-.2-1.3 0-2.6.8-3.7.4-.5.8-1 1.3-1.3.5-.3 1.1-.2 1.4.3.3.5.2 1.1-.3 1.4-.3.2-.6.4-.8.7-.4.7-.6 1.5-.5 2.3.1.8.6 1.5 1.3 1.9.7.5 1.5.6 2.2.5.8-.1 1.5-.6 1.9-1.3.3-.5.9-.6 1.4-.3.5.3.6.9.3 1.4-.8 1.1-1.9 1.8-3.2 2.1-.3.1-.6.1-.9.1z"/>
</svg>
