<svg xmlns="http://www.w3.org/2000/svg" viewBox="0 0 24 24">
    <path d="M5.9 21c-.5 0-.9-.3-1-.8-.3-1.6-1.5-2.8-3.1-3.1-.5-.1-.9-.7-.8-1.2.1-.5.6-.9 1.2-.8 2.4.5 4.2 2.3 4.7 4.7.1.5-.3 1.1-.8 1.2h-.2zm4 0c-.5 0-.9-.4-1-.9-.4-3.7-3.3-6.7-7.1-7.1-.5 0-.9-.5-.8-1.1.1-.5.6-.9 1.1-.9 4.7.5 8.3 4.2 8.8 8.8.1.5-.3 1-.9 1.1 0 .1 0 .1-.1.1zM20 21h-6c-.6 0-1-.4-1-1s.4-1 1-1h6c.6 0 1-.4 1-1V6c0-.6-.4-1-1-1H4c-.6 0-1 .4-1 1v2c0 .6-.4 1-1 1s-1-.4-1-1V6c0-1.7 1.3-3 3-3h16c1.7 0 3 1.3 3 3v12c0 1.7-1.3 3-3 3zM2 21c-.3 0-.5-.1-.7-.3-.2-.2-.3-.4-.3-.7 0-.3.1-.5.3-.7.1-.1.2-.2.3-.2.4-.2.8-.1 1.1.2.2.2.3.4.3.7 0 .3-.1.5-.3.7-.2.2-.4.3-.7.3z"/>
</svg>
