<svg xmlns="http://www.w3.org/2000/svg" viewBox="0 0 24 24">
    <path d="M12 23C5.9 23 1 18.1 1 12S5.9 1 12 1s11 4.9 11 11-4.9 11-11 11zm0-20c-5 0-9 4-9 9s4 9 9 9 9-4 9-9-4-9-9-9z"/>
    <path d="M12 17c-2.8 0-5-2.2-5-5s2.2-5 5-5 5 2.2 5 5-2.2 5-5 5zm0-8c-1.7 0-3 1.3-3 3s1.3 3 3 3 3-1.3 3-3-1.3-3-3-3z"/>
    <path d="M21.2 9H12c-.6 0-1-.4-1-1s.4-1 1-1h9.2c.6 0 1 .4 1 1s-.5 1-1 1zM8.5 15c-.3 0-.7-.2-.9-.5L3.1 6.6c-.3-.5-.1-1.1.3-1.4.5-.3 1.1-.1 1.4.4l4.6 7.9c.3.5.1 1.1-.4 1.4-.1.1-.3.1-.5.1zm2.4 7.9c-.2 0-.3 0-.5-.1-.5-.3-.6-.9-.4-1.4l4.6-7.9c.3-.5.9-.6 1.4-.4.5.3.6.9.4 1.4l-4.6 7.9c-.2.4-.6.5-.9.5z"/>
</svg>
