<svg xmlns="http://www.w3.org/2000/svg" viewBox="0 0 24 24">
    <path d="M12 23c-.2 0-.4-.1-.5-.2l-10-6.5c-.3-.1-.5-.5-.5-.8v-7c0-.3.2-.7.5-.8l10-6.5c.3-.2.8-.2 1.1 0l10 6.5c.2.1.4.5.4.8v7c0 .3-.2.7-.5.8l-10 6.5c-.1.1-.3.2-.5.2zm-9-8l9 5.9 9-5.9V9l-9-5.8L3 9v6z"/>
    <path d="M12 23c-.6 0-1-.4-1-1v-6.5c0-.6.4-1 1-1s1 .4 1 1V22c0 .6-.4 1-1 1z"/>
    <path d="M12 16.5c-.2 0-.4-.1-.6-.2l-10-7C1 9 .9 8.4 1.2 7.9c.3-.5.9-.6 1.4-.2l9.4 6.6 9.4-6.6c.5-.3 1.1-.2 1.4.2.3.5.2 1.1-.2 1.4l-10 7c-.2.1-.4.2-.6.2z"/>
    <path d="M22 16.5c-.2 0-.4-.1-.6-.2L12 9.7l-9.4 6.6c-.5.3-1.1.2-1.4-.2-.3-.5-.2-1.1.2-1.4l10-7c.3-.2.8-.2 1.1 0l10 7c.5.3.6.9.2 1.4-.1.3-.4.4-.7.4z"/>
    <path d="M12 9.5c-.6 0-1-.4-1-1V2c0-.6.4-1 1-1s1 .4 1 1v6.5c0 .6-.4 1-1 1z"/>
</svg>
