<svg xmlns="http://www.w3.org/2000/svg" viewBox="0 0 24 24">
    <path d="M12 23c-.5 0-1-.1-1.5-.4l-7-4C2.6 18.1 2 17.1 2 16V8c0-1.1.6-2.1 1.5-2.6l7-4c.9-.5 2.1-.5 3 0l7 4c.9.5 1.5 1.5 1.5 2.6v8c0 1.1-.6 2.1-1.5 2.6l-7 4c-.5.3-1 .4-1.5.4zm0-20c-.2 0-.3 0-.5.1l-7 4c-.3.2-.5.5-.5.9v8c0 .4.2.7.5.9l7 4c.3.2.7.2 1 0l7-4c.3-.2.5-.5.5-.9V8c0-.4-.2-.7-.5-.9l-7-4c-.2-.1-.3-.1-.5-.1zm9 13z"/>
    <path d="M12 7.8c-.2 0-.3 0-.5-.1L7 5.1c-.5-.3-.6-.9-.4-1.4.3-.5.9-.6 1.4-.4l4 2.3 4-2.3c.5-.3 1.1-.1 1.4.4.3.5.1 1.1-.4 1.4l-4.5 2.6c-.2.1-.3.1-.5.1zm-4.5 13c-.6 0-1-.4-1-1v-4.6l-4-2.3c-.5-.3-.6-.9-.4-1.4.3-.5.9-.6 1.4-.4L8 13.7c.3.2.5.5.5.9v5.2c0 .5-.4 1-1 1zm9 0c-.6 0-1-.4-1-1v-5.2c0-.4.2-.7.5-.9l4.5-2.6c.5-.3 1.1-.1 1.4.4.3.5.1 1.1-.4 1.4l-4 2.3v4.6c0 .5-.4 1-1 1z"/>
    <path d="M12 13c-.2 0-.3 0-.5-.1L2.8 7.8c-.5-.3-.7-.9-.4-1.3.3-.5.9-.7 1.4-.4l8.2 4.8 8.2-4.8c.5-.3 1.1-.1 1.4.4.3.5.1 1.1-.4 1.4L12.5 13H12z"/>
    <path d="M12 23.1c-.6 0-1-.4-1-1V12c0-.6.4-1 1-1s1 .4 1 1v10.1c0 .5-.4 1-1 1z"/>
</svg>
