<svg xmlns="http://www.w3.org/2000/svg" viewBox="0 0 24 24">
    <path d="M18 21H6c-1.7 0-3-1.3-3-3V6c0-1.7 1.3-3 3-3h12c1.7 0 3 1.3 3 3v12c0 1.7-1.3 3-3 3zM6 5c-.6 0-1 .4-1 1v12c0 .6.4 1 1 1h12c.6 0 1-.4 1-1V6c0-.6-.4-1-1-1H6z"/>
    <path d="M15 16H9c-.6 0-1-.4-1-1V9c0-.6.4-1 1-1h6c.6 0 1 .4 1 1v6c0 .6-.4 1-1 1zm-5-2h4v-4h-4v4zM9 5c-.6 0-1-.4-1-1V1c0-.6.4-1 1-1s1 .4 1 1v3c0 .6-.4 1-1 1zm6 0c-.6 0-1-.4-1-1V1c0-.6.4-1 1-1s1 .4 1 1v3c0 .6-.4 1-1 1zM9 24c-.6 0-1-.4-1-1v-3c0-.6.4-1 1-1s1 .4 1 1v3c0 .6-.4 1-1 1zm6 0c-.6 0-1-.4-1-1v-3c0-.6.4-1 1-1s1 .4 1 1v3c0 .6-.4 1-1 1zm8-14h-3c-.6 0-1-.4-1-1s.4-1 1-1h3c.6 0 1 .4 1 1s-.4 1-1 1zm0 5h-3c-.6 0-1-.4-1-1s.4-1 1-1h3c.6 0 1 .4 1 1s-.4 1-1 1zM4 10H1c-.6 0-1-.4-1-1s.4-1 1-1h3c.6 0 1 .4 1 1s-.4 1-1 1zm0 5H1c-.6 0-1-.4-1-1s.4-1 1-1h3c.6 0 1 .4 1 1s-.4 1-1 1z"/>
</svg>
