<svg xmlns="http://www.w3.org/2000/svg" viewBox="0 0 24 24">
    <path d="M18 23H6c-1.7 0-3-1.3-3-3V4c0-1.7 1.3-3 3-3h8c.3 0 .5.1.7.3l6 6c.2.2.3.4.3.7v12c0 1.7-1.3 3-3 3zM6 3c-.6 0-1 .4-1 1v16c0 .6.4 1 1 1h12c.6 0 1-.4 1-1V8.4L13.6 3H6z"/>
    <path d="M20 9h-6c-.6 0-1-.4-1-1V2c0-.6.4-1 1-1s1 .4 1 1v5h5c.6 0 1 .4 1 1s-.4 1-1 1zm-4 5H8c-.6 0-1-.4-1-1s.4-1 1-1h8c.6 0 1 .4 1 1s-.4 1-1 1zm0 4H8c-.6 0-1-.4-1-1s.4-1 1-1h8c.6 0 1 .4 1 1s-.4 1-1 1zm-6-8H8c-.6 0-1-.4-1-1s.4-1 1-1h2c.6 0 1 .4 1 1s-.4 1-1 1z"/>
</svg>
