<svg xmlns="http://www.w3.org/2000/svg" viewBox="0 0 24 24">
    <path d="M19.8 23H4.2C2.4 23 1 21.6 1 19.8V4.2C1 2.4 2.4 1 4.2 1h15.6C21.6 1 23 2.4 23 4.2v15.6c0 1.8-1.4 3.2-3.2 3.2zM4.2 3C3.5 3 3 3.5 3 4.2v15.6c0 .7.5 1.2 1.2 1.2h15.6c.7 0 1.2-.5 1.2-1.2V4.2c0-.7-.5-1.2-1.2-1.2H4.2z"/>
    <path d="M7 23c-.6 0-1-.4-1-1V2c0-.6.4-1 1-1s1 .4 1 1v20c0 .6-.4 1-1 1zm10 0c-.6 0-1-.4-1-1V2c0-.6.4-1 1-1s1 .4 1 1v20c0 .6-.4 1-1 1z"/>
    <path d="M22 13H2c-.6 0-1-.4-1-1s.4-1 1-1h20c.6 0 1 .4 1 1s-.4 1-1 1zM7 8H2c-.6 0-1-.4-1-1s.4-1 1-1h5c.6 0 1 .4 1 1s-.4 1-1 1zm0 10H2c-.6 0-1-.4-1-1s.4-1 1-1h5c.6 0 1 .4 1 1s-.4 1-1 1zm15 0h-5c-.6 0-1-.4-1-1s.4-1 1-1h5c.6 0 1 .4 1 1s-.4 1-1 1zm0-10h-5c-.6 0-1-.4-1-1s.4-1 1-1h5c.6 0 1 .4 1 1s-.4 1-1 1z"/>
</svg>
