<svg xmlns="http://www.w3.org/2000/svg" viewBox="0 0 24 24">
    <path d="M20 23H4c-.6 0-1-.4-1-1V12c0-.6.4-1 1-1s1 .4 1 1v9h14v-9c0-.6.4-1 1-1s1 .4 1 1v10c0 .6-.4 1-1 1z"/>
    <path d="M22 13H2c-.6 0-1-.4-1-1V7c0-.6.4-1 1-1h20c.6 0 1 .4 1 1v5c0 .6-.4 1-1 1zM3 11h18V8H3v3z"/>
    <path d="M12 23c-.6 0-1-.4-1-1V7c0-.6.4-1 1-1s1 .4 1 1v15c0 .6-.4 1-1 1z"/>
    <path d="M12 8H7.5C5.6 8 4 6.4 4 4.5S5.6 1 7.5 1c4.3 0 5.4 5.6 5.5 5.8.1.3 0 .6-.2.8-.2.3-.5.4-.8.4zM7.5 3C6.7 3 6 3.7 6 4.5S6.7 6 7.5 6h3.2c-.5-1.2-1.5-3-3.2-3z"/>
    <path d="M16.5 8H12c-.3 0-.6-.1-.8-.4-.2-.2-.2-.5-.2-.8 0-.2 1.2-5.8 5.5-5.8C18.4 1 20 2.6 20 4.5S18.4 8 16.5 8zm-3.2-2h3.2c.8 0 1.5-.7 1.5-1.5S17.3 3 16.5 3c-1.7 0-2.7 1.8-3.2 3z"/>
</svg>
