<svg xmlns="http://www.w3.org/2000/svg" viewBox="0 0 24 24">
    <path d="M16 23c-.6 0-1-.4-1-1v-3.9c.1-.8-.2-1.4-.7-1.9-.3-.3-.4-.7-.2-1s.5-.6.8-.7c2.9-.3 5.6-1.3 5.6-6 0-1.1-.4-2.2-1.2-3.1-.3-.3-.3-.7-.2-1 .3-.8.3-1.6.1-2.4-.5.1-1.3.4-2.6 1.3-.2.2-.5.2-.8.1-2.1-.6-4.4-.6-6.5 0-.3.1-.6.1-.9-.1C7.2 2.4 6.3 2.1 5.8 2c-.2.8-.2 1.6.1 2.4.1.4.1.8-.2 1-.8.9-1.2 2-1.2 3.1 0 4.7 2.7 5.7 5.6 6 .4 0 .7.3.8.7.1.4 0 .8-.2 1-.5.5-.7 1.1-.7 1.8v3.9c0 .6-.4 1-1 1s-1-.4-1-1v-1.7c-3 .5-4.3-1.2-5.2-2.3-.4-.5-.7-.9-1.1-1-.5-.1-.9-.7-.7-1.2.1-.5.7-.9 1.2-.7 1 .3 1.6 1 2.2 1.7.8 1.1 1.5 1.9 3.6 1.5v-.1c0-.6.1-1.3.3-1.8-2.8-.6-5.8-2.4-5.8-7.7 0-1.5.5-2.9 1.4-4-.4-1.4-.3-2.7.3-4 .1-.3.3-.5.6-.6.4-.1 1.7-.3 4.4 1.4 2.2-.5 4.5-.5 6.6 0 2.6-1.7 4-1.5 4.4-1.4.3.1.5.3.6.6.5 1.3.6 2.6.3 3.9.9 1.1 1.4 2.5 1.4 4 0 5.7-3.4 7.2-5.8 7.8.2.6.3 1.3.3 1.9V22c0 .6-.4 1-1 1z"/>
</svg>
