<svg xmlns="http://www.w3.org/2000/svg" viewBox="0 0 24 24">
    <path d="M12 23C5.9 23 1 18.1 1 12S5.9 1 12 1s11 4.9 11 11-4.9 11-11 11zm0-20c-5 0-9 4-9 9s4 9 9 9 9-4 9-9-4-9-9-9z"/>
    <path d="M22 13H2c-.6 0-1-.4-1-1s.4-1 1-1h20c.6 0 1 .4 1 1s-.4 1-1 1z"/>
    <path d="M12 23c-.3 0-.5-.1-.7-.3C8.6 19.8 7.1 16 7 12c.1-4 1.6-7.8 4.3-10.7.2-.2.4-.3.7-.3.3 0 .5.1.7.3C15.4 4.2 16.9 8 17 12c-.1 4-1.6 7.8-4.3 10.7-.2.2-.4.3-.7.3zm0-19.4C10.1 6 9.1 8.9 9 12c.1 3 1.1 6 3 8.4 1.9-2.4 2.9-5.4 3-8.5-.1-3-1.1-5.9-3-8.3z"/>
</svg>
