<svg xmlns="http://www.w3.org/2000/svg" viewBox="0 0 24 24">
    <path d="M14 16h-4c-.3 0-.6-.2-.8-.4L7.5 13H2c-.6 0-1-.4-1-1s.4-1 1-1h6c.3 0 .6.2.8.4l1.7 2.6h2.9l1.7-2.6c.2-.3.5-.4.8-.4h6c.6 0 1 .4 1 1s-.4 1-1 1h-5.5l-1.7 2.6c-.1.2-.4.4-.7.4z"/>
    <path d="M20 21H4c-1.7 0-3-1.3-3-3v-6c0-.2 0-.3.1-.4l3.4-6.9C5.1 3.6 6.1 3 7.2 3h9.5c1.1 0 2.2.6 2.7 1.7l3.4 6.9c.2.1.2.2.2.4v6c0 1.7-1.3 3-3 3zM3 12.2V18c0 .6.4 1 1 1h16c.6 0 1-.4 1-1v-5.8l-3.3-6.7c-.2-.3-.6-.5-.9-.5H7.2c-.3 0-.7.2-.9.6L3 12.2zm2.5-7.1z"/>
</svg>
