<svg xmlns="http://www.w3.org/2000/svg" viewBox="0 0 24 24">
    <path d="M17 23H7c-3.3 0-6-2.7-6-6V7c0-3.3 2.7-6 6-6h10c3.3 0 6 2.7 6 6v10c0 3.3-2.7 6-6 6zM7 3C4.8 3 3 4.8 3 7v10c0 2.2 1.8 4 4 4h10c2.2 0 4-1.8 4-4V7c0-2.2-1.8-4-4-4H7z"/>
    <path d="M12 17c-1.1 0-2.1-.3-3-1-1.1-.8-1.8-2-2-3.3C6.7 10 8.6 7.4 11.3 7c.5-.1 1-.1 1.5 0 2.2.3 3.9 2 4.2 4.2.2 1.3-.1 2.6-.9 3.7s-2 1.8-3.3 2c-.3 0-.5.1-.8.1zm0-8h-.4c-1.6.2-2.8 1.8-2.5 3.4.2 1.6 1.8 2.8 3.4 2.5.8-.1 1.5-.5 2-1.2s.7-1.4.6-2.2c-.2-1.3-1.2-2.3-2.5-2.5H12zm5.5-1.5c-.3 0-.5-.1-.7-.3-.2-.2-.3-.4-.3-.7 0-.3.1-.5.3-.7.4-.4 1-.4 1.4 0 .1.1.2.2.2.3 0 .1.1.2.1.4 0 .3-.1.5-.3.7-.2.2-.4.3-.7.3z"/>
</svg>
