<svg xmlns="http://www.w3.org/2000/svg" viewBox="0 0 24 24">
    <path d="M12 23C5.9 23 1 18.1 1 12S5.9 1 12 1s11 4.9 11 11-4.9 11-11 11zm0-20c-5 0-9 4-9 9s4 9 9 9 9-4 9-9-4-9-9-9z"/>
    <path d="M12 17c-2.8 0-5-2.2-5-5s2.2-5 5-5 5 2.2 5 5-2.2 5-5 5zm0-8c-1.7 0-3 1.3-3 3s1.3 3 3 3 3-1.3 3-3-1.3-3-3-3z"/>
    <path d="M9.2 10.2c-.3 0-.5-.1-.7-.3L4.2 5.6c-.4-.4-.4-1 0-1.4s1-.4 1.4 0l4.2 4.2c.4.4.4 1 0 1.4-.1.3-.4.4-.6.4zm9.9 9.9c-.3 0-.5-.1-.7-.3l-4.2-4.2c-.4-.4-.4-1 0-1.4s1-.4 1.4 0l4.2 4.2c.4.4.4 1 0 1.4-.2.2-.5.3-.7.3zm-4.3-9.9c-.3 0-.5-.1-.7-.3-.4-.4-.4-1 0-1.4l4.2-4.2c.4-.4 1-.4 1.4 0s.4 1 0 1.4l-4.2 4.2c-.2.2-.4.3-.7.3z"/>
    <path d="M14.8 10.2c-.3 0-.5-.1-.7-.3-.4-.4-.4-1 0-1.4L17.6 5c.4-.4 1-.4 1.4 0s.4 1 0 1.4l-3.5 3.5c-.2.2-.4.3-.7.3zm-9.9 9.9c-.3 0-.5-.1-.7-.3-.4-.4-.4-1 0-1.4l4.2-4.2c.4-.4 1-.4 1.4 0s.4 1 0 1.4l-4.2 4.2c-.2.2-.4.3-.7.3z"/>
</svg>
