<svg xmlns="http://www.w3.org/2000/svg" viewBox="0 0 24 24">
    <path d="M12 16c-2.2 0-4-1.8-4-4V4c0-2.2 1.8-4 4-4s4 1.8 4 4v8c0 2.2-1.8 4-4 4zm0-14c-1.1 0-2 .9-2 2v8c0 1.1.9 2 2 2s2-.9 2-2V4c0-1.1-.9-2-2-2z"/>
    <path d="M12 20c-4.4 0-8-3.6-8-8v-2c0-.6.4-1 1-1s1 .4 1 1v2c0 3.3 2.7 6 6 6s6-2.7 6-6v-2c0-.6.4-1 1-1s1 .4 1 1v2c0 4.4-3.6 8-8 8z"/>
    <path d="M12 24c-.6 0-1-.4-1-1v-4c0-.6.4-1 1-1s1 .4 1 1v4c0 .6-.4 1-1 1z"/>
    <path d="M16 24H8c-.6 0-1-.4-1-1s.4-1 1-1h8c.6 0 1 .4 1 1s-.4 1-1 1z"/>
</svg>
