<svg xmlns="http://www.w3.org/2000/svg" viewBox="0 0 24 24">
    <path d="M7 11H1c-.6 0-1-.4-1-1V4c0-.6.4-1 1-1s1 .4 1 1v5h5c.6 0 1 .4 1 1s-.4 1-1 1zm16 10c-.6 0-1-.4-1-1v-5h-5c-.6 0-1-.4-1-1s.4-1 1-1h6c.6 0 1 .4 1 1v6c0 .6-.4 1-1 1z"/>
    <path d="M12 22c-2.6 0-5.1-1-7.1-2.9-1-1-1.9-2.3-2.4-3.7-.2-.5.1-1.1.6-1.3.5-.2 1.1.1 1.3.6.4 1.1 1 2.2 1.9 3 3.1 3.1 8.2 3.1 11.3 0l4.7-4.4c.4-.4 1-.4 1.4 0 .4.4.4 1 0 1.4L19 19.1C17.1 21 14.6 22 12 22zM1 11c-.3 0-.5-.1-.7-.3-.4-.4-.4-1 0-1.4L5 4.9c1-1 2.3-1.8 3.7-2.3 5.2-1.8 10.9.9 12.8 6.1.2.5-.1 1.1-.6 1.3-.5.2-1.1-.1-1.3-.6C18.1 5.2 13.5 3 9.3 4.5c-1.1.4-2.2 1-3 1.9l-4.7 4.4c-.1.1-.4.2-.6.2z"/>
</svg>
