<svg xmlns="http://www.w3.org/2000/svg" viewBox="0 0 24 24">
    <path d="M17 10c-.3 0-.5-.1-.7-.3-.4-.4-.4-1 0-1.4L19.6 5l-3.3-3.3c-.4-.4-.4-1 0-1.4s1-.4 1.4 0l4 4c.4.4.4 1 0 1.4l-4 4c-.2.2-.4.3-.7.3z"/>
    <path d="M3 12c-.6 0-1-.4-1-1V9c0-2.8 2.2-5 5-5h14c.6 0 1 .4 1 1s-.4 1-1 1H7C5.3 6 4 7.3 4 9v2c0 .6-.4 1-1 1zm4 12c-.3 0-.5-.1-.7-.3l-4-4c-.4-.4-.4-1 0-1.4l4-4c.4-.4 1-.4 1.4 0s.4 1 0 1.4L4.4 19l3.3 3.3c.4.4.4 1 0 1.4-.2.2-.4.3-.7.3z"/>
    <path d="M17 20H3c-.6 0-1-.4-1-1s.4-1 1-1h14c1.7 0 3-1.3 3-3v-2c0-.6.4-1 1-1s1 .4 1 1v2c0 2.8-2.2 5-5 5z"/>
</svg>
