<svg xmlns="http://www.w3.org/2000/svg" viewBox="0 0 24 24">
    <path d="M20 11H4c-1.7 0-3-1.3-3-3V4c0-1.7 1.3-3 3-3h16c1.7 0 3 1.3 3 3v4c0 1.7-1.3 3-3 3zM4 3c-.6 0-1 .4-1 1v4c0 .6.4 1 1 1h16c.6 0 1-.4 1-1V4c0-.6-.4-1-1-1H4zm16 20H4c-1.7 0-3-1.3-3-3v-4c0-1.7 1.3-3 3-3h16c1.7 0 3 1.3 3 3v4c0 1.7-1.3 3-3 3zM4 15c-.6 0-1 .4-1 1v4c0 .6.4 1 1 1h16c.6 0 1-.4 1-1v-4c0-.6-.4-1-1-1H4z"/>
    <path d="M6 7c-.1 0-.3 0-.4-.1-.1 0-.2-.1-.3-.2-.2-.2-.3-.4-.3-.7 0-.1 0-.3.1-.4.1-.1.1-.2.2-.3.2-.2.6-.3.9-.3h.2c.1 0 .1.1.2.1l.1.1c.2.3.3.5.3.8v.2c0 .1 0 .1-.1.2 0 .1-.1.1-.1.2s-.1.1-.1.1c-.1 0-.1.1-.1.1-.1 0-.1.1-.2.1s-.1.1-.2.1H6zm0 12c-.3 0-.5-.1-.7-.3-.2-.2-.3-.4-.3-.7 0-.3.1-.5.3-.7.4-.4 1-.4 1.4 0 .2.2.3.4.3.7 0 .3-.1.5-.3.7-.2.2-.4.3-.7.3z"/>
</svg>
