<svg xmlns="http://www.w3.org/2000/svg" viewBox="0 0 24 24">
    <path d="M18 9c-2.2 0-4-1.8-4-4s1.8-4 4-4 4 1.8 4 4-1.8 4-4 4zm0-6c-1.1 0-2 .9-2 2s.9 2 2 2 2-.9 2-2-.9-2-2-2zM6 16c-2.2 0-4-1.8-4-4s1.8-4 4-4 4 1.8 4 4-1.8 4-4 4zm0-6c-1.1 0-2 .9-2 2s.9 2 2 2 2-.9 2-2-.9-2-2-2zm12 13c-2.2 0-4-1.8-4-4s1.8-4 4-4 4 1.8 4 4-1.8 4-4 4zm0-6c-1.1 0-2 .9-2 2s.9 2 2 2 2-.9 2-2-.9-2-2-2z"/>
    <path d="M15.4 18.5c-.2 0-.3 0-.5-.1l-6.8-4c-.5-.3-.6-.9-.4-1.4.3-.5.9-.6 1.4-.4l6.8 4c.5.3.6.9.4 1.4-.2.3-.5.5-.9.5zm-6.8-7c-.3 0-.7-.2-.9-.5-.3-.5-.1-1.1.4-1.4l6.8-4c.5-.2 1.1-.1 1.4.4.3.5.1 1.1-.4 1.4l-6.8 4c-.2 0-.3.1-.5.1z"/>
</svg>
