<svg xmlns="http://www.w3.org/2000/svg" viewBox="0 0 24 24">
    <path d="M18 23H6c-1.7 0-3-1.3-3-3V4c0-1.7 1.3-3 3-3h12c1.7 0 3 1.3 3 3v16c0 1.7-1.3 3-3 3zM6 3c-.6 0-1 .4-1 1v16c0 .6.4 1 1 1h12c.6 0 1-.4 1-1V4c0-.6-.4-1-1-1H6z"/>
    <path d="M12 19c-2.8 0-5-2.2-5-5s2.2-5 5-5 5 2.2 5 5-2.2 5-5 5zm0-8c-1.7 0-3 1.3-3 3s1.3 3 3 3 3-1.3 3-3-1.3-3-3-3zm0-4c-.3 0-.5-.1-.7-.3-.2-.2-.3-.4-.3-.7 0-.3.1-.5.3-.7.2-.2.6-.3.9-.3h.2c.1 0 .1.1.2.1l.1.1c.2.3.3.5.3.8 0 .1 0 .3-.1.4-.1.1-.1.2-.2.3-.1 0-.1.1-.1.1-.1 0-.1.1-.2.1s-.1 0-.2.1H12z"/>
</svg>
