<svg xmlns="http://www.w3.org/2000/svg" viewBox="0 0 24 24">
    <path d="M16 17H1c-.6 0-1-.4-1-1V3c0-.6.4-1 1-1h15c.6 0 1 .4 1 1v13c0 .6-.4 1-1 1zM2 15h13V4H2v11z"/>
    <path d="M23 17h-7c-.6 0-1-.4-1-1V8c0-.6.4-1 1-1h4c.3 0 .5.1.7.3l3 3c.2.2.3.4.3.7v5c0 .6-.4 1-1 1zm-6-2h5v-3.6L19.6 9H17v6zM5.5 22C3.6 22 2 20.4 2 18.5S3.6 15 5.5 15 9 16.6 9 18.5 7.4 22 5.5 22zm0-5c-.8 0-1.5.7-1.5 1.5S4.7 20 5.5 20 7 19.3 7 18.5 6.3 17 5.5 17z"/>
    <path d="M18.5 22c-1.9 0-3.5-1.6-3.5-3.5s1.6-3.5 3.5-3.5 3.5 1.6 3.5 3.5-1.6 3.5-3.5 3.5zm0-5c-.8 0-1.5.7-1.5 1.5s.7 1.5 1.5 1.5 1.5-.7 1.5-1.5-.7-1.5-1.5-1.5z"/>
</svg>
