<svg xmlns="http://www.w3.org/2000/svg" viewBox="0 0 24 24">
    <path d="M23 24c-.3 0-.5-.1-.7-.3l-22-22C-.1 1.3-.1.7.3.3s1-.4 1.4 0l22 22c.4.4.4 1 0 1.4-.2.2-.4.3-.7.3zm-4-10.5c-.2 0-.5-.1-.6-.2-.6-.5-1.3-1-2.1-1.4-.5-.2-.7-.8-.5-1.3.2-.5.8-.7 1.3-.5.9.4 1.7 1 2.5 1.6.4.4.5 1 .1 1.4-.1.3-.4.4-.7.4z"/>
    <path d="M5 13.5c-.3 0-.6-.1-.8-.4-.4-.4-.3-1.1.1-1.4C6 10.4 7.9 9.5 10 9.2c.6-.1 1.1.3 1.2.8.1.5-.3 1.1-.8 1.2-1.7.3-3.4 1-4.7 2.2-.2.1-.5.1-.7.1zM22.6 10c-.2 0-.5-.1-.7-.2-3-2.7-7.1-4-11.1-3.7-.5 0-1-.4-1.1-.9 0-.6.4-1 .9-1.1 4.6-.4 9.2 1.2 12.6 4.2.4.4.5 1 .1 1.4-.2.2-.4.3-.7.3zM1.4 10c-.3 0-.6-.1-.8-.3-.4-.4-.3-1 .1-1.4C2.2 7 3.9 6 5.7 5.2c.6-.2 1.1 0 1.4.6.2.5 0 1.1-.6 1.3-1.6.6-3.1 1.5-4.4 2.6-.2.2-.4.3-.7.3zm14.1 7.1c-.2 0-.4-.1-.6-.2-1.7-1.2-4.1-1.2-5.8 0-.5.3-1.1.2-1.4-.2-.3-.5-.2-1.1.2-1.4 2.4-1.7 5.7-1.7 8.1 0 .5.3.6.9.2 1.4-.1.3-.4.4-.7.4zM12 21c-.1 0-.3 0-.4-.1-.1 0-.2-.1-.3-.2-.2-.2-.3-.4-.3-.7 0-.1 0-.3.1-.4.1-.1.1-.2.2-.3.3-.3.7-.4 1.1-.2.1 0 .2.1.3.2.2.2.3.4.3.7 0 .3-.1.5-.3.7-.2.2-.4.3-.7.3z"/>
</svg>
