<svg xmlns="http://www.w3.org/2000/svg" xmlns:xlink="http://www.w3.org/1999/xlink" viewBox="0 0 100 60"><defs><style>.cls-1{fill:url(#Unbenannter_Verlauf_61);}</style><linearGradient id="Unbenannter_Verlauf_61" x1="9.28" y1="70.73" x2="89.32" y2="-9.32" gradientUnits="userSpaceOnUse"><stop offset="0" stop-color="#398143"/><stop offset="0.27" stop-color="#267777"/><stop offset="0.5" stop-color="#1b6891"/><stop offset="0.76" stop-color="#18548d"/><stop offset="1" stop-color="#052458"/></linearGradient></defs><title>cb-dark</title><g id="Ebene_2" data-name="Ebene 2"><g id="Ebene_1-2" data-name="Ebene 1"><path class="cls-1" d="M96,0H4A4,4,0,0,0,0,4V56a4,4,0,0,0,4,4H96a4,4,0,0,0,4-4V4A4,4,0,0,0,96,0ZM50.89,31.55a17.66,17.66,0,0,1-4.28,10.64C41.46,48,34.09,48,31.9,48s-9.58,0-14.72-5.79a17.77,17.77,0,0,1,0-23.25c5.14-5.79,12.52-5.79,14.72-5.79s9.56,0,14.71,5.79a17.72,17.72,0,0,1,4.28,10.62H32.37v2ZM77.44,47H52.72V31.54H77.44a7.72,7.72,0,0,1,0,15.43Zm0-17.4H52.72V14.14H77.44a7.72,7.72,0,0,1,0,15.43Z"/></g></g></svg>