<?xml version="1.0" encoding="utf-8"?><svg version="1.1" width="100" height="60" xmlns="http://www.w3.org/2000/svg" xmlns:xlink="http://www.w3.org/1999/xlink" viewBox="0 0 100 60" style="enable-background:new 0 0 100 60;" xml:space="preserve"><style type="text/css">.st0{clip-path:url(#SVGID_2_);}.st1{clip-path:url(#SVGID_6_);}.st2{fill-rule:evenodd;clip-rule:evenodd;fill:#F7931A;}.st3{fill-rule:evenodd;clip-rule:evenodd;fill:#FFFFFF;}.st4{fill:#FFFFFF;}</style><g><g><defs><path id="SVGID_1_" d="M96 0H4C1.8 0 0 1.8 0 4v52c0 2.2 1.8 4 4 4h92c2.2 0 4-1.8 4-4V4c0-2.2-1.8-4-4-4zM52.1 31.7c-.2 2.5-.9 7.5-4.7 11.8-5.7 6.4-13.9 6.4-16.3 6.4-2.4 0-10.6 0-16.3-6.4-4.6-5.2-4.8-11.3-4.8-12.9 0-1.7.2-7.8 4.8-12.9 5.7-6.4 13.9-6.4 16.3-6.4 2.4 0 10.6 0 16.3 6.4C51.2 22 52 27 52.1 29.5H31.6v2.2h20.5zm29.4 17H54.1V31.6h27.4c4.7 0 8.5 3.8 8.5 8.5 0 4.8-3.8 8.6-8.5 8.6zm0-19.2H54.1V12.4h27.4c4.7 0 8.5 3.8 8.5 8.5s-3.8 8.6-8.5 8.6z"/></defs><clipPath id="SVGID_2_"><use xlink:href="#SVGID_1_"  style="overflow:visible;"/></clipPath><g class="st0"><g><defs><rect id="SVGID_3_" x="-5" y="-5" width="110" height="70"/></defs><clipPath id="SVGID_4_"><use xlink:href="#SVGID_3_"  style="overflow:visible;"/></clipPath><g style="clip-path:url(#SVGID_4_);"><image style="overflow:visible;" width="230" height="147" xlink:href="A7F0EC65.jpg"  transform="matrix(0.48 0 0 0.48 -5.28 -5.28)"></image></g></g></g></g></g></svg>
