<svg viewBox="0 0 24 24" fill="none" xmlns="http://www.w3.org/2000/svg"><path d="M23.088 12.158c0-1.753-.454-3.404-1.238-4.848C25.253-.322 18.24.813 17.827.813c-1.443.288-2.887.752-4.125 1.34-4.744-.056-8.87 2.476-10.21 7.736 2.475-2.785 4.228-3.92 5.26-4.332-.217.196-.434.402-.65.608-1.65 1.65-2.992 3.3-4.126 5.054-.877 1.547-1.857 2.888-2.372 4.642-2.785 10.107 5.982 5.878 7.22 5.156a9.815 9.815 0 0 0 4.434 1.022c4.332 0 8.045-2.785 9.386-6.601h-5.26c-2.475 3.919-8.354 2.166-8.56-2.063h14.233c.053-.423.082-.846.082-1.238l-.051.02zM21.23 2.36c.856.577 1.547 1.444.361 4.538-1.134-1.857-2.785-3.3-4.847-4.023.918-.443 3.197-1.34 4.538-.515h-.052zM2.975 21.028c-.7-.712-.825-2.476.722-5.673a9.762 9.762 0 0 0 4.332 5.26c-1 .547-3.61 1.754-5.053.34v.073zm5.776-10.314c.08-2.27 2.063-4.126 4.538-4.126 2.476 0 4.435 1.857 4.539 4.126H8.75z" fill="#1EBBEE"/></svg>