<svg viewBox="0 0 24 24" fill="none" xmlns="http://www.w3.org/2000/svg"><path d="M12 21a9 9 0 1 0 0-18 9 9 0 0 0 0 18z" fill="#E13138"/><path d="M12.353 7.818c-2.517 0-3.787 1.778-3.787 3.26 0 .9.345 1.696 1.083 1.994.123.05.23.004.267-.13.025-.09.136-.323.162-.417.036-.13.02-.176-.076-.291-.212-.248-.346-.508-.346-.961 0-1.511.944-2.587 2.55-2.587 1.42 0 2.202.881 2.202 2.026 0 1.504-.676 2.727-1.68 2.727-.555 0-.97-.403-.836-.957.158-.662.468-1.374.468-1.853 0-.428-.23-.734-.713-.734-.565 0-1.022.529-1.022 1.302 0 .493.162.738.162.738s-.573 2.508-.677 2.933c-.202.846-.03 1.878-.014 1.983.007.061.09.075.126.029.05-.065.727-.89.957-1.71.065-.23.375-1.432.375-1.432.183.346.723.569 1.292.569 1.703 0 2.858-1.45 2.858-3.495.004-1.55-1.328-2.994-3.351-2.994z" fill="#fff"/></svg>