<svg viewBox="0 0 24 24" fill="none" xmlns="http://www.w3.org/2000/svg"><path d="M20.047 16.883c-.266.14-.54.265-.82.367a7.99 7.99 0 0 1-2.805.508c-3.695 0-6.914-2.54-6.914-5.805.008-.89.5-1.71 1.281-2.133-3.344.14-4.203 3.625-4.203 5.664 0 5.774 5.32 6.36 6.469 6.36.617 0 1.547-.18 2.11-.36l.1-.03a9.997 9.997 0 0 0 5.204-4.126.313.313 0 0 0-.094-.43.33.33 0 0 0-.328-.015z" fill="url(#paint0_linear_29_519)"/><path opacity=".35" d="M20.047 16.883c-.266.14-.54.265-.82.367a7.99 7.99 0 0 1-2.805.508c-3.695 0-6.914-2.54-6.914-5.805.008-.89.5-1.71 1.281-2.133-3.344.14-4.203 3.625-4.203 5.664 0 5.774 5.32 6.36 6.469 6.36.617 0 1.547-.18 2.11-.36l.1-.03a9.997 9.997 0 0 0 5.204-4.126.313.313 0 0 0-.094-.43.33.33 0 0 0-.328-.015z" fill="url(#paint1_radial_29_519)"/><path d="M10.258 20.86c-.695-.43-1.297-1-1.774-1.665A6.307 6.307 0 0 1 10.79 9.82c.242-.117.656-.32 1.211-.312a2.522 2.522 0 0 1 2.508 2.476c0-.015 1.914-6.218-6.25-6.218-3.43 0-6.25 3.257-6.25 6.109a10.19 10.19 0 0 0 .945 4.375 10.006 10.006 0 0 0 12.219 5.242 5.92 5.92 0 0 1-4.914-.633z" fill="url(#paint2_linear_29_519)"/><path opacity=".41" d="M10.258 20.86c-.695-.43-1.297-1-1.774-1.665A6.307 6.307 0 0 1 10.79 9.82c.242-.117.656-.32 1.211-.312a2.522 2.522 0 0 1 2.508 2.476c0-.015 1.914-6.218-6.25-6.218-3.43 0-6.25 3.257-6.25 6.109a10.19 10.19 0 0 0 .945 4.375 10.006 10.006 0 0 0 12.219 5.242 5.92 5.92 0 0 1-4.914-.633z" fill="url(#paint3_radial_29_519)"/><path d="M13.898 13.633c-.062.078-.257.195-.257.445 0 .203.132.399.367.563 1.125.78 3.242.68 3.25.68.836 0 1.648-.227 2.367-.65A4.789 4.789 0 0 0 22 10.54c.023-1.75-.625-2.914-.883-3.43C19.461 3.867 15.883 2 12 2a10 10 0 0 0-10 9.86c.04-2.852 2.875-5.157 6.25-5.157.273 0 1.836.024 3.281.79 1.274.671 1.946 1.476 2.406 2.28.485.836.57 1.883.57 2.305 0 .414-.21 1.04-.609 1.555z" fill="url(#paint4_radial_29_519)"/><path d="M13.898 13.633c-.062.078-.257.195-.257.445 0 .203.132.399.367.563 1.125.78 3.242.68 3.25.68.836 0 1.648-.227 2.367-.65A4.789 4.789 0 0 0 22 10.54c.023-1.75-.625-2.914-.883-3.43C19.461 3.867 15.883 2 12 2a10 10 0 0 0-10 9.86c.04-2.852 2.875-5.157 6.25-5.157.273 0 1.836.024 3.281.79 1.274.671 1.946 1.476 2.406 2.28.485.836.57 1.883.57 2.305 0 .414-.21 1.04-.609 1.555z" fill="url(#paint5_radial_29_519)"/><defs><linearGradient id="paint0_linear_29_519" x1="6.586" y1="15.83" x2="20.515" y2="15.83" gradientUnits="userSpaceOnUse"><stop stop-color="#0C59A4"/><stop offset="1" stop-color="#114A8B"/></linearGradient><radialGradient id="paint1_radial_29_519" cx="0" cy="0" r="1" gradientUnits="userSpaceOnUse" gradientTransform="matrix(7.45082 0 0 7.07749 14.28 15.94)"><stop offset=".72" stop-opacity="0"/><stop offset=".95" stop-opacity=".53"/><stop offset="1"/></radialGradient><linearGradient id="paint2_linear_29_519" x1="13.935" y1="9.793" x2="5.234" y2="19.27" gradientUnits="userSpaceOnUse"><stop stop-color="#1B9DE2"/><stop offset=".16" stop-color="#1595DF"/><stop offset=".67" stop-color="#0680D7"/><stop offset="1" stop-color="#0078D4"/></linearGradient><radialGradient id="paint3_radial_29_519" cx="0" cy="0" r="1" gradientUnits="userSpaceOnUse" gradientTransform="matrix(1.6786 -11.07643 8.95045 1.3564 7.516 17.548)"><stop offset=".76" stop-opacity="0"/><stop offset=".95" stop-opacity=".5"/><stop offset="1"/></radialGradient><radialGradient id="paint4_radial_29_519" cx="0" cy="0" r="1" gradientUnits="userSpaceOnUse" gradientTransform="matrix(-.63255 15.81165 -33.68076 -1.3474 4.02 5.703)"><stop stop-color="#35C1F1"/><stop offset=".11" stop-color="#34C1ED"/><stop offset=".23" stop-color="#2FC2DF"/><stop offset=".31" stop-color="#2BC3D2"/><stop offset=".67" stop-color="#36C752"/></radialGradient><radialGradient id="paint5_radial_29_519" cx="0" cy="0" r="1" gradientUnits="userSpaceOnUse" gradientTransform="matrix(2.12926 7.299 -5.93668 1.73185 20.754 8.047)"><stop stop-color="#66EB6E"/><stop offset="1" stop-color="#66EB6E" stop-opacity="0"/></radialGradient></defs></svg>