<svg width="100" height="60" xmlns="http://www.w3.org/2000/svg"><g fill="none" fill-rule="evenodd"><rect fill="#FF8000" width="100" height="60" rx="4"/><path d="M65.49 18.634l-8.612-8.567s-1.116-1.112-2.692-1.112c0 0-1.576 0-2.692 1.112 0 0-1.115 1.11-1.115 2.68 0 0 0 1.57 1.115 2.68l2.095 2.077h-8.036s-1.595 0-2.711 1.12c0 0-1.126 1.111-1.126 2.69 0 0 0 1.58 1.126 2.7 0 0 1.116 1.112 2.711 1.112h8.036l-2.095 2.085s-1.115 1.111-1.115 2.68c0 0 0 1.57 1.115 2.681 0 0 1.116 1.102 2.692 1.102 0 0 1.576 0 2.692-1.102l8.603-8.577s1.116-1.111 1.116-2.68c0 0 0-1.57-1.106-2.68m-30.998-2.603s2.104 0 3.592 1.481c0 0 1.488 1.482 1.488 3.577 0 0 0 2.096-1.488 3.578 0 0-1.488 1.481-3.592 1.481 0 0-2.105 0-3.593-1.481 0 0-1.487-1.482-1.487-3.578 0 0 0-2.095 1.487-3.577 0 0 1.488-1.481 3.593-1.481m-13.646 32.12s-.707.138-1.337.138c-1.86 0-2.904-1.01-2.904-2.907V43.24c0-1.897 1.03-2.907 2.904-2.907.691 0 1.337.138 1.337.138.2.03.292.138.292.306v.933c0 .169-.108.26-.292.245 0 0-.661-.092-1.23-.092-.998 0-1.32.582-1.32 1.408v2.066c0 .857.353 1.423 1.336 1.423.6 0 1.23-.092 1.23-.092.168-.015.276.062.276.23v.933c0 .168-.077.276-.292.321m2.766-.015h-1.106a.282.282 0 01-.292-.29V37.563a.28.28 0 01.292-.291h1.106c.17 0 .292.122.292.29v10.283a.282.282 0 01-.292.291m2.997.001h-1.107a.282.282 0 01-.292-.29v-7.07c0-.168.123-.291.292-.291h1.106c.17 0 .293.123.293.29v7.07a.282.282 0 01-.293.291m0-9.18h-1.106a.282.282 0 01-.292-.291v-1.102c0-.17.123-.291.292-.291h1.106c.17 0 .293.122.293.29v1.103c0 .168-.123.29-.293.29m5.84 9.196s-.707.138-1.337.138c-1.86 0-2.904-1.01-2.904-2.907V43.24c0-1.897 1.03-2.907 2.904-2.907.691 0 1.337.138 1.337.138.2.03.292.138.292.306v.933c0 .169-.108.26-.292.245 0 0-.661-.092-1.23-.092-.998 0-1.321.582-1.321 1.408v2.066c0 .857.353 1.423 1.337 1.423.599 0 1.229-.092 1.229-.092.169-.015.276.062.276.23v.933c0 .168-.076.276-.291.321m6.869-.015h-1.245c-.17 0-.307-.138-.384-.29l-2.09-3.994 1.905-3.076c.092-.138.23-.291.4-.291h1.245c.169 0 .26.153.169.29l-1.906 3.046 2.105 4.024c.077.138-.03.291-.2.291m-4.102 0h-1.107a.282.282 0 01-.292-.29V37.563c0-.17.124-.291.292-.291h1.107c.169 0 .292.122.292.29v10.283a.282.282 0 01-.292.291m8.667-3.197H42.59c-.83 0-1.168.352-1.168 1.01 0 .581.338.918 1.014.918.477 0 1-.184 1.445-.413v-1.515zm1.398 3.198h-1.03a.282.282 0 01-.291-.29v-.138c-.492.306-1.138.581-1.86.581-1.49 0-2.366-.75-2.366-2.295 0-1.576.968-2.357 2.673-2.357.523 0 1.276.061 1.475.092v-.612c0-.796-.353-1.224-1.26-1.224-.906 0-2.059.26-2.059.26-.184.046-.292-.076-.292-.245v-.933c0-.169.108-.275.292-.321 0 0 1-.322 2.29-.322 2.044 0 2.72.95 2.72 2.785v4.729c0 .168-.123.29-.292.29zm7.146 0h-1.107a.282.282 0 01-.292-.29v-4.76c0-.718-.215-1.178-1.03-1.178-.475 0-.998.214-1.428.444v5.493a.282.282 0 01-.292.291H47.17a.282.282 0 01-.292-.29v-7.07c0-.168.123-.291.292-.291h1.03c.169 0 .292.123.292.29v.23a3.244 3.244 0 011.982-.673c1.675 0 2.243 1.01 2.243 2.602v4.911a.281.281 0 01-.291.291m5.44-6.029c-.415-.168-.876-.29-1.291-.29-.845 0-1.168.535-1.168 1.3v2.372c0 .765.323 1.3 1.168 1.3.415 0 .876-.152 1.29-.351v-4.33zm1.398 6.03h-1.03a.282.282 0 01-.292-.292v-.091c-.476.29-1.06.535-1.72.535-1.706 0-2.505-1.04-2.505-2.678v-2.601c0-1.638.799-2.678 2.504-2.678.63 0 1.184.184 1.645.413v-3.182c0-.17.123-.291.292-.291h1.106c.17 0 .292.122.292.29v10.283a.282.282 0 01-.292.291zm5.747-5.02c0-.765-.307-1.3-1.153-1.3-.414 0-.89.153-1.306.351v4.514h1.183c.923 0 1.276-.504 1.276-1.27v-2.295zm-1.122 5.02h-2.735a.282.282 0 01-.292-.292V37.564c0-.17.123-.291.292-.291h1.107a.28.28 0 01.291.29v3.244a3.245 3.245 0 011.66-.474c1.706 0 2.49 1.04 2.49 2.678v2.448c0 1.668-.907 2.678-2.813 2.678zm9.666-.001h-1.03a.282.282 0 01-.291-.29v-.23a3.244 3.244 0 01-1.983.673c-1.675 0-2.243-1.01-2.243-2.601v-4.912c0-.168.123-.291.292-.291h1.107c.168 0 .292.123.292.29v4.76c0 .72.214 1.178 1.029 1.178.476 0 .999-.214 1.429-.444v-5.493c0-.168.123-.291.292-.291h1.106c.17 0 .292.123.292.29v7.07a.282.282 0 01-.292.291m4.411 2.633c-.062.152-.154.275-.323.275h-1.245c-.169 0-.292-.138-.23-.29l.875-2.557-2.443-7.42c-.046-.154.047-.292.23-.292h1.215c.169 0 .292.108.338.276l1.567 4.85 1.645-4.85c.061-.153.169-.276.338-.276h1.214c.184 0 .291.153.23.307l-3.411 9.976z" fill="#FCFCFC"/></g></svg>