<svg width="100" height="60" xmlns="http://www.w3.org/2000/svg"><g fill="none" fill-rule="evenodd"><rect fill="#FFF" width="100" height="60" rx="5"/><path d="M47.791 22.963h3.875s3.836-.077 3.798 3.421c-.04 2.605-3.72 2.994-3.72 2.994H47.79v-6.415zm11.592 12.558c.109.51.475 1.07 1.699 1.127 1.627.039 2.558-.584 2.558-.584v1.206s-1.783.427-2.636.427c-.89 0-3.526-.194-3.526-2.643 0-1.983 2.17-2.605 3.41-2.605 2.17.078 3.216.855 3.177 3.071 0 .033-3.57.009-4.682.001zm.005-.973h2.972s0-1.127-1.433-1.127c-1.079 0-1.432.583-1.54 1.127zm9.405-1.217c.43-.468 1.152-.843 2.364-.843 2.402 0 2.79 2.021 2.75 2.566-.038.544-.232 2.605-3.022 2.605-1.053 0-1.698-.361-2.092-.81v.654h-1.899v-6.998h1.899v2.826zm1.627 3.24c1.124-.04 1.628-1.012 1.628-1.478 0-.467-.272-1.439-1.705-1.439-1.113 0-1.451.843-1.55 1.256v.507c.097.42.438 1.153 1.627 1.153zm16.391-.195l.039 1.088s-.892.195-1.473.195c-.58 0-2.092-.35-2.092-1.827v-2.256h-1.589v-1.01h1.589V31.36h1.937v1.205h1.589v1.01h-1.589v1.944s0 .972.775.972.814-.116.814-.116zm-5.89-12.363h2.247v5.404h1.9v-5.404h2.285v-1.127h-6.432v1.127zm-.775.272l.233-1.127s-.97-.428-2.674-.428c-1.666 0-4.34.933-4.34 3.46 0 2.488 2.829 3.343 4.572 3.343 1.744 0 2.325-.272 2.325-.272l-.193-1.244s-.776.233-2.093.233c-1.279-.038-2.596-1.05-2.596-2.177.039-1.01 1.201-2.138 2.713-2.138 1.162 0 2.053.35 2.053.35zm-17.127-1.36s3.178-.156 3.178 1.71c0 1.594-1.821 1.71-1.821 1.71s.503.078.736.428c.193.311 1.472 2.644 1.472 2.644h-1.937s-.31-.39-.465-.661c-.117-.272-.465-.855-.465-.855s-.271-.972-1.201-.972l-.698-.026v2.514h-1.86v-6.493h3.061zm-1.201 2.915h1.007s1.396-.078 1.473-.933c.039-.817-1.356-.933-1.356-.933h-1.124v1.866zm7.789 1.01h3.1v-1.204h-3.1v-1.478h3.37v-1.244h-5.27v6.493h5.31V28.25h-3.41v-1.4zm7.556 4.977h1.898v-1.322h-1.898v1.322zm0 5.676h1.898v-4.937h-1.898v4.937zM56.47 29.417h1.86v-6.493h-1.86v6.493zm-8.68 1.632h3.875s3.836-.077 3.798 3.422c-.04 2.604-3.72 2.993-3.72 2.993H47.79V31.05zm1.899 5.21h1.24s2.557-.155 2.557-2.138c0-1.983-2.712-2.177-2.712-2.177H49.69v4.315zm0-8.086h1.24s2.557-.195 2.557-2.139c0-2.021-2.712-2.176-2.712-2.176H49.69v4.315zm-19.296-1.345v13.008s-7.517-1.361-7.517-6.532c0-4.123 5.565-5.94 7.517-6.476zm0-.243c-4.518-.328-14.763 1.797-14.763 6.447 0 3.032 5.425 7.464 14.26 7.581.348 0 10.384-.389 10.229-11.196-.13-9.078-6.902-10.667-9.067-10.944v-.553c8.633.55 15.422 5.758 15.422 12.08 0 6.687-7.595 12.13-16.933 12.13-9.339 0-16.894-5.443-16.894-12.13 0-6.687 7.555-12.13 16.894-12.13.286 0 .57.005.852.016v8.7z" fill="#141413"/></g></svg>