<svg version="1.1" id="Layer_1" xmlns="http://www.w3.org/2000/svg" x="0" y="0" viewBox="0 0 100 60" xml:space="preserve"><style>.st0{fill:#9f221f}</style><path class="st0" d="M39.21 23.86h2.57V19h2.71v4.86h3.61v2.29h-3.47v7.15s-.14.97.56.97h2.91v2.36h-3.89c-.23-.01-.47-.01-.7-.02-.12-.02-.88-.12-1.38-.82-.43-.6-.37-1.24-.35-1.39v-8.26h-2.57v-2.28z"/><path d="M75.01 24v9.16s0 3.47 3.19 3.47h5.27v.97s.14 1.11-1.25 1.11H75v2.36h8.19s3.19-.42 3.19-4.44V24h-2.91v10.34h-4.16s-1.39-.07-1.39-2.01c0-2.5-.14-8.33-.14-8.33h-2.77zM56.97 23.99h-7.91l-.14 17.07h2.92v-4.44h5.27s4.02-.55 4.02-6.66c0-6.1-4.16-5.97-4.16-5.97zm-.99 10.41h-4.14v-8.19h4.14s2.79.14 2.79 4.03c0 3.88-2.79 4.16-2.79 4.16zM70.71 24h-8.33v2.08h6.52c2.22 0 2.36 1.39 2.36 1.39V29h-5.83s-3.89-.06-3.89 3.47c0 3.89 3.33 4.16 3.33 4.16h9.16v-9.44c0-3.33-3.32-3.19-3.32-3.19zm.42 10.41H66s-1.25 0-1.25-1.67S66 31.21 66 31.21h5.13v3.2z"/><path class="st0" d="M33.31 24a6.31 6.31 0 106.31 6.31c.01-3.48-2.82-6.31-6.31-6.31zm2.16 10.04h-4.6s-.68-.05-.68-.68v-2.98s0-.68.68-.68v-2.17s0-.81.81-.81h2.98s.81 0 .81.68v2.3s.69-.02.68.68c-.01.81 0 2.98 0 2.98s.14.68-.68.68z"/><path class="st0" d="M34.05 27.47H32.3c-.4 0-.72.32-.72.72v.78c0 .4.32.72.72.72h1.75c.4 0 .72-.32.72-.72v-.78c0-.4-.32-.72-.72-.72zM23.12 18.93V24h-4.06s-5.45.21-5.45 6.45 5.45 6.24 5.45 6.24h7.04V18.93h-2.98zm0 15.48h-4.15s-2.79-.14-2.79-4.02 2.79-4.16 2.79-4.16h4.15v8.18z"/></svg>