<svg xmlns="http://www.w3.org/2000/svg" width="101" height="61" style="&#10;"><g transform="matrix(1 0 0 -1 0 61)" fill="none" fill-rule="evenodd"><rect fill="#FFF" x=".188" y=".153" width="100" height="60" rx="4"/><path d="M 50.8362 18.6758 C 50.9029 19.3321 50.9984 19.9934 51.1535 20.6409 C 51.1881 20.7851 51.4364 20.9852 51.5815 20.9812 C 52.8898 20.9463 53.6519 21.7194 54.4361 22.6203 C 55.1772 23.4714 54.8821 24.3063 54.7129 25.1777 C 54.3775 26.9045 54.0191 28.6269 53.6756 30.352 C 53.4088 31.6924 53.1488 33.0343 52.8887 34.3763 C 52.8502 34.5749 52.828 34.7765 52.7862 35.0571 C 53.7374 34.9248 54.6296 34.9355 55.4654 34.5218 C 56.1023 34.2066 56.0273 33.6147 56.1267 33.1018 C 56.4259 31.5564 56.6869 30.0038 56.96 28.4536 C 57.0301 28.0555 57.0899 27.6557 57.1789 27.1054 C 57.869 28.2603 58.4855 29.2721 59.0822 30.2952 C 59.822 31.5639 60.5201 32.8568 61.2866 34.1093 C 61.6331 34.6754 62.3026 34.8161 62.9098 34.9123 C 63.6191 35.0248 64.3472 35.0208 65.2184 35.0772 C 64.9982 34.6527 64.8519 34.3253 64.6669 34.0203 C 62.7527 30.864 60.8432 27.7051 58.9086 24.5608 C 58.12 23.2791 57.3289 21.9926 56.4374 20.7812 C 55.6887 19.7635 54.71 18.9738 53.3674 18.7148 C 52.5308 18.6758 51.7082 18.6758 50.8355 18.6758 Z M 13.9785 29.4977 C 14.3357 30.3604 14.5803 31.248 15.0725 31.9717 C 16.2065 33.6382 17.8187 34.6281 19.8667 34.9415 C 21.5831 35.2043 23.0848 34.7487 24.3652 33.6819 C 25.7652 32.5152 25.9539 29.9162 24.1704 28.7563 C 23.0743 28.0435 21.9035 27.6569 20.6136 27.6567 C 19.3406 27.6565 18.0674 27.7346 16.7634 27.7793 C 16.7497 27.3476 17.1075 26.9795 17.5556 26.8167 C 18.3244 26.5372 19.1295 26.3314 19.9362 26.1849 C 20.555 26.0726 21.2009 26.0584 21.8325 26.0766 C 22.3673 26.092 22.8988 26.2166 23.4297 26.2926 C 23.6499 25.1461 22.99 24.0708 21.6174 23.7696 C 19.778 23.366 17.9498 23.3259 16.2267 24.2693 C 14.9704 24.9571 14.2603 26.0104 14.0194 27.4216 C 13.9791 28.107 13.9791 28.7777 13.9791 29.4979 M 20.5807 32.6027 C 20.4476 32.5693 20.316 32.5277 20.181 32.5039 C 18.7637 32.2525 17.7621 31.4704 17.1082 30.2117 C 17.2396 30.1564 17.3344 30.0823 17.4296 30.0814 C 18.5141 30.0733 19.6059 30.0033 20.6805 30.1061 C 21.2679 30.1624 21.851 30.4698 22.3899 30.7503 C 22.8543 30.992 22.8622 31.5567 22.5261 31.9415 C 22.0281 32.5114 21.3095 32.4374 20.5808 32.6024 Z M 86.0962 29.4912 C 85.7384 28.5178 85.4733 27.5449 85.0035 26.6798 C 84.0427 24.9104 82.5079 23.9025 80.4636 23.6246 C 79.2975 23.466 78.1605 23.4767 77.0494 23.8536 C 75.5951 24.3469 74.3196 25.8543 74.3086 27.5604 C 74.2971 29.3277 74.6046 30.9652 75.6781 32.4204 C 76.6364 33.7193 77.8996 34.5018 79.4989 34.8388 C 80.7434 35.1012 81.9603 35.113 83.154 34.71 C 84.7609 34.1675 85.8807 32.9106 86.0554 31.2515 C 86.0962 30.6708 86.0962 30.1056 86.0962 29.491 M 80.2304 32.4697 C 79.7801 32.2358 79.2828 32.061 78.8887 31.7564 C 77.8474 30.9522 77.3964 29.8078 77.2259 28.5564 C 77.1133 27.73 77.472 26.5187 78.3683 26.2384 C 79.3272 25.9384 80.2629 25.9272 81.1126 26.4919 C 82.6259 27.4978 83.2138 28.9668 83.0865 30.7171 C 83.0428 31.3164 82.7715 31.843 82.1971 32.1899 C 81.6015 32.5498 80.9626 32.4985 80.2302 32.4694 Z M 29.2799 27.4186 C 29.0658 26.4752 28.8517 25.5319 28.6381 24.5885 C 28.4786 23.8841 28.0429 23.5332 27.3191 23.5314 C 26.6273 23.5297 25.9354 23.531 25.1982 23.531 C 25.4735 24.8565 25.7392 26.137 26.0052 27.4174 C 26.3834 29.2366 26.7645 31.0552 27.1393 32.875 C 27.4729 34.4953 27.7969 36.1176 28.1317 37.7377 C 28.1992 38.0637 28.3795 38.2559 28.7513 38.317 C 29.7053 38.4736 30.6518 38.6754 31.6176 38.9003 C 32.7063 38.9413 33.7786 38.9413 34.9157 38.9016 C 35.5057 38.6715 36.0306 38.4809 36.5565 38.2479 C 36.1645 37.1432 35.7716 36.081 35.3416 35.0381 C 35.2104 35.9604 34.3624 36.7328 33.4587 36.6255 C 32.8827 36.5571 32.2956 36.5766 31.7205 36.5031 C 31.3668 36.4579 31.0482 36.402 30.9679 35.8717 C 30.7689 34.557 30.4451 33.2609 30.1791 31.9558 C 29.9512 30.8376 29.7339 29.7176 29.495 28.5614 C 29.4122 28.1561 29.3461 27.7877 29.28 27.4192 Z M 49.6391 24.7576 C 49.5712 24.4116 49.5573 24.0965 49.4687 23.8033 C 49.4336 23.6874 49.2342 23.5457 49.1066 23.5428 C 48.146 23.5211 47.1844 23.531 46.2042 23.531 C 46.1927 23.7102 46.183 23.8595 46.1729 24.0174 C 44.5057 22.9596 41.5746 23.3022 40.1487 24.5937 C 39.4235 25.2504 39.0744 26.1446 38.9209 27.0816 C 38.6247 28.8863 39.0606 30.5534 40.0901 32.0558 C 41.2182 33.7017 42.7702 34.6804 44.8014 34.9418 C 46.4676 35.1564 48.0745 34.8396 49.6911 34.569 C 50.2161 34.4812 50.7347 34.3366 51.2408 34.1717 C 51.3685 34.1302 51.54 33.8906 51.517 33.7763 C 51.12 31.8196 50.6896 29.8698 50.2794 27.9159 C 50.0615 26.8788 49.8678 25.8368 49.6393 24.7573 M 46.1794 26.32 C 46.4219 26.6339 46.7945 26.9157 46.8837 27.2674 C 47.2025 28.5221 47.4337 29.7991 47.679 31.0711 C 47.7575 31.4781 47.9647 32.058 47.7776 32.2686 C 47.5393 32.5367 46.9602 32.5103 46.5279 32.6104 C 46.511 32.6144 46.4922 32.6113 46.4755 32.6158 C 45.4274 32.9096 44.4898 32.5458 43.6977 31.965 C 42.2356 30.893 41.9818 29.3008 42.1431 27.6433 C 42.2342 26.7101 42.8564 26.074 43.7888 25.887 C 44.5855 25.7272 45.3891 25.8386 46.1796 26.3199 Z M 64.1253 30.203 C 64.7748 32.4725 66.1011 34.0664 68.4095 34.7415 C 69.6212 35.0958 70.8617 35.1141 72.1031 34.9169 C 72.6141 34.8356 73.1165 34.7026 73.624 34.5969 C 74.0807 34.5017 74.1975 34.2349 74.0864 33.8034 C 73.9546 33.2908 73.8594 32.7692 73.7297 32.1653 C 73.1945 32.2926 72.6368 32.4254 72.0788 32.5579 C 69.5228 33.1648 67.2431 31.8685 66.8224 29.2022 C 66.5292 27.3439 67.496 26.2129 68.5966 25.9999 C 69.5677 25.812 70.5478 25.975 71.4742 26.3556 C 71.8369 26.5046 72.2005 26.6511 72.5942 26.8112 C 72.4481 26.0335 72.3419 25.2763 72.1464 24.5423 C 72.0866 24.3183 71.8127 24.0549 71.5827 23.9863 C 70.5977 23.6929 69.5973 23.4866 68.5474 23.5215 C 66.3578 23.5943 64.5101 24.9447 64.0917 27.0746 C 63.8965 28.0685 64.0825 29.1351 64.1253 30.203 Z M 29.9691 27.7624 C 30.5466 28.1443 31.1763 28.5069 31.789 28.8954 C 34.1 30.3608 35.8545 32.3383 37.2164 34.6726 C 37.5107 35.1769 37.7959 35.6865 38.1235 36.2037 C 38.9372 34.0824 38.5633 32.0905 37.3146 30.2585 C 36.1672 28.575 34.5618 27.5769 32.4573 27.5544 C 31.6434 27.5457 30.828 27.6838 29.9694 27.7626 Z" fill="#150647"/><path d="M 29.314 27.4346 C 29.3461 27.7869 29.4122 28.1555 29.5327 28.5617 C 30.4306 29.2327 31.3367 29.8008 32.1041 30.5139 C 33.4851 31.7971 34.5253 33.348 35.3787 35.0182 C 35.7716 36.0804 36.1645 37.1426 36.5948 38.2555 C 36.9992 38.5177 37.3661 38.7292 37.733 38.9407 C 37.8132 38.9407 37.8934 38.9407 38.0139 38.9407 C 38.1607 38.7674 38.2388 38.5669 38.3789 38.426 C 38.8549 37.9472 38.7643 37.4514 38.4833 36.9274 C 38.3723 36.7201 38.2894 36.4982 38.1394 36.2384 C 37.7954 35.6868 37.5105 35.1772 37.2159 34.6727 C 35.8541 32.3384 34.0995 30.361 31.7885 28.8955 C 31.1758 28.5071 30.5463 28.1447 29.9246 27.7702 C 29.7324 27.6636 29.5401 27.5572 29.3141 27.4346 Z" fill="#fe6720"/></g></svg>