<?xml version="1.0" encoding="utf-8"?>
<!-- Generator: Adobe Illustrator 23.1.1, SVG Export Plug-In . SVG Version: 6.00 Build 0)  -->
<svg version="1.1" id="Layer_1" xmlns="http://www.w3.org/2000/svg" xmlns:xlink="http://www.w3.org/1999/xlink" x="0px" y="0px"
	 viewBox="0 0 100 60" style="enable-background:new 0 0 100 60;" xml:space="preserve">
<style type="text/css">
	.st0{fill-rule:evenodd;clip-rule:evenodd;fill:url(#SVGID_1_);}
	.st1{fill-rule:evenodd;clip-rule:evenodd;fill:#FFFFFF;}
</style>
<linearGradient id="SVGID_1_" gradientUnits="userSpaceOnUse" x1="0" y1="30" x2="100" y2="30">
	<stop  offset="0.3" style="stop-color:#00B4E6"/>
	<stop  offset="1" style="stop-color:#088CCB"/>
</linearGradient>
<rect class="st0" width="100" height="60"/>
<g id="g5">
	<path id="path7" class="st1" d="M34.7,20.6L34.7,20.6c0,0-2.6,0-3.3,2.5c-0.6,2.3-2.4,8.5-2.5,8.7h-0.5c0,0-1.8-6.4-2.5-8.7
		c-0.7-2.5-3.3-2.5-3.3-2.5h-5.9v18.7h5.9V28.2h0.2h0.2l3.4,11.1h4.1l3.4-11.1h0.5v11.1h5.9V20.6H34.7z"/>
</g>
<g id="g9">
	<path id="path11" class="st1" d="M56.3,20.6c0,0-1.7,0.2-2.5,2l-4.2,9.2h-0.5V20.6h-5.9v18.7h5.6l0,0c0,0,1.8-0.2,2.6-2l4.1-9.2
		h0.5v11.1h5.9V20.6H56.3z"/>
</g>
<g id="g13">
	<path id="path15" class="st1" d="M64.4,29.1v10.2h5.9v-6h6.4c2.8,0,5.1-1.8,6-4.3H64.4z"/>
</g>
<g id="g17">
	<path id="path24" class="st1" d="M76.7,20.6H63.6c0.7,3.6,3.3,6.4,6.8,7.4l0,0c0.8,0.2,1.6,0.3,2.5,0.3h10.1
		c0.1-0.4,0.1-0.9,0.1-1.3C83.1,23.5,80.2,20.6,76.7,20.6z"/>
</g>
</svg>
