<svg width="100" height="60" xmlns="http://www.w3.org/2000/svg"><linearGradient id="a" gradientUnits="userSpaceOnUse" x1="100" y1="2802.646" x2=".27" y2="2802.646" gradientTransform="translate(0 -2772.646)"><stop offset="0" stop-color="#052554"/><stop offset="1" stop-color="#4b34b3"/></linearGradient><rect fill="url(#a)" width="100" height="60" rx="4"/><path fill="#FFF" d="M38 23.3c.6-.8 1.4-1.4 2.3-1.9.9-.5 2-.7 3-.7.9 0 1.8.2 2.5.5.7.4 1.3.9 1.8 1.5.5.7.8 1.4 1 2.2.2.9.3 1.8.3 2.7 0 1.3-.2 2.6-.6 3.9-.4 1.2-.9 2.3-1.7 3.2-.7.9-1.6 1.6-2.5 2.2-1 .5-2.1.8-3.3.8-1 0-2.1-.2-3-.7-.9-.5-1.6-1.2-2.2-2.1l-1.8 8.2h-3.5l4.7-22h3.4c0 .1-.4 2.2-.4 2.2zm-1.5 7.8c0 1 .3 1.9.9 2.7.6.7 1.5 1 2.8 1 .8 0 1.5-.2 2.1-.6.6-.4 1.2-1 1.6-1.6.5-.7.8-1.5 1-2.3.2-.9.3-1.8.3-2.7 0-1.3-.3-2.3-.9-3-.6-.7-1.4-1-2.2-1-.6 0-1.2.1-1.8.4s-1.1.6-1.5 1c-.5.4-.9.9-1.2 1.5-.3.6-.6 1.2-.7 1.8-.2.9-.4 1.8-.4 2.8zm18.1 6.5c-1.4 0-2.5-.4-3.4-1.1s-1.3-1.8-1.3-3.2c0-1 .2-2 .7-2.8.5-.7 1.2-1.4 2-1.8.9-.5 1.8-.8 2.8-.9 1.1-.2 2.2-.3 3.3-.3l2.9-.1.1-.5c.1-.4.1-.7.1-1 0-.6-.2-1.3-.7-1.7-.4-.4-1.1-.6-2.1-.6-1.1 0-2 .1-2.5.5s-1 .9-1.3 1.7l-3.2-.3c.5-1.6 1.4-2.8 2.6-3.5s2.8-1 4.8-1c1.9 0 3.3.4 4.3 1.3s1.5 2 1.5 3.6c0 .3 0 .6-.1.9 0 .3-.1.6-.2 1L63 37.2h-3.3l.4-2.1c-.7.7-1.5 1.3-2.3 1.8-1 .5-2.1.7-3.2.7zm6.6-8l-2.4.1c-.9 0-1.7.1-2.6.3-.6.1-1.2.3-1.7.6-.4.2-.7.6-.9 1-.2.4-.3.9-.3 1.3 0 .5.2 1 .6 1.4.4.4.9.6 1.7.6.6 0 1.2-.1 1.8-.3.6-.2 1.1-.5 1.5-.8.5-.3.9-.8 1.2-1.2.3-.5.5-1 .7-1.6.1-.1.4-1.4.4-1.4zm6.1-8.4h3.9l2 11.5 6.4-11.5h4l-10.3 17c-.5.8-.9 1.5-1.4 2.2-.4.6-.8 1.1-1.3 1.5-.4.4-1 .7-1.5.9-.6.2-1.3.3-2 .3-.5 0-.9 0-1.4-.1-.4-.1-.8-.2-1.2-.4l.9-2.7c.2.1.5.2.8.2.3.1.6.1.9.1.5 0 1.1-.2 1.5-.5.5-.5.9-1.1 1.3-1.7l.9-1.6-3.5-15.2zM25.8 32.1c0 .2-.1.4-.1.5v.5c0 .6.1 1 .5 1.2.4.2.8.4 1.2.3.6 0 1.3-.1 1.9-.3l.5 2.6c-1 .3-2.1.5-3.2.5-1.4 0-2.5-.3-3.3-1s-1.1-1.6-1.1-2.9c0-.6.1-1.1.2-1.7l1.7-8h-7.7L17 21h7.7l.9-4.3H29l-.9 4.3h4.3l-.6 2.8h-4.3c0 .1-1.7 8.3-1.7 8.3z"/></svg>