<svg version="1.1" id="Layer_1" xmlns="http://www.w3.org/2000/svg" x="0" y="0" viewBox="0 0 100 60" xml:space="preserve"><style>.st0{fill:#192852}</style><g id="Warstwa_2_1_"><g id="Warstwa_1-2_1_"><path class="st0" d="M37.98 23.28c.62-.79 1.4-1.44 2.28-1.92.92-.48 1.95-.72 2.99-.71.88-.02 1.75.16 2.54.54.69.35 1.3.86 1.76 1.48.48.66.82 1.41 1.02 2.21.22.88.33 1.78.32 2.68.01 1.32-.2 2.64-.61 3.9a10.65 10.65 0 01-1.68 3.22 8.22 8.22 0 01-2.54 2.19c-1 .54-2.13.81-3.26.8-1.05.03-2.09-.19-3.03-.65a5.57 5.57 0 01-2.16-2.12l-1.76 8.25h-3.51L35 21.16h3.42l-.44 2.12zm-1.51 7.83c-.05.98.28 1.95.92 2.69.62.68 1.54 1.02 2.77 1.02.76.01 1.5-.2 2.14-.6.64-.41 1.18-.97 1.59-1.62.45-.72.79-1.51 1-2.34.23-.89.34-1.81.34-2.73 0-1.29-.29-2.28-.86-2.96a2.817 2.817 0 00-2.25-1.02c-.62-.01-1.24.11-1.81.35-.57.24-1.09.57-1.54.98-.47.43-.86.93-1.17 1.48-.32.57-.56 1.19-.7 1.83-.22.97-.37 1.94-.43 2.92zM54.56 37.58c-1.42 0-2.55-.38-3.39-1.13s-1.26-1.84-1.26-3.25c-.04-.99.22-1.98.74-2.83.5-.74 1.18-1.35 1.98-1.75.89-.45 1.84-.77 2.83-.92 1.1-.19 2.21-.3 3.33-.34l2.92-.12.09-.49c.06-.35.09-.7.09-1.05.04-.64-.2-1.27-.65-1.72-.43-.41-1.13-.62-2.12-.62-1.11 0-1.95.15-2.53.45s-1.01.88-1.33 1.74l-3.17-.34c.51-1.64 1.38-2.81 2.59-3.5s2.81-1.03 4.8-1.03c1.87 0 3.3.43 4.28 1.28.99.85 1.49 2.05 1.51 3.59 0 .3-.02.6-.06.89-.04.31-.09.63-.16.96l-2.08 9.79h-3.33l.43-2.09c-.69.7-1.48 1.31-2.34 1.8-.98.48-2.07.72-3.17.68zm6.62-8.02l-2.37.12c-.87.04-1.74.15-2.59.32-.59.11-1.15.32-1.66.63-.38.23-.68.57-.88.97-.18.41-.27.86-.26 1.31 0 .51.2 1.01.57 1.37.38.38.94.57 1.7.57.62.01 1.23-.09 1.82-.28.56-.18 1.08-.45 1.55-.8.46-.34.86-.75 1.17-1.23.32-.49.54-1.04.66-1.62l.29-1.36zM67.32 21.16h3.88l2.03 11.55 6.41-11.55h4l-10.32 17c-.49.82-.95 1.55-1.37 2.17-.37.57-.82 1.09-1.32 1.55-.45.4-.97.72-1.53.94-.63.23-1.3.34-1.98.32-.47 0-.95-.04-1.41-.14a7.83 7.83 0 01-1.25-.38l.92-2.65c.23.08.48.16.77.23.3.07.61.11.92.11.54.03 1.08-.16 1.49-.51.51-.5.94-1.08 1.28-1.71l.92-1.57-3.44-15.36zM25.8 32.06c-.04.2-.08.38-.11.54-.03.16-.05.32-.05.48 0 .6.15 1.01.45 1.23.36.24.79.36 1.22.34.65 0 1.29-.09 1.91-.28l.52 2.62c-1.05.34-2.14.5-3.24.49-1.41 0-2.5-.32-3.26-.96-.76-.64-1.14-1.6-1.13-2.89 0-.57.07-1.14.21-1.7l1.7-8.01h-7.67l.58-2.77h7.66l.92-4.3h3.51l-.92 4.31h4.29l-.58 2.77h-4.29l-1.72 8.13z"/></g></g></svg>