<?xml version="1.0" encoding="utf-8"?>
<!-- Generator: Adobe Illustrator 23.1.1, SVG Export Plug-In . SVG Version: 6.00 Build 0)  -->
<svg version="1.1" id="Layer_1" xmlns="http://www.w3.org/2000/svg" xmlns:xlink="http://www.w3.org/1999/xlink" x="0px" y="0px"
	 viewBox="0 0 100 60" style="enable-background:new 0 0 100 60;" xml:space="preserve">
<style type="text/css">
	.st0{fill:url(#SVGID_1_);}
	.st1{fill:#FFFFFF;}
</style>
<linearGradient id="SVGID_1_" gradientUnits="userSpaceOnUse" x1="100" y1="32" x2="0.2727" y2="32" gradientTransform="matrix(1 0 0 -1 0 62)">
	<stop  offset="0" style="stop-color:#052554"/>
	<stop  offset="1" style="stop-color:#4B34B3"/>
</linearGradient>
<path class="st0" d="M0.27,0H100v60H0.27V0z"/>
<g id="Warstwa_2">
	<g id="Warstwa_1-2">
		<path class="st1" d="M37.98,23.28c0.62-0.79,1.4-1.44,2.28-1.92c0.92-0.48,1.95-0.72,2.99-0.71c0.88-0.02,1.75,0.16,2.54,0.54
			c0.69,0.35,1.3,0.86,1.76,1.48c0.48,0.66,0.82,1.41,1.02,2.21c0.22,0.88,0.33,1.78,0.32,2.68c0.01,1.32-0.2,2.64-0.61,3.9
			c-0.37,1.16-0.94,2.25-1.68,3.22c-0.69,0.9-1.55,1.64-2.54,2.19c-1,0.54-2.13,0.81-3.26,0.8c-1.05,0.03-2.09-0.19-3.03-0.65
			c-0.9-0.49-1.65-1.23-2.16-2.12l-1.76,8.25h-3.51L35,21.16h3.42L37.98,23.28z M36.47,31.11c-0.05,0.98,0.28,1.95,0.92,2.69
			c0.62,0.68,1.54,1.02,2.77,1.02c0.76,0.01,1.5-0.2,2.14-0.6c0.64-0.41,1.18-0.97,1.59-1.62c0.45-0.72,0.79-1.51,1-2.34
			c0.23-0.89,0.34-1.81,0.34-2.73c0-1.29-0.29-2.28-0.86-2.96c-0.55-0.67-1.38-1.04-2.25-1.02c-0.62-0.01-1.24,0.11-1.81,0.35
			c-0.57,0.24-1.09,0.57-1.54,0.98c-0.47,0.43-0.86,0.93-1.17,1.48c-0.32,0.57-0.56,1.19-0.7,1.83
			C36.68,29.16,36.53,30.13,36.47,31.11z"/>
		<path class="st1" d="M54.56,37.58c-1.42,0-2.55-0.38-3.39-1.13s-1.26-1.84-1.26-3.25c-0.04-0.99,0.22-1.98,0.74-2.83
			c0.5-0.74,1.18-1.35,1.98-1.75c0.89-0.45,1.84-0.77,2.83-0.92c1.1-0.19,2.21-0.3,3.33-0.34l2.92-0.12l0.09-0.49
			c0.06-0.35,0.09-0.7,0.09-1.05c0.04-0.64-0.2-1.27-0.65-1.72c-0.43-0.41-1.13-0.62-2.12-0.62c-1.11,0-1.95,0.15-2.53,0.45
			s-1.01,0.88-1.33,1.74l-3.17-0.34c0.51-1.64,1.38-2.81,2.59-3.5c1.21-0.69,2.81-1.03,4.8-1.03c1.87,0,3.3,0.43,4.28,1.28
			c0.99,0.85,1.49,2.05,1.51,3.59c0,0.3-0.02,0.6-0.06,0.89c-0.04,0.31-0.09,0.63-0.16,0.96l-2.08,9.79h-3.33l0.43-2.09
			c-0.69,0.7-1.48,1.31-2.34,1.8C56.75,37.38,55.66,37.62,54.56,37.58z M61.18,29.56l-2.37,0.12c-0.87,0.04-1.74,0.15-2.59,0.32
			c-0.59,0.11-1.15,0.32-1.66,0.63c-0.38,0.23-0.68,0.57-0.88,0.97c-0.18,0.41-0.27,0.86-0.26,1.31c0,0.51,0.2,1.01,0.57,1.37
			c0.38,0.38,0.94,0.57,1.7,0.57c0.62,0.01,1.23-0.09,1.82-0.28c0.56-0.18,1.08-0.45,1.55-0.8c0.46-0.34,0.86-0.75,1.17-1.23
			c0.32-0.49,0.54-1.04,0.66-1.62L61.18,29.56z"/>
		<path class="st1" d="M67.32,21.16h3.88l2.03,11.55l6.41-11.55h4l-10.32,17c-0.49,0.82-0.95,1.55-1.37,2.17
			c-0.37,0.57-0.82,1.09-1.32,1.55c-0.45,0.4-0.97,0.72-1.53,0.94c-0.63,0.23-1.3,0.34-1.98,0.32c-0.47,0-0.95-0.04-1.41-0.14
			c-0.43-0.09-0.84-0.22-1.25-0.38l0.92-2.65c0.23,0.08,0.48,0.16,0.77,0.23c0.3,0.07,0.61,0.11,0.92,0.11
			c0.54,0.03,1.08-0.16,1.49-0.51c0.51-0.5,0.94-1.08,1.28-1.71l0.92-1.57L67.32,21.16z"/>
		<path class="st1" d="M25.8,32.06c-0.04,0.2-0.08,0.38-0.11,0.54c-0.03,0.16-0.05,0.32-0.05,0.48c0,0.6,0.15,1.01,0.45,1.23
			c0.36,0.24,0.79,0.36,1.22,0.34c0.65,0,1.29-0.09,1.91-0.28l0.52,2.62c-1.05,0.34-2.14,0.5-3.24,0.49c-1.41,0-2.5-0.32-3.26-0.96
			c-0.76-0.64-1.14-1.6-1.13-2.89c0-0.57,0.07-1.14,0.21-1.7l1.7-8.01h-7.67l0.58-2.77h7.66l0.92-4.3h3.51l-0.92,4.31h4.29
			l-0.58,2.77h-4.29L25.8,32.06z"/>
	</g>
</g>
</svg>
