<svg viewBox="0 0 24 24" fill="none" xmlns="http://www.w3.org/2000/svg"><path d="M3.672 10.87c0-2.52 0-3.78.49-4.743A4.5 4.5 0 0 1 6.13 4.161c.963-.491 2.223-.491 4.743-.491h2.27c2.52 0 3.78 0 4.743.49a4.5 4.5 0 0 1 1.966 1.967c.49.963.49 2.223.49 4.743v2.27c0 2.52 0 3.78-.49 4.743a4.5 4.5 0 0 1-1.966 1.967c-.963.49-2.223.49-4.743.49h-2.27c-2.52 0-3.78 0-4.743-.49a4.5 4.5 0 0 1-1.967-1.967c-.49-.963-.49-2.223-.49-4.743v-2.27h-.001z" fill="url(#paint0_radial_29_159)"/><path d="M3.672 10.87c0-2.52 0-3.78.49-4.743A4.5 4.5 0 0 1 6.13 4.161c.963-.491 2.223-.491 4.743-.491h2.27c2.52 0 3.78 0 4.743.49a4.5 4.5 0 0 1 1.966 1.967c.49.963.49 2.223.49 4.743v2.27c0 2.52 0 3.78-.49 4.743a4.5 4.5 0 0 1-1.966 1.967c-.963.49-2.223.49-4.743.49h-2.27c-2.52 0-3.78 0-4.743-.49a4.5 4.5 0 0 1-1.967-1.967c-.49-.963-.49-2.223-.49-4.743v-2.27h-.001z" fill="url(#paint1_radial_29_159)"/><path d="M12 6.167c-1.584 0-1.783.007-2.405.035-.62.028-1.045.127-1.416.27a2.88 2.88 0 0 0-1.033.674c-.324.324-.524.65-.673 1.033-.145.37-.243.795-.271 1.416-.028.622-.035.82-.035 2.405 0 1.584.007 1.782.035 2.405.028.62.127 1.045.27 1.415.15.384.35.71.674 1.034.324.324.65.524 1.033.673.37.144.795.243 1.416.271.622.028.82.035 2.405.035 1.584 0 1.782-.007 2.405-.035.62-.028 1.045-.127 1.416-.271a2.84 2.84 0 0 0 1.033-.673c.324-.325.524-.65.673-1.033.143-.371.242-.796.271-1.416.028-.622.035-.82.035-2.405 0-1.584-.007-1.783-.035-2.405-.03-.621-.127-1.045-.27-1.416a2.864 2.864 0 0 0-.674-1.033 2.85 2.85 0 0 0-1.033-.673c-.372-.144-.796-.243-1.417-.271-.623-.028-.82-.035-2.405-.035H12zm-.523 1.05h.524c1.557 0 1.742.006 2.357.034.569.026.877.121 1.083.201.272.106.466.232.67.437.204.204.33.398.437.67.08.206.175.514.2 1.083.028.615.035.8.035 2.357 0 1.556-.007 1.741-.034 2.356-.026.569-.121.877-.201 1.083a1.805 1.805 0 0 1-.437.67c-.204.204-.398.33-.67.436-.206.08-.514.175-1.083.201-.615.028-.8.034-2.357.034-1.558 0-1.743-.006-2.358-.034-.568-.026-.877-.121-1.083-.2a1.807 1.807 0 0 1-.67-.437 1.807 1.807 0 0 1-.437-.67c-.08-.206-.175-.515-.201-1.083-.028-.615-.034-.8-.034-2.358s.006-1.741.034-2.356c.026-.569.121-.878.2-1.083a1.82 1.82 0 0 1 .437-.671 1.81 1.81 0 0 1 .671-.437c.206-.08.515-.175 1.083-.2.538-.025.747-.032 1.834-.034v.002-.001zm3.637.97a.7.7 0 1 0 0 1.4.7.7 0 0 0 0-1.4zM12 9.003a2.997 2.997 0 1 0 0 5.993 2.997 2.997 0 0 0 0-5.993zm0 1.052a1.944 1.944 0 1 1 0 3.89 1.944 1.944 0 0 1 0-3.891v.001z" fill="#fff"/><defs><radialGradient id="paint0_radial_29_159" cx="0" cy="0" r="1" gradientUnits="userSpaceOnUse" gradientTransform="matrix(0 -16.5212 15.366 0 8.1 21.624)"><stop stop-color="#FD5"/><stop offset=".1" stop-color="#FD5"/><stop offset=".5" stop-color="#FF543E"/><stop offset="1" stop-color="#C837AB"/></radialGradient><radialGradient id="paint1_radial_29_159" cx="0" cy="0" r="1" gradientUnits="userSpaceOnUse" gradientTransform="matrix(1.44952 7.24139 -29.84936 5.975 .88 4.87)"><stop stop-color="#3771C8"/><stop offset=".128" stop-color="#3771C8"/><stop offset="1" stop-color="#60F" stop-opacity="0"/></radialGradient></defs></svg>