<svg viewBox="0 0 24 24" xmlns="http://www.w3.org/2000/svg" class="icon" fill="currentColor">
    <path d="M7.078 23.55a5.378 5.378 0 0 1-1.244-1.15c-.383-.463-.738-.95-1.064-1.454a14.065 14.065 0 0 1-1.78-3.636c-.5-1.502-.743-2.94-.743-4.347 0-1.57.34-2.94 1.002-4.09a5.78 5.78 0 0 1 2.1-2.182 5.6 5.6 0 0 1 2.84-.84c.35 0 .73.05 1.13.15.29.08.64.21 1.07.37.55.21.85.34.95.37.32.12.59.17.8.17.16 0 .39-.05.645-.13.145-.05.42-.14.81-.31.386-.14.692-.26.935-.35.37-.11.728-.21 1.05-.26.39-.06.777-.08 1.148-.05.71.05 1.36.2 1.94.42 1.02.41 1.843 1.05 2.457 1.96-.26.16-.5.346-.725.55-.487.43-.9.94-1.23 1.505a5.1 5.1 0 0 0-.644 2.52c.015 1.083.29 2.035.84 2.86a5.33 5.33 0 0 0 1.534 1.536c.31.21.582.355.84.45-.12.375-.252.74-.405 1.1-.347.807-.76 1.58-1.25 2.31-.432.63-.772 1.1-1.03 1.41-.402.48-.79.84-1.18 1.097-.43.285-.935.436-1.452.436-.35.015-.7-.03-1.034-.127-.29-.095-.576-.202-.856-.323a6.94 6.94 0 0 0-.905-.34 4.52 4.52 0 0 0-1.164-.147c-.4 0-.79.05-1.16.145-.31.088-.61.196-.907.325-.42.175-.695.29-.855.34a4.47 4.47 0 0 1-.99.175c-.52 0-1.004-.15-1.486-.45zm6.854-18.46c-.68.34-1.326.484-1.973.436-.1-.646 0-1.31.27-2.037.24-.62.56-1.18 1-1.68.46-.52 1.01-.95 1.63-1.26.66-.34 1.29-.52 1.89-.55.08.68 0 1.35-.25 2.07a5.938 5.938 0 0 1-1 1.76c-.435.52-.975.95-1.586 1.26z"/>
</svg>
