<svg viewBox="0 0 24 24" xmlns="http://www.w3.org/2000/svg" class="icon" fill="currentColor">
    <path d="M6.938 4.503c.702 0 1.34.06 1.92.188.577.13 1.07.33 1.485.61.41.28.733.65.96 1.12.225.47.34 1.05.34 1.73 0 .74-.17 1.36-.507 1.86-.338.5-.837.9-1.502 1.22.906.26 1.576.72 2.022 1.37.448.66.665 1.45.665 2.36 0 .75-.13 1.39-.41 1.93-.28.55-.67 1-1.16 1.35-.48.348-1.05.6-1.67.767a7.316 7.316 0 0 1-1.91.254H0V4.51h6.938v-.007zM16.94 16.665c.44.428 1.073.643 1.894.643.59 0 1.1-.148 1.53-.447.424-.29.68-.61.78-.94h2.588c-.403 1.28-1.048 2.2-1.9 2.75-.85.56-1.884.83-3.08.83-.837 0-1.584-.13-2.272-.4a4.948 4.948 0 0 1-1.72-1.14 5.1 5.1 0 0 1-1.077-1.77c-.253-.69-.373-1.45-.373-2.27 0-.803.135-1.54.403-2.23.27-.7.644-1.28 1.12-1.79.495-.51 1.063-.895 1.736-1.194s1.4-.433 2.22-.433c.91 0 1.69.164 2.38.523a4.8 4.8 0 0 1 1.66 1.4c.44.586.75 1.26.94 2.02.19.75.25 1.54.21 2.38h-7.69c0 .84.28 1.632.71 2.065l-.08.03zm-10.24.05c.317 0 .62-.03.906-.093.29-.06.548-.165.763-.3.21-.135.39-.328.52-.583.13-.24.19-.57.19-.96 0-.75-.22-1.29-.64-1.62-.43-.32-.99-.48-1.69-.48H3.24v4.05H6.7v-.03zm13.607-5.65c-.352-.385-.94-.592-1.657-.592-.468 0-.855.074-1.166.238-.302.15-.55.35-.74.59-.19.24-.317.48-.392.75-.075.26-.12.5-.135.71h4.762c-.07-.75-.33-1.3-.68-1.69v.01zM6.52 10.45c.574 0 1.05-.134 1.425-.412.374-.27.554-.72.554-1.338 0-.344-.07-.625-.18-.846-.13-.22-.3-.39-.5-.512-.21-.124-.45-.21-.72-.257a4.426 4.426 0 0 0-.84-.074H3.23v3.44h3.29zm9.098-4.958h5.968v1.454h-5.968V5.48v.01z"/>
</svg>
