<svg viewBox="0 0 24 24" xmlns="http://www.w3.org/2000/svg" class="icon" fill="currentColor">
    <path d="M24 8.182l-.018-.087-.017-.05c-.01-.024-.018-.05-.03-.075-.003-.018-.015-.034-.02-.05l-.035-.067-.03-.05-.044-.06-.046-.045-.06-.045-.046-.03-.06-.044-.044-.04-.015-.02L12.58.19a1.024 1.024 0 0 0-1.142 0L.453 7.502l-.015.015-.044.035-.06.05-.038.04-.05.056-.037.045-.05.06c-.02.017-.03.03-.03.046l-.05.06-.02.06c-.02.01-.02.04-.03.07l-.01.05C0 8.12 0 8.15 0 8.18v7.497c0 .044.003.09.01.135l.01.046c.005.03.01.06.02.086l.015.05c.01.027.016.053.027.075l.022.05c0 .01.015.04.03.06l.03.04c.015.01.03.04.045.06l.03.04.04.04c.01.013.01.03.03.03l.06.042.04.03.01.014 10.97 7.33c.164.12.375.163.57.163s.39-.06.57-.18l10.99-7.28.014-.01.046-.037.06-.043.048-.036.052-.058.033-.045.04-.06.03-.05.03-.07.016-.052.03-.077.015-.045.03-.08v-7.5c0-.05 0-.095-.016-.14l-.014-.045.044.003zm-11.99 6.28l-3.65-2.44 3.65-2.442 3.65 2.44-3.65 2.44zm-1.034-6.674l-4.473 2.99L2.89 8.362l8.086-5.39V7.79zm-6.33 4.233l-2.582 1.73V10.3l2.582 1.726zm1.857 1.25l4.473 2.99v4.82L2.89 15.69l3.618-2.417v-.004zm6.537 2.99l4.474-2.98 3.613 2.42-8.087 5.39v-4.82zm6.33-4.23l2.583-1.72v3.456l-2.583-1.73zm-1.855-1.24L13.042 7.8V2.97l8.085 5.39-3.612 2.415v.003z"/>
</svg>
