<svg xmlns="http://www.w3.org/2000/svg" class="icon icon-tabler icon-tabler-battery-charging" width="24" height="24" viewBox="0 0 24 24" stroke-width="2" stroke="currentColor" fill="none" stroke-linecap="round" stroke-linejoin="round">
  <path stroke="none" d="M0 0h24v24H0z"/>
  <path d="M16 7h1a2 2 0 0 1 2 2v.5a.5 .5 0 0 0 .5 .5a.5 .5 0 0 1 .5 .5v3a.5 .5 0 0 1 -.5 .5a.5 .5 0 0 0 -.5 .5v.5a2 2 0 0 1 -2 2h-2" />
  <path d="M8 7H6a2 2 0 0 0 -2 2v6a2 2 0 0 0 2 2h1" />
  <polyline points="12 8 10 12 13 12 11 16" />
</svg>


