<svg xmlns="http://www.w3.org/2000/svg" class="icon icon-tabler icon-tabler-directions" width="24" height="24" viewBox="0 0 24 24" stroke-width="2" stroke="currentColor" fill="none" stroke-linecap="round" stroke-linejoin="round">
  <path stroke="none" d="M0 0h24v24H0z"/>
  <path d="M9 5h10l2 2l-2 2h-10a1 1 0 0 1 -1 -1v-2a1 1 0 0 1 1 -1" />
  <path d="M13 13h-7l-2 2l2 2h7a1 1 0 0 0 1 -1v-2a1 1 0 0 0 -1 -1" />
  <line x1="12" y1="22" x2="12" y2="17" />
  <line x1="12" y1="13" x2="12" y2="9" />
  <line x1="12" y1="5" x2="12" y2="3" />
</svg>


