<svg xmlns="http://www.w3.org/2000/svg" class="icon icon-tabler icon-tabler-ghost" width="24" height="24" viewBox="0 0 24 24" stroke-width="2" stroke="currentColor" fill="none" stroke-linecap="round" stroke-linejoin="round">
  <path stroke="none" d="M0 0h24v24H0z"/>
  <path d="M5 11a7 7 0 0 1 14 0v7a1.78 1.78 0 0 1 -3.1 1.4a1.65 1.65 0 0 0 -2.6 0a1.65 1.65 0 0 1 -2.6 0a1.65 1.65 0 0 0 -2.6 0a1.78 1.78 0 0 1 -3.1 -1.4v-7" />
  <line x1="10" y1="10" x2="10.01" y2="10" />
  <line x1="14" y1="10" x2="14.01" y2="10" />
  <path d="M10 14a3.5 3.5 0 0 0 4 0" />
</svg>


