<svg xmlns="http://www.w3.org/2000/svg" class="icon icon-tabler icon-tabler-layers-difference" width="24" height="24" viewBox="0 0 24 24" stroke-width="2" stroke="currentColor" fill="none" stroke-linecap="round" stroke-linejoin="round">
  <path stroke="none" d="M0 0h24v24H0z"/>
  <path d="M16 16v2a2 2 0 0 1 -2 2h-8a2 2 0 0 1 -2 -2v-8a2 2 0 0 1 2 -2h2v-2a2 2 0 0 1 2 -2h8a2 2 0 0 1 2 2v8a2 2 0 0 1 -2 2h-2" />
  <polyline points="8 8 16 8 16 16 8 16 8 8" stroke-dasharray="4 4" stroke-dashoffset="2" />
</svg>


