<svg xmlns="http://www.w3.org/2000/svg" class="icon icon-tabler icon-tabler-ruler" width="24" height="24" viewBox="0 0 24 24" stroke-width="2" stroke="currentColor" fill="none" stroke-linecap="round" stroke-linejoin="round">
  <path stroke="none" d="M0 0h24v24H0z"/>
  <path d="M5 4h14a1 1 0 0 1 1 1v5a1 1 0 0 1 -1 1h-7a1 1 0 0 0 -1 1v7a1 1 0 0 1 -1 1h-5a1 1 0 0 1 -1 -1v-14a1 1 0 0 1 1 -1" />
  <line x1="4" y1="8" x2="6" y2="8" />
  <line x1="4" y1="12" x2="7" y2="12" />
  <line x1="4" y1="16" x2="6" y2="16" />
  <line x1="8" y1="4" x2="8" y2="6" />
  <polyline points="12 4 12 7 " />
  <polyline points="16 4 16 6 " />
</svg>


