<svg xmlns="http://www.w3.org/2000/svg" class="icon icon-tabler icon-tabler-ticket" width="24" height="24" viewBox="0 0 24 24" stroke-width="2" stroke="currentColor" fill="none" stroke-linecap="round" stroke-linejoin="round">
  <path stroke="none" d="M0 0h24v24H0z"/>
  <line x1="15" y1="5" x2="15" y2="7" />
  <line x1="15" y1="11" x2="15" y2="13" />
  <line x1="15" y1="17" x2="15" y2="19" />
  <path d="M5 5h14a2 2 0 0 1 2 2v3a2 2 0 0 0 0 4v3a2 2 0 0 1 -2 2h-14a2 2 0 0 1 -2 -2v-3a2 2 0 0 0 0 -4v-3a2 2 0 0 1 2 -2" />
</svg>


