<svg xmlns="http://www.w3.org/2000/svg" width="20" height="15" fill="none"><mask id="a" width="20" height="15" x="0" y="0" maskUnits="userSpaceOnUse"><path fill="#fff" d="M0 0h20v15H0z"/></mask><g mask="url(#a)"><path fill="#C51918" fill-rule="evenodd" d="M0 0h20v13.75c0 .69-.56 1.25-1.25 1.25H1.25C.56 15 0 14.44 0 13.75V0z" clip-rule="evenodd"/><path fill="#C51918" fill-rule="evenodd" d="M0 0h20v15H0V0z" clip-rule="evenodd"/><path fill="#579D20" fill-rule="evenodd" d="M3 3h14v9H3V3z" clip-rule="evenodd"/><path stroke="#B6EB9A" stroke-opacity=".238" stroke-width="1.25" d="M3.625 3.625h12.75v7.75H3.625v-7.75z"/><mask id="b" width="14" height="9" x="3" y="3" maskUnits="userSpaceOnUse"><path fill="#fff" fill-rule="evenodd" d="M3 3h14v9H3V3z" clip-rule="evenodd"/><path stroke="#fff" stroke-width="1.25" d="M3.625 3.625h12.75v7.75H3.625v-7.75z"/></mask><g mask="url(#b)"><path fill="#F9FAFA" fill-rule="evenodd" d="M10.02 7.789c-.01 1.916 1.498 2.938 1.498 2.938-1.72.202-2.866-1.359-2.866-2.92 0-1.56 1.561-2.85 2.866-3.431 0 0-1.487 1.497-1.497 3.413z" clip-rule="evenodd"/></g></g></svg>