<svg width="552" height="420" viewBox="0 0 552 420" fill="none" xmlns="http://www.w3.org/2000/svg">
<g opacity="0.8" clip-path="url(#clip0_3_1397)">
<path d="M57 329.212C93.9795 341.116 93.9795 334.503 127.726 326.718" stroke="#6B7280" stroke-width="1.3"/>
<path d="M116.736 333.869C128.544 323.701 136.146 326.976 108.347 326.976" stroke="#6B7280" stroke-width="1.3"/>
<path d="M20.9609 296.629C20.8828 296.277 20.8242 295.984 20.7852 295.75C20.7461 295.516 20.7135 295.307 20.6875 295.125C20.6745 294.93 20.668 294.754 20.668 294.598C20.668 294.441 20.6615 294.272 20.6484 294.09C20.6484 293.908 20.6354 293.699 20.6094 293.465C20.5833 293.217 20.5443 292.918 20.4922 292.566C20.4531 292.306 20.362 292.13 20.2188 292.039C20.0755 291.935 19.9062 291.883 19.7109 291.883C19.5286 291.87 19.3333 291.883 19.125 291.922C18.9297 291.948 18.7409 291.961 18.5586 291.961C18.3893 291.961 18.2526 291.922 18.1484 291.844C18.0312 291.74 17.9727 291.57 17.9727 291.336C17.9727 291.31 17.9987 291.277 18.0508 291.238C18.1159 291.186 18.1615 291.16 18.1875 291.16C18.4219 291.134 18.6497 291.121 18.8711 291.121C19.0924 291.108 19.2878 291.069 19.457 291.004C19.6393 290.939 19.7891 290.828 19.9062 290.672C20.0104 290.49 20.0625 290.242 20.0625 289.93C19.9583 289.292 19.9128 288.745 19.9258 288.289C19.9388 287.82 19.9193 287.436 19.8672 287.137C19.8281 286.837 19.7174 286.635 19.5352 286.531C19.3398 286.414 19.0078 286.388 18.5391 286.453C18.487 286.453 18.3958 286.453 18.2656 286.453C18.1484 286.453 18.0182 286.46 17.875 286.473C17.7448 286.473 17.6146 286.473 17.4844 286.473C17.3672 286.473 17.2826 286.473 17.2305 286.473C17.2044 286.499 17.1458 286.531 17.0547 286.57C16.9505 286.609 16.8854 286.635 16.8594 286.648C16.8333 286.648 16.8138 286.648 16.8008 286.648C16.7747 286.661 16.7552 286.668 16.7422 286.668L16.7031 286.648H16.6641C16.638 286.622 16.6055 286.564 16.5664 286.473C16.5273 286.382 16.5013 286.316 16.4883 286.277V286.18C16.6706 285.997 16.9896 285.835 17.4453 285.691C17.901 285.548 18.4414 285.424 19.0664 285.32C19.6914 285.216 20.375 285.138 21.1172 285.086C21.8594 285.034 22.6016 285.014 23.3438 285.027C24.099 285.027 24.8346 285.079 25.5508 285.184C26.2669 285.275 26.9049 285.411 27.4648 285.594C28.0247 285.763 28.487 285.991 28.8516 286.277C29.2161 286.577 29.418 286.922 29.457 287.312C29.0404 287.312 28.6302 287.26 28.2266 287.156C27.8359 287.052 27.4388 286.935 27.0352 286.805C26.6315 286.674 26.2214 286.557 25.8047 286.453C25.401 286.349 24.9779 286.297 24.5352 286.297C24.431 286.297 24.2747 286.297 24.0664 286.297C23.8711 286.284 23.6432 286.277 23.3828 286.277C23.1224 286.264 22.8555 286.271 22.582 286.297C22.3086 286.31 22.0547 286.349 21.8203 286.414C21.5859 286.466 21.3971 286.551 21.2539 286.668C21.1107 286.772 21.0391 286.915 21.0391 287.098C21.0391 287.293 21.026 287.56 21 287.898C20.974 288.237 20.9674 288.589 20.9805 288.953C20.9935 289.305 21.0391 289.637 21.1172 289.949C21.1953 290.262 21.3385 290.49 21.5469 290.633C21.5729 290.633 21.6185 290.633 21.6836 290.633C21.7487 290.633 21.8203 290.633 21.8984 290.633C21.9766 290.633 22.0547 290.633 22.1328 290.633C22.2109 290.633 22.263 290.633 22.2891 290.633C23.2656 290.555 24.0534 290.535 24.6523 290.574C25.2643 290.613 25.7005 290.691 25.9609 290.809C26.2214 290.926 26.3125 291.062 26.2344 291.219C26.1693 291.362 25.9479 291.499 25.5703 291.629C25.2057 291.759 24.6914 291.87 24.0273 291.961C23.3633 292.039 22.569 292.065 21.6445 292.039C21.6706 292.625 21.6966 293.087 21.7227 293.426C21.7487 293.751 21.7747 294.012 21.8008 294.207C21.8398 294.389 21.8724 294.539 21.8984 294.656C21.9245 294.76 21.957 294.891 21.9961 295.047C22.0352 295.19 22.0677 295.392 22.0938 295.652C22.1198 295.9 22.1458 296.271 22.1719 296.766C21.9896 296.74 21.8203 296.727 21.6641 296.727C21.5078 296.714 21.3711 296.707 21.2539 296.707C21.1497 296.707 21.0651 296.701 21 296.688C20.9479 296.674 20.9349 296.655 20.9609 296.629ZM29.6133 297C29.3268 296.479 29.0794 295.913 28.8711 295.301C28.6628 294.689 28.487 294.07 28.3438 293.445C28.2005 292.82 28.0833 292.215 27.9922 291.629C27.9141 291.03 27.862 290.49 27.8359 290.008C27.8359 289.917 27.8294 289.819 27.8164 289.715C27.8034 289.598 27.7969 289.48 27.7969 289.363C27.8099 289.246 27.8294 289.135 27.8555 289.031C27.8945 288.927 27.9531 288.836 28.0312 288.758H28.0703C28.0833 288.758 28.0898 288.758 28.0898 288.758C28.0898 288.745 28.0964 288.738 28.1094 288.738C28.1224 288.738 28.1289 288.745 28.1289 288.758C28.1289 288.758 28.1419 288.758 28.168 288.758H28.207C28.2331 288.771 28.2982 288.797 28.4023 288.836C28.5065 288.875 28.5716 288.908 28.5977 288.934C28.832 288.855 29.0729 288.764 29.3203 288.66C29.5677 288.543 29.8151 288.439 30.0625 288.348C30.3229 288.243 30.5833 288.159 30.8438 288.094C31.1042 288.029 31.3581 287.996 31.6055 287.996C31.7878 287.996 31.944 288.003 32.0742 288.016C32.2174 288.029 32.3542 288.055 32.4844 288.094C32.6276 288.12 32.7773 288.159 32.9336 288.211C33.0898 288.25 33.2721 288.302 33.4805 288.367C33.5846 288.445 33.6758 288.523 33.7539 288.602C33.8451 288.667 33.9232 288.745 33.9883 288.836C34.0664 288.927 34.125 289.038 34.1641 289.168C34.2031 289.298 34.2227 289.467 34.2227 289.676C34.0143 289.702 33.7669 289.689 33.4805 289.637C33.207 289.572 32.9141 289.493 32.6016 289.402C32.3021 289.311 31.9896 289.233 31.6641 289.168C31.3385 289.103 31.026 289.077 30.7266 289.09C30.4271 289.103 30.1471 289.188 29.8867 289.344C29.6133 289.474 29.3724 289.708 29.1641 290.047C29.0729 290.424 29.0339 290.796 29.0469 291.16C29.0599 291.525 29.1055 291.883 29.1836 292.234C29.2617 292.573 29.3594 292.918 29.4766 293.27C29.6068 293.608 29.724 293.953 29.8281 294.305C29.9453 294.643 30.0495 294.982 30.1406 295.32C30.2318 295.659 30.2904 296.004 30.3164 296.355C30.3164 296.486 30.2448 296.629 30.1016 296.785C29.9583 296.928 29.7956 297 29.6133 297ZM34.7695 291.766C34.7695 291.089 34.8672 290.444 35.0625 289.832C35.2708 289.207 35.5638 288.66 35.9414 288.191C36.332 287.723 36.8008 287.352 37.3477 287.078C37.9076 286.792 38.5521 286.648 39.2812 286.648C39.7109 286.701 40.082 286.818 40.3945 287C40.7201 287.182 40.9805 287.41 41.1758 287.684C41.3841 287.944 41.5339 288.25 41.625 288.602C41.7031 288.94 41.7422 289.305 41.7422 289.695C41.7422 290.164 41.6055 290.587 41.332 290.965C41.0586 291.342 40.7135 291.661 40.2969 291.922C39.8802 292.169 39.431 292.365 38.9492 292.508C38.4674 292.638 38.0182 292.703 37.6016 292.703C37.4453 292.703 37.2826 292.703 37.1133 292.703C36.957 292.703 36.8138 292.677 36.6836 292.625C36.5534 292.573 36.4492 292.495 36.3711 292.391C36.293 292.286 36.2539 292.13 36.2539 291.922C36.2539 291.857 36.2604 291.805 36.2734 291.766C36.2995 291.714 36.3581 291.681 36.4492 291.668C36.5404 291.642 36.6771 291.635 36.8594 291.648C37.0417 291.674 37.2891 291.714 37.6016 291.766C37.7839 291.766 38.0443 291.707 38.3828 291.59C38.7344 291.46 39.0859 291.297 39.4375 291.102C39.8021 290.906 40.1146 290.685 40.375 290.438C40.6354 290.177 40.7656 289.923 40.7656 289.676C40.7656 289.415 40.7201 289.161 40.6289 288.914C40.5508 288.654 40.4271 288.426 40.2578 288.23C40.0885 288.035 39.8867 287.879 39.6523 287.762C39.431 287.645 39.1771 287.599 38.8906 287.625C38.4349 287.664 38.0182 287.788 37.6406 287.996C37.276 288.204 36.9635 288.478 36.7031 288.816C36.4427 289.142 36.2409 289.507 36.0977 289.91C35.9544 290.314 35.8828 290.737 35.8828 291.18C35.8828 291.518 35.8893 291.857 35.9023 292.195C35.9154 292.534 35.9609 292.866 36.0391 293.191C36.1302 293.517 36.2669 293.829 36.4492 294.129C36.6445 294.428 36.918 294.695 37.2695 294.93C37.6341 295.151 38.0898 295.34 38.6367 295.496C39.1836 295.639 39.8607 295.73 40.668 295.77L44.1641 295.535C43.9557 295.822 43.6888 296.056 43.3633 296.238C43.0508 296.421 42.7122 296.57 42.3477 296.688C41.9961 296.792 41.6445 296.87 41.293 296.922C40.9414 296.974 40.6094 297 40.2969 297C39.5417 297 38.832 296.876 38.168 296.629C37.5039 296.382 36.918 296.036 36.4102 295.594C35.9023 295.138 35.4987 294.591 35.1992 293.953C34.9128 293.302 34.7695 292.573 34.7695 291.766ZM45.082 291.766C45.082 291.089 45.1797 290.444 45.375 289.832C45.5833 289.207 45.8763 288.66 46.2539 288.191C46.6445 287.723 47.1133 287.352 47.6602 287.078C48.2201 286.792 48.8646 286.648 49.5938 286.648C50.0234 286.701 50.3945 286.818 50.707 287C51.0326 287.182 51.293 287.41 51.4883 287.684C51.6966 287.944 51.8464 288.25 51.9375 288.602C52.0156 288.94 52.0547 289.305 52.0547 289.695C52.0547 290.164 51.918 290.587 51.6445 290.965C51.3711 291.342 51.026 291.661 50.6094 291.922C50.1927 292.169 49.7435 292.365 49.2617 292.508C48.7799 292.638 48.3307 292.703 47.9141 292.703C47.7578 292.703 47.5951 292.703 47.4258 292.703C47.2695 292.703 47.1263 292.677 46.9961 292.625C46.8659 292.573 46.7617 292.495 46.6836 292.391C46.6055 292.286 46.5664 292.13 46.5664 291.922C46.5664 291.857 46.5729 291.805 46.5859 291.766C46.612 291.714 46.6706 291.681 46.7617 291.668C46.8529 291.642 46.9896 291.635 47.1719 291.648C47.3542 291.674 47.6016 291.714 47.9141 291.766C48.0964 291.766 48.3568 291.707 48.6953 291.59C49.0469 291.46 49.3984 291.297 49.75 291.102C50.1146 290.906 50.4271 290.685 50.6875 290.438C50.9479 290.177 51.0781 289.923 51.0781 289.676C51.0781 289.415 51.0326 289.161 50.9414 288.914C50.8633 288.654 50.7396 288.426 50.5703 288.23C50.401 288.035 50.1992 287.879 49.9648 287.762C49.7435 287.645 49.4896 287.599 49.2031 287.625C48.7474 287.664 48.3307 287.788 47.9531 287.996C47.5885 288.204 47.276 288.478 47.0156 288.816C46.7552 289.142 46.5534 289.507 46.4102 289.91C46.2669 290.314 46.1953 290.737 46.1953 291.18C46.1953 291.518 46.2018 291.857 46.2148 292.195C46.2279 292.534 46.2734 292.866 46.3516 293.191C46.4427 293.517 46.5794 293.829 46.7617 294.129C46.957 294.428 47.2305 294.695 47.582 294.93C47.9466 295.151 48.4023 295.34 48.9492 295.496C49.4961 295.639 50.1732 295.73 50.9805 295.77L54.4766 295.535C54.2682 295.822 54.0013 296.056 53.6758 296.238C53.3633 296.421 53.0247 296.57 52.6602 296.688C52.3086 296.792 51.957 296.87 51.6055 296.922C51.2539 296.974 50.9219 297 50.6094 297C49.8542 297 49.1445 296.876 48.4805 296.629C47.8164 296.382 47.2305 296.036 46.7227 295.594C46.2148 295.138 45.8112 294.591 45.5117 293.953C45.2253 293.302 45.082 292.573 45.082 291.766ZM62.8945 293.699C62.9076 293.478 62.9727 293.224 63.0898 292.938C63.207 292.651 63.3893 292.371 63.6367 292.098C63.8841 291.824 64.1966 291.583 64.5742 291.375C64.9518 291.154 65.3945 290.997 65.9023 290.906C66.4232 290.815 67.0091 290.809 67.6602 290.887C68.3242 290.965 69.0599 291.16 69.8672 291.473C69.8672 291.46 69.8672 291.395 69.8672 291.277L69.8477 291.102C69.8477 290.763 69.75 290.418 69.5547 290.066C69.3594 289.715 69.1055 289.402 68.793 289.129C68.4935 288.842 68.168 288.615 67.8164 288.445C67.4648 288.263 67.1263 288.172 66.8008 288.172C66.6706 288.172 66.5534 288.191 66.4492 288.23C66.3581 288.27 66.2669 288.322 66.1758 288.387C66.0846 288.439 65.9935 288.491 65.9023 288.543C65.8242 288.582 65.7266 288.602 65.6094 288.602C65.5833 288.602 65.5703 288.595 65.5703 288.582C65.5573 288.569 65.5443 288.556 65.5312 288.543C65.5052 288.517 65.4661 288.484 65.4141 288.445C65.375 288.406 65.3555 288.38 65.3555 288.367C65.3555 288.133 65.3945 287.931 65.4727 287.762C65.5638 287.592 65.681 287.456 65.8242 287.352C65.9805 287.247 66.1497 287.169 66.332 287.117C66.5273 287.052 66.7292 287.02 66.9375 287.02C67.4583 287.072 67.9531 287.234 68.4219 287.508C68.9036 287.768 69.3398 288.1 69.7305 288.504C70.1341 288.908 70.4857 289.376 70.7852 289.91C71.0846 290.431 71.332 290.978 71.5273 291.551C71.7357 292.111 71.8724 292.677 71.9375 293.25C72.0156 293.849 72.0221 294.409 71.957 294.93C71.944 294.93 71.9049 294.93 71.8398 294.93C71.7747 294.917 71.7031 294.91 71.625 294.91C71.5469 294.897 71.4818 294.884 71.4297 294.871L71.332 294.852C71.0586 294.24 70.7526 293.745 70.4141 293.367C70.0755 292.99 69.737 292.697 69.3984 292.488C69.0729 292.267 68.7669 292.117 68.4805 292.039C68.194 291.948 67.9596 291.883 67.7773 291.844C67.582 291.844 67.3477 291.857 67.0742 291.883C66.8138 291.909 66.5404 291.954 66.2539 292.02C65.9674 292.085 65.6745 292.176 65.375 292.293C65.0885 292.397 64.8281 292.527 64.5938 292.684C64.3724 292.84 64.1901 293.029 64.0469 293.25C63.9167 293.458 63.8516 293.706 63.8516 293.992C63.8516 294.305 63.9753 294.572 64.2227 294.793C64.4701 295.001 64.7695 295.177 65.1211 295.32C65.4727 295.451 65.8307 295.542 66.1953 295.594C66.5599 295.646 66.8529 295.672 67.0742 295.672C67.4388 295.672 67.7969 295.652 68.1484 295.613C68.5 295.574 68.8451 295.529 69.1836 295.477C69.5352 295.424 69.8802 295.379 70.2188 295.34C70.5573 295.301 70.8958 295.281 71.2344 295.281C71.2604 295.281 71.306 295.281 71.3711 295.281C71.4362 295.281 71.5013 295.288 71.5664 295.301C71.6445 295.301 71.7096 295.301 71.7617 295.301C71.8268 295.301 71.8724 295.301 71.8984 295.301C72.0026 295.34 72.0612 295.398 72.0742 295.477C72.0872 295.555 72.0938 295.633 72.0938 295.711C72.0938 295.789 72.0091 295.874 71.8398 295.965C71.6836 296.056 71.4753 296.147 71.2148 296.238C70.9544 296.329 70.6615 296.427 70.3359 296.531C70.0234 296.622 69.7174 296.701 69.418 296.766C69.1315 296.831 68.8581 296.889 68.5977 296.941C68.3503 296.98 68.1745 297 68.0703 297C67.5234 297 66.944 296.954 66.332 296.863C65.7201 296.772 65.1602 296.609 64.6523 296.375C64.1445 296.128 63.7214 295.789 63.3828 295.359C63.0573 294.93 62.8945 294.376 62.8945 293.699ZM73.207 289.383C73.207 289.266 73.2461 289.194 73.3242 289.168C73.4154 289.129 73.513 289.109 73.6172 289.109C73.6953 289.109 73.7474 289.129 73.7734 289.168C73.8125 289.207 73.8385 289.253 73.8516 289.305C73.8646 289.357 73.8841 289.409 73.9102 289.461C73.9362 289.5 73.9818 289.52 74.0469 289.52C74.2292 289.52 74.4505 289.448 74.7109 289.305C74.9714 289.161 75.2513 289.005 75.5508 288.836C75.8633 288.667 76.1888 288.51 76.5273 288.367C76.8789 288.224 77.224 288.152 77.5625 288.152C78.0052 288.152 78.4089 288.27 78.7734 288.504C79.151 288.725 79.4831 289.025 79.7695 289.402C80.069 289.78 80.3229 290.203 80.5312 290.672C80.7396 291.141 80.9154 291.622 81.0586 292.117C81.2018 292.599 81.306 293.074 81.3711 293.543C81.4362 293.999 81.4688 294.396 81.4688 294.734C81.4688 294.852 81.4557 295.027 81.4297 295.262C81.4167 295.496 81.3841 295.73 81.332 295.965C81.293 296.199 81.2214 296.408 81.1172 296.59C81.013 296.759 80.8828 296.844 80.7266 296.844C80.7005 296.844 80.6549 296.844 80.5898 296.844C80.5247 296.831 80.4596 296.818 80.3945 296.805C80.3294 296.779 80.2708 296.753 80.2188 296.727C80.1797 296.701 80.1602 296.661 80.1602 296.609C80.2773 295.607 80.2773 294.669 80.1602 293.797C80.043 292.911 79.8542 292.137 79.5938 291.473C79.3333 290.809 79.0143 290.281 78.6367 289.891C78.2591 289.5 77.8555 289.305 77.4258 289.305C77.0221 289.305 76.6445 289.37 76.293 289.5C75.9414 289.63 75.6354 289.819 75.375 290.066C75.1146 290.314 74.9062 290.613 74.75 290.965C74.6068 291.316 74.5352 291.701 74.5352 292.117C74.5352 292.534 74.5742 292.951 74.6523 293.367C74.7305 293.771 74.8151 294.181 74.9062 294.598C75.0104 295.001 75.1016 295.411 75.1797 295.828C75.2578 296.245 75.2969 296.661 75.2969 297.078C74.9323 297.078 74.6263 296.928 74.3789 296.629C74.1315 296.329 73.9297 295.945 73.7734 295.477C73.6302 295.008 73.513 294.48 73.4219 293.895C73.3438 293.309 73.2852 292.736 73.2461 292.176C73.2201 291.603 73.207 291.069 73.207 290.574C73.207 290.066 73.207 289.669 73.207 289.383ZM82.2109 292.566C82.2109 292.085 82.2695 291.577 82.3867 291.043C82.5169 290.509 82.7122 290.014 82.9727 289.559C83.2461 289.103 83.5846 288.732 83.9883 288.445C84.4049 288.146 84.9128 287.996 85.5117 287.996C85.8242 287.996 86.1367 288.042 86.4492 288.133C86.7617 288.224 87.0807 288.354 87.4062 288.523C87.7448 288.693 88.0898 288.895 88.4414 289.129C88.806 289.35 89.1901 289.598 89.5938 289.871C89.6458 289.35 89.6263 288.816 89.5352 288.27C89.444 287.71 89.3268 287.163 89.1836 286.629C89.0404 286.095 88.8906 285.594 88.7344 285.125C88.5911 284.643 88.487 284.214 88.4219 283.836C88.3568 283.458 88.3503 283.146 88.4023 282.898C88.4544 282.651 88.6107 282.495 88.8711 282.43C89.2227 282.69 89.5221 283.061 89.7695 283.543C90.0299 284.012 90.2513 284.559 90.4336 285.184C90.6159 285.809 90.7656 286.479 90.8828 287.195C91 287.898 91.0977 288.615 91.1758 289.344C91.2539 290.073 91.3125 290.783 91.3516 291.473C91.4036 292.163 91.4557 292.801 91.5078 293.387C91.5599 293.96 91.6055 294.454 91.6445 294.871C91.6966 295.275 91.7682 295.561 91.8594 295.73C91.8594 295.939 91.7812 296.069 91.625 296.121C91.4818 296.173 91.332 296.199 91.1758 296.199C91.0456 296.199 90.9349 296.154 90.8438 296.062C90.7526 295.958 90.681 295.841 90.6289 295.711C90.5768 295.581 90.5247 295.438 90.4727 295.281C90.4336 295.112 90.388 294.962 90.3359 294.832C90.2839 294.689 90.2253 294.572 90.1602 294.48C90.0951 294.389 90.0104 294.344 89.9062 294.344C89.8802 294.344 89.8411 294.35 89.7891 294.363C89.75 294.363 89.7305 294.37 89.7305 294.383C89.4831 294.721 89.1901 295.053 88.8516 295.379C88.526 295.691 88.1615 295.971 87.7578 296.219C87.3672 296.453 86.9505 296.642 86.5078 296.785C86.0781 296.928 85.6419 297 85.1992 297C84.7044 297 84.2682 296.837 83.8906 296.512C83.526 296.186 83.2135 295.796 82.9531 295.34C82.7057 294.884 82.5169 294.402 82.3867 293.895C82.2695 293.387 82.2109 292.944 82.2109 292.566ZM83.4219 292.918C83.5521 293.387 83.6693 293.797 83.7734 294.148C83.8776 294.5 84.0013 294.786 84.1445 295.008C84.3008 295.229 84.4831 295.398 84.6914 295.516C84.8997 295.62 85.1732 295.672 85.5117 295.672C85.9284 295.672 86.3711 295.555 86.8398 295.32C87.3086 295.073 87.7448 294.76 88.1484 294.383C88.5521 294.005 88.8841 293.595 89.1445 293.152C89.4049 292.697 89.5352 292.26 89.5352 291.844C89.5352 291.805 89.5352 291.727 89.5352 291.609C89.5352 291.492 89.5352 291.414 89.5352 291.375C88.8451 290.698 88.207 290.216 87.6211 289.93C87.0482 289.63 86.5339 289.48 86.0781 289.48C85.6224 289.467 85.2253 289.565 84.8867 289.773C84.5482 289.982 84.2682 290.255 84.0469 290.594C83.8255 290.932 83.6628 291.31 83.5586 291.727C83.4544 292.143 83.4089 292.54 83.4219 292.918ZM4.7793 311.551C4.75326 310.978 4.82487 310.444 4.99414 309.949C5.17643 309.454 5.43034 309.018 5.75586 308.641C6.08138 308.25 6.47852 307.938 6.94727 307.703C7.41602 307.495 7.93034 307.365 8.49023 307.312C9.4668 307.456 10.3978 307.703 11.2832 308.055C12.1816 308.406 12.9694 308.855 13.6465 309.402C14.3366 309.949 14.8965 310.587 15.3262 311.316C15.7559 312.046 15.9967 312.866 16.0488 313.777C15.9186 314.454 15.6517 314.988 15.248 315.379C14.8444 315.77 14.3691 316.076 13.8223 316.297C13.2754 316.505 12.6895 316.661 12.0645 316.766C11.4395 316.857 10.8665 316.941 10.3457 317.02C9.53841 317.02 8.78971 316.889 8.09961 316.629C7.42253 316.355 6.83659 315.984 6.3418 315.516C5.86003 315.047 5.47591 314.474 5.18945 313.797C4.91602 313.12 4.7793 312.371 4.7793 311.551ZM5.69727 311.453C5.68424 312.052 5.80794 312.612 6.06836 313.133C6.3418 313.654 6.69336 314.109 7.12305 314.5C7.55273 314.891 8.03451 315.216 8.56836 315.477C9.10221 315.737 9.63607 315.906 10.1699 315.984C10.3522 315.984 10.5931 315.971 10.8926 315.945C11.1921 315.906 11.5176 315.854 11.8691 315.789C12.2207 315.711 12.5723 315.613 12.9238 315.496C13.2884 315.366 13.6139 315.216 13.9004 315.047C14.1999 314.865 14.4408 314.656 14.623 314.422C14.8184 314.174 14.916 313.895 14.916 313.582C14.8249 312.931 14.623 312.352 14.3105 311.844C14.0111 311.336 13.64 310.887 13.1973 310.496C12.7546 310.105 12.2728 309.773 11.752 309.5C11.2311 309.227 10.7168 309.012 10.209 308.855C9.70117 308.686 9.22591 308.576 8.7832 308.523C8.34049 308.471 7.97591 308.471 7.68945 308.523C7.28581 308.667 6.95378 308.855 6.69336 309.09C6.44596 309.324 6.24414 309.578 6.08789 309.852C5.94466 310.112 5.84049 310.379 5.77539 310.652C5.72331 310.926 5.69727 311.193 5.69727 311.453ZM16.9668 314.441C16.9668 313.621 17.11 312.931 17.3965 312.371C17.6829 311.811 18.0605 311.362 18.5293 311.023C19.0111 310.685 19.5645 310.438 20.1895 310.281C20.8275 310.125 21.4915 310.047 22.1816 310.047C22.7415 310.047 23.2819 310.138 23.8027 310.32C24.3366 310.503 24.8118 310.757 25.2285 311.082C25.6452 311.408 25.9772 311.805 26.2246 312.273C26.472 312.742 26.5957 313.276 26.5957 313.875C26.5957 314.396 26.498 314.826 26.3027 315.164C26.1074 315.49 25.8405 315.75 25.502 315.945C25.1634 316.128 24.7858 316.258 24.3691 316.336C23.9655 316.414 23.5488 316.453 23.1191 316.453C22.7025 316.453 22.2728 316.434 21.8301 316.395C21.4004 316.355 21.0033 316.264 20.6387 316.121C20.2741 315.978 19.9746 315.763 19.7402 315.477C19.5059 315.19 19.3887 314.786 19.3887 314.266C19.6621 314.266 19.9225 314.324 20.1699 314.441C20.4303 314.546 20.6908 314.663 20.9512 314.793C21.2116 314.91 21.472 315.021 21.7324 315.125C21.9798 315.242 22.2467 315.301 22.5332 315.301C22.7415 315.301 23.015 315.281 23.3535 315.242C23.7051 315.203 24.0306 315.132 24.3301 315.027C24.6426 314.91 24.9095 314.754 25.1309 314.559C25.3522 314.363 25.4629 314.116 25.4629 313.816C25.4629 313.374 25.3652 312.99 25.1699 312.664C24.9746 312.339 24.7207 312.072 24.4082 311.863C24.0957 311.642 23.7441 311.473 23.3535 311.355C22.9629 311.238 22.5723 311.18 22.1816 311.18C22.1296 311.18 21.9993 311.193 21.791 311.219C21.5957 311.245 21.3678 311.29 21.1074 311.355C20.847 311.408 20.5736 311.479 20.2871 311.57C20.0007 311.648 19.7337 311.753 19.4863 311.883C19.252 312 19.0566 312.137 18.9004 312.293C18.7441 312.449 18.666 312.625 18.666 312.82V313.055C18.679 313.198 18.6921 313.393 18.7051 313.641C18.7311 313.875 18.7507 314.116 18.7637 314.363C18.7767 314.598 18.7962 314.806 18.8223 314.988C18.8483 315.171 18.8613 315.275 18.8613 315.301C18.8874 315.509 18.9329 315.835 18.998 316.277C19.0632 316.707 19.1348 317.189 19.2129 317.723C19.291 318.27 19.3757 318.842 19.4668 319.441C19.571 320.04 19.6686 320.607 19.7598 321.141C19.8509 321.688 19.929 322.176 19.9941 322.605C20.0723 323.035 20.1309 323.348 20.1699 323.543C20.1699 323.569 20.1699 323.589 20.1699 323.602C20.1829 323.628 20.1895 323.647 20.1895 323.66C20.1895 323.673 20.1895 323.68 20.1895 323.68L20.1699 323.719V323.758C20.1439 323.797 20.0853 323.862 19.9941 323.953C19.89 324.031 19.8249 324.083 19.7988 324.109H19.6816C19.5514 324.109 19.4147 323.986 19.2715 323.738C19.1283 323.504 18.9785 323.178 18.8223 322.762C18.679 322.358 18.5293 321.889 18.373 321.355C18.2298 320.822 18.0866 320.268 17.9434 319.695C17.8001 319.122 17.6699 318.556 17.5527 317.996C17.4355 317.436 17.3314 316.915 17.2402 316.434C17.1491 315.952 17.0775 315.535 17.0254 315.184C16.9863 314.832 16.9668 314.585 16.9668 314.441ZM27.377 311.766C27.377 311.089 27.4746 310.444 27.6699 309.832C27.8783 309.207 28.1712 308.66 28.5488 308.191C28.9395 307.723 29.4082 307.352 29.9551 307.078C30.515 306.792 31.1595 306.648 31.8887 306.648C32.3184 306.701 32.6895 306.818 33.002 307C33.3275 307.182 33.5879 307.41 33.7832 307.684C33.9915 307.944 34.1413 308.25 34.2324 308.602C34.3105 308.94 34.3496 309.305 34.3496 309.695C34.3496 310.164 34.2129 310.587 33.9395 310.965C33.666 311.342 33.321 311.661 32.9043 311.922C32.4876 312.169 32.0384 312.365 31.5566 312.508C31.0749 312.638 30.6257 312.703 30.209 312.703C30.0527 312.703 29.89 312.703 29.7207 312.703C29.5645 312.703 29.4212 312.677 29.291 312.625C29.1608 312.573 29.0566 312.495 28.9785 312.391C28.9004 312.286 28.8613 312.13 28.8613 311.922C28.8613 311.857 28.8678 311.805 28.8809 311.766C28.9069 311.714 28.9655 311.681 29.0566 311.668C29.1478 311.642 29.2845 311.635 29.4668 311.648C29.6491 311.674 29.8965 311.714 30.209 311.766C30.3913 311.766 30.6517 311.707 30.9902 311.59C31.3418 311.46 31.6934 311.297 32.0449 311.102C32.4095 310.906 32.722 310.685 32.9824 310.438C33.2428 310.177 33.373 309.923 33.373 309.676C33.373 309.415 33.3275 309.161 33.2363 308.914C33.1582 308.654 33.0345 308.426 32.8652 308.23C32.696 308.035 32.4941 307.879 32.2598 307.762C32.0384 307.645 31.7845 307.599 31.498 307.625C31.0423 307.664 30.6257 307.788 30.248 307.996C29.8835 308.204 29.571 308.478 29.3105 308.816C29.0501 309.142 28.8483 309.507 28.7051 309.91C28.5618 310.314 28.4902 310.737 28.4902 311.18C28.4902 311.518 28.4967 311.857 28.5098 312.195C28.5228 312.534 28.5684 312.866 28.6465 313.191C28.7376 313.517 28.8743 313.829 29.0566 314.129C29.252 314.428 29.5254 314.695 29.877 314.93C30.2415 315.151 30.6973 315.34 31.2441 315.496C31.791 315.639 32.4681 315.73 33.2754 315.77L36.7715 315.535C36.5632 315.822 36.2962 316.056 35.9707 316.238C35.6582 316.421 35.3197 316.57 34.9551 316.688C34.6035 316.792 34.252 316.87 33.9004 316.922C33.5488 316.974 33.2168 317 32.9043 317C32.1491 317 31.4395 316.876 30.7754 316.629C30.1113 316.382 29.5254 316.036 29.0176 315.594C28.5098 315.138 28.1061 314.591 27.8066 313.953C27.5202 313.302 27.377 312.573 27.377 311.766ZM37.8848 309.383C37.8848 309.266 37.9238 309.194 38.002 309.168C38.0931 309.129 38.1908 309.109 38.2949 309.109C38.373 309.109 38.4251 309.129 38.4512 309.168C38.4902 309.207 38.5163 309.253 38.5293 309.305C38.5423 309.357 38.5618 309.409 38.5879 309.461C38.6139 309.5 38.6595 309.52 38.7246 309.52C38.9069 309.52 39.1283 309.448 39.3887 309.305C39.6491 309.161 39.929 309.005 40.2285 308.836C40.541 308.667 40.8665 308.51 41.2051 308.367C41.5566 308.224 41.9017 308.152 42.2402 308.152C42.6829 308.152 43.0866 308.27 43.4512 308.504C43.8288 308.725 44.1608 309.025 44.4473 309.402C44.7467 309.78 45.0007 310.203 45.209 310.672C45.4173 311.141 45.5931 311.622 45.7363 312.117C45.8796 312.599 45.9837 313.074 46.0488 313.543C46.1139 313.999 46.1465 314.396 46.1465 314.734C46.1465 314.852 46.1335 315.027 46.1074 315.262C46.0944 315.496 46.0618 315.73 46.0098 315.965C45.9707 316.199 45.8991 316.408 45.7949 316.59C45.6908 316.759 45.5605 316.844 45.4043 316.844C45.3783 316.844 45.3327 316.844 45.2676 316.844C45.2025 316.831 45.1374 316.818 45.0723 316.805C45.0072 316.779 44.9486 316.753 44.8965 316.727C44.8574 316.701 44.8379 316.661 44.8379 316.609C44.9551 315.607 44.9551 314.669 44.8379 313.797C44.7207 312.911 44.5319 312.137 44.2715 311.473C44.0111 310.809 43.6921 310.281 43.3145 309.891C42.9368 309.5 42.5332 309.305 42.1035 309.305C41.6999 309.305 41.3223 309.37 40.9707 309.5C40.6191 309.63 40.3132 309.819 40.0527 310.066C39.7923 310.314 39.584 310.613 39.4277 310.965C39.2845 311.316 39.2129 311.701 39.2129 312.117C39.2129 312.534 39.252 312.951 39.3301 313.367C39.4082 313.771 39.4928 314.181 39.584 314.598C39.6882 315.001 39.7793 315.411 39.8574 315.828C39.9355 316.245 39.9746 316.661 39.9746 317.078C39.61 317.078 39.304 316.928 39.0566 316.629C38.8092 316.329 38.6074 315.945 38.4512 315.477C38.3079 315.008 38.1908 314.48 38.0996 313.895C38.0215 313.309 37.9629 312.736 37.9238 312.176C37.8978 311.603 37.8848 311.069 37.8848 310.574C37.8848 310.066 37.8848 309.669 37.8848 309.383ZM51.4785 310.613C51.6608 310.613 51.8561 310.62 52.0645 310.633C52.2728 310.633 52.4681 310.665 52.6504 310.73C52.8327 310.796 52.9824 310.893 53.0996 311.023C53.2168 311.141 53.2754 311.316 53.2754 311.551C53.2754 311.824 53.1517 311.961 52.9043 311.961C52.6178 311.961 52.3509 311.928 52.1035 311.863C51.8691 311.785 51.6022 311.746 51.3027 311.746C50.9251 311.746 50.5475 311.772 50.1699 311.824C49.8053 311.863 49.4342 311.909 49.0566 311.961C48.679 312.013 48.3014 312.065 47.9238 312.117C47.5592 312.156 47.1882 312.176 46.8105 312.176C46.8105 311.863 46.8822 311.616 47.0254 311.434C47.1686 311.251 47.3574 311.108 47.5918 311.004C47.8262 310.887 48.0866 310.809 48.373 310.77C48.6725 310.73 48.9785 310.711 49.291 310.711C49.6035 310.698 49.9095 310.691 50.209 310.691C50.5085 310.678 50.7754 310.659 51.0098 310.633C51.0098 310.633 51.0293 310.633 51.0684 310.633C51.1074 310.633 51.153 310.633 51.2051 310.633C51.2572 310.62 51.3092 310.613 51.3613 310.613C51.4134 310.613 51.4525 310.613 51.4785 310.613ZM54.4082 313.523C54.4082 313.393 54.4342 313.257 54.4863 313.113C54.5384 312.957 54.61 312.814 54.7012 312.684C54.7923 312.54 54.903 312.423 55.0332 312.332C55.1634 312.241 55.3001 312.195 55.4434 312.195C55.4434 313.042 55.5931 313.712 55.8926 314.207C56.1921 314.689 56.6022 315.06 57.123 315.32C57.6569 315.581 58.2624 315.757 58.9395 315.848C59.6165 315.939 60.3457 316.004 61.127 316.043C61.3874 316.03 61.7259 316.023 62.1426 316.023C62.5723 316.01 62.9824 315.965 63.373 315.887C63.7637 315.796 64.0957 315.652 64.3691 315.457C64.6426 315.262 64.7728 314.962 64.7598 314.559C64.7598 314.376 64.7533 314.214 64.7402 314.07C64.7272 313.927 64.6947 313.803 64.6426 313.699C64.6035 313.582 64.5254 313.471 64.4082 313.367C64.304 313.263 64.1543 313.159 63.959 313.055L58.1582 309.891C57.9499 309.773 57.748 309.63 57.5527 309.461C57.3574 309.279 57.1947 309.083 57.0645 308.875C56.9342 308.654 56.8301 308.426 56.752 308.191C56.6738 307.944 56.6348 307.703 56.6348 307.469C56.6348 306.974 56.765 306.57 57.0254 306.258C57.2988 305.945 57.6309 305.698 58.0215 305.516C58.4251 305.32 58.8548 305.184 59.3105 305.105C59.7793 305.027 60.209 304.988 60.5996 304.988C60.7819 304.988 61.0163 305.008 61.3027 305.047C61.5892 305.073 61.8952 305.118 62.2207 305.184C62.5462 305.249 62.8652 305.333 63.1777 305.438C63.5033 305.542 63.7897 305.678 64.0371 305.848C64.2845 306.004 64.4863 306.193 64.6426 306.414C64.8118 306.622 64.8965 306.87 64.8965 307.156C64.7142 307.26 64.5254 307.293 64.3301 307.254C64.1478 307.215 63.959 307.143 63.7637 307.039C63.5684 306.935 63.3665 306.818 63.1582 306.688C62.9499 306.557 62.735 306.427 62.5137 306.297C62.2923 306.167 62.0579 306.062 61.8105 305.984C61.5632 305.906 61.3027 305.88 61.0293 305.906C60.7819 305.906 60.4629 305.919 60.0723 305.945C59.6816 305.971 59.2975 306.036 58.9199 306.141C58.5553 306.232 58.2363 306.382 57.9629 306.59C57.7025 306.785 57.5723 307.065 57.5723 307.43C57.5723 307.781 57.696 308.107 57.9434 308.406C58.1908 308.693 58.5228 308.973 58.9395 309.246C59.3691 309.507 59.8444 309.76 60.3652 310.008C60.8991 310.242 61.4329 310.49 61.9668 310.75C62.5137 310.997 63.041 311.258 63.5488 311.531C64.0697 311.805 64.5189 312.104 64.8965 312.43C65.2871 312.755 65.5866 313.107 65.7949 313.484C66.0163 313.849 66.0944 314.266 66.0293 314.734C65.9642 315.203 65.7624 315.607 65.4238 315.945C65.0853 316.284 64.6556 316.551 64.1348 316.746C63.6139 316.928 63.0345 317.046 62.3965 317.098C61.7585 317.163 61.1009 317.163 60.4238 317.098C59.7467 317.033 59.0762 316.909 58.4121 316.727C57.748 316.544 57.1426 316.303 56.5957 316.004C56.0488 315.691 55.5801 315.333 55.1895 314.93C54.7988 314.513 54.5384 314.044 54.4082 313.523ZM66.9473 313.016C66.9473 312.299 67.1035 311.674 67.416 311.141C67.7285 310.607 68.1387 310.158 68.6465 309.793C69.1543 309.428 69.7207 309.161 70.3457 308.992C70.9837 308.81 71.6217 308.719 72.2598 308.719C72.5983 308.719 72.9108 308.784 73.1973 308.914C73.4967 309.031 73.7767 309.201 74.0371 309.422C74.3105 309.63 74.5514 309.878 74.7598 310.164C74.9681 310.438 75.1439 310.724 75.2871 311.023C75.4434 311.323 75.5605 311.629 75.6387 311.941C75.7168 312.241 75.7559 312.534 75.7559 312.82C75.7559 313.484 75.6257 314.077 75.3652 314.598C75.1048 315.118 74.7533 315.561 74.3105 315.926C73.8678 316.277 73.3665 316.551 72.8066 316.746C72.2467 316.928 71.6738 317.02 71.0879 317.02C70.4889 317.02 69.9355 316.928 69.4277 316.746C68.9329 316.551 68.4967 316.284 68.1191 315.945C67.7546 315.607 67.4681 315.19 67.2598 314.695C67.0514 314.188 66.9473 313.628 66.9473 313.016ZM67.9043 312.859C67.9043 313.263 67.9759 313.654 68.1191 314.031C68.2754 314.396 68.4837 314.715 68.7441 314.988C69.0176 315.262 69.3366 315.483 69.7012 315.652C70.0658 315.809 70.4564 315.887 70.873 315.887C71.0944 315.913 71.3613 315.88 71.6738 315.789C71.9993 315.685 72.3184 315.542 72.6309 315.359C72.9564 315.164 73.2624 314.936 73.5488 314.676C73.8483 314.402 74.0957 314.109 74.291 313.797C74.4863 313.471 74.6035 313.139 74.6426 312.801C74.6947 312.449 74.6361 312.104 74.4668 311.766C74.3105 311.414 74.0176 311.082 73.5879 310.77C73.1582 310.444 72.5658 310.145 71.8105 309.871C71.3809 309.871 70.9316 309.936 70.4629 310.066C70.0072 310.184 69.5905 310.366 69.2129 310.613C68.8353 310.861 68.5228 311.173 68.2754 311.551C68.028 311.928 67.9043 312.365 67.9043 312.859ZM83.8223 314.168C83.5228 314.337 83.2624 314.546 83.041 314.793C82.8327 315.027 82.6178 315.255 82.3965 315.477C82.1751 315.685 81.9277 315.867 81.6543 316.023C81.3939 316.18 81.0553 316.258 80.6387 316.258C80.1699 316.258 79.7467 316.16 79.3691 315.965C78.9915 315.757 78.653 315.483 78.3535 315.145C78.0671 314.793 77.8132 314.402 77.5918 313.973C77.3835 313.53 77.2077 313.081 77.0645 312.625C76.9342 312.156 76.8301 311.701 76.752 311.258C76.6868 310.802 76.6543 310.392 76.6543 310.027C76.5501 309.324 76.5697 308.777 76.7129 308.387C76.8561 307.983 77.0254 307.729 77.2207 307.625C77.429 307.508 77.6048 307.534 77.748 307.703C77.8913 307.859 77.9108 308.139 77.8066 308.543C77.7806 308.595 77.7611 308.68 77.748 308.797C77.735 308.901 77.722 309.012 77.709 309.129C77.696 309.246 77.6829 309.357 77.6699 309.461C77.6569 309.565 77.6504 309.637 77.6504 309.676C77.6504 309.949 77.6764 310.275 77.7285 310.652C77.7806 311.017 77.8587 311.401 77.9629 311.805C78.0801 312.208 78.2233 312.612 78.3926 313.016C78.5618 313.406 78.7637 313.758 78.998 314.07C79.2324 314.383 79.4993 314.637 79.7988 314.832C80.1113 315.027 80.4499 315.125 80.8145 315.125C81.0488 315.125 81.3158 315.014 81.6152 314.793C81.9147 314.559 82.1947 314.285 82.4551 313.973C82.7285 313.647 82.9564 313.315 83.1387 312.977C83.334 312.638 83.4316 312.352 83.4316 312.117C83.4316 311.987 83.4316 311.772 83.4316 311.473C83.4447 311.173 83.4512 310.854 83.4512 310.516C83.4512 310.177 83.4447 309.858 83.4316 309.559C83.4316 309.259 83.4316 309.051 83.4316 308.934C83.5098 308.803 83.5944 308.706 83.6855 308.641C83.7767 308.562 83.8874 308.523 84.0176 308.523C84.1738 308.523 84.304 308.628 84.4082 308.836C84.5124 309.044 84.597 309.311 84.6621 309.637C84.7272 309.962 84.7728 310.314 84.7988 310.691C84.8249 311.069 84.8444 311.434 84.8574 311.785C84.8704 312.137 84.8835 312.449 84.8965 312.723C84.9095 312.983 84.929 313.159 84.9551 313.25C85.0202 313.51 85.1113 313.803 85.2285 314.129C85.3587 314.454 85.4824 314.773 85.5996 315.086C85.7168 315.385 85.821 315.665 85.9121 315.926C86.0033 316.173 86.0488 316.362 86.0488 316.492C86.0488 316.688 85.9902 316.805 85.873 316.844C85.7689 316.883 85.6322 316.902 85.4629 316.902C85.2546 316.902 85.0983 316.85 84.9941 316.746C84.903 316.642 84.8314 316.512 84.7793 316.355C84.7402 316.186 84.7077 316.004 84.6816 315.809C84.6556 315.613 84.61 315.411 84.5449 315.203C84.4928 314.995 84.4082 314.799 84.291 314.617C84.1868 314.435 84.0306 314.285 83.8223 314.168ZM88.5098 317C88.2233 316.479 87.9759 315.913 87.7676 315.301C87.5592 314.689 87.3835 314.07 87.2402 313.445C87.097 312.82 86.9798 312.215 86.8887 311.629C86.8105 311.03 86.7585 310.49 86.7324 310.008C86.7324 309.917 86.7259 309.819 86.7129 309.715C86.6999 309.598 86.6934 309.48 86.6934 309.363C86.7064 309.246 86.7259 309.135 86.752 309.031C86.791 308.927 86.8496 308.836 86.9277 308.758H86.9668C86.9798 308.758 86.9863 308.758 86.9863 308.758C86.9863 308.745 86.9928 308.738 87.0059 308.738C87.0189 308.738 87.0254 308.745 87.0254 308.758C87.0254 308.758 87.0384 308.758 87.0645 308.758H87.1035C87.1296 308.771 87.1947 308.797 87.2988 308.836C87.403 308.875 87.4681 308.908 87.4941 308.934C87.7285 308.855 87.9694 308.764 88.2168 308.66C88.4642 308.543 88.7116 308.439 88.959 308.348C89.2194 308.243 89.4798 308.159 89.7402 308.094C90.0007 308.029 90.2546 307.996 90.502 307.996C90.6842 307.996 90.8405 308.003 90.9707 308.016C91.1139 308.029 91.2507 308.055 91.3809 308.094C91.5241 308.12 91.6738 308.159 91.8301 308.211C91.9863 308.25 92.1686 308.302 92.377 308.367C92.4811 308.445 92.5723 308.523 92.6504 308.602C92.7415 308.667 92.8197 308.745 92.8848 308.836C92.9629 308.927 93.0215 309.038 93.0605 309.168C93.0996 309.298 93.1191 309.467 93.1191 309.676C92.9108 309.702 92.6634 309.689 92.377 309.637C92.1035 309.572 91.8105 309.493 91.498 309.402C91.1986 309.311 90.8861 309.233 90.5605 309.168C90.235 309.103 89.9225 309.077 89.623 309.09C89.3236 309.103 89.0436 309.188 88.7832 309.344C88.5098 309.474 88.2689 309.708 88.0605 310.047C87.9694 310.424 87.9303 310.796 87.9434 311.16C87.9564 311.525 88.002 311.883 88.0801 312.234C88.1582 312.573 88.2559 312.918 88.373 313.27C88.5033 313.608 88.6204 313.953 88.7246 314.305C88.8418 314.643 88.946 314.982 89.0371 315.32C89.1283 315.659 89.1868 316.004 89.2129 316.355C89.2129 316.486 89.1413 316.629 88.998 316.785C88.8548 316.928 88.6921 317 88.5098 317ZM93.666 312.645C93.666 312.072 93.7767 311.518 93.998 310.984C94.2194 310.438 94.5189 309.956 94.8965 309.539C95.2871 309.122 95.7363 308.79 96.2441 308.543C96.752 308.296 97.2923 308.172 97.8652 308.172C98.1257 308.172 98.3991 308.204 98.6855 308.27C98.985 308.322 99.265 308.413 99.5254 308.543C99.7858 308.673 100.001 308.849 100.17 309.07C100.339 309.279 100.424 309.546 100.424 309.871C100.424 309.923 100.404 310.027 100.365 310.184C100.339 310.34 100.3 310.496 100.248 310.652C100.196 310.809 100.131 310.952 100.053 311.082C99.9876 311.199 99.929 311.258 99.877 311.258C99.877 310.646 99.7077 310.138 99.3691 309.734C99.0306 309.318 98.5358 309.109 97.8848 309.109C97.39 309.109 96.9473 309.214 96.5566 309.422C96.166 309.63 95.8405 309.904 95.5801 310.242C95.3197 310.581 95.1178 310.965 94.9746 311.395C94.8444 311.811 94.7793 312.241 94.7793 312.684C94.7793 313.283 94.877 313.777 95.0723 314.168C95.2676 314.559 95.5345 314.878 95.873 315.125C96.2116 315.359 96.6022 315.535 97.0449 315.652C97.4876 315.77 97.9564 315.848 98.4512 315.887C98.946 315.926 99.4408 315.939 99.9355 315.926C100.43 315.913 100.906 315.893 101.361 315.867C101.4 315.867 101.465 315.893 101.557 315.945C101.648 315.997 101.713 316.03 101.752 316.043V316.102C101.752 316.128 101.752 316.141 101.752 316.141C101.765 316.141 101.771 316.147 101.771 316.16C101.771 316.303 101.7 316.427 101.557 316.531C101.413 316.635 101.238 316.72 101.029 316.785C100.821 316.85 100.593 316.896 100.346 316.922C100.098 316.948 99.8509 316.974 99.6035 317C99.3691 317.013 99.1608 317.02 98.9785 317.02C98.7962 317.02 98.666 317.02 98.5879 317.02C97.8327 317.02 97.1491 316.935 96.5371 316.766C95.9382 316.596 95.4238 316.336 94.9941 315.984C94.5775 315.62 94.252 315.164 94.0176 314.617C93.7832 314.057 93.666 313.4 93.666 312.645ZM102.65 311.766C102.65 311.089 102.748 310.444 102.943 309.832C103.152 309.207 103.445 308.66 103.822 308.191C104.213 307.723 104.682 307.352 105.229 307.078C105.788 306.792 106.433 306.648 107.162 306.648C107.592 306.701 107.963 306.818 108.275 307C108.601 307.182 108.861 307.41 109.057 307.684C109.265 307.944 109.415 308.25 109.506 308.602C109.584 308.94 109.623 309.305 109.623 309.695C109.623 310.164 109.486 310.587 109.213 310.965C108.939 311.342 108.594 311.661 108.178 311.922C107.761 312.169 107.312 312.365 106.83 312.508C106.348 312.638 105.899 312.703 105.482 312.703C105.326 312.703 105.163 312.703 104.994 312.703C104.838 312.703 104.695 312.677 104.564 312.625C104.434 312.573 104.33 312.495 104.252 312.391C104.174 312.286 104.135 312.13 104.135 311.922C104.135 311.857 104.141 311.805 104.154 311.766C104.18 311.714 104.239 311.681 104.33 311.668C104.421 311.642 104.558 311.635 104.74 311.648C104.923 311.674 105.17 311.714 105.482 311.766C105.665 311.766 105.925 311.707 106.264 311.59C106.615 311.46 106.967 311.297 107.318 311.102C107.683 310.906 107.995 310.685 108.256 310.438C108.516 310.177 108.646 309.923 108.646 309.676C108.646 309.415 108.601 309.161 108.51 308.914C108.432 308.654 108.308 308.426 108.139 308.23C107.969 308.035 107.768 307.879 107.533 307.762C107.312 307.645 107.058 307.599 106.771 307.625C106.316 307.664 105.899 307.788 105.521 307.996C105.157 308.204 104.844 308.478 104.584 308.816C104.324 309.142 104.122 309.507 103.979 309.91C103.835 310.314 103.764 310.737 103.764 311.18C103.764 311.518 103.77 311.857 103.783 312.195C103.796 312.534 103.842 312.866 103.92 313.191C104.011 313.517 104.148 313.829 104.33 314.129C104.525 314.428 104.799 314.695 105.15 314.93C105.515 315.151 105.971 315.34 106.518 315.496C107.064 315.639 107.742 315.73 108.549 315.77L112.045 315.535C111.837 315.822 111.57 316.056 111.244 316.238C110.932 316.421 110.593 316.57 110.229 316.688C109.877 316.792 109.525 316.87 109.174 316.922C108.822 316.974 108.49 317 108.178 317C107.423 317 106.713 316.876 106.049 316.629C105.385 316.382 104.799 316.036 104.291 315.594C103.783 315.138 103.38 314.591 103.08 313.953C102.794 313.302 102.65 312.573 102.65 311.766Z" fill="#6B7280"/>
</g>
<g opacity="0.8" clip-path="url(#clip1_3_1397)">
<path d="M376.094 401.029C355.594 399.029 355.638 401.71 330.305 378.094" stroke="#6B7280" stroke-width="1.3"/>
<path d="M335.094 392.029C330.094 375.529 323.594 372.029 346.959 388.007" stroke="#6B7280" stroke-width="1.3"/>
<path d="M387.151 402.052C387.151 401.922 387.177 401.786 387.229 401.642C387.281 401.486 387.352 401.343 387.444 401.213C387.535 401.069 387.645 400.952 387.776 400.861C387.906 400.77 388.043 400.724 388.186 400.724C388.186 401.571 388.336 402.241 388.635 402.736C388.934 403.218 389.345 403.589 389.865 403.849C390.399 404.11 391.005 404.286 391.682 404.377C392.359 404.468 393.088 404.533 393.869 404.572C394.13 404.559 394.468 404.552 394.885 404.552C395.315 404.539 395.725 404.494 396.115 404.416C396.506 404.325 396.838 404.181 397.112 403.986C397.385 403.791 397.515 403.491 397.502 403.088C397.502 402.905 397.496 402.743 397.483 402.599C397.47 402.456 397.437 402.332 397.385 402.228C397.346 402.111 397.268 402 397.151 401.896C397.046 401.792 396.897 401.688 396.701 401.584L390.901 398.42C390.692 398.302 390.49 398.159 390.295 397.99C390.1 397.808 389.937 397.612 389.807 397.404C389.677 397.183 389.573 396.955 389.494 396.72C389.416 396.473 389.377 396.232 389.377 395.998C389.377 395.503 389.507 395.099 389.768 394.787C390.041 394.474 390.373 394.227 390.764 394.045C391.168 393.849 391.597 393.713 392.053 393.635C392.522 393.556 392.951 393.517 393.342 393.517C393.524 393.517 393.759 393.537 394.045 393.576C394.332 393.602 394.638 393.648 394.963 393.713C395.289 393.778 395.608 393.862 395.92 393.967C396.246 394.071 396.532 394.207 396.78 394.377C397.027 394.533 397.229 394.722 397.385 394.943C397.554 395.151 397.639 395.399 397.639 395.685C397.457 395.789 397.268 395.822 397.073 395.783C396.89 395.744 396.701 395.672 396.506 395.568C396.311 395.464 396.109 395.347 395.901 395.217C395.692 395.086 395.477 394.956 395.256 394.826C395.035 394.696 394.8 394.592 394.553 394.513C394.306 394.435 394.045 394.409 393.772 394.435C393.524 394.435 393.205 394.448 392.815 394.474C392.424 394.5 392.04 394.566 391.662 394.67C391.298 394.761 390.979 394.911 390.705 395.119C390.445 395.314 390.315 395.594 390.315 395.959C390.315 396.31 390.438 396.636 390.686 396.935C390.933 397.222 391.265 397.502 391.682 397.775C392.112 398.036 392.587 398.289 393.108 398.537C393.642 398.771 394.175 399.019 394.709 399.279C395.256 399.526 395.783 399.787 396.291 400.06C396.812 400.334 397.261 400.633 397.639 400.959C398.03 401.284 398.329 401.636 398.537 402.013C398.759 402.378 398.837 402.795 398.772 403.263C398.707 403.732 398.505 404.136 398.166 404.474C397.828 404.813 397.398 405.08 396.877 405.275C396.356 405.457 395.777 405.575 395.139 405.627C394.501 405.692 393.843 405.692 393.166 405.627C392.489 405.562 391.819 405.438 391.155 405.256C390.49 405.073 389.885 404.832 389.338 404.533C388.791 404.22 388.323 403.862 387.932 403.459C387.541 403.042 387.281 402.573 387.151 402.052ZM399.69 401.545C399.69 400.829 399.846 400.204 400.158 399.67C400.471 399.136 400.881 398.687 401.389 398.322C401.897 397.957 402.463 397.691 403.088 397.521C403.726 397.339 404.364 397.248 405.002 397.248C405.341 397.248 405.653 397.313 405.94 397.443C406.239 397.56 406.519 397.73 406.78 397.951C407.053 398.159 407.294 398.407 407.502 398.693C407.711 398.967 407.886 399.253 408.03 399.552C408.186 399.852 408.303 400.158 408.381 400.47C408.459 400.77 408.498 401.063 408.498 401.349C408.498 402.013 408.368 402.606 408.108 403.127C407.847 403.648 407.496 404.09 407.053 404.455C406.61 404.806 406.109 405.08 405.549 405.275C404.989 405.457 404.416 405.549 403.83 405.549C403.231 405.549 402.678 405.457 402.17 405.275C401.675 405.08 401.239 404.813 400.862 404.474C400.497 404.136 400.211 403.719 400.002 403.224C399.794 402.717 399.69 402.157 399.69 401.545ZM400.647 401.388C400.647 401.792 400.718 402.183 400.862 402.56C401.018 402.925 401.226 403.244 401.487 403.517C401.76 403.791 402.079 404.012 402.444 404.181C402.808 404.338 403.199 404.416 403.615 404.416C403.837 404.442 404.104 404.409 404.416 404.318C404.742 404.214 405.061 404.071 405.373 403.888C405.699 403.693 406.005 403.465 406.291 403.205C406.591 402.931 406.838 402.638 407.033 402.326C407.229 402 407.346 401.668 407.385 401.33C407.437 400.978 407.378 400.633 407.209 400.295C407.053 399.943 406.76 399.611 406.33 399.299C405.901 398.973 405.308 398.674 404.553 398.4C404.123 398.4 403.674 398.465 403.205 398.595C402.75 398.713 402.333 398.895 401.955 399.142C401.578 399.39 401.265 399.702 401.018 400.08C400.77 400.457 400.647 400.894 400.647 401.388ZM416.936 401.174C416.936 400.601 417.046 400.047 417.268 399.513C417.489 398.967 417.789 398.485 418.166 398.068C418.557 397.651 419.006 397.319 419.514 397.072C420.022 396.825 420.562 396.701 421.135 396.701C421.395 396.701 421.669 396.733 421.955 396.799C422.255 396.851 422.535 396.942 422.795 397.072C423.056 397.202 423.27 397.378 423.44 397.599C423.609 397.808 423.694 398.075 423.694 398.4C423.694 398.452 423.674 398.556 423.635 398.713C423.609 398.869 423.57 399.025 423.518 399.181C423.466 399.338 423.401 399.481 423.323 399.611C423.257 399.728 423.199 399.787 423.147 399.787C423.147 399.175 422.977 398.667 422.639 398.263C422.3 397.847 421.806 397.638 421.155 397.638C420.66 397.638 420.217 397.743 419.826 397.951C419.436 398.159 419.11 398.433 418.85 398.771C418.589 399.11 418.388 399.494 418.244 399.924C418.114 400.34 418.049 400.77 418.049 401.213C418.049 401.812 418.147 402.306 418.342 402.697C418.537 403.088 418.804 403.407 419.143 403.654C419.481 403.888 419.872 404.064 420.315 404.181C420.757 404.299 421.226 404.377 421.721 404.416C422.216 404.455 422.711 404.468 423.205 404.455C423.7 404.442 424.175 404.422 424.631 404.396C424.67 404.396 424.735 404.422 424.826 404.474C424.918 404.526 424.983 404.559 425.022 404.572V404.631C425.022 404.657 425.022 404.67 425.022 404.67C425.035 404.67 425.041 404.676 425.041 404.689C425.041 404.832 424.97 404.956 424.826 405.06C424.683 405.164 424.507 405.249 424.299 405.314C424.091 405.379 423.863 405.425 423.615 405.451C423.368 405.477 423.121 405.503 422.873 405.529C422.639 405.542 422.431 405.549 422.248 405.549C422.066 405.549 421.936 405.549 421.858 405.549C421.102 405.549 420.419 405.464 419.807 405.295C419.208 405.125 418.694 404.865 418.264 404.513C417.847 404.149 417.522 403.693 417.287 403.146C417.053 402.586 416.936 401.929 416.936 401.174ZM433.049 402.697C432.75 402.866 432.489 403.075 432.268 403.322C432.059 403.556 431.845 403.784 431.623 404.006C431.402 404.214 431.155 404.396 430.881 404.552C430.621 404.709 430.282 404.787 429.865 404.787C429.397 404.787 428.974 404.689 428.596 404.494C428.218 404.286 427.88 404.012 427.58 403.674C427.294 403.322 427.04 402.931 426.819 402.502C426.61 402.059 426.434 401.61 426.291 401.154C426.161 400.685 426.057 400.23 425.979 399.787C425.914 399.331 425.881 398.921 425.881 398.556C425.777 397.853 425.796 397.306 425.94 396.916C426.083 396.512 426.252 396.258 426.448 396.154C426.656 396.037 426.832 396.063 426.975 396.232C427.118 396.388 427.138 396.668 427.033 397.072C427.007 397.124 426.988 397.209 426.975 397.326C426.962 397.43 426.949 397.541 426.936 397.658C426.923 397.775 426.91 397.886 426.897 397.99C426.884 398.094 426.877 398.166 426.877 398.205C426.877 398.478 426.903 398.804 426.955 399.181C427.007 399.546 427.086 399.93 427.19 400.334C427.307 400.737 427.45 401.141 427.619 401.545C427.789 401.935 427.99 402.287 428.225 402.599C428.459 402.912 428.726 403.166 429.026 403.361C429.338 403.556 429.677 403.654 430.041 403.654C430.276 403.654 430.543 403.543 430.842 403.322C431.142 403.088 431.421 402.814 431.682 402.502C431.955 402.176 432.183 401.844 432.365 401.506C432.561 401.167 432.658 400.881 432.658 400.646C432.658 400.516 432.658 400.301 432.658 400.002C432.671 399.702 432.678 399.383 432.678 399.045C432.678 398.706 432.671 398.387 432.658 398.088C432.658 397.788 432.658 397.58 432.658 397.463C432.737 397.332 432.821 397.235 432.912 397.17C433.003 397.092 433.114 397.052 433.244 397.052C433.401 397.052 433.531 397.157 433.635 397.365C433.739 397.573 433.824 397.84 433.889 398.166C433.954 398.491 434 398.843 434.026 399.22C434.052 399.598 434.071 399.963 434.084 400.314C434.097 400.666 434.11 400.978 434.123 401.252C434.136 401.512 434.156 401.688 434.182 401.779C434.247 402.039 434.338 402.332 434.455 402.658C434.586 402.983 434.709 403.302 434.826 403.615C434.944 403.914 435.048 404.194 435.139 404.455C435.23 404.702 435.276 404.891 435.276 405.021C435.276 405.217 435.217 405.334 435.1 405.373C434.996 405.412 434.859 405.431 434.69 405.431C434.481 405.431 434.325 405.379 434.221 405.275C434.13 405.171 434.058 405.041 434.006 404.885C433.967 404.715 433.934 404.533 433.908 404.338C433.882 404.142 433.837 403.941 433.772 403.732C433.72 403.524 433.635 403.329 433.518 403.146C433.414 402.964 433.257 402.814 433.049 402.697ZM438.244 398.81C438.14 398.81 437.958 398.81 437.698 398.81C437.437 398.81 437.164 398.791 436.877 398.752C436.604 398.7 436.35 398.622 436.115 398.517C435.894 398.413 435.783 398.263 435.783 398.068C435.783 398.016 435.79 397.944 435.803 397.853C435.829 397.749 435.894 397.697 435.998 397.697L438.01 397.521C438.062 397.039 438.101 396.649 438.127 396.349C438.153 396.037 438.16 395.75 438.147 395.49C438.134 395.217 438.114 394.937 438.088 394.65C438.075 394.351 438.062 393.967 438.049 393.498C438.049 393.407 438.069 393.335 438.108 393.283C438.147 393.231 438.192 393.192 438.244 393.166C438.309 393.14 438.375 393.12 438.44 393.107C438.518 393.094 438.576 393.088 438.615 393.088C438.694 393.088 438.772 393.114 438.85 393.166C438.941 393.218 439.019 393.283 439.084 393.361C439.149 393.439 439.201 393.524 439.24 393.615C439.28 393.693 439.299 393.771 439.299 393.849L439.455 397.502L441.135 397.58C441.356 397.554 441.558 397.599 441.74 397.717C441.936 397.821 442.04 398.023 442.053 398.322C441.897 398.491 441.708 398.595 441.487 398.635C441.265 398.661 441.031 398.674 440.783 398.674C440.549 398.661 440.315 398.661 440.08 398.674C439.846 398.674 439.638 398.732 439.455 398.849C439.455 398.927 439.462 399.142 439.475 399.494C439.488 399.845 439.501 400.262 439.514 400.744C439.527 401.226 439.54 401.74 439.553 402.287C439.579 402.834 439.599 403.342 439.612 403.81C439.625 404.266 439.631 404.657 439.631 404.982C439.644 405.308 439.651 405.49 439.651 405.529C439.351 405.711 439.11 405.698 438.928 405.49C438.746 405.269 438.596 404.95 438.479 404.533C438.375 404.103 438.296 403.608 438.244 403.049C438.205 402.476 438.179 401.916 438.166 401.369C438.166 400.809 438.173 400.295 438.186 399.826C438.199 399.357 438.218 399.019 438.244 398.81ZM442.522 400.295C442.522 399.618 442.619 398.973 442.815 398.361C443.023 397.736 443.316 397.189 443.694 396.72C444.084 396.252 444.553 395.881 445.1 395.607C445.66 395.321 446.304 395.177 447.033 395.177C447.463 395.23 447.834 395.347 448.147 395.529C448.472 395.711 448.733 395.939 448.928 396.213C449.136 396.473 449.286 396.779 449.377 397.131C449.455 397.469 449.494 397.834 449.494 398.224C449.494 398.693 449.358 399.116 449.084 399.494C448.811 399.872 448.466 400.191 448.049 400.451C447.632 400.698 447.183 400.894 446.701 401.037C446.22 401.167 445.77 401.232 445.354 401.232C445.198 401.232 445.035 401.232 444.865 401.232C444.709 401.232 444.566 401.206 444.436 401.154C444.306 401.102 444.201 401.024 444.123 400.92C444.045 400.816 444.006 400.659 444.006 400.451C444.006 400.386 444.013 400.334 444.026 400.295C444.052 400.243 444.11 400.21 444.201 400.197C444.293 400.171 444.429 400.164 444.612 400.177C444.794 400.204 445.041 400.243 445.354 400.295C445.536 400.295 445.796 400.236 446.135 400.119C446.487 399.989 446.838 399.826 447.19 399.631C447.554 399.435 447.867 399.214 448.127 398.967C448.388 398.706 448.518 398.452 448.518 398.205C448.518 397.944 448.472 397.691 448.381 397.443C448.303 397.183 448.179 396.955 448.01 396.76C447.841 396.564 447.639 396.408 447.405 396.291C447.183 396.174 446.929 396.128 446.643 396.154C446.187 396.193 445.77 396.317 445.393 396.525C445.028 396.733 444.716 397.007 444.455 397.345C444.195 397.671 443.993 398.036 443.85 398.439C443.707 398.843 443.635 399.266 443.635 399.709C443.635 400.047 443.642 400.386 443.655 400.724C443.668 401.063 443.713 401.395 443.791 401.72C443.882 402.046 444.019 402.358 444.201 402.658C444.397 402.957 444.67 403.224 445.022 403.459C445.386 403.68 445.842 403.869 446.389 404.025C446.936 404.168 447.613 404.26 448.42 404.299L451.916 404.064C451.708 404.351 451.441 404.585 451.115 404.767C450.803 404.95 450.464 405.099 450.1 405.217C449.748 405.321 449.397 405.399 449.045 405.451C448.694 405.503 448.362 405.529 448.049 405.529C447.294 405.529 446.584 405.405 445.92 405.158C445.256 404.911 444.67 404.566 444.162 404.123C443.655 403.667 443.251 403.12 442.951 402.482C442.665 401.831 442.522 401.102 442.522 400.295ZM452.776 404.572C452.776 404.181 452.919 403.901 453.205 403.732C453.518 403.55 453.869 403.459 454.26 403.459C454.39 403.459 454.507 403.498 454.612 403.576C454.716 403.654 454.807 403.752 454.885 403.869C454.963 403.973 455.015 404.09 455.041 404.22C455.08 404.338 455.1 404.455 455.1 404.572C455.1 404.715 455.048 404.845 454.944 404.963C454.839 405.08 454.716 405.184 454.573 405.275C454.429 405.366 454.273 405.438 454.104 405.49C453.934 405.529 453.791 405.549 453.674 405.549C453.349 405.549 453.114 405.464 452.971 405.295C452.841 405.112 452.776 404.872 452.776 404.572ZM453.381 400.177C453.329 399.839 453.29 399.383 453.264 398.81C453.251 398.224 453.238 397.586 453.225 396.896C453.225 396.193 453.225 395.464 453.225 394.709C453.238 393.941 453.244 393.211 453.244 392.521C453.244 391.818 453.244 391.18 453.244 390.607C453.244 390.008 453.231 389.539 453.205 389.201L454.162 389.045L454.182 389.396C454.182 389.631 454.182 389.937 454.182 390.314C454.195 390.692 454.201 391.128 454.201 391.623C454.214 392.118 454.227 392.632 454.24 393.166C454.253 393.7 454.26 394.24 454.26 394.787C454.26 395.321 454.267 395.822 454.28 396.291C454.293 396.76 454.299 397.176 454.299 397.541C454.312 397.892 454.325 398.146 454.338 398.302C454.338 398.329 454.338 398.381 454.338 398.459C454.338 398.524 454.338 398.608 454.338 398.713C454.351 398.804 454.358 398.895 454.358 398.986C454.358 399.077 454.358 399.149 454.358 399.201C454.358 399.305 454.358 399.429 454.358 399.572C454.371 399.702 454.364 399.832 454.338 399.963C454.325 400.093 454.286 400.204 454.221 400.295C454.156 400.373 454.045 400.412 453.889 400.412C453.798 400.412 453.7 400.405 453.596 400.392C453.492 400.379 453.42 400.308 453.381 400.177ZM455.764 404.572C455.764 404.181 455.907 403.901 456.194 403.732C456.506 403.55 456.858 403.459 457.248 403.459C457.378 403.459 457.496 403.498 457.6 403.576C457.704 403.654 457.795 403.752 457.873 403.869C457.951 403.973 458.003 404.09 458.03 404.22C458.069 404.338 458.088 404.455 458.088 404.572C458.088 404.715 458.036 404.845 457.932 404.963C457.828 405.08 457.704 405.184 457.561 405.275C457.418 405.366 457.261 405.438 457.092 405.49C456.923 405.529 456.78 405.549 456.662 405.549C456.337 405.549 456.102 405.464 455.959 405.295C455.829 405.112 455.764 404.872 455.764 404.572ZM456.369 400.177C456.317 399.839 456.278 399.383 456.252 398.81C456.239 398.224 456.226 397.586 456.213 396.896C456.213 396.193 456.213 395.464 456.213 394.709C456.226 393.941 456.233 393.211 456.233 392.521C456.233 391.818 456.233 391.18 456.233 390.607C456.233 390.008 456.22 389.539 456.194 389.201L457.151 389.045L457.17 389.396C457.17 389.631 457.17 389.937 457.17 390.314C457.183 390.692 457.19 391.128 457.19 391.623C457.203 392.118 457.216 392.632 457.229 393.166C457.242 393.7 457.248 394.24 457.248 394.787C457.248 395.321 457.255 395.822 457.268 396.291C457.281 396.76 457.287 397.176 457.287 397.541C457.3 397.892 457.313 398.146 457.326 398.302C457.326 398.329 457.326 398.381 457.326 398.459C457.326 398.524 457.326 398.608 457.326 398.713C457.339 398.804 457.346 398.895 457.346 398.986C457.346 399.077 457.346 399.149 457.346 399.201C457.346 399.305 457.346 399.429 457.346 399.572C457.359 399.702 457.352 399.832 457.326 399.963C457.313 400.093 457.274 400.204 457.209 400.295C457.144 400.373 457.033 400.412 456.877 400.412C456.786 400.412 456.688 400.405 456.584 400.392C456.48 400.379 456.408 400.308 456.369 400.177ZM458.752 404.572C458.752 404.181 458.895 403.901 459.182 403.732C459.494 403.55 459.846 403.459 460.237 403.459C460.367 403.459 460.484 403.498 460.588 403.576C460.692 403.654 460.783 403.752 460.862 403.869C460.94 403.973 460.992 404.09 461.018 404.22C461.057 404.338 461.076 404.455 461.076 404.572C461.076 404.715 461.024 404.845 460.92 404.963C460.816 405.08 460.692 405.184 460.549 405.275C460.406 405.366 460.25 405.438 460.08 405.49C459.911 405.529 459.768 405.549 459.651 405.549C459.325 405.549 459.091 405.464 458.948 405.295C458.817 405.112 458.752 404.872 458.752 404.572ZM459.358 400.177C459.306 399.839 459.267 399.383 459.24 398.81C459.227 398.224 459.214 397.586 459.201 396.896C459.201 396.193 459.201 395.464 459.201 394.709C459.214 393.941 459.221 393.211 459.221 392.521C459.221 391.818 459.221 391.18 459.221 390.607C459.221 390.008 459.208 389.539 459.182 389.201L460.139 389.045L460.158 389.396C460.158 389.631 460.158 389.937 460.158 390.314C460.171 390.692 460.178 391.128 460.178 391.623C460.191 392.118 460.204 392.632 460.217 393.166C460.23 393.7 460.237 394.24 460.237 394.787C460.237 395.321 460.243 395.822 460.256 396.291C460.269 396.76 460.276 397.176 460.276 397.541C460.289 397.892 460.302 398.146 460.315 398.302C460.315 398.329 460.315 398.381 460.315 398.459C460.315 398.524 460.315 398.608 460.315 398.713C460.328 398.804 460.334 398.895 460.334 398.986C460.334 399.077 460.334 399.149 460.334 399.201C460.334 399.305 460.334 399.429 460.334 399.572C460.347 399.702 460.341 399.832 460.315 399.963C460.302 400.093 460.263 400.204 460.198 400.295C460.132 400.373 460.022 400.412 459.865 400.412C459.774 400.412 459.677 400.405 459.573 400.392C459.468 400.379 459.397 400.308 459.358 400.177Z" fill="#6B7280"/>
</g>
<g opacity="0.8" clip-path="url(#clip2_3_1397)">
<path d="M459.989 55.3482C433.916 84.1469 430.61 78.4198 397.491 88.5511" stroke="#6B7280" stroke-width="1.3"/>
<path d="M410.585 89.2485C395.275 86.3474 390.329 92.984 414.403 79.0849" stroke="#6B7280" stroke-width="1.3"/>
<path d="M404.37 39.6289C404.292 39.2773 404.233 38.9844 404.194 38.75C404.155 38.5156 404.122 38.3073 404.096 38.125C404.083 37.9297 404.077 37.7539 404.077 37.5977C404.077 37.4414 404.07 37.2721 404.057 37.0898C404.057 36.9076 404.044 36.6992 404.018 36.4648C403.992 36.2174 403.953 35.918 403.901 35.5664C403.862 35.306 403.771 35.1302 403.627 35.0391C403.484 34.9349 403.315 34.8828 403.12 34.8828C402.937 34.8698 402.742 34.8828 402.534 34.9219C402.338 34.9479 402.15 34.9609 401.967 34.9609C401.798 34.9609 401.661 34.9219 401.557 34.8438C401.44 34.7396 401.381 34.5703 401.381 34.3359C401.381 34.3099 401.407 34.2773 401.459 34.2383C401.525 34.1862 401.57 34.1602 401.596 34.1602C401.831 34.1341 402.058 34.1211 402.28 34.1211C402.501 34.1081 402.696 34.069 402.866 34.0039C403.048 33.9388 403.198 33.8281 403.315 33.6719C403.419 33.4896 403.471 33.2422 403.471 32.9297C403.367 32.2917 403.321 31.7448 403.334 31.2891C403.347 30.8203 403.328 30.4362 403.276 30.1367C403.237 29.8372 403.126 29.6354 402.944 29.5312C402.749 29.4141 402.417 29.388 401.948 29.4531C401.896 29.4531 401.805 29.4531 401.674 29.4531C401.557 29.4531 401.427 29.4596 401.284 29.4727C401.153 29.4727 401.023 29.4727 400.893 29.4727C400.776 29.4727 400.691 29.4727 400.639 29.4727C400.613 29.4987 400.555 29.5312 400.463 29.5703C400.359 29.6094 400.294 29.6354 400.268 29.6484C400.242 29.6484 400.222 29.6484 400.209 29.6484C400.183 29.6615 400.164 29.668 400.151 29.668L400.112 29.6484H400.073C400.047 29.6224 400.014 29.5638 399.975 29.4727C399.936 29.3815 399.91 29.3164 399.897 29.2773V29.1797C400.079 28.9974 400.398 28.8346 400.854 28.6914C401.31 28.5482 401.85 28.4245 402.475 28.3203C403.1 28.2161 403.784 28.138 404.526 28.0859C405.268 28.0339 406.01 28.0143 406.752 28.0273C407.508 28.0273 408.243 28.0794 408.959 28.1836C409.676 28.2747 410.314 28.4115 410.874 28.5938C411.433 28.763 411.896 28.9909 412.26 29.2773C412.625 29.5768 412.827 29.9219 412.866 30.3125C412.449 30.3125 412.039 30.2604 411.635 30.1562C411.245 30.0521 410.847 29.9349 410.444 29.8047C410.04 29.6745 409.63 29.5573 409.213 29.4531C408.81 29.349 408.387 29.2969 407.944 29.2969C407.84 29.2969 407.683 29.2969 407.475 29.2969C407.28 29.2839 407.052 29.2773 406.792 29.2773C406.531 29.2643 406.264 29.2708 405.991 29.2969C405.717 29.3099 405.463 29.349 405.229 29.4141C404.995 29.4661 404.806 29.5508 404.663 29.668C404.519 29.7721 404.448 29.9154 404.448 30.0977C404.448 30.293 404.435 30.5599 404.409 30.8984C404.383 31.237 404.376 31.5885 404.389 31.9531C404.402 32.3047 404.448 32.6367 404.526 32.9492C404.604 33.2617 404.747 33.4896 404.956 33.6328C404.982 33.6328 405.027 33.6328 405.092 33.6328C405.157 33.6328 405.229 33.6328 405.307 33.6328C405.385 33.6328 405.463 33.6328 405.542 33.6328C405.62 33.6328 405.672 33.6328 405.698 33.6328C406.674 33.5547 407.462 33.5352 408.061 33.5742C408.673 33.6133 409.109 33.6914 409.37 33.8086C409.63 33.9258 409.721 34.0625 409.643 34.2188C409.578 34.362 409.357 34.4987 408.979 34.6289C408.614 34.7591 408.1 34.8698 407.436 34.9609C406.772 35.0391 405.978 35.0651 405.053 35.0391C405.079 35.625 405.105 36.0872 405.131 36.4258C405.157 36.7513 405.183 37.0117 405.209 37.207C405.249 37.3893 405.281 37.5391 405.307 37.6562C405.333 37.7604 405.366 37.8906 405.405 38.0469C405.444 38.1901 405.476 38.3919 405.502 38.6523C405.528 38.8997 405.555 39.2708 405.581 39.7656C405.398 39.7396 405.229 39.7266 405.073 39.7266C404.917 39.7135 404.78 39.707 404.663 39.707C404.558 39.707 404.474 39.7005 404.409 39.6875C404.357 39.6745 404.344 39.6549 404.37 39.6289ZM418.374 37.168C418.074 37.3372 417.814 37.5456 417.592 37.793C417.384 38.0273 417.169 38.2552 416.948 38.4766C416.726 38.6849 416.479 38.8672 416.206 39.0234C415.945 39.1797 415.607 39.2578 415.19 39.2578C414.721 39.2578 414.298 39.1602 413.92 38.9648C413.543 38.7565 413.204 38.4831 412.905 38.1445C412.618 37.793 412.364 37.4023 412.143 36.9727C411.935 36.5299 411.759 36.0807 411.616 35.625C411.486 35.1562 411.381 34.7005 411.303 34.2578C411.238 33.8021 411.206 33.3919 411.206 33.0273C411.101 32.3242 411.121 31.7773 411.264 31.3867C411.407 30.9831 411.577 30.7292 411.772 30.625C411.98 30.5078 412.156 30.5339 412.299 30.7031C412.443 30.8594 412.462 31.1393 412.358 31.543C412.332 31.5951 412.312 31.6797 412.299 31.7969C412.286 31.901 412.273 32.0117 412.26 32.1289C412.247 32.2461 412.234 32.3568 412.221 32.4609C412.208 32.5651 412.202 32.6367 412.202 32.6758C412.202 32.9492 412.228 33.2747 412.28 33.6523C412.332 34.0169 412.41 34.401 412.514 34.8047C412.631 35.2083 412.775 35.612 412.944 36.0156C413.113 36.4062 413.315 36.7578 413.549 37.0703C413.784 37.3828 414.051 37.6367 414.35 37.832C414.663 38.0273 415.001 38.125 415.366 38.125C415.6 38.125 415.867 38.0143 416.167 37.793C416.466 37.5586 416.746 37.2852 417.006 36.9727C417.28 36.6471 417.508 36.3151 417.69 35.9766C417.885 35.638 417.983 35.3516 417.983 35.1172C417.983 34.987 417.983 34.7721 417.983 34.4727C417.996 34.1732 418.002 33.8542 418.002 33.5156C418.002 33.1771 417.996 32.8581 417.983 32.5586C417.983 32.2591 417.983 32.0508 417.983 31.9336C418.061 31.8034 418.146 31.7057 418.237 31.6406C418.328 31.5625 418.439 31.5234 418.569 31.5234C418.725 31.5234 418.855 31.6276 418.959 31.8359C419.064 32.0443 419.148 32.3112 419.213 32.6367C419.278 32.9622 419.324 33.3138 419.35 33.6914C419.376 34.069 419.396 34.4336 419.409 34.7852C419.422 35.1367 419.435 35.4492 419.448 35.7227C419.461 35.9831 419.48 36.1589 419.506 36.25C419.571 36.5104 419.663 36.8034 419.78 37.1289C419.91 37.4544 420.034 37.7734 420.151 38.0859C420.268 38.3854 420.372 38.6654 420.463 38.9258C420.555 39.1732 420.6 39.362 420.6 39.4922C420.6 39.6875 420.542 39.8047 420.424 39.8438C420.32 39.8828 420.183 39.9023 420.014 39.9023C419.806 39.9023 419.65 39.8503 419.545 39.7461C419.454 39.6419 419.383 39.5117 419.331 39.3555C419.292 39.1862 419.259 39.0039 419.233 38.8086C419.207 38.6133 419.161 38.4115 419.096 38.2031C419.044 37.9948 418.959 37.7995 418.842 37.6172C418.738 37.4349 418.582 37.2852 418.374 37.168ZM421.713 39.8438C421.583 38.9193 421.499 38.0013 421.459 37.0898C421.433 36.1654 421.42 35.2409 421.42 34.3164C421.42 33.3919 421.433 32.474 421.459 31.5625C421.486 30.651 421.492 29.7396 421.479 28.8281C421.479 28.724 421.518 28.6523 421.596 28.6133C421.674 28.5742 421.765 28.5547 421.87 28.5547C421.987 28.5547 422.091 28.6003 422.182 28.6914C422.273 28.7695 422.351 28.8737 422.417 29.0039C422.482 29.1211 422.527 29.2448 422.553 29.375C422.592 29.4922 422.612 29.5898 422.612 29.668C422.69 31.5299 422.742 33.0859 422.768 34.3359C422.794 35.5729 422.794 36.5755 422.768 37.3438C422.742 38.099 422.696 38.6589 422.631 39.0234C422.579 39.388 422.508 39.6354 422.417 39.7656C422.325 39.8958 422.215 39.9479 422.084 39.9219C421.967 39.8958 421.844 39.8698 421.713 39.8438ZM424.116 39.8438C423.986 38.9193 423.901 38.0013 423.862 37.0898C423.836 36.1654 423.823 35.2409 423.823 34.3164C423.823 33.3919 423.836 32.474 423.862 31.5625C423.888 30.651 423.894 29.7396 423.881 28.8281C423.881 28.724 423.92 28.6523 423.999 28.6133C424.077 28.5742 424.168 28.5547 424.272 28.5547C424.389 28.5547 424.493 28.6003 424.584 28.6914C424.676 28.7695 424.754 28.8737 424.819 29.0039C424.884 29.1211 424.93 29.2448 424.956 29.375C424.995 29.4922 425.014 29.5898 425.014 29.668C425.092 31.5299 425.144 33.0859 425.17 34.3359C425.196 35.5729 425.196 36.5755 425.17 37.3438C425.144 38.099 425.099 38.6589 425.034 39.0234C424.982 39.388 424.91 39.6354 424.819 39.7656C424.728 39.8958 424.617 39.9479 424.487 39.9219C424.37 39.8958 424.246 39.8698 424.116 39.8438ZM426.616 46.0938C426.616 46.0026 426.616 45.9115 426.616 45.8203C426.616 45.7422 426.629 45.6706 426.655 45.6055C426.681 45.5534 426.72 45.5078 426.772 45.4688C426.85 45.4427 426.941 45.4297 427.045 45.4297C427.241 45.651 427.488 45.931 427.788 46.2695C428.1 46.6211 428.452 46.9596 428.842 47.2852C429.233 47.6107 429.643 47.8971 430.073 48.1445C430.502 48.3919 430.939 48.5156 431.381 48.5156C431.746 48.5026 432.058 48.4049 432.319 48.2227C432.579 48.0534 432.801 47.8255 432.983 47.5391C433.165 47.2526 433.315 46.9271 433.432 46.5625C433.549 46.1979 433.64 45.8268 433.706 45.4492C433.784 45.0716 433.836 44.707 433.862 44.3555C433.901 44.0039 433.94 43.6979 433.979 43.4375C434.005 43.3073 434.031 43.0859 434.057 42.7734C434.096 42.474 434.129 42.1354 434.155 41.7578C434.194 41.3932 434.22 41.0091 434.233 40.6055C434.259 40.2018 434.259 39.8372 434.233 39.5117C434.207 39.1732 434.155 38.8997 434.077 38.6914C433.999 38.4701 433.881 38.3594 433.725 38.3594C433.504 38.3594 433.269 38.4245 433.022 38.5547C432.775 38.6849 432.514 38.8346 432.241 39.0039C431.98 39.1602 431.713 39.3034 431.44 39.4336C431.167 39.5638 430.9 39.6289 430.639 39.6289C430.144 39.6289 429.689 39.5312 429.272 39.3359C428.868 39.1276 428.497 38.8607 428.159 38.5352C427.82 38.2096 427.521 37.832 427.26 37.4023C427 36.9596 426.778 36.5039 426.596 36.0352C426.427 35.5664 426.297 35.0977 426.206 34.6289C426.127 34.1602 426.088 33.7174 426.088 33.3008C426.088 33.2096 426.075 33.0599 426.049 32.8516C426.036 32.6432 426.043 32.4284 426.069 32.207C426.095 31.9857 426.153 31.7904 426.245 31.6211C426.336 31.4518 426.479 31.3672 426.674 31.3672C426.726 31.3672 426.765 31.4714 426.792 31.6797C426.831 31.888 426.87 32.1615 426.909 32.5C426.961 32.8255 427.019 33.2031 427.084 33.6328C427.163 34.0625 427.26 34.4987 427.377 34.9414C427.495 35.3841 427.638 35.8203 427.807 36.25C427.976 36.6797 428.185 37.0638 428.432 37.4023C428.68 37.7279 428.972 37.9948 429.311 38.2031C429.663 38.4115 430.06 38.5156 430.502 38.5156C430.789 38.5156 431.088 38.457 431.401 38.3398C431.713 38.2096 432.006 38.0469 432.28 37.8516C432.566 37.6562 432.827 37.4349 433.061 37.1875C433.295 36.9271 433.478 36.6732 433.608 36.4258C433.608 36.3737 433.601 36.25 433.588 36.0547C433.575 35.8594 433.562 35.638 433.549 35.3906C433.536 35.1302 433.523 34.8503 433.51 34.5508C433.497 34.2513 433.484 33.9714 433.471 33.7109C433.458 33.4375 433.445 33.2031 433.432 33.0078C433.432 32.8125 433.432 32.6888 433.432 32.6367C433.458 31.8424 433.517 31.3607 433.608 31.1914C433.699 31.0091 433.81 31.0612 433.94 31.3477C434.07 31.6341 434.207 32.1159 434.35 32.793C434.493 33.4701 434.624 34.2643 434.741 35.1758C434.871 36.0742 434.969 37.0573 435.034 38.125C435.112 39.1927 435.144 40.2604 435.131 41.3281C435.118 42.4089 435.047 43.4505 434.917 44.4531C434.799 45.4557 434.604 46.3411 434.331 47.1094C434.057 47.8906 433.699 48.5221 433.256 49.0039C432.814 49.4857 432.267 49.7396 431.616 49.7656C431.355 49.7656 431.043 49.7135 430.678 49.6094C430.327 49.5182 429.969 49.388 429.604 49.2188C429.239 49.0495 428.875 48.8477 428.51 48.6133C428.159 48.3789 427.84 48.125 427.553 47.8516C427.28 47.5781 427.052 47.2917 426.87 46.9922C426.7 46.6927 426.616 46.3932 426.616 46.0938ZM443.334 35.6445C443.334 35.0716 443.445 34.5182 443.667 33.9844C443.888 33.4375 444.187 32.9557 444.565 32.5391C444.956 32.1224 445.405 31.7904 445.913 31.543C446.42 31.2956 446.961 31.1719 447.534 31.1719C447.794 31.1719 448.068 31.2044 448.354 31.2695C448.653 31.3216 448.933 31.4128 449.194 31.543C449.454 31.6732 449.669 31.849 449.838 32.0703C450.008 32.2786 450.092 32.5456 450.092 32.8711C450.092 32.9232 450.073 33.0273 450.034 33.1836C450.008 33.3398 449.969 33.4961 449.917 33.6523C449.864 33.8086 449.799 33.9518 449.721 34.082C449.656 34.1992 449.597 34.2578 449.545 34.2578C449.545 33.6458 449.376 33.138 449.038 32.7344C448.699 32.3177 448.204 32.1094 447.553 32.1094C447.058 32.1094 446.616 32.2135 446.225 32.4219C445.834 32.6302 445.509 32.9036 445.249 33.2422C444.988 33.5807 444.786 33.9648 444.643 34.3945C444.513 34.8112 444.448 35.2409 444.448 35.6836C444.448 36.2826 444.545 36.7773 444.741 37.168C444.936 37.5586 445.203 37.8776 445.542 38.125C445.88 38.3594 446.271 38.5352 446.713 38.6523C447.156 38.7695 447.625 38.8477 448.12 38.8867C448.614 38.9258 449.109 38.9388 449.604 38.9258C450.099 38.9128 450.574 38.8932 451.03 38.8672C451.069 38.8672 451.134 38.8932 451.225 38.9453C451.316 38.9974 451.381 39.0299 451.42 39.043V39.1016C451.42 39.1276 451.42 39.1406 451.42 39.1406C451.433 39.1406 451.44 39.1471 451.44 39.1602C451.44 39.3034 451.368 39.4271 451.225 39.5312C451.082 39.6354 450.906 39.7201 450.698 39.7852C450.489 39.8503 450.262 39.8958 450.014 39.9219C449.767 39.9479 449.519 39.974 449.272 40C449.038 40.013 448.829 40.0195 448.647 40.0195C448.465 40.0195 448.334 40.0195 448.256 40.0195C447.501 40.0195 446.818 39.9349 446.206 39.7656C445.607 39.5964 445.092 39.3359 444.663 38.9844C444.246 38.6198 443.92 38.1641 443.686 37.6172C443.452 37.0573 443.334 36.3997 443.334 35.6445ZM459.448 37.168C459.148 37.3372 458.888 37.5456 458.667 37.793C458.458 38.0273 458.243 38.2552 458.022 38.4766C457.801 38.6849 457.553 38.8672 457.28 39.0234C457.019 39.1797 456.681 39.2578 456.264 39.2578C455.795 39.2578 455.372 39.1602 454.995 38.9648C454.617 38.7565 454.278 38.4831 453.979 38.1445C453.693 37.793 453.439 37.4023 453.217 36.9727C453.009 36.5299 452.833 36.0807 452.69 35.625C452.56 35.1562 452.456 34.7005 452.377 34.2578C452.312 33.8021 452.28 33.3919 452.28 33.0273C452.176 32.3242 452.195 31.7773 452.338 31.3867C452.482 30.9831 452.651 30.7292 452.846 30.625C453.055 30.5078 453.23 30.5339 453.374 30.7031C453.517 30.8594 453.536 31.1393 453.432 31.543C453.406 31.5951 453.387 31.6797 453.374 31.7969C453.361 31.901 453.347 32.0117 453.334 32.1289C453.321 32.2461 453.308 32.3568 453.295 32.4609C453.282 32.5651 453.276 32.6367 453.276 32.6758C453.276 32.9492 453.302 33.2747 453.354 33.6523C453.406 34.0169 453.484 34.401 453.588 34.8047C453.706 35.2083 453.849 35.612 454.018 36.0156C454.187 36.4062 454.389 36.7578 454.624 37.0703C454.858 37.3828 455.125 37.6367 455.424 37.832C455.737 38.0273 456.075 38.125 456.44 38.125C456.674 38.125 456.941 38.0143 457.241 37.793C457.54 37.5586 457.82 37.2852 458.081 36.9727C458.354 36.6471 458.582 36.3151 458.764 35.9766C458.959 35.638 459.057 35.3516 459.057 35.1172C459.057 34.987 459.057 34.7721 459.057 34.4727C459.07 34.1732 459.077 33.8542 459.077 33.5156C459.077 33.1771 459.07 32.8581 459.057 32.5586C459.057 32.2591 459.057 32.0508 459.057 31.9336C459.135 31.8034 459.22 31.7057 459.311 31.6406C459.402 31.5625 459.513 31.5234 459.643 31.5234C459.799 31.5234 459.93 31.6276 460.034 31.8359C460.138 32.0443 460.222 32.3112 460.288 32.6367C460.353 32.9622 460.398 33.3138 460.424 33.6914C460.45 34.069 460.47 34.4336 460.483 34.7852C460.496 35.1367 460.509 35.4492 460.522 35.7227C460.535 35.9831 460.555 36.1589 460.581 36.25C460.646 36.5104 460.737 36.8034 460.854 37.1289C460.984 37.4544 461.108 37.7734 461.225 38.0859C461.342 38.3854 461.446 38.6654 461.538 38.9258C461.629 39.1732 461.674 39.362 461.674 39.4922C461.674 39.6875 461.616 39.8047 461.499 39.8438C461.394 39.8828 461.258 39.9023 461.088 39.9023C460.88 39.9023 460.724 39.8503 460.62 39.7461C460.528 39.6419 460.457 39.5117 460.405 39.3555C460.366 39.1862 460.333 39.0039 460.307 38.8086C460.281 38.6133 460.236 38.4115 460.17 38.2031C460.118 37.9948 460.034 37.7995 459.917 37.6172C459.812 37.4349 459.656 37.2852 459.448 37.168ZM462.319 37.6367C462.423 37.5586 462.514 37.513 462.592 37.5C462.683 37.474 462.781 37.4609 462.885 37.4609C463.002 37.4609 463.12 37.4935 463.237 37.5586C463.354 37.6107 463.458 37.6823 463.549 37.7734C463.653 37.8516 463.758 37.9297 463.862 38.0078C463.966 38.0859 464.077 38.151 464.194 38.2031C464.532 38.3464 464.799 38.4635 464.995 38.5547C465.203 38.6458 465.392 38.7174 465.561 38.7695C465.73 38.8216 465.926 38.8542 466.147 38.8672C466.368 38.8802 466.655 38.8867 467.006 38.8867C467.28 38.8867 467.612 38.8932 468.002 38.9062C468.393 38.9062 468.764 38.8737 469.116 38.8086C469.467 38.7305 469.767 38.6003 470.014 38.418C470.262 38.2227 470.385 37.9297 470.385 37.5391C470.398 37.1615 470.294 36.8685 470.073 36.6602C469.864 36.4388 469.578 36.2695 469.213 36.1523C468.849 36.0352 468.439 35.957 467.983 35.918C467.527 35.8659 467.058 35.8138 466.577 35.7617C466.095 35.7096 465.62 35.638 465.151 35.5469C464.695 35.4427 464.285 35.2865 463.92 35.0781C463.556 34.8698 463.263 34.5833 463.042 34.2188C462.82 33.8542 462.703 33.3854 462.69 32.8125C462.768 32.3958 462.97 32.0508 463.295 31.7773C463.634 31.4909 464.031 31.276 464.487 31.1328C464.956 30.9766 465.45 30.8984 465.971 30.8984C466.492 30.8854 466.967 30.9505 467.397 31.0938C467.84 31.224 468.204 31.4388 468.491 31.7383C468.79 32.0378 468.946 32.4089 468.959 32.8516C468.986 33.112 468.966 33.3268 468.901 33.4961C468.836 33.6654 468.745 33.7956 468.627 33.8867C468.523 33.9648 468.413 34.0039 468.295 34.0039C468.178 33.9909 468.087 33.9453 468.022 33.8672C467.957 33.776 467.924 33.6523 467.924 33.4961C467.937 33.3268 468.015 33.1185 468.159 32.8711C468.107 32.6237 467.957 32.4284 467.709 32.2852C467.462 32.1419 467.176 32.0443 466.85 31.9922C466.525 31.9271 466.173 31.9141 465.795 31.9531C465.431 31.9792 465.092 32.0443 464.78 32.1484C464.48 32.2526 464.233 32.3893 464.038 32.5586C463.855 32.7279 463.777 32.9232 463.803 33.1445C463.803 33.5352 463.914 33.8411 464.135 34.0625C464.37 34.2708 464.669 34.4336 465.034 34.5508C465.398 34.668 465.815 34.7526 466.284 34.8047C466.765 34.8568 467.254 34.9089 467.749 34.9609C468.256 35 468.745 35.0651 469.213 35.1562C469.682 35.2344 470.105 35.3711 470.483 35.5664C470.861 35.7617 471.16 36.0286 471.381 36.3672C471.603 36.6927 471.713 37.1224 471.713 37.6562C471.713 38.0599 471.609 38.4115 471.401 38.7109C471.193 38.9974 470.926 39.2383 470.6 39.4336C470.288 39.6289 469.943 39.7721 469.565 39.8633C469.187 39.9544 468.829 40 468.491 40C468.152 40 467.788 40 467.397 40C467.019 39.987 466.629 39.9609 466.225 39.9219C465.834 39.8828 465.437 39.8242 465.034 39.7461C464.63 39.6549 464.252 39.5247 463.901 39.3555C463.562 39.1732 463.256 38.9453 462.983 38.6719C462.709 38.3984 462.488 38.0534 462.319 37.6367ZM474.936 33.2812C474.832 33.2812 474.65 33.2812 474.389 33.2812C474.129 33.2812 473.855 33.2617 473.569 33.2227C473.295 33.1706 473.042 33.0924 472.807 32.9883C472.586 32.8841 472.475 32.7344 472.475 32.5391C472.475 32.487 472.482 32.4154 472.495 32.3242C472.521 32.2201 472.586 32.168 472.69 32.168L474.702 31.9922C474.754 31.5104 474.793 31.1198 474.819 30.8203C474.845 30.5078 474.851 30.2214 474.838 29.9609C474.825 29.6875 474.806 29.4076 474.78 29.1211C474.767 28.8216 474.754 28.4375 474.741 27.9688C474.741 27.8776 474.76 27.806 474.799 27.7539C474.838 27.7018 474.884 27.6628 474.936 27.6367C475.001 27.6107 475.066 27.5911 475.131 27.5781C475.209 27.5651 475.268 27.5586 475.307 27.5586C475.385 27.5586 475.463 27.5846 475.542 27.6367C475.633 27.6888 475.711 27.7539 475.776 27.832C475.841 27.9102 475.893 27.9948 475.932 28.0859C475.971 28.1641 475.991 28.2422 475.991 28.3203L476.147 31.9727L477.827 32.0508C478.048 32.0247 478.25 32.0703 478.432 32.1875C478.627 32.2917 478.732 32.4935 478.745 32.793C478.588 32.9622 478.4 33.0664 478.178 33.1055C477.957 33.1315 477.722 33.1445 477.475 33.1445C477.241 33.1315 477.006 33.1315 476.772 33.1445C476.538 33.1445 476.329 33.2031 476.147 33.3203C476.147 33.3984 476.153 33.6133 476.167 33.9648C476.18 34.3164 476.193 34.7331 476.206 35.2148C476.219 35.6966 476.232 36.2109 476.245 36.7578C476.271 37.3047 476.29 37.8125 476.303 38.2812C476.316 38.737 476.323 39.1276 476.323 39.4531C476.336 39.7786 476.342 39.9609 476.342 40C476.043 40.1823 475.802 40.1693 475.62 39.9609C475.437 39.7396 475.288 39.4206 475.17 39.0039C475.066 38.5742 474.988 38.0794 474.936 37.5195C474.897 36.9466 474.871 36.3867 474.858 35.8398C474.858 35.2799 474.864 34.7656 474.877 34.2969C474.89 33.8281 474.91 33.4896 474.936 33.2812ZM479.213 36.0156C479.213 35.2995 479.37 34.6745 479.682 34.1406C479.995 33.6068 480.405 33.1576 480.913 32.793C481.42 32.4284 481.987 32.1615 482.612 31.9922C483.25 31.8099 483.888 31.7188 484.526 31.7188C484.864 31.7188 485.177 31.7839 485.463 31.9141C485.763 32.0312 486.043 32.2005 486.303 32.4219C486.577 32.6302 486.818 32.8776 487.026 33.1641C487.234 33.4375 487.41 33.724 487.553 34.0234C487.709 34.3229 487.827 34.6289 487.905 34.9414C487.983 35.2409 488.022 35.5339 488.022 35.8203C488.022 36.4844 487.892 37.0768 487.631 37.5977C487.371 38.1185 487.019 38.5612 486.577 38.9258C486.134 39.2773 485.633 39.5508 485.073 39.7461C484.513 39.9284 483.94 40.0195 483.354 40.0195C482.755 40.0195 482.202 39.9284 481.694 39.7461C481.199 39.5508 480.763 39.2839 480.385 38.9453C480.021 38.6068 479.734 38.1901 479.526 37.6953C479.318 37.1875 479.213 36.6276 479.213 36.0156ZM480.17 35.8594C480.17 36.263 480.242 36.6536 480.385 37.0312C480.542 37.3958 480.75 37.7148 481.01 37.9883C481.284 38.2617 481.603 38.4831 481.967 38.6523C482.332 38.8086 482.722 38.8867 483.139 38.8867C483.361 38.9128 483.627 38.8802 483.94 38.7891C484.265 38.6849 484.584 38.5417 484.897 38.3594C485.222 38.1641 485.528 37.9362 485.815 37.6758C486.114 37.4023 486.362 37.1094 486.557 36.7969C486.752 36.4714 486.87 36.1393 486.909 35.8008C486.961 35.4492 486.902 35.1042 486.733 34.7656C486.577 34.4141 486.284 34.082 485.854 33.7695C485.424 33.444 484.832 33.1445 484.077 32.8711C483.647 32.8711 483.198 32.9362 482.729 33.0664C482.273 33.1836 481.857 33.3659 481.479 33.6133C481.101 33.8607 480.789 34.1732 480.542 34.5508C480.294 34.9284 480.17 35.3646 480.17 35.8594ZM501.694 39.3164C501.694 39.2773 501.694 39.2253 501.694 39.1602C501.707 39.0951 501.713 39.0299 501.713 38.9648C501.713 38.8997 501.713 38.8411 501.713 38.7891L501.733 38.6719C501.733 38.6328 501.739 38.5221 501.752 38.3398C501.778 38.1576 501.805 37.9622 501.831 37.7539C501.857 37.5456 501.876 37.3503 501.889 37.168C501.902 36.9727 501.909 36.849 501.909 36.7969C501.883 36.5234 501.824 36.1654 501.733 35.7227C501.642 35.2799 501.499 34.8438 501.303 34.4141C501.121 33.9844 500.887 33.6133 500.6 33.3008C500.314 32.9883 499.975 32.832 499.584 32.832C499.233 32.832 498.862 32.9232 498.471 33.1055C498.094 33.2747 497.736 33.5026 497.397 33.7891C497.071 34.0625 496.805 34.3815 496.596 34.7461C496.375 35.0977 496.264 35.4688 496.264 35.8594C496.264 36.0547 496.297 36.25 496.362 36.4453C496.427 36.6276 496.492 36.8099 496.557 36.9922C496.635 37.1745 496.707 37.3633 496.772 37.5586C496.837 37.7539 496.87 37.9557 496.87 38.1641C496.87 38.3203 496.837 38.4766 496.772 38.6328C496.72 38.7891 496.583 38.8672 496.362 38.8672C496.127 38.8672 495.932 38.7305 495.776 38.457C495.633 38.1836 495.496 37.8385 495.366 37.4219C495.249 36.9922 495.118 36.5365 494.975 36.0547C494.845 35.5729 494.676 35.1237 494.467 34.707C494.272 34.2773 494.025 33.9258 493.725 33.6523C493.439 33.3789 493.068 33.2422 492.612 33.2422C492.26 33.2422 491.948 33.3203 491.674 33.4766C491.401 33.6198 491.173 33.8151 490.991 34.0625C490.821 34.3099 490.685 34.5898 490.581 34.9023C490.489 35.2148 490.444 35.5339 490.444 35.8594C490.444 36.3802 490.476 36.8945 490.542 37.4023C490.62 37.8971 490.659 38.3984 490.659 38.9062C490.659 39.0885 490.639 39.2578 490.6 39.4141C490.561 39.5573 490.431 39.6289 490.209 39.6289C490.066 39.6289 489.943 39.5964 489.838 39.5312C489.747 39.4531 489.669 39.362 489.604 39.2578C489.539 39.1406 489.487 39.0169 489.448 38.8867C489.409 38.7435 489.376 38.6198 489.35 38.5156C489.376 37.9818 489.376 37.487 489.35 37.0312C489.337 36.5755 489.311 36.1458 489.272 35.7422C489.246 35.3255 489.213 34.9089 489.174 34.4922C489.148 34.0755 489.135 33.6328 489.135 33.1641C489.135 33.138 489.135 33.0924 489.135 33.0273C489.135 32.9622 489.135 32.8971 489.135 32.832C489.148 32.7539 489.155 32.6888 489.155 32.6367C489.155 32.5716 489.155 32.526 489.155 32.5C489.168 32.474 489.2 32.4414 489.252 32.4023C489.305 32.3633 489.337 32.3307 489.35 32.3047H489.448C489.669 32.3047 489.832 32.3828 489.936 32.5391C490.04 32.6693 490.092 32.8385 490.092 33.0469C490.301 32.8255 490.483 32.6562 490.639 32.5391C490.808 32.4089 490.965 32.3112 491.108 32.2461C491.264 32.181 491.42 32.1419 491.577 32.1289C491.746 32.1159 491.948 32.1094 492.182 32.1094C492.56 32.1094 492.898 32.1484 493.198 32.2266C493.51 32.3047 493.79 32.4219 494.038 32.5781C494.285 32.7214 494.513 32.9167 494.721 33.1641C494.93 33.3984 495.138 33.6719 495.346 33.9844C495.359 33.9844 495.372 33.9909 495.385 34.0039C495.411 34.0039 495.431 34.0039 495.444 34.0039C495.457 34.0039 495.522 33.9453 495.639 33.8281C495.756 33.6979 495.913 33.5482 496.108 33.3789C496.303 33.1966 496.531 33.0013 496.792 32.793C497.052 32.5716 497.325 32.3698 497.612 32.1875C497.898 32.0052 498.191 31.8555 498.491 31.7383C498.79 31.6081 499.083 31.543 499.37 31.543C499.812 31.543 500.203 31.6341 500.542 31.8164C500.893 31.9987 501.206 32.2461 501.479 32.5586C501.752 32.8581 501.987 33.2031 502.182 33.5938C502.377 33.9714 502.54 34.3685 502.67 34.7852C502.801 35.1888 502.892 35.5924 502.944 35.9961C503.009 36.3997 503.042 36.7708 503.042 37.1094C503.042 37.2396 503.035 37.4674 503.022 37.793C503.022 38.1055 502.989 38.431 502.924 38.7695C502.872 39.0951 502.781 39.388 502.651 39.6484C502.521 39.8958 502.338 40.0195 502.104 40.0195C501.987 40.0195 501.902 40 501.85 39.9609C501.798 39.9089 501.759 39.8503 501.733 39.7852C501.707 39.7201 501.694 39.6484 501.694 39.5703C501.694 39.4922 501.694 39.4076 501.694 39.3164ZM504.819 33.2422C504.819 33.1901 504.819 33.0924 504.819 32.9492C504.819 32.806 504.819 32.6562 504.819 32.5C504.832 32.3438 504.838 32.194 504.838 32.0508C504.838 31.9076 504.838 31.8099 504.838 31.7578C504.786 31.3542 504.903 31.1523 505.19 31.1523C505.32 31.1523 505.431 31.1849 505.522 31.25C505.613 31.3151 505.698 31.4128 505.776 31.543C505.737 32.2201 505.763 32.8776 505.854 33.5156C505.958 34.1406 506.069 34.7656 506.186 35.3906C506.316 36.0026 506.433 36.6211 506.538 37.2461C506.655 37.8711 506.713 38.5221 506.713 39.1992C506.713 39.3815 506.655 39.5638 506.538 39.7461C506.433 39.9284 506.271 40.0195 506.049 40.0195C505.88 40.0195 505.73 39.8763 505.6 39.5898C505.483 39.2904 505.379 38.9193 505.288 38.4766C505.196 38.0208 505.118 37.5195 505.053 36.9727C504.988 36.4258 504.936 35.9049 504.897 35.4102C504.871 34.9023 504.851 34.4531 504.838 34.0625C504.825 33.6589 504.819 33.3854 504.819 33.2422ZM503.823 28.3398C503.823 28.1836 503.868 28.0859 503.959 28.0469C504.051 27.9948 504.168 27.9688 504.311 27.9688C504.402 27.9557 504.519 28.0143 504.663 28.1445C504.819 28.2617 504.943 28.3984 505.034 28.5547C505.138 28.7109 505.196 28.8542 505.209 28.9844C505.222 29.1406 505.125 29.2318 504.917 29.2578H504.819C504.624 29.2578 504.461 29.2448 504.331 29.2188C504.2 29.1927 504.096 29.1536 504.018 29.1016C503.953 29.0365 503.901 28.9453 503.862 28.8281C503.836 28.7109 503.823 28.5482 503.823 28.3398ZM508.764 38.6719C508.764 38.4505 508.829 38.2031 508.959 37.9297C509.103 37.6562 509.272 37.3893 509.467 37.1289C509.676 36.8555 509.884 36.6016 510.092 36.3672C510.301 36.1198 510.476 35.918 510.62 35.7617L508.042 35.6836C507.989 35.6836 507.944 35.6641 507.905 35.625C507.879 35.5859 507.859 35.5404 507.846 35.4883C507.833 35.4232 507.827 35.3646 507.827 35.3125C507.827 35.2604 507.827 35.2279 507.827 35.2148C507.827 35.0977 507.833 35.013 507.846 34.9609C507.859 34.8958 507.892 34.8503 507.944 34.8242C507.996 34.7982 508.061 34.7786 508.139 34.7656C508.217 34.7656 508.308 34.7656 508.413 34.7656C508.543 34.7526 508.764 34.7266 509.077 34.6875C509.389 34.6484 509.728 34.6094 510.092 34.5703C510.457 34.5312 510.795 34.4987 511.108 34.4727C511.433 34.4336 511.661 34.401 511.792 34.375C511.974 34.1146 512.124 33.8932 512.241 33.7109C512.358 33.5156 512.449 33.3398 512.514 33.1836C512.592 33.0143 512.644 32.8451 512.67 32.6758C512.709 32.5065 512.729 32.3047 512.729 32.0703C512.729 31.9661 512.716 31.8424 512.69 31.6992C512.677 31.556 512.638 31.4193 512.573 31.2891C512.521 31.1458 512.443 31.0286 512.338 30.9375C512.247 30.8464 512.124 30.8008 511.967 30.8008H509.526C509.383 30.8008 509.246 30.8529 509.116 30.957C508.999 31.0612 508.888 31.1719 508.784 31.2891C508.693 31.4062 508.595 31.5104 508.491 31.6016C508.387 31.7057 508.295 31.7578 508.217 31.7578C507.996 31.7578 507.814 31.6992 507.67 31.582C507.527 31.4648 507.456 31.2956 507.456 31.0742C507.456 30.8659 507.527 30.6901 507.67 30.5469C507.827 30.4036 508.028 30.2799 508.276 30.1758C508.523 30.0586 508.79 29.974 509.077 29.9219C509.363 29.8568 509.65 29.8047 509.936 29.7656C510.222 29.7266 510.483 29.7005 510.717 29.6875C510.965 29.6615 511.153 29.6484 511.284 29.6484C511.648 29.6484 511.987 29.7005 512.299 29.8047C512.625 29.9089 512.898 30.0651 513.12 30.2734C513.341 30.4688 513.517 30.7096 513.647 30.9961C513.777 31.2826 513.842 31.6146 513.842 31.9922C513.842 32.2266 513.816 32.4414 513.764 32.6367C513.712 32.832 513.653 33.0273 513.588 33.2227C513.523 33.418 513.465 33.6133 513.413 33.8086C513.361 34.0039 513.334 34.2122 513.334 34.4336C513.347 34.4336 513.426 34.4271 513.569 34.4141C513.725 34.388 513.894 34.375 514.077 34.375C514.259 34.362 514.422 34.375 514.565 34.4141C514.708 34.4401 514.78 34.5117 514.78 34.6289C514.78 34.6549 514.78 34.6745 514.78 34.6875C514.78 34.6875 514.78 34.694 514.78 34.707V34.7656C514.741 34.8307 514.669 34.9219 514.565 35.0391C514.474 35.1562 514.422 35.2148 514.409 35.2148L512.319 35.4102C512.215 35.5924 512.065 35.7943 511.87 36.0156C511.674 36.224 511.479 36.4453 511.284 36.6797C511.088 36.901 510.913 37.1224 510.756 37.3438C510.6 37.5651 510.509 37.7669 510.483 37.9492C510.457 38.1315 510.522 38.2943 510.678 38.4375C510.834 38.5677 511.134 38.6589 511.577 38.7109C511.863 38.7109 512.169 38.6849 512.495 38.6328C512.833 38.5807 513.172 38.5091 513.51 38.418C513.849 38.3268 514.174 38.2227 514.487 38.1055C514.799 37.9883 515.079 37.8646 515.327 37.7344C515.431 37.8125 515.522 37.9102 515.6 38.0273C515.678 38.1445 515.717 38.2682 515.717 38.3984C515.717 38.5938 515.626 38.7695 515.444 38.9258C515.262 39.069 515.027 39.1992 514.741 39.3164C514.454 39.4336 514.135 39.5378 513.784 39.6289C513.432 39.7201 513.081 39.7917 512.729 39.8438C512.39 39.8958 512.071 39.9349 511.772 39.9609C511.486 39.987 511.264 40 511.108 40C510.926 40 510.698 39.974 510.424 39.9219C510.164 39.8698 509.903 39.7982 509.643 39.707C509.396 39.6029 509.187 39.4661 509.018 39.2969C508.849 39.1276 508.764 38.9193 508.764 38.6719ZM516.655 36.6992C516.668 36.4779 516.733 36.224 516.85 35.9375C516.967 35.651 517.15 35.3711 517.397 35.0977C517.644 34.8242 517.957 34.5833 518.334 34.375C518.712 34.1536 519.155 33.9974 519.663 33.9062C520.183 33.8151 520.769 33.8086 521.42 33.8867C522.084 33.9648 522.82 34.1602 523.627 34.4727C523.627 34.4596 523.627 34.3945 523.627 34.2773L523.608 34.1016C523.608 33.763 523.51 33.418 523.315 33.0664C523.12 32.7148 522.866 32.4023 522.553 32.1289C522.254 31.8424 521.928 31.6146 521.577 31.4453C521.225 31.263 520.887 31.1719 520.561 31.1719C520.431 31.1719 520.314 31.1914 520.209 31.2305C520.118 31.2695 520.027 31.3216 519.936 31.3867C519.845 31.4388 519.754 31.4909 519.663 31.543C519.584 31.582 519.487 31.6016 519.37 31.6016C519.344 31.6016 519.331 31.5951 519.331 31.582C519.318 31.569 519.305 31.556 519.292 31.543C519.265 31.5169 519.226 31.4844 519.174 31.4453C519.135 31.4062 519.116 31.3802 519.116 31.3672C519.116 31.1328 519.155 30.931 519.233 30.7617C519.324 30.5924 519.441 30.4557 519.584 30.3516C519.741 30.2474 519.91 30.1693 520.092 30.1172C520.288 30.0521 520.489 30.0195 520.698 30.0195C521.219 30.0716 521.713 30.2344 522.182 30.5078C522.664 30.7682 523.1 31.1003 523.491 31.5039C523.894 31.9076 524.246 32.3763 524.545 32.9102C524.845 33.431 525.092 33.9779 525.288 34.5508C525.496 35.1107 525.633 35.6771 525.698 36.25C525.776 36.849 525.782 37.4089 525.717 37.9297C525.704 37.9297 525.665 37.9297 525.6 37.9297C525.535 37.9167 525.463 37.9102 525.385 37.9102C525.307 37.8971 525.242 37.8841 525.19 37.8711L525.092 37.8516C524.819 37.2396 524.513 36.7448 524.174 36.3672C523.836 35.9896 523.497 35.6966 523.159 35.4883C522.833 35.2669 522.527 35.1172 522.241 35.0391C521.954 34.9479 521.72 34.8828 521.538 34.8438C521.342 34.8438 521.108 34.8568 520.834 34.8828C520.574 34.9089 520.301 34.9544 520.014 35.0195C519.728 35.0846 519.435 35.1758 519.135 35.293C518.849 35.3971 518.588 35.5273 518.354 35.6836C518.133 35.8398 517.95 36.0286 517.807 36.25C517.677 36.4583 517.612 36.7057 517.612 36.9922C517.612 37.3047 517.736 37.5716 517.983 37.793C518.23 38.0013 518.53 38.1771 518.881 38.3203C519.233 38.4505 519.591 38.5417 519.956 38.5938C520.32 38.6458 520.613 38.6719 520.834 38.6719C521.199 38.6719 521.557 38.6523 521.909 38.6133C522.26 38.5742 522.605 38.5286 522.944 38.4766C523.295 38.4245 523.64 38.3789 523.979 38.3398C524.318 38.3008 524.656 38.2812 524.995 38.2812C525.021 38.2812 525.066 38.2812 525.131 38.2812C525.196 38.2812 525.262 38.2878 525.327 38.3008C525.405 38.3008 525.47 38.3008 525.522 38.3008C525.587 38.3008 525.633 38.3008 525.659 38.3008C525.763 38.3398 525.821 38.3984 525.834 38.4766C525.847 38.5547 525.854 38.6328 525.854 38.7109C525.854 38.7891 525.769 38.8737 525.6 38.9648C525.444 39.056 525.236 39.1471 524.975 39.2383C524.715 39.3294 524.422 39.4271 524.096 39.5312C523.784 39.6224 523.478 39.7005 523.178 39.7656C522.892 39.8307 522.618 39.8893 522.358 39.9414C522.111 39.9805 521.935 40 521.831 40C521.284 40 520.704 39.9544 520.092 39.8633C519.48 39.7721 518.92 39.6094 518.413 39.375C517.905 39.1276 517.482 38.7891 517.143 38.3594C516.818 37.9297 516.655 37.3763 516.655 36.6992ZM526.967 30.625C526.902 30.0521 526.824 29.5638 526.733 29.1602C526.642 28.7565 526.596 28.4245 526.596 28.1641C526.609 27.9036 526.694 27.7018 526.85 27.5586C527.019 27.4154 527.312 27.3177 527.729 27.2656C527.755 27.3958 527.788 27.6432 527.827 28.0078C527.866 28.3724 527.905 28.7891 527.944 29.2578C527.996 29.7135 528.048 30.1953 528.1 30.7031C528.165 31.1979 528.224 31.6536 528.276 32.0703C528.328 32.487 528.387 32.8255 528.452 33.0859C528.517 33.3724 528.575 33.5026 528.627 33.4766C528.862 33.4766 529.09 33.4375 529.311 33.3594C529.545 33.2812 529.793 33.2422 530.053 33.2422C530.444 33.2422 530.861 33.2812 531.303 33.3594C531.746 33.4245 532.182 33.5286 532.612 33.6719C533.055 33.8151 533.478 34.0039 533.881 34.2383C534.298 34.4596 534.656 34.7201 534.956 35.0195C535.268 35.319 535.515 35.6641 535.698 36.0547C535.88 36.4453 535.971 36.875 535.971 37.3438C535.971 37.9427 535.821 38.4245 535.522 38.7891C535.236 39.1406 534.864 39.4076 534.409 39.5898C533.953 39.7721 533.458 39.8893 532.924 39.9414C532.377 39.9935 531.87 40.0195 531.401 40.0195C530.75 40.0195 530.209 39.9414 529.78 39.7852C529.35 39.6159 528.999 39.388 528.725 39.1016C528.452 38.8151 528.243 38.4831 528.1 38.1055C527.957 37.7279 527.853 37.3177 527.788 36.875C527.722 36.4193 527.677 35.9505 527.651 35.4688C527.625 34.974 527.586 34.4792 527.534 33.9844C527.521 33.8932 527.488 33.6914 527.436 33.3789C527.384 33.0534 527.319 32.7018 527.241 32.3242C527.176 31.9336 527.117 31.5755 527.065 31.25C527.013 30.9245 526.98 30.7161 526.967 30.625ZM528.842 35.7422C528.712 36.3151 528.745 36.8099 528.94 37.2266C529.148 37.6432 529.441 37.9883 529.819 38.2617C530.209 38.5221 530.652 38.7044 531.147 38.8086C531.655 38.9128 532.156 38.9323 532.651 38.8672C533.146 38.7891 533.588 38.6328 533.979 38.3984C534.396 38.151 534.695 37.8125 534.877 37.3828C534.877 37.0312 534.793 36.7122 534.624 36.4258C534.467 36.1393 534.259 35.8854 533.999 35.6641C533.738 35.4427 533.439 35.2539 533.1 35.0977C532.775 34.9284 532.436 34.7917 532.084 34.6875C531.746 34.5833 531.407 34.5052 531.069 34.4531C530.73 34.388 530.431 34.3555 530.17 34.3555C529.741 34.3555 529.409 34.4792 529.174 34.7266C528.953 34.974 528.842 35.3125 528.842 35.7422ZM537.143 39.8438C537.013 38.9193 536.928 38.0013 536.889 37.0898C536.863 36.1654 536.85 35.2409 536.85 34.3164C536.85 33.3919 536.863 32.474 536.889 31.5625C536.915 30.651 536.922 29.7396 536.909 28.8281C536.909 28.724 536.948 28.6523 537.026 28.6133C537.104 28.5742 537.195 28.5547 537.299 28.5547C537.417 28.5547 537.521 28.6003 537.612 28.6914C537.703 28.7695 537.781 28.8737 537.846 29.0039C537.911 29.1211 537.957 29.2448 537.983 29.375C538.022 29.4922 538.042 29.5898 538.042 29.668C538.12 31.5299 538.172 33.0859 538.198 34.3359C538.224 35.5729 538.224 36.5755 538.198 37.3438C538.172 38.099 538.126 38.6589 538.061 39.0234C538.009 39.388 537.937 39.6354 537.846 39.7656C537.755 39.8958 537.644 39.9479 537.514 39.9219C537.397 39.8958 537.273 39.8698 537.143 39.8438ZM539.116 34.7656C539.116 34.0885 539.213 33.444 539.409 32.832C539.617 32.207 539.91 31.6602 540.288 31.1914C540.678 30.7227 541.147 30.3516 541.694 30.0781C542.254 29.7917 542.898 29.6484 543.627 29.6484C544.057 29.7005 544.428 29.8177 544.741 30C545.066 30.1823 545.327 30.4102 545.522 30.6836C545.73 30.944 545.88 31.25 545.971 31.6016C546.049 31.9401 546.088 32.3047 546.088 32.6953C546.088 33.1641 545.952 33.5872 545.678 33.9648C545.405 34.3424 545.06 34.6615 544.643 34.9219C544.226 35.1693 543.777 35.3646 543.295 35.5078C542.814 35.638 542.364 35.7031 541.948 35.7031C541.792 35.7031 541.629 35.7031 541.459 35.7031C541.303 35.7031 541.16 35.6771 541.03 35.625C540.9 35.5729 540.795 35.4948 540.717 35.3906C540.639 35.2865 540.6 35.1302 540.6 34.9219C540.6 34.8568 540.607 34.8047 540.62 34.7656C540.646 34.7135 540.704 34.681 540.795 34.668C540.887 34.6419 541.023 34.6354 541.206 34.6484C541.388 34.6745 541.635 34.7135 541.948 34.7656C542.13 34.7656 542.39 34.707 542.729 34.5898C543.081 34.4596 543.432 34.2969 543.784 34.1016C544.148 33.9062 544.461 33.6849 544.721 33.4375C544.982 33.1771 545.112 32.9232 545.112 32.6758C545.112 32.4154 545.066 32.1615 544.975 31.9141C544.897 31.6536 544.773 31.4258 544.604 31.2305C544.435 31.0352 544.233 30.8789 543.999 30.7617C543.777 30.6445 543.523 30.599 543.237 30.625C542.781 30.6641 542.364 30.7878 541.987 30.9961C541.622 31.2044 541.31 31.4779 541.049 31.8164C540.789 32.1419 540.587 32.5065 540.444 32.9102C540.301 33.3138 540.229 33.737 540.229 34.1797C540.229 34.5182 540.236 34.8568 540.249 35.1953C540.262 35.5339 540.307 35.8659 540.385 36.1914C540.476 36.5169 540.613 36.8294 540.795 37.1289C540.991 37.4284 541.264 37.6953 541.616 37.9297C541.98 38.151 542.436 38.3398 542.983 38.4961C543.53 38.6393 544.207 38.7305 545.014 38.7695L548.51 38.5352C548.302 38.8216 548.035 39.056 547.709 39.2383C547.397 39.4206 547.058 39.5703 546.694 39.6875C546.342 39.7917 545.991 39.8698 545.639 39.9219C545.288 39.974 544.956 40 544.643 40C543.888 40 543.178 39.8763 542.514 39.6289C541.85 39.3815 541.264 39.0365 540.756 38.5938C540.249 38.138 539.845 37.5911 539.545 36.9531C539.259 36.3021 539.116 35.5729 539.116 34.7656Z" fill="#6B7280"/>
</g>
<defs>
<clipPath id="clip0_3_1397">
<rect width="137.481" height="59.4713" fill="white" transform="translate(4 282)"/>
</clipPath>
<clipPath id="clip1_3_1397">
<rect width="138.594" height="46.3789" fill="white" transform="translate(323 367)"/>
</clipPath>
<clipPath id="clip2_3_1397">
<rect width="157.319" height="76.7052" fill="white" transform="translate(392 25)"/>
</clipPath>
</defs>
</svg>
