<svg xmlns="http://www.w3.org/2000/svg" width="20" height="15" fill="none"><path fill="#002488" d="M0 0v5h20V0H0z"/><path fill="#DA121A" d="M0 5v10h20V5H0z"/><path fill="#FCDD09" d="M3.468.708c-.241.397-.27.715-.105 1.264.079.255.166.638.202.845.049.292.044.32.05.384h.264c.009-.102.016-.219.038-.38.025-.187.1-.579.18-.85.16-.545.15-.879-.1-1.257C3.906.574 3.784.46 3.73.46c-.054 0-.178.107-.261.25zm.524 2.232c-.02.106-.025.143-.036.26.074.001.103.002.175.001.016-.08.027-.121.062-.234.137-.436.542-.611.524-.203A.358.358 0 0 1 4.611 3a1.59 1.59 0 0 0 .316-.145c.627-.378.38-1.303-.277-1.023-.34.146-.546.55-.658 1.109zm-.735.425c.276.002.75.005.98.003V3.27c-.167-.002-.81.001-.978.001 0 .04 0 .06-.002.095zm-.173.488s.137.015.265.006a.686.686 0 0 0 .274-.062c-.02.152-.021.3-.021.3.018.196.04.246.082.341.057.08.09.08.133-.004a.845.845 0 0 0 .086-.339 1.505 1.505 0 0 0-.036-.296.759.759 0 0 0 .276.06c.135.012.26.006.26.006s-.183-.092-.263-.204c-.08-.111-.063-.092-.12-.235-.07-.003-.425 0-.538 0-.061.13-.067.157-.144.24-.099.107-.254.187-.254.187zm-.247-2.021c.341.146.546.55.658 1.109.02.104.026.141.036.26h-.175a1.966 1.966 0 0 0-.061-.234c-.138-.436-.543-.611-.525-.203A.358.358 0 0 0 2.877 3a1.685 1.685 0 0 1-.317-.145c-.627-.378-.38-1.304.277-1.023zM9.768.708c-.241.397-.27.715-.105 1.264.079.255.166.638.202.845.049.292.044.32.05.384h.264c.009-.102.016-.219.038-.38.025-.187.1-.579.18-.85.16-.545.15-.879-.1-1.257-.091-.14-.213-.255-.268-.255-.054 0-.178.107-.261.25zm1.182 1.124c-.34.146-.546.55-.658 1.109-.02.105-.025.142-.036.26h.175c.016-.08.027-.121.062-.234.137-.436.542-.611.524-.203a.358.358 0 0 1-.106.236 1.59 1.59 0 0 0 .316-.145c.627-.378.38-1.303-.277-1.023zM9.557 3.365c.276.002.75.005.98.003V3.27c-.167-.002-.81.001-.978.001 0 .04 0 .06-.002.095zm.081.301c-.099.107-.254.187-.254.187s.137.015.265.006a.686.686 0 0 0 .274-.062c-.02.152-.021.3-.021.3.018.196.04.246.082.341.057.08.09.08.133-.004a.845.845 0 0 0 .086-.339 1.502 1.502 0 0 0-.036-.296.76.76 0 0 0 .276.06c.135.012.26.006.26.006s-.183-.092-.263-.204c-.08-.111-.063-.092-.12-.235-.07-.003-.425 0-.538 0-.061.13-.067.157-.144.24zm-.501-1.834c.341.146.546.55.658 1.109.02.104.026.141.036.26h-.175a1.966 1.966 0 0 0-.061-.234c-.138-.436-.543-.611-.525-.203A.358.358 0 0 0 9.177 3a1.685 1.685 0 0 1-.317-.145c-.627-.378-.38-1.304.277-1.023zM16.068.708c-.241.397-.27.715-.105 1.264.079.255.166.638.202.845.049.292.044.32.05.384h.264c.009-.102.016-.219.038-.38.025-.187.1-.579.18-.85.16-.545.15-.879-.1-1.257-.091-.14-.213-.255-.268-.255-.054 0-.178.107-.261.25zm1.182 1.124c-.34.146-.546.55-.658 1.109-.02.105-.025.142-.036.26h.175c.016-.08.027-.121.062-.234.137-.436.542-.611.524-.203a.358.358 0 0 1-.106.236 1.62 1.62 0 0 0 .317-.145c.626-.378.38-1.303-.278-1.023zm-1.393 1.533c.276.002.75.005.98.003V3.27c-.167-.002-.81.001-.978.001 0 .04 0 .06-.002.095zm.081.301c-.099.107-.254.187-.254.187s.137.015.265.006a.686.686 0 0 0 .274-.062c-.02.152-.021.3-.021.3.018.196.04.246.082.341.057.08.09.08.133-.004a.845.845 0 0 0 .086-.339 1.502 1.502 0 0 0-.036-.296.76.76 0 0 0 .276.06c.135.012.26.006.26.006s-.183-.092-.263-.204c-.08-.111-.063-.092-.12-.235-.07-.003-.425 0-.538 0-.061.13-.067.157-.144.24zm-.501-1.834c.341.146.546.55.658 1.109.02.104.026.141.036.26h-.175a1.957 1.957 0 0 0-.061-.234c-.138-.436-.543-.611-.525-.203a.358.358 0 0 0 .107.236 1.685 1.685 0 0 1-.317-.145c-.627-.378-.38-1.304.277-1.023z"/><path fill="green" d="M7.118 8.27c.132.063.301.111.386.114.1.003.074-.021-.114-.094a1.973 1.973 0 0 1-.4-.214c-.14-.115-.14-.115-.125-.014.008.058.113.147.253.209z"/><path fill="green" d="M6.296 7.082c.085.341.438.969.56.993.11.019.11.012.018-.091-.152-.177-.48-.823-.48-.945 0-.067-.03-.115-.067-.115-.043 0-.055.06-.03.158zM4.071 8.093c-.103.079-.097.085.128.048.134-.018.329-.054.426-.079.158-.042.146-.049-.128-.055-.182-.006-.353.03-.426.086z"/><path fill="green" d="M2.56 7.452c1.003.183 3.018.86 2.896.975-.03.03-.596-.11-.675-.165-.03-.03-.329-.018-.658.025-.614.067-.718.122-.706.371.006.122.006.122.037 0 .055-.225.146-.274.493-.274.377 0 1.412.153 1.868.274.609.171.627.171.426.061-.261-.146-.657-.414-.73-.493-.134-.153-2.562-.823-2.915-.81-.165.012-.17.012-.037.036zm3.563.701c.049.085.524.323.56.286.018-.018-.036-.067-.11-.11a.972.972 0 0 1-.225-.158c-.097-.091-.28-.11-.225-.018z"/><path fill="green" d="M6.16 8.732c.049.085.523.323.56.286.018-.018-.037-.067-.11-.11a.972.972 0 0 1-.225-.158c-.097-.091-.28-.11-.225-.018zm-.68-.726c.008-.008.145.037.308.1.162.063.372.123.462.129.16.007.723.276.717.34 0 .06-.853-.2-1.151-.352-.359-.179-.367-.187-.337-.217z"/><path fill="green" d="M6.487 8.451a.633.633 0 0 0-.263.18c-.042.068-.006.069.14-.005.115-.058.28-.105.372-.113.17-.008.17-.008.062-.076-.062-.039-.194-.035-.31.014zM3.64 6.398c.188.36.955 1.188 1.38 1.505.116.085.323.17.451.189l.237.036-.176-.195c-.286-.31-.724-.908-.864-1.17-.152-.286-.17-.213-.043.153.049.146.244.438.432.646.189.213.31.39.28.39-.079 0-.59-.604-.955-1.128-.396-.573-.414-.59-.305-.274.055.152.177.378.28.5.098.128.159.231.128.231-.06 0-.329-.304-.663-.743-.092-.128-.22-.293-.274-.366-.061-.079-.018.025.091.226zM6.218 9.46c-.459-.083-.677-.01-.862.277l-.159.246.204-.193c.277-.27.478-.295.975-.15.232.068.43.113.436.103.038-.055-.354-.247-.594-.284z"/><path fill="green" d="M6.343 9.587c-.426.19-.566.372-.56.713l.006.293.061-.274c.08-.378.231-.512.724-.67.232-.074.42-.147.42-.16 0-.066-.432-.005-.65.098z"/><path fill="green" d="M6.262 10.11a.621.621 0 0 0-.127.293c0 .08.03.061.115-.08.067-.109.183-.237.256-.292.14-.097.14-.097.012-.097-.073 0-.183.073-.256.177zm6.581.994c.197.085 1.223.344 1.948.557.726.213 1.574.458 1.762.484.268-.586-.22.51.058-.154-.362-.092-1.79-.429-2.363-.594-.494-.138-1.195-.354-1.375-.394-.18-.04-.182.035-.03.1z"/><path fill="green" d="M12.968 10.952c.2.078 1.234.301 1.967.489.732.187 1.589.402 1.777.422.248-.595-.202.517.053-.156-.365-.08-1.804-.366-2.383-.511-.498-.121-1.206-.313-1.387-.346-.18-.033-.18.04-.027.102zm-.284.262c.193.096 1.204.408 1.917.659.713.25 1.548.54 1.734.575.298-.57-.247.498.066-.15-.357-.112-1.765-.522-2.33-.717-.485-.164-1.174-.417-1.351-.466-.177-.049-.184.025-.036.1z"/><path fill="green" d="M12.561 11.339c.188.106 1.18.47 1.88.758.7.288 1.517.62 1.701.666.328-.554-.272.484.075-.147-.351-.13-1.736-.614-2.29-.838-.476-.19-1.15-.478-1.325-.536-.175-.058-.185.015-.04.097z"/><path fill="green" d="M12.445 11.496c.184.112 1.163.512 1.852.823.69.312 1.495.673 1.677.725.348-.542-.288.474.08-.144-.346-.142-1.714-.674-2.258-.918-.47-.205-1.134-.517-1.307-.581-.172-.065-.185.009-.044.095z"/><path fill="#FCDD09" d="M10.392 13.076c.283.197.438.47.423.753l-.01.234.092-.23c.101-.24.087-.604-.032-.874l-.07-.157.222.097c.317.134.526.37.57.65l.038.23.043-.244c.05-.257-.04-.61-.213-.848l-.101-.14.237.049c.338.065.591.252.692.516l.086.218-.009-.248c-.005-.26-.165-.588-.385-.785l-.127-.115.242-.002c.344-.007.63.123.784.361l.129.195-.06-.24c-.059-.255-.284-.54-.54-.689l-.148-.086.236-.052c.336-.078.643-.01.843.19l.166.164-.108-.223c-.111-.236-.39-.47-.67-.56l-.164-.053.22-.101c.312-.146.627-.144.864.01l.196.126-.152-.195c-.157-.208-.48-.378-.772-.409l-.171-.018.195-.144c.274-.208.582-.272.846-.17l.219.083-.19-.16c-.197-.17-.547-.27-.84-.239l-.17.018.16-.182c.225-.26.513-.386.793-.341l.23.034-.218-.116c-.228-.126-.591-.15-.872-.06l-.163.054.12-.211c.165-.302.421-.485.704-.5l.233-.014-.238-.068c-.25-.076-.61-.024-.865.124l-.149.086.073-.232c.1-.33.312-.562.586-.635l.225-.062-.247-.017c-.26-.023-.601.103-.82.3l-.128.116.023-.242c.03-.343.189-.615.441-.743l.207-.108-.245.035c-.259.032-.566.226-.74.465l-.1.139-.028-.241c-.043-.342.057-.641.277-.819l.18-.148-.233.084c-.246.086-.507.34-.627.61l-.07.157-.076-.23c-.113-.326-.078-.64.1-.859l.146-.183-.21.132c-.223.134-.425.437-.487.726l-.036.168-.122-.209c-.179-.295-.21-.609-.08-.86l.104-.21-.178.172c-.19.179-.325.517-.325.812v.172l-.164-.179c-.235-.251-.33-.552-.257-.825l.059-.226-.139.205c-.149.214-.21.573-.15.862l.036.168-.197-.14c-.282-.198-.438-.472-.422-.755l.01-.233-.093.23c-.101.24-.087.604.033.874l.07.157-.222-.097c-.318-.134-.527-.37-.57-.65l-.039-.23-.043.244c-.049.256.04.61.214.848l.1.14-.237-.049c-.338-.065-.591-.252-.692-.517l-.085-.217.008.248c.005.26.166.587.385.785l.128.115-.243.002c-.344.007-.63-.123-.784-.361l-.129-.195.06.24c.06.254.284.54.54.688l.148.086-.236.053c-.336.078-.643.01-.842-.19L6.228 8l.109.222c.11.237.39.47.67.561l.164.053-.22.1c-.313.147-.627.145-.864-.01L5.89 8.8l.152.196c.158.208.48.378.773.409l.17.018-.194.144c-.275.208-.583.271-.847.17l-.219-.083.19.16c.197.17.547.27.84.239l.171-.018-.16.181c-.226.261-.514.387-.793.342l-.231-.035.218.117c.229.126.592.15.872.059l.163-.053-.119.21c-.166.303-.422.486-.705.5l-.233.014.238.069c.25.076.61.024.865-.124l.149-.086-.073.231c-.1.33-.312.563-.586.636l-.225.062.247.017c.26.022.602-.103.82-.3l.128-.116-.023.242c-.03.343-.188.615-.44.743l-.208.107.245-.034c.259-.032.567-.226.74-.465l.101-.14.027.242c.043.342-.056.64-.277.819l-.18.148.233-.085c.246-.085.507-.339.627-.609l.07-.157.076.23c.113.326.078.639-.1.859l-.146.182.21-.13c.223-.136.426-.438.487-.727l.036-.168.123.209c.178.295.208.608.08.86l-.105.21.178-.173c.19-.178.326-.516.326-.811v-.172l.163.179c.236.251.33.552.257.825l-.059.226.139-.205c.149-.214.21-.573.15-.862l-.036-.168.197.14z"/></svg>