<svg xmlns="http://www.w3.org/2000/svg" width="20" height="15" fill="none"><mask id="a" width="20" height="15" x="0" y="0" maskUnits="userSpaceOnUse"><path fill="#fff" d="M0 0h20v15H0z"/></mask><g mask="url(#a)"><path fill="#F7FCFF" fill-rule="evenodd" d="M0 0v15h20V0H0z" clip-rule="evenodd"/><mask id="b" width="20" height="15" x="0" y="0" maskUnits="userSpaceOnUse"><path fill="#fff" fill-rule="evenodd" d="M0 0v15h20V0H0z" clip-rule="evenodd"/></mask><g fill="#3D58DB" fill-rule="evenodd" clip-rule="evenodd" mask="url(#b)"><path d="M0 2.5v2.228h20V2.5H0zm0 7.717V12.5h20v-2.283H0z"/><path d="M7.113 9.337h5.86l-2.9-5.013-2.96 5.013zm4.669-.688H8.317l1.75-2.963 1.715 2.963z"/><path d="M6.932 5.578h5.993l-2.84 5.029-3.153-5.029zm4.816.688H8.175l1.88 2.998 1.693-2.998z"/></g></g></svg>