<svg xmlns="http://www.w3.org/2000/svg" width="20" height="15" fill="none"><mask id="a" width="20" height="15" x="0" y="0" maskUnits="userSpaceOnUse"><path fill="#fff" d="M0 0h20v15H0z"/></mask><g mask="url(#a)"><path fill="#E31D1C" fill-rule="evenodd" d="M0 0v15h20V0H0z" clip-rule="evenodd"/><mask id="b" width="20" height="15" x="0" y="0" maskUnits="userSpaceOnUse"><path fill="#fff" fill-rule="evenodd" d="M0 0v15h20V0H0z" clip-rule="evenodd"/></mask><g fill-rule="evenodd" clip-rule="evenodd" mask="url(#b)"><path fill="#F7FCFF" d="M10 12.5a5 5 0 1 0 0-10 5 5 0 0 0 0 10z"/><path fill="#E31D1C" d="M10.877 11.032s-2.636-.72-2.636-3.549c0-2.829 2.636-3.61 2.636-3.61-1.09-.421-4.279.226-4.279 3.61 0 3.385 3.278 3.994 4.279 3.549zm-.145-4.164-1.308.477 1.405.492.048 1.315.855-1.022 1.41.1-1.016-.829.612-1.197-1.195.403-.828-1.035.017 1.296z"/></g></g></svg>