<svg xmlns="http://www.w3.org/2000/svg" width="20" height="15" fill="none"><g mask="url(#VG_-_Virgin_Islands_(British)__a)"><path fill="#2E42A5" fill-rule="evenodd" d="M0 0v15h20V0H0z" clip-rule="evenodd"/><g mask="url(#VG_-_Virgin_Islands_(British)__b)"><path fill="#2E42A5" d="M0 0h11v9H0z"/><g mask="url(#VG_-_Virgin_Islands_(British)__c)"><path fill="#F7FCFF" d="M-1.253 8.125 1.223 9.21l10.083-8.03 1.306-1.614-2.647-.363-4.113 3.46-3.31 2.332-3.795 3.129z"/><path fill="#F50100" d="m-.914 8.886 1.261.63L12.143-.583h-1.77L-.915 8.886z"/><path fill="#F7FCFF" d="M12.503 8.125 10.306 9.52-.056 1.18-1.362-.434l2.647-.363 4.113 3.46 3.31 2.332 3.795 3.129z"/><path fill="#F50100" d="m12.418 8.67-1.261.63-5.023-4.323-1.489-.483-6.133-4.921H.283l6.13 4.804 1.628.58 4.377 3.714z"/><path fill="#F50100" fill-rule="evenodd" d="M6 0H5v4H0v1h5v4h1V5h5V4H6V0z" clip-rule="evenodd"/><path fill="#F7FCFF" d="M5 0v-.938h-.938V0H5zm1 0h.938v-.938H6V0zM5 4v.938h.938V4H5zM0 4v-.938h-.938V4H0zm0 1h-.938v.938H0V5zm5 0h.938v-.938H5V5zm0 4h-.938v.938H5V9zm1 0v.938h.938V9H6zm0-4v-.938h-.938V5H6zm5 0v.938h.938V5H11zm0-1h.938v-.938H11V4zM6 4h-.938v.938H6V4zM5 .937h1V-.938H5V.938zM5.938 4V0H4.063v4h1.875zM0 4.938h5V3.063H0v1.874zM.938 5V4H-.938v1H.938zM5 4.062H0v1.875h5V4.063zM5.938 9V5H4.063v4h1.875zM6 8.062H5v1.876h1V8.062zM5.062 5v4h1.875V5H5.063zM11 4.062H6v1.875h5V4.063zM10.062 4v1h1.876V4h-1.876zM6 4.938h5V3.063H6v1.874zM5.062 0v4h1.875V0H5.063z" mask="url(#VG_-_Virgin_Islands_(British)__d)"/></g><path fill="#3B7E05" fill-rule="evenodd" stroke="#F7FCFF" stroke-width=".5" d="M12.654 6.27v4.081s-.06 3.376 3.051 3.376c3.112 0 3.112-3.376 3.112-3.376v-4.08h-6.163z" clip-rule="evenodd"/><path fill="#FFD018" fill-rule="evenodd" d="m12.648 12.43.496-.497c.775.957 1.59 1.422 2.456 1.422.866 0 1.68-.465 2.454-1.422l.282.283.012-.018c.173.146.286.283.341.441a.527.527 0 0 1-.215.637 1.204 1.204 0 0 1-.129.073.326.326 0 0 1-.253.028.363.363 0 0 1-.233-.217c-.703.622-1.458.938-2.259.938-.794 0-1.543-.31-2.242-.922a.362.362 0 0 1-.236.21.326.326 0 0 1-.253-.032 1.214 1.214 0 0 1-.127-.075.527.527 0 0 1-.204-.64.66.66 0 0 1 .12-.198.475.475 0 0 1-.01-.01z" clip-rule="evenodd"/><path fill="#fff" d="m13.144 11.933.194-.158-.175-.216-.196.197.177.177zm-.496.497-.177-.176-.159.16.142.174.194-.158zm5.406-.497.177-.177-.196-.197-.175.217.194.157zm.282.283-.177.176.215.215.17-.251-.208-.14zm.012-.018.162-.19-.213-.18-.156.23.207.14zm.341.441.236-.082-.236.082zm-.215.637.134.211-.134-.211zm-.129.073-.105-.227.105.227zm-.253.028.068-.24-.068.24zm-.233-.217.231-.095-.133-.325-.264.233.166.187zm-4.5.016.164-.188-.257-.225-.137.313.23.1zm-.237.21-.064-.241.064.242zm-.253-.032-.109.225.11-.225zm-.127-.075-.137.21.136-.21zm-.204-.64-.235-.086.235.086zm.12-.198.19.161.133-.158-.13-.16-.194.157zm.309-.685-.496.498.354.353.496-.498-.354-.353zm2.633 1.35c-.764 0-1.515-.408-2.262-1.33l-.388.314c.802.991 1.682 1.515 2.65 1.515v-.5zm2.26-1.33c-.746.922-1.496 1.33-2.26 1.33v.5c.968 0 1.847-.525 2.649-1.516l-.39-.314zm.653.263-.282-.283-.354.354.282.282.354-.353zm-.372.02-.012.017.414.28.012-.018-.414-.28zm.784.498c-.076-.22-.228-.391-.415-.55l-.323.382c.157.134.232.235.266.332l.472-.164zm-.317.93a.777.777 0 0 0 .317-.93l-.472.164c.051.148-.002.274-.112.343l.267.423zm-.157.088c.05-.023.101-.053.157-.088l-.267-.423a.952.952 0 0 1-.101.058l.21.453zm-.427.042a.564.564 0 0 0 .427-.042l-.211-.453a.193.193 0 0 1-.05.018c-.002 0-.009.002-.03-.004l-.136.481zm-.396-.362c.07.174.213.31.396.362l.136-.48a.12.12 0 0 1-.07-.072l-.462.19zM15.6 14.348c.873 0 1.685-.346 2.425-1l-.332-.375c-.666.59-1.364.875-2.093.875v.5zm-2.406-.984c.735.644 1.54.984 2.406.984v-.5c-.723 0-1.415-.28-2.077-.86l-.33.376zm-.008.264a.613.613 0 0 0 .401-.351l-.458-.2c-.019.042-.048.062-.07.068l.127.483zm-.426-.05a.565.565 0 0 0 .426.05l-.128-.483c-.021.005-.028.004-.03.004a.193.193 0 0 1-.05-.02l-.218.45zm-.155-.09c.054.036.105.067.155.09l.219-.449a.955.955 0 0 1-.1-.06l-.274.42zm-.302-.935a.777.777 0 0 0 .302.935l.273-.418c-.108-.071-.159-.198-.105-.346l-.47-.171zm.163-.272a.91.91 0 0 0-.163.272l.47.171a.413.413 0 0 1 .075-.122l-.382-.321zm-.012.307.01.011.387-.315a.442.442 0 0 1-.009-.01l-.388.314z"/><path fill="#F50100" fill-rule="evenodd" d="m13.722 7.163.07.025c.057-.13.066-.229 0-.292l-.002-.003c-.015-.024-.043-.067.002-.159l-.032-.065c-.065.132-.094.228-.043.292l.002.004.003.002c.03.027.042.1 0 .196zm0 .946.07.025c.057-.13.066-.229 0-.292l-.002-.003c-.015-.024-.043-.067.002-.159l-.032-.065c-.065.132-.094.228-.043.292l.002.004.003.002c.03.027.042.1 0 .196zm.07.87-.07-.026c.042-.095.03-.169 0-.195l-.003-.003-.002-.003c-.05-.065-.022-.16.043-.293l.032.066c-.045.091-.017.134-.002.158l.002.003c.066.064.057.163 0 .293zm.416.988.07.025c.056-.13.066-.229 0-.292l-.003-.003c-.015-.024-.042-.067.002-.159l-.031-.065c-.065.132-.094.228-.044.292l.003.004.003.002c.03.027.041.1 0 .196zm-.507.836-.07-.026c.042-.095.03-.168 0-.195l-.003-.003-.002-.003c-.05-.064-.022-.16.043-.292l.032.065c-.045.092-.017.134-.002.159l.002.003c.066.063.057.162 0 .292zm-.07.92.07.026c.057-.13.066-.229 0-.293l-.002-.002c-.015-.025-.043-.067.002-.159l-.032-.065c-.065.132-.094.228-.043.292l.002.003.003.003c.03.027.042.1 0 .195zm3.073.026-.069-.026c.042-.095.03-.168 0-.195l-.003-.003-.003-.003c-.05-.064-.021-.16.044-.292l.032.065c-.045.092-.018.134-.002.159l.002.002c.066.064.056.163 0 .293zm-.069-.938.07.026c.056-.13.066-.23 0-.293l-.002-.003c-.016-.024-.043-.067.002-.158l-.032-.065c-.065.132-.094.228-.044.292l.003.003.003.003c.03.026.042.1 0 .195zm.07-.886-.07-.026c.042-.095.03-.169 0-.195l-.003-.003-.003-.003c-.05-.065-.021-.16.044-.293l.032.066c-.045.091-.018.134-.002.158l.002.003c.066.064.056.163 0 .293zm-.1-.904.07.025c.056-.13.065-.229 0-.292l-.003-.003c-.015-.024-.043-.067.002-.159l-.032-.065c-.064.132-.094.228-.043.292l.003.004.003.002c.029.027.041.1 0 .196zm.07-.92-.07-.026c.041-.095.029-.17 0-.195l-.003-.003-.003-.003c-.05-.065-.021-.16.043-.293l.032.065c-.044.092-.017.135-.002.159l.002.003c.066.063.057.162 0 .292zm-.07-.905.07.026c.056-.13.065-.229 0-.293l-.003-.003c-.015-.024-.043-.066.002-.158l-.032-.065c-.064.132-.094.228-.043.292l.003.003.003.003c.029.027.041.1 0 .195z" clip-rule="evenodd"/><path fill="#FFD018" fill-rule="evenodd" d="M14.225 6.76a.072.072 0 0 0 .008-.034c0-.037-.028-.067-.063-.067-.034 0-.062.03-.062.067 0 .016.005.031.014.043l-.237.366.025.02.236-.366a.058.058 0 0 0 .058-.005l.248.37.025-.02-.252-.375zm-.008.316a.07.07 0 0 0 .016-.046c0-.037-.028-.067-.063-.067-.034 0-.062.03-.062.067 0 .023.01.043.026.055l-.059.072h-.401s.044.1.18.127c.042.04.15.114.15.114l-.062.074h.433v-.074c.106-.001.145-.084.16-.114.005-.012.007-.016.007 0 0 .053.077 0 .077 0s.127-.127.127-.248c0-.122-.267.12-.267.12h-.181l-.081-.08zm-.543 1.027h.401l.06-.072a.07.07 0 0 1-.027-.055c0-.037.028-.067.063-.067.034 0 .062.03.062.067a.07.07 0 0 1-.016.046l.08.08h.182s.267-.242.267-.12c0 .12-.127.248-.127.248s-.077.053-.077 0c0-.016-.002-.012-.008 0-.014.03-.053.113-.159.114v.074h-.433l.061-.074s-.107-.074-.149-.114c-.136-.027-.18-.127-.18-.127zm.551-.398a.072.072 0 0 0 .008-.033c0-.037-.028-.067-.063-.067-.034 0-.062.03-.062.067 0 .016.005.031.014.043l-.237.366.025.02.236-.366a.058.058 0 0 0 .058-.005l.248.37.025-.02-.252-.375zm-.551 1.242h.401l.06-.071a.07.07 0 0 1-.027-.055c0-.037.028-.068.063-.068.034 0 .062.03.062.068a.07.07 0 0 1-.016.046l.08.08h.182s.267-.242.267-.12c0 .12-.127.248-.127.248s-.077.053-.077 0c0-.016-.002-.013-.008 0-.014.03-.053.112-.159.113v.074h-.433l.061-.074s-.107-.074-.149-.113a.248.248 0 0 1-.18-.128zm.551-.397a.072.072 0 0 0 .008-.033c0-.037-.028-.068-.063-.068-.034 0-.062.03-.062.068 0 .016.005.03.014.042l-.237.367.025.02.236-.367a.058.058 0 0 0 .058-.005l.248.371.025-.02-.252-.375zm-.066 1.41h.402l.059-.07a.07.07 0 0 1-.027-.056c0-.037.028-.067.063-.067.034 0 .062.03.062.067a.07.07 0 0 1-.016.046l.081.08h.182s.267-.242.267-.12c0 .12-.128.248-.128.248s-.077.053-.077 0c0-.015-.001-.012-.007 0-.014.03-.054.113-.16.114v.074h-.432l.06-.074s-.106-.074-.148-.114c-.137-.026-.181-.127-.181-.127zm.552-.397a.072.072 0 0 0 .007-.033c0-.037-.027-.067-.062-.067s-.063.03-.063.067c0 .016.006.031.014.043l-.236.366.024.02.237-.366a.058.058 0 0 0 .057-.005l.249.371.024-.02-.251-.376zm-1.128 1.209h.401l.06-.072a.07.07 0 0 1-.027-.055c0-.037.028-.067.063-.067.034 0 .062.03.062.067a.07.07 0 0 1-.016.046l.08.08h.182s.267-.242.267-.12c0 .12-.127.248-.127.248s-.077.053-.077 0c0-.016-.002-.012-.008 0-.014.03-.053.113-.159.114v.074h-.433l.061-.075s-.107-.073-.149-.113a.248.248 0 0 1-.18-.127zm.551-.398a.072.072 0 0 0 .008-.033c0-.037-.028-.067-.063-.067-.034 0-.062.03-.062.067 0 .016.005.031.014.043l-.237.366.025.02.236-.367a.058.058 0 0 0 .058-.005l.248.372.025-.02-.252-.376zm-.551 1.344h.401l.06-.072a.07.07 0 0 1-.027-.055c0-.037.028-.067.063-.067.034 0 .062.03.062.067a.07.07 0 0 1-.016.046l.08.08h.182s.267-.242.267-.12c0 .12-.127.248-.127.248s-.077.053-.077 0c0-.016-.002-.013-.008 0-.014.03-.053.113-.159.114v.074h-.433l.061-.074s-.107-.075-.149-.114c-.136-.027-.18-.127-.18-.127zm.551-.398a.072.072 0 0 0 .008-.033c0-.037-.028-.067-.063-.067-.034 0-.062.03-.062.067 0 .016.005.031.014.043l-.237.366.025.02.236-.366a.06.06 0 0 0 .058-.006l.248.372.025-.02-.252-.376zm2.452.398h.402l.059-.072a.07.07 0 0 1-.026-.055c0-.037.028-.067.062-.067.035 0 .063.03.063.067a.07.07 0 0 1-.017.046l.081.08h.182s.267-.242.267-.12c0 .12-.128.248-.128.248s-.077.053-.077 0c0-.016-.001-.013-.007 0-.014.03-.054.113-.16.114v.074h-.432l.06-.074s-.106-.075-.148-.114c-.137-.027-.18-.127-.18-.127zm.552-.398a.07.07 0 0 0 .008-.033c0-.037-.028-.067-.063-.067-.034 0-.062.03-.062.067 0 .016.005.031.014.043l-.237.366.025.02.236-.366a.059.059 0 0 0 .057-.005l.249.37.024-.02-.251-.375zm-.552-.515h.402l.059-.07a.069.069 0 0 1-.026-.056c0-.037.028-.068.062-.068.035 0 .063.03.063.068a.07.07 0 0 1-.017.046l.081.08h.182s.267-.242.267-.12c0 .12-.128.248-.128.248s-.077.053-.077 0c0-.016-.001-.013-.007 0-.014.03-.054.113-.16.113v.074h-.432l.06-.074s-.106-.074-.148-.113a.248.248 0 0 1-.18-.128zm.552-.397a.071.071 0 0 0 .008-.033c0-.037-.028-.068-.063-.068-.034 0-.062.03-.062.068 0 .016.005.03.014.042l-.237.367.025.02.236-.367a.058.058 0 0 0 .057-.005l.249.372.024-.02-.251-.376zm-.552-.515h.402l.059-.071a.07.07 0 0 1-.026-.055c0-.037.028-.068.062-.068.035 0 .063.03.063.068a.07.07 0 0 1-.017.045l.081.081h.182s.267-.242.267-.121-.128.248-.128.248-.077.054-.077 0c0-.015-.001-.012-.007 0-.014.03-.054.113-.16.114v.074h-.432l.06-.074s-.106-.074-.148-.114a.243.243 0 0 1-.18-.127zm.552-.397a.07.07 0 0 0 .008-.033c0-.038-.028-.068-.063-.068-.034 0-.062.03-.062.068 0 .016.005.03.014.042l-.237.366.025.02.236-.366a.059.059 0 0 0 .057-.005l.249.371.024-.02-.251-.375zm-.582-.481h.401l.06-.071a.07.07 0 0 1-.027-.056c0-.037.028-.067.063-.067.034 0 .062.03.062.067a.07.07 0 0 1-.016.046l.081.08h.181s.268-.242.268-.12c0 .12-.128.248-.128.248s-.077.053-.077 0c0-.015-.002-.012-.007 0-.015.03-.054.113-.16.114v.074h-.433l.061-.074s-.106-.074-.148-.114a.248.248 0 0 1-.181-.127zm.551-.398a.072.072 0 0 0 .008-.033c0-.037-.028-.067-.062-.067-.035 0-.063.03-.063.067 0 .017.006.031.014.043l-.236.366.024.02.237-.366a.058.058 0 0 0 .057-.005l.249.371.024-.02-.252-.376zm-.551-.548h.401l.06-.071a.07.07 0 0 1-.027-.055c0-.038.028-.068.063-.068.034 0 .062.03.062.068a.07.07 0 0 1-.016.045l.081.08h.181s.268-.242.268-.12c0 .12-.128.248-.128.248s-.077.053-.077 0c0-.015-.002-.012-.007 0-.015.03-.054.113-.16.114v.074h-.433l.061-.074s-.106-.074-.148-.114a.248.248 0 0 1-.181-.127zm.551-.398a.072.072 0 0 0 .008-.033c0-.037-.028-.067-.062-.067-.035 0-.063.03-.063.067 0 .017.006.031.014.043l-.236.366.024.02.237-.366a.058.058 0 0 0 .057-.005l.249.371.024-.02-.252-.376z" clip-rule="evenodd"/><path fill="#FFC6B5" fill-rule="evenodd" d="m15.4 7.866-.21.683s-.352.456-.417.68c-.066.223-.101.371-.083.371a.232.232 0 0 0 .161-.218c0-.154.549-.649.549-.649l.164-.867H15.4z" clip-rule="evenodd"/><path fill="#FFD018" fill-rule="evenodd" d="M17.107 6.793a.072.072 0 0 0 .008-.033c0-.037-.028-.067-.062-.067-.035 0-.063.03-.063.067 0 .016.006.031.014.043l-.236.366.024.02.237-.367a.058.058 0 0 0 .057-.005l.249.372.024-.02-.252-.376zm-.008.317a.07.07 0 0 0 .016-.046c0-.037-.028-.067-.062-.067-.035 0-.063.03-.063.067 0 .023.01.043.027.055l-.06.072h-.401s.044.1.18.127c.043.04.15.113.15.113l-.061.075h.432V7.43c.106 0 .145-.084.16-.113.005-.013.007-.016.007 0 0 .053.077 0 .077 0s.128-.127.128-.249c0-.12-.268.122-.268.122h-.18l-.082-.081z" clip-rule="evenodd"/><path fill="#FFC6B5" fill-rule="evenodd" d="M15.913 7.592c.005.013.01.022.01.036 0 .039-.167.097-.288.097-.12 0-.073-.097 0-.151.074-.054-.005-.147-.073-.147-.064 0-.064-.09-.063-.163V6.97c0-.114.03-.1.09-.075a.318.318 0 0 0 .131.034c.09 0 .095.02.108.077.009.034.02.08.055.144.057.1.045.124.027.16a.228.228 0 0 0-.027.117c0 .104.018.14.03.165zm.148.726.036-.385s-.036-.14.047-.14c.084 0 .212.672.259.942.03.172.003.204-.077.296a1.7 1.7 0 0 0-.182.25c-.127.21-.118.333-.112.427.004.063.007.112-.031.166-.09.125-.126.007-.162-.109a1.745 1.745 0 0 0-.008-.025c-.034-.108.122-.435.227-.657l.039-.081c.1-.214.09-.289.047-.379a1.74 1.74 0 0 1-.083-.305z" clip-rule="evenodd"/><path fill="#FFD018" fill-rule="evenodd" d="M16.262 12.106a.172.172 0 0 1-.167.177c-.092 0-.167-.08-.167-.177 0-.098.075-.177.167-.177.092 0 .167.08.167.177zm-.887.05c-.075.062-.166.076-.204.032-.038-.045-.008-.133.067-.196.075-.062.166-.077.204-.032.038.045.008.132-.067.195z" clip-rule="evenodd"/><path fill="#A95601" fill-rule="evenodd" d="M15.594 6.74s-.173.036-.115.123c.058.086-.076.064.115.075.192.011.244.081.218.132-.026.052-.047.18 0 .256.046.077.061.21.144.144.082-.067.24-.159.192-.28-.049-.12.02-.26-.086-.327-.106-.068-.13-.027-.19-.123-.061-.095-.15-.122-.214-.06l-.064.06z" clip-rule="evenodd"/><path fill="#F7FCFF" fill-rule="evenodd" d="M15.56 7.611s-.349.42-.292.568c.057.148.143.156.1.366-.043.21.026.536-.1.95-.125.413-.208 1.384-.167 1.384.042 0 .099.536.05.777-.05.24-.394.441-.05.441.344 0 .385.048.523 0 .137-.047.333.138.333 0 0-.137.014-.165.12-.165h.192c.093 0 .214.087.214-.118s.023-.646-.096-.988c-.118-.342-.078-.124-.194-.581-.07-.27-.123-.378-.164-.473-.03-.065-.112.05-.131-.053-.007-.034.05-.237.05-.263.004-.163.128-.19.128-.47 0-.324-.077-.68 0-.858.078-.178.269-.071.193-.245-.076-.173-.101-.272-.244-.272h-.465z" clip-rule="evenodd"/><path fill="#272727" d="m13.117 12.59.058-.077c.835.778 1.607 1.165 2.316 1.165.709 0 1.572-.41 2.588-1.236l.054.082c-1.03.837-1.91 1.256-2.642 1.256-.733 0-1.524-.397-2.374-1.19z"/></g></g></svg>