<svg viewBox="0 0 24 24" fill="none" xmlns="http://www.w3.org/2000/svg"><path d="M6.942 3h10.116A3.942 3.942 0 0 1 21 6.942v10.116A3.942 3.942 0 0 1 17.058 21H6.942A3.942 3.942 0 0 1 3 17.058V6.942A3.942 3.942 0 0 1 6.942 3z" fill="url(#paint0_linear_29_53)"/><path d="M8.77 16.065l-.615 1.066a.814.814 0 1 1-1.41-.813l.454-.786.044-.075c.077-.112.27-.304.653-.268 0 0 .902.098.968.567 0 0 .008.154-.095.309zm8.727-2.723h-1.919c-.13-.008-.188-.055-.21-.082v-.003L13.311 9.7l-.002.002-.124-.177c-.2-.309-.522.481-.522.481-.383.88.054 1.88.207 2.183l2.853 4.942a.813.813 0 1 0 1.41-.813l-.714-1.236c-.014-.03-.038-.111.108-.112h.97a.814.814 0 0 0 0-1.627v-.001zm-3.727 1.106s.102.521-.294.521H6.38a.814.814 0 0 1 0-1.627h1.824c.295-.017.365-.187.365-.187l.001.001 2.381-4.124a.182.182 0 0 0 0-.167l-.786-1.362a.814.814 0 0 1 1.41-.813l.364.632.364-.63a.814.814 0 0 1 1.41.813L10.4 13.243c-.015.035-.02.09.09.1h1.98v.018s1.144.018 1.3 1.087z" fill="#fff"/><defs><linearGradient id="paint0_linear_29_53" x1="12" y1="3" x2="12" y2="21" gradientUnits="userSpaceOnUse"><stop stop-color="#17C9FB"/><stop offset="1" stop-color="#1A74E8"/></linearGradient></defs></svg>