<svg viewBox="0 0 24 24" fill="none" xmlns="http://www.w3.org/2000/svg"><path d="M17.242 12.563c.025 2.724 2.39 3.63 2.416 3.642-.02.064-.378 1.292-1.246 2.56-.75 1.096-1.53 2.189-2.755 2.212-1.206.022-1.593-.715-2.971-.715-1.377 0-1.808.692-2.95.737-1.183.045-2.085-1.186-2.841-2.278-1.546-2.235-2.727-6.315-1.14-9.07.787-1.367 2.195-2.233 3.724-2.256 1.162-.022 2.26.783 2.97.783.71 0 2.044-.968 3.446-.826.587.025 2.235.237 3.292 1.786-.085.053-1.965 1.147-1.945 3.425zm-2.265-6.69c.628-.76 1.052-1.82.936-2.873-.906.036-2.002.604-2.651 1.364-.583.674-1.093 1.751-.955 2.784 1.01.079 2.04-.513 2.67-1.274v-.001z" fill="#000"/></svg>