<svg viewBox="0 0 24 24" fill="none" xmlns="http://www.w3.org/2000/svg"><path fill-rule="evenodd" clip-rule="evenodd" d="M17.335 7.94a1.275 1.275 0 1 0 0-2.55 1.275 1.275 0 0 0 0 2.55zm-9.027-.39l3.91-3.909c.297-.298.711-.48 1.167-.48h5.798a1.65 1.65 0 0 1 1.656 1.656v5.798c0 .456-.182.87-.488 1.168l-3.903 3.907-8.14-8.14z" fill="#4285F4"/><path fill-rule="evenodd" clip-rule="evenodd" d="M16.448 15.69l-4.818 4.82c-.306.299-.72.489-1.176.489-.455 0-.87-.19-1.168-.489L3.49 14.714A1.62 1.62 0 0 1 3 13.546c0-.464.19-.878.489-1.176l4.82-4.82 8.139 8.14z" fill="#34A853"/><path fill-rule="evenodd" clip-rule="evenodd" d="M6.302 17.527L3.49 14.714A1.62 1.62 0 0 1 3 13.546c0-.464.19-.878.489-1.176l4.82-4.82 3.985 3.986-5.992 5.991z" fill="#FBBC05"/><path fill-rule="evenodd" clip-rule="evenodd" d="M20.267 3.562a1.65 1.65 0 0 0-1.084-.401h-5.798c-.456 0-.87.182-1.168.48l-3.909 3.91 3.986 3.985 4.06-4.06a1.274 1.274 0 0 1 1.793-1.794l2.12-2.12z" fill="#EA4335"/><path d="M12.291 14.576a2.589 2.589 0 1 0 0-5.177 2.589 2.589 0 0 0 0 5.177z" fill="#4285F4"/><path fill-rule="evenodd" clip-rule="evenodd" d="M15.818 11.226h-3.443v1.477h1.982c-.185.938-.957 1.477-1.982 1.477-1.209 0-2.183-1.008-2.183-2.259s.974-2.259 2.183-2.259c.52 0 .991.191 1.36.504l1.075-1.112a3.608 3.608 0 0 0-2.435-.956c-2.048 0-3.694 1.703-3.694 3.823s1.646 3.823 3.694 3.823c1.847 0 3.527-1.39 3.527-3.823 0-.226-.034-.47-.084-.695z" fill="#fff"/></svg>