<svg viewBox="0 0 24 24" fill="none" xmlns="http://www.w3.org/2000/svg"><path d="M19.292 7.22l.434-1.061-1.228-1.27c-.664-.665-2.08-.275-2.08-.275l-1.602-1.82H9.162l-1.61 1.827s-1.415-.383-2.079.267L4.246 6.152l.433 1.061-.542 1.574 1.805 6.88c.376 1.474.628 2.044 1.69 2.795l3.3 2.238c.317.195.707.535 1.06.535.355 0 .744-.34 1.062-.535l3.3-2.238c1.061-.75 1.314-1.321 1.69-2.794l1.804-6.881-.556-1.567z" fill="url(#paint0_linear_29_515)"/><path d="M15.971 5.783s2.072 2.506 2.072 3.033c0 .541-.26.679-.52.96l-1.552 1.66c-.144.145-.455.39-.274.817.18.433.433.967.144 1.516-.289.556-.794.924-1.119.866a5.922 5.922 0 0 1-1.372-.65c-.274-.18-1.155-.91-1.155-1.19 0-.282.91-.795 1.083-.896.166-.116.939-.563.953-.737.014-.173.014-.216-.216-.65-.232-.433-.636-1.01-.578-1.386.072-.375.722-.577 1.206-.758l1.494-.563c.116-.058.087-.108-.26-.144-.346-.03-1.321-.16-1.761-.036-.44.122-1.177.31-1.25.411-.057.101-.115.101-.05.448l.419 2.274c.029.289.086.484-.217.556-.318.072-.845.195-1.025.195-.18 0-.715-.123-1.026-.195-.31-.072-.252-.267-.216-.556.029-.289.347-1.935.412-2.274.072-.347.007-.347-.051-.448-.072-.101-.816-.289-1.256-.411-.434-.123-1.416.007-1.762.043-.347.029-.376.072-.26.144l1.495.556c.476.18 1.14.383 1.205.758.072.383-.339.953-.577 1.387-.239.433-.231.476-.217.65.015.173.794.62.953.736.174.108 1.083.614 1.083.895 0 .282-.859 1.011-1.148 1.191a5.922 5.922 0 0 1-1.372.65c-.325.058-.83-.31-1.126-.866-.289-.549-.029-1.083.144-1.516.18-.434-.122-.665-.274-.816l-1.552-1.66c-.253-.268-.513-.412-.513-.947 0-.534 2.072-3.032 2.072-3.032l1.971.317c.231 0 .744-.194 1.213-.36.47-.145.795-.16.795-.16s.317 0 .794.16c.476.158.982.36 1.213.36.238 0 1.985-.339 1.985-.339l-.007.007zm-1.552 9.589c.13.072.05.23-.072.318l-1.834 1.43c-.145.143-.376.36-.527.36-.152 0-.376-.216-.527-.36a95.12 95.12 0 0 0-1.842-1.43c-.115-.087-.195-.239-.072-.318l1.083-.578c.43-.228.886-.404 1.358-.527.108 0 .794.246 1.35.527l1.083.578z" fill="#fff"/><path d="M16.433 4.621l-1.617-1.827H9.163l-1.61 1.827s-1.416-.383-2.08.267c0 0 1.877-.166 2.527.888l1.993.34c.231 0 .744-.195 1.213-.361.47-.145.794-.16.794-.16s.318 0 .794.16c.477.158.982.36 1.213.36.239 0 1.986-.339 1.986-.339.65-1.054 2.527-.888 2.527-.888-.664-.664-2.08-.274-2.08-.274" fill="url(#paint1_linear_29_515)"/><defs><linearGradient id="paint0_linear_29_515" x1="4.137" y1="12.199" x2="19.848" y2="12.199" gradientUnits="userSpaceOnUse"><stop offset=".4" stop-color="#F50"/><stop offset=".6" stop-color="#FF2000"/></linearGradient><linearGradient id="paint1_linear_29_515" x1="5.734" y1="4.488" x2="18.52" y2="4.488" gradientUnits="userSpaceOnUse"><stop stop-color="#FF452A"/><stop offset="1" stop-color="#FF2000"/></linearGradient></defs></svg>