<svg viewBox="0 0 24 24" fill="none" xmlns="http://www.w3.org/2000/svg"><path d="M11.937 21.263c4.063 0 6.316 0 7.79-1.474C21.2 18.316 21.2 16.063 21.2 12s0-6.316-1.473-7.79C18.253 2.737 16 2.737 11.937 2.737c-4.063 0-6.316 0-7.79 1.473C2.675 5.684 2.675 7.938 2.675 12c0 4.063 0 6.316 1.474 7.79 1.473 1.473 3.726 1.473 7.789 1.473z" fill="#EF3939"/><path d="M17.958 8.568A6.947 6.947 0 0 0 5.21 10.211a6.902 6.902 0 0 0 .715 5.305.22.22 0 0 0 .042.063l3.264 5.663 2.684.021c1.8 0 3.252 0 4.442-.126 1.474-.158 2.537-.526 3.358-1.348 1.19-1.189 1.42-2.905 1.463-5.663l-3.221-5.558z" fill="url(#paint0_linear_29_518)"/><path d="M16.81 7.095a6.924 6.924 0 0 0-9.81 0 6.957 6.957 0 0 0 2.25 11.328 6.925 6.925 0 0 0 7.56-1.507 6.957 6.957 0 0 0 0-9.821zm-.41 3.2l-3.431 5.968c-.211.369-.516.59-.948.621-.474.032-.842-.168-1.084-.579l-3.474-6.031c-.442-.769.053-1.706.937-1.748.463-.02.821.19 1.063.6.327.548.642 1.106.958 1.664l.695 1.2c.347.578.842.894 1.516.936a1.856 1.856 0 0 0 1.947-1.642c.01-.074.01-.147.021-.19 0-.326-.063-.6-.2-.862-.358-.716.021-1.506.79-1.685.631-.136 1.273.327 1.357.958a1.2 1.2 0 0 1-.147.79z" fill="#fff"/><defs><linearGradient id="paint0_linear_29_518" x1="8.446" y1="5.994" x2="17.298" y2="21.324" gradientUnits="userSpaceOnUse"><stop stop-opacity=".2"/><stop offset=".79" stop-opacity=".05"/></linearGradient></defs></svg>