<svg xmlns="http://www.w3.org/2000/svg" width="20" height="15" fill="none"><mask id="a" width="20" height="15" x="0" y="0" maskUnits="userSpaceOnUse"><path fill="#fff" d="M0 0h20v15H0z"/></mask><g mask="url(#a)"><path fill="#1D1D1D" fill-rule="evenodd" d="M0 0v15h20V0H0z" clip-rule="evenodd"/><mask id="b" width="20" height="15" x="0" y="0" maskUnits="userSpaceOnUse"><path fill="#fff" fill-rule="evenodd" d="M0 0v15h20V0H0z" clip-rule="evenodd"/></mask><g fill-rule="evenodd" clip-rule="evenodd" mask="url(#b)"><path fill="#F50100" d="M0 0v7.5h20V0H0z"/><g filter="url(#c)"><path fill="#FCFF01" d="M9.719 8.37c.484-.599.636-1.373.636-1.856 0-2.573-3.211-3.997-3.211-3.997 2.208 0 4.666 1.79 4.666 3.997 0 .935-.32 1.802-.858 2.492.984.49 1.817.874 1.817.874.309.202.395.742.192 1.052a.67.67 0 0 1-.926.192s-.79-.467-1.271-.783a20.846 20.846 0 0 0-.748-.462 3.932 3.932 0 0 1-2.203.675s-2.936-.36-2.852-1.865c0 0 .71.543 2.802.543.332 0 .625-.046.881-.128-.905-.494-1.673-.886-1.673-.886-.31-.202-1.113-1.23-.91-1.538.202-.31 1.427.04 1.736.242 0 0 .43.59 1.036.951.268.16.57.328.886.497zM8.238 6.127l-.631.42.201-.72-.463-.46.627-.025.266-.712.265.712h.626l-.462.485.232.678-.661-.378z"/><path fill="#FFEA42" d="M9.719 8.37c.484-.599.636-1.373.636-1.856 0-2.573-3.211-3.997-3.211-3.997 2.208 0 4.666 1.79 4.666 3.997 0 .935-.32 1.802-.858 2.492.984.49 1.817.874 1.817.874.309.202.395.742.192 1.052a.67.67 0 0 1-.926.192s-.79-.467-1.271-.783a20.846 20.846 0 0 0-.748-.462 3.932 3.932 0 0 1-2.203.675s-2.936-.36-2.852-1.865c0 0 .71.543 2.802.543.332 0 .625-.046.881-.128-.905-.494-1.673-.886-1.673-.886-.31-.202-1.113-1.23-.91-1.538.202-.31 1.427.04 1.736.242 0 0 .43.59 1.036.951.268.16.57.328.886.497zM8.238 6.127l-.631.42.201-.72-.463-.46.627-.025.266-.712.265.712h.626l-.462.485.232.678-.661-.378z"/></g></g></g><defs><filter id="c" width="8.111" height="8.717" x="4.959" y="2.517" color-interpolation-filters="sRGB" filterUnits="userSpaceOnUse"><feFlood flood-opacity="0" result="BackgroundImageFix"/><feColorMatrix in="SourceAlpha" values="0 0 0 0 0 0 0 0 0 0 0 0 0 0 0 0 0 0 127 0"/><feOffset/><feColorMatrix values="0 0 0 0 0 0 0 0 0 0 0 0 0 0 0 0 0 0 0.2 0"/><feBlend in2="BackgroundImageFix" result="effect1_dropShadow"/><feBlend in="SourceGraphic" in2="effect1_dropShadow" result="shape"/></filter></defs></svg>