<svg xmlns="http://www.w3.org/2000/svg" width="20" height="15" fill="none"><mask id="a" width="20" height="15" x="0" y="0" maskUnits="userSpaceOnUse"><path fill="#fff" d="M0 0h20v15H0z"/></mask><g mask="url(#a)"><path fill="#F7FCFF" fill-rule="evenodd" d="M0 0v15h20V0H0z" clip-rule="evenodd"/><mask id="b" width="20" height="15" x="0" y="0" maskUnits="userSpaceOnUse"><path fill="#fff" fill-rule="evenodd" d="M0 0v15h20V0H0z" clip-rule="evenodd"/></mask><g fill="#4564F9" fill-rule="evenodd" clip-rule="evenodd" mask="url(#b)"><path d="M0 0v5h20V0H0zm0 10v5h20v-5H0zm10.511-1.793-.734.387.14-.818-.595-.64h.822l.367-.804.368.804h.821l-.594.64.14.818-.735-.387zm-3.75-1.25-.734.387.14-.818-.595-.64h.822l.367-.804.368.804h.821l-.594.64.14.818-.735-.387zm0 2.5-.734.387.14-.818-.595-.64h.822l.367-.804.368.804h.821l-.594.64.14.818-.735-.387zm7.5-2.5-.734.387.14-.818-.595-.64h.822l.367-.804.368.804h.821l-.594.64.14.818-.735-.387zm0 2.5-.734.387.14-.818-.595-.64h.822l.367-.804.368.804h.821l-.594.64.14.818-.735-.387z"/></g></g></svg>