<svg xmlns="http://www.w3.org/2000/svg" width="20" height="15" fill="none"><mask id="a" width="20" height="15" x="0" y="0" maskUnits="userSpaceOnUse"><path fill="#fff" d="M0 0h20v15H0z"/></mask><g mask="url(#a)"><path fill="#F7FCFF" fill-rule="evenodd" d="M0 0v15h20V0H0z" clip-rule="evenodd"/><mask id="b" width="20" height="15" x="0" y="0" maskUnits="userSpaceOnUse"><path fill="#fff" fill-rule="evenodd" d="M0 0v15h20V0H0z" clip-rule="evenodd"/></mask><g mask="url(#b)"><path stroke="#272727" stroke-width=".625" d="M12.188 7.5a2.188 2.188 0 1 1-4.376 0 2.188 2.188 0 0 1 4.375 0z"/><path fill="#F05234" fill-rule="evenodd" d="M0 0v5h20V0H0z" clip-rule="evenodd"/><path fill="#3D58DB" fill-rule="evenodd" d="M0 10v5h20v-5H0z" clip-rule="evenodd"/><path stroke="#73BE4A" stroke-width=".625" d="M9.174 6.36s-.704.487-.45 1.432c.252.945 1.24.98 1.24.98"/><path stroke="#73BE4A" stroke-width=".625" d="M10.73 6.36s.704.487.45 1.432c-.253.945-1.24.98-1.24.98"/><path fill="#FBCD17" fill-rule="evenodd" d="M10.002 7.967a.625.625 0 1 0 0-1.25.625.625 0 0 0 0 1.25z" clip-rule="evenodd"/></g></g></svg>