<svg xmlns="http://www.w3.org/2000/svg" width="20" height="15" fill="none"><mask id="a" width="20" height="15" x="0" y="0" maskUnits="userSpaceOnUse"><path fill="#fff" d="M0 0h20v15H0z"/></mask><g fill-rule="evenodd" clip-rule="evenodd" mask="url(#a)"><path fill="#F7FCFF" d="M0 0h20v15H0V0z"/><path fill="#272727" d="M0 0v5h20V0H0z"/><path fill="#5EAA22" d="M0 10v5h20v-5H0z"/><path fill="#E31D1C" d="m0 0 10 7.5L0 15V0zm13.555 9.673s-1.422-.859-1.422-2.279 1.422-2.167 1.422-2.167c-.636-.404-2.843.173-2.843 2.213 0 2.041 2.186 2.418 2.843 2.233zm1.15-2.603-.827-.775.286.99-.801.38.983.32.428 1.07.186-.991.972.214-.735-.717.248-.766-.74.275z"/></g></svg>