<svg xmlns="http://www.w3.org/2000/svg" width="21" height="16" fill="none"><mask id="a" width="21" height="16" x="0" y="0" mask-type="alpha" maskUnits="userSpaceOnUse"><path fill="#fff" d="M.001.927h20v15h-20z"/></mask><g mask="url(#a)"><path fill="#F7FCFF" fill-rule="evenodd" d="M.001.927v15h20v-15h-20Z" clip-rule="evenodd"/><mask id="b" width="21" height="16" x="0" y="0" mask-type="alpha" maskUnits="userSpaceOnUse"><path fill="#fff" fill-rule="evenodd" d="M.001.927v15h20v-15h-20Z" clip-rule="evenodd"/></mask><g fill-rule="evenodd" clip-rule="evenodd" mask="url(#b)"><path fill="#3D58DB" d="M.001.927v15h20v-15h-20Z"/><path fill="#FFD018" d="m9.407 3.137-.14.818L10 3.57l.735.386-.14-.818.594-.64h-.821L10 1.695l-.367.804h-.822l.595.639Zm0 10.855-.14.819.734-.387.735.387-.14-.819.594-.639h-.821L10 12.55l-.367.804h-.822l.595.64ZM3.484 9.438l.14-.818-.594-.64h.822l.367-.803.367.804h.822l-.595.639.14.818-.734-.386-.735.386Zm1.352 1.77-.14.818.734-.386.735.386-.14-.818.594-.64h-.821l-.368-.803-.367.804H4.24l.595.639Zm9.009.818.14-.818-.595-.64h.822l.367-.803.368.804h.821l-.594.639.14.818-.735-.386-.734.386Zm-9.01-6.062-.14.818.735-.386.735.386-.14-.818.594-.639h-.821l-.368-.804-.367.804H4.24l.595.64Zm9.01.818.14-.818-.595-.639h.822l.367-.804.368.804h.821l-.594.64.14.817-.735-.386-.734.386ZM6.66 13.29l-.14.819.735-.387.734.386-.14-.818.595-.639h-.822l-.367-.804-.368.804h-.821l.594.64Zm5.418.819.14-.819-.594-.639h.821l.367-.804.368.804h.821l-.594.64.14.817-.735-.386-.734.386ZM6.52 4.666l.735-.387.734.387-.14-.818.595-.64h-.822l-.367-.804-.368.804h-.821l.594.64-.14.818Zm5.558 0 .14-.818-.594-.64h.821l.367-.804.368.804h.821l-.594.64.14.818-.735-.387-.734.387Zm3.062 3.879-.14.818.735-.386.735.386-.14-.818.593-.64h-.82l-.368-.803-.368.804h-.821l.594.639Z"/></g></g></svg>