<svg xmlns="http://www.w3.org/2000/svg" width="20" height="15" fill="none"><mask id="a" width="20" height="15" x="0" y="0" mask-type="alpha" maskUnits="userSpaceOnUse"><path fill="#fff" d="M0 0h20v15H0z"/></mask><g mask="url(#a)"><path fill="#C51918" fill-rule="evenodd" d="M0 0v15h20V0H0Z" clip-rule="evenodd"/><path fill="#5EAA22" fill-rule="evenodd" d="M0 0v15L20 0H0Z" clip-rule="evenodd"/><path fill="#272727" stroke="#FFD018" stroke-width="1.563" d="m.397 17.47.453.504.563-.376L24.076 2.471l.75-.5-.602-.671-3.326-3.71-.452-.504-.563.376L-2.78 12.589l-.75.5.602.671 3.325 3.71Z"/><path fill="#F7FCFF" fill-rule="evenodd" d="m7.555 10.574-.68 1.184-.434-1.334-1.352-.43 1.126-.687L6.08 7.91l1.11.855 1.152-.638-.323 1.421.924 1.063-1.388-.038ZM13.805 6.478l-.68 1.184-.434-1.334-1.352-.43 1.126-.687-.135-1.395 1.11.854 1.152-.638-.323 1.421.924 1.063-1.388-.038Z" clip-rule="evenodd"/></g></svg>