<svg xmlns="http://www.w3.org/2000/svg" width="20" height="15" fill="none"><mask id="a" width="20" height="15" x="0" y="0" maskUnits="userSpaceOnUse"><path fill="#fff" d="M0 0h20v15H0z"/></mask><g mask="url(#a)"><path fill="#FECA00" fill-rule="evenodd" d="M0 0h20v15H0V0z" clip-rule="evenodd"/><path fill="#1F8A6E" d="M1.25 1.25H5v12.5H1.25z"/><path fill="#F56800" d="M5 1.25h3.75v12.5H5z"/><path fill="#B01D00" d="M8.75 1.25h10v12.5h-10z"/><path fill="#E8AA00" d="M7.5 1.25h1.25v12.5H7.5z"/><path fill="#FECA00" fill-rule="evenodd" d="M10.688 3.858s-.796-.002-.796 1.384v2.033s-.38.067-.38.303c0 .235.081.441.23.441.15 0 .3.69.15.69s-.299.297-.15.297c.036 0 .063-.005.084-.008.022-.004.036-.007.046-.001.02.011.02.057.02.194 0 .269-.15.377-.15.377s-.14-.039-.14.12c0 .158.14.198.14.198s.08.035-.074.11c-.155.075-.155.111-.155.111h.379l.19.347.18-.347h.375s-.189-.12-.21-.146c-.023-.025-.05-.062 0-.104a.246.246 0 0 1 .057-.032c.054-.024.117-.053.117-.137 0-.12-.238-.12-.238-.12s-.146-.263-.1-.377a.78.78 0 0 0 .026-.086c.016-.063.025-.099.104-.099.108 0 .17-.137.033-.296 0 0 .158.17.111.389-.046.22.049.319.1.319.05 0 .132-.076.132-.076s.425.38.611.38c.187 0 .455-.304.455-.304l.384.216s.281.394.24.665c-.042.27-.202.421-.39.38-.19-.043-.496.043-.52.16l-.014.063c-.033.133-.08.331.067.282.174-.057.208-.102.208-.102s-.023.102.118.102c.14 0 .18-.102.18-.102s.146.102.248.102c.103 0 .217-.078.217-.078s.075.116.242.078c.167-.038.292-.473.171-.57 0 0 .402-.058.505-.408 0 0-.389-.005-.348-.245.04-.239.245-.393.245-.393s.59-.286.845-.377c.255-.092.677-.185.782-.185.043 0 .073.1.114.234.06.197.144.469.32.617.3.25.096.821.096.821s-.665.067-.665.247.01.26.135.26.122-.103.122-.103.074.102.194.102c.119 0 .214-.102.214-.102s.032.102.188.102c.157 0 .155-.102.155-.102s.029.102.167.102c.137 0 .42-.102.42-.102s.045.102.188.102c.143 0 .146-.102.146-.102s.077.102.201.102c.124 0 .197-.102.197-.102s.178.102.301.102.079-.184 0-.345c-.02-.04-.043-.075-.064-.107-.062-.094-.107-.161-.002-.278.03-.033.064-.066.099-.1.128-.124.256-.249.162-.358a.472.472 0 0 0-.094-.078c-.107-.075-.217-.151-.167-.576.03-.254.088-.46.141-.652.063-.226.12-.432.12-.67 0-.442-.26-.947-.26-.947s.35-.245.35-.743-.783-.553-.783-.553-.778.2-1.122.1a5.023 5.023 0 0 0-.196-.052c-.185-.046-.242-.06-.242-.19 0-.165-.25.142-.25.142s-.196-.078-.063-.241c.133-.163.194-.227.194-.227s-.118-.134-.316-.067-.233.178-.233.178-.226-.231-.085-.399c.14-.168.318 0 .318 0s.202.106.219-.033c.016-.139 0-.25 0-.25s.507.146.364.373c-.144.226-.053.31-.053.31s.349.02.412-.22a.507.507 0 0 0 .002-.249c.1.048.215.104.183.197a2.62 2.62 0 0 1-.185.387s.348-.02.452-.294c.104-.273.067.067.067.067s.133-.005.334.111c.2.116 0-.178 0-.178s.416.516.81.455c.393-.061.371-.388.371-.388s-.093-.16-.288-.16c-.195 0-.084.16-.084.16s.19.108-.11 0c-.088-.031-.218-.132-.38-.258-.396-.308-.981-.763-1.584-.693-.848.098-1.145.477-1.145.477V4.52s-.142.219-.275.219c-.133 0-.502-.22-.502-.22l-.235.22s-.09-.22-.245-.22c-.157 0-.157.22-.157.22s-.196-.097-.413-.097a.556.556 0 0 1-.222-.057c-.084-.036-.132-.057-.132.057v.066c.005.155.007.251-.217.28-.256.033-.453.033-.453.033s-.152-.186-.271-.186c-.119 0-.257.144-.257.276 0 .131.154.506.257.586.027.021.022.019 0 .009-.062-.029-.257-.118-.257.071 0 .13.033.164.057.187.023.024.038.038.007.126a2.007 2.007 0 0 1-.05.123c-.072.171-.155.37-.014.37.077 0 .15-.017.201-.029.069-.016.1-.023.056.029l-.066.071c-.082.086-.166.174-.02.107a.974.974 0 0 0 .194-.128c.078-.062.132-.104.163-.05.02.034.004.08-.01.12-.022.065-.038.113.126.058a.653.653 0 0 0 .11-.044c0 .01.01.025.035.044.056.04.045.08.037.108-.01.034-.015.055.08.055.093 0 .223-.071.3-.113.074-.041.099-.055-.008.05a.944.944 0 0 1-.273.158c-.241.109-.535.241-.668.693-.18.61-.1.735-.088.75l-.553-.607s.132-.104.132-.277c0-.174-.343-.303-.343-.303s.012-2.161.111-2.633c.1-.471.15-.784.15-.784zm1.104 2.838a.019.019 0 0 0-.017.02c.024-.013.024-.02.017-.02zm4.167-1.744-.007-.003c-.081-.038-.15-.071-.124-.114.038-.06.103.003.131.117zm.367 4.677s-.263.257-.096.314c.05.017.112.026.17.035.13.02.239.037.14.135-.143.14-.264.328-.264.5 0 .17.004.316.05.243.025-.04.129-.081.24-.126a1.56 1.56 0 0 0 .253-.118c.12-.079.118-.165.115-.319l-.001-.086c0-.21-.607-.578-.607-.578zM14.289 6.18c.062-.049.066-.649.066-.649s.214.072.214.165c0 .059-.016.092-.04.143-.015.03-.033.067-.053.12-.047.128.082.209.2.284l.028.017c.08.052.103-.06.12-.146.01-.048.019-.088.034-.088.044 0 .369.073.614.198.213.108.423.055.903-.067l.229-.058c.647-.16.732.081.798.27.067.19-.436.454-.799.502-.159.02-.297.014-.424.008-.162-.008-.306-.015-.453.037-.23.082-.953.074-1.235.071h-.09c-.129 0-.153-.042-.202-.124a1.397 1.397 0 0 0-.045-.07c-.088-.13.02-.213.088-.213.07 0 .047-.152 0-.21-.047-.059-.014-.141.047-.19zM8.857 1.326v.226a.42.42 0 0 1-.025.108c-.043.135-.1.316.164.366.347.067.603.22.68.362.05.092.036-.06.02-.24a3.345 3.345 0 0 1-.02-.29c0-.222-.247-.653-.423-.532-.176.122-.396 0-.396 0zm0 12.116v.226s.22-.122.396 0c.176.121.424-.31.424-.531 0-.08.01-.19.019-.29.016-.18.03-.333-.02-.241-.077.143-.333.295-.68.362-.264.05-.207.231-.164.366.013.042.025.08.025.108zm9.79 0v.226s-.22-.122-.396 0c-.175.121-.423-.31-.423-.531 0-.08-.01-.19-.02-.29-.016-.18-.03-.333.02-.241.078.143.333.295.68.362.265.05.207.231.165.366a.395.395 0 0 0-.026.108zm0-11.89v-.226s-.22.122-.396 0c-.175-.121-.423.31-.423.531 0 .08-.01.19-.02.29-.016.18-.03.333.02.241.078-.143.333-.295.68-.362.265-.05.207-.231.165-.366a.395.395 0 0 1-.026-.108z" clip-rule="evenodd"/></g></svg>