<svg xmlns="http://www.w3.org/2000/svg" width="20" height="15" fill="none"><mask id="a" width="20" height="15" x="0" y="0" maskUnits="userSpaceOnUse"><path fill="#fff" d="M0 0h20v15H0z"/></mask><g mask="url(#a)"><path fill="#3D58DB" fill-rule="evenodd" d="M0 0v15h20V0H0z" clip-rule="evenodd"/><mask id="b" width="20" height="15" x="0" y="0" maskUnits="userSpaceOnUse"><path fill="#fff" fill-rule="evenodd" d="M0 0v15h20V0H0z" clip-rule="evenodd"/></mask><g mask="url(#b)"><path fill="#579D20" fill-rule="evenodd" d="M0 15h20V0L0 15z" clip-rule="evenodd"/><path fill="#FECA00" d="m-.489 15.466-1.127-1.56L21.047-1.221l1.127 1.56L-.489 15.466z"/><path fill="#F7FCFF" fill-rule="evenodd" d="m2.283 4.092.853-.591.892.53-.313-.952.625-.682h-.846l-.358-1-.359 1-.847.035.626.647-.273 1.013zm3.537 0 .852-.591.892.53-.312-.952.624-.682H7.03l-.358-1-.359 1-.847.035.626.647-.272 1.013z" clip-rule="evenodd"/><path fill="#F7FCFF" fill-rule="evenodd" d="m4.155 5.91.852-.592.893.531-.313-.952.624-.682h-.845l-.359-1.001-.358 1-.847.036.625.647-.272 1.012zm-1.02 1.34-.852.592.273-1.013-.626-.647.847-.035.359-1 .358 1h.846l-.625.682.313.953-.892-.532zm3.537 0-.852.592.272-1.013-.626-.647.847-.035.359-1 .358 1h.846l-.624.682.312.953-.892-.532z" clip-rule="evenodd"/></g></g></svg>