<svg xmlns="http://www.w3.org/2000/svg" width="20" height="15" fill="none"><mask id="a" width="20" height="15" x="0" y="0" maskUnits="userSpaceOnUse"><path fill="#fff" d="M0 0h20v15H0z"/></mask><g mask="url(#a)"><path fill="#F7FCFF" fill-rule="evenodd" d="M0 0v15h20V0H0z" clip-rule="evenodd"/><mask id="b" width="20" height="15" x="0" y="0" maskUnits="userSpaceOnUse"><path fill="#fff" fill-rule="evenodd" d="M0 0v15h20V0H0z" clip-rule="evenodd"/></mask><g mask="url(#b)"><path fill="#3D58DB" fill-rule="evenodd" d="M0 0v5h20V0H0zm0 10v5h20v-5H0z" clip-rule="evenodd"/><path stroke="#E8AA00" stroke-width=".625" d="M12.14 7.411a2.276 2.276 0 1 1-4.551 0 2.276 2.276 0 0 1 4.552 0z"/><path fill="#1E601B" fill-rule="evenodd" d="M8.632 6.039s-.596.98-.596 1.652c0 .673.713 1.518 1.834 1.518 1.094 0 1.88-.653 1.904-1.518.023-.864-.589-1.48-.589-1.48s.347 1.245.173 1.75c-.173.504-.733 1.114-1.488 1.037C9.116 8.92 8.4 7.99 8.4 7.69c0-.3.232-1.652.232-1.652z" clip-rule="evenodd"/><path stroke="#188396" stroke-width=".625" d="M8.85 7.705h2.005"/><path stroke="#E8AA00" stroke-width=".625" d="M9.037 7.379h1.725m-.106.378H9.121l.774-1.285.761 1.285z"/></g></g></svg>