<svg width="100" height="60" xmlns="http://www.w3.org/2000/svg"><g fill="none" fill-rule="evenodd"><rect fill="#FFF" width="100" height="60" rx="4"/><path d="M26.292 22.653c-4.512 0-8.27 1.928-8.27 7.743 0 4.608 2.527 7.51 8.386 7.51 6.896 0 7.338-4.577 7.338-4.577h-3.341s-.717 2.464-4.2 2.464c-2.839 0-4.88-1.93-4.88-4.637h12.77v-1.698c0-2.678-1.687-6.805-7.803-6.805zm-.117 2.17c2.701 0 4.543 1.667 4.543 4.166h-9.319c0-2.653 2.404-4.165 4.776-4.165z" fill="#E53238"/><path d="M34.093 17.022v17.962c0 1.02-.072 2.452-.072 2.452h3.187s.115-1.028.115-1.968c0 0 1.574 2.481 5.856 2.481 4.509 0 7.571-3.153 7.571-7.67 0-4.202-2.813-7.582-7.564-7.582-4.449 0-5.831 2.42-5.831 2.42v-8.095h-3.262zm8.27 7.897c3.062 0 5.01 2.289 5.01 5.36 0 3.294-2.25 5.448-4.988 5.448-3.267 0-5.03-2.57-5.03-5.419 0-2.654 1.582-5.39 5.009-5.39z" fill="#0064D2"/><path d="M58.671 22.653c-6.787 0-7.222 3.743-7.222 4.341h3.378s.177-2.185 3.611-2.185c2.231 0 3.96 1.029 3.96 3.006v.704h-3.96c-5.258 0-8.037 1.55-8.037 4.693 0 3.094 2.568 4.777 6.039 4.777 4.73 0 6.253-2.632 6.253-2.632 0 1.047.08 2.079.08 2.079h3.003s-.116-1.28-.116-2.097v-7.073c0-4.637-3.714-5.613-6.989-5.613zm3.727 7.978v.939c0 1.224-.75 4.267-5.165 4.267-2.418 0-3.454-1.215-3.454-2.625 0-2.564 3.49-2.581 8.62-2.581z" fill="#F5AF02"/><path fill="#86B817" d="M63.84 23.24h3.801l5.454 11.006 5.441-11.006h3.443l-9.912 19.593h-3.61l2.86-5.462z"/></g></svg>