<svg width="100" height="60" xmlns="http://www.w3.org/2000/svg"><g fill="none" fill-rule="evenodd"><rect fill="#FFF" width="100" height="60" rx="4"/><path d="M83.656 29.984C83.656 41.039 74.731 50 63.717 50c-11.01 0-19.938-8.96-19.938-20.016 0-11.056 8.927-20.017 19.938-20.017 11.014 0 19.94 8.961 19.94 20.017" fill="#C00"/><path d="M48.315 42.695a19.871 19.871 0 01-1.519-2.12h7.067c.424-.68.807-1.387 1.149-2.12h-9.364a19.911 19.911 0 01-.844-2.119h11.05a20.044 20.044 0 001.026-6.352 20.19 20.19 0 00-.448-4.24H44.228c.154-.721.349-1.428.578-2.119h11.047a20.171 20.171 0 00-.843-2.119h-9.36a20.49 20.49 0 011.148-2.12h7.063c-.461-.74-.97-1.446-1.52-2.117h-4.024a20.165 20.165 0 012.013-2.119 19.824 19.824 0 00-13.388-5.183c-11.013 0-19.94 8.961-19.94 20.017C17.002 41.039 25.929 50 36.942 50c5.152 0 9.85-1.962 13.388-5.182a20.1 20.1 0 002.014-2.123h-4.03" fill="#06C"/><path d="M50.046 35.393a9.655 9.655 0 01-2.548.335c-2.779-.002-4.226-1.273-4.226-3.703 0-2.839 1.842-4.927 4.344-4.927 2.045 0 3.351 1.17 3.351 3.005 0 .609-.088 1.202-.304 2.04H45.72c-.176 1.187.688 1.708 2.157 1.708.88 0 1.676-.159 2.558-.515l-.39 2.057zm-1.33-4.924c0-.18.275-1.454-1.155-1.481-.79 0-1.356.527-1.585 1.48h2.74zm3.004-.557c0 1.049.588 1.773 1.925 2.313 1.022.42 1.183.541 1.183.917 0 .52-.452.759-1.454.752a8.253 8.253 0 01-2.251-.322l-.36 1.912c.722.168 1.732.223 2.628.244 2.67 0 3.901-.877 3.901-2.773 0-1.14-.514-1.81-1.781-2.31-1.06-.425-1.184-.517-1.184-.902 0-.451.42-.68 1.238-.68.497 0 1.176.046 1.82.124l.362-1.923a19.538 19.538 0 00-2.23-.165c-2.827 0-3.806 1.278-3.797 2.813m-9.803 5.679h-2.073l.05-.872c-.633.688-1.475 1.009-2.618 1.009-1.353 0-2.279-.929-2.279-2.264 0-2.03 1.61-3.2 4.38-3.2.285 0 .647.021 1.019.063.076-.271.097-.389.097-.536 0-.555-.436-.76-1.601-.76a9.538 9.538 0 00-2.644.37l.355-1.862c1.244-.318 2.058-.441 2.98-.441 2.144 0 3.277.844 3.277 2.43.018.424-.129 1.274-.203 1.646-.084.54-.678 3.677-.74 4.417zm-1.82-3.703a4.909 4.909 0 00-.557-.034c-1.414 0-2.13.423-2.13 1.257 0 .524.35.852.895.852 1.016 0 1.75-.854 1.792-2.075zM61.66 35.46c-.68.187-1.21.268-1.783.268-1.27 0-1.963-.651-1.963-1.812-.04-.319.27-1.791.34-2.202.07-.411 1.17-6.41 1.17-6.41h2.468l-.373 1.985h1.266l-.344 2.025h-1.272s-.697 3.517-.697 3.786c0 .426.257.611.848.611.282 0 .5-.027.67-.077l-.33 1.826m11.026-8.362c-1.808 0-3.221.748-4.042 1.996l.712-1.852c-1.313-.483-2.159.207-2.924 1.189 0 0-.128.162-.256.311v-1.454h-2.317c-.314 2.567-.869 5.171-1.303 7.745l-.105.56h2.493c.236-1.307.43-2.366.624-3.212.53-2.318 1.42-3.027 2.758-2.713-.308.666-.478 1.438-.478 2.292 0 2.072 1.121 3.768 3.905 3.768 2.81 0 4.844-1.506 4.844-4.941 0-2.072-1.356-3.69-3.91-3.69zm-.725 6.616c-.88.013-1.414-.728-1.414-1.838 0-1.315.779-2.8 2.03-2.8 1.01 0 1.355.803 1.355 1.66 0 1.87-.763 2.978-1.971 2.978zm-38.125 1.878h-2.483l1.476-7.802-3.397 7.802H27.17l-.414-7.756-1.48 7.756h-2.252l1.918-10.148h3.88l.322 5.657 2.458-5.657h4.19l-1.956 10.148" fill="#006"/><path d="M50.668 34.768a9.636 9.636 0 01-2.546.335c-2.78-.002-4.227-1.273-4.227-3.703 0-2.84 1.842-4.927 4.343-4.927 2.046 0 3.353 1.17 3.353 3.005 0 .608-.089 1.2-.305 2.04h-4.942c-.176 1.186.686 1.707 2.156 1.707.88 0 1.676-.158 2.558-.515l-.39 2.058zm-1.329-4.924c0-.18.275-1.454-1.155-1.481-.79 0-1.356.527-1.585 1.48h2.74zm3.004-.558c0 1.05.588 1.773 1.925 2.313 1.022.42 1.183.542 1.183.917 0 .52-.452.76-1.454.753a8.26 8.26 0 01-2.251-.323l-.36 1.912c.722.169 1.733.224 2.628.245 2.669 0 3.902-.877 3.902-2.774 0-1.14-.515-1.81-1.782-2.31-1.06-.424-1.184-.517-1.184-.9 0-.452.42-.682 1.238-.682.497 0 1.176.047 1.82.125l.362-1.923a19.257 19.257 0 00-2.23-.165c-2.827 0-3.806 1.277-3.797 2.812m-9.803 5.68h-2.074l.05-.872c-.632.687-1.474 1.007-2.617 1.007-1.352 0-2.28-.928-2.28-2.263 0-2.029 1.612-3.2 4.381-3.2.285 0 .646.022 1.019.063.077-.271.097-.388.097-.535 0-.557-.435-.76-1.6-.76a9.532 9.532 0 00-2.644.37l.353-1.863c1.245-.317 2.059-.44 2.981-.44 2.145 0 3.277.843 3.277 2.43.018.424-.129 1.272-.202 1.645-.085.541-.679 3.678-.74 4.418zm-1.82-3.703a4.637 4.637 0 00-.557-.034c-1.413 0-2.13.422-2.13 1.256 0 .524.35.852.894.852 1.017 0 1.75-.854 1.793-2.074zm21.564 3.571c-.68.188-1.21.27-1.784.27-1.27 0-1.963-.653-1.963-1.813-.04-.319.27-1.792.34-2.202.07-.412 1.17-6.411 1.17-6.411h2.468l-.373 1.985h1.266l-.344 2.026h-1.271s-.698 3.516-.698 3.784c0 .428.257.612.848.612.282 0 .5-.026.67-.077l-.33 1.826m12.273-4.725c0 1.872-.764 2.98-1.972 2.98-.88.012-1.414-.728-1.414-1.838 0-1.315.779-2.8 2.03-2.8 1.01 0 1.356.803 1.356 1.658zm2.664.053c0-2.072-1.356-3.69-3.91-3.69-2.938 0-4.839 1.966-4.839 4.862 0 2.073 1.121 3.77 3.906 3.77 2.809 0 4.843-1.507 4.843-4.942zm-12.738-3.5c-.314 2.568-.869 5.172-1.303 7.745l-.104.56h2.492c.898-4.97 1.2-6.385 3.082-5.887l.905-2.351c-1.313-.484-2.158.207-2.923 1.189.07-.442.2-.869.168-1.256h-2.317m-30.023 8.305h-2.482l1.475-7.802-3.397 7.802h-2.262l-.414-7.756-1.48 7.756h-2.252l1.918-10.149h3.88l.204 6.283 2.73-6.283h4.036l-1.956 10.15" fill="#FFF"/></g></svg>