<svg width="100" height="60" xmlns="http://www.w3.org/2000/svg" xmlns:xlink="http://www.w3.org/1999/xlink"><defs><rect id="a" x="0" y="0" width="100" height="60" rx="4"/></defs><g fill="none" fill-rule="evenodd"><use fill="#FFF" xlink:href="#a"/><rect stroke="#FFF" x=".5" y=".5" width="99" height="59" rx="4"/><path d="M22.073 23.519c-1.04.195-2.015.914-2.301 1.958-.235.89-.183 1.878.183 2.725.397.889 1.392 1.303 2.314 1.385 1.63.156 3.367-.136 4.73-1.08.76-.524 1.377-1.415 1.22-2.374-.149-1.067-1.064-1.838-2.018-2.227-1.298-.522-2.756-.63-4.128-.387zm-2.521-2.794a11.592 11.592 0 017.011-.282c1.783.51 3.489 1.522 4.538 3.076.822 1.2 1.121 2.756.713 4.159-.428 1.54-1.585 2.786-2.932 3.605-2.3 1.389-5.155 1.72-7.759 1.137a6.916 6.916 0 00-.607-.086c-.062 1.213.594 2.407 1.63 3.039.492.349 1.114.423 1.613.756-.551.157-1.126.06-1.68-.024-1.93-.342-3.664-1.487-4.857-3.018-1.797-2.274-2.453-5.365-1.824-8.18.567-1.98 2.25-3.483 4.154-4.182z" fill="#419945"/><path d="M41.552 25.587c0 1.361-.003 2.724.002 4.087.561.033 1.189.072 1.663-.285.534-.39.664-1.097.675-1.715.006-.637-.06-1.372-.577-1.818-.49-.401-1.173-.37-1.763-.27zm-3.528-1.351c1.54-.612 3.225-.803 4.874-.707 1.013.075 2.05.313 2.891.903 2.074 1.419 2.054 4.942-.02 6.354-1.22.838-2.772 1.007-4.218.92.002 1.472 0 2.944 0 4.416h-3.529c0-3.963 0-7.925.002-11.886zm19.538 2.174h3.743c.405 2.288.997 4.549 1.243 6.863.108-1.16.424-2.284.678-3.417.268-1.149.533-2.299.8-3.447 1.12.001 2.24-.002 3.36.001-1.516 4.53-3.042 9.058-4.56 13.588-1.206.003-2.413.002-3.618 0 .545-1.293 1.09-2.587 1.638-3.879-1.089-3.238-2.191-6.472-3.284-9.709m10.658-.001c2.303.004 4.604-.008 6.906.006-.905 2.344-1.784 4.696-2.68 7.044a8.75 8.75 0 00-.171.452c.959-.005 1.916-.001 2.876-.002 0 .737-.002 1.474 0 2.213h-7.245l2.939-7.5c-.875-.002-1.75 0-2.624 0v-2.213m-16.805 5.892c-.246.568-.232 1.338.24 1.79.505.427 1.226.38 1.836.251.001-1.01 0-2.022 0-3.033-.756.11-1.68.248-2.076.992zm-2.822-5.351c1.59-.582 3.31-.908 5.005-.702.94.115 1.91.49 2.481 1.276.524.705.67 1.607.668 2.464l-.001 5.625c-1.346.593-2.84.73-4.295.726-1.13-.026-2.327-.153-3.285-.802-1.483-.994-1.545-3.492-.076-4.53 1.275-.911 2.896-1.09 4.414-1.259.047-.52-.094-1.161-.685-1.297-1.177-.287-2.404.073-3.501.504-.24-.67-.495-1.332-.725-2.005zm31.141 5.178c-.368.556-.372 1.391.076 1.906.496.486 1.262.44 1.894.31.006-1.012.005-2.024 0-3.037-.7.11-1.514.216-1.97.82zm-2.93-5.176c1.598-.59 3.333-.913 5.036-.7.937.117 1.903.502 2.466 1.289.513.702.651 1.595.656 2.443.002 1.876 0 3.752 0 5.627-1.381.608-2.918.743-4.414.726-1.084-.035-2.23-.17-3.151-.787-1.509-.993-1.567-3.53-.069-4.56 1.274-.895 2.883-1.079 4.394-1.24.038-.51-.09-1.15-.67-1.293-1.183-.3-2.418.068-3.521.498-.241-.668-.493-1.332-.727-2.003z" fill="#2D2E2C"/></g></svg>