<svg width="100" height="60" viewBox="0 0 100 60" version="1.1" xmlns="http://www.w3.org/2000/svg" xmlns:xlink="http://www.w3.org/1999/xlink"><title>2checkout-dark</title><desc>Created with Sketch.</desc><g id="Dark-Payment-badges" stroke="none" stroke-width="1" fill="none" fill-rule="evenodd" transform="translate(-610.000000, -589.000000)"><g id="2checkout-dark" transform="translate(610.000000, 589.000000)"><rect id="Rectangle" fill="#008FBE" x="0" y="0" width="100" height="60" rx="4"/><path d="M68.2039046,24.432894 C65.8222765,16.6559554 58.5818034,11 50.0183092,11 C39.5149865,11 31,19.5067394 31,30.0004751 C31,40.4937358 39.5149865,49 50.0183092,49 C58.6236531,49 65.8917089,43.2879792 68.236243,35.4521243 C67.2532507,36.0460377 66.0786058,36.3957338 64.7679494,36.3957338 C60.9448846,36.3957338 58.2779175,33.5002876 58.2779175,30.0004751 L58.2779175,29.9653155 C58.2779175,26.4650279 60.9810275,23.534422 64.8040924,23.534422 C66.0881171,23.534422 67.2370815,23.8665383 68.2039046,24.432894 L68.2039046,24.432894 Z M45.6321757,36.1824002 L36.6340154,36.1824002 L36.6340154,34.4600515 L40.9188536,30.8176999 C42.626131,29.3790042 43.2491208,28.5798345 43.2491208,27.4604266 C43.2491208,26.2345895 42.3774107,25.5233189 41.2393843,25.5233189 C40.1013579,25.5233189 39.3185783,26.1452649 38.3593642,27.3896321 L36.8118766,26.1808997 C38.0031663,24.5103403 39.1763845,23.5695816 41.399174,23.5695816 C43.8359677,23.5695816 45.5075777,25.061967 45.5075777,27.2827278 L45.5075777,27.3178874 C45.5075777,29.2711496 44.4765534,30.338293 42.2713597,32.1319113 L39.7094925,34.2642977 L45.6321757,34.2642977 L45.6321757,36.1824002 L45.6321757,36.1824002 Z M57.9754584,25.2420416 L56.4351042,26.745355 C55.548176,26.0131786 54.5784995,25.5413739 53.3406045,25.5413739 C50.9575496,25.5413739 49.2331519,27.4951112 49.2331519,29.9292055 L49.2331519,29.9653155 C49.2331519,32.3989347 50.9575496,34.3887819 53.3406045,34.3887819 C54.6222514,34.3887819 55.5158376,33.9478607 56.3999124,33.2204356 L57.8575183,34.6448773 C56.6757399,35.7296006 55.3260872,36.3957338 53.2687942,36.3957338 C49.6407108,36.3957338 46.9390276,33.571082 46.9390276,30.0004751 L46.9390276,29.9653155 C46.9390276,26.4293931 49.5893499,23.534422 53.3582004,23.534422 C55.4925349,23.534422 56.8383831,24.2304884 57.9754584,25.2420416 L57.9754584,25.2420416 Z M69,30.0004751 L69,29.9653155 C69,27.5488009 67.2404105,25.5413739 64.7679494,25.5413739 C62.2973907,25.5413739 60.5715662,27.5131661 60.5715662,29.9292055 L60.5715662,29.9653155 C60.5715662,32.3813549 62.3316313,34.3887819 64.8040924,34.3887819 C67.2751267,34.3887819 69,32.4165145 69,30.0004751 L69,30.0004751 Z" id="Fill-72" fill="#FFF"/></g></g></svg>