<svg width="100" height="60" viewBox="0 0 100 60" version="1.1" xmlns="http://www.w3.org/2000/svg" xmlns:xlink="http://www.w3.org/1999/xlink"><title>Coinkite-light</title><desc>Created with Sketch.</desc><g id="Light-Payment-badges" stroke="none" stroke-width="1" fill="none" fill-rule="evenodd" transform="translate(-450.000000, -1189.000000)"><g id="Coinkite-light" transform="translate(450.000000, 1189.000000)"><rect id="Rectangle" fill="#FFF" x="0" y="0" width="100" height="60" rx="4"/><g id="Group" transform="translate(30.799026, 42.949735)" fill="#F27100"><path d="M0,3.69567772 C0,1.53895826 1.60415407,0.0835846519 3.68425954,0.0835846519 C5.19502706,0.0835846519 6.07478076,0.910896118 6.56120542,1.79030084 L5.29888687,2.41865729 C5.00912672,1.85328364 4.38800432,1.40328035 3.68455047,1.40328035 C2.42194099,1.40328035 1.51105844,2.37715927 1.51105844,3.69597204 C1.51105844,5.01507911 2.42194099,5.98866372 3.68455047,5.98866372 C4.38829524,5.98866372 5.00912672,5.53866044 5.29888687,4.97328679 L6.56120542,5.59134231 C6.07478076,6.46015179 5.19502706,7.30835942 3.68425954,7.30835942 C1.60415407,7.3077708 0,5.84180195 0,3.69567772 L0,3.69567772 Z" id="Shape"/><path d="M7.08865035,4.64836617 C7.08865035,3.21418304 8.08186434,1.99955678 9.72762052,1.99955678 C11.383559,1.99955678 12.377064,3.21388873 12.377064,4.64836617 C12.377064,6.08284361 11.38385,7.30806511 9.72762052,7.30806511 C8.08215527,7.3077708 7.08865035,6.08284361 7.08865035,4.64836617 L7.08865035,4.64836617 Z M11.0108856,4.64836617 C11.0108856,3.86343565 10.5555898,3.18269164 9.72762052,3.18269164 C8.9098336,3.18269164 8.45482871,3.86314134 8.45482871,4.64836617 C8.45482871,5.44418623 8.91012452,6.12463594 9.72762052,6.12463594 C10.5552989,6.12463594 11.0108856,5.44418623 11.0108856,4.64836617 L11.0108856,4.64836617 Z" id="Shape"/><path d="M13.2349984,0.785224828 C13.2349984,0.345522469 13.5870162,0 14.0114741,0 C14.4461143,0 14.7978412,0.345522469 14.7978412,0.785224828 C14.7978412,1.22492719 14.4461143,1.58075058 14.0114741,1.58075058 C13.5870162,1.58075058 13.2349984,1.22492719 13.2349984,0.785224828 L13.2349984,0.785224828 Z M13.3592228,7.18209951 L13.3592228,2.12522807 L14.6733258,2.12522807 L14.6733258,7.18209951 L13.3592228,7.18209951 L13.3592228,7.18209951 Z" id="Shape"/><path d="M19.3510903,7.18209951 L19.3510903,4.12507916 C19.3510903,3.42373329 18.9888901,3.18298595 18.4300254,3.18298595 C17.9127628,3.18298595 17.5191429,3.47612086 17.2916404,3.76925576 L17.2916404,7.18239382 L15.9772465,7.18239382 L15.9772465,2.12522807 L17.2916404,2.12522807 L17.2916404,2.77418637 C17.6128203,2.3971725 18.2333609,1.99926247 19.0409655,1.99926247 C20.1479307,1.99926247 20.6756666,2.6273246 20.6756666,3.61179876 L20.6756666,7.18180519 L19.3510903,7.18209951 L19.3510903,7.18209951 Z" id="Shape"/><polygon id="Shape" points="25.2079691 7.18209951 23.8831019 5.23463598 23.282926 5.88388859 23.282926 7.18239382 21.968823 7.18239382 21.968823 0.198660704 23.282926 0.198660704 23.282926 4.37583311 25.1771312 2.12493376 26.7911767 2.12493376 24.8143491 4.41762544 26.8531434 7.18151088"/><path d="M27.3907707,0.785224828 C27.3907707,0.345522469 27.7427885,0 28.1669555,0 C28.6015957,0 28.9536136,0.345522469 28.9536136,0.785224828 C28.9536136,1.22492719 28.6018867,1.58075058 28.1669555,1.58075058 C27.7427885,1.58075058 27.3907707,1.22492719 27.3907707,0.785224828 L27.3907707,0.785224828 Z M27.5152861,7.18209951 L27.5152861,2.12522807 L28.82968,2.12522807 L28.82968,7.18209951 L27.5152861,7.18209951 L27.5152861,7.18209951 Z" id="Shape"/><path d="M30.4018325,5.91537999 L30.4018325,3.28776108 L29.5741541,3.28776108 L29.5741541,2.12522807 L30.4018325,2.12522807 L30.4018325,0.742843878 L31.7165173,0.742843878 L31.7165173,2.12522807 L32.7303869,2.12522807 L32.7303869,3.28776108 L31.7165173,3.28776108 L31.7165173,5.55926229 C31.7165173,5.88388859 31.8823439,6.12463594 32.1718131,6.12463594 C32.3684776,6.12463594 32.5549598,6.05135221 32.6273999,5.96776756 L32.9066868,6.98314449 C32.7100222,7.16120334 32.3582953,7.3077708 31.8099039,7.3077708 C30.8882571,7.3077708 30.4018325,6.82627611 30.4018325,5.91537999 L30.4018325,5.91537999 Z" id="Shape"/><path d="M33.3099072,4.64836617 C33.3099072,3.18269164 34.3860345,1.99955678 35.8970929,1.99955678 C37.3976781,1.99955678 38.4019472,3.13030408 38.4019472,4.77403746 L38.4019472,5.08836284 L34.6862679,5.08836284 C34.7796544,5.70582974 35.2762614,6.21911014 36.1248863,6.21911014 C36.5493442,6.21911014 37.1288645,6.04105128 37.4494626,5.72702021 L38.0394561,6.60642493 C37.5425582,7.06731777 36.7559001,7.3077708 35.9800062,7.3077708 C34.4584745,7.3077708 33.3099072,6.27120339 33.3099072,4.64836617 L33.3099072,4.64836617 Z M35.8970929,3.08851175 C35.079306,3.08851175 34.7275791,3.66448064 34.6760856,4.16687148 L37.1390468,4.16687148 C37.0977356,3.6853768 36.7666643,3.08851175 35.8970929,3.08851175 L35.8970929,3.08851175 Z" id="Shape"/></g><g id="Group" transform="translate(31.089950, 9.692461)" fill="#F27100"><path d="M35.9557141,30.1104408 L2.2460048,30.1104408 C1.06754504,30.1104408 0.108696421,29.1416005 0.108696421,27.9508606 L0.108696421,2.15958018 C0.108696421,0.970052861 1.06754504,0 2.2460048,0 L35.9557141,0 C37.1353739,0 38.0942225,0.970052861 38.0942225,2.15958018 L38.0942225,27.9496481 C38.0954226,29.1416005 37.136574,30.1104408 35.9557141,30.1104408 L35.9557141,30.1104408 Z M2.35881052,27.8368794 L35.8441084,27.8368794 L35.8441084,2.27356139 L2.35881052,2.27356139 L2.35881052,27.8368794 L2.35881052,27.8368794 Z" id="Shape"/><path d="M23.1474646,19.4568353 L23.1474646,22.9502381 C23.1474646,23.5977484 22.5258331,24.1227895 21.7625944,24.1227895 L21.5225822,24.1227895 L21.5225822,26.2193163 L34.0248162,26.2193163 L34.0248162,19.4556227 L23.1474646,19.4556227 L23.1474646,19.4568353 Z" id="Shape"/><rect id="Rectangle-path" x="23.147" y="11.898" width="10.879" height="6.259"/><path d="M21.5237823,3.8996125 L21.5237823,5.98643872 L21.7637945,5.98643872 C22.5258331,5.98643872 23.1486647,6.5126924 23.1486647,7.15899012 L23.1486647,10.6620935 L34.0272163,10.6620935 L34.0272163,3.8996125 L21.5237823,3.8996125 L21.5237823,3.8996125 Z" id="Shape"/><path d="M16.4403245,24.1240021 C15.6758858,24.1240021 15.0554543,23.598961 15.0554543,22.9514507 L15.0554543,19.4580478 L4.1156996,19.4580478 L4.1156996,26.2217414 L16.6203337,26.2217414 L16.6203337,24.1252147 L16.4403245,24.1240021 L16.4403245,24.1240021 Z" id="Shape"/><rect id="Rectangle-path" x="4.116" y="11.898" width="10.94" height="6.259"/><path d="M15.0554543,7.16020268 C15.0554543,6.51390496 15.6758858,5.98765129 16.4403245,5.98765129 L16.6203337,5.98765129 L16.6203337,3.8996125 L4.1156996,3.8996125 L4.1156996,10.6633061 L15.0554543,10.6633061 L15.0554543,7.16020268 L15.0554543,7.16020268 Z" id="Shape"/><path d="M21.8970012,22.1366063 C21.8970012,22.5112892 21.596986,22.8144307 21.2261672,22.8144307 L16.9767517,22.8144307 C16.6059329,22.8144307 16.3059177,22.5112892 16.3059177,22.1366063 L16.3059177,8.05022618 C16.3059177,7.67554326 16.6059329,7.37240175 16.9767517,7.37240175 L21.2261672,7.37240175 C21.596986,7.37240175 21.8970012,7.67554326 21.8970012,8.05022618 L21.8970012,22.1366063 L21.8970012,22.1366063 Z" id="Shape"/></g></g></g></svg>