<?xml version="1.0" encoding="UTF-8"?>
<svg width="24px" height="24px" viewBox="0 0 24 24" version="1.1" xmlns="http://www.w3.org/2000/svg" xmlns:xlink="http://www.w3.org/1999/xlink">
    <title>brand-elastic</title>
    <g id="brand-elastic" stroke="none" stroke-width="1" fill="none" fill-rule="evenodd" stroke-linejoin="round">
        <path d="M14,2 C16.7614237,2 19,4.23857625 19,7 C19,7.71207975 18.7682902,8.38687359 18.5,9 C20.3944402,9.04217125 22,10.5945217 22,12.5 C22,14.3685634 20.3436872,15.9003053 18.5,16 C18.8333333,16.6248115 19,17.1248115 19,17.5 C19,18.8807119 17.8807119,20 16.5,20 C15.7131083,20 14.9582664,19.5683011 14.5,19 C13.7144715,20.7290854 12.0241275,22 10,22 C7.23857625,22 5,19.7614237 5,17 C5,16.2879202 5.14885487,15.6106074 5.41714511,14.997481 C3.52239921,14.9549986 2,13.405287 2,11.5 C2,9.6314366 3.4642776,8.10487355 5.3079648,8.00517886 L5.50100674,8 C5.1862608,7.58297463 5,7.06323916 5,6.5 C5,5.11928813 6.11928813,4 7.5,4 C8.28689166,4 9.04173362,4.43169885 9.5,5 C10.2855285,3.27091465 11.9758725,2 14,2 Z" id="Path" stroke="#000000" stroke-width="2"></path>
        <line x1="8.5" y1="9" x2="5.50100674" y2="8" id="Path-1804" stroke="#000000" stroke-width="2" stroke-linecap="round"></line>
        <polyline id="Path-1805" stroke="#000000" stroke-width="2" stroke-linecap="round" points="9.5 5 8.5 9 9.5 11 14.5 13 18.5 9"></polyline>
        <polyline id="Path-1806" stroke="#000000" stroke-width="2" stroke-linecap="round" points="18.4989985 15.9999999 15.5 15.5 14.5 13"></polyline>
        <line x1="14.5" y1="19" x2="15.5" y2="15.5" id="Path-1807" stroke="#000000" stroke-width="2" stroke-linecap="round"></line>
        <line x1="5.41714511" y1="14.997481" x2="9.5" y2="11" id="Path-1808" stroke="#000000" stroke-width="2" stroke-linecap="round"></line>
    </g>
</svg>