<?xml version="1.0" encoding="UTF-8"?>
<svg width="24px" height="24px" viewBox="0 0 24 24" version="1.1" xmlns="http://www.w3.org/2000/svg" xmlns:xlink="http://www.w3.org/1999/xlink">
    <title>brand-google-big-query</title>
    <g id="brand-google-big-query" stroke="none" stroke-width="1" fill="none" fill-rule="evenodd" stroke-linecap="round" stroke-linejoin="round">
        <path d="M17.7292961,19.8748833 C17.3282252,20.5762612 16.5847364,21.005916 15.7825723,21 L8.49935156,21 C7.69003837,20.9996822 6.94443499,20.5565637 6.55151345,19.8422586 L2.2803101,13.0923052 C1.90660055,12.4129263 1.90660055,11.5869493 2.2803101,10.9075703 L6.55151345,4.157617 C6.94424115,3.44366384 7.68932311,3.00060173 8.49823723,3 L15.7825723,3 C16.5918855,3.00019338 17.3374889,3.4433119 17.7304104,4.157617 L21.7107752,10.9075703 C22.0964455,11.6070304 22.0964455,12.4580947 21.7107752,13.1575548 L17.7292961,19.9075081 L17.7292961,19.8748833 Z" id="Path" stroke="#000000" stroke-width="2"></path>
        <circle id="Oval" stroke="#000000" stroke-width="2" cx="11.5" cy="11.5" r="3.5"></circle>
        <line x1="14" y1="14" x2="16" y2="16" id="Path-1803" stroke="#000000" stroke-width="2"></line>
    </g>
</svg>