<?xml version="1.0" encoding="UTF-8"?>
<svg width="24px" height="24px" viewBox="0 0 24 24" version="1.1" xmlns="http://www.w3.org/2000/svg" xmlns:xlink="http://www.w3.org/1999/xlink">
    <title>brand-mysql</title>
    <g id="brand-mysql" stroke="none" stroke-width="1" fill="none" fill-rule="evenodd" stroke-linecap="round" stroke-linejoin="round">
        <path d="M13,21 C11.5732025,19.9743182 9.40954198,17.1455251 9,15 C8.51441415,15.7709324 7.49891716,17 7,17 C5.50100334,16.1124173 6.42624017,13.0272587 7,11 C5.404175,9.56688257 4.53242709,8.54195935 4.5,7 C1.15,3.560422 4.055672,1.73 7,4 C7,4 8,4 8,4 C16.4815918,4.49930162 14.4210357,12.0692044 17,15.5 C19.2949255,16.0221684 20.6651679,17.7539119 22,19 C19.9139247,18.800353 19.2160293,18.6556309 18.5,19 C18.9780302,20.6402163 20.6226769,21.2007541 22,22" id="Path-1799" stroke="#000000" stroke-width="2"></path>
        <line x1="9" y1="7" x2="9.01" y2="7" id="Path" stroke="#000000" stroke-width="2"></line>
    </g>
</svg>