<?xml version="1.0" encoding="UTF-8"?>
<svg width="34px" height="34px" viewBox="0 0 34 34" version="1.1" xmlns="http://www.w3.org/2000/svg" xmlns:xlink="http://www.w3.org/1999/xlink">
    <title>favicon-components</title>
    <g id="favicon-components" stroke="none" stroke-width="1" fill="none" fill-rule="evenodd">
        <path d="M33.261982,7.54464507 C32.4255263,4.1927534 29.808495,1.57551777 26.4566686,0.738800397 C20.1916945,-0.246266799 13.8112651,-0.246266799 7.54629103,0.738800397 C4.19364522,1.57483248 1.57566969,4.1921951 0.738852615,7.54464507 C-0.246284205,13.8096137 -0.246284205,20.190054 0.738852615,26.4550226 C1.57548903,29.8071934 4.19299244,32.4244925 7.54522853,33.2608673 C13.8102026,34.2459345 20.190632,34.2459345 26.4556061,33.2608673 C29.8078422,32.4244925 32.4253456,29.8071934 33.261982,26.4550226 C34.246006,20.1899671 34.246006,13.8097006 33.261982,7.54464507 Z" id="Shape" fill="#0054a6" fill-rule="nonzero"></path>
        <path d="M16.0323111,7.60134715 C16.2143153,7.23333869 16.5889906,7 16.9996667,7 C17.4110094,7 17.7856847,7.23267201 17.9676889,7.60134715 L20.4744132,12.6781305 L26.0765419,13.4934825 C26.4825512,13.5528172 26.820559,13.8374904 26.9472285,14.2281661 C27.0738981,14.6188417 26.9685624,15.0475182 26.6738889,15.3341915 L22.6197958,19.2856156 L23.5778178,24.8657438 C23.6471527,25.2704198 23.4811489,25.6797625 23.1484746,25.9211014 C22.816467,26.1624403 22.3757902,26.194441 22.0117818,26.0031033 L16.9996667,23.3683761 L11.9895516,26.0031033 C11.6255432,26.194441 11.1855331,26.1624403 10.8528588,25.9211014 C10.5201845,25.6797625 10.3541806,25.2704198 10.4235156,24.8657438 L11.3808709,19.2856156 L7.32611107,15.3341915 C7.03143764,15.0475182 6.92610188,14.6188417 7.05277146,14.2281661 C7.17944104,13.8374904 7.5174488,13.5528172 7.92345813,13.4934825 L13.5262535,12.6781305 L16.0323111,7.60134715 Z" id="Fill-1" fill="#FFFFFF" fill-rule="nonzero"></path>
    </g>
</svg>
