<?xml version="1.0" encoding="UTF-8"?>
<svg width="34px" height="34px" viewBox="0 0 34 34" version="1.1" xmlns="http://www.w3.org/2000/svg" xmlns:xlink="http://www.w3.org/1999/xlink">
    <title>favicon</title>
    <g id="favicon" stroke="none" stroke-width="1" fill="none" fill-rule="evenodd">
        <path d="M32.9605263,7.48684211 C32.1184211,4.17105263 29.5394737,1.59210526 26.2236842,0.75 C20.0131579,-0.25 13.6973684,-0.25 7.48684211,0.75 C4.17105263,1.59210526 1.59210526,4.17105263 0.75,7.48684211 C-0.25,13.6973684 -0.25,20.0131579 0.75,26.2236842 C1.59210526,29.5394737 4.17105263,32.1184211 7.48684211,32.9605263 C13.6973684,33.9605263 20.0131579,33.9605263 26.2236842,32.9605263 C29.5394737,32.1184211 32.1184211,29.5394737 32.9605263,26.2236842 C33.9605263,20.0131579 33.9605263,13.6973684 32.9605263,7.48684211 Z" id="Path" fill="#0054a6" fill-rule="nonzero"></path>
        <path d="M16.4868421,18.0657895 C15.0131579,20.3815789 13.0131579,22.3815789 10.6447368,23.8552632 C9.87868279,24.3091613 8.93122413,24.3301174 8.14585023,23.910534 C7.36047634,23.4909507 6.85119186,22.6917346 6.80263158,21.8026316 C6.80263158,20.9078947 7.27631579,20.0657895 8.06578947,19.6447368 C9.27631579,18.9078947 10.3815789,17.9605263 11.2763158,16.8552632 C10.3289474,15.75 9.27631579,14.8552632 8.06578947,14.0657895 C7.50592728,13.7461531 7.0966675,13.2164246 6.92871337,12.5940063 C6.76075924,11.9715881 6.8479827,11.3078879 7.17105263,10.75 C7.17105263,10.75 7.17105263,10.6973684 7.22368421,10.6973684 C7.96052632,9.53947368 9.48684211,9.11842105 10.6447368,9.85526316 C13.0131579,11.3289474 14.9605263,13.2763158 16.4868421,15.5921053 C16.9605263,16.3289474 16.9605263,17.3289474 16.4868421,18.0657895 Z M24.8552632,23.1710526 L18.8552632,23.1710526 C17.75,23.1710526 16.8552632,22.6447368 16.8552632,21.5921053 C16.8552632,20.5394737 17.75,20.0131579 18.8552632,20.0131579 L24.8552632,20.0131579 C25.9605263,20.0131579 26.8552632,20.5394737 26.8552632,21.5921053 C26.8552632,22.6447368 25.9605263,23.1710526 24.8552632,23.1710526 L24.8552632,23.1710526 Z" id="Shape" fill="#FFFFFF" fill-rule="nonzero"></path>
    </g>
</svg>
