<?xml version="1.0" encoding="UTF-8"?>
<svg width="34px" height="34px" viewBox="0 0 34 34" version="1.1" xmlns="http://www.w3.org/2000/svg" xmlns:xlink="http://www.w3.org/1999/xlink">
    <title>favicon-icons</title>
    <g id="favicon-icons" stroke="none" stroke-width="1" fill="none" fill-rule="evenodd">
        <path d="M7.55113193,0.756440281 C13.8149883,-0.25214676 20.1850117,-0.25214676 26.4488681,0.756440281 C29.7931304,1.60577674 32.3942233,4.20686963 33.2435597,7.55113193 C34.2521468,13.8149883 34.2521468,20.1850117 33.2435597,26.4488681 C32.3942233,29.7931304 29.7931304,32.3942233 26.4488681,33.2435597 C20.1850117,34.2521468 13.8149883,34.2521468 7.55113193,33.2435597 C4.20686963,32.3942233 1.60577674,29.7931304 0.756440281,26.4488681 C-0.25214676,20.1850117 -0.25214676,13.8149883 0.756440281,7.55113193 C1.60577674,4.20686963 4.20686963,1.60577674 7.55113193,0.756440281 Z" id="Path" fill="#0054a6"></path>
        <path d="M18.845163,12 L10.5428298,12.9652746 L8.08369485,22.4605641 C7.89665986,23.1911386 8.02589557,23.961022 8.44338922,24.6033367 L14.0149815,19.4072843 C13.5515396,18.5047637 13.8530236,17.4221209 14.7287937,16.8439525 C15.6045637,16.2657841 16.7996633,16.3604081 17.558385,17.06799 C18.3171068,17.7755719 18.4185696,18.8901187 17.7986146,19.7068595 C17.1786596,20.5236004 16.0177698,20.8047636 15.0500204,20.3725588 L9.47842811,25.5754572 C10.1671,25.9713146 10.9957969,26.0968397 11.7834083,25.9245991 L21.9649611,23.6312162 L23,15.8884819 L18.845163,12 Z M20.5935162,7 L19,9.64309484 L25.3516209,16 L28,14.4126456 L20.5935162,7 Z" id="Shape" fill="#FFFFFF"></path>
    </g>
</svg>
