<svg width="1400" height="700" xmlns="http://www.w3.org/2000/svg"><g fill="#FFF" fill-rule="evenodd"><path d="M0 660l700 37.746L1400 660v40H0z"/><g opacity=".04" fill-rule="nonzero"><path d="M519.874 296.218l20.512 2.518 1.874-15.26-20.513-2.519-1.873 15.26zm16.817-10.844l-5.437 2.947-4.563-4.175 10 1.228zm-12.832-.414l7.02 6.413 8.364-4.524-1.109 9.029-15.384-1.889 1.109-9.03z"/><path d="M513.961 280.776l1.437-11.7.575-.446 11.795 1.449.45.571-1.03 8.393 2.564.315 1.155-9.41-1.689-2.144-.41-3.02-.476-8.836-9.103-1.117-2.584 8.331-1.129 2.83-.256-.031-2.301 1.783-1.687 13.734 1.802 2.287.256.031.457 2.638.446 9.09 3.076.379.313-2.544-.898-.11-.439-7.024-.263-2.098 2.693.33.312-2.543-4.615-.567-.45-.571zm5.17-16.663l1.965-6.471 4.744.582.454 6.897.248 2.225-8.333-1.023.922-2.21zm495.31 19.819l-9.862-.863-.468-.555.18-2.042 10.374.907.223-2.552-10.375-.908 2.234-25.527 25.744 2.252-1.34 15.316 2.562.225 1.831-20.933-1.87-2.222-26.77-2.342-2.227 1.863-3.217 36.76 1.871 2.221 10.887.953.223-2.553zm-7.292-36.135l.557-.466 24.72 2.163.467.555-.178 2.042-25.745-2.252.179-2.042z"/><path d="M1038.485 273.174l-20.493-1.793-1.34 15.317 20.493 1.793 1.34-15.317zm-5.475 2.094l-5.308 3.136-4.554-4 9.862.864zm1.797 10.446l-15.37-1.345.792-9.062 7.205 6.16 8.165-4.815-.792 9.062zM94.427 94.17l-2.56-20.856-2.283-1.785-18.93 2.324-1.783 2.284 4.497 36.625 2.282 1.786 6.988-.858-.312-2.544-5.972.733-.57-.446-.25-2.035 6.48-.795-.313-2.544-6.48.796L72.1 81.42l17.913-2.2 1.874 15.26 2.54-.311zm-22.64-15.292l-.25-2.035.445-.571 16.897-2.075.571.446.25 2.035-17.914 2.2z"/><path d="M85.052 113.393l20.327-2.496-1.874-15.26-20.327 2.496 1.874 15.26zM98.609 98.82l-4.518 4.169-5.265-2.968 9.783-1.201zm-12.437 2.689l8.294 4.532 6.951-6.404 1.109 9.029-15.246 1.872-1.108-9.03zm25.826 365.338l20.348-2.498-1.874-15.26-20.347 2.498 1.873 15.26zm13.572-14.575l-4.522 4.17-5.397-2.952 9.92-1.218zm-12.45 2.69l8.302 4.532 6.96-6.405 1.108 9.029-15.26 1.874-1.11-9.03z"/><path d="M109.143 464.616l-15.26 1.874-3.436-27.978 35.608-4.372 1.561 12.717 2.543-.312-2.81-22.89-40.695 4.996 4.997 40.695 17.804-2.187-.312-2.543zM89.51 430.882l35.608-4.372.624 5.087-35.607 4.372-.625-5.087z"/><path d="M92.21 431.842l2.544-.312.312 2.543-2.544.313zm5.087-.625l2.543-.312.313 2.544-2.544.312zm5.086-.624l2.544-.313.313 2.544-2.544.313zM646.26 582.798l6.526-5.495-5.472-6.545-1.944 1.637 2.678 3.203-12.892-1.128-.224 2.562 12.892 1.127-3.194 2.69zm-13.208-13.675l-17.87-1.563 1.681-19.212 16.839 13.347 18.911-10.349-1.468 16.779 2.553.223 1.793-20.493-40.844-3.573-2.241 25.616 20.422 1.787.224-2.562zm.919-10.502l-14.188-11.309 30.123 2.636-15.935 8.673zm507.202-33.435l17.692 1.548 12.02 11.34 4.262.373 3.573-40.844-37.156 23.115-.39 4.468zm30.84 10.415l-10.948-10.218 14.425-20.603-2.703 30.889-.774-.068zm-27.978-13.38l28.485-17.7-13.82 19.626-14.72-1.288.055-.638zm74.326-456.785l21.756-10.024-7.042 20.55-23.145-2.842-.31 2.526 25.18 3.092 8.412-24.356.341-2.78-40.058-4.918 14.866 18.752zm.785-3.238l-9.73-12.222 28.74 3.529-19.01 8.693z"/><path d="M1208.628 62.702l2.544.312-.31 2.527-2.544-.313zm-5.086-.624l2.543.312-.31 2.526-2.544-.312zm1.922 5.365l12.718 1.561-.31 2.526-12.718-1.561zm-5.087-.625l2.544.313-.31 2.526-2.544-.313zm4.467 5.678l2.543.312-.31 2.526-2.544-.312zm-3.226-15.784l2.544.312-.31 2.527-2.544-.313zm5.087.625l2.544.312-.31 2.526-2.544-.312zM378.723 235.065c.245-2.808 2.744-4.904 5.552-4.659 2.808.246 4.904 2.744 4.659 5.552l2.553.224c.368-4.212-2.777-7.96-6.989-8.328l-16.593-1.452.224-2.553 2.552.223.224-2.552-5.106-.447-.446 5.105-1.277-.111c-4.212-.369-7.96 2.776-8.328 6.988l-1.117 12.764 14.04 1.228-1.34 15.317 2.553.223 1.34-15.317 3.83.335-.67 7.659c-.37 4.212 2.776 7.96 6.988 8.328 4.212.369 7.96-2.776 8.328-6.988l.67-7.658 5.105.446 1.117-12.764-17.87-1.563zm-21.316 8.424l.894-10.21c.245-2.809 2.744-4.905 5.552-4.66l1.276.112-.781 8.935 2.552.223.782-8.934 10.85.949c-1.4 1.292-2.194 3.023-2.362 4.938l-.893 10.21-17.87-1.563zm29.74 12.891c-.246 2.808-2.744 4.905-5.552 4.66-2.808-.246-4.905-2.745-4.659-5.553l.67-7.658 10.211.893-.67 7.658zm6.669-17.422l-.67 7.658-3.83-.335-11.487-1.005.67-7.658 15.317 1.34zM232.686 517.68l-11.318 1.39-4.366-1.917-3.773 2.916-11.064 1.358.906 7.376-4.793 4.074 2.905 23.653c.265 2.162 2.121 3.613 4.283 3.347l33.064-4.06c2.162-.265 3.613-2.121 3.347-4.283l-2.873-23.4-5.366-2.697-.952-7.757zm-2.231 2.855l1.592 12.972-11.798 10.097-13.604-6.72-1.624-13.226 25.434-3.123zm-27.01 11.32l.438 3.56-2.89-1.452 2.453-2.108zm34.773 21.419l-33.064 4.06c-.763.093-1.334-.353-1.428-1.116l-2.358-19.203 19.24 9.514 16.384-13.758 2.342 19.075c.078.636-.353 1.334-1.116 1.428zm-1.601-23.556l-2.23 1.823-.39-3.179 2.62 1.356zM799.563 154H797v41h41v-2.563h-38.438z"/><path d="M805.584 188.21l24.729-24.729v3.331h2.562v-7.687h-7.688v2.563h3.332l-24.728 24.728zM1023.438 476h-7.688v38.438h-2.563v-30.75h-7.687v30.75h-2.563v-23.063h-7.687v23.063h-2.563v-15.375h-5.125V476H985v41h41v-2.563h-2.563V476zm-35.875 38.438v-12.813h2.562v12.813h-2.563zm10.25 0v-20.5h2.562v20.5h-2.563zm10.25 0V486.25h2.562v28.188h-2.563zm10.25 0v-35.875h2.562v35.875h-2.563zm245.197-222.32l4.685-38.151-2.544-.313-4.997 40.695 40.695 4.997.312-2.544z"/><path d="M1283.594 275.737l-.562 4.578 3.052.375 13.707-10.71-.406 3.307 2.543.312.937-7.63-7.63-.937-.312 2.544 3.306.406-12.28 9.593.563-4.578-3.052-.375-14.707 11.49 1.562 2zM439.5 34c-11.275 0-20.5 9.225-20.5 20.5S428.225 75 439.5 75 460 65.775 460 54.5 450.775 34 439.5 34zm1.281 2.69c3.844.257 7.56 1.794 10.506 4.357l-10.506 10.378V36.691zM439.5 72.439c-9.866 0-17.938-8.072-17.938-17.938 0-9.353 7.304-17.169 16.657-17.938v21.013l14.862-14.862c6.535 7.43 5.638 18.834-1.794 25.24-3.33 2.947-7.43 4.484-11.787 4.484zM196.002 349.847c11.19 1.374 21.471-6.658 22.845-17.849 1.374-11.19-6.658-21.471-17.849-22.845-11.19-1.374-21.471 6.658-22.845 17.849-1.374 11.19 6.658 21.471 17.849 22.845zm20.302-18.161c-.531 4.324-2.557 8.206-5.76 11.169l-6.36-8.139c2.839-3.137 2.653-7.936-.484-10.774-.812-.745-1.894-1.394-3.023-1.662l1.25-10.173c9.22 1.648 15.517 10.296 14.377 19.579zm-17.18-7.273c2.798.344 4.806 2.914 4.463 5.712-.344 2.797-2.914 4.805-5.712 4.462-2.797-.344-4.805-2.914-4.462-5.712.344-2.797 2.914-4.805 5.712-4.462zm.275-12.746l-1.25 10.174c-4.274.12-7.556 3.72-7.308 8.01.12 4.274 3.72 7.556 8.01 7.308 1.175-.114 2.367-.355 3.335-.881l6.358 8.139c-8.172 5.58-19.38 3.3-24.833-4.857-5.453-8.156-3.428-19.397 4.745-24.977 3.221-2.057 7.096-3.13 10.943-2.916zm474.315-38.382l1.272.156-3.435 27.977 17.804 2.186-.313 2.544-1.271-.156-.313 2.543 4.96.609.312-2.544-1.144-.14.312-2.543 17.804 2.186 3.435-27.978 1.272.156.937-7.63-40.695-4.997-.937 7.63zm33.757 29.962l-33.065-4.06 3.123-25.434 33.065 4.06-3.123 25.434zm-30.589-34.737l35.608 4.372-.312 2.544-35.608-4.372.312-2.544z"/><path d="M691.25 298.674c5.596.687 10.737-3.33 11.424-8.925.687-5.595-3.33-10.736-8.925-11.423-5.595-.687-10.736 3.33-11.423 8.925-.687 5.595 3.33 10.736 8.925 11.423zm8.88-9.237c-.187 1.526-.899 3.117-1.945 4.28l-4.35-5.57.858-6.994c3.61 1.089 5.89 4.596 5.437 8.284zm-7.98-8.596l-.984 8.012 5.02 6.425c-3.73 1.994-8.342.654-10.464-3.092s-.654-8.342 3.092-10.464c1.096-.51 2.175-.895 3.336-.881zM220.714 100.285l1.272.156-3.435 27.977 17.804 2.186-.313 2.544-1.271-.156-.313 2.543 4.96.609.312-2.544-1.144-.14.312-2.543 17.804 2.186 3.435-27.978 1.272.156.937-7.63-40.695-4.997-.937 7.63zm33.757 29.962l-33.065-4.06 3.123-25.434 33.065 4.06-3.123 25.434zM223.882 95.51l35.608 4.372-.312 2.544-35.608-4.372.312-2.544z"/><path d="M234.195 116.656l4.462 5.711 12.85-10.04-.25 2.035 2.544.312.78-6.358-6.358-.781-.312 2.543 2.035.25-10.852 8.478-4.462-5.711-10.995 8.59 1.562 1.999zM-15 326.688h1.281v28.187H4.22v2.563H2.937V360h4.997v-2.563H6.781v-2.562H24.72v-28.188H26V319h-41v7.688zm37.156 25.625h-33.312v-25.625h33.312v25.625zm-34.593-30.75h35.874v2.562h-35.874v-2.563z"/><path d="M9.344 339.5H1.656v8.969h7.688V339.5zm-2.563 6.406H4.22v-3.844h2.56v3.844zm12.813-15.375h-7.688v17.938h7.688V330.53zm-2.563 15.375H14.47v-12.812h2.562v12.812zM876.438 541h-2.563v38.438h-2.563V551.25h-2.562v28.188h-2.563v-20.5h-2.562v20.5h-2.563v-12.813H858.5v12.813h-2.563v-7.688h-2.562v7.688h-2.563v-5.125h-2.562v5.125h-2.563v-2.563h-2.562v2.563h-2.563V541H838v41h41v-2.563h-2.563zm128.427-491.969l-7.63.937.625 5.087-2.544.312-.937-7.63-7.63.937.937 7.63-2.543.312-2.186-17.804-7.63.937 2.185 17.804-2.543.312-4.684-38.15-5.087.624-2.544.312 4.997 40.695 40.695-4.997-.313-2.544-2.543.313-.625-5.087zm-34.983 9.459l-4.372-35.608 2.544-.312 4.372 35.608-2.544.312zm10.174-1.25l-1.874-15.26 2.543-.312 1.874 15.26-2.543.313zm10.173-1.248l-.624-5.087 2.543-.313.625 5.087-2.544.313zm10.174-1.25l-.312-2.543 2.543-.312.312 2.543-2.543.312zM728.388 664.056l-15.572-8.028-2.162.265-13.168 11.557c-.924.888-1.419 2.11-1.263 3.382l1.827 14.879c.156 1.272.933 2.338 2.044 2.976l15.557 7.9 2.162-.265 13.167-11.556c.924-.888 1.42-2.11 1.263-3.382l-1.811-14.752c-.156-1.272-.933-2.338-2.044-2.976zm-16.659-5.313l.636-.078 14.334 7.405-12.467 10.954-14.97-7.327 12.467-10.954zm-11.135 27.056l-1.656-13.48 14.288 7.023 1.78 14.498-13.779-7.086c-.285-.224-.587-.574-.633-.955zm28.61-2.48l-11.655 10.208-1.78-14.497 12.117-10.653 1.702 13.862c.174.365-.033.778-.383 1.08z"/><path d="M703.037 680.465l2.544-.313.313 2.544-2.544.313zm5.398 1.918l2.544-.312.313 2.544-2.544.312zm12.562-2.833l2.544-.312.312 2.544-2.544.312zm-14.435-12.427l2.543-.313.313 2.544-2.544.313zm5.086-.625l2.544-.312.313 2.544-2.544.312zm5.087-.624l2.544-.313.312 2.544-2.544.313zm-303.198-58.391l-2.007 1.69 6.502 7.77 13.196-11.16-1.554-1.998-11.332 9.58zm-9.194-27.721l2.533.311-.312 2.544-2.533-.31zm-1.249 10.174l2.533.311-.312 2.544-2.533-.311zm-1.249 10.174l2.533.31-.313 2.545-2.533-.311z"/><path d="M408.506 608.673l.313-2.544-10.891-1.337-.444-.57.812-6.614.569-.446 27.86 3.42 2.276-1.785 1.061-8.648-.666-.856.854-.67 1.062-8.647-1.777-2.284-28.873-3.545-2.276 1.786-1.061 8.647.666.857-.854.67-1.062 8.647.667.856-.854.67-1.062 8.648 1.777 2.283 11.903 1.462zm18.087-11.205l-.57.447-26.846-3.296-.444-.571.812-6.613.569-.447 26.847 3.297.444.57-.812 6.613zm-25.799-20.207l.57-.446 26.846 3.296.444.571-.812 6.613-.569.446-26.847-3.296-.444-.57.812-6.614zm791.5-205.094l-1.372 1.16c-2.32 1.847-5.076 2.886-7.892 3.152l-1.283.144-.266 3.05c-.556 6.356 2.148 11.715 8.125 15.952l.597.437.663-.326c6.622-3.135 10.217-7.944 10.773-14.299l.267-3.05-.997-.215c-2.98-.773-5.629-2.414-7.582-4.762l-1.033-1.243zm6.71 8.912c-.467 5.338-3.342 9.185-8.66 11.921-4.888-3.63-6.926-7.906-6.459-13.244l.078-.89c2.954-.382 5.71-1.421 8.03-3.267 1.975 2.093 4.384 3.585 7.1 4.463l-.089 1.017z"/><path d="M1170.112 384.827l8.315.727.222-2.542-8.315-.727c-3.78-.331-6.651-3.784-6.318-7.597.334-3.813 3.762-6.715 7.541-6.385l.378.034 1.134.099.33-.868c1.879-4.062 6.615-5.953 10.639-4.064 1.949.939 3.464 2.48 4.18 4.464l.426.934 1.03-.166c.389-.094.767-.061 1.145-.028 2.394.21 4.413 1.795 5.22 4.17l2.358-.818c-.982-3.287-3.954-5.597-7.356-5.894l-.882-.077c-2.579-5.349-8.87-7.436-14.177-4.827-1.864.99-3.394 2.52-4.443 4.35-5.314-.208-9.724 3.76-10.065 9.11-.33 5.222 3.598 9.664 8.638 10.105zM712.122 49.346c.486-5.552-3.653-10.492-9.196-10.977-5.544-.485-10.477 3.661-10.962 9.213-.486 5.552 3.652 10.492 9.196 10.977 5.543.485 10.476-3.661 10.962-9.213zm-9.47 6.673l.54-6.183 6.174.54c-.78 3.11-3.52 5.414-6.715 5.643zm6.935-8.167l-6.174-.54.541-6.183c3.106.78 5.405 3.525 5.633 6.723zm-15.104-.05c.32-3.659 3.242-6.582 6.951-6.893l-1.302 14.89c-3.599-.951-5.969-4.337-5.649-7.996z"/><path d="M681.129 46.634l8.315.728.22-2.524-8.315-.728c-3.78-.33-6.653-3.76-6.322-7.546.331-3.785 3.757-6.665 7.537-6.334l.504.044 1.008.088.329-.86c1.876-4.033 6.61-5.907 10.636-4.03 1.95.934 3.466 2.466 4.182 4.436l.427.927 1.03-.164c.389-.093.766-.06 1.144-.027 3.276.286 5.69 3.168 5.414 6.322-.033.379-.055.631-.214.999l2.486.599c1.154-4.477-1.61-9.169-6.216-10.208-.367-.159-.745-.192-1.249-.236l-.882-.077c-2.582-5.312-8.875-7.388-14.18-4.8-1.863.98-3.392 2.5-4.44 4.315-5.313-.21-9.72 3.727-10.058 9.038-.326 5.185 3.604 9.597 8.644 10.038zM93.635 606.894c-6.917-8.852-19.888-10.445-28.74-3.529-8.853 6.917-10.446 19.888-3.53 28.74l2-1.561a17.864 17.864 0 0 1 3.091-25.18 17.864 17.864 0 0 1 25.18 3.092 17.864 17.864 0 0 1-3.092 25.18l1.562 1.999c8.852-6.917 10.445-19.888 3.529-28.74z"/><path d="M89.637 610.018c-5.243-6.711-14.908-7.898-21.62-2.655-6.71 5.243-7.897 14.908-2.654 21.62l2-1.563c-4.351-5.568-3.352-13.707 2.217-18.058a12.76 12.76 0 0 1 17.93 2.202 12.76 12.76 0 0 1-2.201 17.93l1.562 2c6.71-5.243 8.009-14.765 2.893-21.46l-.127-.016z"/><path d="M85.639 613.141c-3.459-4.426-9.944-5.222-14.37-1.764-4.427 3.458-5.223 9.944-1.765 14.37l2-1.562c-2.567-3.284-1.973-8.116 1.326-10.81 3.3-2.692 8.117-1.972 10.81 1.328 2.566 3.284 1.972 8.117-1.328 10.81l1.562 1.999c4.427-3.459 5.207-9.817 1.765-14.37z"/><path d="M78.707 619.132c.016-.127-.096-.27-.208-.413a1.239 1.239 0 0 0-1.78-.218c-.143.111-.285.223-.301.35-.143.111-.174.366-.19.493-.047.381.05.651.273.937.111.143.223.285.35.301.111.143.366.174.493.19.636.078 1.334-.353 1.428-1.116.015-.127.047-.381-.065-.524zm-2.947 4.028l2.544.312-2.03 16.531-2.544-.312zM109.181 240.628l28.15-1.476-.27-5.117 2.56-.135.409 7.805-17.779 3.498.396 7.55-2.56.133.805 15.354 7.677-.402-.804-15.354-2.56.134-.274-5.246 17.779-3.498-.664-12.667-5.118.269-.268-5.118-28.15 1.475.269 5.118-2.56.134.135 2.559 2.559-.134.268 5.118zm16.695 24.785l-2.559.134-.536-10.236 2.559-.134.536 10.236zm-14.672-35.155l23.03-1.207.403 7.677-23.03 1.207-.403-7.677zM1158.56 171.174l-7.99.418 1.152 21.97-1.998.105-1.465-27.962-7.989.419 1.465 27.961-1.997.105-.628-11.983-7.989.418.628 11.984-1.997.105-1.57-29.96-1.997.105 1.674 31.956 31.956-1.674-.104-1.998-1.152-21.97zm-24.814 23.33l-.523-9.986 3.995-.21.523 9.987-3.995.21zm13.175-16.111l-4.204-3.786-.167-3.195 4.204 3.785.167 3.196zm.147 2.796l.167 3.195-4.204-3.785-.167-3.195 4.204 3.785zm-3.89 2.206l4.204 3.786.167 3.195-4.204-3.785-.167-3.196zm3.188-15.588l.241 4.594-4.204-3.785-.031-.6 3.994-.209zm-2.633 26.174l-.241-4.594 4.204 3.785.031.6-3.994.209zm9.986-.524l-1.047-19.972 3.995-.21 1.047 19.973-3.995.21zM563.505 138.691l13.989-1.717-1.406-11.446-25.434 3.123 3.123 25.434 11.446-1.405-1.718-13.989zm-1.138 11.758l-6.359.78-2.498-20.347 20.347-2.498.781 6.358-13.989 1.718 1.718 13.989zm21.128 3.86l-13.989 1.717 1.406 11.446 25.434-3.123-3.123-25.434-11.446 1.405 1.718 13.989zm1.138-11.758l6.359-.78 2.498 20.347-20.347 2.498-.781-6.358 13.989-1.718-1.718-13.989zm-8.098-2.878l2.544-.312.312 2.544-2.544.312z"/><path d="M577.16 144.76l2.543-.312.312 2.544-2.543.312zm.624 5.087l2.544-.312.312 2.543-2.544.313zm-6.336-9.549l2.544-.312.312 2.543-2.544.313zm-5.087.624l2.544-.312.312 2.544-2.544.312zm.625 5.088l2.544-.313.312 2.544-2.544.312zm.624 5.086l2.544-.312.312 2.544-2.543.312zm5.087-.625l2.544-.312.312 2.544-2.544.312zM599 429h-1v2h1v14h-8v-14h1.1v-2H591c-1.1 0-2 .9-2 2v14c0 1.1.9 2 2 2h8c1.1 0 2-.9 2-2v-14c0-1.1-.9-2-2-2z"/><path d="M594.6 441.1c-.1 0-.2.1-.3.2-.3.3-.4.7-.2 1.1.2.5.8.8 1.3.5.2-.1.4-.3.5-.5.2-.4.1-.8-.2-1.1-.3-.3-.7-.4-1.1-.2zM571 441h9v2h-2v2h9v-2h-5v-2h5.2v-2H571v-2h16v-2h-16v-16h28v8.2h2V419c0-1.1-.9-2-2-2h-28c-1.1 0-2 .9-2 2v20c0 1.1.9 2 2 2z"/><path d="M581 428v-6h-6v6h6zm-4-4h2v2h-2v-2zm19 0h-13v2h11v6h2zm-2 10h2v2h-2zM902.338 352.125l5.955.73.731-5.954-5.955-.732-.731 5.956zm2.473-3.727l1.985.244-.244 1.985-1.985-.244.244-1.985zm-5.641 29.532l5.955.732.73-5.955-5.954-.731-.732 5.955zm2.472-3.726l1.985.244-.244 1.985-1.985-.244.244-1.985zm26.502-18.911l5.955.731.732-5.955-5.956-.731-.73 5.955zm2.473-3.726l1.985.244-.244 1.985-1.985-.244.244-1.985zm-5.641 29.533l5.955.73.731-5.955-5.955-.73-.731 5.954zm2.472-3.727l1.985.244-.244 1.985-1.985-.244.244-1.985zm2.316-18.858l1.985.243-.244 1.985-1.985-.243zm-.488 3.97l1.985.244-.243 1.985-1.986-.244zm-.487 3.97l1.985.244-.244 1.985-1.985-.244zm-.488 3.97l1.985.244-.243 1.985-1.986-.244zm-24.344-15.079l1.986.244-.244 1.985-1.985-.244zm-.487 3.97l1.985.244-.244 1.985-1.985-.244zm-.488 3.97l1.986.244-.244 1.985-1.985-.244zm-.487 3.971l1.985.243-.244 1.985-1.985-.243zm18.005 9.263l1.985.244-.243 1.985-1.985-.244zm-3.97-.488l1.985.244-.244 1.985-1.985-.243zm-3.97-.487l1.985.244-.244 1.985-1.985-.244zm-3.97-.488l1.985.244-.244 1.985-1.985-.243zm15.079-24.343l1.985.243-.244 1.986-1.985-.244zm-3.97-.488l1.985.244-.244 1.985-1.985-.244zm-3.97-.487l1.985.243-.244 1.986-1.985-.244zm-3.971-.488l1.985.244-.243 1.985-1.985-.244zm-2.333 10.796l1.985.244.366-2.977 4.963.609-1.463 11.91-2.977-.365-.244 1.985 7.94.975.244-1.985-2.978-.366 1.463-11.91 4.962.609-.365 2.978 1.985.243.61-4.962-15.881-1.95zM713.947 423.838l31.762-3.9-3.656-29.776-31.762 3.9 3.656 29.776zm1.742-2.229l-2.681-21.836 27.79-3.412 2.682 21.836-27.791 3.412zm24.622-29.218l.244 1.985-27.791 3.412-.244-1.985 27.791-3.412z"/><path d="M725.162 400.296l-9.926 1.219 1.22 9.925 9.925-1.219-1.22-9.925zm-1.01 8.184l-5.956.731-.73-5.955 5.954-.731.732 5.955zm4.475-4.58l10.918-1.34.244 1.985-10.918 1.34zm.487 3.97l10.918-1.34.244 1.985-10.918 1.34zm-12.415 5.555l23.82-2.925.245 1.985-23.821 2.925z"/><g><path d="M1360.582 458.982a4.012 4.012 0 0 0 3.56 4.397l3.182.334c.592 4.889 5.042 8.473 10.03 7.892 4.889-.593 8.474-5.042 7.892-10.03a9.073 9.073 0 0 0-6.052-7.474l.334-3.182a4.012 4.012 0 0 0-3.56-4.397l-2.983-.313.732-6.962-17.902-1.881-1.881 17.901 6.961.732-.313 2.983zm22.665 4.394a6.957 6.957 0 0 1-7.694 6.23 6.957 6.957 0 0 1-6.23-7.694 6.957 6.957 0 0 1 7.694-6.23 6.957 6.957 0 0 1 6.23 7.694zm-5.708-12.666l-.313 2.983a8.963 8.963 0 0 0-9.892 8.01l-2.983-.314a2.006 2.006 0 0 1-1.78-2.198l1.045-9.945a2.006 2.006 0 0 1 2.198-1.78l9.945 1.045a2.006 2.006 0 0 1 1.78 2.199zm-21.407 2.777l1.463-13.923 13.923 1.463-.522 4.973-4.973-.523a4.012 4.012 0 0 0-4.396 3.56l-.523 4.973-4.972-.523zm-2.826 7.747l-.836 7.956 7.956.837.21-1.99-5.968-.627.627-5.967zm31.509-12.776l1.989.209.836-7.956-7.956-.837-.21 1.99 5.968.627z"/></g><g><path d="M1350.257 120.792l1.985.244.244-1.985 1.985.244.244-1.985-1.985-.244.244-1.985-1.985-.244-.244 1.985-1.985-.243-.244 1.985 1.985.243z"/><path d="M1374.954 115.765l.1.012.414-3.375-1.393-1.783-4.765-.585-1.783 1.393-.256 2.085c-1.152.362-2.143 1.046-2.96 1.954l-6.451-.793c-.672-1.09-1.468-1.993-2.5-2.624l.257-2.084-1.393-1.783-4.764-.585-1.784 1.393-.414 3.375.1.012c-1.45 1.132-2.463 2.82-2.694 4.707l-1.658 13.498c-.292 2.382 1.45 4.611 3.831 4.904 1.985.243 3.943-.927 4.571-2.764l1.245-3.575c1.517 1.597 4.01 1.802 5.607.286 1.597-1.517 1.802-4.01.286-5.607-.535-.57-1.094-.94-1.777-1.125 1.51-1.628 2.076-3.775 1.736-5.933l4.566.56c-.851 2.012-.723 4.244.25 6.177-2.233.13-3.867 1.944-3.837 4.164.13 2.232 1.944 3.865 4.164 3.836a4.025 4.025 0 0 0 2.094-.65l.344 3.77c.315 2.356 2.514 4.137 4.87 3.822 1.947-.265 3.544-1.781 3.787-3.766l1.658-13.499.024-.199c.232-1.885-.343-3.77-1.475-5.218zm-25.39-5.737l.446-.349 3.176.39.348.446-.085.695c-1.365-.37-2.78-.341-4.043.108l.158-1.29zm2.66 2.946c2.78.341 4.695 2.793 4.354 5.572-.341 2.78-2.793 4.695-5.572 4.353-2.779-.34-4.694-2.792-4.353-5.572.341-2.779 2.793-4.694 5.572-4.353zm-2.637 19.02c-.456 1.254-1.832 1.79-3.085 1.334-1.068-.332-1.64-1.41-1.507-2.502l1.06-8.635c1.382 1.882 3.579 2.857 5.91 2.74-.135.286-.172.584-.32.969l-2.058 6.094zm8.001-5.264a2.006 2.006 0 0 1-2.228 1.742 2.006 2.006 0 0 1-1.742-2.23 2.006 2.006 0 0 1 2.229-1.74 2.006 2.006 0 0 1 1.741 2.228zm11.827-14.265l.446-.348 3.176.39.348.446-.158 1.29c-1.118-.742-2.483-1.111-3.897-1.083l.085-.695zm-6.115 16.981a2.006 2.006 0 0 1-1.741-2.228 2.006 2.006 0 0 1 2.228-1.742 2.006 2.006 0 0 1 1.742 2.23 2.006 2.006 0 0 1-2.23 1.74zm9.487 4.792c-.159 1.29-1.385 2.248-2.675 2.09-1.092-.134-1.9-.939-2.063-2.067l-.51-6.51c.036-.298-.027-.608-.09-.918 2.234.677 4.603.263 6.398-1.23l-1.06 8.635zm1.657-13.498l-.012.099c-.603 2.445-3.105 3.951-5.562 3.448-2.457-.503-3.95-3.105-3.448-5.562.503-2.457 3.105-3.95 5.562-3.448a4.655 4.655 0 0 1 3.46 5.463z"/><path d="M1369.725 118.145l1.985.244-.244 1.985-1.985-.244zm-2.229 1.742l1.985.243-.243 1.985-1.986-.243z"/></g><g><path d="M1098.427 623.028c-11.26.59-19.989 10.285-19.399 21.545.59 11.26 10.285 19.989 21.545 19.399 11.26-.59 19.989-10.285 19.399-21.545-.59-11.26-10.285-19.989-21.545-19.399zm2.012 38.385c-9.852.516-18.336-7.122-18.852-16.974-.516-9.852 7.122-18.336 16.974-18.852 9.852-.516 18.336 7.122 18.852 16.974.516 9.852-7.122 18.336-16.974 18.852z"/><path d="M1099.909 651.305c-1.677-.169-3.259-.984-4.1-2.351l-2.109 1.393c1.394 2.108 3.905 3.516 6.471 3.51 2.552-.262 4.775-1.918 6.068-4.167l-2.242-1.165a6.428 6.428 0 0 1-4.088 2.78zm5.464-13.245c-1.548-.175-3.07.161-4.31.996l1.394 2.108c1.488-.976 3.556-.7 4.78.647l1.968-1.642c-.956-1.105-2.283-1.933-3.832-2.109zm-11.669-4.777l.25-2.579c-3.219-.216-6.061 1.857-6.668 4.968l2.465.513c.418-1.819 2.149-3.064 3.953-2.902zm-2.149 5.501l2.56-.134.201 3.839-2.56.134zm13.557-5.714l.39 2.546c1.529-.209 2.97.357 3.925 1.462l.27.242 1.967-1.642-.27-.243c-1.508-1.845-3.865-2.748-6.282-2.365z"/></g></g></g></svg>