<?xml version="1.0" encoding="UTF-8"?>
<svg width="120px" height="34px" viewBox="0 0 120 34" version="1.1" xmlns="http://www.w3.org/2000/svg" xmlns:xlink="http://www.w3.org/1999/xlink">
    <title>logo-tabler-components-gray</title>
    <g id="logo-tabler-components-gray" stroke="none" stroke-width="1" fill="none" fill-rule="evenodd">
        <path d="M54.6447368,23.75 C54.8552632,23.75 55.1184211,23.8552632 55.2763158,24.0657895 C55.4868421,24.2763158 55.5921053,24.5921053 55.5921053,24.9605263 C55.5921053,25.4342105 55.3289474,25.8026316 54.8552632,26.1184211 C54.3815789,26.4342105 53.8026316,26.5921053 53.1710526,26.5921053 C52.2236842,26.6447368 51.3289474,26.3815789 50.5394737,25.9078947 C49.8026316,25.4868421 49.4868421,24.4868421 49.4868421,23.0657895 L49.4868421,16.1184211 L48.3289474,16.1184211 C47.5921053,16.1710526 46.9605263,15.5394737 46.9078947,14.8026316 L46.9078947,14.6973684 C46.9078947,14.3289474 47.0657895,13.9605263 47.3289474,13.6973684 C47.5921053,13.4342105 47.9605263,13.3289474 48.3289474,13.3289474 L49.4868421,13.3289474 L49.4868421,11.6973684 C49.4868421,11.2763158 49.6447368,10.9078947 49.9078947,10.5921053 C50.1710526,10.2763158 50.5921053,10.1184211 51.0131579,10.1710526 C51.4342105,10.1710526 51.8026316,10.3289474 52.0657895,10.5921053 C52.3289474,10.9078947 52.4868421,11.2763158 52.4868421,11.6973684 L52.4868421,13.3289474 L54.2763158,13.3289474 C55.0131579,13.2763158 55.6447368,13.9078947 55.6973684,14.6447368 L55.6973684,14.75 C55.6973684,15.4868421 55.0657895,16.1184211 54.3289474,16.1184211 L52.4868421,16.1184211 L52.4868421,22.9605263 C52.4868421,23.3289474 52.5921053,23.5921053 52.75,23.75 C52.9605263,23.9078947 53.1710526,24.0131579 53.4868421,24.0131579 C53.6447368,24.0131579 53.8026316,23.9605263 54.0657895,23.9078947 C54.2763158,23.8026316 54.4342105,23.75 54.6447368,23.75 L54.6447368,23.75 Z M69.3815789,12.8552632 C70.1710526,12.8552632 70.8552632,13.4868421 70.9078947,14.2763158 L70.9078947,25.0657895 C70.9078947,25.4868421 70.75,25.8552632 70.4868421,26.1710526 C70.2236842,26.4868421 69.8552632,26.5921053 69.3815789,26.5921053 C68.9605263,26.5921053 68.5921053,26.4342105 68.3289474,26.1710526 C68.0657895,25.8552632 67.9078947,25.4868421 67.9078947,25.0657895 C67.4342105,25.5921053 66.8552632,26.0131579 66.2236842,26.3289474 C65.5394737,26.6447368 64.75,26.8552632 63.9605263,26.8552632 C62.8026316,26.8552632 61.75,26.5394737 60.8026316,25.9605263 C59.8552632,25.3289474 59.0657895,24.4868421 58.5921053,23.4868421 C58.0235748,22.3616029 57.7347117,21.1158807 57.75,19.8552632 C57.75,18.4868421 58.0131579,17.3289474 58.5394737,16.2236842 C59.0131579,15.2236842 59.8026316,14.3289474 60.75,13.6973684 C61.6973684,13.1184211 62.75,12.8026316 63.8552632,12.8026316 C65.3815789,12.8026316 66.8026316,13.3289474 67.9078947,14.3815789 C67.9078947,13.9605263 68.0657895,13.5921053 68.3289474,13.2763158 C68.5921053,12.9605263 68.9605263,12.8026316 69.3815789,12.8552632 L69.3815789,12.8552632 Z M64.2763158,24.0657895 C65.3815789,24.0657895 66.2763158,23.6447368 66.9605263,22.8552632 C67.6465413,22.0063945 68.0183747,20.9466693 68.013212,19.8552632 C68.013212,18.6447368 67.6447368,17.6447368 66.9605263,16.8026316 C66.3038507,16.0021842 65.3109744,15.5544164 64.2763158,15.5921053 C63.1710526,15.5921053 62.3289474,16.0131579 61.6447368,16.8026316 C60.9605263,17.6447368 60.5921053,18.75 60.5921053,19.8552632 C60.5921053,21.0657895 60.9605263,22.0657895 61.5921053,22.8552632 C62.2763158,23.6447368 63.2763158,24.1184211 64.2763158,24.0657895 L64.2763158,24.0657895 Z M81.1710526,12.8552632 C82.3289474,12.8552632 83.3815789,13.1710526 84.3289474,13.75 C85.2763158,14.3815789 86.0657895,15.2236842 86.5394737,16.2236842 C87.1184211,17.3289474 87.3815789,18.5921053 87.3815789,19.8552632 C87.3815789,21.2236842 87.1184211,22.3815789 86.5921053,23.4868421 C86.1184211,24.4868421 85.3289474,25.3815789 84.3815789,26.0131579 C83.4342105,26.5921053 82.3815789,26.9078947 81.2763158,26.9078947 C80.4868421,26.9078947 79.6973684,26.75 79.0131579,26.4342105 C78.3289474,26.1184211 77.75,25.75 77.2236842,25.2236842 L77.2236842,25.3815789 C77.2236842,25.8026316 77.0657895,26.1710526 76.8026316,26.4868421 C76.5394737,26.8026316 76.1710526,26.9078947 75.6973684,26.9078947 C74.9078947,26.9078947 74.2236842,26.2763158 74.1710526,25.4868421 L74.1710526,9.43421053 C74.1710526,9.01315789 74.3289474,8.64473684 74.5921053,8.32894737 C74.8552632,8.01315789 75.2763158,7.85526316 75.6973684,7.90789474 C76.1184211,7.90789474 76.4868421,8.06578947 76.8026316,8.32894737 C77.0657895,8.64473684 77.2236842,9.01315789 77.2236842,9.43421053 L77.2236842,14.6973684 C77.6973684,14.1184211 78.2763158,13.6973684 78.9078947,13.3815789 C79.5921053,13.0131579 80.3815789,12.8552632 81.1710526,12.8552632 L81.1710526,12.8552632 Z M80.8026316,24.0657895 C81.9078947,24.0657895 82.75,23.6447368 83.4342105,22.8552632 C84.1184211,22.0131579 84.4868421,20.9078947 84.4868421,19.8026316 C84.4868421,18.5921053 84.1710526,17.5921053 83.4868421,16.8026316 C82.8218278,16.0131427 81.8345967,15.5679208 80.8026316,15.5921053 C79.6973684,15.5921053 78.8026316,16.0131579 78.1184211,16.8026316 C77.4398888,17.6556528 77.0690095,18.7126587 77.0657895,19.8026316 C77.0657895,21.0131579 77.3815789,22.0131579 78.1184211,22.8552632 C78.8026316,23.6447368 79.8026316,24.1184211 80.8026316,24.0657895 Z M93.2236842,25.0657895 C93.2236842,25.4868421 93.0657895,25.8552632 92.8026316,26.1710526 C92.5394737,26.4868421 92.1184211,26.5921053 91.6973684,26.5921053 C91.2763158,26.5921053 90.9078947,26.4342105 90.6447368,26.1710526 C90.3815789,25.8552632 90.2236842,25.4868421 90.2236842,25.0657895 L90.2236842,9.43421053 C90.2236842,9.01315789 90.3815789,8.64473684 90.6447368,8.32894737 C90.9605263,8.01315789 91.3289474,7.85526316 91.75,7.90789474 C92.1710526,7.90789474 92.5394737,8.06578947 92.8026316,8.32894737 C93.1184211,8.64473684 93.2236842,9.01315789 93.2236842,9.43421053 L93.2236842,25.0657895 Z M108.644737,19.5394737 C108.644737,19.9605263 108.486842,20.2763158 108.171053,20.5394737 C107.855263,20.8026316 107.539474,20.9078947 107.118421,20.9078947 L98.8026316,20.9078947 C99.1184211,22.75 100.75,24.1184211 102.644737,24.0657895 C103.328947,24.0657895 103.855263,24.0131579 104.276316,23.8552632 C104.592105,23.75 104.907895,23.6447368 105.223684,23.4342105 L105.697368,23.1710526 C105.960526,23.0131579 106.276316,22.9605263 106.539474,22.9605263 C106.907895,22.9605263 107.171053,23.0657895 107.434211,23.3289474 C107.697368,23.5921053 107.802632,23.8552632 107.802632,24.2236842 C107.802632,24.6973684 107.592105,25.1184211 107.118421,25.4342105 C106.644737,25.8026316 106.013158,26.1710526 105.223684,26.4342105 C104.434211,26.6973684 103.644737,26.8552632 102.802632,26.8552632 C101.381579,26.8552632 100.171053,26.5394737 99.1184211,25.9605263 C98.0657895,25.3815789 97.2763158,24.5394737 96.6973684,23.5394737 C96.1184211,22.4868421 95.8026316,21.2763158 95.8552632,20.0131579 C95.8552632,18.5394737 96.1710526,17.2763158 96.75,16.2236842 C97.3289474,15.1710526 98.1184211,14.3289474 99.1710526,13.6973684 C100.171053,13.1184211 101.223684,12.8026316 102.381579,12.8026316 C103.486842,12.8026316 104.539474,13.1184211 105.539474,13.6973684 C107.381579,14.9605263 108.644737,17.1710526 108.644737,19.5394737 L108.644737,19.5394737 Z M102.223684,15.5921053 C100.276316,15.5921053 99.1184211,16.4868421 98.75,18.3289474 L105.381579,18.3289474 L105.381579,18.1710526 C105.328947,17.4342105 104.907895,16.8026316 104.328947,16.3289474 C103.75,15.8552632 103.013158,15.5921053 102.223684,15.5921053 L102.223684,15.5921053 Z M118.171053,12.8552632 C118.697368,12.8552632 119.118421,13.0131579 119.434211,13.2763158 C119.75,13.5394737 119.960526,13.9078947 119.960526,14.2763158 C119.960526,14.8026316 119.855263,15.1710526 119.539474,15.4342105 C119.276316,15.6973684 118.960526,15.8552632 118.592105,15.8026316 C118.328947,15.8026316 118.065789,15.75 117.75,15.6447368 L117.434211,15.5394737 C116.802632,15.3815789 116.118421,15.4868421 115.592105,15.8552632 C115.171053,16.1710526 114.802632,16.5921053 114.592105,17.0657895 C114.328947,17.6973684 114.171053,18.3289474 114.223684,19.0131579 L114.223684,25.0131579 C114.223684,25.4342105 114.065789,25.8026316 113.802632,26.1184211 C113.539474,26.4342105 113.171053,26.5394737 112.697368,26.5394737 C112.223684,26.5394737 111.907895,26.3815789 111.592105,26.1184211 C111.328947,25.8026316 111.171053,25.4342105 111.171053,25.0131579 L111.171053,14.6447368 C111.171053,14.2236842 111.328947,13.8552632 111.592105,13.5394737 C111.855263,13.2236842 112.276316,13.0657895 112.697368,13.1184211 C113.118421,13.1184211 113.486842,13.2763158 113.802632,13.5394737 C114.118421,13.8552632 114.223684,14.2236842 114.223684,14.6447368 L114.223684,14.9605263 C114.592105,14.2763158 115.171053,13.75 115.907895,13.3815789 C116.592105,13.0131579 117.381579,12.8552632 118.171053,12.8552632 Z" id="Shape" fill="#9FA6B2" fill-rule="nonzero"></path>
        <path d="M7.54629103,0.738800397 C13.8112651,-0.246266799 20.1916945,-0.246266799 26.4566686,0.738800397 C29.808495,1.57551777 32.4255263,4.1927534 33.261982,7.54464507 C34.246006,13.8097006 34.246006,20.1899671 33.261982,26.4550226 C32.4253456,29.8071934 29.8078422,32.4244925 26.4556061,33.2608673 C20.190632,34.2459345 13.8102026,34.2459345 7.54522853,33.2608673 C4.19299244,32.4244925 1.57548903,29.8071934 0.738852615,26.4550226 C-0.246284205,20.190054 -0.246284205,13.8096137 0.738852615,7.54464507 C1.57566969,4.1921951 4.19364522,1.57483248 7.54629103,0.738800397 Z M16.9996667,7 C16.5889906,7 16.2143153,7.23333869 16.0323111,7.60134715 L16.0323111,7.60134715 L13.5262535,12.6781305 L7.92345813,13.4934825 C7.5174488,13.5528172 7.17944104,13.8374904 7.05277146,14.2281661 C6.92610188,14.6188417 7.03143764,15.0475182 7.32611107,15.3341915 L7.32611107,15.3341915 L11.3808709,19.2856156 L10.4235156,24.8657438 C10.3541806,25.2704198 10.5201845,25.6797625 10.8528588,25.9211014 C11.1855331,26.1624403 11.6255432,26.194441 11.9895516,26.0031033 L11.9895516,26.0031033 L16.9996667,23.3683761 L22.0117818,26.0031033 C22.3757902,26.194441 22.816467,26.1624403 23.1484746,25.9211014 C23.4811489,25.6797625 23.6471527,25.2704198 23.5778178,24.8657438 L23.5778178,24.8657438 L22.6197958,19.2856156 L26.6738889,15.3341915 C26.9685624,15.0475182 27.0738981,14.6188417 26.9472285,14.2281661 C26.820559,13.8374904 26.4825512,13.5528172 26.0765419,13.4934825 L26.0765419,13.4934825 L20.4744132,12.6781305 L17.9676889,7.60134715 C17.7856847,7.23267201 17.4110094,7 16.9996667,7 Z" id="Combined-Shape" fill="#9FA6B2" fill-rule="nonzero"></path>
    </g>
</svg>