<svg viewBox="0 0 24 24" fill="none" xmlns="http://www.w3.org/2000/svg"><path d="M8.996 21a2.999 2.999 0 0 0 2.995-3v-3H8.996a2.998 2.998 0 0 0-2.995 3c0 1.656 1.342 3 2.995 3z" fill="#0ACF83"/><path d="M6.001 12c0-1.656 1.342-3 2.995-3h2.995v6H8.996a2.998 2.998 0 0 1-2.995-3z" fill="#A259FF"/><path d="M6.001 6c0-1.656 1.342-3 2.995-3h2.995v6H8.996a2.998 2.998 0 0 1-2.995-3z" fill="#F24E1E"/><path d="M11.99 3h2.996a3 3 0 0 1 2.994 3c0 1.656-1.34 3-2.994 3H11.99V3z" fill="#FF7262"/><path d="M17.98 12c0 1.656-1.34 3-2.994 3a2.999 2.999 0 0 1-2.995-3c0-1.656 1.341-3 2.995-3a2.999 2.999 0 0 1 2.994 3z" fill="#1ABCFE"/></svg>