<svg viewBox="0 0 24 24" fill="none" xmlns="http://www.w3.org/2000/svg"><path d="M12 3a9 9 0 1 0 0 18 9 9 0 0 0 0-18zm4.128 12.98a.56.56 0 0 1-.772.187c-2.113-1.292-4.773-1.583-7.906-.868a.562.562 0 0 1-.25-1.094c3.428-.783 6.37-.446 8.741 1.004a.561.561 0 0 1 .187.771zm1.1-2.45a.702.702 0 0 1-.965.231c-2.418-1.486-6.107-1.917-8.968-1.049a.703.703 0 0 1-.408-1.342c3.269-.992 7.332-.512 10.11 1.196.33.203.435.635.232.964h-.001zm.095-2.552c-2.9-1.723-7.686-1.881-10.456-1.04a.842.842 0 0 1-.488-1.612c3.18-.964 8.464-.778 11.803 1.204a.842.842 0 0 1-.859 1.448z" fill="#2EBD59"/></svg>