<svg width="24" height="24" viewBox="0 0 24 24" fill="none" xmlns="http://www.w3.org/2000/svg">
<path d="M19.6239 5.39005C18.2217 4.74665 16.7181 4.27263 15.1459 4.00114C15.1173 3.9959 15.0887 4.00899 15.0739 4.03518C14.8805 4.37913 14.6663 4.82784 14.5163 5.18052C12.8254 4.92736 11.1431 4.92736 9.48679 5.18052C9.33676 4.82 9.11478 4.37913 8.92053 4.03518C8.90578 4.00987 8.87718 3.99677 8.84855 4.00114C7.27725 4.27176 5.7736 4.74579 4.37052 5.39005C4.35838 5.39528 4.34797 5.40402 4.34106 5.41536C1.48894 9.67636 0.707629 13.8326 1.09092 17.9374C1.09265 17.9574 1.10392 17.9767 1.11953 17.9889C3.00127 19.3708 4.82407 20.2097 6.61301 20.7658C6.64164 20.7745 6.67197 20.7641 6.69019 20.7405C7.11337 20.1626 7.49059 19.5532 7.81402 18.9125C7.83311 18.8749 7.81489 18.8304 7.77588 18.8156C7.17754 18.5886 6.6078 18.3119 6.05975 17.9976C6.0164 17.9723 6.01293 17.9103 6.05281 17.8806C6.16814 17.7942 6.2835 17.7043 6.39363 17.6135C6.41355 17.5969 6.44131 17.5934 6.46474 17.6039C10.0652 19.2477 13.9631 19.2477 17.521 17.6039C17.5445 17.5925 17.5722 17.596 17.593 17.6126C17.7032 17.7034 17.8185 17.7942 17.9347 17.8806C17.9746 17.9103 17.972 17.9723 17.9286 17.9976C17.3806 18.318 16.8108 18.5886 16.2116 18.8147C16.1726 18.8295 16.1553 18.8749 16.1744 18.9125C16.5047 19.5523 16.882 20.1617 17.2973 20.7396C17.3147 20.7641 17.3459 20.7745 17.3745 20.7658C19.1721 20.2097 20.9949 19.3708 22.8766 17.9889C22.8931 17.9767 22.9035 17.9583 22.9053 17.9382C23.364 13.1927 22.1369 9.07052 19.6525 5.41623C19.6465 5.40402 19.6361 5.39528 19.6239 5.39005ZM8.35169 15.438C7.26771 15.438 6.37454 14.4428 6.37454 13.2207C6.37454 11.9985 7.25039 11.0033 8.35169 11.0033C9.46163 11.0033 10.3462 12.0072 10.3288 13.2207C10.3288 14.4428 9.45296 15.438 8.35169 15.438ZM15.6619 15.438C14.5779 15.438 13.6847 14.4428 13.6847 13.2207C13.6847 11.9985 14.5606 11.0033 15.6619 11.0033C16.7718 11.0033 17.6563 12.0072 17.639 13.2207C17.639 14.4428 16.7718 15.438 15.6619 15.438Z" fill="#707987"/>
</svg>
