<svg width="24" height="24" viewBox="0 0 24 24" fill="none" xmlns="http://www.w3.org/2000/svg">
<path fill-rule="evenodd" clip-rule="evenodd" d="M12 1C5.92733 1 1 5.92733 1 12C1 18.0727 5.92733 23 12 23C18.0607 23 23 18.0727 23 12C23 5.92733 18.0607 1 12 1ZM19.2657 6.0705C20.5781 7.6692 21.3655 9.70932 21.3894 11.9165C21.0792 11.8569 17.9772 11.2245 14.8514 11.6182C14.7798 11.4631 14.7202 11.2961 14.6486 11.1291C14.4577 10.6757 14.243 10.2104 14.0282 9.76899C17.488 8.3612 19.0629 6.33297 19.2657 6.0705ZM12 2.62256C14.3861 2.62256 16.5694 3.51736 18.2278 4.98482C18.0607 5.22343 16.641 7.12039 13.3004 8.37309C11.7614 5.54555 10.0553 3.23102 9.79285 2.8731C10.4967 2.70607 11.2365 2.62256 12 2.62256ZM8.00329 3.50542C8.25381 3.83948 9.92409 6.16594 11.487 8.93382C7.09653 10.1031 3.21909 10.0792 2.80152 10.0792C3.40998 7.16811 5.37852 4.7462 8.00329 3.50542ZM2.5987 12.012C2.5987 11.9165 2.5987 11.821 2.5987 11.7256C3.00434 11.7375 7.56182 11.7972 12.2505 10.3894C12.525 10.9143 12.7755 11.4512 13.0141 11.988C12.8948 12.0239 12.7635 12.0597 12.6443 12.0954C7.80043 13.6583 5.22343 17.9295 5.00868 18.2874C3.51735 16.6291 2.5987 14.4219 2.5987 12.012ZM12 21.4013C9.8286 21.4013 7.8243 20.6616 6.23753 19.4208C6.40455 19.0749 8.31342 15.4002 13.6106 13.551C13.6345 13.539 13.6464 13.539 13.6703 13.5271C14.9945 16.9512 15.5315 19.8264 15.6746 20.6496C14.5412 21.1388 13.3004 21.4013 12 21.4013ZM17.2375 19.7907C17.1421 19.218 16.641 16.474 15.4121 13.0976C18.359 12.6323 20.936 13.3959 21.2582 13.5033C20.8525 16.1161 19.3492 18.3709 17.2375 19.7907Z" fill="#707987"/>
</svg>
