<svg width="24" height="24" viewBox="0 0 24 24" fill="none" xmlns="http://www.w3.org/2000/svg">
<path d="M22.5648 12.253C22.5648 11.5053 22.5042 10.7535 22.3748 10.0179H11.9996V14.2537H17.941C17.6945 15.6198 16.9023 16.8283 15.7423 17.5962V20.3446H19.2869C21.3684 18.4288 22.5648 15.5996 22.5648 12.253Z" fill="#4285F4"/>
<path d="M11.9996 23C14.9663 23 17.4681 22.0259 19.2909 20.3446L15.7463 17.5962C14.7601 18.2671 13.487 18.647 12.0037 18.647C9.13402 18.647 6.70088 16.711 5.82787 14.1082H2.17008V16.9414C4.03737 20.6558 7.84066 23 11.9996 23Z" fill="#34A853"/>
<path d="M5.82383 14.1081C5.36307 12.742 5.36307 11.2628 5.82383 9.89665V7.06338H2.17009C0.609977 10.1715 0.609966 13.8333 2.17008 16.9414L5.82383 14.1081Z" fill="#FBBC04"/>
<path d="M11.9996 5.35371C13.5678 5.32946 15.0835 5.91955 16.2192 7.00274L19.3596 3.8623C17.3711 1.99501 14.7318 0.968407 11.9996 1.00074C7.84066 1.00074 4.03738 3.34497 2.17009 7.06338L5.82383 9.89665C6.69281 7.28972 9.12998 5.35371 11.9996 5.35371Z" fill="#EA4335"/>
</svg>
