<svg width="24" height="24" viewBox="0 0 24 24" fill="none" xmlns="http://www.w3.org/2000/svg">
<path fill-rule="evenodd" clip-rule="evenodd" d="M16.2192 7.00274C15.0835 5.91955 13.5678 5.32946 11.9996 5.35371C9.12998 5.35371 6.69281 7.28969 5.82383 9.8966C5.36307 11.2627 5.36307 12.742 5.82383 14.1082H5.82786C6.70088 16.711 9.13401 18.647 12.0037 18.647C13.485 18.647 14.7567 18.2681 15.7423 17.5989V17.5962C16.9023 16.8283 17.6945 15.6198 17.941 14.2537H11.9996V10.0179H22.3748C22.5042 10.7535 22.5648 11.5053 22.5648 12.253C22.5648 15.5986 21.3691 18.4271 19.2888 20.3429L19.2909 20.3446C17.4681 22.0259 14.9663 23 11.9996 23C7.84065 23 4.03736 20.6558 2.17008 16.9414C0.609971 13.8333 0.609975 10.1715 2.17009 7.06339C4.03737 3.34498 7.84065 1.00074 11.9996 1.00074C14.7318 0.968407 17.3711 1.99501 19.3596 3.8623L16.2192 7.00274Z" fill="#707987"/>
</svg>
