<svg width="24" height="24" viewBox="0 0 24 24" fill="none" xmlns="http://www.w3.org/2000/svg">
<path d="M12.0063 1C7.41278 1 6.06935 1.00474 5.80821 1.0264C4.86555 1.10476 4.27896 1.25319 3.63991 1.57137C3.14742 1.81593 2.75902 2.09942 2.37569 2.4968C1.67757 3.22151 1.25447 4.11309 1.10131 5.17291C1.02685 5.68741 1.00518 5.79234 1.00078 8.42038C0.99909 9.2964 1.00078 10.4493 1.00078 11.9957C1.00078 16.5856 1.00586 17.9277 1.02786 18.1884C1.10402 19.1057 1.24787 19.6828 1.5525 20.3141C2.13469 21.5225 3.2466 22.4296 4.55651 22.7681C5.01008 22.8849 5.51103 22.9492 6.15414 22.9797C6.42662 22.9915 9.20384 23 11.9828 23C14.7617 23 17.5406 22.9966 17.8063 22.9831C18.551 22.948 18.9834 22.89 19.4615 22.7664C20.7799 22.4263 21.8715 21.5326 22.4655 20.3073C22.7642 19.6913 22.9157 19.0921 22.9842 18.2227C22.9991 18.0332 23.0054 15.011 23.0054 11.9928C23.0054 8.97415 22.9986 5.95753 22.9837 5.76797C22.9143 4.88451 22.7628 4.29046 22.4545 3.66256C22.2015 3.14857 21.9205 2.76472 21.5127 2.37224C20.7848 1.67698 19.8946 1.25387 18.8338 1.10087C18.3198 1.02657 18.2174 1.00457 15.5874 1H12.0063Z" fill="url(#paint0_radial_183_4273)"/>
<path d="M12.0063 1C7.41278 1 6.06935 1.00474 5.80821 1.0264C4.86555 1.10476 4.27896 1.25319 3.63991 1.57137C3.14742 1.81593 2.75902 2.09942 2.37569 2.4968C1.67757 3.22151 1.25447 4.11309 1.10131 5.17291C1.02685 5.68741 1.00518 5.79234 1.00078 8.42038C0.99909 9.2964 1.00078 10.4493 1.00078 11.9957C1.00078 16.5856 1.00586 17.9277 1.02786 18.1884C1.10402 19.1057 1.24787 19.6828 1.5525 20.3141C2.13469 21.5225 3.2466 22.4296 4.55651 22.7681C5.01008 22.8849 5.51103 22.9492 6.15414 22.9797C6.42662 22.9915 9.20384 23 11.9828 23C14.7617 23 17.5406 22.9966 17.8063 22.9831C18.551 22.948 18.9834 22.89 19.4615 22.7664C20.7799 22.4263 21.8715 21.5326 22.4655 20.3073C22.7642 19.6913 22.9157 19.0921 22.9842 18.2227C22.9991 18.0332 23.0054 15.011 23.0054 11.9928C23.0054 8.97415 22.9986 5.95753 22.9837 5.76797C22.9143 4.88451 22.7628 4.29046 22.4545 3.66256C22.2015 3.14857 21.9205 2.76472 21.5127 2.37224C20.7848 1.67698 19.8946 1.25387 18.8338 1.10087C18.3198 1.02657 18.2174 1.00457 15.5874 1H12.0063Z" fill="url(#paint1_radial_183_4273)"/>
<path d="M12.0012 3.87717C9.795 3.87717 9.51812 3.88681 8.65161 3.92625C7.7868 3.96585 7.19649 4.10277 6.67997 4.30366C6.14568 4.51116 5.69245 4.78872 5.24092 5.24044C4.78905 5.69198 4.5115 6.14522 4.30333 6.67936C4.10194 7.19606 3.96485 7.78656 3.92593 8.65106C3.88717 9.5176 3.87702 9.79465 3.87702 12.0009C3.87702 14.2072 3.88683 14.4832 3.9261 15.3498C3.96587 16.2146 4.10278 16.805 4.3035 17.3215C4.51116 17.8558 4.78871 18.309 5.24041 18.7606C5.69178 19.2125 6.145 19.4907 6.67895 19.6982C7.19581 19.8991 7.78629 20.036 8.65094 20.0756C9.51744 20.115 9.79415 20.1247 12.0002 20.1247C14.2066 20.1247 14.4826 20.115 15.3491 20.0756C16.2139 20.036 16.8049 19.8991 17.3218 19.6982C17.8559 19.4907 18.3084 19.2125 18.7598 18.7606C19.2117 18.309 19.4892 17.8558 19.6974 17.3217C19.8971 16.805 20.0342 16.2145 20.0748 15.35C20.1137 14.4834 20.1239 14.2072 20.1239 12.0009C20.1239 9.79465 20.1137 9.51777 20.0748 8.65123C20.0342 7.78639 19.8971 7.19606 19.6974 6.67953C19.4892 6.14522 19.2117 5.69198 18.7598 5.24044C18.3079 4.78855 17.8561 4.51099 17.3213 4.30366C16.8034 4.10277 16.2127 3.96585 15.3479 3.92625C14.4814 3.88681 14.2056 3.87717 11.9987 3.87717H12.0012ZM11.2725 5.34114C11.4888 5.3408 11.7301 5.34114 12.0012 5.34114C14.1702 5.34114 14.4273 5.34892 15.2838 5.38785C16.0758 5.42407 16.5057 5.55642 16.7921 5.66761C17.1712 5.81485 17.4414 5.99087 17.7256 6.2752C18.0099 6.55953 18.1859 6.83032 18.3335 7.20943C18.4447 7.49546 18.5772 7.92534 18.6132 8.71741C18.6522 9.57379 18.6606 9.83104 18.6606 11.9991C18.6606 14.1671 18.6522 14.4244 18.6132 15.2807C18.577 16.0728 18.4447 16.5027 18.3335 16.7887C18.1863 17.1678 18.0099 17.4378 17.7256 17.7219C17.4413 18.0063 17.1713 18.1823 16.7921 18.3295C16.506 18.4412 16.0758 18.5732 15.2838 18.6094C14.4274 18.6484 14.1702 18.6568 12.0012 18.6568C9.83206 18.6568 9.57499 18.6484 8.71863 18.6094C7.92659 18.5729 7.49672 18.4405 7.2102 18.3293C6.8311 18.1821 6.56031 18.0061 6.27599 17.7218C5.99167 17.4374 5.81566 17.1673 5.66808 16.788C5.55689 16.502 5.42438 16.0721 5.38833 15.2801C5.3494 14.4237 5.34162 14.1664 5.34162 11.997C5.34162 9.82765 5.3494 9.57176 5.38833 8.71538C5.42455 7.92331 5.55689 7.49343 5.66808 7.20706C5.81532 6.82795 5.99167 6.55716 6.27599 6.27283C6.56031 5.9885 6.8311 5.81248 7.2102 5.6649C7.49655 5.5532 7.92659 5.42119 8.71863 5.3848C9.46803 5.35095 9.75844 5.3408 11.2725 5.33911V5.34114ZM16.3375 6.69002C15.7993 6.69002 15.3627 7.12616 15.3627 7.66453C15.3627 8.20273 15.7993 8.63939 16.3375 8.63939C16.8757 8.63939 17.3123 8.20273 17.3123 7.66453C17.3123 7.12633 16.8757 6.69002 16.3375 6.69002ZM12.0012 7.82904C9.69735 7.82904 7.82945 9.697 7.82945 12.0009C7.82945 14.3049 9.69735 16.172 12.0012 16.172C14.3051 16.172 16.1723 14.3049 16.1723 12.0009C16.1723 9.697 14.3051 7.82904 12.0012 7.82904ZM12.0012 9.29301C13.4966 9.29301 14.709 10.5053 14.709 12.0009C14.709 13.4964 13.4966 14.7089 12.0012 14.7089C10.5056 14.7089 9.29337 13.4964 9.29337 12.0009C9.29337 10.5053 10.5056 9.29301 12.0012 9.29301Z" fill="white"/>
<defs>
<radialGradient id="paint0_radial_183_4273" cx="0" cy="0" r="1" gradientUnits="userSpaceOnUse" gradientTransform="translate(6.84522 24.6945) rotate(-90) scale(21.8036 20.284)">
<stop stop-color="#FFDD55"/>
<stop offset="0.1" stop-color="#FFDD55"/>
<stop offset="0.5" stop-color="#FF543E"/>
<stop offset="1" stop-color="#C837AB"/>
</radialGradient>
<radialGradient id="paint1_radial_183_4273" cx="0" cy="0" r="1" gradientUnits="userSpaceOnUse" gradientTransform="translate(-2.68598 2.58484) rotate(78.678) scale(9.7464 40.1841)">
<stop stop-color="#3771C8"/>
<stop offset="0.128" stop-color="#3771C8"/>
<stop offset="1" stop-color="#6600FF" stop-opacity="0"/>
</radialGradient>
</defs>
</svg>
