<svg width="24" height="24" viewBox="0 0 24 24" fill="none" xmlns="http://www.w3.org/2000/svg">
<path d="M21.376 1H2.62403C2.19331 1 1.78023 1.1711 1.47567 1.47567C1.1711 1.78023 1 2.19331 1 2.62403V21.376C1 21.8067 1.1711 22.2198 1.47567 22.5243C1.78023 22.8289 2.19331 23 2.62403 23H21.376C21.8067 23 22.2198 22.8289 22.5243 22.5243C22.8289 22.2198 23 21.8067 23 21.376V2.62403C23 2.19331 22.8289 1.78023 22.5243 1.47567C22.2198 1.1711 21.8067 1 21.376 1ZM7.55722 19.7413H4.24958V9.23472H7.55722V19.7413ZM5.90111 7.77875C5.52592 7.77664 5.15976 7.66343 4.84884 7.45341C4.53792 7.2434 4.29619 6.94599 4.15414 6.59871C4.01209 6.25144 3.97609 5.86988 4.0507 5.50217C4.1253 5.13446 4.30715 4.79709 4.57331 4.53263C4.83947 4.26818 5.178 4.08849 5.54618 4.01626C5.91436 3.94402 6.29569 3.98246 6.64204 4.12674C6.98839 4.27101 7.28424 4.51465 7.49226 4.82691C7.70027 5.13917 7.81113 5.50605 7.81083 5.88125C7.81437 6.13245 7.7673 6.38179 7.67243 6.6144C7.57755 6.84702 7.43682 7.05816 7.25861 7.23523C7.0804 7.4123 6.86836 7.55168 6.63514 7.64505C6.40192 7.73843 6.15228 7.7839 5.90111 7.77875ZM19.7489 19.7504H16.4428V14.0106C16.4428 12.3178 15.7232 11.7953 14.7943 11.7953C13.8135 11.7953 12.851 12.5347 12.851 14.0533V19.7504H9.54333V9.24236H12.7242V10.6983H12.7669C13.0863 10.0521 14.2046 8.9475 15.9111 8.9475C17.7567 8.9475 19.7504 10.0429 19.7504 13.2513L19.7489 19.7504Z" fill="#0A66C2"/>
</svg>
