<svg width="24" height="24" viewBox="0 0 24 24" fill="none" xmlns="http://www.w3.org/2000/svg">
<path d="M21.9049 2L13.3206 8.37569L14.908 4.61412L21.9049 2Z" fill="#707987" stroke="#707987" stroke-width="0.0753295" stroke-linecap="round" stroke-linejoin="round"/>
<path d="M2.08728 2L10.6026 8.43608L9.09277 4.61412L2.08728 2ZM18.8159 16.7788L16.5296 20.2816L21.4214 21.6275L22.8277 16.8565L18.8159 16.7788ZM1.1814 16.8565L2.57904 21.6275L7.47081 20.2816L5.18453 16.7788L1.1814 16.8565Z" fill="#707987" stroke="#707987" stroke-width="0.0753295" stroke-linecap="round" stroke-linejoin="round"/>
<path d="M7.19468 10.8605L5.83154 12.9225L10.6888 13.1382L10.5162 7.91855L7.19468 10.8605ZM16.797 10.8605L13.4323 7.85815L13.3202 13.1382L18.1688 12.9225L16.797 10.8605ZM7.47076 20.2817L10.3868 18.8582L7.86762 16.8911L7.47076 20.2817ZM13.6049 18.8582L16.5296 20.2817L16.1241 16.8911L13.6049 18.8582Z" fill="#707987" stroke="#707987" stroke-width="0.0753295" stroke-linecap="round" stroke-linejoin="round"/>
<path d="M16.53 20.2817L13.6053 18.8582L13.8383 20.7648L13.8124 21.5672L16.53 20.2817ZM7.47119 20.2817L10.1888 21.5672L10.1716 20.7648L10.3873 18.8582L7.47119 20.2817Z" fill="#707987" stroke="#707987" stroke-width="0.0753295" stroke-linecap="round" stroke-linejoin="round"/>
<path d="M7.4706 20.2817L7.88472 16.779L5.18433 16.8566L7.4706 20.2817ZM16.1153 16.779L16.5294 20.2817L18.8157 16.8566L16.1153 16.779ZM18.1686 12.9225L13.32 13.1382L13.7686 15.6315L14.4847 14.1303L16.2102 14.9154L18.1686 12.9225ZM7.79844 14.9154L9.52393 14.1303L10.2314 15.6315L10.6886 13.1382L5.83139 12.9225L7.79844 14.9154Z" fill="#707987" stroke="#707987" stroke-width="0.0753295" stroke-linecap="round" stroke-linejoin="round"/>
<path d="M5.83154 12.9225L7.86762 16.8911L7.7986 14.9154L5.83154 12.9225ZM16.2104 14.9154L16.1241 16.8911L18.1688 12.9225L16.2104 14.9154ZM10.6888 13.1382L10.2315 15.6315L10.801 18.5735L10.9304 14.6997L10.6888 13.1382ZM13.3202 13.1382L13.0872 14.6911L13.1908 18.5735L13.7688 15.6315L13.3202 13.1382Z" fill="#707987" stroke="#707987" stroke-width="0.0753295" stroke-linecap="round" stroke-linejoin="round"/>
<path d="M13.769 15.6314L13.191 18.5733L13.6051 18.858L16.1243 16.891L16.2106 14.9153L13.769 15.6314ZM7.79883 14.9153L7.86785 16.891L10.3871 18.858L10.8012 18.5733L10.2318 15.6314L7.79883 14.9153Z" fill="#707987" stroke="#707987" stroke-width="0.0753295" stroke-linecap="round" stroke-linejoin="round"/>
<path d="M13.8124 21.5671L13.8383 20.7648L13.6226 20.575H10.37L10.1716 20.7648L10.1888 21.5671L7.47119 20.2816L8.42021 21.0581L10.3441 22.3953H13.6484L15.581 21.0581L16.53 20.2816L13.8124 21.5671Z" fill="#707987" stroke="#707987" stroke-width="0.0753295" stroke-linecap="round" stroke-linejoin="round"/>
<path opacity="0.8" d="M22.2667 8.78993L23 5.26993L21.9043 2.00012L13.6047 8.16012L16.7969 10.8605L21.309 12.1805L22.3098 11.0158L21.8784 10.7052L22.5686 10.0754L22.0337 9.6613L22.7239 9.13502L22.2667 8.78993ZM1 5.26993L1.73333 8.78993L1.26745 9.13502L1.95765 9.6613L1.43137 10.0754L2.12157 10.7052L1.6902 11.0158L2.68235 12.1805L7.19451 10.8605L10.3867 8.16012L2.08706 2.00012L1 5.26993Z" fill="#707987" stroke="#707987" stroke-width="0.0753295" stroke-linecap="round" stroke-linejoin="round"/>
<path d="M21.3092 12.1804L16.7971 10.8604L18.1688 12.9224L16.1241 16.891L18.8159 16.8565H22.8277L21.3092 12.1804ZM7.19473 10.8604L2.68257 12.1804L1.1814 16.8565H5.18453L7.86767 16.891L5.83159 12.9224L7.19473 10.8604ZM13.3202 13.1381L13.6049 8.16002L14.9163 4.61414H9.09277L10.3869 8.16002L10.6888 13.1381L10.7924 14.7083L10.801 18.5734H13.1908L13.2081 14.7083L13.3202 13.1381Z" fill="#707987" stroke="#707987" stroke-width="0.0753295" stroke-linecap="round" stroke-linejoin="round"/>
</svg>
