<svg width="24" height="24" viewBox="0 0 24 24" fill="none" xmlns="http://www.w3.org/2000/svg">
<path d="M2.58894 14.5089C2.58894 15.423 2.79319 16.1277 3.05362 16.5515C3.39574 17.1081 3.91149 17.343 4.43745 17.343C5.11149 17.343 5.72936 17.1745 6.91915 15.5302C7.87404 14.2077 8.99745 12.354 9.75319 11.1949L11.0349 9.22383C11.9234 7.85532 12.9549 6.33872 14.1345 5.30723C15.0996 4.46468 16.1362 4 17.183 4C18.9396 4 20.6145 5.01617 21.8962 6.93106C23.2953 9.01957 23.9796 11.6545 23.9796 14.3762C23.9796 15.9898 23.6579 17.1796 23.1166 18.1191C22.5957 19.023 21.5745 19.9319 19.8536 19.9319V17.343C21.3243 17.343 21.6919 15.9949 21.6919 14.4477C21.6919 12.2417 21.1813 9.79574 20.0477 8.04936C19.246 6.80851 18.2043 6.05277 17.0604 6.05277C15.8196 6.05277 14.8238 6.98723 13.7055 8.65192C13.1081 9.53532 12.5004 10.6179 11.8111 11.8332L11.0553 13.1711C9.53872 15.8621 9.15574 16.4749 8.39489 17.4911C7.06723 19.263 5.92851 19.9319 4.43745 19.9319C2.66043 19.9319 1.54213 19.166 0.84766 18.0068C0.280851 17.0621 0 15.8264 0 14.4119L2.58894 14.5089Z" fill="#0081FB"/>
<path d="M2.04248 7.10979C3.22716 5.2817 4.94291 4 6.90886 4C8.04759 4 9.1761 4.33702 10.3608 5.30213C11.6527 6.35915 13.0314 8.09532 14.7472 10.96L15.365 11.9864C16.851 14.463 17.6986 15.7396 18.194 16.3421C18.8323 17.1132 19.2765 17.343 19.8535 17.343C21.3242 17.343 21.6918 15.9949 21.6918 14.4477L23.9795 14.3762C23.9795 15.9898 23.6578 17.1796 23.1165 18.1191C22.5957 19.023 21.5744 19.9319 19.8535 19.9319C18.7863 19.9319 17.8416 19.7021 16.7948 18.7115C15.9931 17.9557 15.0535 16.6128 14.3284 15.4026L12.1786 11.8077C11.1012 10.0051 10.1106 8.65702 9.53865 8.04936C8.92078 7.39575 8.12929 6.60426 6.86801 6.60426C5.84163 6.60426 4.97354 7.32426 4.24844 8.42213L2.04248 7.10979Z" fill="url(#paint0_linear_183_4903)"/>
<path d="M6.86809 6.60426C5.8417 6.60426 4.97362 7.32426 4.24851 8.42213C3.21702 9.97447 2.58894 12.2877 2.58894 14.5089C2.58894 15.423 2.79319 16.1277 3.05362 16.5515L0.84766 18.0068C0.280851 17.0621 0 15.8264 0 14.4119C0 11.8485 0.704681 9.17787 2.04255 7.10979C3.22723 5.2817 4.94298 4 6.90894 4L6.86809 6.60426Z" fill="url(#paint1_linear_183_4903)"/>
<defs>
<linearGradient id="paint0_linear_183_4903" x1="5.08588" y1="13.7583" x2="21.5948" y2="14.5957" gradientUnits="userSpaceOnUse">
<stop stop-color="#0064E1"/>
<stop offset="0.4" stop-color="#0064E1"/>
<stop offset="0.8" stop-color="#0073EE"/>
<stop offset="1" stop-color="#0082FB"/>
</linearGradient>
<linearGradient id="paint1_linear_183_4903" x1="3.75319" y1="15.5966" x2="3.75319" y2="9.50468" gradientUnits="userSpaceOnUse">
<stop stop-color="#0082FB"/>
<stop offset="1" stop-color="#0064E0"/>
</linearGradient>
</defs>
</svg>
