<svg width="24" height="24" viewBox="0 0 24 24" fill="none" xmlns="http://www.w3.org/2000/svg">
<path d="M12 23C18.0751 23 23 18.0751 23 12C23 5.92487 18.0751 1 12 1C5.92487 1 1 5.92487 1 12C1 18.0751 5.92487 23 12 23Z" fill="white"/>
<path d="M12 1C5.92487 1 1 5.92487 1 12C1 16.6626 3.89712 20.6461 7.9893 22.2486C7.88971 21.3794 7.80823 20.0395 8.02551 19.0889C8.22469 18.2288 9.31111 13.6206 9.31111 13.6206C9.31111 13.6206 8.98519 12.9597 8.98519 11.9909C8.98519 10.4609 9.87243 9.32017 10.977 9.32017C11.9185 9.32017 12.3712 10.0263 12.3712 10.8683C12.3712 11.8099 11.7737 13.2222 11.4568 14.535C11.1942 15.6305 12.0091 16.5268 13.0864 16.5268C15.042 16.5268 16.5449 14.4626 16.5449 11.493C16.5449 8.85844 14.6527 7.02058 11.9457 7.02058C8.81317 7.02058 6.97531 9.36543 6.97531 11.7918C6.97531 12.7333 7.33745 13.7473 7.79012 14.2996C7.88066 14.4082 7.88971 14.5078 7.86255 14.6165C7.78107 14.9605 7.59095 15.7119 7.55473 15.8658C7.50947 16.065 7.39177 16.1103 7.18354 16.0107C5.80741 15.3679 4.94733 13.3671 4.94733 11.7465C4.94733 8.27901 7.4642 5.09218 12.2173 5.09218C16.0288 5.09218 18.9984 7.80823 18.9984 11.4477C18.9984 15.2412 16.6082 18.2922 13.2947 18.2922C12.1811 18.2922 11.1309 17.7128 10.7778 17.0247C10.7778 17.0247 10.2255 19.1251 10.0897 19.6412C9.84527 20.6008 9.17531 21.7959 8.72263 22.5292C9.75473 22.8461 10.8412 23.0181 11.9819 23.0181C18.0568 23.0181 22.9819 18.093 22.9819 12.0181C23 5.9251 18.0749 1 12 1Z" fill="#E60019"/>
</svg>
