<svg width="24" height="24" viewBox="0 0 24 24" fill="none" xmlns="http://www.w3.org/2000/svg">
<g clip-path="url(#clip0_183_4249)">
<path d="M12 24C18.6274 24 24 18.6274 24 12C24 5.37258 18.6274 0 12 0C5.37258 0 0 5.37258 0 12C0 18.6274 5.37258 24 12 24Z" fill="#FF4500"/>
<path d="M20 12C20 11.0316 19.214 10.2456 18.2456 10.2456C17.7684 10.2456 17.3474 10.4281 17.0386 10.7368C15.8456 9.8807 14.1895 9.3193 12.3649 9.24912L13.1649 5.50175L15.7614 6.04912C15.7895 6.70877 16.3368 7.2421 17.0105 7.2421C17.6982 7.2421 18.2596 6.6807 18.2596 5.99298C18.2596 5.30526 17.6982 4.74386 17.0105 4.74386C16.5193 4.74386 16.0982 5.02456 15.9017 5.44561L12.9965 4.82807C12.9123 4.81403 12.8281 4.82807 12.7579 4.87017C12.6877 4.91228 12.6456 4.98245 12.6175 5.06667L11.7333 9.24912C9.86666 9.30526 8.19648 9.85263 6.98947 10.7368C6.68069 10.4421 6.24561 10.2456 5.78245 10.2456C4.81403 10.2456 4.02806 11.0316 4.02806 12C4.02806 12.7158 4.44912 13.3193 5.06666 13.6C5.03859 13.7684 5.02455 13.9509 5.02455 14.1333C5.02455 16.8281 8.15438 19.0035 12.0281 19.0035C15.9017 19.0035 19.0316 16.8281 19.0316 14.1333C19.0316 13.9509 19.0175 13.7825 18.9895 13.614C19.5649 13.3333 20 12.7158 20 12ZM7.99999 13.2491C7.99999 12.5614 8.5614 12 9.24912 12C9.93684 12 10.4982 12.5614 10.4982 13.2491C10.4982 13.9368 9.93684 14.4982 9.24912 14.4982C8.5614 14.4982 7.99999 13.9368 7.99999 13.2491ZM14.9754 16.5474C14.1193 17.4035 12.4912 17.4596 12.014 17.4596C11.5368 17.4596 9.89473 17.3895 9.05262 16.5474C8.92631 16.4211 8.92631 16.2105 9.05262 16.0842C9.17894 15.9579 9.38947 15.9579 9.51578 16.0842C10.0491 16.6175 11.2 16.814 12.0281 16.814C12.8561 16.814 13.993 16.6175 14.5403 16.0842C14.6667 15.9579 14.8772 15.9579 15.0035 16.0842C15.1017 16.2246 15.1017 16.4211 14.9754 16.5474ZM14.7509 14.4982C14.0632 14.4982 13.5017 13.9368 13.5017 13.2491C13.5017 12.5614 14.0632 12 14.7509 12C15.4386 12 16 12.5614 16 13.2491C16 13.9368 15.4386 14.4982 14.7509 14.4982Z" fill="white"/>
</g>
<defs>
<clipPath id="clip0_183_4249">
<rect width="24" height="24" fill="white"/>
</clipPath>
</defs>
</svg>
