<svg width="24" height="24" viewBox="0 0 24 24" fill="none" xmlns="http://www.w3.org/2000/svg">
<g clip-path="url(#clip0_183_4237)">
<path d="M9.11911 0.350322L9.38845 1.44131C8.32691 1.70367 7.31091 2.12432 6.3746 2.68912L5.79842 1.72428C6.82904 1.10015 7.94881 0.63684 9.11911 0.350322ZM14.8809 0.350322L14.6115 1.44131C15.6731 1.70367 16.6891 2.12432 17.6254 2.68912L18.2084 1.72428C17.1751 1.1007 16.0531 0.637446 14.8809 0.350322ZM1.72427 5.79503C1.10072 6.82716 0.637457 7.94795 0.350307 9.11913L1.44129 9.38846C1.70365 8.32693 2.1243 7.31093 2.68911 6.37461L1.72427 5.79503ZM1.12423 12C1.12414 11.4545 1.16517 10.9097 1.24696 10.3704L0.135519 10.1999C-0.0451731 11.392 -0.0451731 12.6046 0.135519 13.7967L1.24696 13.6297C1.1653 13.0903 1.12427 12.5455 1.12423 12ZM18.2016 22.2723L17.6254 21.3109C16.6906 21.8762 15.6756 22.2969 14.615 22.5587L14.8843 23.6497C16.0532 23.3604 17.1716 22.8961 18.2016 22.2723ZM22.8758 12C22.8757 12.5455 22.8347 13.0903 22.753 13.6297L23.8645 13.7967C24.0452 12.6046 24.0452 11.392 23.8645 10.1999L22.753 10.3704C22.8348 10.9097 22.8759 11.4545 22.8758 12ZM23.6497 14.8775L22.5587 14.6082C22.297 15.671 21.8763 16.6882 21.3109 17.6254L22.2757 18.205C22.8999 17.172 23.3632 16.0499 23.6497 14.8775ZM13.6297 22.7531C12.5494 22.9167 11.4506 22.9167 10.3703 22.7531L10.2033 23.8645C11.3943 24.0452 12.6057 24.0452 13.7967 23.8645L13.6297 22.7531ZM20.7552 18.4505C20.1072 19.3292 19.3302 20.1051 18.4505 20.7518L19.1187 21.6587C20.0876 20.9454 20.9449 20.0916 21.6621 19.1255L20.7552 18.4505ZM18.4505 3.24485C19.3302 3.89279 20.1072 4.66977 20.7552 5.54955L21.6621 4.87451C20.9474 3.90756 20.0925 3.05263 19.1255 2.33796L18.4505 3.24485ZM3.24483 5.54955C3.89278 4.66977 4.66976 3.89279 5.54954 3.24485L4.87449 2.33796C3.90754 3.05263 3.05262 3.90756 2.33795 4.87451L3.24483 5.54955ZM22.2757 5.79503L21.3109 6.37461C21.8762 7.30945 22.2969 8.3244 22.5587 9.38506L23.6497 9.11572C23.3625 7.94563 22.8992 6.82595 22.2757 5.79503ZM10.3703 1.24698C11.4506 1.08331 12.5494 1.08331 13.6297 1.24698L13.7967 0.135534C12.6057 -0.0451779 11.3943 -0.0451779 10.2033 0.135534L10.3703 1.24698ZM3.82101 21.9587L1.49925 22.4974L2.04134 20.1756L0.946941 19.9199L0.404856 22.2417C0.370939 22.3856 0.365734 22.5348 0.389539 22.6808C0.413344 22.8267 0.465692 22.9666 0.543588 23.0923C0.621485 23.218 0.723402 23.3271 0.843508 23.4134C0.963615 23.4997 1.09956 23.5615 1.24355 23.5952C1.41196 23.6327 1.58655 23.6327 1.75495 23.5952L4.07671 23.0599L3.82101 21.9587ZM1.17878 18.9176L2.27658 19.1698L2.65161 17.5606C2.10394 16.642 1.69604 15.6469 1.44129 14.6082L0.350307 14.8775C0.595705 15.8718 0.966907 16.8307 1.45493 17.7311L1.17878 18.9176ZM6.42915 21.3518L4.81994 21.7268L5.07564 22.8246L6.25868 22.5485C7.15838 23.038 8.11751 23.4093 9.11229 23.6531L9.38163 22.5621C8.34612 22.3041 7.35459 21.8939 6.43938 21.345L6.42915 21.3518ZM12 2.24932C6.61325 2.25273 2.25272 6.62009 2.25272 12.0034C2.25568 13.837 2.77433 15.6328 3.74941 17.1856L2.81185 21.1882L6.81099 20.2506C11.3693 23.1178 17.3902 21.7507 20.2574 17.1958C23.1247 12.641 21.7609 6.62009 17.2061 3.74943C15.6467 2.76884 13.842 2.24882 12 2.24932Z" fill="#3A76F0"/>
</g>
<defs>
<clipPath id="clip0_183_4237">
<rect width="24" height="24" fill="white"/>
</clipPath>
</defs>
</svg>
