<svg width="24" height="24" viewBox="0 0 24 24" fill="none" xmlns="http://www.w3.org/2000/svg">
<g clip-path="url(#clip0_183_4199)">
<path d="M23.9132 17.4577C23.7478 17.0042 23.4291 16.759 23.0675 16.5629C23.0001 16.5261 22.9388 16.4894 22.8836 16.4648C22.7733 16.4097 22.663 16.3545 22.5527 16.2994C21.425 15.6988 20.5425 14.9511 19.9358 14.0563C19.7642 13.805 19.611 13.5354 19.4884 13.2596C19.4332 13.1125 19.4394 13.0267 19.4761 12.947C19.5129 12.8857 19.5619 12.8367 19.6232 12.7938C19.8193 12.6651 20.0155 12.5364 20.1503 12.4506C20.3893 12.2913 20.5854 12.1687 20.708 12.0829C21.1676 11.7581 21.4924 11.4149 21.6947 11.0288C21.9827 10.4895 22.0195 9.85822 21.7989 9.28826C21.4924 8.47929 20.7325 7.98287 19.8071 7.98287C19.611 7.98287 19.421 8.00126 19.2249 8.04416C19.1758 8.05641 19.1207 8.06867 19.0716 8.08093C19.0778 7.52936 19.0655 6.94714 19.0165 6.37105C18.8449 4.35474 18.134 3.30063 17.3985 2.46101C16.9266 1.93395 16.3751 1.48657 15.7561 1.13724C14.6407 0.499864 13.3721 0.175049 11.9931 0.175049C10.6142 0.175049 9.35171 0.499864 8.2363 1.13724C7.61732 1.48657 7.06574 1.93395 6.59384 2.46101C5.85841 3.30063 5.15363 4.36087 4.9759 6.37105C4.92687 6.94714 4.91461 7.52936 4.92074 8.08093C4.87171 8.06867 4.82268 8.05641 4.76752 8.04416C4.57754 8.00126 4.38142 7.98287 4.19144 7.98287C3.26602 7.98287 2.50607 8.48541 2.19965 9.28826C1.97902 9.85822 2.01579 10.4895 2.30383 11.0288C2.50607 11.4149 2.83089 11.7581 3.29053 12.0829C3.41311 12.1687 3.60309 12.2913 3.84824 12.4506C3.97694 12.5364 4.16692 12.659 4.35691 12.7816C4.42432 12.8245 4.47948 12.8796 4.52238 12.947C4.55915 13.0267 4.56528 13.1125 4.50399 13.2718C4.38142 13.5415 4.23434 13.805 4.06274 14.0502C3.46826 14.9204 2.61026 15.662 1.51937 16.2565C0.943285 16.5629 0.342683 16.7651 0.085282 17.4577C-0.104704 17.9786 0.0178675 18.5669 0.502026 19.0695C0.679755 19.2533 0.888127 19.4127 1.11489 19.5353C1.58679 19.7927 2.08933 19.9949 2.61639 20.1359C2.7267 20.1665 2.82476 20.2094 2.91669 20.2707C3.09442 20.4239 3.0699 20.6568 3.30279 21C3.41923 21.1777 3.57245 21.3309 3.74405 21.4535C4.24047 21.7967 4.79817 21.8151 5.38651 21.8396C5.9197 21.858 6.5203 21.8825 7.21283 22.1093C7.50087 22.2012 7.79505 22.3851 8.13825 22.5996C8.96561 23.1082 10.0933 23.8008 11.987 23.8008C13.8807 23.8008 15.0145 23.1021 15.848 22.5934C16.1912 22.3851 16.4854 22.2012 16.7612 22.1093C17.4476 21.8825 18.0543 21.858 18.5875 21.8396C19.1758 21.8151 19.7335 21.7967 20.23 21.4535C20.4383 21.3064 20.6099 21.1226 20.7325 20.9019C20.9041 20.6139 20.898 20.4116 21.0573 20.2707C21.1431 20.2094 21.2412 20.1665 21.3392 20.142C21.8663 20.001 22.3811 19.7988 22.8591 19.5353C23.0981 19.4066 23.3188 19.235 23.5026 19.0327L23.5087 19.0266C23.9868 18.5363 24.1032 17.9602 23.9132 17.4577ZM22.234 18.3586C21.2105 18.9224 20.5241 18.8611 19.9971 19.2043C19.5436 19.4924 19.8132 20.1175 19.4884 20.3442C19.0839 20.62 17.895 20.3258 16.3628 20.8345C15.0942 21.2513 14.2914 22.4586 12.0115 22.4586C9.73168 22.4586 8.94722 21.2574 7.66022 20.8345C6.12807 20.3258 4.93912 20.6261 4.53464 20.3442C4.20982 20.1175 4.47335 19.4924 4.02596 19.2043C3.49278 18.8611 2.8125 18.9224 1.78903 18.3586C1.13327 17.997 1.50711 17.7764 1.72162 17.6722C5.43554 15.8765 6.03001 13.1002 6.05453 12.8919C6.08517 12.6406 6.12194 12.4445 5.84616 12.1932C5.58263 11.9481 4.40594 11.2188 4.07499 10.992C3.53568 10.612 3.29666 10.2382 3.47439 9.77242C3.59696 9.45373 3.89726 9.33116 4.20982 9.33116C4.30788 9.33116 4.40594 9.34342 4.50399 9.3618C5.09847 9.4905 5.67456 9.78468 6.0055 9.87048C6.0484 9.88273 6.08517 9.88886 6.12807 9.88886C6.3058 9.88886 6.36709 9.79693 6.35483 9.59469C6.31806 8.94506 6.22613 7.68257 6.33031 6.49975C6.47127 4.87568 6.9922 4.0667 7.61732 3.35579C7.91762 3.01259 9.32106 1.52947 12.0115 1.52947C14.702 1.52947 16.1054 3.00646 16.4057 3.34966C17.0308 4.06057 17.5518 4.86955 17.6927 6.49362C17.7969 7.67644 17.705 8.93893 17.6621 9.58856C17.6498 9.80306 17.7111 9.88273 17.8888 9.88273C17.9317 9.88273 17.9685 9.8766 18.0114 9.86435C18.3423 9.78467 18.9184 9.48438 19.5129 9.35567C19.611 9.33116 19.709 9.32503 19.8071 9.32503C20.1196 9.32503 20.4199 9.4476 20.5425 9.76629C20.7202 10.2321 20.4812 10.6059 19.9419 10.9859C19.6171 11.2126 18.4404 11.9419 18.1707 12.1871C17.895 12.4384 17.9317 12.6345 17.9624 12.8857C17.9869 13.0941 18.5814 15.8704 22.2953 17.666C22.5159 17.7702 22.8836 17.997 22.234 18.3586Z" fill="#707987"/>
</g>
<defs>
<clipPath id="clip0_183_4199">
<rect width="24" height="24" fill="white"/>
</clipPath>
</defs>
</svg>
