<svg width="24" height="24" viewBox="0 0 24 24" fill="none" xmlns="http://www.w3.org/2000/svg">
<path d="M12 1C5.925 1 1 5.9245 1 12C1 18.0755 5.925 23 12 23C18.075 23 23 18.0755 23 12C23 5.9245 18.075 1 12 1ZM17.3667 16.8572C17.19 17.17 16.865 17.346 16.53 17.346C16.3733 17.346 16.2117 17.3068 16.0633 17.2243C14.69 16.4543 13.1933 15.9827 11.6117 15.8225C10.0267 15.6637 8.46167 15.8245 6.95833 16.3045C6.45667 16.4647 5.91667 16.1875 5.75667 15.685C5.59501 15.1817 5.87334 14.6435 6.37667 14.4825C8.13 13.9223 9.95833 13.7318 11.805 13.9195C13.6483 14.1072 15.395 14.6572 16.9983 15.5558C17.46 15.8128 17.625 16.3958 17.3667 16.8572ZM18.6833 13.516C18.5133 13.8432 18.18 14.0308 17.835 14.0308C17.685 14.0308 17.535 13.9965 17.3933 13.9223C15.705 13.043 13.8817 12.4985 11.97 12.3045C10.0433 12.1073 8.135 12.2792 6.295 12.8098C5.78667 12.9542 5.25667 12.6635 5.11167 12.1553C4.96501 11.648 5.25833 11.118 5.76499 10.9715C7.84166 10.3727 9.995 10.1808 12.1633 10.4008C14.3167 10.6202 16.3733 11.2335 18.2783 12.2262C18.745 12.4703 18.9283 13.0477 18.6833 13.516ZM19.16 10.7363C19.0167 10.7363 18.8717 10.704 18.7333 10.636C16.73 9.637 14.575 9.01483 12.3267 8.78667C10.075 8.55633 7.835 8.73433 5.66667 9.31333C5.15667 9.44867 4.63333 9.14617 4.49666 8.63533C4.36 8.12517 4.66334 7.60067 5.17501 7.4645C7.56668 6.82583 10.04 6.63133 12.5217 6.88367C15 7.1345 17.3767 7.82133 19.5867 8.9235C20.06 9.15917 20.2517 9.734 20.0167 10.2063C19.85 10.5425 19.5117 10.7363 19.16 10.7363Z" fill="#707987"/>
</svg>
