<svg width="24" height="24" viewBox="0 0 24 24" fill="none" xmlns="http://www.w3.org/2000/svg">
<path d="M12 23C18.0751 23 23 18.0751 23 12C23 5.92487 18.0751 1 12 1C5.92487 1 1 5.92487 1 12C1 18.0751 5.92487 23 12 23Z" fill="url(#paint0_linear_183_4241)"/>
<path fill-rule="evenodd" clip-rule="evenodd" d="M5.97923 11.8839C9.18595 10.4868 11.3243 9.5657 12.3942 9.12069C15.449 7.85008 16.0838 7.62937 16.4975 7.62208C16.5885 7.62047 16.7919 7.64303 16.9237 7.74997C17.035 7.84027 17.0656 7.96225 17.0803 8.04786C17.0949 8.13347 17.1132 8.3285 17.0987 8.48089C16.9331 10.2203 16.2169 14.4412 15.8524 16.3893C15.6982 17.2136 15.3946 17.49 15.1007 17.5171C14.4619 17.5759 13.9768 17.0949 13.3581 16.6894C12.39 16.0547 11.8431 15.6597 10.9033 15.0404C9.81726 14.3247 10.5213 13.9314 11.1402 13.2885C11.3022 13.1203 14.1167 10.5602 14.1712 10.328C14.178 10.299 14.1843 10.1907 14.12 10.1335C14.0557 10.0764 13.9608 10.0959 13.8923 10.1115C13.7952 10.1335 12.2486 11.1558 9.25241 13.1782C8.81341 13.4797 8.41577 13.6266 8.0595 13.6189C7.66675 13.6104 6.91124 13.3968 6.3496 13.2142C5.66072 12.9903 5.11322 12.8719 5.16089 12.4916C5.18573 12.2935 5.4585 12.091 5.97923 11.8839Z" fill="white"/>
<defs>
<linearGradient id="paint0_linear_183_4241" x1="12" y1="1" x2="12" y2="22.8368" gradientUnits="userSpaceOnUse">
<stop stop-color="#2AABEE"/>
<stop offset="1" stop-color="#229ED9"/>
</linearGradient>
</defs>
</svg>
