<svg width="24" height="24" viewBox="0 0 24 24" fill="none" xmlns="http://www.w3.org/2000/svg">
<path fill-rule="evenodd" clip-rule="evenodd" d="M23 12C23 18.0751 18.0751 23 12 23C5.92487 23 1 18.0751 1 12C1 5.92487 5.92487 1 12 1C18.0751 1 23 5.92487 23 12ZM12.3942 9.12068C11.3243 9.5657 9.18596 10.4868 5.97924 11.8839C5.45851 12.091 5.18574 12.2935 5.1609 12.4916C5.11894 12.8264 5.53815 12.9582 6.10901 13.1377C6.18667 13.1621 6.26712 13.1874 6.34961 13.2142C6.91125 13.3968 7.66676 13.6104 8.05951 13.6189C8.41578 13.6266 8.81342 13.4797 9.25242 13.1782C12.2486 11.1558 13.7952 10.1335 13.8923 10.1115C13.9608 10.0959 14.0557 10.0764 14.12 10.1335C14.1844 10.1907 14.178 10.299 14.1712 10.328C14.1297 10.505 12.4841 12.0349 11.6325 12.8266C11.367 13.0734 11.1787 13.2485 11.1402 13.2885C11.054 13.3781 10.9661 13.4628 10.8816 13.5442C10.3599 14.0472 9.96859 14.4244 10.9033 15.0404C11.3525 15.3364 11.712 15.5812 12.0705 15.8254C12.4622 16.0921 12.8528 16.3581 13.3581 16.6894C13.4869 16.7738 13.6099 16.8614 13.7296 16.9468C14.1854 17.2717 14.5949 17.5636 15.1007 17.5171C15.3946 17.49 15.6983 17.2136 15.8525 16.3893C16.2169 14.4412 16.9332 10.2203 17.0987 8.48089C17.1132 8.3285 17.095 8.13347 17.0803 8.04786C17.0657 7.96225 17.035 7.84027 16.9238 7.74997C16.792 7.64303 16.5885 7.62047 16.4975 7.62208C16.0838 7.62937 15.449 7.85008 12.3942 9.12068Z" fill="#707987"/>
</svg>
