<svg width="24" height="24" viewBox="0 0 24 24" fill="none" xmlns="http://www.w3.org/2000/svg">
<path d="M16.3701 8.94153C17.7849 9.95644 19.518 10.5536 21.3899 10.5536V6.93874C21.0356 6.93882 20.6823 6.90175 20.3357 6.82806V9.67345C18.464 9.67345 16.7311 9.0763 15.316 8.06147V15.4383C15.316 19.1286 12.3351 22.1199 8.65811 22.1199C7.28616 22.1199 6.01098 21.7037 4.9517 20.9898C6.1607 22.2304 7.84675 23 9.71206 23C13.3892 23 16.3703 20.0087 16.3703 16.3182L16.3701 8.94153ZM17.6706 5.29459C16.9476 4.50189 16.4729 3.47747 16.3701 2.34492V1.87998H15.3712C15.6226 3.31944 16.4803 4.54923 17.6706 5.29459ZM7.27736 18.158C6.87341 17.6265 6.65511 16.9762 6.65609 16.3077C6.65609 14.6199 8.01955 13.2514 9.70168 13.2514C10.0152 13.2513 10.3268 13.2995 10.6255 13.3946V9.69897C10.2764 9.65095 9.92404 9.63057 9.57182 9.63804V12.5145C9.27284 12.4194 8.96108 12.3711 8.64751 12.3714C6.96537 12.3714 5.60199 13.7397 5.60199 15.4277C5.60199 16.6213 6.28349 17.6546 7.27736 18.158Z" fill="#FF004F"/>
<path d="M15.316 8.06147C16.7311 9.0763 18.464 9.67345 20.3357 9.67345V6.82806C19.2909 6.60472 18.366 6.05672 17.6706 5.29459C16.4803 4.54923 15.6226 3.31944 15.3712 1.87998H12.7471V16.3181C12.7411 18.0013 11.38 19.3642 9.70149 19.3642C8.71236 19.3642 7.83389 18.891 7.27736 18.158C6.28349 17.6546 5.60199 16.6213 5.60199 15.4277C5.60199 13.7397 6.96537 12.3714 8.64751 12.3714C8.9698 12.3714 9.28043 12.4218 9.57182 12.5145V9.63804C5.95947 9.71294 3.05408 12.6751 3.05408 16.3182C3.05408 18.1367 3.77751 19.7852 4.9517 20.9898C6.01098 21.7037 7.28616 22.1199 8.65811 22.1199C12.3351 22.1199 15.316 19.1286 15.316 15.4383V8.06147Z" fill="#313B49"/>
<path d="M20.3357 6.82806L20.3357 6.05861C19.3935 6.06005 18.4699 5.79533 17.6706 5.29459C18.3782 6.07205 19.3099 6.60812 20.3357 6.82806ZM15.3712 1.87998C15.3472 1.74241 15.3287 1.60395 15.3159 1.46495V1H11.6929V15.4382C11.6871 17.1212 10.326 18.4841 8.64734 18.4841C8.1545 18.4841 7.68944 18.3666 7.27736 18.158C7.83389 18.891 8.71236 19.3642 9.70149 19.3642C11.38 19.3642 12.7411 18.0013 12.7471 16.3181V1.87998H15.3712ZM9.57182 9.63804L9.5718 8.81907C9.26906 8.77754 8.96383 8.7567 8.65824 8.75686C4.98092 8.75678 2 11.7483 2 15.4382C2 17.7517 3.17143 19.7905 4.9517 20.9898C3.77751 19.7852 3.05408 18.1367 3.05408 16.3182C3.05408 12.6751 5.95947 9.71294 9.57182 9.63804Z" fill="#00F2EA"/>
</svg>
