<svg width="24" height="24" viewBox="0 0 24 24" fill="none" xmlns="http://www.w3.org/2000/svg">
<path fill-rule="evenodd" clip-rule="evenodd" d="M2.54648 2.54648C1 4.09295 1 6.58195 1 11.56V12.44C1 17.4181 1 19.907 2.54648 21.4535C4.09295 23 6.58195 23 11.56 23H12.44C17.4181 23 19.907 23 21.4535 21.4535C23 19.907 23 17.4181 23 12.44V11.56C23 6.58195 23 4.09295 21.4535 2.54648C19.907 1 17.4181 1 12.44 1H11.56C6.58195 1 4.09295 1 2.54648 2.54648ZM4.71255 7.69171C4.83172 13.4117 7.69171 16.8492 12.7059 16.8492H12.9901V13.5767C14.8326 13.76 16.2258 15.1075 16.785 16.8492H19.3884C18.6734 14.2459 16.7941 12.8067 15.6208 12.2567C16.7941 11.5784 18.4441 9.92838 18.8383 7.69171H16.4732C15.9599 9.50671 14.4384 11.1567 12.9901 11.3125V7.69171H10.625V14.035C9.15833 13.6684 7.30671 11.89 7.22421 7.69171H4.71255Z" fill="#707987"/>
</svg>
