<svg width="24" height="24" viewBox="0 0 24 24" fill="none" xmlns="http://www.w3.org/2000/svg">
<path d="M1 11.56C1 6.58195 1 4.09295 2.54648 2.54648C4.09295 1 6.58195 1 11.56 1H12.44C17.418 1 19.907 1 21.4535 2.54648C23 4.09295 23 6.58195 23 11.56V12.44C23 17.418 23 19.907 21.4535 21.4535C19.907 23 17.418 23 12.44 23H11.56C6.58195 23 4.09295 23 2.54648 21.4535C1 19.907 1 17.418 1 12.44V11.56Z" fill="#0077FF"/>
<path d="M12.7058 16.8492C7.69167 16.8492 4.83171 13.4117 4.71255 7.69171H7.22421C7.30671 11.89 9.15833 13.6684 10.625 14.035V7.69171H12.9901V11.3125C14.4384 11.1567 15.9599 9.50671 16.4732 7.69171H18.8383C18.4441 9.92838 16.7941 11.5784 15.6208 12.2567C16.7941 12.8067 18.6734 14.2459 19.3884 16.8492H16.785C16.2258 15.1075 14.8326 13.76 12.9901 13.5767V16.8492H12.7058Z" fill="white"/>
</svg>
