<svg width="24" height="24" viewBox="0 0 24 24" fill="none" xmlns="http://www.w3.org/2000/svg">
<g clip-path="url(#clip0_183_4267)">
<path d="M23.5219 6.18541C23.3862 5.67482 23.1188 5.20883 22.7464 4.83407C22.374 4.4593 21.9098 4.18891 21.4001 4.04996C19.5237 3.54541 12.0237 3.54541 12.0237 3.54541C12.0237 3.54541 4.5237 3.54541 2.64733 4.04996C2.13763 4.18891 1.67336 4.4593 1.30098 4.83407C0.928613 5.20883 0.661202 5.67482 0.525515 6.18541C0.023697 8.06996 0.0236969 12 0.0236969 12C0.0236969 12 0.023697 15.93 0.525515 17.8145C0.661202 18.3251 0.928613 18.7911 1.30098 19.1658C1.67336 19.5406 2.13763 19.811 2.64733 19.95C4.5237 20.4545 12.0237 20.4545 12.0237 20.4545C12.0237 20.4545 19.5237 20.4545 21.4001 19.95C21.9098 19.811 22.374 19.5406 22.7464 19.1658C23.1188 18.7911 23.3862 18.3251 23.5219 17.8145C24.0237 15.93 24.0237 12 24.0237 12C24.0237 12 24.0237 8.06996 23.5219 6.18541Z" fill="#FF0302"/>
<path d="M9.56917 15.5686V8.43135L15.8419 12L9.56917 15.5686Z" fill="#FEFEFE"/>
</g>
<defs>
<clipPath id="clip0_183_4267">
<rect width="24" height="24" fill="white"/>
</clipPath>
</defs>
</svg>
