<svg width="100" height="60" xmlns="http://www.w3.org/2000/svg"><linearGradient id="a" gradientUnits="userSpaceOnUse" x1="50" y1=".646" x2="50" y2="60.646" gradientTransform="matrix(1 0 0 -1 0 60.646)"><stop offset="0" stop-color="#262626"/><stop offset="1"/></linearGradient><rect fill="url(#a)" width="100" height="60" rx="4"/><path fill="#FFF" d="M43.3 17.5h4.6v26h-4.6v-26zm8.6 8.8h4.6v17.2h-4.6V26.3zm25.4 17.2l-7-9.1 6.4-8.1h-5.5L65 34.2V17.5h-4.7v26H65v-8.9l6.2 8.9h6.1zM31.5 26.1c-1.5 0-2.9.4-4.2 1v-9.6h-4.6v17.4c0 4.9 3.9 8.8 8.8 8.8s8.8-3.9 8.8-8.8-4-8.8-8.8-8.8zm0 13c-2.3 0-4.2-1.9-4.2-4.2s1.9-4.2 4.2-4.2 4.2 1.9 4.2 4.2c-.1 2.3-1.9 4.2-4.2 4.2z"/><circle fill="#e83e49" cx="36" cy="20.4" r="4.1"/></svg>