<svg width="100" height="60" xmlns="http://www.w3.org/2000/svg"><g fill="none" fill-rule="evenodd"><rect fill="#006" width="100" height="60" rx="4"/><path d="M57.015 30c0 10.922-8.912 19.775-19.905 19.775S17.205 40.922 17.205 30c0-10.92 8.912-19.774 19.905-19.774S57.015 19.08 57.015 30" fill="#339"/><path d="M63.833 10.226a19.907 19.907 0 00-15.372 7.211h4.021c.55.665 1.057 1.363 1.518 2.095h-7.056c-.423.672-.807 1.37-1.147 2.094h9.35c.318.678.6 1.376.842 2.092H44.953c-.23.684-.422 1.382-.577 2.095h12.19c.294 1.35.449 2.75.449 4.187 0 2.196-.36 4.309-1.026 6.282H44.953c.243.717.525 1.416.843 2.094h9.35A19.754 19.754 0 0154 40.47h-7.055c.46.73.968 1.43 1.517 2.093h4.02a19.784 19.784 0 01-2.01 2.094 19.904 19.904 0 0013.362 5.118c10.993 0 19.904-8.853 19.904-19.775 0-10.92-8.911-19.774-19.904-19.774" fill="#06C"/><path d="M81.084 41.023a.64.64 0 01.643-.638.64.64 0 01.642.638.64.64 0 01-.642.639.641.641 0 01-.643-.64zm.643.485a.486.486 0 000-.97.486.486 0 100 .97zm-.087-.205h-.131v-.56h.238c.05 0 .1 0 .144.028.046.03.072.084.072.14a.154.154 0 01-.098.145l.104.247h-.147l-.085-.222h-.097v.222zm0-.318h.073c.027 0 .056.002.08-.01a.077.077 0 00.033-.065.072.072 0 00-.032-.057c-.023-.014-.06-.01-.084-.01h-.07v.142z" fill="#06C"/><path d="M35.962 25.473c-.177.776-.27 1.215-.512 2.16-1.496-.63-3.503-.96-5.043-.005-1.453.92-1.944 2.353-1.838 3.94.107.765.684 1.51 1.497 1.835 1.41.516 2.754.327 4.251-.433-.213.956-.373 1.707-.56 2.39-1.795.498-3.499.662-5.294.07-1.603-.555-2.907-1.99-3.013-3.537-.364-2.486.833-5.029 3.27-6.196 2.264-1.012 4.849-.836 7.242-.224m25.364 8.834c-.473.471-1.277 1.502-3.463 1.502-1.99 0-3.387-1.458-2.68-4.732l.824-3.855h3.037l-.824 3.855c-.28 1.311-.214 2.309 1.127 2.309 1.58 0 2.053-.95 2.351-2.31-.002.003.825-3.854.825-3.854h3.168l-1.363 6.196a23.62 23.62 0 00-.389 2.256h-2.851l.238-1.367m5.374-4.412c0 1.072.708 1.805 2.317 2.352 1.243.431 1.438.558 1.438.933 0 .535-.555.762-1.752.762-.912 0-1.76-.09-2.74-.325 0 0-.385 1.753-.424 1.953.852.15 2.328.24 3.185.24 3.216 0 4.707-.894 4.707-2.82 0-1.154-.625-1.833-2.15-2.353-1.287-.42-1.43-.516-1.43-.917 0-.45.508-.687 1.497-.687.595 0 1.427.05 2.202.13l.427-1.96a27.709 27.709 0 00-2.689-.169c-3.413 0-4.6 1.305-4.589 2.861M37.12 27.223h3.178l-1.81 8.451h-3.179l1.811-8.451m18.154-.036c-2.241-.295-2.88.8-3.482 1.343.071-.44.204-.87.177-1.308H49.05c-.401 2.618-1.114 5.266-1.672 7.883l-.146.568h3.305c.377-1.716.815-4.307 1.32-5.091.506-.783 1.346-1.41 2.45-1.033l.967-2.362m-6.929 0c-2.24-.295-2.88.8-3.482 1.343.072-.44.204-.87.178-1.308h-2.92c-.4 2.618-1.114 5.266-1.671 7.883l-.146.568h3.304c.378-1.716.816-4.307 1.321-5.091.505-.783 1.345-1.41 2.448-1.033l.968-2.362" fill="#006"/><path d="M74.405 34.416c0-.353.288-.639.643-.639.355 0 .643.286.643.64a.64.64 0 01-.643.638.64.64 0 01-.643-.639zm.643.486c.27 0 .489-.218.489-.486a.487.487 0 00-.489-.485c-.27 0-.489.217-.489.485s.22.486.49.486zm-.087-.206h-.132v-.561h.239c.05 0 .1 0 .144.03.047.03.072.084.072.139a.153.153 0 01-.098.145l.104.247h-.146l-.086-.222h-.097v.222zm0-.318h.073c.027 0 .057.002.08-.01a.076.076 0 00.033-.065.075.075 0 00-.03-.058c-.024-.012-.061-.01-.086-.01h-.07v.143zm-38.377-9.523c-.178.777-.271 1.216-.511 2.16-1.497-.63-3.504-.96-5.044-.005-1.453.919-1.943 2.352-1.838 3.94.108.765.684 1.51 1.497 1.835 1.41.516 2.754.327 4.251-.433-.213.956-.373 1.707-.56 2.39-1.794.498-3.499.662-5.293.07-1.604-.554-2.908-1.989-3.014-3.537-.364-2.486.833-5.03 3.27-6.196 2.264-1.012 4.848-.837 7.242-.224m25.364 8.835c-.474.47-1.278 1.5-3.463 1.5-1.99 0-3.254-1.457-2.547-4.731l.824-3.854h3.037l-.825 3.854c-.28 1.311-.213 2.31 1.128 2.31 1.579 0 2.052-.95 2.35-2.31-.002.002.825-3.854.825-3.854h3.037l-1.364 6.196a23.74 23.74 0 00-.388 2.256H61.71l.238-1.367m5.373-4.413c0 1.072.708 1.805 2.319 2.352 1.243.431 1.437.558 1.437.933 0 .535-.555.762-1.752.762-.912 0-1.759-.09-2.74-.325 0 0-.385 1.752-.425 1.953.853.15 2.328.239 3.186.239 3.216 0 4.707-.893 4.707-2.82 0-1.153-.625-1.831-2.151-2.351-1.287-.42-1.43-.518-1.43-.918 0-.449.51-.687 1.498-.687.594 0 1.428.05 2.202.13l.426-1.96a27.696 27.696 0 00-2.688-.17c-3.413 0-4.6 1.306-4.589 2.863m-29.447-2.673h3.047l-1.811 8.452h-3.046l1.81-8.452m18.022-.035c-2.241-.295-2.88.798-3.483 1.342.072-.44.205-.87.178-1.307h-2.786c-.402 2.617-1.115 5.265-1.672 7.882l-.146.568h3.172c.378-1.716.816-4.307 1.321-5.09.505-.784 1.345-1.41 2.448-1.033l.968-2.363m-6.929.001c-2.24-.295-2.88.798-3.482 1.342.072-.44.204-.87.177-1.307h-2.786c-.401 2.617-1.114 5.265-1.672 7.882l-.146.568h3.172c.378-1.716.816-4.307 1.322-5.09.504-.784 1.344-1.41 2.447-1.033l.968-2.363" fill="#FFF"/></g></svg>