<svg width="100" height="60" xmlns="http://www.w3.org/2000/svg"><g fill="none" fill-rule="evenodd"><rect fill="#FFF" width="100" height="60" rx="4"/><path d="M24.994 21.156c-4.919 0-8.898 3.96-8.898 8.856 0 .984.17 1.92.459 2.808h2.652v-7.44l5.787 5.76 5.788-5.76v7.44h2.652a9 9 0 00.458-2.808c0-4.896-3.979-8.856-8.898-8.856z" fill="#F60"/><path d="M23.668 32.436l-2.532-2.52v4.68H17.4a8.922 8.922 0 007.595 4.248 8.892 8.892 0 007.596-4.248h-3.738v-4.68l-2.507 2.52-1.327 1.32-1.35-1.32zm59.078-4.44c-.747-.768-1.664-1.128-2.7-1.128-.7 0-1.351.168-1.93.528a3.659 3.659 0 00-1.422 1.416 3.9 3.9 0 00-.507 1.944c0 1.056.362 1.968 1.11 2.736.747.768 1.663 1.152 2.773 1.152a3.742 3.742 0 002.724-1.128c.748-.744 1.11-1.656 1.11-2.736-.025-1.104-.386-2.04-1.158-2.784zm-.989 4.536c-.482.48-1.036.72-1.712.72a2.448 2.448 0 01-1.567-.552c-.579-.48-.892-1.128-.892-1.944 0-.744.241-1.344.7-1.824.457-.48 1.036-.72 1.735-.72.675 0 1.254.24 1.736.72.483.48.724 1.08.724 1.776 0 .744-.241 1.344-.724 1.824zm-8.053-1.368c.482-.168.868-.432 1.109-.768.24-.336.361-.768.361-1.272 0-.48-.12-.912-.337-1.272-.217-.36-.507-.6-.892-.768-.386-.168-.989-.24-1.833-.24h-2.725v7.752h1.495v-3.288h1.302l1.76 3.288h1.616l-1.856-3.432zm-.242-1.464c-.168.12-.265.192-.747.192h-1.857v-1.584h1.809c.361 0 .434.024.578.072a.788.788 0 01.362.264c.097.12.12.264.12.432 0 .312-.072.504-.265.624zm-10.73-2.832h5.064v1.44h-3.593v1.584h3.593v1.416h-3.593v1.848h3.593v1.464h-5.064zm-7.837 0h1.423l3.352 5.088v-5.088h1.47v7.752h-1.422l-3.328-5.088v5.088h-1.495zm-2.291 1.128c-.747-.744-1.664-1.128-2.7-1.128-.7 0-1.327.168-1.93.528-.602.336-1.06.816-1.422 1.416a3.9 3.9 0 00-.507 1.944c0 1.056.362 1.968 1.11 2.736.723.768 1.663 1.152 2.773 1.152 1.06 0 1.953-.36 2.7-1.128.748-.744 1.11-1.656 1.11-2.736-.025-1.104-.386-2.04-1.134-2.784zm-.988 4.512c-.459.48-1.037.72-1.712.72-.603 0-1.11-.192-1.568-.552-.579-.48-.892-1.128-.892-1.944 0-.72.241-1.344.7-1.8.457-.48 1.036-.72 1.735-.72.676 0 1.254.24 1.737.72.482.48.723 1.08.723 1.776-.024.744-.265 1.32-.723 1.8zm-13.986-5.64h1.447l1.808 5.424 1.833-5.424h1.422l1.303 7.752H44.02l-.844-4.896-1.664 4.896H40.21l-1.64-4.896-.844 4.896H36.28z" fill="#4C4C4C"/></g></svg>