<svg width="100" height="60" xmlns="http://www.w3.org/2000/svg"><g fill="none" fill-rule="evenodd"><rect fill="#FFF" width="100" height="60" rx="4"/><path d="M80.612 8.11l-16.716-.004h-.005c-.012 0-.025.003-.038.003-2.296.07-5.156 1.927-5.677 4.217l-7.905 35.26c-.521 2.311.896 4.191 3.176 4.226h17.56c2.246-.112 4.427-1.947 4.94-4.21l7.905-35.262c.53-2.334-.922-4.23-3.24-4.23" fill="#01798A"/><path d="M50.27 47.586l7.906-35.26c.52-2.29 3.38-4.147 5.677-4.217l-6.646-.005-11.975-.002c-2.303.047-5.2 1.917-5.72 4.224l-7.908 35.26c-.523 2.311.896 4.191 3.174 4.226h18.669c-2.28-.035-3.697-1.915-3.176-4.226" fill="#024381"/><path d="M31.604 47.586l7.907-35.26c.521-2.307 3.418-4.177 5.721-4.224l-15.34-.004c-2.316 0-5.285 1.891-5.814 4.228l-7.908 35.26a4.45 4.45 0 00-.09.633v.654c.154 1.684 1.43 2.911 3.265 2.94h15.433c-2.278-.036-3.697-1.916-3.174-4.227" fill="#DD0228"/><path d="M45.556 33.795h.29c.267 0 .446-.09.53-.269l.755-1.138h2.02l-.421.749h2.422l-.307 1.147h-2.883c-.332.503-.74.74-1.232.712h-1.5l.326-1.2zm-.332 1.644h5.307l-.339 1.246h-2.134l-.325 1.202h2.076l-.338 1.246h-2.077l-.482 1.777c-.12.297.037.43.469.4h1.692l-.314 1.158h-3.25c-.615 0-.826-.355-.633-1.067l.617-2.268h-1.328l.337-1.246h1.328l.325-1.202h-1.268l.337-1.246zm8.47-3.06l-.084.73s1.002-.758 1.91-.758h3.36l-1.285 4.689c-.106.535-.563.802-1.37.802h-3.808l-.892 3.292c-.051.176.022.267.214.267h.749l-.275 1.022h-1.905c-.731 0-1.035-.222-.915-.667l2.52-9.376h1.781zm2.845 1.326H53.54l-.358 1.265s.5-.364 1.334-.377c.832-.013 1.782 0 1.782 0l.241-.888zm-1.086 2.934c.221.03.345-.058.36-.266l.184-.667h-3.003l-.252.933h2.71zm-2.026 1.515h1.731l-.032.755h.46c.234 0 .35-.075.35-.223l.135-.489h1.44l-.193.712c-.162.594-.593.904-1.293.934h-.922l-.005 1.291c-.017.207.169.312.55.312h.867l-.28 1.022h-2.078c-.583.028-.868-.252-.862-.846l.132-3.468zm-20.976-12.02c-.235 1.16-.779 2.05-1.623 2.683-.837.621-1.916.933-3.237.933-1.243 0-2.154-.318-2.736-.957-.403-.454-.604-1.03-.604-1.728 0-.288.034-.598.102-.931l1.408-6.842h2.126l-1.389 6.764c-.042.187-.06.362-.057.519-.002.346.083.63.256.852.252.329.66.492 1.23.492.653 0 1.192-.16 1.61-.486.419-.323.692-.78.815-1.377l1.393-6.764h2.115l-1.409 6.842m8.928-2.692h1.665l-1.305 6.106h-1.661l1.3-6.106m.525-2.224h1.68l-.314 1.482h-1.68l.314-1.482m2.614 7.865c-.435-.42-.655-.985-.657-1.704a4.585 4.585 0 01.089-.86c.197-.992.617-1.78 1.265-2.36.647-.583 1.427-.876 2.34-.876.749 0 1.342.21 1.776.633.435.423.652.996.652 1.723a4.542 4.542 0 01-.095.88c-.193.977-.612 1.755-1.26 2.326-.648.574-1.426.86-2.333.86-.751 0-1.342-.206-1.777-.622m3.173-1.209c.294-.32.504-.807.632-1.454a3.008 3.008 0 00.062-.6c0-.377-.095-.67-.286-.876-.19-.209-.46-.312-.81-.312-.46 0-.836.163-1.13.49-.297.328-.507.822-.64 1.48a7.893 7.893 0 00-.047.302c-.01.101-.013.196-.011.282 0 .374.095.663.286.867.19.204.458.305.812.305.463 0 .839-.161 1.132-.484m13.094 5.973l.402-1.424h2.03l-.088.522s1.037-.522 1.784-.522h2.51l-.4 1.424h-.394l-1.893 6.717h.394l-.375 1.334h-.395l-.164.579h-1.966l.164-.58h-3.878l.378-1.333h.389l1.895-6.717h-.393zm2.19 0l-.517 1.818s.884-.342 1.646-.439c.168-.635.388-1.38.388-1.38h-1.517zm-.756 2.67L61.7 38.42s.98-.486 1.652-.527c.194-.736.388-1.377.388-1.377h-1.522zm.38 4.047l.389-1.381h-1.515l-.391 1.38h1.517zm4.91-8.23h1.907l.081.71c-.012.18.094.267.32.267h.338l-.342 1.203H68.41c-.536.028-.811-.179-.837-.624l-.066-1.556zm-.56 2.58h6.18l-.362 1.291h-1.968l-.337 1.2h1.966l-.365 1.29h-2.19l-.495.755h1.072l.247 1.512c.03.15.162.224.388.224h.333l-.35 1.245H69.89c-.61.03-.926-.176-.952-.621l-.284-1.382-.975 1.47c-.23.415-.585.609-1.063.579h-1.8l.35-1.246h.562c.23 0 .423-.104.596-.312l1.526-2.225h-1.97l.365-1.289h2.134l.34-1.2h-2.137l.365-1.291zM34.41 23.44h1.5l-.171.882.215-.252c.487-.524 1.078-.785 1.776-.785.632 0 1.088.185 1.374.557.281.373.358.887.225 1.547l-.827 4.161h-1.543l.747-3.771c.077-.39.055-.68-.063-.867-.118-.188-.342-.28-.665-.28-.397 0-.731.125-1.003.372-.274.25-.454.596-.542 1.037l-.689 3.51h-1.546l1.211-6.111m17.219 0h1.502l-.17.882.213-.252c.487-.524 1.08-.785 1.776-.785.632 0 1.088.185 1.372.557.28.373.361.887.224 1.547l-.824 4.161h-1.545l.747-3.771c.077-.39.056-.68-.062-.867-.121-.188-.341-.28-.663-.28-.397 0-.73.125-1.006.372-.273.25-.454.596-.54 1.037l-.691 3.51h-1.544l1.21-6.111m7.428-3.787h4.363c.839 0 1.487.192 1.933.568.444.381.667.928.667 1.64v.021c0 .136-.01.289-.022.454a6.79 6.79 0 01-.085.502c-.192.942-.639 1.7-1.328 2.274-.692.572-1.51.86-2.454.86h-2.34l-.723 3.578H57.04l2.015-9.897m1.09 4.598h1.941c.506 0 .907-.118 1.2-.353.29-.236.482-.598.589-1.088.016-.09.027-.172.04-.248.007-.07.015-.142.015-.21 0-.351-.124-.605-.371-.764-.248-.162-.636-.24-1.174-.24h-1.648l-.591 2.903m14.938 6.481c-.64 1.372-1.25 2.172-1.61 2.545-.358.368-1.068 1.224-2.78 1.16l.147-1.048c1.44-.448 2.22-2.464 2.664-3.357l-.53-6.575 1.114-.015h.935l.1 4.125 1.753-4.125h1.773l-3.566 7.29m-4.96-6.792l-.705.488c-.736-.581-1.408-.94-2.706-.334-1.767.826-3.244 7.162 1.622 5.075l.278.332 1.914.05 1.257-5.758-1.66.146m-1.089 3.148c-.307.914-.994 1.519-1.532 1.347-.538-.168-.73-1.05-.418-1.967.307-.916.998-1.519 1.532-1.347.538.168.732 1.05.418 1.967" fill="#FFF"/></g></svg>