<svg width="68" height="68" xmlns="http://www.w3.org/2000/svg">
  <g fill="none" fill-rule="evenodd">
	 <path d="M64.61 16.202A17.595 17.595 0 0 0 51.8 3.391a114.585 114.585 0 0 0-35.596 0A17.595 17.595 0 0 0 3.39 16.202a114.577 114.577 0 0 0 0 35.596 17.595 17.595 0 0 0 12.812 12.811 114.585 114.585 0 0 0 35.596 0A17.595 17.595 0 0 0 64.61 51.798a114.705 114.705 0 0 0 0-35.596z" fill="#2D89EF" fill-rule="nonzero"/>
	 <path d="M33.327 36.329a35.68 35.68 0 0 1-11.09 10.973 4.816 4.816 0 0 1-4.78.123A4.643 4.643 0 0 1 15 43.397a4.638 4.638 0 0 1 2.367-4.08 24.319 24.319 0 0 0 6.088-5.337 27.697 27.697 0 0 0-6.088-5.294c-2.258-1.32-2.998-4.188-1.653-6.405 1.345-2.216 4.266-2.943 6.523-1.622a35.666 35.666 0 0 1 11.09 10.888 4.581 4.581 0 0 1 0 4.782zM49.2 46H37.8c-2.111 0-3.8-1.02-3.8-3s1.71-3 3.8-3h11.4c2.111 0 3.8 1.02 3.8 3s-1.71 3-3.8 3z" fill="#FFF"/>
  </g>
</svg>
