<svg xmlns="http://www.w3.org/2000/svg" width="20" height="15" fill="none"><mask id="a" width="20" height="15" x="0" y="0" maskUnits="userSpaceOnUse"><path fill="#fff" d="M0 0h20v15H0z"/></mask><g mask="url(#a)"><path fill="#5DAA22" fill-rule="evenodd" d="M0 0v15h20V0H0z" clip-rule="evenodd"/><mask id="b" width="20" height="15" x="0" y="0" maskUnits="userSpaceOnUse"><path fill="#fff" fill-rule="evenodd" d="M0 0v15h20V0H0z" clip-rule="evenodd"/></mask><g fill-rule="evenodd" clip-rule="evenodd" mask="url(#b)"><path fill="#F7FCFF" d="M0 0v7.5h20V0H0z"/><path fill="#D21034" d="M9.195 5.61c-.011-.348-.022-.683.41-1.083C10.735 3.53 11.882 2.75 13.164 2c-.26.46-.445 1.314.236 1.368.219.004 2.616-1.064 2.616-1.064-.834.644-1.793 1.542-.68 1.931-1.02.337-1.868 1.43-1.126 2.312-.53-.16-1.226.202-1.35.61.13 0 .36.02.642.044 1.021.09 2.719.238 2.804-.345-.55.285-1.503.169-1.532-.648.007-.7 1-1.093 1.847-.569l.129-.283.13-.287-.11.015c-.267.037-.517.072-.799.002.651-.654 1.264-1.298 1.818-2.023-.122.904 0 2.215.212 2.643a1.305 1.305 0 0 1-.686-.63l-.15.495-.15.495c.485 1.043-.034 2.59-.308 3.405-.085.254-.147.438-.147.513-.223.088-.386-.05-.549-.188a1.126 1.126 0 0 0-.252-.178c.14.385.041.995-.046 1.528-.032.2-.063.39-.08.552a.76.76 0 0 0 .124.481c.01.018.019.032.022.041.133.055.44.204.461.225 0 0 .38.02.356.427-.186-.24-.44-.163-.44-.163-.031.022-.32-.074-.32-.074-.143-.102-.553-.188-.98-.17a3.502 3.502 0 0 0-.684.122c-.006 0-.352.244-.352.244s-.083-.02-.09-.02c-.014 0-.23-.003-.512.189a.735.735 0 0 1 .378-.501c.133-.073.292-.109.391-.13.033-.008.059-.014.076-.02-.115-.04-.334-.099-.488-.084-.04.004-.094.005-.154.007-.218.005-.525.011-.606.152-.006-.165.161-.352.35-.44a.878.878 0 0 1 .266-.067c.048-.006.08-.01.087-.021.038-.07-.089-.18-.128-.214a.087.087 0 0 1-.012-.01c0-.007-.236-.159-.403.013.032-.36.568-.364.621-.311l.157.162.157.162a60.982 60.982 0 0 1 .294.198c.162.075.581.014.793-.224.124-.14.127-.402.128-.535l.001-.055.01-.149c.02-.28.055-.742-.01-.966-.029-.101-.267-.089-.574-.073-.308.016-.685.036-.988-.052-.478-.14-.96-.417-1.252-.586-.147-.085-.246-.142-.272-.14a.419.419 0 0 1-.1.097.605.605 0 0 0-.201.23c-.107.26-.087.628 0 .724 0 0 .752.006.92.1.422.232.396.58.383.758a1.261 1.261 0 0 0-.003.057 15.628 15.628 0 0 1-.626-.226l-.065-.025c-.414.706-1 1.2-1.839 1.43.093.046.278.088.428.123.11.025.201.045.226.06.249.056.424.14.422.387-.166-.197-.329-.192-.46-.095-.178.079-.304-.01-.431-.098-.064-.044-.127-.089-.197-.112-.177-.135-.881-.052-1.082-.027-.25.026-.535.094-.66.244-.063.053-.097.004-.113-.018-.004-.007-.007-.01-.008-.01-.288-.098-.416.17-.416.17-.068-.31.08-.376.236-.42l-.32-.197c-.006-.038-.22-.08-.358.054.012-.282.342-.459.48-.365a.332.332 0 0 1 .416.026.61.61 0 0 0 .531.089.501.501 0 0 0-.39-.312.346.346 0 0 1-.116-.078.683.683 0 0 0-.158-.112c-.153-.069-.346-.07-.437 0 .058-.35.711-.447.973-.04.158.17.402.258.602.291.369-.044.741-.351.977-.546.09-.074.159-.131.201-.152 0 0-.67-.685-1.178-1.038-.474-.33-1.831.31-2.015.397l-.02.01c-.033.307-.264.59-.264.59a2.558 2.558 0 0 0-.132-.28c-.092-.177-.178-.343-.168-.536a5.505 5.505 0 0 1-.607.706 7.201 7.201 0 0 0-.283.3c-.24.26-.363.569-.448.908.18.109.679.204.679.204.218.004.38.132.377.372-.195-.213-.39-.08-.39-.08-.16.14-.363.076-.558 0-.168-.191-.982-.25-1.37-.021-.275.265-.657.29-.762.128 0 0-.172-.006-.473.102.077-.495.365-.36.365-.36a.382.382 0 0 1 0-.06c0-.018.002-.035 0-.061l-.11-.04c-.194-.091-.434-.069-.543.026.074-.324.358-.326.57-.291a.456.456 0 0 0 .063-.145l.02-.058-.03-.033c-.11-.119-.233-.252-.368-.133.13-.555.771-.13.994.017l.05.034c.456.161 1.64-1.686 1.698-1.814-.337-.016-.716.02-.98.118-.075.243-.208.37-.365.52l-.08.076c.005-.697-.307-1.049-.754-1.554l-.076-.085c-.559-.388-.806-1.17-.85-1.424-.087.238-.15.31-.168.331l-.006.008c-.124.143-.505.104-.42.047.054-.01.305-.407.305-.407l.109-1.063c-.066-.03-.096-.132-.135-.27a2.496 2.496 0 0 0-.096-.289c-.12-.282-.342-.588-.435-.614.177-.033.41-.036.557.14.128.153.214.397.281.589.039.11.071.204.103.254-.114-.389-.056-.651.057-.99v-.046c.002-.155.003-.25-.153-.347.313-.008.396.234.421.305a.09.09 0 0 0 .008.02c.136.188.08.342.035.465-.03.082-.055.15-.016.206.023-.018.043-.045.063-.072.04-.054.079-.108.149-.097.087-.102.153-.212.147-.44.22.133.167.329.096.52.013.288-.025.367-.205.468-.18.114-.214.208-.193.346.039.044.065.136.099.255.054.189.127.445.299.68.253.348.66.667.87.831.066.052.112.089.128.106.027-.043.135-.132.237-.216.062-.051.122-.1.16-.137-.126-.105-.04-1.043.216-1.899.246-.82.659-1.56.738-1.571 0-.007-.109-.272-.109-.272s-.52.083-.614.59a2.28 2.28 0 0 1-.128-.264s-.454.59-.46.576c-.18-.116-.099-.4-.099-.4-.087-.1-.105-.22-.124-.34-.01-.059-.018-.118-.036-.175a37.561 37.561 0 0 1-.611-.034 37.846 37.846 0 0 0-.61-.034s.166.325.166.318C3.3 4.7 2.452 3.933 2.288 3.28c.428.356.884.454 1.369.558l.02.004a127.649 127.649 0 0 0-.39.204c1.35.123 2.746-.143 2.74-.15-.151-.333-.647-.331-.647-.331l-.02.204s-.617.107-.62.1c-.063-.339-.365-.345-.365-.345a2.365 2.365 0 0 0-.64.017c-.101.012-.202.025-.307.03.392-.521.91-.56 1.427-.6.095-.006.189-.013.282-.023.045-.274.272-.354.538-.393l1.254.067c.161-.225 1.109-.426 1.37-.426-.04.308-.427.646-.572.745-.147.236-.134.26-.078.366l.017.034.148.27c.249.082.43.194.486.367-.27-.034-.465.018-.461.142.004.061.098.1.185.135.041.017.081.033.108.05a.64.64 0 0 1 .213.48.583.583 0 0 1-.212-.079c-.146-.074-.292-.15-.384.045-.066.142.007.335.18.4.316.091.345.549.339.549a.1.1 0 0 1-.01-.004c-.073-.034-.515-.24-.483.18-.002.032-.022.055-.045.082-.042.05-.096.112-.078.263.036.294.082.6.103.665a1185.192 1185.192 0 0 0 1.204-.258c.176-.17.255-.45.237-.752.005-.09.002-.179-.001-.266zm7.063.7c-.183-.206-.372-.276-.529-.274-.23.003-.393.163-.377.283.051.4.818.261.906-.008z"/></g></g></svg>