<svg xmlns="http://www.w3.org/2000/svg" width="20" height="15" fill="none"><path fill="#032EA1" d="M0 0h20v15H0V0z"/><path fill="#E00025" d="M0 3.75h20v7.5H0v-7.5z"/><path fill="#fff" stroke="#000" stroke-linejoin="bevel" stroke-width=".03" d="M7.888 7.069h4.267V8.71H7.888V7.07z"/><path fill="#fff" stroke="#000" stroke-linejoin="bevel" stroke-width=".03" d="M7.888 7.151h4.267v.162H7.888V7.15z"/><path fill="#fff" stroke="#000" stroke-width=".03" d="M6.219 8.794a.349.349 0 0 0 .165-.199h7.241a.349.349 0 0 0 .165.199H6.219z"/><path fill="#fff" fill-rule="evenodd" d="M9.999 4.41c-.09.004-.087.157-.087.157h.17s.003-.157-.083-.157zm-.555 1.995v.206h1.11v-.206c.002-.056.032-.085.06-.11.023-.023.045-.043.045-.077 0 0 .015-.113-.019-.165-.038.15-.113.123-.113.06 0-.046.032-.092.096-.187l.032-.046c.03-.045.011-.176-.026-.225-.015.116-.034.169-.083.169-.03 0-.056-.019-.056-.075 0-.046.02-.078.04-.11.013-.022.026-.044.035-.07a.187.187 0 0 0-.037-.199 2.58 2.58 0 0 0-.009.053c-.01.074-.015.104-.055.104-.095-.027-.013-.16.017-.208l.005-.009c.019-.071-.037-.127-.037-.127-.03.097-.038.108-.075.097-.045-.011-.038-.075.015-.128.034-.033.03-.086-.008-.123-.037.075-.097.064-.09.019l.034-.162h-.045l.015-.116h-.056l.011-.097h-.506l.007.097H9.7l.015.116h-.042l.03.165c-.003.045-.048.049-.086-.022-.037.037-.041.086-.007.123.052.053.06.117.015.128-.038.011-.045.004-.075-.098 0 0-.06.087-.038.128l.007.01c.03.05.11.176.016.207-.04 0-.045-.03-.056-.104a2.713 2.713 0 0 0-.008-.053.188.188 0 0 0-.041.199c.01.024.022.045.034.065.021.034.04.067.04.115 0 .056-.022.075-.052.075-.049 0-.067-.056-.082-.169-.038.049-.056.18-.027.221l.02.03c.072.11.104.158.104.207 0 .063-.071.09-.112-.06-.03.052-.015.165-.015.165 0 .034.022.054.046.076.028.026.059.054.059.111zM9.75 4.77v.003h.488V4.77H9.75zm.087-.099-.012-.1h.338l-.004.1h-.322zm1.05 3.935c0 .079.112.162.187.188H8.956c.075-.027.15-.109.15-.188v-.911l-.094-.128h1.973l-.098.128v.911z" clip-rule="evenodd"/><path fill="#000" d="M9.912 4.567h-.014v.015h.014v-.014zM10 4.41v-.015.015zm.082.157v.015h.015v-.014h-.015zm-.637 2.044H9.43v.015h.015v-.015zm1.11 0v.015h.015v-.015h-.015zm0-.206h-.015.015zm.06-.11.01.01-.01-.01zm.045-.077-.015-.003v.003h.015zm-.019-.165.013-.009-.02-.029-.007.034.014.003zm-.017-.127.013.009-.013-.009zm.032-.046.012.008-.012-.008zm-.026-.225.012-.01-.023-.028-.004.036.015.002zm-.1-.017.014.008-.013-.008zm.036-.07-.014-.005v.001l.014.005zm-.037-.198.01-.01-.02-.022-.005.03.014.002zm-.009.053.015.002-.015-.002zm0 0-.014-.002.014.002zm-.055.104-.005.016h.005v-.016zm.017-.208.012.008-.012-.008zm.005-.009.014.008v-.004l-.014-.004zm-.037-.127.01-.011-.017-.018-.008.024.015.005zm-.075.097.004-.014-.004.014zm.015-.128.01.011-.01-.01zm-.008-.123.01-.01-.014-.016-.01.019.014.007zm-.09.019-.014-.004v.001l.014.003zm.034-.162.015.003.004-.018h-.019v.015zm-.045 0-.015-.002-.002.017h.017v-.015zm.015-.116.015.002.002-.017h-.017v.015zm-.045-.097.015.001.002-.017h-.017v.016zm-.506 0v-.016h-.016v.017l.016-.002zM9.7 4.77v-.015h-.017l.002.017.015-.002zm.015.116v.015h.017l-.002-.017-.015.002zm-.042 0v-.015h-.017l.003.018.014-.003zm.03.165.016.002v-.004l-.015.002zm-.086-.022.014-.007-.01-.018-.014.014.01.01zm-.007.123-.011.01v.001l.01-.01zm.015.128-.004-.015.004.015zm-.075-.098.014-.004-.009-.03-.018.026.013.008zm-.038.128-.013.007.013-.007zm.007.01-.013.008.013-.008zm.016.207v.016l.005-.001-.005-.014zm-.056-.104-.015.002.015-.002zM9.47 5.37l.015-.002-.005-.03-.02.021.01.011zm-.041.199-.014.005.014-.005zm.034.065.013-.008-.013.008zm-.094.021.015-.002-.005-.036-.022.029.012.009zm-.027.221.013-.008-.013.008zm.02.03-.013.008.013-.009zm-.008.147.014-.004-.01-.035-.017.031.013.008zm-.015.165h.015v-.002l-.015.002zm.046.076-.01.011.01-.011zm.366-1.521h-.015l.001.014h.014v-.014zm.488 0v.014h.013l.002-.013-.015-.002zm-.413-.202v-.015H9.81l.002.017.015-.002zm.011.1-.014.002.001.013h.014v-.015zm.327-.1h.015v-.015h-.015v.015zm-.004.1v.015h.014l.001-.014h-.015zm.915 4.123v.015l.005-.03-.005.015zm-2.119 0-.005-.014.005.029v-.015zm.15-1.099h.019l-.007-.009-.012.009zm-.094-.128v-.014h-.03L9 7.575l.012-.008zm1.973 0 .012.01.018-.024h-.03v.014zm-.098.128-.014-.011v.011h.014zm-.975-3.128h.015v-.006a.298.298 0 0 1 .01-.067.128.128 0 0 1 .022-.048.053.053 0 0 1 .04-.021v-.03a.083.083 0 0 0-.063.032.158.158 0 0 0-.029.06.311.311 0 0 0-.01.074v.006h.015zm.17-.014h-.17v.03h.17v-.03zm-.083-.128c.016 0 .028.007.037.019.01.012.017.03.022.048a.298.298 0 0 1 .008.069v.006h.03v-.006a.299.299 0 0 0-.01-.076.16.16 0 0 0-.026-.06.076.076 0 0 0-.061-.03v.03zm-.54 2.186v-.206h-.03v.206h.03zm1.095-.015h-1.11v.03h1.11v-.03zm-.015-.191v.206h.03v-.206h-.03zm.064-.121c-.027.025-.062.057-.064.12l.03.002c.001-.05.027-.075.055-.1l-.02-.022zm.04-.066c0 .027-.015.043-.04.066l.02.021c.024-.021.05-.045.05-.087h-.03zm-.016-.157c.015.022.02.06.02.094l-.001.043-.002.013v.004l.015.003.015.001v-.005l.002-.014.001-.046a.22.22 0 0 0-.024-.11l-.026.017zm-.115.051c0 .02.006.036.016.049.01.012.027.02.044.016.017-.003.033-.015.047-.034a.265.265 0 0 0 .036-.087l-.03-.007a.238.238 0 0 1-.03.077.062.062 0 0 1-.028.022c-.006 0-.011-.001-.016-.007a.045.045 0 0 1-.008-.029h-.03zm.099-.194c-.032.047-.057.083-.073.113a.17.17 0 0 0-.026.082h.03c0-.02.007-.04.022-.068.016-.028.04-.062.072-.11l-.025-.017zm.032-.046-.032.046.025.017.031-.047-.024-.016zm-.026-.208a.24.24 0 0 1 .035.107.283.283 0 0 1 .002.06.092.092 0 0 1-.011.04l.024.017a.12.12 0 0 0 .017-.054.311.311 0 0 0-.002-.067.27.27 0 0 0-.041-.121l-.024.018zm-.07.175a.065.065 0 0 0 .04-.013.094.094 0 0 0 .027-.037.494.494 0 0 0 .03-.132l-.03-.004a.467.467 0 0 1-.028.124.064.064 0 0 1-.018.025.035.035 0 0 1-.022.007v.03zm-.072-.09c0 .03.007.053.02.068a.065.065 0 0 0 .051.022v-.03a.036.036 0 0 1-.028-.012c-.007-.008-.013-.022-.013-.048h-.03zm.042-.119c-.02.033-.042.068-.042.119h.03c0-.041.017-.07.038-.103l-.026-.016zm.034-.066a.316.316 0 0 1-.034.066l.026.016a.31.31 0 0 0 .036-.073l-.028-.009zm-.034-.184c.046.05.06.12.034.183l.028.011a.202.202 0 0 0-.04-.214l-.022.02zm.017.045.008-.053-.03-.004-.008.053.03.004zm0 0-.03-.004.03.004zm-.07.118a.058.058 0 0 0 .032-.009.055.055 0 0 0 .02-.025.334.334 0 0 0 .018-.084l-.03-.004a.34.34 0 0 1-.015.076.025.025 0 0 1-.01.012.028.028 0 0 1-.015.003v.03zm.004-.232c-.015.024-.044.07-.057.116a.121.121 0 0 0-.003.067.07.07 0 0 0 .052.048l.008-.029c-.02-.006-.028-.016-.031-.027a.091.091 0 0 1 .003-.05.482.482 0 0 1 .053-.109l-.025-.016zm.005-.009-.005.01.025.015.006-.01-.026-.015zm-.024-.12-.01.011.001.002a.156.156 0 0 1 .021.031c.01.021.019.05.01.08l.03.008c.01-.04 0-.076-.013-.101a.189.189 0 0 0-.028-.041l-.011.01zm-.08.112a.07.07 0 0 0 .03.004.04.04 0 0 0 .027-.017.144.144 0 0 0 .018-.035l.02-.06-.03-.008a1.05 1.05 0 0 1-.018.057.116.116 0 0 1-.014.028c-.003.004-.005.005-.007.005l-.017-.002-.009.028zm.01-.152a.158.158 0 0 0-.05.088.065.065 0 0 0 .008.04c.007.012.018.02.033.025l.007-.03a.022.022 0 0 1-.014-.01.036.036 0 0 1-.003-.022.129.129 0 0 1 .04-.07l-.022-.021zm-.008-.103c.033.033.034.076.007.103l.021.021c.041-.04.035-.103-.007-.145l-.021.021zm-.095.006a.047.047 0 0 0 .01.039c.008.01.02.015.034.014.027-.001.055-.023.075-.063l-.027-.013c-.018.035-.038.046-.05.046-.005 0-.008-.001-.01-.003-.001-.003-.003-.007-.002-.015l-.03-.005zm.034-.162-.033.161.029.007.034-.162-.03-.006zm-.03.018h.045v-.03h-.045v.03zm0-.133-.015.116.03.004.015-.116-.03-.004zm-.041.017h.056v-.03h-.056v.03zm.015-.013.01-.098-.029-.003-.01.097.029.004zm-.004-.115h-.506v.03h.506v-.03zm-.521.017.007.097.03-.002-.007-.098-.03.003zm-.03.111h.052v-.03H9.7v.03zm.03.1-.015-.117-.03.004.015.116.03-.004zm-.056.016h.04v-.03h-.04v.03zm.044.148-.03-.165-.03.005.03.165.03-.005zm-.114-.013c.02.036.043.059.067.062a.038.038 0 0 0 .034-.01.056.056 0 0 0 .013-.035l-.03-.003c0 .009-.003.014-.005.016s-.004.003-.008.003c-.009-.002-.026-.013-.044-.047l-.027.014zm.017.106a.068.068 0 0 1-.02-.05.082.082 0 0 1 .027-.053l-.021-.02a.112.112 0 0 0-.035.07.098.098 0 0 0 .027.074l.022-.02zm.007.153a.052.052 0 0 0 .034-.025.065.065 0 0 0 .007-.04.158.158 0 0 0-.049-.088l-.02.021a.13.13 0 0 1 .039.07c.001.01 0 .017-.003.022a.022.022 0 0 1-.015.01l.007.03zm-.093-.108a.986.986 0 0 0 .02.06.134.134 0 0 0 .018.036.042.042 0 0 0 .027.016c.01 0 .02-.002.03-.005l-.01-.028a.05.05 0 0 1-.017.003c-.002 0-.004 0-.007-.005a.107.107 0 0 1-.013-.027.957.957 0 0 1-.019-.059l-.029.009zm-.01.116c-.003-.006-.004-.015-.002-.028a.166.166 0 0 1 .013-.038.328.328 0 0 1 .024-.043l.002-.002-.012-.01-.013-.008v.001l-.002.003a.344.344 0 0 0-.041.092.072.072 0 0 0 .005.047l.026-.014zm.006.01-.006-.01-.026.015.007.01.025-.015zm.009.229a.074.074 0 0 0 .05-.049.12.12 0 0 0-.002-.066c-.013-.045-.042-.09-.057-.114l-.025.015a.457.457 0 0 1 .053.107.09.09 0 0 1 .003.05c-.004.011-.013.022-.032.028l.01.029zm-.076-.117c.006.036.01.065.018.084.005.01.011.02.02.025a.06.06 0 0 0 .033.009v-.03a.029.029 0 0 1-.016-.004.026.026 0 0 1-.01-.012.343.343 0 0 1-.015-.076l-.03.004zm-.008-.053.008.053.03-.004a2.788 2.788 0 0 0-.008-.053l-.03.004zm-.012.191a.172.172 0 0 1 .038-.182l-.022-.022a.203.203 0 0 0-.044.215l.028-.01zm.033.063a.393.393 0 0 1-.033-.063l-.028.011a.38.38 0 0 0 .035.067l.026-.015zm.043.123a.22.22 0 0 0-.043-.123l-.026.015c.021.035.039.065.039.108h.03zm-.068.09a.06.06 0 0 0 .05-.022.112.112 0 0 0 .018-.068h-.03c0 .026-.006.041-.012.049-.006.007-.014.01-.026.01v.03zm-.097-.182c.007.056.016.1.03.13a.097.097 0 0 0 .027.038c.011.01.025.014.04.014v-.03A.034.034 0 0 1 9.43 5.8a.068.068 0 0 1-.018-.026.478.478 0 0 1-.027-.122l-.03.004zm0 .21a.08.08 0 0 1-.01-.037.27.27 0 0 1 .001-.06.243.243 0 0 1 .036-.106l-.024-.018a.27.27 0 0 0-.042.12.3.3 0 0 0-.001.067c.002.02.007.039.016.052l.025-.018zm.02.03-.019-.029-.025.016.02.03.024-.017zm.107.215a.184.184 0 0 0-.027-.087c-.017-.033-.044-.073-.08-.128l-.025.017c.037.055.062.094.079.125a.155.155 0 0 1 .023.074h.03zm-.142-.056a.29.29 0 0 0 .037.087c.014.02.03.031.047.034a.044.044 0 0 0 .043-.016.076.076 0 0 0 .015-.048h-.03a.047.047 0 0 1-.008.029c-.005.005-.01.007-.015.006-.006-.001-.016-.007-.027-.023a.25.25 0 0 1-.033-.076l-.029.007zm0 .162.015-.002v-.005a.44.44 0 0 1 0-.108.129.129 0 0 1 .013-.043l-.026-.015a.158.158 0 0 0-.017.053.372.372 0 0 0-.002.102.479.479 0 0 0 .002.018v.001l.015-.002zm.056.065c-.025-.023-.041-.039-.041-.066h-.03c0 .042.027.067.05.088l.02-.022zm.064.122c0-.064-.036-.096-.064-.122l-.02.022c.028.026.054.05.054.1h.03zm.277-1.634v.003l.03-.003V4.77l-.03.002zm.015.016h.488v-.03H9.75v.03zm.503-.013v-.002l-.03-.004v.003l.03.003zm-.503.011h.488v-.03h-.488v.03zm.06-.212.012.1.03-.003-.012-.1-.03.003zm.353-.017h-.338v.03h.338v-.03zm.011.116.004-.1-.03-.001-.004.1h.03zm-.338.014h.323v-.03h-.322v.03zM11.08 8.78a.37.37 0 0 1-.117-.071c-.037-.034-.06-.07-.06-.103h-.03c0 .046.032.09.07.125a.402.402 0 0 0 .127.077l.01-.028zm-2.124.029h2.119v-.03H8.956v.03zm.135-.203a.169.169 0 0 1-.043.104.23.23 0 0 1-.097.07l.01.028a.26.26 0 0 0 .11-.079.194.194 0 0 0 .05-.123h-.03zm0-.911v.911h.03v-.911h-.03zm-.09-.119.093.128.024-.018-.093-.127L9 7.576zm1.984-.023H9.012v.03h1.973v-.03zm-.086.151.098-.127-.024-.019-.097.128.023.018zm.004.902v-.911h-.03v.911h.03z"/><path fill="#fff" fill-rule="evenodd" d="M9.492 7.973h-.135v1h.136v-1zm1.14 0h-.134v1h.135v-1z" clip-rule="evenodd"/><path fill="#000" d="M9.357 7.973v-.016l-.014.016h.014zm.136 0h.014l-.014-.016v.016zm-.136 1h-.014l.014.014v-.014zm.136 0v.014l.014-.014h-.014zm1.005-1v-.016l-.015.016h.014zm.135 0h.015l-.015-.016v.016zm-.135 1h-.015l.014.014v-.014zm.135 0v.014l.015-.014h-.015zm-1.275-.986h.134v-.03h-.135v.03zm.014.986v-1h-.03v1h.03zm.12-.016h-.135v.03h.136v-.03zm-.015-.985v1h.03v-1h-.03zm1.02.015h.136v-.03h-.135v.03zm.015.986v-1h-.03v1h.03zm.12-.016h-.134v.03h.135v-.03zm-.014-.985v1h.03v-1h-.03z"/><path fill="#fff" stroke="#000" stroke-width=".03" d="M8.975 6.532v1.035H11V6.532a.157.157 0 0 0-.098.106v.442H9.076v-.442s-.022-.075-.105-.106h.004z"/><path fill="#fff" stroke="#000" stroke-width=".03" d="M10.723 8.794c-.068-.027-.21-.109-.21-.188v-1.02c.014-.056.09-.09.138-.127H9.313c.063.037.134.064.16.127v1.02c0 .079-.112.162-.18.188h1.43z"/><path fill="#fff" fill-rule="evenodd" d="M10.902 6.735v.735H9.076v-.731h.188v-.075h1.455v.071h.184zm-.626 1.871c0 .079.094.162.162.188H9.56c.064-.027.161-.109.161-.188v-.873l-.056-.075h.664l-.053.078v.87z" clip-rule="evenodd"/><path fill="#000" d="M10.902 7.47v.015h.016V7.47h-.015zm0-.735h.016V6.72h-.015v.015zm-1.826.735h-.015v.015h.015V7.47zm0-.731v-.015h-.015v.015h.015zm.188 0v.015h.015v-.015h-.015zm0-.075v-.015h-.015v.015h.015zm1.455 0h.015v-.015h-.015v.015zm0 .071h-.015v.015h.015v-.015zm-.281 2.059v.015l.005-.03-.005.015zm-.878 0-.006-.014.006.029v-.015zm.161-1.062h.019l-.007-.009-.012.01zm-.056-.075v-.014h-.03l.018.024.012-.01zm.664 0 .012.009.016-.024h-.028v.015zm-.053.08-.015-.01v.01h.015zm.642-.267v-.735h-.03v.735h.03zm-1.842.015h1.826v-.03H9.076v.03zm-.015-.746v.731h.03v-.731h-.03zm.203-.015h-.188v.03h.188v-.03zm-.015-.06v.075h.03v-.075h-.03zm1.47-.015H9.264v.03h1.455v-.03zm.015.086v-.071h-.03v.071h.03zm.168-.015h-.183v.03h.184v-.03zm-.46 2.06a.297.297 0 0 1-.1-.07c-.03-.033-.05-.07-.05-.104h-.03c0 .045.026.09.059.124a.327.327 0 0 0 .111.078l.01-.028zm-.882.029h.877v-.03H9.56v.03zm.146-.203c0 .034-.02.07-.052.103a.317.317 0 0 1-.1.07l.012.029a.347.347 0 0 0 .11-.078c.033-.035.06-.079.06-.124h-.03zm0-.873v.873h.03v-.873h-.03zm-.053-.066.056.075.024-.019-.056-.074-.024.018zm.676-.024h-.664v.03h.664v-.03zm-.04.102.052-.08-.025-.016-.052.079.025.017zm.002.861v-.87h-.03v.87h.03z"/><path fill="#fff" fill-rule="evenodd" d="M10.85 6.304s-.184.023-.184.241v-.183c-.056 0-.064.07-.064.26l-1.21-.003c0-.183 0-.26-.068-.26v.602c.139.055.236.234.236.234h.87s.098-.18.236-.234v.343h.135V6.75s-.056 0-.056-.097c0-.093.034-.16.105-.156v-.194z" clip-rule="evenodd"/><path fill="#000" d="M10.85 6.304h.015v-.017l-.017.002.002.015zm-.184.058h.015v-.015h-.015v.015zm-.064.26v.016h.015v-.015h-.015zm-1.21-.003h-.016v.015h.015v-.015zm-.068-.26v-.016h-.015v.015h.015zm0 .602h-.015v.01l.01.004.005-.014zm.236.234-.013.007.004.008h.009v-.015zm.87 0v.015h.009l.004-.008-.013-.007zm.236-.234h.015V6.94l-.02.008.005.014zm0 .343h-.015v.015h.015v-.015zm.135 0v.015h.015v-.015h-.015zm0-.553h.015v-.015h-.015v.015zm.049-.253v.015l.015.001v-.016h-.015zm-.169.047c0-.104.044-.16.086-.19a.216.216 0 0 1 .085-.036l-.002-.015-.002-.015h-.003a.244.244 0 0 0-.096.041c-.05.036-.098.101-.098.215h.03zm-.03-.183v.183h.03v-.183h-.03zm-.034.26c0-.095.002-.158.01-.198a.084.084 0 0 1 .017-.038c.005-.006.012-.009.022-.009v-.03a.058.058 0 0 0-.045.019.112.112 0 0 0-.022.052c-.01.043-.011.11-.011.205h.03zm-1.226.012 1.211.004v-.03l-1.21-.004v.03zm-.067-.26c.013 0 .022.003.028.01a.08.08 0 0 1 .016.039c.008.04.008.104.008.196h.03c0-.09 0-.158-.008-.202a.109.109 0 0 0-.024-.054.065.065 0 0 0-.05-.02v.03zm.015.587v-.603h-.03v.603h.03zm.221.234.013-.007v-.001a.082.082 0 0 0-.005-.008.634.634 0 0 0-.062-.09.46.46 0 0 0-.177-.142l-.01.028a.43.43 0 0 1 .163.133.752.752 0 0 1 .064.092v.002l.014-.007zm.87-.015h-.87v.03h.87v-.03zm.23-.233a.46.46 0 0 0-.176.142.79.79 0 0 0-.05.069l-.012.021-.004.006a.082.082 0 0 0-.001.002l.013.008.013.007.001-.002.003-.005a.586.586 0 0 1 .06-.087.43.43 0 0 1 .165-.133l-.011-.028zm.021.357V6.96h-.03v.343h.03zm.12-.015h-.135v.03h.135v-.03zm-.015-.538v.553h.03V6.75h-.03zm-.056-.097c0 .052.015.08.033.096a.067.067 0 0 0 .038.016v-.03h-.004a.038.038 0 0 1-.014-.008c-.01-.009-.023-.028-.023-.074h-.03zm.12-.17a.098.098 0 0 0-.092.048.233.233 0 0 0-.028.122h.03c0-.045.008-.082.024-.106a.068.068 0 0 1 .065-.035l.002-.03zm-.015-.18v.194h.03v-.194h-.03z"/><path fill="#fff" stroke="#000" stroke-width=".03" d="M9.324 6.536c0-.21-.184-.232-.184-.232v.187c.071-.003.105.06.105.15 0 .094-.056.094-.056.094v.532h.135v-.73z"/><path fill="#000" d="M9.68 5.131h.645v-.03H9.68v.03zm-.075.203h.787v-.03h-.787v.03zm-.075.244h.934v-.03H9.53v.03zm-.079.296h1.106v-.03H9.451v.03zm-.026.337h1.14v-.03h-1.14v.03z"/><path fill="#fff" fill-rule="evenodd" d="m9.823 5.134.106.048.15-.003.102-.045v-.131a.474.474 0 0 1-.016.004c-.037.009-.076.019-.076.07-.014-.067-.03-.077-.058-.094-.008-.005-.017-.01-.027-.018-.01.009-.02.015-.028.02-.026.016-.046.028-.056.092-.008-.053-.044-.062-.083-.071a.857.857 0 0 1-.014-.003v.13zm-.208 2.042c.002-.137.005-.334-.115-.456h1c-.12.122-.117.319-.115.456v.043h-.77v-.043z" clip-rule="evenodd"/><path fill="#000" d="m9.93 5.183-.008.015h.008v-.016zm-.107-.05h-.015v.01l.009.004.006-.013zm.257.046v.016l.006-.003-.006-.013zm.101-.045.007.013.008-.003v-.01h-.015zm0-.131h.015v-.02l-.019.005.004.014zm-.016.004-.004-.015.004.015zm-.076.07-.015.004.03-.004h-.015zm-.058-.094.008-.013-.008.013zm-.027-.018.01-.012-.01-.007-.01.008.01.011zm-.028.02-.008-.013.008.013zm-.056.092-.014.003h.03l-.016-.003zm-.083-.071.003-.015-.003.015zm-.014-.003.004-.015-.019-.005v.02h.015zM9.5 6.72v-.015h-.036l.025.026.011-.011zm.115.456H9.6h.015zm.885-.456.01.01.026-.025H10.5v.015zm-.115.456h.015-.015zm0 .043v.015h.015v-.015h-.015zm-.77 0H9.6v.015h.015v-.015zm.32-2.05L9.83 5.12l-.012.027.106.05.012-.028zm.144-.005-.15.004v.03l.151-.004v-.03zm.096-.044-.101.045.012.027.101-.045-.012-.027zm-.009-.117v.13h.03v-.13h-.03zm.002.018.018-.004-.009-.029-.016.004.007.03zm-.064.056c0-.02.007-.031.018-.039a.144.144 0 0 1 .046-.017l-.007-.029c-.017.005-.04.01-.057.022a.073.073 0 0 0-.03.063h.03zm-.081-.081a.092.092 0 0 1 .03.024.16.16 0 0 1 .02.06l.03-.006a.187.187 0 0 0-.026-.071c-.011-.016-.025-.024-.038-.033l-.016.026zm-.028-.02c.01.009.02.015.028.02l.016-.026-.025-.017-.019.024zm-.011.022a.237.237 0 0 0 .03-.022l-.02-.022a.208.208 0 0 1-.026.018l.016.026zm-.049.082a.132.132 0 0 1 .02-.058.092.092 0 0 1 .029-.024l-.016-.026a.125.125 0 0 0-.038.032.16.16 0 0 0-.024.071l.03.005zm-.102-.06a.15.15 0 0 1 .049.017c.011.008.02.02.024.043l.03-.005a.085.085 0 0 0-.037-.062C9.88 5 9.859 4.996 9.84 4.99l-.007.03zm-.014-.003.014.003.007-.029a.767.767 0 0 1-.013-.003l-.008.029zm.019.117v-.131h-.03v.13h.03zM9.489 6.73a.393.393 0 0 1 .1.214c.013.08.012.162.011.23h.03a1.302 1.302 0 0 0-.012-.235.423.423 0 0 0-.107-.23l-.022.02zm1.011-.026h-1v.03h1v-.03zm-.1.47a1.232 1.232 0 0 1 .012-.23.394.394 0 0 1 .099-.214l-.022-.022a.423.423 0 0 0-.107.23 1.324 1.324 0 0 0-.012.237h.03zm0 .044v-.043h-.03v.043h.03zm-.785.015h.77v-.03h-.77v.03zM9.6 7.176v.043h.03v-.043H9.6z"/><path fill="#fff" stroke="#000" stroke-width=".03" d="m9.931 5.396-.15-.105v-.116c.056.011.113.019.12.083.015-.094.049-.14.101-.177.05.038.083.083.102.176.004-.063.064-.07.112-.082v.12l-.146.101h-.139z"/><path fill="#fff" fill-rule="evenodd" d="m9.886 5.73-.255-.15v-.176l.023.003c.084.014.17.027.181.113a.36.36 0 0 1 .17-.255c.092.053.148.124.182.255.01-.086.098-.1.182-.113l.023-.003v.176l-.261.15h-.245zm.478.199-.228.213H9.87l-.233-.213h.728zm-.694.641c-.01-.158-.056-.244-.17-.285h1c-.114.041-.16.127-.17.285h-.66z" clip-rule="evenodd"/><path fill="#000" d="M9.63 5.58h-.014v.009l.007.004.008-.013zm.256.15-.008.015h.008V5.73zm-.255-.326.002-.015-.017-.003v.018h.015zm.023.003-.002.015.002-.015zm.181.113-.015.002.03.001-.015-.003zm.17-.255.008-.013-.008-.004-.007.004.008.013zm.182.255-.014.004.03-.002-.015-.002zm.182-.113.002.015-.002-.015zm.023-.003h.015v-.018l-.017.003.002.015zm0 .176.008.013.007-.004V5.58h-.015zm-.261.15v.017l.007-.004-.007-.013zm.005.412v.021l.01-.01-.01-.01zm.228-.213.01.01.027-.025h-.037v.015zm-.495.213-.013.015h.013v-.014zm-.233-.213v-.015h-.038l.028.026.01-.011zm-.136.356V6.27l-.005.03.005-.015zm.17.285-.015.001.002.014h.013V6.57zm.83-.285.005.014-.005-.029v.015zm-.17.285v.015h.014v-.014l-.014-.001zm-.707-.977.256.15.015-.026-.256-.15-.015.026zm-.007-.19v.177h.03v-.176h-.03zm.04-.01-.023-.004-.005.03.024.003.004-.03zm.194.125a.116.116 0 0 0-.071-.095.443.443 0 0 0-.123-.03l-.004.03a.44.44 0 0 1 .114.027c.03.014.05.035.054.072l.03-.004zm.148-.266a.374.374 0 0 0-.177.265l.029.006a.345.345 0 0 1 .164-.245l-.016-.026zm.204.264a.469.469 0 0 0-.072-.162.368.368 0 0 0-.117-.102l-.015.026c.044.025.08.055.108.094a.44.44 0 0 1 .067.152l.029-.008zm.165-.123a.443.443 0 0 0-.123.03.116.116 0 0 0-.071.095l.03.004c.004-.037.024-.058.054-.072a.441.441 0 0 1 .114-.028l-.005-.03zm.023-.004-.024.004.005.03.023-.004-.004-.03zm.017.191v-.176h-.03v.176h.03zm-.269.163.261-.15-.014-.026-.262.15.015.026zm-.252.002h.245v-.03h-.245v.03zm.26.408.228-.213-.02-.022-.228.214.02.021zm-.277.005h.267v-.03H9.87v.03zm-.243-.218.233.214.02-.023-.232-.213-.02.022zm.738-.026h-.728v.03h.728v-.03zm-.87.385c.055.02.092.05.117.092a.416.416 0 0 1 .044.18l.03-.002a.445.445 0 0 0-.048-.193.237.237 0 0 0-.132-.105l-.01.028zM10.5 6.27h-1v.03h1v-.03zm-.155.301a.417.417 0 0 1 .044-.18.208.208 0 0 1 .116-.092l-.01-.028a.237.237 0 0 0-.131.105.444.444 0 0 0-.05.193l.03.002zm-.675.014h.66v-.03h-.66v.03z"/><path fill="#fff" stroke="#000" stroke-linejoin="bevel" stroke-width=".03" d="M10.332 5.925v-.21a.195.195 0 0 0-.142.124c0-.075-.094-.237-.195-.319-.101.09-.199.24-.195.315-.019-.056-.068-.101-.143-.12v.214l.675-.004z"/><path fill="#fff" stroke="#000" stroke-linejoin="bevel" stroke-width=".03" d="M10.363 6.285v-.21c-.08.022-.132.064-.154.124 0-.075-.101-.236-.214-.319-.112.094-.217.24-.214.319-.019-.056-.075-.101-.154-.124v.214l.736-.004z"/><path fill="#fff" stroke="#000" stroke-linejoin="bevel" stroke-width=".03" d="M10.453 6.724v-.248a.36.36 0 0 0-.192.143c0-.131-.15-.338-.266-.401-.12.067-.266.277-.266.4a.364.364 0 0 0-.195-.142v.248h.918z"/><path fill="#fff" stroke="#000" stroke-width=".03" d="M6.388 8.595V7.83c-.027-.098-.113-.188-.173-.202v-.676l.139.075.161.71v.862l-.127-.004z"/><path fill="#fff" stroke="#000" stroke-width=".03" d="M6.286 8.794c.064-.027.158-.109.158-.188v-.96l-.045-.075h1.638l-.063.075v.96a.224.224 0 0 0 .127.188H6.286z"/><path fill="#fff" stroke="#000" stroke-width=".03" d="M7.768 8.794c-.064-.027-.158-.109-.158-.188v-.911l.135-.128h-1.11l.135.128v.911c0 .079-.094.162-.157.188h1.154z"/><path fill="#fff" stroke="#000" stroke-width=".03" d="M7.614 8.794c-.064-.027-.162-.109-.162-.188v-.825l.09-.123h-.704l.09.123v.825c0 .079-.094.162-.162.188h.848z"/><path fill="#fff" fill-rule="evenodd" d="M6.447 6.81h.162v.12h.003v.638h-.165V6.81zm.117 1.163h.135v.618h-.135v-.618zm1.155 0h.131v.618h-.135l.004-.618zm.292-.904h-.228v.487h.228V7.07z" clip-rule="evenodd"/><path fill="#000" d="M6.609 6.81h.015l-.015-.015v.015zm-.162 0v-.015l-.014.015h.014zm.162.12h-.015l.015.015V6.93zm.003 0h.016l-.016-.015v.015zm0 .638v.014l.016-.014h-.016zm-.165 0h-.014l.014.014v-.014zm.252.405h.015l-.015-.016v.016zm-.135 0v-.016l-.015.016h.015zm.135.618v.015l.015-.015h-.015zm-.135 0h-.015l.015.015v-.015zm1.286-.618h.015l-.015-.016v.016zm-.131 0v-.016l-.015.015h.015zm.131.618v.015l.015-.015H7.85zm-.135 0H7.7l.015.015v-.015zm.067-1.522v-.015l-.014.015h.014zm.23 0h.014l-.015-.015v.015zm-.23.487h-.014l.014.015v-.015zm.23 0v.015l.014-.015h-.015zm-1.403-.761h-.162v.03h.162v-.03zm.015.135v-.12h-.03v.12h.03zm-.011-.015h-.004v.03h.003v-.03zm.014.652V6.93h-.03v.638h.03zm-.18.015h.165v-.03h-.165v.03zm-.014-.652v.638h.03V6.93h-.03zm0-.12v.12h.03v-.12h-.03zm.266 1.147h-.135v.03h.135v-.03zm.015.634v-.618h-.03v.618h.03zm-.15.015h.135v-.03h-.135v.03zm-.015-.633v.618h.03v-.618h-.03zm1.301-.016h-.131v.03h.131v-.03zm.015.634v-.618h-.03v.618h.03zm-.15.015h.135v-.03h-.135v.03zm-.011-.634-.004.62h.03l.004-.62h-.03zm.079-.888h.228v-.03h-.228v.03zm.014.472V7.07h-.03v.487h.03zm.214-.015h-.228v.03h.228v-.03zm-.015-.472v.487h.03V7.07h-.03z"/><path fill="#fff" fill-rule="evenodd" d="M6.609 6.473V7.56H7.79V6.476c-.018 0-.03.025-.044.055-.022.045-.05.103-.114.103-.056 0-.048-.068-.018-.12.026-.049.06-.113.015-.237-.034.094-.116.124-.101.068a.306.306 0 0 1 .034-.078c.028-.049.052-.09.01-.196-.018.128-.1.124-.082.049a.283.283 0 0 1 .02-.056c.02-.053.037-.097-.009-.188-.034.139-.075.131-.075.045v-.008c0-.122 0-.255-.157-.303 0 0-.011-.113-.068-.113-.06 0-.071.113-.071.113-.157.049-.157.184-.157.311 0 .087-.042.094-.075-.045-.046.091-.029.135-.008.188a.499.499 0 0 1 .019.056c.019.075-.064.079-.083-.049-.04.105-.017.147.01.196a.306.306 0 0 1 .035.078c.015.056-.067.026-.101-.067-.045.123-.011.187.015.236.034.052.037.12-.019.12-.063 0-.091-.06-.113-.106-.015-.03-.026-.055-.044-.055zM6.35 7.567v-.83c.032-.018.064-.018.1 0v.83h-.1z" clip-rule="evenodd"/><path fill="#000" d="M6.609 7.56h-.015v.015h.015V7.56zm0-1.087v-.016h-.015v.016h.015zM7.79 7.56v.015h.015V7.56H7.79zm0-1.084h.015v-.015H7.79v.015zm-.044.055.013.006-.013-.006zm-.132-.017.013.007-.013-.007zm.015-.237.014-.005-.014-.039-.014.04.014.005zm-.101.068.014.004-.014-.004zm.034-.078-.013-.007.013.007zm.01-.196.014-.005-.02-.053-.008.056.014.002zm-.082.049-.015-.004.015.004zm.02-.056-.015-.006.014.006zm-.01-.188.014-.006-.019-.037-.01.04.015.003zm-.075.037H7.41h.015zM7.27 5.61l-.015.001v.01l.01.003.005-.014zm-.139 0 .004.014.01-.003v-.01L7.13 5.61zm-.232.266.014-.003-.01-.04-.018.037.013.006zm-.008.188.014-.006-.014.006zm.019.056.014-.004-.014.004zm-.083-.049.015-.002-.008-.056-.02.053.013.005zm.01.196.014-.007-.013.007zm.035.078-.014.004.014-.004zm-.101-.067.014-.006-.014-.039-.014.04.014.005zm.015.236-.013.007.013-.007zm-.132.014.013-.006-.013.006zm-.303.21-.008-.012-.007.004v.009h.015zm0 .83h-.015v.014h.015v-.014zm.1-.83h.015V6.73l-.008-.005-.007.014zm0 .83v.014h.015v-.014H6.45zm.174-.008V6.473h-.03V7.56h.03zm1.166-.015H6.609v.03H7.79v-.03zm-.015-1.069V7.56h.03V6.476h-.03zm-.016.061a.274.274 0 0 1 .02-.036c.006-.009.01-.01.011-.01v-.03c-.017 0-.028.012-.036.023-.007.01-.015.026-.022.04l.027.013zm-.127.112a.108.108 0 0 0 .084-.04c.02-.022.032-.05.043-.072l-.027-.013a.29.29 0 0 1-.039.065.078.078 0 0 1-.06.03v.03zm-.031-.143a.17.17 0 0 0-.025.088.06.06 0 0 0 .015.039c.01.01.024.016.042.016v-.03c-.011 0-.017-.003-.02-.007-.004-.004-.007-.01-.007-.02a.14.14 0 0 1 .02-.07l-.025-.016zm.014-.223c.021.06.024.104.018.138a.261.261 0 0 1-.032.086l.026.014a.29.29 0 0 0 .036-.095.302.302 0 0 0-.02-.154l-.028.01zm-.102.058c-.004.016-.004.034.012.043a.033.033 0 0 0 .021.004.064.064 0 0 0 .02-.007.18.18 0 0 0 .077-.098l-.028-.01a.152.152 0 0 1-.062.081.035.035 0 0 1-.011.004H7.54c.003.002-.001.004.002-.01l-.029-.007zm.036-.081a.307.307 0 0 0-.036.081l.029.008a.292.292 0 0 1 .033-.075L7.55 6.26zm.01-.183a.22.22 0 0 1 .02.111.197.197 0 0 1-.03.072l.026.014a.226.226 0 0 0 .033-.081.249.249 0 0 0-.022-.127l-.027.01zm-.084.04c-.005.02-.004.04.005.053.004.007.01.012.018.015a.038.038 0 0 0 .023.001.074.074 0 0 0 .04-.035.206.206 0 0 0 .026-.078l-.03-.004a.177.177 0 0 1-.02.066c-.01.015-.018.02-.024.022h-.005s-.002 0-.003-.003c-.002-.004-.005-.014 0-.03l-.03-.008zm.02-.059c-.006.017-.014.036-.02.058l.03.008a.484.484 0 0 1 .018-.055l-.028-.01zm-.007-.175a.205.205 0 0 1 .027.1.227.227 0 0 1-.02.075l.028.011c.01-.026.02-.052.022-.084a.235.235 0 0 0-.03-.115l-.027.013zm-.077.038a.15.15 0 0 0 .008.055.041.041 0 0 0 .013.018.026.026 0 0 0 .024.003.042.042 0 0 0 .018-.013.116.116 0 0 0 .015-.023.403.403 0 0 0 .027-.081l-.03-.007a.376.376 0 0 1-.024.074.087.087 0 0 1-.01.018l-.006.004h.004l-.003-.005a.122.122 0 0 1-.006-.043h-.03zm0-.008v.008h.03v-.008h-.03zm-.147-.289c.075.023.11.065.129.115a.525.525 0 0 1 .018.174h.03c0-.06 0-.127-.02-.184a.209.209 0 0 0-.148-.133l-.009.028zm-.063-.111c.009 0 .016.003.023.012.007.008.013.02.018.034a.248.248 0 0 1 .011.048v.004l.016-.001.015-.002a.157.157 0 0 1-.001-.005.295.295 0 0 0-.013-.054.138.138 0 0 0-.023-.044.06.06 0 0 0-.046-.022v.03zm-.071.097.015.002V5.61a.118.118 0 0 1 .002-.015.234.234 0 0 1 .01-.036.105.105 0 0 1 .019-.034.034.034 0 0 1 .025-.013v-.03c-.02 0-.036.01-.047.023a.135.135 0 0 0-.025.044.265.265 0 0 0-.014.06l.015.001zm-.143.311c0-.064 0-.127.02-.18a.18.18 0 0 1 .127-.117l-.008-.028a.21.21 0 0 0-.148.135c-.02.059-.02.127-.02.19h.03zm-.104-.041a.404.404 0 0 0 .027.08c.005.01.01.018.015.024a.042.042 0 0 0 .018.013.026.026 0 0 0 .024-.003.04.04 0 0 0 .012-.018.15.15 0 0 0 .008-.055h-.03a.134.134 0 0 1-.005.043l-.003.005h.003l-.004-.004a.086.086 0 0 1-.011-.018.376.376 0 0 1-.025-.074l-.03.007zm.02.178a.226.226 0 0 1-.02-.074.205.205 0 0 1 .028-.101l-.027-.013a.235.235 0 0 0-.03.115.226.226 0 0 0 .022.084l.028-.01zm.02.058c-.005-.022-.013-.04-.02-.058l-.027.011a.48.48 0 0 1 .018.055l.03-.008zm-.112-.043c.005.034.015.06.026.078.011.018.025.03.04.035a.038.038 0 0 0 .024 0 .036.036 0 0 0 .018-.016c.009-.014.01-.033.004-.054l-.029.008c.004.016.002.026 0 .03l-.004.003h-.004c-.006-.001-.015-.007-.024-.022a.177.177 0 0 1-.02-.066l-.03.004zm.039.187a.197.197 0 0 1-.03-.072.22.22 0 0 1 .02-.111l-.028-.011a.249.249 0 0 0-.021.127.226.226 0 0 0 .033.081l.026-.014zm.036.081a.367.367 0 0 0-.036-.081l-.026.014a.292.292 0 0 1 .033.075l.029-.008zm-.13-.058a.18.18 0 0 0 .076.098.064.064 0 0 0 .02.007c.007 0 .015 0 .022-.004.016-.009.016-.027.012-.043l-.03.008c.004.013 0 .011.003.01h-.002a.034.034 0 0 1-.011-.005.152.152 0 0 1-.062-.082l-.028.01zm.042.224a.261.261 0 0 1-.032-.086.272.272 0 0 1 .018-.138l-.028-.01a.302.302 0 0 0-.02.153.29.29 0 0 0 .036.095l.026-.014zm-.032.142a.057.057 0 0 0 .042-.016.06.06 0 0 0 .016-.038.153.153 0 0 0-.026-.09l-.026.017a.123.123 0 0 1 .022.07.03.03 0 0 1-.007.02c-.004.004-.01.007-.02.007v.03zm-.127-.114c.011.023.024.05.044.073.02.023.046.04.083.04v-.03a.077.077 0 0 1-.06-.03.298.298 0 0 1-.04-.066l-.027.013zm-.03-.048s.004.001.01.01a.284.284 0 0 1 .02.038l.027-.013c-.007-.015-.014-.03-.022-.042-.007-.01-.018-.023-.035-.023v.03zm-.274.252v.829h.03v-.83h-.03zm.122-.014a.11.11 0 0 0-.115 0l.016.027a.08.08 0 0 1 .04-.012c.014 0 .029.004.045.012l.014-.027zm.008.843v-.83h-.03v.83h.03zm-.115.014h.1v-.03h-.1v.03z"/><path fill="#fff" fill-rule="evenodd" d="m7.348 5.955-.068.056h-.169l-.067-.06v-.075c.026.008.037.011.056.038a.188.188 0 0 1 .098-.109.187.187 0 0 1 .093.113c.019-.027.034-.038.056-.038v.075zm.442 1.609c.03-.165.146-.233.263-.289v.289H7.79z" clip-rule="evenodd"/><path fill="#000" d="M7.28 6.011v.02l.01-.008-.01-.012zm.067-.056.015.018v-.018h-.014zm-.236.056-.013.015h.013v-.015zm-.067-.06H7.02l.013.011.01-.01zm0-.075.004-.014-.02-.006v.02h.016zm.056.038-.012.008.017.024.01-.027-.015-.005zm.098-.109.01-.022-.017.008.006.014zm.093.113-.014.004.009.03.017-.026-.012-.008zm.056-.038h.015v-.015h-.014v.015zm.705 1.395h.016v-.024l-.022.01.007.014zm-.262.289-.015-.003-.003.018h.018v-.015zm.263 0v.015h.014v-.015h-.014zM7.29 6.023l.067-.056-.02-.024L7.27 6l.02.023zm-.179.003h.169v-.03h-.169v.03zm-.077-.064.067.06.02-.022-.067-.06-.02.022zm-.005-.086v.075h.03v-.075h-.03zm.083.029a.103.103 0 0 0-.03-.03.136.136 0 0 0-.034-.013l-.008.029a.11.11 0 0 1 .027.01c.006.003.012.01.02.021l.025-.017zm.08-.114a.203.203 0 0 0-.106.118l.028.01a.172.172 0 0 1 .09-.1L7.19 5.79zm.114.122a.203.203 0 0 0-.102-.121l-.013.026a.173.173 0 0 1 .086.104l.029-.009zm.042-.048a.065.065 0 0 0-.038.012.128.128 0 0 0-.031.032l.024.017a.1.1 0 0 1 .023-.025.035.035 0 0 1 .022-.006v-.03zm.014.09V5.88h-.03v.075h.03zm.684 1.306c-.117.057-.24.127-.27.3l.029.005c.028-.157.138-.221.254-.277l-.013-.027zm.022.303v-.289h-.03v.289h.03zm-.278.015h.263v-.03H7.79v.03z"/><path fill="#fff" stroke="#000" stroke-width=".03" d="m7.317 6.195.03-.071V6.03c-.022 0-.037.011-.056.037a.187.187 0 0 0-.094-.112.188.188 0 0 0-.097.109c-.019-.027-.03-.03-.056-.034v.094l.03.071h.244z"/><path fill="#fff" stroke="#000" stroke-width=".03" d="m7.325 6.442.098-.123v-.12c-.038 0-.057.019-.083.06-.026-.087-.075-.102-.143-.143-.07.038-.12.057-.142.139-.03-.041-.049-.053-.086-.056v.12l.101.123h.255z"/><path fill="#fff" stroke="#000" stroke-width=".03" d="M7.351 6.686s.12-.101.124-.157v-.131c-.045.003-.086.014-.12.07-.03-.108-.075-.138-.158-.187-.086.049-.13.079-.157.188-.037-.057-.075-.068-.124-.075v.135a.56.56 0 0 0 .124.157h.311z"/><path fill="#fff" stroke="#000" stroke-width=".03" d="M7.4 7.136s.165-.176.169-.247v-.203c-.06.008-.12.049-.165.135-.038-.168-.098-.285-.207-.367-.112.082-.172.199-.21.367-.045-.086-.1-.127-.16-.135v.203c.01.071.164.247.164.247H7.4z"/><path fill="#fff" stroke="#000" stroke-width=".03" d="M7.4 7.402s.139-.138.169-.198V7c-.06.008-.12.049-.165.131a.525.525 0 0 0-.207-.345.518.518 0 0 0-.21.346c-.045-.083-.1-.124-.16-.132v.203c.037.06.164.199.164.199H7.4z"/><path fill="#fff" stroke="#000" stroke-width=".03" d="M7.456 7.56c-.037-.176-.075-.307-.266-.439-.195.131-.229.263-.27.439h.536zm6.158 1.035V7.83c.026-.098.112-.188.172-.202v-.676l-.138.075-.162.71v.862l.128-.004z"/><path fill="#fff" stroke="#000" stroke-width=".03" d="M13.715 8.794c-.064-.027-.158-.109-.158-.188v-.96l.045-.075h-1.638l.063.075v.96a.225.225 0 0 1-.127.188h1.815z"/><path fill="#fff" stroke="#000" stroke-width=".03" d="M12.234 8.794c.063-.027.157-.109.157-.188v-.911l-.135-.128h1.11l-.135.128v.911c0 .079.094.162.158.188h-1.155z"/><path fill="#fff" stroke="#000" stroke-width=".03" d="M12.387 8.794c.064-.027.162-.109.162-.188v-.825l-.09-.123h.705l-.09.123v.825c0 .079.094.162.161.188h-.848z"/><path fill="#fff" fill-rule="evenodd" d="M13.554 6.81h-.162v.12h-.003v.638h.165V6.81zm-.117 1.163h-.134v.618h.134v-.618zm-1.154 0h-.132v.618h.135l-.003-.618zm-.293-.904h.229v.487h-.229V7.07z" clip-rule="evenodd"/><path fill="#000" d="M13.393 6.81h-.016l.015-.015v.015zm.16 0v-.015l.016.015h-.015zm-.16.12h.014l-.014.015V6.93zm-.004 0h-.015l.015-.015v.015zm0 .638v.014l-.015-.014h.015zm.165 0h.015l-.015.014v-.014zm-.252.405h-.014l.014-.016v.016zm.136 0v-.016l.014.016h-.014zm-.136.618v.015l-.014-.015h.014zm.136 0h.014l-.014.015v-.015zm-1.287-.618h-.015l.015-.016v.016zm.132 0v-.016l.014.015h-.014zm-.132.618v.015l-.015-.015h.015zm.135 0h.015l-.015.015v-.015zM12.22 7.07v-.015l.015.015h-.015zm-.229 0h-.015l.015-.015v.015zm.229.487h.015l-.015.015v-.015zm-.229 0v.015l-.015-.015h.015zm1.402-.761h.162v.03h-.162v-.03zm-.014.135v-.12h.03v.12h-.03zm.01-.015h.005v.03h-.004v-.03zm-.014.652V6.93h.03v.638h-.03zm.18.015h-.165v-.03h.165v.03zm.015-.652v.638h-.03V6.93h.03zm0-.12v.12h-.03v-.12h.03zm-.267 1.147h.136v.03h-.136v-.03zm-.014.634v-.618h.03v.618h-.03zm.15.015h-.136v-.03h.136v.03zm.014-.633v.618h-.03v-.618h.03zm-1.3-.016h.13v.03h-.13v-.03zm-.016.634v-.618h.03v.618h-.03zm.15.015h-.135v-.03h.135v.03zm.011-.634.004.62h-.03l-.004-.62h.03zm-.078-.888h-.229v-.03h.229v.03zm-.015.472V7.07h.03v.487h-.03zm-.214-.015h.229v.03h-.229v-.03zm.015-.472v.487h-.03V7.07h.03z"/><path fill="#fff" fill-rule="evenodd" d="M13.393 6.473V7.56H12.21V6.476c.018 0 .03.025.044.055.022.045.05.103.114.103.056 0 .049-.068.018-.12-.026-.049-.06-.113-.014-.237.033.094.116.124.1.068a.282.282 0 0 0-.034-.078c-.027-.049-.051-.09-.01-.196.018.128.101.124.082.049a.49.49 0 0 0-.019-.056c-.02-.053-.037-.097.008-.188.034.139.075.131.075.045v-.008c0-.122 0-.255.158-.303 0 0 .01-.113.067-.113.06 0 .071.113.071.113.158.049.158.184.158.311 0 .087.041.094.075-.045.045.091.028.135.008.188a.515.515 0 0 0-.02.056c-.018.075.064.079.083-.049.041.105.017.147-.01.196a.282.282 0 0 0-.035.078c-.015.056.067.026.101-.067.045.123.011.187-.015.236-.034.052-.037.12.019.12.064 0 .091-.06.113-.106.015-.03.027-.055.044-.055zm.258 1.095v-.83c-.032-.018-.064-.018-.1 0v.83h.1z" clip-rule="evenodd"/><path fill="#000" d="M13.393 7.56h.014v.015h-.014V7.56zm0-1.087v-.016h.014v.016h-.014zM12.21 7.56v.015h-.015V7.56h.015zm0-1.084h-.015v-.015h.015v.015zm.044.055-.013.006.013-.006zm.132-.017-.013.007.013-.007zm-.014-.237-.015-.005.015-.039.014.04-.014.005zm.1.068-.014.004.015-.004zm-.034-.078.013-.007-.013.007zm-.01-.196-.014-.005.02-.053.009.056-.015.002zm.082.049.015-.004-.015.004zm-.019-.056.014-.006-.014.006zm.008-.188-.013-.006.018-.037.01.04-.015.003zm.075.037h.015-.015zm.158-.303.014.001v.01l-.01.003-.005-.014zm.138 0-.004.014-.01-.003v-.01l.014-.001zm.233.266-.015-.003.01-.04.018.037-.013.006zm.008.188-.014-.006.014.006zm-.02.056-.014-.004.014.004zm.083-.049-.015-.002.008-.056.021.053-.014.005zm-.01.196-.013-.007.013.007zm-.035.078.014.004-.014-.004zm.101-.067-.014-.006.014-.039.014.04-.014.005zm-.015.236.014.007h-.001l-.013-.007zm.132.014-.013-.006.013.006zm.303.21.008-.012.007.004v.009h-.015zm0 .83h.015v.014h-.015v-.014zm-.1-.83h-.015V6.73l.008-.005.007.014zm0 .83v.014h-.015v-.014h.015zm-.174-.008V6.473h.03V7.56h-.03zm-1.166-.015h1.181v.03h-1.18v-.03zm.015-1.069V7.56h-.03V6.476h.03zm.016.061a.279.279 0 0 0-.02-.036c-.006-.009-.01-.01-.01-.01v-.03c.016 0 .027.012.035.023a.296.296 0 0 1 .022.04l-.027.013zm.127.112a.108.108 0 0 1-.084-.04c-.019-.022-.032-.05-.043-.072l.027-.013a.288.288 0 0 0 .039.065c.015.018.034.03.06.03v.03zm.031-.143a.17.17 0 0 1 .025.088.06.06 0 0 1-.014.039.055.055 0 0 1-.042.016v-.03c.01 0 .016-.003.02-.007a.038.038 0 0 0 .007-.02.14.14 0 0 0-.022-.07l.026-.016zm-.013-.223a.272.272 0 0 0-.019.138.26.26 0 0 0 .033.086l-.027.014c-.013-.025-.029-.055-.036-.095a.302.302 0 0 1 .02-.154l.029.01zm.101.058c.004.016.004.034-.011.043a.033.033 0 0 1-.022.004.064.064 0 0 1-.02-.007.18.18 0 0 1-.077-.098l.029-.01a.152.152 0 0 0 .061.081.035.035 0 0 0 .011.004h.002c-.003.002.002.004-.002-.01l.03-.007zm-.036-.081a.32.32 0 0 1 .036.081l-.029.008a.304.304 0 0 0-.033-.075l.026-.014zm-.01-.183a.22.22 0 0 0-.019.111.197.197 0 0 0 .03.072l-.027.014a.226.226 0 0 1-.033-.081.249.249 0 0 1 .022-.127l.028.01zm.084.04c.005.02.004.04-.004.053a.036.036 0 0 1-.042.016.074.074 0 0 1-.04-.035.206.206 0 0 1-.026-.078l.03-.004c.004.03.012.052.021.066.009.015.018.02.023.022h.005s.002 0 .003-.003c.003-.004.005-.014 0-.03l.03-.008zm-.02-.059a.486.486 0 0 1 .02.058l-.03.008a.394.394 0 0 0-.018-.055l.028-.01zm.007-.175a.206.206 0 0 0-.027.1c.001.027.01.049.02.075l-.028.011c-.01-.026-.02-.052-.022-.084a.234.234 0 0 1 .03-.115l.027.013zm.077.038a.15.15 0 0 1-.008.055.04.04 0 0 1-.013.018.026.026 0 0 1-.023.003.042.042 0 0 1-.019-.013.114.114 0 0 1-.014-.023.404.404 0 0 1-.028-.081l.03-.007a.38.38 0 0 0 .024.074.09.09 0 0 0 .011.018l.005.004h-.004s.002 0 .003-.005a.123.123 0 0 0 .006-.043h.03zm0-.008v.008h-.03v-.008h.03zm.147-.289c-.074.023-.11.065-.128.115a.526.526 0 0 0-.019.174h-.03c0-.06 0-.127.02-.184a.208.208 0 0 1 .148-.133l.009.028zm.063-.111a.028.028 0 0 0-.023.012.11.11 0 0 0-.018.034.24.24 0 0 0-.011.048v.004l-.015-.001-.015-.002v-.005l.002-.013a.27.27 0 0 1 .011-.041.137.137 0 0 1 .023-.044.06.06 0 0 1 .046-.022v.03zm.071.097-.015.002v-.005a.2.2 0 0 0-.012-.048.104.104 0 0 0-.019-.034.033.033 0 0 0-.025-.013v-.03c.02 0 .036.01.048.023.01.013.019.029.024.044a.27.27 0 0 1 .014.054v.005l-.015.002zm.143.311c0-.064 0-.127-.02-.18a.18.18 0 0 0-.127-.117l.009-.028a.21.21 0 0 1 .147.135c.02.059.02.127.02.19h-.03zm.104-.041a.404.404 0 0 1-.027.08.114.114 0 0 1-.014.024.042.042 0 0 1-.019.013.026.026 0 0 1-.023-.003.04.04 0 0 1-.013-.018.15.15 0 0 1-.008-.055h.03c0 .021.002.035.006.043l.002.005h-.003s.002 0 .005-.004a.08.08 0 0 0 .01-.018.372.372 0 0 0 .025-.074l.03.007zm-.02.178a.225.225 0 0 0 .02-.074.205.205 0 0 0-.028-.101l.027-.013a.235.235 0 0 1 .03.115c0 .032-.011.058-.021.084l-.028-.01zm-.02.058a.511.511 0 0 1 .02-.058l.028.011a.47.47 0 0 0-.019.055l-.029-.008zm.112-.043a.206.206 0 0 1-.026.078.074.074 0 0 1-.04.035.038.038 0 0 1-.024 0 .036.036 0 0 1-.018-.016.07.07 0 0 1-.004-.054l.03.008c-.005.016-.003.026 0 .03a.006.006 0 0 0 .003.003h.005c.005-.001.014-.007.023-.022a.176.176 0 0 0 .021-.066l.03.004zm-.038.187a.199.199 0 0 0 .029-.072.22.22 0 0 0-.02-.111l.028-.011a.249.249 0 0 1 .021.127c-.004.032-.019.057-.032.081l-.027-.014zm-.036.081a.266.266 0 0 1 .036-.081l.026.014a.292.292 0 0 0-.034.075l-.028-.008zm.13-.058a.181.181 0 0 1-.077.098.064.064 0 0 1-.02.007.033.033 0 0 1-.022-.004c-.015-.009-.016-.027-.011-.043l.029.008c-.004.013 0 .011-.003.01h.003a.034.034 0 0 0 .01-.005.151.151 0 0 0 .062-.082l.028.01zm-.043.224a.26.26 0 0 0 .033-.086.273.273 0 0 0-.019-.138l.028-.01a.302.302 0 0 1 .02.153.292.292 0 0 1-.036.095l-.026-.014zm.032.142a.057.057 0 0 1-.042-.016.06.06 0 0 1-.016-.038.153.153 0 0 1 .027-.09l.025.017a.123.123 0 0 0-.022.07c0 .01.003.016.007.02s.01.007.021.007v.03zm.127-.114a.31.31 0 0 1-.043.073.107.107 0 0 1-.084.04v-.03a.077.077 0 0 0 .06-.03.299.299 0 0 0 .04-.066l.027.013zm.03-.048s-.004.001-.01.01a.278.278 0 0 0-.02.038l-.027-.013a.313.313 0 0 1 .022-.042c.007-.01.019-.023.036-.023v.03zm.274.252v.829h-.03v-.83h.03zm-.122-.014a.11.11 0 0 1 .114 0l-.014.027a.08.08 0 0 0-.041-.012.096.096 0 0 0-.045.012l-.014-.027zm-.008.843v-.83h.03v.83h-.03zm.115.014h-.1v-.03h.1v.03z"/><path fill="#fff" fill-rule="evenodd" d="m12.654 5.955.067.056h.169l.067-.06v-.075c-.026.008-.037.011-.056.038a.188.188 0 0 0-.097-.109.187.187 0 0 0-.094.113c-.019-.027-.034-.038-.056-.038v.075zm-.443 1.609c-.03-.165-.146-.233-.262-.289v.289h.262z" clip-rule="evenodd"/><path fill="#000" d="M12.721 6.011v.02l-.01-.008.01-.012zm-.067-.056-.015.018v-.018h.015zm.236.056.013.015h-.013v-.015zm.067-.06h.023l-.013.011-.01-.01zm0-.075-.004-.014.02-.006v.02h-.016zm-.056.038.013.008-.018.024-.009-.027.014-.005zm-.097-.109-.011-.022.017.008-.006.014zm-.094.113.014.004-.008.03-.018-.026.012-.008zm-.056-.038h-.015v-.015h.015v.015zm-.705 1.395h-.015v-.024l.021.01-.006.014zm.262.289.015-.003.003.018h-.018v-.015zm-.262 0v.015h-.015v-.015h.015zm.763-1.541-.068-.056.02-.024.067.057-.02.023zm.178.003h-.169v-.03h.169v.03zm.077-.064-.067.06L12.88 6l.067-.06.02.022zm.005-.086v.075h-.03v-.075h.03zm-.083.029a.103.103 0 0 1 .03-.03.136.136 0 0 1 .034-.013l.009.029a.11.11 0 0 0-.028.01.072.072 0 0 0-.02.021l-.025-.017zm-.079-.114a.2.2 0 0 1 .105.118l-.028.01a.173.173 0 0 0-.09-.1l.013-.028zm-.114.122a.203.203 0 0 1 .1-.121l.015.026a.172.172 0 0 0-.087.104l-.028-.009zm-.042-.048c.014 0 .026.004.038.012.01.007.02.018.03.032l-.024.017a.099.099 0 0 0-.023-.025.035.035 0 0 0-.021-.006v-.03zm-.015.09V5.88h.03v.075h-.03zm-.684 1.306c.117.057.24.127.271.3l-.03.005c-.028-.157-.138-.221-.254-.277l.013-.027zm-.021.303v-.289h.03v.289h-.03zm.277.015h-.262v-.03h.262v.03z"/><path fill="#fff" stroke="#000" stroke-width=".03" d="m12.684 6.195-.03-.071V6.03c.022 0 .037.011.056.037a.187.187 0 0 1 .094-.112c.046.022.08.06.097.109.019-.027.03-.03.056-.034v.094l-.03.071h-.243z"/><path fill="#fff" stroke="#000" stroke-width=".03" d="m12.676 6.442-.097-.123v-.12c.037 0 .056.019.082.06.027-.087.075-.102.143-.143.071.038.12.057.142.139.03-.041.049-.053.087-.056v.12l-.102.123h-.255z"/><path fill="#fff" stroke="#000" stroke-width=".03" d="M12.65 6.686s-.12-.101-.124-.157v-.131c.045.003.087.014.12.07.03-.108.075-.138.158-.187.086.049.131.079.157.188.038-.057.075-.068.124-.075v.135a.563.563 0 0 1-.124.157h-.311z"/><path fill="#fff" stroke="#000" stroke-width=".03" d="M12.601 7.136s-.165-.176-.169-.247v-.203c.06.008.12.049.165.135.038-.168.098-.285.207-.367.112.082.172.199.21.367.045-.086.101-.127.161-.135v.203c-.011.071-.165.247-.165.247h-.409z"/><path fill="#fff" stroke="#000" stroke-width=".03" d="M12.601 7.402s-.139-.138-.169-.198V7c.06.008.12.049.165.131a.525.525 0 0 1 .207-.345.518.518 0 0 1 .21.346c.045-.083.101-.124.161-.132v.203c-.038.06-.165.199-.165.199h-.409z"/><path fill="#fff" stroke="#000" stroke-width=".03" d="M12.545 7.56c.037-.176.075-.307.266-.439.195.131.229.263.27.439h-.536z"/><path fill="#fff" fill-rule="evenodd" d="M14.113 9.03H5.885v.304h8.228V9.03zM5.4 9.735h9.2v.469h.244v.468H5.158v-.468H5.4v-.469z" clip-rule="evenodd"/><path fill="#000" d="M5.885 9.03v-.015H5.87v.015h.015zm8.228 0h.014v-.015h-.014v.015zm-8.228.304H5.87v.015h.015v-.015zm8.228 0v.015h.014v-.015h-.014zm.487.401h.015V9.72H14.6v.015zm-9.199 0V9.72h-.015v.015h.015zm9.199.469h-.015v.015h.015v-.015zm.244 0h.015v-.015h-.015v.015zm0 .468v.015h.015v-.014h-.015zm-9.686 0h-.016v.015h.015v-.014zm0-.468v-.015h-.016v.015h.015zm.243 0v.015h.015v-.015h-.015zm.484-1.159h8.228v-.03H5.885v.03zm.015.289V9.03h-.03v.304h.03zm8.213-.015H5.885v.03h8.228v-.03zm-.015-.289v.304h.03V9.03h-.03zm.502.69H5.401v.03H14.6v-.03zm.015.484v-.469h-.03v.469h.03zm.229-.015H14.6v.03h.244v-.03zm.015.483v-.468h-.03v.468h.03zm-9.701.015h9.686v-.03H5.158v.03zm-.016-.483v.468h.03v-.468h-.03zm.26-.015h-.245v.03h.244v-.03zm-.016-.454v.469h.03v-.469h-.03z"/><path fill="#fff" fill-rule="evenodd" d="M13.977 8.77h-7.95v.249h7.95V8.77zm.383.574H5.645v.426h8.715v-.426z" clip-rule="evenodd"/><path fill="#000" d="M6.027 8.77v-.015h-.014v.015h.014zm7.95 0h.015v-.015h-.015v.015zm-7.95.249h-.014v.015h.014v-.015zm7.95 0v.015h.015v-.015h-.015zm-8.332.325V9.33H5.63v.015h.015zm8.715 0h.015V9.33h-.015v.015zm-8.715.426H5.63v.015h.015V9.77zm8.715 0v.015h.015V9.77h-.015zm-8.332-.985h7.95v-.03h-7.95v.03zm.015.234V8.77h-.03v.249h.03zm7.934-.015h-7.95v.03h7.95v-.03zm-.014-.234v.249h.03V8.77h-.03zm-8.318.59h8.715v-.03H5.645v.03zm.015.41v-.426h-.03v.426h.03zm8.7-.015H5.645v.03h8.715v-.03zm-.015-.41v.425h.03v-.426h-.03z"/><path fill="#fff" stroke="#000" stroke-width=".03" d="M6.89 8.786h.6v1.875h-.6V8.786z"/><path fill="#fff" fill-rule="evenodd" d="M7.359 8.786h-.334l-.004 1.875h.338V8.786zm2.928 0h-.6v1.875h.6V8.786z" clip-rule="evenodd"/><path fill="#000" d="M7.025 8.786v-.015H7.01v.015h.015zm.334 0h.015v-.015h-.015v.015zm-.338 1.875h-.015v.015h.015v-.015zm.338 0v.015h.015v-.015h-.015zm2.329-1.875v-.015h-.016v.015h.015zm.6 0h.014v-.015h-.014v.015zm-.6 1.875h-.016v.015h.015v-.015zm.6 0v.015h.014v-.015h-.014zm-3.263-1.86h.334v-.03h-.334v.03zm.011 1.86.004-1.875h-.03l-.004 1.875h.03zm.323-.015H7.02v.03h.338v-.03zm-.015-1.86v1.875h.03V8.786h-.03zm2.343.015h.6v-.03h-.6v.03zm.016 1.86V8.786h-.03v1.875h.03zm.585-.015h-.6v.03h.6v-.03zm-.015-1.86v1.875h.03V8.786h-.03z"/><path fill="#fff" fill-rule="evenodd" d="M10.164 8.786h-.338v1.875h.338V8.786zm2.944 0h-.6v1.875h.6V8.786z" clip-rule="evenodd"/><path fill="#000" d="M9.826 8.786v-.015h-.015v.015h.015zm.338 0h.015v-.015h-.015v.015zm-.338 1.875h-.015v.015h.015v-.015zm.338 0v.015h.015v-.015h-.015zm2.344-1.875v-.015h-.015v.015h.014zm.6 0h.014v-.015h-.014v.015zm-.6 1.875h-.015v.015h.014v-.015zm.6 0v.015h.014v-.015h-.014zm-3.282-1.86h.338v-.03h-.338v.03zm.015 1.86V8.786h-.03v1.875h.03zm.323-.015h-.338v.03h.338v-.03zm-.015-1.86v1.875h.03V8.786h-.03zm2.359.015h.6v-.03h-.6v.03zm.015 1.86V8.786h-.03v1.875h.03zm.585-.015h-.6v.03h.6v-.03zm-.016-1.86v1.875h.03V8.786h-.03z"/><path fill="#fff" stroke="#000" stroke-width=".03" d="M12.639 8.786h.337v1.875h-.337V8.786z"/></svg>