<svg xmlns="http://www.w3.org/2000/svg" width="20" height="15" fill="none"><mask id="a" width="20" height="15" x="0" y="0" maskUnits="userSpaceOnUse"><rect width="20" height="15" fill="#fff" rx="1.25"/></mask><g mask="url(#a)"><path fill="#2E42A5" fill-rule="evenodd" d="M0 0v15h20V0H0z" clip-rule="evenodd"/><mask id="b" width="20" height="15" x="0" y="0" maskUnits="userSpaceOnUse"><path fill="#fff" fill-rule="evenodd" d="M0 0v15h20V0H0z" clip-rule="evenodd"/></mask><g fill-rule="evenodd" clip-rule="evenodd" mask="url(#b)"><path fill="#FECA00" d="M0 0v5h20V0H0z"/><path fill="#E31D1C" d="M0 10v5h20v-5H0z"/><path fill="#F7FCFF" d="m7.96 7.412.615-.348.689.348-.248-.708.515-.52h-.655l-.302-.67-.258.67h-.768l.577.51h-.648l-.302-.67-.258.67H6.15l.588.521-.112.454h-.49l-.303-.67-.257.67h-.769l.588.52-.108.44H5.07l-.302-.67-.258.67h-.768l.588.52-.176.708.615-.348.689.348-.248-.708.515-.52h-.033l.14-.08.69.349-.248-.709.295-.298-.008.032.614-.348.69.348-.248-.708.511-.517.007.006-.176.708zm4.054-.027-.614-.349-.689.349.248-.708-.515-.52h.655l.302-.67.258.67h.768l-.578.51h.652l.302-.67.257.67h.769l-.588.52.112.455h.49l.303-.67.257.67h.769l-.589.52.11.44h.214l.302-.67.258.67h.768l-.588.52.175.708-.614-.349-.689.349.248-.708-.515-.52h.033l-.14-.08-.69.348.248-.708-.295-.298.008.032-.614-.349-.69.349.248-.708-.513-.519-.008.008.175.708z"/><path fill="#F7FCFF" d="m9.896 6.584-.615.349.176-.709-.589-.52h.769l.258-.67.302.67h.655l-.515.52.248.709-.69-.349z"/></g></g></svg>