---
---
<svg xmlns="http://www.w3.org/2000/svg" width="800" height="600" fill="none" viewBox="0 0 800 600">
    <path d="M656.009 271.607C656.009 314.948 610.189 346.365 589.94 381.35C569.055 417.454 564.036 472.618 527.932 493.502C492.947 513.751 443.135 491.103 399.804 491.103C356.473 491.103 306.661 513.751 271.676 493.502C235.582 472.618 230.552 417.454 209.668 381.35C189.429 346.365 143.608 314.927 143.608 271.607C143.608 228.286 189.429 196.838 209.668 161.853C230.552 125.759 235.582 70.555 271.676 49.701C306.661 29.4618 356.473 52.0998 399.804 52.0998C443.135 52.0998 492.947 29.4618 527.932 49.701C564.036 70.5853 569.055 125.759 589.94 161.853C610.189 196.838 656.009 228.276 656.009 271.607Z" fill="rgba(0, 20, 80, .04)"/>
    <path d="M396.357 558.655C543.583 558.655 662.934 554.187 662.934 548.676C662.934 543.165 543.583 538.698 396.357 538.698C249.13 538.698 129.78 543.165 129.78 548.676C129.78 554.187 249.13 558.655 396.357 558.655Z" fill="#A6A9B3"/>
    <path d="M484.268 224.768C480.317 231.058 459.554 262.938 422.069 269.117C408.493 271.303 394.58 269.846 381.752 264.894C374.591 262.189 367.814 258.56 361.593 254.099L370.665 232.025C371.673 232.902 373.235 234.243 375.281 235.734C382.336 240.875 394.875 247.83 407.746 243.485C414.983 241.056 420.043 236.43 429.739 226.935C438.206 218.604 445.866 209.492 452.619 199.721C458.667 188.634 471.175 185.923 479.723 193.311C487.937 200.245 490.094 214.326 484.268 224.768Z" fill="#FFCB9D" style="fill: #FFCB9D; fill: var(--tblr-illustrations-skin, #FFCB9D);"/>
    <path d="M381.782 264.823C374.621 262.118 367.844 258.489 361.624 254.028L370.695 231.955C371.703 232.832 373.265 234.172 375.311 235.664C374.757 240.452 374.434 248.233 376.813 254.532C378.2 258.086 379.862 261.527 381.782 264.823Z" fill="black" opacity="0.15"/>
    <path d="M317.819 140.495C326.542 157.066 341.085 169.825 358.65 176.317L300.059 181.73C305.986 167.981 311.906 154.237 317.819 140.495Z" fill="#232B41"/>
    <path d="M294.244 425.497L291.401 459.293L287.289 508.45H283.287L272.916 457.449L268.481 435.617L294.244 425.497ZM351.776 425.497L349.115 457.307L344.832 508.45H340.83L330.801 459.202L326.003 435.617L351.776 425.497Z" fill="#DADBE0"/>
    <path d="M268.471 435.617L294.243 425.538L291.401 459.333C284.991 458.92 278.802 458.325 272.916 457.489L268.471 435.617ZM351.776 425.497L349.105 457.307C343.279 458.134 337.151 458.769 330.801 459.202L326.003 435.617L351.776 425.497Z" fill="black" opacity="0.15"/>
    <path d="M311.439 185.993C294.768 187.817 276.161 182.969 268.471 177.758C267.15 176.982 266.042 175.892 265.246 174.583C264.409 172.92 263.673 171.197 262.947 169.372C261.94 166.873 261.073 164.272 260.297 161.672C258.229 154.906 256.782 147.967 255.973 140.939C255.973 140.364 255.761 138.651 255.549 136.665C254.824 127.765 254.461 120.538 254.249 115.579C254.672 116.305 256.749 119.692 258.623 119.379C260.639 118.966 262.323 114.531 261.859 108.181H299.666L315.45 121.828C315.45 121.828 315.914 124.016 316.902 127.342C318.502 133.185 320.506 138.911 322.899 144.477C324.915 149.113 327.324 153.387 329.955 155.987C338.673 164.292 331.436 183.907 311.439 185.993Z" fill="#FFCB9D" style="fill: #FFCB9D; fill: var(--tblr-illustrations-skin, #FFCB9D);"/>
    <path d="M322.899 144.477C308.504 149.601 292.809 149.767 278.308 144.95C274.606 145.471 271.118 147.002 268.229 149.375C263.955 152.973 264.066 156.3 260.629 161.198L260.317 161.672C258.249 154.906 256.802 147.967 255.993 140.939C255.993 140.364 255.781 138.651 255.569 136.665C254.844 127.765 254.481 120.538 254.269 115.579C254.692 116.305 256.769 119.692 258.643 119.379C260.659 118.966 262.343 114.531 261.879 108.181H299.686L315.47 121.828C315.47 121.828 315.934 124.016 316.922 127.342C318.515 133.185 320.512 138.91 322.899 144.477Z" fill="black" opacity="0.1"/>
    <path d="M349.417 256.568C353.056 276.193 355.636 290.616 357.41 300.776C357.511 301.341 357.602 301.905 357.703 302.469C359.819 314.272 361.996 326.085 364.113 337.908C324.414 338.62 284.705 339.386 244.986 340.206C245.046 337.475 245.087 334.653 245.157 331.901V331.76C243.969 301.583 244.43 271.364 246.538 241.238C246.689 239.01 246.851 236.803 247.032 234.585L241.085 248.475L217.258 234.364C218.115 230.594 221.108 219.245 229.917 211.484C229.917 211.484 237.91 204.529 246.83 203.269C247.659 203.192 248.48 203.058 249.29 202.866C249.432 202.828 249.577 202.802 249.723 202.785C254.813 202.06 259.742 201.404 264.378 201.052C275.651 200.072 286.979 199.903 298.275 200.548C309.102 201.205 319.856 202.755 330.428 205.184C333.089 205.819 335.861 206.545 338.492 207.412L340.729 208.168C341.011 208.258 341.283 208.339 341.546 208.44L343.017 208.974C344.69 209.619 361.331 214.467 364.98 215.586C369.074 216.917 372.829 219.121 375.986 222.047L360.777 264.077L349.417 256.568Z" fill="#0455A4" style="fill: #0455A4; fill: var(--tblr-primary, var(--tblr-illustrations-primary, #0455A4));"/>
    <path d="M261.486 206.847C261.486 219.406 276.605 229.566 295.302 229.566C313.999 229.566 329.047 219.406 329.047 206.847C329.049 206.17 328.981 205.495 328.846 204.831C318.271 202.364 307.503 200.813 296.662 200.195C285.372 199.553 274.05 199.731 262.786 200.729C261.914 202.65 261.471 204.738 261.486 206.847Z" fill="#FFCB9D" style="fill: #FFCB9D; fill: var(--tblr-illustrations-skin, #FFCB9D);"/>
    <path d="M332.273 121.355C329.612 127.191 323.514 131.434 322.687 131.988C305.028 143.952 278.419 130.366 271.283 126.304C269.509 131.142 264.923 134.79 264.348 137.764C264.197 138.651 264.046 139.538 263.935 140.364C263.759 141.799 263.675 143.243 263.683 144.688C263.736 147.141 264.013 149.583 264.51 151.986C265.387 156.158 269.116 167.246 275.214 181.689C266.673 182.254 258.126 182.828 249.572 183.413L228.819 184.804C225.917 174.917 225.256 164.508 226.884 154.334C227.035 153.427 227.277 152.096 227.64 150.433C228.402 147.048 229.413 143.722 230.663 140.485C230.885 139.921 231.127 139.336 231.369 138.752C233.151 134.57 235.349 130.579 237.931 126.838C244.628 117.17 253.455 109.17 263.734 103.454C267.271 101.599 289.94 89.9577 313.001 98.132C318.736 100.148 332.373 105.056 333.523 114.591C333.757 116.919 333.324 119.265 332.273 121.355ZM282.572 520.605C276.776 522.52 276.685 532.025 276.685 532.025L275.113 541.722L286.301 544.362L289.496 536.742L310.149 544.362C305.835 534.384 288.377 518.7 282.572 520.605ZM365.746 544.362C361.422 534.384 343.965 518.7 338.169 520.605C332.374 522.51 332.273 532.025 332.273 532.025L330.71 541.722L341.878 544.362L345.073 536.742L365.746 544.362Z" fill="#232B41"/>
    <path d="M332.273 121.355C329.612 127.191 323.524 131.434 322.687 131.978C305.028 143.963 278.419 130.366 271.283 126.304C268.795 123.996 266.559 121.431 264.61 118.653C274.822 124.592 286.333 127.939 298.137 128.401C309.941 128.863 321.678 126.426 332.323 121.304L332.273 121.355Z" fill="black" opacity="0.3"/>
    <path d="M370.392 435.617H247.959L245.822 367.38L244.986 340.216L364.113 337.898L369.203 417.02L370.392 435.617Z" fill="#A6A9B3"/>
    <path d="M370.393 435.617H247.959L246.548 339.349L306.379 338.956C284.144 382.912 277.633 399.281 279.427 400.763C281.886 402.778 298.578 375.302 307.034 380.03C310.108 381.753 310.431 386.813 311.308 390.2C314.039 400.662 326.588 412.142 369.203 417.021L370.393 435.617Z" fill="black" opacity="0.1"/>
    <path d="M341.626 208.46H341.576L340.76 208.198C337.474 222.803 318.353 234.051 295.322 234.051C269.932 234.051 249.28 220.444 249.28 203.733V202.886C248.504 203.007 247.687 203.138 246.841 203.299C246.83 203.444 246.83 203.588 246.841 203.733C246.841 222.037 268.582 236.994 295.322 236.994C319.381 236.994 339.389 224.899 343.088 209.065L341.626 208.46Z" fill="#E1E1E1"/>
    <path d="M300.059 251.619C302.108 251.619 303.768 249.643 303.768 247.205C303.768 244.766 302.108 242.79 300.059 242.79C298.011 242.79 296.35 244.766 296.35 247.205C296.35 249.643 298.011 251.619 300.059 251.619Z" fill="#E1E1E1"/>
    <path d="M249.522 183.443L228.769 184.834C225.867 174.948 225.205 164.538 226.833 154.364C226.985 153.457 227.226 152.127 227.589 150.464L230.613 140.515C230.835 139.951 231.077 139.366 231.319 138.782C233.1 134.6 235.299 130.609 237.88 126.868C236.872 140.173 236.721 158.719 242.376 170.511C244.481 174.969 246.868 179.288 249.522 183.443Z" fill="black" opacity="0.3"/>
    <path d="M364.113 337.908C324.414 338.62 284.705 339.387 244.986 340.206C245.046 337.475 245.087 334.653 245.157 331.901V331.76C309.1 334.935 346.686 311.39 357.703 302.469C359.819 314.272 362.037 326.085 364.113 337.908Z" fill="black" opacity="0.1"/>
    <path d="M270.567 376.3C264.681 385.946 252.848 388.516 244.099 381.572C238.787 376.885 212.017 352.17 206.806 307.58C204.163 284.125 208.001 260.395 217.903 238.97C218.518 237.66 219.052 236.571 219.505 235.684L238.061 246.539C237.396 247.618 236.398 249.281 235.28 251.388C230.915 259.653 224.696 274.963 228.426 290.697C230.441 299.284 234.352 305.332 242.335 316.903C249.081 326.68 256.742 335.792 265.215 344.117C274.488 351.203 276.776 366.12 270.567 376.3Z" fill="#FFCB9D" style="fill: #FFCB9D; fill: var(--tblr-illustrations-skin, #FFCB9D);"/>
    <path d="M238.062 246.539C237.396 247.618 236.399 249.281 235.28 251.388C230.129 247.779 222.116 242.125 217.893 238.97C218.508 237.66 219.042 236.571 219.496 235.684L238.062 246.539Z" fill="#C7C6C5"/>
    <path d="M296.663 200.165C285.373 199.522 274.051 199.701 262.786 200.699C261.91 202.629 261.466 204.727 261.486 206.847C261.486 219.406 276.605 229.566 295.302 229.566C313.999 229.566 329.047 219.406 329.047 206.847C329.049 206.17 328.981 205.495 328.846 204.831C318.272 202.354 307.505 200.793 296.663 200.165Z" fill="black" opacity="0.07"/>
    <path d="M447.942 170.239C448.97 182.234 450.009 194.211 451.057 206.172L457.104 275.578C458.677 293.526 460.239 311.484 461.791 329.452H553.513C555.293 311.477 557.081 293.519 558.875 275.578C559.903 265.405 560.911 255.234 561.899 245.068C564.392 220.112 566.871 195.169 569.337 170.239H447.942Z" fill="#DADBE0"/>
    <path d="M566.122 202.251C557.117 209.208 548.742 216.945 541.095 225.373C523.164 245.088 520.675 255.661 512.158 259.32C502.27 263.573 484.944 258.211 452.468 213.197L457.246 278.037H457.296C458.801 295.172 460.293 312.307 461.771 329.442H553.493C555.274 311.48 557.061 293.526 558.855 275.578H559.248L566.122 202.251Z" fill="black" opacity="0.1"/>
    <path d="M421.182 265.468C423.419 271.631 426.427 277.487 430.133 282.895C431.224 284.46 432.388 285.974 433.62 287.431C439.007 293.89 445.851 298.978 453.587 302.278C457.546 303.959 461.68 305.19 465.914 305.947C471.802 307.002 477.795 307.341 483.764 306.955C484.258 306.955 484.772 306.904 485.226 306.864C485.414 306.875 485.602 306.875 485.79 306.864L486.899 306.773L487.423 306.723H487.786C492.348 306.245 496.873 305.467 501.333 304.395H501.403C505.351 303.447 509.241 302.276 513.055 300.887C514.768 300.292 516.421 299.637 518.004 298.942C520.208 297.987 522.291 296.98 524.253 295.918C527.799 294.033 531.217 291.915 534.483 289.578C535.955 288.52 537.306 287.502 538.515 286.554C530.754 283.067 522.983 279.559 515.212 276.092C510.669 274.076 506.134 272.037 501.605 269.974C499.747 271.442 497.716 272.678 495.557 273.653C493.913 274.384 492.177 274.886 490.397 275.144C489.246 275.345 488.076 275.413 486.909 275.346C483.432 275.144 480.156 273.431 477.112 270.679C476.955 270.556 476.806 270.421 476.669 270.276C475.275 268.952 473.982 267.527 472.798 266.013C460.3 250.067 452.64 219.245 452.64 219.245C456.096 207.654 456.305 195.336 453.244 183.635C451.991 179.004 450.208 174.533 447.933 170.31C443.245 171.192 438.787 173.02 434.829 175.682C432.759 177.096 430.853 178.735 429.145 180.57C412.836 197.977 410.327 236.248 421.182 265.468Z" fill="#DADBE0"/>
    <path d="M447.942 170.239C440.754 171.566 434.18 175.162 429.185 180.5C412.836 197.977 410.327 236.248 421.182 265.468C423.419 271.631 426.426 277.487 430.132 282.895C431.224 284.46 432.388 285.974 433.62 287.431C439.007 293.89 445.85 298.978 453.587 302.278C455.56 303.113 457.58 303.836 459.634 304.445L461.822 329.452H553.543C555.324 311.477 557.111 293.519 558.905 275.578C559.933 265.398 560.941 255.228 561.929 245.068C564.402 220.112 566.871 195.169 569.337 170.239H447.942Z" fill="black" opacity="0.05"/>
    <path d="M549.723 80.8057C549.532 85.7647 549.139 93.0318 548.403 101.972C548.201 103.988 548.05 105.651 548.01 106.246C546.867 116.013 544.496 125.597 540.954 134.77C540.218 136.595 539.483 138.308 538.646 139.981C535.552 146.17 512.44 153.629 492.342 151.421C472.244 149.214 465.037 129.67 473.725 121.314C476.376 118.714 478.835 114.44 480.851 109.784C483.248 104.199 485.248 98.4534 486.838 92.5883C487.846 89.2521 488.31 87.0447 488.31 87.0447L504.155 73.3873H542.063C541.619 79.7776 543.293 84.1923 545.298 84.5854C547.304 84.9785 549.28 81.5414 549.723 80.8057Z" fill="#FFCB9D" style="fill: #FFCB9D; fill: var(--tblr-illustrations-skin, #FFCB9D);"/>
    <path d="M549.723 80.8057C549.532 85.7647 549.139 93.0318 548.403 101.972C548.201 103.988 548.05 105.651 548.01 106.246C546.867 116.013 544.496 125.597 540.954 134.77C538.498 133.998 536.213 132.763 534.221 131.132C532.06 129.304 530.276 127.071 528.97 124.56C527.653 121.869 526.765 118.988 526.339 116.023C525.966 114.114 525.703 112.186 525.553 110.247C511.018 115.084 495.283 114.92 480.852 109.784C483.248 104.199 485.249 98.4534 486.839 92.5883C487.847 89.2521 488.31 87.0447 488.31 87.0447L504.155 73.3873H542.063C541.62 79.7776 543.293 84.1923 545.299 84.5854C547.304 84.9785 549.28 81.5414 549.723 80.8057Z" fill="black" opacity="0.1"/>
    <path d="M554.39 88.9094C554.168 97.1543 550.6 105.167 545.581 109.975C544.424 110.928 543.336 111.962 542.325 113.069C539.754 116.292 538.023 120.101 537.286 124.157C535.521 122.039 534.432 119.441 534.161 116.698C533.899 112.515 535.693 104.804 535.784 103.726C535.784 103.726 535.784 103.434 535.874 103.091C535.874 102.496 535.965 102.254 536.046 101.327C536.185 99.3137 536.185 97.293 536.046 95.2795C536.068 95.1834 536.068 95.0834 536.046 94.9872C526.45 100.833 499.105 115.075 480.7 101.035C477.84 98.8553 475.307 96.2755 473.181 93.3746C472.961 93.1435 472.781 92.8779 472.647 92.5884C472.129 91.8669 471.657 91.1127 471.236 90.3306C471.196 90.2645 471.152 90.2005 471.105 90.1391V90.0887C469.983 88.0897 469.206 85.9156 468.807 83.6581L468.666 82.7711C468.583 81.7649 468.583 80.7536 468.666 79.7474C469.185 75.8426 471.04 72.2382 473.917 69.5471C479.249 64.2454 487.121 61.1007 491.263 59.4678C507.39 52.9868 531.812 51.4044 545.692 65.9992C549.166 69.8125 551.7 74.3862 553.09 79.3543C553.967 82.463 554.405 85.6793 554.39 88.9094Z" fill="#232B41"/>
    <path d="M535.985 94.9973C526.39 100.843 499.045 115.085 480.64 101.045C477.779 98.8654 475.246 96.2855 473.121 93.3846C472.901 93.1536 472.72 92.888 472.586 92.5984C472.068 91.877 471.597 91.1228 471.175 90.3407C471.135 90.2745 471.091 90.2106 471.044 90.1492V90.0988C469.942 88.0928 469.186 85.9154 468.807 83.6581C473.1 87.8483 478.055 91.3015 483.472 93.8785C510.313 106.478 538.455 90.7741 542.94 88.2744L543.283 88.0728C541.025 90.5582 538.585 92.8727 535.985 94.9973Z" fill="black" opacity="0.3"/>
    <path d="M553.453 329.452L545.571 520.263H530.079L508.64 372.843L493.924 520.263H482.444L461.771 329.452H553.453Z" fill="#0455A4" style="fill: #0455A4; fill: var(--tblr-primary, var(--tblr-illustrations-primary, #0455A4));"/>
    <path d="M512.722 546.751L547.304 542.901C547.304 542.901 548.554 533.94 543.131 530.806C537.709 527.671 518.377 538.355 512.722 546.751ZM461.822 546.751L496.394 542.901C496.394 542.901 497.644 533.94 492.231 530.806C486.818 527.671 467.416 538.355 461.822 546.751ZM421.182 265.468C423.419 271.631 426.427 277.487 430.133 282.895C435.934 291.468 444.075 298.195 453.587 302.278C454.555 293.997 452.811 285.626 448.618 278.42C441.663 266.406 430.163 261.275 421.182 265.468Z" fill="#232B41"/>
    <path d="M521.037 167.76C512.44 176.317 504.235 179.482 497.986 180.631L496.978 180.812L483.18 169.967L521.037 167.76Z" fill="#E1E1E1"/>
    <path d="M453.889 227.57C458.049 241.184 462.218 254.794 466.398 268.401C473.514 277.355 481.834 285.282 491.122 291.957C505.918 302.459 530.21 314.212 551.93 313.446C563.199 313.073 573.772 309.323 581.967 300.343C588.73 292.894 591.975 284.024 595.191 271.647C595.987 268.573 596.793 265.297 597.64 261.759C599.958 252.184 606.852 222.319 597.358 195.538C593.901 185.812 589.97 181.185 587.782 178.978C585.232 176.388 582.23 174.287 578.923 172.779C575.892 171.414 572.65 170.575 569.337 170.3C569.166 171.227 568.934 172.568 568.672 174.18C567.856 179.22 567.332 183.493 566.999 186.437C566.898 187.374 566.737 188.846 566.576 190.63C566.193 194.661 565.914 198.549 565.739 202.291C565.655 210.229 564.547 218.122 562.443 225.776C560.52 232.845 557.659 239.625 553.936 245.935C545.228 249.79 535.952 252.206 526.47 253.091C491.767 256.246 465.067 236.914 453.889 227.57Z" fill="#DADBDF"/>
    <path d="M551.931 313.466C563.199 313.093 573.772 309.344 581.967 300.363C588.73 292.914 591.976 284.044 595.191 271.667C587.672 272.897 579.004 277.251 570.88 284.458C561.183 293.015 554.45 303.79 551.931 313.466Z" fill="#232B41"/>
    <path d="M493.924 520.263L508.64 372.843L502.079 329.452H461.771L482.444 520.263H493.924Z" fill="black" opacity="0.22"/>
    <path d="M501.03 178.242L478.664 162.176L473.554 167.588L488.754 190.287L501.03 178.242ZM502.079 178.081L535.975 156.955L543.716 164.071L520.685 193.915L502.079 178.081Z" fill="#0455A4" style="fill: #0455A4; fill: var(--tblr-primary, var(--tblr-illustrations-primary, #0455A4));"/>
    <path d="M501.03 178.242L478.664 162.176L473.554 167.588L488.754 190.287L501.03 178.242Z" fill="black" opacity="0.22"/>
</svg>
